<svg width="25" height="25" viewBox="0 0 25 25" fill="none" xmlns="http://www.w3.org/2000/svg">
    <path d="M11.542 23.5H1.54199C0.989707 23.5 0.541992 23.0523 0.541992 22.5V1.5C0.541992 0.947715 0.989707 0.5 1.54199 0.5H14.835C15.1012 0.501908 15.3557 0.609881 15.542 0.8L19.249 4.5C19.4365 4.68749 19.5419 4.9418 19.542 5.207V9.5" stroke="#181B5E" stroke-linecap="round" stroke-linejoin="round"/>
    <path d="M6.54199 7.00391L3.54199 10.0039L6.54199 13.0039" stroke="#181B5E" stroke-linecap="round" stroke-linejoin="round"/>
    <path d="M9.54199 7.00391L12.542 10.0039L9.54199 13.0039" stroke="#181B5E" stroke-linecap="round" stroke-linejoin="round"/>
    <path fill-rule="evenodd" clip-rule="evenodd" d="M17.071 21.5619C19.5723 21.5619 21.6 19.5342 21.6 17.0329C21.6 14.5316 19.5723 12.5039 17.071 12.5039C14.5697 12.5039 12.542 14.5316 12.542 17.0329C12.542 19.5342 14.5697 21.5619 17.071 21.5619Z" stroke="#181B5E" stroke-linecap="round" stroke-linejoin="round"/>
    <path d="M23.5419 23.5041L20.2939 20.2561" stroke="#181B5E" stroke-linecap="round" stroke-linejoin="round"/>
</svg>
