<svg width="24" height="24" viewBox="0 0 24 24" fill="none" xmlns="http://www.w3.org/2000/svg">
    <path fill-rule="evenodd" clip-rule="evenodd" d="M10.5 9.5C10.5 10.0523 10.0523 10.5 9.5 10.5H1.5C0.947715 10.5 0.5 10.0523 0.5 9.5V1.5C0.5 0.947715 0.947715 0.5 1.5 0.5H9.5C10.0523 0.5 10.5 0.947715 10.5 1.5V9.5Z" stroke="#181B5E" stroke-linecap="round" stroke-linejoin="round"/>
    <path fill-rule="evenodd" clip-rule="evenodd" d="M23.5 9.5C23.5 10.0523 23.0523 10.5 22.5 10.5H14.5C13.9477 10.5 13.5 10.0523 13.5 9.5V1.5C13.5 0.947715 13.9477 0.5 14.5 0.5H22.5C23.0523 0.5 23.5 0.947715 23.5 1.5V9.5Z" stroke="#181B5E" stroke-linecap="round" stroke-linejoin="round"/>
    <path fill-rule="evenodd" clip-rule="evenodd" d="M10.5 22.5C10.5 23.0523 10.0523 23.5 9.5 23.5H1.5C0.947715 23.5 0.5 23.0523 0.5 22.5V14.5C0.5 13.9477 0.947715 13.5 1.5 13.5H9.5C10.0523 13.5 10.5 13.9477 10.5 14.5V22.5Z" stroke="#181B5E" stroke-linecap="round" stroke-linejoin="round"/>
    <path fill-rule="evenodd" clip-rule="evenodd" d="M23.5 22.5C23.5 23.0523 23.0523 23.5 22.5 23.5H14.5C13.9477 23.5 13.5 23.0523 13.5 22.5V14.5C13.5 13.9477 13.9477 13.5 14.5 13.5H22.5C23.0523 13.5 23.5 13.9477 23.5 14.5V22.5Z" stroke="#181B5E" stroke-linecap="round" stroke-linejoin="round"/>
</svg>
