<svg width="40" height="41" viewBox="0 0 40 41" fill="none" xmlns="http://www.w3.org/2000/svg">
<g clip-path="url(#clip0_3679_6889)">
<path d="M21.6667 39.863H5.83333C5.61232 39.863 5.40036 39.7752 5.24408 39.619C5.0878 39.4627 5 39.2507 5 39.0297V16.5297C5 16.0877 5.17559 15.6638 5.48816 15.3512C5.80072 15.0386 6.22464 14.863 6.66667 14.863H20C20.442 14.863 20.8659 15.0386 21.1785 15.3512C21.4911 15.6638 21.6667 16.0877 21.6667 16.5297V39.863Z" stroke="#181B5E" stroke-width="1.66667" stroke-linecap="round" stroke-linejoin="round"/>
<path d="M18.3333 14.8629V3.19621C18.3333 2.75418 18.5088 2.33026 18.8214 2.0177C19.134 1.70514 19.5579 1.52954 19.9999 1.52954H33.3333C33.7753 1.52954 34.1992 1.70514 34.5118 2.0177C34.8243 2.33026 34.9999 2.75418 34.9999 3.19621V39.0295C34.9999 39.2506 34.9121 39.4625 34.7558 39.6188C34.5996 39.7751 34.3876 39.8629 34.1666 39.8629H21.6666" stroke="#181B5E" stroke-width="1.66667" stroke-linecap="round" stroke-linejoin="round"/>
<path d="M31.6667 39.863V35.6964C31.6667 35.4754 31.579 35.2634 31.4227 35.1071C31.2664 34.9508 31.0544 34.863 30.8334 34.863H27.5001C27.2791 34.863 27.0671 34.9508 26.9108 35.1071C26.7545 35.2634 26.6667 35.4754 26.6667 35.6964V39.863" stroke="#181B5E" stroke-width="1.66667" stroke-linecap="round" stroke-linejoin="round"/>
<path d="M13.3333 39.863V35.6964C13.3333 35.4754 13.2455 35.2634 13.0892 35.1071C12.9329 34.9508 12.7209 34.863 12.4999 34.863H9.16659C8.94557 34.863 8.73361 34.9508 8.57733 35.1071C8.42105 35.2634 8.33325 35.4754 8.33325 35.6964V39.863" stroke="#181B5E" stroke-width="1.66667" stroke-linecap="round" stroke-linejoin="round"/>
<path d="M5 19.863H11.6667" stroke="#181B5E" stroke-width="1.66667" stroke-linecap="round" stroke-linejoin="round"/>
<path d="M18.3333 11.5295H24.9999" stroke="#181B5E" stroke-width="1.66667" stroke-linecap="round" stroke-linejoin="round"/>
<path d="M18.3333 6.52954H28.3333" stroke="#181B5E" stroke-width="1.66667" stroke-linecap="round" stroke-linejoin="round"/>
<path d="M5 24.863H8.33333" stroke="#181B5E" stroke-width="1.66667" stroke-linecap="round" stroke-linejoin="round"/>
</g>
<defs>
<clipPath id="clip0_3679_6889">
<rect width="40" height="40" fill="white" transform="translate(0 0.696289)"/>
</clipPath>
</defs>
</svg>
