<svg width="132" height="39" viewBox="0 0 132 39" fill="none" xmlns="http://www.w3.org/2000/svg">
<rect width="131.538" height="38" transform="translate(0 0.5)" fill="white"/>
<path d="M130.808 34.1176C130.808 36.1427 129.133 37.783 127.062 37.783H4.48158C2.41136 37.783 0.730957 36.1427 0.730957 34.1176V4.88717C0.730957 2.86306 2.41136 1.21698 4.48158 1.21698H127.061C129.133 1.21698 130.807 2.86306 130.807 4.88717L130.808 34.1176Z" fill="#181B5E"/>
<path d="M126.667 1.26119C128.922 1.26119 130.758 3.05075 130.758 5.25V33.75C130.758 35.9493 128.922 37.7388 126.667 37.7388H4.87179C2.61615 37.7388 0.780705 35.9493 0.780705 33.75V5.25C0.780705 3.05075 2.61615 1.26119 4.87179 1.26119H126.667ZM126.667 0.500004H4.87179C2.19353 0.500004 0 2.63869 0 5.25V33.75C0 36.3613 2.19353 38.5 4.87179 38.5H126.667C129.345 38.5 131.538 36.3613 131.538 33.75V5.25C131.538 2.63869 129.345 0.500004 126.667 0.500004Z" fill="#181B5E"/>
<path d="M29.3554 19.2948C29.3272 16.233 31.9268 14.7434 32.0457 14.674C30.5734 12.5812 28.2914 12.2952 27.4895 12.2724C25.573 12.0758 23.7139 13.3906 22.7376 13.3906C21.7418 13.3906 20.2384 12.2914 18.618 12.3237C16.5329 12.3551 14.5822 13.5321 13.5124 15.3599C11.3045 19.0868 12.9511 24.5635 15.0665 27.576C16.1246 29.0513 17.3611 30.6986 18.9795 30.6407C20.5628 30.577 21.1543 29.6565 23.065 29.6565C24.9582 29.6565 25.5135 30.6407 27.1641 30.6036C28.8634 30.577 29.9332 29.1216 30.9544 27.633C32.1772 25.942 32.6683 24.2766 32.6878 24.1911C32.6478 24.1778 29.3876 22.9647 29.3554 19.2948Z" fill="white"/>
<path d="M26.2375 10.2907C27.0891 9.25236 27.6718 7.83971 27.51 6.40616C26.2774 6.45936 24.736 7.23741 23.8484 8.25296C23.063 9.14786 22.3615 10.6147 22.5427 11.9941C23.9273 12.0948 25.3489 11.3129 26.2375 10.2907Z" fill="white"/>
<path d="M52.2697 30.4288H50.0569L48.8448 26.7152H44.6317L43.4771 30.4288H41.3228L45.4969 17.7862H48.0751L52.2697 30.4288ZM48.4794 25.1572L47.3833 21.856C47.2673 21.5187 47.05 20.7245 46.7295 19.4743H46.6905C46.5629 20.012 46.3573 20.8062 46.0747 21.856L44.998 25.1572H48.4794Z" fill="white"/>
<path d="M63.0041 25.7586C63.0041 27.309 62.5744 28.5345 61.715 29.4342C60.9452 30.235 59.9894 30.635 58.8484 30.635C57.6168 30.635 56.7321 30.2037 56.1933 29.3411H56.1543V34.1433H54.077V24.3137C54.077 23.339 54.0507 22.3386 54 21.3126H55.8269L55.9429 22.7576H55.9818C56.6746 21.6689 57.7259 21.1255 59.1368 21.1255C60.2398 21.1255 61.1606 21.5501 61.8972 22.4004C62.6357 23.2516 63.0041 24.3707 63.0041 25.7586ZM60.8877 25.8327C60.8877 24.9454 60.6831 24.2139 60.2719 23.6382C59.8228 23.0378 59.2196 22.7376 58.4635 22.7376C57.951 22.7376 57.4853 22.9048 57.0692 23.2345C56.6522 23.567 56.3794 24.0011 56.2517 24.5388C56.1874 24.7896 56.1553 24.9948 56.1553 25.1563V26.6763C56.1553 27.3394 56.3638 27.899 56.7808 28.3559C57.1978 28.8129 57.7396 29.0409 58.4061 29.0409C59.1885 29.0409 59.7974 28.7464 60.233 28.1593C60.6695 27.5712 60.8877 26.796 60.8877 25.8327Z" fill="white"/>
<path d="M73.758 25.7586C73.758 27.309 73.3283 28.5345 72.4679 29.4342C71.6991 30.235 70.7433 30.635 69.6023 30.635C68.3707 30.635 67.486 30.2037 66.9482 29.3411H66.9092V34.1433H64.8319V24.3137C64.8319 23.339 64.8055 22.3386 64.7549 21.3126H66.5818L66.6978 22.7576H66.7367C67.4285 21.6689 68.4799 21.1255 69.8917 21.1255C70.9937 21.1255 71.9145 21.5501 72.653 22.4004C73.3887 23.2516 73.758 24.3707 73.758 25.7586ZM71.6417 25.8327C71.6417 24.9454 71.4361 24.2139 71.0249 23.6382C70.5757 23.0378 69.9745 22.7376 69.2175 22.7376C68.704 22.7376 68.2392 22.9048 67.8222 23.2345C67.4051 23.567 67.1333 24.0011 67.0057 24.5388C66.9423 24.7896 66.9092 24.9948 66.9092 25.1563V26.6763C66.9092 27.3394 67.1177 27.899 67.5328 28.3559C67.9498 28.8119 68.4916 29.0409 69.16 29.0409C69.9424 29.0409 70.5513 28.7464 70.9869 28.1593C71.4234 27.5712 71.6417 26.796 71.6417 25.8327Z" fill="white"/>
<path d="M85.7816 26.8834C85.7816 27.9588 85.3987 28.8337 84.6299 29.5092C83.7852 30.2473 82.6091 30.6159 81.0979 30.6159C79.7026 30.6159 78.584 30.3537 77.7373 29.8284L78.2186 28.1402C79.1306 28.6779 80.1313 28.9477 81.2216 28.9477C82.004 28.9477 82.613 28.7748 83.0505 28.4309C83.486 28.087 83.7033 27.6253 83.7033 27.0496C83.7033 26.5366 83.524 26.1044 83.1645 25.7538C82.8069 25.4033 82.2096 25.0774 81.3756 24.7763C79.1053 23.9507 77.9712 22.7414 77.9712 21.1511C77.9712 20.1118 78.3687 19.2596 79.1647 18.5965C79.9579 17.9325 81.016 17.6009 82.3392 17.6009C83.5191 17.6009 84.4994 17.8014 85.2818 18.2013L84.7624 19.8524C84.0317 19.4648 83.2054 19.271 82.2807 19.271C81.55 19.271 80.979 19.4468 80.5698 19.7964C80.2239 20.1089 80.0504 20.4899 80.0504 20.9411C80.0504 21.4408 80.2482 21.8541 80.6458 22.179C80.9917 22.4792 81.6201 22.8041 82.5321 23.1546C83.6478 23.5926 84.4672 24.1046 84.9943 24.6917C85.5195 25.2769 85.7816 26.0094 85.7816 26.8834Z" fill="white"/>
<path d="M92.6502 22.8326H90.3605V27.2586C90.3605 28.3844 90.7638 28.9468 91.5726 28.9468C91.9438 28.9468 92.2517 28.9154 92.4953 28.8527L92.5528 30.3908C92.1435 30.5399 91.6047 30.615 90.9373 30.615C90.1169 30.615 89.4757 30.3708 89.0129 29.8835C88.5521 29.3952 88.3202 28.5763 88.3202 27.4258V22.8307H86.9561V21.3107H88.3202V19.6415L90.3605 19.0411V21.3107H92.6502V22.8326Z" fill="white"/>
<path d="M102.981 25.7956C102.981 27.1969 102.57 28.3473 101.749 29.247C100.889 30.1732 99.7469 30.6349 98.3233 30.6349C96.9514 30.6349 95.8592 30.1913 95.0446 29.304C94.23 28.4167 93.8228 27.2966 93.8228 25.9467C93.8228 24.534 94.2417 23.3769 95.0826 22.4773C95.9215 21.5767 97.0537 21.1264 98.4773 21.1264C99.8492 21.1264 100.953 21.57 101.786 22.4583C102.583 23.3199 102.981 24.4324 102.981 25.7956ZM100.825 25.8612C100.825 25.0204 100.641 24.2994 100.268 23.698C99.8326 22.9703 99.21 22.6074 98.4032 22.6074C97.5682 22.6074 96.9339 22.9713 96.4983 23.698C96.1252 24.3003 95.941 25.0328 95.941 25.8992C95.941 26.7399 96.1252 27.461 96.4983 28.0614C96.9475 28.7891 97.575 29.152 98.3847 29.152C99.1778 29.152 99.8004 28.7815 100.25 28.0424C100.633 27.4296 100.825 26.701 100.825 25.8612Z" fill="white"/>
<path d="M109.733 23.0939C109.528 23.0568 109.309 23.0378 109.079 23.0378C108.348 23.0378 107.783 23.3067 107.385 23.8453C107.039 24.3203 106.866 24.9207 106.866 25.6456V30.4288H104.789L104.809 24.1835C104.809 23.1328 104.783 22.1762 104.731 21.3136H106.54L106.616 23.0578H106.674C106.893 22.4583 107.239 21.9757 107.713 21.6138C108.175 21.2879 108.675 21.1255 109.214 21.1255C109.406 21.1255 109.579 21.1388 109.733 21.1625V23.0939Z" fill="white"/>
<path d="M119.024 25.4394C119.024 25.8023 119 26.1082 118.948 26.358H112.716C112.741 27.2586 113.042 27.9474 113.62 28.4224C114.146 28.847 114.825 29.0598 115.659 29.0598C116.581 29.0598 117.423 28.9164 118.18 28.6285L118.506 30.0345C117.621 30.4107 116.577 30.5979 115.371 30.5979C113.921 30.5979 112.783 30.1818 111.955 29.3505C111.129 28.5193 110.715 27.403 110.715 26.0027C110.715 24.6281 111.1 23.4833 111.87 22.5704C112.677 21.5957 113.768 21.1083 115.139 21.1083C116.487 21.1083 117.507 21.5957 118.2 22.5704C118.748 23.3446 119.024 24.3022 119.024 25.4394ZM117.043 24.914C117.057 24.3136 116.921 23.7949 116.64 23.357C116.28 22.7936 115.728 22.5124 114.984 22.5124C114.305 22.5124 113.753 22.787 113.331 23.338C112.985 23.7759 112.78 24.3013 112.716 24.9131H117.043V24.914Z" fill="white"/>
<path d="M47.7924 10.0086C47.7924 11.1267 47.4484 11.9684 46.7615 12.5337C46.1252 13.0552 45.221 13.3165 44.0498 13.3165C43.4691 13.3165 42.9722 13.2918 42.5562 13.2424V7.13292C43.0989 7.04742 43.6835 7.00372 44.3149 7.00372C45.4305 7.00372 46.2714 7.24027 46.8385 7.71337C47.4737 8.24822 47.7924 9.01297 47.7924 10.0086ZM46.7157 10.0361C46.7157 9.31127 46.5189 8.75552 46.1252 8.36792C45.7316 7.98127 45.1567 7.78747 44.3996 7.78747C44.0781 7.78747 43.8043 7.80837 43.5773 7.85207V12.4966C43.703 12.5156 43.9329 12.5242 44.2671 12.5242C45.0486 12.5242 45.6517 12.3123 46.0765 11.8886C46.5013 11.4649 46.7157 10.8474 46.7157 10.0361Z" fill="white"/>
<path d="M53.5011 10.9852C53.5011 11.6739 53.2994 12.2382 52.896 12.6809C52.4731 13.136 51.9129 13.363 51.2133 13.363C50.539 13.363 50.0021 13.1455 49.6017 12.7085C49.2022 12.2724 49.0024 11.7224 49.0024 11.0593C49.0024 10.3658 49.208 9.79671 49.6212 9.35496C50.0343 8.91321 50.5897 8.69186 51.2893 8.69186C51.9635 8.69186 52.5053 8.90941 52.9155 9.34546C53.3052 9.76916 53.5011 10.3164 53.5011 10.9852ZM52.4419 11.0175C52.4419 10.6042 52.3503 10.2499 52.1681 9.95441C51.9538 9.59721 51.6488 9.41861 51.2522 9.41861C50.842 9.41861 50.5302 9.59721 50.3159 9.95441C50.1327 10.2499 50.0421 10.6099 50.0421 11.0355C50.0421 11.4488 50.1337 11.8031 50.3159 12.0986C50.5371 12.4558 50.845 12.6344 51.2425 12.6344C51.6322 12.6344 51.9382 12.4529 52.1584 12.0891C52.3474 11.7879 52.4419 11.4307 52.4419 11.0175Z" fill="white"/>
<path d="M61.1558 8.78305L59.7187 13.2614H58.7833L58.1879 11.3167C58.0369 10.8313 57.9142 10.3487 57.8187 9.86985H57.8002C57.7115 10.362 57.5887 10.8436 57.4309 11.3167L56.7985 13.2614H55.8524L54.501 8.78305H55.5504L56.0697 10.912C56.1954 11.4155 56.2987 11.8953 56.3815 12.3494H56.4C56.476 11.9751 56.6017 11.4982 56.779 10.9215L57.4309 8.784H58.263L58.8875 10.8759C59.0386 11.3861 59.1613 11.8772 59.2558 12.3503H59.2841C59.3533 11.8896 59.4575 11.3984 59.5959 10.8759L60.1532 8.784H61.1558V8.78305Z" fill="white"/>
<path d="M66.4494 13.2614H65.4283V10.6964C65.4283 9.90598 65.1204 9.51078 64.5026 9.51078C64.1996 9.51078 63.955 9.61908 63.765 9.83663C63.577 10.0542 63.4815 10.3107 63.4815 10.6042V13.2604H62.4604V10.0627C62.4604 9.66943 62.4477 9.24288 62.4233 8.78118H63.3207L63.3685 9.48133H63.3967C63.5156 9.26378 63.6929 9.08423 63.9258 8.94078C64.2025 8.77358 64.5124 8.68903 64.8514 8.68903C65.2802 8.68903 65.6368 8.82393 65.9203 9.09468C66.273 9.42623 66.4494 9.92118 66.4494 10.5786V13.2614Z" fill="white"/>
<path d="M69.2653 13.2614H68.2451V6.72821H69.2653V13.2614Z" fill="white"/>
<path d="M75.2769 10.9852C75.2769 11.6739 75.0752 12.2382 74.6719 12.6809C74.249 13.136 73.6878 13.363 72.9891 13.363C72.3139 13.363 71.777 13.1455 71.3775 12.7085C70.9781 12.2724 70.7783 11.7224 70.7783 11.0593C70.7783 10.3658 70.9839 9.79671 71.397 9.35496C71.8102 8.91321 72.3656 8.69186 73.0642 8.69186C73.7394 8.69186 74.2802 8.90941 74.6913 9.34546C75.0811 9.76916 75.2769 10.3164 75.2769 10.9852ZM74.2168 11.0175C74.2168 10.6042 74.1252 10.2499 73.943 9.95441C73.7297 9.59721 73.4237 9.41861 73.0281 9.41861C72.6169 9.41861 72.3051 9.59721 72.0918 9.95441C71.9086 10.2499 71.818 10.6099 71.818 11.0355C71.818 11.4488 71.9095 11.8031 72.0918 12.0986C72.3129 12.4558 72.6208 12.6344 73.0184 12.6344C73.4081 12.6344 73.7131 12.4529 73.9333 12.0891C74.1233 11.7879 74.2168 11.4307 74.2168 11.0175Z" fill="white"/>
<path d="M80.219 13.2614H79.3021L79.2261 12.7455H79.1979C78.8841 13.1569 78.4369 13.363 77.8562 13.363C77.4226 13.363 77.0718 13.2272 76.8078 12.9574C76.5681 12.7123 76.4482 12.4073 76.4482 12.0454C76.4482 11.4982 76.6821 11.0811 77.1527 10.7923C77.6223 10.5035 78.283 10.362 79.1336 10.3686V10.285C79.1336 9.69506 78.8159 9.40056 78.1797 9.40056C77.7266 9.40056 77.3271 9.51171 76.9822 9.73211L76.7747 9.07851C77.2014 8.82106 77.7286 8.69186 78.3502 8.69186C79.5506 8.69186 80.1528 9.30936 80.1528 10.5444V12.1936C80.1528 12.641 80.1752 12.9973 80.219 13.2614ZM79.1589 11.7224V11.0317C78.0325 11.0127 77.4694 11.3139 77.4694 11.9342C77.4694 12.1679 77.5337 12.3427 77.6652 12.4596C77.7968 12.5764 77.9643 12.6344 78.1641 12.6344C78.3882 12.6344 78.5977 12.565 78.7886 12.4273C78.9806 12.2886 79.0985 12.1128 79.1423 11.8972C79.1531 11.8487 79.1589 11.7898 79.1589 11.7224Z" fill="white"/>
<path d="M86.0213 13.2614H85.1152L85.0674 12.5422H85.0392C84.7498 13.0894 84.2568 13.363 83.564 13.363C83.0106 13.363 82.5497 13.1512 82.1843 12.7275C81.8189 12.3038 81.6367 11.7537 81.6367 11.0783C81.6367 10.3534 81.8345 9.76631 82.2321 9.31791C82.6169 8.89991 83.0885 8.69091 83.6497 8.69091C84.2665 8.69091 84.6981 8.89326 84.9437 9.29891H84.9632V6.72821H85.9853V12.0549C85.9853 12.4909 85.997 12.8928 86.0213 13.2614ZM84.9632 11.3728V10.6261C84.9632 10.4969 84.9534 10.3924 84.9349 10.3126C84.8774 10.0732 84.7537 9.87176 84.5656 9.70931C84.3756 9.54686 84.1467 9.46516 83.8826 9.46516C83.5016 9.46516 83.2035 9.61241 82.9843 9.90786C82.767 10.2033 82.6569 10.5805 82.6569 11.0412C82.6569 11.4839 82.7611 11.843 82.9706 12.1195C83.1918 12.414 83.4899 12.5612 83.8631 12.5612C84.1983 12.5612 84.4663 12.4387 84.6699 12.1926C84.8667 11.9656 84.9632 11.692 84.9632 11.3728Z" fill="white"/>
<path d="M94.7545 10.9852C94.7545 11.6739 94.5528 12.2382 94.1494 12.6809C93.7265 13.136 93.1672 13.363 92.4667 13.363C91.7934 13.363 91.2565 13.1455 90.8551 12.7085C90.4556 12.2724 90.2559 11.7224 90.2559 11.0593C90.2559 10.3658 90.4615 9.79671 90.8746 9.35496C91.2877 8.91321 91.8431 8.69186 92.5437 8.69186C93.2169 8.69186 93.7597 8.90941 94.1689 9.34546C94.5586 9.76916 94.7545 10.3164 94.7545 10.9852ZM93.6963 11.0175C93.6963 10.6042 93.6047 10.2499 93.4225 9.95441C93.2072 9.59721 92.9032 9.41861 92.5057 9.41861C92.0964 9.41861 91.7846 9.59721 91.5693 9.95441C91.3861 10.2499 91.2955 10.6099 91.2955 11.0355C91.2955 11.4488 91.3871 11.8031 91.5693 12.0986C91.7905 12.4558 92.0984 12.6344 92.4959 12.6344C92.8857 12.6344 93.1926 12.4529 93.4128 12.0891C93.6008 11.7879 93.6963 11.4307 93.6963 11.0175Z" fill="white"/>
<path d="M100.245 13.2614H99.2246V10.6964C99.2246 9.90598 98.9168 9.51078 98.298 9.51078C97.995 9.51078 97.7504 9.61908 97.5614 9.83663C97.3724 10.0542 97.2779 10.3107 97.2779 10.6042V13.2604H96.2558V10.0627C96.2558 9.66943 96.2441 9.24288 96.2197 8.78118H97.1161L97.1639 9.48133H97.1921C97.312 9.26378 97.4893 9.08423 97.7212 8.94078C97.9989 8.77358 98.3078 8.68903 98.6478 8.68903C99.0756 8.68903 99.4322 8.82393 99.7157 9.09468C100.069 9.42623 100.245 9.92118 100.245 10.5786V13.2614Z" fill="white"/>
<path d="M107.117 9.52881H105.993V11.7043C105.993 12.2572 106.193 12.5337 106.588 12.5337C106.771 12.5337 106.923 12.5185 107.043 12.4871L107.069 13.2424C106.868 13.3165 106.603 13.3535 106.276 13.3535C105.873 13.3535 105.559 13.2338 105.332 12.9944C105.104 12.755 104.991 12.3522 104.991 11.787V9.52881H104.32V8.78306H104.991V7.96226L105.992 7.66776V8.78211H107.116V9.52881H107.117Z" fill="white"/>
<path d="M112.523 13.2614H111.501V10.7154C111.501 9.91261 111.193 9.51076 110.576 9.51076C110.103 9.51076 109.779 9.74351 109.602 10.209C109.572 10.3069 109.554 10.4266 109.554 10.5672V13.2604H108.534V6.72821H109.554V9.42716H109.574C109.895 8.93601 110.356 8.69091 110.954 8.69091C111.376 8.69091 111.726 8.82581 112.004 9.09656C112.35 9.43381 112.523 9.93541 112.523 10.5985V13.2614Z" fill="white"/>
<path d="M118.099 10.8104C118.099 10.989 118.086 11.1391 118.061 11.2616H114.999C115.012 11.7043 115.159 12.0416 115.442 12.2753C115.701 12.4843 116.035 12.5888 116.445 12.5888C116.898 12.5888 117.311 12.5185 117.683 12.3769L117.843 13.0685C117.407 13.2528 116.895 13.345 116.301 13.345C115.59 13.345 115.03 13.1407 114.625 12.7322C114.217 12.3237 114.016 11.7756 114.016 11.0878C114.016 10.4123 114.204 9.84992 114.583 9.40152C114.978 8.92272 115.513 8.68332 116.188 8.68332C116.849 8.68332 117.351 8.92272 117.69 9.40152C117.964 9.78152 118.099 10.2518 118.099 10.8104ZM117.125 10.5529C117.133 10.2575 117.065 10.0029 116.927 9.78817C116.75 9.51172 116.48 9.37302 116.114 9.37302C115.781 9.37302 115.509 9.50792 115.302 9.77867C115.132 9.99432 115.032 10.2518 114.999 10.5529H117.125Z" fill="white"/>
</svg>
