<svg width="50" height="50" viewBox="0 0 50 50" fill="none" xmlns="http://www.w3.org/2000/svg">
    <path d="M5.2168 40.4855V23.8188" stroke="#181B5E" stroke-width="2.08333" stroke-linecap="round" stroke-linejoin="round"/>
    <path d="M3.1333 40.4854H13.55" stroke="#181B5E" stroke-width="2.08333" stroke-linecap="round" stroke-linejoin="round"/>
    <path d="M1.05005 48.8188H48.9667" stroke="#181B5E" stroke-width="2.08333" stroke-linecap="round" stroke-linejoin="round"/>
    <path d="M1.05005 44.6521H48.9667" stroke="#181B5E" stroke-width="2.08333" stroke-linecap="round" stroke-linejoin="round"/>
    <path d="M3.1333 23.8188H13.55" stroke="#181B5E" stroke-width="2.08333" stroke-linecap="round" stroke-linejoin="round"/>
    <path d="M19.8 40.4854H30.2167" stroke="#181B5E" stroke-width="2.08333" stroke-linecap="round" stroke-linejoin="round"/>
    <path d="M19.8 23.8188H30.2167" stroke="#181B5E" stroke-width="2.08333" stroke-linecap="round" stroke-linejoin="round"/>
    <path d="M11.4668 40.4855V23.8188" stroke="#181B5E" stroke-width="2.08333" stroke-linecap="round" stroke-linejoin="round"/>
    <path d="M21.8833 40.4855V23.8188" stroke="#181B5E" stroke-width="2.08333" stroke-linecap="round" stroke-linejoin="round"/>
    <path d="M28.1333 40.4855V23.8188" stroke="#181B5E" stroke-width="2.08333" stroke-linecap="round" stroke-linejoin="round"/>
    <path d="M36.4668 40.4854H46.8835" stroke="#181B5E" stroke-width="2.08333" stroke-linecap="round" stroke-linejoin="round"/>
    <path d="M36.4668 23.8188H46.8835" stroke="#181B5E" stroke-width="2.08333" stroke-linecap="round" stroke-linejoin="round"/>
    <path d="M38.55 40.4855V23.8188" stroke="#181B5E" stroke-width="2.08333" stroke-linecap="round" stroke-linejoin="round"/>
    <path d="M44.8 40.4855V23.8188" stroke="#181B5E" stroke-width="2.08333" stroke-linecap="round" stroke-linejoin="round"/>
    <path d="M3.43744 17.7875C3.26582 17.9207 3.14013 18.1042 3.07797 18.3124C3.01582 18.5206 3.02029 18.7429 3.09078 18.9484C3.16126 19.1539 3.29423 19.3322 3.47107 19.4584C3.64792 19.5846 3.85978 19.6523 4.07702 19.6521H45.952C46.1691 19.6526 46.3809 19.5853 46.5579 19.4595C46.7348 19.3338 46.8681 19.1559 46.939 18.9507C47.0099 18.7456 47.0149 18.5234 46.9534 18.3152C46.8919 18.107 46.7668 17.9233 46.5958 17.7896L25.7145 1.4042C25.5313 1.26094 25.3054 1.18311 25.0729 1.18311C24.8403 1.18311 24.6144 1.26094 24.4312 1.4042L3.43744 17.7875Z" stroke="#181B5E" stroke-width="2.08333" stroke-linecap="round" stroke-linejoin="round"/>
</svg>
