<svg width="42" height="43" viewBox="0 0 42 43" fill="none" xmlns="http://www.w3.org/2000/svg">
<path d="M7.28162 37.7998V21.3265" stroke="#181B5E" stroke-width="1.66667" stroke-linecap="round" stroke-linejoin="round"/>
<path d="M5.46362 37.7998H16.3727" stroke="#181B5E" stroke-width="1.66667" stroke-linecap="round" stroke-linejoin="round"/>
<path d="M1.01294 41.4604H41.0129" stroke="#181B5E" stroke-width="1.66667" stroke-linecap="round" stroke-linejoin="round"/>
<path d="M5.46362 21.3265H16.3727" stroke="#181B5E" stroke-width="1.66667" stroke-linecap="round" stroke-linejoin="round"/>
<path d="M10.9185 37.7998V21.3265" stroke="#181B5E" stroke-width="1.66667" stroke-linecap="round" stroke-linejoin="round"/>
<path d="M14.5546 37.7998V21.3265" stroke="#181B5E" stroke-width="1.66667" stroke-linecap="round" stroke-linejoin="round"/>
<path d="M25.4636 37.7998H36.3727" stroke="#181B5E" stroke-width="1.66667" stroke-linecap="round" stroke-linejoin="round"/>
<path d="M25.4636 21.3265H36.3727" stroke="#181B5E" stroke-width="1.66667" stroke-linecap="round" stroke-linejoin="round"/>
<path d="M27.2816 37.7998V21.3265" stroke="#181B5E" stroke-width="1.66667" stroke-linecap="round" stroke-linejoin="round"/>
<path d="M30.9185 37.7998V21.3265" stroke="#181B5E" stroke-width="1.66667" stroke-linecap="round" stroke-linejoin="round"/>
<path d="M34.5546 37.7998V21.3265" stroke="#181B5E" stroke-width="1.66667" stroke-linecap="round" stroke-linejoin="round"/>
<path d="M3.00529 16.0276C2.85539 16.1447 2.74565 16.3061 2.69144 16.4891C2.63724 16.6722 2.6413 16.8678 2.70304 17.0484C2.76479 17.229 2.88113 17.3856 3.03575 17.4964C3.19038 17.6071 3.37554 17.6663 3.56529 17.6657H38.4598C38.6458 17.6661 38.8275 17.6091 38.9803 17.5023C39.133 17.3955 39.2496 17.2441 39.3142 17.0685C39.3788 16.8929 39.3884 16.7016 39.3416 16.5204C39.2948 16.3391 39.1939 16.1767 39.0526 16.055L22.4471 1.6812C22.2879 1.54361 22.0863 1.46571 21.8765 1.46071C21.6667 1.4557 21.4617 1.52391 21.2962 1.65375L3.00529 16.0276Z" stroke="#181B5E" stroke-width="1.66667" stroke-linecap="round" stroke-linejoin="round"/>
</svg>
