<svg width="25" height="24" viewBox="0 0 25 24" fill="none" xmlns="http://www.w3.org/2000/svg">
    <path d="M17.0112 7.02008L20.1182 3.93408" stroke="#181B5E" stroke-linecap="round" stroke-linejoin="round"/>
    <path fill-rule="evenodd" clip-rule="evenodd" d="M21.5112 4.5C22.6158 4.5 23.5112 3.60457 23.5112 2.5C23.5112 1.39543 22.6158 0.5 21.5112 0.5C20.4067 0.5 19.5112 1.39543 19.5112 2.5C19.5112 3.60457 20.4067 4.5 21.5112 4.5Z" stroke="#181B5E" stroke-linecap="round" stroke-linejoin="round"/>
    <path d="M17.9731 17.979L20.0871 20.107" stroke="#181B5E" stroke-linecap="round" stroke-linejoin="round"/>
    <path fill-rule="evenodd" clip-rule="evenodd" d="M21.521 23.5C22.6256 23.5 23.521 22.6046 23.521 21.5C23.521 20.3954 22.6256 19.5 21.521 19.5C20.4164 19.5 19.521 20.3954 19.521 21.5C19.521 22.6046 20.4164 23.5 21.521 23.5Z" stroke="#181B5E" stroke-linecap="round" stroke-linejoin="round"/>
    <path d="M7.01083 7.02008L3.90283 3.93408" stroke="#181B5E" stroke-linecap="round" stroke-linejoin="round"/>
    <path fill-rule="evenodd" clip-rule="evenodd" d="M2.51123 4.5C3.6158 4.5 4.51123 3.60457 4.51123 2.5C4.51123 1.39543 3.6158 0.5 2.51123 0.5C1.40666 0.5 0.51123 1.39543 0.51123 2.5C0.51123 3.60457 1.40666 4.5 2.51123 4.5Z" stroke="#181B5E" stroke-linecap="round" stroke-linejoin="round"/>
    <path d="M6.04908 17.979L3.93408 20.107" stroke="#181B5E" stroke-linecap="round" stroke-linejoin="round"/>
    <path fill-rule="evenodd" clip-rule="evenodd" d="M2.5 23.5C3.60457 23.5 4.5 22.6046 4.5 21.5C4.5 20.3954 3.60457 19.5 2.5 19.5C1.39543 19.5 0.5 20.3954 0.5 21.5C0.5 22.6046 1.39543 23.5 2.5 23.5Z" stroke="#181B5E" stroke-linecap="round" stroke-linejoin="round"/>
    <path d="M6.5 12H4.5" stroke="#181B5E" stroke-linecap="round" stroke-linejoin="round"/>
    <path fill-rule="evenodd" clip-rule="evenodd" d="M2.5 14C3.60457 14 4.5 13.1046 4.5 12C4.5 10.8954 3.60457 10 2.5 10C1.39543 10 0.5 10.8954 0.5 12C0.5 13.1046 1.39543 14 2.5 14Z" stroke="#181B5E" stroke-linecap="round" stroke-linejoin="round"/>
    <path d="M17.5 12H19.5" stroke="#181B5E" stroke-linecap="round" stroke-linejoin="round"/>
    <path fill-rule="evenodd" clip-rule="evenodd" d="M21.5 14C22.6046 14 23.5 13.1046 23.5 12C23.5 10.8954 22.6046 10 21.5 10C20.3954 10 19.5 10.8954 19.5 12C19.5 13.1046 20.3954 14 21.5 14Z" stroke="#181B5E" stroke-linecap="round" stroke-linejoin="round"/>
    <path d="M12 13.25C11.8619 13.25 11.75 13.3619 11.75 13.5C11.75 13.6381 11.8619 13.75 12 13.75C12.1381 13.75 12.25 13.6381 12.25 13.5C12.25 13.3619 12.1381 13.25 12 13.25V13.25" stroke="#181B5E" stroke-linecap="round" stroke-linejoin="round"/>
    <path fill-rule="evenodd" clip-rule="evenodd" d="M15.5 15.5C15.5 16.0523 15.0523 16.5 14.5 16.5H9.5C8.94772 16.5 8.5 16.0523 8.5 15.5V11.5C8.5 10.9477 8.94772 10.5 9.5 10.5H14.5C15.0523 10.5 15.5 10.9477 15.5 11.5V15.5Z" stroke="#181B5E" stroke-linecap="round" stroke-linejoin="round"/>
    <path d="M9.5 10.5V9C9.5 7.61929 10.6193 6.5 12 6.5C13.3807 6.5 14.5 7.61929 14.5 9V10.5" stroke="#181B5E" stroke-linecap="round" stroke-linejoin="round"/>
</svg>
