<svg width="50" height="50" viewBox="0 0 50 50" fill="none" xmlns="http://www.w3.org/2000/svg">
    <path d="M19.7915 14.5834C19.7915 14.3071 19.6818 14.0422 19.4864 13.8468C19.2911 13.6515 19.0261 13.5417 18.7498 13.5417H2.08317C1.8069 13.5417 1.54195 13.6515 1.3466 13.8468C1.15125 14.0422 1.0415 14.3071 1.0415 14.5834V47.9168C1.0415 48.193 1.15125 48.458 1.3466 48.6533C1.54195 48.8487 1.8069 48.9584 2.08317 48.9584H19.7915V14.5834Z" stroke="#181B5E" stroke-width="2.08333" stroke-linecap="round" stroke-linejoin="round"/>
    <path d="M3.125 13.5417V8.33341C3.125 8.05715 3.23475 7.7922 3.4301 7.59685C3.62545 7.40149 3.8904 7.29175 4.16667 7.29175H16.6667C16.9429 7.29175 17.2079 7.40149 17.4032 7.59685C17.5986 7.7922 17.7083 8.05715 17.7083 8.33341V13.5417" stroke="#181B5E" stroke-width="2.08333" stroke-linecap="round" stroke-linejoin="round"/>
    <path d="M9.37476 7.29175V1.04175" stroke="#181B5E" stroke-width="2.08333" stroke-linecap="round" stroke-linejoin="round"/>
    <path d="M48.9581 47.9167C48.9581 48.193 48.8483 48.458 48.653 48.6533C48.4576 48.8487 48.1927 48.9584 47.9164 48.9584H34.3748V20.8334C34.3748 20.5571 34.4845 20.2922 34.6799 20.0968C34.8752 19.9015 35.1402 19.7917 35.4164 19.7917H47.9164C48.1927 19.7917 48.4576 19.9015 48.653 20.0968C48.8483 20.2922 48.9581 20.5571 48.9581 20.8334V47.9167Z" stroke="#181B5E" stroke-width="2.08333" stroke-linecap="round" stroke-linejoin="round"/>
    <path d="M36.4583 19.7917V16.6667C36.4583 16.3904 36.568 16.1254 36.7633 15.9301C36.9587 15.7347 37.2237 15.625 37.4999 15.625H45.8333C46.1095 15.625 46.3745 15.7347 46.5698 15.9301C46.7652 16.1254 46.8749 16.3904 46.8749 16.6667V19.7917" stroke="#181B5E" stroke-width="2.08333" stroke-linecap="round" stroke-linejoin="round"/>
    <path d="M19.7915 26.0417H34.3748" stroke="#181B5E" stroke-width="2.08333" stroke-linecap="round" stroke-linejoin="round"/>
    <path d="M19.7915 48.9585H34.3748" stroke="#181B5E" stroke-width="2.08333" stroke-linecap="round" stroke-linejoin="round"/>
    <path d="M5.20801 19.7917H15.6247" stroke="#181B5E" stroke-width="2.08333" stroke-linecap="round" stroke-linejoin="round"/>
    <path d="M5.20801 26.0417H15.6247" stroke="#181B5E" stroke-width="2.08333" stroke-linecap="round" stroke-linejoin="round"/>
    <path d="M5.20801 32.2917H15.6247" stroke="#181B5E" stroke-width="2.08333" stroke-linecap="round" stroke-linejoin="round"/>
    <path d="M38.5415 26.0417H44.7915" stroke="#181B5E" stroke-width="2.08333" stroke-linecap="round" stroke-linejoin="round"/>
    <path d="M38.5415 32.2917H44.7915" stroke="#181B5E" stroke-width="2.08333" stroke-linecap="round" stroke-linejoin="round"/>
    <path d="M5.20801 38.5417H15.6247" stroke="#181B5E" stroke-width="2.08333" stroke-linecap="round" stroke-linejoin="round"/>
    <path d="M38.5415 38.5417H44.7915" stroke="#181B5E" stroke-width="2.08333" stroke-linecap="round" stroke-linejoin="round"/>
    <path d="M23.9583 32.2917H30.2083" stroke="#181B5E" stroke-width="2.08333" stroke-linecap="round" stroke-linejoin="round"/>
    <path d="M23.9583 38.5417H30.2083" stroke="#181B5E" stroke-width="2.08333" stroke-linecap="round" stroke-linejoin="round"/>
    <path d="M11.4582 48.9585V43.7502C11.4582 43.4739 11.3484 43.2089 11.1531 43.0136C10.9577 42.8182 10.6928 42.7085 10.4165 42.7085H8.33317C8.0569 42.7085 7.79195 42.8182 7.5966 43.0136C7.40125 43.2089 7.2915 43.4739 7.2915 43.7502V48.9585" stroke="#181B5E" stroke-width="2.08333" stroke-linecap="round" stroke-linejoin="round"/>
    <path d="M40.6248 48.9585V43.7502C40.6248 43.4739 40.7345 43.2089 40.9299 43.0136C41.1252 42.8182 41.3902 42.7085 41.6664 42.7085H43.7498C44.026 42.7085 44.291 42.8182 44.4863 43.0136C44.6817 43.2089 44.7914 43.4739 44.7914 43.7502V48.9585" stroke="#181B5E" stroke-width="2.08333" stroke-linecap="round" stroke-linejoin="round"/>
</svg>
