<svg width="45" height="44" viewBox="0 0 45 44" fill="none" xmlns="http://www.w3.org/2000/svg">
<g filter="url(#filter0_b_2923_30620)">
<rect x="0.5" width="44" height="44" rx="12" fill="url(#paint0_linear_2923_30620)" fill-opacity="0.8"/>
<g clip-path="url(#clip0_2923_30620)">
<path d="M32.004 14H13.004C11.8994 14 11.004 14.8954 11.004 16V28C11.004 29.1046 11.8994 30 13.004 30H32.004C33.1086 30 34.004 29.1046 34.004 28V16C34.004 14.8954 33.1086 14 32.004 14Z" stroke="#181B5E" stroke-linecap="round" stroke-linejoin="round"/>
<path d="M11.004 18H34.004" stroke="#181B5E" stroke-linecap="round" stroke-linejoin="round"/>
<path d="M31.004 22H28.004" stroke="#181B5E" stroke-linecap="round" stroke-linejoin="round"/>
<path d="M22.004 22H14.004" stroke="#181B5E" stroke-linecap="round" stroke-linejoin="round"/>
<path d="M17.004 25H14.004" stroke="#181B5E" stroke-linecap="round" stroke-linejoin="round"/>
</g>
<rect x="1" y="0.5" width="43" height="43" rx="11.5" stroke="white"/>
</g>
<defs>
<filter id="filter0_b_2923_30620" x="-11.5" y="-12" width="68" height="68" filterUnits="userSpaceOnUse" color-interpolation-filters="sRGB">
<feFlood flood-opacity="0" result="BackgroundImageFix"/>
<feGaussianBlur in="BackgroundImage" stdDeviation="6"/>
<feComposite in2="SourceAlpha" operator="in" result="effect1_backgroundBlur_2923_30620"/>
<feBlend mode="normal" in="SourceGraphic" in2="effect1_backgroundBlur_2923_30620" result="shape"/>
</filter>
<linearGradient id="paint0_linear_2923_30620" x1="-3.6073" y1="-5.75965" x2="73.9709" y2="9.61026" gradientUnits="userSpaceOnUse">
<stop stop-color="white"/>
<stop offset="1" stop-color="white" stop-opacity="0"/>
</linearGradient>
<clipPath id="clip0_2923_30620">
<rect width="24" height="24" fill="white" transform="translate(10.5 10)"/>
</clipPath>
</defs>
</svg>
