<svg width="24" height="24" viewBox="0 0 24 24" fill="none" xmlns="http://www.w3.org/2000/svg">
    <path d="M19 10.5H22.5C23.0523 10.5 23.5 10.9477 23.5 11.5V18.5C23.5 19.0523 23.0523 19.5 22.5 19.5H1.5C0.947715 19.5 0.5 19.0523 0.5 18.5V11.5C0.5 10.9477 0.947715 10.5 1.5 10.5H7" stroke="#181B5E" stroke-linecap="round" stroke-linejoin="round"/>
    <path fill-rule="evenodd" clip-rule="evenodd" d="M12.782 12.5469L8.54004 13.9589L9.95404 9.71586L18.086 1.58486C18.8708 0.826917 20.1182 0.837757 20.8897 1.60922C21.6611 2.38069 21.672 3.6281 20.914 4.41286L12.782 12.5469Z" stroke="#181B5E" stroke-linecap="round" stroke-linejoin="round"/>
    <path d="M19.4999 5.82702L16.6709 2.99902" stroke="#181B5E" stroke-linecap="round" stroke-linejoin="round"/>
    <path d="M12.7821 12.5468L9.9541 9.71582" stroke="#181B5E" stroke-linecap="round" stroke-linejoin="round"/>
    <path d="M17.3792 2.29164C17.0041 1.91639 16.4952 1.70557 15.9647 1.70557C15.4341 1.70557 14.9253 1.91639 14.5502 2.29164L12.4292 4.41264H11.7222" stroke="#181B5E" stroke-linecap="round" stroke-linejoin="round"/>
    <path d="M8.54001 13.959L7.83301 14.666" stroke="#181B5E" stroke-linecap="round" stroke-linejoin="round"/>
</svg>
