<svg width="45" height="44" viewBox="0 0 45 44" fill="none" xmlns="http://www.w3.org/2000/svg">
<g filter="url(#filter0_b_2923_30655)">
<rect x="0.5" width="44" height="44" rx="12" fill="url(#paint0_linear_2923_30655)" fill-opacity="0.8"/>
<path d="M20.5 10.5H31C30.337 10.5 29.7011 10.7634 29.2322 11.2322C28.7634 11.7011 28.5 12.337 28.5 13V31C28.5 31.663 28.2366 32.2989 27.7678 32.7678C27.2989 33.2366 26.663 33.5 26 33.5" stroke="#181B5E" stroke-linecap="round" stroke-linejoin="round"/>
<path d="M15.5 28.5V24.5" stroke="#181B5E" stroke-linecap="round" stroke-linejoin="round"/>
<path d="M31 15.5C32.3807 15.5 33.5 14.3807 33.5 13C33.5 11.6193 32.3807 10.5 31 10.5C29.6193 10.5 28.5 11.6193 28.5 13C28.5 14.3807 29.6193 15.5 31 15.5Z" stroke="#181B5E" stroke-linecap="round" stroke-linejoin="round"/>
<path d="M26 33.5C25.337 33.5 24.7011 33.2366 24.2322 32.7678C23.7634 32.2989 23.5 31.663 23.5 31C23.5 30.337 23.7634 29.7011 24.2322 29.2322C24.7011 28.7634 25.337 28.5 26 28.5H15.5C14.837 28.5 14.2011 28.7634 13.7322 29.2322C13.2634 29.7011 13 30.337 13 31C13 31.663 13.2634 32.2989 13.7322 32.7678C14.2011 33.2366 14.837 33.5 15.5 33.5H26Z" stroke="#181B5E" stroke-linecap="round" stroke-linejoin="round"/>
<path d="M15.5 18.5C14.7978 18.5011 14.1079 18.3165 13.5 17.965V23L15.5 21.5L17.5 23V17.965C16.8923 18.3169 16.2022 18.5015 15.5 18.5V18.5Z" stroke="#181B5E" stroke-linecap="round" stroke-linejoin="round"/>
<path d="M15.5 18.5C17.7091 18.5 19.5 16.7091 19.5 14.5C19.5 12.2909 17.7091 10.5 15.5 10.5C13.2909 10.5 11.5 12.2909 11.5 14.5C11.5 16.7091 13.2909 18.5 15.5 18.5Z" stroke="#181B5E" stroke-linecap="round" stroke-linejoin="round"/>
<path d="M15.5 16C16.3284 16 17 15.3284 17 14.5C17 13.6716 16.3284 13 15.5 13C14.6716 13 14 13.6716 14 14.5C14 15.3284 14.6716 16 15.5 16Z" stroke="#181B5E" stroke-linecap="round" stroke-linejoin="round"/>
<rect x="1" y="0.5" width="43" height="43" rx="11.5" stroke="white"/>
</g>
<defs>
<filter id="filter0_b_2923_30655" x="-11.5" y="-12" width="68" height="68" filterUnits="userSpaceOnUse" color-interpolation-filters="sRGB">
<feFlood flood-opacity="0" result="BackgroundImageFix"/>
<feGaussianBlur in="BackgroundImage" stdDeviation="6"/>
<feComposite in2="SourceAlpha" operator="in" result="effect1_backgroundBlur_2923_30655"/>
<feBlend mode="normal" in="SourceGraphic" in2="effect1_backgroundBlur_2923_30655" result="shape"/>
</filter>
<linearGradient id="paint0_linear_2923_30655" x1="-3.6073" y1="-5.75965" x2="73.9709" y2="9.61026" gradientUnits="userSpaceOnUse">
<stop stop-color="white"/>
<stop offset="1" stop-color="white" stop-opacity="0"/>
</linearGradient>
</defs>
</svg>
