<svg width="25" height="25" viewBox="0 0 25 25" fill="none" xmlns="http://www.w3.org/2000/svg">
    <path fill-rule="evenodd" clip-rule="evenodd" d="M7.50001 10.535C7.49868 10.2689 7.60345 10.0133 7.79113 9.82469C7.97881 9.63607 8.23393 9.53003 8.50001 9.53003L15.506 9.53503C16.0564 9.53502 16.5033 9.9797 16.506 10.53V15.51C16.506 16.0604 16.0613 16.5073 15.511 16.51L8.51101 16.542C7.95873 16.542 7.51101 16.0943 7.51101 15.542L7.50001 10.535Z" stroke="#181B5E" stroke-linecap="round" stroke-linejoin="round"/>
    <path d="M12.0139 14.53L12.0039 11.78" stroke="#181B5E" stroke-linecap="round" stroke-linejoin="round"/>
    <path d="M9.0098 9.53005V8.54405C9.00234 6.88719 10.3394 5.538 11.9963 5.53055C13.6532 5.52309 15.0023 6.86019 15.0098 8.51705V9.53005" stroke="#181B5E" stroke-linecap="round" stroke-linejoin="round"/>
    <path d="M12 11.53V11.53C12.0664 11.5295 12.1303 11.5555 12.1774 11.6023C12.2245 11.649 12.251 11.7127 12.251 11.779V11.779C12.2516 11.8458 12.2253 11.9099 12.1781 11.9571C12.1309 12.0043 12.0668 12.0306 12 12.03V12.03C11.9336 12.0306 11.8698 12.0046 11.8227 11.9578C11.7755 11.9111 11.749 11.8474 11.749 11.781V11.781C11.749 11.6424 11.8614 11.53 12 11.53" stroke="#181B5E" stroke-linecap="round" stroke-linejoin="round"/>
    <path fill-rule="evenodd" clip-rule="evenodd" d="M12.0039 23.53C18.3552 23.53 23.5039 18.3813 23.5039 12.03C23.5039 5.67875 18.3552 0.530029 12.0039 0.530029C5.65263 0.530029 0.503906 5.67875 0.503906 12.03C0.503906 18.3813 5.65263 23.53 12.0039 23.53Z" stroke="#181B5E" stroke-linecap="round" stroke-linejoin="round"/>
</svg>
