<svg width="24" height="24" viewBox="0 0 24 24" fill="none" xmlns="http://www.w3.org/2000/svg">
    <path d="M9.5 23.5H1.5C0.947715 23.5 0.5 23.0523 0.5 22.5V3.5C0.5 2.94772 0.947715 2.5 1.5 2.5H3.5" stroke="#181B5E" stroke-linecap="round" stroke-linejoin="round"/>
    <path d="M15.5 2.5H17.5C18.0523 2.5 18.5 2.94772 18.5 3.5V10.5" stroke="#181B5E" stroke-linecap="round" stroke-linejoin="round"/>
    <path fill-rule="evenodd" clip-rule="evenodd" d="M11.5 2.5C11.5 1.39543 10.6046 0.5 9.5 0.5C8.39543 0.5 7.5 1.39543 7.5 2.5H5.5V5.5H13.5V2.5H11.5Z" stroke="#181B5E" stroke-linecap="round" stroke-linejoin="round"/>
    <path d="M16.5 10.5V5C16.5 4.72386 16.2761 4.5 16 4.5H13.5" stroke="#181B5E" stroke-linecap="round" stroke-linejoin="round"/>
    <path d="M5.5 4.5H3C2.72386 4.5 2.5 4.72386 2.5 5V21C2.5 21.2761 2.72386 21.5 3 21.5H9.5" stroke="#181B5E" stroke-linecap="round" stroke-linejoin="round"/>
    <path d="M5.5 8.49902H13.5" stroke="#181B5E" stroke-linecap="round" stroke-linejoin="round"/>
    <path d="M5.5 11.499H13.5" stroke="#181B5E" stroke-linecap="round" stroke-linejoin="round"/>
    <path d="M5.5 14.499H9.5" stroke="#181B5E" stroke-linecap="round" stroke-linejoin="round"/>
    <path fill-rule="evenodd" clip-rule="evenodd" d="M15.7 22.2999L11.5 23.4999L12.7 19.2999L19.879 12.1209C20.4149 11.585 21.196 11.3757 21.928 11.5718C22.6601 11.768 23.2319 12.3398 23.428 13.0718C23.6242 13.8039 23.4149 14.585 22.879 15.1209L15.7 22.2999Z" stroke="#181B5E" stroke-linecap="round" stroke-linejoin="round"/>
    <path d="M18.979 13.02L21.979 16.02" stroke="#181B5E" stroke-linecap="round" stroke-linejoin="round"/>
    <path d="M12.7002 19.2991L15.7002 22.2991" stroke="#181B5E" stroke-linecap="round" stroke-linejoin="round"/>
</svg>
