<svg width="24" height="24" viewBox="0 0 24 24" fill="none" xmlns="http://www.w3.org/2000/svg">
    <path d="M11.5 1.5H22.5C23.0523 1.5 23.5 1.94772 23.5 2.5V22.5C23.5 23.0523 23.0523 23.5 22.5 23.5H1.5C0.947715 23.5 0.5 23.0523 0.5 22.5V2.5C0.5 1.94772 0.947715 1.5 1.5 1.5H4.5" stroke="#181B5E" stroke-linecap="round" stroke-linejoin="round"/>
    <path fill-rule="evenodd" clip-rule="evenodd" d="M11.5001 10.5C11.5001 11.05 11.2001 11.161 10.8411 10.748L8.00007 7.50002L5.15607 10.746C4.79307 11.16 4.49707 11.046 4.49707 10.499V1.49902C4.49707 0.946739 4.94479 0.499023 5.49707 0.499023H10.4971C11.0494 0.499023 11.4971 0.946739 11.4971 1.49902L11.5001 10.5Z" stroke="#181B5E" stroke-linecap="round" stroke-linejoin="round"/>
    <path d="M14.5 6.49902H20.5" stroke="#181B5E" stroke-linecap="round" stroke-linejoin="round"/>
    <path d="M14.5 10.499H20.5" stroke="#181B5E" stroke-linecap="round" stroke-linejoin="round"/>
    <path d="M3.5 14.499H20.5" stroke="#181B5E" stroke-linecap="round" stroke-linejoin="round"/>
    <path d="M3.5 18.499H19.997" stroke="#181B5E" stroke-linecap="round" stroke-linejoin="round"/>
</svg>
