<svg width="40" height="41" viewBox="0 0 40 41" fill="none" xmlns="http://www.w3.org/2000/svg">
<path d="M33.3333 32.3629V34.0296C33.3333 35.3556 32.8064 36.6274 31.8688 37.5651C30.9311 38.5027 29.6593 39.0296 28.3333 39.0296H6.66659C5.78254 39.0296 4.93469 38.6784 4.30957 38.0532C3.68444 37.4281 3.33325 36.5802 3.33325 35.6962V20.6962C3.33325 19.8122 3.68444 18.9644 4.30957 18.3392C4.93469 17.7141 5.78254 17.3629 6.66659 17.3629H28.3333C29.6593 17.3629 30.9311 17.8897 31.8688 18.8274C32.8064 19.7651 33.3333 21.0369 33.3333 22.3629V24.0296" stroke="#181B5E" stroke-width="1.66667" stroke-linecap="round" stroke-linejoin="round"/>
<path d="M36.6665 29.2297C36.6981 30.0272 36.4125 30.8047 35.872 31.3918C35.3316 31.9792 34.5805 32.3283 33.7831 32.363H27.8831C27.0858 32.3283 26.3346 31.9792 25.7943 31.3918C25.2538 30.8047 24.9681 30.0272 24.9998 29.2297V27.163C24.9681 26.3655 25.2538 25.588 25.7943 25.0008C26.3346 24.4135 27.0858 24.0643 27.8831 24.0297H33.7831C34.5805 24.0643 35.3316 24.4135 35.872 25.0008C36.4125 25.588 36.6981 26.3655 36.6665 27.163V29.2297Z" stroke="#181B5E" stroke-width="1.66667" stroke-linecap="round" stroke-linejoin="round"/>
<path d="M6.6665 20.6963H8.33317" stroke="#181B5E" stroke-width="1.66667" stroke-linecap="round" stroke-linejoin="round"/>
<path d="M11.6665 20.6963H13.3332" stroke="#181B5E" stroke-width="1.66667" stroke-linecap="round" stroke-linejoin="round"/>
<path d="M16.6665 20.6963H18.3332" stroke="#181B5E" stroke-width="1.66667" stroke-linecap="round" stroke-linejoin="round"/>
<path d="M21.6665 20.6963H23.3332" stroke="#181B5E" stroke-width="1.66667" stroke-linecap="round" stroke-linejoin="round"/>
<path d="M26.6665 20.6963H28.3332" stroke="#181B5E" stroke-width="1.66667" stroke-linecap="round" stroke-linejoin="round"/>
<path d="M6.6665 35.6963H8.33317" stroke="#181B5E" stroke-width="1.66667" stroke-linecap="round" stroke-linejoin="round"/>
<path d="M11.6665 35.6963H13.3332" stroke="#181B5E" stroke-width="1.66667" stroke-linecap="round" stroke-linejoin="round"/>
<path d="M16.6665 35.6963H18.3332" stroke="#181B5E" stroke-width="1.66667" stroke-linecap="round" stroke-linejoin="round"/>
<path d="M21.6665 35.6963H23.3332" stroke="#181B5E" stroke-width="1.66667" stroke-linecap="round" stroke-linejoin="round"/>
<path d="M26.6665 35.6963H28.3332" stroke="#181B5E" stroke-width="1.66667" stroke-linecap="round" stroke-linejoin="round"/>
<path d="M9.66666 17.363C8.78679 15.844 8.32662 14.1184 8.33332 12.363C8.36724 10.8498 8.74422 9.36409 9.43582 8.01778C10.1274 6.67146 11.1156 5.49969 12.3259 4.59083C13.5362 3.68194 14.9371 3.05966 16.4228 2.77088C17.9087 2.48208 19.4405 2.53433 20.9032 2.92368C22.3658 3.31303 23.721 4.02929 24.8665 5.01853C26.0122 6.00776 26.9182 7.24412 27.5165 8.63442C28.1147 10.0247 28.3897 11.5327 28.3203 13.0447C28.2512 14.5567 27.8395 16.0332 27.1167 17.363" stroke="#181B5E" stroke-width="1.66667" stroke-linecap="round" stroke-linejoin="round"/>
<path d="M14.9999 13.1963V8.19629H19.9999C20.6629 8.19629 21.2989 8.45969 21.7677 8.92852C22.2365 9.39736 22.4999 10.0333 22.4999 10.6963C22.4999 11.3593 22.2365 11.9952 21.7677 12.4641C21.2989 12.9329 20.6629 13.1963 19.9999 13.1963H14.9999Z" stroke="#181B5E" stroke-width="1.66667" stroke-linecap="round" stroke-linejoin="round"/>
<path d="M14.9999 17.363V13.1963H19.9999C20.6629 13.1963 21.2989 13.4597 21.7677 13.9285C22.2365 14.3974 22.4999 15.0333 22.4999 15.6963C22.5039 16.3114 22.278 16.9058 21.8665 17.363" stroke="#181B5E" stroke-width="1.66667" stroke-linecap="round" stroke-linejoin="round"/>
<path d="M19.9999 6.52966V8.19633" stroke="#181B5E" stroke-width="1.66667" stroke-linecap="round" stroke-linejoin="round"/>
<path d="M16.6665 6.52966V8.19633" stroke="#181B5E" stroke-width="1.66667" stroke-linecap="round" stroke-linejoin="round"/>
<path d="M28.7499 28.613C28.5198 28.613 28.3333 28.4265 28.3333 28.1963C28.3333 27.9662 28.5198 27.7797 28.7499 27.7797" stroke="#181B5E" stroke-width="1.66667"/>
<path d="M28.7498 28.613C28.9799 28.613 29.1664 28.4265 29.1664 28.1963C29.1664 27.9662 28.9799 27.7797 28.7498 27.7797" stroke="#181B5E" stroke-width="1.66667"/>
</svg>
