<svg width="44" height="48" viewBox="0 0 44 48" fill="none" xmlns="http://www.w3.org/2000/svg">
    <path d="M38.6667 38.5833V40.6666C38.6667 42.3242 38.0083 43.9139 36.8362 45.086C35.6641 46.2581 34.0743 46.9166 32.4167 46.9166H5.33341C4.22835 46.9166 3.16854 46.4776 2.38714 45.6962C1.60573 44.9148 1.16675 43.855 1.16675 42.7499V23.9999C1.16675 22.8949 1.60573 21.835 2.38714 21.0536C3.16854 20.2722 4.22835 19.8333 5.33341 19.8333H32.4167C34.0743 19.8333 35.6641 20.4917 36.8362 21.6638C38.0083 22.8359 38.6667 24.4256 38.6667 26.0833V28.1666" stroke="#181B5E" stroke-width="2.08333" stroke-linecap="round" stroke-linejoin="round"/>
    <path d="M42.8334 34.6665C42.8729 35.6633 42.5158 36.6352 41.8403 37.3693C41.1648 38.1034 40.2259 38.5399 39.2292 38.5832H31.8542C30.8575 38.5399 29.9186 38.1034 29.2431 37.3693C28.5676 36.6352 28.2105 35.6633 28.25 34.6665V32.0832C28.2105 31.0863 28.5676 30.1145 29.2431 29.3804C29.9186 28.6463 30.8575 28.2098 31.8542 28.1665H39.2292C40.2259 28.2098 41.1648 28.6463 41.8403 29.3804C42.5158 30.1145 42.8729 31.0863 42.8334 32.0832V34.6665Z" stroke="#181B5E" stroke-width="2.08333" stroke-linecap="round" stroke-linejoin="round"/>
    <path d="M32.9376 32.854C33.0406 32.854 33.1413 32.8846 33.2269 32.9418C33.3126 32.999 33.3793 33.0804 33.4188 33.1755C33.4582 33.2707 33.4685 33.3754 33.4484 33.4764C33.4283 33.5775 33.3787 33.6703 33.3059 33.7431C33.233 33.816 33.1402 33.8656 33.0392 33.8857C32.9382 33.9058 32.8334 33.8954 32.7383 33.856C32.6431 33.8166 32.5618 33.7498 32.5045 33.6642C32.4473 33.5785 32.4167 33.4778 32.4167 33.3748C32.4167 33.2367 32.4716 33.1042 32.5693 33.0066C32.667 32.9089 32.7994 32.854 32.9376 32.854Z" stroke="#181B5E" stroke-width="2.08333" stroke-linecap="round" stroke-linejoin="round"/>
    <path d="M5.3335 24H7.41683" stroke="#181B5E" stroke-width="2.08333" stroke-linecap="round" stroke-linejoin="round"/>
    <path d="M11.5835 24H13.6668" stroke="#181B5E" stroke-width="2.08333" stroke-linecap="round" stroke-linejoin="round"/>
    <path d="M17.8335 24H19.9168" stroke="#181B5E" stroke-width="2.08333" stroke-linecap="round" stroke-linejoin="round"/>
    <path d="M24.0835 24H26.1668" stroke="#181B5E" stroke-width="2.08333" stroke-linecap="round" stroke-linejoin="round"/>
    <path d="M30.3335 24H32.4168" stroke="#181B5E" stroke-width="2.08333" stroke-linecap="round" stroke-linejoin="round"/>
    <path d="M5.3335 42.75H7.41683" stroke="#181B5E" stroke-width="2.08333" stroke-linecap="round" stroke-linejoin="round"/>
    <path d="M11.5835 42.75H13.6668" stroke="#181B5E" stroke-width="2.08333" stroke-linecap="round" stroke-linejoin="round"/>
    <path d="M17.8335 42.75H19.9168" stroke="#181B5E" stroke-width="2.08333" stroke-linecap="round" stroke-linejoin="round"/>
    <path d="M24.0835 42.75H26.1668" stroke="#181B5E" stroke-width="2.08333" stroke-linecap="round" stroke-linejoin="round"/>
    <path d="M30.3335 42.75H32.4168" stroke="#181B5E" stroke-width="2.08333" stroke-linecap="round" stroke-linejoin="round"/>
    <path d="M9.08351 19.8334C7.98367 17.9346 7.40846 15.7776 7.41684 13.5834C7.45924 11.6919 7.93046 9.83469 8.79497 8.15179C9.65948 6.4689 10.8947 5.0042 12.4076 3.8681C13.9205 2.732 15.6715 1.95414 17.5287 1.59316C19.3859 1.23218 21.3008 1.29749 23.1291 1.78417C24.9574 2.27085 26.6514 3.1662 28.0834 4.40273C29.5153 5.63927 30.6479 7.18473 31.3957 8.92262C32.1436 10.6605 32.4872 12.5455 32.4006 14.4355C32.314 16.3254 31.7996 18.1711 30.896 19.8334" stroke="#181B5E" stroke-width="2.08333" stroke-linecap="round" stroke-linejoin="round"/>
    <path d="M15.75 14.625V8.375H22C22.8288 8.375 23.6237 8.70424 24.2097 9.29029C24.7958 9.87634 25.125 10.6712 25.125 11.5C25.125 12.3288 24.7958 13.1237 24.2097 13.7097C23.6237 14.2958 22.8288 14.625 22 14.625H15.75Z" stroke="#181B5E" stroke-width="2.08333" stroke-linecap="round" stroke-linejoin="round"/>
    <path d="M15.75 19.8333V14.625H22C22.8288 14.625 23.6237 14.9542 24.2097 15.5403C24.7958 16.1263 25.125 16.9212 25.125 17.75C25.1301 18.5189 24.8477 19.2619 24.3333 19.8333" stroke="#181B5E" stroke-width="2.08333" stroke-linecap="round" stroke-linejoin="round"/>
    <path d="M22 6.29175V8.37508" stroke="#181B5E" stroke-width="2.08333" stroke-linecap="round" stroke-linejoin="round"/>
    <path d="M17.8335 6.29175V8.37508" stroke="#181B5E" stroke-width="2.08333" stroke-linecap="round" stroke-linejoin="round"/>
</svg>
