<svg width="48" height="48" viewBox="0 0 48 48" fill="none" xmlns="http://www.w3.org/2000/svg">
    <g clip-path="url(#clip0)">
        <path d="M45 40H43V38H45C45.2652 38 45.5196 37.8946 45.7071 37.7071C45.8946 37.5196 46 37.2652 46 37V3C46 2.73478 45.8946 2.48043 45.7071 2.29289C45.5196 2.10536 45.2652 2 45 2H3C2.73478 2 2.48043 2.10536 2.29289 2.29289C2.10536 2.48043 2 2.73478 2 3V37C2 37.2652 2.10536 37.5196 2.29289 37.7071C2.48043 37.8946 2.73478 38 3 38H27V40H3C2.20435 40 1.44129 39.6839 0.87868 39.1213C0.31607 38.5587 0 37.7956 0 37L0 3C0 2.20435 0.31607 1.44129 0.87868 0.87868C1.44129 0.31607 2.20435 0 3 0L45 0C45.7956 0 46.5587 0.31607 47.1213 0.87868C47.6839 1.44129 48 2.20435 48 3V37C48 37.7956 47.6839 38.5587 47.1213 39.1213C46.5587 39.6839 45.7956 40 45 40Z" fill="#181B5E"/>
        <path d="M24 35H11C10.7348 35 10.4804 34.8946 10.2929 34.7071C10.1054 34.5196 10 34.2652 10 34C10 32.9391 9.57857 31.9217 8.82843 31.1716C8.07828 30.4214 7.06087 30 6 30C5.73478 30 5.48043 29.8946 5.29289 29.7071C5.10536 29.5196 5 29.2652 5 29V11C5 10.7348 5.10536 10.4804 5.29289 10.2929C5.48043 10.1054 5.73478 10 6 10C7.06087 10 8.07828 9.57857 8.82843 8.82843C9.57857 8.07828 10 7.06087 10 6C10 5.73478 10.1054 5.48043 10.2929 5.29289C10.4804 5.10536 10.7348 5 11 5H37C37.2652 5 37.5196 5.10536 37.7071 5.29289C37.8946 5.48043 38 5.73478 38 6C38 7.06087 38.4214 8.07828 39.1716 8.82843C39.9217 9.57857 40.9391 10 42 10C42.2652 10 42.5196 10.1054 42.7071 10.2929C42.8946 10.4804 43 10.7348 43 11V20H41V11.917C39.7723 11.7071 38.64 11.1214 37.7593 10.2407C36.8786 9.36 36.2929 8.22769 36.083 7H11.917C11.7071 8.22769 11.1214 9.36 10.2407 10.2407C9.36 11.1214 8.22769 11.7071 7 11.917V28.083C8.22769 28.2929 9.36 28.8786 10.2407 29.7593C11.1214 30.64 11.7071 31.7723 11.917 33H24V35Z" fill="#181B5E"/>
        <path d="M35 39C33.22 39 31.4799 38.4722 29.9999 37.4832C28.5198 36.4943 27.3663 35.0887 26.6851 33.4442C26.0039 31.7996 25.8257 29.99 26.1729 28.2442C26.5202 26.4984 27.3774 24.8947 28.636 23.636C29.8947 22.3774 31.4984 21.5202 33.2442 21.1729C34.99 20.8257 36.7996 21.0039 38.4442 21.6851C40.0887 22.3663 41.4943 23.5198 42.4832 24.9999C43.4722 26.4799 44 28.22 44 30C43.9971 32.3861 43.0479 34.6736 41.3607 36.3607C39.6736 38.0479 37.3861 38.9971 35 39V39ZM35 23C33.6155 23 32.2622 23.4105 31.111 24.1797C29.9599 24.9489 29.0627 26.0421 28.5328 27.3212C28.003 28.6003 27.8644 30.0078 28.1345 31.3656C28.4046 32.7235 29.0713 33.9708 30.0503 34.9498C31.0292 35.9287 32.2765 36.5954 33.6344 36.8655C34.9922 37.1356 36.3997 36.997 37.6788 36.4672C38.9579 35.9373 40.0511 35.0401 40.8203 33.889C41.5895 32.7379 42 31.3845 42 30C41.9979 28.1441 41.2597 26.3649 39.9474 25.0526C38.6351 23.7403 36.8559 23.0021 35 23V23Z" fill="#181B5E"/>
        <path d="M40 48C39.7728 48.0001 39.5524 47.9229 39.375 47.781L35 44.281L30.625 47.781C30.4779 47.8988 30.3005 47.9726 30.1133 47.9939C29.9261 48.0153 29.7367 47.9833 29.5668 47.9017C29.397 47.8201 29.2537 47.6921 29.1534 47.5326C29.0531 47.373 28.9999 47.1884 29 47V36H31V44.919L34.375 42.219C34.5524 42.077 34.7728 41.9996 35 41.9996C35.2272 41.9996 35.4476 42.077 35.625 42.219L39 44.919V36H41V47C41 47.2652 40.8946 47.5196 40.7071 47.7071C40.5196 47.8946 40.2652 48 40 48Z" fill="#181B5E"/>
        <path d="M34 16H14C13.7348 16 13.4804 15.8946 13.2929 15.7071C13.1054 15.5196 13 15.2652 13 15V11C13 10.7348 13.1054 10.4804 13.2929 10.2929C13.4804 10.1054 13.7348 10 14 10H34C34.2652 10 34.5196 10.1054 34.7071 10.2929C34.8946 10.4804 35 10.7348 35 11V15C35 15.2652 34.8946 15.5196 34.7071 15.7071C34.5196 15.8946 34.2652 16 34 16ZM15 14H33V12H15V14Z" fill="#181B5E"/>
        <path d="M14 19H12V21H14V19Z" fill="#181B5E"/>
        <path d="M18 19H16V21H18V19Z" fill="#181B5E"/>
        <path d="M24 23H12V25H24V23Z" fill="#181B5E"/>
        <path d="M35 35C34.0111 35 33.0444 34.7068 32.2222 34.1574C31.3999 33.6079 30.759 32.8271 30.3806 31.9134C30.0022 30.9998 29.9031 29.9945 30.0961 29.0246C30.289 28.0546 30.7652 27.1637 31.4645 26.4645C32.1637 25.7652 33.0546 25.289 34.0246 25.0961C34.9945 24.9031 35.9998 25.0022 36.9134 25.3806C37.8271 25.759 38.6079 26.3999 39.1574 27.2222C39.7068 28.0444 40 29.0111 40 30C39.9984 31.3256 39.4711 32.5964 38.5338 33.5338C37.5964 34.4711 36.3256 34.9984 35 35V35ZM35 27C34.4067 27 33.8266 27.1759 33.3333 27.5056C32.8399 27.8352 32.4554 28.3038 32.2284 28.852C32.0013 29.4001 31.9419 30.0033 32.0576 30.5853C32.1734 31.1672 32.4591 31.7018 32.8787 32.1213C33.2982 32.5409 33.8328 32.8266 34.4147 32.9424C34.9967 33.0581 35.5999 32.9987 36.1481 32.7716C36.6962 32.5446 37.1648 32.1601 37.4944 31.6667C37.8241 31.1734 38 30.5933 38 30C38 29.2044 37.6839 28.4413 37.1213 27.8787C36.5587 27.3161 35.7957 27 35 27Z" fill="#181B5E"/>
        <path d="M7 33H5V35H7V33Z" fill="#181B5E"/>
        <path d="M43 5H41V7H43V5Z" fill="#181B5E"/>
        <path d="M7 5H5V7H7V5Z" fill="#181B5E"/>
    </g>
    <defs>
        <clipPath id="clip0">
            <rect width="48" height="48" fill="white"/>
        </clipPath>
    </defs>
</svg>
