<svg width="24" height="24" viewBox="0 0 24 24" fill="none" xmlns="http://www.w3.org/2000/svg">
    <path fill-rule="evenodd" clip-rule="evenodd" d="M6.5 7.49902C6.5 6.94674 6.94772 6.49902 7.5 6.49902H16.5C17.0523 6.49902 17.5 6.94674 17.5 7.49902V16.499C17.5 17.0513 17.0523 17.499 16.5 17.499H7.5C6.94771 17.499 6.5 17.0513 6.5 16.499V7.49902Z" stroke="#181B5E" stroke-linecap="round" stroke-linejoin="round"/>
    <path d="M19.5 4.49902L23.5 0.499023" stroke="#181B5E" stroke-linecap="round" stroke-linejoin="round"/>
    <path d="M0.5 23.499L4.5 19.499" stroke="#181B5E" stroke-linecap="round" stroke-linejoin="round"/>
    <path d="M5.5 23.499H0.5V18.499" stroke="#181B5E" stroke-linecap="round" stroke-linejoin="round"/>
    <path d="M23.5 5.49902V0.499023H18.5" stroke="#181B5E" stroke-linecap="round" stroke-linejoin="round"/>
    <path d="M19.5 19.4971L23.5 23.4991" stroke="#181B5E" stroke-linecap="round" stroke-linejoin="round"/>
    <path d="M0.5 0.499023L4.5 4.49902" stroke="#181B5E" stroke-linecap="round" stroke-linejoin="round"/>
    <path d="M0.5 5.49902V0.499023H5.5" stroke="#181B5E" stroke-linecap="round" stroke-linejoin="round"/>
    <path d="M18.5 23.499H23.5V18.499" stroke="#181B5E" stroke-linecap="round" stroke-linejoin="round"/>
</svg>
