<svg width="57" height="45" viewBox="0 0 57 45" fill="none" xmlns="http://www.w3.org/2000/svg">
    <path d="M2 24.9167L49.9167 41.5834" stroke="#181B5E" stroke-width="2.08333" stroke-linecap="round" stroke-linejoin="round"/>
    <path d="M2 12.4167C2 15.1793 3.09747 17.8289 5.05097 19.7824C7.00448 21.7359 9.654 22.8333 12.4167 22.8333C15.1793 22.8333 17.8289 21.7359 19.7824 19.7824C21.7359 17.8289 22.8333 15.1793 22.8333 12.4167C22.8333 9.654 21.7359 7.00448 19.7824 5.05097C17.8289 3.09747 15.1793 2 12.4167 2C9.654 2 7.00448 3.09747 5.05097 5.05097C3.09747 7.00448 2 9.654 2 12.4167V12.4167Z" stroke="#181B5E" stroke-width="2.08333" stroke-linecap="round" stroke-linejoin="round"/>
    <path d="M12.4167 16.5833V18.6666" stroke="#181B5E" stroke-width="2.08333" stroke-linecap="round" stroke-linejoin="round"/>
    <path d="M12.4167 6.16675V8.25008" stroke="#181B5E" stroke-width="2.08333" stroke-linecap="round" stroke-linejoin="round"/>
    <path d="M8.25 16.5833H14.5C15.0525 16.5833 15.5824 16.3638 15.9731 15.9731C16.3638 15.5824 16.5833 15.0525 16.5833 14.5C16.5833 13.9475 16.3638 13.4176 15.9731 13.0269C15.5824 12.6362 15.0525 12.4167 14.5 12.4167H10.3333C9.7808 12.4167 9.25089 12.1972 8.86019 11.8065C8.46949 11.4158 8.25 10.8859 8.25 10.3333C8.25 9.7808 8.46949 9.2509 8.86019 8.86019C9.25089 8.46949 9.7808 8.25 10.3333 8.25H16.5833" stroke="#181B5E" stroke-width="2.08333" stroke-linecap="round" stroke-linejoin="round"/>
    <path d="M25.1479 33.7022C25.2456 33.5813 25.369 33.4837 25.5092 33.4167C25.6495 33.3497 25.8029 33.3149 25.9583 33.3149C26.1137 33.3149 26.2672 33.3497 26.4074 33.4167C26.5476 33.4837 26.6711 33.5813 26.7687 33.7022L33.4354 41.9688C33.5595 42.1218 33.6377 42.3068 33.6609 42.5023C33.6841 42.6979 33.6514 42.896 33.5665 43.0738C33.4817 43.2515 33.3482 43.4016 33.1816 43.5065C33.0149 43.6115 32.8219 43.667 32.625 43.6667H19.2917C19.0947 43.667 18.9017 43.6115 18.7351 43.5065C18.5684 43.4016 18.435 43.2515 18.3501 43.0738C18.2653 42.896 18.2326 42.6979 18.2558 42.5023C18.279 42.3068 18.3572 42.1218 18.4813 41.9688L25.1479 33.7022Z" stroke="#181B5E" stroke-width="2.08333" stroke-linecap="round" stroke-linejoin="round"/>
    <path fill-rule="evenodd" clip-rule="evenodd" d="M50.771 24.8542L47.896 21.9792L45.021 24.8542V13.8333C45.021 13.3041 45.4501 12.875 45.9793 12.875H49.8127C50.3419 12.875 50.771 13.3041 50.771 13.8333V24.8542Z" stroke="#181B5E" stroke-width="1.7" stroke-linecap="round" stroke-linejoin="round"/>
    <path d="M50.7709 14.3127H52.6876C53.2169 14.3127 53.6459 14.7417 53.6459 15.271V31.5627C53.6459 32.0919 53.2169 32.521 52.6876 32.521H39.2709C38.2124 32.521 37.3542 31.6629 37.3542 30.6043V12.396" stroke="#181B5E" stroke-width="1.7" stroke-linecap="round" stroke-linejoin="round"/>
    <path d="M52.6876 14.3126V11.4376C52.6876 10.9083 52.2585 10.4792 51.7292 10.4792H39.2709C38.2124 10.4792 37.3542 11.3374 37.3542 12.3959C37.3542 13.4545 38.2124 14.3126 39.2709 14.3126H42.6251" stroke="#181B5E" stroke-width="1.7" stroke-linecap="round" stroke-linejoin="round"/>
</svg>
