<svg width="24" height="25" viewBox="0 0 24 25" fill="none" xmlns="http://www.w3.org/2000/svg">
    <path d="M10.4997 17.9058V15.4998H11.0577C11.5668 15.5603 12.0767 15.3931 12.4512 15.0428C12.8256 14.6925 13.0263 14.1948 12.9997 13.6828V11.4998H15.1497C15.2617 11.4998 15.367 11.4462 15.4329 11.3556C15.4987 11.265 15.5173 11.1483 15.4827 11.0418C14.1627 6.95678 13.2077 2.41378 8.8517 1.61678C6.92996 1.24433 4.93994 1.68976 3.36036 2.84593C1.78078 4.0021 0.754609 5.76436 0.528701 7.70878C0.369275 10.2211 1.48617 12.6448 3.4997 14.1558V17.9058" stroke="#181B5E" stroke-linecap="round" stroke-linejoin="round"/>
    <path fill-rule="evenodd" clip-rule="evenodd" d="M16.5 14.5C16.5 13.9477 16.9477 13.5 17.5 13.5H22.5C23.0523 13.5 23.5 13.9477 23.5 14.5V23.5C23.5 24.0523 23.0523 24.5 22.5 24.5H17.5C16.9477 24.5 16.5 24.0523 16.5 23.5V14.5Z" stroke="#181B5E" stroke-linecap="round" stroke-linejoin="round"/>
    <path d="M18.5 18.5L19.5 19.5L21.5 17.5" stroke="#181B5E" stroke-linecap="round" stroke-linejoin="round"/>
</svg>
