<svg width="24" height="14" viewBox="0 0 24 14" fill="none" xmlns="http://www.w3.org/2000/svg">
    <path fill-rule="evenodd" clip-rule="evenodd" d="M21.4002 12.2C21.3052 12.6653 20.896 12.9996 20.4212 13H5.96015C5.66 12.9998 5.37584 12.8647 5.1861 12.6321C4.99636 12.3996 4.92112 12.0941 4.98115 11.8L7.06415 1.8C7.15913 1.3347 7.56826 1.00038 8.04315 1H22.5002C22.8003 1.00024 23.0845 1.13528 23.2742 1.36785C23.4639 1.60042 23.5392 1.90592 23.4792 2.2L21.4002 12.2Z" stroke="#181B5E" stroke-linecap="round" stroke-linejoin="round"/>
    <path d="M7.42676 1.21204L12.5438 6.72304C13.2234 7.45485 14.3388 7.57308 15.1568 7.00004L23.2518 1.33404" stroke="#181B5E" stroke-linecap="round" stroke-linejoin="round"/>
    <path d="M0.5 2H4.5" stroke="#181B5E" stroke-linecap="round" stroke-linejoin="round"/>
    <path d="M0.5 5H3.5" stroke="#181B5E" stroke-linecap="round" stroke-linejoin="round"/>
    <path d="M0.5 8H2.5" stroke="#181B5E" stroke-linecap="round" stroke-linejoin="round"/>
</svg>
