<svg width="24" height="24" viewBox="0 0 24 24" fill="none" xmlns="http://www.w3.org/2000/svg">
<g clip-path="url(#clip0_3507_14197)">
<path d="M22.504 11.5H14.504C14.2279 11.5 14.004 11.7239 14.004 12V14C14.004 14.2761 14.2279 14.5 14.504 14.5H22.504C22.7802 14.5 23.004 14.2761 23.004 14V12C23.004 11.7239 22.7802 11.5 22.504 11.5Z" stroke="#181B5E" stroke-linecap="round" stroke-linejoin="round"/>
<path d="M21.504 14.5H13.504C13.2279 14.5 13.004 14.7239 13.004 15V17C13.004 17.2761 13.2279 17.5 13.504 17.5H21.504C21.7802 17.5 22.004 17.2761 22.004 17V15C22.004 14.7239 21.7802 14.5 21.504 14.5Z" stroke="#181B5E" stroke-linecap="round" stroke-linejoin="round"/>
<path d="M22.504 17.5H14.504C14.2279 17.5 14.004 17.7239 14.004 18V20C14.004 20.2761 14.2279 20.5 14.504 20.5H22.504C22.7802 20.5 23.004 20.2761 23.004 20V18C23.004 17.7239 22.7802 17.5 22.504 17.5Z" stroke="#181B5E" stroke-linecap="round" stroke-linejoin="round"/>
<path d="M21.504 20.5H13.504C13.2279 20.5 13.004 20.7239 13.004 21V23C13.004 23.2761 13.2279 23.5 13.504 23.5H21.504C21.7802 23.5 22.004 23.2761 22.004 23V21C22.004 20.7239 21.7802 20.5 21.504 20.5Z" stroke="#181B5E" stroke-linecap="round" stroke-linejoin="round"/>
<path d="M9.50403 17.5H1.50403C1.22789 17.5 1.00403 17.7239 1.00403 18V20C1.00403 20.2761 1.22789 20.5 1.50403 20.5H9.50403C9.78017 20.5 10.004 20.2761 10.004 20V18C10.004 17.7239 9.78017 17.5 9.50403 17.5Z" stroke="#181B5E" stroke-linecap="round" stroke-linejoin="round"/>
<path d="M10.504 20.5H2.50403C2.22789 20.5 2.00403 20.7239 2.00403 21V23C2.00403 23.2761 2.22789 23.5 2.50403 23.5H10.504C10.7802 23.5 11.004 23.2761 11.004 23V21C11.004 20.7239 10.7802 20.5 10.504 20.5Z" stroke="#181B5E" stroke-linecap="round" stroke-linejoin="round"/>
<path d="M1.5 13.5L9.871 5.133C10.0448 4.95971 10.2763 4.85641 10.5214 4.84276C10.7665 4.82912 11.008 4.90608 11.2 5.059L14.779 7.922C14.9759 8.07876 15.2246 8.15553 15.4756 8.137C15.7265 8.11846 15.9613 8.00598 16.133 7.822L23 0.5" stroke="#181B5E" stroke-linecap="round" stroke-linejoin="round"/>
<path d="M16.004 0.5H23.004V7" stroke="#181B5E" stroke-linecap="round" stroke-linejoin="round"/>
</g>
<defs>
<clipPath id="clip0_3507_14197">
<rect width="24" height="24" fill="white"/>
</clipPath>
</defs>
</svg>
