<svg width="132" height="39" viewBox="0 0 132 39" fill="none" xmlns="http://www.w3.org/2000/svg">
<path d="M127.031 38.5H5.40367C2.72908 38.5 0.538574 36.3613 0.538574 33.75V5.25C0.538574 2.63869 2.72908 0.5 5.40367 0.5H127.031C129.706 0.5 131.896 2.63869 131.896 5.25V33.75C131.896 36.3613 129.706 38.5 127.031 38.5Z" fill="#181B5E"/>
<path d="M127.031 1.26119C129.284 1.26119 131.117 3.05075 131.117 5.25V33.75C131.117 35.9492 129.284 37.7388 127.031 37.7388H5.40367C3.15113 37.7388 1.31821 35.9492 1.31821 33.75V5.25C1.31821 3.05075 3.15113 1.26119 5.40367 1.26119H127.031ZM127.031 0.5H5.40367C2.72908 0.5 0.538574 2.63869 0.538574 5.25V33.75C0.538574 36.3613 2.72908 38.5 5.40367 38.5H127.031C129.706 38.5 131.896 36.3613 131.896 33.75V5.25C131.896 2.63869 129.706 0.5 127.031 0.5Z" fill="#181B5E"/>
<path d="M46.6768 10.2316C46.6768 11.0248 46.4335 11.6601 45.9543 12.1339C45.4033 12.6956 44.6857 12.9783 43.8063 12.9783C42.9659 12.9783 42.2483 12.6909 41.6596 12.1244C41.0697 11.5497 40.7754 10.8443 40.7754 10C40.7754 9.1557 41.0697 8.45032 41.6596 7.88032C42.2483 7.30913 42.9659 7.02176 43.8063 7.02176C44.2247 7.02176 44.6237 7.10607 45.0044 7.26282C45.3839 7.42076 45.6928 7.63451 45.9166 7.89813L45.4082 8.39926C45.0178 7.9492 44.4862 7.72713 43.8063 7.72713C43.1933 7.72713 42.6618 7.93613 42.2106 8.3577C41.7642 8.78045 41.5404 9.32788 41.5404 10C41.5404 10.6721 41.7642 11.2243 42.2106 11.6471C42.6618 12.0639 43.1933 12.2776 43.8063 12.2776C44.4571 12.2776 45.0044 12.0639 45.4362 11.6423C45.7208 11.3633 45.8825 10.9785 45.9251 10.4869H43.8063V9.80051H46.633C46.667 9.94895 46.6768 10.0926 46.6768 10.2316Z" fill="white" stroke="white" stroke-width="0.117275" stroke-miterlimit="10"/>
<path d="M51.1612 7.85181H48.5061V9.65681H50.8997V10.3432H48.5061V12.1482H51.1612V12.8476H47.7544V7.15237H51.1612V7.85181Z" fill="white" stroke="white" stroke-width="0.117275" stroke-miterlimit="10"/>
<path d="M54.326 12.8476H53.5744V7.85181H51.9458V7.15237H55.9559V7.85181H54.326V12.8476Z" fill="white" stroke="white" stroke-width="0.117275" stroke-miterlimit="10"/>
<path d="M58.8579 12.8476V7.15237H59.6084V12.8476H58.8579Z" fill="white" stroke="white" stroke-width="0.117275" stroke-miterlimit="10"/>
<path d="M62.9349 12.8476H62.1894V7.85181H60.5547V7.15237H64.5696V7.85181H62.9349V12.8476Z" fill="white" stroke="white" stroke-width="0.117275" stroke-miterlimit="10"/>
<path d="M72.1612 12.1149C71.5859 12.6909 70.8732 12.9783 70.023 12.9783C69.168 12.9783 68.4552 12.6909 67.8799 12.1149C67.3058 11.5402 67.02 10.8348 67.02 10C67.02 9.1652 67.3058 8.45982 67.8799 7.88507C68.4552 7.30913 69.168 7.02176 70.023 7.02176C70.8683 7.02176 71.5811 7.30913 72.1564 7.88982C72.7353 8.46932 73.0211 9.16995 73.0211 10C73.0211 10.8348 72.7353 11.5402 72.1612 12.1149ZM68.4358 11.6376C68.8688 12.0639 69.3954 12.2776 70.023 12.2776C70.6457 12.2776 71.1772 12.0639 71.6054 11.6376C72.0372 11.2113 72.2561 10.6638 72.2561 10C72.2561 9.3362 72.0372 8.78876 71.6054 8.36245C71.1772 7.93613 70.6457 7.72238 70.023 7.72238C69.3954 7.72238 68.8688 7.93613 68.4358 8.36245C68.004 8.78876 67.7851 9.3362 67.7851 10C67.7851 10.6638 68.004 11.2113 68.4358 11.6376Z" fill="white" stroke="white" stroke-width="0.117275" stroke-miterlimit="10"/>
<path d="M74.0757 12.8476V7.15237H74.9879L77.8242 11.5817H77.8571L77.8242 10.4869V7.15237H78.5747V12.8476H77.7914L74.8213 8.19975H74.7884L74.8213 9.29937V12.8476H74.0757Z" fill="white" stroke="white" stroke-width="0.117275" stroke-miterlimit="10"/>
<mask id="path-10-inside-1_3757_37489" fill="white">
<path d="M66.8351 21.1649C64.5498 21.1649 62.6828 22.863 62.6828 25.206C62.6828 27.5299 64.5498 29.2458 66.8351 29.2458C69.1254 29.2458 70.9924 27.5299 70.9924 25.206C70.9924 22.863 69.1254 21.1649 66.8351 21.1649ZM66.8351 27.6546C65.5812 27.6546 64.5023 26.644 64.5023 25.206C64.5023 23.7489 65.5812 22.7562 66.8351 22.7562C68.0891 22.7562 69.1728 23.7489 69.1728 25.206C69.1728 26.644 68.0891 27.6546 66.8351 27.6546ZM57.7751 21.1649C55.4849 21.1649 53.6228 22.863 53.6228 25.206C53.6228 27.5299 55.4849 29.2458 57.7751 29.2458C60.0641 29.2458 61.9275 27.5299 61.9275 25.206C61.9275 22.863 60.0641 21.1649 57.7751 21.1649ZM57.7751 27.6546C56.5199 27.6546 55.4374 26.644 55.4374 25.206C55.4374 23.7489 56.5199 22.7562 57.7751 22.7562C59.0291 22.7562 60.1079 23.7489 60.1079 25.206C60.1079 26.644 59.0291 27.6546 57.7751 27.6546ZM46.9941 22.4035V24.1206H51.1939C51.071 25.0801 50.7426 25.7855 50.2391 26.2771C49.6261 26.8708 48.6713 27.5299 46.9941 27.5299C44.4095 27.5299 42.3856 25.4933 42.3856 22.9699C42.3856 20.4465 44.4095 18.4099 46.9941 18.4099C48.3916 18.4099 49.4084 18.9431 50.1588 19.6342L51.3982 18.4242C50.3486 17.4457 48.9523 16.694 46.9941 16.694C43.4498 16.694 40.4712 19.5095 40.4712 22.9699C40.4712 26.4303 43.4498 29.2458 46.9941 29.2458C48.9097 29.2458 50.3486 28.6331 51.4797 27.4836C52.6388 26.3519 53 24.7607 53 23.4758C53 23.0768 52.966 22.7098 52.9052 22.4035H46.9941ZM91.0791 23.7347C90.7374 22.831 89.6829 21.1649 87.5349 21.1649C85.4064 21.1649 83.6343 22.8025 83.6343 25.206C83.6343 27.4693 85.3882 29.2458 87.7393 29.2458C89.6403 29.2458 90.7374 28.1142 91.1886 27.4551L89.7777 26.5372C89.307 27.2093 88.6661 27.6546 87.7393 27.6546C86.8185 27.6546 86.1581 27.2425 85.7348 26.4303L91.2701 24.1942L91.0791 23.7347ZM85.4356 25.0801C85.3882 23.5221 86.675 22.7241 87.597 22.7241C88.3194 22.7241 88.9324 23.0768 89.1368 23.5815L85.4356 25.0801ZM80.9366 29H82.7562V17.125H80.9366V29ZM77.9568 22.065H77.8959C77.4873 21.5924 76.7077 21.1649 75.72 21.1649C73.6475 21.1649 71.7526 22.9414 71.7526 25.219C71.7526 27.4836 73.6475 29.2458 75.72 29.2458C76.7077 29.2458 77.4873 28.8148 77.8959 28.3279H77.9568V28.9074C77.9568 30.4523 77.1114 31.2824 75.748 31.2824C74.6363 31.2824 73.9467 30.4987 73.6621 29.8396L72.0797 30.4844C72.5358 31.5555 73.7436 32.8737 75.748 32.8737C77.8814 32.8737 79.6814 31.6482 79.6814 28.6663V21.4107H77.9568V22.065ZM75.8757 27.6546C74.6217 27.6546 73.5721 26.6298 73.5721 25.219C73.5721 23.7952 74.6217 22.7562 75.8757 22.7562C77.1115 22.7562 78.0857 23.7952 78.0857 25.219C78.0857 26.6298 77.1115 27.6546 75.8757 27.6546ZM99.5979 17.125H95.2461V29H97.0608V24.5006H99.5979C101.613 24.5006 103.59 23.0768 103.59 20.8122C103.59 18.5488 101.608 17.125 99.5979 17.125ZM99.6454 22.8488H97.0608V18.7768H99.6454C101 18.7768 101.774 19.8753 101.774 20.8122C101.774 21.7313 101 22.8488 99.6454 22.8488ZM110.863 21.1423C109.552 21.1423 108.188 21.7076 107.628 22.9604L109.238 23.6195C109.585 22.9604 110.222 22.7467 110.896 22.7467C111.837 22.7467 112.792 23.2988 112.807 24.2738V24.3985C112.478 24.2132 111.775 23.9389 110.91 23.9389C109.176 23.9389 107.409 24.8711 107.409 26.6108C107.409 28.202 108.829 29.2268 110.426 29.2268C111.648 29.2268 112.321 28.6889 112.745 28.0631H112.807V28.981H114.559V24.4258C114.559 22.3203 112.949 21.1423 110.863 21.1423ZM110.644 27.6498C110.051 27.6498 109.224 27.3625 109.224 26.644C109.224 25.7249 110.255 25.3722 111.148 25.3722C111.947 25.3722 112.321 25.5444 112.807 25.7712C112.664 26.8708 111.695 27.6498 110.644 27.6498ZM120.945 21.4024L118.859 26.5502H118.797L116.64 21.4024H114.683L117.924 28.5963L116.075 32.5993H117.971L122.964 21.4024H120.945ZM104.587 29H106.407V17.125H104.587V29Z"/>
</mask>
<path d="M66.8351 21.1649C64.5498 21.1649 62.6828 22.863 62.6828 25.206C62.6828 27.5299 64.5498 29.2458 66.8351 29.2458C69.1254 29.2458 70.9924 27.5299 70.9924 25.206C70.9924 22.863 69.1254 21.1649 66.8351 21.1649ZM66.8351 27.6546C65.5812 27.6546 64.5023 26.644 64.5023 25.206C64.5023 23.7489 65.5812 22.7562 66.8351 22.7562C68.0891 22.7562 69.1728 23.7489 69.1728 25.206C69.1728 26.644 68.0891 27.6546 66.8351 27.6546ZM57.7751 21.1649C55.4849 21.1649 53.6228 22.863 53.6228 25.206C53.6228 27.5299 55.4849 29.2458 57.7751 29.2458C60.0641 29.2458 61.9275 27.5299 61.9275 25.206C61.9275 22.863 60.0641 21.1649 57.7751 21.1649ZM57.7751 27.6546C56.5199 27.6546 55.4374 26.644 55.4374 25.206C55.4374 23.7489 56.5199 22.7562 57.7751 22.7562C59.0291 22.7562 60.1079 23.7489 60.1079 25.206C60.1079 26.644 59.0291 27.6546 57.7751 27.6546ZM46.9941 22.4035V24.1206H51.1939C51.071 25.0801 50.7426 25.7855 50.2391 26.2771C49.6261 26.8708 48.6713 27.5299 46.9941 27.5299C44.4095 27.5299 42.3856 25.4933 42.3856 22.9699C42.3856 20.4465 44.4095 18.4099 46.9941 18.4099C48.3916 18.4099 49.4084 18.9431 50.1588 19.6342L51.3982 18.4242C50.3486 17.4457 48.9523 16.694 46.9941 16.694C43.4498 16.694 40.4712 19.5095 40.4712 22.9699C40.4712 26.4303 43.4498 29.2458 46.9941 29.2458C48.9097 29.2458 50.3486 28.6331 51.4797 27.4836C52.6388 26.3519 53 24.7607 53 23.4758C53 23.0768 52.966 22.7098 52.9052 22.4035H46.9941ZM91.0791 23.7347C90.7374 22.831 89.6829 21.1649 87.5349 21.1649C85.4064 21.1649 83.6343 22.8025 83.6343 25.206C83.6343 27.4693 85.3882 29.2458 87.7393 29.2458C89.6403 29.2458 90.7374 28.1142 91.1886 27.4551L89.7777 26.5372C89.307 27.2093 88.6661 27.6546 87.7393 27.6546C86.8185 27.6546 86.1581 27.2425 85.7348 26.4303L91.2701 24.1942L91.0791 23.7347ZM85.4356 25.0801C85.3882 23.5221 86.675 22.7241 87.597 22.7241C88.3194 22.7241 88.9324 23.0768 89.1368 23.5815L85.4356 25.0801ZM80.9366 29H82.7562V17.125H80.9366V29ZM77.9568 22.065H77.8959C77.4873 21.5924 76.7077 21.1649 75.72 21.1649C73.6475 21.1649 71.7526 22.9414 71.7526 25.219C71.7526 27.4836 73.6475 29.2458 75.72 29.2458C76.7077 29.2458 77.4873 28.8148 77.8959 28.3279H77.9568V28.9074C77.9568 30.4523 77.1114 31.2824 75.748 31.2824C74.6363 31.2824 73.9467 30.4987 73.6621 29.8396L72.0797 30.4844C72.5358 31.5555 73.7436 32.8737 75.748 32.8737C77.8814 32.8737 79.6814 31.6482 79.6814 28.6663V21.4107H77.9568V22.065ZM75.8757 27.6546C74.6217 27.6546 73.5721 26.6298 73.5721 25.219C73.5721 23.7952 74.6217 22.7562 75.8757 22.7562C77.1115 22.7562 78.0857 23.7952 78.0857 25.219C78.0857 26.6298 77.1115 27.6546 75.8757 27.6546ZM99.5979 17.125H95.2461V29H97.0608V24.5006H99.5979C101.613 24.5006 103.59 23.0768 103.59 20.8122C103.59 18.5488 101.608 17.125 99.5979 17.125ZM99.6454 22.8488H97.0608V18.7768H99.6454C101 18.7768 101.774 19.8753 101.774 20.8122C101.774 21.7313 101 22.8488 99.6454 22.8488ZM110.863 21.1423C109.552 21.1423 108.188 21.7076 107.628 22.9604L109.238 23.6195C109.585 22.9604 110.222 22.7467 110.896 22.7467C111.837 22.7467 112.792 23.2988 112.807 24.2738V24.3985C112.478 24.2132 111.775 23.9389 110.91 23.9389C109.176 23.9389 107.409 24.8711 107.409 26.6108C107.409 28.202 108.829 29.2268 110.426 29.2268C111.648 29.2268 112.321 28.6889 112.745 28.0631H112.807V28.981H114.559V24.4258C114.559 22.3203 112.949 21.1423 110.863 21.1423ZM110.644 27.6498C110.051 27.6498 109.224 27.3625 109.224 26.644C109.224 25.7249 110.255 25.3722 111.148 25.3722C111.947 25.3722 112.321 25.5444 112.807 25.7712C112.664 26.8708 111.695 27.6498 110.644 27.6498ZM120.945 21.4024L118.859 26.5502H118.797L116.64 21.4024H114.683L117.924 28.5963L116.075 32.5993H117.971L122.964 21.4024H120.945ZM104.587 29H106.407V17.125H104.587V29Z" fill="white" stroke="white" stroke-width="1.46593" mask="url(#path-10-inside-1_3757_37489)"/>
<path d="M21.374 19.5L9.88846 8.29067C9.81355 8.47001 9.76572 8.70308 9.76572 8.99773V30.007C9.76572 30.2998 9.81296 30.5318 9.88705 30.7107L21.374 19.5Z" fill="white" stroke="#181B5E" stroke-width="0.732966"/>
<path d="M25.9826 16.0032L22.401 19.5001L25.9799 22.9985L30.5354 20.4723C30.5355 20.4723 30.5356 20.4722 30.5357 20.4722C31.1341 20.1395 31.3188 19.7684 31.3188 19.5006C31.3188 19.2331 31.1345 18.8633 30.5365 18.533L30.5355 18.5324L25.9826 16.0032Z" fill="white" stroke="#181B5E" stroke-width="0.732966"/>
<mask id="path-13-inside-2_3757_37489" fill="white">
<path d="M25.9973 23.5125L21.8875 19.5L9.75879 31.3429C10.21 31.806 10.9459 31.8619 11.7827 31.3987L25.9973 23.5125Z"/>
</mask>
<path d="M25.9973 23.5125L21.8875 19.5L9.75879 31.3429C10.21 31.806 10.9459 31.8619 11.7827 31.3987L25.9973 23.5125Z" fill="white"/>
<path d="M21.8875 19.5L21.2474 18.8444L21.8874 18.2195L22.5275 18.8444L21.8875 19.5ZM9.75879 31.3429L9.10257 31.9823L8.46388 31.3268L9.1187 30.6874L9.75879 31.3429ZM11.7827 31.3987L12.2272 32.1999L12.2263 32.2004L11.7827 31.3987ZM25.3572 24.1681L21.2474 20.1555L22.5275 18.8444L26.6373 22.857L25.3572 24.1681ZM22.5276 20.1555L10.3989 31.9984L9.1187 30.6874L21.2474 18.8444L22.5276 20.1555ZM10.415 30.7035C10.468 30.7579 10.5388 30.7977 10.6632 30.8027C10.8013 30.8083 11.0287 30.7688 11.339 30.5971L12.2263 32.2004C11.1804 32.7792 9.94758 32.8496 9.10257 31.9823L10.415 30.7035ZM11.3382 30.5976L25.5528 22.7114L26.4418 24.3137L12.2272 32.1999L11.3382 30.5976Z" fill="#181B5E" mask="url(#path-13-inside-2_3757_37489)"/>
<path d="M21.8874 18.8598L25.237 15.5895L11.5626 8.003C11.5623 8.00283 11.562 8.00266 11.5617 8.0025C11.1272 7.76467 10.7788 7.70965 10.5141 7.75881L21.8874 18.8598Z" fill="white" stroke="#181B5E" stroke-width="0.732966"/>
</svg>
