<svg width="40" height="41" viewBox="0 0 40 41" fill="none" xmlns="http://www.w3.org/2000/svg">
<g clip-path="url(#clip0_3679_4470)">
<path d="M37.9999 36.595V35.9284C37.9943 35.0858 37.461 34.3372 36.6665 34.0566V33.2618C36.6639 32.417 36.1299 31.6653 35.3332 31.3846V21.139C36.1299 20.8584 36.6638 20.1067 36.6665 19.2619V18.0861L37.8813 15.6564L39.8044 13.7332C40.0648 13.4733 40.0651 13.0516 39.8052 12.7913C39.7676 12.7536 39.7256 12.7206 39.6801 12.6929L20.3471 0.89516C20.134 0.764927 19.866 0.764927 19.6531 0.89516L0.319905 12.6929C0.00568939 12.8842 -0.0940753 13.2939 0.0971729 13.6082C0.124829 13.6536 0.157875 13.6957 0.195531 13.7332L2.11864 15.6564L3.33347 18.0861V19.2619C3.33605 20.1066 3.87003 20.8583 4.66682 21.1389V31.3845C3.87003 31.6652 3.33613 32.4169 3.33347 33.2617V34.0566C2.53895 34.3371 2.00567 35.0858 2.00012 35.9283V36.595C0.896071 36.5961 0.00131444 37.4909 0.000142574 38.5949V39.9283C6.44497e-05 40.2964 0.298343 40.5948 0.666464 40.5949C0.66662 40.5949 0.666699 40.5949 0.666777 40.5949H39.3332C39.7013 40.595 39.9998 40.2967 39.9998 39.9286C39.9998 39.9285 39.9998 39.9284 39.9998 39.9283V38.5949C39.9987 37.491 39.1039 36.5962 37.9999 36.595ZM35.3332 19.2619C35.3328 19.6299 35.0346 19.9282 34.6666 19.9285H30.6666C30.2986 19.9281 30.0003 19.6299 30 19.2619V18.5952H35.3333V19.2619H35.3332ZM16.6668 31.3846V21.139C17.4636 20.8584 17.9975 20.1067 18.0001 19.2619V18.5952H22.0001V19.2619C22.0027 20.1066 22.5366 20.8583 23.3334 21.1389V31.3845C22.5366 31.6652 22.0027 32.4169 22.0001 33.2617V33.9284H18.0001V33.2617C17.9975 32.417 17.4635 31.6652 16.6668 31.3846ZM5.33353 19.9286C4.96548 19.9282 4.66721 19.63 4.66689 19.2619V18.5953H10.0002V19.2619C9.99981 19.63 9.70161 19.9283 9.33357 19.9286H5.33353ZM8.66678 21.2618V31.2617H6.00016V21.2618H8.66678ZM10.0001 21.139C10.2463 21.0516 10.4728 20.9166 10.6668 20.7417C10.8607 20.9166 11.0873 21.0516 11.3334 21.1389V31.3845C11.0872 31.472 10.8607 31.607 10.6668 31.7819C10.4728 31.607 10.2462 31.472 10.0001 31.3845V21.139ZM11.3335 33.2617C11.3339 32.8937 11.6321 32.5954 12.0001 32.5951H16.0001C16.3681 32.5955 16.6664 32.8937 16.6667 33.2617V33.9284H11.3335V33.2617ZM12.6667 31.2617V21.2618H15.3334V31.2617H12.6667ZM16.0001 19.9286H12.0001C11.6321 19.9282 11.3338 19.63 11.3335 19.2619V18.5953H16.6668V19.2619C16.6664 19.6299 16.3681 19.9282 16.0001 19.9286ZM23.3334 33.2617C23.3337 32.8937 23.6319 32.5954 24 32.5951H27.9999C28.368 32.5955 28.6663 32.8937 28.6666 33.2617V33.9284H23.3334V33.2617ZM24.6666 31.2617V21.2618H27.3332V31.2617H24.6666ZM27.9999 19.9286H24C23.6319 19.9282 23.3337 19.63 23.3334 19.2619V18.5953H28.6667V19.2619C28.6663 19.6299 28.368 19.9282 27.9999 19.9286ZM28.6666 21.139C28.9128 21.0516 29.1392 20.9166 29.3332 20.7417C29.5272 20.9166 29.7538 21.0516 29.9999 21.1389V31.3845C29.7537 31.472 29.5272 31.607 29.3332 31.7819C29.1392 31.607 28.9127 31.472 28.6666 31.3845V21.139ZM29.9999 33.2617C30.0003 32.8937 30.2986 32.5954 30.6666 32.5951H34.6665C35.0346 32.5955 35.3328 32.8937 35.3332 33.2617V33.9284H29.9999V33.2617H29.9999ZM31.3333 31.2617V21.2618H33.9999V31.2617H31.3333ZM2.76582 14.4182L1.73716 13.3895L20 2.24507L38.2629 13.3895L37.2342 14.4182L20.3496 4.02763C20.1353 3.89544 19.8648 3.89544 19.6504 4.02763L2.76582 14.4182ZM34.9778 14.5953H5.02228L20 5.37824L34.9778 14.5953ZM4.41229 17.2619L3.74565 15.9285H36.2545L35.5878 17.2619H4.41229ZM4.66682 33.2617C4.66721 32.8937 4.96541 32.5954 5.33345 32.5951H9.33341C9.70145 32.5955 9.99973 32.8937 10 33.2617V33.9284H4.66682V33.2617ZM38.6665 39.2617H1.33357V38.595C1.33396 38.227 1.63216 37.9287 2.0002 37.9284H16.0001C16.3683 37.9284 16.6667 37.63 16.6667 37.2618C16.6667 36.8936 16.3682 36.5951 16.0001 36.5951H3.33355V35.9285C3.34128 35.5533 3.65104 35.2551 4.02628 35.2619H35.9739C36.349 35.2552 36.6588 35.5533 36.6666 35.9285V36.5951H24C23.6318 36.5951 23.3334 36.8936 23.3334 37.2618C23.3334 37.63 23.6318 37.9284 24 37.9284H37.9999C38.3679 37.9288 38.6662 38.227 38.6665 38.595V39.2617Z" fill="#181B5E"/>
<path d="M20 7.59534C18.5279 7.5969 17.3349 8.78986 17.3334 10.262C17.3334 11.7347 18.5273 12.9286 20 12.9286C21.4727 12.9286 22.6666 11.7347 22.6666 10.262C22.6666 8.78923 21.4727 7.59534 20 7.59534ZM20 11.5953C19.2636 11.5953 18.6666 10.9984 18.6666 10.262C18.6666 9.52556 19.2636 8.92861 20 8.92861C20.736 8.92947 21.3325 9.52587 21.3333 10.262C21.3333 10.9984 20.7364 11.5953 20 11.5953Z" fill="#181B5E"/>
</g>
<defs>
<clipPath id="clip0_3679_4470">
<rect width="40" height="40" fill="white" transform="translate(0 0.696289)"/>
</clipPath>
</defs>
</svg>
