<svg width="50" height="50" viewBox="0 0 50 50" fill="none" xmlns="http://www.w3.org/2000/svg">
    <path d="M40.625 26.0417H46.875C47.4275 26.0417 47.9574 26.2612 48.3481 26.6519C48.7388 27.0426 48.9583 27.5725 48.9583 28.1251V41.6667C48.9583 41.943 48.8486 42.208 48.6532 42.4033C48.4579 42.5987 48.1929 42.7084 47.9167 42.7084H40.625" stroke="#181B5E" stroke-width="2.08333" stroke-linecap="round" stroke-linejoin="round"/>
    <path d="M9.37484 42.7084H2.08317C1.8069 42.7084 1.54195 42.5987 1.3466 42.4033C1.15125 42.208 1.0415 41.943 1.0415 41.6667V28.1251C1.0415 27.5725 1.261 27.0426 1.6517 26.6519C2.0424 26.2612 2.5723 26.0417 3.12484 26.0417H9.37484" stroke="#181B5E" stroke-width="2.08333" stroke-linecap="round" stroke-linejoin="round"/>
    <path d="M40.625 47.9167C40.625 48.193 40.5153 48.4579 40.3199 48.6533C40.1246 48.8486 39.8596 48.9584 39.5833 48.9584H10.4167C10.1404 48.9584 9.87545 48.8486 9.6801 48.6533C9.48475 48.4579 9.375 48.193 9.375 47.9167V26.0417L24.2271 20.1021C24.723 19.9022 25.277 19.9022 25.7729 20.1021L40.625 26.0417V47.9167Z" stroke="#181B5E" stroke-width="2.08333" stroke-linecap="round" stroke-linejoin="round"/>
    <path d="M11.458 25.2085V17.7085H38.5413V25.2085" stroke="#181B5E" stroke-width="2.08333" stroke-linecap="round" stroke-linejoin="round"/>
    <path d="M11.458 17.7084C11.458 14.1169 12.8847 10.6726 15.4243 8.13301C17.9638 5.59346 21.4082 4.16675 24.9997 4.16675C28.5911 4.16675 32.0355 5.59346 34.5751 8.13301C37.1146 10.6726 38.5413 14.1169 38.5413 17.7084" stroke="#181B5E" stroke-width="2.08333" stroke-linecap="round" stroke-linejoin="round"/>
    <path d="M25 4.16675V1.04175" stroke="#181B5E" stroke-width="2.08333" stroke-linecap="round" stroke-linejoin="round"/>
    <path d="M15.625 44.7918V30.2085" stroke="#181B5E" stroke-width="2.08333" stroke-linecap="round" stroke-linejoin="round"/>
    <path d="M21.875 44.7918V30.2085" stroke="#181B5E" stroke-width="2.08333" stroke-linecap="round" stroke-linejoin="round"/>
    <path d="M28.125 44.7918V30.2085" stroke="#181B5E" stroke-width="2.08333" stroke-linecap="round" stroke-linejoin="round"/>
    <path d="M34.375 44.7918V30.2085" stroke="#181B5E" stroke-width="2.08333" stroke-linecap="round" stroke-linejoin="round"/>
    <path d="M9.375 30.2085H40.625" stroke="#181B5E" stroke-width="2.08333" stroke-linecap="round" stroke-linejoin="round"/>
    <path d="M9.375 44.7917H40.625" stroke="#181B5E" stroke-width="2.08333" stroke-linecap="round" stroke-linejoin="round"/>
</svg>
