<svg width="40" height="41" viewBox="0 0 40 41" fill="none" xmlns="http://www.w3.org/2000/svg">
<path d="M19.7864 9.21917L1.97949 16.3006L19.8831 22.6193C20.4609 22.8231 21.091 22.8231 21.6689 22.6193L37.886 16.8967C38.0148 16.8512 38.1267 16.7674 38.2066 16.6566C38.2865 16.5459 38.3308 16.4133 38.3334 16.2767C38.336 16.1401 38.2969 16.006 38.2213 15.8922C38.1457 15.7785 38.0371 15.6904 37.9102 15.64L21.7682 9.21917C21.1318 8.96649 20.4229 8.96649 19.7864 9.21917Z" stroke="#181B5E" stroke-width="1.66667" stroke-linecap="round" stroke-linejoin="round"/>
<path d="M1.97949 16.3004V26.1371" stroke="#181B5E" stroke-width="1.66667" stroke-linecap="round" stroke-linejoin="round"/>
<path d="M10.0357 19.155V27.6141C10.0329 28.0183 10.1521 28.4139 10.3778 28.7493C10.6034 29.0847 10.925 29.3442 11.3005 29.4938L20.0281 32.7163C20.5079 32.9097 21.044 32.9097 21.5239 32.7163L30.2514 29.4938C30.6272 29.3443 30.9491 29.0849 31.1753 28.7495C31.4014 28.4142 31.5211 28.0185 31.5189 27.6141V19.155" stroke="#181B5E" stroke-width="1.66667" stroke-linecap="round" stroke-linejoin="round"/>
</svg>
