<svg width="24" height="25" viewBox="0 0 24 25" fill="none" xmlns="http://www.w3.org/2000/svg">
    <path fill-rule="evenodd" clip-rule="evenodd" d="M7.34375 10.4929C7.34375 9.94064 7.79147 9.49292 8.34375 9.49292H14.3438C14.896 9.49292 15.3438 9.94064 15.3438 10.4929V15.4929C15.3438 16.0452 14.896 16.4929 14.3438 16.4929H8.34375C7.79147 16.4929 7.34375 16.0452 7.34375 15.4929V10.4929Z" stroke="#181B5E" stroke-linecap="round" stroke-linejoin="round"/>
    <path d="M11.3438 12.7429C11.4818 12.7429 11.5938 12.8549 11.5938 12.9929C11.5938 13.131 11.4818 13.2429 11.3438 13.2429C11.2057 13.2429 11.0938 13.131 11.0938 12.9929C11.0935 12.9265 11.1197 12.8628 11.1667 12.8159C11.2136 12.7689 11.2774 12.7427 11.3438 12.7429" stroke="#181B5E" stroke-linecap="round" stroke-linejoin="round"/>
    <path d="M8.34375 9.49292V8.49292C8.34375 6.83607 9.6869 5.49292 11.3438 5.49292C13.0006 5.49292 14.3437 6.83607 14.3438 8.49292V9.49292" stroke="#181B5E" stroke-linecap="round" stroke-linejoin="round"/>
    <path d="M15.3439 24.4929V21.4929H16.3439C18.0007 21.4929 19.3439 20.1498 19.3439 18.4929V15.4929H22.1579C22.3169 15.4919 22.4659 15.4153 22.5593 15.2866C22.6526 15.1578 22.6792 14.9924 22.6309 14.8409C20.7559 9.03793 19.3999 2.80593 13.2099 1.67393C10.4797 1.14451 7.65234 1.77726 5.40823 3.41991C3.16412 5.06257 1.70641 7.5664 1.38587 10.3289C1.06536 13.7461 2.5695 17.0793 5.34387 19.0999V24.4889" stroke="#181B5E" stroke-linecap="round" stroke-linejoin="round"/>
</svg>
