<svg width="50" height="50" viewBox="0 0 50 50" fill="none" xmlns="http://www.w3.org/2000/svg">
    <path d="M1.04175 25.0001C1.04175 28.1463 1.66145 31.2618 2.86547 34.1685C4.06949 37.0753 5.83424 39.7164 8.05898 41.9412C10.2837 44.1659 12.9249 45.9307 15.8316 47.1347C18.7384 48.3387 21.8538 48.9584 25.0001 48.9584C28.1463 48.9584 31.2618 48.3387 34.1685 47.1347C37.0753 45.9307 39.7164 44.1659 41.9412 41.9412C44.1659 39.7164 45.9307 37.0753 47.1347 34.1685C48.3387 31.2618 48.9584 28.1463 48.9584 25.0001C48.9584 21.8538 48.3387 18.7384 47.1347 15.8316C45.9307 12.9249 44.1659 10.2837 41.9412 8.05898C39.7164 5.83424 37.0753 4.06949 34.1685 2.86547C31.2618 1.66145 28.1463 1.04175 25.0001 1.04175C21.8538 1.04175 18.7384 1.66145 15.8316 2.86547C12.9249 4.06949 10.2837 5.83424 8.05898 8.05898C5.83424 10.2837 4.06949 12.9249 2.86547 15.8316C1.66145 18.7384 1.04175 21.8538 1.04175 25.0001V25.0001Z" stroke="#181B5E" stroke-width="2.08333" stroke-linecap="round" stroke-linejoin="round"/>
    <path d="M7.29175 25.0001C7.29175 29.6966 9.15744 34.2008 12.4784 37.5218C15.7994 40.8427 20.3035 42.7084 25.0001 42.7084C29.6966 42.7084 34.2008 40.8427 37.5218 37.5218C40.8427 34.2008 42.7084 29.6966 42.7084 25.0001C42.7084 20.3035 40.8427 15.7994 37.5218 12.4784C34.2008 9.15744 29.6966 7.29175 25.0001 7.29175C20.3035 7.29175 15.7994 9.15744 12.4784 12.4784C9.15744 15.7994 7.29175 20.3035 7.29175 25.0001V25.0001Z" stroke="#181B5E" stroke-width="2.08333" stroke-linecap="round" stroke-linejoin="round"/>
    <path d="M34.375 22.9167C34.375 22.6404 34.2653 22.3754 34.0699 22.1801C33.8746 21.9847 33.6096 21.875 33.3333 21.875H28.125V16.6667C28.125 16.3904 28.0153 16.1254 27.8199 15.9301C27.6246 15.7347 27.3596 15.625 27.0833 15.625H22.9167C22.6404 15.625 22.3754 15.7347 22.1801 15.9301C21.9847 16.1254 21.875 16.3904 21.875 16.6667V21.875H16.6667C16.3904 21.875 16.1254 21.9847 15.9301 22.1801C15.7347 22.3754 15.625 22.6404 15.625 22.9167V27.0833C15.625 27.3596 15.7347 27.6246 15.9301 27.8199C16.1254 28.0153 16.3904 28.125 16.6667 28.125H21.875V33.3333C21.875 33.6096 21.9847 33.8746 22.1801 34.0699C22.3754 34.2653 22.6404 34.375 22.9167 34.375H27.0833C27.3596 34.375 27.6246 34.2653 27.8199 34.0699C28.0153 33.8746 28.125 33.6096 28.125 33.3333V28.125H33.3333C33.6096 28.125 33.8746 28.0153 34.0699 27.8199C34.2653 27.6246 34.375 27.3596 34.375 27.0833V22.9167Z" stroke="#181B5E" stroke-width="2.08333" stroke-linecap="round" stroke-linejoin="round"/>
</svg>
