<svg width="25" height="23" viewBox="0 0 25 23" fill="none" xmlns="http://www.w3.org/2000/svg">
    <path fill-rule="evenodd" clip-rule="evenodd" d="M20.5001 7.39994V2.49994C20.5001 2.22379 20.2762 1.99994 20.0001 1.99994H18.0001C17.7239 1.99994 17.5001 2.22379 17.5001 2.49994V4.63994L13.3381 0.810936C13.1466 0.63431 12.8516 0.63431 12.6601 0.810936L1.66007 11.1319C1.50822 11.2716 1.45775 11.4902 1.533 11.6823C1.60824 11.8744 1.79375 12.0006 2.00007 11.9999H4.50007V21.4999C4.50007 22.0522 4.94778 22.4999 5.50007 22.4999H20.5001C21.0524 22.4999 21.5001 22.0522 21.5001 21.4999V11.9999H24.0001C24.2062 12.0001 24.3913 11.8738 24.4663 11.6818C24.5413 11.4898 24.4908 11.2715 24.3391 11.1319L20.5001 7.39994Z" stroke="#181B5E" stroke-linecap="round" stroke-linejoin="round"/>
</svg>
