<svg width="24" height="24" viewBox="0 0 24 24" fill="none" xmlns="http://www.w3.org/2000/svg">
    <path d="M19.5 10.7458V5.2868C19.5026 4.7656 19.1936 4.29327 18.715 4.0868C16.567 3.28132 14.294 2.85991 12 2.8418C9.70582 2.86086 7.43286 3.2833 5.28502 4.0898C4.80645 4.29627 4.49747 4.7686 4.50002 5.2898V10.7488" stroke="#181B5E" stroke-linecap="round" stroke-linejoin="round"/>
    <path d="M6.08203 16.0576C7.89103 18.4766 10.762 19.8416 12 19.8416C13.238 19.8416 16.109 18.4766 17.918 16.0576" stroke="#181B5E" stroke-linecap="round" stroke-linejoin="round"/>
    <path d="M4.37707 13.8301C4.16407 15.3481 1.80007 16.2891 0.685072 16.6511C0.585665 16.6841 0.5145 16.7719 0.502695 16.876C0.490891 16.9801 0.540595 17.0816 0.630072 17.1361L2.78507 18.4291L1.94307 20.1131C1.89781 20.2031 1.90713 20.311 1.96717 20.392C2.02721 20.473 2.12774 20.5132 2.22707 20.4961C3.59814 20.3369 4.9044 19.8245 6.01807 19.0091" stroke="#181B5E" stroke-linecap="round" stroke-linejoin="round"/>
    <path d="M19.6229 13.8301C19.8359 15.3481 22.1989 16.2891 23.3149 16.6511C23.4143 16.6841 23.4855 16.7719 23.4973 16.876C23.5091 16.9801 23.4594 17.0816 23.3699 17.1361L21.2149 18.4291L22.0569 20.1131C22.1022 20.2031 22.0929 20.311 22.0328 20.392C21.9728 20.473 21.8723 20.5132 21.7729 20.4961C20.4018 20.3371 19.0955 19.8247 17.9819 19.0091" stroke="#181B5E" stroke-linecap="round" stroke-linejoin="round"/>
    <path fill-rule="evenodd" clip-rule="evenodd" d="M12.0003 13.8447C15.4063 13.8447 17.1883 15.2367 17.9783 16.1237C18.0954 16.255 18.273 16.3151 18.4457 16.2819C18.6185 16.2487 18.7612 16.1271 18.8213 15.9617L20.3643 11.7177C20.4473 11.494 20.3607 11.2427 20.1573 11.1177C17.6898 9.6458 14.8734 8.86098 12.0003 8.84473C9.12681 8.86219 6.31037 9.64839 3.84329 11.1217C3.63992 11.2467 3.55323 11.498 3.63629 11.7217L5.17929 15.9657C5.23941 16.1311 5.38203 16.2527 5.55483 16.2859C5.72762 16.3191 5.90515 16.259 6.02229 16.1277C6.81229 15.2367 8.59429 13.8447 12.0003 13.8447Z" stroke="#181B5E" stroke-linecap="round" stroke-linejoin="round"/>
</svg>
