<svg width="25" height="25" viewBox="0 0 25 25" fill="none" xmlns="http://www.w3.org/2000/svg">
<path fill-rule="evenodd" clip-rule="evenodd" d="M15.636 6.22727C15.636 6.80466 15.1679 7.27273 14.5906 7.27273H10.4087C9.83135 7.27273 9.36328 6.80466 9.36328 6.22727V2.04545C9.36328 1.46807 9.83135 1 10.4087 1H14.5906C15.1679 1 15.636 1.46807 15.636 2.04545V6.22727Z" stroke="#181B5E" stroke-linecap="round" stroke-linejoin="round"/>
<path fill-rule="evenodd" clip-rule="evenodd" d="M7.27273 6.22727C7.27273 6.80466 6.80466 7.27273 6.22727 7.27273H2.04545C1.46807 7.27273 1 6.80466 1 6.22727V2.04545C1 1.46807 1.46807 1 2.04545 1H6.22727C6.80466 1 7.27273 1.46807 7.27273 2.04545V6.22727Z" stroke="#181B5E" stroke-linecap="round" stroke-linejoin="round"/>
<path fill-rule="evenodd" clip-rule="evenodd" d="M24.0003 6.22727C24.0003 6.80466 23.5322 7.27273 22.9548 7.27273H18.773C18.1956 7.27273 17.7275 6.80466 17.7275 6.22727V2.04545C17.7275 1.46807 18.1956 1 18.773 1H22.9548C23.5322 1 24.0003 1.46807 24.0003 2.04545V6.22727Z" stroke="#181B5E" stroke-linecap="round" stroke-linejoin="round"/>
<path fill-rule="evenodd" clip-rule="evenodd" d="M15.636 14.5906C15.636 15.1679 15.1679 15.636 14.5906 15.636H10.4087C9.83135 15.636 9.36328 15.1679 9.36328 14.5906V10.4087C9.36328 9.83135 9.83135 9.36328 10.4087 9.36328H14.5906C15.1679 9.36328 15.636 9.83135 15.636 10.4087V14.5906Z" stroke="#181B5E" stroke-linecap="round" stroke-linejoin="round"/>
<path fill-rule="evenodd" clip-rule="evenodd" d="M7.27273 14.5906C7.27273 15.1679 6.80466 15.636 6.22727 15.636H2.04545C1.46807 15.636 1 15.1679 1 14.5906V10.4087C1 9.83135 1.46807 9.36328 2.04545 9.36328H6.22727C6.80466 9.36328 7.27273 9.83135 7.27273 10.4087V14.5906Z" stroke="#181B5E" stroke-linecap="round" stroke-linejoin="round"/>
<path fill-rule="evenodd" clip-rule="evenodd" d="M24.0003 14.5906C24.0003 15.1679 23.5322 15.636 22.9548 15.636H18.773C18.1956 15.636 17.7275 15.1679 17.7275 14.5906V10.4087C17.7275 9.83135 18.1956 9.36328 18.773 9.36328H22.9548C23.5322 9.36328 24.0003 9.83135 24.0003 10.4087V14.5906Z" stroke="#181B5E" stroke-linecap="round" stroke-linejoin="round"/>
<path fill-rule="evenodd" clip-rule="evenodd" d="M15.636 22.9548C15.636 23.5322 15.1679 24.0003 14.5906 24.0003H10.4087C9.83135 24.0003 9.36328 23.5322 9.36328 22.9548V18.773C9.36328 18.1956 9.83135 17.7275 10.4087 17.7275H14.5906C15.1679 17.7275 15.636 18.1956 15.636 18.773V22.9548Z" stroke="#181B5E" stroke-linecap="round" stroke-linejoin="round"/>
<path fill-rule="evenodd" clip-rule="evenodd" d="M7.27273 22.9548C7.27273 23.5322 6.80466 24.0003 6.22727 24.0003H2.04545C1.46807 24.0003 1 23.5322 1 22.9548V18.773C1 18.1956 1.46807 17.7275 2.04545 17.7275H6.22727C6.80466 17.7275 7.27273 18.1956 7.27273 18.773V22.9548Z" stroke="#181B5E" stroke-linecap="round" stroke-linejoin="round"/>
<path fill-rule="evenodd" clip-rule="evenodd" d="M24.0003 22.9548C24.0003 23.5322 23.5322 24.0003 22.9548 24.0003H18.773C18.1956 24.0003 17.7275 23.5322 17.7275 22.9548V18.773C17.7275 18.1956 18.1956 17.7275 18.773 17.7275H22.9548C23.5322 17.7275 24.0003 18.1956 24.0003 18.773V22.9548Z" stroke="#181B5E" stroke-linecap="round" stroke-linejoin="round"/>
</svg>
