<svg width="24" height="24" viewBox="0 0 24 24" fill="none" xmlns="http://www.w3.org/2000/svg">
    <path d="M7 4.99902L4 7.99902L2.5 6.49902" stroke="#181B5E" stroke-linecap="round" stroke-linejoin="round"/>
    <path d="M7 10.499L4 13.499L2.5 11.999" stroke="#181B5E" stroke-linecap="round" stroke-linejoin="round"/>
    <path fill-rule="evenodd" clip-rule="evenodd" d="M9.5 21.5H1.5C0.947715 21.5 0.5 21.0523 0.5 20.5V3.5C0.5 2.94772 0.947715 2.5 1.5 2.5H13.5C14.0523 2.5 14.5 2.94772 14.5 3.5V16.5L9.5 21.5Z" stroke="#181B5E" stroke-linecap="round" stroke-linejoin="round"/>
    <path d="M9.5 21.499V16.499H14.5" stroke="#181B5E" stroke-linecap="round" stroke-linejoin="round"/>
    <path fill-rule="evenodd" clip-rule="evenodd" d="M17.498 8.49902H21.499V18.999H17.498V8.49902Z" stroke="#181B5E" stroke-linecap="round" stroke-linejoin="round"/>
    <path d="M21.5 1.5C22.6046 1.5 23.5 2.39543 23.5 3.5V11.5" stroke="#181B5E" stroke-linecap="round" stroke-linejoin="round"/>
    <path d="M19.5 20.999V23.499" stroke="#181B5E" stroke-linecap="round" stroke-linejoin="round"/>
    <path fill-rule="evenodd" clip-rule="evenodd" d="M17.499 0.499023H21.499V8.49902H17.499V0.499023Z" stroke="#181B5E" stroke-linecap="round" stroke-linejoin="round"/>
    <path fill-rule="evenodd" clip-rule="evenodd" d="M18.5 18.999H20.5V20.999H18.5V18.999Z" stroke="#181B5E" stroke-linecap="round" stroke-linejoin="round"/>
    <path d="M8.5 7.49902H12" stroke="#181B5E" stroke-linecap="round" stroke-linejoin="round"/>
    <path d="M8.5 12.499H12" stroke="#181B5E" stroke-linecap="round" stroke-linejoin="round"/>
</svg>
