<svg width="18" height="24" viewBox="0 0 18 24" fill="none" xmlns="http://www.w3.org/2000/svg">
    <path fill-rule="evenodd" clip-rule="evenodd" d="M0.5 9.5C0.5 8.94772 0.947715 8.5 1.5 8.5H16.5C17.0523 8.5 17.5 8.94772 17.5 9.5V22.5C17.5 23.0523 17.0523 23.5 16.5 23.5H1.5C0.947715 23.5 0.5 23.0523 0.5 22.5V9.5Z" stroke="#181B5E" stroke-linecap="round" stroke-linejoin="round"/>
    <path fill-rule="evenodd" clip-rule="evenodd" d="M3.5 6C3.5 2.96243 5.96243 0.5 9 0.5C12.0376 0.5 14.5 2.96243 14.5 6V8.5H3.5V6Z" stroke="#181B5E" stroke-linecap="round" stroke-linejoin="round"/>
    <path fill-rule="evenodd" clip-rule="evenodd" d="M4.5 12.5C4.5 11.9477 4.94772 11.5 5.5 11.5H12.5C13.0523 11.5 13.5 11.9477 13.5 12.5V19.5C13.5 20.0523 13.0523 20.5 12.5 20.5H5.5C4.94772 20.5 4.5 20.0523 4.5 19.5V12.5Z" stroke="#181B5E" stroke-linecap="round" stroke-linejoin="round"/>
    <path d="M4.5 14.5H13.5" stroke="#181B5E" stroke-linecap="round" stroke-linejoin="round"/>
    <path d="M4.5 17.5H13.5" stroke="#181B5E" stroke-linecap="round" stroke-linejoin="round"/>
    <path d="M10.5 11.5V20.5" stroke="#181B5E" stroke-linecap="round" stroke-linejoin="round"/>
    <path d="M7.5 11.5V20.5" stroke="#181B5E" stroke-linecap="round" stroke-linejoin="round"/>
</svg>
