<svg width="25" height="40" viewBox="0 0 25 40" fill="none" xmlns="http://www.w3.org/2000/svg">
<path d="M20 0.833374H5.00001C3.15905 0.833374 1.66667 2.32576 1.66667 4.16671V35.8334C1.66667 37.6744 3.15905 39.1667 5.00001 39.1667H20C21.841 39.1667 23.3333 37.6744 23.3333 35.8334V4.16671C23.3333 2.32576 21.841 0.833374 20 0.833374Z" stroke="#181B5E" stroke-width="1.66667" stroke-linecap="round" stroke-linejoin="round"/>
<path d="M23.3333 32.5H1.66667" stroke="#181B5E" stroke-width="1.66667" stroke-linecap="round" stroke-linejoin="round"/>
<path d="M23.3333 7.5H1.66667" stroke="#181B5E" stroke-width="1.66667" stroke-linecap="round" stroke-linejoin="round"/>
<path d="M10 4.16663H15" stroke="#181B5E" stroke-width="1.66667" stroke-linecap="round" stroke-linejoin="round"/>
<path d="M12.5 36.25C12.2698 36.25 12.0833 36.0635 12.0833 35.8333C12.0833 35.6031 12.2698 35.4166 12.5 35.4166" stroke="#181B5E" stroke-width="1.66667"/>
<path d="M12.5 36.25C12.7302 36.25 12.9167 36.0635 12.9167 35.8333C12.9167 35.6031 12.7302 35.4166 12.5 35.4166" stroke="#181B5E" stroke-width="1.66667"/>
</svg>
