<svg width="31" height="40" viewBox="0 0 31 40" fill="none" xmlns="http://www.w3.org/2000/svg">
<path d="M29.6667 19.1667C29.6667 18.2827 29.3155 17.4348 28.6904 16.8097C28.0652 16.1846 27.2174 15.8334 26.3333 15.8334H4.66668C3.78262 15.8334 2.93478 16.1846 2.30965 16.8097C1.68453 17.4348 1.33334 18.2827 1.33334 19.1667V35.8334C1.33334 36.7174 1.68453 37.5653 2.30965 38.1904C2.93478 38.8155 3.78262 39.1667 4.66668 39.1667H26.3333C27.2174 39.1667 28.0652 38.8155 28.6904 38.1904C29.3155 37.5653 29.6667 36.7174 29.6667 35.8334V19.1667Z" stroke="#181B5E" stroke-width="1.66667" stroke-linecap="round" stroke-linejoin="round"/>
<path d="M6.33334 10C6.33334 7.56889 7.29911 5.23731 9.0182 3.51823C10.7373 1.79915 13.0689 0.833374 15.5 0.833374C17.9312 0.833374 20.2627 1.79915 21.9818 3.51823C23.7009 5.23731 24.6667 7.56889 24.6667 10V15.8334H6.33334V10Z" stroke="#181B5E" stroke-width="1.66667" stroke-linecap="round" stroke-linejoin="round"/>
</svg>
