<svg width="50" height="50" viewBox="0 0 50 50" fill="none" xmlns="http://www.w3.org/2000/svg">
    <path d="M38.5413 40.625H11.458" stroke="#181B5E" stroke-width="2.08333" stroke-linecap="round" stroke-linejoin="round"/>
    <path d="M24.9998 44.271C25.138 44.271 25.2704 44.3259 25.3681 44.4235C25.4658 44.5212 25.5207 44.6537 25.5207 44.7918C25.5207 44.93 25.4658 45.0624 25.3681 45.1601C25.2704 45.2578 25.138 45.3127 24.9998 45.3127C24.8617 45.3127 24.7292 45.2578 24.6316 45.1601C24.5339 45.0624 24.479 44.93 24.479 44.7918C24.479 44.6537 24.5339 44.5212 24.6316 44.4235C24.7292 44.3259 24.8617 44.271 24.9998 44.271Z" stroke="#181B5E" stroke-width="2.08333" stroke-linecap="round" stroke-linejoin="round"/>
    <path d="M34.3747 1.04175H15.6247C13.3235 1.04175 11.458 2.90723 11.458 5.20842V44.7918C11.458 47.0929 13.3235 48.9584 15.6247 48.9584H34.3747C36.6759 48.9584 38.5413 47.0929 38.5413 44.7918V5.20842C38.5413 2.90723 36.6759 1.04175 34.3747 1.04175Z" stroke="#181B5E" stroke-width="2.08333" stroke-linecap="round" stroke-linejoin="round"/>
    <path d="M1.0415 38.5417L4.1665 35.4167L1.0415 32.2917L4.1665 29.1667L1.0415 26.0417L4.1665 22.9167L1.0415 19.7917L4.1665 16.6667L1.0415 13.5417L4.1665 10.4167L1.0415 7.29175" stroke="#181B5E" stroke-width="2.08333" stroke-linecap="round" stroke-linejoin="round"/>
    <path d="M48.958 38.5417L45.833 35.4167L48.958 32.2917L45.833 29.1667L48.958 26.0417L45.833 22.9167L48.958 19.7917L45.833 16.6667L48.958 13.5417L45.833 10.4167L48.958 7.29175" stroke="#181B5E" stroke-width="2.08333" stroke-linecap="round" stroke-linejoin="round"/>
</svg>
