<svg width="50" height="42" viewBox="0 0 50 42" fill="none" xmlns="http://www.w3.org/2000/svg">
    <path d="M27.7333 26.1104C27.6643 25.9521 27.6356 25.7791 27.65 25.607C27.6644 25.4348 27.7214 25.269 27.8158 25.1243C27.9102 24.9797 28.0392 24.8608 28.191 24.7784C28.3428 24.6959 28.5127 24.6525 28.6854 24.6521H31.7708C31.9326 24.6521 32.0921 24.6897 32.2367 24.7621C32.3813 24.8344 32.5072 24.9394 32.6042 25.0688L38.1813 32.5042C38.29 32.6516 38.4356 32.7677 38.6035 32.8408C38.7714 32.914 38.9556 32.9416 39.1375 32.9208L44.5167 32.2771H44.5396C45.2265 32.1813 45.9266 32.2713 46.567 32.5377C47.2074 32.804 47.7648 33.237 48.1813 33.7917V33.7917C48.6853 34.4636 48.9578 35.2809 48.9578 36.1208C48.9578 36.9608 48.6853 37.7781 48.1813 38.45L47.9042 38.8188C47.5227 39.2668 47.0504 39.6285 46.5184 39.8799C45.9864 40.1314 45.4071 40.2668 44.8188 40.2771H22.5521C22.3499 40.2766 22.1521 40.2172 21.9831 40.1062C21.814 39.9953 21.6809 39.8375 21.6 39.6521L18.2375 32.0854C18.1738 31.9426 18.1431 31.7873 18.1477 31.631C18.1522 31.4747 18.1918 31.3215 18.2637 31.1826C18.3355 31.0437 18.4377 30.9228 18.5626 30.8288C18.6876 30.7348 18.8321 30.6701 18.9854 30.6396L22.1375 30.0146C22.3616 29.97 22.5941 30.0002 22.7993 30.1008C23.0044 30.2013 23.1709 30.3664 23.2729 30.5708L24.7125 33.45C24.7991 33.6228 24.9321 33.7681 25.0965 33.8697C25.261 33.9712 25.4505 34.025 25.6438 34.025H29.6479C29.8207 34.0246 29.9906 33.9812 30.1424 33.8988C30.2942 33.8163 30.4231 33.6974 30.5176 33.5528C30.612 33.4082 30.669 33.2423 30.6834 33.0702C30.6978 32.898 30.6691 32.725 30.6 32.5667L27.7333 26.1104Z" stroke="#181B5E" stroke-width="2.08333" stroke-linecap="round" stroke-linejoin="round"/>
    <path d="M1.04175 38.1875H3.12508" stroke="#181B5E" stroke-width="2.08333" stroke-linecap="round" stroke-linejoin="round"/>
    <path d="M7.29175 38.1875H9.37508" stroke="#181B5E" stroke-width="2.08333" stroke-linecap="round" stroke-linejoin="round"/>
    <path d="M13.5417 38.1875H15.6251" stroke="#181B5E" stroke-width="2.08333" stroke-linecap="round" stroke-linejoin="round"/>
    <path d="M22.2667 3.19369C22.3358 3.03537 22.3645 2.86235 22.3501 2.69021C22.3357 2.51807 22.2787 2.35221 22.1843 2.20757C22.0898 2.06292 21.9609 1.94403 21.8091 1.8616C21.6573 1.77917 21.4874 1.73579 21.3146 1.73535H18.2292C18.0675 1.73535 17.908 1.773 17.7634 1.84532C17.6187 1.91764 17.4929 2.02265 17.3959 2.15202L11.8188 9.58119C11.7101 9.72856 11.5645 9.84468 11.3966 9.91783C11.2287 9.99099 11.0445 10.0186 10.8625 9.99785L5.48338 9.34785H5.46047C4.77351 9.25209 4.07345 9.34206 3.43304 9.60841C2.79262 9.87476 2.23523 10.3078 1.8188 10.8624V10.8624C1.31473 11.5343 1.04224 12.3516 1.04224 13.1916C1.04224 14.0316 1.31473 14.8489 1.8188 15.5208L2.09588 15.8895C2.47732 16.3375 2.9497 16.6993 3.48166 16.9507C4.01363 17.2021 4.593 17.3375 5.1813 17.3479H27.448C27.6502 17.3473 27.8479 17.288 28.017 17.177C28.1861 17.066 28.3192 16.9082 28.4 16.7229L31.7625 9.15619C31.8262 9.01338 31.8569 8.85808 31.8524 8.70179C31.8479 8.5455 31.8082 8.39223 31.7364 8.25336C31.6645 8.11448 31.5624 7.99356 31.4374 7.89956C31.3125 7.80556 31.168 7.74089 31.0146 7.71035L27.8625 7.08535C27.6385 7.04072 27.406 7.071 27.2008 7.17151C26.9956 7.27203 26.8292 7.4372 26.7271 7.6416L25.2875 10.5208C25.201 10.6936 25.068 10.8389 24.9035 10.9404C24.7391 11.042 24.5496 11.0958 24.3563 11.0958H20.3521C20.1794 11.0953 20.0095 11.0519 19.8577 10.9695C19.7059 10.8871 19.5769 10.7682 19.4825 10.6236C19.3881 10.4789 19.3311 10.3131 19.3167 10.1409C19.3023 9.96877 19.331 9.79575 19.4 9.63744L22.2667 3.19369Z" stroke="#181B5E" stroke-width="2.08333" stroke-linecap="round" stroke-linejoin="round"/>
    <path d="M48.9583 15.2708H46.875" stroke="#181B5E" stroke-width="2.08333" stroke-linecap="round" stroke-linejoin="round"/>
    <path d="M42.7083 15.2708H40.625" stroke="#181B5E" stroke-width="2.08333" stroke-linecap="round" stroke-linejoin="round"/>
    <path d="M36.4583 15.2708H34.375" stroke="#181B5E" stroke-width="2.08333" stroke-linecap="round" stroke-linejoin="round"/>
</svg>
