<svg width="30" height="30" viewBox="0 0 30 30" fill="none" xmlns="http://www.w3.org/2000/svg">
<path d="M12.4375 18.0725L10.5625 19.9475C10.4453 20.0647 10.2864 20.1305 10.1206 20.1305C9.95491 20.1305 9.79597 20.0647 9.67876 19.9475L7.91126 18.1787C7.79409 18.0615 7.72827 17.9026 7.72827 17.7369C7.72827 17.5711 7.79409 17.4122 7.91126 17.295L9.78626 15.42" stroke="#181B5E" stroke-linecap="round" stroke-linejoin="round"/>
<path d="M8.79493 19.0613L3.04493 24.8113C2.57616 25.2802 2.31287 25.9162 2.31299 26.5792C2.31311 27.2423 2.57662 27.8781 3.04555 28.3469C3.51449 28.8157 4.15044 29.079 4.81349 29.0788C5.47655 29.0787 6.11241 28.8152 6.58118 28.3463L10.5624 24.365C10.9142 24.0133 11.3912 23.8157 11.8887 23.8157C12.3861 23.8157 12.8632 24.0133 13.2149 24.365C13.5667 24.7168 13.7643 25.1938 13.7643 25.6913C13.7643 26.1887 13.5667 26.6658 13.2149 27.0175L11.1124 29.125" stroke="#181B5E" stroke-linecap="round" stroke-linejoin="round"/>
<path d="M14.1418 9.09437L9.72228 13.5137C9.23411 14.0019 9.2341 14.7933 9.72225 15.2815L13.2577 18.8171C13.7459 19.3052 14.5373 19.3053 15.0255 18.8171L19.445 14.3978C19.9331 13.9096 19.9332 13.1182 19.445 12.63L15.9095 9.09441C15.4214 8.60624 14.6299 8.60623 14.1418 9.09437Z" stroke="#181B5E" stroke-linecap="round" stroke-linejoin="round"/>
<path d="M25.1912 5.11626L27.4012 2.90626L27.6687 1.63376C27.6898 1.53302 27.6858 1.42861 27.6569 1.32981C27.628 1.231 27.5752 1.14086 27.5031 1.0674C27.431 0.993929 27.3418 0.93941 27.2436 0.908682C27.1453 0.877954 27.041 0.87197 26.9399 0.891259L25.6337 1.14126L23.4224 3.34876L20.3299 4.67501L15.9099 9.09376L19.4462 12.625L23.8662 8.20626L25.1912 5.11626Z" stroke="#181B5E" stroke-linecap="round" stroke-linejoin="round"/>
<path d="M20.3301 4.67499L23.8651 8.21124" stroke="#181B5E" stroke-linecap="round" stroke-linejoin="round"/>
</svg>
