<svg width="24" height="24" viewBox="0 0 24 24" fill="none" xmlns="http://www.w3.org/2000/svg">
    <path fill-rule="evenodd" clip-rule="evenodd" d="M9.5 11C9.5 11.2761 9.27614 11.5 9 11.5H4C3.72386 11.5 3.5 11.2761 3.5 11V6C3.5 5.72386 3.72386 5.5 4 5.5H9C9.27614 5.5 9.5 5.72386 9.5 6V11Z" stroke="#181B5E" stroke-linecap="round" stroke-linejoin="round"/>
    <path d="M11.5 5.5H14.5" stroke="#181B5E" stroke-linecap="round" stroke-linejoin="round"/>
    <path d="M11.5 8.5H14.5" stroke="#181B5E" stroke-linecap="round" stroke-linejoin="round"/>
    <path d="M11.5 11.5H14.5" stroke="#181B5E" stroke-linecap="round" stroke-linejoin="round"/>
    <path d="M3.5 14.5H14.5" stroke="#181B5E" stroke-linecap="round" stroke-linejoin="round"/>
    <path d="M3.5 17.5H14.5" stroke="#181B5E" stroke-linecap="round" stroke-linejoin="round"/>
    <path d="M20.5 22.5H3.5C1.84315 22.5 0.5 21.1569 0.5 19.5V2.5C0.5 1.94772 0.947715 1.5 1.5 1.5H16.5C17.0523 1.5 17.5 1.94772 17.5 2.5V19.5C17.5 21.1569 18.8431 22.5 20.5 22.5C22.1569 22.5 23.5 21.1569 23.5 19.5V4.5" stroke="#181B5E" stroke-linecap="round" stroke-linejoin="round"/>
    <path d="M20.5 4.5V20" stroke="#181B5E" stroke-linecap="round" stroke-linejoin="round"/>
</svg>
