<svg width="50" height="50" viewBox="0 0 50 50" fill="none" xmlns="http://www.w3.org/2000/svg">
    <path d="M48.9583 48.9585L43.75 41.8127V32.2918C43.8542 28.5835 38.375 24.2502 34.375 20.8335" stroke="#181B5E" stroke-width="2.08333" stroke-linecap="round" stroke-linejoin="round"/>
    <path d="M38.5834 36.4586L32.9792 30.6877C32.5648 30.2733 32.0028 30.0405 31.4167 30.0405C30.8307 30.0405 30.2686 30.2733 29.8542 30.6877C29.4398 31.1021 29.207 31.6642 29.207 32.2502C29.207 32.8363 29.4398 33.3983 29.8542 33.8127L35.4167 40.6252V43.7502C35.4167 45.8336 38.6667 48.9586 38.6667 48.9586" stroke="#181B5E" stroke-width="2.08333" stroke-linecap="round" stroke-linejoin="round"/>
    <path d="M28.1248 42.7084H3.12484C2.5723 42.7084 2.0424 42.4889 1.6517 42.0982C1.261 41.7075 1.0415 41.1776 1.0415 40.6251V3.12508C1.0415 2.57255 1.261 2.04264 1.6517 1.65194C2.0424 1.26124 2.5723 1.04175 3.12484 1.04175H32.2915C32.844 1.04175 33.3739 1.26124 33.7646 1.65194C34.1553 2.04264 34.3748 2.57255 34.3748 3.12508V32.1251" stroke="#181B5E" stroke-width="2.08333" stroke-linecap="round" stroke-linejoin="round"/>
    <path d="M28.1248 38.5418H8.33317C8.0569 38.5418 7.79195 38.4321 7.5966 38.2367C7.40125 38.0414 7.2915 37.7764 7.2915 37.5002V25.0002C7.2915 24.7239 7.40125 24.4589 7.5966 24.2636C7.79195 24.0682 8.0569 23.9585 8.33317 23.9585H27.0832C27.3594 23.9585 27.6244 24.0682 27.8197 24.2636C28.0151 24.4589 28.1248 24.7239 28.1248 25.0002V28.1252" stroke="#181B5E" stroke-width="2.08333" stroke-linecap="round" stroke-linejoin="round"/>
    <path d="M7.2915 28.125H28.1248" stroke="#181B5E" stroke-width="2.08333" stroke-linecap="round" stroke-linejoin="round"/>
    <path d="M13.5415 23.9585V38.5418" stroke="#181B5E" stroke-width="2.08333" stroke-linecap="round" stroke-linejoin="round"/>
    <path d="M19.7915 23.9585V38.5418" stroke="#181B5E" stroke-width="2.08333" stroke-linecap="round" stroke-linejoin="round"/>
    <path d="M19.7915 9.375H28.1248" stroke="#181B5E" stroke-width="2.08333" stroke-linecap="round" stroke-linejoin="round"/>
    <path d="M19.7915 13.5417H24.9998" stroke="#181B5E" stroke-width="2.08333" stroke-linecap="round" stroke-linejoin="round"/>
    <path d="M11.458 17.7085V19.7918" stroke="#181B5E" stroke-width="2.08333" stroke-linecap="round" stroke-linejoin="round"/>
    <path d="M11.458 7.29175V9.37508" stroke="#181B5E" stroke-width="2.08333" stroke-linecap="round" stroke-linejoin="round"/>
    <path d="M7.2915 17.7083H13.5415C14.094 17.7083 14.6239 17.4888 15.0146 17.0981C15.4053 16.7074 15.6248 16.1775 15.6248 15.625C15.6248 15.0725 15.4053 14.5426 15.0146 14.1519C14.6239 13.7612 14.094 13.5417 13.5415 13.5417H9.37484C8.8223 13.5417 8.2924 13.3222 7.9017 12.9315C7.511 12.5408 7.2915 12.0109 7.2915 11.4583C7.2915 10.9058 7.511 10.3759 7.9017 9.98519C8.2924 9.59449 8.8223 9.375 9.37484 9.375H15.6248" stroke="#181B5E" stroke-width="2.08333" stroke-linecap="round" stroke-linejoin="round"/>
</svg>
