<svg width="24" height="24" viewBox="0 0 20 24" fill="none" xmlns="http://www.w3.org/2000/svg">
    <path d="M19.0882 4.85934L10.0679 0.052884C9.93412 -0.0185362 9.77373 -0.0175338 9.64092 0.05539L0.870263 4.86185C0.72642 4.94078 0.637207 5.09164 0.637207 5.25578V11.5342C0.64247 16.6953 3.70026 21.3644 8.42903 23.4321L9.64643 23.9626C9.7602 24.0122 9.88976 24.0125 10.0038 23.9631L11.3756 23.3707C16.192 21.3479 19.3255 16.6337 19.326 11.4097V5.25578C19.326 5.08989 19.2345 4.93728 19.0882 4.85934V4.85934ZM18.4279 11.4097C18.4269 16.2735 15.5087 20.6623 11.024 22.5445L11.021 22.546L9.82636 23.0617L8.78838 22.6089C4.38664 20.6843 1.54011 16.3384 1.5351 11.5342V5.52167L9.85969 0.959294L18.4279 5.52493V11.4097Z" fill="#181B5E"/>
    <path d="M6.54663 11.2431C6.3855 11.0544 6.10207 11.0321 5.91337 11.1932C5.72468 11.3541 5.70237 11.6378 5.86351 11.8262L8.23566 14.6041C8.39403 14.7896 8.67144 14.8149 8.86039 14.661L14.3851 10.1663C14.5775 10.0099 14.6066 9.727 14.45 9.53454C14.2936 9.34233 14.0107 9.31301 13.8182 9.46963L8.63385 13.6872L6.54663 11.2431Z" fill="#181B5E"/>
</svg>
