<svg width="30" height="30" viewBox="0 0 30 30" fill="none" xmlns="http://www.w3.org/2000/svg">
<path d="M4.61124 2.5C4.358 2.50012 4.11076 2.57716 3.90228 2.72091C3.69379 2.86466 3.53389 3.06835 3.44374 3.305L1.46749 8.49C1.25563 9.04658 1.24943 9.6605 1.44999 10.2213C1.72362 10.983 2.25717 11.6237 2.95671 12.0308C3.65625 12.4379 4.47696 12.5851 5.27439 12.4467C6.07183 12.3083 6.79488 11.893 7.3163 11.274C7.83771 10.655 8.12408 9.87186 8.12499 9.0625C8.12499 9.97418 8.48715 10.8485 9.13181 11.4932C9.77646 12.1378 10.6508 12.5 11.5625 12.5C12.4742 12.5 13.3485 12.1378 13.9932 11.4932C14.6378 10.8485 15 9.97418 15 9.0625C15 9.97418 15.3621 10.8485 16.0068 11.4932C16.6515 12.1378 17.5258 12.5 18.4375 12.5C19.3492 12.5 20.2235 12.1378 20.8682 11.4932C21.5128 10.8485 21.875 9.97418 21.875 9.0625C21.8759 9.87186 22.1623 10.655 22.6837 11.274C23.2051 11.893 23.9281 12.3083 24.7256 12.4467C25.523 12.5851 26.3437 12.4379 27.0433 12.0308C27.7428 11.6237 28.2763 10.983 28.55 10.2213C28.7508 9.66047 28.7442 9.0463 28.5312 8.49L26.5562 3.305C26.4661 3.06835 26.3062 2.86466 26.0977 2.72091C25.8892 2.57716 25.642 2.50012 25.3887 2.5H4.61124Z" stroke="#181B5E" stroke-linecap="round" stroke-linejoin="round"/>
<path d="M14.3213 16.25H6.82129C6.47611 16.25 6.19629 16.5298 6.19629 16.875V23.125C6.19629 23.4702 6.47611 23.75 6.82129 23.75H14.3213C14.6665 23.75 14.9463 23.4702 14.9463 23.125V16.875C14.9463 16.5298 14.6665 16.25 14.3213 16.25Z" stroke="#181B5E" stroke-linecap="round" stroke-linejoin="round"/>
<path d="M17.4463 27.5V16.875C17.4463 16.7092 17.5121 16.5503 17.6293 16.4331C17.7466 16.3158 17.9055 16.25 18.0713 16.25H23.0713C23.2371 16.25 23.396 16.3158 23.5132 16.4331C23.6304 16.5503 23.6963 16.7092 23.6963 16.875V27.5" stroke="#181B5E" stroke-linecap="round" stroke-linejoin="round"/>
<path d="M26.1963 12.385V26.25C26.1963 26.5815 26.0646 26.8994 25.8302 27.1339C25.5958 27.3683 25.2778 27.5 24.9463 27.5H4.94629C4.61477 27.5 4.29683 27.3683 4.06241 27.1339C3.82799 26.8994 3.69629 26.5815 3.69629 26.25V12.355" stroke="#181B5E" stroke-linecap="round" stroke-linejoin="round"/>
</svg>
