<svg width="46" height="50" viewBox="0 0 46 50" fill="none" xmlns="http://www.w3.org/2000/svg">
    <path d="M17.7915 19.7917V5.20842C17.7915 4.10335 18.2305 3.04354 19.0119 2.26214C19.7933 1.48073 20.8531 1.04175 21.9582 1.04175H40.7082C41.8132 1.04175 42.873 1.48073 43.6545 2.26214C44.4359 3.04354 44.8748 4.10335 44.8748 5.20842V44.7918C44.8748 45.8968 44.4359 46.9566 43.6545 47.738C42.873 48.5194 41.8132 48.9584 40.7082 48.9584H21.9582C20.8531 48.9584 19.7933 48.5194 19.0119 47.738C18.2305 46.9566 17.7915 45.8968 17.7915 44.7918V42.7084" stroke="#181B5E" stroke-width="2.08333" stroke-linecap="round" stroke-linejoin="round"/>
    <path d="M13.6248 40.5563C14.8561 40.0583 15.9105 39.2038 16.6528 38.1025C17.3952 37.0012 17.7917 35.7032 17.7915 34.3751H24.0415C25.1466 34.3751 26.2064 33.9361 26.9878 33.1547C27.7692 32.3733 28.2082 31.3135 28.2082 30.2084C28.2082 29.1033 27.7692 28.0435 26.9878 27.2621C26.2064 26.4807 25.1466 26.0417 24.0415 26.0417H11.5415" stroke="#181B5E" stroke-width="2.08333" stroke-linecap="round" stroke-linejoin="round"/>
    <path d="M17.7917 15.625H13.625C10.3098 15.625 7.13037 16.942 4.78616 19.2862C2.44196 21.6304 1.125 24.8098 1.125 28.125V38.6375C1.125 41.7896 2.525 43.2833 5.29167 44.7917V48.9583" stroke="#181B5E" stroke-width="2.08333" stroke-linecap="round" stroke-linejoin="round"/>
    <path d="M31.7021 42.8605C31.7748 42.9334 31.8243 43.0262 31.8443 43.1272C31.8642 43.2282 31.8539 43.3329 31.8144 43.428C31.7749 43.5231 31.7082 43.6043 31.6226 43.6615C31.5369 43.7187 31.4363 43.7492 31.3333 43.7492C31.2304 43.7492 31.1297 43.7187 31.0441 43.6615C30.9585 43.6043 30.8917 43.5231 30.8523 43.428C30.8128 43.3329 30.8024 43.2282 30.8224 43.1272C30.8424 43.0262 30.8919 42.9334 30.9646 42.8605C31.0628 42.7636 31.1953 42.7092 31.3333 42.7092C31.4714 42.7092 31.6038 42.7636 31.7021 42.8605" stroke="#181B5E" stroke-width="2.08333" stroke-linecap="round" stroke-linejoin="round"/>
</svg>
