<svg width="30" height="30" viewBox="0 0 30 30" fill="none" xmlns="http://www.w3.org/2000/svg">
<path d="M18.75 15.59C20.2308 14.6438 21.3649 13.2429 21.9822 11.5976C22.5995 9.95233 22.6667 8.15124 22.1738 6.46448C21.6809 4.77773 20.6544 3.29624 19.2483 2.24222C17.8422 1.1882 16.1323 0.618469 14.375 0.618469C12.6177 0.618469 10.9078 1.1882 9.50166 2.24222C8.09555 3.29624 7.06907 4.77773 6.57616 6.46448C6.08326 8.15124 6.1505 9.95233 6.76781 11.5976C7.38512 13.2429 8.51921 14.6438 10 15.59" stroke="#181B5E" stroke-linecap="round" stroke-linejoin="round"/>
<path d="M21.8748 29.375L23.7136 21.4125C23.7375 21.305 23.7496 21.1952 23.7498 21.085C23.7489 20.7813 23.6532 20.4855 23.4759 20.239C23.2986 19.9924 23.0487 19.8075 22.7611 19.71L16.2498 17.5V10C16.2498 9.50272 16.0523 9.02581 15.7006 8.67417C15.349 8.32254 14.8721 8.125 14.3748 8.125C13.8775 8.125 13.4006 8.32254 13.049 8.67417C12.6974 9.02581 12.4998 9.50272 12.4998 10V22.1163C12.4998 22.1163 11.7148 21.095 10.9186 20.1163C10.7327 19.8855 10.4976 19.6992 10.2306 19.571C9.96347 19.4427 9.67109 19.3758 9.37481 19.375H8.74981C8.49452 19.3753 8.24374 19.4423 8.02237 19.5694C7.80099 19.6966 7.61672 19.8794 7.48783 20.0998C7.35895 20.3201 7.28994 20.5704 7.28766 20.8257C7.28537 21.0809 7.34989 21.3324 7.47481 21.555L11.8748 29.375" stroke="#181B5E" stroke-linecap="round" stroke-linejoin="round"/>
</svg>
