<svg width="50" height="50" viewBox="0 0 50 50" fill="none" xmlns="http://www.w3.org/2000/svg">
    <path d="M35.417 14.625L41.892 8.1958" stroke="#181B5E" stroke-width="2.08333" stroke-linecap="round" stroke-linejoin="round"/>
    <path d="M40.625 5.20841C40.625 6.31348 41.064 7.37329 41.8454 8.15469C42.6268 8.93609 43.6866 9.37508 44.7917 9.37508C45.8967 9.37508 46.9565 8.93609 47.7379 8.15469C48.5193 7.37329 48.9583 6.31348 48.9583 5.20841C48.9583 4.10335 48.5193 3.04354 47.7379 2.26214C46.9565 1.48073 45.8967 1.04175 44.7917 1.04175C43.6866 1.04175 42.6268 1.48073 41.8454 2.26214C41.064 3.04354 40.625 4.10335 40.625 5.20841V5.20841Z" stroke="#181B5E" stroke-width="2.08333" stroke-linecap="round" stroke-linejoin="round"/>
    <path d="M37.4209 37.4563L41.8271 41.8896" stroke="#181B5E" stroke-width="2.08333" stroke-linecap="round" stroke-linejoin="round"/>
    <path d="M40.646 44.7917C40.646 45.8967 41.085 46.9565 41.8664 47.7379C42.6478 48.5193 43.7076 48.9583 44.8127 48.9583C45.9177 48.9583 46.9775 48.5193 47.7589 47.7379C48.5403 46.9565 48.9793 45.8967 48.9793 44.7917C48.9793 43.6866 48.5403 42.6268 47.7589 41.8454C46.9775 41.064 45.9177 40.625 44.8127 40.625C43.7076 40.625 42.6478 41.064 41.8664 41.8454C41.085 42.6268 40.646 43.6866 40.646 44.7917Z" stroke="#181B5E" stroke-width="2.08333" stroke-linecap="round" stroke-linejoin="round"/>
    <path d="M14.5833 14.625L8.11035 8.1958" stroke="#181B5E" stroke-width="2.08333" stroke-linecap="round" stroke-linejoin="round"/>
    <path d="M1.04199 5.20841C1.04199 6.31348 1.48098 7.37329 2.26238 8.15469C3.04378 8.93609 4.10359 9.37508 5.20866 9.37508C6.31373 9.37508 7.37354 8.93609 8.15494 8.15469C8.93634 7.37329 9.37533 6.31348 9.37533 5.20841C9.37533 4.10335 8.93634 3.04354 8.15494 2.26214C7.37354 1.48073 6.31373 1.04175 5.20866 1.04175C4.10359 1.04175 3.04378 1.48073 2.26238 2.26214C1.48098 3.04354 1.04199 4.10335 1.04199 5.20841V5.20841Z" stroke="#181B5E" stroke-width="2.08333" stroke-linecap="round" stroke-linejoin="round"/>
    <path d="M12.5812 37.4563L8.17285 41.8896" stroke="#181B5E" stroke-width="2.08333" stroke-linecap="round" stroke-linejoin="round"/>
    <path d="M1.021 44.7917C1.021 45.8967 1.45998 46.9565 2.24138 47.7379C3.02279 48.5193 4.08259 48.9583 5.18766 48.9583C6.29273 48.9583 7.35254 48.5193 8.13394 47.7379C8.91534 46.9565 9.35433 45.8967 9.35433 44.7917C9.35433 43.6866 8.91534 42.6268 8.13394 41.8454C7.35254 41.064 6.29273 40.625 5.18766 40.625C4.08259 40.625 3.02279 41.064 2.24138 41.8454C1.45998 42.6268 1.021 43.6866 1.021 44.7917V44.7917Z" stroke="#181B5E" stroke-width="2.08333" stroke-linecap="round" stroke-linejoin="round"/>
    <path d="M34.375 23.9585H40.625" stroke="#181B5E" stroke-width="2.08333" stroke-linecap="round" stroke-linejoin="round"/>
    <path d="M40.625 23.9584C40.625 25.0635 41.064 26.1233 41.8454 26.9047C42.6268 27.6861 43.6866 28.1251 44.7917 28.1251C45.8967 28.1251 46.9565 27.6861 47.7379 26.9047C48.5193 26.1233 48.9583 25.0635 48.9583 23.9584C48.9583 22.8533 48.5193 21.7935 47.7379 21.0121C46.9565 20.2307 45.8967 19.7917 44.7917 19.7917C43.6866 19.7917 42.6268 20.2307 41.8454 21.0121C41.064 21.7935 40.625 22.8533 40.625 23.9584Z" stroke="#181B5E" stroke-width="2.08333" stroke-linecap="round" stroke-linejoin="round"/>
    <path d="M15.625 23.9585H9.375" stroke="#181B5E" stroke-width="2.08333" stroke-linecap="round" stroke-linejoin="round"/>
    <path d="M1.04199 23.9584C1.04199 25.0635 1.48098 26.1233 2.26238 26.9047C3.04378 27.6861 4.10359 28.1251 5.20866 28.1251C6.31373 28.1251 7.37354 27.6861 8.15494 26.9047C8.93634 26.1233 9.37533 25.0635 9.37533 23.9584C9.37533 22.8533 8.93634 21.7935 8.15494 21.0121C7.37354 20.2307 6.31373 19.7917 5.20866 19.7917C4.10359 19.7917 3.04378 20.2307 2.26238 21.0121C1.48098 21.7935 1.04199 22.8533 1.04199 23.9584V23.9584Z" stroke="#181B5E" stroke-width="2.08333" stroke-linecap="round" stroke-linejoin="round"/>
    <path d="M15.646 34.375C15.646 31.8886 16.6337 29.504 18.3919 27.7459C20.15 25.9877 22.5346 25 25.021 25C27.5074 25 29.892 25.9877 31.6501 27.7459C33.4083 29.504 34.396 31.8886 34.396 34.375H15.646Z" stroke="#181B5E" stroke-width="2.08333" stroke-linecap="round" stroke-linejoin="round"/>
    <path d="M19.292 17.1877C19.292 18.7071 19.8956 20.1644 20.97 21.2388C22.0445 22.3132 23.5017 22.9168 25.0212 22.9168C26.5406 22.9168 27.9979 22.3132 29.0723 21.2388C30.1467 20.1644 30.7503 18.7071 30.7503 17.1877C30.7503 15.6682 30.1467 14.211 29.0723 13.1365C27.9979 12.0621 26.5406 11.4585 25.0212 11.4585C23.5017 11.4585 22.0445 12.0621 20.97 13.1365C19.8956 14.211 19.292 15.6682 19.292 17.1877Z" stroke="#181B5E" stroke-width="2.08333" stroke-linecap="round" stroke-linejoin="round"/>
</svg>
