<svg width="22" height="24" viewBox="0 0 22 24" fill="none" xmlns="http://www.w3.org/2000/svg">
    <path fill-rule="evenodd" clip-rule="evenodd" d="M1 1.5C1 0.947715 1.44772 0.5 2 0.5H20C20.5523 0.5 21 0.947715 21 1.5V22.5C21 23.0523 20.5523 23.5 20 23.5H2C1.44772 23.5 1 23.0523 1 22.5V1.5Z" stroke="#181B5E" stroke-linecap="round" stroke-linejoin="round"/>
    <path fill-rule="evenodd" clip-rule="evenodd" d="M4 3.5H18V20.5H4V3.5Z" stroke="#181B5E" stroke-linecap="round" stroke-linejoin="round"/>
    <path d="M16.5 17.2201C16.5 17.2201 14.48 16.3271 13.068 15.8051C12.142 15.4601 12.274 13.8981 12.81 13.3111C13.7499 12.3897 14.2141 11.0874 14.069 9.77915C14.1492 8.92422 13.8592 8.07592 13.2724 7.449C12.6856 6.82208 11.8584 6.47665 11 6.50015C10.1416 6.47665 9.31436 6.82208 8.72759 7.449C8.14083 8.07592 7.85082 8.92422 7.931 9.77915C7.78593 11.0874 8.25014 12.3897 9.19 13.3111C9.726 13.8981 9.858 15.4601 8.932 15.8051C7.52 16.3271 5.5 17.2201 5.5 17.2201" stroke="#181B5E" stroke-linecap="round" stroke-linejoin="round"/>
</svg>
