<svg width="50" height="50" viewBox="0 0 50 50" fill="none" xmlns="http://www.w3.org/2000/svg">
    <path d="M44.7915 1.04175H5.20817C2.90698 1.04175 1.0415 2.90723 1.0415 5.20842V44.7918C1.0415 47.0929 2.90698 48.9584 5.20817 48.9584H44.7915C47.0927 48.9584 48.9582 47.0929 48.9582 44.7918V5.20842C48.9582 2.90723 47.0927 1.04175 44.7915 1.04175Z" stroke="#181B5E" stroke-width="2.08333" stroke-linecap="round" stroke-linejoin="round"/>
    <path d="M1.0415 11.4585H48.9582" stroke="#181B5E" stroke-width="2.08333" stroke-linecap="round" stroke-linejoin="round"/>
    <path d="M8.33333 5.72925C8.43634 5.72925 8.53704 5.75979 8.62269 5.81702C8.70834 5.87425 8.7751 5.9556 8.81452 6.05077C8.85394 6.14594 8.86426 6.25066 8.84416 6.35169C8.82406 6.45272 8.77446 6.54553 8.70162 6.61837C8.62878 6.69121 8.53598 6.74081 8.43494 6.76091C8.33391 6.781 8.22919 6.77069 8.13402 6.73127C8.03885 6.69185 7.95751 6.62509 7.90028 6.53944C7.84305 6.45379 7.8125 6.35309 7.8125 6.25008C7.8125 6.11195 7.86737 5.97947 7.96505 5.8818C8.06272 5.78412 8.1952 5.72925 8.33333 5.72925" stroke="#181B5E" stroke-width="2.08333" stroke-linecap="round" stroke-linejoin="round"/>
    <path d="M14.5831 5.72925C14.6861 5.72925 14.7868 5.75979 14.8724 5.81702C14.9581 5.87425 15.0249 5.9556 15.0643 6.05077C15.1037 6.14594 15.114 6.25066 15.0939 6.35169C15.0738 6.45272 15.0242 6.54553 14.9514 6.61837C14.8785 6.69121 14.7857 6.74081 14.6847 6.76091C14.5837 6.781 14.4789 6.77069 14.3838 6.73127C14.2886 6.69185 14.2073 6.62509 14.15 6.53944C14.0928 6.45379 14.0623 6.35309 14.0623 6.25008C14.0623 6.11195 14.1171 5.97947 14.2148 5.8818C14.3125 5.78412 14.445 5.72925 14.5831 5.72925Z" stroke="#181B5E" stroke-width="2.08333" stroke-linecap="round" stroke-linejoin="round"/>
    <path d="M20.8331 5.72925C20.9361 5.72925 21.0368 5.75979 21.1224 5.81702C21.2081 5.87425 21.2749 5.9556 21.3143 6.05077C21.3537 6.14594 21.364 6.25066 21.3439 6.35169C21.3238 6.45272 21.2742 6.54553 21.2014 6.61837C21.1285 6.69121 21.0357 6.74081 20.9347 6.76091C20.8337 6.781 20.7289 6.77069 20.6338 6.73127C20.5386 6.69185 20.4573 6.62509 20.4 6.53944C20.3428 6.45379 20.3123 6.35309 20.3123 6.25008C20.3123 6.11195 20.3671 5.97947 20.4648 5.8818C20.5625 5.78412 20.695 5.72925 20.8331 5.72925Z" stroke="#181B5E" stroke-width="2.08333" stroke-linecap="round" stroke-linejoin="round"/>
    <path d="M17.7083 11.4585V48.9585" stroke="#181B5E" stroke-width="2.08333" stroke-linecap="round" stroke-linejoin="round"/>
    <path d="M41.6666 15.625H24.9999C24.4246 15.625 23.9583 16.0914 23.9583 16.6667V25C23.9583 25.5753 24.4246 26.0417 24.9999 26.0417H41.6666C42.2419 26.0417 42.7083 25.5753 42.7083 25V16.6667C42.7083 16.0914 42.2419 15.625 41.6666 15.625Z" stroke="#181B5E" stroke-width="2.08333" stroke-linecap="round" stroke-linejoin="round"/>
    <path d="M41.6666 32.2917H24.9999C24.4246 32.2917 23.9583 32.7581 23.9583 33.3334V41.6667C23.9583 42.242 24.4246 42.7084 24.9999 42.7084H41.6666C42.2419 42.7084 42.7083 42.242 42.7083 41.6667V33.3334C42.7083 32.7581 42.2419 32.2917 41.6666 32.2917Z" stroke="#181B5E" stroke-width="2.08333" stroke-linecap="round" stroke-linejoin="round"/>
    <path d="M5.25195 15.625H9.37487" stroke="#181B5E" stroke-width="2.08333" stroke-linecap="round" stroke-linejoin="round"/>
    <path d="M9.41846 19.7917H13.5414" stroke="#181B5E" stroke-width="2.08333" stroke-linecap="round" stroke-linejoin="round"/>
    <path d="M9.41846 23.9585H13.5414" stroke="#181B5E" stroke-width="2.08333" stroke-linecap="round" stroke-linejoin="round"/>
    <path d="M9.41846 28.125H13.5414" stroke="#181B5E" stroke-width="2.08333" stroke-linecap="round" stroke-linejoin="round"/>
    <path d="M5.25195 32.2917H9.37487" stroke="#181B5E" stroke-width="2.08333" stroke-linecap="round" stroke-linejoin="round"/>
    <path d="M9.41846 36.4585H13.5414" stroke="#181B5E" stroke-width="2.08333" stroke-linecap="round" stroke-linejoin="round"/>
    <path d="M9.41846 40.625H13.5414" stroke="#181B5E" stroke-width="2.08333" stroke-linecap="round" stroke-linejoin="round"/>
</svg>
