<svg width="171" height="58" viewBox="0 0 171 58" fill="none" xmlns="http://www.w3.org/2000/svg">
    <rect width="171" height="57" rx="10" fill="white"/>
    <path d="M162.46 57.25H8.46001C6.21536 57.2473 4.06354 56.3538 2.47726 54.7657C0.890993 53.1775 -1.56441e-06 51.0247 0 48.78V8.47C-1.56441e-06 6.22535 0.890993 4.07249 2.47726 2.48434C4.06354 0.896195 6.21536 0.00265012 8.46001 0H162.46C164.706 0.00264652 166.858 0.895871 168.446 2.48373C170.034 4.07159 170.927 6.22443 170.93 8.47V48.78C170.927 51.0256 170.034 53.1784 168.446 54.7663C166.858 56.3541 164.706 57.2474 162.46 57.25V57.25ZM8.46001 2C6.74579 2.00265 5.10268 2.68548 3.89148 3.89855C2.68028 5.11163 2 6.75578 2 8.47V48.78C2 50.4942 2.68028 52.1384 3.89148 53.3514C5.10268 54.5645 6.74579 55.2474 8.46001 55.25H162.46C163.31 55.25 164.151 55.0826 164.936 54.7575C165.721 54.4324 166.434 53.9558 167.035 53.355C167.636 52.7542 168.112 52.0409 168.438 51.256C168.763 50.471 168.93 49.6297 168.93 48.78V8.47C168.93 7.62035 168.763 6.77902 168.438 5.99404C168.112 5.20906 167.636 4.49581 167.035 3.89502C166.434 3.29422 165.721 2.81765 164.936 2.4925C164.151 2.16735 163.31 2 162.46 2H8.46001Z" fill="#181B5E"/>
    <path d="M54.3496 15.7098H53.2196C53.1514 15.2572 53.041 14.8119 52.8896 14.3798H51.2496C51.096 14.8112 50.9855 15.2567 50.9196 15.7098H49.8496C49.8496 15.6198 50.1296 14.8598 50.6796 13.4398C51.0105 12.6767 51.2878 11.8915 51.5096 11.0898H52.8496C53.0503 11.8783 53.3008 12.6532 53.5996 13.4098C53.8966 14.1604 54.1471 14.9285 54.3496 15.7098ZM52.7096 13.7098C52.3096 12.4798 52.1096 11.8298 52.1096 11.7098H52.0496C52.0496 11.8032 51.8396 12.4698 51.4196 13.7098H52.7096Z" fill="#181B5E"/>
    <path d="M58.9296 15.7096H58.0496C57.7707 15.1629 57.4356 14.6468 57.0496 14.1696C56.5698 13.5615 56.1792 12.888 55.8896 12.1696H55.8296C55.8861 12.6342 55.9161 13.1016 55.9196 13.5696C55.9196 14.1596 55.9196 14.8696 55.9696 15.7096H55.0996C55.0996 14.9796 55.1496 14.1696 55.1496 13.2896C55.1496 12.4096 55.1496 11.6996 55.0996 11.0896H56.1496C56.3771 11.6254 56.6728 12.1296 57.0296 12.5896C57.4626 13.1732 57.822 13.808 58.0996 14.4796H58.1496C58.0996 13.9496 58.0696 13.4796 58.0696 13.0596C58.0696 12.4196 58.0696 11.7596 58.0196 11.0596H58.9096C58.9096 11.6496 58.8596 12.3796 58.8596 13.2596C58.8596 14.1396 58.8896 14.9896 58.9296 15.7096Z" fill="#181B5E"/>
    <path d="M64.0699 13.2402C64.0779 13.887 63.8464 14.5139 63.4199 15.0002C63.1943 15.2536 62.9143 15.4526 62.6008 15.5825C62.2874 15.7124 61.9486 15.7697 61.6099 15.7502C61.2599 15.7502 60.7799 15.7502 60.1699 15.7502C60.1699 15.0402 60.1699 14.2302 60.1699 13.3302C60.1699 12.4302 60.1699 11.7402 60.1699 11.1302H61.6299C61.9677 11.0975 62.3086 11.1377 62.6295 11.2481C62.9503 11.3585 63.2438 11.5365 63.4899 11.7702C63.862 12.1693 64.0692 12.6945 64.0699 13.2402V13.2402ZM63.0699 13.3902C63.0835 12.9736 62.9409 12.5669 62.6699 12.2502C62.5177 12.0844 62.3294 11.9559 62.1196 11.8744C61.9098 11.7929 61.6841 11.7607 61.4599 11.7802H61.0399C61.0399 12.2502 61.0399 12.7802 61.0399 13.2602C61.0399 13.7402 61.0399 14.3902 61.0399 14.9502C61.1929 14.965 61.3469 14.965 61.4999 14.9502C61.712 14.9664 61.9249 14.9323 62.1212 14.8506C62.3176 14.7689 62.4919 14.642 62.6299 14.4802C62.9047 14.18 63.0702 13.796 63.0999 13.3902H63.0699Z" fill="#181B5E"/>
    <path d="M68.8102 15.7101H67.7302C67.5771 15.1721 67.3658 14.6524 67.1002 14.1601C67.015 14.0564 66.9058 13.9749 66.7822 13.9227C66.6585 13.8704 66.524 13.8489 66.3902 13.8601H65.9902C65.9902 14.4701 65.9902 15.0801 65.9902 15.7001H64.9902C64.9902 14.9901 65.0402 14.1801 65.0402 13.2801C65.0402 12.3801 65.0402 11.6901 64.9902 11.0801H66.7302C67.8202 11.0801 68.3602 11.4501 68.3602 12.1901C68.3651 12.4696 68.2761 12.7426 68.1075 12.9656C67.9389 13.1885 67.7005 13.3486 67.4302 13.4201V13.4801C67.5674 13.5264 67.6939 13.5999 67.8021 13.6961C67.9104 13.7923 67.9981 13.9093 68.0602 14.0401C68.3519 14.5771 68.6026 15.1353 68.8102 15.7101V15.7101ZM67.4802 12.4501C67.4802 11.9801 67.1802 11.7401 66.5702 11.7401C66.3725 11.7397 66.1751 11.7564 65.9802 11.7901C65.9802 12.1601 65.9802 12.6301 65.9802 13.2201H66.3102C67.1002 13.2301 67.4802 12.9701 67.4802 12.4501V12.4501Z" fill="#181B5E"/>
    <path d="M73.8905 13.3296C73.9135 13.9957 73.6768 14.6447 73.2304 15.1396C73.0225 15.3702 72.7678 15.5537 72.4833 15.6779C72.1987 15.8021 71.8909 15.864 71.5805 15.8596C71.287 15.8666 70.9954 15.8114 70.7248 15.6977C70.4542 15.5839 70.2108 15.4142 70.0104 15.1996C69.8008 14.9763 69.6373 14.7139 69.5292 14.4273C69.4211 14.1408 69.3705 13.8357 69.3804 13.5296C69.3574 12.8635 69.5941 12.2145 70.0404 11.7196C70.2483 11.489 70.5031 11.3055 70.7877 11.1813C71.0722 11.0572 71.38 10.9952 71.6904 10.9996C71.9839 10.9926 72.2755 11.0478 72.5461 11.1616C72.8167 11.2753 73.0601 11.4451 73.2604 11.6596C73.4701 11.8829 73.6336 12.1453 73.7417 12.4319C73.8498 12.7185 73.9004 13.0235 73.8905 13.3296V13.3296ZM72.8905 13.4396C72.9143 13.0083 72.783 12.5826 72.5205 12.2396C72.4102 12.0945 72.2681 11.9767 72.1051 11.8952C71.9422 11.8137 71.7627 11.7708 71.5805 11.7696C71.4068 11.7714 71.2361 11.8151 71.0829 11.8969C70.9297 11.9787 70.7985 12.0963 70.7004 12.2396C70.4512 12.5775 70.3242 12.9901 70.3404 13.4096C70.3148 13.8428 70.4502 14.2701 70.7204 14.6096C70.8281 14.7551 70.9682 14.8733 71.1297 14.9549C71.2912 15.0365 71.4695 15.0792 71.6505 15.0796C71.8241 15.0778 71.9948 15.0341 72.148 14.9523C72.3012 14.8705 72.4324 14.7529 72.5304 14.6096C72.7912 14.269 72.9256 13.8483 72.9104 13.4196L72.8905 13.4396Z" fill="#181B5E"/>
    <path d="M75.9004 15.7098H74.9004C74.9004 14.9798 74.9004 14.1698 74.9004 13.2898C74.9004 12.4098 74.9004 11.6998 74.9004 11.0898H75.9004C75.9004 11.6898 75.8504 12.4198 75.8504 13.2898C75.8504 14.1598 75.8704 14.9898 75.9004 15.7098Z" fill="#181B5E"/>
    <path d="M81.0406 13.2397C81.0514 13.8852 80.8235 14.5119 80.4006 14.9997C80.1741 15.2519 79.8939 15.4502 79.5807 15.58C79.2675 15.7098 78.9292 15.7678 78.5906 15.7497C78.2406 15.7497 77.7506 15.7497 77.1406 15.7497C77.1406 15.0397 77.1406 14.2297 77.1406 13.3297C77.1406 12.4297 77.1406 11.7397 77.1406 11.1297H78.6106C78.9468 11.0978 79.2859 11.1384 79.6051 11.2488C79.9243 11.3592 80.216 11.5369 80.4606 11.7697C80.8327 12.1688 81.0399 12.694 81.0406 13.2397V13.2397ZM80.0406 13.3897C80.0532 12.975 79.9146 12.5698 79.6506 12.2497C79.4964 12.0838 79.3063 11.9552 79.0949 11.8737C78.8835 11.7923 78.6563 11.7601 78.4306 11.7797H78.0106C78.0106 12.2497 78.0106 12.7797 78.0106 13.2597C78.0106 13.7397 78.0106 14.3897 78.0106 14.9497C78.1669 14.9645 78.3243 14.9645 78.4806 14.9497C78.6925 14.9643 78.9049 14.9295 79.101 14.8479C79.2971 14.7663 79.4716 14.6403 79.6106 14.4797C79.8785 14.1761 80.04 13.7934 80.0706 13.3897H80.0406Z" fill="#181B5E"/>
    <path d="M87.8603 15.7098H86.7303C86.6621 15.2572 86.5517 14.8119 86.4003 14.3798H84.7303C84.5705 14.81 84.4565 15.2558 84.3903 15.7098H83.3203C83.3203 15.6198 83.6003 14.8598 84.1503 13.4398C84.4812 12.6767 84.7585 11.8915 84.9803 11.0898H86.3203C86.521 11.8783 86.7715 12.6532 87.0703 13.4098C87.3809 14.1595 87.6447 14.9276 87.8603 15.7098V15.7098ZM86.2203 13.7098C85.8203 12.4798 85.6203 11.8298 85.6203 11.7098H85.5603C85.5603 11.8032 85.3503 12.4698 84.9303 13.7098H86.2203Z" fill="#181B5E"/>
    <path d="M91.9998 12.33C92.0169 12.5758 91.9674 12.8216 91.8566 13.0416C91.7457 13.2615 91.5776 13.4476 91.3699 13.58C90.9076 13.864 90.3722 14.0066 89.8299 13.99H89.5898C89.5898 14.43 89.5898 14.99 89.5898 15.75H88.5898C88.5898 15.07 88.6399 14.26 88.6399 13.33C88.6399 12.4 88.6398 11.75 88.5898 11.13H90.3599C90.761 11.1168 91.1572 11.2211 91.4998 11.43C91.657 11.5206 91.7865 11.6522 91.8746 11.8107C91.9626 11.9693 92.0059 12.1488 91.9998 12.33ZM91.0898 12.53C91.0898 12.02 90.7498 11.77 90.0898 11.77C89.9119 11.7673 89.7342 11.7841 89.5598 11.82C89.5598 12.27 89.5598 12.77 89.5598 13.34H89.7699C90.6499 13.33 91.0898 13.04 91.0898 12.5V12.53Z" fill="#181B5E"/>
    <path d="M96.2599 12.33C96.2769 12.5758 96.2274 12.8216 96.1165 13.0416C96.0057 13.2615 95.8375 13.4476 95.6299 13.58C95.1637 13.8638 94.6253 14.0062 94.0799 13.99H93.8398C93.8398 14.43 93.8398 14.99 93.8398 15.75H92.8398C92.8398 15.07 92.8398 14.26 92.8398 13.33C92.8398 12.4 92.8398 11.75 92.8398 11.13H94.5999C95.001 11.1168 95.3972 11.2211 95.7399 11.43C95.8972 11.522 96.0279 11.6534 96.119 11.8112C96.2102 11.969 96.2587 12.1478 96.2599 12.33ZM95.3398 12.53C95.3398 12.02 94.9998 11.77 94.3398 11.77C94.1619 11.7677 93.9842 11.7845 93.8098 11.82C93.8098 12.27 93.8098 12.77 93.8098 13.34H94.0199C94.8999 13.3334 95.3398 13.0534 95.3398 12.5V12.53Z" fill="#181B5E"/>
    <path d="M103.211 13.3296C103.235 13.9978 102.994 14.6485 102.541 15.1396C102.336 15.371 102.083 15.5551 101.8 15.6794C101.517 15.8037 101.21 15.8652 100.901 15.8596C100.607 15.8666 100.316 15.8114 100.045 15.6977C99.7745 15.5839 99.5311 15.4142 99.3308 15.1996C99.1211 14.9763 98.9576 14.7139 98.8495 14.4273C98.7414 14.1408 98.6909 13.8357 98.7008 13.5296C98.6777 12.8635 98.9144 12.2145 99.3608 11.7196C99.5687 11.489 99.8234 11.3055 100.108 11.1813C100.393 11.0572 100.7 10.9952 101.011 10.9996C101.304 10.9926 101.596 11.0478 101.866 11.1616C102.137 11.2753 102.38 11.4451 102.581 11.6596C102.79 11.8829 102.954 12.1453 103.062 12.4319C103.17 12.7185 103.221 13.0235 103.211 13.3296ZM102.211 13.4396C102.236 13.0064 102.101 12.5791 101.831 12.2396C101.723 12.0942 101.583 11.9759 101.421 11.8943C101.26 11.8127 101.082 11.77 100.901 11.7696C100.727 11.7714 100.556 11.8151 100.403 11.8969C100.25 11.9787 100.119 12.0963 100.021 12.2396C99.7686 12.5765 99.6382 12.989 99.6508 13.4096C99.6289 13.8439 99.7677 14.2711 100.041 14.6096C100.148 14.7551 100.289 14.8733 100.45 14.9549C100.612 15.0365 100.79 15.0792 100.971 15.0796C101.144 15.0778 101.315 15.0341 101.468 14.9523C101.621 14.8705 101.753 14.7529 101.851 14.6096C102.112 14.269 102.246 13.8483 102.231 13.4196L102.211 13.4396Z" fill="#181B5E"/>
    <path d="M108.02 15.7096H107.14C106.865 15.1611 106.529 14.6447 106.14 14.1696C105.663 13.5582 105.269 12.8855 104.97 12.1696V12.1696C105.027 12.6342 105.057 13.1016 105.06 13.5696C105.06 14.1596 105.06 14.8696 105.11 15.7096H104.23C104.23 14.9796 104.29 14.1696 104.29 13.2896C104.29 12.4096 104.29 11.6996 104.23 11.0896H105.29C105.512 11.6263 105.804 12.1309 106.16 12.5896C106.598 13.1705 106.957 13.8059 107.23 14.4796H107.29C107.234 14.0083 107.204 13.5342 107.2 13.0596C107.2 12.4196 107.2 11.7596 107.15 11.0596H108.04C108.04 11.6496 107.99 12.3796 107.99 13.2596C107.99 14.1396 107.99 14.9896 108.02 15.7096Z" fill="#181B5E"/>
    <path d="M66.1697 30.5097C66.2245 31.5109 66.0755 32.5128 65.7317 33.4547C65.3879 34.3967 64.8565 35.2591 64.1697 35.9897C63.3964 36.7934 62.4624 37.4252 61.4286 37.8439C60.3948 38.2626 59.2844 38.4587 58.1697 38.4196C57.019 38.4589 55.8721 38.2662 54.7975 37.853C53.7228 37.4398 52.7423 36.8144 51.9143 36.0143C51.0864 35.2142 50.428 34.2556 49.9783 33.1956C49.5286 32.1357 49.2969 30.996 49.2969 29.8446C49.2969 28.6933 49.5286 27.5536 49.9783 26.4937C50.428 25.4337 51.0864 24.4751 51.9143 23.675C52.7423 22.8749 53.7228 22.2495 54.7975 21.8363C55.8721 21.4231 57.019 21.2303 58.1697 21.2696C59.3286 21.2656 60.4758 21.5005 61.5397 21.9597C62.528 22.3597 63.4084 22.9866 64.1097 23.7896L62.6597 25.2397C62.1004 24.5887 61.3971 24.0772 60.6055 23.7456C59.814 23.4141 58.956 23.2716 58.0997 23.3297C57.2501 23.3253 56.4083 23.4918 55.6243 23.8192C54.8403 24.1466 54.1302 24.6282 53.5359 25.2355C52.9417 25.8428 52.4757 26.5633 52.1654 27.3542C51.8551 28.1451 51.7069 28.9903 51.7297 29.8397C51.7001 30.6931 51.8432 31.5437 52.1504 32.3405C52.4576 33.1373 52.9226 33.8638 53.5175 34.4764C54.1124 35.0891 54.8249 35.5752 55.6123 35.9057C56.3997 36.2362 57.2458 36.4042 58.0997 36.3996C58.9558 36.4287 59.8086 36.2812 60.6051 35.9664C61.4017 35.6516 62.1249 35.1761 62.7297 34.5696C63.5692 33.6587 64.0551 32.4776 64.0997 31.2397H58.0997V29.2396H66.0997C66.158 29.6603 66.1814 30.0851 66.1697 30.5097V30.5097Z" fill="#181B5E"/>
    <path d="M68.6694 28.1596C69.7728 27.064 71.2645 26.4492 72.8194 26.4492C74.3743 26.4492 75.866 27.064 76.9694 28.1596C78.0194 29.336 78.5998 30.8577 78.5998 32.4346C78.5998 34.0114 78.0194 35.5331 76.9694 36.7096C75.866 37.8051 74.3743 38.4199 72.8194 38.4199C71.2645 38.4199 69.7728 37.8051 68.6694 36.7096C67.6194 35.5331 67.0391 34.0114 67.0391 32.4346C67.0391 30.8577 67.6194 29.336 68.6694 28.1596V28.1596ZM70.2394 35.3796C70.5712 35.7306 70.9711 36.0103 71.4148 36.2014C71.8584 36.3925 72.3364 36.4911 72.8194 36.4911C73.3024 36.4911 73.7804 36.3925 74.224 36.2014C74.6677 36.0103 75.0676 35.7306 75.3994 35.3796C76.1034 34.5599 76.4905 33.5151 76.4905 32.4346C76.4905 31.354 76.1034 30.3093 75.3994 29.4896C75.0676 29.1385 74.6677 28.8589 74.224 28.6677C73.7804 28.4766 73.3024 28.378 72.8194 28.378C72.3364 28.378 71.8584 28.4766 71.4148 28.6677C70.9711 28.8589 70.5712 29.1385 70.2394 29.4896C69.5354 30.3093 69.1483 31.354 69.1483 32.4346C69.1483 33.5151 69.5354 34.5599 70.2394 35.3796V35.3796Z" fill="#181B5E"/>
    <path d="M80.9308 28.1596C82.0341 27.064 83.5259 26.4492 85.0807 26.4492C86.6356 26.4492 88.1274 27.064 89.2307 28.1596C90.2808 29.336 90.8611 30.8577 90.8611 32.4346C90.8611 34.0114 90.2808 35.5331 89.2307 36.7096C88.1274 37.8051 86.6356 38.4199 85.0807 38.4199C83.5259 38.4199 82.0341 37.8051 80.9308 36.7096C79.8868 35.5302 79.3105 34.0096 79.3105 32.4346C79.3105 30.8595 79.8868 29.3389 80.9308 28.1596ZM82.5007 35.3796C82.8325 35.7306 83.2325 36.0103 83.6761 36.2014C84.1197 36.3925 84.5977 36.4911 85.0807 36.4911C85.5638 36.4911 86.0418 36.3925 86.4854 36.2014C86.929 36.0103 87.3289 35.7306 87.6607 35.3796C88.3648 34.5599 88.7518 33.5151 88.7518 32.4346C88.7518 31.354 88.3648 30.3093 87.6607 29.4896C87.3289 29.1385 86.929 28.8589 86.4854 28.6677C86.0418 28.4766 85.5638 28.378 85.0807 28.378C84.5977 28.378 84.1197 28.4766 83.6761 28.6677C83.2325 28.8589 82.8325 29.1385 82.5007 29.4896C81.8043 30.3128 81.4222 31.3562 81.4222 32.4346C81.4222 33.5129 81.8043 34.5563 82.5007 35.3796Z" fill="#181B5E"/>
    <path d="M97.0994 43.33C95.9299 43.383 94.778 43.0297 93.8394 42.33C93.0527 41.7356 92.4298 40.951 92.0294 40.05L93.9594 39.25C94.1778 39.8737 94.5916 40.4102 95.1394 40.78C95.7177 41.2051 96.4221 41.4234 97.1394 41.4C97.6404 41.4312 98.1424 41.3585 98.614 41.1864C99.0855 41.0143 99.5163 40.7466 99.8794 40.4C100.567 39.6222 100.926 38.6073 100.879 37.57V36.49H100.729C100.328 37.0684 99.7926 37.5418 99.1694 37.87C98.4706 38.2402 97.6902 38.4293 96.8994 38.42C96.1863 38.418 95.4818 38.2635 94.8333 37.9668C94.1848 37.6702 93.6072 37.2382 93.1394 36.7C92.1206 35.5125 91.5605 33.9996 91.5605 32.435C91.5605 30.8703 92.1206 29.3574 93.1394 28.17C93.6047 27.6286 94.1817 27.1946 94.8308 26.8977C95.4799 26.6007 96.1856 26.448 96.8994 26.45C97.6907 26.4358 98.4723 26.6252 99.1694 27C99.7926 27.3282 100.328 27.8015 100.729 28.38H100.819V26.82H102.819V37.48C102.874 38.2888 102.753 39.1 102.465 39.8578C102.177 40.6155 101.728 41.302 101.149 41.87C100.031 42.8485 98.5849 43.3698 97.0994 43.33V43.33ZM97.2594 36.45C97.7348 36.4548 98.2058 36.3594 98.6417 36.1698C99.0777 35.9803 99.4688 35.7009 99.7894 35.35C100.462 34.512 100.829 33.4696 100.829 32.395C100.829 31.3203 100.462 30.2779 99.7894 29.44C99.4704 29.087 99.0796 28.8062 98.6433 28.6165C98.207 28.4268 97.7351 28.3325 97.2594 28.34C96.7803 28.3414 96.3069 28.4446 95.8707 28.6429C95.4345 28.8412 95.0455 29.1299 94.7294 29.49C94.0512 30.3216 93.6808 31.3618 93.6808 32.435C93.6808 33.5081 94.0512 34.5483 94.7294 35.38C95.0491 35.7327 95.4398 36.014 95.8758 36.2053C96.3118 36.3965 96.7833 36.4936 97.2594 36.49V36.45Z" fill="#181B5E"/>
    <path d="M106.95 38.0496H104.84V21.6396H106.95V38.0496Z" fill="#181B5E"/>
    <path d="M113.919 38.4195C113.148 38.4453 112.381 38.3072 111.667 38.0141C110.953 37.721 110.31 37.2798 109.779 36.7195C108.704 35.5557 108.132 34.0134 108.189 32.4295C108.158 30.88 108.708 29.3747 109.729 28.2095C110.22 27.6325 110.834 27.1743 111.527 26.8694C112.22 26.5645 112.973 26.421 113.729 26.4495C114.474 26.4161 115.218 26.5445 115.908 26.8259C116.599 27.1072 117.22 27.535 117.729 28.0795C118.772 29.2819 119.309 30.8404 119.229 32.4295V32.8195H110.36C110.367 33.8271 110.773 34.7908 111.49 35.4995C111.812 35.8193 112.194 36.0722 112.615 36.2438C113.035 36.4154 113.485 36.5023 113.939 36.4995C114.591 36.5576 115.243 36.4015 115.797 36.0549C116.351 35.7084 116.777 35.1903 117.009 34.5795L118.89 35.3495C118.511 36.2392 117.882 36.9999 117.08 37.5395C116.146 38.1609 115.04 38.4691 113.919 38.4195V38.4195ZM116.919 31.0795C116.845 30.3845 116.53 29.7372 116.029 29.2495C115.712 28.9427 115.333 28.7066 114.918 28.5566C114.502 28.4067 114.06 28.3463 113.62 28.3795C112.886 28.3702 112.175 28.6299 111.62 29.1095C111.022 29.6323 110.608 30.3335 110.439 31.1095L116.919 31.0795Z" fill="#181B5E"/>
    <path d="M127.491 38.0502H125.381V21.6402H130.981C132.317 21.6204 133.609 22.1144 134.591 23.0202C135.072 23.4676 135.455 24.0092 135.718 24.6114C135.98 25.2136 136.115 25.8634 136.115 26.5202C136.115 27.1771 135.98 27.8268 135.718 28.429C135.455 29.0312 135.072 29.5729 134.591 30.0202C133.613 30.9332 132.319 31.4315 130.981 31.4102H127.491V38.0502ZM127.491 29.3802H131.021C131.42 29.3993 131.818 29.3293 132.186 29.1753C132.555 29.0214 132.884 28.7874 133.151 28.4902C133.67 27.9659 133.961 27.258 133.961 26.5202C133.961 25.7825 133.67 25.0745 133.151 24.5502C132.885 24.2518 132.555 24.0163 132.187 23.8607C131.819 23.705 131.42 23.6331 131.021 23.6502H127.491V29.3802Z" fill="#181B5E"/>
    <path d="M139.6 38.0496H137.49V21.6396H139.6V38.0496Z" fill="#181B5E"/>
    <path d="M145.031 38.4205C143.942 38.4676 142.874 38.1115 142.031 37.4205C141.633 37.063 141.318 36.6221 141.11 36.1292C140.901 35.6363 140.804 35.1035 140.825 34.5688C140.846 34.0341 140.985 33.5105 141.231 33.0355C141.478 32.5605 141.826 32.1456 142.251 31.8205C143.277 31.1136 144.506 30.7623 145.751 30.8205C146.809 30.7794 147.86 31.0137 148.801 31.5005V31.1805C148.819 30.8046 148.752 30.4296 148.604 30.0833C148.457 29.737 148.234 29.4284 147.951 29.1805C147.377 28.6784 146.633 28.4138 145.871 28.4405C145.289 28.4306 144.715 28.5793 144.211 28.8705C143.749 29.1384 143.395 29.5594 143.211 30.0605L141.291 29.2405C141.604 28.4715 142.132 27.8086 142.811 27.3305C143.691 26.7259 144.744 26.424 145.811 26.4705C147.12 26.4245 148.399 26.8745 149.391 27.7305C149.872 28.1829 150.248 28.7351 150.494 29.3483C150.739 29.9616 150.847 30.621 150.811 31.2805V38.0705H148.811V36.4905H148.731C148.34 37.111 147.792 37.6167 147.142 37.9558C146.492 38.2949 145.763 38.4552 145.031 38.4205ZM145.371 36.4905C146.263 36.4767 147.116 36.1184 147.751 35.4905C148.086 35.2065 148.354 34.8524 148.538 34.4533C148.721 34.0541 148.814 33.6196 148.811 33.1805C148.028 32.6358 147.082 32.3779 146.131 32.4505C145.304 32.3913 144.483 32.6249 143.811 33.1105C143.571 33.2947 143.377 33.5308 143.242 33.801C143.107 34.0712 143.035 34.3684 143.031 34.6705C143.026 34.9327 143.09 35.1917 143.216 35.4216C143.342 35.6514 143.527 35.8441 143.751 35.9805C144.225 36.3135 144.791 36.4917 145.371 36.4905V36.4905Z" fill="#181B5E"/>
    <path d="M155.411 42.9996H153.241L155.851 37.3296L151.221 26.8096H153.511L156.861 34.8796L160.121 26.8096H162.411L155.411 42.9996Z" fill="#181B5E"/>
    <path d="M9.23995 27.5598C9.23995 22.3198 9.23995 17.0798 9.23995 11.8398C9.19957 11.2125 9.40795 10.5946 9.81995 10.1198C9.99995 9.9298 10.1299 9.8798 10.3499 10.1198C13.8699 13.7198 17.4 17.3131 20.94 20.8998C23.2333 23.2331 25.5266 25.5665 27.8199 27.8998C28.0399 28.1298 28.0599 28.2498 27.8199 28.4798C22.1933 34.0731 16.5766 39.6731 10.97 45.2798C10.9168 45.3502 10.8481 45.4073 10.7691 45.4467C10.6902 45.486 10.6032 45.5065 10.515 45.5065C10.4267 45.5065 10.3397 45.486 10.2608 45.4467C10.1818 45.4073 10.1131 45.3502 10.06 45.2798C9.78462 45.0685 9.56508 44.7932 9.42043 44.4778C9.27577 44.1623 9.21038 43.8163 9.22995 43.4698V27.5598H9.23995Z" fill="#181B5E"/>
    <path d="M11.25 9.51953C11.6022 9.52319 11.9471 9.61978 12.25 9.79953L33.8 21.8695C34.13 22.0495 34.12 22.1595 33.87 22.4095C32.26 23.9895 30.67 25.5795 29.07 27.1695C28.9 27.3495 28.8 27.4395 28.57 27.1695C22.8633 21.3362 17.1467 15.5162 11.42 9.70953C11.39 9.69953 11.35 9.63953 11.25 9.51953Z" fill="#181B5E"/>
    <path d="M12.8594 45.0999C18.066 39.8333 23.2727 34.5599 28.4794 29.2799C28.8094 28.9599 28.9594 28.9999 29.2494 29.2799C30.5694 30.6599 31.9094 32.0099 33.2494 33.3599C33.4894 33.5999 33.5094 33.6999 33.1894 33.8699L13.1294 44.8699C13.0324 44.938 12.942 45.015 12.8594 45.0999V45.0999Z" fill="#181B5E"/>
    <path d="M42.6308 27.7097C42.6247 27.9712 42.5562 28.2275 42.431 28.4571C42.3057 28.6867 42.1274 28.8831 41.9108 29.0297C41.5929 29.2544 41.2586 29.455 40.9108 29.6297C38.9108 30.7497 36.8608 31.8597 34.8408 32.9897C34.7921 33.0286 34.7361 33.0572 34.676 33.0738C34.616 33.0904 34.5532 33.0946 34.4915 33.0861C34.4298 33.0777 34.3704 33.0569 34.317 33.0248C34.2636 32.9928 34.2173 32.9502 34.1808 32.8997C32.7408 31.4131 31.2941 29.9397 29.8408 28.4797C29.6208 28.2697 29.6208 28.1497 29.8408 27.9297C31.5408 26.2597 33.2208 24.5797 34.9108 22.9297C34.9424 22.8848 34.9829 22.8468 35.0298 22.8183C35.0767 22.7897 35.129 22.771 35.1834 22.7635C35.2378 22.756 35.2932 22.7598 35.346 22.7746C35.3989 22.7895 35.4482 22.815 35.4908 22.8497L41.4908 26.2197C41.7964 26.3439 42.0632 26.5475 42.2637 26.8095C42.4641 27.0715 42.5908 27.3823 42.6308 27.7097Z" fill="#181B5E"/>
</svg>
