<svg width="249" height="100" viewBox="0 0 249 100" fill="none" xmlns="http://www.w3.org/2000/svg">
<rect width="249" height="100" rx="12" fill="#F9F9F9"/>
<g clip-path="url(#clip0_2967_31644)">
<path d="M24.5002 35.3215H29.801V45.0671C32.9594 43.3877 36.1404 43.3552 39.3464 43.7106C44.2993 44.2587 46.6919 46.366 47.25 51.3039C47.5353 53.8166 47.2625 56.462 46.8145 58.9697C46.3365 61.6351 44.4219 63.2844 41.7966 63.9952C38.06 65.0063 34.2909 64.9612 30.5443 64.1053C26.9904 63.2944 24.9858 60.8943 24.7105 57.2228C24.5928 55.6461 24.5253 54.0619 24.5178 52.4801C24.4902 47.2244 24.5027 41.9712 24.5002 36.718C24.5002 36.2725 24.5002 35.827 24.5002 35.3215ZM42.0894 54.1469L41.9692 54.1369C41.9692 53.4287 42.0018 52.7179 41.9642 52.0121C41.8141 49.1891 40.6528 47.8851 37.8523 47.6424C36.3281 47.5097 34.7739 47.5548 33.2473 47.6924C31.3402 47.8626 30.1163 48.7886 29.9286 50.6807C29.6909 53.0958 29.781 55.5635 29.9737 57.9886C30.0888 59.4377 31.18 60.4313 32.6516 60.5514C34.6738 60.7166 36.726 60.8067 38.7407 60.6465C40.4376 60.5114 41.5112 59.3851 41.7265 57.6182C41.8691 56.4645 41.9692 55.3057 42.0894 54.1494V54.1469Z" fill="#181B5E"/>
<path d="M109.152 35.2639V51.4165C110.844 51.7293 112.205 51.5116 113.387 50.3077C115.254 48.4032 117.166 46.5437 119.118 44.7267C119.526 44.3488 120.176 44.076 120.732 44.0434C122.304 43.9533 123.883 44.0109 125.825 44.0109C122.559 47.362 119.506 50.4929 116.375 53.7064C119.751 57.2428 123.05 60.6965 126.583 64.3956C124.196 64.3956 122.106 64.4281 120.019 64.3605C119.696 64.3505 119.361 63.8975 119.08 63.5997C117.253 61.6576 115.446 59.698 113.622 57.7533C113.251 57.3579 112.904 56.8048 112.44 56.6672C111.474 56.3794 110.443 56.2642 109.437 56.2592C109.337 56.2592 109.157 57.5056 109.142 58.1763C109.099 59.9257 109.104 61.6776 109.142 63.427C109.157 64.1853 108.887 64.4706 108.123 64.4356C107.042 64.3856 105.956 64.3881 104.872 64.4356C104.154 64.4656 103.881 64.1678 103.916 63.4896C103.926 63.2819 103.916 63.0716 103.916 62.8639C103.916 54.1945 103.936 45.5225 103.891 36.8531C103.886 35.6593 104.096 35.0787 105.453 35.2339C106.602 35.3665 107.78 35.2614 109.152 35.2614V35.2639Z" fill="#181B5E"/>
<path d="M204.683 59.5228C204.683 60.6215 204.751 61.6101 204.641 62.5786C204.608 62.8614 204.115 63.2343 203.77 63.3194C201.875 63.7874 199.981 64.3455 198.051 64.5558C194.903 64.8986 191.729 64.9537 188.616 64.1128C185.775 63.3444 184.036 61.4524 183.683 58.6043C183.365 56.059 183.245 53.4412 183.443 50.8884C183.768 46.6863 185.886 44.5515 190.258 43.8457C193.732 43.2851 197.233 43.2851 200.662 44.3062C204.208 45.3599 205.8 47.8201 205.377 51.479C205.136 53.5688 203.91 54.9378 202.011 55.3758C199.308 55.9965 196.532 56.3143 193.774 56.6622C192.54 56.8173 191.274 56.7873 190.025 56.7423C188.866 56.6997 188.766 57.2453 189.092 58.1338C189.685 59.7555 190.911 60.5739 192.563 60.7942C196.174 61.2772 199.706 60.7516 203.204 59.8932C203.64 59.7856 204.073 59.678 204.678 59.5253L204.683 59.5228ZM188.679 53.2835C192.095 52.9106 195.198 52.6678 198.264 52.1948C199.918 51.9395 200.551 50.2302 199.56 48.9538C199.137 48.4082 198.379 47.8376 197.738 47.795C195.556 47.6499 193.351 47.6198 191.171 47.78C190.045 47.8626 189.222 48.7311 189.024 49.9299C188.864 50.8984 188.816 51.8845 188.679 53.286V53.2835Z" fill="#181B5E"/>
<path d="M52.4154 48.8236C52.4154 47.7099 52.3578 46.7539 52.4479 45.8104C52.478 45.5 52.8358 45.0545 53.1337 44.9594C57.9039 43.4678 62.7466 42.9472 67.6394 44.2637C70.7353 45.0971 72.307 47.1668 72.3846 50.3578C72.4472 52.9406 72.4547 55.5259 72.3846 58.1087C72.292 61.4449 70.6352 63.5096 67.3616 64.1979C63.2296 65.0688 59.0726 64.9837 54.9982 63.835C52.7833 63.2118 51.0839 61.8578 50.7836 59.4001C50.5158 57.2103 50.711 54.8927 52.8634 53.784C54.6603 52.858 56.7651 52.395 58.7898 52.0722C61.1649 51.6918 63.595 51.6392 66.0052 51.5341C66.9011 51.494 67.1589 51.1637 67.1064 50.3253C67.0063 48.706 66.2254 47.9076 64.3709 47.6774C60.767 47.2319 57.2281 47.6323 53.7268 48.5083C53.3664 48.5984 53.006 48.681 52.4154 48.8211V48.8236ZM67.0488 54.9028C64.5561 55.0579 62.2361 55.1655 59.9261 55.3633C59.1127 55.4333 58.3018 55.6686 57.5134 55.9088C56.3697 56.2592 56.0593 57.1402 56.1169 58.2539C56.172 59.3626 56.5849 60.3962 57.7162 60.4638C60.2664 60.6165 62.8317 60.5989 65.387 60.4913C66.283 60.4538 66.9987 59.763 67.0388 58.7369C67.0863 57.5431 67.0488 56.3443 67.0488 54.9028Z" fill="#181B5E"/>
<path d="M155.855 64.4256C155.855 62.6712 155.855 61.0945 155.855 59.5203C155.85 56.6847 155.875 53.8491 155.83 51.016C155.798 49.0064 154.922 47.9001 152.97 47.73C151.073 47.5648 149.141 47.5748 147.243 47.7275C145.426 47.8726 144.505 48.8086 144.443 50.6581C144.31 54.655 144.353 58.6593 144.323 62.6587C144.318 63.1918 144.323 63.7224 144.323 64.3405H139.08C139.08 63.5647 139.08 62.8264 139.08 62.0906C139.08 58.797 139.08 55.5034 139.08 52.2098C139.08 47.0793 140.999 44.6141 146.082 43.8808C149.241 43.4253 152.479 43.3552 155.638 44.2161C159.339 45.2247 161.114 47.4346 161.149 51.2363C161.186 55.1956 161.116 59.1574 161.156 63.1167C161.166 64.1528 160.836 64.5157 159.792 64.4456C158.553 64.3605 157.302 64.4256 155.853 64.4256H155.855Z" fill="#181B5E"/>
<path d="M82.1451 64.358H77.0171C76.9845 63.8575 76.9295 63.377 76.927 62.8965C76.9195 59.3526 77.0196 55.8062 76.8994 52.2674C76.7267 47.1769 78.834 44.6741 83.6868 43.9233C87.0204 43.4078 90.4166 43.3452 93.7277 44.2812C97.1264 45.2423 98.9134 47.6499 98.9159 51.1887C98.9209 55.1906 98.9159 59.1924 98.9109 63.1943C98.9109 63.5572 98.8733 63.9226 98.8508 64.353H93.7878C93.7503 63.8975 93.6802 63.422 93.6777 62.9465C93.6677 59.3201 93.6777 55.6936 93.6702 52.0672C93.6602 48.7235 92.9194 47.8576 89.5657 47.5873C88.1241 47.4697 86.65 47.5548 85.2035 47.6899C83.1337 47.8851 82.1702 48.9838 82.1526 51.0811C82.1226 54.9979 82.1426 58.9171 82.1401 62.8364C82.1401 63.2919 82.1401 63.7474 82.1401 64.358H82.1451Z" fill="#181B5E"/>
<path d="M165.936 37.5964H170.974V44.1386H179.906V47.8826C179.511 47.9051 179.073 47.9502 178.635 47.9527C176.425 47.9602 174.215 47.9677 172.005 47.9527C171.38 47.9477 170.979 48.0553 170.987 48.8312C171.017 51.9571 170.982 55.0855 171.017 58.2114C171.032 59.5228 171.83 60.4363 173.057 60.5114C175.031 60.634 177.023 60.4688 179.008 60.4137C179.291 60.4062 179.574 60.3362 180.052 60.2661C180.052 61.3297 180.089 62.3158 180.024 63.2919C180.009 63.5221 179.671 63.865 179.426 63.9226C176.197 64.6909 172.956 65.1489 169.695 64.0777C167.295 63.2894 165.881 61.565 165.866 59.0973C165.824 52.0947 165.854 45.0896 165.859 38.0845C165.859 37.9618 165.896 37.8417 165.936 37.5939V37.5964Z" fill="#181B5E"/>
<path d="M215.038 64.353H209.907C209.842 64.1829 209.737 64.0302 209.737 63.8775C209.754 59.1724 209.662 54.4623 209.844 49.7622C209.987 46.1007 212.292 43.8032 215.934 43.5704C218.704 43.3927 221.495 43.5354 224.485 43.5354C224.485 44.9494 224.543 46.0231 224.438 47.0793C224.415 47.307 223.807 47.6324 223.459 47.6449C221.67 47.7049 219.878 47.6624 218.086 47.6799C215.623 47.7049 215.048 48.2731 215.04 50.7007C215.028 55.1981 215.038 59.6955 215.038 64.3555V64.353Z" fill="#181B5E"/>
<path d="M128.874 64.4256V44.096H133.997C134.027 44.3988 134.092 44.7517 134.094 45.1071C134.102 51.0661 134.077 57.0251 134.122 62.9841C134.129 64.1128 133.821 64.5533 132.643 64.4481C131.446 64.343 130.235 64.4256 128.874 64.4256Z" fill="#181B5E"/>
<path d="M219.229 64.4256V59.3876H224.482C224.482 60.8542 224.517 62.3333 224.442 63.8099C224.432 64.0277 223.909 64.3856 223.609 64.3981C222.202 64.4607 220.791 64.4256 219.227 64.4256H219.229Z" fill="#181B5E"/>
<path d="M128.863 40.3069V35.349H134.059C134.059 36.8131 134.089 38.2847 134.021 39.7513C134.011 39.949 133.506 40.2694 133.221 40.2819C131.816 40.3369 130.407 40.3069 128.863 40.3069Z" fill="#181B5E"/>
</g>
<defs>
<clipPath id="clip0_2967_31644">
<rect width="200" height="29.5772" fill="white" transform="translate(24.5 35.2114)"/>
</clipPath>
</defs>
</svg>
