<svg width="47" height="46" viewBox="0 0 47 46" fill="none" xmlns="http://www.w3.org/2000/svg">
    <g clip-path="url(#clip0)">
        <path d="M45.9016 27.5838C45.9016 27.0879 45.4991 26.6853 45.0032 26.6853H39.6982V21.7643C39.6982 21.2684 39.296 20.8659 38.7998 20.8659H35.7939V18.9377H36.0532C36.5491 18.9377 36.9516 18.5352 36.9516 18.0393C36.9516 17.543 36.5491 17.1409 36.0532 17.1409H33.8394C33.4081 12.1422 29.4146 8.1456 24.4135 7.7027V5.66121H29.304C29.8003 5.66121 30.2025 5.25867 30.2025 4.76277V0.898438C30.2025 0.402191 29.8003 0 29.304 0H23.5151C23.0192 0 22.6167 0.402191 22.6167 0.898438V7.69814C17.597 8.11752 13.5817 12.1247 13.1497 17.1409H10.898C10.4018 17.1409 9.99957 17.543 9.99957 18.0393C9.99957 18.5352 10.4018 18.9377 10.898 18.9377H11.2367V20.8659H8.23042C7.73453 20.8659 7.33199 21.2684 7.33199 21.7643V26.6853H2.02734C1.5311 26.6853 1.12891 27.0879 1.12891 27.5838C1.12891 28.0706 1.51636 28.4661 1.99927 28.4808V45.1016C1.99927 45.5978 2.40146 46 2.89771 46H44.1325C44.6287 46 45.0309 45.5978 45.0309 45.1016V28.4808C45.5142 28.4661 45.9016 28.0706 45.9016 27.5838ZM28.4056 3.86433H24.4135V1.79688H28.4056V3.86433ZM13.0336 18.9374H19.4212C19.9175 18.9374 20.3197 18.5352 20.3197 18.0389C20.3197 17.543 19.9175 17.1405 19.4212 17.1405H14.9536C15.4042 12.8294 19.0598 9.45781 23.4881 9.45781C27.923 9.45781 31.5838 12.8294 32.0348 17.1405H27.4826C26.9867 17.1405 26.5842 17.543 26.5842 18.0389C26.5842 18.5352 26.9867 18.9374 27.4826 18.9374H33.997V20.8659H13.0336V18.9374ZM3.79614 28.4822H7.33199V31.0708H6.63324C6.13734 31.0708 5.7348 31.4734 5.7348 31.9693C5.7348 32.4655 6.13734 32.8677 6.63324 32.8677H7.33199V35.4535H6.63324C6.13734 35.4535 5.7348 35.8557 5.7348 36.352C5.7348 36.8482 6.13734 37.2504 6.63324 37.2504H7.33199V39.8362H6.63324C6.13734 39.8362 5.7348 40.2384 5.7348 40.7347C5.7348 41.2306 6.13734 41.6331 6.63324 41.6331H7.33199V44.2031H3.79614V28.4822ZM9.12886 22.6627H37.9013V44.2031H35.0365V33.4331C35.0365 32.9369 34.6343 32.5347 34.1381 32.5347H30.3752C29.8789 32.5347 29.4767 32.9369 29.4767 33.4331V44.2031H26.2743V41.1597C26.2743 39.6267 25.0273 38.3798 23.4944 38.3798C21.9618 38.3798 20.7145 39.6267 20.7145 41.1597V44.2031H17.6061V33.4331C17.6061 32.9369 17.2039 32.5347 16.7077 32.5347H12.9448C12.4485 32.5347 12.0463 32.9369 12.0463 33.4331V44.2031H9.12886V22.6627ZM13.8432 44.2031V34.3315H15.8092V44.2031H13.8432ZM22.5114 44.2031V41.1597C22.5114 40.6174 22.9525 40.1767 23.4944 40.1767C24.0366 40.1767 24.4774 40.6174 24.4774 41.1597V44.2031H22.5114ZM31.2736 44.2031V34.3315H33.2396V44.2031H31.2736ZM43.234 44.2031H39.6982V41.6331H40.3969C40.8932 41.6331 41.2954 41.2306 41.2954 40.7347C41.2954 40.2384 40.8932 39.8362 40.3969 39.8362H39.6982V37.2504H40.3969C40.8932 37.2504 41.2954 36.8482 41.2954 36.352C41.2954 35.8557 40.8932 35.4535 40.3969 35.4535H39.6982V32.8677H40.3969C40.8932 32.8677 41.2954 32.4655 41.2954 31.9693C41.2954 31.4734 40.8932 31.0708 40.3969 31.0708H39.6982V28.4822H43.234V44.2031Z" fill="#181B5E"/>
        <path d="M12.9448 30.7598H16.7077C17.204 30.7598 17.6062 30.3572 17.6062 29.8613V26.1689C17.6062 25.6727 17.204 25.2705 16.7077 25.2705H12.9448C12.4489 25.2705 12.0464 25.6727 12.0464 26.1689V29.8613C12.0464 30.3576 12.4486 30.7598 12.9448 30.7598ZM13.8433 27.0674H15.8093V28.9629H13.8433V27.0674Z" fill="#181B5E"/>
        <path d="M21.6128 36.594H25.3757C25.8719 36.594 26.2741 36.1918 26.2741 35.6955V28.0504C26.2741 26.5174 25.0272 25.2705 23.4942 25.2705C21.9616 25.2705 20.7144 26.5174 20.7144 28.0504V35.6955C20.7144 36.1918 21.1169 36.594 21.6128 36.594ZM22.5112 34.7971V30.7598H24.4773V34.7971H22.5112ZM23.4942 27.0674C24.0365 27.0674 24.4773 27.5085 24.4773 28.0504V28.9629H22.5112V28.0504C22.5112 27.5085 22.9524 27.0674 23.4942 27.0674Z" fill="#181B5E"/>
        <path d="M30.375 30.7598H34.1379C34.6342 30.7598 35.0363 30.3572 35.0363 29.8613V26.1689C35.0363 25.6727 34.6342 25.2705 34.1379 25.2705H30.375C29.8788 25.2705 29.4766 25.6727 29.4766 26.1689V29.8613C29.4766 30.3576 29.8788 30.7598 30.375 30.7598ZM31.2734 27.0674H33.2395V28.9629H31.2734V27.0674Z" fill="#181B5E"/>
        <path d="M23.3193 17.1652C22.9536 17.2396 22.6668 17.5369 22.6072 17.9057C22.5454 18.2904 22.749 18.6792 23.0971 18.8519C23.4277 19.0158 23.8401 18.954 24.1093 18.7017C24.39 18.4385 24.47 18.0113 24.3068 17.6639C24.1342 17.2961 23.7183 17.0855 23.3193 17.1652Z" fill="#181B5E"/>
    </g>
    <defs>
        <clipPath id="clip0">
            <rect x="0.5" width="46" height="46" fill="white"/>
        </clipPath>
    </defs>
</svg>
