<svg width="132" height="40" viewBox="0 0 132 40" fill="none" xmlns="http://www.w3.org/2000/svg">
    <g clip-path="url(#clip0)">
        <path d="M9.37305 15.1484H23.0447V12.0164H9.37305V15.1484Z" fill="#6A6F82"/>
        <path d="M16.0834 3.5957C17.0877 3.5957 17.9022 2.79142 17.9022 1.79828C17.9022 0.805141 17.0877 -0.000464543 16.0834 -0.000464543C15.0792 -0.000464543 14.2646 0.805141 14.2646 1.79828C14.2646 2.79142 15.0792 3.5957 16.0834 3.5957Z" fill="#6A6F82"/>
        <path d="M11.0656 6.77739C10.2982 6.83286 9.56864 7.07982 8.94781 7.45885C7.86615 5.60464 5.94066 4.82281 4.3418 4.85318L7.05624 10.4475C7.44163 11.0365 8.11066 11.4248 8.87223 11.4248C10.0654 11.4248 11.0669 10.4832 11.0669 9.3025L11.0656 6.77739" fill="#6A6F82"/>
        <path d="M14.3908 5.61319C14.8689 5.05455 15.0732 4.87626 15.6394 4.49327C14.6753 3.21486 13.1155 2.36832 11.3809 2.36832C9.48289 2.36832 7.82086 3.36674 6.8877 4.85117C6.8877 4.85117 7.65848 5.21435 8.2538 5.80469C8.88036 4.73891 10.045 4.02311 11.3809 4.02311C12.6281 4.02311 13.7432 4.66363 14.3908 5.61319Z" fill="#6A6F82"/>
        <path d="M21.1605 6.77739C21.9284 6.83286 22.6588 7.07982 23.2784 7.45885C24.3588 5.60464 26.2844 4.82281 27.8842 4.85318L25.1693 10.4475C24.7848 11.0365 24.1157 11.4248 23.3532 11.4248C22.1607 11.4248 21.1592 10.4832 21.1592 9.3025L21.1606 6.77739" fill="#6A6F82"/>
        <path d="M17.8345 5.61319C17.3578 5.05455 17.1548 4.87626 16.5859 4.49327C17.5514 3.21486 19.1112 2.36832 20.8458 2.36832C22.7421 2.36832 24.406 3.36674 25.3381 4.85117C25.3381 4.85117 24.5689 5.21435 23.972 5.80469C23.347 4.73891 22.1812 4.02311 20.8458 4.02311C19.5986 4.02311 18.4849 4.66363 17.8345 5.61319Z" fill="#6A6F82"/>
        <path d="M16.1129 9.36512C16.1129 10.5458 17.0811 11.502 18.2762 11.502C19.4687 11.502 20.4783 10.5379 20.4783 9.3572L20.4836 6.77662C19.7131 6.82945 18.9693 7.08566 18.347 7.46469C18.112 6.63531 17.3749 5.52067 16.1129 4.74544C14.851 5.52067 14.1138 6.63531 13.8801 7.46469C13.2565 7.08566 12.5127 6.82945 11.7422 6.77662L11.7489 9.3572C11.7489 10.5379 12.7571 11.502 13.9509 11.502C15.1448 11.502 16.1129 10.5458 16.1129 9.36512" fill="#6A6F82"/>
        <path d="M2.78872 15.0556H8.1511L16.2094 31.8002L24.2671 15.0556H28.8768V15.2101C28.8768 15.2101 28.1544 15.1164 27.4653 15.8916C26.7763 16.6668 26.9646 17.8765 26.9646 17.8765L29.0651 35.4287C29.0651 35.4287 29.2841 36.3586 29.849 36.9171C30.4139 37.4748 31.2285 37.785 32.0751 37.8159V37.9707H23.9226L23.8905 37.847C23.8905 37.847 24.3606 37.8159 25.0202 37.2582C25.6786 36.6997 25.7721 36.1096 25.7413 35.3043L23.8905 20.3581L15.4562 37.847L7.05314 20.1719L5.4862 35.8002C5.4862 35.8002 5.45495 36.5753 6.01902 37.0719C6.58295 37.5683 7.42865 37.8159 7.42865 37.8159V37.9707H0.531382L0.5 37.8159C0.5 37.8159 1.53412 37.785 2.35058 37.2265C3.16557 36.6681 3.3847 36.0168 3.60504 35.1797L5.39166 17.9386C5.39166 17.9386 5.4862 16.6668 4.8583 16.1399C4.23107 15.6129 4.23107 15.3646 2.78872 15.2405V15.0556Z" fill="#6A6F82"/>
        <path d="M39.7002 18.139H40.1556C40.8366 18.139 41.3654 17.8775 41.3654 17.1168C41.3654 16.4116 40.8366 16.2148 40.2437 16.2148C40.0608 16.2148 39.8925 16.2214 39.7149 16.2293C39.7069 16.4366 39.7002 16.6334 39.7002 16.8315V18.139ZM43.5595 20.8701C43.247 20.8384 42.9359 20.808 42.6234 20.808C42.3429 20.808 42.0705 20.8384 41.7981 20.8701L40.4053 18.5656H39.7002V19.2866C39.7002 19.9206 39.7069 20.2137 39.7323 20.3564C39.7483 20.4515 39.8832 20.5149 40.0194 20.5624L40.5322 20.7592V20.8701C40.0514 20.8384 39.5707 20.808 39.0913 20.808C38.6105 20.808 38.1298 20.8384 37.6504 20.8701V20.7592L38.2981 20.4911C38.4663 20.4198 38.4823 20.3722 38.4823 19.2866V17.3704C38.4823 16.3178 38.4503 16.1976 38.258 16.1276L37.6504 15.8978V15.7869C38.1298 15.8186 38.6105 15.8503 39.0913 15.8503C39.6027 15.8503 40.2517 15.7869 40.5241 15.7869C41.4696 15.7869 42.7743 15.8582 42.7743 17.1009C42.7743 17.7666 42.3189 18.2103 41.6859 18.3767L42.399 19.5402C42.9746 20.4673 43.0467 20.5466 43.255 20.6337L43.5595 20.7592V20.8701" fill="#6A6F82"/>
        <path d="M45.1863 18.4007V18.447H45.5241C46.0035 18.447 46.3881 18.4007 46.6365 18.3915V18.266C46.6365 17.8223 46.5003 17.3152 45.9555 17.3152C45.4026 17.3152 45.1863 17.9491 45.1863 18.4007V18.4007ZM47.6607 20.3408C47.1813 20.7449 46.5404 20.9668 45.9074 20.9668C44.7629 20.9668 43.9697 20.111 43.9697 19.0016C43.9697 17.8223 44.9072 16.9824 46.0917 16.9824C46.9957 16.9824 47.9011 17.4974 47.9011 18.4879C47.9011 18.7798 47.821 18.7798 47.3176 18.7798H45.1863V18.9224C45.1863 19.5088 45.691 20.3963 46.5644 20.3963C46.8929 20.3963 47.2615 20.3012 47.5245 20.1269L47.6607 20.3408Z" fill="#6A6F82"/>
        <path d="M50.5685 18.8907C49.9996 18.8907 49.4401 19.1364 49.4401 19.8099C49.4401 20.1348 49.6631 20.3963 49.9996 20.3963C50.5044 20.3963 50.7448 19.8099 50.7448 19.5405V18.8907H50.5685ZM48.5748 17.854C49.0154 17.331 49.599 16.9824 50.3041 16.9824C51.0893 16.9824 51.8171 17.3072 51.8171 18.1789C51.8171 18.859 51.777 19.5484 51.777 19.8416C51.777 20.4042 51.793 20.4597 51.9292 20.5231L52.426 20.7595V20.8704C52.1616 20.8387 51.8972 20.8083 51.6341 20.8083C51.3377 20.8083 51.0412 20.8387 50.7448 20.8704L50.7688 20.325H50.7528C50.4483 20.7212 49.9996 20.9668 49.4641 20.9668C48.8392 20.9668 48.3184 20.5785 48.3184 19.8891C48.3184 18.7798 49.623 18.5579 50.5364 18.5579H50.7448V18.2568C50.7448 17.7906 50.4163 17.5529 49.9515 17.5529C49.4962 17.5529 49.1597 17.751 48.8792 18.1076L48.5748 17.854Z" fill="#6A6F82"/>
        <path d="M54.4695 15.1844C54.4535 15.1844 53.9726 15.2792 52.8362 15.2792H52.6914V15.3914L53.2059 15.5655C53.286 15.5893 53.3074 15.6674 53.3154 15.7783C53.3328 15.954 53.3565 16.2621 53.3565 16.8075V19.8583C53.3565 20.483 53.3331 20.5223 53.1648 20.5857L52.6914 20.7598V20.8701C53.084 20.8384 53.4848 20.8082 53.8534 20.8082C54.246 20.8082 54.6548 20.8384 55.0955 20.8701V20.7598L54.5654 20.5064C54.4773 20.4668 54.4697 20.3808 54.4617 20.1272C54.4537 19.8816 54.4304 19.4614 54.4304 18.7324C54.4304 17.5531 54.4535 16.3638 54.4695 15.1844Z" fill="#6A6F82"/>
        <path d="M62.006 16.4757C61.9099 16.246 61.7577 16.135 61.1808 16.135C59.8921 16.135 59.3633 17.1889 59.3633 18.3537C59.3633 19.4063 59.8841 20.5711 61.1087 20.5711C61.3971 20.5711 61.974 20.476 62.1022 20.167L62.4694 19.2716H62.6297L62.6056 20.7455C62.0381 20.8709 61.5013 20.999 60.9724 20.999C59.2912 20.999 57.9531 20.3096 57.9531 18.4409C57.9531 16.5629 59.6037 15.6609 61.2288 15.6609C61.6855 15.6609 62.1743 15.7084 62.5575 15.7718C62.5575 15.8894 62.4948 16.3093 62.4948 16.6025V17.1651H62.3345L62.006 16.4757" fill="#6A6F82"/>
        <path d="M65.547 18.8907C64.9781 18.8907 64.4186 19.1364 64.4186 19.8099C64.4186 20.1348 64.643 20.3963 64.9781 20.3963C65.4829 20.3963 65.7233 19.8099 65.7233 19.5405V18.8907H65.547ZM63.5533 17.854C63.994 17.331 64.5775 16.9824 65.2826 16.9824C66.0678 16.9824 66.7969 17.3072 66.7969 18.1789C66.7969 18.859 66.7569 19.5484 66.7569 19.8416C66.7569 20.4042 66.7729 20.4597 66.9091 20.5231L67.4059 20.7595V20.8704C67.1415 20.8387 66.8771 20.8083 66.6127 20.8083C66.3162 20.8083 66.0197 20.8387 65.7233 20.8704L65.7473 20.325H65.7313C65.4268 20.7212 64.9781 20.9668 64.4426 20.9668C63.8177 20.9668 63.2969 20.5785 63.2969 19.8891C63.2969 18.7798 64.6029 18.5579 65.515 18.5579H65.7233V18.2568C65.7233 17.7906 65.3948 17.5529 64.9314 17.5529C64.4747 17.5529 64.1382 17.751 63.8577 18.1076L63.5533 17.854" fill="#6A6F82"/>
        <path d="M67.9819 19.7307H68.0941L68.4066 20.5376C68.4386 20.593 68.7751 20.634 68.9915 20.634C69.3186 20.634 69.7753 20.5231 69.7753 20.111C69.7753 19.3582 67.9098 19.4375 67.9098 18.2568C67.9098 17.5529 68.5107 16.9824 69.4081 16.9824C69.7673 16.9824 70.2881 17.0774 70.4644 17.1408L70.4163 18.1393H70.3041L69.9917 17.4816C69.9676 17.434 69.7673 17.3627 69.5283 17.3627C69.1984 17.3627 68.8873 17.4895 68.8873 17.8619C68.8873 18.6622 70.7528 18.5196 70.7528 19.7782C70.7288 20.8149 69.591 20.9668 68.7751 20.9668C68.3985 20.9668 68.1021 20.9259 67.8857 20.8704L67.9819 19.7307" fill="#6A6F82"/>
        <path d="M73.5558 18.8907C72.9869 18.8907 72.4274 19.1364 72.4274 19.8099C72.4274 20.1348 72.6518 20.3963 72.9869 20.3963C73.4917 20.3963 73.7334 19.8099 73.7334 19.5405V18.8907H73.5558ZM71.5621 17.854C72.0027 17.331 72.5877 16.9824 73.2914 16.9824C74.0766 16.9824 74.8057 17.3072 74.8057 18.1789C74.8057 18.859 74.7657 19.5484 74.7657 19.8416C74.7657 20.4042 74.7817 20.4597 74.9179 20.5231L75.4147 20.7595V20.8704C75.1489 20.8387 74.8859 20.8083 74.6214 20.8083C74.325 20.8083 74.0285 20.8387 73.7334 20.8704L73.7561 20.325H73.7401C73.4356 20.7212 72.9869 20.9668 72.4514 20.9668C71.8265 20.9668 71.3057 20.5785 71.3057 19.8891C71.3057 18.7798 72.6117 18.5579 73.5238 18.5579H73.7334V18.2568C73.7334 17.7906 73.4036 17.5529 72.9402 17.5529C72.4835 17.5529 72.147 17.751 71.8665 18.1076L71.5621 17.854" fill="#6A6F82"/>
        <path d="M82.2388 15.1844C82.2228 15.1844 81.6212 15.2792 80.7091 15.2792H80.4861V15.3914L80.8852 15.5326C81.0708 15.6039 81.1101 15.66 81.1101 16.9661V17.4111C80.8938 17.1654 80.5421 16.9816 80.1575 16.9816C78.9957 16.9816 78.0918 17.9006 78.0918 19.0245C78.0918 20.0308 78.8434 20.9668 79.909 20.9668C80.4779 20.9668 80.9412 20.7288 81.2216 20.2375H81.2373L81.2138 20.8701C81.5262 20.8384 81.9021 20.8082 82.0784 20.8082C82.2867 20.8082 82.6395 20.8384 82.9039 20.8701V20.7598L82.3914 20.5238C82.2872 20.4762 82.2785 20.3875 82.2544 20.0943C82.2384 19.8566 82.182 17.7027 82.182 17.2273V16.5308C82.182 15.8586 82.1987 15.4221 82.2388 15.1844H82.2388ZM80.2924 17.3627C81.0696 17.3627 81.1492 18.3458 81.1492 18.9084C81.1492 19.4539 81.0366 20.5373 80.2768 20.5373C79.6118 20.5373 79.3555 19.8411 79.3555 18.8426C79.3555 18.2338 79.5152 17.3627 80.2924 17.3627Z" fill="#6A6F82"/>
        <path d="M84.6511 18.4007V18.447H84.9876C85.4684 18.447 85.853 18.4007 86.1013 18.3915V18.266C86.1013 17.8223 85.9651 17.3152 85.4203 17.3152C84.8674 17.3152 84.6511 17.9491 84.6511 18.4007V18.4007ZM87.1256 20.3408C86.6448 20.7449 86.0039 20.9668 85.3722 20.9668C84.2265 20.9668 83.4346 20.111 83.4346 19.0016C83.4346 17.8223 84.3707 16.9824 85.5565 16.9824C86.4606 16.9824 87.366 17.4974 87.366 18.4879C87.366 18.7798 87.2858 18.7798 86.7811 18.7798H84.6511V18.9224C84.6511 19.5088 85.1559 20.3963 86.0292 20.3963C86.3577 20.3963 86.725 20.3012 86.9894 20.1269L87.1256 20.3408Z" fill="#6A6F82"/>
        <path d="M91.7068 15.1844C91.6908 15.1844 91.2112 15.2792 90.0735 15.2792H89.9307V15.3914L90.4432 15.5655C90.5233 15.5893 90.5467 15.6674 90.5547 15.7783C90.5707 15.954 90.5958 16.2621 90.5958 16.8075V19.8583C90.5958 20.483 90.5704 20.5223 90.4021 20.5857L89.9307 20.7598V20.8701C90.3233 20.8384 90.7221 20.8082 91.0907 20.8082C91.4833 20.8082 91.8921 20.8384 92.3328 20.8701V20.7598L91.8027 20.5064C91.7146 20.4668 91.7077 20.3808 91.701 20.1272C91.6917 19.8816 91.6677 19.4614 91.6677 18.7324C91.6677 17.5531 91.6908 16.3638 91.7068 15.1844H91.7068Z" fill="#6A6F82"/>
        <path d="M94.9181 18.8907C94.3492 18.8907 93.7897 19.1364 93.7897 19.8099C93.7897 20.1348 94.014 20.3963 94.3492 20.3963C94.854 20.3963 95.0957 19.8099 95.0957 19.5405V18.8907H94.9181ZM92.9244 17.854C93.365 17.331 93.9499 16.9824 94.655 16.9824C95.4389 16.9824 96.168 17.3072 96.168 18.1789C96.168 18.859 96.1279 19.5484 96.1279 19.8416C96.1279 20.4042 96.1439 20.4597 96.2801 20.5231L96.7769 20.7595V20.8704C96.5125 20.8387 96.2481 20.8083 95.9837 20.8083C95.6872 20.8083 95.3908 20.8387 95.0957 20.8704L95.1184 20.325H95.1024C94.7979 20.7212 94.3492 20.9668 93.8137 20.9668C93.1888 20.9668 92.668 20.5785 92.668 19.8891C92.668 18.7798 93.974 18.5579 94.886 18.5579H95.0957V18.2568C95.0957 17.7906 94.7658 17.5529 94.3025 17.5529C93.8458 17.5529 93.5093 17.751 93.2288 18.1076L92.9244 17.854Z" fill="#6A6F82"/>
        <path d="M99.5901 15.7869C100.071 15.8186 100.558 15.8503 100.775 15.8503C101.095 15.8503 101.488 15.8186 101.712 15.7869C102.143 16.9187 102.752 18.2011 103.121 18.9618C103.642 17.8933 104.058 16.9425 104.523 15.7869C104.771 15.8186 105.147 15.8503 105.435 15.8503C105.724 15.8503 106.172 15.8186 106.621 15.7869V15.8978L105.948 16.1659C105.836 16.2148 105.82 16.2531 105.82 16.4274C105.82 17.0296 106.02 18.7412 106.268 20.1662C106.308 20.396 106.324 20.4515 106.485 20.5149L107.062 20.7592V20.8701C106.557 20.8384 106.044 20.808 105.523 20.808C105.075 20.808 104.635 20.8384 104.186 20.8701V20.7592L104.81 20.499C104.916 20.4594 104.986 20.3881 104.986 20.3247C104.986 19.9126 104.771 17.9884 104.65 17.0376H104.635C104.058 18.3054 103.457 19.5719 102.953 20.8701H102.6C102.111 19.6194 101.52 18.4084 100.975 17.1881H100.959C100.831 18.1945 100.646 19.7542 100.646 20.2534C100.646 20.4277 100.694 20.4752 100.847 20.5307L101.424 20.7592V20.8701C101.039 20.8384 100.654 20.808 100.262 20.808C99.9092 20.808 99.566 20.8384 99.2295 20.8701V20.7592L99.749 20.5307C99.9025 20.4594 99.9346 20.4039 99.9973 19.976C100.271 18.1548 100.414 16.9266 100.414 16.4432C100.414 16.3006 100.398 16.2214 100.127 16.1104L99.5901 15.8978V15.7869Z" fill="#6A6F82"/>
        <path d="M108.727 18.962C108.727 19.5009 108.848 20.634 109.601 20.634C110.394 20.634 110.465 19.6356 110.465 19.073C110.465 18.4721 110.394 17.3152 109.553 17.3152C108.76 17.3152 108.727 18.4549 108.727 18.962ZM111.731 19.0016C111.731 20.2219 110.737 20.9668 109.553 20.9668C108.319 20.9668 107.463 20.2774 107.463 19.0254C107.463 17.7748 108.407 16.9824 109.625 16.9824C110.889 16.9824 111.731 17.7114 111.731 19.0016Z" fill="#6A6F82"/>
        <path d="M112.141 20.7592L112.565 20.5624C112.764 20.4673 112.806 20.3405 112.806 19.2866C112.806 17.5922 112.774 17.5051 112.605 17.4338L112.141 17.2515V17.1406C112.261 17.1406 113.045 17.1406 113.59 17.0772C113.734 17.0613 113.878 17.0455 113.894 17.0455L113.878 17.7349H113.894C114.231 17.2515 114.831 16.9821 115.4 16.9821C116.16 16.9821 116.633 17.3783 116.633 18.1231C116.633 18.5273 116.625 18.8033 116.625 19.0648C116.625 20.4118 116.665 20.4673 116.849 20.5545L117.29 20.7592V20.8701C116.921 20.8384 116.537 20.808 116.12 20.808C115.727 20.808 115.327 20.8384 114.928 20.8701V20.7592L115.303 20.5862C115.424 20.5307 115.48 20.4911 115.495 20.3881C115.551 20.079 115.551 19.6115 115.551 19.2946V18.5827C115.551 17.9013 115.288 17.6002 114.807 17.6002C114.287 17.6002 113.878 17.9409 113.878 18.5339V19.2946C113.878 20.3326 113.902 20.4752 114.03 20.5373L114.503 20.7592V20.8701C114.102 20.8384 113.702 20.808 113.309 20.808C112.894 20.808 112.509 20.8384 112.141 20.8701V20.7592" fill="#6A6F82"/>
        <path d="M118.917 18.4007V18.447H119.253C119.734 18.447 120.119 18.4007 120.367 18.3915V18.266C120.367 17.8223 120.231 17.3152 119.686 17.3152C119.133 17.3152 118.917 17.9491 118.917 18.4007V18.4007ZM121.391 20.3408C120.912 20.7449 120.271 20.9668 119.638 20.9668C118.492 20.9668 117.7 20.111 117.7 19.0016C117.7 17.8223 118.636 16.9824 119.822 16.9824C120.726 16.9824 121.632 17.4974 121.632 18.4879C121.632 18.7798 121.551 18.7798 121.048 18.7798H118.917V18.9224C118.917 19.5088 119.421 20.3963 120.295 20.3963C120.623 20.3963 120.992 20.3012 121.255 20.1269L121.391 20.3408Z" fill="#6A6F82"/>
        <path d="M124.355 17.3627C123.578 17.3627 123.418 18.2343 123.418 18.8432C123.418 19.8416 123.674 20.5376 124.339 20.5376C125.099 20.5376 125.211 19.4533 125.211 18.9079C125.211 18.3453 125.133 17.3627 124.355 17.3627ZM126.245 17.228C126.245 17.7034 126.301 19.8574 126.317 20.0952C126.341 20.3883 126.349 20.4755 126.453 20.5231L126.966 20.7595V20.8704C126.702 20.8387 126.349 20.8083 126.141 20.8083C125.964 20.8083 125.589 20.8387 125.277 20.8704L125.299 20.2378H125.283C125.004 20.7291 124.54 20.9668 123.971 20.9668C122.905 20.9668 122.153 20.0318 122.153 19.0254C122.153 17.9015 123.059 16.9824 124.219 16.9824C124.604 16.9824 124.955 17.1646 125.171 17.4102V16.9665C125.171 15.6604 125.133 15.6049 124.947 15.5336L124.548 15.391V15.28H124.772C125.684 15.28 126.285 15.1849 126.301 15.1849C126.261 15.4226 126.245 15.8585 126.245 16.5307V17.228" fill="#6A6F82"/>
        <path d="M129.643 18.8907C129.074 18.8907 128.513 19.1364 128.513 19.8099C128.513 20.1348 128.737 20.3963 129.074 20.3963C129.579 20.3963 129.819 19.8099 129.819 19.5405V18.8907H129.643ZM127.649 17.854C128.09 17.331 128.673 16.9824 129.378 16.9824C130.164 16.9824 130.891 17.3072 130.891 18.1789C130.891 18.859 130.851 19.5484 130.851 19.8416C130.851 20.4042 130.867 20.4597 131.003 20.5231L131.5 20.7595V20.8704C131.236 20.8387 130.971 20.8083 130.708 20.8083C130.411 20.8083 130.115 20.8387 129.819 20.8704L129.843 20.325H129.827C129.523 20.7212 129.074 20.9668 128.538 20.9668C127.913 20.9668 127.393 20.5785 127.393 19.8891C127.393 18.7798 128.697 18.5579 129.611 18.5579H129.819V18.2568C129.819 17.7906 129.49 17.5529 129.026 17.5529C128.569 17.5529 128.233 17.751 127.952 18.1076L127.649 17.854" fill="#6A6F82"/>
        <path d="M38.1855 29.6436V23.9251H41.4532V24.4005H38.7063V26.4211H41.3571V26.8952H38.7063V29.6436H38.1855Z" fill="#6A6F82"/>
        <path d="M44.7537 24.0443L43.7375 25.1775H43.3849L44.1127 24.0443H44.7537ZM43.5131 29.3274C44.5614 29.3274 44.7617 28.4712 44.7136 27.6405C44.0326 27.6643 42.6077 27.5375 42.6077 28.5359C42.6077 29.0734 43.0244 29.3274 43.5131 29.3274ZM44.7136 26.8402C44.6656 26.1904 44.329 25.9844 43.7615 25.9844C43.2567 25.9844 42.8401 26.135 42.776 26.6738H42.2632C42.3834 25.8589 43.0003 25.5499 43.7682 25.5499C44.6575 25.5499 45.2104 25.954 45.1944 26.864V28.7486C45.1864 29.0576 45.2184 29.3744 45.2344 29.644H44.7377L44.7216 29.0576H44.7056L44.6816 29.1133C44.5053 29.446 43.9685 29.7627 43.425 29.7627C42.6798 29.7627 42.0869 29.3113 42.0869 28.5359C42.0869 27.9958 42.4154 27.5851 42.8962 27.387C43.4317 27.1572 44.1301 27.2364 44.7136 27.2047V26.8402" fill="#6A6F82"/>
        <path d="M46.764 27.5771C46.764 28.4805 47.0845 29.3274 48.1341 29.3274C49.0542 29.3274 49.2865 28.3378 49.2865 27.6009C49.2865 26.8402 48.974 25.9844 48.0606 25.9844C47.1245 25.9844 46.764 26.7689 46.764 27.5771ZM46.7399 29.644H46.2432C46.2592 29.3744 46.2832 29.0576 46.2832 28.7486V23.9255H46.764V26.2551L46.78 26.2697C47.0604 25.8035 47.6213 25.5499 48.1581 25.5499C49.3506 25.5499 49.8073 26.6104 49.8073 27.6405C49.8073 28.6376 49.3506 29.7627 48.1808 29.7627C47.5972 29.7627 47.1085 29.5015 46.78 29.0259L46.764 29.0576L46.7399 29.644" fill="#6A6F82"/>
        <path d="M51.2181 29.6436H50.7373V26.5624C50.7454 26.2547 50.7133 25.9364 50.6973 25.6684H51.194L51.2181 26.2547H51.2341C51.3783 25.8493 51.7389 25.5653 52.1395 25.5495C52.2984 25.5416 52.4587 25.5495 52.6189 25.5574V26.0157C52.5227 26.0091 52.4186 25.984 52.3224 25.984C51.6107 25.984 51.2341 26.4911 51.2181 27.2518V29.6436" fill="#6A6F82"/>
        <path d="M53.3329 25.6681H53.8135V29.6436H53.3329V25.6681ZM53.8537 24.5191H53.293V23.9252H53.8537V24.5191Z" fill="#6A6F82"/>
        <path d="M57.562 26.8877C57.5206 26.2776 57.128 25.9844 56.4643 25.9844C55.7271 25.9844 55.2704 26.7451 55.2704 27.6484C55.2704 28.5584 55.7271 29.3274 56.4643 29.3274C57.0892 29.3274 57.5206 28.9467 57.562 28.4012H58.0814C57.9532 29.3113 57.4257 29.7627 56.5123 29.7627C55.3105 29.7627 54.751 28.7406 54.751 27.6564C54.751 26.5787 55.3506 25.5499 56.5444 25.5499C57.3697 25.5499 58.0427 26.0399 58.0814 26.8877H57.562Z" fill="#6A6F82"/>
        <path d="M60.0209 29.3274C61.0705 29.3274 61.2708 28.4712 61.2214 27.6405C60.5417 27.6643 59.1155 27.5375 59.1155 28.5359C59.1155 29.0734 59.5322 29.3274 60.0209 29.3274ZM61.2214 26.8402C61.1747 26.1904 60.8382 25.9844 60.2693 25.9844C59.7645 25.9844 59.3479 26.135 59.2838 26.6738H58.771C58.8925 25.8589 59.5081 25.5499 60.2773 25.5499C61.1653 25.5499 61.7182 25.954 61.7022 26.864V28.7486C61.6941 29.0576 61.7262 29.3744 61.7436 29.644H61.2455L61.2308 29.0576H61.2148L61.1894 29.1133C61.0144 29.446 60.4776 29.7627 59.9328 29.7627C59.1876 29.7627 58.5947 29.3113 58.5947 28.5359C58.5947 27.9958 58.9246 27.5851 59.4053 27.387C59.9408 27.1572 60.6379 27.2364 61.2214 27.2047V26.8402" fill="#6A6F82"/>
        <path d="M65.1152 23.9251H65.7081L68.8944 28.9555H68.9104V23.9251H69.4312V29.6436H68.7742L65.6521 24.7016H65.6347V29.6436H65.1152V23.9251Z" fill="#6A6F82"/>
        <path d="M71.7954 29.3274C72.845 29.3274 73.044 28.4712 72.9959 27.6405C72.3162 27.6643 70.89 27.5375 70.89 28.5359C70.89 29.0734 71.3066 29.3274 71.7954 29.3274ZM72.9959 26.8402C72.9491 26.1904 72.6126 25.9844 72.0437 25.9844C71.539 25.9844 71.1223 26.135 71.0582 26.6738H70.5454C70.6669 25.8589 71.2826 25.5499 72.0518 25.5499C72.9398 25.5499 73.4926 25.954 73.4766 26.864V28.7486C73.4686 29.0576 73.5007 29.3744 73.5167 29.644H73.0199L73.0052 29.0576H72.9879L72.9638 29.1133C72.7889 29.446 72.2521 29.7627 71.7072 29.7627C70.9621 29.7627 70.3691 29.3113 70.3691 28.5359C70.3691 27.9958 70.6976 27.5851 71.1784 27.387C71.7152 27.1572 72.4123 27.2364 72.9959 27.2047V26.8402" fill="#6A6F82"/>
        <path d="M77.186 26.8877C77.1459 26.2776 76.7533 25.9844 76.0883 25.9844C75.3512 25.9844 74.8958 26.7451 74.8958 27.6484C74.8958 28.5584 75.3512 29.3274 76.0883 29.3274C76.7133 29.3274 77.1459 28.9467 77.186 28.4012H77.7068C77.5773 29.3113 77.0498 29.7627 76.1364 29.7627C74.9359 29.7627 74.375 28.7406 74.375 27.6564C74.375 26.5787 74.9759 25.5499 76.1684 25.5499C76.9937 25.5499 77.6667 26.0399 77.7068 26.8877H77.186Z" fill="#6A6F82"/>
        <path d="M78.5803 25.6681H79.0608V29.6436H78.5803V25.6681ZM79.0998 24.5191H78.5391V23.9252H79.0998V24.5191Z" fill="#6A6F82"/>
        <path d="M81.8554 25.9844C80.8859 25.9844 80.5013 26.9194 80.5013 27.6564C80.5013 28.3933 80.8859 29.3274 81.8554 29.3274C82.8235 29.3274 83.2081 28.3933 83.2081 27.6564C83.2081 26.9194 82.8235 25.9844 81.8554 25.9844ZM83.7289 27.6564C83.7289 28.7023 83.136 29.7627 81.8554 29.7627C80.5734 29.7627 79.9805 28.7023 79.9805 27.6564C79.9805 26.6104 80.5734 25.5499 81.8554 25.5499C83.136 25.5499 83.7289 26.6104 83.7289 27.6564Z" fill="#6A6F82"/>
        <path d="M85.1234 29.6436H84.6426V26.5624C84.6426 26.2547 84.6186 25.9364 84.6025 25.6683H85.0993L85.1234 26.2547L85.1394 26.2693C85.4198 25.7793 85.8765 25.5495 86.396 25.5495C87.71 25.5495 87.8142 26.6971 87.8142 27.1567V29.6436H87.3334V27.0775C87.3334 26.3881 86.9328 25.984 86.2758 25.984C85.4839 25.984 85.1234 26.6417 85.1234 27.3548V29.6436" fill="#6A6F82"/>
        <path d="M90.0893 29.3274C91.1375 29.3274 91.3378 28.4712 91.2898 27.6405C90.6087 27.6643 89.1839 27.5375 89.1839 28.5359C89.1839 29.0734 89.6005 29.3274 90.0893 29.3274ZM91.2898 26.8402C91.2417 26.1904 90.9052 25.9844 90.3363 25.9844C89.8329 25.9844 89.4162 26.135 89.3521 26.6738H88.8394C88.9595 25.8589 89.5765 25.5499 90.3443 25.5499C91.2337 25.5499 91.7865 25.954 91.7705 26.864V28.7486C91.7625 29.0576 91.7946 29.3744 91.8106 29.644H91.3138L91.2978 29.0576H91.2818L91.2577 29.1133C91.0815 29.446 90.5446 29.7627 90.0011 29.7627C89.256 29.7627 88.6631 29.3113 88.6631 28.5359C88.6631 27.9958 88.9916 27.5851 89.4723 27.387C90.0078 27.1572 90.7049 27.2364 91.2898 27.2047V26.8402" fill="#6A6F82"/>
        <path d="M92.9482 29.6436H93.4289V23.9257H92.9482V29.6436Z" fill="#6A6F82"/>
        <path d="M39.5236 34.8202C38.6102 34.8202 38.3138 35.6597 38.3138 36.42C38.3138 37.1564 38.5301 38.1624 39.4515 38.1624C40.4998 38.1624 40.8203 37.2989 40.8203 36.3961C40.8203 35.5881 40.4611 34.8202 39.5236 34.8202ZM40.8363 37.8928L40.8203 37.8613C40.4918 38.3366 40.0044 38.5977 39.4435 38.5977C38.2497 38.5977 37.793 37.4731 37.793 36.4755C37.793 35.4456 38.2497 34.3849 39.4435 34.3849C39.9803 34.3849 40.5399 34.6383 40.8203 35.1052L40.8363 35.0897V32.7611H41.3171V37.5839C41.3171 37.8928 41.3411 38.2095 41.3571 38.4791H40.8604L40.8363 37.8928" fill="#6A6F82"/>
        <path d="M45.3057 36.1666C45.2496 35.3986 44.833 34.8202 43.9997 34.8202C43.2158 34.8202 42.7992 35.4695 42.7351 36.1666H45.3057ZM42.719 36.6019C42.7351 37.4492 43.1277 38.1624 44.1119 38.1624C44.6807 38.1624 45.1535 37.7581 45.2736 37.2119H45.7784C45.53 38.1624 44.9291 38.5977 43.9596 38.5977C42.7591 38.5977 42.1982 37.5763 42.1982 36.4909C42.1982 35.4141 42.7992 34.3849 43.993 34.3849C45.3377 34.3849 45.8252 35.3586 45.8252 36.6019H42.719Z" fill="#6A6F82"/>
        <path d="M49.0947 38.4795V32.7615H49.928L52.098 37.7431L54.3161 32.7615H55.1093V38.4795H54.5885V33.1968H54.5725L52.3624 38.4795H51.8416L49.6316 33.2206H49.6155V38.4795H49.0947Z" fill="#6A6F82"/>
        <path d="M58.0259 34.8202C57.0577 34.8202 56.6731 35.7545 56.6731 36.4909C56.6731 37.228 57.0577 38.1624 58.0259 38.1624C58.9954 38.1624 59.38 37.228 59.38 36.4909C59.38 35.7545 58.9954 34.8202 58.0259 34.8202ZM59.9008 36.4909C59.9008 37.5369 59.3079 38.5977 58.0259 38.5977C56.7453 38.5977 56.1523 37.5369 56.1523 36.4909C56.1523 35.4456 56.7453 34.3849 58.0259 34.3849C59.3079 34.3849 59.9008 35.4456 59.9008 36.4909Z" fill="#6A6F82"/>
        <path d="M61.2929 38.4795H60.8135V35.399C60.8135 35.0901 60.7895 34.7728 60.7734 34.5039H61.2702L61.2929 35.0901L61.3103 35.1056C61.5907 34.6148 62.0461 34.3853 62.5669 34.3853C63.8809 34.3853 63.985 35.5331 63.985 35.9929V38.4795H63.5043V35.9136C63.5043 35.2242 63.1037 34.8206 62.4467 34.8206C61.6548 34.8206 61.2929 35.4776 61.2929 36.1909V38.4795" fill="#6A6F82"/>
        <path d="M68.0534 36.1666C67.9973 35.3986 67.582 34.8202 66.7487 34.8202C65.9648 34.8202 65.5482 35.4695 65.4841 36.1666H68.0534ZM65.4667 36.6019C65.4841 37.4492 65.8767 38.1624 66.8609 38.1624C67.4297 38.1624 67.9025 37.7581 68.0226 37.2119H68.5274C68.2777 38.1624 67.6781 38.5977 66.7086 38.5977C65.5081 38.5977 64.9473 37.5763 64.9473 36.4909C64.9473 35.4141 65.5482 34.3849 66.7407 34.3849C68.0867 34.3849 68.5742 35.3586 68.5742 36.6019H65.4667Z" fill="#6A6F82"/>
        <path d="M71.0174 34.8202C70.1053 34.8202 69.8076 35.6597 69.8076 36.42C69.8076 37.1564 70.0252 38.1624 70.9453 38.1624C71.9949 38.1624 72.3154 37.2989 72.3154 36.3961C72.3154 35.5881 71.9549 34.8202 71.0174 34.8202ZM72.3314 37.8928L72.3154 37.8613C71.9869 38.3366 71.4982 38.5977 70.9373 38.5977C69.7448 38.5977 69.2881 37.4731 69.2881 36.4755C69.2881 35.4456 69.7448 34.3849 70.9373 34.3849C71.4741 34.3849 72.0336 34.6383 72.3154 35.1052L72.3314 35.0897V32.7611H72.8108V37.5839C72.8108 37.8928 72.8362 38.2095 72.8509 38.4791H72.3555L72.3314 37.8928" fill="#6A6F82"/>
        <path d="M75.0069 38.1624C76.0565 38.1624 76.2568 37.3067 76.2074 36.4755C75.5277 36.4994 74.1015 36.3723 74.1015 37.3705C74.1015 37.9089 74.5181 38.1624 75.0069 38.1624ZM76.2074 35.6752C76.1607 35.0258 75.8242 34.8202 75.2553 34.8202C74.7505 34.8202 74.3352 34.9703 74.2698 35.5094H73.7583C73.8785 34.6938 74.4941 34.3849 75.2633 34.3849C76.1513 34.3849 76.7055 34.7885 76.6882 35.6991V37.5839C76.6801 37.8928 76.7122 38.2095 76.7296 38.4791H76.2328L76.2168 37.8928H76.2007L76.1767 37.9483C76.0004 38.2811 75.4636 38.5977 74.9188 38.5977C74.1736 38.5977 73.582 38.1463 73.582 37.3705C73.582 36.8314 73.9105 36.42 74.3913 36.222C74.9268 35.9925 75.6238 36.0718 76.2074 36.0395V35.6752Z" fill="#6A6F82"/>
        <path d="M80.0146 34.5039L81.3673 37.8301L82.7134 34.5039H83.2329L81.0148 40H80.486L81.0949 38.4795L79.4297 34.5039H80.0146Z" fill="#6A6F82"/>
        <path d="M86.4534 33.2369H84.5879V32.7615H88.8157V33.2369H86.9822L86.9742 38.4795H86.4614L86.4534 33.2369" fill="#6A6F82"/>
        <path d="M89.4983 34.5039H89.9789V38.4795H89.4983V34.5039ZM90.0177 33.3554H89.457V32.7615H90.0177V33.3554Z" fill="#6A6F82"/>
        <path d="M91.6605 35.0901L91.6765 35.1056C91.9556 34.6148 92.4136 34.3853 92.9331 34.3853C93.5661 34.3853 94.0628 34.7336 94.2391 35.2564C94.5356 34.7889 94.9989 34.3853 95.6239 34.3853C96.9366 34.3853 97.0421 35.5331 97.0421 35.9929V38.4795H96.5613V35.9136C96.5613 35.2242 96.1607 34.8206 95.5037 34.8206C94.7105 34.8206 94.3513 35.4776 94.3513 36.1909V38.4795H93.8705V35.9136C93.8705 35.2242 93.4699 34.8206 92.8142 34.8206C92.021 34.8206 91.6605 35.4776 91.6605 36.1909V38.4795H91.1797V35.399C91.1797 35.0901 91.1557 34.7728 91.1396 34.5039H91.6364L91.6605 35.0901Z" fill="#6A6F82"/>
        <path d="M98.6282 36.4122C98.6282 37.315 98.9487 38.1624 99.9983 38.1624C100.918 38.1624 101.151 37.1725 101.151 36.4355C101.151 35.6752 100.838 34.8202 99.9262 34.8202C98.9888 34.8202 98.6282 35.6042 98.6282 36.4122ZM98.6055 38.4791H98.1074C98.1248 38.2095 98.1488 37.8928 98.1488 37.5839V32.7611H98.6282V35.0897L98.6443 35.1052C98.9247 34.6383 99.4856 34.3849 100.021 34.3849C101.215 34.3849 101.672 35.4456 101.672 36.4755C101.672 37.4731 101.215 38.5977 100.046 38.5977C99.4615 38.5977 98.9728 38.3366 98.6443 37.8613L98.6282 37.8928L98.6055 38.4791" fill="#6A6F82"/>
        <path d="M103.083 38.4795H102.603V35.399C102.611 35.0901 102.579 34.7728 102.562 34.5039H103.059L103.083 35.0901H103.099C103.244 34.6857 103.604 34.4007 104.003 34.3853C104.164 34.3768 104.324 34.3853 104.484 34.393V34.8522C104.388 34.8444 104.284 34.8206 104.188 34.8206C103.475 34.8206 103.099 35.3275 103.083 36.0876V38.4795Z" fill="#6A6F82"/>
        <path d="M108.056 36.1666C108 35.3986 107.584 34.8202 106.751 34.8202C105.966 34.8202 105.549 35.4695 105.485 36.1666H108.056ZM105.469 36.6019C105.485 37.4492 105.878 38.1624 106.862 38.1624C107.431 38.1624 107.903 37.7581 108.024 37.2119H108.528C108.28 38.1624 107.679 38.5977 106.711 38.5977C105.509 38.5977 104.948 37.5763 104.948 36.4909C104.948 35.4141 105.549 34.3849 106.743 34.3849C108.088 34.3849 108.576 35.3586 108.576 36.6019H105.469Z" fill="#6A6F82"/>
    </g>
    <defs>
        <clipPath id="clip0">
            <path d="M0.5 0H131.5V40H0.5V0Z" fill="white"/>
        </clipPath>
    </defs>
</svg>
