<svg width="512" height="512" viewBox="0 0 512 512" fill="none" xmlns="http://www.w3.org/2000/svg">
    <g clip-path="url(#clip0)">
        <path d="M490.667 42.6667C490.638 19.1142 471.552 0.0282122 448 0H106.667C83.1142 0.0282122 64.0282 19.1142 64 42.6667V341.333C64 346.046 67.8205 349.867 72.5333 349.867C77.2462 349.867 81.0667 346.046 81.0667 341.333V42.6667C81.0667 28.5282 92.5282 17.0667 106.667 17.0667H448C462.139 17.0667 473.6 28.5282 473.6 42.6667V375.467H413.867C390.314 375.495 371.228 394.581 371.2 418.133V477.867H209.067C204.354 477.867 200.533 481.687 200.533 486.4C200.533 491.113 204.354 494.933 209.067 494.933H379.733C381.996 494.933 384.166 494.034 385.766 492.433L488.166 390.033C489.767 388.433 490.666 386.263 490.667 384V42.6667ZM413.867 392.533H461.534L388.267 465.801V418.133C388.267 403.995 399.728 392.533 413.867 392.533Z" fill="#181B5E"/>
        <path d="M21.3331 409.6C21.3077 418.658 24.9093 427.348 31.3342 433.732L99.6009 501.999C105.989 508.418 114.677 512.019 123.733 512C124.638 512 125.551 512 126.481 511.889C136.463 511.09 145.588 505.941 151.432 497.809L305.032 284.476C312.318 274.586 313.728 261.544 308.724 250.326C303.721 239.108 293.075 231.443 280.849 230.257C268.622 229.07 256.702 234.544 249.634 244.591L238.865 259.55C237.009 262.021 236.635 265.302 237.885 268.127C239.136 270.953 241.816 272.882 244.892 273.17C247.969 273.458 250.961 272.061 252.714 269.517L263.484 254.567C266.991 249.478 272.975 246.684 279.128 247.26C285.281 247.837 290.641 251.694 293.142 257.346C295.643 262.997 294.894 269.559 291.183 274.5L137.583 487.834C134.669 491.9 130.111 494.476 125.124 494.874C120.133 495.263 115.22 493.459 111.667 489.933L43.4003 421.666C36.7378 415.002 36.7378 404.199 43.4003 397.534C50.1516 391.084 60.7813 391.084 67.5326 397.534L114.517 444.51C116.278 446.295 118.743 447.202 121.241 446.985C123.733 446.782 126.009 445.497 127.471 443.469L228.164 303.65C230.02 301.179 230.394 297.899 229.144 295.073C227.893 292.247 225.213 290.318 222.137 290.03C219.06 289.742 216.068 291.139 214.314 293.683L119.466 425.353L79.6073 385.468C66.0931 372.589 44.8484 372.589 31.3342 385.468C24.9093 391.852 21.3077 400.543 21.3331 409.6V409.6Z" fill="#181B5E"/>
        <path d="M140.8 51.2002H123.734C119.021 51.2002 115.2 55.0207 115.2 59.7335C115.2 64.4464 119.021 68.2669 123.734 68.2669H140.8C145.513 68.2669 149.334 64.4464 149.334 59.7335C149.334 55.0207 145.513 51.2002 140.8 51.2002Z" fill="#181B5E"/>
        <path d="M430.933 51.2002H174.933C170.22 51.2002 166.399 55.0207 166.399 59.7335C166.399 64.4464 170.22 68.2669 174.933 68.2669H430.933C435.646 68.2669 439.466 64.4464 439.466 59.7335C439.466 55.0207 435.646 51.2002 430.933 51.2002Z" fill="#181B5E"/>
        <path d="M140.8 102.4H123.734C119.021 102.4 115.2 106.221 115.2 110.934C115.2 115.647 119.021 119.467 123.734 119.467H140.8C145.513 119.467 149.334 115.647 149.334 110.934C149.334 106.221 145.513 102.4 140.8 102.4Z" fill="#181B5E"/>
        <path d="M174.933 119.467H371.199C375.912 119.467 379.733 115.647 379.733 110.934C379.733 106.221 375.912 102.4 371.199 102.4H174.933C170.22 102.4 166.399 106.221 166.399 110.934C166.399 115.647 170.22 119.467 174.933 119.467Z" fill="#181B5E"/>
        <path d="M140.8 153.6H123.734C119.021 153.6 115.2 157.42 115.2 162.133C115.2 166.846 119.021 170.666 123.734 170.666H140.8C145.513 170.666 149.334 166.846 149.334 162.133C149.334 157.42 145.513 153.6 140.8 153.6Z" fill="#181B5E"/>
        <path d="M174.933 170.666H311.466C316.179 170.666 319.999 166.846 319.999 162.133C319.999 157.42 316.179 153.6 311.466 153.6H174.933C170.22 153.6 166.399 157.42 166.399 162.133C166.399 166.846 170.22 170.666 174.933 170.666Z" fill="#181B5E"/>
        <path d="M456.533 179.2C456.533 174.487 452.713 170.667 448 170.667C443.287 170.667 439.467 174.487 439.467 179.2V298.667C439.467 303.38 443.287 307.2 448 307.2C452.713 307.2 456.533 303.38 456.533 298.667V179.2Z" fill="#181B5E"/>
        <path d="M448 324.267C443.287 324.267 439.467 328.087 439.467 332.8V349.867C439.467 354.579 443.287 358.4 448 358.4C452.713 358.4 456.533 354.579 456.533 349.867V332.8C456.533 328.087 452.713 324.267 448 324.267Z" fill="#181B5E"/>
    </g>
    <defs>
        <clipPath id="clip0">
            <rect width="512" height="512" fill="white"/>
        </clipPath>
    </defs>
</svg>
