<svg height="512" viewBox="0 0 55 60" width="512" xmlns="http://www.w3.org/2000/svg"><g id="Page-1" fill="none" fill-rule="evenodd"><g id="021---Tick-File" fill="rgb(0,0,0)" fill-rule="nonzero"><path id="Shape" d="m55 5c-.0033061-2.76005315-2.2399468-4.99669388-5-5h-40c-2.76005315.00330612-4.99669388 2.23994685-5 5v35c0 .5522847.44771525 1 1 1s1-.4477153 1-1v-35c0-1.65685425 1.34314575-3 3-3h40c1.6568542 0 3 1.34314575 3 3v39h-7c-2.7600532.0033061-4.9966939 2.2399468-5 5v7h-19c-.5522847 0-1 .4477153-1 1s.4477153 1 1 1h20c.2651948-.0000566.5195073-.1054506.707-.293l12-12c.1875494-.1874927.2929434-.4418052.293-.707zm-9 41h5.586l-8.586 8.586v-5.586c0-1.6568542 1.3431458-3 3-3z"/><path id="Shape" d="m0 48c-.00298582 1.0614164.41908117 2.079851 1.172 2.828l8 8c.74859191.752258 1.7667379 1.1742054 2.828 1.172.106 0 .213 0 .322-.013 1.1697742-.0936073 2.2391488-.6970505 2.924-1.65l18-25c.8538028-1.158945 1.0190332-2.6872739.4326548-4.0019195-.5863785-1.3146456-1.833919-2.2128287-3.2666771-2.3518867s-2.8297359.5024582-3.6579777 1.6798062l-1.262 1.753c-.2174322.2895549-.2613465.6740307-.1148076 1.0051579.1465388.3311271.4606341.5571674.8211581.5909505.3605239.0337831.711145-.1299696.9166495-.4281084l1.262-1.752c.411009-.5962775 1.1122512-.9237829 1.8332991-.8562168.7210479.0675662 1.3492386.5196467 1.6423162 1.181901.2930776.6622544.2052491 1.4312059-.2296153 2.0103158l-18 25c-.3414713.4765374-.8756069.7783606-1.46.825-.5848717.0456442-1.1606156-.1657418-1.577-.579l-8-8c-.78076388-.7809997-.78076388-2.0470003 0-2.828.791167-.755814 2.036833-.755814 2.828 0l5.506 5.505c.2064025.2091466.4952604.3154522.788.29.2919277-.0237991.5587455-.1743867.73-.412l11.8-16.385c.2174322-.2895549.2613465-.6740307.1148076-1.0051579-.1465388-.3311271-.4606341-.5571674-.8211581-.5909505-.3605239-.0337831-.711145.1299696-.9166495.4281084l-11.115 15.43-4.671-4.674c-1.58369059-1.5092067-4.07330941-1.5092067-5.657 0-.75291883.748149-1.17498582 1.7665836-1.172 2.828z"/><path id="Shape" d="m14 6h-2c-.5522847 0-1 .44771525-1 1s.4477153 1 1 1h2c.5522847 0 1-.44771525 1-1s-.4477153-1-1-1z"/><path id="Shape" d="m48 6h-30c-.5522847 0-1 .44771525-1 1s.4477153 1 1 1h30c.5522847 0 1-.44771525 1-1s-.4477153-1-1-1z"/><path id="Shape" d="m14 12h-2c-.5522847 0-1 .4477153-1 1s.4477153 1 1 1h2c.5522847 0 1-.4477153 1-1s-.4477153-1-1-1z"/><path id="Shape" d="m18 14h23c.5522847 0 1-.4477153 1-1s-.4477153-1-1-1h-23c-.5522847 0-1 .4477153-1 1s.4477153 1 1 1z"/><path id="Shape" d="m14 18h-2c-.5522847 0-1 .4477153-1 1s.4477153 1 1 1h2c.5522847 0 1-.4477153 1-1s-.4477153-1-1-1z"/><path id="Shape" d="m18 20h16c.5522847 0 1-.4477153 1-1s-.4477153-1-1-1h-16c-.5522847 0-1 .4477153-1 1s.4477153 1 1 1z"/><path id="Shape" d="m51 21c0-.5522847-.4477153-1-1-1s-1 .4477153-1 1v14c0 .5522847.4477153 1 1 1s1-.4477153 1-1z"/><path id="Shape" d="m50 38c-.5522847 0-1 .4477153-1 1v2c0 .5522847.4477153 1 1 1s1-.4477153 1-1v-2c0-.5522847-.4477153-1-1-1z"/></g></g></svg>