<svg width="470" height="512" viewBox="0 0 470 512" fill="none" xmlns="http://www.w3.org/2000/svg">
    <path d="M469.667 42.6667C469.638 19.1142 450.552 0.0282122 427 0H85.6667C62.1142 0.0282122 43.0282 19.1142 43 42.6667V341.333C43 346.046 46.8205 349.867 51.5333 349.867C56.2462 349.867 60.0667 346.046 60.0667 341.333V42.6667C60.0667 28.5282 71.5282 17.0667 85.6667 17.0667H427C441.139 17.0667 452.6 28.5282 452.6 42.6667V375.467H392.867C369.314 375.495 350.228 394.581 350.2 418.133V477.867H188.067C183.354 477.867 179.533 481.687 179.533 486.4C179.533 491.113 183.354 494.933 188.067 494.933H358.733C360.996 494.933 363.166 494.034 364.766 492.433L467.166 390.033C468.767 388.433 469.666 386.263 469.667 384V42.6667ZM392.867 392.533H440.534L367.267 465.801V418.133C367.267 403.995 378.728 392.533 392.867 392.533Z" fill="#181B5E"/>
    <path d="M0.333142 409.6C0.307663 418.658 3.9093 427.348 10.3342 433.732L78.6009 501.999C84.9889 508.418 93.677 512.019 102.733 512C103.638 512 104.551 512 105.481 511.889C115.463 511.09 124.588 505.941 130.432 497.809L284.032 284.476C291.318 274.586 292.728 261.544 287.724 250.326C282.721 239.108 272.075 231.443 259.849 230.257C247.622 229.07 235.702 234.544 228.634 244.591L217.865 259.55C216.009 262.021 215.635 265.302 216.885 268.127C218.136 270.953 220.816 272.882 223.892 273.17C226.969 273.458 229.961 272.061 231.714 269.517L242.484 254.567C245.991 249.478 251.975 246.684 258.128 247.26C264.281 247.837 269.641 251.694 272.142 257.346C274.643 262.997 273.894 269.559 270.183 274.5L116.583 487.834C113.669 491.9 109.111 494.476 104.124 494.874C99.1332 495.263 94.2202 493.459 90.667 489.933L22.4003 421.666C15.7378 415.002 15.7378 404.199 22.4003 397.534C29.1516 391.084 39.7813 391.084 46.5326 397.534L93.5171 444.51C95.2784 446.295 97.7434 447.202 100.241 446.985C102.733 446.782 105.009 445.497 106.471 443.469L207.164 303.65C209.02 301.179 209.394 297.899 208.144 295.073C206.893 292.247 204.213 290.318 201.137 290.03C198.06 289.742 195.068 291.139 193.314 293.683L98.4665 425.353L58.6073 385.468C45.0931 372.589 23.8484 372.589 10.3342 385.468C3.9093 391.852 0.307663 400.543 0.333142 409.6V409.6Z" fill="#181B5E"/>
    <path d="M119.8 51.2002H102.733C98.0202 51.2002 94.1997 55.0207 94.1997 59.7335C94.1997 64.4464 98.0202 68.2669 102.733 68.2669H119.8C124.513 68.2669 128.333 64.4464 128.333 59.7335C128.333 55.0207 124.513 51.2002 119.8 51.2002Z" fill="#181B5E"/>
    <path d="M409.933 51.2002H153.933C149.22 51.2002 145.4 55.0207 145.4 59.7335C145.4 64.4464 149.22 68.2669 153.933 68.2669H409.933C414.646 68.2669 418.467 64.4464 418.467 59.7335C418.467 55.0207 414.646 51.2002 409.933 51.2002Z" fill="#181B5E"/>
    <path d="M119.8 102.4H102.733C98.0202 102.4 94.1997 106.221 94.1997 110.934C94.1997 115.647 98.0202 119.467 102.733 119.467H119.8C124.513 119.467 128.333 115.647 128.333 110.934C128.333 106.221 124.513 102.4 119.8 102.4Z" fill="#181B5E"/>
    <path d="M153.933 119.467H350.2C354.913 119.467 358.733 115.647 358.733 110.934C358.733 106.221 354.913 102.4 350.2 102.4H153.933C149.22 102.4 145.4 106.221 145.4 110.934C145.4 115.647 149.22 119.467 153.933 119.467Z" fill="#181B5E"/>
    <path d="M119.8 153.6H102.733C98.0202 153.6 94.1997 157.42 94.1997 162.133C94.1997 166.846 98.0202 170.666 102.733 170.666H119.8C124.513 170.666 128.333 166.846 128.333 162.133C128.333 157.42 124.513 153.6 119.8 153.6Z" fill="#181B5E"/>
    <path d="M153.933 170.666H290.467C295.179 170.666 299 166.846 299 162.133C299 157.42 295.179 153.6 290.467 153.6H153.933C149.22 153.6 145.4 157.42 145.4 162.133C145.4 166.846 149.22 170.666 153.933 170.666Z" fill="#181B5E"/>
    <path d="M435.533 179.2C435.533 174.487 431.712 170.667 427 170.667C422.287 170.667 418.466 174.487 418.466 179.2V298.667C418.466 303.38 422.287 307.2 427 307.2C431.712 307.2 435.533 303.38 435.533 298.667V179.2Z" fill="#181B5E"/>
    <path d="M427 324.267C422.287 324.267 418.466 328.087 418.466 332.8V349.867C418.466 354.579 422.287 358.4 427 358.4C431.712 358.4 435.533 354.579 435.533 349.867V332.8C435.533 328.087 431.712 324.267 427 324.267Z" fill="#181B5E"/>
</svg>
