<svg width="372" height="128" viewBox="0 0 372 128" fill="none" xmlns="http://www.w3.org/2000/svg">
    <g filter="url(#filter0_d)">
        <rect x="4" width="364" height="120" rx="10" fill="white"/>
        <path d="M63.3 45.8V54.48C63.3 55.96 62.9 57.12 62.1 57.96C61.3133 58.7867 60.22 59.2 58.82 59.2C57.8333 59.2 57.02 59.0133 56.38 58.64C55.74 58.2667 55.2933 57.74 55.04 57.06C54.8 56.3667 54.7667 55.56 54.94 54.64L56.42 54.34C56.2733 55.4733 56.3733 56.32 56.72 56.88C57.08 57.4267 57.76 57.7 58.76 57.7C59.8933 57.7 60.6667 57.3933 61.08 56.78C61.4933 56.1533 61.7 55.2533 61.7 54.08V45.8H63.3ZM71.1719 48.8C72.1185 48.8 72.9519 49.0067 73.6719 49.42C74.4052 49.8333 74.9785 50.4333 75.3919 51.22C75.8052 51.9933 76.0119 52.92 76.0119 54C76.0119 55.08 75.8052 56.0133 75.3919 56.8C74.9785 57.5733 74.4052 58.1667 73.6719 58.58C72.9519 58.9933 72.1185 59.2 71.1719 59.2C70.2385 59.2 69.4052 58.9933 68.6719 58.58C67.9385 58.1667 67.3652 57.5733 66.9519 56.8C66.5385 56.0133 66.3319 55.08 66.3319 54C66.3319 52.92 66.5385 51.9933 66.9519 51.22C67.3652 50.4333 67.9385 49.8333 68.6719 49.42C69.4052 49.0067 70.2385 48.8 71.1719 48.8ZM71.1719 50.18C70.4919 50.18 69.9119 50.3333 69.4319 50.64C68.9519 50.9467 68.5785 51.3867 68.3119 51.96C68.0585 52.52 67.9319 53.2 67.9319 54C67.9319 54.7867 68.0585 55.4667 68.3119 56.04C68.5785 56.6133 68.9519 57.0533 69.4319 57.36C69.9119 57.6667 70.4919 57.82 71.1719 57.82C71.8519 57.82 72.4319 57.6667 72.9119 57.36C73.3919 57.0533 73.7585 56.6133 74.0119 56.04C74.2785 55.4667 74.4119 54.7867 74.4119 54C74.4119 53.2 74.2785 52.52 74.0119 51.96C73.7585 51.3867 73.3919 50.9467 72.9119 50.64C72.4319 50.3333 71.8519 50.18 71.1719 50.18ZM79.0241 59V44.4H80.6241V50.5C80.9707 49.9 81.4307 49.4667 82.0041 49.2C82.5774 48.9333 83.2041 48.8 83.8841 48.8C84.6041 48.8 85.2574 48.94 85.8441 49.22C86.4307 49.4867 86.8974 49.9 87.2441 50.46C87.6041 51.02 87.7841 51.7333 87.7841 52.6V59H86.1841V53.16C86.1841 52.0533 85.9441 51.2867 85.4641 50.86C84.9974 50.42 84.4174 50.2 83.7241 50.2C83.2441 50.2 82.7641 50.3133 82.2841 50.54C81.8041 50.7667 81.4041 51.14 81.0841 51.66C80.7774 52.1667 80.6241 52.8467 80.6241 53.7V59H79.0241ZM91.4069 59V49H92.8069L92.9469 51.24L92.6869 51.02C92.9002 50.4867 93.1869 50.06 93.5469 49.74C93.9069 49.4067 94.3202 49.1667 94.7869 49.02C95.2669 48.8733 95.7602 48.8 96.2669 48.8C96.9869 48.8 97.6402 48.94 98.2269 49.22C98.8135 49.4867 99.2802 49.9 99.6269 50.46C99.9869 51.02 100.167 51.7333 100.167 52.6V59H98.5669V53.16C98.5669 52.0533 98.3269 51.2867 97.8469 50.86C97.3802 50.42 96.8002 50.2 96.1069 50.2C95.6269 50.2 95.1469 50.3133 94.6669 50.54C94.1869 50.7667 93.7869 51.1333 93.4669 51.64C93.1602 52.1467 93.0069 52.8267 93.0069 53.68V59H91.4069ZM115.166 45.8C117.233 45.8 118.853 46.3733 120.026 47.52C121.213 48.6533 121.806 50.28 121.806 52.4C121.806 54.52 121.213 56.1533 120.026 57.3C118.853 58.4333 117.233 59 115.166 59H110.906V45.8H115.166ZM115.326 57.5C116.833 57.5 118.006 57.0533 118.846 56.16C119.699 55.2533 120.126 54 120.126 52.4C120.126 50.8 119.699 49.5533 118.846 48.66C118.006 47.7533 116.833 47.3 115.326 47.3H112.506V57.5H115.326ZM129.16 48.8C130.107 48.8 130.94 49.0067 131.66 49.42C132.393 49.8333 132.967 50.4333 133.38 51.22C133.793 51.9933 134 52.92 134 54C134 55.08 133.793 56.0133 133.38 56.8C132.967 57.5733 132.393 58.1667 131.66 58.58C130.94 58.9933 130.107 59.2 129.16 59.2C128.227 59.2 127.393 58.9933 126.66 58.58C125.927 58.1667 125.353 57.5733 124.94 56.8C124.527 56.0133 124.32 55.08 124.32 54C124.32 52.92 124.527 51.9933 124.94 51.22C125.353 50.4333 125.927 49.8333 126.66 49.42C127.393 49.0067 128.227 48.8 129.16 48.8ZM129.16 50.18C128.48 50.18 127.9 50.3333 127.42 50.64C126.94 50.9467 126.567 51.3867 126.3 51.96C126.047 52.52 125.92 53.2 125.92 54C125.92 54.7867 126.047 55.4667 126.3 56.04C126.567 56.6133 126.94 57.0533 127.42 57.36C127.9 57.6667 128.48 57.82 129.16 57.82C129.84 57.82 130.42 57.6667 130.9 57.36C131.38 57.0533 131.747 56.6133 132 56.04C132.267 55.4667 132.4 54.7867 132.4 54C132.4 53.2 132.267 52.52 132 51.96C131.747 51.3867 131.38 50.9467 130.9 50.64C130.42 50.3333 129.84 50.18 129.16 50.18ZM141.192 59.2C140.246 59.2 139.399 58.9933 138.652 58.58C137.919 58.1667 137.346 57.5733 136.932 56.8C136.519 56.0133 136.312 55.08 136.312 54C136.312 52.92 136.519 51.9933 136.932 51.22C137.346 50.4333 137.912 49.8333 138.632 49.42C139.352 49.0067 140.172 48.8 141.092 48.8C142.026 48.8 142.819 49 143.472 49.4C144.139 49.8 144.646 50.3467 144.992 51.04C145.339 51.72 145.512 52.4867 145.512 53.34C145.512 53.5667 145.506 53.7733 145.492 53.96C145.479 54.1467 145.459 54.3133 145.432 54.46H137.352V53.04H144.732L143.912 53.2C143.912 52.24 143.646 51.5 143.112 50.98C142.592 50.46 141.906 50.2 141.052 50.2C140.399 50.2 139.832 50.3533 139.352 50.66C138.886 50.9533 138.519 51.3867 138.252 51.96C137.999 52.52 137.872 53.2 137.872 54C137.872 54.7867 138.006 55.4667 138.272 56.04C138.539 56.6133 138.912 57.0533 139.392 57.36C139.886 57.6533 140.472 57.8 141.152 57.8C141.886 57.8 142.479 57.66 142.932 57.38C143.399 57.1 143.772 56.72 144.052 56.24L145.312 56.98C145.059 57.4333 144.732 57.8267 144.332 58.16C143.946 58.4933 143.486 58.7533 142.952 58.94C142.432 59.1133 141.846 59.2 141.192 59.2ZM58.16 82V72.32C58.16 72.0933 58.16 71.8533 58.16 71.6C58.1733 71.3333 58.1867 71.06 58.2 70.78C57.7467 71.22 57.22 71.6067 56.62 71.94C56.02 72.26 55.4067 72.4933 54.78 72.64L54.36 71.18C54.6 71.1533 54.9 71.0667 55.26 70.92C55.6333 70.76 56.02 70.5667 56.42 70.34C56.8333 70.1 57.2133 69.8467 57.56 69.58C57.9067 69.3133 58.1733 69.0533 58.36 68.8H59.76V82H58.16ZM63.273 82V80.7C64.593 79.7267 65.693 78.8733 66.573 78.14C67.4663 77.4067 68.1796 76.74 68.713 76.14C69.2463 75.54 69.6263 74.9733 69.853 74.44C70.0796 73.8933 70.193 73.3267 70.193 72.74C70.193 71.9533 69.9396 71.32 69.433 70.84C68.9396 70.3467 68.2596 70.1 67.393 70.1C66.4863 70.1 65.7596 70.4 65.213 71C64.6663 71.5867 64.3463 72.3733 64.253 73.36L62.853 72.52C62.973 71.7467 63.2196 71.0667 63.593 70.48C63.9796 69.8933 64.493 69.4333 65.133 69.1C65.7863 68.7667 66.5596 68.6 67.453 68.6C68.133 68.6 68.7396 68.7 69.273 68.9C69.8196 69.1 70.2863 69.3867 70.673 69.76C71.0596 70.12 71.353 70.5533 71.553 71.06C71.7663 71.5667 71.873 72.1267 71.873 72.74C71.873 73.5667 71.673 74.38 71.273 75.18C70.873 75.9667 70.213 76.7933 69.293 77.66C68.373 78.5267 67.1263 79.4867 65.553 80.54V80.56C65.6996 80.5467 65.8996 80.54 66.153 80.54C66.4196 80.5267 66.6796 80.52 66.933 80.52C67.1996 80.5067 67.3996 80.5 67.533 80.5H72.153V82H63.273ZM79.2531 82.2C78.0798 82.2 77.0398 81.9267 76.1331 81.38C75.2398 80.82 74.6331 80.0533 74.3131 79.08L75.9131 78.26C76.0731 78.7533 76.2931 79.1867 76.5731 79.56C76.8531 79.92 77.2198 80.2 77.6731 80.4C78.1398 80.6 78.7198 80.7 79.4131 80.7C79.9998 80.7 80.4931 80.5933 80.8931 80.38C81.2931 80.1667 81.5998 79.88 81.8131 79.52C82.0265 79.1467 82.1331 78.72 82.1331 78.24C82.1331 77.76 82.0398 77.36 81.8531 77.04C81.6798 76.72 81.3998 76.4867 81.0131 76.34C80.6265 76.18 80.1198 76.1 79.4931 76.1C79.3465 76.1 79.1865 76.1067 79.0131 76.12C78.8398 76.12 78.6598 76.1333 78.4731 76.16V74.56C78.5931 74.5733 78.7065 74.58 78.8131 74.58C78.9331 74.58 79.0398 74.58 79.1331 74.58C80.1065 74.58 80.7998 74.3933 81.2131 74.02C81.6265 73.6333 81.8331 73.0333 81.8331 72.22C81.8331 71.5267 81.6198 71 81.1931 70.64C80.7665 70.28 80.1598 70.1 79.3731 70.1C78.5331 70.1 77.8931 70.2867 77.4531 70.66C77.0131 71.02 76.6665 71.5133 76.4131 72.14L74.8931 71.42C75.1065 70.86 75.4265 70.3667 75.8531 69.94C76.2798 69.5133 76.7931 69.18 77.3931 68.94C78.0065 68.7 78.6798 68.58 79.4131 68.58C80.3331 68.58 81.0931 68.74 81.6931 69.06C82.2931 69.3667 82.7398 69.78 83.0331 70.3C83.3398 70.82 83.4931 71.3933 83.4931 72.02C83.4931 72.5 83.4265 72.9333 83.2931 73.32C83.1598 73.6933 82.9731 74.02 82.7331 74.3C82.5065 74.58 82.2465 74.8067 81.9531 74.98C81.6598 75.14 81.3465 75.2467 81.0131 75.3V75.34C81.4531 75.3533 81.8398 75.44 82.1731 75.6C82.5198 75.76 82.8131 75.9733 83.0531 76.24C83.2931 76.5067 83.4731 76.8133 83.5931 77.16C83.7265 77.4933 83.7931 77.8467 83.7931 78.22C83.7931 78.9933 83.5998 79.68 83.2131 80.28C82.8398 80.88 82.3131 81.3533 81.6331 81.7C80.9531 82.0333 80.1598 82.2 79.2531 82.2ZM91.0533 68.6C92.1599 68.6 93.0933 68.8933 93.8533 69.48C94.6133 70.0533 95.1866 70.8533 95.5733 71.88C95.9599 72.8933 96.1533 74.0667 96.1533 75.4C96.1533 76.88 95.9599 78.1267 95.5733 79.14C95.1866 80.14 94.6133 80.9 93.8533 81.42C93.1066 81.94 92.1799 82.2 91.0733 82.2C89.9799 82.2 89.0399 81.9467 88.2533 81.44C87.4666 80.9333 86.8799 80.1933 86.4933 79.22L88.0733 78.38C88.2866 79.0733 88.6333 79.6333 89.1133 80.06C89.6066 80.4867 90.2799 80.7 91.1333 80.7C91.8266 80.7 92.3999 80.5667 92.8533 80.3C93.3199 80.02 93.6866 79.6267 93.9533 79.12C94.2199 78.6 94.4066 77.98 94.5133 77.26C94.6333 76.54 94.6933 75.74 94.6933 74.86C94.6933 74.8333 94.6933 74.8067 94.6933 74.78C94.6933 74.74 94.6933 74.7067 94.6933 74.68H94.6133C94.4533 75.28 94.1733 75.7667 93.7733 76.14C93.3733 76.5 92.9199 76.76 92.4133 76.92C91.9199 77.08 91.4266 77.16 90.9333 77.16C90.0666 77.16 89.2999 76.9933 88.6333 76.66C87.9666 76.3133 87.4466 75.8333 87.0733 75.22C86.6999 74.6067 86.5133 73.88 86.5133 73.04C86.5133 72.1333 86.6933 71.3533 87.0533 70.7C87.4133 70.0333 87.9333 69.52 88.6133 69.16C89.2933 68.7867 90.1066 68.6 91.0533 68.6ZM91.0733 70.14C90.1399 70.14 89.4266 70.4 88.9333 70.92C88.4399 71.4267 88.1933 72.14 88.1933 73.06C88.1933 73.8467 88.4533 74.4733 88.9733 74.94C89.4933 75.3933 90.1933 75.62 91.0733 75.62C91.6466 75.62 92.1466 75.5067 92.5733 75.28C93.0133 75.04 93.3533 74.72 93.5933 74.32C93.8333 73.9067 93.9533 73.4333 93.9533 72.9C93.9533 72.34 93.8333 71.8533 93.5933 71.44C93.3533 71.0267 93.0133 70.7067 92.5733 70.48C92.1466 70.2533 91.6466 70.14 91.0733 70.14ZM102.866 82.2C101.693 82.2 100.653 81.9267 99.7464 81.38C98.8531 80.82 98.2464 80.0533 97.9264 79.08L99.5264 78.26C99.6864 78.7533 99.9064 79.1867 100.186 79.56C100.466 79.92 100.833 80.2 101.286 80.4C101.753 80.6 102.333 80.7 103.026 80.7C103.613 80.7 104.106 80.5933 104.506 80.38C104.906 80.1667 105.213 79.88 105.426 79.52C105.64 79.1467 105.746 78.72 105.746 78.24C105.746 77.76 105.653 77.36 105.466 77.04C105.293 76.72 105.013 76.4867 104.626 76.34C104.24 76.18 103.733 76.1 103.106 76.1C102.96 76.1 102.8 76.1067 102.626 76.12C102.453 76.12 102.273 76.1333 102.086 76.16V74.56C102.206 74.5733 102.32 74.58 102.426 74.58C102.546 74.58 102.653 74.58 102.746 74.58C103.72 74.58 104.413 74.3933 104.826 74.02C105.24 73.6333 105.446 73.0333 105.446 72.22C105.446 71.5267 105.233 71 104.806 70.64C104.38 70.28 103.773 70.1 102.986 70.1C102.146 70.1 101.506 70.2867 101.066 70.66C100.626 71.02 100.28 71.5133 100.026 72.14L98.5064 71.42C98.7197 70.86 99.0397 70.3667 99.4664 69.94C99.8931 69.5133 100.406 69.18 101.006 68.94C101.62 68.7 102.293 68.58 103.026 68.58C103.946 68.58 104.706 68.74 105.306 69.06C105.906 69.3667 106.353 69.78 106.646 70.3C106.953 70.82 107.106 71.3933 107.106 72.02C107.106 72.5 107.04 72.9333 106.906 73.32C106.773 73.6933 106.586 74.02 106.346 74.3C106.12 74.58 105.86 74.8067 105.566 74.98C105.273 75.14 104.96 75.2467 104.626 75.3V75.34C105.066 75.3533 105.453 75.44 105.786 75.6C106.133 75.76 106.426 75.9733 106.666 76.24C106.906 76.5067 107.086 76.8133 107.206 77.16C107.34 77.4933 107.406 77.8467 107.406 78.22C107.406 78.9933 107.213 79.68 106.826 80.28C106.453 80.88 105.926 81.3533 105.246 81.7C104.566 82.0333 103.773 82.2 102.866 82.2ZM114.887 68.62C115.74 68.62 116.48 68.76 117.107 69.04C117.733 69.32 118.22 69.72 118.567 70.24C118.913 70.7467 119.087 71.36 119.087 72.08C119.087 72.76 118.92 73.36 118.587 73.88C118.267 74.3867 117.813 74.7733 117.227 75.04V75.06C117.973 75.34 118.567 75.7667 119.007 76.34C119.46 76.9133 119.687 77.6133 119.687 78.44C119.687 79.2133 119.487 79.88 119.087 80.44C118.687 81 118.127 81.4333 117.407 81.74C116.7 82.0467 115.86 82.2 114.887 82.2C113.927 82.2 113.087 82.0467 112.367 81.74C111.647 81.4333 111.087 81 110.687 80.44C110.287 79.88 110.087 79.2133 110.087 78.44C110.087 77.6267 110.307 76.9333 110.747 76.36C111.187 75.7733 111.793 75.34 112.567 75.06V75.04C111.993 74.7867 111.533 74.4067 111.187 73.9C110.853 73.38 110.687 72.7733 110.687 72.08C110.687 71.36 110.86 70.7467 111.207 70.24C111.553 69.72 112.04 69.32 112.667 69.04C113.307 68.76 114.047 68.62 114.887 68.62ZM114.887 70.12C114.113 70.12 113.493 70.3067 113.027 70.68C112.573 71.0533 112.347 71.5733 112.347 72.24C112.347 72.8933 112.58 73.4067 113.047 73.78C113.513 74.1533 114.127 74.34 114.887 74.34C115.647 74.34 116.26 74.1533 116.727 73.78C117.193 73.4067 117.427 72.8933 117.427 72.24C117.427 71.5733 117.2 71.0533 116.747 70.68C116.293 70.3067 115.673 70.12 114.887 70.12ZM114.887 80.7C115.54 80.7 116.1 80.6067 116.567 80.42C117.033 80.22 117.393 79.94 117.647 79.58C117.9 79.2067 118.027 78.7733 118.027 78.28C118.027 77.7733 117.893 77.34 117.627 76.98C117.373 76.6067 117.013 76.3267 116.547 76.14C116.08 75.94 115.527 75.84 114.887 75.84C114.26 75.84 113.707 75.94 113.227 76.14C112.76 76.3267 112.393 76.6067 112.127 76.98C111.873 77.34 111.747 77.7733 111.747 78.28C111.747 78.7733 111.873 79.2067 112.127 79.58C112.38 79.94 112.74 80.22 113.207 80.42C113.687 80.6067 114.247 80.7 114.887 80.7ZM126.46 82.2C125.287 82.2 124.247 81.9267 123.34 81.38C122.447 80.82 121.84 80.0533 121.52 79.08L123.12 78.26C123.28 78.7533 123.5 79.1867 123.78 79.56C124.06 79.92 124.427 80.2 124.88 80.4C125.347 80.6 125.927 80.7 126.62 80.7C127.207 80.7 127.7 80.5933 128.1 80.38C128.5 80.1667 128.807 79.88 129.02 79.52C129.233 79.1467 129.34 78.72 129.34 78.24C129.34 77.76 129.247 77.36 129.06 77.04C128.887 76.72 128.607 76.4867 128.22 76.34C127.833 76.18 127.327 76.1 126.7 76.1C126.553 76.1 126.393 76.1067 126.22 76.12C126.047 76.12 125.867 76.1333 125.68 76.16V74.56C125.8 74.5733 125.913 74.58 126.02 74.58C126.14 74.58 126.247 74.58 126.34 74.58C127.313 74.58 128.007 74.3933 128.42 74.02C128.833 73.6333 129.04 73.0333 129.04 72.22C129.04 71.5267 128.827 71 128.4 70.64C127.973 70.28 127.367 70.1 126.58 70.1C125.74 70.1 125.1 70.2867 124.66 70.66C124.22 71.02 123.873 71.5133 123.62 72.14L122.1 71.42C122.313 70.86 122.633 70.3667 123.06 69.94C123.487 69.5133 124 69.18 124.6 68.94C125.213 68.7 125.887 68.58 126.62 68.58C127.54 68.58 128.3 68.74 128.9 69.06C129.5 69.3667 129.947 69.78 130.24 70.3C130.547 70.82 130.7 71.3933 130.7 72.02C130.7 72.5 130.633 72.9333 130.5 73.32C130.367 73.6933 130.18 74.02 129.94 74.3C129.713 74.58 129.453 74.8067 129.16 74.98C128.867 75.14 128.553 75.2467 128.22 75.3V75.34C128.66 75.3533 129.047 75.44 129.38 75.6C129.727 75.76 130.02 75.9733 130.26 76.24C130.5 76.5067 130.68 76.8133 130.8 77.16C130.933 77.4933 131 77.8467 131 78.22C131 78.9933 130.807 79.68 130.42 80.28C130.047 80.88 129.52 81.3533 128.84 81.7C128.16 82.0333 127.367 82.2 126.46 82.2ZM132.32 68.8H142.04V70.3C140.933 71.4733 140.026 72.68 139.32 73.92C138.626 75.1467 138.12 76.4267 137.8 77.76C137.48 79.0933 137.32 80.5067 137.32 82H135.68C135.68 80.52 135.86 79.0733 136.22 77.66C136.593 76.2333 137.153 74.8667 137.9 73.56C138.646 72.2533 139.573 71.0333 140.68 69.9L140.94 70.3H132.32V68.8ZM150.095 75.94V77.6H143.495V75.94H150.095ZM161.431 68.8L156.711 76.84V82H155.111V76.84L150.391 68.8H152.291L154.851 73.32L155.911 75.2L156.971 73.32L159.531 68.8H161.431Z" fill="#181B5E"/>
        <path opacity="0.5" d="M57.74 18.1C57.1133 18.1 56.57 17.9633 56.11 17.69C55.6567 17.41 55.3033 17.0167 55.05 16.51C54.8033 16.0033 54.68 15.4 54.68 14.7C54.68 14 54.81 13.3967 55.07 12.89C55.3367 12.3833 55.7067 11.9933 56.18 11.72C56.6533 11.44 57.1967 11.3 57.81 11.3C58.4633 11.3 58.9933 11.4233 59.4 11.67C59.8133 11.9167 60.1467 12.2967 60.4 12.81L59.67 13.21C59.5233 12.83 59.29 12.5433 58.97 12.35C58.6567 12.15 58.27 12.05 57.81 12.05C57.3633 12.05 56.9667 12.1567 56.62 12.37C56.28 12.5767 56.01 12.88 55.81 13.28C55.6167 13.6733 55.52 14.1467 55.52 14.7C55.52 15.2533 55.6033 15.73 55.77 16.13C55.9433 16.5233 56.1967 16.8267 56.53 17.04C56.87 17.2467 57.2833 17.35 57.77 17.35C58.0433 17.35 58.2967 17.3167 58.53 17.25C58.77 17.1767 58.9767 17.07 59.15 16.93C59.33 16.79 59.47 16.6133 59.57 16.4C59.67 16.1867 59.72 15.9367 59.72 15.65V15.42H57.62V14.67H60.45V18H59.82L59.78 16.77L59.95 16.8C59.7767 17.2133 59.5033 17.5333 59.13 17.76C58.7567 17.9867 58.2933 18.1 57.74 18.1ZM64.2363 12.9C64.7097 12.9 65.1263 13.0033 65.4863 13.21C65.853 13.4167 66.1397 13.7167 66.3463 14.11C66.553 14.4967 66.6563 14.96 66.6563 15.5C66.6563 16.04 66.553 16.5067 66.3463 16.9C66.1397 17.2867 65.853 17.5833 65.4863 17.79C65.1263 17.9967 64.7097 18.1 64.2363 18.1C63.7697 18.1 63.353 17.9967 62.9863 17.79C62.6197 17.5833 62.333 17.2867 62.1263 16.9C61.9197 16.5067 61.8163 16.04 61.8163 15.5C61.8163 14.96 61.9197 14.4967 62.1263 14.11C62.333 13.7167 62.6197 13.4167 62.9863 13.21C63.353 13.0033 63.7697 12.9 64.2363 12.9ZM64.2363 13.59C63.8963 13.59 63.6063 13.6667 63.3663 13.82C63.1263 13.9733 62.9397 14.1933 62.8063 14.48C62.6797 14.76 62.6163 15.1 62.6163 15.5C62.6163 15.8933 62.6797 16.2333 62.8063 16.52C62.9397 16.8067 63.1263 17.0267 63.3663 17.18C63.6063 17.3333 63.8963 17.41 64.2363 17.41C64.5763 17.41 64.8663 17.3333 65.1063 17.18C65.3463 17.0267 65.5297 16.8067 65.6563 16.52C65.7897 16.2333 65.8563 15.8933 65.8563 15.5C65.8563 15.1 65.7897 14.76 65.6563 14.48C65.5297 14.1933 65.3463 13.9733 65.1063 13.82C64.8663 13.6667 64.5763 13.59 64.2363 13.59ZM71.4724 13H72.3124L70.2324 18H69.4324L67.3524 13H68.2624L69.8424 17.19L71.4724 13ZM75.4477 18.1C74.9744 18.1 74.5511 17.9967 74.1777 17.79C73.8111 17.5833 73.5244 17.2867 73.3177 16.9C73.1111 16.5067 73.0077 16.04 73.0077 15.5C73.0077 14.96 73.1111 14.4967 73.3177 14.11C73.5244 13.7167 73.8077 13.4167 74.1677 13.21C74.5277 13.0033 74.9377 12.9 75.3977 12.9C75.8644 12.9 76.2611 13 76.5877 13.2C76.9211 13.4 77.1744 13.6733 77.3477 14.02C77.5211 14.36 77.6077 14.7433 77.6077 15.17C77.6077 15.2833 77.6044 15.3867 77.5977 15.48C77.5911 15.5733 77.5811 15.6567 77.5677 15.73H73.5277V15.02H77.2177L76.8077 15.1C76.8077 14.62 76.6744 14.25 76.4077 13.99C76.1477 13.73 75.8044 13.6 75.3777 13.6C75.0511 13.6 74.7677 13.6767 74.5277 13.83C74.2944 13.9767 74.1111 14.1933 73.9777 14.48C73.8511 14.76 73.7877 15.1 73.7877 15.5C73.7877 15.8933 73.8544 16.2333 73.9877 16.52C74.1211 16.8067 74.3077 17.0267 74.5477 17.18C74.7944 17.3267 75.0877 17.4 75.4277 17.4C75.7944 17.4 76.0911 17.33 76.3177 17.19C76.5511 17.05 76.7377 16.86 76.8777 16.62L77.5077 16.99C77.3811 17.2167 77.2177 17.4133 77.0177 17.58C76.8244 17.7467 76.5944 17.8767 76.3277 17.97C76.0677 18.0567 75.7744 18.1 75.4477 18.1ZM79.1292 18V13H79.7792L79.8892 13.82C80.0292 13.5133 80.2326 13.2833 80.4992 13.13C80.7726 12.9767 81.1026 12.9 81.4892 12.9C81.5759 12.9 81.6692 12.9067 81.7692 12.92C81.8759 12.9333 81.9659 12.96 82.0392 13L81.8992 13.73C81.8259 13.7033 81.7459 13.6833 81.6592 13.67C81.5726 13.6567 81.4492 13.65 81.2892 13.65C81.0826 13.65 80.8726 13.71 80.6592 13.83C80.4526 13.95 80.2792 14.1333 80.1392 14.38C79.9992 14.62 79.9292 14.9267 79.9292 15.3V18H79.1292ZM83.2113 18V13H83.9113L83.9613 13.78C84.1413 13.4733 84.3746 13.25 84.6613 13.11C84.9546 12.97 85.2546 12.9 85.5613 12.9C85.9146 12.9 86.2479 12.98 86.5613 13.14C86.8746 13.3 87.1146 13.5467 87.2812 13.88C87.3879 13.6533 87.5379 13.47 87.7313 13.33C87.9246 13.1833 88.1346 13.0767 88.3613 13.01C88.5946 12.9367 88.8146 12.9 89.0213 12.9C89.3413 12.9 89.6446 12.9667 89.9313 13.1C90.2246 13.2333 90.4646 13.44 90.6513 13.72C90.8379 14 90.9313 14.36 90.9313 14.8V18H90.1313V14.88C90.1313 14.4267 90.0179 14.1 89.7913 13.9C89.5646 13.7 89.2846 13.6 88.9513 13.6C88.6913 13.6 88.4479 13.6633 88.2213 13.79C87.9946 13.9167 87.8113 14.1033 87.6713 14.35C87.5379 14.5967 87.4713 14.9 87.4713 15.26V18H86.6713V14.88C86.6713 14.4267 86.5579 14.1 86.3313 13.9C86.1046 13.7 85.8246 13.6 85.4913 13.6C85.2713 13.6 85.0446 13.66 84.8113 13.78C84.5846 13.8933 84.3946 14.0767 84.2413 14.33C84.0879 14.5833 84.0113 14.9167 84.0113 15.33V18H83.2113ZM94.8325 18.1C94.3592 18.1 93.9358 17.9967 93.5625 17.79C93.1958 17.5833 92.9092 17.2867 92.7025 16.9C92.4958 16.5067 92.3925 16.04 92.3925 15.5C92.3925 14.96 92.4958 14.4967 92.7025 14.11C92.9092 13.7167 93.1925 13.4167 93.5525 13.21C93.9125 13.0033 94.3225 12.9 94.7825 12.9C95.2492 12.9 95.6458 13 95.9725 13.2C96.3058 13.4 96.5592 13.6733 96.7325 14.02C96.9058 14.36 96.9925 14.7433 96.9925 15.17C96.9925 15.2833 96.9892 15.3867 96.9825 15.48C96.9758 15.5733 96.9658 15.6567 96.9525 15.73H92.9125V15.02H96.6025L96.1925 15.1C96.1925 14.62 96.0592 14.25 95.7925 13.99C95.5325 13.73 95.1892 13.6 94.7625 13.6C94.4358 13.6 94.1525 13.6767 93.9125 13.83C93.6792 13.9767 93.4958 14.1933 93.3625 14.48C93.2358 14.76 93.1725 15.1 93.1725 15.5C93.1725 15.8933 93.2392 16.2333 93.3725 16.52C93.5058 16.8067 93.6925 17.0267 93.9325 17.18C94.1792 17.3267 94.4725 17.4 94.8125 17.4C95.1792 17.4 95.4758 17.33 95.7025 17.19C95.9358 17.05 96.1225 16.86 96.2625 16.62L96.8925 16.99C96.7658 17.2167 96.6025 17.4133 96.4025 17.58C96.2092 17.7467 95.9792 17.8767 95.7125 17.97C95.4525 18.0567 95.1592 18.1 94.8325 18.1ZM98.514 18V13H99.214L99.284 14.12L99.154 14.01C99.2607 13.7433 99.404 13.53 99.584 13.37C99.764 13.2033 99.9707 13.0833 100.204 13.01C100.444 12.9367 100.691 12.9 100.944 12.9C101.304 12.9 101.631 12.97 101.924 13.11C102.217 13.2433 102.451 13.45 102.624 13.73C102.804 14.01 102.894 14.3667 102.894 14.8V18H102.094V15.08C102.094 14.5267 101.974 14.1433 101.734 13.93C101.501 13.71 101.211 13.6 100.864 13.6C100.624 13.6 100.384 13.6567 100.144 13.77C99.904 13.8833 99.704 14.0667 99.544 14.32C99.3907 14.5733 99.314 14.9133 99.314 15.34V18H98.514ZM105.817 11.58V16.62C105.817 16.8667 105.887 17.05 106.027 17.17C106.167 17.29 106.347 17.35 106.567 17.35C106.76 17.35 106.927 17.3167 107.067 17.25C107.207 17.1833 107.334 17.0933 107.447 16.98L107.727 17.65C107.574 17.79 107.39 17.9 107.177 17.98C106.97 18.06 106.73 18.1 106.457 18.1C106.204 18.1 105.967 18.0567 105.747 17.97C105.527 17.8767 105.35 17.7333 105.217 17.54C105.09 17.34 105.024 17.08 105.017 16.76V11.8L105.817 11.58ZM107.637 13V13.69H104.017V13H107.637Z" fill="#333333"/>
        <path opacity="0.3" d="M58.382 25.38V30H57.689L55.757 26.906L55.267 26.038H55.26L55.288 26.738V30H54.756V25.38H55.449L57.374 28.46L57.871 29.349H57.878L57.85 28.642V25.38H58.382ZM61.7946 27.739C61.7946 27.4777 61.7246 27.277 61.5846 27.137C61.4446 26.9923 61.2463 26.92 60.9896 26.92C60.7469 26.92 60.5416 26.9737 60.3736 27.081C60.2056 27.1837 60.0819 27.3517 60.0026 27.585L59.5476 27.305C59.6409 27.0437 59.8136 26.8337 60.0656 26.675C60.3176 26.5117 60.6303 26.43 61.0036 26.43C61.2556 26.43 61.4843 26.4743 61.6896 26.563C61.8949 26.647 62.0559 26.7777 62.1726 26.955C62.2939 27.1277 62.3546 27.3517 62.3546 27.627V29.321C62.3546 29.489 62.4433 29.573 62.6206 29.573C62.7093 29.573 62.7956 29.5613 62.8796 29.538L62.8516 29.979C62.7583 30.0257 62.6369 30.049 62.4876 30.049C62.3523 30.049 62.2309 30.0233 62.1236 29.972C62.0163 29.9207 61.9323 29.8437 61.8716 29.741C61.8109 29.6337 61.7806 29.5007 61.7806 29.342V29.272L61.9206 29.293C61.8646 29.475 61.7689 29.6243 61.6336 29.741C61.4983 29.853 61.3466 29.937 61.1786 29.993C61.0106 30.0443 60.8449 30.07 60.6816 30.07C60.4763 30.07 60.2849 30.035 60.1076 29.965C59.9303 29.895 59.7879 29.79 59.6806 29.65C59.5779 29.5053 59.5266 29.328 59.5266 29.118C59.5266 28.8567 59.6129 28.642 59.7856 28.474C59.9629 28.3013 60.2079 28.1847 60.5206 28.124L61.9066 27.851V28.313L60.7796 28.544C60.5509 28.5907 60.3806 28.656 60.2686 28.74C60.1566 28.824 60.1006 28.9407 60.1006 29.09C60.1006 29.2347 60.1566 29.3537 60.2686 29.447C60.3853 29.5357 60.5486 29.58 60.7586 29.58C60.8939 29.58 61.0223 29.5637 61.1436 29.531C61.2696 29.4937 61.3816 29.44 61.4796 29.37C61.5776 29.2953 61.6546 29.2043 61.7106 29.097C61.7666 28.985 61.7946 28.8543 61.7946 28.705V27.739ZM64.4047 25.506V29.034C64.4047 29.2067 64.4537 29.335 64.5517 29.419C64.6497 29.503 64.7757 29.545 64.9297 29.545C65.0651 29.545 65.1817 29.5217 65.2797 29.475C65.3777 29.4283 65.4664 29.3653 65.5457 29.286L65.7417 29.755C65.6344 29.853 65.5061 29.93 65.3567 29.986C65.2121 30.042 65.0441 30.07 64.8527 30.07C64.6754 30.07 64.5097 30.0397 64.3557 29.979C64.2017 29.9137 64.0781 29.8133 63.9847 29.678C63.8961 29.538 63.8494 29.356 63.8447 29.132V25.66L64.4047 25.506ZM65.6787 26.5V26.983H63.1447V26.5H65.6787ZM66.7914 25.828C66.6654 25.828 66.5627 25.7907 66.4834 25.716C66.4087 25.6367 66.3714 25.534 66.3714 25.408C66.3714 25.282 66.4087 25.1817 66.4834 25.107C66.5627 25.0277 66.6654 24.988 66.7914 24.988C66.9174 24.988 67.0177 25.0277 67.0924 25.107C67.1717 25.1817 67.2114 25.282 67.2114 25.408C67.2114 25.534 67.1717 25.6367 67.0924 25.716C67.0177 25.7907 66.9174 25.828 66.7914 25.828ZM67.0714 26.5V30H66.5114V26.5H67.0714ZM69.8197 26.43C70.1511 26.43 70.4427 26.5023 70.6947 26.647C70.9514 26.7917 71.1521 27.0017 71.2967 27.277C71.4414 27.5477 71.5137 27.872 71.5137 28.25C71.5137 28.628 71.4414 28.9547 71.2967 29.23C71.1521 29.5007 70.9514 29.7083 70.6947 29.853C70.4427 29.9977 70.1511 30.07 69.8197 30.07C69.4931 30.07 69.2014 29.9977 68.9447 29.853C68.6881 29.7083 68.4874 29.5007 68.3427 29.23C68.1981 28.9547 68.1257 28.628 68.1257 28.25C68.1257 27.872 68.1981 27.5477 68.3427 27.277C68.4874 27.0017 68.6881 26.7917 68.9447 26.647C69.2014 26.5023 69.4931 26.43 69.8197 26.43ZM69.8197 26.913C69.5817 26.913 69.3787 26.9667 69.2107 27.074C69.0427 27.1813 68.9121 27.3353 68.8187 27.536C68.7301 27.732 68.6857 27.97 68.6857 28.25C68.6857 28.5253 68.7301 28.7633 68.8187 28.964C68.9121 29.1647 69.0427 29.3187 69.2107 29.426C69.3787 29.5333 69.5817 29.587 69.8197 29.587C70.0577 29.587 70.2607 29.5333 70.4287 29.426C70.5967 29.3187 70.7251 29.1647 70.8137 28.964C70.9071 28.7633 70.9537 28.5253 70.9537 28.25C70.9537 27.97 70.9071 27.732 70.8137 27.536C70.7251 27.3353 70.5967 27.1813 70.4287 27.074C70.2607 26.9667 70.0577 26.913 69.8197 26.913ZM72.568 30V26.5H73.058L73.107 27.284L73.016 27.207C73.0907 27.0203 73.191 26.871 73.317 26.759C73.443 26.6423 73.5877 26.5583 73.751 26.507C73.919 26.4557 74.0917 26.43 74.269 26.43C74.521 26.43 74.7497 26.479 74.955 26.577C75.1603 26.6703 75.3237 26.815 75.445 27.011C75.571 27.207 75.634 27.4567 75.634 27.76V30H75.074V27.956C75.074 27.5687 74.99 27.3003 74.822 27.151C74.6587 26.997 74.4557 26.92 74.213 26.92C74.045 26.92 73.877 26.9597 73.709 27.039C73.541 27.1183 73.401 27.2467 73.289 27.424C73.1817 27.6013 73.128 27.8393 73.128 28.138V30H72.568ZM78.946 27.739C78.946 27.4777 78.876 27.277 78.736 27.137C78.596 26.9923 78.3976 26.92 78.141 26.92C77.8983 26.92 77.693 26.9737 77.525 27.081C77.357 27.1837 77.2333 27.3517 77.154 27.585L76.699 27.305C76.7923 27.0437 76.965 26.8337 77.217 26.675C77.469 26.5117 77.7816 26.43 78.155 26.43C78.407 26.43 78.6356 26.4743 78.841 26.563C79.0463 26.647 79.2073 26.7777 79.324 26.955C79.4453 27.1277 79.506 27.3517 79.506 27.627V29.321C79.506 29.489 79.5946 29.573 79.772 29.573C79.8606 29.573 79.947 29.5613 80.031 29.538L80.003 29.979C79.9096 30.0257 79.7883 30.049 79.639 30.049C79.5036 30.049 79.3823 30.0233 79.275 29.972C79.1676 29.9207 79.0836 29.8437 79.023 29.741C78.9623 29.6337 78.932 29.5007 78.932 29.342V29.272L79.072 29.293C79.016 29.475 78.9203 29.6243 78.785 29.741C78.6496 29.853 78.498 29.937 78.33 29.993C78.162 30.0443 77.9963 30.07 77.833 30.07C77.6276 30.07 77.4363 30.035 77.259 29.965C77.0816 29.895 76.9393 29.79 76.832 29.65C76.7293 29.5053 76.678 29.328 76.678 29.118C76.678 28.8567 76.7643 28.642 76.937 28.474C77.1143 28.3013 77.3593 28.1847 77.672 28.124L79.058 27.851V28.313L77.931 28.544C77.7023 28.5907 77.532 28.656 77.42 28.74C77.308 28.824 77.252 28.9407 77.252 29.09C77.252 29.2347 77.308 29.3537 77.42 29.447C77.5366 29.5357 77.7 29.58 77.91 29.58C78.0453 29.58 78.1736 29.5637 78.295 29.531C78.421 29.4937 78.533 29.44 78.631 29.37C78.729 29.2953 78.806 29.2043 78.862 29.097C78.918 28.985 78.946 28.8543 78.946 28.705V27.739ZM81.3988 24.89V29.111C81.3988 29.2883 81.4315 29.412 81.4968 29.482C81.5622 29.5473 81.6672 29.58 81.8118 29.58C81.9052 29.58 81.9822 29.573 82.0428 29.559C82.1035 29.545 82.1852 29.5193 82.2878 29.482L82.1968 29.972C82.1222 30.0047 82.0405 30.028 81.9518 30.042C81.8632 30.0607 81.7722 30.07 81.6788 30.07C81.3942 30.07 81.1818 29.993 81.0418 29.839C80.9065 29.685 80.8388 29.4493 80.8388 29.132V24.89H81.3988ZM85.8111 25.38V30H85.2511V25.38H85.8111ZM88.5277 30.07C88.2384 30.07 87.9724 29.9977 87.7297 29.853C87.4871 29.7083 87.2934 29.5007 87.1487 29.23C87.0041 28.9547 86.9317 28.628 86.9317 28.25C86.9317 27.8627 87.0087 27.5337 87.1627 27.263C87.3167 26.9923 87.5197 26.787 87.7717 26.647C88.0237 26.5023 88.2944 26.43 88.5837 26.43C88.8731 26.43 89.1227 26.5047 89.3327 26.654C89.5474 26.8033 89.6897 27.0017 89.7597 27.249L89.6897 27.298V24.89H90.2497V30H89.7597L89.7107 29.153L89.7877 29.111C89.7551 29.3163 89.6757 29.4913 89.5497 29.636C89.4284 29.776 89.2767 29.8833 89.0947 29.958C88.9174 30.0327 88.7284 30.07 88.5277 30.07ZM88.5837 29.58C88.8077 29.58 89.0014 29.524 89.1647 29.412C89.3327 29.3 89.4611 29.1413 89.5497 28.936C89.6431 28.726 89.6897 28.481 89.6897 28.201C89.6897 27.935 89.6431 27.7063 89.5497 27.515C89.4611 27.3237 89.3351 27.1767 89.1717 27.074C89.0131 26.9713 88.8264 26.92 88.6117 26.92C88.2571 26.92 87.9817 27.0413 87.7857 27.284C87.5897 27.5267 87.4917 27.8487 87.4917 28.25C87.4917 28.6513 87.5874 28.9733 87.7787 29.216C87.9701 29.4587 88.2384 29.58 88.5837 29.58ZM93.0144 30.07C92.6831 30.07 92.3867 29.9977 92.1254 29.853C91.8687 29.7083 91.6681 29.5007 91.5234 29.23C91.3787 28.9547 91.3064 28.628 91.3064 28.25C91.3064 27.872 91.3787 27.5477 91.5234 27.277C91.6681 27.0017 91.8664 26.7917 92.1184 26.647C92.3704 26.5023 92.6574 26.43 92.9794 26.43C93.3061 26.43 93.5837 26.5 93.8124 26.64C94.0457 26.78 94.2231 26.9713 94.3444 27.214C94.4657 27.452 94.5264 27.7203 94.5264 28.019C94.5264 28.0983 94.5241 28.1707 94.5194 28.236C94.5147 28.3013 94.5077 28.3597 94.4984 28.411H91.6704V27.914H94.2534L93.9664 27.97C93.9664 27.634 93.8731 27.375 93.6864 27.193C93.5044 27.011 93.2641 26.92 92.9654 26.92C92.7367 26.92 92.5384 26.9737 92.3704 27.081C92.2071 27.1837 92.0787 27.3353 91.9854 27.536C91.8967 27.732 91.8524 27.97 91.8524 28.25C91.8524 28.5253 91.8991 28.7633 91.9924 28.964C92.0857 29.1647 92.2164 29.3187 92.3844 29.426C92.5571 29.5287 92.7624 29.58 93.0004 29.58C93.2571 29.58 93.4647 29.531 93.6234 29.433C93.7867 29.335 93.9174 29.202 94.0154 29.034L94.4564 29.293C94.3677 29.4517 94.2534 29.5893 94.1134 29.706C93.9781 29.8227 93.8171 29.9137 93.6304 29.979C93.4484 30.0397 93.2431 30.07 93.0144 30.07ZM95.5914 30V26.5H96.0814L96.1304 27.284L96.0394 27.207C96.1141 27.0203 96.2144 26.871 96.3404 26.759C96.4664 26.6423 96.6111 26.5583 96.7744 26.507C96.9424 26.4557 97.1151 26.43 97.2924 26.43C97.5444 26.43 97.7731 26.479 97.9784 26.577C98.1838 26.6703 98.3471 26.815 98.4684 27.011C98.5944 27.207 98.6574 27.4567 98.6574 27.76V30H98.0974V27.956C98.0974 27.5687 98.0134 27.3003 97.8454 27.151C97.6821 26.997 97.4791 26.92 97.2364 26.92C97.0684 26.92 96.9004 26.9597 96.7324 27.039C96.5644 27.1183 96.4244 27.2467 96.3124 27.424C96.2051 27.6013 96.1514 27.8393 96.1514 28.138V30H95.5914ZM100.704 25.506V29.034C100.704 29.2067 100.753 29.335 100.851 29.419C100.949 29.503 101.075 29.545 101.229 29.545C101.364 29.545 101.481 29.5217 101.579 29.475C101.677 29.4283 101.765 29.3653 101.845 29.286L102.041 29.755C101.933 29.853 101.805 29.93 101.656 29.986C101.511 30.042 101.343 30.07 101.152 30.07C100.974 30.07 100.809 30.0397 100.655 29.979C100.501 29.9137 100.377 29.8133 100.284 29.678C100.195 29.538 100.148 29.356 100.144 29.132V25.66L100.704 25.506ZM101.978 26.5V26.983H99.4436V26.5H101.978ZM103.09 25.828C102.964 25.828 102.862 25.7907 102.782 25.716C102.708 25.6367 102.67 25.534 102.67 25.408C102.67 25.282 102.708 25.1817 102.782 25.107C102.862 25.0277 102.964 24.988 103.09 24.988C103.216 24.988 103.317 25.0277 103.391 25.107C103.471 25.1817 103.51 25.282 103.51 25.408C103.51 25.534 103.471 25.6367 103.391 25.716C103.317 25.7907 103.216 25.828 103.09 25.828ZM103.37 26.5V30H102.81V26.5H103.37ZM106.091 24.855C106.212 24.855 106.326 24.869 106.434 24.897C106.541 24.925 106.625 24.9647 106.686 25.016L106.539 25.471C106.483 25.4337 106.422 25.408 106.357 25.394C106.291 25.3753 106.219 25.366 106.14 25.366C105.939 25.366 105.783 25.415 105.671 25.513C105.559 25.6063 105.503 25.758 105.503 25.968V26.5V26.682V30H104.943V25.912C104.943 25.758 104.966 25.6157 105.013 25.485C105.059 25.3543 105.129 25.2423 105.223 25.149C105.321 25.0557 105.442 24.9833 105.587 24.932C105.731 24.8807 105.899 24.855 106.091 24.855ZM106.672 26.5V26.983H104.243V26.5H106.672ZM107.701 25.828C107.575 25.828 107.472 25.7907 107.393 25.716C107.318 25.6367 107.281 25.534 107.281 25.408C107.281 25.282 107.318 25.1817 107.393 25.107C107.472 25.0277 107.575 24.988 107.701 24.988C107.827 24.988 107.927 25.0277 108.002 25.107C108.081 25.1817 108.121 25.282 108.121 25.408C108.121 25.534 108.081 25.6367 108.002 25.716C107.927 25.7907 107.827 25.828 107.701 25.828ZM107.981 26.5V30H107.421V26.5H107.981ZM110.733 26.43C110.975 26.43 111.188 26.4673 111.37 26.542C111.556 26.6167 111.717 26.724 111.853 26.864C111.988 27.004 112.098 27.1697 112.182 27.361L111.65 27.613C111.575 27.389 111.461 27.2187 111.307 27.102C111.157 26.9807 110.961 26.92 110.719 26.92C110.485 26.92 110.285 26.9737 110.117 27.081C109.949 27.1837 109.82 27.3353 109.732 27.536C109.643 27.732 109.599 27.97 109.599 28.25C109.599 28.5253 109.643 28.7633 109.732 28.964C109.82 29.1647 109.949 29.3187 110.117 29.426C110.285 29.5287 110.485 29.58 110.719 29.58C110.901 29.58 111.057 29.552 111.188 29.496C111.323 29.44 111.433 29.3583 111.517 29.251C111.605 29.1437 111.666 29.013 111.699 28.859L112.217 29.041C112.137 29.2557 112.028 29.44 111.888 29.594C111.752 29.748 111.587 29.867 111.391 29.951C111.199 30.0303 110.98 30.07 110.733 30.07C110.406 30.07 110.114 29.9977 109.858 29.853C109.601 29.7083 109.4 29.5007 109.256 29.23C109.111 28.9547 109.039 28.628 109.039 28.25C109.039 27.872 109.111 27.5477 109.256 27.277C109.4 27.0017 109.601 26.7917 109.858 26.647C110.114 26.5023 110.406 26.43 110.733 26.43ZM115.245 27.739C115.245 27.4777 115.175 27.277 115.035 27.137C114.895 26.9923 114.696 26.92 114.44 26.92C114.197 26.92 113.992 26.9737 113.824 27.081C113.656 27.1837 113.532 27.3517 113.453 27.585L112.998 27.305C113.091 27.0437 113.264 26.8337 113.516 26.675C113.768 26.5117 114.08 26.43 114.454 26.43C114.706 26.43 114.934 26.4743 115.14 26.563C115.345 26.647 115.506 26.7777 115.623 26.955C115.744 27.1277 115.805 27.3517 115.805 27.627V29.321C115.805 29.489 115.893 29.573 116.071 29.573C116.159 29.573 116.246 29.5613 116.33 29.538L116.302 29.979C116.208 30.0257 116.087 30.049 115.938 30.049C115.802 30.049 115.681 30.0233 115.574 29.972C115.466 29.9207 115.382 29.8437 115.322 29.741C115.261 29.6337 115.231 29.5007 115.231 29.342V29.272L115.371 29.293C115.315 29.475 115.219 29.6243 115.084 29.741C114.948 29.853 114.797 29.937 114.629 29.993C114.461 30.0443 114.295 30.07 114.132 30.07C113.926 30.07 113.735 30.035 113.558 29.965C113.38 29.895 113.238 29.79 113.131 29.65C113.028 29.5053 112.977 29.328 112.977 29.118C112.977 28.8567 113.063 28.642 113.236 28.474C113.413 28.3013 113.658 28.1847 113.971 28.124L115.357 27.851V28.313L114.23 28.544C114.001 28.5907 113.831 28.656 113.719 28.74C113.607 28.824 113.551 28.9407 113.551 29.09C113.551 29.2347 113.607 29.3537 113.719 29.447C113.835 29.5357 113.999 29.58 114.209 29.58C114.344 29.58 114.472 29.5637 114.594 29.531C114.72 29.4937 114.832 29.44 114.93 29.37C115.028 29.2953 115.105 29.2043 115.161 29.097C115.217 28.985 115.245 28.8543 115.245 28.705V27.739ZM117.855 25.506V29.034C117.855 29.2067 117.904 29.335 118.002 29.419C118.1 29.503 118.226 29.545 118.38 29.545C118.515 29.545 118.632 29.5217 118.73 29.475C118.828 29.4283 118.917 29.3653 118.996 29.286L119.192 29.755C119.085 29.853 118.956 29.93 118.807 29.986C118.662 30.042 118.494 30.07 118.303 30.07C118.126 30.07 117.96 30.0397 117.806 29.979C117.652 29.9137 117.528 29.8133 117.435 29.678C117.346 29.538 117.3 29.356 117.295 29.132V25.66L117.855 25.506ZM119.129 26.5V26.983H116.595V26.5H119.129ZM120.242 25.828C120.116 25.828 120.013 25.7907 119.934 25.716C119.859 25.6367 119.822 25.534 119.822 25.408C119.822 25.282 119.859 25.1817 119.934 25.107C120.013 25.0277 120.116 24.988 120.242 24.988C120.368 24.988 120.468 25.0277 120.543 25.107C120.622 25.1817 120.662 25.282 120.662 25.408C120.662 25.534 120.622 25.6367 120.543 25.716C120.468 25.7907 120.368 25.828 120.242 25.828ZM120.522 26.5V30H119.962V26.5H120.522ZM123.27 26.43C123.601 26.43 123.893 26.5023 124.145 26.647C124.402 26.7917 124.602 27.0017 124.747 27.277C124.892 27.5477 124.964 27.872 124.964 28.25C124.964 28.628 124.892 28.9547 124.747 29.23C124.602 29.5007 124.402 29.7083 124.145 29.853C123.893 29.9977 123.601 30.07 123.27 30.07C122.943 30.07 122.652 29.9977 122.395 29.853C122.138 29.7083 121.938 29.5007 121.793 29.23C121.648 28.9547 121.576 28.628 121.576 28.25C121.576 27.872 121.648 27.5477 121.793 27.277C121.938 27.0017 122.138 26.7917 122.395 26.647C122.652 26.5023 122.943 26.43 123.27 26.43ZM123.27 26.913C123.032 26.913 122.829 26.9667 122.661 27.074C122.493 27.1813 122.362 27.3353 122.269 27.536C122.18 27.732 122.136 27.97 122.136 28.25C122.136 28.5253 122.18 28.7633 122.269 28.964C122.362 29.1647 122.493 29.3187 122.661 29.426C122.829 29.5333 123.032 29.587 123.27 29.587C123.508 29.587 123.711 29.5333 123.879 29.426C124.047 29.3187 124.175 29.1647 124.264 28.964C124.357 28.7633 124.404 28.5253 124.404 28.25C124.404 27.97 124.357 27.732 124.264 27.536C124.175 27.3353 124.047 27.1813 123.879 27.074C123.711 26.9667 123.508 26.913 123.27 26.913ZM126.018 30V26.5H126.508L126.557 27.284L126.466 27.207C126.541 27.0203 126.641 26.871 126.767 26.759C126.893 26.6423 127.038 26.5583 127.201 26.507C127.369 26.4557 127.542 26.43 127.719 26.43C127.971 26.43 128.2 26.479 128.405 26.577C128.611 26.6703 128.774 26.815 128.895 27.011C129.021 27.207 129.084 27.4567 129.084 27.76V30H128.524V27.956C128.524 27.5687 128.44 27.3003 128.272 27.151C128.109 26.997 127.906 26.92 127.663 26.92C127.495 26.92 127.327 26.9597 127.159 27.039C126.991 27.1183 126.851 27.2467 126.739 27.424C126.632 27.6013 126.578 27.8393 126.578 28.138V30H126.018Z" fill="#212121"/>
        <g clip-path="url(#clip0)">
            <path d="M38.8499 30.6418V30.2585C38.8467 29.774 38.5401 29.3435 38.0832 29.1822V28.7251C38.0818 28.2394 37.7747 27.8072 37.3166 27.6458V21.7546C37.7747 21.5932 38.0817 21.161 38.0832 20.6752V19.9991L38.7818 18.6021L39.8876 17.4962C40.0372 17.3468 40.0375 17.1043 39.888 16.9546C39.8664 16.933 39.8422 16.914 39.8161 16.8981L28.6996 10.1143C28.5771 10.0394 28.423 10.0394 28.3005 10.1143L17.1839 16.8981C17.0033 17.008 16.9459 17.2436 17.0559 17.4243C17.0718 17.4504 17.0908 17.4746 17.1124 17.4962L18.2182 18.6021L18.9167 19.9991V20.6752C18.9182 21.1609 19.2253 21.5932 19.6834 21.7545V27.6457C19.2253 27.8071 18.9183 28.2393 18.9167 28.7251V29.1821C18.4599 29.3434 18.1533 29.7739 18.1501 30.2584V30.6417C17.5152 30.6424 17.0008 31.1569 17.0001 31.7917V32.5584C17 32.7701 17.1715 32.9417 17.3832 32.9417C17.3833 32.9417 17.3834 32.9417 17.3834 32.9417H39.6166C39.8283 32.9417 39.9999 32.7702 39.9999 32.5586C39.9999 32.5585 39.9999 32.5584 39.9999 32.5584V31.7917C39.9992 31.1569 39.4847 30.6424 38.8499 30.6418ZM37.3166 20.6752C37.3164 20.8868 37.1449 21.0583 36.9333 21.0585H34.6333C34.4217 21.0583 34.2502 20.8868 34.25 20.6752V20.2919H37.3167V20.6752H37.3166ZM26.5834 27.6458V21.7546C27.0416 21.5932 27.3485 21.161 27.3501 20.6752V20.2919H29.65V20.6752C29.6515 21.1609 29.9586 21.5932 30.4167 21.7545V27.6457C29.9586 27.8071 29.6516 28.2393 29.65 28.7251V29.1084H27.3501V28.7251C27.3485 28.2394 27.0415 27.8071 26.5834 27.6458ZM20.0668 21.0585C19.8552 21.0583 19.6836 20.8869 19.6835 20.6752V20.2919H22.7501V20.6752C22.7499 20.8869 22.5784 21.0584 22.3668 21.0585H20.0668ZM21.9834 21.8252V27.5751H20.4501V21.8252H21.9834ZM22.7501 21.7546C22.8916 21.7043 23.0218 21.6267 23.1334 21.5261C23.2449 21.6267 23.3752 21.7043 23.5167 21.7545V27.6457C23.3752 27.696 23.2449 27.7736 23.1334 27.8742C23.0218 27.7736 22.8916 27.696 22.7501 27.6457V21.7546ZM23.5167 28.7251C23.517 28.5135 23.6885 28.342 23.9001 28.3418H26.2C26.4117 28.342 26.5832 28.5135 26.5834 28.7251V29.1084H23.5167V28.7251ZM24.2834 27.5751V21.8252H25.8167V27.5751H24.2834ZM26.2 21.0585H23.9001C23.6884 21.0583 23.5169 20.8869 23.5167 20.6752V20.2919H26.5834V20.6752C26.5832 20.8868 26.4117 21.0583 26.2 21.0585ZM30.4167 28.7251C30.4169 28.5135 30.5884 28.342 30.8 28.3418H33.1C33.3116 28.342 33.4831 28.5135 33.4833 28.7251V29.1084H30.4167V28.7251ZM31.1833 27.5751V21.8252H32.7166V27.5751H31.1833ZM33.1 21.0585H30.8C30.5884 21.0583 30.4169 20.8869 30.4167 20.6752V20.2919H33.4833V20.6752C33.4831 20.8868 33.3116 21.0583 33.1 21.0585ZM33.4833 21.7546C33.6248 21.7043 33.7551 21.6267 33.8666 21.5261C33.9781 21.6267 34.1084 21.7043 34.2499 21.7545V27.6457C34.1084 27.696 33.9781 27.7736 33.8666 27.8742C33.7551 27.7736 33.6248 27.696 33.4833 27.6457V21.7546ZM34.25 28.7251C34.2502 28.5135 34.4217 28.342 34.6333 28.3418H36.9333C37.1449 28.342 37.3164 28.5135 37.3166 28.7251V29.1084H34.2499V28.7251H34.25ZM35.0166 27.5751V21.8252H36.5499V27.5751H35.0166ZM18.5903 17.8901L17.9989 17.2986L28.5 10.8905L39.0012 17.2986L38.4097 17.8901L28.701 11.9155C28.5778 11.8395 28.4223 11.8395 28.299 11.9155L18.5903 17.8901ZM37.1122 17.9919H19.8878L28.5 12.6921L37.1122 17.9919ZM19.5371 19.5252L19.1538 18.7585H37.8463L37.463 19.5252H19.5371ZM19.6834 28.7251C19.6836 28.5135 19.8551 28.342 20.0667 28.3418H22.3667C22.5783 28.342 22.7498 28.5135 22.75 28.7251V29.1084H19.6834V28.7251ZM39.2332 32.1751H17.7668V31.7918C17.767 31.5801 17.9385 31.4086 18.1501 31.4084H26.2C26.4118 31.4084 26.5834 31.2368 26.5834 31.0251C26.5834 30.8134 26.4117 30.6418 26.2 30.6418H18.9168V30.2585C18.9212 30.0428 19.0994 29.8713 19.3151 29.8752H37.685C37.9007 29.8714 38.0788 30.0428 38.0833 30.2585V30.6418H30.8C30.5883 30.6418 30.4167 30.8134 30.4167 31.0251C30.4167 31.2368 30.5883 31.4084 30.8 31.4084H38.8499C39.0615 31.4087 39.233 31.5801 39.2332 31.7918V32.1751Z" fill="#181B5E"/>
            <path d="M28.5001 13.967C27.6536 13.9679 26.9677 14.6538 26.9668 15.5003C26.9668 16.3471 27.6533 17.0336 28.5001 17.0336C29.3469 17.0336 30.0334 16.3471 30.0334 15.5003C30.0334 14.6535 29.3469 13.967 28.5001 13.967ZM28.5001 16.267C28.0767 16.267 27.7334 15.9237 27.7334 15.5003C27.7334 15.0769 28.0767 14.7336 28.5001 14.7336C28.9233 14.7341 29.2663 15.077 29.2668 15.5003C29.2668 15.9237 28.9235 16.267 28.5001 16.267Z" fill="#181B5E"/>
        </g>
        <path d="M360 93V106C360 108.761 357.761 111 355 111H342" stroke="#181B5E"/>
        <path opacity="0.3" d="M333.62 48L335.419 43.38H336.084L337.876 48H337.281L335.965 44.556L335.748 43.912H335.734L335.531 44.535L334.208 48H333.62ZM334.502 46.719V46.194H336.973V46.719H334.502ZM342.382 46.817C342.284 47.0783 342.144 47.3047 341.962 47.496C341.78 47.6827 341.566 47.825 341.318 47.923C341.076 48.021 340.81 48.07 340.52 48.07C340.082 48.07 339.701 47.9743 339.379 47.783C339.062 47.587 338.815 47.3117 338.637 46.957C338.465 46.6023 338.378 46.18 338.378 45.69C338.378 45.2 338.465 44.7777 338.637 44.423C338.815 44.0683 339.062 43.7953 339.379 43.604C339.701 43.408 340.077 43.31 340.506 43.31C340.805 43.31 341.071 43.352 341.304 43.436C341.538 43.5153 341.736 43.6367 341.899 43.8C342.067 43.9587 342.2 44.1547 342.298 44.388L341.745 44.647C341.643 44.381 341.493 44.1803 341.297 44.045C341.106 43.905 340.856 43.835 340.548 43.835C340.236 43.835 339.96 43.9097 339.722 44.059C339.484 44.2037 339.298 44.4137 339.162 44.689C339.032 44.9643 338.966 45.298 338.966 45.69C338.966 46.0773 339.029 46.411 339.155 46.691C339.281 46.9663 339.461 47.1787 339.694 47.328C339.928 47.4727 340.203 47.545 340.52 47.545C340.828 47.545 341.097 47.468 341.325 47.314C341.554 47.1553 341.72 46.9197 341.822 46.607L342.382 46.817ZM346.705 43.38V43.905H345.095V48H344.535V43.905H342.925V43.38H346.705ZM348.242 43.38V48H347.682V43.38H348.242ZM353.337 43.38L351.587 48H350.95L349.193 43.38H349.795L350.971 46.572L351.265 47.489L351.559 46.579L352.735 43.38H353.337ZM354.292 48V43.38H357.533V43.905H354.852V45.396H356.938V45.921H354.852V47.475H357.638V48H354.292Z" fill="#212121"/>
        <path opacity="0.3" d="M331.207 15.475H333.853V16H330.647V11.38H331.207V15.475ZM334.83 16V11.38H338.071V11.905H335.39V13.396H337.476V13.921H335.39V15.475H338.176V16H334.83ZM342.878 11.38L341.128 16H340.491L338.734 11.38H339.336L340.512 14.572L340.806 15.489L341.1 14.579L342.276 11.38H342.878ZM343.833 16V11.38H347.074V11.905H344.393V13.396H346.479V13.921H344.393V15.475H347.179V16H343.833ZM348.857 15.475H351.503V16H348.297V11.38H348.857V15.475ZM355.949 16.07C355.538 16.07 355.174 15.9743 354.857 15.783C354.544 15.587 354.332 15.3187 354.22 14.978L354.78 14.691C354.836 14.8637 354.913 15.0153 355.011 15.146C355.109 15.272 355.237 15.37 355.396 15.44C355.559 15.51 355.762 15.545 356.005 15.545C356.21 15.545 356.383 15.5077 356.523 15.433C356.663 15.3583 356.77 15.258 356.845 15.132C356.92 15.0013 356.957 14.852 356.957 14.684C356.957 14.516 356.924 14.376 356.859 14.264C356.798 14.152 356.7 14.0703 356.565 14.019C356.43 13.963 356.252 13.935 356.033 13.935C355.982 13.935 355.926 13.9373 355.865 13.942C355.804 13.942 355.741 13.9467 355.676 13.956V13.396C355.718 13.4007 355.758 13.403 355.795 13.403C355.837 13.403 355.874 13.403 355.907 13.403C356.248 13.403 356.49 13.3377 356.635 13.207C356.78 13.0717 356.852 12.8617 356.852 12.577C356.852 12.3343 356.777 12.15 356.628 12.024C356.479 11.898 356.266 11.835 355.991 11.835C355.697 11.835 355.473 11.9003 355.319 12.031C355.165 12.157 355.044 12.3297 354.955 12.549L354.423 12.297C354.498 12.101 354.61 11.9283 354.759 11.779C354.908 11.6297 355.088 11.513 355.298 11.429C355.513 11.345 355.748 11.303 356.005 11.303C356.327 11.303 356.593 11.359 356.803 11.471C357.013 11.5783 357.169 11.723 357.272 11.905C357.379 12.087 357.433 12.2877 357.433 12.507C357.433 12.675 357.41 12.8267 357.363 12.962C357.316 13.0927 357.251 13.207 357.167 13.305C357.088 13.403 356.997 13.4823 356.894 13.543C356.791 13.599 356.682 13.6363 356.565 13.655V13.669C356.719 13.6737 356.854 13.704 356.971 13.76C357.092 13.816 357.195 13.8907 357.279 13.984C357.363 14.0773 357.426 14.1847 357.468 14.306C357.515 14.4227 357.538 14.5463 357.538 14.677C357.538 14.9477 357.47 15.188 357.335 15.398C357.204 15.608 357.02 15.7737 356.782 15.895C356.544 16.0117 356.266 16.07 355.949 16.07Z" fill="#212121"/>
        <circle cx="321" cy="14" r="2" fill="#181B5E"/>
        <circle cx="315" cy="14" r="2" fill="#181B5E"/>
        <circle cx="309" cy="14" r="2" fill="#181B5E"/>
        <path opacity="0.3" d="M333.585 27.38C333.898 27.38 334.169 27.4383 334.397 27.555C334.631 27.667 334.813 27.828 334.943 28.038C335.074 28.248 335.139 28.4977 335.139 28.787C335.139 29.0763 335.074 29.326 334.943 29.536C334.813 29.746 334.631 29.9093 334.397 30.026C334.169 30.138 333.898 30.194 333.585 30.194H332.514V32H331.954V27.38H333.585ZM333.501 29.669C333.865 29.669 334.131 29.5943 334.299 29.445C334.467 29.291 334.551 29.0717 334.551 28.787C334.551 28.4977 334.467 28.2783 334.299 28.129C334.131 27.9797 333.865 27.905 333.501 27.905H332.514V29.669H333.501ZM337.977 27.38C338.448 27.38 338.826 27.5013 339.111 27.744C339.395 27.9867 339.538 28.3157 339.538 28.731C339.538 29.1463 339.393 29.4707 339.104 29.704C338.819 29.9327 338.441 30.047 337.97 30.047L337.921 30.082H336.787V32H336.227V27.38H337.977ZM337.97 29.557C338.301 29.557 338.546 29.4893 338.705 29.354C338.868 29.214 338.95 29.0063 338.95 28.731C338.95 28.4557 338.868 28.2503 338.705 28.115C338.546 27.975 338.301 27.905 337.97 27.905H336.787V29.557H337.97ZM338.292 29.669L339.818 32H339.153L337.823 29.977L338.292 29.669ZM341.442 27.38V32H340.882V27.38H341.442ZM346.537 27.38L344.787 32H344.15L342.393 27.38H342.995L344.171 30.572L344.465 31.489L344.759 30.579L345.935 27.38H346.537ZM346.501 32L348.3 27.38H348.965L350.757 32H350.162L348.846 28.556L348.629 27.912H348.615L348.412 28.535L347.089 32H346.501ZM347.383 30.719V30.194H349.854V30.719H347.383ZM354.316 27.38V27.905H352.706V32H352.146V27.905H350.536V27.38H354.316ZM355.292 32V27.38H358.533V27.905H355.852V29.396H357.938V29.921H355.852V31.475H358.638V32H355.292Z" fill="#212121"/>
        <path d="M325 33.3333H321C320.449 33.3333 320 32.8846 320 32.3333V29.6666C320 29.1153 320.449 28.6666 321 28.6666H325C325.551 28.6666 326 29.1153 326 29.6666V32.3333C326 32.8846 325.551 33.3333 325 33.3333ZM321 29.3333C320.816 29.3333 320.667 29.4833 320.667 29.6666V32.3333C320.667 32.5166 320.816 32.6666 321 32.6666H325C325.184 32.6666 325.333 32.5166 325.333 32.3333V29.6666C325.333 29.4833 325.184 29.3333 325 29.3333H321Z" fill="#181B5E"/>
        <path d="M324.333 29.3333H321.667C321.483 29.3333 321.333 29.184 321.333 29V27.6667C321.333 26.7473 322.081 26 323 26C323.919 26 324.667 26.7473 324.667 27.6667V29C324.667 29.184 324.517 29.3333 324.333 29.3333ZM322 28.6667H324V27.6667C324 27.1153 323.551 26.6667 323 26.6667C322.449 26.6667 322 27.1153 322 27.6667V28.6667Z" fill="#181B5E"/>
    </g>
    <defs>
        <filter id="filter0_d" x="0" y="0" width="372" height="128" filterUnits="userSpaceOnUse" color-interpolation-filters="sRGB">
            <feFlood flood-opacity="0" result="BackgroundImageFix"/>
            <feColorMatrix in="SourceAlpha" type="matrix" values="0 0 0 0 0 0 0 0 0 0 0 0 0 0 0 0 0 0 127 0"/>
            <feOffset dy="4"/>
            <feGaussianBlur stdDeviation="2"/>
            <feColorMatrix type="matrix" values="0 0 0 0 0 0 0 0 0 0 0 0 0 0 0 0 0 0 0.25 0"/>
            <feBlend mode="normal" in2="BackgroundImageFix" result="effect1_dropShadow"/>
            <feBlend mode="normal" in="SourceGraphic" in2="effect1_dropShadow" result="shape"/>
        </filter>
        <clipPath id="clip0">
            <rect x="17" y="10" width="23" height="23" fill="white"/>
        </clipPath>
    </defs>
</svg>
