<svg width="358" height="162" viewBox="0 0 358 162" fill="none" xmlns="http://www.w3.org/2000/svg">
<g filter="url(#filter0_d)">
<path d="M133.591 147.725L137.519 146.615L136.409 142.686L132.481 143.797L133.591 147.725ZM113.5 40.2049L113.14 40.552L113.5 40.2049ZM10.538 11.0146C10.4324 11.2698 10.5537 11.5622 10.8088 11.6678L14.9669 13.3884C15.2221 13.494 15.5145 13.3727 15.6201 13.1176C15.7257 12.8624 15.6044 12.57 15.3492 12.4644L11.6532 10.935L13.1826 7.23892C13.2882 6.98376 13.1669 6.69132 12.9118 6.58573C12.6566 6.48015 12.3642 6.6014 12.2586 6.85656L10.538 11.0146ZM135.436 145.45C143.762 130.565 145.256 111.308 141.239 92.2272C137.221 73.1419 127.68 54.1801 113.86 39.8577L113.14 40.552C126.82 54.7295 136.279 73.5181 140.261 92.4332C144.244 111.353 142.738 130.347 134.564 144.962L135.436 145.45ZM113.86 39.8577C99.532 25.0089 78.934 15.5991 59.3722 10.9624C49.5872 8.64304 40.047 7.5144 31.6597 7.50014C23.2804 7.48589 16.0183 8.58379 10.8085 10.7439L11.1915 11.6677C16.2317 9.57785 23.3469 8.486 31.658 8.50014C39.9611 8.51426 49.4243 9.63215 59.1416 11.9354C78.5845 16.5439 98.9864 25.8836 113.14 40.552L113.86 39.8577Z" fill="#181B5E"/>
</g>
<path d="M211.488 38.12C210.736 38.12 210.084 37.956 209.532 37.628C208.988 37.292 208.564 36.82 208.26 36.212C207.964 35.604 207.816 34.88 207.816 34.04C207.816 33.2 207.972 32.476 208.284 31.868C208.604 31.26 209.048 30.792 209.616 30.464C210.184 30.128 210.836 29.96 211.572 29.96C212.356 29.96 212.992 30.108 213.48 30.404C213.976 30.7 214.376 31.156 214.68 31.772L213.804 32.252C213.628 31.796 213.348 31.452 212.964 31.22C212.588 30.98 212.124 30.86 211.572 30.86C211.036 30.86 210.56 30.988 210.144 31.244C209.736 31.492 209.412 31.856 209.172 32.336C208.94 32.808 208.824 33.376 208.824 34.04C208.824 35.032 209.052 35.812 209.508 36.38C209.972 36.94 210.644 37.22 211.524 37.22C211.964 37.22 212.36 37.148 212.712 37.004C213.064 36.852 213.344 36.624 213.552 36.32C213.76 36.016 213.864 35.636 213.864 35.18V34.904H211.344V34.004H214.74V38H213.984L213.948 36.932C213.708 37.316 213.38 37.612 212.964 37.82C212.556 38.02 212.064 38.12 211.488 38.12ZM219.668 38.12C219.1 38.12 218.592 37.996 218.144 37.748C217.704 37.5 217.36 37.144 217.112 36.68C216.864 36.208 216.74 35.648 216.74 35C216.74 34.352 216.864 33.796 217.112 33.332C217.36 32.86 217.7 32.5 218.132 32.252C218.564 32.004 219.056 31.88 219.608 31.88C220.168 31.88 220.644 32 221.036 32.24C221.436 32.48 221.74 32.808 221.948 33.224C222.156 33.632 222.26 34.092 222.26 34.604C222.26 34.74 222.256 34.864 222.248 34.976C222.24 35.088 222.228 35.188 222.212 35.276H217.688C217.736 35.908 217.932 36.4 218.276 36.752C218.62 37.104 219.076 37.28 219.644 37.28C220.084 37.28 220.44 37.196 220.712 37.028C220.992 36.86 221.216 36.632 221.384 36.344L222.14 36.788C221.916 37.196 221.592 37.52 221.168 37.76C220.752 38 220.252 38.12 219.668 38.12ZM219.584 32.72C219.08 32.72 218.664 32.872 218.336 33.176C218.016 33.472 217.812 33.888 217.724 34.424H221.3C221.276 33.88 221.108 33.46 220.796 33.164C220.484 32.868 220.08 32.72 219.584 32.72ZM224.445 38V32H225.285L225.345 32.936C225.553 32.56 225.837 32.292 226.197 32.132C226.557 31.964 226.945 31.88 227.361 31.88C227.793 31.88 228.185 31.964 228.537 32.132C228.889 32.292 229.169 32.54 229.377 32.876C229.593 33.212 229.701 33.64 229.701 34.16V38H228.741V34.496C228.741 33.832 228.597 33.372 228.309 33.116C228.029 32.852 227.681 32.72 227.265 32.72C226.977 32.72 226.689 32.788 226.401 32.924C226.113 33.06 225.873 33.28 225.681 33.584C225.497 33.888 225.405 34.296 225.405 34.808V38H224.445ZM234.743 38.12C234.175 38.12 233.667 37.996 233.219 37.748C232.779 37.5 232.435 37.144 232.187 36.68C231.939 36.208 231.815 35.648 231.815 35C231.815 34.352 231.939 33.796 232.187 33.332C232.435 32.86 232.775 32.5 233.207 32.252C233.639 32.004 234.131 31.88 234.683 31.88C235.243 31.88 235.719 32 236.111 32.24C236.511 32.48 236.815 32.808 237.023 33.224C237.231 33.632 237.335 34.092 237.335 34.604C237.335 34.74 237.331 34.864 237.323 34.976C237.315 35.088 237.303 35.188 237.287 35.276H232.763C232.811 35.908 233.007 36.4 233.351 36.752C233.695 37.104 234.151 37.28 234.719 37.28C235.159 37.28 235.515 37.196 235.787 37.028C236.067 36.86 236.291 36.632 236.459 36.344L237.215 36.788C236.991 37.196 236.667 37.52 236.243 37.76C235.827 38 235.327 38.12 234.743 38.12ZM234.659 32.72C234.155 32.72 233.739 32.872 233.411 33.176C233.091 33.472 232.887 33.888 232.799 34.424H236.375C236.351 33.88 236.183 33.46 235.871 33.164C235.559 32.868 235.155 32.72 234.659 32.72ZM239.521 38V32H240.301L240.433 32.984C240.769 32.248 241.409 31.88 242.353 31.88C242.457 31.88 242.569 31.888 242.689 31.904C242.817 31.92 242.925 31.952 243.013 32L242.845 32.876C242.757 32.844 242.661 32.82 242.557 32.804C242.453 32.788 242.305 32.78 242.113 32.78C241.865 32.78 241.613 32.852 241.357 32.996C241.109 33.14 240.901 33.36 240.733 33.656C240.565 33.944 240.481 34.312 240.481 34.76V38H239.521ZM248.119 34.124C248.119 33.676 247.999 33.332 247.759 33.092C247.519 32.844 247.179 32.72 246.739 32.72C246.323 32.72 245.971 32.812 245.683 32.996C245.395 33.172 245.183 33.46 245.047 33.86L244.267 33.38C244.427 32.932 244.723 32.572 245.155 32.3C245.587 32.02 246.123 31.88 246.763 31.88C247.195 31.88 247.587 31.956 247.939 32.108C248.291 32.252 248.567 32.476 248.767 32.78C248.975 33.076 249.079 33.46 249.079 33.932V36.836C249.079 37.124 249.231 37.268 249.535 37.268C249.687 37.268 249.835 37.248 249.979 37.208L249.931 37.964C249.771 38.044 249.563 38.084 249.307 38.084C249.011 38.084 248.755 38.012 248.539 37.868C248.331 37.724 248.195 37.504 248.131 37.208C247.923 37.52 247.639 37.752 247.279 37.904C246.919 38.048 246.563 38.12 246.211 38.12C245.859 38.12 245.531 38.06 245.227 37.94C244.923 37.82 244.679 37.64 244.495 37.4C244.319 37.152 244.231 36.848 244.231 36.488C244.231 36.04 244.379 35.672 244.675 35.384C244.979 35.088 245.399 34.888 245.935 34.784L248.119 34.352V34.124ZM245.215 36.44C245.215 36.688 245.311 36.892 245.503 37.052C245.703 37.204 245.983 37.28 246.343 37.28C246.655 37.28 246.943 37.228 247.207 37.124C247.479 37.012 247.699 36.848 247.867 36.632C248.035 36.408 248.119 36.124 248.119 35.78V35.144L246.379 35.504C245.987 35.584 245.695 35.696 245.503 35.84C245.311 35.984 245.215 36.184 245.215 36.44ZM255.138 32V32.828H252.954V36.344C252.954 36.64 253.038 36.86 253.206 37.004C253.374 37.148 253.59 37.22 253.854 37.22C254.086 37.22 254.286 37.18 254.454 37.1C254.622 37.02 254.774 36.912 254.91 36.776L255.246 37.58C255.062 37.748 254.842 37.88 254.586 37.976C254.338 38.072 254.05 38.12 253.722 38.12C253.418 38.12 253.134 38.068 252.87 37.964C252.606 37.852 252.394 37.68 252.234 37.448C252.082 37.208 252.002 36.896 251.994 36.512V32.828H250.794V32H251.994V30.56L252.954 30.296V32H255.138ZM259.433 38.12C258.865 38.12 258.357 37.996 257.909 37.748C257.469 37.5 257.125 37.144 256.877 36.68C256.629 36.208 256.505 35.648 256.505 35C256.505 34.352 256.629 33.796 256.877 33.332C257.125 32.86 257.465 32.5 257.897 32.252C258.329 32.004 258.821 31.88 259.373 31.88C259.933 31.88 260.409 32 260.801 32.24C261.201 32.48 261.505 32.808 261.713 33.224C261.921 33.632 262.025 34.092 262.025 34.604C262.025 34.74 262.021 34.864 262.013 34.976C262.005 35.088 261.993 35.188 261.977 35.276H257.453C257.501 35.908 257.697 36.4 258.041 36.752C258.385 37.104 258.841 37.28 259.409 37.28C259.849 37.28 260.205 37.196 260.477 37.028C260.757 36.86 260.981 36.632 261.149 36.344L261.905 36.788C261.681 37.196 261.357 37.52 260.933 37.76C260.517 38 260.017 38.12 259.433 38.12ZM259.349 32.72C258.845 32.72 258.429 32.872 258.101 33.176C257.781 33.472 257.577 33.888 257.489 34.424H261.065C261.041 33.88 260.873 33.46 260.561 33.164C260.249 32.868 259.845 32.72 259.349 32.72ZM270.821 38.12C270.237 38.12 269.697 37.996 269.201 37.748C268.713 37.5 268.337 37.148 268.073 36.692L268.889 36.104C269.065 36.472 269.321 36.76 269.657 36.968C270.001 37.176 270.413 37.28 270.893 37.28C271.317 37.28 271.649 37.2 271.889 37.04C272.129 36.872 272.249 36.656 272.249 36.392C272.249 36.224 272.193 36.072 272.081 35.936C271.977 35.792 271.773 35.688 271.469 35.624L270.029 35.324C269.445 35.204 269.025 35.004 268.769 34.724C268.521 34.444 268.397 34.096 268.397 33.68C268.397 33.352 268.489 33.052 268.673 32.78C268.865 32.508 269.133 32.292 269.477 32.132C269.829 31.964 270.241 31.88 270.713 31.88C271.305 31.88 271.805 31.996 272.213 32.228C272.621 32.46 272.925 32.788 273.125 33.212L272.321 33.74C272.185 33.388 271.965 33.132 271.661 32.972C271.357 32.804 271.041 32.72 270.713 32.72C270.281 32.72 269.945 32.808 269.705 32.984C269.465 33.16 269.345 33.38 269.345 33.644C269.345 33.82 269.405 33.984 269.525 34.136C269.645 34.28 269.869 34.384 270.197 34.448L271.697 34.76C272.257 34.872 272.649 35.056 272.873 35.312C273.097 35.568 273.209 35.88 273.209 36.248C273.209 36.816 272.989 37.272 272.549 37.616C272.109 37.952 271.533 38.12 270.821 38.12ZM275.829 30.848C275.613 30.848 275.437 30.784 275.301 30.656C275.173 30.52 275.109 30.344 275.109 30.128C275.109 29.912 275.173 29.74 275.301 29.612C275.437 29.476 275.613 29.408 275.829 29.408C276.045 29.408 276.217 29.476 276.345 29.612C276.481 29.74 276.549 29.912 276.549 30.128C276.549 30.344 276.481 30.52 276.345 30.656C276.217 30.784 276.045 30.848 275.829 30.848ZM276.309 32V38H275.349V32H276.309ZM278.896 38V32H279.736L279.796 32.936C280.004 32.56 280.288 32.292 280.648 32.132C281.008 31.964 281.396 31.88 281.812 31.88C282.244 31.88 282.636 31.964 282.988 32.132C283.34 32.292 283.62 32.54 283.828 32.876C284.044 33.212 284.152 33.64 284.152 34.16V38H283.192V34.496C283.192 33.832 283.048 33.372 282.76 33.116C282.48 32.852 282.132 32.72 281.716 32.72C281.428 32.72 281.14 32.788 280.852 32.924C280.564 33.06 280.324 33.28 280.132 33.584C279.948 33.888 279.856 34.296 279.856 34.808V38H278.896ZM289.914 37.232C290.482 37.232 290.926 37.364 291.246 37.628C291.566 37.884 291.726 38.228 291.726 38.66C291.726 39.052 291.594 39.392 291.33 39.68C291.074 39.968 290.726 40.188 290.286 40.34C289.854 40.5 289.366 40.58 288.822 40.58C287.878 40.58 287.17 40.42 286.698 40.1C286.234 39.78 286.002 39.396 286.002 38.948C286.002 38.676 286.078 38.428 286.23 38.204C286.382 37.98 286.634 37.82 286.986 37.724C286.794 37.636 286.638 37.516 286.518 37.364C286.398 37.204 286.338 36.992 286.338 36.728C286.338 36.48 286.41 36.256 286.554 36.056C286.698 35.848 286.914 35.688 287.202 35.576C286.898 35.4 286.666 35.168 286.506 34.88C286.346 34.592 286.266 34.268 286.266 33.908C286.266 33.508 286.37 33.156 286.578 32.852C286.794 32.548 287.086 32.312 287.454 32.144C287.822 31.968 288.246 31.88 288.726 31.88C289.23 31.88 289.682 31.98 290.082 32.18C290.138 31.78 290.314 31.468 290.61 31.244C290.914 31.012 291.27 30.896 291.678 30.896H291.738L291.954 31.748H291.87C291.502 31.748 291.214 31.816 291.006 31.952C290.798 32.088 290.682 32.3 290.658 32.588C291.01 32.956 291.186 33.396 291.186 33.908C291.186 34.3 291.082 34.652 290.874 34.964C290.666 35.268 290.374 35.508 289.998 35.684C289.63 35.852 289.206 35.936 288.726 35.936C288.43 35.936 288.154 35.908 287.898 35.852C287.658 35.924 287.486 36.024 287.382 36.152C287.278 36.28 287.226 36.42 287.226 36.572C287.226 37.012 287.538 37.232 288.162 37.232H289.914ZM288.726 32.66C288.31 32.66 287.962 32.776 287.682 33.008C287.402 33.232 287.262 33.532 287.262 33.908C287.262 34.276 287.402 34.576 287.682 34.808C287.962 35.04 288.31 35.156 288.726 35.156C289.142 35.156 289.49 35.04 289.77 34.808C290.05 34.576 290.19 34.276 290.19 33.908C290.19 33.532 290.05 33.232 289.77 33.008C289.49 32.776 289.142 32.66 288.726 32.66ZM288.81 39.776C289.506 39.776 290.018 39.672 290.346 39.464C290.674 39.264 290.838 39.032 290.838 38.768C290.838 38.552 290.75 38.38 290.574 38.252C290.406 38.124 290.098 38.06 289.65 38.06H287.802C287.546 38.06 287.33 38.124 287.154 38.252C286.978 38.388 286.89 38.572 286.89 38.804C286.89 39.1 287.058 39.336 287.394 39.512C287.738 39.688 288.21 39.776 288.81 39.776ZM294.345 29.24V36.476C294.345 36.78 294.401 36.992 294.513 37.112C294.625 37.224 294.805 37.28 295.053 37.28C295.213 37.28 295.345 37.268 295.449 37.244C295.553 37.22 295.693 37.176 295.869 37.112L295.713 37.952C295.449 38.064 295.153 38.12 294.825 38.12C293.865 38.12 293.385 37.584 293.385 36.512V29.24H294.345ZM299.969 38.12C299.401 38.12 298.893 37.996 298.445 37.748C298.005 37.5 297.661 37.144 297.413 36.68C297.165 36.208 297.041 35.648 297.041 35C297.041 34.352 297.165 33.796 297.413 33.332C297.661 32.86 298.001 32.5 298.433 32.252C298.865 32.004 299.357 31.88 299.909 31.88C300.469 31.88 300.945 32 301.337 32.24C301.737 32.48 302.041 32.808 302.249 33.224C302.457 33.632 302.561 34.092 302.561 34.604C302.561 34.74 302.557 34.864 302.549 34.976C302.541 35.088 302.529 35.188 302.513 35.276H297.989C298.037 35.908 298.233 36.4 298.577 36.752C298.921 37.104 299.377 37.28 299.945 37.28C300.385 37.28 300.741 37.196 301.013 37.028C301.293 36.86 301.517 36.632 301.685 36.344L302.441 36.788C302.217 37.196 301.893 37.52 301.469 37.76C301.053 38 300.553 38.12 299.969 38.12ZM299.885 32.72C299.381 32.72 298.965 32.872 298.637 33.176C298.317 33.472 298.113 33.888 298.025 34.424H301.601C301.577 33.88 301.409 33.46 301.097 33.164C300.785 32.868 300.381 32.72 299.885 32.72ZM308.67 34.364V35.36H304.71V34.364H308.67ZM313.384 38.12C312.8 38.12 312.26 37.996 311.764 37.748C311.276 37.5 310.9 37.148 310.636 36.692L311.452 36.104C311.628 36.472 311.884 36.76 312.22 36.968C312.564 37.176 312.976 37.28 313.456 37.28C313.88 37.28 314.212 37.2 314.452 37.04C314.692 36.872 314.812 36.656 314.812 36.392C314.812 36.224 314.756 36.072 314.644 35.936C314.54 35.792 314.336 35.688 314.032 35.624L312.592 35.324C312.008 35.204 311.588 35.004 311.332 34.724C311.084 34.444 310.96 34.096 310.96 33.68C310.96 33.352 311.052 33.052 311.236 32.78C311.428 32.508 311.696 32.292 312.04 32.132C312.392 31.964 312.804 31.88 313.276 31.88C313.868 31.88 314.368 31.996 314.776 32.228C315.184 32.46 315.488 32.788 315.688 33.212L314.884 33.74C314.748 33.388 314.528 33.132 314.224 32.972C313.92 32.804 313.604 32.72 313.276 32.72C312.844 32.72 312.508 32.808 312.268 32.984C312.028 33.16 311.908 33.38 311.908 33.644C311.908 33.82 311.968 33.984 312.088 34.136C312.208 34.28 312.432 34.384 312.76 34.448L314.26 34.76C314.82 34.872 315.212 35.056 315.436 35.312C315.66 35.568 315.772 35.88 315.772 36.248C315.772 36.816 315.552 37.272 315.112 37.616C314.672 37.952 314.096 38.12 313.384 38.12ZM318.392 30.848C318.176 30.848 318 30.784 317.864 30.656C317.736 30.52 317.672 30.344 317.672 30.128C317.672 29.912 317.736 29.74 317.864 29.612C318 29.476 318.176 29.408 318.392 29.408C318.608 29.408 318.78 29.476 318.908 29.612C319.044 29.74 319.112 29.912 319.112 30.128C319.112 30.344 319.044 30.52 318.908 30.656C318.78 30.784 318.608 30.848 318.392 30.848ZM318.872 32V38H317.912V32H318.872ZM324.687 37.232C325.255 37.232 325.699 37.364 326.019 37.628C326.339 37.884 326.499 38.228 326.499 38.66C326.499 39.052 326.367 39.392 326.103 39.68C325.847 39.968 325.499 40.188 325.059 40.34C324.627 40.5 324.139 40.58 323.595 40.58C322.651 40.58 321.943 40.42 321.471 40.1C321.007 39.78 320.775 39.396 320.775 38.948C320.775 38.676 320.851 38.428 321.003 38.204C321.155 37.98 321.407 37.82 321.759 37.724C321.567 37.636 321.411 37.516 321.291 37.364C321.171 37.204 321.111 36.992 321.111 36.728C321.111 36.48 321.183 36.256 321.327 36.056C321.471 35.848 321.687 35.688 321.975 35.576C321.671 35.4 321.439 35.168 321.279 34.88C321.119 34.592 321.039 34.268 321.039 33.908C321.039 33.508 321.143 33.156 321.351 32.852C321.567 32.548 321.859 32.312 322.227 32.144C322.595 31.968 323.019 31.88 323.499 31.88C324.003 31.88 324.455 31.98 324.855 32.18C324.911 31.78 325.087 31.468 325.383 31.244C325.687 31.012 326.043 30.896 326.451 30.896H326.511L326.727 31.748H326.643C326.275 31.748 325.987 31.816 325.779 31.952C325.571 32.088 325.455 32.3 325.431 32.588C325.783 32.956 325.959 33.396 325.959 33.908C325.959 34.3 325.855 34.652 325.647 34.964C325.439 35.268 325.147 35.508 324.771 35.684C324.403 35.852 323.979 35.936 323.499 35.936C323.203 35.936 322.927 35.908 322.671 35.852C322.431 35.924 322.259 36.024 322.155 36.152C322.051 36.28 321.999 36.42 321.999 36.572C321.999 37.012 322.311 37.232 322.935 37.232H324.687ZM323.499 32.66C323.083 32.66 322.735 32.776 322.455 33.008C322.175 33.232 322.035 33.532 322.035 33.908C322.035 34.276 322.175 34.576 322.455 34.808C322.735 35.04 323.083 35.156 323.499 35.156C323.915 35.156 324.263 35.04 324.543 34.808C324.823 34.576 324.963 34.276 324.963 33.908C324.963 33.532 324.823 33.232 324.543 33.008C324.263 32.776 323.915 32.66 323.499 32.66ZM323.583 39.776C324.279 39.776 324.791 39.672 325.119 39.464C325.447 39.264 325.611 39.032 325.611 38.768C325.611 38.552 325.523 38.38 325.347 38.252C325.179 38.124 324.871 38.06 324.423 38.06H322.575C322.319 38.06 322.103 38.124 321.927 38.252C321.751 38.388 321.663 38.572 321.663 38.804C321.663 39.1 321.831 39.336 322.167 39.512C322.511 39.688 322.983 39.776 323.583 39.776ZM328.206 38V32H329.046L329.106 32.936C329.314 32.56 329.598 32.292 329.958 32.132C330.318 31.964 330.706 31.88 331.122 31.88C331.554 31.88 331.946 31.964 332.298 32.132C332.65 32.292 332.93 32.54 333.138 32.876C333.354 33.212 333.462 33.64 333.462 34.16V38H332.502V34.496C332.502 33.832 332.358 33.372 332.07 33.116C331.79 32.852 331.442 32.72 331.026 32.72C330.738 32.72 330.45 32.788 330.162 32.924C329.874 33.06 329.634 33.28 329.442 33.584C329.258 33.888 329.166 34.296 329.166 34.808V38H328.206ZM339.92 34.364V35.36H335.96V34.364H339.92ZM345.845 29.96C346.597 29.96 347.245 30.128 347.789 30.464C348.341 30.792 348.765 31.26 349.061 31.868C349.365 32.476 349.517 33.2 349.517 34.04C349.517 34.88 349.365 35.604 349.061 36.212C348.765 36.82 348.341 37.292 347.789 37.628C347.245 37.956 346.597 38.12 345.845 38.12C345.093 38.12 344.441 37.956 343.889 37.628C343.345 37.292 342.921 36.82 342.617 36.212C342.321 35.604 342.173 34.88 342.173 34.04C342.173 33.2 342.321 32.476 342.617 31.868C342.921 31.26 343.345 30.792 343.889 30.464C344.441 30.128 345.093 29.96 345.845 29.96ZM345.845 30.86C345.021 30.86 344.369 31.14 343.889 31.7C343.417 32.26 343.181 33.04 343.181 34.04C343.181 35.032 343.417 35.812 343.889 36.38C344.369 36.94 345.021 37.22 345.845 37.22C346.669 37.22 347.317 36.94 347.789 36.38C348.269 35.812 348.509 35.032 348.509 34.04C348.509 33.04 348.269 32.26 347.789 31.7C347.317 31.14 346.669 30.86 345.845 30.86ZM351.751 38V32H352.591L352.651 32.936C352.859 32.56 353.143 32.292 353.503 32.132C353.863 31.964 354.251 31.88 354.667 31.88C355.099 31.88 355.491 31.964 355.843 32.132C356.195 32.292 356.475 32.54 356.683 32.876C356.899 33.212 357.007 33.64 357.007 34.16V38H356.047V34.496C356.047 33.832 355.903 33.372 355.615 33.116C355.335 32.852 354.987 32.72 354.571 32.72C354.283 32.72 353.995 32.788 353.707 32.924C353.419 33.06 353.179 33.28 352.987 33.584C352.803 33.888 352.711 34.296 352.711 34.808V38H351.751ZM213.408 54.34C213.024 54.34 212.656 54.272 212.304 54.136C211.96 54 211.672 53.768 211.44 53.44C211.208 53.112 211.076 52.664 211.044 52.096C210.38 52.032 209.804 51.828 209.316 51.484C208.836 51.132 208.464 50.664 208.2 50.08C207.944 49.496 207.816 48.816 207.816 48.04C207.816 47.2 207.964 46.476 208.26 45.868C208.564 45.26 208.988 44.792 209.532 44.464C210.084 44.128 210.736 43.96 211.488 43.96C212.24 43.96 212.888 44.128 213.432 44.464C213.984 44.792 214.408 45.26 214.704 45.868C215.008 46.476 215.16 47.2 215.16 48.04C215.16 48.824 215.028 49.512 214.764 50.104C214.5 50.688 214.124 51.152 213.636 51.496C213.148 51.84 212.568 52.04 211.896 52.096C211.936 52.456 212.028 52.728 212.172 52.912C212.316 53.096 212.496 53.216 212.712 53.272C212.936 53.336 213.176 53.368 213.432 53.368C214.056 53.368 214.528 53.22 214.848 52.924L215.16 53.812C214.968 53.98 214.7 54.108 214.356 54.196C214.02 54.292 213.704 54.34 213.408 54.34ZM211.488 44.86C210.664 44.86 210.012 45.14 209.532 45.7C209.06 46.26 208.824 47.04 208.824 48.04C208.824 49.032 209.06 49.812 209.532 50.38C210.012 50.94 210.664 51.22 211.488 51.22C212.312 51.22 212.96 50.94 213.432 50.38C213.912 49.812 214.152 49.032 214.152 48.04C214.152 47.04 213.912 46.26 213.432 45.7C212.96 45.14 212.312 44.86 211.488 44.86ZM220.633 44.08C221.441 44.08 222.089 44.288 222.577 44.704C223.065 45.12 223.309 45.684 223.309 46.396C223.309 46.964 223.149 47.432 222.829 47.8C222.509 48.168 222.077 48.42 221.533 48.556L223.789 52H222.649L220.489 48.712H218.593V52H217.633V44.08H220.633ZM220.621 47.812C221.741 47.812 222.301 47.34 222.301 46.396C222.301 45.452 221.741 44.98 220.621 44.98H218.593V47.812H220.621ZM232.727 45.88C233.343 45.88 233.855 46.024 234.263 46.312C234.671 46.592 234.987 46.98 235.211 47.476L234.299 47.908C234.171 47.524 233.975 47.232 233.711 47.032C233.455 46.824 233.119 46.72 232.703 46.72C232.103 46.72 231.631 46.924 231.287 47.332C230.951 47.732 230.783 48.288 230.783 49C230.783 49.712 230.951 50.272 231.287 50.68C231.631 51.08 232.103 51.28 232.703 51.28C233.175 51.28 233.551 51.172 233.831 50.956C234.111 50.74 234.295 50.436 234.383 50.044L235.271 50.356C235.071 50.908 234.755 51.34 234.323 51.652C233.899 51.964 233.367 52.12 232.727 52.12C232.167 52.12 231.667 51.996 231.227 51.748C230.787 51.5 230.443 51.144 230.195 50.68C229.947 50.208 229.823 49.648 229.823 49C229.823 48.352 229.947 47.796 230.195 47.332C230.443 46.86 230.787 46.5 231.227 46.252C231.667 46.004 232.167 45.88 232.727 45.88ZM239.802 45.88C240.37 45.88 240.87 46.004 241.302 46.252C241.742 46.5 242.086 46.86 242.334 47.332C242.582 47.796 242.706 48.352 242.706 49C242.706 49.648 242.582 50.208 242.334 50.68C242.086 51.144 241.742 51.5 241.302 51.748C240.87 51.996 240.37 52.12 239.802 52.12C239.242 52.12 238.742 51.996 238.302 51.748C237.862 51.5 237.518 51.144 237.27 50.68C237.022 50.208 236.898 49.648 236.898 49C236.898 48.352 237.022 47.796 237.27 47.332C237.518 46.86 237.862 46.5 238.302 46.252C238.742 46.004 239.242 45.88 239.802 45.88ZM239.802 46.708C239.194 46.708 238.718 46.912 238.374 47.32C238.03 47.728 237.858 48.288 237.858 49C237.858 49.712 238.03 50.272 238.374 50.68C238.718 51.088 239.194 51.292 239.802 51.292C240.41 51.292 240.886 51.088 241.23 50.68C241.574 50.272 241.746 49.712 241.746 49C241.746 48.288 241.574 47.728 241.23 47.32C240.886 46.912 240.41 46.708 239.802 46.708ZM247.213 52.12C246.717 52.12 246.261 51.996 245.845 51.748C245.429 51.5 245.097 51.144 244.849 50.68C244.601 50.208 244.477 49.648 244.477 49C244.477 48.336 244.609 47.772 244.873 47.308C245.137 46.844 245.485 46.492 245.917 46.252C246.349 46.004 246.813 45.88 247.309 45.88C247.741 45.88 248.125 45.98 248.461 46.18C248.797 46.372 249.045 46.636 249.205 46.972V43.24H250.165V52H249.325L249.265 50.872C249.097 51.28 248.825 51.592 248.449 51.808C248.073 52.016 247.661 52.12 247.213 52.12ZM247.309 51.28C247.877 51.28 248.333 51.068 248.677 50.644C249.029 50.22 249.205 49.644 249.205 48.916C249.205 48.228 249.033 47.692 248.689 47.308C248.345 46.916 247.901 46.72 247.357 46.72C246.749 46.72 246.277 46.928 245.941 47.344C245.605 47.76 245.437 48.312 245.437 49C245.437 49.688 245.601 50.24 245.929 50.656C246.257 51.072 246.717 51.28 247.309 51.28ZM255.264 52.12C254.696 52.12 254.188 51.996 253.74 51.748C253.3 51.5 252.956 51.144 252.708 50.68C252.46 50.208 252.336 49.648 252.336 49C252.336 48.352 252.46 47.796 252.708 47.332C252.956 46.86 253.296 46.5 253.728 46.252C254.16 46.004 254.652 45.88 255.204 45.88C255.764 45.88 256.24 46 256.632 46.24C257.032 46.48 257.336 46.808 257.544 47.224C257.752 47.632 257.856 48.092 257.856 48.604C257.856 48.74 257.852 48.864 257.844 48.976C257.836 49.088 257.824 49.188 257.808 49.276H253.284C253.332 49.908 253.528 50.4 253.872 50.752C254.216 51.104 254.672 51.28 255.24 51.28C255.68 51.28 256.036 51.196 256.308 51.028C256.588 50.86 256.812 50.632 256.98 50.344L257.736 50.788C257.512 51.196 257.188 51.52 256.764 51.76C256.348 52 255.848 52.12 255.264 52.12ZM255.18 46.72C254.676 46.72 254.26 46.872 253.932 47.176C253.612 47.472 253.408 47.888 253.32 48.424H256.896C256.872 47.88 256.704 47.46 256.392 47.164C256.08 46.868 255.676 46.72 255.18 46.72ZM262.202 52.12C261.618 52.12 261.078 51.996 260.582 51.748C260.094 51.5 259.718 51.148 259.454 50.692L260.27 50.104C260.446 50.472 260.702 50.76 261.038 50.968C261.382 51.176 261.794 51.28 262.274 51.28C262.698 51.28 263.03 51.2 263.27 51.04C263.51 50.872 263.63 50.656 263.63 50.392C263.63 50.224 263.574 50.072 263.462 49.936C263.358 49.792 263.154 49.688 262.85 49.624L261.41 49.324C260.826 49.204 260.406 49.004 260.15 48.724C259.902 48.444 259.778 48.096 259.778 47.68C259.778 47.352 259.87 47.052 260.054 46.78C260.246 46.508 260.514 46.292 260.858 46.132C261.21 45.964 261.622 45.88 262.094 45.88C262.686 45.88 263.186 45.996 263.594 46.228C264.002 46.46 264.306 46.788 264.506 47.212L263.702 47.74C263.566 47.388 263.346 47.132 263.042 46.972C262.738 46.804 262.422 46.72 262.094 46.72C261.662 46.72 261.326 46.808 261.086 46.984C260.846 47.16 260.726 47.38 260.726 47.644C260.726 47.82 260.786 47.984 260.906 48.136C261.026 48.28 261.25 48.384 261.578 48.448L263.078 48.76C263.638 48.872 264.03 49.056 264.254 49.312C264.478 49.568 264.59 49.88 264.59 50.248C264.59 50.816 264.37 51.272 263.93 51.616C263.49 51.952 262.914 52.12 262.202 52.12Z" fill="#181B5E"/>
<path d="M165.5 46.5308V48.4998C165.5 49.052 165.948 49.4998 166.5 49.4998H168.469" stroke="#181B5E" stroke-linecap="round" stroke-linejoin="round"/>
<path d="M168.469 30.5H166.5C165.948 30.5 165.5 30.9477 165.5 31.5V33.469" stroke="#181B5E" stroke-linecap="round" stroke-linejoin="round"/>
<path d="M188.5 33.469V31.5C188.5 30.9477 188.053 30.5 187.5 30.5H185.531" stroke="#181B5E" stroke-linecap="round" stroke-linejoin="round"/>
<path d="M185.531 49.4998H187.5C188.053 49.4998 188.5 49.052 188.5 48.4998V46.5308" stroke="#181B5E" stroke-linecap="round" stroke-linejoin="round"/>
<path fill-rule="evenodd" clip-rule="evenodd" d="M170.497 33.5H173.497V36.5H170.497V33.5Z" stroke="#181B5E" stroke-linecap="round" stroke-linejoin="round"/>
<path fill-rule="evenodd" clip-rule="evenodd" d="M180.497 33.5H183.497V36.5H180.497V33.5Z" stroke="#181B5E" stroke-linecap="round" stroke-linejoin="round"/>
<path fill-rule="evenodd" clip-rule="evenodd" d="M170.497 43.5H173.497V46.5H170.497V43.5Z" stroke="#181B5E" stroke-linecap="round" stroke-linejoin="round"/>
<path d="M180.497 43.5V46.5H183.497V43.5H182.497" stroke="#181B5E" stroke-linecap="round" stroke-linejoin="round"/>
<path d="M175.497 36V33.5H178.497" stroke="#181B5E" stroke-linecap="round" stroke-linejoin="round"/>
<path d="M178.497 35.5V39" stroke="#181B5E" stroke-linecap="round" stroke-linejoin="round"/>
<path d="M170.497 41.5H175.497V39" stroke="#181B5E" stroke-linecap="round" stroke-linejoin="round"/>
<path d="M175.497 43.5V46.5H178.497" stroke="#181B5E" stroke-linecap="round" stroke-linejoin="round"/>
<path d="M177.497 43.5H178.497" stroke="#181B5E" stroke-linecap="round" stroke-linejoin="round"/>
<path d="M170.497 38.5H173.497" stroke="#181B5E" stroke-linecap="round" stroke-linejoin="round"/>
<path d="M183.497 38.5H180.497V39.5" stroke="#181B5E" stroke-linecap="round" stroke-linejoin="round"/>
<path d="M177.497 41.5H183.497" stroke="#181B5E" stroke-linecap="round" stroke-linejoin="round"/>
<defs>
<filter id="filter0_d" x="0.5" y="0.547852" width="152.875" height="161.177" filterUnits="userSpaceOnUse" color-interpolation-filters="sRGB">
<feFlood flood-opacity="0" result="BackgroundImageFix"/>
<feColorMatrix in="SourceAlpha" type="matrix" values="0 0 0 0 0 0 0 0 0 0 0 0 0 0 0 0 0 0 127 0" result="hardAlpha"/>
<feOffset dy="4"/>
<feGaussianBlur stdDeviation="5"/>
<feColorMatrix type="matrix" values="0 0 0 0 0 0 0 0 0 0 0 0 0 0 0 0 0 0 0.15 0"/>
<feBlend mode="normal" in2="BackgroundImageFix" result="effect1_dropShadow"/>
<feBlend mode="normal" in="SourceGraphic" in2="effect1_dropShadow" result="shape"/>
</filter>
</defs>
</svg>
