<svg width="246" height="154" viewBox="0 0 246 154" fill="none" xmlns="http://www.w3.org/2000/svg">
<g filter="url(#filter0_d)">
<path d="M225.378 19.4364L222.747 16.3148L219.625 18.9458L222.256 22.0674L225.378 19.4364ZM148 98.6895L147.532 98.8659L148 98.6895ZM218.209 135.562C218.387 135.351 218.361 135.036 218.15 134.858L214.715 131.951C214.504 131.772 214.189 131.799 214.01 132.01C213.832 132.22 213.858 132.536 214.069 132.714L217.122 135.298L214.539 138.352C214.36 138.562 214.387 138.878 214.597 139.056C214.808 139.235 215.124 139.208 215.302 138.997L218.209 135.562ZM222.544 18.6929C190.139 15.9298 168.275 27.7473 156.067 44.4065C143.878 61.0409 141.347 82.4672 147.532 98.8659L148.468 98.513C142.407 82.4432 144.876 61.3703 156.874 44.9976C168.854 28.6498 190.363 16.9525 222.459 19.6893L222.544 18.6929ZM147.532 98.8659C153.012 113.395 162.207 123.328 174.251 129.268C186.282 135.202 201.119 137.133 217.869 135.738L217.786 134.741C201.15 136.127 186.51 134.2 174.693 128.372C162.889 122.549 153.863 112.817 148.468 98.513L147.532 98.8659Z" fill="#181B5E"/>
</g>
<path d="M51.3026 108.489C51.9159 108.489 52.4559 108.586 52.9226 108.779C53.3959 108.966 53.8059 109.243 54.1526 109.609L53.3226 110.719C53.0359 110.419 52.7259 110.196 52.3926 110.049C52.0659 109.896 51.6926 109.819 51.2726 109.819C50.9059 109.819 50.6426 109.879 50.4826 109.999C50.3226 110.119 50.2426 110.266 50.2426 110.439C50.2426 110.579 50.3059 110.699 50.4326 110.799C50.5659 110.893 50.7792 110.973 51.0726 111.039L52.1826 111.289C52.8426 111.443 53.3259 111.666 53.6326 111.959C53.9392 112.253 54.0926 112.643 54.0926 113.129C54.0926 113.596 53.9726 113.993 53.7326 114.319C53.4926 114.639 53.1626 114.883 52.7426 115.049C52.3226 115.209 51.8426 115.289 51.3026 115.289C50.6359 115.289 50.0259 115.183 49.4726 114.969C48.9192 114.749 48.4792 114.463 48.1526 114.109L48.9826 112.959C49.2292 113.246 49.5626 113.486 49.9826 113.679C50.4026 113.866 50.8359 113.959 51.2826 113.959C51.9759 113.959 52.3226 113.756 52.3226 113.349C52.3226 113.209 52.2692 113.093 52.1626 112.999C52.0626 112.899 51.8759 112.816 51.6026 112.749L50.3826 112.479C50.0092 112.399 49.6759 112.286 49.3826 112.139C49.0959 111.993 48.8692 111.799 48.7026 111.559C48.5359 111.313 48.4526 111.006 48.4526 110.639C48.4526 110.226 48.5659 109.859 48.7926 109.539C49.0192 109.213 49.3459 108.956 49.7726 108.769C50.1992 108.583 50.7092 108.489 51.3026 108.489ZM56.1784 109.609C55.8317 109.609 55.5784 109.546 55.4184 109.419C55.265 109.286 55.1884 109.079 55.1884 108.799C55.1884 108.513 55.265 108.306 55.4184 108.179C55.5784 108.046 55.8317 107.979 56.1784 107.979C56.5184 107.979 56.7684 108.046 56.9284 108.179C57.0884 108.306 57.1684 108.513 57.1684 108.799C57.1684 109.079 57.0884 109.286 56.9284 109.419C56.7684 109.546 56.5184 109.609 56.1784 109.609ZM57.0284 110.189V115.189H55.3284V110.189H57.0284ZM58.5385 115.189V110.189H60.0585L60.1085 111.199C60.2618 110.833 60.4852 110.556 60.7785 110.369C61.0718 110.183 61.4185 110.089 61.8185 110.089C62.3318 110.089 62.7485 110.239 63.0685 110.539C63.3885 110.839 63.5485 111.279 63.5485 111.859V115.189H61.8485V112.309C61.8485 111.963 61.7818 111.723 61.6485 111.589C61.5152 111.456 61.3452 111.389 61.1385 111.389C60.8918 111.389 60.6785 111.476 60.4985 111.649C60.3252 111.823 60.2385 112.119 60.2385 112.539V115.189H58.5385ZM68.1597 114.079C68.7397 114.079 69.183 114.203 69.4897 114.449C69.803 114.689 69.9597 115.036 69.9597 115.489C69.9597 116.116 69.7097 116.579 69.2097 116.879C68.7164 117.186 68.0497 117.339 67.2097 117.339C66.303 117.339 65.6497 117.226 65.2497 116.999C64.8497 116.773 64.6497 116.466 64.6497 116.079C64.6497 115.853 64.723 115.659 64.8697 115.499C65.023 115.339 65.2664 115.229 65.5997 115.169C65.113 114.989 64.8697 114.653 64.8697 114.159C64.8697 113.926 64.9397 113.723 65.0797 113.549C65.2197 113.369 65.413 113.239 65.6597 113.159C65.1264 112.866 64.8597 112.409 64.8597 111.789C64.8597 111.249 65.0697 110.833 65.4897 110.539C65.9164 110.239 66.513 110.089 67.2797 110.089C67.6664 110.089 68.0164 110.129 68.3297 110.209C68.3564 109.969 68.423 109.746 68.5297 109.539C68.643 109.333 68.7964 109.166 68.9897 109.039C69.1897 108.906 69.433 108.839 69.7197 108.839C69.7397 108.839 69.763 108.843 69.7897 108.849C69.8164 108.849 69.8464 108.849 69.8797 108.849L70.0197 109.989C69.9464 109.969 69.8664 109.959 69.7797 109.959C69.5464 109.959 69.3597 110.006 69.2197 110.099C69.0797 110.193 68.9864 110.313 68.9397 110.459C69.4397 110.753 69.6897 111.196 69.6897 111.789C69.6897 112.329 69.4764 112.746 69.0497 113.039C68.6297 113.333 68.0397 113.479 67.2797 113.479C66.933 113.479 66.6197 113.449 66.3397 113.389C66.1197 113.456 66.0097 113.573 66.0097 113.739C66.0097 113.966 66.1964 114.079 66.5697 114.079H68.1597ZM67.2797 111.059C67.0597 111.059 66.8797 111.123 66.7397 111.249C66.6064 111.376 66.5397 111.556 66.5397 111.789C66.5397 112.016 66.6064 112.193 66.7397 112.319C66.8797 112.446 67.0597 112.509 67.2797 112.509C67.493 112.509 67.6697 112.446 67.8097 112.319C67.9497 112.193 68.0197 112.016 68.0197 111.789C68.0197 111.556 67.9497 111.376 67.8097 111.249C67.6697 111.123 67.493 111.059 67.2797 111.059ZM67.2197 116.239C67.6997 116.239 68.0564 116.189 68.2897 116.089C68.5297 115.996 68.6497 115.876 68.6497 115.729C68.6497 115.629 68.6097 115.549 68.5297 115.489C68.4564 115.436 68.3264 115.409 68.1397 115.409H66.3497C66.223 115.409 66.1197 115.443 66.0397 115.509C65.9664 115.576 65.9297 115.659 65.9297 115.759C65.9297 115.913 66.043 116.029 66.2697 116.109C66.4964 116.196 66.813 116.239 67.2197 116.239ZM72.6154 108.069V113.489C72.6154 113.709 72.6521 113.866 72.7254 113.959C72.7987 114.053 72.9221 114.099 73.0954 114.099C73.1954 114.099 73.2787 114.093 73.3454 114.079C73.4121 114.066 73.4921 114.046 73.5854 114.019L73.4754 115.039C73.3554 115.113 73.1987 115.173 73.0054 115.219C72.8121 115.266 72.6221 115.289 72.4354 115.289C71.9021 115.289 71.5154 115.166 71.2754 114.919C71.0354 114.673 70.9154 114.269 70.9154 113.709V108.069H72.6154ZM76.9469 115.289C76.1135 115.289 75.4535 115.063 74.9669 114.609C74.4869 114.156 74.2469 113.516 74.2469 112.689C74.2469 112.143 74.3569 111.676 74.5769 111.289C74.8035 110.896 75.1102 110.599 75.4969 110.399C75.8902 110.193 76.3469 110.089 76.8669 110.089C77.3935 110.089 77.8402 110.193 78.2069 110.399C78.5802 110.599 78.8635 110.879 79.0569 111.239C79.2502 111.593 79.3469 111.999 79.3469 112.459C79.3469 112.586 79.3402 112.709 79.3269 112.829C79.3202 112.943 79.3135 113.039 79.3069 113.119H75.8969C75.9435 113.466 76.0569 113.716 76.2369 113.869C76.4169 114.016 76.6535 114.089 76.9469 114.089C77.2002 114.089 77.4002 114.039 77.5469 113.939C77.7002 113.839 77.8135 113.699 77.8869 113.519L79.2469 113.969C79.1535 114.256 78.9902 114.499 78.7569 114.699C78.5302 114.893 78.2569 115.039 77.9369 115.139C77.6235 115.239 77.2935 115.289 76.9469 115.289ZM76.8669 111.279C76.3269 111.279 76.0069 111.589 75.9069 112.209H77.7369C77.6635 111.589 77.3735 111.279 76.8669 111.279ZM84.4579 111.819V113.209H80.7979V111.819H84.4579ZM88.6565 108.489C89.2698 108.489 89.8098 108.586 90.2765 108.779C90.7498 108.966 91.1598 109.243 91.5065 109.609L90.6765 110.719C90.3898 110.419 90.0798 110.196 89.7465 110.049C89.4198 109.896 89.0465 109.819 88.6265 109.819C88.2598 109.819 87.9965 109.879 87.8365 109.999C87.6765 110.119 87.5965 110.266 87.5965 110.439C87.5965 110.579 87.6598 110.699 87.7865 110.799C87.9198 110.893 88.1331 110.973 88.4265 111.039L89.5365 111.289C90.1965 111.443 90.6798 111.666 90.9865 111.959C91.2931 112.253 91.4465 112.643 91.4465 113.129C91.4465 113.596 91.3265 113.993 91.0865 114.319C90.8465 114.639 90.5165 114.883 90.0965 115.049C89.6765 115.209 89.1965 115.289 88.6565 115.289C87.9898 115.289 87.3798 115.183 86.8265 114.969C86.2731 114.749 85.8331 114.463 85.5065 114.109L86.3365 112.959C86.5831 113.246 86.9165 113.486 87.3365 113.679C87.7565 113.866 88.1898 113.959 88.6365 113.959C89.3298 113.959 89.6765 113.756 89.6765 113.349C89.6765 113.209 89.6231 113.093 89.5165 112.999C89.4165 112.899 89.2298 112.816 88.9565 112.749L87.7365 112.479C87.3631 112.399 87.0298 112.286 86.7365 112.139C86.4498 111.993 86.2231 111.799 86.0565 111.559C85.8898 111.313 85.8065 111.006 85.8065 110.639C85.8065 110.226 85.9198 109.859 86.1465 109.539C86.3731 109.213 86.6998 108.956 87.1265 108.769C87.5531 108.583 88.0631 108.489 88.6565 108.489ZM93.5323 109.609C93.1856 109.609 92.9323 109.546 92.7723 109.419C92.6189 109.286 92.5423 109.079 92.5423 108.799C92.5423 108.513 92.6189 108.306 92.7723 108.179C92.9323 108.046 93.1856 107.979 93.5323 107.979C93.8723 107.979 94.1223 108.046 94.2823 108.179C94.4423 108.306 94.5223 108.513 94.5223 108.799C94.5223 109.079 94.4423 109.286 94.2823 109.419C94.1223 109.546 93.8723 109.609 93.5323 109.609ZM94.3823 110.189V115.189H92.6823V110.189H94.3823ZM95.8924 115.189V110.189H97.4124L97.4624 111.199C97.6158 110.833 97.8391 110.556 98.1324 110.369C98.4258 110.183 98.7724 110.089 99.1724 110.089C99.6858 110.089 100.102 110.239 100.422 110.539C100.742 110.839 100.902 111.279 100.902 111.859V115.189H99.2024V112.309C99.2024 111.963 99.1358 111.723 99.0024 111.589C98.8691 111.456 98.6991 111.389 98.4924 111.389C98.2458 111.389 98.0324 111.476 97.8524 111.649C97.6791 111.823 97.5924 112.119 97.5924 112.539V115.189H95.8924ZM105.514 114.079C106.094 114.079 106.537 114.203 106.844 114.449C107.157 114.689 107.314 115.036 107.314 115.489C107.314 116.116 107.064 116.579 106.564 116.879C106.07 117.186 105.404 117.339 104.564 117.339C103.657 117.339 103.004 117.226 102.604 116.999C102.204 116.773 102.004 116.466 102.004 116.079C102.004 115.853 102.077 115.659 102.224 115.499C102.377 115.339 102.62 115.229 102.954 115.169C102.467 114.989 102.224 114.653 102.224 114.159C102.224 113.926 102.294 113.723 102.434 113.549C102.574 113.369 102.767 113.239 103.014 113.159C102.48 112.866 102.214 112.409 102.214 111.789C102.214 111.249 102.424 110.833 102.844 110.539C103.27 110.239 103.867 110.089 104.634 110.089C105.02 110.089 105.37 110.129 105.684 110.209C105.71 109.969 105.777 109.746 105.884 109.539C105.997 109.333 106.15 109.166 106.344 109.039C106.544 108.906 106.787 108.839 107.074 108.839C107.094 108.839 107.117 108.843 107.144 108.849C107.17 108.849 107.2 108.849 107.234 108.849L107.374 109.989C107.3 109.969 107.22 109.959 107.134 109.959C106.9 109.959 106.714 110.006 106.574 110.099C106.434 110.193 106.34 110.313 106.294 110.459C106.794 110.753 107.044 111.196 107.044 111.789C107.044 112.329 106.83 112.746 106.404 113.039C105.984 113.333 105.394 113.479 104.634 113.479C104.287 113.479 103.974 113.449 103.694 113.389C103.474 113.456 103.364 113.573 103.364 113.739C103.364 113.966 103.55 114.079 103.924 114.079H105.514ZM104.634 111.059C104.414 111.059 104.234 111.123 104.094 111.249C103.96 111.376 103.894 111.556 103.894 111.789C103.894 112.016 103.96 112.193 104.094 112.319C104.234 112.446 104.414 112.509 104.634 112.509C104.847 112.509 105.024 112.446 105.164 112.319C105.304 112.193 105.374 112.016 105.374 111.789C105.374 111.556 105.304 111.376 105.164 111.249C105.024 111.123 104.847 111.059 104.634 111.059ZM104.574 116.239C105.054 116.239 105.41 116.189 105.644 116.089C105.884 115.996 106.004 115.876 106.004 115.729C106.004 115.629 105.964 115.549 105.884 115.489C105.81 115.436 105.68 115.409 105.494 115.409H103.704C103.577 115.409 103.474 115.443 103.394 115.509C103.32 115.576 103.284 115.659 103.284 115.759C103.284 115.913 103.397 116.029 103.624 116.109C103.85 116.196 104.167 116.239 104.574 116.239ZM112.032 111.819V113.209H108.372V111.819H112.032ZM116.835 108.489C117.502 108.489 118.075 108.626 118.555 108.899C119.042 109.166 119.415 109.553 119.675 110.059C119.935 110.566 120.065 111.176 120.065 111.889C120.065 112.603 119.935 113.213 119.675 113.719C119.415 114.226 119.042 114.616 118.555 114.889C118.075 115.156 117.502 115.289 116.835 115.289C116.162 115.289 115.582 115.156 115.095 114.889C114.615 114.616 114.245 114.226 113.985 113.719C113.725 113.213 113.595 112.603 113.595 111.889C113.595 111.176 113.725 110.566 113.985 110.059C114.245 109.553 114.615 109.166 115.095 108.899C115.582 108.626 116.162 108.489 116.835 108.489ZM116.835 109.839C116.355 109.839 115.989 110.013 115.735 110.359C115.482 110.699 115.355 111.209 115.355 111.889C115.355 112.569 115.482 113.083 115.735 113.429C115.989 113.769 116.355 113.939 116.835 113.939C117.309 113.939 117.672 113.769 117.925 113.429C118.179 113.083 118.305 112.569 118.305 111.889C118.305 111.209 118.179 110.699 117.925 110.359C117.672 110.013 117.309 109.839 116.835 109.839ZM121.409 115.189V110.189H122.929L122.979 111.199C123.132 110.833 123.355 110.556 123.649 110.369C123.942 110.183 124.289 110.089 124.689 110.089C125.202 110.089 125.619 110.239 125.939 110.539C126.259 110.839 126.419 111.279 126.419 111.859V115.189H124.719V112.309C124.719 111.963 124.652 111.723 124.519 111.589C124.385 111.456 124.215 111.389 124.009 111.389C123.762 111.389 123.549 111.476 123.369 111.649C123.195 111.823 123.109 112.119 123.109 112.539V115.189H121.409ZM87.6663 127.289C87.1797 127.289 86.7297 127.186 86.3163 126.979C85.9097 126.773 85.5963 126.479 85.3763 126.099L86.0563 125.609C86.203 125.916 86.4163 126.156 86.6963 126.329C86.983 126.503 87.3263 126.589 87.7263 126.589C88.0797 126.589 88.3563 126.523 88.5563 126.389C88.7563 126.249 88.8563 126.069 88.8563 125.849C88.8563 125.709 88.8097 125.583 88.7163 125.469C88.6297 125.349 88.4597 125.263 88.2063 125.209L87.0063 124.959C86.5197 124.859 86.1697 124.693 85.9563 124.459C85.7497 124.226 85.6463 123.936 85.6463 123.589C85.6463 123.316 85.723 123.066 85.8763 122.839C86.0363 122.613 86.2597 122.433 86.5463 122.299C86.8397 122.159 87.183 122.089 87.5763 122.089C88.0697 122.089 88.4863 122.186 88.8263 122.379C89.1663 122.573 89.4197 122.846 89.5863 123.199L88.9163 123.639C88.803 123.346 88.6197 123.133 88.3663 122.999C88.113 122.859 87.8497 122.789 87.5763 122.789C87.2163 122.789 86.9363 122.863 86.7363 123.009C86.5363 123.156 86.4363 123.339 86.4363 123.559C86.4363 123.706 86.4863 123.843 86.5863 123.969C86.6863 124.089 86.873 124.176 87.1463 124.229L88.3963 124.489C88.863 124.583 89.1897 124.736 89.3763 124.949C89.563 125.163 89.6563 125.423 89.6563 125.729C89.6563 126.203 89.473 126.583 89.1063 126.869C88.7397 127.149 88.2597 127.289 87.6663 127.289ZM93.5098 122.089C94.0231 122.089 94.4498 122.209 94.7898 122.449C95.1298 122.683 95.3931 123.006 95.5798 123.419L94.8198 123.779C94.7131 123.459 94.5498 123.216 94.3298 123.049C94.1164 122.876 93.8364 122.789 93.4898 122.789C92.9898 122.789 92.5964 122.959 92.3098 123.299C92.0298 123.633 91.8898 124.096 91.8898 124.689C91.8898 125.283 92.0298 125.749 92.3098 126.089C92.5964 126.423 92.9898 126.589 93.4898 126.589C93.8831 126.589 94.1964 126.499 94.4298 126.319C94.6631 126.139 94.8164 125.886 94.8898 125.559L95.6298 125.819C95.4631 126.279 95.1998 126.639 94.8398 126.899C94.4864 127.159 94.0431 127.289 93.5098 127.289C93.0431 127.289 92.6264 127.186 92.2598 126.979C91.8931 126.773 91.6064 126.476 91.3998 126.089C91.1931 125.696 91.0898 125.229 91.0898 124.689C91.0898 124.149 91.1931 123.686 91.3998 123.299C91.6064 122.906 91.8931 122.606 92.2598 122.399C92.6264 122.193 93.0431 122.089 93.5098 122.089ZM100.255 123.959C100.255 123.586 100.155 123.299 99.9555 123.099C99.7555 122.893 99.4721 122.789 99.1055 122.789C98.7588 122.789 98.4655 122.866 98.2255 123.019C97.9855 123.166 97.8088 123.406 97.6955 123.739L97.0455 123.339C97.1788 122.966 97.4255 122.666 97.7855 122.439C98.1455 122.206 98.5921 122.089 99.1255 122.089C99.4855 122.089 99.8121 122.153 100.105 122.279C100.399 122.399 100.629 122.586 100.795 122.839C100.969 123.086 101.055 123.406 101.055 123.799V126.219C101.055 126.459 101.182 126.579 101.435 126.579C101.562 126.579 101.685 126.563 101.805 126.529L101.765 127.159C101.632 127.226 101.459 127.259 101.245 127.259C100.999 127.259 100.785 127.199 100.605 127.079C100.432 126.959 100.319 126.776 100.265 126.529C100.092 126.789 99.8555 126.983 99.5555 127.109C99.2555 127.229 98.9588 127.289 98.6655 127.289C98.3721 127.289 98.0988 127.239 97.8455 127.139C97.5921 127.039 97.3888 126.889 97.2355 126.689C97.0888 126.483 97.0155 126.229 97.0155 125.929C97.0155 125.556 97.1388 125.249 97.3855 125.009C97.6388 124.763 97.9888 124.596 98.4355 124.509L100.255 124.149V123.959ZM97.8355 125.889C97.8355 126.096 97.9155 126.266 98.0755 126.399C98.2421 126.526 98.4755 126.589 98.7755 126.589C99.0355 126.589 99.2755 126.546 99.4955 126.459C99.7221 126.366 99.9055 126.229 100.045 126.049C100.185 125.863 100.255 125.626 100.255 125.339V124.809L98.8055 125.109C98.4788 125.176 98.2355 125.269 98.0755 125.389C97.9155 125.509 97.8355 125.676 97.8355 125.889ZM103.3 127.189V122.189H104L104.05 122.969C104.223 122.656 104.46 122.433 104.76 122.299C105.06 122.159 105.383 122.089 105.73 122.089C106.09 122.089 106.416 122.159 106.71 122.299C107.003 122.433 107.236 122.639 107.41 122.919C107.59 123.199 107.68 123.556 107.68 123.989V127.189H106.88V124.269C106.88 123.716 106.76 123.333 106.52 123.119C106.286 122.899 105.996 122.789 105.65 122.789C105.41 122.789 105.17 122.846 104.93 122.959C104.69 123.073 104.49 123.256 104.33 123.509C104.176 123.763 104.1 124.103 104.1 124.529V127.189H103.3ZM117.909 129.139C117.589 129.139 117.282 129.083 116.989 128.969C116.702 128.856 116.462 128.663 116.269 128.389C116.076 128.116 115.966 127.743 115.939 127.269C115.386 127.216 114.906 127.046 114.499 126.759C114.099 126.466 113.789 126.076 113.569 125.589C113.356 125.103 113.249 124.536 113.249 123.889C113.249 123.189 113.372 122.586 113.619 122.079C113.872 121.573 114.226 121.183 114.679 120.909C115.139 120.629 115.682 120.489 116.309 120.489C116.936 120.489 117.476 120.629 117.929 120.909C118.389 121.183 118.742 121.573 118.989 122.079C119.242 122.586 119.369 123.189 119.369 123.889C119.369 124.543 119.259 125.116 119.039 125.609C118.819 126.096 118.506 126.483 118.099 126.769C117.692 127.056 117.209 127.223 116.649 127.269C116.682 127.569 116.759 127.796 116.879 127.949C116.999 128.103 117.149 128.203 117.329 128.249C117.516 128.303 117.716 128.329 117.929 128.329C118.449 128.329 118.842 128.206 119.109 127.959L119.369 128.699C119.209 128.839 118.986 128.946 118.699 129.019C118.419 129.099 118.156 129.139 117.909 129.139ZM116.309 121.239C115.622 121.239 115.079 121.473 114.679 121.939C114.286 122.406 114.089 123.056 114.089 123.889C114.089 124.716 114.286 125.366 114.679 125.839C115.079 126.306 115.622 126.539 116.309 126.539C116.996 126.539 117.536 126.306 117.929 125.839C118.329 125.366 118.529 124.716 118.529 123.889C118.529 123.056 118.329 122.406 117.929 121.939C117.536 121.473 116.996 121.239 116.309 121.239ZM123.93 120.589C124.603 120.589 125.143 120.763 125.55 121.109C125.956 121.456 126.16 121.926 126.16 122.519C126.16 122.993 126.026 123.383 125.76 123.689C125.493 123.996 125.133 124.206 124.68 124.319L126.56 127.189H125.61L123.81 124.449H122.23V127.189H121.43V120.589H123.93ZM123.92 123.699C124.853 123.699 125.32 123.306 125.32 122.519C125.32 121.733 124.853 121.339 123.92 121.339H122.23V123.699H123.92Z" fill="#181B5E"/>
<path d="M108.396 93.0879V94.5646C108.396 94.9789 108.75 95.3146 109.187 95.3146H110.746" stroke="#181B5E" stroke-linecap="round" stroke-linejoin="round"/>
<path d="M110.746 81.0645H109.187C108.75 81.0645 108.396 81.4002 108.396 81.8145V83.2912" stroke="#181B5E" stroke-linecap="round" stroke-linejoin="round"/>
<path d="M126.603 83.2912V81.8145C126.603 81.4002 126.249 81.0645 125.812 81.0645H124.253" stroke="#181B5E" stroke-linecap="round" stroke-linejoin="round"/>
<path d="M124.253 95.3146H125.812C126.249 95.3146 126.603 94.9789 126.603 94.5646V93.0879" stroke="#181B5E" stroke-linecap="round" stroke-linejoin="round"/>
<path fill-rule="evenodd" clip-rule="evenodd" d="M112.352 83.3145H114.727V85.5645H112.352V83.3145Z" stroke="#181B5E" stroke-linecap="round" stroke-linejoin="round"/>
<path fill-rule="evenodd" clip-rule="evenodd" d="M120.269 83.3145H122.644V85.5645H120.269V83.3145Z" stroke="#181B5E" stroke-linecap="round" stroke-linejoin="round"/>
<path fill-rule="evenodd" clip-rule="evenodd" d="M112.352 90.8145H114.727V93.0645H112.352V90.8145Z" stroke="#181B5E" stroke-linecap="round" stroke-linejoin="round"/>
<path d="M120.269 90.8145V93.0645H122.644V90.8145H121.852" stroke="#181B5E" stroke-linecap="round" stroke-linejoin="round"/>
<path d="M116.31 85.1895V83.3145H118.685" stroke="#181B5E" stroke-linecap="round" stroke-linejoin="round"/>
<path d="M118.685 84.8145V87.4395" stroke="#181B5E" stroke-linecap="round" stroke-linejoin="round"/>
<path d="M112.352 89.3145H116.31V87.4395" stroke="#181B5E" stroke-linecap="round" stroke-linejoin="round"/>
<path d="M116.31 90.8145V93.0645H118.685" stroke="#181B5E" stroke-linecap="round" stroke-linejoin="round"/>
<path d="M117.894 90.8145H118.685" stroke="#181B5E" stroke-linecap="round" stroke-linejoin="round"/>
<path d="M112.352 87.0645H114.727" stroke="#181B5E" stroke-linecap="round" stroke-linejoin="round"/>
<path d="M122.644 87.0645H120.269V87.8145" stroke="#181B5E" stroke-linecap="round" stroke-linejoin="round"/>
<path d="M117.894 89.3145H122.644" stroke="#181B5E" stroke-linecap="round" stroke-linejoin="round"/>
<defs>
<filter id="filter0_d" x="126.524" y="0.0766602" width="119.428" height="153.519" filterUnits="userSpaceOnUse" color-interpolation-filters="sRGB">
<feFlood flood-opacity="0" result="BackgroundImageFix"/>
<feColorMatrix in="SourceAlpha" type="matrix" values="0 0 0 0 0 0 0 0 0 0 0 0 0 0 0 0 0 0 127 0" result="hardAlpha"/>
<feOffset dy="4"/>
<feGaussianBlur stdDeviation="5"/>
<feColorMatrix type="matrix" values="0 0 0 0 0 0 0 0 0 0 0 0 0 0 0 0 0 0 0.15 0"/>
<feBlend mode="normal" in2="BackgroundImageFix" result="effect1_dropShadow"/>
<feBlend mode="normal" in="SourceGraphic" in2="effect1_dropShadow" result="shape"/>
</filter>
</defs>
</svg>
