<svg width="275" height="100" viewBox="0 0 275 100" fill="none" xmlns="http://www.w3.org/2000/svg">
<rect width="274.654" height="100" rx="12" fill="#F9F9F9"/>
<g clip-path="url(#clip0_2986_65882)">
<path d="M20.001 35.7645C20.001 35.7645 45.675 32.442 46.3994 32.3243C47.5112 32.1428 48.4972 31.9303 49.4177 31.6768C51.4943 31.1078 53.4057 30.2396 55.098 29.095C56.7216 28.0077 58.2308 26.425 59.7269 24.6885C60.6769 23.5832 61.676 22.1427 62.608 20.7529V20.0808C61.5027 21.7176 60.4137 23.1286 59.2937 24.3729C57.809 26.026 56.2524 27.3766 54.6647 28.3904C53.0264 29.4466 51.1836 30.2331 49.1839 30.7318C48.2879 30.9574 47.3298 31.1405 46.2506 31.291C45.541 31.3906 44.8084 31.4676 44.1004 31.5412C43.8176 31.5723 20.001 34.0984 20.001 34.0984V35.7645Z" fill="#181B5E" fill-opacity="0.6"/>
<path d="M54.4299 31.4598C52.8226 32.3836 50.9668 33.0606 48.9131 33.4693C48.0367 33.6476 47.0802 33.7915 45.9913 33.9092C45.3503 33.9794 44.7061 34.035 44.0602 34.0906C43.712 34.1201 43.3637 34.1511 43.0154 34.1822C35.1474 34.8886 27.3203 35.6391 20 36.3487V38.0148C27.3775 37.1254 35.2602 36.1819 43.125 35.2924C43.4749 35.2516 43.8248 35.2124 44.1747 35.1747C44.8189 35.1043 45.4648 35.0325 46.1106 34.9475C47.2307 34.7987 48.2101 34.627 49.1045 34.4242C51.2383 33.9468 53.1644 33.1946 54.8305 32.1858C56.4852 31.1933 57.947 29.8018 59.5199 28.1014C60.4994 27.0435 61.5883 25.549 62.6086 24.1461V23.5345C61.4068 25.1631 60.2672 26.5317 59.1406 27.6991C57.6052 29.2901 56.0208 30.554 54.4299 31.4598Z" fill="#181B5E" fill-opacity="0.6"/>
<path d="M58.9231 31.0518C57.3567 32.4891 55.7217 33.6189 54.0621 34.4103C52.4384 35.1935 50.6234 35.7429 48.5093 36.0895C47.6378 36.2351 46.6894 36.3528 45.6119 36.4509L20 38.5536V40.2149L42.7669 37.7998L45.7117 37.4908C46.8219 37.3617 47.7898 37.2177 48.6695 37.051C50.8589 36.6373 52.7376 36.0208 54.4103 35.1641C56.1206 34.2991 57.8292 32.8603 59.4185 31.3364C60.4846 30.3145 61.5115 28.9949 62.6086 27.6116V27.0573C61.3414 28.6335 60.1315 29.9449 58.9231 31.0518Z" fill="#181B5E" fill-opacity="0.6"/>
<path d="M52.7304 39.6812C51.2393 40.515 50.1241 40.9958 47.9952 41.2182C46.7084 41.3572 45.3857 41.4225 44.1054 41.4863C43.4873 41.5173 42.8676 41.5484 42.2479 41.5877C38.3793 41.8084 34.5794 42.0537 30.7026 42.3055L20.001 43.0265V44.6878L30.8105 43.6969C34.3031 43.383 38.3613 43.0217 42.3231 42.6979L45.2042 42.4756C46.3291 42.389 47.2513 42.2973 48.1048 42.1862C50.2958 41.9033 52.168 41.4602 53.8259 40.8339C55.6115 40.1668 57.2956 39.1302 58.9814 37.9104C60.502 36.8117 62.6063 34.6451 62.608 34.6174V34.0303C61.2329 35.3711 60.4415 36.1249 58.9356 37.1174C57.1354 38.3028 54.0679 38.9339 52.7304 39.6812Z" fill="#181B5E" fill-opacity="0.6"/>
<path d="M53.2749 42.8391C51.6594 43.3133 49.8412 43.6338 47.7156 43.8186C46.8539 43.8938 45.9252 43.951 44.8755 43.9935L42.0108 44.1193C34.8933 44.4496 27.8085 44.8192 20.001 45.2328V46.8892C27.4602 46.312 34.769 45.7512 42.0762 45.2312L44.9311 45.0367C46.0348 44.963 46.9488 44.8846 47.8088 44.7881C49.9868 44.5445 51.8508 44.1684 53.5055 43.6386C55.3384 43.0582 57.1255 42.2161 58.8162 41.137C60.0638 40.3423 61.313 39.394 62.608 38.2642V38.2347C61.1805 39.4528 59.8201 39.7242 58.4647 40.5418C56.8034 41.549 55.0571 42.3208 53.2749 42.8391Z" fill="#181B5E" fill-opacity="0.6"/>
<path d="M53.0107 45.5924C51.3838 45.9734 49.6195 46.217 47.4596 46.3625C46.6273 46.4181 45.7313 46.459 44.6407 46.4933L41.8038 46.5947C34.6552 46.8645 27.4069 47.1751 20 47.4972V49.1536C27.3595 48.6516 34.5784 48.1627 41.8594 47.7082L44.6897 47.5381C45.8 47.4743 46.7042 47.4106 47.5364 47.3337C49.7356 47.131 51.5358 46.835 53.2003 46.405C55.0676 45.9243 56.8825 45.2179 58.5945 44.3088C59.9189 43.6074 61.24 42.7637 62.6086 41.7467V41.0387C61.1288 42.1064 59.7096 42.9778 58.2904 43.6875C56.6079 44.5295 54.8321 45.1705 53.0107 45.5924Z" fill="#181B5E" fill-opacity="0.6"/>
<path d="M52.7681 48.2917C51.1346 48.5909 49.3769 48.7822 47.2333 48.8917C46.4272 48.9343 45.5639 48.9637 44.4357 48.9899L20.001 49.6504V51.3068L41.6675 50.1753L44.4749 50.033C45.5704 49.9807 46.4665 49.9284 47.2954 49.8647C49.4685 49.6979 51.2556 49.4592 52.9201 49.1109C54.8103 48.7185 56.6448 48.1461 58.3715 47.4104C59.7629 46.8201 61.156 46.1007 62.608 45.2259V44.5605C61.0579 45.463 59.5831 46.1857 58.118 46.7661C56.4159 47.4431 54.6157 47.9565 52.7681 48.2917Z" fill="#181B5E" fill-opacity="0.6"/>
<path d="M52.5767 51.0027C49.578 51.4033 46.4926 51.4491 43.5069 51.4932C42.8235 51.5024 42.1384 51.5128 41.4549 51.5276L20.001 51.9135V53.5665L41.4925 52.6411C42.1727 52.6101 42.8562 52.5822 43.5396 52.5561C46.5449 52.4351 49.6532 52.3108 52.6928 51.8284C54.6157 51.526 56.4666 51.0763 58.1949 50.4959C59.6256 50.0168 61.107 49.3971 62.608 48.6645V48.0302C61.0301 48.7643 59.4784 49.3759 57.9889 49.8337C56.2818 50.3602 54.462 50.7542 52.5767 51.0028" fill="#181B5E" fill-opacity="0.6"/>
<path d="M52.4057 53.7307C49.5966 53.9629 46.7221 53.9629 43.9409 53.9629C43.0759 53.9629 42.211 53.9629 41.346 53.9694C34.2383 54.0005 27.1878 54.0593 20 54.1214V55.7745C26.8461 55.5424 34.1075 55.3003 41.3705 55.0845C42.2322 55.0551 43.0939 55.0339 43.9572 55.011C46.7532 54.9407 49.644 54.8687 52.4825 54.5613C54.4643 54.3488 56.2694 54.0365 57.9977 53.6097C59.5052 53.2386 61.0536 52.7448 62.6086 52.1513V51.543C61.0029 52.1185 59.4039 52.5894 57.8456 52.9328C56.1337 53.3105 54.3547 53.5705 52.4057 53.7307Z" fill="#181B5E" fill-opacity="0.6"/>
<path d="M52.2981 56.4198C51.1274 56.4656 49.8602 56.4885 48.4229 56.4885C47.8801 56.4885 47.3356 56.4859 46.7944 56.4806L41.2645 56.4136C37.4924 56.3858 33.7334 56.3793 30.2065 56.3761L20.002 56.3853V58.0367L30.231 57.7702C33.7448 57.6836 37.5137 57.5936 41.276 57.5266L46.8009 57.4529C48.3167 57.43 50.3163 57.3842 52.3422 57.2518C54.3272 57.1227 56.134 56.9248 57.8655 56.6484C59.4238 56.3999 61.0163 56.0647 62.6089 55.6576V55.0722C60.9722 55.4483 59.3453 55.7508 57.7674 55.9618C56.0457 56.1923 54.2569 56.3411 52.2981 56.4196" fill="#181B5E" fill-opacity="0.6"/>
<path d="M46.7297 59.0185L41.2194 58.9597C34.1886 58.8599 27.1659 58.7324 20.001 58.5983V60.2514C26.8389 60.2073 34.0823 60.1548 41.2244 60.0748L46.7378 59.993C48.5953 59.9603 50.4151 59.9261 52.2546 59.8655C56.0431 59.7445 59.4375 59.4779 62.608 59.0577V58.4822C59.4245 58.8256 56.0268 59.0054 52.235 59.0299C50.4021 59.0463 48.5659 59.0339 46.7297 59.0182" fill="#181B5E" fill-opacity="0.6"/>
<path d="M62.6089 61.9417L20.002 60.8609V62.514H62.6089V61.9417Z" fill="#181B5E" fill-opacity="0.6"/>
<path d="M58.7721 34.1744C57.1533 35.4743 55.9041 36.3982 53.9224 37.1847C52.1974 37.8714 50.3449 38.1509 48.2274 38.4404C46.8654 38.6317 45.4412 38.9129 44.0808 39.0045C43.5216 39.042 42.9624 39.078 42.4049 39.1222L20.001 40.7557V42.4137L42.4948 40.2324L45.4118 39.9594C46.4926 39.8563 47.454 39.7387 48.3468 39.5931C50.5264 39.2432 52.405 38.7102 54.0892 37.9596C55.8354 37.1895 57.603 35.9273 59.2462 34.5456C60.363 33.6071 61.4389 32.4265 62.608 31.1365V30.5429C61.1936 32.0047 60.0196 33.1738 58.7721 34.1744Z" fill="#181B5E" fill-opacity="0.6"/>
<path d="M37.71 78.36H75.0324V61.7624H37.71V78.36Z" fill="white"/>
<path fill-rule="evenodd" clip-rule="evenodd" d="M75.0389 37.5418H37.71V62.5128H75.0389V37.5418ZM56.7794 41.0929H58.0776L57.0312 41.9088L57.4383 43.2022L56.3951 42.4059L55.3519 43.2022L55.764 41.9088L54.7077 41.0929H56.0027L56.3951 39.8306L56.7794 41.0929ZM58.1267 57.7457H56.8252L56.4425 56.5324L56.0501 57.7457H54.7535L55.8114 58.5322L55.401 59.7748L56.4425 59.0097L57.4857 59.7748L57.0786 58.5322L58.1267 57.7457ZM60.9444 56.6431H62.246L61.1979 57.4279L61.605 58.6721L60.5618 57.9037L59.5203 58.6721L59.9307 57.4279L58.8728 56.6431H60.1694L60.5618 55.4282L60.9444 56.6431ZM62.246 42.2038H60.9444L60.5618 40.9905L60.1694 42.2038H58.8728L59.9307 42.9886L59.5203 44.2329L60.5618 43.466L61.605 44.2329L61.1979 42.9886L62.246 42.2038ZM64.0028 45.2619H65.3011L64.2546 46.045L64.6617 47.291L63.6185 46.5241L62.5787 47.291L62.9891 46.045L61.9312 45.2619H63.2261L63.6185 44.047L64.0028 45.2619ZM65.3011 53.6264H64.0028L63.6185 52.4116L63.2261 53.6264H61.9312L62.9891 54.4129L62.5787 55.6588L63.6185 54.8903L64.6617 55.6588L64.2546 54.4129L65.3011 53.6264ZM65.1488 49.3804H66.4503L65.4022 50.1652L65.8094 51.4111L64.7661 50.6426L63.7246 51.4111L64.135 50.1652L63.0771 49.3804H64.3721L64.7661 48.1671L65.1488 49.3804ZM53.8779 42.214H52.5797L52.1954 41.0007L51.803 42.214H50.508L51.5643 43.0004L51.1522 44.2447L52.1954 43.4762L53.2386 44.2447L52.8315 43.0004L53.8779 42.214ZM49.6061 45.2721H50.9076L49.8596 46.0569L50.2651 47.3028L49.2235 46.5343L48.182 47.3028L48.5908 46.0569L47.5345 45.2721H48.8311L49.2235 44.0588L49.6061 45.2721ZM49.8023 49.3907H48.5024L48.1198 48.1775L47.7274 49.3907H46.4324L47.487 50.1755L47.0766 51.4214L48.1198 50.6546L49.1613 51.4214L48.7558 50.1755L49.8023 49.3907ZM49.6061 53.6368H50.9076L49.8596 54.4232L50.2651 55.6692L49.2235 54.9007L48.182 55.6692L48.5908 54.4232L47.5345 53.6368H48.8311L49.2235 52.4252L49.6061 53.6368ZM53.9212 56.6534H52.6229L52.2387 55.4385L51.8462 56.6534H50.5513L51.6075 57.4382L51.1955 58.6825L52.2387 57.9156L53.2786 58.6825L52.8747 57.4382L53.9212 56.6534Z" fill="#181B5E"/>
<path d="M56.7797 41.0929H58.0779L57.0315 41.9088L57.4386 43.2022L56.3954 42.4059L55.3523 43.2022L55.7643 41.9088L54.708 41.0929H56.003L56.3954 39.8306L56.7797 41.0929Z" fill="#BABBCF"/>
<path d="M56.8255 57.7458H58.1271L57.079 58.5322L57.4861 59.7749L56.4429 59.0097L55.4014 59.7749L55.8118 58.5322L54.7539 57.7458H56.0505L56.4429 56.5325L56.8255 57.7458Z" fill="#BABBCF"/>
<path d="M60.9447 56.6431H62.2462L61.1981 57.4279L61.6053 58.6722L60.5621 57.9037L59.5205 58.6722L59.9309 57.4279L58.873 56.6431H60.1697L60.5621 55.4282L60.9447 56.6431Z" fill="#BABBCF"/>
<path d="M60.9447 42.2038H62.2462L61.1981 42.9886L61.6053 44.233L60.5621 43.466L59.5205 44.233L59.9309 42.9886L58.873 42.2038H60.1697L60.5621 40.9906L60.9447 42.2038Z" fill="#BABBCF"/>
<path d="M64.0033 45.2619H65.3015L64.2551 46.0451L64.6622 47.291L63.619 46.5242L62.5791 47.291L62.9895 46.0451L61.9316 45.2619H63.2266L63.619 44.047L64.0033 45.2619Z" fill="#BABBCF"/>
<path d="M64.0033 53.6264H65.3015L64.2551 54.4129L64.6622 55.6589L63.619 54.8904L62.5791 55.6589L62.9895 54.4129L61.9316 53.6264H63.2266L63.619 52.4116L64.0033 53.6264Z" fill="#BABBCF"/>
<path d="M65.1488 49.3804H66.4503L65.4022 50.1652L65.8094 51.4111L64.7662 50.6426L63.7246 51.4111L64.135 50.1652L63.0771 49.3804H64.3721L64.7662 48.1671L65.1488 49.3804Z" fill="#BABBCF"/>
<path d="M52.5794 42.214H53.8777L52.8313 43.0005L53.2384 44.2447L52.1952 43.4762L51.152 44.2447L51.5641 43.0005L50.5078 42.214H51.8028L52.1952 41.0008L52.5794 42.214Z" fill="#BABBCF"/>
<path d="M49.6068 45.2721H50.9083L49.8602 46.0569L50.2657 47.3028L49.2242 46.5343L48.1826 47.3028L48.5914 46.0569L47.5352 45.2721H48.8318L49.2242 44.0588L49.6068 45.2721Z" fill="#BABBCF"/>
<path d="M48.5026 49.3907H49.8025L48.7561 50.1755L49.1616 51.4214L48.12 50.6546L47.0768 51.4214L47.4872 50.1755L46.4326 49.3907H47.7276L48.12 48.1775L48.5026 49.3907Z" fill="#BABBCF"/>
<path d="M49.6068 53.6368H50.9083L49.8602 54.4233L50.2657 55.6692L49.2242 54.9007L48.1826 55.6692L48.5914 54.4233L47.5352 53.6368H48.8318L49.2242 52.4252L49.6068 53.6368Z" fill="#BABBCF"/>
<path d="M52.6234 56.6534H53.9217L52.8752 57.4382L53.2791 58.6825L52.2392 57.9156L51.196 58.6825L51.608 57.4382L50.5518 56.6534H51.8467L52.2392 55.4385L52.6234 56.6534Z" fill="#BABBCF"/>
<path d="M37.71 80H75.0421V77.8695H37.71V80Z" fill="#181B5E"/>
<path d="M80.3516 20.0001C80.3516 20.0001 88.1345 32.1209 89.5587 34.3495C90.9812 36.5765 92.6081 38.3391 98.3669 39.536C104.126 40.7329 106.632 41.2986 106.632 41.2986V41.7303C106.632 41.7303 102.973 40.9651 98.2639 39.935C93.5565 38.9049 91.632 38.5566 89.4851 35.6298C87.698 33.1935 80.3516 22.8385 80.3516 22.8385V20.0001Z" fill="#181B5E" fill-opacity="0.6"/>
<path d="M80.3516 23.4464C80.3516 23.4464 88.3946 34.9689 89.4623 36.3816C90.53 37.7943 91.9673 40.0703 98.3245 41.4144C99.9661 41.761 106.654 43.0772 106.654 43.0772V43.4418C106.654 43.4418 101.572 42.4624 98.3245 41.779C95.0755 41.0955 91.6631 40.4725 89.4852 37.7256C87.5067 35.2305 80.3369 26.0282 80.3369 26.0282L80.3516 23.4464H80.3516Z" fill="#181B5E" fill-opacity="0.6"/>
<path d="M80.3516 26.908C80.3516 26.908 87.9302 36.7004 89.4623 38.6592C90.9928 40.6164 93.1036 42.2336 98.3245 43.2359C101.335 43.8147 106.631 44.7842 106.631 44.7842V45.1489C106.631 45.1489 101.99 44.284 98.3245 43.6234C94.6586 42.9628 91.6321 42.3235 89.4623 39.8888C87.5591 37.7518 80.3369 29.3524 80.3369 29.3524L80.3516 26.908H80.3516Z" fill="#181B5E" fill-opacity="0.6"/>
<path d="M80.337 30.3087C80.337 30.3087 88.0104 39.1921 89.4853 40.7765C91.7826 43.2439 92.8961 44.0941 98.3245 45.1259C100.496 45.5395 106.631 46.6072 106.631 46.6072V46.9931C106.631 46.9931 101.551 46.0824 98.3245 45.5134C95.1002 44.9444 92.3712 44.7318 89.4624 41.9374C87.2469 39.8102 80.3517 32.6011 80.3517 32.6011L80.3369 30.3087H80.337Z" fill="#181B5E" fill-opacity="0.6"/>
<path d="M80.3516 33.8462C80.3516 33.8462 87.4364 41.1239 89.4851 43.2136C91.6581 45.4291 94.4427 46.2499 98.3015 46.9252C101.985 47.5694 106.631 48.315 106.631 48.315V48.7238C106.631 48.7238 102.268 48.024 98.3015 47.3585C94.4116 46.7045 91.6892 46.3415 89.4622 44.3287C87.4674 42.5269 80.3516 35.9865 80.3516 35.9865V33.8462Z" fill="#181B5E" fill-opacity="0.6"/>
<path d="M80.3516 37.1254C80.3516 37.1254 87.0897 43.2586 89.4851 45.3547C91.6892 47.2825 93.4764 47.8826 98.3244 48.7246C103.174 49.5667 106.631 50.0899 106.631 50.0899V50.5232C106.631 50.5232 102.245 49.8169 98.3015 49.2021C94.3576 48.5873 91.8445 48.3453 89.4851 46.4698C86.7627 44.305 80.3516 39.1299 80.3516 39.1299V37.1254Z" fill="#181B5E" fill-opacity="0.6"/>
<path d="M80.336 40.6325C80.336 40.6325 88.0225 46.6071 89.4614 47.6535C90.9003 48.7016 92.8019 49.923 98.3236 50.7062C103.799 51.4812 106.607 51.8671 106.607 51.8671V52.3233C106.607 52.3233 101.643 51.6153 98.3236 51.2065C95.006 50.7961 92.4618 50.6228 89.4843 48.6787C86.5853 46.7869 80.3507 42.485 80.3507 42.485L80.3359 40.6325H80.336Z" fill="#181B5E" fill-opacity="0.6"/>
<path d="M80.336 43.9877C80.336 43.9877 88.0454 49.0205 89.5072 49.8184C90.9706 50.6147 92.6874 51.9129 98.3236 52.6193C103.961 53.324 106.607 53.6429 106.607 53.6429V54.0761C106.607 54.0761 101.944 53.5759 98.3006 53.1883C94.6577 52.8008 92.1757 52.2776 89.4614 50.8191C86.7472 49.3622 80.3507 45.7029 80.3507 45.7029L80.3359 43.9877H80.336Z" fill="#181B5E" fill-opacity="0.6"/>
<path d="M80.3516 47.3429C80.3516 47.3429 87.1748 50.9809 89.4852 52.1173C92.0604 53.3845 94.2874 53.9927 98.3245 54.462C102.288 54.9264 106.631 55.3744 106.631 55.3744V55.7848C106.631 55.7848 102.615 55.363 98.3245 54.964C94.0716 54.57 92.5559 54.3868 89.4852 53.0509C86.7383 51.8573 80.3369 48.9371 80.3369 48.9371L80.3516 47.3429H80.3516Z" fill="#181B5E" fill-opacity="0.6"/>
<path d="M80.3516 50.7587C80.3516 50.7587 85.7196 53.0118 89.5081 54.485C93.2361 55.9353 96.0827 56.058 98.3473 56.3081C99.3447 56.4177 106.608 57.1503 106.608 57.1503V57.559C106.608 57.559 102.268 57.2189 98.3245 56.8772C94.3806 56.5355 92.6785 56.3916 89.4852 55.3517C86.2526 54.3003 80.3369 52.2777 80.3369 52.2777L80.3516 50.7587H80.3516Z" fill="#181B5E" fill-opacity="0.6"/>
<path d="M80.3516 54.2202C80.3516 54.2202 85.7965 55.8749 89.5081 56.8314C93.2197 57.788 96.6305 58.1755 98.3473 58.2883C100.064 58.4028 106.608 58.926 106.608 58.926V59.3135C106.608 59.3135 102.896 59.065 98.3245 58.7445C94.6275 58.4862 91.6582 58.213 89.4852 57.7421C87.0767 57.2205 80.3369 55.6477 80.3369 55.6477L80.3516 54.2202H80.3516Z" fill="#181B5E" fill-opacity="0.6"/>
<path d="M80.3369 57.6364C80.3369 57.6364 84.804 58.3902 89.5081 59.1538C93.035 59.7277 97.8143 60.0891 98.3245 60.1103C98.8346 60.1332 106.631 60.658 106.631 60.658V61.0668C106.631 61.0668 101.642 60.815 98.3245 60.6352C94.8695 60.4471 91.4358 60.2427 89.4852 60.0433C85.1163 59.5952 80.3369 59.0034 80.3369 59.0034V57.6364Z" fill="#181B5E" fill-opacity="0.6"/>
<path d="M80.3516 61.1731C80.3516 61.1731 87.3742 61.4314 89.508 61.4772C91.6418 61.523 106.631 62.1149 106.631 62.1149V62.5253L80.3516 62.5089V61.1731Z" fill="#181B5E" fill-opacity="0.6"/>
<path d="M39.8926 64.9742C39.8926 64.8973 39.9285 64.8566 40.0103 64.8566H42.1768C42.2472 64.8566 42.2897 64.8974 42.2897 64.9678V65.334C42.2897 65.4044 42.2602 65.4403 42.172 65.4403H40.5647V66.4524H41.9888C42.0656 66.4524 42.1065 66.4885 42.1065 66.5587V66.9233C42.1065 66.9937 42.0771 67.0295 41.9888 67.0295H40.5647V68.1888H42.2128C42.2831 68.1888 42.3192 68.2247 42.3192 68.3017V68.6597C42.3192 68.7366 42.2897 68.766 42.2063 68.766H40.0104C39.9286 68.766 39.8927 68.73 39.8927 68.6597V64.9742H39.8926Z" fill="#181B5E"/>
<path d="M45.0497 68.7664H44.6312C44.5429 68.7664 44.52 68.7256 44.52 68.6552V68.472L44.5082 68.4655C44.2777 68.6257 43.8771 68.8187 43.519 68.8187C42.7243 68.8187 42.6475 68.3478 42.6475 67.7297V65.9982C42.6475 65.9279 42.6769 65.882 42.7587 65.882H43.1887C43.2656 65.882 43.295 65.9228 43.295 65.9982V67.6529C43.295 68.0077 43.3653 68.2301 43.7251 68.2301C43.9785 68.2301 44.366 68.042 44.5197 67.9652V65.9982C44.5197 65.9279 44.5426 65.882 44.6309 65.882H45.0495C45.1312 65.882 45.1607 65.9228 45.1607 65.9982V68.6552C45.1607 68.7304 45.1312 68.7664 45.0495 68.7664" fill="#181B5E"/>
<path d="M46.3086 68.6546C46.3086 68.725 46.2792 68.7657 46.1974 68.7657H45.7723C45.6906 68.7657 45.6611 68.7314 45.6611 68.6546V65.9992C45.6611 65.9223 45.6906 65.8815 45.7723 65.8815H46.1909C46.2792 65.8815 46.3086 65.9288 46.3086 65.9992V66.2576L46.3204 66.2694C46.497 66.1059 46.9156 65.9047 47.1919 65.8524C47.2688 65.8343 47.321 65.8524 47.3341 65.9521L47.3749 66.3461C47.3802 66.4295 47.3867 66.4638 47.2622 66.4884C46.9336 66.5522 46.515 66.6698 46.3089 66.7581V68.6548L46.3086 68.6546Z" fill="#181B5E"/>
<path d="M48.787 66.3874C48.2867 66.3874 48.1739 66.7063 48.1739 67.3178C48.1739 67.9424 48.2866 68.2482 48.7805 68.2482C49.3168 68.2482 49.4231 67.9473 49.4231 67.3178C49.4231 66.6932 49.3233 66.3874 48.787 66.3874ZM48.7805 68.814C47.5983 68.814 47.5215 67.9473 47.5215 67.2769C47.5215 66.7226 47.644 65.8217 48.7805 65.8217C49.9234 65.8217 50.082 66.582 50.082 67.2769C50.082 67.9473 50.0003 68.814 48.7805 68.814Z" fill="#181B5E"/>
<path d="M51.8418 66.423C51.5998 66.423 51.2286 66.5931 51.052 66.6879V68.1595C51.3169 68.2364 51.5295 68.2593 51.7306 68.2593C52.1541 68.2593 52.3012 68.0417 52.3012 67.3011C52.3012 66.5522 52.1541 66.4231 51.8418 66.4231M51.7944 68.8201C51.5998 68.8201 51.33 68.7841 51.0586 68.6893L51.0521 68.6958V69.7324C51.0521 69.7961 51.0357 69.8502 50.9409 69.8502H50.5223C50.4292 69.8502 50.4111 69.8094 50.4111 69.7324V65.9995C50.4111 65.9227 50.4406 65.8819 50.5223 65.8819H50.9409C51.0244 65.8819 51.0472 65.9276 51.0472 65.9995V66.1761L51.0653 66.188C51.2762 66.0408 51.6539 65.8347 51.9956 65.8347C52.7658 65.8347 52.9669 66.4168 52.9669 67.3063C52.9669 68.2661 52.7249 68.8204 51.7945 68.8204" fill="#181B5E"/>
<path d="M53.9844 67.0588H55.1502C55.1502 66.6991 55.0554 66.3524 54.5681 66.3524C54.1315 66.3524 54.0138 66.6173 53.9844 67.0588ZM53.9779 67.5003C53.9959 68.0954 54.2084 68.2606 54.6907 68.2606C54.9033 68.2606 55.232 68.2181 55.456 68.1952C55.5623 68.1834 55.5982 68.1834 55.6162 68.295L55.6506 68.4896C55.6687 68.5778 55.6572 68.6253 55.551 68.6727C55.3204 68.761 54.892 68.8198 54.6026 68.8198C53.4777 68.8198 53.3125 68.102 53.3125 67.3352C53.3125 66.7645 53.4189 65.8227 54.5683 65.8227C55.6213 65.8227 55.8093 66.5062 55.8273 67.1406C55.8338 67.3532 55.775 67.5004 55.5395 67.5004H53.978L53.9779 67.5003Z" fill="#181B5E"/>
<path d="M57.9109 67.4531H57.1931C56.8988 67.4531 56.7091 67.5594 56.7091 67.9485C56.7091 68.2069 56.7974 68.2902 57.0754 68.2902C57.3288 68.2902 57.6869 68.1414 57.9109 68.0122V67.4531ZM57.9469 68.4308C57.6526 68.6548 57.2569 68.8135 56.8628 68.8135C56.2382 68.8135 56.0567 68.4717 56.0567 67.9779C56.0502 67.2879 56.4214 66.9936 57.1637 66.9936H57.9175V66.8416C57.9175 66.4884 57.7867 66.3641 57.3043 66.3641C57.1097 66.3641 56.7386 66.3935 56.5031 66.4164C56.3854 66.4345 56.3559 66.4282 56.3396 66.3462L56.2857 66.1287C56.2739 66.0518 56.2923 66.0044 56.4214 65.9521C56.6749 65.8638 57.1392 65.823 57.4172 65.823C58.4359 65.823 58.5585 66.24 58.5585 66.9006V68.0369C58.5585 68.2773 58.5879 68.2838 58.7711 68.3067C58.8594 68.3132 58.8822 68.3311 58.8822 68.395V68.6435C58.8822 68.7073 58.8414 68.7481 58.7416 68.7661C58.6468 68.7841 58.5536 68.7955 58.4653 68.7955C58.1873 68.7955 58.0173 68.7138 57.9584 68.4375L57.9467 68.4309L57.9469 68.4308Z" fill="#181B5E"/>
<path d="M61.4479 68.7664H61.0244C60.9475 68.7664 60.9116 68.7304 60.9116 68.6551L60.9181 67.0004C60.9181 66.6521 60.8363 66.4233 60.4946 66.4233C60.2591 66.4233 59.8471 66.6113 59.6868 66.6882V68.6551C59.6868 68.7255 59.6574 68.7664 59.5757 68.7664H59.1571C59.0753 68.7664 59.0459 68.7304 59.0459 68.6551V65.9981C59.0459 65.9229 59.0753 65.882 59.1571 65.882H59.5757C59.6574 65.882 59.6868 65.9228 59.6868 65.9981V66.1763C59.6934 66.1763 59.7 66.1816 59.7049 66.1816C59.9224 66.0295 60.3344 65.8284 60.6941 65.8284C61.4888 65.8284 61.5607 66.3533 61.5607 66.9469V68.6555C61.5607 68.7258 61.5361 68.7667 61.4478 68.7667" fill="#181B5E"/>
<path d="M41.4292 71.0287C41.717 71.0287 42.1945 71.0695 42.5068 71.1987C42.6016 71.2412 42.6358 71.2886 42.6179 71.3818L42.5656 71.6238C42.5475 71.6942 42.5183 71.7236 42.4119 71.7121C42.1241 71.6761 41.7709 71.6353 41.4652 71.6353C40.664 71.6353 40.5463 72.2828 40.5463 73.048C40.5463 73.8198 40.6934 74.4264 41.4652 74.4264C41.8053 74.4264 42.0947 74.3905 42.4119 74.3495C42.5248 74.3377 42.5476 74.3676 42.5721 74.4444L42.6179 74.6683C42.6424 74.7616 42.6127 74.8155 42.5181 74.8563C42.2304 74.9789 41.717 75.0329 41.4292 75.0329C40.1162 75.0329 39.8398 74.0617 39.8398 73.0594C39.8398 72.0538 40.0868 71.0287 41.4292 71.0287" fill="#181B5E"/>
<path d="M43.954 72.6008C43.4537 72.6008 43.3409 72.9196 43.3409 73.5311C43.3409 74.1558 43.4538 74.4615 43.9475 74.4615C44.4838 74.4615 44.5901 74.1607 44.5901 73.5311C44.5901 72.9065 44.4903 72.6008 43.954 72.6008ZM43.9475 75.0273C42.7653 75.0273 42.6885 74.1607 42.6885 73.4903C42.6885 72.936 42.811 72.0351 43.9475 72.0351C45.0904 72.0351 45.249 72.7954 45.249 73.4903C45.249 74.1607 45.1673 75.0273 43.9475 75.0273Z" fill="#181B5E"/>
<path d="M49.7003 74.9797H49.2769C49.1935 74.9797 49.164 74.9437 49.164 74.8685V73.1958C49.164 72.7592 49.0593 72.6366 48.7634 72.6366C48.5459 72.6366 48.1927 72.8067 48.0112 72.9015C48.0112 72.9604 48.0165 73.0666 48.0165 73.2007V74.8685C48.0165 74.9389 47.9936 74.9797 47.9053 74.9797H47.4752C47.3985 74.9797 47.3754 74.9437 47.3754 74.8685V73.1663C47.3754 72.8066 47.2806 72.6366 46.9863 72.6366C46.7803 72.6366 46.45 72.7838 46.226 72.9015V74.8685C46.226 74.9389 46.1966 74.9797 46.1148 74.9797H45.6913C45.6144 74.9797 45.585 74.9437 45.585 74.8685V72.2115C45.585 72.1363 45.6144 72.0953 45.6913 72.0953H46.1083C46.1966 72.0953 46.226 72.1411 46.226 72.2115V72.3831L46.2325 72.3897C46.4614 72.2294 46.7852 72.0529 47.1106 72.0414C47.4507 72.0414 47.7335 72.1118 47.9167 72.4535C48.211 72.236 48.5756 72.0414 48.9533 72.0414C49.73 72.0414 49.8068 72.5483 49.8068 73.1369V74.8685C49.8068 74.9389 49.7822 74.9797 49.7005 74.9797" fill="#181B5E"/>
<path d="M54.3146 74.9797H53.8911C53.8078 74.9797 53.7782 74.9437 53.7782 74.8685V73.1958C53.7782 72.7592 53.6736 72.6366 53.3776 72.6366C53.1601 72.6366 52.807 72.8067 52.6255 72.9015C52.6255 72.9604 52.6307 73.0666 52.6307 73.2007V74.8685C52.6307 74.9389 52.6078 74.9797 52.5195 74.9797H52.0895C52.0127 74.9797 51.9897 74.9437 51.9897 74.8685V73.1663C51.9897 72.8066 51.8949 72.6366 51.6005 72.6366C51.3945 72.6366 51.0642 72.7838 50.8402 72.9015V74.8685C50.8402 74.9389 50.8108 74.9797 50.729 74.9797H50.3056C50.2286 74.9797 50.1992 74.9437 50.1992 74.8685V72.2115C50.1992 72.1363 50.2286 72.0953 50.3056 72.0953H50.7225C50.8108 72.0953 50.8402 72.1411 50.8402 72.2115V72.3831L50.8467 72.3897C51.0757 72.2294 51.3994 72.0529 51.7248 72.0414C52.0649 72.0414 52.3478 72.1118 52.5309 72.4535C52.8252 72.236 53.1898 72.0414 53.5675 72.0414C54.3442 72.0414 54.4211 72.5483 54.4211 73.1369V74.8685C54.4211 74.9389 54.3965 74.9797 54.3147 74.9797" fill="#181B5E"/>
<path d="M55.5446 74.8678C55.5446 74.9317 55.5218 74.979 55.4383 74.979H55.0198C54.938 74.979 54.902 74.9446 54.902 74.8678V72.2059C54.902 72.1241 54.938 72.0947 55.0198 72.0947H55.4383C55.5218 72.0947 55.5446 72.142 55.5446 72.2059V74.8678ZM55.2324 71.6712C54.9266 71.6712 54.8857 71.4995 54.8857 71.3295C54.8857 71.1414 54.9496 70.9926 55.2324 70.9926C55.5218 70.9926 55.5807 71.1284 55.5807 71.3295C55.5807 71.511 55.5267 71.6712 55.2324 71.6712Z" fill="#181B5E"/>
<path d="M57.0039 75.0269C56.7096 75.0269 56.3155 74.9861 56.0915 74.8978C55.9738 74.8505 55.9492 74.7964 55.9672 74.7032L56.0081 74.5087C56.0261 74.4138 56.0669 74.409 56.1617 74.4204C56.4201 74.4612 56.7978 74.4908 56.9972 74.4908C57.3749 74.4908 57.5286 74.3909 57.5286 74.1556C57.5286 73.8841 57.4273 73.8253 57.0561 73.773C56.4789 73.6895 55.9737 73.567 55.9737 72.9244C55.9737 72.3423 56.4201 72.0365 57.0806 72.0365C57.321 72.0365 57.7281 72.0709 57.975 72.1656C58.0748 72.2064 58.1173 72.2539 58.0993 72.3422L58.0519 72.5531C58.0339 72.6366 57.9996 72.6479 57.8933 72.6366C57.6399 72.6071 57.3096 72.5712 57.0922 72.5712C56.7161 72.5712 56.6278 72.6774 56.6278 72.9015C56.6278 73.1304 56.7684 73.1598 57.1281 73.2187C57.6873 73.302 58.1926 73.4132 58.1926 74.1147C58.1926 74.8031 57.6105 75.0271 57.0039 75.0271" fill="#181B5E"/>
<path d="M59.4707 75.0269C59.1764 75.0269 58.7823 74.9861 58.5583 74.8978C58.4406 74.8505 58.416 74.7964 58.434 74.7032L58.4748 74.5087C58.4929 74.4138 58.5337 74.409 58.6285 74.4204C58.8869 74.4612 59.2646 74.4908 59.464 74.4908C59.8417 74.4908 59.9954 74.3909 59.9954 74.1556C59.9954 73.8841 59.8941 73.8253 59.5229 73.773C58.9457 73.6895 58.4405 73.567 58.4405 72.9244C58.4405 72.3423 58.8869 72.0365 59.5474 72.0365C59.7878 72.0365 60.1949 72.0709 60.4418 72.1656C60.5416 72.2064 60.5841 72.2539 60.5661 72.3422L60.5187 72.5531C60.5008 72.6366 60.4664 72.6479 60.3601 72.6366C60.1067 72.6071 59.7764 72.5712 59.559 72.5712C59.1829 72.5712 59.0946 72.6774 59.0946 72.9015C59.0946 73.1304 59.2352 73.1598 59.5949 73.2187C60.1541 73.302 60.6594 73.4132 60.6594 74.1147C60.6594 74.8031 60.0773 75.0271 59.4707 75.0271" fill="#181B5E"/>
<path d="M61.6951 74.8678C61.6951 74.9317 61.6722 74.979 61.5887 74.979H61.1701C61.0884 74.979 61.0524 74.9446 61.0524 74.8678V72.2059C61.0524 72.1241 61.0884 72.0947 61.1701 72.0947H61.5887C61.6722 72.0947 61.6951 72.142 61.6951 72.2059V74.8678ZM61.3828 71.6712C61.077 71.6712 61.0361 71.4995 61.0361 71.3295C61.0361 71.1414 61.1 70.9926 61.3828 70.9926C61.6722 70.9926 61.731 71.1284 61.731 71.3295C61.731 71.511 61.6772 71.6712 61.3828 71.6712Z" fill="#181B5E"/>
<path d="M63.3964 72.6008C62.8961 72.6008 62.7849 72.9196 62.7849 73.5311C62.7849 74.1558 62.8961 74.4615 63.3899 74.4615C63.9262 74.4615 64.0324 74.1607 64.0324 73.5311C64.0324 72.9065 63.9327 72.6008 63.3964 72.6008ZM63.3899 75.0273C62.2077 75.0273 62.1309 74.1607 62.1309 73.4903C62.1309 72.936 62.2534 72.0351 63.3899 72.0351C64.5328 72.0351 64.6914 72.7954 64.6914 73.4903C64.6914 74.1607 64.6096 75.0273 63.3899 75.0273Z" fill="#181B5E"/>
<path d="M67.4117 74.9797H66.9883C66.9114 74.9797 66.8754 74.9437 66.8754 74.8685L66.8819 73.2138C66.8819 72.8655 66.8002 72.6366 66.4584 72.6366C66.223 72.6366 65.8109 72.8247 65.6507 72.9015V74.8685C65.6507 74.9389 65.6213 74.9797 65.5395 74.9797H65.1209C65.0392 74.9797 65.0098 74.9437 65.0098 74.8685V72.2115C65.0098 72.1363 65.0392 72.0953 65.1209 72.0953H65.5395C65.6213 72.0953 65.6507 72.1361 65.6507 72.2115V72.3897C65.6572 72.3897 65.6625 72.395 65.6687 72.395C65.8862 72.2429 66.2999 72.0417 66.658 72.0417C67.4526 72.0417 67.5246 72.5667 67.5246 73.1602V74.8688C67.5246 74.9392 67.5001 74.98 67.4117 74.98" fill="#181B5E"/>
</g>
<path d="M128.381 46V35.44H135.789V36.64H129.661V40.048H134.429V41.248H129.661V44.8H136.029V46H128.381ZM143.016 40.832C143.016 40.2347 142.856 39.776 142.536 39.456C142.216 39.1253 141.763 38.96 141.176 38.96C140.622 38.96 140.152 39.0827 139.768 39.328C139.384 39.5627 139.102 39.9467 138.92 40.48L137.88 39.84C138.094 39.2427 138.488 38.7627 139.064 38.4C139.64 38.0267 140.355 37.84 141.208 37.84C141.784 37.84 142.307 37.9413 142.776 38.144C143.246 38.336 143.614 38.6347 143.88 39.04C144.158 39.4347 144.296 39.9467 144.296 40.576V44.448C144.296 44.832 144.499 45.024 144.904 45.024C145.107 45.024 145.304 44.9973 145.496 44.944L145.432 45.952C145.219 46.0587 144.942 46.112 144.6 46.112C144.291 46.112 144.014 46.0533 143.768 45.936C143.523 45.8187 143.331 45.6427 143.192 45.408C143.054 45.1627 142.984 44.8587 142.984 44.496V44.336L143.304 44.384C143.176 44.8 142.958 45.1413 142.648 45.408C142.339 45.664 141.992 45.856 141.608 45.984C141.224 46.1013 140.846 46.16 140.472 46.16C140.003 46.16 139.566 46.08 139.16 45.92C138.755 45.76 138.43 45.52 138.184 45.2C137.95 44.8693 137.832 44.464 137.832 43.984C137.832 43.3867 138.03 42.896 138.424 42.512C138.83 42.1173 139.39 41.8507 140.104 41.712L143.272 41.088V42.144L140.696 42.672C140.174 42.7787 139.784 42.928 139.528 43.12C139.272 43.312 139.144 43.5787 139.144 43.92C139.144 44.2507 139.272 44.5227 139.528 44.736C139.795 44.9387 140.168 45.04 140.648 45.04C140.958 45.04 141.251 45.0027 141.528 44.928C141.816 44.8427 142.072 44.72 142.296 44.56C142.52 44.3893 142.696 44.1813 142.824 43.936C142.952 43.68 143.016 43.3813 143.016 43.04V40.832ZM147.407 46V38H148.447L148.623 39.312C148.847 38.8213 149.172 38.4533 149.599 38.208C150.036 37.9627 150.564 37.84 151.183 37.84C151.322 37.84 151.471 37.8507 151.631 37.872C151.802 37.8933 151.946 37.936 152.063 38L151.839 39.168C151.722 39.1253 151.594 39.0933 151.455 39.072C151.316 39.0507 151.119 39.04 150.863 39.04C150.532 39.04 150.196 39.136 149.855 39.328C149.524 39.52 149.247 39.8133 149.023 40.208C148.799 40.592 148.687 41.0827 148.687 41.68V46H147.407ZM155.154 34.32V43.968C155.154 44.3733 155.229 44.656 155.378 44.816C155.528 44.9653 155.768 45.04 156.098 45.04C156.312 45.04 156.488 45.024 156.626 44.992C156.765 44.96 156.952 44.9013 157.186 44.816L156.978 45.936C156.808 46.0107 156.621 46.064 156.418 46.096C156.216 46.1387 156.008 46.16 155.794 46.16C155.144 46.16 154.658 45.984 154.338 45.632C154.029 45.28 153.874 44.7413 153.874 44.016V34.32H155.154ZM164.999 38L161.239 47.344C161.036 47.8667 160.812 48.2773 160.567 48.576C160.332 48.8853 160.065 49.104 159.767 49.232C159.479 49.3707 159.143 49.44 158.759 49.44C158.396 49.44 158.06 49.3867 157.751 49.28C157.452 49.184 157.185 49.0507 156.951 48.88L157.303 47.76C157.516 47.952 157.74 48.0907 157.975 48.176C158.22 48.272 158.46 48.32 158.695 48.32C158.972 48.32 159.233 48.2347 159.479 48.064C159.724 47.8933 159.948 47.5467 160.151 47.024L160.567 45.984L159.767 44.08L157.223 38H158.679L160.679 43.216L161.175 44.64L161.751 43.056L163.623 38H164.999ZM179.735 46H178.375L177.255 43.072H172.471L171.351 46H170.007L174.119 35.44H175.639L179.735 46ZM172.935 41.872H176.791L174.855 36.672L172.935 41.872ZM184.621 46.16C183.959 46.16 183.351 45.9947 182.797 45.664C182.242 45.3333 181.799 44.8587 181.469 44.24C181.138 43.6107 180.973 42.864 180.973 42C180.973 41.1147 181.149 40.3627 181.501 39.744C181.853 39.1253 182.317 38.656 182.893 38.336C183.469 38.0053 184.087 37.84 184.749 37.84C185.41 37.84 185.981 38.0107 186.461 38.352C186.951 38.6933 187.277 39.1467 187.437 39.712L187.277 39.824V34.32H188.557V46H187.437L187.325 44.064L187.501 43.968C187.426 44.4373 187.245 44.8373 186.957 45.168C186.679 45.488 186.333 45.7333 185.917 45.904C185.511 46.0747 185.079 46.16 184.621 46.16ZM184.749 45.04C185.261 45.04 185.703 44.912 186.077 44.656C186.461 44.4 186.754 44.0373 186.957 43.568C187.17 43.088 187.277 42.528 187.277 41.888C187.277 41.28 187.17 40.7573 186.957 40.32C186.754 39.8827 186.466 39.5467 186.093 39.312C185.73 39.0773 185.303 38.96 184.813 38.96C184.002 38.96 183.373 39.2373 182.925 39.792C182.477 40.3467 182.253 41.0827 182.253 42C182.253 42.9173 182.471 43.6533 182.909 44.208C183.346 44.7627 183.959 45.04 184.749 45.04ZM194.844 37.84C195.601 37.84 196.268 38.0053 196.844 38.336C197.431 38.6667 197.889 39.1467 198.22 39.776C198.551 40.3947 198.716 41.136 198.716 42C198.716 42.864 198.551 43.6107 198.22 44.24C197.889 44.8587 197.431 45.3333 196.844 45.664C196.268 45.9947 195.601 46.16 194.844 46.16C194.097 46.16 193.431 45.9947 192.844 45.664C192.257 45.3333 191.799 44.8587 191.468 44.24C191.137 43.6107 190.972 42.864 190.972 42C190.972 41.136 191.137 40.3947 191.468 39.776C191.799 39.1467 192.257 38.6667 192.844 38.336C193.431 38.0053 194.097 37.84 194.844 37.84ZM194.844 38.944C194.3 38.944 193.836 39.0667 193.452 39.312C193.068 39.5573 192.769 39.9093 192.556 40.368C192.353 40.816 192.252 41.36 192.252 42C192.252 42.6293 192.353 43.1733 192.556 43.632C192.769 44.0907 193.068 44.4427 193.452 44.688C193.836 44.9333 194.3 45.056 194.844 45.056C195.388 45.056 195.852 44.9333 196.236 44.688C196.62 44.4427 196.913 44.0907 197.116 43.632C197.329 43.1733 197.436 42.6293 197.436 42C197.436 41.36 197.329 40.816 197.116 40.368C196.913 39.9093 196.62 39.5573 196.236 39.312C195.852 39.0667 195.388 38.944 194.844 38.944ZM201.126 49.36V38H202.246L202.358 39.952L202.182 39.728C202.32 39.3547 202.528 39.0293 202.806 38.752C203.083 38.464 203.419 38.24 203.814 38.08C204.208 37.92 204.635 37.84 205.094 37.84C205.744 37.84 206.342 38.0053 206.886 38.336C207.44 38.6667 207.883 39.1413 208.214 39.76C208.544 40.3787 208.71 41.1253 208.71 42C208.71 42.864 208.539 43.6107 208.198 44.24C207.867 44.8587 207.424 45.3333 206.87 45.664C206.315 45.9947 205.707 46.16 205.046 46.16C204.384 46.16 203.803 46 203.302 45.68C202.811 45.3493 202.459 44.9333 202.246 44.432L202.406 44.192V49.36H201.126ZM204.918 45.04C205.707 45.04 206.32 44.7627 206.758 44.208C207.206 43.6533 207.43 42.9173 207.43 42C207.43 41.0827 207.211 40.3467 206.774 39.792C206.347 39.2373 205.744 38.96 204.966 38.96C204.454 38.96 204.006 39.088 203.622 39.344C203.238 39.5893 202.939 39.9413 202.726 40.4C202.512 40.848 202.406 41.3813 202.406 42C202.406 42.608 202.507 43.1413 202.71 43.6C202.923 44.0587 203.216 44.416 203.59 44.672C203.974 44.9173 204.416 45.04 204.918 45.04ZM212.904 35.728V43.792C212.904 44.1867 213.016 44.48 213.24 44.672C213.464 44.864 213.752 44.96 214.104 44.96C214.414 44.96 214.68 44.9067 214.904 44.8C215.128 44.6933 215.331 44.5493 215.512 44.368L215.96 45.44C215.715 45.664 215.422 45.84 215.08 45.968C214.75 46.096 214.366 46.16 213.928 46.16C213.523 46.16 213.144 46.0907 212.792 45.952C212.44 45.8027 212.158 45.5733 211.944 45.264C211.742 44.944 211.635 44.528 211.624 44.016V36.08L212.904 35.728ZM215.816 38V39.104H210.024V38H215.816ZM221.063 46.16C220.306 46.16 219.629 45.9947 219.031 45.664C218.445 45.3333 217.986 44.8587 217.655 44.24C217.325 43.6107 217.159 42.864 217.159 42C217.159 41.136 217.325 40.3947 217.655 39.776C217.986 39.1467 218.439 38.6667 219.015 38.336C219.591 38.0053 220.247 37.84 220.983 37.84C221.73 37.84 222.365 38 222.887 38.32C223.421 38.64 223.826 39.0773 224.103 39.632C224.381 40.176 224.519 40.7893 224.519 41.472C224.519 41.6533 224.514 41.8187 224.503 41.968C224.493 42.1173 224.477 42.2507 224.455 42.368H217.991V41.232H223.895L223.239 41.36C223.239 40.592 223.026 40 222.599 39.584C222.183 39.168 221.634 38.96 220.951 38.96C220.429 38.96 219.975 39.0827 219.591 39.328C219.218 39.5627 218.925 39.9093 218.711 40.368C218.509 40.816 218.407 41.36 218.407 42C218.407 42.6293 218.514 43.1733 218.727 43.632C218.941 44.0907 219.239 44.4427 219.623 44.688C220.018 44.9227 220.487 45.04 221.031 45.04C221.618 45.04 222.093 44.928 222.455 44.704C222.829 44.48 223.127 44.176 223.351 43.792L224.359 44.384C224.157 44.7467 223.895 45.0613 223.575 45.328C223.266 45.5947 222.898 45.8027 222.471 45.952C222.055 46.0907 221.586 46.16 221.063 46.16ZM226.954 46V38H227.994L228.17 39.312C228.394 38.8213 228.719 38.4533 229.146 38.208C229.583 37.9627 230.111 37.84 230.73 37.84C230.868 37.84 231.018 37.8507 231.178 37.872C231.348 37.8933 231.492 37.936 231.61 38L231.386 39.168C231.268 39.1253 231.14 39.0933 231.002 39.072C230.863 39.0507 230.666 39.04 230.41 39.04C230.079 39.04 229.743 39.136 229.402 39.328C229.071 39.52 228.794 39.8133 228.57 40.208C228.346 40.592 228.234 41.0827 228.234 41.68V46H226.954ZM236.021 46.16C235.243 46.16 234.523 45.9947 233.861 45.664C233.211 45.3333 232.709 44.864 232.357 44.256L233.445 43.472C233.68 43.9627 234.021 44.3467 234.469 44.624C234.928 44.9013 235.477 45.04 236.117 45.04C236.683 45.04 237.125 44.9333 237.445 44.72C237.765 44.496 237.925 44.208 237.925 43.856C237.925 43.632 237.851 43.4293 237.701 43.248C237.563 43.056 237.291 42.9173 236.885 42.832L234.965 42.432C234.187 42.272 233.627 42.0053 233.285 41.632C232.955 41.2587 232.789 40.7947 232.789 40.24C232.789 39.8027 232.912 39.4027 233.157 39.04C233.413 38.6773 233.771 38.3893 234.229 38.176C234.699 37.952 235.248 37.84 235.877 37.84C236.667 37.84 237.333 37.9947 237.877 38.304C238.421 38.6133 238.827 39.0507 239.093 39.616L238.021 40.32C237.84 39.8507 237.547 39.5093 237.141 39.296C236.736 39.072 236.315 38.96 235.877 38.96C235.493 38.96 235.163 39.0133 234.885 39.12C234.619 39.2267 234.411 39.376 234.261 39.568C234.123 39.7493 234.053 39.9573 234.053 40.192C234.053 40.4267 234.133 40.6453 234.293 40.848C234.453 41.04 234.752 41.1787 235.189 41.264L237.189 41.68C237.936 41.8293 238.459 42.0747 238.757 42.416C239.056 42.7573 239.205 43.1733 239.205 43.664C239.205 44.1653 239.072 44.608 238.805 44.992C238.539 45.3653 238.165 45.6533 237.685 45.856C237.205 46.0587 236.651 46.16 236.021 46.16ZM132.109 54.44C132.824 54.44 133.443 54.5733 133.965 54.84C134.499 55.096 134.915 55.464 135.213 55.944C135.512 56.424 135.661 56.9947 135.661 57.656C135.661 58.3173 135.512 58.888 135.213 59.368C134.915 59.848 134.499 60.2213 133.965 60.488C133.443 60.744 132.824 60.872 132.109 60.872H129.661V65H128.381V54.44H132.109ZM131.917 59.672C132.749 59.672 133.357 59.5013 133.741 59.16C134.125 58.808 134.317 58.3067 134.317 57.656C134.317 56.9947 134.125 56.4933 133.741 56.152C133.357 55.8107 132.749 55.64 131.917 55.64H129.661V59.672H131.917ZM137.907 65V57H138.947L139.123 58.312C139.347 57.8213 139.672 57.4533 140.099 57.208C140.536 56.9627 141.064 56.84 141.683 56.84C141.822 56.84 141.971 56.8507 142.131 56.872C142.302 56.8933 142.446 56.936 142.563 57L142.339 58.168C142.222 58.1253 142.094 58.0933 141.955 58.072C141.816 58.0507 141.619 58.04 141.363 58.04C141.032 58.04 140.696 58.136 140.355 58.328C140.024 58.52 139.747 58.8133 139.523 59.208C139.299 59.592 139.187 60.0827 139.187 60.68V65H137.907ZM147.5 56.84C148.258 56.84 148.924 57.0053 149.5 57.336C150.087 57.6667 150.546 58.1467 150.876 58.776C151.207 59.3947 151.372 60.136 151.372 61C151.372 61.864 151.207 62.6107 150.876 63.24C150.546 63.8587 150.087 64.3333 149.5 64.664C148.924 64.9947 148.258 65.16 147.5 65.16C146.754 65.16 146.087 64.9947 145.5 64.664C144.914 64.3333 144.455 63.8587 144.124 63.24C143.794 62.6107 143.628 61.864 143.628 61C143.628 60.136 143.794 59.3947 144.124 58.776C144.455 58.1467 144.914 57.6667 145.5 57.336C146.087 57.0053 146.754 56.84 147.5 56.84ZM147.5 57.944C146.956 57.944 146.492 58.0667 146.108 58.312C145.724 58.5573 145.426 58.9093 145.212 59.368C145.01 59.816 144.908 60.36 144.908 61C144.908 61.6293 145.01 62.1733 145.212 62.632C145.426 63.0907 145.724 63.4427 146.108 63.688C146.492 63.9333 146.956 64.056 147.5 64.056C148.044 64.056 148.508 63.9333 148.892 63.688C149.276 63.4427 149.57 63.0907 149.772 62.632C149.986 62.1733 150.092 61.6293 150.092 61C150.092 60.36 149.986 59.816 149.772 59.368C149.57 58.9093 149.276 58.5573 148.892 58.312C148.508 58.0667 148.044 57.944 147.5 57.944ZM160.518 55.528L160.806 56.664C160.795 56.664 160.779 56.664 160.758 56.664C160.737 56.664 160.715 56.664 160.694 56.664C160.171 56.664 159.766 56.7707 159.478 56.984C159.201 57.1867 159.062 57.5173 159.062 57.976L158.278 57.576C158.278 57.16 158.374 56.7973 158.566 56.488C158.758 56.1787 159.019 55.944 159.35 55.784C159.681 55.6133 160.043 55.528 160.438 55.528C160.449 55.528 160.459 55.528 160.47 55.528C160.491 55.528 160.507 55.528 160.518 55.528ZM158.086 63.976C158.843 63.976 159.435 64.152 159.862 64.504C160.289 64.8453 160.502 65.304 160.502 65.88C160.502 66.4027 160.326 66.856 159.974 67.24C159.633 67.624 159.169 67.9173 158.582 68.12C158.006 68.3333 157.355 68.44 156.63 68.44C155.371 68.44 154.427 68.2267 153.798 67.8C153.179 67.3733 152.87 66.8613 152.87 66.264C152.87 65.8373 153.009 65.4533 153.286 65.112C153.574 64.7813 154.054 64.5947 154.726 64.552L154.614 64.792C154.251 64.696 153.942 64.536 153.686 64.312C153.441 64.0773 153.318 63.7413 153.318 63.304C153.318 62.8667 153.478 62.4933 153.798 62.184C154.129 61.864 154.614 61.6667 155.254 61.592L156.102 62.024H155.942C155.419 62.0773 155.046 62.2107 154.822 62.424C154.609 62.6267 154.502 62.8507 154.502 63.096C154.502 63.3947 154.609 63.6187 154.822 63.768C155.046 63.9067 155.355 63.976 155.75 63.976H158.086ZM156.614 67.368C157.233 67.368 157.739 67.304 158.134 67.176C158.539 67.048 158.838 66.8827 159.03 66.68C159.222 66.4773 159.318 66.2587 159.318 66.024C159.318 65.736 159.201 65.5067 158.966 65.336C158.742 65.1653 158.331 65.08 157.734 65.08H155.27C154.929 65.08 154.641 65.1653 154.406 65.336C154.171 65.5173 154.054 65.7627 154.054 66.072C154.054 66.4667 154.278 66.7813 154.726 67.016C155.185 67.2507 155.814 67.368 156.614 67.368ZM156.502 56.84C157.142 56.84 157.707 56.9573 158.198 57.192C158.699 57.416 159.089 57.7307 159.366 58.136C159.643 58.5413 159.782 59.0107 159.782 59.544C159.782 60.0667 159.643 60.536 159.366 60.952C159.089 61.3573 158.699 61.6773 158.198 61.912C157.707 62.136 157.142 62.248 156.502 62.248C155.446 62.248 154.635 61.9973 154.07 61.496C153.505 60.984 153.222 60.3333 153.222 59.544C153.222 59.0107 153.361 58.5413 153.638 58.136C153.926 57.7307 154.315 57.416 154.806 57.192C155.297 56.9573 155.862 56.84 156.502 56.84ZM156.502 57.88C155.947 57.88 155.483 58.0347 155.11 58.344C154.737 58.6427 154.55 59.0427 154.55 59.544C154.55 60.0347 154.737 60.4347 155.11 60.744C155.483 61.0533 155.947 61.208 156.502 61.208C157.057 61.208 157.521 61.0533 157.894 60.744C158.267 60.4347 158.454 60.0347 158.454 59.544C158.454 59.0427 158.267 58.6427 157.894 58.344C157.521 58.0347 157.057 57.88 156.502 57.88ZM162.298 65V57H163.338L163.514 58.312C163.738 57.8213 164.063 57.4533 164.49 57.208C164.927 56.9627 165.455 56.84 166.074 56.84C166.212 56.84 166.362 56.8507 166.522 56.872C166.692 56.8933 166.836 56.936 166.954 57L166.73 58.168C166.612 58.1253 166.484 58.0933 166.346 58.072C166.207 58.0507 166.01 58.04 165.754 58.04C165.423 58.04 165.087 58.136 164.746 58.328C164.415 58.52 164.138 58.8133 163.914 59.208C163.69 59.592 163.578 60.0827 163.578 60.68V65H162.298ZM173.282 59.832C173.282 59.2347 173.122 58.776 172.802 58.456C172.482 58.1253 172.029 57.96 171.442 57.96C170.887 57.96 170.418 58.0827 170.034 58.328C169.65 58.5627 169.367 58.9467 169.186 59.48L168.146 58.84C168.359 58.2427 168.754 57.7627 169.33 57.4C169.906 57.0267 170.621 56.84 171.474 56.84C172.05 56.84 172.573 56.9413 173.042 57.144C173.511 57.336 173.879 57.6347 174.146 58.04C174.423 58.4347 174.562 58.9467 174.562 59.576V63.448C174.562 63.832 174.765 64.024 175.17 64.024C175.373 64.024 175.57 63.9973 175.762 63.944L175.698 64.952C175.485 65.0587 175.207 65.112 174.866 65.112C174.557 65.112 174.279 65.0533 174.034 64.936C173.789 64.8187 173.597 64.6427 173.458 64.408C173.319 64.1627 173.25 63.8587 173.25 63.496V63.336L173.57 63.384C173.442 63.8 173.223 64.1413 172.914 64.408C172.605 64.664 172.258 64.856 171.874 64.984C171.49 65.1013 171.111 65.16 170.738 65.16C170.269 65.16 169.831 65.08 169.426 64.92C169.021 64.76 168.695 64.52 168.45 64.2C168.215 63.8693 168.098 63.464 168.098 62.984C168.098 62.3867 168.295 61.896 168.69 61.512C169.095 61.1173 169.655 60.8507 170.37 60.712L173.538 60.088V61.144L170.962 61.672C170.439 61.7787 170.05 61.928 169.794 62.12C169.538 62.312 169.41 62.5787 169.41 62.92C169.41 63.2507 169.538 63.5227 169.794 63.736C170.061 63.9387 170.434 64.04 170.914 64.04C171.223 64.04 171.517 64.0027 171.794 63.928C172.082 63.8427 172.338 63.72 172.562 63.56C172.786 63.3893 172.962 63.1813 173.09 62.936C173.218 62.68 173.282 62.3813 173.282 62.04V59.832ZM177.673 65V57H178.793L178.873 58.248C179.161 57.7573 179.534 57.4 179.993 57.176C180.462 56.952 180.942 56.84 181.433 56.84C181.998 56.84 182.531 56.968 183.033 57.224C183.534 57.48 183.918 57.8747 184.185 58.408C184.355 58.0453 184.595 57.752 184.905 57.528C185.214 57.2933 185.55 57.1227 185.913 57.016C186.286 56.8987 186.638 56.84 186.969 56.84C187.481 56.84 187.966 56.9467 188.425 57.16C188.894 57.3733 189.278 57.704 189.577 58.152C189.875 58.6 190.025 59.176 190.025 59.88V65H188.745V60.008C188.745 59.2827 188.563 58.76 188.201 58.44C187.838 58.12 187.39 57.96 186.857 57.96C186.441 57.96 186.051 58.0613 185.689 58.264C185.326 58.4667 185.033 58.7653 184.809 59.16C184.595 59.5547 184.489 60.04 184.489 60.616V65H183.209V60.008C183.209 59.2827 183.027 58.76 182.665 58.44C182.302 58.12 181.854 57.96 181.321 57.96C180.969 57.96 180.606 58.056 180.233 58.248C179.87 58.4293 179.566 58.7227 179.321 59.128C179.075 59.5333 178.953 60.0667 178.953 60.728V65H177.673ZM203.608 60.152V61.48H198.328V60.152H203.608ZM215.617 54.28C216.545 54.28 217.345 54.472 218.017 54.856C218.689 55.2293 219.249 55.784 219.697 56.52L218.625 57.352C218.23 56.6693 217.782 56.1893 217.281 55.912C216.79 55.624 216.193 55.48 215.489 55.48C214.924 55.48 214.454 55.56 214.081 55.72C213.718 55.88 213.452 56.0933 213.281 56.36C213.11 56.616 213.025 56.9093 213.025 57.24C213.025 57.6133 213.142 57.944 213.377 58.232C213.612 58.5093 214.081 58.728 214.785 58.888L217.073 59.4C218.086 59.624 218.79 59.9653 219.185 60.424C219.59 60.872 219.793 61.432 219.793 62.104C219.793 62.7013 219.622 63.2347 219.281 63.704C218.95 64.1627 218.481 64.52 217.873 64.776C217.265 65.032 216.55 65.16 215.729 65.16C214.961 65.16 214.284 65.0587 213.697 64.856C213.121 64.6427 212.625 64.36 212.209 64.008C211.793 63.656 211.452 63.2613 211.185 62.824L212.305 61.912C212.508 62.3173 212.769 62.6747 213.089 62.984C213.409 63.2933 213.793 63.5333 214.241 63.704C214.7 63.8747 215.222 63.96 215.809 63.96C216.353 63.96 216.822 63.896 217.217 63.768C217.622 63.6293 217.932 63.432 218.145 63.176C218.358 62.9093 218.465 62.5893 218.465 62.216C218.465 61.8747 218.353 61.5707 218.129 61.304C217.905 61.0267 217.484 60.8187 216.865 60.68L214.385 60.12C213.734 59.9707 213.206 59.768 212.801 59.512C212.406 59.2453 212.118 58.936 211.937 58.584C211.766 58.2213 211.681 57.832 211.681 57.416C211.681 56.8507 211.836 56.3333 212.145 55.864C212.465 55.384 212.918 55 213.505 54.712C214.102 54.424 214.806 54.28 215.617 54.28ZM222.157 68.36V57H223.277L223.389 58.952L223.213 58.728C223.352 58.3547 223.56 58.0293 223.837 57.752C224.114 57.464 224.45 57.24 224.845 57.08C225.24 56.92 225.666 56.84 226.125 56.84C226.776 56.84 227.373 57.0053 227.917 57.336C228.472 57.6667 228.914 58.1413 229.245 58.76C229.576 59.3787 229.741 60.1253 229.741 61C229.741 61.864 229.57 62.6107 229.229 63.24C228.898 63.8587 228.456 64.3333 227.901 64.664C227.346 64.9947 226.738 65.16 226.077 65.16C225.416 65.16 224.834 65 224.333 64.68C223.842 64.3493 223.49 63.9333 223.277 63.432L223.437 63.192V68.36H222.157ZM225.949 64.04C226.738 64.04 227.352 63.7627 227.789 63.208C228.237 62.6533 228.461 61.9173 228.461 61C228.461 60.0827 228.242 59.3467 227.805 58.792C227.378 58.2373 226.776 57.96 225.997 57.96C225.485 57.96 225.037 58.088 224.653 58.344C224.269 58.5893 223.97 58.9413 223.757 59.4C223.544 59.848 223.437 60.3813 223.437 61C223.437 61.608 223.538 62.1413 223.741 62.6C223.954 63.0587 224.248 63.416 224.621 63.672C225.005 63.9173 225.448 64.04 225.949 64.04ZM236.86 59.832C236.86 59.2347 236.7 58.776 236.38 58.456C236.06 58.1253 235.607 57.96 235.02 57.96C234.466 57.96 233.996 58.0827 233.612 58.328C233.228 58.5627 232.946 58.9467 232.764 59.48L231.724 58.84C231.938 58.2427 232.332 57.7627 232.908 57.4C233.484 57.0267 234.199 56.84 235.052 56.84C235.628 56.84 236.151 56.9413 236.62 57.144C237.09 57.336 237.458 57.6347 237.724 58.04C238.002 58.4347 238.14 58.9467 238.14 59.576V63.448C238.14 63.832 238.343 64.024 238.748 64.024C238.951 64.024 239.148 63.9973 239.34 63.944L239.276 64.952C239.063 65.0587 238.786 65.112 238.444 65.112C238.135 65.112 237.858 65.0533 237.612 64.936C237.367 64.8187 237.175 64.6427 237.036 64.408C236.898 64.1627 236.828 63.8587 236.828 63.496V63.336L237.148 63.384C237.02 63.8 236.802 64.1413 236.492 64.408C236.183 64.664 235.836 64.856 235.452 64.984C235.068 65.1013 234.69 65.16 234.316 65.16C233.847 65.16 233.41 65.08 233.004 64.92C232.599 64.76 232.274 64.52 232.028 64.2C231.794 63.8693 231.676 63.464 231.676 62.984C231.676 62.3867 231.874 61.896 232.268 61.512C232.674 61.1173 233.234 60.8507 233.948 60.712L237.116 60.088V61.144L234.54 61.672C234.018 61.7787 233.628 61.928 233.372 62.12C233.116 62.312 232.988 62.5787 232.988 62.92C232.988 63.2507 233.116 63.5227 233.372 63.736C233.639 63.9387 234.012 64.04 234.492 64.04C234.802 64.04 235.095 64.0027 235.372 63.928C235.66 63.8427 235.916 63.72 236.14 63.56C236.364 63.3893 236.54 63.1813 236.668 62.936C236.796 62.68 236.86 62.3813 236.86 62.04V59.832ZM241.891 55.464C241.603 55.464 241.368 55.3787 241.187 55.208C241.016 55.0267 240.931 54.792 240.931 54.504C240.931 54.216 241.016 53.9867 241.187 53.816C241.368 53.6347 241.603 53.544 241.891 53.544C242.179 53.544 242.408 53.6347 242.579 53.816C242.76 53.9867 242.851 54.216 242.851 54.504C242.851 54.792 242.76 55.0267 242.579 55.208C242.408 55.3787 242.179 55.464 241.891 55.464ZM242.531 57V65H241.251V57H242.531ZM245.501 65V57H246.621L246.733 58.792L246.525 58.616C246.695 58.1893 246.925 57.848 247.213 57.592C247.501 57.3253 247.831 57.1333 248.205 57.016C248.589 56.8987 248.983 56.84 249.389 56.84C249.965 56.84 250.487 56.952 250.957 57.176C251.426 57.3893 251.799 57.72 252.077 58.168C252.365 58.616 252.509 59.1867 252.509 59.88V65H251.229V60.328C251.229 59.4427 251.037 58.8293 250.653 58.488C250.279 58.136 249.815 57.96 249.261 57.96C248.877 57.96 248.493 58.0507 248.109 58.232C247.725 58.4133 247.405 58.7067 247.149 59.112C246.903 59.5173 246.781 60.0613 246.781 60.744V65H245.501Z" fill="#181B5E"/>
<defs>
<clipPath id="clip0_2986_65882">
<rect width="86.6536" height="60" fill="white" transform="translate(20 20)"/>
</clipPath>
</defs>
</svg>
