<svg width="197" height="136" viewBox="0 0 197 136" fill="none" xmlns="http://www.w3.org/2000/svg">
    <path d="M0.00195312 35.7323C0.00195312 35.7323 58.3698 28.2013 60.0166 27.9345C62.5443 27.5231 64.7857 27.0413 66.8785 26.4669C71.5994 25.1771 75.9449 23.2091 79.7922 20.6148C83.4834 18.1502 86.9144 14.5627 90.3157 10.6267C92.4754 8.12133 94.7467 4.85625 96.8655 1.70599V0.182617C94.3526 3.89251 91.8769 7.09095 89.3306 9.91136C85.9554 13.6583 82.4166 16.7197 78.8072 19.0176C75.0825 21.4118 70.8932 23.1944 66.347 24.3248C64.31 24.8362 62.1317 25.2513 59.6783 25.5923C58.065 25.8182 56.3997 25.9926 54.7901 26.1594C54.147 26.23 0.00195312 31.9557 0.00195312 31.9557V35.7323V35.7323Z" fill="#BDBCBC"/>
    <path d="M78.2746 25.9757C74.6205 28.0697 70.4015 29.6041 65.7326 30.5306C63.7402 30.9346 61.5657 31.2607 59.09 31.5275C57.6329 31.6868 56.1682 31.8127 54.6999 31.9389C53.9082 32.0056 53.1164 32.0759 52.3247 32.1465C34.4374 33.7475 16.643 35.4487 0.000976562 37.0571V40.8337C16.7731 38.8176 34.6938 36.6791 52.5737 34.663C53.3692 34.5705 54.1646 34.4814 54.9601 34.396C56.4247 34.2365 57.8931 34.0737 59.3614 33.881C61.9077 33.5437 64.1343 33.1545 66.1676 32.695C71.0186 31.6128 75.3975 29.9079 79.1854 27.6212C82.9472 25.3716 86.2704 22.2176 89.8463 18.3632C92.073 15.9653 94.5486 12.5778 96.8681 9.39792V8.01172C94.136 11.7031 91.5451 14.8052 88.9839 17.4515C85.4934 21.0576 81.8914 23.9225 78.2746 25.9757" fill="#BDBCBC"/>
    <path d="M88.4896 25.0509C84.9285 28.3086 81.2113 30.8696 77.4383 32.6634C73.7471 34.4386 69.6209 35.6839 64.8145 36.4696C62.8332 36.7995 60.6772 37.0663 58.2276 37.2887L0.000976562 42.0548V45.8203L51.7596 40.3463L58.4544 39.6458C60.9784 39.3531 63.1789 39.0269 65.1788 38.6488C70.1561 37.7112 74.4273 36.3139 78.23 34.3719C82.1182 32.4113 86.0027 29.15 89.6158 25.6958C92.0395 23.3795 94.3739 20.3885 96.8681 17.253V15.9966C93.9873 19.5693 91.2366 22.5418 88.4896 25.0509" fill="#BDBCBC"/>
    <path d="M74.4097 44.6106C71.0196 46.5008 68.4844 47.5905 63.6446 48.0946C60.7191 48.4096 57.712 48.5577 54.8014 48.7023C53.3963 48.7725 51.9874 48.8431 50.5786 48.9321C41.7836 49.4324 33.1447 49.9884 24.3312 50.5591L0.00195312 52.1935V55.959L24.5766 53.713C32.5166 53.0014 41.7427 52.1824 50.7495 51.4486L57.2993 50.9446C59.8568 50.7483 61.9533 50.5406 63.8937 50.2886C68.8748 49.6474 73.131 48.643 76.9003 47.2236C80.9595 45.7115 84.7882 43.3618 88.6207 40.597C92.0777 38.1064 96.8618 33.1957 96.8655 33.1326V31.802C93.7393 34.8411 91.9402 36.5498 88.5166 38.7994C84.4239 41.4864 77.4504 42.9169 74.4097 44.6106" fill="#BDBCBC"/>
    <path d="M75.6475 51.7687C71.9749 52.8435 67.8413 53.57 63.0089 53.9888C61.05 54.1593 58.9386 54.2889 56.5522 54.3853L50.0396 54.6705C33.8585 55.4191 17.7517 56.2568 0.00195312 57.1944V60.9489C16.9599 59.6407 33.5759 58.3694 50.1882 57.1908L56.6785 56.7498C59.1876 56.5829 61.2656 56.4051 63.2209 56.1865C68.1722 55.6342 72.4099 54.7817 76.1717 53.5809C80.3387 52.2652 84.4016 50.3566 88.2452 47.9105C91.0815 46.1093 93.9214 43.9598 96.8655 41.3988V41.332C93.6203 44.0931 90.5276 44.7083 87.446 46.5614C83.6693 48.8444 79.6993 50.5938 75.6475 51.7687" fill="#BDBCBC"/>
    <path d="M75.0471 58.0095C71.3484 58.8731 67.3375 59.4253 62.4271 59.7551C60.535 59.8811 58.498 59.9739 56.0186 60.0515L49.5692 60.2814C33.3175 60.8929 16.839 61.5971 0 62.3272V66.0815C16.7312 64.9437 33.1428 63.8356 49.6956 62.8053L56.1301 62.4198C58.6541 62.2751 60.7097 62.1308 62.6018 61.9566C67.6015 61.497 71.6941 60.8261 75.4782 59.8514C79.7233 58.7618 83.8494 57.1608 87.7413 55.1001C90.7523 53.5102 93.7558 51.5978 96.8672 49.2926V47.6877C93.5031 50.1079 90.2765 52.0832 87.05 53.6917C83.225 55.6003 79.188 57.0533 75.0471 58.0095" fill="#BDBCBC"/>
    <path d="M74.4962 64.1279C70.7827 64.8061 66.7866 65.2397 61.9134 65.488C60.0808 65.5844 58.1181 65.6511 55.5532 65.7104L0.00292969 67.2077V70.9621L49.2599 68.3974L55.6424 68.0749C58.133 67.9563 60.17 67.8378 62.0547 67.6933C66.9949 67.3152 71.0577 66.7742 74.8419 65.9848C79.139 65.0953 83.3098 63.798 87.2351 62.1302C90.3985 60.7922 93.5656 59.1616 96.8665 57.1788V55.6704C93.3425 57.7162 89.9896 59.3543 86.659 60.67C82.7893 62.2043 78.6967 63.3681 74.4962 64.1279" fill="#BDBCBC"/>
    <path d="M74.0603 70.2726C67.2429 71.1807 60.2285 71.2844 53.4408 71.3845C51.887 71.4053 50.3295 71.429 48.7757 71.4625L0.00195312 72.3371V76.084L48.8612 73.9864C50.4075 73.9162 51.9613 73.853 53.5151 73.7937C60.3474 73.5194 67.4138 73.2377 74.3242 72.1444C78.6956 71.4587 82.9036 70.4396 86.8327 69.1239C90.0853 68.038 93.4531 66.6332 96.8655 64.9729V63.5349C93.2784 65.199 89.7507 66.5852 86.3643 67.6229C82.4835 68.8163 78.3462 69.7095 74.0603 70.2728" fill="#BDBCBC"/>
    <path d="M73.6727 76.4561C67.2865 76.9824 60.7516 76.9824 54.4286 76.9824C52.4622 76.9824 50.4958 76.9824 48.5294 76.9972C32.3706 77.0678 16.3419 77.2011 0.000976562 77.3418V81.0889C15.565 80.5626 32.0732 80.014 48.5851 79.5248C50.5441 79.4581 52.5031 79.41 54.4658 79.3581C60.8223 79.1989 67.3943 79.0357 73.8474 78.3389C78.3527 77.8571 82.4565 77.1493 86.3856 76.182C89.8129 75.3407 93.3331 74.2214 96.8681 72.8761V71.4973C93.2178 72.8019 89.5824 73.8693 86.0399 74.6476C82.148 75.5037 78.1036 76.0929 73.6727 76.4561" fill="#BDBCBC"/>
    <path d="M73.4261 82.5516C70.7646 82.6554 67.8836 82.7072 64.6162 82.7072C63.3821 82.7072 62.1443 82.7013 60.9138 82.6895L48.3422 82.5377C39.7665 82.4745 31.2207 82.4597 23.2026 82.4526L0.00341797 82.4734V86.2165L23.2583 85.6125C31.2466 85.4162 39.8149 85.2123 48.3682 85.0603L60.9287 84.8933C64.3746 84.8414 68.9207 84.7376 73.5264 84.4374C78.0391 84.1448 82.1466 83.6962 86.0832 83.0699C89.6257 82.5065 93.2463 81.7468 96.8669 80.8239V79.4971C93.1459 80.3495 89.4473 81.0353 85.8602 81.5134C81.946 82.036 77.8793 82.3732 73.4261 82.5511" fill="#BDBCBC"/>
    <path d="M60.7674 88.4419L48.2404 88.3085C32.2563 88.0823 16.2908 87.7934 0.00195312 87.4894V91.2364C15.5474 91.1364 32.0147 91.0175 48.2516 90.8361L60.7861 90.6507C65.0088 90.5766 69.1461 90.499 73.328 90.3617C81.9408 90.0875 89.6578 89.4832 96.8655 88.5307V87.2263C89.628 88.0046 81.9037 88.4122 73.2834 88.4677C69.1164 88.5048 64.9419 88.4767 60.7674 88.4411" fill="#BDBCBC"/>
    <path d="M96.8669 95.0679L0.00341797 92.6182V96.3651H96.8669V95.0679Z" fill="#BDBCBC"/>
    <path d="M88.1449 32.1286C84.4648 35.0751 81.6248 37.1691 77.1195 38.9518C73.1978 40.5084 68.9863 41.142 64.1725 41.798C61.076 42.2316 57.8383 42.8692 54.7456 43.0767C53.4743 43.1618 52.203 43.2433 50.9354 43.3435L0.00195312 47.046V50.8042L51.1399 45.86L57.7714 45.2411C60.2285 45.0074 62.4142 44.7408 64.4438 44.411C69.3989 43.6179 73.6699 42.4096 77.4987 40.7084C81.4687 38.9628 85.487 36.1017 89.2228 32.97C91.7617 30.8426 94.2077 28.1667 96.8655 25.2425V23.8972C93.6501 27.2105 90.9811 29.8605 88.1449 32.1286Z" fill="#BDBCBC"/>
    <path d="M40.2627 132.283H125.112V94.6614H40.2627V132.283V132.283Z" fill="white"/>
    <path d="M125.127 39.7615H40.2627V96.3624H125.127V39.7615Z" fill="#254AA5"/>
    <path d="M83.6156 47.8107H86.567L84.188 49.66L85.1136 52.5917L82.742 50.7867L80.3704 52.5917L81.3072 49.66L78.9058 47.8107H81.8499L82.742 44.9495L83.6156 47.8107V47.8107Z" fill="#FFF200"/>
    <path d="M83.7195 85.557H86.6784L84.2957 87.3395L85.2212 90.1563L82.8496 88.4219L80.4818 90.1563L81.4148 87.3395L79.0098 85.557H81.9575L82.8496 82.8069L83.7195 85.557V85.557Z" fill="#FFF200"/>
    <path d="M93.0847 83.0577H96.0437L93.6609 84.8366L94.5865 87.657L92.2149 85.9152L89.847 87.657L90.78 84.8366L88.375 83.0577H91.3227L92.2149 80.304L93.0847 83.0577V83.0577Z" fill="#FFF200"/>
    <path d="M93.0847 50.3286H96.0437L93.6609 52.1075L94.5865 54.928L92.2149 53.1896L89.847 54.928L90.78 52.1075L88.375 50.3286H91.3227L92.2149 47.5786L93.0847 50.3286V50.3286Z" fill="#FFF200"/>
    <path d="M100.038 57.2604H102.989L100.61 59.0355L101.536 61.8596L99.1642 60.1214L96.8001 61.8596L97.7332 59.0355L95.3281 57.2604H98.2721L99.1642 54.5066L100.038 57.2604Z" fill="#FFF200"/>
    <path d="M100.038 76.2199H102.989L100.61 78.0026L101.536 80.8267L99.1642 79.0848L96.8001 80.8267L97.7332 78.0026L95.3281 76.2199H98.2721L99.1642 73.4663L100.038 76.2199Z" fill="#FFF200"/>
    <path d="M102.643 66.5956H105.602L103.219 68.3745L104.145 71.1987L101.773 69.4567L99.4051 71.1987L100.338 68.3745L97.9331 66.5956H100.877L101.773 63.8455L102.643 66.5956V66.5956Z" fill="#FFF200"/>
    <path d="M74.0681 50.3515H77.0196L74.6406 52.1342L75.5662 54.9546L73.1946 53.2126L70.823 54.9546L71.7597 52.1342L69.3584 50.3515H72.3024L73.1946 47.6016L74.0681 50.3515V50.3515Z" fill="#FFF200"/>
    <path d="M67.3078 57.2833H70.2667L67.884 59.0622L68.8059 61.8864L66.4381 60.1444L64.0702 61.8864L64.9995 59.0622L62.5981 57.2833H65.5459L66.4381 54.5332L67.3078 57.2833V57.2833Z" fill="#FFF200"/>
    <path d="M64.7987 66.6189H67.754L65.3749 68.3978L66.2968 71.2219L63.929 69.4837L61.5573 71.2219L62.4904 68.3978L60.0928 66.6189H63.0368L63.929 63.8689L64.7987 66.6189V66.6189Z" fill="#FFF200"/>
    <path d="M67.3078 76.2432H70.2667L67.884 78.0259L68.8059 80.8501L66.4381 79.1081L64.0702 80.8501L64.9995 78.0259L62.5981 76.2432H65.5459L66.4381 73.4971L67.3078 76.2432V76.2432Z" fill="#FFF200"/>
    <path d="M74.1662 83.0812H77.1178L74.7387 84.86L75.6569 87.6804L73.2928 85.9422L70.9211 87.6804L71.8579 84.86L69.4565 83.0812H72.4006L73.2928 80.3274L74.1662 83.0812V83.0812Z" fill="#FFF200"/>
    <path d="M40.2627 136H125.134V131.171H40.2627V136Z" fill="#254AA5"/>
    <path d="M137.205 0.000244141C137.205 0.000244141 154.899 27.4741 158.136 32.5257C161.37 37.5735 165.069 41.5688 178.161 44.2818C191.253 46.9947 196.952 48.2769 196.952 48.2769V49.2554C196.952 49.2554 188.632 47.5209 177.927 45.186C167.225 42.8511 162.85 42.0617 157.969 35.4276C153.906 29.9054 137.205 6.43413 137.205 6.43413V0.000244141V0.000244141Z" fill="#BDBCBC"/>
    <path d="M137.205 7.81177C137.205 7.81177 155.49 33.9294 157.917 37.1315C160.345 40.3337 163.612 45.4926 178.065 48.5391C181.797 49.3248 197 52.3083 197 52.3083V53.1347C197 53.1347 185.447 50.9148 178.065 49.3656C170.678 47.8164 162.921 46.4043 157.969 40.1779C153.471 34.5223 137.171 13.6639 137.171 13.6639L137.205 7.81177H137.205Z" fill="#BDBCBC"/>
    <path d="M137.205 15.658C137.205 15.658 154.434 37.8542 157.917 42.2942C161.397 46.7305 166.195 50.396 178.065 52.6679C184.908 53.9799 196.948 56.1775 196.948 56.1775V57.004C196.948 57.004 186.399 55.0436 178.065 53.5463C169.731 52.049 162.85 50.5998 157.917 45.0812C153.59 40.2373 137.171 21.1986 137.171 21.1986L137.205 15.658H137.205Z" fill="#BDBCBC"/>
    <path d="M137.171 23.3665C137.171 23.3665 154.616 43.5022 157.968 47.0935C163.191 52.6861 165.723 54.6134 178.064 56.952C183 57.8896 196.947 60.3098 196.947 60.3098V61.1844C196.947 61.1844 185.398 59.1201 178.064 57.8304C170.733 56.5406 164.529 56.0588 157.916 49.7249C152.88 44.9031 137.204 28.5625 137.204 28.5625L137.17 23.3665H137.171Z" fill="#BDBCBC"/>
    <path d="M137.205 31.3848C137.205 31.3848 153.311 47.881 157.969 52.6175C162.909 57.6394 169.24 59.5 178.012 61.0306C186.387 62.4909 196.948 64.1809 196.948 64.1809V65.1074C196.948 65.1074 187.03 63.5212 178.012 62.0127C169.169 60.5303 162.98 59.7076 157.917 55.1453C153.382 51.061 137.205 36.2363 137.205 36.2363V31.3848V31.3848Z" fill="#BDBCBC"/>
    <path d="M137.205 38.8176C137.205 38.8176 152.523 52.7196 157.969 57.4709C162.98 61.8405 167.043 63.2006 178.064 65.1093C189.09 67.018 196.948 68.204 196.948 68.204V69.1861C196.948 69.1861 186.978 67.585 178.012 66.1915C169.046 64.7979 163.333 64.2494 157.969 59.9984C151.78 55.0915 137.205 43.3613 137.205 43.3613V38.8176V38.8176Z" fill="#BDBCBC"/>
    <path d="M137.17 46.7671C137.17 46.7671 154.644 60.3095 157.915 62.6814C161.187 65.0571 165.51 67.8256 178.063 69.6008C190.512 71.3576 196.894 72.2323 196.894 72.2323V73.2663C196.894 73.2663 185.609 71.6615 178.063 70.735C170.521 69.8047 164.737 69.4119 157.967 65.0052C151.377 60.7172 137.203 50.966 137.203 50.966L137.169 46.7671H137.17Z" fill="#BDBCBC"/>
    <path d="M137.17 54.3721C137.17 54.3721 154.696 65.7796 158.019 67.5882C161.346 69.3931 165.25 72.3358 178.063 73.9369C190.88 75.5342 196.894 76.257 196.894 76.257V77.2391C196.894 77.2391 186.293 76.1052 178.011 75.2268C169.729 74.3484 164.086 73.1624 157.915 69.8564C151.745 66.5542 137.203 58.2598 137.203 58.2598L137.169 54.3721H137.17Z" fill="#BDBCBC"/>
    <path d="M137.205 61.9773C137.205 61.9773 152.717 70.2234 157.969 72.7992C163.824 75.6715 168.887 77.0502 178.065 78.1139C187.075 79.1664 196.948 80.1819 196.948 80.1819V81.1123C196.948 81.1123 187.819 80.1561 178.065 79.2518C168.396 78.3586 164.95 77.9434 157.969 74.9155C151.724 72.21 137.171 65.5908 137.171 65.5908L137.205 61.9773H137.205Z" fill="#BDBCBC"/>
    <path d="M137.205 69.7197C137.205 69.7197 149.409 74.8269 158.021 78.1661C166.497 81.4535 172.968 81.7315 178.117 82.2985C180.384 82.547 196.896 84.2073 196.896 84.2073V85.1339C196.896 85.1339 187.031 84.363 178.065 83.5884C169.099 82.8138 165.229 82.4877 157.969 80.1305C150.62 77.7475 137.171 73.1628 137.171 73.1628L137.205 69.7197H137.205Z" fill="#BDBCBC"/>
    <path d="M137.205 77.5659C137.205 77.5659 149.583 81.3165 158.021 83.4846C166.459 85.6527 174.214 86.5311 178.117 86.7869C182.02 87.0463 196.896 88.2322 196.896 88.2322V89.1106C196.896 89.1106 188.458 88.5473 178.065 87.8209C169.66 87.2353 162.909 86.6163 157.969 85.5489C152.494 84.3666 137.171 80.8014 137.171 80.8014L137.205 77.5659H137.205Z" fill="#BDBCBC"/>
    <path d="M137.17 85.3091C137.17 85.3091 147.326 87.0177 158.02 88.7485C166.038 90.0494 176.904 90.8685 178.064 90.9167C179.223 90.9686 196.947 92.1581 196.947 92.1581V93.0847C196.947 93.0847 185.606 92.514 178.064 92.1064C170.209 91.6801 162.403 91.2168 157.968 90.7647C148.036 89.7492 137.17 88.4076 137.17 88.4076V85.3091V85.3091Z" fill="#BDBCBC"/>
    <path d="M137.205 93.3257C137.205 93.3257 153.17 93.9112 158.021 94.015C162.872 94.1188 196.948 95.4604 196.948 95.4604V96.3907L137.205 96.3536V93.3257V93.3257Z" fill="#BDBCBC"/>
    <path d="M45.2236 101.942C45.2236 101.767 45.3054 101.675 45.4913 101.675H50.4166C50.5766 101.675 50.6732 101.767 50.6732 101.927V102.757C50.6732 102.916 50.6063 102.998 50.4056 102.998H46.7515V105.292H49.9892C50.1638 105.292 50.2569 105.374 50.2569 105.533V106.359C50.2569 106.519 50.19 106.6 49.9892 106.6H46.7515V109.228H50.4985C50.6582 109.228 50.7403 109.309 50.7403 109.484V110.295C50.7403 110.47 50.6734 110.536 50.4837 110.536H45.4914C45.3056 110.536 45.2238 110.455 45.2238 110.295V101.942H45.2236Z" fill="#5A5758"/>
    <path d="M56.9477 110.537H55.9961C55.7954 110.537 55.7434 110.445 55.7434 110.285V109.87L55.7166 109.855C55.1925 110.218 54.2817 110.656 53.4676 110.656C51.6611 110.656 51.4863 109.588 51.4863 108.187V104.263C51.4863 104.103 51.5533 103.999 51.7392 103.999H52.7168C52.8916 103.999 52.9585 104.092 52.9585 104.263V108.013C52.9585 108.818 53.1183 109.321 53.9362 109.321C54.5124 109.321 55.3933 108.895 55.7427 108.721V104.263C55.7427 104.103 55.7947 103.999 55.9955 103.999H56.9471C57.133 103.999 57.1999 104.092 57.1999 104.263V110.285C57.1999 110.456 57.133 110.537 56.9471 110.537" fill="#5A5758"/>
    <path d="M59.8104 110.284C59.8104 110.443 59.7435 110.536 59.5576 110.536H58.5911C58.4053 110.536 58.3384 110.458 58.3384 110.284V104.265C58.3384 104.09 58.4053 103.998 58.5911 103.998H59.5428C59.7435 103.998 59.8104 104.105 59.8104 104.265V104.85L59.8372 104.877C60.2386 104.507 61.1903 104.051 61.8185 103.932C61.9933 103.891 62.1119 103.932 62.1418 104.158L62.2346 105.051C62.2465 105.24 62.2614 105.318 61.9783 105.374C61.2311 105.518 60.2795 105.785 59.8111 105.985V110.284L59.8104 110.284Z" fill="#5A5758"/>
    <path d="M65.4445 105.145C64.307 105.145 64.0506 105.868 64.0506 107.254C64.0506 108.669 64.3069 109.362 65.4296 109.362C66.6489 109.362 66.8906 108.681 66.8906 107.254C66.8906 105.838 66.6636 105.145 65.4445 105.145ZM65.4296 110.645C62.7421 110.645 62.5674 108.681 62.5674 107.161C62.5674 105.905 62.846 103.863 65.4296 103.863C68.028 103.863 68.3885 105.586 68.3885 107.161C68.3885 108.681 68.2027 110.645 65.4296 110.645Z" fill="#5A5758"/>
    <path d="M72.3896 105.225C71.8395 105.225 70.9956 105.611 70.5942 105.826V109.161C71.1963 109.336 71.6796 109.388 72.1369 109.388C73.0996 109.388 73.4342 108.895 73.4342 107.216C73.4342 105.518 73.0996 105.226 72.3896 105.226V105.225ZM72.282 110.659C71.8396 110.659 71.2263 110.577 70.6092 110.362L70.5943 110.377V112.727C70.5943 112.871 70.5572 112.994 70.3416 112.994H69.39C69.1782 112.994 69.1372 112.901 69.1372 112.727V104.266C69.1372 104.092 69.2041 103.999 69.39 103.999H70.3416C70.5313 103.999 70.5834 104.103 70.5834 104.266V104.666L70.6244 104.693C71.1039 104.359 71.9626 103.892 72.7395 103.892C74.4903 103.892 74.9475 105.211 74.9475 107.228C74.9475 109.403 74.3973 110.66 72.2822 110.66" fill="#5A5758"/>
    <path d="M77.2605 106.667H79.9108C79.9108 105.851 79.6952 105.066 78.5874 105.066C77.5949 105.066 77.3274 105.666 77.2605 106.667ZM77.2456 107.667C77.2866 109.017 77.7697 109.391 78.8662 109.391C79.3495 109.391 80.0967 109.294 80.606 109.243C80.8477 109.216 80.9294 109.216 80.9702 109.469L81.0485 109.91C81.0895 110.11 81.0633 110.217 80.8219 110.325C80.2977 110.525 79.3238 110.658 78.6659 110.658C76.1084 110.658 75.7329 109.031 75.7329 107.293C75.7329 106 75.9747 103.865 78.5878 103.865C80.9817 103.865 81.4092 105.414 81.45 106.852C81.4649 107.334 81.3311 107.668 80.7958 107.668H77.2458L77.2456 107.667Z" fill="#5A5758"/>
    <path d="M86.1863 107.56H84.5544C83.8853 107.56 83.4541 107.801 83.4541 108.683C83.4541 109.269 83.6548 109.458 84.2867 109.458C84.8629 109.458 85.677 109.121 86.1863 108.828V107.56ZM86.268 109.777C85.5989 110.284 84.6994 110.644 83.8036 110.644C82.3836 110.644 81.9709 109.869 81.9709 108.75C81.956 107.186 82.7998 106.519 84.4875 106.519H86.2011V106.174C86.2011 105.374 85.9038 105.092 84.8072 105.092C84.3648 105.092 83.521 105.159 82.9857 105.211C82.7181 105.252 82.6511 105.237 82.614 105.051L82.4915 104.558C82.4647 104.384 82.5064 104.277 82.8 104.158C83.3762 103.958 84.4319 103.865 85.0638 103.865C87.3797 103.865 87.6585 104.811 87.6585 106.308V108.884C87.6585 109.428 87.7254 109.443 88.1417 109.495C88.3424 109.51 88.3945 109.551 88.3945 109.695V110.259C88.3945 110.403 88.3016 110.496 88.0747 110.536C87.8591 110.577 87.6473 110.603 87.4465 110.603C86.8146 110.603 86.4281 110.418 86.2943 109.792L86.2675 109.777L86.268 109.777Z" fill="#5A5758"/>
    <path d="M94.2293 110.537H93.2665C93.0917 110.537 93.01 110.455 93.01 110.285L93.0248 106.534C93.0248 105.745 92.839 105.226 92.0621 105.226C91.5268 105.226 90.59 105.652 90.2257 105.827V110.285C90.2257 110.445 90.1588 110.537 89.9729 110.537H89.0213C88.8354 110.537 88.7686 110.455 88.7686 110.285V104.262C88.7686 104.092 88.8354 103.999 89.0213 103.999H89.9729C90.1588 103.999 90.2257 104.092 90.2257 104.262V104.666C90.2405 104.666 90.2555 104.678 90.2668 104.678C90.7612 104.334 91.6978 103.878 92.5156 103.878C94.3222 103.878 94.4858 105.067 94.4858 106.413V110.286C94.4858 110.445 94.4299 110.538 94.2291 110.538" fill="#5A5758"/>
    <path d="M48.7173 115.665C49.3716 115.665 50.457 115.758 51.167 116.05C51.3826 116.147 51.4605 116.254 51.4198 116.465L51.3008 117.014C51.2597 117.174 51.1931 117.24 50.9514 117.214C50.2971 117.133 49.4942 117.04 48.7991 117.04C46.9776 117.04 46.7101 118.508 46.7101 120.242C46.7101 121.992 47.0446 123.367 48.7991 123.367C49.5723 123.367 50.2302 123.285 50.9514 123.192C51.208 123.166 51.2599 123.233 51.3157 123.407L51.4198 123.915C51.4754 124.126 51.4079 124.248 51.1929 124.341C50.5386 124.619 49.3715 124.741 48.7172 124.741C45.7323 124.741 45.104 122.54 45.104 120.268C45.104 117.989 45.6654 115.665 48.7172 115.665" fill="#5A5758"/>
    <path d="M54.4582 119.228C53.3207 119.228 53.0642 119.951 53.0642 121.337C53.0642 122.753 53.3208 123.446 54.4433 123.446C55.6626 123.446 55.9041 122.764 55.9041 121.337C55.9041 119.921 55.6773 119.228 54.4582 119.228ZM54.4433 124.728C51.7557 124.728 51.5811 122.764 51.5811 121.245C51.5811 119.988 51.8597 117.946 54.4433 117.946C57.0416 117.946 57.4022 119.669 57.4022 121.245C57.4022 122.764 57.2164 124.728 54.4433 124.728Z" fill="#5A5758"/>
    <path d="M67.521 124.621H66.5583C66.3689 124.621 66.3016 124.539 66.3016 124.368V120.577C66.3016 119.587 66.0638 119.31 65.3909 119.31C64.8966 119.31 64.0936 119.695 63.681 119.91C63.681 120.043 63.6929 120.284 63.6929 120.588V124.368C63.6929 124.528 63.6409 124.621 63.4401 124.621H62.4624C62.2879 124.621 62.2356 124.539 62.2356 124.368V120.51C62.2356 119.695 62.02 119.31 61.3509 119.31C60.8825 119.31 60.1316 119.643 59.6223 119.91V124.368C59.6223 124.528 59.5555 124.621 59.3696 124.621H58.4068C58.2319 124.621 58.165 124.539 58.165 124.368V118.346C58.165 118.175 58.2319 118.083 58.4068 118.083H59.3547C59.5554 118.083 59.6223 118.186 59.6223 118.346V118.735L59.6372 118.75C60.1576 118.387 60.8937 117.986 61.6334 117.96C62.4066 117.96 63.0497 118.12 63.466 118.894C64.1351 118.401 64.9641 117.96 65.8227 117.96C67.5884 117.96 67.7631 119.109 67.7631 120.444V124.368C67.7631 124.528 67.7072 124.621 67.5214 124.621" fill="#5A5758"/>
    <path d="M78.0122 124.621H77.0494C76.86 124.621 76.7928 124.539 76.7928 124.368V120.577C76.7928 119.587 76.5549 119.31 75.8821 119.31C75.3877 119.31 74.5847 119.695 74.1721 119.91C74.1721 120.043 74.184 120.284 74.184 120.588V124.368C74.184 124.528 74.132 124.621 73.9312 124.621H72.9537C72.7791 124.621 72.7267 124.539 72.7267 124.368V120.51C72.7267 119.695 72.5111 119.31 71.842 119.31C71.3737 119.31 70.6228 119.643 70.1136 119.91V124.368C70.1136 124.528 70.0466 124.621 69.8607 124.621H68.898C68.7232 124.621 68.6562 124.539 68.6562 124.368V118.346C68.6562 118.175 68.7232 118.083 68.898 118.083H69.8458C70.0466 118.083 70.1136 118.186 70.1136 118.346V118.735L70.1283 118.75C70.6488 118.387 71.3848 117.986 72.1245 117.96C72.8977 117.96 73.5408 118.12 73.9571 118.894C74.6262 118.401 75.4552 117.96 76.3139 117.96C78.0795 117.96 78.2542 119.109 78.2542 120.444V124.368C78.2542 124.528 78.1983 124.621 78.0125 124.621" fill="#5A5758"/>
    <path d="M80.807 124.367C80.807 124.512 80.755 124.619 80.5653 124.619H79.6137C79.4279 124.619 79.346 124.541 79.346 124.367V118.333C79.346 118.148 79.4279 118.081 79.6137 118.081H80.5653C80.755 118.081 80.807 118.189 80.807 118.333V124.367ZM80.0971 117.121C79.402 117.121 79.3091 116.732 79.3091 116.347C79.3091 115.921 79.4542 115.583 80.0971 115.583C80.755 115.583 80.8889 115.891 80.8889 116.347C80.8889 116.758 80.7663 117.121 80.0971 117.121Z" fill="#5A5758"/>
    <path d="M84.1256 124.727C83.4565 124.727 82.5607 124.635 82.0514 124.435C81.7838 124.328 81.728 124.205 81.7689 123.994L81.8617 123.553C81.9028 123.338 81.9955 123.327 82.2111 123.353C82.7984 123.445 83.6571 123.512 84.1106 123.512C84.9692 123.512 85.3187 123.286 85.3187 122.752C85.3187 122.137 85.0882 122.004 84.2444 121.885C82.9323 121.696 81.7836 121.418 81.7836 119.962C81.7836 118.642 82.7984 117.949 84.3002 117.949C84.8466 117.949 85.7722 118.027 86.3335 118.242C86.5604 118.334 86.6569 118.442 86.616 118.642L86.5083 119.12C86.4673 119.309 86.3894 119.335 86.1478 119.309C85.5716 119.243 84.8208 119.161 84.3264 119.161C83.4714 119.161 83.2707 119.402 83.2707 119.91C83.2707 120.429 83.5904 120.495 84.4081 120.629C85.6794 120.818 86.8281 121.07 86.8281 122.66C86.8281 124.22 85.5047 124.728 84.1256 124.728" fill="#5A5758"/>
    <path d="M89.7326 124.727C89.0635 124.727 88.1676 124.635 87.6583 124.435C87.3907 124.328 87.3349 124.205 87.3758 123.994L87.4687 123.553C87.5097 123.338 87.6025 123.327 87.8181 123.353C88.4054 123.445 89.264 123.512 89.7175 123.512C90.5762 123.512 90.9256 123.286 90.9256 122.752C90.9256 122.137 90.6952 122.004 89.8514 121.885C88.5392 121.696 87.3905 121.418 87.3905 119.962C87.3905 118.642 88.4053 117.949 89.9071 117.949C90.4535 117.949 91.3791 118.027 91.9404 118.242C92.1673 118.334 92.2638 118.442 92.2229 118.642L92.1153 119.12C92.0745 119.309 91.9964 119.335 91.7547 119.309C91.1786 119.243 90.4277 119.161 89.9333 119.161C89.0784 119.161 88.8776 119.402 88.8776 119.91C88.8776 120.429 89.1973 120.495 90.0151 120.629C91.2864 120.818 92.435 121.07 92.435 122.66C92.435 124.22 91.1117 124.728 89.7326 124.728" fill="#5A5758"/>
    <path d="M94.7915 124.367C94.7915 124.512 94.7395 124.619 94.5497 124.619H93.5981C93.4123 124.619 93.3305 124.541 93.3305 124.367V118.333C93.3305 118.148 93.4123 118.081 93.5981 118.081H94.5497C94.7395 118.081 94.7915 118.189 94.7915 118.333V124.367ZM94.0816 117.121C93.3864 117.121 93.2935 116.732 93.2935 116.347C93.2935 115.921 93.4386 115.583 94.0816 115.583C94.7395 115.583 94.8733 115.891 94.8733 116.347C94.8733 116.758 94.7508 117.121 94.0816 117.121Z" fill="#5A5758"/>
    <path d="M98.6589 119.228C97.5214 119.228 97.2686 119.951 97.2686 121.337C97.2686 122.753 97.5214 123.446 98.644 123.446C99.8632 123.446 100.105 122.764 100.105 121.337C100.105 119.921 99.878 119.228 98.6589 119.228ZM98.644 124.728C95.9564 124.728 95.7817 122.764 95.7817 121.245C95.7817 119.988 96.0604 117.946 98.644 117.946C101.242 117.946 101.603 119.669 101.603 121.245C101.603 122.764 101.417 124.728 98.644 124.728Z" fill="#5A5758"/>
    <path d="M107.786 124.621H106.824C106.649 124.621 106.567 124.539 106.567 124.369L106.582 120.618C106.582 119.829 106.396 119.31 105.619 119.31C105.084 119.31 104.147 119.736 103.783 119.91V124.369C103.783 124.528 103.716 124.621 103.53 124.621H102.578C102.393 124.621 102.326 124.539 102.326 124.369V118.346C102.326 118.176 102.393 118.083 102.578 118.083H103.53C103.716 118.083 103.783 118.175 103.783 118.346V118.75C103.798 118.75 103.81 118.762 103.824 118.762C104.318 118.417 105.259 117.961 106.073 117.961C107.879 117.961 108.043 119.151 108.043 120.497V124.369C108.043 124.529 107.987 124.622 107.786 124.622" fill="#5A5758"/>
</svg>
