<svg width="244" height="100" viewBox="0 0 244 100" fill="none" xmlns="http://www.w3.org/2000/svg">
<rect x="0.65332" width="242.654" height="100" rx="12" fill="#F9F9F9"/>
<g clip-path="url(#clip0_2986_65963)">
<path d="M20.6543 35.7643C20.6543 35.7643 46.3284 32.4418 47.0527 32.3241C48.1645 32.1426 49.1505 31.93 50.071 31.6766C52.1476 31.1076 54.059 30.2393 55.7513 29.0948C57.375 28.0075 58.8842 26.4247 60.3803 24.6883C61.3302 23.583 62.3293 22.1425 63.2613 20.7527V20.0806C62.156 21.7173 61.067 23.1284 59.947 24.3727C58.4623 26.0258 56.9057 27.3764 55.318 28.3901C53.6797 29.4464 51.837 30.2328 49.8372 30.7315C48.9412 30.9572 47.9831 31.1403 46.9039 31.2907C46.1943 31.3904 45.4617 31.4674 44.7538 31.5409C44.4709 31.5721 20.6543 34.0982 20.6543 34.0982V35.7643Z" fill="#181B5E" fill-opacity="0.6"/>
<path d="M55.0832 31.4598C53.4759 32.3836 51.6201 33.0605 49.5665 33.4693C48.6901 33.6475 47.7336 33.7914 46.6446 33.9091C46.0036 33.9794 45.3594 34.035 44.7135 34.0906C44.3653 34.12 44.017 34.1511 43.6687 34.1822C35.8007 34.8885 27.9736 35.639 20.6533 36.3487V38.0148C28.0308 37.1253 35.9135 36.1819 43.7783 35.2924C44.1282 35.2516 44.4781 35.2123 44.828 35.1747C45.4722 35.1043 46.1181 35.0325 46.7639 34.9474C47.884 34.7986 48.8634 34.6269 49.7578 34.4242C51.8916 33.9467 53.8177 33.1946 55.4839 32.1858C57.1386 31.1933 58.6003 29.8018 60.1733 28.1013C61.1527 27.0434 62.2416 25.549 63.2619 24.1461V23.5345C62.0601 25.1631 60.9205 26.5317 59.7939 27.6991C58.2586 29.29 56.6742 30.554 55.0832 31.4598Z" fill="#181B5E" fill-opacity="0.6"/>
<path d="M59.5765 31.0518C58.0101 32.4891 56.375 33.6189 54.7154 34.4103C53.0917 35.1935 51.2768 35.7429 49.1626 36.0895C48.2911 36.2351 47.3428 36.3528 46.2652 36.4509L20.6533 38.5536V40.2149L43.4202 37.7998L46.365 37.4908C47.4752 37.3617 48.4432 37.2177 49.3228 37.051C51.5122 36.6373 53.3909 36.0208 55.0636 35.1641C56.7739 34.2991 58.4826 32.8603 60.0719 31.3364C61.1379 30.3145 62.1648 28.9949 63.2619 27.6116V27.0573C61.9947 28.6335 60.7848 29.9449 59.5765 31.0518Z" fill="#181B5E" fill-opacity="0.6"/>
<path d="M53.3838 39.6812C51.8926 40.5151 50.7774 40.9958 48.6485 41.2182C47.3617 41.3572 46.039 41.4225 44.7587 41.4863C44.1406 41.5173 43.5209 41.5484 42.9012 41.5877C39.0326 41.8084 35.2327 42.0537 31.3559 42.3055L20.6543 43.0265V44.6878L31.4638 43.6969C34.9564 43.383 39.0146 43.0217 42.9764 42.6979L45.8575 42.4756C46.9824 42.389 47.9046 42.2973 48.7581 42.1862C50.9491 41.9033 52.8213 41.4602 54.4793 40.8339C56.2648 40.1668 57.9489 39.1302 59.6347 37.9104C61.1553 36.8117 63.2597 34.6451 63.2613 34.6174V34.0303C61.8862 35.3711 61.0948 36.1249 59.5889 37.1174C57.7887 38.3028 54.7213 38.9339 53.3838 39.6812Z" fill="#181B5E" fill-opacity="0.6"/>
<path d="M53.9282 42.8391C52.3128 43.3133 50.4946 43.6338 48.3689 43.8186C47.5073 43.8938 46.5785 43.951 45.5288 43.9935L42.6642 44.1193C35.5466 44.4496 28.4618 44.8192 20.6543 45.2328V46.8892C28.1135 46.312 35.4224 45.7512 42.7295 45.2312L45.5844 45.0367C46.6881 44.963 47.6021 44.8846 48.4622 44.7881C50.6401 44.5445 52.5041 44.1684 54.1588 43.6386C55.9917 43.0582 57.7789 42.2161 59.4695 41.137C60.7171 40.3423 61.9663 39.394 63.2613 38.2642V38.2347C61.8339 39.4528 60.4735 39.7242 59.118 40.5418C57.4567 41.549 55.7105 42.3208 53.9282 42.8391Z" fill="#181B5E" fill-opacity="0.6"/>
<path d="M53.664 45.5924C52.0371 45.9734 50.2728 46.217 48.1129 46.3625C47.2806 46.4181 46.3846 46.459 45.294 46.4933L42.4571 46.5947C35.3085 46.8645 28.0602 47.1751 20.6533 47.4972V49.1536C28.0128 48.6516 35.2317 48.1627 42.5127 47.7082L45.3431 47.5381C46.4533 47.4743 47.3575 47.4106 48.1897 47.3337C50.3889 47.131 52.1891 46.835 53.8536 46.405C55.7209 45.9243 57.5358 45.2179 59.2478 44.3088C60.5722 43.6074 61.8933 42.7637 63.2619 41.7467V41.0387C61.7822 42.1064 60.3629 42.9778 58.9437 43.6875C57.2612 44.5295 55.4855 45.1705 53.664 45.5924Z" fill="#181B5E" fill-opacity="0.6"/>
<path d="M53.4214 48.2917C51.7879 48.5909 50.0302 48.7822 47.8866 48.8917C47.0805 48.9343 46.2172 48.9637 45.089 48.9899L20.6543 49.6504V51.3068L42.3208 50.1753L45.1282 50.033C46.2237 49.9807 47.1198 49.9284 47.9488 49.8647C50.1218 49.6979 51.9089 49.4592 53.5734 49.1109C55.4636 48.7185 57.2982 48.1461 59.0248 47.4104C60.4163 46.8201 61.8093 46.1007 63.2613 45.2259V44.5605C61.7112 45.463 60.2364 46.1857 58.7714 46.7661C57.0692 47.4431 55.269 47.9565 53.4214 48.2917Z" fill="#181B5E" fill-opacity="0.6"/>
<path d="M53.23 51.0026C50.2313 51.4032 47.1459 51.449 44.1602 51.4932C43.4768 51.5023 42.7917 51.5128 42.1082 51.5276L20.6543 51.9134V53.5665L42.1458 52.6411C42.826 52.6101 43.5095 52.5822 44.1929 52.5561C47.1982 52.4351 50.3065 52.3108 53.3461 51.8284C55.269 51.5259 57.1199 51.0763 58.8482 50.4958C60.2789 50.0168 61.7603 49.397 63.2613 48.6645V48.0301C61.6834 48.7643 60.1317 49.3758 58.6422 49.8337C56.9352 50.3602 55.1153 50.7542 53.23 51.0027" fill="#181B5E" fill-opacity="0.6"/>
<path d="M53.059 53.7307C50.2499 53.9629 47.3755 53.9629 44.5942 53.9629C43.7292 53.9629 42.8643 53.9629 41.9993 53.9694C34.8916 54.0005 27.8411 54.0593 20.6533 54.1214V55.7745C27.4994 55.5424 34.7608 55.3003 42.0238 55.0845C42.8855 55.0551 43.7472 55.0339 44.6106 55.011C47.4065 54.9407 50.2974 54.8687 53.1359 54.5613C55.1176 54.3488 56.9227 54.0365 58.651 53.6097C60.1585 53.2386 61.7069 52.7448 63.2619 52.1513V51.543C61.6563 52.1185 60.0572 52.5894 58.4989 52.9328C56.787 53.3105 55.008 53.5705 53.059 53.7307Z" fill="#181B5E" fill-opacity="0.6"/>
<path d="M52.9514 56.4198C51.7807 56.4656 50.5135 56.4885 49.0762 56.4885C48.5334 56.4885 47.9889 56.4859 47.4477 56.4806L41.9179 56.4136C38.1457 56.3858 34.3867 56.3793 30.8598 56.3761L20.6553 56.3853V58.0367L30.8843 57.7702C34.3981 57.6836 38.167 57.5936 41.9293 57.5266L47.4543 57.4529C48.97 57.43 50.9697 57.3842 52.9955 57.2518C54.9805 57.1227 56.7873 56.9248 58.5189 56.6484C60.0771 56.3999 61.6697 56.0647 63.2622 55.6576V55.0722C61.6255 55.4483 59.9986 55.7508 58.4208 55.9618C56.699 56.1923 54.9103 56.3411 52.9514 56.4196" fill="#181B5E" fill-opacity="0.6"/>
<path d="M47.383 59.0185L41.8728 58.9597C34.8419 58.8599 27.8192 58.7324 20.6543 58.5983V60.2514C27.4922 60.2073 34.7356 60.1548 41.8777 60.0748L47.3912 59.993C49.2486 59.9603 51.0685 59.9261 52.9079 59.8655C56.6964 59.7445 60.0909 59.4779 63.2613 59.0577V58.4822C60.0778 58.8256 56.6801 59.0054 52.8883 59.0299C51.0554 59.0463 49.2192 59.0339 47.383 59.0182" fill="#181B5E" fill-opacity="0.6"/>
<path d="M63.2622 61.9417L20.6553 60.8609V62.5139H63.2622V61.9417Z" fill="#181B5E" fill-opacity="0.6"/>
<path d="M59.4254 34.1744C57.8067 35.4743 56.5574 36.3982 54.5757 37.1847C52.8507 37.8714 50.9982 38.1509 48.8807 38.4404C47.5187 38.6317 46.0945 38.9129 44.7342 39.0045C44.175 39.042 43.6158 39.078 43.0582 39.1222L20.6543 40.7557V42.4137L43.1481 40.2324L46.0651 39.9594C47.1459 39.8563 48.1073 39.7387 49.0001 39.5931C51.1797 39.2432 53.0584 38.7102 54.7425 37.9596C56.4888 37.1895 58.2563 35.9273 59.8995 34.5456C61.0163 33.6071 62.0922 32.4265 63.2613 31.1365V30.5429C61.8469 32.0047 60.673 33.1738 59.4254 34.1744Z" fill="#181B5E" fill-opacity="0.6"/>
<path d="M38.3633 78.36H75.6857V61.7623H38.3633V78.36Z" fill="white"/>
<path fill-rule="evenodd" clip-rule="evenodd" d="M75.6922 37.5418H38.3633V62.5128H75.6922V37.5418ZM57.4327 41.0929H58.731L57.6845 41.9088L58.0917 43.2022L57.0485 42.4059L56.0053 43.2022L56.4174 41.9088L55.3611 41.0929H56.6561L57.0485 39.8306L57.4327 41.0929ZM58.78 57.7458H57.4785L57.0958 56.5325L56.7034 57.7458H55.4068L56.4647 58.5322L56.0543 59.7749L57.0958 59.0097L58.139 59.7749L57.7319 58.5322L58.78 57.7458ZM61.5978 56.6431H62.8993L61.8512 57.4279L62.2584 58.6722L61.2152 57.9037L60.1736 58.6722L60.584 57.4279L59.5262 56.6431H60.8228L61.2152 55.4282L61.5978 56.6431ZM62.8993 42.2038H61.5978L61.2152 40.9906L60.8228 42.2038H59.5262L60.584 42.9886L60.1736 44.233L61.2152 43.466L62.2584 44.233L61.8512 42.9886L62.8993 42.2038ZM64.6562 45.2619H65.9544L64.908 46.045L65.3151 47.291L64.2719 46.5241L63.232 47.291L63.6425 46.045L62.5846 45.2619H63.8795L64.2719 44.047L64.6562 45.2619ZM65.9544 53.6264H64.6562L64.2719 52.4116L63.8795 53.6264H62.5846L63.6425 54.4129L63.232 55.6589L64.2719 54.8903L65.3151 55.6589L64.908 54.4129L65.9544 53.6264ZM65.8021 49.3804H67.1036L66.0555 50.1652L66.4627 51.4111L65.4195 50.6426L64.3779 51.4111L64.7883 50.1652L63.7304 49.3804H65.0254L65.4195 48.1671L65.8021 49.3804ZM54.5312 42.214H53.233L52.8488 41.0007L52.4563 42.214H51.1613L52.2176 43.0004L51.8056 44.2447L52.8488 43.4762L53.8919 44.2447L53.4848 43.0004L54.5312 42.214ZM50.2595 45.2721H51.5611L50.513 46.0569L50.9185 47.3028L49.8769 46.5343L48.8354 47.3028L49.2442 46.0569L48.1879 45.2721H49.4845L49.8769 44.0588L50.2595 45.2721ZM50.4557 49.3907H49.1558L48.7732 48.1775L48.3808 49.3907H47.0858L48.1404 50.1755L47.73 51.4214L48.7732 50.6546L49.8147 51.4214L49.4092 50.1755L50.4557 49.3907ZM50.2595 53.6368H51.5611L50.513 54.4233L50.9185 55.6692L49.8769 54.9007L48.8354 55.6692L49.2442 54.4233L48.1879 53.6368H49.4845L49.8769 52.4252L50.2595 53.6368ZM54.5745 56.6534H53.2762L52.892 55.4385L52.4995 56.6534H51.2046L52.2608 57.4382L51.8488 58.6825L52.892 57.9156L53.9319 58.6825L53.528 57.4382L54.5745 56.6534Z" fill="#181B5E"/>
<path d="M57.433 41.0929H58.7313L57.6848 41.9088L58.0919 43.2022L57.0487 42.4059L56.0056 43.2022L56.4176 41.9088L55.3613 41.0929H56.6563L57.0487 39.8306L57.433 41.0929Z" fill="#BABBCF"/>
<path d="M57.4789 57.7458H58.7804L57.7323 58.5322L58.1394 59.7749L57.0962 59.0097L56.0547 59.7749L56.4651 58.5322L55.4072 57.7458H56.7038L57.0962 56.5325L57.4789 57.7458Z" fill="#BABBCF"/>
<path d="M61.598 56.6431H62.8996L61.8514 57.4279L62.2586 58.6722L61.2154 57.9037L60.1739 58.6722L60.5843 57.4279L59.5264 56.6431H60.823L61.2154 55.4282L61.598 56.6431Z" fill="#BABBCF"/>
<path d="M61.598 42.2038H62.8996L61.8514 42.9886L62.2586 44.233L61.2154 43.466L60.1739 44.233L60.5843 42.9886L59.5264 42.2038H60.823L61.2154 40.9906L61.598 42.2038Z" fill="#BABBCF"/>
<path d="M64.6566 45.2619H65.9548L64.9084 46.0451L65.3155 47.291L64.2723 46.5242L63.2324 47.291L63.6429 46.0451L62.585 45.2619H63.8799L64.2723 44.047L64.6566 45.2619Z" fill="#BABBCF"/>
<path d="M64.6566 53.6264H65.9548L64.9084 54.4129L65.3155 55.6589L64.2723 54.8904L63.2324 55.6589L63.6429 54.4129L62.585 53.6264H63.8799L64.2723 52.4116L64.6566 53.6264Z" fill="#BABBCF"/>
<path d="M65.8021 49.3804H67.1036L66.0556 50.1652L66.4627 51.4112L65.4195 50.6427L64.378 51.4112L64.7884 50.1652L63.7305 49.3804H65.0254L65.4195 48.1671L65.8021 49.3804Z" fill="#BABBCF"/>
<path d="M53.2328 42.214H54.531L53.4846 43.0004L53.8917 44.2447L52.8485 43.4762L51.8053 44.2447L52.2174 43.0004L51.1611 42.214H52.4561L52.8485 41.0007L53.2328 42.214Z" fill="#BABBCF"/>
<path d="M50.2601 45.2721H51.5616L50.5136 46.0569L50.9191 47.3028L49.8775 46.5343L48.836 47.3028L49.2447 46.0569L48.1885 45.2721H49.4851L49.8775 44.0588L50.2601 45.2721Z" fill="#BABBCF"/>
<path d="M49.1559 49.3907H50.4559L49.4094 50.1755L49.8149 51.4214L48.7734 50.6546L47.7302 51.4214L48.1406 50.1755L47.0859 49.3907H48.3809L48.7734 48.1775L49.1559 49.3907Z" fill="#BABBCF"/>
<path d="M50.2601 53.6368H51.5616L50.5136 54.4233L50.9191 55.6692L49.8775 54.9007L48.836 55.6692L49.2447 54.4233L48.1885 53.6368H49.4851L49.8775 52.4252L50.2601 53.6368Z" fill="#BABBCF"/>
<path d="M53.2767 56.6534H54.575L53.5285 57.4382L53.9324 58.6825L52.8925 57.9156L51.8493 58.6825L52.2613 57.4382L51.2051 56.6534H52.5001L52.8925 55.4385L53.2767 56.6534Z" fill="#BABBCF"/>
<path d="M38.3633 80H75.6955V77.8695H38.3633V80Z" fill="#181B5E"/>
<path d="M81.0049 20.0001C81.0049 20.0001 88.7878 32.1209 90.212 34.3495C91.6345 36.5765 93.2614 38.3391 99.0202 39.536C104.779 40.7329 107.286 41.2986 107.286 41.2986V41.7303C107.286 41.7303 103.626 40.9651 98.9172 39.935C94.2098 38.9049 92.2853 38.5566 90.1384 35.6298C88.3513 33.1935 81.0049 22.8385 81.0049 22.8385V20.0001Z" fill="#181B5E" fill-opacity="0.6"/>
<path d="M81.005 23.4464C81.005 23.4464 89.0479 34.9689 90.1156 36.3816C91.1833 37.7943 92.6206 40.0703 98.9778 41.4143C100.619 41.761 107.307 43.0772 107.307 43.0772V43.4418C107.307 43.4418 102.225 42.4624 98.9778 41.7789C95.7289 41.0955 92.3164 40.4725 90.1385 37.7256C88.1601 35.2304 80.9902 26.0282 80.9902 26.0282L81.0049 23.4464H81.005Z" fill="#181B5E" fill-opacity="0.6"/>
<path d="M81.005 26.908C81.005 26.908 88.5836 36.7004 90.1156 38.6592C91.6461 40.6164 93.757 42.2336 98.9778 43.2359C101.988 43.8147 107.284 44.7842 107.284 44.7842V45.1489C107.284 45.1489 102.644 44.284 98.9778 43.6234C95.3119 42.9628 92.2854 42.3235 90.1156 39.8888C88.2124 37.7518 80.9902 29.3524 80.9902 29.3524L81.0049 26.908H81.005Z" fill="#181B5E" fill-opacity="0.6"/>
<path d="M80.9903 30.3087C80.9903 30.3087 88.6637 39.1921 90.1386 40.7765C92.4359 43.2439 93.5494 44.0941 98.9779 45.1259C101.149 45.5395 107.284 46.6072 107.284 46.6072V46.9931C107.284 46.9931 102.204 46.0824 98.9779 45.5134C95.7535 44.9444 93.0245 44.7318 90.1157 41.9374C87.9002 39.8102 81.005 32.6011 81.005 32.6011L80.9902 30.3087H80.9903Z" fill="#181B5E" fill-opacity="0.6"/>
<path d="M81.0049 33.8462C81.0049 33.8462 88.0897 41.1239 90.1384 43.2136C92.3115 45.4291 95.096 46.2499 98.9548 46.9252C102.639 47.5694 107.284 48.315 107.284 48.315V48.7238C107.284 48.7238 102.921 48.024 98.9548 47.3585C95.0649 46.7045 92.3425 46.3415 90.1156 44.3287C88.1208 42.5269 81.0049 35.9865 81.0049 35.9865V33.8462Z" fill="#181B5E" fill-opacity="0.6"/>
<path d="M81.0049 37.1254C81.0049 37.1254 87.743 43.2586 90.1384 45.3547C92.3425 47.2825 94.1297 47.8826 98.9777 48.7246C103.827 49.5667 107.284 50.0899 107.284 50.0899V50.5232C107.284 50.5232 102.899 49.8169 98.9548 49.2021C95.011 48.5873 92.4979 48.3453 90.1384 46.4698C87.416 44.305 81.0049 39.1299 81.0049 39.1299V37.1254Z" fill="#181B5E" fill-opacity="0.6"/>
<path d="M80.9893 40.6325C80.9893 40.6325 88.6759 46.6071 90.1147 47.6535C91.5536 48.7016 93.4552 49.923 98.9769 50.7062C104.453 51.4812 107.26 51.8671 107.26 51.8671V52.3233C107.26 52.3233 102.296 51.6153 98.9769 51.2065C95.6593 50.7961 93.1151 50.6228 90.1376 48.6787C87.2386 46.7869 81.004 42.485 81.004 42.485L80.9893 40.6325H80.9893Z" fill="#181B5E" fill-opacity="0.6"/>
<path d="M80.9893 43.9877C80.9893 43.9877 88.6987 49.0204 90.1605 49.8184C91.6239 50.6146 93.3408 51.9129 98.9769 52.6192C104.615 53.3239 107.26 53.6428 107.26 53.6428V54.0761C107.26 54.0761 102.597 53.5758 98.954 53.1883C95.311 52.8008 92.829 52.2775 90.1147 50.819C87.4005 49.3622 81.004 45.7029 81.004 45.7029L80.9893 43.9877H80.9893Z" fill="#181B5E" fill-opacity="0.6"/>
<path d="M81.005 47.3429C81.005 47.3429 87.8281 50.9809 90.1385 52.1173C92.7138 53.3845 94.9408 53.9927 98.9778 54.462C102.941 54.9264 107.284 55.3744 107.284 55.3744V55.7848C107.284 55.7848 103.268 55.363 98.9778 54.964C94.7249 54.57 93.2092 54.3868 90.1385 53.0509C87.3916 51.8573 80.9902 48.9371 80.9902 48.9371L81.0049 47.3429H81.005Z" fill="#181B5E" fill-opacity="0.6"/>
<path d="M81.005 50.7587C81.005 50.7587 86.3729 53.0118 90.1614 54.485C93.8894 55.9353 96.7361 56.058 99.0007 56.3081C99.9981 56.4177 107.261 57.1503 107.261 57.1503V57.559C107.261 57.559 102.922 57.2189 98.9778 56.8772C95.034 56.5355 93.3318 56.3916 90.1385 55.3517C86.906 54.3003 80.9902 52.2777 80.9902 52.2777L81.0049 50.7587H81.005Z" fill="#181B5E" fill-opacity="0.6"/>
<path d="M81.005 54.2202C81.005 54.2202 86.4498 55.8749 90.1614 56.8314C93.8731 57.7879 97.2838 58.1755 99.0007 58.2883C100.717 58.4027 107.261 58.9259 107.261 58.9259V59.3135C107.261 59.3135 103.549 59.065 98.9778 58.7445C95.2809 58.4861 92.3115 58.213 90.1385 57.7421C87.73 57.2205 80.9902 55.6476 80.9902 55.6476L81.0049 54.2202H81.005Z" fill="#181B5E" fill-opacity="0.6"/>
<path d="M80.9902 57.6364C80.9902 57.6364 85.4573 58.3902 90.1614 59.1538C93.6883 59.7277 98.4676 60.089 98.9778 60.1103C99.4879 60.1332 107.284 60.658 107.284 60.658V61.0668C107.284 61.0668 102.295 60.815 98.9778 60.6351C95.5228 60.4471 92.0892 60.2427 90.1385 60.0432C85.7696 59.5952 80.9902 59.0033 80.9902 59.0033V57.6364Z" fill="#181B5E" fill-opacity="0.6"/>
<path d="M81.0049 61.1731C81.0049 61.1731 88.0276 61.4314 90.1613 61.4772C92.2951 61.523 107.284 62.1149 107.284 62.1149V62.5253L81.0049 62.5089V61.1731Z" fill="#181B5E" fill-opacity="0.6"/>
<path d="M40.5459 64.9742C40.5459 64.8973 40.5819 64.8566 40.6636 64.8566H42.8301C42.9005 64.8566 42.943 64.8974 42.943 64.9678V65.334C42.943 65.4044 42.9136 65.4403 42.8253 65.4403H41.218V66.4524H42.6421C42.7189 66.4524 42.7598 66.4885 42.7598 66.5587V66.9233C42.7598 66.9937 42.7304 67.0295 42.6421 67.0295H41.218V68.1888H42.8662C42.9364 68.1888 42.9725 68.2247 42.9725 68.3017V68.6597C42.9725 68.7366 42.9431 68.766 42.8596 68.766H40.6637C40.5819 68.766 40.546 68.73 40.546 68.6597V64.9742H40.5459Z" fill="#181B5E"/>
<path d="M45.7031 68.7664H45.2845C45.1962 68.7664 45.1733 68.7255 45.1733 68.6552V68.472L45.1615 68.4655C44.931 68.6257 44.5304 68.8187 44.1723 68.8187C43.3776 68.8187 43.3008 68.3477 43.3008 67.7297V65.9982C43.3008 65.9279 43.3302 65.882 43.412 65.882H43.842C43.9189 65.882 43.9483 65.9228 43.9483 65.9982V67.6529C43.9483 68.0077 44.0186 68.23 44.3784 68.23C44.6318 68.23 45.0193 68.042 45.173 67.9651V65.9982C45.173 65.9279 45.1959 65.882 45.2842 65.882H45.7028C45.7845 65.882 45.814 65.9228 45.814 65.9982V68.6552C45.814 68.7304 45.7845 68.7664 45.7028 68.7664" fill="#181B5E"/>
<path d="M46.9619 68.6546C46.9619 68.725 46.9325 68.7657 46.8508 68.7657H46.4256C46.3439 68.7657 46.3145 68.7314 46.3145 68.6546V65.9992C46.3145 65.9223 46.3439 65.8815 46.4256 65.8815H46.8442C46.9325 65.8815 46.9619 65.9288 46.9619 65.9992V66.2576L46.9737 66.2694C47.1503 66.1059 47.5689 65.9047 47.8452 65.8524C47.9221 65.8343 47.9743 65.8524 47.9875 65.9521L48.0283 66.3461C48.0335 66.4295 48.0401 66.4638 47.9155 66.4884C47.5869 66.5522 47.1683 66.6698 46.9623 66.7581V68.6548L46.9619 68.6546Z" fill="#181B5E"/>
<path d="M49.4404 66.3874C48.94 66.3874 48.8272 66.7063 48.8272 67.3178C48.8272 67.9424 48.9399 68.2482 49.4338 68.2482C49.9701 68.2482 50.0764 67.9473 50.0764 67.3178C50.0764 66.6932 49.9766 66.3874 49.4404 66.3874ZM49.4338 68.814C48.2516 68.814 48.1748 67.9473 48.1748 67.2769C48.1748 66.7226 48.2974 65.8217 49.4338 65.8217C50.5767 65.8217 50.7353 66.582 50.7353 67.2769C50.7353 67.9473 50.6536 68.814 49.4338 68.814Z" fill="#181B5E"/>
<path d="M52.4951 66.423C52.2531 66.423 51.8819 66.5931 51.7053 66.6879V68.1595C51.9702 68.2364 52.1828 68.2593 52.3839 68.2593C52.8074 68.2593 52.9545 68.0417 52.9545 67.3011C52.9545 66.5522 52.8074 66.4231 52.4951 66.4231M52.4477 68.8201C52.2532 68.8201 51.9834 68.7841 51.7119 68.6893L51.7054 68.6958V69.7324C51.7054 69.7961 51.6891 69.8502 51.5942 69.8502H51.1756C51.0825 69.8502 51.0645 69.8094 51.0645 69.7324V65.9995C51.0645 65.9227 51.0939 65.8819 51.1756 65.8819H51.5942C51.6777 65.8819 51.7006 65.9276 51.7006 65.9995V66.1761L51.7186 66.188C51.9295 66.0408 52.3072 65.8347 52.649 65.8347C53.4191 65.8347 53.6202 66.4168 53.6202 67.3063C53.6202 68.2661 53.3782 68.8204 52.4478 68.8204" fill="#181B5E"/>
<path d="M54.6377 67.0588H55.8035C55.8035 66.6991 55.7087 66.3525 55.2214 66.3525C54.7849 66.3525 54.6672 66.6173 54.6377 67.0588ZM54.6312 67.5003C54.6492 68.0955 54.8617 68.2606 55.3441 68.2606C55.5566 68.2606 55.8853 68.2181 56.1093 68.1952C56.2157 68.1834 56.2516 68.1834 56.2695 68.295L56.304 68.4896C56.322 68.5779 56.3105 68.6253 56.2043 68.6727C55.9737 68.761 55.5453 68.8199 55.2559 68.8199C54.131 68.8199 53.9658 68.1021 53.9658 67.3352C53.9658 66.7646 54.0722 65.8228 55.2216 65.8228C56.2746 65.8228 56.4626 66.5062 56.4806 67.1406C56.4871 67.3532 56.4283 67.5004 56.1928 67.5004H54.6313L54.6312 67.5003Z" fill="#181B5E"/>
<path d="M58.5642 67.453H57.8465C57.5521 67.453 57.3624 67.5594 57.3624 67.9485C57.3624 68.2068 57.4507 68.2902 57.7287 68.2902C57.9821 68.2902 58.3402 68.1414 58.5642 68.0122V67.453ZM58.6002 68.4308C58.3059 68.6548 57.9102 68.8135 57.5162 68.8135C56.8916 68.8135 56.71 68.4717 56.71 67.9779C56.7035 67.2879 57.0747 66.9936 57.817 66.9936H58.5708V66.8415C58.5708 66.4884 58.44 66.364 57.9576 66.364C57.7631 66.364 57.3919 66.3935 57.1564 66.4164C57.0387 66.4345 57.0093 66.4282 56.9929 66.3461L56.939 66.1287C56.9272 66.0518 56.9456 66.0044 57.0747 65.9521C57.3282 65.8638 57.7926 65.823 58.0705 65.823C59.0892 65.823 59.2118 66.24 59.2118 66.9005V68.0369C59.2118 68.2772 59.2412 68.2838 59.4244 68.3066C59.5127 68.3132 59.5356 68.3311 59.5356 68.3949V68.6435C59.5356 68.7073 59.4947 68.7481 59.3949 68.766C59.3001 68.7841 59.2069 68.7955 59.1186 68.7955C58.8406 68.7955 58.6706 68.7138 58.6117 68.4374L58.6 68.4309L58.6002 68.4308Z" fill="#181B5E"/>
<path d="M62.1012 68.7663H61.6777C61.6008 68.7663 61.5649 68.7303 61.5649 68.6551L61.5714 67.0004C61.5714 66.6521 61.4897 66.4232 61.1479 66.4232C60.9125 66.4232 60.5004 66.6113 60.3402 66.6881V68.6551C60.3402 68.7255 60.3107 68.7663 60.229 68.7663H59.8104C59.7286 68.7663 59.6992 68.7303 59.6992 68.6551V65.9981C59.6992 65.9229 59.7286 65.8819 59.8104 65.8819H60.229C60.3107 65.8819 60.3402 65.9228 60.3402 65.9981V66.1763C60.3467 66.1763 60.3533 66.1816 60.3582 66.1816C60.5757 66.0295 60.9877 65.8284 61.3474 65.8284C62.1421 65.8284 62.214 66.3533 62.214 66.9468V68.6554C62.214 68.7258 62.1894 68.7666 62.1011 68.7666" fill="#181B5E"/>
<path d="M42.0825 71.0287C42.3703 71.0287 42.8478 71.0695 43.1601 71.1987C43.2549 71.2412 43.2892 71.2886 43.2712 71.3818L43.2189 71.6238C43.2009 71.6942 43.1716 71.7236 43.0652 71.7121C42.7775 71.6761 42.4243 71.6353 42.1185 71.6353C41.3173 71.6353 41.1996 72.2828 41.1996 73.048C41.1996 73.8198 41.3467 74.4264 42.1185 74.4264C42.4586 74.4264 42.748 74.3905 43.0652 74.3495C43.1781 74.3377 43.2009 74.3676 43.2255 74.4444L43.2712 74.6683C43.2957 74.7616 43.266 74.8155 43.1714 74.8563C42.8837 74.9789 42.3703 75.0329 42.0825 75.0329C40.7695 75.0329 40.4932 74.0617 40.4932 73.0594C40.4932 72.0538 40.7401 71.0287 42.0825 71.0287" fill="#181B5E"/>
<path d="M44.6073 72.6008C44.107 72.6008 43.9942 72.9196 43.9942 73.5311C43.9942 74.1557 44.1071 74.4615 44.6008 74.4615C45.1371 74.4615 45.2434 74.1606 45.2434 73.5311C45.2434 72.9065 45.1436 72.6008 44.6073 72.6008ZM44.6008 75.0273C43.4186 75.0273 43.3418 74.1606 43.3418 73.4902C43.3418 72.9359 43.4644 72.035 44.6008 72.035C45.7437 72.035 45.9023 72.7953 45.9023 73.4902C45.9023 74.1606 45.8206 75.0273 44.6008 75.0273Z" fill="#181B5E"/>
<path d="M50.3537 74.9797H49.9302C49.8469 74.9797 49.8173 74.9437 49.8173 74.8685V73.1958C49.8173 72.7592 49.7127 72.6366 49.4167 72.6366C49.1992 72.6366 48.8461 72.8067 48.6646 72.9015C48.6646 72.9604 48.6698 73.0666 48.6698 73.2007V74.8685C48.6698 74.9389 48.6469 74.9797 48.5586 74.9797H48.1286C48.0518 74.9797 48.0288 74.9437 48.0288 74.8685V73.1663C48.0288 72.8066 47.934 72.6366 47.6396 72.6366C47.4336 72.6366 47.1033 72.7838 46.8793 72.9015V74.8685C46.8793 74.9389 46.8499 74.9797 46.7681 74.9797H46.3446C46.2677 74.9797 46.2383 74.9437 46.2383 74.8685V72.2115C46.2383 72.1363 46.2677 72.0953 46.3446 72.0953H46.7616C46.8499 72.0953 46.8793 72.1411 46.8793 72.2115V72.3831L46.8858 72.3897C47.1148 72.2294 47.4385 72.0529 47.7639 72.0414C48.104 72.0414 48.3869 72.1118 48.57 72.4535C48.8643 72.236 49.2289 72.0414 49.6066 72.0414C50.3833 72.0414 50.4602 72.5483 50.4602 73.1369V74.8685C50.4602 74.9389 50.4356 74.9797 50.3538 74.9797" fill="#181B5E"/>
<path d="M54.9679 74.9797H54.5444C54.4611 74.9797 54.4315 74.9437 54.4315 74.8685V73.1958C54.4315 72.7592 54.3269 72.6366 54.0309 72.6366C53.8135 72.6366 53.4603 72.8067 53.2788 72.9015C53.2788 72.9604 53.284 73.0666 53.284 73.2007V74.8685C53.284 74.9389 53.2611 74.9797 53.1728 74.9797H52.7428C52.666 74.9797 52.643 74.9437 52.643 74.8685V73.1663C52.643 72.8066 52.5482 72.6366 52.2539 72.6366C52.0478 72.6366 51.7176 72.7838 51.4936 72.9015V74.8685C51.4936 74.9389 51.4641 74.9797 51.3823 74.9797H50.9589C50.882 74.9797 50.8525 74.9437 50.8525 74.8685V72.2115C50.8525 72.1363 50.882 72.0953 50.9589 72.0953H51.3758C51.4641 72.0953 51.4936 72.1411 51.4936 72.2115V72.3831L51.5001 72.3897C51.729 72.2294 52.0527 72.0529 52.3781 72.0414C52.7182 72.0414 53.0011 72.1118 53.1842 72.4535C53.4785 72.236 53.8432 72.0414 54.2209 72.0414C54.9975 72.0414 55.0744 72.5483 55.0744 73.1369V74.8685C55.0744 74.9389 55.0498 74.9797 54.968 74.9797" fill="#181B5E"/>
<path d="M56.198 74.8678C56.198 74.9317 56.1751 74.979 56.0916 74.979H55.6731C55.5913 74.979 55.5553 74.9446 55.5553 74.8678V72.2059C55.5553 72.1241 55.5913 72.0947 55.6731 72.0947H56.0916C56.1751 72.0947 56.198 72.142 56.198 72.2059V74.8678ZM55.8857 71.6712C55.5799 71.6712 55.5391 71.4995 55.5391 71.3295C55.5391 71.1414 55.6029 70.9926 55.8857 70.9926C56.1751 70.9926 56.234 71.1284 56.234 71.3295C56.234 71.511 56.1801 71.6712 55.8857 71.6712Z" fill="#181B5E"/>
<path d="M57.6572 75.0269C57.3629 75.0269 56.9688 74.9861 56.7448 74.8978C56.6271 74.8504 56.6025 74.7964 56.6205 74.7032L56.6614 74.5087C56.6794 74.4138 56.7202 74.409 56.8151 74.4204C57.0734 74.4612 57.4511 74.4908 57.6506 74.4908C58.0283 74.4908 58.182 74.3909 58.182 74.1555C58.182 73.8841 58.0806 73.8253 57.7094 73.7729C57.1323 73.6895 56.627 73.5669 56.627 72.9243C56.627 72.3423 57.0734 72.0365 57.734 72.0365C57.9743 72.0365 58.3814 72.0709 58.6283 72.1656C58.7281 72.2064 58.7706 72.2539 58.7526 72.3422L58.7053 72.5531C58.6872 72.6366 58.6529 72.6479 58.5467 72.6365C58.2932 72.6071 57.963 72.5711 57.7455 72.5711C57.3694 72.5711 57.2811 72.6774 57.2811 72.9014C57.2811 73.1303 57.4217 73.1598 57.7815 73.2186C58.3407 73.302 58.8459 73.4132 58.8459 74.1147C58.8459 74.803 58.2638 75.027 57.6572 75.027" fill="#181B5E"/>
<path d="M60.124 75.0269C59.8297 75.0269 59.4356 74.9861 59.2116 74.8978C59.0939 74.8504 59.0693 74.7964 59.0873 74.7032L59.1282 74.5087C59.1462 74.4138 59.187 74.409 59.2819 74.4204C59.5402 74.4612 59.9179 74.4908 60.1174 74.4908C60.4951 74.4908 60.6488 74.3909 60.6488 74.1555C60.6488 73.8841 60.5474 73.8253 60.1762 73.7729C59.5991 73.6895 59.0938 73.5669 59.0938 72.9243C59.0938 72.3423 59.5402 72.0365 60.2008 72.0365C60.4411 72.0365 60.8482 72.0709 61.0951 72.1656C61.1949 72.2064 61.2374 72.2539 61.2194 72.3422L61.1721 72.5531C61.1541 72.6366 61.1197 72.6479 61.0135 72.6365C60.76 72.6071 60.4298 72.5711 60.2123 72.5711C59.8362 72.5711 59.7479 72.6774 59.7479 72.9014C59.7479 73.1303 59.8885 73.1598 60.2483 73.2186C60.8075 73.302 61.3127 73.4132 61.3127 74.1147C61.3127 74.803 60.7306 75.027 60.124 75.027" fill="#181B5E"/>
<path d="M62.3484 74.8678C62.3484 74.9317 62.3255 74.979 62.2421 74.979H61.8235C61.7417 74.979 61.7057 74.9446 61.7057 74.8678V72.2059C61.7057 72.1241 61.7417 72.0947 61.8235 72.0947H62.2421C62.3255 72.0947 62.3484 72.142 62.3484 72.2059V74.8678ZM62.0361 71.6712C61.7303 71.6712 61.6895 71.4995 61.6895 71.3295C61.6895 71.1414 61.7533 70.9926 62.0361 70.9926C62.3255 70.9926 62.3844 71.1284 62.3844 71.3295C62.3844 71.511 62.3305 71.6712 62.0361 71.6712Z" fill="#181B5E"/>
<path d="M64.0497 72.6008C63.5494 72.6008 63.4382 72.9196 63.4382 73.5311C63.4382 74.1557 63.5494 74.4615 64.0432 74.4615C64.5795 74.4615 64.6858 74.1606 64.6858 73.5311C64.6858 72.9065 64.586 72.6008 64.0497 72.6008ZM64.0432 75.0273C62.861 75.0273 62.7842 74.1606 62.7842 73.4902C62.7842 72.9359 62.9067 72.035 64.0432 72.035C65.1861 72.035 65.3447 72.7953 65.3447 73.4902C65.3447 74.1606 65.263 75.0273 64.0432 75.0273Z" fill="#181B5E"/>
<path d="M68.0651 74.9797H67.6416C67.5647 74.9797 67.5287 74.9437 67.5287 74.8685L67.5352 73.2138C67.5352 72.8655 67.4535 72.6366 67.1117 72.6366C66.8763 72.6366 66.4643 72.8247 66.304 72.9015V74.8685C66.304 74.9389 66.2746 74.9797 66.1929 74.9797H65.7743C65.6925 74.9797 65.6631 74.9437 65.6631 74.8685V72.2115C65.6631 72.1363 65.6925 72.0953 65.7743 72.0953H66.1929C66.2746 72.0953 66.304 72.1361 66.304 72.2115V72.3897C66.3106 72.3897 66.3158 72.395 66.3221 72.395C66.5395 72.2429 66.9532 72.0417 67.3113 72.0417C68.106 72.0417 68.1779 72.5667 68.1779 73.1602V74.8688C68.1779 74.9392 68.1534 74.98 68.065 74.98" fill="#181B5E"/>
</g>
<path d="M129.035 46V35.44H136.443V36.64H130.315V40.048H135.083V41.248H130.315V44.8H136.683V46H129.035ZM141.659 46.16C141.147 46.16 140.662 46.064 140.203 45.872C139.755 45.68 139.387 45.3707 139.099 44.944C138.822 44.5067 138.683 43.9413 138.683 43.248V38H139.963V42.912C139.963 43.7227 140.139 44.2827 140.491 44.592C140.843 44.8907 141.339 45.04 141.979 45.04C142.278 45.04 142.571 44.992 142.859 44.896C143.147 44.7893 143.403 44.6293 143.627 44.416C143.862 44.192 144.043 43.9093 144.171 43.568C144.31 43.2267 144.379 42.8213 144.379 42.352V38H145.659V46H144.539L144.459 44.784C144.182 45.264 143.803 45.616 143.323 45.84C142.854 46.0533 142.299 46.16 141.659 46.16ZM148.638 46V38H149.678L149.854 39.312C150.078 38.8213 150.404 38.4533 150.83 38.208C151.268 37.9627 151.796 37.84 152.414 37.84C152.553 37.84 152.702 37.8507 152.862 37.872C153.033 37.8933 153.177 37.936 153.294 38L153.07 39.168C152.953 39.1253 152.825 39.0933 152.686 39.072C152.548 39.0507 152.35 39.04 152.094 39.04C151.764 39.04 151.428 39.136 151.086 39.328C150.756 39.52 150.478 39.8133 150.254 40.208C150.03 40.592 149.918 41.0827 149.918 41.68V46H148.638ZM158.232 37.84C158.989 37.84 159.656 38.0053 160.232 38.336C160.818 38.6667 161.277 39.1467 161.608 39.776C161.938 40.3947 162.104 41.136 162.104 42C162.104 42.864 161.938 43.6107 161.608 44.24C161.277 44.8587 160.818 45.3333 160.232 45.664C159.656 45.9947 158.989 46.16 158.232 46.16C157.485 46.16 156.818 45.9947 156.232 45.664C155.645 45.3333 155.186 44.8587 154.856 44.24C154.525 43.6107 154.36 42.864 154.36 42C154.36 41.136 154.525 40.3947 154.856 39.776C155.186 39.1467 155.645 38.6667 156.232 38.336C156.818 38.0053 157.485 37.84 158.232 37.84ZM158.232 38.944C157.688 38.944 157.224 39.0667 156.84 39.312C156.456 39.5573 156.157 39.9093 155.944 40.368C155.741 40.816 155.64 41.36 155.64 42C155.64 42.6293 155.741 43.1733 155.944 43.632C156.157 44.0907 156.456 44.4427 156.84 44.688C157.224 44.9333 157.688 45.056 158.232 45.056C158.776 45.056 159.24 44.9333 159.624 44.688C160.008 44.4427 160.301 44.0907 160.504 43.632C160.717 43.1733 160.824 42.6293 160.824 42C160.824 41.36 160.717 40.816 160.504 40.368C160.301 39.9093 160.008 39.5573 159.624 39.312C159.24 39.0667 158.776 38.944 158.232 38.944ZM164.513 49.36V38H165.633L165.745 39.952L165.569 39.728C165.708 39.3547 165.916 39.0293 166.193 38.752C166.471 38.464 166.807 38.24 167.201 38.08C167.596 37.92 168.023 37.84 168.481 37.84C169.132 37.84 169.729 38.0053 170.273 38.336C170.828 38.6667 171.271 39.1413 171.601 39.76C171.932 40.3787 172.097 41.1253 172.097 42C172.097 42.864 171.927 43.6107 171.585 44.24C171.255 44.8587 170.812 45.3333 170.257 45.664C169.703 45.9947 169.095 46.16 168.433 46.16C167.772 46.16 167.191 46 166.689 45.68C166.199 45.3493 165.847 44.9333 165.633 44.432L165.793 44.192V49.36H164.513ZM168.305 45.04C169.095 45.04 169.708 44.7627 170.145 44.208C170.593 43.6533 170.817 42.9173 170.817 42C170.817 41.0827 170.599 40.3467 170.161 39.792C169.735 39.2373 169.132 38.96 168.353 38.96C167.841 38.96 167.393 39.088 167.009 39.344C166.625 39.5893 166.327 39.9413 166.113 40.4C165.9 40.848 165.793 41.3813 165.793 42C165.793 42.608 165.895 43.1413 166.097 43.6C166.311 44.0587 166.604 44.416 166.977 44.672C167.361 44.9173 167.804 45.04 168.305 45.04ZM177.889 46.16C177.131 46.16 176.454 45.9947 175.857 45.664C175.27 45.3333 174.811 44.8587 174.481 44.24C174.15 43.6107 173.985 42.864 173.985 42C173.985 41.136 174.15 40.3947 174.481 39.776C174.811 39.1467 175.265 38.6667 175.841 38.336C176.417 38.0053 177.073 37.84 177.809 37.84C178.555 37.84 179.19 38 179.713 38.32C180.246 38.64 180.651 39.0773 180.929 39.632C181.206 40.176 181.345 40.7893 181.345 41.472C181.345 41.6533 181.339 41.8187 181.329 41.968C181.318 42.1173 181.302 42.2507 181.281 42.368H174.817V41.232H180.721L180.065 41.36C180.065 40.592 179.851 40 179.425 39.584C179.009 39.168 178.459 38.96 177.777 38.96C177.254 38.96 176.801 39.0827 176.417 39.328C176.043 39.5627 175.75 39.9093 175.537 40.368C175.334 40.816 175.233 41.36 175.233 42C175.233 42.6293 175.339 43.1733 175.553 43.632C175.766 44.0907 176.065 44.4427 176.449 44.688C176.843 44.9227 177.313 45.04 177.857 45.04C178.443 45.04 178.918 44.928 179.281 44.704C179.654 44.48 179.953 44.176 180.177 43.792L181.185 44.384C180.982 44.7467 180.721 45.0613 180.401 45.328C180.091 45.5947 179.723 45.8027 179.297 45.952C178.881 46.0907 178.411 46.16 177.889 46.16ZM188.451 40.832C188.451 40.2347 188.291 39.776 187.971 39.456C187.651 39.1253 187.198 38.96 186.611 38.96C186.056 38.96 185.587 39.0827 185.203 39.328C184.819 39.5627 184.536 39.9467 184.355 40.48L183.315 39.84C183.528 39.2427 183.923 38.7627 184.499 38.4C185.075 38.0267 185.79 37.84 186.643 37.84C187.219 37.84 187.742 37.9413 188.211 38.144C188.68 38.336 189.048 38.6347 189.315 39.04C189.592 39.4347 189.731 39.9467 189.731 40.576V44.448C189.731 44.832 189.934 45.024 190.339 45.024C190.542 45.024 190.739 44.9973 190.931 44.944L190.867 45.952C190.654 46.0587 190.376 46.112 190.035 46.112C189.726 46.112 189.448 46.0533 189.203 45.936C188.958 45.8187 188.766 45.6427 188.627 45.408C188.488 45.1627 188.419 44.8587 188.419 44.496V44.336L188.739 44.384C188.611 44.8 188.392 45.1413 188.083 45.408C187.774 45.664 187.427 45.856 187.043 45.984C186.659 46.1013 186.28 46.16 185.907 46.16C185.438 46.16 185 46.08 184.595 45.92C184.19 45.76 183.864 45.52 183.619 45.2C183.384 44.8693 183.267 44.464 183.267 43.984C183.267 43.3867 183.464 42.896 183.859 42.512C184.264 42.1173 184.824 41.8507 185.539 41.712L188.707 41.088V42.144L186.131 42.672C185.608 42.7787 185.219 42.928 184.963 43.12C184.707 43.312 184.579 43.5787 184.579 43.92C184.579 44.2507 184.707 44.5227 184.963 44.736C185.23 44.9387 185.603 45.04 186.083 45.04C186.392 45.04 186.686 45.0027 186.963 44.928C187.251 44.8427 187.507 44.72 187.731 44.56C187.955 44.3893 188.131 44.1813 188.259 43.936C188.387 43.68 188.451 43.3813 188.451 43.04V40.832ZM192.842 46V38H193.962L194.074 39.792L193.866 39.616C194.036 39.1893 194.266 38.848 194.554 38.592C194.842 38.3253 195.172 38.1333 195.546 38.016C195.93 37.8987 196.324 37.84 196.73 37.84C197.306 37.84 197.828 37.952 198.298 38.176C198.767 38.3893 199.14 38.72 199.418 39.168C199.706 39.616 199.85 40.1867 199.85 40.88V46H198.57V41.328C198.57 40.4427 198.378 39.8293 197.994 39.488C197.62 39.136 197.156 38.96 196.602 38.96C196.218 38.96 195.834 39.0507 195.45 39.232C195.066 39.4133 194.746 39.7067 194.49 40.112C194.244 40.5173 194.122 41.0613 194.122 41.744V46H192.842ZM137.547 62.296C137.323 62.8933 137.003 63.4107 136.587 63.848C136.171 64.2747 135.68 64.6 135.115 64.824C134.56 65.048 133.952 65.16 133.291 65.16C132.288 65.16 131.419 64.9413 130.683 64.504C129.957 64.056 129.392 63.4267 128.987 62.616C128.592 61.8053 128.395 60.84 128.395 59.72C128.395 58.6 128.592 57.6347 128.987 56.824C129.392 56.0133 129.957 55.3893 130.683 54.952C131.419 54.504 132.277 54.28 133.259 54.28C133.941 54.28 134.549 54.376 135.083 54.568C135.616 54.7493 136.069 55.0267 136.443 55.4C136.827 55.7627 137.131 56.2107 137.355 56.744L136.091 57.336C135.856 56.728 135.515 56.2693 135.067 55.96C134.629 55.64 134.059 55.48 133.355 55.48C132.64 55.48 132.011 55.6507 131.467 55.992C130.923 56.3227 130.496 56.8027 130.187 57.432C129.888 58.0613 129.739 58.824 129.739 59.72C129.739 60.6053 129.883 61.368 130.171 62.008C130.459 62.6373 130.869 63.1227 131.403 63.464C131.936 63.7947 132.565 63.96 133.291 63.96C133.995 63.96 134.608 63.784 135.131 63.432C135.653 63.0693 136.032 62.5307 136.267 61.816L137.547 62.296ZM143.075 56.84C143.833 56.84 144.499 57.0053 145.075 57.336C145.662 57.6667 146.121 58.1467 146.451 58.776C146.782 59.3947 146.947 60.136 146.947 61C146.947 61.864 146.782 62.6107 146.451 63.24C146.121 63.8587 145.662 64.3333 145.075 64.664C144.499 64.9947 143.833 65.16 143.075 65.16C142.329 65.16 141.662 64.9947 141.075 64.664C140.489 64.3333 140.03 63.8587 139.699 63.24C139.369 62.6107 139.203 61.864 139.203 61C139.203 60.136 139.369 59.3947 139.699 58.776C140.03 58.1467 140.489 57.6667 141.075 57.336C141.662 57.0053 142.329 56.84 143.075 56.84ZM143.075 57.944C142.531 57.944 142.067 58.0667 141.683 58.312C141.299 58.5573 141.001 58.9093 140.787 59.368C140.585 59.816 140.483 60.36 140.483 61C140.483 61.6293 140.585 62.1733 140.787 62.632C141.001 63.0907 141.299 63.4427 141.683 63.688C142.067 63.9333 142.531 64.056 143.075 64.056C143.619 64.056 144.083 63.9333 144.467 63.688C144.851 63.4427 145.145 63.0907 145.347 62.632C145.561 62.1733 145.667 61.6293 145.667 61C145.667 60.36 145.561 59.816 145.347 59.368C145.145 58.9093 144.851 58.5573 144.467 58.312C144.083 58.0667 143.619 57.944 143.075 57.944ZM149.357 65V57H150.477L150.557 58.248C150.845 57.7573 151.218 57.4 151.677 57.176C152.146 56.952 152.626 56.84 153.117 56.84C153.682 56.84 154.216 56.968 154.717 57.224C155.218 57.48 155.602 57.8747 155.869 58.408C156.04 58.0453 156.28 57.752 156.589 57.528C156.898 57.2933 157.234 57.1227 157.597 57.016C157.97 56.8987 158.322 56.84 158.653 56.84C159.165 56.84 159.65 56.9467 160.109 57.16C160.578 57.3733 160.962 57.704 161.261 58.152C161.56 58.6 161.709 59.176 161.709 59.88V65H160.429V60.008C160.429 59.2827 160.248 58.76 159.885 58.44C159.522 58.12 159.074 57.96 158.541 57.96C158.125 57.96 157.736 58.0613 157.373 58.264C157.01 58.4667 156.717 58.7653 156.493 59.16C156.28 59.5547 156.173 60.04 156.173 60.616V65H154.893V60.008C154.893 59.2827 154.712 58.76 154.349 58.44C153.986 58.12 153.538 57.96 153.005 57.96C152.653 57.96 152.29 58.056 151.917 58.248C151.554 58.4293 151.25 58.7227 151.005 59.128C150.76 59.5333 150.637 60.0667 150.637 60.728V65H149.357ZM164.607 65V57H165.727L165.807 58.248C166.095 57.7573 166.468 57.4 166.927 57.176C167.396 56.952 167.876 56.84 168.367 56.84C168.932 56.84 169.466 56.968 169.967 57.224C170.468 57.48 170.852 57.8747 171.119 58.408C171.29 58.0453 171.53 57.752 171.839 57.528C172.148 57.2933 172.484 57.1227 172.847 57.016C173.22 56.8987 173.572 56.84 173.903 56.84C174.415 56.84 174.9 56.9467 175.359 57.16C175.828 57.3733 176.212 57.704 176.511 58.152C176.81 58.6 176.959 59.176 176.959 59.88V65H175.679V60.008C175.679 59.2827 175.498 58.76 175.135 58.44C174.772 58.12 174.324 57.96 173.791 57.96C173.375 57.96 172.986 58.0613 172.623 58.264C172.26 58.4667 171.967 58.7653 171.743 59.16C171.53 59.5547 171.423 60.04 171.423 60.616V65H170.143V60.008C170.143 59.2827 169.962 58.76 169.599 58.44C169.236 58.12 168.788 57.96 168.255 57.96C167.903 57.96 167.54 58.056 167.167 58.248C166.804 58.4293 166.5 58.7227 166.255 59.128C166.01 59.5333 165.887 60.0667 165.887 60.728V65H164.607ZM180.497 55.464C180.209 55.464 179.974 55.3787 179.793 55.208C179.622 55.0267 179.537 54.792 179.537 54.504C179.537 54.216 179.622 53.9867 179.793 53.816C179.974 53.6347 180.209 53.544 180.497 53.544C180.785 53.544 181.014 53.6347 181.185 53.816C181.366 53.9867 181.457 54.216 181.457 54.504C181.457 54.792 181.366 55.0267 181.185 55.208C181.014 55.3787 180.785 55.464 180.497 55.464ZM181.137 57V65H179.857V57H181.137ZM186.987 65.16C186.208 65.16 185.488 64.9947 184.827 64.664C184.176 64.3333 183.675 63.864 183.323 63.256L184.411 62.472C184.646 62.9627 184.987 63.3467 185.435 63.624C185.894 63.9013 186.443 64.04 187.083 64.04C187.648 64.04 188.091 63.9333 188.411 63.72C188.731 63.496 188.891 63.208 188.891 62.856C188.891 62.632 188.816 62.4293 188.667 62.248C188.528 62.056 188.256 61.9173 187.851 61.832L185.931 61.432C185.152 61.272 184.592 61.0053 184.251 60.632C183.92 60.2587 183.755 59.7947 183.755 59.24C183.755 58.8027 183.878 58.4027 184.123 58.04C184.379 57.6773 184.736 57.3893 185.195 57.176C185.664 56.952 186.214 56.84 186.843 56.84C187.632 56.84 188.299 56.9947 188.843 57.304C189.387 57.6133 189.792 58.0507 190.059 58.616L188.987 59.32C188.806 58.8507 188.512 58.5093 188.107 58.296C187.702 58.072 187.28 57.96 186.843 57.96C186.459 57.96 186.128 58.0133 185.851 58.12C185.584 58.2267 185.376 58.376 185.227 58.568C185.088 58.7493 185.019 58.9573 185.019 59.192C185.019 59.4267 185.099 59.6453 185.259 59.848C185.419 60.04 185.718 60.1787 186.155 60.264L188.155 60.68C188.902 60.8293 189.424 61.0747 189.723 61.416C190.022 61.7573 190.171 62.1733 190.171 62.664C190.171 63.1653 190.038 63.608 189.771 63.992C189.504 64.3653 189.131 64.6533 188.651 64.856C188.171 65.0587 187.616 65.16 186.987 65.16ZM195.425 65.16C194.646 65.16 193.926 64.9947 193.265 64.664C192.614 64.3333 192.113 63.864 191.761 63.256L192.849 62.472C193.083 62.9627 193.425 63.3467 193.873 63.624C194.331 63.9013 194.881 64.04 195.521 64.04C196.086 64.04 196.529 63.9333 196.849 63.72C197.169 63.496 197.329 63.208 197.329 62.856C197.329 62.632 197.254 62.4293 197.105 62.248C196.966 62.056 196.694 61.9173 196.289 61.832L194.369 61.432C193.59 61.272 193.03 61.0053 192.689 60.632C192.358 60.2587 192.193 59.7947 192.193 59.24C192.193 58.8027 192.315 58.4027 192.561 58.04C192.817 57.6773 193.174 57.3893 193.633 57.176C194.102 56.952 194.651 56.84 195.281 56.84C196.07 56.84 196.737 56.9947 197.281 57.304C197.825 57.6133 198.23 58.0507 198.497 58.616L197.425 59.32C197.243 58.8507 196.95 58.5093 196.545 58.296C196.139 58.072 195.718 57.96 195.281 57.96C194.897 57.96 194.566 58.0133 194.289 58.12C194.022 58.2267 193.814 58.376 193.665 58.568C193.526 58.7493 193.457 58.9573 193.457 59.192C193.457 59.4267 193.537 59.6453 193.697 59.848C193.857 60.04 194.155 60.1787 194.593 60.264L196.593 60.68C197.339 60.8293 197.862 61.0747 198.161 61.416C198.459 61.7573 198.609 62.1733 198.609 62.664C198.609 63.1653 198.475 63.608 198.209 63.992C197.942 64.3653 197.569 64.6533 197.089 64.856C196.609 65.0587 196.054 65.16 195.425 65.16ZM201.622 55.464C201.334 55.464 201.099 55.3787 200.918 55.208C200.747 55.0267 200.662 54.792 200.662 54.504C200.662 54.216 200.747 53.9867 200.918 53.816C201.099 53.6347 201.334 53.544 201.622 53.544C201.91 53.544 202.139 53.6347 202.31 53.816C202.491 53.9867 202.582 54.216 202.582 54.504C202.582 54.792 202.491 55.0267 202.31 55.208C202.139 55.3787 201.91 55.464 201.622 55.464ZM202.262 57V65H200.982V57H202.262ZM208.544 56.84C209.301 56.84 209.968 57.0053 210.544 57.336C211.131 57.6667 211.589 58.1467 211.92 58.776C212.251 59.3947 212.416 60.136 212.416 61C212.416 61.864 212.251 62.6107 211.92 63.24C211.589 63.8587 211.131 64.3333 210.544 64.664C209.968 64.9947 209.301 65.16 208.544 65.16C207.797 65.16 207.131 64.9947 206.544 64.664C205.957 64.3333 205.499 63.8587 205.168 63.24C204.837 62.6107 204.672 61.864 204.672 61C204.672 60.136 204.837 59.3947 205.168 58.776C205.499 58.1467 205.957 57.6667 206.544 57.336C207.131 57.0053 207.797 56.84 208.544 56.84ZM208.544 57.944C208 57.944 207.536 58.0667 207.152 58.312C206.768 58.5573 206.469 58.9093 206.256 59.368C206.053 59.816 205.952 60.36 205.952 61C205.952 61.6293 206.053 62.1733 206.256 62.632C206.469 63.0907 206.768 63.4427 207.152 63.688C207.536 63.9333 208 64.056 208.544 64.056C209.088 64.056 209.552 63.9333 209.936 63.688C210.32 63.4427 210.613 63.0907 210.816 62.632C211.029 62.1733 211.136 61.6293 211.136 61C211.136 60.36 211.029 59.816 210.816 59.368C210.613 58.9093 210.32 58.5573 209.936 58.312C209.552 58.0667 209.088 57.944 208.544 57.944ZM214.826 65V57H215.946L216.058 58.792L215.85 58.616C216.021 58.1893 216.25 57.848 216.538 57.592C216.826 57.3253 217.157 57.1333 217.53 57.016C217.914 56.8987 218.309 56.84 218.714 56.84C219.29 56.84 219.813 56.952 220.282 57.176C220.751 57.3893 221.125 57.72 221.402 58.168C221.69 58.616 221.834 59.1867 221.834 59.88V65H220.554V60.328C220.554 59.4427 220.362 58.8293 219.978 58.488C219.605 58.136 219.141 57.96 218.586 57.96C218.202 57.96 217.818 58.0507 217.434 58.232C217.05 58.4133 216.73 58.7067 216.474 59.112C216.229 59.5173 216.106 60.0613 216.106 60.744V65H214.826Z" fill="#181B5E"/>
<defs>
<clipPath id="clip0_2986_65963">
<rect width="86.6536" height="60" fill="white" transform="translate(20.6533 20)"/>
</clipPath>
</defs>
</svg>
