<svg width="40" height="40" viewBox="0 0 40 40" fill="none" xmlns="http://www.w3.org/2000/svg">
    <path d="M5.21777 34.7821V5.21777H34.783V34.7821H5.21777Z" stroke="#181B5E"/>
    <ellipse rx="3.6892" ry="3.6892" transform="matrix(0.707118 -0.707096 0.707118 0.707096 5.21739 5.2168)" fill="#181B5E"/>
    <ellipse rx="3.6892" ry="3.6892" transform="matrix(-0.707118 -0.707096 0.707118 -0.707096 5.21777 34.7828)" fill="#181B5E"/>
    <circle r="3.6892" transform="matrix(0.707118 -0.707096 0.707118 0.707096 34.7823 34.7812)" fill="#181B5E"/>
    <ellipse rx="3.6892" ry="3.6892" transform="matrix(-0.707118 -0.707096 0.707118 -0.707096 34.7827 5.21929)" fill="#181B5E"/>
    <path d="M16.4355 23.3666V22.5389C16.4355 21.8688 16.6604 21.3039 17.1102 20.8441C17.5728 20.3843 18.1253 20.1543 18.7678 20.1543H24.0492C24.2548 20.1543 24.4283 20.0821 24.5696 19.9376C24.7238 19.7799 24.8009 19.596 24.8009 19.3858V15.5626C24.8009 15.3524 24.7238 15.1751 24.5696 15.0305C24.4283 14.8729 24.2548 14.7941 24.0492 14.7941H14.084V13.1387L24.0492 13.1584C24.6917 13.1584 25.2378 13.3949 25.6876 13.8678C26.1502 14.3277 26.3815 14.8926 26.3815 15.5626V19.3858C26.3815 20.0427 26.1502 20.6076 25.6876 21.0806C25.2378 21.5404 24.6917 21.7703 24.0492 21.7703H18.7678C18.5622 21.7703 18.3823 21.8491 18.2281 22.0068C18.0868 22.1513 18.0161 22.3287 18.0161 22.5389V23.3666H16.4355ZM16.4355 27.3277V25.7117H18.0161V27.3277H16.4355Z" fill="#181B5E"/>
</svg>
