<svg width="249" height="100" viewBox="0 0 249 100" fill="none" xmlns="http://www.w3.org/2000/svg">
<rect width="249" height="100" rx="12" fill="#F9F9F9"/>
<g clip-path="url(#clip0_2967_31658)">
<path d="M157.933 38.014C159.506 38.014 160.965 37.9663 162.416 38.0519C162.731 38.0698 163.149 38.5178 163.294 38.8602C165.608 44.3296 167.884 49.8168 170.171 55.2981C170.331 55.6824 170.502 56.0607 170.767 56.6719C171.04 56.0766 171.221 55.7082 171.378 55.3319C173.664 49.8507 175.955 44.3714 178.215 38.8781C178.476 38.245 178.779 37.9603 179.505 37.9921C180.891 38.0559 182.285 38.0101 183.754 38.0101V62.0855H180.148V44.4251L179.959 44.3913C179.812 44.7059 179.653 45.0165 179.517 45.337C177.281 50.6252 175.034 55.9093 172.835 61.2134C172.539 61.9302 172.212 62.2786 171.4 62.183C170.715 62.1034 170.014 62.1671 169.283 62.1671C166.797 56.1642 164.324 50.1951 161.849 44.226L161.642 44.244V62.0974H157.931V38.014H157.933Z" fill="#181B5E"/>
<path d="M108.834 37.809C113.031 38.0559 117.274 37.2395 121.352 38.7189C126.369 40.5387 129.343 44.9368 129.226 50.2548C129.081 56.7953 124.336 61.6972 117.764 61.964C114.821 62.0835 111.868 61.9839 108.836 61.9839V37.809H108.834ZM112.354 41.4943V58.653C113.909 58.653 115.392 58.6709 116.876 58.643C117.401 58.633 117.929 58.5415 118.447 58.4419C122.144 57.7331 125.025 54.5992 125.262 51.0493C125.541 46.8601 123.4 43.34 119.84 42.0837C117.399 41.2216 114.889 41.5899 112.354 41.4943Z" fill="#181B5E"/>
<path d="M42.0847 25.0783C41.579 26.038 41.1868 26.7965 40.7846 27.5491C36.9578 34.7128 33.141 41.8805 29.2804 49.0263C28.8862 49.757 28.9101 50.2886 29.2964 51.0073C33.3839 58.5931 37.4337 66.1988 41.4934 73.7986C41.6606 74.1131 41.8139 74.4357 42.0528 74.9115C40.5715 74.9115 39.2316 74.9354 37.8936 74.8857C37.6865 74.8777 37.4277 74.5611 37.3023 74.3282C33.0574 66.4159 28.8205 58.4976 24.6155 50.5634C24.4522 50.2567 24.4662 49.7112 24.6314 49.4006C28.8245 41.4982 33.0415 33.6078 37.2903 25.7333C37.4596 25.4188 37.9673 25.132 38.3356 25.1082C39.5183 25.0285 40.7109 25.0783 42.0847 25.0783Z" fill="#181B5E"/>
<path d="M65.8379 25.0843C67.2973 25.0843 68.5855 25.0545 69.8717 25.1102C70.1186 25.1202 70.4431 25.4129 70.5765 25.6578C74.8433 33.5979 79.0941 41.5441 83.3191 49.5062C83.4664 49.783 83.4365 50.2787 83.2852 50.5634C79.0742 58.4937 74.8393 66.414 70.5865 74.3223C70.4451 74.5871 70.0748 74.8818 69.798 74.8937C68.5457 74.9554 67.2893 74.9196 65.8538 74.9196C66.0748 74.4577 66.2242 74.1152 66.3994 73.7867C70.477 66.1591 74.5506 58.5275 78.6541 50.9119C79.0025 50.2628 79.0224 49.775 78.664 49.11C74.5586 41.4963 70.4889 33.8647 66.4113 26.2352C66.2421 25.9206 66.0927 25.594 65.8399 25.0804L65.8379 25.0843Z" fill="#181B5E"/>
<path d="M224.5 62.0855C224.341 62.1273 224.309 62.1432 224.277 62.1432C223.118 62.1432 221.707 62.5474 220.876 62.0278C220.072 61.524 219.827 60.0865 219.403 59.0333C218.381 56.4887 218.397 56.4828 215.688 56.4828C213.038 56.4828 210.39 56.5186 207.741 56.4629C206.857 56.4449 206.366 56.648 206.081 57.5599C205.659 58.9098 205.05 60.2 204.554 61.526C204.381 61.986 204.15 62.201 203.624 62.1791C202.635 62.1353 201.641 62.1671 200.544 62.1671C200.673 61.7849 200.761 61.4763 200.88 61.1816C203.905 53.765 206.943 46.3525 209.942 38.924C210.22 38.2331 210.547 37.9444 211.303 37.9981C212.422 38.0778 213.808 37.6656 214.597 38.1873C215.381 38.7049 215.594 40.1106 216.016 41.144C218.734 47.7979 221.44 54.4539 224.147 61.1119C224.269 61.4105 224.369 61.7172 224.504 62.0875L224.5 62.0855ZM212.518 41.8766L212.277 41.8488C210.786 45.5859 209.294 49.3231 207.765 53.1558H217.018C215.487 49.3171 214.003 45.5959 212.518 41.8766Z" fill="#181B5E"/>
<path d="M151.208 38.0698V41.3311H139.426C139.426 43.4874 139.404 45.558 139.463 47.6267C139.469 47.8019 140.009 48.1025 140.306 48.1065C143.155 48.1424 146.006 48.1284 148.855 48.1284C149.215 48.1284 149.578 48.1284 150.028 48.1284V51.4674H139.412C139.412 52.1085 139.412 52.656 139.412 53.2035C139.412 54.7227 139.455 56.2458 139.396 57.763C139.362 58.6151 139.684 58.8182 140.485 58.8083C143.633 58.7704 146.782 58.7923 149.93 58.7923C150.324 58.7923 150.719 58.7923 151.187 58.7923V62.1173H135.69V38.0698H151.208Z" fill="#181B5E"/>
<path d="M51.1677 25.0784C50.5366 28.2521 49.9413 31.2605 49.336 34.267C48.3226 39.3122 47.1996 44.3415 46.3534 49.4146C46.1225 50.8004 46.6581 52.3355 46.9448 53.7829C48.2748 60.5166 49.6406 67.2422 50.9905 73.9699C51.0423 74.2267 51.0562 74.4915 51.106 74.9116C49.8596 74.9116 48.6491 74.9475 47.4465 74.8738C47.2514 74.8619 46.9866 74.3781 46.9249 74.0774C45.8915 69.0003 44.888 63.9192 43.8746 58.8381C43.345 56.1841 42.6701 53.55 42.3376 50.8721C42.1663 49.4883 42.5028 48.009 42.7756 46.6053C44.1175 39.7403 45.5252 32.8892 46.8771 26.0261C47.0165 25.3193 47.2633 25.0067 48.0279 25.0585C49.0115 25.1242 50.005 25.0744 51.1637 25.0744L51.1677 25.0784Z" fill="#181B5E"/>
<path d="M56.7325 74.9256C57.1486 72.8171 57.5249 70.8798 57.9152 68.9446C59.1357 62.868 60.4577 56.8093 61.5129 50.7048C61.7678 49.2295 61.2163 47.5889 60.9136 46.0478C59.5976 39.352 58.2337 32.6662 56.8938 25.9744C56.844 25.7255 56.854 25.4627 56.8261 25.0824C58.0386 25.0824 59.1914 25.0446 60.3362 25.1162C60.5573 25.1302 60.8798 25.5463 60.9355 25.8211C62.2237 32.1187 63.4801 38.4242 64.7424 44.7278C64.8658 45.341 64.9176 45.9841 65.1326 46.5635C66.2675 49.6118 65.2839 52.5525 64.7006 55.5052C63.4801 61.6833 62.2058 67.8495 60.9913 74.0277C60.8539 74.7265 60.5971 74.9714 59.8962 74.9356C58.9107 74.8838 57.9211 74.9216 56.7285 74.9216L56.7325 74.9256Z" fill="#181B5E"/>
<path d="M100.668 62.1193H97.1182V38.1036H100.668V62.1173V62.1193Z" fill="#181B5E"/>
<path d="M191.949 38.0439H195.394V62.1074H191.949V38.0439Z" fill="#181B5E"/>
</g>
<defs>
<clipPath id="clip0_2967_31658">
<rect width="200" height="49.887" fill="white" transform="translate(24.5 25.0565)"/>
</clipPath>
</defs>
</svg>
