<svg width="259" height="519" viewBox="0 0 259 519" fill="none" xmlns="http://www.w3.org/2000/svg">
    <path fill-rule="evenodd" clip-rule="evenodd" d="M40.1536 3.0498C22.516 3.0498 8.21785 17.3667 8.21785 35.0277V71.1524H7.6652C6.43056 71.1524 5.42969 72.1545 5.42969 73.3908V89.6493C5.42969 90.8855 6.43056 91.8877 7.6652 91.8877H8.21785V109.879H7.6652C6.43056 109.879 5.42969 110.881 5.42969 112.118V144.843C5.42969 146.079 6.43056 147.081 7.6652 147.081H8.21785V157.144H7.6652C6.43056 157.144 5.42969 158.146 5.42969 159.382V192.108C5.42969 193.344 6.43056 194.346 7.6652 194.346H8.21785V483.972C8.21785 501.633 22.5161 515.95 40.1539 515.95H224.63C242.267 515.95 256.566 501.633 256.566 483.972V35.0277C256.566 17.3668 242.267 3.0498 224.63 3.0498H40.1536ZM45.4067 11.8929C30.4148 11.8929 18.2613 24.0623 18.2613 39.0741V479.927C18.2613 494.937 30.4148 507.108 45.4067 507.108H219.377C234.369 507.108 246.522 494.937 246.522 479.927V39.0741C246.522 24.0623 234.369 11.8929 219.377 11.8929H195.364C195.382 12.0811 195.392 12.272 195.392 12.465V22.9016C195.392 29.7893 189.815 35.373 182.937 35.373H81.8468C74.9681 35.373 69.3918 29.7893 69.3918 22.9016V12.465C69.3918 12.272 69.4011 12.0811 69.4199 11.8929H45.4067Z" fill="url(#paint0_linear)"/>
    <path d="M8.21673 71.1522V71.9197H8.98319V71.1522H8.21673ZM8.21673 91.8876H8.98319V91.1202H8.21673V91.8876ZM8.21673 109.879V110.646H8.98319V109.879H8.21673ZM8.21673 147.081H8.98319V146.314H8.21673V147.081ZM8.21673 157.144V157.911H8.98319V157.144H8.21673ZM8.21673 194.346H8.98319V193.579H8.21673V194.346ZM195.363 11.8928V11.1253H194.517L194.6 11.9682L195.363 11.8928ZM69.4188 11.8928L70.1814 11.9682L70.2645 11.1253H69.4188V11.8928ZM8.98319 35.0275C8.98319 17.7905 22.9382 3.81716 40.1525 3.81716V2.28223C22.0916 2.28223 7.45027 16.9428 7.45027 35.0275H8.98319ZM8.98319 71.1522V35.0275H7.45027V71.1522H8.98319ZM7.66408 71.9197H8.21673V70.3848H7.66408V71.9197ZM6.19503 73.3907C6.19503 72.5781 6.85275 71.9197 7.66408 71.9197V70.3848C6.00613 70.3848 4.66211 71.7304 4.66211 73.3907H6.19503ZM6.19503 89.6492V73.3907H4.66211V89.6492H6.19503ZM7.66408 91.1202C6.85275 91.1202 6.19503 90.4617 6.19503 89.6492H4.66211C4.66211 91.3095 6.00613 92.6551 7.66408 92.6551V91.1202ZM8.21673 91.1202H7.66408V92.6551H8.21673V91.1202ZM8.98319 109.879V91.8876H7.45027V109.879H8.98319ZM7.66408 110.646H8.21673V109.112H7.66408V110.646ZM6.19503 112.117C6.19503 111.305 6.85275 110.646 7.66408 110.646V109.112C6.00613 109.112 4.66211 110.457 4.66211 112.117H6.19503ZM6.19503 144.843V112.117H4.66211V144.843H6.19503ZM7.66408 146.314C6.85275 146.314 6.19503 145.655 6.19503 144.843H4.66211C4.66211 146.503 6.00613 147.848 7.66408 147.848V146.314ZM8.21673 146.314H7.66408V147.848H8.21673V146.314ZM8.98319 157.144V147.081H7.45027V157.144H8.98319ZM7.66408 157.911H8.21673V156.376H7.66408V157.911ZM6.19503 159.382C6.19503 158.57 6.85275 157.911 7.66408 157.911V156.376C6.00613 156.376 4.66211 157.722 4.66211 159.382H6.19503ZM6.19503 192.108V159.382H4.66211V192.108H6.19503ZM7.66408 193.579C6.85275 193.579 6.19503 192.92 6.19503 192.108H4.66211C4.66211 193.768 6.00613 195.114 7.66408 195.114V193.579ZM8.21673 193.579H7.66408V195.114H8.21673V193.579ZM8.98319 483.972V194.346H7.45027V483.972H8.98319ZM40.1528 515.182C22.9382 515.182 8.98319 501.211 8.98319 483.972H7.45027C7.45027 502.058 22.0916 516.717 40.1528 516.717V515.182ZM224.629 515.182H40.1528V516.717H224.629V515.182ZM255.798 483.972C255.798 501.211 241.843 515.182 224.629 515.182V516.717C242.69 516.717 257.331 502.058 257.331 483.972H255.798ZM255.798 35.0275V483.972H257.331V35.0275H255.798ZM224.629 3.81716C241.843 3.81716 255.798 17.7905 255.798 35.0275H257.331C257.331 16.9428 242.69 2.28223 224.629 2.28223V3.81716ZM40.1525 3.81716H224.629V2.28223H40.1525V3.81716ZM19.0267 39.074C19.0267 24.4861 30.837 12.6603 45.4056 12.6603V11.1253C29.9904 11.1253 17.4938 23.6384 17.4938 39.074H19.0267ZM19.0267 479.927V39.074H17.4938V479.927H19.0267ZM45.4056 506.34C30.8369 506.34 19.0267 494.515 19.0267 479.927H17.4938C17.4938 495.362 29.9903 507.875 45.4056 507.875V506.34ZM219.376 506.34H45.4056V507.875H219.376V506.34ZM245.755 479.927C245.755 494.515 233.944 506.34 219.376 506.34V507.875C234.791 507.875 247.288 495.362 247.288 479.927H245.755ZM245.755 39.074V479.927H247.288V39.074H245.755ZM219.376 12.6603C233.944 12.6603 245.755 24.4861 245.755 39.074H247.288C247.288 23.6384 234.791 11.1253 219.376 11.1253V12.6603ZM195.363 12.6603H219.376V11.1253H195.363V12.6603ZM196.157 12.4649C196.157 12.2466 196.146 12.0307 196.125 11.8175L194.6 11.9682C194.616 12.1314 194.624 12.2971 194.624 12.4649H196.157ZM196.157 22.9015V12.4649H194.624V22.9015H196.157ZM182.936 36.1404C190.238 36.1404 196.157 30.2131 196.157 22.9015H194.624C194.624 29.3654 189.391 34.6054 182.936 34.6054V36.1404ZM81.8457 36.1404H182.936V34.6054H81.8457V36.1404ZM68.6242 22.9015C68.6242 30.2131 74.5436 36.1404 81.8457 36.1404V34.6054C75.3902 34.6054 70.1572 29.3654 70.1572 22.9015H68.6242ZM68.6242 12.4649V22.9015H70.1572V12.4649H68.6242ZM68.6559 11.8175C68.6348 12.0306 68.6242 12.2466 68.6242 12.4649H70.1572C70.1572 12.2971 70.1655 12.1314 70.1814 11.9682L68.6559 11.8175ZM45.4056 12.6603H69.4188V11.1253H45.4056V12.6603Z" fill="black" fill-opacity="0.03"/>
    <g opacity="0.6">
        <g opacity="0.75">
            <g opacity="0.75" filter="url(#filter0_di)">
                <path opacity="0.75" fill-rule="evenodd" clip-rule="evenodd" d="M164.957 24.6993C166.974 24.6993 168.609 23.0611 168.609 21.0401C168.609 19.0192 166.974 17.3809 164.957 17.3809C162.94 17.3809 161.305 19.0192 161.305 21.0401C161.305 23.0611 162.94 24.6993 164.957 24.6993Z" fill="#9092A5"/>
            </g>
            <g opacity="0.75" filter="url(#filter1_di)">
                <path opacity="0.75" fill-rule="evenodd" clip-rule="evenodd" d="M164.956 23.7847C166.469 23.7847 167.695 22.556 167.695 21.0403C167.695 19.5246 166.469 18.2959 164.956 18.2959C163.443 18.2959 162.217 19.5246 162.217 21.0403C162.217 22.556 163.443 23.7847 164.956 23.7847Z" fill="#9092A5"/>
            </g>
        </g>
        <g opacity="0.6" filter="url(#filter2_di)">
            <path opacity="0.6" d="M144.564 19.5156H117.175C116.334 19.5156 115.652 20.1982 115.652 21.0403C115.652 21.8824 116.334 22.565 117.175 22.565H144.564C145.405 22.565 146.087 21.8824 146.087 21.0403C146.087 20.1982 145.405 19.5156 144.564 19.5156Z" fill="#9092A5"/>
        </g>
    </g>
    <defs>
        <filter id="filter0_di" x="158.305" y="14.3809" width="13.3044" height="13.3185" filterUnits="userSpaceOnUse" color-interpolation-filters="sRGB">
            <feFlood flood-opacity="0" result="BackgroundImageFix"/>
            <feColorMatrix in="SourceAlpha" type="matrix" values="0 0 0 0 0 0 0 0 0 0 0 0 0 0 0 0 0 0 127 0"/>
            <feOffset/>
            <feGaussianBlur stdDeviation="1.5"/>
            <feColorMatrix type="matrix" values="0 0 0 0 0.49062 0 0 0 0 0.49062 0 0 0 0 0.49062 0 0 0 0.25 0"/>
            <feBlend mode="normal" in2="BackgroundImageFix" result="effect1_dropShadow"/>
            <feBlend mode="normal" in="SourceGraphic" in2="effect1_dropShadow" result="shape"/>
            <feColorMatrix in="SourceAlpha" type="matrix" values="0 0 0 0 0 0 0 0 0 0 0 0 0 0 0 0 0 0 127 0" result="hardAlpha"/>
            <feOffset dx="2" dy="2"/>
            <feGaussianBlur stdDeviation="2"/>
            <feComposite in2="hardAlpha" operator="arithmetic" k2="-1" k3="1"/>
            <feColorMatrix type="matrix" values="0 0 0 0 0 0 0 0 0 0 0 0 0 0 0 0 0 0 0.344061 0"/>
            <feBlend mode="normal" in2="shape" result="effect2_innerShadow"/>
        </filter>
        <filter id="filter1_di" x="159.217" y="16.2959" width="11.4783" height="13.4888" filterUnits="userSpaceOnUse" color-interpolation-filters="sRGB">
            <feFlood flood-opacity="0" result="BackgroundImageFix"/>
            <feColorMatrix in="SourceAlpha" type="matrix" values="0 0 0 0 0 0 0 0 0 0 0 0 0 0 0 0 0 0 127 0"/>
            <feOffset dy="3"/>
            <feGaussianBlur stdDeviation="1.5"/>
            <feColorMatrix type="matrix" values="0 0 0 0 0.49062 0 0 0 0 0.49062 0 0 0 0 0.49062 0 0 0 0.428838 0"/>
            <feBlend mode="normal" in2="BackgroundImageFix" result="effect1_dropShadow"/>
            <feBlend mode="normal" in="SourceGraphic" in2="effect1_dropShadow" result="shape"/>
            <feColorMatrix in="SourceAlpha" type="matrix" values="0 0 0 0 0 0 0 0 0 0 0 0 0 0 0 0 0 0 127 0" result="hardAlpha"/>
            <feOffset dx="-2" dy="-2"/>
            <feGaussianBlur stdDeviation="2.5"/>
            <feComposite in2="hardAlpha" operator="arithmetic" k2="-1" k3="1"/>
            <feColorMatrix type="matrix" values="0 0 0 0 0 0 0 0 0 0 0 0 0 0 0 0 0 0 0.344061 0"/>
            <feBlend mode="normal" in2="shape" result="effect2_innerShadow"/>
        </filter>
        <filter id="filter2_di" x="112.652" y="16.5156" width="36.4347" height="9.04936" filterUnits="userSpaceOnUse" color-interpolation-filters="sRGB">
            <feFlood flood-opacity="0" result="BackgroundImageFix"/>
            <feColorMatrix in="SourceAlpha" type="matrix" values="0 0 0 0 0 0 0 0 0 0 0 0 0 0 0 0 0 0 127 0"/>
            <feOffset/>
            <feGaussianBlur stdDeviation="1.5"/>
            <feColorMatrix type="matrix" values="0 0 0 0 0.49062 0 0 0 0 0.49062 0 0 0 0 0.49062 0 0 0 0.25 0"/>
            <feBlend mode="normal" in2="BackgroundImageFix" result="effect1_dropShadow"/>
            <feBlend mode="normal" in="SourceGraphic" in2="effect1_dropShadow" result="shape"/>
            <feColorMatrix in="SourceAlpha" type="matrix" values="0 0 0 0 0 0 0 0 0 0 0 0 0 0 0 0 0 0 127 0" result="hardAlpha"/>
            <feOffset dx="2" dy="2"/>
            <feGaussianBlur stdDeviation="2"/>
            <feComposite in2="hardAlpha" operator="arithmetic" k2="-1" k3="1"/>
            <feColorMatrix type="matrix" values="0 0 0 0 0 0 0 0 0 0 0 0 0 0 0 0 0 0 0.344061 0"/>
            <feBlend mode="normal" in2="shape" result="effect2_innerShadow"/>
        </filter>
        <linearGradient id="paint0_linear" x1="33.7402" y1="-79.0088" x2="-240.255" y2="408.421" gradientUnits="userSpaceOnUse">
            <stop stop-color="#47474C"/>
            <stop offset="1" stop-color="#222225"/>
        </linearGradient>
    </defs>
</svg>
