<svg width="21" height="22" viewBox="0 0 21 22" fill="none" xmlns="http://www.w3.org/2000/svg">
    <path fill-rule="evenodd" clip-rule="evenodd" d="M10.5071 2.10028C12.6561 2.10028 14.4043 3.84834 14.4043 5.99734C14.4043 8.14617 12.6561 9.8944 10.5071 9.8944C8.35824 9.8944 6.61002 8.14617 6.61002 5.99734C6.61002 3.84834 8.35824 2.10028 10.5071 2.10028ZM10.5071 9.02279C12.1754 9.02279 13.5327 7.66546 13.5327 5.99729C13.5327 4.32896 12.1754 2.9718 10.5071 2.9718C8.83891 2.9718 7.48141 4.32896 7.48141 5.99729C7.48141 7.66546 8.83891 9.02279 10.5071 9.02279Z" fill="#181B5E"/>
    <path d="M15.9135 18.9077C16.9193 18.7139 17.7894 18.1398 18.3634 17.2916C18.9375 16.4433 19.1469 15.4222 18.953 14.4162C18.7607 13.4181 18.1939 12.5536 17.3561 11.9796C17.3499 11.9751 17.3433 11.9708 17.3369 11.9664C16.4887 11.3922 15.4676 11.1828 14.4618 11.3765C13.4558 11.5706 12.5857 12.1445 12.0116 12.9928C11.9509 13.0826 11.9283 13.1926 11.9489 13.299C11.9693 13.4046 12.0303 13.4978 12.1189 13.5585C12.1197 13.5588 12.1202 13.5593 12.1209 13.5598L14.9587 15.4801C15.1455 15.6065 15.3992 15.5576 15.5256 15.3709C15.6514 15.185 15.6035 14.9323 15.4183 14.8056C15.4178 14.8051 15.417 14.8046 15.4163 14.8041L12.9392 13.1275C13.3769 12.637 13.9597 12.3049 14.6163 12.1784C15.4079 12.0257 16.2116 12.1906 16.8793 12.6426C16.8845 12.6459 16.8895 12.6493 16.8946 12.6528C17.554 13.1046 17.9999 13.7853 18.1514 14.5709C18.304 15.3625 18.1392 16.1662 17.6872 16.834C17.2356 17.5018 16.5506 17.9533 15.759 18.106C14.9675 18.2587 14.1636 18.094 13.496 17.6422L7.91988 13.8686C7.73325 13.7423 7.47941 13.7912 7.35323 13.978C7.22738 14.164 7.27531 14.4167 7.4603 14.5433C7.46112 14.5438 7.46178 14.5445 7.46244 14.5447L13.0384 18.3182C13.6803 18.7526 14.4214 18.9782 15.1798 18.9782C15.4234 18.9782 15.6689 18.955 15.9135 18.9077Z" fill="#181B5E"/>
    <path d="M9.08748 17.3709C9.1481 17.2812 9.17083 17.1711 9.15008 17.0649C9.12982 16.9593 9.0687 16.8661 8.98008 16.8054C8.97959 16.805 8.97877 16.8046 8.97827 16.8041L6.14039 14.8836C5.95359 14.7573 5.69975 14.8062 5.57341 14.993C5.44756 15.179 5.49582 15.4316 5.68081 15.5583C5.6813 15.559 5.68213 15.5593 5.68262 15.5598L8.15992 17.236C7.16926 18.343 5.48347 18.5766 4.2197 17.7215C3.55026 17.2688 3.10023 16.5849 2.9477 15.793C2.795 15.0014 2.95989 14.1977 3.41173 13.5299C4.34456 12.1515 6.2249 11.7889 7.60331 12.7218L13.2497 16.5429C13.4364 16.6694 13.6902 16.6205 13.8166 16.4338C13.9424 16.2477 13.8943 15.9952 13.7093 15.8683C13.7087 15.8677 13.708 15.8673 13.7074 15.8668L8.06092 12.0457C6.30956 10.8605 3.92073 11.3211 2.73553 13.0725C2.16163 13.9208 1.9521 14.9418 2.14598 15.9477C2.33986 16.9535 2.91656 17.8246 3.76226 18.3975C4.41935 18.8423 5.16638 19.0553 5.90566 19.0553C7.13681 19.0553 8.34705 18.4649 9.08748 17.3709Z" fill="#181B5E"/>
    <path fill-rule="evenodd" clip-rule="evenodd" d="M5.58099 9.26679C4.91995 8.29672 4.56267 7.14118 4.56267 5.9372C4.56267 2.66346 7.2261 3.10128e-05 10.5002 3.10128e-05C13.7739 3.10128e-05 16.4375 2.66346 16.4375 5.9372C16.4375 7.18104 16.0804 8.36475 15.4549 9.27387C16.4634 9.37254 17.4873 9.73839 18.4345 10.3876C21.121 12.2287 21.8087 15.9123 19.9674 18.5986C18.1263 21.2851 14.4427 21.9728 11.7562 20.1315L10.3147 19.1435C8.47867 21.4523 5.22107 21.8518 2.56538 20.0315C-0.120953 18.1904 -0.808678 14.5068 1.03262 11.8205C2.10843 10.2505 3.8135 9.36562 5.58099 9.26679ZM6.61663 9.3231C6.87475 9.61878 7.13172 9.86093 7.4022 10.0634L7.57533 10.1929L6.88282 10.0713C5.16458 9.90854 2.87161 10.5811 1.70585 12.2819C0.119225 14.5971 0.71174 17.7713 3.02678 19.358C4.1764 20.1458 5.49864 20.487 6.75022 20.3185C8.02124 20.1475 9.13461 19.4499 9.88559 18.3543C10.0129 18.1687 10.2671 18.1211 10.4529 18.2486L12.2179 19.4581C14.5328 21.0448 17.7072 20.4522 19.294 18.1372C20.8806 15.822 20.2881 12.6477 17.9731 11.061C16.9814 10.3815 15.8615 10.0354 14.769 10.0607L14.7638 10.0657C14.7642 10.0653 14.7646 10.0649 14.765 10.0644C14.7662 10.0632 14.7675 10.0619 14.7689 10.0607C14.6776 10.0629 14.5865 10.0668 14.4957 10.0742C14.2656 10.0991 13.8668 10.1438 13.5542 10.1871H13.4067L13.4642 10.1452C14.5545 9.35358 15.6547 7.74553 15.6547 5.93719C15.6547 3.09486 13.3423 0.782619 10.5002 0.782619C7.65785 0.782619 5.34528 3.09486 5.34528 5.93719C5.34528 7.18168 5.79679 8.38417 6.61663 9.3231Z" fill="#181B5E"/>
    <mask id="mask0" mask-type="alpha" maskUnits="userSpaceOnUse" x="0" y="0" width="21" height="22">
        <path fill-rule="evenodd" clip-rule="evenodd" d="M5.58099 9.26679C4.91995 8.29672 4.56267 7.14118 4.56267 5.9372C4.56267 2.66346 7.2261 3.10128e-05 10.5002 3.10128e-05C13.7739 3.10128e-05 16.4375 2.66346 16.4375 5.9372C16.4375 7.18104 16.0804 8.36475 15.4549 9.27387C16.4634 9.37254 17.4873 9.73839 18.4345 10.3876C21.121 12.2287 21.8087 15.9123 19.9674 18.5986C18.1263 21.2851 14.4427 21.9728 11.7562 20.1315L10.3147 19.1435C8.47867 21.4523 5.22107 21.8518 2.56538 20.0315C-0.120953 18.1904 -0.808678 14.5068 1.03262 11.8205C2.10843 10.2505 3.8135 9.36562 5.58099 9.26679ZM6.61663 9.3231C6.87475 9.61878 7.13172 9.86093 7.4022 10.0634L7.57533 10.1929L6.88282 10.0713C5.16458 9.90854 2.87161 10.5811 1.70585 12.2819C0.119225 14.5971 0.71174 17.7713 3.02678 19.358C4.1764 20.1458 5.49864 20.487 6.75022 20.3185C8.02124 20.1475 9.13461 19.4499 9.88559 18.3543C10.0129 18.1687 10.2671 18.1211 10.4529 18.2486L12.2179 19.4581C14.5328 21.0448 17.7072 20.4522 19.294 18.1372C20.8806 15.822 20.2881 12.6477 17.9731 11.061C16.9814 10.3815 15.8615 10.0354 14.769 10.0607L14.7638 10.0657C14.7642 10.0653 14.7646 10.0649 14.765 10.0644C14.7662 10.0632 14.7675 10.0619 14.7689 10.0607C14.6776 10.0629 14.5865 10.0668 14.4957 10.0742C14.2656 10.0991 13.8668 10.1438 13.5542 10.1871H13.4067L13.4642 10.1452C14.5545 9.35358 15.6547 7.74553 15.6547 5.93719C15.6547 3.09486 13.3423 0.782619 10.5002 0.782619C7.65785 0.782619 5.34528 3.09486 5.34528 5.93719C5.34528 7.18168 5.79679 8.38417 6.61663 9.3231Z" fill="white"/>
    </mask>
    <g mask="url(#mask0)">
    </g>
</svg>
