<svg width="200" height="38" viewBox="0 0 200 38" fill="none" xmlns="http://www.w3.org/2000/svg">
    <g clip-path="url(#clip0)">
        <path d="M21.5333 0C28.8587 12.6405 36.0818 25.0767 43.4413 37.7513C42.6236 37.7513 42.1806 37.7513 41.7377 37.7513C28.3817 37.7513 14.9915 37.7854 1.6355 37.7854C1.09036 37.7854 0.374853 38.0579 0.068209 37.5809C-0.272507 37.0358 0.340781 36.5588 0.613354 36.0818C7.18916 24.7359 13.765 13.3901 20.3067 2.04429C20.6815 1.39693 21.0563 0.783646 21.5333 0ZM18.1602 12.5724C16.1159 19.9659 14.1738 27.0187 12.1295 34.276C12.845 34.1397 13.3561 34.0716 13.8331 33.9353C20.0001 32.3339 26.167 30.7325 32.334 29.1312C34.0035 28.6882 34.0716 28.5179 32.811 27.2913C29.4038 23.8842 25.9967 20.477 22.6236 17.1039C21.1926 15.6388 19.7956 14.2078 18.1602 12.5724Z" fill="#D44F59"/>
        <path d="M29.8122 1.46465C29.4714 1.15801 29.0626 0.817291 29.3351 0.340289C29.6077 -0.102641 30.1529 0.101788 30.5958 0.101788C38.1938 0.101788 45.7576 0.101788 53.3556 0.101788C59.25 0.101788 65.1444 0.101788 71.0387 0.101788C71.6179 0.101788 72.8786 -0.272999 71.8905 1.12393C71.7202 1.22615 71.5839 1.36244 71.4135 1.46465H71.4476C70.8002 1.43058 70.4254 1.90758 70.0507 2.31644C69.0967 3.33859 68.2108 4.42887 67.2227 5.45102C62.2142 10.4936 57.1716 15.5021 52.1631 20.5447C51.6861 21.0217 51.0387 21.3624 51.0047 22.1461C50.7662 22.1461 50.5617 22.1461 50.3232 22.1802C50.3232 21.6691 49.9825 21.3624 49.6759 21.0558C47.1886 18.5004 44.6673 16.0132 42.2483 13.3897C38.773 9.57368 34.991 6.03024 31.3454 2.38458C30.9365 1.97572 30.5617 1.39651 29.8122 1.46465Z" fill="#BBBDBF"/>
        <path d="M86.2005 23.7819C87.393 20.511 88.7218 17.2742 89.7439 13.9352C90.2891 12.1635 91.0387 11.3799 93.0148 11.5502C95.8427 11.7546 95.8768 11.6184 95.8768 14.4463C95.8768 19.1482 95.8427 23.816 95.9109 28.5178C95.945 29.8126 95.3657 30.017 94.3095 29.9489C93.3214 29.9148 92.4356 30.0851 92.5037 28.5178C92.6059 24.5655 92.5378 20.6133 92.5378 16.6269C91.8564 16.661 91.9245 17.2402 91.7542 17.615C90.3231 21.2947 88.8921 24.9744 87.5634 28.6882C87.2567 29.5741 86.8479 29.9148 85.8598 29.9489C84.8376 29.9489 84.4628 29.4719 84.1903 28.6541C82.8615 25.0085 81.4986 21.3288 80.1017 17.6831C79.9654 17.2742 79.9654 16.7972 79.284 16.5247C79.284 20.477 79.2499 24.3271 79.318 28.2112C79.3521 29.4719 79.0795 29.9829 77.6485 29.9829C76.2516 29.9829 75.945 29.5059 75.979 28.2112C76.0472 23.2368 76.0472 18.2623 75.979 13.2879C75.979 12.0272 76.1835 11.4821 77.6145 11.5161C81.2601 11.5843 81.2942 11.5161 82.5208 14.8892C83.6111 17.8535 84.7013 20.8177 85.7916 23.7819C85.8939 23.816 86.0642 23.7819 86.2005 23.7819Z" fill="#86888A"/>
        <path d="M133.766 18.3981C133.766 16.0812 133.868 13.9347 133.732 11.7882C133.664 10.3231 134.413 10.2891 135.469 10.2891C136.491 10.2891 137.139 10.3572 137.105 11.686C137.037 17.2737 137.071 22.8615 137.071 28.4833C137.071 29.0966 137.343 30.0165 136.219 29.9483C135.265 29.9143 133.936 30.5616 133.902 28.5855C132.403 29.9143 130.836 30.4935 128.996 30.2891C127.599 30.1187 126.372 29.5736 125.418 28.5514C123.204 26.2005 122.999 21.9415 125.009 19.318C126.951 16.7967 129.847 16.456 133.766 18.3981ZM126.917 23.7133C126.951 25.8938 128.416 27.5293 130.393 27.5293C132.403 27.5633 134.038 25.7916 134.038 23.6451C134.004 21.4645 132.403 19.7269 130.427 19.761C128.348 19.795 126.883 21.4645 126.917 23.7133Z" fill="#86888A"/>
        <path d="M51.0049 22.1119C51.039 21.3282 51.6863 20.9875 52.1633 20.5105C57.1718 15.4679 62.2144 10.4594 67.2229 5.41681C68.211 4.42873 69.0969 3.33844 70.0509 2.28223C70.4257 1.87337 70.7664 1.39637 71.4478 1.43044C71.0389 3.64509 69.5057 5.31459 68.4495 7.2226C64.7357 13.7984 60.9197 20.272 57.1378 26.8137C56.9674 27.0863 56.7289 27.3248 56.4904 27.5633C54.5143 25.962 52.6744 24.1221 51.0049 22.1119Z" fill="#A5A7AA"/>
        <path d="M29.8125 1.46449C30.5621 1.39635 30.9369 1.97556 31.3457 2.38442C34.9914 6.03008 38.7392 9.57352 42.2486 13.3214C44.6677 15.9449 47.189 18.4321 49.6762 20.9875C49.9829 21.3282 50.3576 21.6008 50.3236 22.1119C48.62 23.9517 47.1549 26.0301 44.8721 27.2226C43.3048 25.4849 42.419 23.3384 41.2605 21.3623C37.5808 15.1953 34.0033 8.96023 30.3917 2.69107C30.1873 2.31628 30.0169 1.87335 29.8125 1.46449Z" fill="#A5A7AA"/>
        <path d="M147.087 24.8037C145.894 24.8037 144.702 24.8378 143.509 24.8037C142.248 24.7696 142.351 25.3488 142.862 26.1325C143.918 27.7338 146.678 28.1427 148.279 26.7117C149.642 25.4851 150.085 26.9502 150.698 27.4272C151.482 28.0064 150.562 28.4834 150.187 28.8582C148.075 30.8003 143.679 30.8344 141.363 28.9263C138.944 26.9161 138.296 22.9297 139.966 20.1359C141.499 17.5124 145.315 16.3199 148.177 17.5464C150.46 18.5345 152.163 21.7032 151.72 24.1223C151.584 24.8718 151.141 24.8378 150.63 24.8378C149.472 24.8037 148.279 24.8037 147.087 24.8037ZM145.281 22.4187C145.826 22.4187 146.405 22.4527 146.95 22.4187C147.427 22.3846 148.075 22.6572 148.279 22.0439C148.518 21.4306 148.177 20.8514 147.734 20.3744C146.576 19.1819 144.463 19.2159 143.202 20.5107C142.76 20.9536 142.283 21.4647 142.555 22.112C142.794 22.6572 143.441 22.3846 143.918 22.4187C144.395 22.4527 144.838 22.4187 145.281 22.4187Z" fill="#86888A"/>
        <path d="M180.545 25.4515C180.545 26.3033 180.545 27.1551 180.545 28.0069C180.545 29.8467 179.148 30.8007 177.717 29.7445C176.934 29.1653 176.593 29.472 176.014 29.7445C174.378 30.46 172.709 30.46 171.073 29.7105C169.676 29.029 168.927 27.9387 168.927 26.3374C168.927 24.8042 169.676 23.782 171.005 23.1346C172.47 22.4191 174.003 22.1806 175.605 22.1466C176.218 22.1125 177.138 22.4191 177.24 21.4311C177.342 20.5793 176.627 20.1363 175.911 19.8978C174.651 19.4549 173.39 19.5571 172.334 20.3748C171.175 21.2948 170.596 20.5452 170.051 19.7275C169.302 18.5691 170.46 18.3987 171.039 18.058C172.777 17.0018 174.685 16.8655 176.627 17.2062C178.91 17.6151 180.409 19.4549 180.511 21.9081C180.613 23.1006 180.545 24.259 180.545 25.4515ZM174.412 27.7002C174.753 27.6662 175.094 27.6662 175.434 27.5639C176.627 27.2573 177.819 25.7241 177.411 24.8042C176.899 23.6798 175.843 24.3612 175.026 24.3612C174.651 24.3612 174.242 24.4634 173.867 24.5997C173.049 24.9404 172.061 25.213 172.198 26.4055C172.368 27.7002 173.458 27.6321 174.412 27.7002Z" fill="#86888A"/>
        <path d="M110.256 22.1809C110.256 20.0344 110.221 17.8878 110.256 15.7413C110.29 14.8555 109.983 14.5148 109.097 14.5488C108.041 14.5829 106.951 14.5148 105.86 14.5829C104.566 14.6851 104.736 13.8333 104.736 13.0497C104.702 12.1638 104.736 11.5846 105.962 11.5846C109.983 11.6528 114.003 11.6528 118.024 11.5846C119.148 11.5505 119.319 12.0616 119.319 12.9815C119.319 13.9355 119.284 14.7192 117.99 14.5488C117.888 14.5488 117.751 14.5488 117.649 14.5488C113.663 14.617 113.663 14.617 113.663 18.6715C113.663 21.8742 113.595 25.111 113.697 28.3137C113.765 29.7447 113.152 29.9492 111.925 29.9832C110.528 30.0173 110.187 29.5744 110.256 28.2456C110.324 26.2354 110.256 24.1911 110.256 22.1809Z" fill="#86888A"/>
        <path d="M44.8721 27.2571C47.1549 26.0646 48.6199 23.9522 50.3235 22.1464C50.562 22.1464 50.7664 22.1464 51.0049 22.1123C52.6745 24.1225 54.4802 25.9283 56.4905 27.5978C55.0595 30.8687 52.947 33.7648 51.3116 36.8994C51.039 37.4445 50.6642 37.7511 50.2554 37.0016C48.4837 33.7648 46.3371 30.6983 44.8721 27.2571Z" fill="#86888A"/>
        <path d="M193.288 26.3372C194.821 25.0084 195.775 23.5774 196.524 21.976C196.763 21.4649 196.729 21.0901 196.286 20.6472C195.502 19.8636 195.502 18.9096 196.116 18.0237C196.627 17.3082 197.342 17.0697 198.228 17.3082C199.284 17.5808 199.829 18.3644 199.966 19.3866C200.136 20.6472 199.761 21.8397 199.216 22.9641C197.955 25.5535 196.082 27.6659 194.037 29.608C192.64 30.9027 191.141 30.3917 190.8 28.5518C190.358 26.269 189.949 24.0203 189.472 21.7375C189.335 21.0561 189.369 20.2043 188.279 20.2383C187.7 20.2724 186.984 20.2383 187.257 19.3525C187.496 18.637 187.291 17.5126 188.518 17.4445C189.199 17.4104 189.881 17.5126 190.562 17.4104C191.686 17.2741 192.061 17.7852 192.163 18.8073C192.266 20.0339 192.47 21.2605 192.674 22.4871C192.811 23.7136 193.049 24.8721 193.288 26.3372Z" fill="#86888A"/>
        <path d="M161.329 23.7812C161.329 23.0998 161.295 22.4184 161.329 21.7369C161.363 20.7829 161.397 19.9311 160 20.0333C159.012 20.1015 159.285 19.2156 159.251 18.6705C159.251 18.1594 159.046 17.3417 159.932 17.4439C161.5 17.6143 161.329 16.5921 161.295 15.6381C161.295 13.9686 162.59 13.1509 164.123 13.8323C164.975 14.2412 164.6 15.0589 164.566 15.6381C164.43 17.001 164.873 17.6483 166.304 17.4098C167.292 17.2395 167.701 17.5802 167.701 18.6705C167.701 19.8289 167.292 20.2378 166.201 20.0333C164.805 19.7948 164.43 20.4422 164.532 21.7369C164.634 22.9635 164.6 24.2241 164.532 25.4507C164.498 26.7795 164.975 27.5632 166.406 27.3587C167.19 27.2565 167.598 27.3928 167.564 28.2787C167.53 29.0623 167.769 29.8119 166.61 30.0845C163.578 30.7318 161.431 29.1645 161.261 26.0981C161.295 25.3485 161.329 24.5649 161.329 23.7812Z" fill="#86888A"/>
        <path d="M102.964 20.6476C102.964 23.3052 102.896 25.9627 102.999 28.5862C103.067 30.1876 102.079 29.915 101.125 29.9491C100.171 29.9832 99.387 30.0173 99.421 28.6203C99.4892 23.3733 99.4892 18.1263 99.421 12.8793C99.387 11.4823 100.137 11.4823 101.125 11.5164C102.045 11.5505 103.067 11.2098 102.999 12.8452C102.896 15.4687 102.964 18.0581 102.964 20.6476Z" fill="#86888A"/>
        <path d="M154.378 20.0002C154.378 17.2404 154.412 14.4466 154.344 11.6868C154.31 10.5624 154.685 10.1876 155.809 10.2558C156.729 10.3239 157.581 10.0854 157.547 11.5505C157.478 17.2404 157.478 22.9645 157.547 28.6885C157.547 30.0173 156.797 29.9151 155.911 29.9491C154.957 29.9832 154.31 29.9151 154.344 28.6203C154.446 25.7924 154.378 22.8963 154.378 20.0002Z" fill="#86888A"/>
        <path d="M71.4482 1.49892C71.6186 1.3967 71.7549 1.26042 71.9253 1.1582C71.7549 1.26042 71.5845 1.36263 71.4482 1.49892Z" fill="#A5A7AA"/>
        <path d="M18.1605 12.5723C19.7619 14.2077 21.1929 15.6728 22.6239 17.1038C26.0311 20.5109 29.4382 23.884 32.8113 27.2912C34.0379 28.5177 34.0038 28.7222 32.3343 29.131C26.1674 30.7324 20.0004 32.3338 13.8335 33.9351C13.3565 34.0714 12.8795 34.1396 12.1299 34.2758C14.1742 26.9845 16.1163 19.9317 18.1605 12.5723Z" fill="#E38180"/>
    </g>
    <defs>
        <clipPath id="clip0">
            <rect width="200" height="37.8535" fill="white"/>
        </clipPath>
    </defs>
</svg>
