<svg width="200" height="39" viewBox="0 0 200 39" fill="none" xmlns="http://www.w3.org/2000/svg">
    <path d="M5.84286 19.2338C5.84286 23.371 5.80657 27.5082 5.87915 31.6454C5.91544 32.843 5.51624 33.097 4.39122 33.097C0.0362912 33.097 0.0362911 33.1333 0.0362911 28.9235C0.0362911 21.6653 0.0725821 14.4071 0 7.14891C0 5.9513 0.362911 5.69727 1.48793 5.69727C5.80657 5.73356 5.80657 5.66097 5.80657 9.87074C5.84286 12.9918 5.84286 16.1128 5.84286 19.2338Z" fill="black"/>
    <path d="M24.6415 19.4886C24.6415 23.5532 24.6052 27.6541 24.6778 31.7187C24.714 32.8074 24.4237 33.2066 23.2987 33.0977C21.8833 32.9525 19.9962 33.6784 19.1252 32.8074C18.2542 31.9364 18.8712 30.0856 18.8712 28.6702C18.8349 21.5209 18.9075 14.4078 18.8349 7.25848C18.8349 5.98829 19.1252 5.66167 20.3954 5.69797C24.6415 5.77055 24.6415 5.69797 24.6415 9.94402C24.6415 13.1376 24.6415 16.295 24.6415 19.4886Z" fill="black"/>
    <path d="M15.2423 15.2421C15.2423 17.9277 15.206 20.6495 15.2786 23.335C15.2786 24.1697 15.0608 24.4238 14.1898 24.4601C9.4357 24.6415 9.43571 24.6778 9.43571 19.96C9.43571 15.6413 9.472 11.3227 9.39941 7.00405C9.39941 6.02419 9.61716 5.69758 10.6696 5.69758C15.2423 5.62499 15.2423 5.5887 15.2423 10.0162C15.2423 11.7582 15.2423 13.5002 15.2423 15.2421Z" fill="black"/>
    <path d="M43.4765 24.0973C43.4765 26.6013 43.4402 29.1417 43.5128 31.6458C43.5491 32.6619 43.4039 33.0974 42.2063 33.0974C37.7062 33.0974 37.7062 33.17 37.7062 28.7062C37.7062 24.6416 37.7425 20.5407 37.6699 16.4761C37.6699 15.46 37.7788 15.0245 38.9764 15.0245C43.4765 15.0245 43.4765 14.9519 43.4765 19.4157C43.4765 21.0125 43.4765 22.5367 43.4765 24.0973Z" fill="black"/>
    <path d="M34.0406 24.2784C34.0406 26.7825 34.0043 29.3228 34.0406 31.8269C34.0406 32.6979 33.8955 33.0608 32.8793 33.0971C28.3066 33.206 28.3066 33.2423 28.3066 28.7422C28.3066 24.6776 28.3429 20.613 28.3066 16.5484C28.3066 15.5322 28.4518 15.0968 29.6494 15.0968C34.0406 15.0968 34.0406 15.0242 34.0406 19.4154C34.0406 21.0122 34.0406 22.6453 34.0406 24.2784Z" fill="#2C2829"/>
    <path d="M44.7835 5.73459C46.8883 5.73459 48.9932 5.77088 51.1344 5.69829C52.0054 5.662 52.2231 5.95233 52.2231 6.82332C52.4046 11.5049 52.4046 11.5049 47.8319 11.5049C44.8923 11.5049 41.9165 11.4686 38.9769 11.5412C37.9245 11.5774 37.7067 11.2508 37.7067 10.2347C37.6704 5.73459 37.6341 5.73459 42.0979 5.73459C42.9689 5.73459 43.8762 5.73459 44.7835 5.73459Z" fill="black"/>
    <path d="M132.644 31.7909C133.696 31.9724 134.713 32.1176 135.765 32.2627C136.745 32.4079 137.507 32.7345 137.688 33.8232C137.87 34.9483 137.507 35.8918 136.491 36.3999C134.64 37.3798 132.644 37.4524 130.757 36.6539C129.523 36.1459 129.233 35.0571 130.104 34.041C130.575 33.4603 130.43 32.7345 130.612 32.3716C131.301 31.0288 130.43 30.1216 130.14 29.0328C129.704 27.3271 130.612 26.1295 132.354 25.8029C133.878 25.5126 135.33 25.9481 136.854 25.9481C137.979 25.9481 137.471 26.8191 137.326 27.3997C137.253 27.7264 136.636 27.6538 136.636 28.1256C136.854 31.0288 134.821 31.3192 132.644 31.7909ZM133.406 35.4201C134.023 35.2023 135.221 35.4563 135.039 34.5491C134.858 33.6781 133.624 34.1136 132.862 33.8958C132.39 33.7507 131.809 33.9321 131.846 34.5491C131.954 35.4926 132.825 35.2386 133.406 35.4201ZM134.422 28.2707C134.459 27.9441 134.059 27.6175 133.479 27.5449C132.789 27.4723 132.317 27.8352 132.281 28.5248C132.245 29.1417 132.608 29.5409 133.225 29.5772C133.914 29.6135 134.35 29.3232 134.422 28.2707Z" fill="#2C2829"/>
    <path d="M151.007 29.613C151.007 25.7662 151.007 25.621 155.035 25.7662C156.378 25.8025 157.721 25.7662 159.063 25.7299C160.842 25.621 161.604 26.3831 161.64 28.1614C161.676 29.5405 161.604 30.9195 161.676 32.2986C161.713 33.1333 161.459 33.4236 160.551 33.4599C159.608 33.4599 159.281 33.1696 159.317 32.226C159.39 31.2824 159.354 30.3026 159.317 29.359C159.281 28.7058 159.608 27.7622 158.483 27.7259C157.213 27.6896 157.576 28.7421 157.539 29.4316C157.503 30.3389 157.503 31.2098 157.539 32.1171C157.576 32.9518 157.467 33.4236 156.414 33.4236C155.398 33.4236 155.035 33.1333 155.108 32.0808C155.18 30.9558 155.144 29.7945 155.108 28.6695C155.108 28.1977 155.108 27.6896 154.418 27.6533C153.729 27.6533 153.475 28.0162 153.475 28.6695C153.475 29.8671 153.402 31.0647 153.475 32.2623C153.547 33.3147 152.967 33.3873 152.132 33.3873C151.261 33.4236 150.934 33.1333 151.007 32.2623C151.043 31.3913 151.007 30.484 151.007 29.613Z" fill="#2C2829"/>
    <path d="M73.1629 14.516C74.3968 15.0241 75.7033 15.2418 77.046 15.0966C77.7719 15.0241 78.3162 14.7337 78.3888 13.9353C78.4614 13.1006 77.8807 12.8103 77.1912 12.6651C76.538 12.52 75.8847 12.4474 75.2315 12.2659C73.671 11.8667 72.9814 10.8143 72.9814 9.21748C73.0177 7.54809 73.8161 6.49565 75.4129 6.09645C76.6106 5.80612 77.8082 5.915 79.0058 6.02387C80.2034 6.16903 80.4937 6.78598 80.3848 7.83842C80.2034 9.36265 79.3324 8.20133 78.8243 8.27392C77.6267 8.38279 75.8484 7.5481 75.5218 9.1449C75.1952 10.778 77.1186 10.3425 78.0622 10.6328C80.1671 11.2861 80.8203 11.903 80.784 13.8264C80.7477 15.7862 79.7679 16.9112 77.8444 17.3104C76.9372 17.4918 76.0662 17.4918 75.1589 17.3467C72.8363 17.0564 72.8363 17.0201 73.1629 14.516Z" fill="#2C2829"/>
    <path d="M108.619 27.7261C108.619 26.2382 108.655 24.7503 108.619 23.2261C108.583 22.4639 108.8 22.1373 109.635 22.1736C110.651 22.2462 111.667 22.1736 112.72 22.2099C115.224 22.3551 116.422 23.5527 116.422 25.8753C116.385 28.0528 115.151 29.4318 112.756 29.3229C111.123 29.2504 111.159 30.0488 111.087 31.2101C111.051 31.9359 111.849 33.1335 110.288 33.315C109.272 33.4238 108.546 33.3513 108.655 31.9722C108.728 30.6294 108.619 29.1778 108.619 27.7261ZM111.087 25.9116C111.014 26.7463 110.978 27.4358 112.212 27.3632C113.301 27.2906 113.954 26.8914 113.917 25.8027C113.917 24.7866 113.301 24.4599 112.284 24.3874C110.942 24.2785 110.978 25.0043 111.087 25.9116Z" fill="#2C2829"/>
    <path d="M104.41 11.8306C104.41 13.3185 104.373 14.8427 104.41 16.3307C104.446 17.238 103.865 17.5283 103.321 17.2017C102.486 16.6936 101.869 17.1654 101.143 17.3105C98.8571 17.8186 97.5144 16.875 97.2966 14.5524C97.224 13.8992 97.224 13.2459 97.2966 12.5927C97.5144 10.3789 98.5305 9.47166 100.744 9.76199C101.724 9.87087 102.051 9.7257 101.942 8.78213C101.906 8.31035 101.978 7.80228 101.942 7.33049C101.797 6.24176 102.341 6.0966 103.285 6.0603C104.373 6.02401 104.41 6.56838 104.373 7.36678C104.373 8.85472 104.41 10.3426 104.41 11.8306ZM102.051 13.4637C101.724 12.8467 102.559 11.5403 100.998 11.5403C99.7644 11.5403 99.6555 12.4838 99.6555 13.4274C99.6918 14.371 99.5104 15.4234 100.962 15.4597C102.559 15.496 101.76 14.2621 102.051 13.4637Z" fill="#2C2829"/>
    <path d="M105.789 11.5769C105.789 10.1253 105.825 8.70995 105.752 7.25831C105.716 6.31474 105.97 6.02441 106.95 6.02441C107.93 6.02441 108.438 6.24216 108.293 7.2946C108.256 7.58493 108.329 7.91155 108.293 8.20188C108.148 9.3269 108.293 9.87127 109.744 9.65352C111.595 9.36319 112.539 10.1979 112.902 12.0487C113.119 13.0649 113.083 14.0447 112.865 15.0609C112.502 16.6577 111.559 17.3835 109.89 17.3109C108.764 17.2384 107.712 16.5488 106.478 17.1295C105.825 17.4561 105.789 16.694 105.789 16.2222C105.789 14.698 105.789 13.1375 105.789 11.5769ZM108.111 13.5004C108.329 14.2262 107.603 15.4964 109.2 15.4601C110.47 15.4238 110.506 14.4802 110.506 13.573C110.47 12.6294 110.579 11.5407 109.164 11.5407C107.603 11.5044 108.365 12.7746 108.111 13.5004Z" fill="#2C2829"/>
    <path d="M104.337 27.9076C104.337 29.4681 104.3 31.0286 104.373 32.5891C104.409 33.5327 103.756 33.7142 103.284 33.4238C102.486 32.9158 101.905 33.2424 101.179 33.4238C99.0019 34.0045 97.6228 33.0972 97.2599 30.9198C97.0784 29.9036 97.1147 28.8875 97.3688 27.9076C97.7317 26.4923 98.6389 25.585 100.091 25.9116C102.014 26.3108 102.195 25.3672 101.978 23.9519C101.796 22.7906 102.123 22.1736 103.502 22.3188C104.228 22.3914 104.409 22.6454 104.373 23.2986C104.337 24.7866 104.337 26.3471 104.337 27.9076ZM102.014 29.577C101.796 28.8512 102.45 27.6536 100.889 27.6536C99.5462 27.6536 99.5825 28.6697 99.5825 29.577C99.5825 30.5206 99.4374 31.6456 100.925 31.6093C102.486 31.6093 101.796 30.3754 102.014 29.577Z" fill="#2C2829"/>
    <path d="M73.1262 27.7984C73.1262 27.6895 73.1262 27.5444 73.1262 27.4355C73.2714 25.7298 72.3278 23.1532 73.4891 22.4999C74.977 21.6289 77.336 22.2459 79.332 22.2096C80.1304 22.1733 80.2029 22.6088 80.1667 23.2257C80.1304 23.8427 80.2392 24.4596 79.2957 24.387C78.4973 24.3508 77.7352 24.387 76.9368 24.387C76.1746 24.3508 75.5577 24.3145 75.5577 25.4395C75.5577 26.5645 76.0658 26.746 76.9731 26.6734C77.59 26.6371 78.1707 26.7097 78.7876 26.6371C79.6223 26.5645 79.7675 27 79.7675 27.7258C79.7675 28.4154 79.6586 28.8146 78.8239 28.8146C77.7714 28.8146 76.3924 28.2702 75.7754 29.1049C75.2674 29.7944 75.594 31.0646 75.6303 32.0808C75.7029 33.0969 75.34 33.4235 74.3238 33.4235C73.2714 33.4235 73.1625 32.9517 73.1625 32.117C73.1625 30.6654 73.1262 29.25 73.1262 27.7984Z" fill="#2C2829"/>
    <path d="M89.1666 29.5405C89.1666 28.5243 88.9851 27.4719 89.2029 26.492C89.6384 24.7863 90.8723 26.5646 91.707 26.0928C92.2513 25.7662 92.9772 25.7299 93.6304 25.6936C95.2272 25.6573 96.1345 26.4194 96.1708 28.0525C96.2071 29.359 96.1345 30.7018 96.2071 32.0083C96.2434 32.9155 96.1345 33.4236 94.9732 33.4236C93.7393 33.4599 93.7756 32.8067 93.8118 31.972C93.8481 30.8832 93.8118 29.8308 93.8118 28.7421C93.8118 28.0162 93.4852 27.6533 92.6868 27.6896C91.961 27.7259 91.5981 28.0162 91.6344 28.8146C91.6707 30.0123 91.5981 31.2099 91.6707 32.4075C91.7433 33.3873 91.1989 33.4599 90.4368 33.4236C89.7472 33.3873 89.094 33.4962 89.1303 32.4438C89.2392 31.4639 89.1666 30.5203 89.1666 29.5405Z" fill="#2C2829"/>
    <path d="M143.422 14.1168C143.422 14.6975 143.386 15.3144 143.422 15.8951C143.531 16.875 143.241 17.2742 142.152 17.2742C141.1 17.2742 140.81 16.9113 140.882 15.9314C140.955 14.8427 140.882 13.7902 140.918 12.7015C140.918 12.012 140.737 11.5039 139.939 11.5402C139.213 11.5765 138.705 11.8305 138.741 12.7378C138.814 13.8265 138.741 14.879 138.777 15.9677C138.814 16.7661 138.777 17.2742 137.652 17.2742C136.6 17.2379 136.309 16.9475 136.346 15.9314C136.418 14.1894 136.382 12.4475 136.346 10.7055C136.346 10.0885 136.527 9.39901 137.18 9.76192C138.197 10.27 138.995 9.76192 139.866 9.65305C142.334 9.29014 143.314 10.1611 143.35 12.6652C143.422 13.1733 143.422 13.6451 143.422 14.1168Z" fill="#2C2829"/>
    <path d="M88.0058 29.8314C88.0058 30.2669 88.0421 30.6661 88.0058 31.1016C87.9332 32.3355 88.6953 34.2952 85.9372 33.1339C85.3565 32.8798 84.2678 33.5694 83.3605 33.5331C81.9452 33.4968 81.0742 32.8073 81.0016 31.3919C80.929 29.904 81.0016 28.416 80.9653 26.9281C80.929 25.912 81.5823 25.9845 82.2718 25.9845C82.9613 25.9482 83.3968 26.0571 83.3605 26.9281C83.2879 28.1257 83.3605 29.3233 83.3605 30.5209C83.3605 31.1742 83.542 31.7185 84.3767 31.7185C85.1751 31.7185 85.5743 31.3919 85.538 30.5209C85.5017 29.5048 85.5743 28.4886 85.5017 27.4725C85.4654 26.5289 85.5017 25.9482 86.7719 25.9482C88.1147 25.9482 88.0058 26.6741 88.0058 27.545C87.9695 28.2709 88.0058 29.033 88.0058 29.8314Z" fill="#2C2829"/>
    <path d="M149.809 30.5569C149.809 31.1013 149.773 31.6456 149.809 32.19C149.918 33.2787 149.374 33.7505 148.466 33.2787C147.85 32.9521 147.523 33.1698 147.015 33.315C145.091 33.932 143.64 33.2424 143.277 31.6819C142.878 30.0125 143.821 29.0327 145.999 28.7423C146.507 28.6698 147.45 28.9238 147.305 28.0891C147.196 27.3996 146.289 27.7262 145.708 27.7625C144.801 27.8351 143.531 28.6698 143.894 26.6737C143.93 26.456 144.075 26.1657 144.257 26.1294C145.599 25.6576 146.979 25.5487 148.321 25.9842C149.483 26.3471 149.7 27.3633 149.737 28.452C149.773 29.1052 149.809 29.8311 149.809 30.5569C149.809 30.5569 149.846 30.5569 149.809 30.5569ZM146.87 29.9036C146.253 30.0488 145.491 30.1214 145.527 30.9924C145.527 31.5367 145.89 31.8634 146.434 31.8271C147.124 31.7908 147.523 31.4642 147.414 30.702C147.378 30.3754 147.595 29.8311 146.87 29.9036Z" fill="#2C2829"/>
    <path d="M151.623 14.2986C151.623 14.843 151.587 15.3873 151.623 15.8954C151.732 16.839 151.478 17.2382 150.353 17.2745C149.192 17.2745 149.083 16.8027 149.156 15.8954C149.228 14.8793 149.156 13.8631 149.192 12.847C149.192 12.0848 149.01 11.5405 148.14 11.5405C147.305 11.5405 146.978 11.976 147.051 12.8107C147.087 13.7542 147.051 14.7341 147.051 15.6777C147.051 16.4761 147.305 17.3108 145.889 17.3108C144.619 17.3108 144.583 16.6938 144.619 15.7865C144.656 14.1171 144.656 12.4478 144.619 10.7784C144.619 10.1977 144.764 9.50817 145.454 9.7985C146.47 10.2703 147.269 9.83479 148.176 9.68963C150.498 9.36301 151.442 10.0525 151.623 12.3752C151.66 12.9921 151.587 13.6454 151.623 14.2986Z" fill="#2C2829"/>
    <path d="M184.902 13.4283C184.939 10.8153 186.027 9.65399 188.422 9.69028C190.781 9.69028 191.943 10.9605 191.906 13.5008C191.906 16.1864 190.745 17.4566 188.314 17.4203C185.955 17.4203 184.866 16.1864 184.902 13.4283ZM189.475 13.6097C189.366 12.8476 189.729 11.65 188.386 11.6137C187.189 11.5774 187.297 12.7024 187.297 13.5008C187.297 14.2629 187.08 15.3517 188.277 15.4606C189.584 15.5694 189.366 14.4807 189.475 13.6097Z" fill="#2C2829"/>
    <path d="M159.463 13.5C159.463 16.2581 158.411 17.4557 155.943 17.4557C153.584 17.4194 152.495 16.2218 152.495 13.6089C152.495 10.8871 153.584 9.68945 156.015 9.68945C158.411 9.68945 159.463 10.8508 159.463 13.5ZM154.927 13.4637C155.181 14.0807 154.527 15.3509 155.943 15.4234C157.249 15.496 156.995 14.3347 156.995 13.6089C156.995 12.8105 157.249 11.6129 155.906 11.5766C154.818 11.5766 155.072 12.6653 154.927 13.4637Z" fill="#2C2829"/>
    <path d="M113.7 13.5363C113.7 10.8507 114.68 9.68941 117.075 9.65312C119.543 9.61683 120.668 10.8507 120.668 13.5363C120.668 16.1492 119.579 17.3831 117.257 17.4194C114.789 17.492 113.7 16.2944 113.7 13.5363ZM118.164 13.5C118.055 12.7016 118.418 11.5765 117.112 11.6128C115.95 11.6491 116.023 12.7742 116.023 13.5363C116.023 14.2984 115.841 15.4234 117.039 15.4597C118.527 15.496 118.019 14.2621 118.164 13.5Z" fill="#2C2829"/>
    <path d="M129.159 29.6496C129.159 32.3351 128.143 33.4602 125.748 33.4964C123.28 33.5327 122.191 32.2988 122.191 29.6133C122.191 26.9278 123.208 25.839 125.603 25.8027C128.179 25.8027 129.159 26.8552 129.159 29.6496ZM124.587 29.831C124.768 30.4843 124.441 31.6456 125.712 31.6093C126.909 31.573 126.764 30.4843 126.764 29.6859C126.764 28.8875 126.946 27.7625 125.748 27.7625C124.405 27.6899 124.732 28.8875 124.587 29.831Z" fill="#2C2829"/>
    <path d="M199.964 14.1897C199.964 14.8067 199.891 15.3873 199.964 16.0043C200.073 17.0204 199.71 17.3107 198.694 17.3107C197.569 17.3107 197.387 16.839 197.46 15.9317C197.532 14.843 197.46 13.7905 197.46 12.7018C197.46 11.976 197.206 11.5405 196.407 11.6131C195.754 11.6856 195.246 11.8671 195.282 12.7018C195.318 13.8268 195.246 14.9881 195.318 16.1131C195.391 17.0567 195.064 17.347 194.121 17.3107C193.286 17.2745 192.96 17.093 192.996 16.222C193.068 14.4075 193.032 12.6292 193.032 10.8146C193.032 10.2703 193.105 9.47188 193.831 9.83479C194.919 10.3429 195.79 9.76221 196.77 9.68963C199.093 9.47188 199.964 10.2703 200 12.6292C199.964 13.101 199.964 13.6454 199.964 14.1897Z" fill="#2C2829"/>
    <path d="M96.3886 14.2266C96.3886 14.8435 96.3523 15.4242 96.3886 16.0412C96.4612 16.8758 96.316 17.3476 95.2636 17.3113C94.3563 17.275 93.7757 17.2025 93.8845 16.0774C93.9934 14.9524 93.8845 13.7911 93.9208 12.6661C93.9208 12.0491 93.7394 11.5773 93.0136 11.6136C92.324 11.6499 91.7071 11.7951 91.7434 12.7387C91.816 13.8637 91.6708 15.025 91.7797 16.15C91.8522 17.1662 91.4167 17.3113 90.5095 17.3113C89.6022 17.3113 89.3844 16.9847 89.4207 16.15C89.457 14.3355 89.457 12.5572 89.4207 10.7427C89.4207 10.162 89.6022 9.43618 90.2554 9.79909C91.2716 10.3797 92.1063 9.7628 93.0136 9.65392C95.4088 9.36359 96.3886 10.1983 96.3886 12.5935C96.3886 13.1379 96.3886 13.6822 96.3886 14.2266Z" fill="#2C2829"/>
    <path d="M82.417 11.9764C81.9452 10.5973 82.2719 9.83523 83.8687 9.65377C86.5542 9.36344 87.9696 9.98039 88.1147 11.7224C88.2236 13.2829 88.151 14.8434 88.151 16.3676C88.151 16.8031 88.0784 17.4201 87.5704 17.166C86.3728 16.5854 85.4292 17.3838 84.3405 17.3838C82.8888 17.4201 81.8364 16.8031 81.6912 15.2789C81.5098 13.6821 82.4533 12.92 83.9413 12.5571C84.5582 12.3756 85.901 12.9925 85.7195 11.9401C85.5381 11.0328 84.3042 11.5772 83.5058 11.7224C83.0703 11.8312 82.7437 11.9038 82.417 11.9764ZM83.9413 15.0248C83.9776 15.3152 84.1227 15.7507 84.7397 15.7507C85.3929 15.7507 85.9373 15.5692 85.8647 14.7708C85.8284 14.3716 86.0824 13.7184 85.2114 13.8635C84.6308 14.0087 83.9776 13.9724 83.9413 15.0248Z" fill="#2C2829"/>
    <path d="M168.209 11.9762C167.774 10.4519 168.282 9.7624 169.77 9.65352C172.31 9.43578 173.726 9.94385 173.871 11.4681C174.016 13.1375 173.907 14.8069 173.943 16.4762C173.943 17.1658 173.544 17.4561 173.072 17.2021C172.129 16.694 171.403 17.2384 170.568 17.3835C168.899 17.6738 167.701 16.9117 167.447 15.4238C167.229 14.0447 168.064 13.0649 169.625 12.6294C170.278 12.4479 171.693 12.9923 171.476 12.0487C171.258 11.0326 169.951 11.6858 169.117 11.831C168.863 11.831 168.572 11.9036 168.209 11.9762ZM170.387 15.7867C171.584 15.6778 171.766 15.1698 171.73 14.4802C171.693 13.9359 171.548 13.7544 170.967 13.8633C170.314 14.0084 169.77 14.1536 169.806 14.952C169.842 15.5327 170.205 15.823 170.387 15.7867Z" fill="#2C2829"/>
    <path d="M120.85 16.948C123.172 14.6254 123.499 12.2665 121.104 9.94387C123.172 9.10918 124.152 9.98016 124.769 11.6133C125.894 9.61725 125.894 9.61725 128.507 9.76242C126.112 12.2302 126.257 14.6254 128.652 16.9118C126.511 17.6376 125.459 16.8392 124.769 14.7706C124.08 16.694 123.063 17.7465 120.85 16.948Z" fill="#2C2829"/>
    <path d="M31.2464 5.73438C34.0771 5.73438 34.0771 5.73437 34.0771 8.49249C34.0771 11.4684 34.0771 11.4684 31.1012 11.4684C28.2705 11.4684 28.2705 11.4684 28.2705 8.71024C28.2705 5.73438 28.2705 5.73438 31.2464 5.73438Z" fill="black"/>
    <path d="M163.491 13.8632C164.943 12.593 163.491 8.89128 167.374 9.87114C166.54 12.1212 165.669 14.2986 164.943 16.5487C164.689 17.3471 164.145 17.2745 163.528 17.3108C162.911 17.3471 162.511 17.1656 162.294 16.5487C161.677 14.7341 160.987 12.9559 160.37 11.1413C160.225 10.6695 159.536 9.98001 160.479 9.79855C161.169 9.65339 162.221 9.29048 162.548 10.5244C162.838 11.6131 163.165 12.7018 163.491 13.8632Z" fill="#2C2829"/>
    <path d="M178.769 17.4195C176.664 17.4195 175.975 16.6211 175.721 14.5162C175.576 13.5363 176.592 12.0484 174.705 11.6129C174.632 11.5766 174.523 11.1048 174.632 10.9597C175.394 10.0161 175.43 8.56444 176.773 8.05637C177.608 7.72975 178.479 7.43942 178.261 8.92735C178.152 9.61688 178.588 9.76205 179.132 9.68946C180.003 9.58059 180.076 10.0887 180.076 10.7782C180.076 11.3951 179.967 11.8669 179.205 11.7581C178.334 11.6129 178.116 12.121 178.261 12.8105C178.443 13.6815 177.572 15.0968 179.059 15.3509C180.076 15.5323 180.039 16.0041 179.967 16.6573C179.93 17.6735 179.096 17.238 178.769 17.4195Z" fill="#2C2829"/>
    <path d="M62.9283 0C62.9283 12.9196 62.9283 25.8755 62.9283 38.7951C62.8195 38.7951 62.7106 38.7951 62.5654 38.7951C62.5654 25.8755 62.5654 12.9196 62.5654 0C62.7106 0 62.8195 0 62.9283 0Z" fill="black"/>
    <path d="M132.499 11.4679C132.499 10.0889 132.535 8.70979 132.499 7.36702C132.463 6.56862 132.535 6.06055 133.624 6.06055C134.676 6.06055 134.93 6.42346 134.894 7.40332C134.821 10.2703 134.858 13.1373 134.894 16.0043C134.894 16.8027 134.858 17.3108 133.769 17.3108C132.717 17.3108 132.426 16.9479 132.499 15.968C132.535 14.4801 132.499 12.9558 132.499 11.4679Z" fill="#2C2829"/>
    <path d="M117.003 29.5416C117.003 25.9125 117.003 25.9125 120.596 25.6948C121.104 25.6585 121.757 25.5133 121.721 26.4206C121.685 27.0376 121.975 27.7997 120.814 27.6908C119.58 27.5819 119.253 28.2715 119.362 29.3602C119.434 30.1949 119.326 31.0296 119.398 31.8643C119.434 32.7716 119.326 33.3159 118.164 33.3159C116.967 33.3159 116.93 32.7353 117.003 31.8643C117.039 31.1022 117.003 30.3038 117.003 29.5416Z" fill="#2C2829"/>
    <path d="M138.305 29.4688C138.305 29.3962 138.305 29.3599 138.305 29.2873C138.486 28.1623 137.724 26.4203 138.74 26.0574C139.647 25.7308 140.954 25.8397 142.115 25.6945C142.805 25.6219 143.095 25.9485 143.059 26.6381C143.023 27.1824 143.168 27.7631 142.26 27.6542C140.664 27.509 140.518 28.4889 140.627 29.6865C140.7 30.4486 140.591 31.247 140.664 32.0091C140.736 32.9164 140.446 33.2793 139.466 33.2793C138.414 33.2793 138.268 32.8075 138.341 31.9728C138.341 31.1382 138.305 30.3035 138.305 29.4688Z" fill="#2C2829"/>
    <path d="M181.165 13.2105C181.165 12.3758 181.202 11.7589 181.165 11.1782C181.129 10.3072 181.165 9.72656 182.363 9.72656C183.452 9.72656 183.597 10.1621 183.633 11.1056C183.706 12.7387 183.198 14.4081 184.177 15.9686C184.359 16.259 184.577 17.1299 183.778 17.2751C182.762 17.4566 181.855 17.2025 181.383 16.1501C180.948 15.0976 181.31 14.0089 181.165 13.2105Z" fill="#2C2829"/>
    <path d="M182.326 6.31445C183.052 6.38704 183.669 6.67736 183.742 7.54835C183.851 8.49192 183.343 9.03628 182.435 9.10886C181.637 9.18145 181.02 8.74595 180.947 7.91126C180.911 7.00398 181.347 6.42333 182.326 6.31445Z" fill="#2C2829"/>
</svg>
