<svg width="249" height="100" viewBox="0 0 249 100" fill="none" xmlns="http://www.w3.org/2000/svg">
<rect width="249" height="100" rx="12" fill="#F9F9F9"/>
<g clip-path="url(#clip0_2967_31635)">
<path d="M127.701 25.9977C127.701 26.4848 127.701 26.8049 127.701 27.123C127.701 41.8951 127.691 56.6673 127.729 71.4395C127.731 72.3679 127.462 72.527 126.633 72.4932C125.047 72.4296 123.454 72.4495 121.866 72.4852C121.291 72.4992 121.108 72.3123 121.14 71.7516C121.18 71.0259 121.15 70.2963 121.15 69.5209C120.685 69.5368 120.474 69.9165 120.192 70.1432C115.591 73.8412 109.865 74.2189 105.392 71.0677C103.113 69.4632 101.65 67.2245 100.835 64.6081C98.9558 58.57 98.6775 52.4882 100.976 46.5017C103.183 40.7539 108.394 37.6703 114.316 38.4496C116.611 38.7518 118.581 39.8076 120.327 41.3027C120.547 41.4915 120.758 41.6923 120.973 41.8872C121.305 41.6725 121.142 41.3822 121.144 41.1496C121.156 37.5072 121.166 33.8629 121.136 30.2206C121.132 29.6102 121.303 29.2662 121.86 28.9919C123.776 28.0455 125.667 27.0474 127.705 25.9997L127.701 25.9977ZM121.221 55.8382C121.221 54.3511 121.033 52.8321 121.263 51.3807C121.669 48.814 120.287 47.3706 118.422 46.116C117.762 45.6727 117.064 45.2949 116.327 44.9907C112.088 43.2411 108.074 45.0225 106.801 49.4025C105.501 53.8779 105.692 58.3891 107.256 62.777C108.278 65.6479 110.577 67.1291 113.619 67.0834C116.79 67.0356 119.062 65.294 121.046 63.0394C121.301 62.7491 121.217 62.4111 121.217 62.091C121.227 60.0074 121.221 57.9218 121.219 55.8382H121.221Z" fill="#181B5E"/>
<path d="M161.144 58.0769C157.766 58.0769 154.386 58.1127 151.008 58.055C150.116 58.0391 150.05 58.3692 150.189 59.0809C150.688 61.6417 151.547 64.0375 153.728 65.6439C156.752 67.8727 159.979 67.5883 163.224 66.139C163.794 65.8845 164.395 65.6141 164.852 65.2045C165.592 64.5444 166.067 64.6717 166.665 65.3994C167.504 66.4213 168.443 67.3617 169.361 68.316C169.683 68.65 169.693 68.8389 169.329 69.1809C163.273 74.8949 149.143 75.9347 144.762 63.1607C142.926 57.8125 143.091 52.3867 145.078 47.0982C147.318 41.1356 152.818 37.8432 159.397 38.3343C166.019 38.8294 170.53 43.0324 172.006 50.0805C172.491 52.3987 172.586 54.7368 172.435 57.0947C172.389 57.8125 172.196 58.1087 171.379 58.0948C167.968 58.0391 164.556 58.0709 161.144 58.0729V58.0769ZM157.985 52.6233C160.331 52.6233 162.679 52.5995 165.025 52.6373C165.707 52.6472 165.888 52.4345 165.769 51.7843C165.59 50.8081 165.403 49.8359 165.037 48.9094C163.902 46.0405 161.756 44.5056 158.713 44.2631C155.657 44.0185 153.195 45.0663 151.623 47.81C150.909 49.0546 150.555 50.4224 150.291 51.832C150.15 52.5915 150.454 52.6353 151.044 52.6293C153.358 52.6094 155.671 52.6213 157.985 52.6213V52.6233Z" fill="#181B5E"/>
<path d="M84.9555 58.0769C81.5775 58.0769 78.1976 58.1067 74.8197 58.055C74.0006 58.0431 73.8932 58.2936 74.0304 59.0034C74.6388 62.1845 75.8238 64.9779 78.9531 66.4829C81.1342 67.5327 83.3768 67.3955 85.6255 66.7215C86.55 66.4452 87.4089 66.0137 88.234 65.5207C89.2453 64.9162 90.1453 65.0369 90.9339 65.8825C91.6099 66.6102 92.2362 67.3935 92.9738 68.0516C93.6517 68.658 93.441 68.9781 92.8485 69.4751C90.5542 71.4037 87.9337 72.5648 84.9753 72.9743C79.2176 73.7696 74.3465 72.2427 70.7877 67.4353C69.1236 65.1866 68.1911 62.6159 67.7617 59.8623C67.1354 55.8442 67.2985 51.8718 68.5967 47.9969C70.8056 41.4061 76.3367 37.7935 83.2874 38.3443C89.906 38.8691 94.3794 43.0702 95.8666 50.1262C96.3696 52.512 96.4093 54.9117 96.2622 57.3333C96.2185 58.057 95.8447 58.0869 95.29 58.0849C91.8445 58.071 88.401 58.0769 84.9555 58.0769ZM81.8499 52.6253C84.0986 52.6253 86.3472 52.5955 88.5958 52.6412C89.4149 52.6591 89.8046 52.5518 89.578 51.5875C89.397 50.8181 89.2837 50.0288 89.0292 49.2792C87.387 44.4678 81.3588 42.589 77.3129 45.6568C75.281 47.1976 74.5752 49.4621 74.1358 51.8539C74.0165 52.5021 74.1855 52.6452 74.8078 52.6353C77.1558 52.6055 79.5039 52.6233 81.8519 52.6253H81.8499Z" fill="#181B5E"/>
<path d="M186.855 73.1871C182.421 73.0857 178.288 71.7775 174.506 69.3081C174.033 69 173.988 68.7674 174.286 68.3021C175.089 67.0496 175.862 65.7751 176.606 64.4868C176.886 64.0017 177.087 63.9719 177.574 64.28C181.054 66.4929 184.801 67.6699 188.974 67.0774C189.768 66.9641 190.533 66.7533 191.237 66.3696C193.175 65.3119 193.519 62.8843 191.945 61.3375C191.08 60.4886 190.002 59.9736 188.917 59.4766C186.571 58.403 184.089 57.6574 181.771 56.5142C180.791 56.0311 179.835 55.5062 178.942 54.872C175.091 52.1382 173.995 46.5674 176.57 42.599C178.051 40.3165 180.322 39.1952 182.899 38.6862C188.149 37.6504 193.01 38.7161 197.52 41.5532C198.007 41.8594 198.138 42.092 197.804 42.6288C197.021 43.8933 196.297 45.1955 195.581 46.4998C195.329 46.961 195.154 46.9909 194.696 46.6906C192.09 44.9689 189.233 44.0543 186.08 44.1875C185.781 44.1994 185.483 44.2114 185.189 44.2492C183.433 44.4718 182.246 45.3526 181.98 46.623C181.698 47.967 182.336 49.1063 183.93 50.0825C186.288 51.5259 188.949 52.2794 191.456 53.3868C192.698 53.9356 193.913 54.53 195.08 55.2279C198.671 57.3771 199.844 60.6536 199.42 64.6319C199.009 68.5009 196.78 70.9345 193.191 72.2168C191.171 72.9385 189.066 73.1215 186.859 73.1831L186.855 73.1871Z" fill="#181B5E"/>
<path d="M56.1206 42.0562C59.8783 37.549 65.1509 37.8353 68.4274 39.0938C69.6064 39.5471 69.5985 39.6167 68.8251 40.6128C67.8509 41.8693 66.9264 43.1636 66.2762 44.6229C66.0715 45.0822 65.8627 45.1776 65.3776 45.0543C64.2841 44.774 63.1628 44.6965 62.0295 44.7919C59.4866 45.0046 57.8086 46.3447 56.8841 48.6828C56.3035 50.152 56.1206 51.6909 56.1206 53.2576C56.1206 59.3513 56.1027 65.4451 56.1425 71.5388C56.1485 72.3441 55.9298 72.525 55.1623 72.4952C53.542 72.4315 51.9176 72.4514 50.2953 72.4912C49.7147 72.5031 49.5 72.3977 49.5 71.7476C49.5219 61.083 49.5179 50.4204 49.506 39.7559C49.506 39.233 49.5875 38.9904 50.1959 39.0043C51.9494 39.0461 53.707 39.0401 55.4606 39.0083C55.9815 38.9984 56.1664 39.1316 56.1326 39.6684C56.0868 40.3782 56.1206 41.0939 56.1206 42.0562Z" fill="#181B5E"/>
<path d="M137.053 74.0022C133.972 74.0479 131.365 71.515 131.343 68.4552C131.322 65.3616 133.823 62.8088 136.912 62.767C140.032 62.7253 142.62 65.2025 142.662 68.2683C142.706 71.4335 140.237 73.9565 137.051 74.0042L137.053 74.0022Z" fill="#181B5E" fill-opacity="0.6"/>
</g>
<defs>
<clipPath id="clip0_2967_31635">
<rect width="150" height="48.0045" fill="white" transform="translate(49.5 25.9977)"/>
</clipPath>
</defs>
</svg>
