<svg width="374" height="374" viewBox="0 0 374 374" fill="none" xmlns="http://www.w3.org/2000/svg">
    <g clip-path="url(#clip0)">
        <path d="M328.623 75.7247L188.058 0.82411C185.973 -0.288855 183.473 -0.273236 181.403 0.86316L44.7275 75.7638C42.4859 76.9939 41.0957 79.3448 41.0957 81.9026V179.742C41.1777 260.168 88.8282 332.929 162.518 365.15L181.489 373.417C183.262 374.191 185.281 374.195 187.058 373.425L208.435 364.194C283.492 332.671 332.322 259.208 332.329 177.801V81.9026C332.329 79.3174 330.904 76.9392 328.623 75.7247V75.7247ZM318.333 177.801C318.318 253.596 272.842 321.987 202.956 351.318L202.909 351.342L184.293 359.379L168.118 352.322C99.5244 322.33 55.1659 254.607 55.0878 179.742V86.046L184.813 14.949L318.333 86.0968V177.801Z" fill="#181B5E"/>
    </g>
    <defs>
        <clipPath id="clip0">
            <rect width="374" height="374" fill="white"/>
        </clipPath>
    </defs>
</svg>
