<svg width="24" height="24" viewBox="0 0 24 24" fill="none" xmlns="http://www.w3.org/2000/svg">
    <path d="M0.5 9.5H23.5" stroke="#181B5E" stroke-linecap="round" stroke-linejoin="round"/>
    <path d="M14.5 5.5H22.5C23.0523 5.5 23.5 5.94772 23.5 6.5V21.5C23.5 22.0523 23.0523 22.5 22.5 22.5H1.5C0.947715 22.5 0.5 22.0523 0.5 21.5V6.5C0.5 5.94772 0.947715 5.5 1.5 5.5H9.5" stroke="#181B5E" stroke-linecap="round" stroke-linejoin="round"/>
    <path d="M15 14.5H21" stroke="#181B5E" stroke-linecap="round" stroke-linejoin="round"/>
    <path d="M15 17.5H18.5" stroke="#181B5E" stroke-linecap="round" stroke-linejoin="round"/>
    <path d="M12.9631 19.9998C12.5551 19.3698 11.2021 18.9118 9.50811 18.2848C9.03011 18.1068 9.10811 16.8588 9.32011 16.6258C10.0021 15.8872 10.3361 14.8924 10.2381 13.8918C10.2967 13.2683 10.0853 12.6495 9.65744 12.1922C9.22955 11.7348 8.62618 11.4828 8.00011 11.4998C7.37404 11.4828 6.77067 11.7348 6.34278 12.1922C5.91488 12.6495 5.70348 13.2683 5.76211 13.8918C5.66412 14.8924 5.99813 15.8872 6.68011 16.6258C6.89211 16.8588 6.97011 18.1068 6.49211 18.2848C4.80011 18.9118 3.44511 19.3698 3.03711 19.9998" stroke="#181B5E" stroke-linecap="round" stroke-linejoin="round"/>
    <path fill-rule="evenodd" clip-rule="evenodd" d="M14.5 7C14.5 7.27614 14.2761 7.5 14 7.5H10C9.72386 7.5 9.5 7.27614 9.5 7V4C9.5 2.61929 10.6193 1.5 12 1.5C13.3807 1.5 14.5 2.61929 14.5 4V7Z" stroke="#181B5E" stroke-linecap="round" stroke-linejoin="round"/>
</svg>
