<svg width="200" height="113" viewBox="0 0 200 113" fill="none" xmlns="http://www.w3.org/2000/svg">
    <g clip-path="url(#clip0)">
        <path d="M112.628 34.67C112.628 34.4712 112.628 34.2723 112.628 34.0403C113.523 33.0128 113.822 31.6538 114.319 30.4606C115.711 27.0797 117.037 23.6326 118.495 20.2849C119.059 19.0253 119.423 17.6664 119.788 16.3406C120.02 15.4788 119.191 14.385 118.694 14.7496C117.898 15.3131 117.037 15.2468 116.175 15.3131C115.479 15.3793 115.214 15.6445 115.214 16.3406C115.247 17.799 114.65 19.1248 114.186 20.4175C113.391 22.7045 112.429 24.9915 111.004 27.0134C109.015 29.8639 106.861 32.4824 103.712 34.2391C102.751 34.8026 101.359 34.4049 100.762 35.6312C100.166 35.6312 99.5358 35.6644 98.9392 35.6644C98.5415 35.4655 98.1769 35.1341 97.7791 35.0678C95.7241 34.67 94.796 33.3111 94.564 31.4218C94.1 27.7095 95.2932 24.3949 97.1162 21.2461C98.5415 18.7602 100.364 16.5726 102.618 14.6833C100.729 14.5176 98.8729 14.5839 97.0499 14.4844C95.8235 14.4181 95.3263 15.0479 94.9617 16.0754C94.1994 18.031 93.7354 20.0529 93.0393 22.0084C92.2438 24.2292 91.5477 26.4831 90.5865 28.6375C89.7579 30.4937 89.1944 32.4824 88.3989 34.3386C87.736 35.8633 86.7085 37.2885 86.3771 38.9789C85.5816 39.2773 85.0844 39.8739 84.7861 40.6694L84.7529 40.7025C84.1563 40.6362 83.7586 41.0671 83.2945 41.2991C82.1013 41.8626 80.908 42.4924 79.5491 42.3929C79.2508 42.3598 78.853 42.4924 78.7536 42.0615C78.6542 41.73 79.0188 41.6306 79.1513 41.4317C79.9137 40.3048 80.9412 39.3435 81.2726 37.9514C81.3058 37.7194 81.3389 37.5205 81.3721 37.2885C81.803 36.9571 82.2339 36.6256 82.0681 35.9958C82.1013 35.7307 82.1344 35.4655 82.1676 35.2004C83.3608 34.2391 83.3277 32.7476 83.858 31.4881C83.9906 31.1898 84.0237 30.8252 83.6591 30.5931C83.2945 30.3943 83.0294 30.6263 82.7642 30.8252C81.4715 31.7864 80.2451 32.7476 78.853 33.5762C78.0907 34.0403 76.9637 33.8745 76.5328 34.8689C76.2677 34.902 76.0357 34.902 75.7705 34.9352C74.3452 34.6369 73.152 35.6312 71.793 35.6312C71.4284 35.5981 71.0638 35.5981 70.6992 35.565C70.4672 34.438 69.3071 35.0346 68.7105 34.438C66.9869 32.7807 66.0589 27.7758 67.1858 25.4887C67.8819 24.0966 68.4785 22.6714 68.9094 21.1798C69.6054 21.1135 69.4728 20.55 69.5723 20.086C70.5998 19.1248 71.4284 17.9978 72.0582 16.7383C72.0913 16.6389 72.1576 16.5394 72.1908 16.44C72.688 16.4731 72.8537 16.208 72.8868 15.7439L72.9531 15.6777L72.92 15.5782C74.8756 14.7164 76.3671 13.0923 78.3227 12.1974C79.3502 11.7333 80.7092 12.2637 81.4715 11.1367C81.803 11.3024 82.1344 11.2693 82.4659 11.0704C82.5985 11.1367 82.7642 11.2362 82.8968 11.2693C86.0125 12.3962 86.5759 13.8878 84.9849 16.8377C83.0294 20.4838 79.8142 22.7376 76.2677 24.6601C74.511 25.6213 72.6548 26.2179 72.5222 28.8364C72.3897 31.1566 72.9863 32.2504 75.2733 32.2173C76.8974 32.2173 78.2896 31.5544 79.5822 30.7257C83.2945 28.3724 86.4433 25.4556 87.8686 21.1798C88.5315 19.2574 89.5259 17.4344 89.8905 15.4125C90.0231 14.7164 90.0231 14.385 89.1944 14.385C88.6972 14.385 87.968 14.849 87.8023 14.0867C87.7029 13.5895 88.5647 13.5895 88.8298 13.1917C89.095 12.794 89.5259 12.6614 89.9899 12.6614C90.8517 12.6283 91.2826 12.1974 91.7466 11.435C92.7741 9.71146 93.7022 7.9216 94.9949 6.33062C96.4864 4.50762 98.6077 3.48011 100.265 1.92227C100.431 1.85598 100.596 1.78968 100.762 1.69025C103.281 1.09363 105.833 0.530155 108.353 -0.0664639C108.783 -0.0664639 109.214 -0.0996094 109.645 -0.0996094C111.369 -0.0996094 112.993 0.530155 114.65 0.894756C117.236 1.42508 118.164 4.07672 116.606 6.26433C115.943 7.22555 115.18 8.08733 114.054 8.51822C113.59 8.7171 113.391 9.8109 112.661 9.0817C112.098 8.48508 112.893 8.08733 113.159 7.65644C114.087 6.29747 113.689 3.44696 112.396 2.7509C109.612 1.22621 106.828 1.55767 104.11 2.91663C100.895 4.54076 99.0718 7.35813 97.4477 10.4738C96.5527 12.1642 97.2819 12.0979 98.5414 12.0979C102.055 12.0648 105.601 12.2305 109.115 11.9322C109.579 11.8991 110.209 11.7002 110.308 12.4294C110.374 13.0592 110.142 13.4569 109.38 13.7221C108.485 13.9872 107.623 14.4513 106.828 15.1142C104.375 17.1692 103.049 19.8871 101.889 22.7376C100.994 24.9584 100.232 27.2123 100.099 29.6651C100.033 30.7257 100.232 31.6869 101.226 32.151C102.254 32.5819 103.215 32.2836 104.143 31.6206C106.264 30.1622 107.424 27.9746 108.452 25.787C109.977 22.5719 110.971 19.1248 110.971 15.4788C110.971 14.6501 111.369 14.4513 112.164 14.3187C113.987 14.0204 115.744 13.4238 117.534 13.0592C119.456 12.6614 121.279 11.7996 123.301 11.8328C124.494 11.8328 125.787 13.1586 125.29 14.0535C124.627 15.2136 125.025 16.672 124.03 17.7327C123.699 18.0973 123.732 18.727 124.229 19.2574C125.124 17.3018 126.682 15.976 127.875 14.4181C128.505 14.4181 129.002 14.2193 129.068 13.49C129.997 13.0923 130.925 12.7608 131.82 12.2968C135.002 10.7058 137.222 11.8991 137.521 15.3793C137.454 15.9097 137.421 16.4731 137.355 17.0035C137.123 17.2355 136.725 17.4012 136.659 17.6664C136.195 19.7214 134.902 21.3787 134.173 23.268C133.576 24.8258 132.217 26.1185 132.284 27.9746C132.217 28.1735 132.151 28.3724 132.085 28.5713C130.891 29.1016 130.925 30.5931 130.825 31.3223C130.626 33.0459 129.201 34.7363 130.328 36.6588C130.693 37.2554 130.361 38.1172 129.4 37.7857C127.212 37.0234 125.621 35.5981 125.522 32.9133C125.29 28.8364 127.643 25.5219 129.168 21.9422C129.93 20.1523 131.123 18.495 131.389 16.5063C131.422 16.1417 131.521 15.7108 131.09 15.4788C130.693 15.2799 130.295 15.4788 129.997 15.7108C128.604 16.7052 127.345 17.9315 126.384 19.2905C125.522 20.55 123.931 21.3455 123.798 23.1022C123.765 23.2017 123.699 23.3011 123.666 23.3674C123.666 23.4006 123.699 23.4668 123.699 23.5331C123.334 23.5663 123.102 23.7652 122.937 24.0635C122.207 25.4224 121.346 26.7151 120.716 28.1072C119.688 30.3611 118.296 32.4161 117.7 34.8689C117.733 34.902 117.766 34.9352 117.799 34.9352C117.766 34.902 117.733 34.8689 117.733 34.8358C116.009 34.8026 114.286 35.2004 112.628 34.67ZM74.2127 23.9972C74.5441 23.8977 74.7761 23.8646 74.975 23.732C77.9581 21.6107 80.7092 19.2905 81.9687 15.6445C82.267 14.8159 81.6704 14.4513 81.3058 13.9541C80.9743 13.49 80.3777 13.6889 79.9468 13.9209C78.5879 14.617 77.5604 15.6445 76.7317 17.0035C75.6048 18.8265 74.7098 20.7489 73.8812 22.7045C73.6823 23.1685 73.5166 23.7983 74.2127 23.9972Z" fill="#1F3846"/>
        <path d="M173.483 13.5894C173.682 13.5562 173.914 13.5231 174.113 13.4899C174.876 13.3905 175.505 12.9596 176.168 12.6613C178.422 11.7332 180.775 12.0315 183.063 11.7995C183.593 11.9652 184.123 12.0315 184.687 11.9321C185.118 12.7607 186.278 12.5619 186.742 13.3905C186.742 13.5562 186.709 13.722 186.709 13.8545C186.311 14.186 185.88 14.4512 185.648 15.0146C184.223 18.8595 182.466 22.5718 181.173 26.483C180.046 29.9301 179.052 33.3441 179.45 36.9901C179.549 37.7193 179.085 38.1833 178.522 37.885C177.792 37.4873 176.897 37.421 176.301 36.6586C175.041 35.134 174.71 33.4767 175.141 31.6205C175.306 30.9908 175.572 30.3941 174.942 29.7975C173.517 32.0514 171.395 33.4435 169.34 34.9351C169.175 34.9682 168.976 34.9682 168.81 35.0014C168.18 34.8688 167.782 35.1671 167.451 35.6311C166.357 35.4654 165.263 35.7637 164.17 35.0345C163.341 34.5042 162.777 34.0733 162.545 33.0458C162.148 31.3222 161.75 31.2228 160.457 32.2834C157.64 34.6036 154.491 35.9626 150.746 35.5648C150.547 34.7362 149.884 34.8688 149.287 34.8025C149.287 34.6699 149.221 34.6036 149.088 34.5705C148.425 33.7087 147.862 32.6149 147 32.0846C146.702 31.9188 145.575 33.1452 144.813 33.7087C144.614 33.8744 144.216 33.8413 144.083 34.007C143.387 35.0014 141.829 34.3385 141.266 35.5317H141.299C141.2 35.4654 141.1 35.4654 141.034 35.5648C140.802 35.598 140.603 35.598 140.371 35.6311C140.139 35.6311 139.94 35.6311 139.708 35.6311C139.178 35.598 138.614 35.598 138.084 35.5648C136.261 34.5705 135.399 33.0458 135.532 30.9576C135.598 30.4273 135.698 29.8638 135.764 29.3335C137.057 28.9357 136.228 27.7425 136.626 26.947C138.349 23.4667 139.973 19.9533 141.564 16.4067C142.526 14.2523 143.52 12.3298 146.404 12.6282C147.199 12.6944 147.995 12.2636 148.691 11.7995C149.42 12.1641 149.055 12.827 149.088 13.3574C148.591 13.3905 148.525 13.7551 148.359 14.1197C147.033 17.0034 145.575 19.8207 144.349 22.7375C143.288 25.2234 141.829 27.5436 141.498 30.2947C141.432 30.9245 141.233 31.72 141.896 32.0846C142.526 32.4492 143.321 32.184 143.918 31.7863C145.674 30.593 147.298 29.5324 147.729 26.9802C148.26 23.8976 149.884 21.0471 151.773 18.5281C155.452 13.5562 159.463 11.1366 165.628 11.9321C167.816 12.2304 168.545 14.0866 167.352 15.8764C166.49 17.1691 165.098 17.6994 164.037 18.6275C163.772 18.8595 163.142 18.9258 162.811 18.5281C162.479 18.0972 162.91 17.8651 163.241 17.6331C163.772 17.2685 163.507 16.5725 163.871 16.1416C164.534 15.3461 164.335 14.6832 163.639 14.0203C162.943 13.3574 162.247 13.6225 161.551 14.0203C159.695 15.0478 158.303 16.5393 157.242 18.3623C155.287 21.6769 153.397 25.0577 153.364 29.0683C153.331 31.8857 153.795 32.3166 156.579 32.2834C157.408 32.2834 157.441 31.5874 157.971 31.3554C161.617 29.5987 163.739 26.6156 164.766 22.7707C165.694 22.6712 165.429 21.8758 165.628 21.3123C165.959 21.2791 166.158 21.1466 166.125 20.782C167.086 20.0196 167.584 18.8595 168.313 17.8983C169.672 16.0753 171.826 15.1141 173.483 13.5894ZM167.849 29.5324C167.816 31.7531 168.28 31.952 169.804 31.5874C171.694 31.1234 172.622 29.6318 173.682 28.3391C175.903 25.6875 177.196 22.4724 178.654 19.3567C179.218 18.1635 179.781 16.9702 180.378 15.777C180.61 15.2798 180.709 14.7163 180.444 14.186C180.278 13.8214 179.914 13.8545 179.582 13.954C177.361 14.5506 175.439 15.6113 173.981 17.4011C172.257 19.5224 170.799 21.8095 169.672 24.2622C168.876 26.1184 167.981 28.0077 167.849 29.5324Z" fill="#1F3846"/>
        <path d="M84.3221 51.7393C86.0788 51.7724 87.8355 51.8387 89.5922 51.8387C97.8454 51.8387 106.132 51.8387 114.385 51.8387C114.882 51.8387 115.379 51.7724 115.843 51.7393C119.257 52.2364 122.738 51.9713 126.185 52.137C132.449 52.4353 138.747 52.3359 145.011 52.369C154.16 52.4022 163.308 52.4353 172.423 52.4685C179.649 52.5348 186.874 52.5679 194.1 52.6342C195.956 52.6342 197.845 52.6342 199.967 52.9988C198.442 53.9932 196.884 53.9932 195.393 54.0263C185.084 54.3578 174.776 54.1589 164.435 54.3578C139.841 54.8218 115.247 54.9544 90.6529 54.9212C76.1351 54.8881 61.6174 54.9875 47.1328 54.5898C33.0128 54.2252 18.8928 54.5566 4.77284 54.0263C3.24814 53.96 1.62401 53.9932 -0.0664062 52.9325C9.31377 52.3027 18.3293 52.7005 27.3449 52.4685C27.5769 52.5016 27.7758 52.5347 28.0078 52.5347C46.4367 52.4353 64.8988 52.4353 83.3277 51.9381C83.7254 51.9381 84.0237 51.8055 84.3221 51.7393Z" fill="#1F3846"/>
        <path d="M44.9124 5.23607L44.8461 5.33551C44.5478 5.33551 44.3489 5.50124 44.1832 5.73325C42.2939 8.61691 40.9349 11.7657 39.6754 14.9477C38.8799 16.9364 38.3496 18.9915 37.4878 20.947C36.7917 22.538 35.9631 24.129 35.4991 25.7531C34.3721 29.7637 33.1789 33.7744 31.2233 37.4535C29.566 40.5692 26.9475 42.7236 23.0363 42.4253C22.6717 42.3922 22.2077 42.5911 22.042 42.0939C21.9094 41.663 22.4729 41.663 22.6055 41.4641C23.2684 40.2377 24.6605 39.4091 24.561 37.7518V37.785C24.7931 37.6524 25.1245 37.5529 25.224 37.3541C26.1852 34.9344 27.0801 32.4817 28.0082 30.0289C28.9031 27.6424 29.6655 25.1897 30.693 22.8695C31.5547 20.9139 32.3502 18.9252 33.0794 16.9033C33.6761 15.246 34.1069 13.5224 34.9687 11.9978C36.8249 8.78264 38.8468 5.63382 42.5259 3.87711C42.1945 3.67823 42.095 3.54565 41.9624 3.54565C38.7805 3.54565 35.5653 3.54565 32.3834 3.5788C31.9856 3.5788 31.4553 3.5125 31.4222 4.17542C31.0907 4.04283 30.7593 4.07598 30.4609 4.27485C26.5829 4.47372 23.4672 6.09785 21.1471 9.18039C19.8212 10.9371 19.1583 12.9258 19.7218 15.1134C19.8544 15.5775 20.3184 16.0415 19.9538 16.4393C19.5892 16.837 19.0589 16.4061 18.5949 16.3067C18.0645 16.1741 17.6336 15.9752 17.1696 15.6106C15.3797 14.1854 15.1146 12.2629 15.1809 10.2079C15.1809 10.0422 15.214 9.90959 15.214 9.74386C16.341 9.4787 16.0095 8.3186 16.5067 7.62255C19.7549 3.11476 24.5942 1.78894 29.6323 0.993446C31.8531 0.628846 34.1401 0.728282 36.394 0.728282C43.5534 0.661991 50.746 0.695137 57.9054 0.661991C58.502 0.661991 59.2644 0.993446 59.629 0.164809C60.1925 0.363682 60.6896 0.197954 61.1868 0.0322266C61.7834 0.2311 62.5458 -0.266083 63.0761 0.496264C62.7778 0.827719 62.5126 1.29176 62.1149 1.55692C60.325 2.61758 58.4357 3.41307 56.3144 3.5125C53.9611 3.61194 51.5746 3.5788 49.2213 3.61194C48.5584 3.61194 47.8955 3.61194 47.2326 3.61194C45.9067 3.28049 45.3101 4.10912 44.9124 5.23607Z" fill="#1F3846"/>
        <path d="M72.0251 7.52325L71.9919 7.62269C71.6273 7.72212 71.2627 7.82156 71.1964 8.31874C70.9644 9.71085 70.1689 10.8709 69.6717 12.1305C69.6386 12.2299 69.6054 12.3625 69.5723 12.4619C69.4397 13.0917 68.6442 13.39 68.7105 14.1524C68.6111 14.5501 68.5116 14.9478 68.4122 15.3456C67.4178 15.8759 67.3847 17.036 66.9538 17.8647C65.7606 20.218 64.7662 22.7039 63.8381 25.1898C63.1089 27.2117 62.3134 29.2004 61.6837 31.2554C61.0871 33.211 60.9545 35.1003 60.9213 37.089C60.9213 37.6194 61.0208 38.3154 59.927 37.7188C56.9107 36.161 55.8501 34.2717 56.513 30.924C56.5793 30.5594 56.7118 30.1616 56.2147 29.797C53.5299 33.0453 49.7844 34.4374 45.9064 35.6638C45.6744 35.6638 45.4755 35.6638 45.2435 35.6638C45.0115 35.6638 44.8126 35.6638 44.5806 35.6638C44.2823 35.6306 43.9508 35.5975 43.6525 35.5644C43.5199 34.8683 43.1222 34.7357 42.5587 35.1335L42.4924 35.1666L42.5256 35.266C42.4924 34.7689 42.1278 34.5368 41.7964 34.2385C40.2717 32.747 39.4099 30.9903 39.8076 28.8358C40.2385 26.5156 40.9014 24.2617 41.8295 22.1073C41.8627 22.0741 41.8958 22.0078 41.9289 21.9747C41.9952 21.8421 42.0947 21.6764 42.161 21.5438C42.3267 21.2123 42.4593 20.914 42.625 20.5826C42.8902 20.5826 43.0559 20.45 43.0227 20.1848L43.089 20.1185L43.0559 20.0523C43.6525 19.7871 43.8845 19.1905 44.216 18.6933C46.8013 14.7821 50.3148 12.1968 55.0546 11.6664C57.9714 11.335 59.4629 12.5614 59.1315 14.8816C58.9989 15.8096 58.5348 16.7708 58.0045 17.5995C55.7175 21.2123 52.3698 23.6983 48.6243 25.4218C45.1441 27.0128 45.7738 28.0735 45.7738 30.924C45.7738 31.7195 46.503 32.2167 47.3317 32.3824C48.6243 32.6475 49.5856 32.3824 50.0496 31.6532V31.4875C50.7125 31.6532 51.276 31.4212 51.8394 31.0897C53.795 29.9628 55.2203 28.2723 56.745 26.6482C58.5017 24.7589 59.5292 22.505 60.4904 20.1517C61.7168 17.1686 63.0758 14.2186 64.4016 11.2687C65.2965 9.27996 66.2246 7.32438 67.1195 5.36879C68.0145 3.41321 70.1689 3.51264 72.0914 3.34692C73.384 3.24748 73.4503 3.61208 72.92 4.54015C72.8537 4.97105 72.8206 5.40194 72.7543 5.83283C71.7268 6.06485 72.1245 6.89349 72.0251 7.52325ZM47.2654 23.7314C47.8951 23.8971 48.3923 23.6983 48.9226 23.3005C50.8451 21.9747 52.4029 20.2511 53.9276 18.5276C54.7563 17.5663 55.3529 16.2405 55.1209 14.749C54.9883 13.9203 54.4579 13.4894 53.795 13.8209C53.1653 14.1192 52.3035 14.2186 51.972 14.6827C49.8176 17.4006 47.63 20.1185 47.2654 23.7314C46.9671 23.7646 46.8345 23.9303 46.9339 24.2286C46.9339 24.2617 47.0996 24.2617 47.1659 24.2949C47.1991 24.1292 47.2322 23.9303 47.2654 23.7314Z" fill="#1F3846"/>
        <path d="M82.2007 85.4155C80.4439 85.9459 80.1456 84.3217 79.549 83.3937C78.0243 80.8746 76.6322 78.2561 75.2401 75.6708C74.8424 74.9416 74.5441 75.1073 74.1795 75.5713C73.9474 75.8696 73.7154 76.2674 73.7154 76.5988C73.7817 78.9853 72.7211 81.2061 72.6548 83.5925C72.6216 85.1835 70.1026 86.3436 68.843 85.3824C68.3459 85.0178 68.4121 84.3549 68.5779 83.8577C69.6385 80.0128 69.7048 75.9691 70.8981 72.1573C71.2295 71.1298 70.9975 69.9697 71.1301 68.8759C71.2627 68.0473 71.2958 66.8872 72.4227 66.8872C73.4834 66.8872 74.7098 66.1911 75.5384 68.0473C76.8642 71.0304 78.7535 73.7815 80.3777 76.6651C80.6097 77.096 80.7423 77.4606 81.2726 77.3943C81.9686 77.2949 81.9686 76.7314 81.9355 76.2674C81.7698 73.6489 83.0293 71.2293 83.0293 68.6439C83.0293 67.1524 85.5484 66.1248 86.841 66.9535C87.3051 67.2518 87.1725 67.7158 87.1393 68.1467C87.0068 70.4669 86.2775 72.6545 85.9461 74.9416C85.5483 77.7258 84.9186 80.51 84.5208 83.3274C84.3551 84.62 84.0568 85.8464 82.2007 85.4155Z" fill="#1F3846"/>
        <path d="M102.42 96.1551C102.619 98.8399 101.127 100.497 98.9063 101.624C98.5085 101.823 98.0445 101.823 98.376 102.519C99.1052 104.143 99.8012 105.8 100.497 107.425C101.127 108.883 100.895 109.248 99.2709 109.248C96.3541 109.248 96.4204 109.214 95.4592 106.198C95.1608 105.27 94.7299 104.408 94.5642 103.414C94.4316 102.685 93.7687 102.519 93.0395 102.453C92.1115 102.353 92.0783 102.983 91.9126 103.513C91.4817 104.872 91.3491 106.298 91.2828 107.723C91.2165 108.85 90.7193 109.314 89.6255 109.214C89.3604 109.181 89.0621 109.214 88.7969 109.214C86.4436 109.214 86.7087 109.248 86.9076 106.994C87.1065 104.806 87.7362 102.718 87.9683 100.53C88.3329 97.4477 89.0621 94.3984 89.6255 91.3158C89.6918 90.8849 89.8576 90.5535 90.3547 90.5866C93.2715 90.8518 96.2878 89.9568 99.1715 91.2495C101.724 92.4096 102.453 93.3377 102.42 96.1551ZM95.0945 93.9675C93.6693 93.6692 92.7744 94.1332 93.0064 95.9893C93.0727 96.5197 92.9732 97.0831 92.8075 97.6135C92.2109 99.337 92.7081 99.9005 94.4979 99.569C94.9951 99.4696 95.426 99.3039 95.9232 99.1713C97.713 98.6741 98.376 97.6135 98.1439 95.6579C97.9119 93.9343 96.6192 93.9343 95.0945 93.9675Z" fill="#1F3846"/>
        <path d="M17.5678 78.5213C17.402 73.4832 18.9267 69.6715 22.9042 67.3513C24.694 66.2907 26.8485 66.0586 29.0693 66.3901C35.0023 67.2519 35.3006 73.8147 34.0079 77.8253C33.345 79.8472 32.6821 81.7696 31.1906 83.3274C28.5058 86.2111 21.3795 86.5426 18.993 83.46C17.6341 81.7696 17.5346 79.9466 17.5678 78.5213ZM30.2956 74.113C30.2956 73.7815 30.2625 73.4501 30.2956 73.1186C30.5608 71.5608 29.4339 70.3013 27.8429 69.7709C26.8154 69.4395 24.2632 70.467 23.7328 71.4945C22.4402 73.9473 21.5784 76.5326 21.8767 79.3831C21.9761 80.5101 22.4733 81.5707 23.4345 81.869C24.5283 82.2668 25.8541 82.4657 26.9811 81.5707C29.5001 79.6814 30.0305 76.9635 30.2956 74.113Z" fill="#1F3846"/>
        <path d="M49.9165 92.2436C49.6182 95.3924 49.1211 98.5081 48.2593 101.591C47.9278 102.817 47.8615 104.077 47.4638 105.369C46.37 108.949 41.1993 110.308 38.4813 109.612C37.1224 109.28 35.6971 109.081 34.6365 108.021C32.6809 105.999 32.6477 103.579 33.1449 101.027C33.609 98.5081 34.2056 96.0222 34.5039 93.4699C34.8353 90.7852 36.0617 89.8571 38.6139 90.6857C39.1774 90.8846 39.4094 91.2161 39.2768 91.8127C38.4813 95.3261 38.1499 98.9058 37.255 102.386C36.7246 104.441 37.7853 105.9 39.6746 106.264C41.7627 106.662 43.4532 105.469 43.9172 103.48C44.6464 100.331 45.6408 97.2485 45.5413 94.0003C46.138 93.5031 46.2374 92.7739 46.3037 92.0778C46.4031 90.1222 47.8615 90.9177 48.8559 90.7852C50.1486 90.52 49.784 91.5475 49.9165 92.2436Z" fill="#1F3846"/>
        <path d="M62.0811 66.8216C63.8378 66.8216 65.6277 66.8547 67.3844 66.8216C68.4782 66.7884 68.5776 67.2525 68.2462 68.1474C67.749 69.4732 67.1192 70.3681 65.3957 70.1361C63.9373 69.9373 62.4126 70.0698 60.921 70.103C59.5621 70.1361 59.098 71.0642 59.098 73.0529C59.098 74.4782 60.0592 74.2462 60.921 74.2462C61.8491 74.2462 62.8103 74.2793 63.7384 74.213C64.5339 74.1467 65.1305 74.3124 65.0311 75.2074C64.8985 76.1023 65.4288 77.4944 63.8378 77.627C62.4126 77.7596 60.9542 77.7264 59.5289 77.6601C58.6008 77.627 58.2031 77.9253 58.2031 78.8534C58.2031 79.2511 58.1036 79.6157 58.0042 79.9803C57.5402 82.1016 57.5402 82.1016 59.6946 82.1016C61.2525 82.1016 62.7772 82.0685 64.335 82.1348C64.9648 82.1679 66.0254 81.8033 65.8266 83.0297C65.694 83.9578 65.9923 85.4493 64.5007 85.4825C60.8547 85.5819 57.2087 85.5488 53.5959 85.5156C52.6678 85.5156 52.3695 84.9521 52.6015 84.0572C53.2644 81.6376 53.629 79.1848 54.0599 76.7321C54.5902 73.6164 55.1868 70.5007 55.7503 67.3851C55.8829 66.7221 56.3801 66.8879 56.7778 66.8879C58.5345 66.7884 60.3244 66.7884 62.0811 66.8216C62.0811 66.8216 62.0811 66.7884 62.0811 66.8216Z" fill="#1F3846"/>
        <path d="M81.9685 107.457C80.3444 108.883 78.3557 109.711 76.2675 109.711C70.5002 109.744 67.5171 107.159 68.7766 100.696C69.3069 97.9777 69.8704 95.2267 70.2019 92.4756C70.4007 91.0503 70.9311 90.4206 72.3563 90.6194C72.6215 90.6526 72.9198 90.6194 73.185 90.6194C75.1406 90.6194 75.008 90.6194 74.6102 92.5087C74.0136 95.4255 73.6822 98.4086 73.1518 101.359C72.953 102.452 72.3232 103.513 72.9861 104.64C73.9473 106.264 75.7372 106.828 78.3888 105.369C78.6871 104.971 79.4826 104.905 79.2837 104.11C79.5158 103.579 79.6815 103.049 79.5821 102.452C80.6427 101.889 80.1455 100.961 80.1787 100.132C80.2118 99.6019 80.245 99.0384 80.3113 98.5081C81.2393 97.5469 81.2062 96.3868 81.1068 95.1604C81.1068 94.8289 81.1399 94.4975 81.1399 94.1992C81.6371 93.5031 81.8691 92.7407 81.9022 91.9121C81.9354 91.4812 81.8691 91.0172 82.3663 90.752C83.7915 89.9897 85.4157 90.9177 85.5151 92.5419C85.482 93.1385 85.482 93.7683 85.4488 94.3649C84.7859 95.3261 84.4544 96.3536 84.6533 97.5137C84.6533 97.8452 84.6202 98.1766 84.6202 98.5081C84.2887 99.7013 83.5264 100.795 83.7915 102.154C83.7584 102.486 83.7584 102.784 83.7252 103.115C83.7252 103.248 83.6921 103.347 83.6921 103.48C83.659 103.712 83.659 103.944 83.6258 104.176C82.6646 105.038 82.7309 106.463 81.9685 107.457Z" fill="#1F3846"/>
        <path d="M110.275 109.248C108.552 109.248 106.861 109.215 105.138 109.248C104.309 109.248 103.746 109.016 104.11 108.121C105.071 105.867 104.839 103.414 105.403 101.061C105.933 99.039 106.265 96.8846 106.563 94.7964C106.662 94.1998 106.629 93.57 106.729 93.0065C107.126 90.8521 107.392 90.6532 109.579 90.6532C112.43 90.6532 115.313 90.6532 118.164 90.6532C118.794 90.6532 119.457 90.5869 119.854 91.2498C118.76 91.8464 120.186 94.0672 118.064 94.0341C116.076 94.0009 114.087 94.0672 112.131 94.0009C111.236 93.9678 110.905 94.2329 110.839 95.1941C110.607 98.2435 110.574 98.2435 113.722 98.2435C113.954 98.2435 114.153 98.2435 114.385 98.2435C116.971 98.2435 117.136 98.5087 116.076 100.928C115.811 101.558 115.512 101.757 114.849 101.724C113.755 101.691 112.662 101.691 111.535 101.691C109.778 101.691 108.32 104.177 109.148 105.701C109.413 106.198 109.877 106.066 110.308 106.066C112.065 106.066 113.822 106.066 115.612 106.099C116.308 106.099 117.468 106.033 117.169 106.961C116.904 107.789 117.169 109.347 115.479 109.314C113.789 109.215 112.032 109.248 110.275 109.248Z" fill="#1F3846"/>
        <path d="M37.819 85.4494C36.3274 85.8471 35.8302 85.2174 36.1285 83.4606C36.6589 80.5107 37.2555 77.5607 37.6864 74.6108C37.9847 72.39 38.7802 70.2356 38.7802 67.9817C38.7802 67.1531 39.0785 66.7885 39.9403 66.8216C42.4262 66.8547 44.9121 66.689 47.3649 66.921C50.2154 67.1862 52.635 70.0036 51.7069 73.285C50.5468 77.395 48.5912 78.8203 44.2823 78.8534C43.6857 78.8534 43.0559 78.9197 42.4593 78.8534C41.6307 78.7871 41.2992 79.1186 41.1998 79.9472C41.0341 81.3393 40.4043 82.6652 40.4374 84.1236C40.4706 85.7477 39.1116 85.4494 37.819 85.4494ZM42.161 73.6164C42.0284 75.7377 42.0616 75.7377 44.1497 75.4726C44.5806 75.4063 45.0447 75.4063 45.4756 75.3068C46.6025 75.0417 47.1991 74.3456 47.3649 73.1855C47.5306 72.1912 47.7295 71.0311 46.8677 70.4013C44.5475 68.6777 42.4262 69.7053 42.1942 72.6221C42.1942 72.9535 42.1942 73.285 42.161 73.6164Z" fill="#1F3846"/>
        <path d="M60.5892 90.6193C62.8099 90.6193 64.9975 90.6856 67.2183 90.5861C68.5109 90.5198 68.6104 91.2159 68.3784 92.1108C68.08 93.2709 67.5829 94.0664 66.0582 94.0001C62.2133 93.8675 62.3459 93.967 61.5835 97.7456C60.9206 101.126 60.1914 104.474 59.86 107.921C59.7605 108.882 59.2633 109.28 58.3353 109.247C58.0038 109.247 57.6724 109.247 57.3409 109.214C54.9213 109.181 55.0207 109.214 55.551 106.794C55.8825 105.303 56.0814 103.745 56.2471 102.253C56.5123 99.9 57.2746 97.6461 57.4072 95.2928C57.4735 94.2984 57.2083 93.8675 56.1808 93.9338C55.4848 94.0001 54.7556 94.0001 54.0264 93.9338C53.3303 93.8344 52.1039 94.5305 52.2365 92.8732C52.3359 91.5805 52.3028 90.4536 54.1258 90.553C56.3134 90.7187 58.4679 90.6193 60.5892 90.6193Z" fill="#1F3846"/>
        <path d="M28.7038 100.829C28.6376 101.392 28.4718 101.757 27.7758 101.691C27.1791 101.624 26.5494 101.691 25.9528 101.658C22.5056 101.658 22.3068 101.823 21.909 105.304C21.8759 105.569 21.8759 105.867 21.8759 106.132C21.7101 109.215 20.6163 109.977 17.5338 109.215C16.8046 109.049 16.904 108.718 17.0366 108.154C17.6664 105.469 18.1304 102.718 18.4619 99.9671C18.8265 97.0503 19.5557 94.1998 20.1192 91.283C20.2517 90.5869 20.7489 90.6201 21.2461 90.6201C24.5607 90.6201 27.8421 90.6201 31.1566 90.5869C31.8527 90.5869 32.3498 90.8852 32.151 91.515C31.919 92.3768 32.615 93.8683 30.9246 93.9346C29.1016 94.0009 27.2786 93.9678 25.4887 93.9678C24.8258 93.9678 24.0966 93.9015 23.8646 94.7301C23.5331 95.7908 23.5663 96.8846 23.6326 97.9784C23.6326 98.0778 24.2292 98.1772 24.5275 98.1772C25.9196 98.1772 27.2786 98.1772 28.6707 98.1772C29.1679 99.039 28.4718 99.9671 28.7038 100.829Z" fill="#1F3846"/>
        <path d="M123.467 112.628C121.976 112.628 120.484 112.628 118.993 112.628C118.396 112.628 117.6 112.926 117.7 111.766C117.799 110.871 117.899 110.076 119.026 110.076C121.18 110.076 123.335 110.076 125.489 110.076C126.318 110.076 127.146 110.009 127.975 110.076C128.605 110.142 129.599 109.612 129.533 111.037C129.467 112.164 129.235 112.761 127.909 112.661C126.45 112.562 124.959 112.628 123.467 112.628Z" fill="#1F3846"/>
        <path d="M147.397 6.16477C147.397 4.40806 149.022 2.65135 150.546 2.71764C151.673 2.75078 152.601 3.81144 152.568 5.03783C152.535 6.72825 150.679 8.55125 149.287 8.5181C148.193 8.45181 147.397 7.49059 147.397 6.16477Z" fill="#1F3846"/>
    </g>
    <defs>
        <clipPath id="clip0">
            <rect width="200" height="112.662" fill="white"/>
        </clipPath>
    </defs>
</svg>
