<svg width="256" height="209" viewBox="0 0 256 209" fill="none" xmlns="http://www.w3.org/2000/svg">
    <path d="M256 25.4503C246.581 29.6275 236.458 32.4508 225.834 33.7205C236.678 27.2201 245.006 16.9273 248.927 4.66334C238.78 10.6815 227.539 15.0526 215.576 17.4086C205.995 7.20096 192.345 0.822266 177.239 0.822266C148.233 0.822266 124.716 24.3379 124.716 53.3426C124.716 57.459 125.181 61.4676 126.077 65.3115C82.4258 63.1213 43.7257 42.2117 17.8214 10.4362C13.3005 18.1933 10.7104 27.2154 10.7104 36.8406C10.7104 55.0618 19.9835 71.1378 34.0762 80.556C25.4661 80.2835 17.3682 77.921 10.2863 73.9872C10.2825 74.2063 10.2825 74.4264 10.2825 74.6474C10.2825 100.095 28.3867 121.323 52.4136 126.147C48.006 127.347 43.3662 127.989 38.5756 127.989C35.1915 127.989 31.901 127.66 28.6948 127.047C35.3778 147.913 54.7742 163.098 77.757 163.522C59.782 177.608 37.1354 186.005 12.5289 186.005C8.28987 186.005 4.10888 185.757 0 185.272C23.2431 200.173 50.8507 208.868 80.5109 208.868C177.117 208.868 229.944 128.837 229.944 59.4329C229.944 57.1556 229.893 54.8904 229.792 52.6384C240.053 45.2334 248.958 35.9828 256 25.4503Z" fill="white"/>
</svg>
