<svg width="250" height="100" viewBox="0 0 250 100" fill="none" xmlns="http://www.w3.org/2000/svg">
<rect x="0.65332" width="249" height="100" rx="12" fill="#F9F9F9"/>
<g clip-path="url(#clip0_2986_65960)">
<path fill-rule="evenodd" clip-rule="evenodd" d="M122.951 20.0288C114.948 20.7558 107.8 24.3292 102.703 30.1509C90.7312 43.8251 93.4885 64.6637 108.615 74.8327C118.515 81.4879 131.69 81.5186 141.61 74.9095C148.725 70.1695 153.392 62.9651 154.759 54.6111C155.196 51.9423 155.16 47.4592 154.681 44.7797C152.17 30.743 140.271 20.4527 126.058 20.0288C124.771 19.9904 123.373 19.9904 122.951 20.0288ZM128.065 21.0327C128.862 21.0858 130.396 21.3251 131.474 21.5647C143.907 24.3288 153.327 35.2403 154.119 47.794C154.59 55.2773 152.496 62.1355 147.976 67.9066C147.609 68.3753 146.603 69.4753 145.741 70.3507C141.685 74.4681 136.766 77.1462 130.905 78.4267C129.39 78.7579 128.672 78.8053 125.167 78.8053C121.654 78.8053 120.947 78.7584 119.415 78.4238C115.838 77.6426 112.362 76.2176 109.527 74.3699C107.561 73.0889 106.799 72.4772 104.995 70.73C100.71 66.5823 97.9648 61.6189 96.6671 55.6763C96.3325 54.1439 96.2856 53.4372 96.2856 49.9236C96.2856 46.4189 96.333 45.7013 96.6642 44.1855C97.9447 38.3252 100.623 33.4054 104.74 29.3499C107.974 26.1653 111.123 24.1495 115.281 22.6028C118.344 21.4637 122.961 20.706 125.764 20.8827C126.233 20.9124 127.268 20.9799 128.065 21.0327ZM122.981 40.5631C122.576 40.7692 122.082 41.157 121.884 41.4249C121.386 42.0984 121.247 42.0374 121.247 41.1452C121.247 40.4919 121.196 40.3782 120.906 40.3782C120.586 40.3782 120.565 40.4919 120.565 42.2629C120.565 44.7157 120.355 45.5203 119.473 46.4387C118.639 47.3078 117.86 47.5231 116.94 47.1386C116.106 46.7903 115.965 46.1883 115.964 42.9776L115.963 40.3782H115.523H115.084L115.14 43.5742C115.201 47.0738 115.307 47.4751 116.269 47.855C117.713 48.425 118.726 48.2048 119.815 47.0842L120.565 46.3127V47.1807C120.565 47.9349 120.61 48.0486 120.906 48.0486C121.223 48.0486 121.247 47.9349 121.247 46.4525C121.247 43.5105 121.773 42.089 123.115 41.4043C124.082 40.9112 124.75 40.9572 125.351 41.5582L125.849 42.0565V45.0526V48.0486H126.275H126.701L126.699 44.9378C126.697 42.8084 126.63 41.6978 126.486 41.4173C125.914 40.3045 124.276 39.9053 122.981 40.5631ZM129.932 40.4339C129.599 40.5439 129.169 40.7489 128.977 40.8895C128.548 41.2028 128.013 42.2024 128.153 42.4286C128.347 42.7422 128.863 42.5931 129.057 42.1676C129.649 40.8677 132.27 40.6492 132.819 41.8538C133.035 42.3289 133.07 42.9336 132.88 42.9377C132.81 42.9391 132.046 43.0894 131.182 43.2718C128.606 43.8157 127.72 44.4805 127.727 45.8668C127.736 47.9721 130.697 48.9403 132.496 47.4263C132.786 47.1827 133.038 47.0123 133.058 47.0474C133.077 47.0825 133.178 47.2645 133.281 47.452C133.384 47.6395 133.657 47.9002 133.887 48.0311C134.246 48.2351 134.378 48.2348 134.808 48.0287C135.555 47.6704 135.462 47.2816 134.627 47.2816H133.946L133.86 44.4382C133.784 41.8969 133.737 41.5439 133.418 41.1144C132.806 40.2906 131.272 39.9909 129.932 40.4339ZM132.976 44.917C132.91 45.9555 132.855 46.0922 132.291 46.6086C131.166 47.6392 129.165 47.519 128.731 46.3949C128.322 45.3374 129.064 44.5911 130.987 44.126C133.107 43.6132 133.06 43.5947 132.976 44.917ZM107.173 51.2733C105.28 51.7393 104.134 53.6404 104.433 55.8181C104.889 59.151 108.798 60.2714 110.803 57.6439C111.245 57.0631 111.25 57.0365 110.937 56.8078C110.499 56.4877 110.465 56.4993 110.135 57.0802C109.672 57.8926 108.861 58.3071 107.896 58.2239C107.442 58.1849 106.869 58.0018 106.618 57.8153C105.96 57.3278 105.395 56.4267 105.395 55.8643V55.3782H108.377H111.36L111.359 54.8242C111.357 53.4938 110.564 52.0973 109.503 51.5544C108.904 51.2481 107.811 51.1161 107.173 51.2733ZM124.695 51.2803C123.133 51.6607 122.1 53.0213 121.968 54.8713C121.898 55.8452 121.951 56.163 122.313 56.9535C123.857 60.3265 128.517 59.5385 129.027 55.8181C129.417 52.9732 127.215 50.6661 124.695 51.2803ZM132.944 51.3672C132.581 51.4968 132.025 51.8535 131.708 52.1602L131.133 52.7177V52.0025C131.133 51.3532 131.094 51.2873 130.707 51.2873H130.281V56.4861V61.685H130.707H131.133V59.707V57.7293L131.715 58.2403C133.372 59.6948 135.567 59.2374 136.691 57.2034C137.331 56.0464 137.381 54.3205 136.806 53.2313C136.331 52.332 135.405 51.524 134.589 51.2975C133.793 51.0764 133.756 51.078 132.944 51.3672ZM140.633 51.3023C139.784 51.5024 139.183 51.9123 138.88 52.4973C138.518 53.1981 138.566 53.5032 139.041 53.5032C139.333 53.5032 139.479 53.383 139.555 53.0801C139.748 52.3088 141.377 51.7794 142.458 52.1363C143.123 52.3555 143.406 52.7331 143.406 53.4002C143.406 53.8702 143.188 53.9603 141.085 54.3621C139.034 54.754 137.962 55.804 138.219 57.1707C138.597 59.1892 141.512 59.8149 143.19 58.2381C143.41 58.0322 143.576 57.9655 143.576 58.0835C143.576 58.4515 144.399 59.1282 144.847 59.1282C145.297 59.1282 146.077 58.5041 145.877 58.3044C145.815 58.2418 145.444 58.1907 145.053 58.1907H144.343L144.258 55.2536C144.174 52.3719 144.165 52.3083 143.731 51.8753C143.062 51.207 141.928 50.9973 140.633 51.3023ZM112.556 54.3981C112.558 56.5276 112.625 57.6381 112.769 57.9186C113.555 59.4478 116.22 59.4677 117.34 57.9526C117.555 57.6616 117.794 57.4236 117.87 57.4236C117.946 57.4236 118.008 57.7688 118.008 58.1907C118.008 58.844 118.059 58.9577 118.349 58.9577C118.669 58.9577 118.69 58.8437 118.691 57.1253C118.691 56.1176 118.769 55.0155 118.863 54.6763C119.231 53.3525 120.464 52.1395 121.442 52.1395C121.847 52.1395 121.929 52.0683 121.929 51.7134C121.929 51.3708 121.844 51.2873 121.496 51.2873C120.842 51.2873 119.809 51.8822 119.218 52.5996L118.69 53.24V52.2636C118.69 51.4236 118.645 51.2873 118.371 51.2873C118.08 51.2873 118.046 51.4814 117.974 53.5458C117.892 55.9093 117.727 56.5131 116.923 57.3972C116.003 58.4085 114.699 58.5728 113.904 57.7777L113.406 57.2794V54.2834V51.2873H112.98H112.554L112.556 54.3981ZM109.3 52.4431C109.823 52.8326 110.287 53.5915 110.366 54.185L110.423 54.6111L107.909 54.6584C105.462 54.7042 105.395 54.696 105.395 54.3515C105.395 53.5961 106.232 52.5154 107.099 52.1518C107.687 51.9053 108.771 52.0487 109.3 52.4431ZM126.872 52.4624C128.25 53.4493 128.593 55.6872 127.599 57.2049C127.249 57.7385 126.181 58.2759 125.47 58.2759C123.108 58.2759 121.952 54.8477 123.658 52.9047C124.494 51.9517 125.89 51.7596 126.872 52.4624ZM134.916 52.3274C135.456 52.6168 136.075 53.6123 136.23 54.4422C136.712 57.0226 134.55 59.0602 132.498 57.9597C130.479 56.8765 130.772 52.7905 132.916 52.1452C133.467 51.9793 134.429 52.0669 134.916 52.3274ZM143.406 55.7663C143.406 57.0174 143.169 57.4472 142.208 57.9372C141.116 58.4946 139.542 58.2626 139.25 57.5012C138.984 56.8069 139.141 56.0857 139.635 55.7339C140.039 55.446 142.394 54.7695 143.193 54.7117C143.342 54.701 143.406 55.0158 143.406 55.7663Z" fill="#181B5E"/>
</g>
<defs>
<clipPath id="clip0_2986_65960">
<rect width="59.8295" height="60" fill="white" transform="translate(95.2383 20)"/>
</clipPath>
</defs>
</svg>
