<svg width="351" height="352" viewBox="0 0 351 352" fill="none" xmlns="http://www.w3.org/2000/svg">
    <path fill-rule="evenodd" clip-rule="evenodd" d="M162.583 0.16875C115.629 4.43375 73.6934 25.3978 43.7924 59.5518C-26.4416 139.774 -10.2656 262.027 78.4764 321.685C136.554 360.729 213.849 360.909 272.05 322.136C313.79 294.328 341.169 252.062 349.188 203.052C351.751 187.395 351.542 161.094 348.73 145.374C334.002 63.0257 264.189 2.65575 180.811 0.16875C173.261 -0.05625 165.058 -0.05625 162.583 0.16875ZM192.583 6.05875C197.258 6.36975 206.258 7.77375 212.583 9.17975C285.524 25.3957 340.789 89.4097 345.432 163.058C348.199 206.96 335.911 247.195 309.396 281.052C307.242 283.802 301.341 290.255 296.282 295.391C272.49 319.546 243.627 335.258 209.247 342.77C200.354 344.713 196.144 344.991 175.583 344.991C154.97 344.991 150.824 344.716 141.834 342.753C120.85 338.17 100.458 329.81 83.8244 318.97C72.2934 311.455 67.8244 307.866 57.2374 297.616C32.1034 273.283 15.9954 244.164 8.38242 209.301C6.41942 200.311 6.14442 196.165 6.14442 175.552C6.14442 154.991 6.42242 150.781 8.36542 141.888C15.8774 107.508 31.5894 78.6448 55.7444 54.8528C74.7134 36.1698 93.1884 24.3437 117.583 15.2697C135.551 8.58675 162.64 4.14175 179.083 5.17875C181.833 5.35275 187.908 5.74875 192.583 6.05875ZM162.758 120.637C160.38 121.846 157.483 124.121 156.32 125.693C153.399 129.644 152.583 129.286 152.583 124.052C152.583 120.219 152.287 119.552 150.583 119.552C148.704 119.552 148.583 120.219 148.583 130.609C148.583 144.999 147.349 149.719 142.178 155.107C137.285 160.206 132.713 161.469 127.314 159.213C122.424 157.17 121.595 153.638 121.589 134.802L121.583 119.552H119.005H116.427L116.755 138.302C117.114 158.833 117.735 161.187 123.382 163.416C131.849 166.76 137.796 165.468 144.184 158.894L148.583 154.368V159.46C148.583 163.885 148.845 164.552 150.583 164.552C152.441 164.552 152.583 163.885 152.583 155.188C152.583 137.928 155.669 129.589 163.544 125.572C169.215 122.679 173.134 122.949 176.66 126.475L179.583 129.398V146.975V164.552H182.083H184.583L184.568 146.302C184.558 133.809 184.164 127.294 183.318 125.648C179.963 119.12 170.353 116.778 162.758 120.637ZM203.534 119.879C201.582 120.524 199.062 121.727 197.933 122.552C195.418 124.39 192.281 130.254 193.101 131.581C194.238 133.421 197.265 132.546 198.402 130.05C201.876 122.424 217.253 121.142 220.473 128.209C221.742 130.996 221.944 134.544 220.833 134.568C220.421 134.576 215.938 135.458 210.871 136.528C195.755 139.719 190.561 143.619 190.598 151.752C190.653 164.103 208.025 169.783 218.58 160.901C220.278 159.472 221.761 158.472 221.875 158.678C221.99 158.884 222.577 159.952 223.182 161.052C223.786 162.152 225.387 163.681 226.739 164.449C228.846 165.646 229.618 165.644 232.14 164.435C236.527 162.333 235.977 160.052 231.083 160.052H227.083L226.583 143.371C226.136 128.462 225.861 126.391 223.989 123.871C220.4 119.038 211.395 117.28 203.534 119.879ZM221.394 146.18C221.006 152.272 220.682 153.074 217.375 156.104C210.778 162.15 199.037 161.445 196.489 154.85C194.091 148.646 198.445 144.268 209.728 141.539C222.162 138.531 221.888 138.422 221.394 146.18ZM70.0144 183.47C58.9124 186.204 52.1884 197.357 53.9394 210.133C56.6194 229.686 79.5524 236.259 91.3104 220.844C93.9084 217.437 93.9334 217.281 92.0974 215.939C89.5304 214.061 89.3314 214.129 87.3914 217.537C84.6804 222.303 79.9204 224.735 74.2594 224.247C71.5954 224.018 68.2364 222.944 66.7594 221.85C62.8984 218.99 59.5834 213.703 59.5834 210.404V207.552H77.0834H94.5834L94.5774 204.302C94.5644 196.497 89.9124 188.304 83.6854 185.119C80.1704 183.322 73.7574 182.548 70.0144 183.47ZM172.813 183.511C163.651 185.743 157.59 193.725 156.813 204.578C156.404 210.292 156.713 212.156 158.836 216.794C167.895 236.582 195.235 231.959 198.227 210.133C200.515 193.443 187.594 179.908 172.813 183.511ZM221.208 184.021C219.076 184.781 215.814 186.874 213.958 188.673L210.583 191.944V187.748C210.583 183.939 210.352 183.552 208.083 183.552H205.583V214.052V244.552H208.083H210.583V232.948V221.345L213.997 224.343C223.716 232.876 236.593 230.193 243.19 218.26C246.943 211.472 247.235 201.347 243.862 194.957C241.077 189.681 235.645 184.941 230.86 183.612C226.188 182.315 225.97 182.324 221.208 184.021ZM266.316 183.64C261.334 184.814 257.807 187.219 256.032 190.651C253.906 194.762 254.192 196.552 256.975 196.552C258.687 196.552 259.543 195.847 259.989 194.07C261.125 189.545 270.681 186.439 277.025 188.533C280.923 189.819 282.583 192.034 282.583 195.948C282.583 198.705 281.307 199.234 268.965 201.591C256.934 203.89 250.648 210.05 252.152 218.068C254.374 229.91 271.472 233.581 281.319 224.33C282.605 223.122 283.583 222.731 283.583 223.423C283.583 225.582 288.412 229.552 291.038 229.552C293.677 229.552 298.256 225.891 297.082 224.719C296.715 224.352 294.54 224.052 292.249 224.052H288.083L287.583 206.821C287.092 189.915 287.034 189.542 284.49 187.002C280.565 183.081 273.913 181.851 266.316 183.64ZM101.598 201.802C101.608 214.295 102.002 220.81 102.848 222.456C107.458 231.427 123.093 231.544 129.665 222.655C130.927 220.948 132.324 219.552 132.771 219.552C133.218 219.552 133.583 221.577 133.583 224.052C133.583 227.885 133.879 228.552 135.583 228.552C137.459 228.552 137.583 227.883 137.589 217.802C137.592 211.89 138.046 205.424 138.599 203.434C140.756 195.668 147.991 188.552 153.731 188.552C156.106 188.552 156.583 188.134 156.583 186.052C156.583 184.042 156.086 183.552 154.043 183.552C150.207 183.552 144.149 187.042 140.68 191.251L137.583 195.008V189.28C137.583 184.352 137.322 183.552 135.713 183.552C134.005 183.552 133.804 184.691 133.383 196.802C132.901 210.668 131.934 214.21 127.216 219.397C121.82 225.33 114.171 226.294 109.506 221.629L106.583 218.706V201.129V183.552H104.083H101.583L101.598 201.802ZM82.4964 190.333C85.5624 192.618 88.2864 197.07 88.7504 200.552L89.0834 203.052L74.3334 203.329C59.9804 203.598 59.5834 203.55 59.5834 201.529C59.5834 197.097 64.4964 190.757 69.5844 188.624C73.0344 187.178 79.3924 188.019 82.4964 190.333ZM185.583 190.446C193.67 196.236 195.683 209.365 189.849 218.269C187.798 221.399 181.53 224.552 177.357 224.552C163.504 224.552 156.719 204.44 166.727 193.041C171.635 187.45 179.825 186.323 185.583 190.446ZM232.774 189.654C235.946 191.352 239.576 197.192 240.486 202.061C243.314 217.199 230.631 229.153 218.592 222.697C206.743 216.342 208.467 192.371 221.045 188.585C224.277 187.612 229.919 188.126 232.774 189.654ZM282.583 209.829C282.583 217.169 281.192 219.69 275.557 222.565C269.148 225.835 259.918 224.474 258.204 220.007C256.641 215.934 257.562 211.703 260.46 209.639C262.833 207.95 276.647 203.981 281.333 203.642C282.21 203.579 282.583 205.426 282.583 209.829Z" fill="black"/>
</svg>
