<svg width="75" height="75" viewBox="0 0 75 75" fill="none" xmlns="http://www.w3.org/2000/svg">
    <path fill-rule="evenodd" clip-rule="evenodd" d="M37.5 73.4375C57.3477 73.4375 73.4375 57.3477 73.4375 37.5C73.4375 17.6523 57.3477 1.5625 37.5 1.5625C17.6523 1.5625 1.5625 17.6523 1.5625 37.5C1.5625 57.3477 17.6523 73.4375 37.5 73.4375Z" fill="white" stroke="#181B5E" stroke-width="2" stroke-linecap="round" stroke-linejoin="round"/>
    <path d="M12.3718 63.1906C17.708 60.0964 23.3843 57.63 29.2875 55.8406C31.9031 54.875 32.1875 48.875 30.3125 46.8125C27.6062 43.8343 25.3125 40.3437 25.3125 31.9187C24.9936 28.5235 26.1451 25.1545 28.4753 22.6647C30.8056 20.1749 34.0911 18.8032 37.5 18.8968C40.9088 18.8032 44.1943 20.1749 46.5246 22.6647C48.8548 25.1545 50.0063 28.5235 49.6875 31.9187C49.6875 40.3562 47.3937 43.8343 44.6874 46.8125C42.8124 48.875 43.0968 54.875 45.7125 55.8406C51.6156 57.63 57.2919 60.0964 62.6281 63.1906" stroke="#181B5E" stroke-width="2" stroke-linecap="round" stroke-linejoin="round"/>
</svg>
