<svg width="24" height="24" viewBox="0 0 24 24" fill="none" xmlns="http://www.w3.org/2000/svg">
    <path d="M10 0.5H20.5C19.1193 0.5 18 1.61929 18 3V21C18 22.3807 16.8807 23.5 15.5 23.5" stroke="#181B5E" stroke-linecap="round" stroke-linejoin="round"/>
    <path d="M5 18.5V14.5" stroke="#181B5E" stroke-linecap="round" stroke-linejoin="round"/>
    <path fill-rule="evenodd" clip-rule="evenodd" d="M20.5 5.5C21.8807 5.5 23 4.38071 23 3C23 1.61929 21.8807 0.5 20.5 0.5C19.1193 0.5 18 1.61929 18 3C18 4.38071 19.1193 5.5 20.5 5.5Z" stroke="#181B5E" stroke-linecap="round" stroke-linejoin="round"/>
    <path fill-rule="evenodd" clip-rule="evenodd" d="M15.5 23.5C14.1193 23.5 13 22.3807 13 21C13 19.6193 14.1193 18.5 15.5 18.5H5C3.61929 18.5 2.5 19.6193 2.5 21C2.5 22.3807 3.61929 23.5 5 23.5H15.5Z" stroke="#181B5E" stroke-linecap="round" stroke-linejoin="round"/>
    <path fill-rule="evenodd" clip-rule="evenodd" d="M5 8.5C4.29783 8.50107 3.60785 8.3165 3 7.965V13L5 11.5L7 13V7.965C6.39233 8.31695 5.70223 8.50155 5 8.5V8.5Z" stroke="#181B5E" stroke-linecap="round" stroke-linejoin="round"/>
    <path fill-rule="evenodd" clip-rule="evenodd" d="M5 8.5C7.20914 8.5 9 6.70914 9 4.5C9 2.29086 7.20914 0.5 5 0.5C2.79086 0.5 1 2.29086 1 4.5C1 6.70914 2.79086 8.5 5 8.5Z" stroke="#181B5E" stroke-linecap="round" stroke-linejoin="round"/>
    <path fill-rule="evenodd" clip-rule="evenodd" d="M5 6C5.82843 6 6.5 5.32843 6.5 4.5C6.5 3.67157 5.82843 3 5 3C4.17157 3 3.5 3.67157 3.5 4.5C3.5 5.32843 4.17157 6 5 6Z" stroke="#181B5E" stroke-linecap="round" stroke-linejoin="round"/>
</svg>
