<svg width="512" height="512" viewBox="0 0 512 512" fill="none" xmlns="http://www.w3.org/2000/svg">
    <path d="M373.333 512C296.875 512 234.667 449.792 234.667 373.333C234.667 296.875 296.875 234.667 373.333 234.667C449.792 234.667 512 296.875 512 373.333C512 449.792 449.792 512 373.333 512ZM373.333 256C308.629 256 256 308.651 256 373.333C256 438.016 308.629 490.667 373.333 490.667C438.037 490.667 490.667 438.016 490.667 373.333C490.667 308.651 438.037 256 373.333 256Z" fill="#181B5E"/>
    <path d="M352 426.667C349.184 426.667 346.453 425.536 344.448 423.552L301.781 380.885C297.621 376.725 297.621 369.963 301.781 365.803C305.941 361.643 312.704 361.643 316.864 365.803L351.466 400.405L418.624 323.648C422.506 319.189 429.248 318.763 433.685 322.645C438.122 326.528 438.57 333.248 434.688 337.685L360.021 423.019C358.08 425.237 355.285 426.56 352.341 426.667C352.234 426.667 352.106 426.667 352 426.667V426.667Z" fill="#181B5E"/>
    <path d="M202.667 448H53.3333C23.936 448 0 424.085 0 394.667V117.333C0 87.9147 23.936 64 53.3333 64H96C101.888 64 106.667 68.7787 106.667 74.6667C106.667 80.5547 101.888 85.3333 96 85.3333H53.3333C35.6907 85.3333 21.3333 99.6907 21.3333 117.333V394.667C21.3333 412.309 35.6907 426.667 53.3333 426.667H202.667C208.555 426.667 213.333 431.445 213.333 437.333C213.333 443.221 208.555 448 202.667 448Z" fill="#181B5E"/>
    <path d="M352 192C346.112 192 341.333 187.221 341.333 181.333V117.333C341.333 99.6907 326.976 85.3333 309.333 85.3333H266.667C260.779 85.3333 256 80.5547 256 74.6667C256 68.7787 260.779 64 266.667 64H309.333C338.731 64 362.667 87.9147 362.667 117.333V181.333C362.667 187.221 357.888 192 352 192Z" fill="#181B5E"/>
    <path d="M245.334 128H117.333C99.6908 128 85.3335 113.643 85.3335 96V53.3333C85.3335 47.4453 90.1122 42.6667 96.0002 42.6667H129.067C134.038 18.3467 155.563 0 181.333 0C207.104 0 228.629 18.3467 233.6 42.6667H266.667C272.555 42.6667 277.334 47.4453 277.334 53.3333V96C277.334 113.643 262.976 128 245.334 128ZM106.667 64V96C106.667 101.867 111.445 106.667 117.333 106.667H245.334C251.222 106.667 256 101.867 256 96V64H224C218.112 64 213.333 59.2213 213.333 53.3333C213.333 35.6907 198.976 21.3333 181.333 21.3333C163.691 21.3333 149.333 35.6907 149.333 53.3333C149.333 59.2213 144.555 64 138.667 64H106.667Z" fill="#181B5E"/>
    <path d="M288 192H74.6667C68.7787 192 64 187.221 64 181.333C64 175.445 68.7787 170.667 74.6667 170.667H288C293.888 170.667 298.667 175.445 298.667 181.333C298.667 187.221 293.888 192 288 192Z" fill="#181B5E"/>
    <path d="M224 256H74.6667C68.7787 256 64 251.221 64 245.333C64 239.445 68.7787 234.667 74.6667 234.667H224C229.888 234.667 234.667 239.445 234.667 245.333C234.667 251.221 229.888 256 224 256Z" fill="#181B5E"/>
    <path d="M181.333 320H74.6667C68.7787 320 64 315.221 64 309.333C64 303.445 68.7787 298.667 74.6667 298.667H181.333C187.221 298.667 192 303.445 192 309.333C192 315.221 187.221 320 181.333 320Z" fill="#181B5E"/>
</svg>
