<svg width="312" height="328" viewBox="0 0 312 328" fill="none" xmlns="http://www.w3.org/2000/svg">
<g filter="url(#filter0_d_3094_41776)">
<rect x="6" y="6" width="300" height="52" rx="8" fill="white" shape-rendering="crispEdges"/>
<path d="M27.904 26.94H26.624V33.244C26.624 35.452 25.728 36.46 23.76 36.46C21.792 36.46 20.896 35.452 20.896 33.244V26.94H19.616V33.564C19.616 36.284 21.104 37.66 23.76 37.66C26.432 37.66 27.904 36.284 27.904 33.564V26.94ZM34.8615 29.34C33.5975 29.34 32.5895 29.98 32.1255 30.892L32.0455 29.5H30.9255V40.86H32.2055V36.252C32.7015 37.084 33.6615 37.66 34.8615 37.66C37.0855 37.66 38.5095 36.108 38.5095 33.5C38.5095 30.892 37.0855 29.34 34.8615 29.34ZM34.7175 36.54C33.1975 36.54 32.2055 35.404 32.2055 33.596V33.404C32.2055 31.596 33.1975 30.46 34.7175 30.46C36.2855 30.46 37.2295 31.644 37.2295 33.5C37.2295 35.356 36.2855 36.54 34.7175 36.54ZM42.2196 25.82H40.9396V35.516C40.9396 36.972 41.5636 37.66 42.8596 37.66C43.2756 37.66 43.7076 37.58 44.0436 37.436L44.2516 36.204C43.7876 36.38 43.5156 36.428 43.0836 36.428C42.4276 36.428 42.2196 36.172 42.2196 35.356V25.82ZM49.2703 29.34C46.8543 29.34 45.3983 30.908 45.3983 33.5C45.3983 36.092 46.8543 37.66 49.2703 37.66C51.6863 37.66 53.1423 36.092 53.1423 33.5C53.1423 30.908 51.6863 29.34 49.2703 29.34ZM49.2703 30.444C50.8863 30.444 51.8623 31.596 51.8623 33.5C51.8623 35.404 50.8863 36.556 49.2703 36.556C47.6543 36.556 46.6783 35.404 46.6783 33.5C46.6783 31.596 47.6543 30.444 49.2703 30.444ZM62.1886 36.572C61.7406 36.572 61.5806 36.38 61.5806 35.996V32.06C61.5806 30.204 60.2526 29.34 58.4286 29.34C56.8766 29.34 55.6126 30.108 55.1966 31.292L56.1406 31.98C56.5726 30.972 57.3726 30.46 58.4286 30.46C59.6286 30.46 60.3006 31.164 60.3006 32.22V32.668L58.1726 33.02C56.1086 33.372 55.0526 34.316 55.0526 35.516C55.0526 36.956 56.2686 37.66 57.7726 37.66C58.7966 37.66 59.8366 37.228 60.3486 36.476C60.4926 37.372 61.0046 37.66 61.7886 37.66C62.1886 37.66 62.5246 37.58 62.7486 37.5L62.8286 36.492C62.6366 36.54 62.3966 36.572 62.1886 36.572ZM57.8366 36.54C56.9246 36.54 56.3806 36.188 56.3806 35.516C56.3806 34.764 57.1006 34.3 58.5086 34.044L60.3006 33.708V34.812C60.3006 35.868 59.1166 36.54 57.8366 36.54ZM70.5151 25.82V30.748C70.0191 29.916 69.0591 29.34 67.8591 29.34C65.6351 29.34 64.2111 30.892 64.2111 33.5C64.2111 36.108 65.6351 37.66 67.8591 37.66C69.1231 37.66 70.1311 37.02 70.5951 36.108L70.6751 37.5H71.7951V25.82H70.5151ZM68.0031 36.54C66.4351 36.54 65.4911 35.356 65.4911 33.5C65.4911 31.644 66.4351 30.46 68.0031 30.46C69.5231 30.46 70.5151 31.596 70.5151 33.404V33.596C70.5151 35.404 69.5231 36.54 68.0031 36.54ZM81.7424 26.94H80.4624V37.5H81.7424V26.94ZM88.6048 26.94H85.1968V37.5H88.6048C91.9167 37.5 93.9168 35.612 93.9168 32.22C93.9168 28.828 91.9167 26.94 88.6048 26.94ZM88.7328 36.3H86.4768V28.14H88.7328C91.1488 28.14 92.5728 29.66 92.5728 32.22C92.5728 34.78 91.1488 36.3 88.7328 36.3ZM107.765 25.82V30.748C107.269 29.916 106.309 29.34 105.109 29.34C102.885 29.34 101.461 30.892 101.461 33.5C101.461 36.108 102.885 37.66 105.109 37.66C106.373 37.66 107.381 37.02 107.845 36.108L107.925 37.5H109.045V25.82H107.765ZM105.253 36.54C103.685 36.54 102.741 35.356 102.741 33.5C102.741 31.644 103.685 30.46 105.253 30.46C106.773 30.46 107.765 31.596 107.765 33.404V33.596C107.765 35.404 106.773 36.54 105.253 36.54ZM115.395 29.34C112.979 29.34 111.523 30.908 111.523 33.5C111.523 36.092 112.979 37.66 115.395 37.66C117.811 37.66 119.267 36.092 119.267 33.5C119.267 30.908 117.811 29.34 115.395 29.34ZM115.395 30.444C117.011 30.444 117.987 31.596 117.987 33.5C117.987 35.404 117.011 36.556 115.395 36.556C113.779 36.556 112.803 35.404 112.803 33.5C112.803 31.596 113.779 30.444 115.395 30.444ZM125.13 29.34C122.714 29.34 121.258 30.908 121.258 33.5C121.258 36.092 122.714 37.66 125.13 37.66C126.826 37.66 127.978 36.78 128.522 35.308L127.338 34.892C127.098 35.948 126.346 36.54 125.098 36.54C123.498 36.54 122.538 35.404 122.538 33.5C122.538 31.596 123.498 30.46 125.098 30.46C126.202 30.46 126.89 31.02 127.226 32.044L128.442 31.468C127.85 30.156 126.778 29.34 125.13 29.34ZM136.433 29.5V33.852C136.433 35.74 135.233 36.54 133.873 36.54C132.721 36.54 131.985 36.044 131.985 34.396V29.5H130.705V34.732C130.705 36.844 132.065 37.66 133.649 37.66C134.929 37.66 135.953 37.244 136.513 36.284L136.593 37.5H137.713V29.5H136.433ZM149.987 29.34C148.979 29.34 147.699 29.82 147.203 30.908C146.675 29.836 145.571 29.34 144.451 29.34C143.459 29.34 142.467 29.772 141.891 30.748L141.811 29.5H140.691V37.5H141.971V33.228C141.971 31.244 143.283 30.46 144.339 30.46C145.395 30.46 146.227 31.052 146.227 32.508V37.5H147.507V33.116C147.507 31.404 148.627 30.46 149.875 30.46C150.931 30.46 151.763 31.052 151.763 32.508V37.5H153.043V32.38C153.043 30.268 151.523 29.34 149.987 29.34ZM162.805 33.084C162.805 31.02 161.541 29.34 159.221 29.34C156.805 29.34 155.445 30.908 155.445 33.5C155.445 36.092 156.901 37.66 159.317 37.66C161.045 37.66 162.037 37.004 162.645 35.916L161.573 35.356C161.285 36.124 160.485 36.54 159.317 36.54C157.845 36.54 156.869 35.596 156.709 33.98H162.741C162.773 33.756 162.805 33.452 162.805 33.084ZM159.221 30.46C160.581 30.46 161.397 31.372 161.573 32.844H156.725C156.917 31.34 157.797 30.46 159.221 30.46ZM169.126 29.34C168.022 29.34 166.998 29.74 166.438 30.748L166.358 29.5H165.238V37.5H166.518V33.244C166.518 31.196 167.83 30.46 168.998 30.46C170.102 30.46 170.966 31.052 170.966 32.828V37.5H172.246V32.38C172.246 30.316 170.838 29.34 169.126 29.34ZM179.483 35.868C179.115 36.236 178.699 36.46 178.123 36.46C177.419 36.46 176.923 36.076 176.923 35.292V30.604H179.883V29.5H176.923V27.228L175.643 27.58V29.5H174.043V30.604H175.643V35.516C175.659 37.068 176.683 37.66 177.867 37.66C178.747 37.66 179.435 37.388 179.931 36.94L179.483 35.868Z" fill="#181B5E"/>
<path d="M251.924 27.96C249.872 27.96 248.684 29.052 248.684 30.456C248.684 31.776 249.524 32.448 251.732 32.892C253.04 33.156 253.46 33.408 253.46 33.84C253.46 34.44 252.908 34.764 251.888 34.764C250.82 34.764 250.064 34.5 249.44 33.468L248.456 34.644C249.128 35.604 250.148 36.12 251.948 36.12C253.844 36.12 255.2 35.232 255.2 33.744C255.2 32.424 254.396 31.764 252.26 31.368C250.868 31.116 250.436 30.828 250.436 30.3C250.436 29.736 250.94 29.316 251.936 29.316C253.004 29.316 253.664 29.748 254.072 30.6L255.212 29.484C254.408 28.428 253.4 27.96 251.924 27.96ZM262.179 32.976C262.179 31.008 261.159 29.88 259.287 29.88C257.355 29.88 256.263 31.032 256.263 33C256.263 34.968 257.391 36.12 259.383 36.12C260.739 36.12 261.663 35.604 262.047 34.644L260.703 34.152C260.535 34.632 260.079 34.896 259.383 34.896C258.579 34.896 258.051 34.488 257.883 33.624H262.131C262.155 33.468 262.179 33.144 262.179 32.976ZM259.275 31.092C260.031 31.092 260.535 31.572 260.667 32.472H257.871C258.003 31.56 258.483 31.092 259.275 31.092ZM265.179 27.372H263.535V34.332C263.535 35.58 264.051 36.12 265.215 36.12C265.611 36.12 266.067 36.024 266.331 35.868L266.475 34.728C266.211 34.824 266.043 34.86 265.767 34.86C265.323 34.86 265.179 34.656 265.179 34.092V27.372ZM272.995 32.976C272.995 31.008 271.975 29.88 270.103 29.88C268.171 29.88 267.079 31.032 267.079 33C267.079 34.968 268.207 36.12 270.199 36.12C271.555 36.12 272.479 35.604 272.863 34.644L271.519 34.152C271.351 34.632 270.895 34.896 270.199 34.896C269.395 34.896 268.867 34.488 268.699 33.624H272.947C272.971 33.468 272.995 33.144 272.995 32.976ZM270.091 31.092C270.847 31.092 271.351 31.572 271.483 32.472H268.687C268.819 31.56 269.299 31.092 270.091 31.092ZM277.124 29.88C275.204 29.88 274.064 31.032 274.064 33C274.064 34.968 275.192 36.12 277.184 36.12C278.708 36.12 279.644 35.376 279.896 34.308L278.408 33.828C278.288 34.512 277.88 34.896 277.16 34.896C276.272 34.896 275.708 34.296 275.708 33.012C275.708 31.752 276.236 31.104 277.172 31.104C277.808 31.104 278.192 31.476 278.336 32.196L279.872 31.644C279.584 30.66 278.816 29.88 277.124 29.88ZM285.072 34.536C284.82 34.752 284.544 34.872 284.148 34.872C283.632 34.872 283.32 34.62 283.32 34.044V31.224H285.264V30H283.32V28.164L281.676 28.62V30H280.584V31.224H281.676V34.308C281.676 35.628 282.492 36.12 283.68 36.12C284.316 36.12 284.94 35.94 285.324 35.628L285.072 34.536Z" fill="#181B5E"/>
<rect x="240.5" y="18.5" width="53" height="27" rx="3.5" stroke="#E3E3E3"/>
</g>
<g filter="url(#filter1_d_3094_41776)">
<rect x="6" y="70" width="300" height="52" rx="8" fill="white" shape-rendering="crispEdges"/>
<path d="M27.904 90.94H26.624V97.244C26.624 99.452 25.728 100.46 23.76 100.46C21.792 100.46 20.896 99.452 20.896 97.244V90.94H19.616V97.564C19.616 100.284 21.104 101.66 23.76 101.66C26.432 101.66 27.904 100.284 27.904 97.564V90.94ZM34.8615 93.34C33.5975 93.34 32.5895 93.98 32.1255 94.892L32.0455 93.5H30.9255V104.86H32.2055V100.252C32.7015 101.084 33.6615 101.66 34.8615 101.66C37.0855 101.66 38.5095 100.108 38.5095 97.5C38.5095 94.892 37.0855 93.34 34.8615 93.34ZM34.7175 100.54C33.1975 100.54 32.2055 99.404 32.2055 97.596V97.404C32.2055 95.596 33.1975 94.46 34.7175 94.46C36.2855 94.46 37.2295 95.644 37.2295 97.5C37.2295 99.356 36.2855 100.54 34.7175 100.54ZM42.2196 89.82H40.9396V99.516C40.9396 100.972 41.5636 101.66 42.8596 101.66C43.2756 101.66 43.7076 101.58 44.0436 101.436L44.2516 100.204C43.7876 100.38 43.5156 100.428 43.0836 100.428C42.4276 100.428 42.2196 100.172 42.2196 99.356V89.82ZM49.2703 93.34C46.8543 93.34 45.3983 94.908 45.3983 97.5C45.3983 100.092 46.8543 101.66 49.2703 101.66C51.6863 101.66 53.1423 100.092 53.1423 97.5C53.1423 94.908 51.6863 93.34 49.2703 93.34ZM49.2703 94.444C50.8863 94.444 51.8623 95.596 51.8623 97.5C51.8623 99.404 50.8863 100.556 49.2703 100.556C47.6543 100.556 46.6783 99.404 46.6783 97.5C46.6783 95.596 47.6543 94.444 49.2703 94.444ZM62.1886 100.572C61.7406 100.572 61.5806 100.38 61.5806 99.996V96.06C61.5806 94.204 60.2526 93.34 58.4286 93.34C56.8766 93.34 55.6126 94.108 55.1966 95.292L56.1406 95.98C56.5726 94.972 57.3726 94.46 58.4286 94.46C59.6286 94.46 60.3006 95.164 60.3006 96.22V96.668L58.1726 97.02C56.1086 97.372 55.0526 98.316 55.0526 99.516C55.0526 100.956 56.2686 101.66 57.7726 101.66C58.7966 101.66 59.8366 101.228 60.3486 100.476C60.4926 101.372 61.0046 101.66 61.7886 101.66C62.1886 101.66 62.5246 101.58 62.7486 101.5L62.8286 100.492C62.6366 100.54 62.3966 100.572 62.1886 100.572ZM57.8366 100.54C56.9246 100.54 56.3806 100.188 56.3806 99.516C56.3806 98.764 57.1006 98.3 58.5086 98.044L60.3006 97.708V98.812C60.3006 99.868 59.1166 100.54 57.8366 100.54ZM70.5151 89.82V94.748C70.0191 93.916 69.0591 93.34 67.8591 93.34C65.6351 93.34 64.2111 94.892 64.2111 97.5C64.2111 100.108 65.6351 101.66 67.8591 101.66C69.1231 101.66 70.1311 101.02 70.5951 100.108L70.6751 101.5H71.7951V89.82H70.5151ZM68.0031 100.54C66.4351 100.54 65.4911 99.356 65.4911 97.5C65.4911 95.644 66.4351 94.46 68.0031 94.46C69.5231 94.46 70.5151 95.596 70.5151 97.404V97.596C70.5151 99.404 69.5231 100.54 68.0031 100.54ZM84.1904 90.94H80.4624V101.5H81.7424V97.372H84.1904C86.3184 97.372 87.7424 96.14 87.7424 94.156C87.7424 92.172 86.3184 90.94 84.1904 90.94ZM83.9984 96.172H81.7424V92.14H83.9984C85.6624 92.14 86.3984 92.844 86.3984 94.156C86.3984 95.468 85.6624 96.172 83.9984 96.172ZM93.764 93.34C92.516 93.34 91.652 93.836 91.204 94.812L91.028 93.5H89.988V101.5H91.268V97.18C91.268 95.388 92.42 94.54 93.38 94.54C93.796 94.54 94.148 94.62 94.388 94.748L94.644 93.5C94.404 93.372 94.036 93.34 93.764 93.34ZM99.6453 93.34C97.2293 93.34 95.7733 94.908 95.7733 97.5C95.7733 100.092 97.2293 101.66 99.6453 101.66C102.061 101.66 103.517 100.092 103.517 97.5C103.517 94.908 102.061 93.34 99.6453 93.34ZM99.6453 94.444C101.261 94.444 102.237 95.596 102.237 97.5C102.237 99.404 101.261 100.556 99.6453 100.556C98.0293 100.556 97.0533 99.404 97.0533 97.5C97.0533 95.596 98.0293 94.444 99.6453 94.444ZM109.38 93.34C106.964 93.34 105.508 94.908 105.508 97.5C105.508 100.092 106.964 101.66 109.38 101.66C111.796 101.66 113.252 100.092 113.252 97.5C113.252 94.908 111.796 93.34 109.38 93.34ZM109.38 94.444C110.996 94.444 111.972 95.596 111.972 97.5C111.972 99.404 110.996 100.556 109.38 100.556C107.764 100.556 106.788 99.404 106.788 97.5C106.788 95.596 107.764 94.444 109.38 94.444ZM117.501 92.284C117.501 91.324 118.029 90.908 118.957 90.908C119.325 90.908 119.613 90.988 119.869 91.148L120.205 90.108C119.917 89.868 119.405 89.74 118.845 89.74C117.085 89.74 116.221 90.732 116.221 92.156V93.5H114.621V94.604H116.221V101.5H117.501V94.604H120.173V93.5H117.501V92.284ZM130.067 93.34C127.651 93.34 126.195 94.908 126.195 97.5C126.195 100.092 127.651 101.66 130.067 101.66C132.483 101.66 133.939 100.092 133.939 97.5C133.939 94.908 132.483 93.34 130.067 93.34ZM130.067 94.444C131.683 94.444 132.659 95.596 132.659 97.5C132.659 99.404 131.683 100.556 130.067 100.556C128.451 100.556 127.475 99.404 127.475 97.5C127.475 95.596 128.451 94.444 130.067 94.444ZM138.189 92.284C138.189 91.324 138.717 90.908 139.645 90.908C140.013 90.908 140.301 90.988 140.557 91.148L140.893 90.108C140.605 89.868 140.093 89.74 139.533 89.74C137.773 89.74 136.909 90.732 136.909 92.156V93.5H135.309V94.604H136.909V101.5H138.189V94.604H140.861V93.5H138.189V92.284ZM154.034 101.5H155.394L151.298 90.94H149.778L145.666 101.5H147.01L148.13 98.572H152.914L154.034 101.5ZM148.594 97.372L150.034 93.58L150.498 92.156H150.53L151.026 93.628L152.45 97.372H148.594ZM162.984 89.82V94.748C162.488 93.916 161.528 93.34 160.328 93.34C158.104 93.34 156.68 94.892 156.68 97.5C156.68 100.108 158.104 101.66 160.328 101.66C161.592 101.66 162.6 101.02 163.064 100.108L163.144 101.5H164.264V89.82H162.984ZM160.472 100.54C158.904 100.54 157.96 99.356 157.96 97.5C157.96 95.644 158.904 94.46 160.472 94.46C161.992 94.46 162.984 95.596 162.984 97.404V97.596C162.984 99.404 161.992 100.54 160.472 100.54ZM173.062 89.82V94.748C172.566 93.916 171.606 93.34 170.406 93.34C168.182 93.34 166.758 94.892 166.758 97.5C166.758 100.108 168.182 101.66 170.406 101.66C171.67 101.66 172.678 101.02 173.142 100.108L173.222 101.5H174.342V89.82H173.062ZM170.55 100.54C168.982 100.54 168.038 99.356 168.038 97.5C168.038 95.644 168.982 94.46 170.55 94.46C172.07 94.46 173.062 95.596 173.062 97.404V97.596C173.062 99.404 172.07 100.54 170.55 100.54ZM181.092 93.34C179.844 93.34 178.98 93.836 178.532 94.812L178.356 93.5H177.316V101.5H178.596V97.18C178.596 95.388 179.748 94.54 180.708 94.54C181.124 94.54 181.476 94.62 181.716 94.748L181.972 93.5C181.732 93.372 181.364 93.34 181.092 93.34ZM190.461 97.084C190.461 95.02 189.197 93.34 186.877 93.34C184.461 93.34 183.101 94.908 183.101 97.5C183.101 100.092 184.557 101.66 186.973 101.66C188.701 101.66 189.693 101.004 190.301 99.916L189.229 99.356C188.941 100.124 188.141 100.54 186.973 100.54C185.501 100.54 184.525 99.596 184.365 97.98H190.397C190.429 97.756 190.461 97.452 190.461 97.084ZM186.877 94.46C188.237 94.46 189.053 95.372 189.229 96.844H184.381C184.573 95.34 185.453 94.46 186.877 94.46ZM195.614 101.66C197.662 101.66 198.958 100.684 198.958 99.292C198.958 97.98 198.158 97.308 195.918 96.94C194.286 96.668 193.758 96.316 193.758 95.628C193.758 95.036 194.558 94.46 195.63 94.46C196.638 94.46 197.358 94.844 197.71 95.9L198.798 95.26C198.35 93.948 197.342 93.34 195.63 93.34C193.678 93.34 192.478 94.444 192.478 95.74C192.478 97.084 193.31 97.708 195.582 98.124C197.182 98.412 197.678 98.764 197.678 99.356C197.678 100.012 197.054 100.54 195.742 100.54C194.59 100.54 193.598 100.108 193.214 99.132L192.174 99.852C192.782 101.084 194.142 101.66 195.614 101.66ZM204.052 101.66C206.1 101.66 207.396 100.684 207.396 99.292C207.396 97.98 206.596 97.308 204.356 96.94C202.724 96.668 202.196 96.316 202.196 95.628C202.196 95.036 202.996 94.46 204.068 94.46C205.076 94.46 205.796 94.844 206.148 95.9L207.236 95.26C206.788 93.948 205.78 93.34 204.068 93.34C202.116 93.34 200.916 94.444 200.916 95.74C200.916 97.084 201.748 97.708 204.02 98.124C205.62 98.412 206.116 98.764 206.116 99.356C206.116 100.012 205.492 100.54 204.18 100.54C203.028 100.54 202.036 100.108 201.652 99.132L200.612 99.852C201.22 101.084 202.58 101.66 204.052 101.66Z" fill="#181B5E"/>
<path d="M256.924 91.96C254.872 91.96 253.684 93.052 253.684 94.456C253.684 95.776 254.524 96.448 256.732 96.892C258.04 97.156 258.46 97.408 258.46 97.84C258.46 98.44 257.908 98.764 256.888 98.764C255.82 98.764 255.064 98.5 254.44 97.468L253.456 98.644C254.128 99.604 255.148 100.12 256.948 100.12C258.844 100.12 260.2 99.232 260.2 97.744C260.2 96.424 259.396 95.764 257.26 95.368C255.868 95.116 255.436 94.828 255.436 94.3C255.436 93.736 255.94 93.316 256.936 93.316C258.004 93.316 258.664 93.748 259.072 94.6L260.212 93.484C259.408 92.428 258.4 91.96 256.924 91.96ZM267.179 96.976C267.179 95.008 266.159 93.88 264.287 93.88C262.355 93.88 261.263 95.032 261.263 97C261.263 98.968 262.391 100.12 264.383 100.12C265.739 100.12 266.663 99.604 267.047 98.644L265.703 98.152C265.535 98.632 265.079 98.896 264.383 98.896C263.579 98.896 263.051 98.488 262.883 97.624H267.131C267.155 97.468 267.179 97.144 267.179 96.976ZM264.275 95.092C265.031 95.092 265.535 95.572 265.667 96.472H262.871C263.003 95.56 263.483 95.092 264.275 95.092ZM270.179 91.372H268.535V98.332C268.535 99.58 269.051 100.12 270.215 100.12C270.611 100.12 271.067 100.024 271.331 99.868L271.475 98.728C271.211 98.824 271.043 98.86 270.767 98.86C270.323 98.86 270.179 98.656 270.179 98.092V91.372ZM277.995 96.976C277.995 95.008 276.975 93.88 275.103 93.88C273.171 93.88 272.079 95.032 272.079 97C272.079 98.968 273.207 100.12 275.199 100.12C276.555 100.12 277.479 99.604 277.863 98.644L276.519 98.152C276.351 98.632 275.895 98.896 275.199 98.896C274.395 98.896 273.867 98.488 273.699 97.624H277.947C277.971 97.468 277.995 97.144 277.995 96.976ZM275.091 95.092C275.847 95.092 276.351 95.572 276.483 96.472H273.687C273.819 95.56 274.299 95.092 275.091 95.092ZM282.124 93.88C280.204 93.88 279.064 95.032 279.064 97C279.064 98.968 280.192 100.12 282.184 100.12C283.708 100.12 284.644 99.376 284.896 98.308L283.408 97.828C283.288 98.512 282.88 98.896 282.16 98.896C281.272 98.896 280.708 98.296 280.708 97.012C280.708 95.752 281.236 95.104 282.172 95.104C282.808 95.104 283.192 95.476 283.336 96.196L284.872 95.644C284.584 94.66 283.816 93.88 282.124 93.88ZM290.072 98.536C289.82 98.752 289.544 98.872 289.148 98.872C288.632 98.872 288.32 98.62 288.32 98.044V95.224H290.264V94H288.32V92.164L286.676 92.62V94H285.584V95.224H286.676V98.308C286.676 99.628 287.492 100.12 288.68 100.12C289.316 100.12 289.94 99.94 290.324 99.628L290.072 98.536Z" fill="#181B5E"/>
<rect x="245.5" y="82.5" width="53" height="27" rx="3.5" stroke="#E3E3E3"/>
</g>
<g filter="url(#filter2_d_3094_41776)">
<rect x="6" y="134" width="300" height="154.598" rx="8" fill="white" shape-rendering="crispEdges"/>
<g clip-path="url(#clip0_3094_41776)">
<path d="M148.875 177.674L148.896 176.924C148.899 176.729 148.976 176.543 149.112 176.404C149.247 176.265 149.431 176.182 149.625 176.174H150.333C150.535 176.176 150.729 176.254 150.876 176.393C151.023 176.532 151.112 176.722 151.125 176.924V177.674" stroke="#A1A1A1" stroke-width="0.8" stroke-linecap="round" stroke-linejoin="round"/>
<path d="M162.097 177.674C161.955 177.674 161.815 177.633 161.695 177.556C161.574 177.48 161.478 177.37 161.418 177.241C161.012 176.37 160.575 175.424 159.75 175.424H156C155.302 175.424 154.95 176.049 153.975 177.368C153.906 177.462 153.815 177.539 153.711 177.592C153.607 177.645 153.492 177.673 153.375 177.674H148.875C147.75 177.674 147.375 178.183 147.375 178.966V186.757C147.375 187.539 147.75 188.174 148.917 188.174H163.083C164.25 188.174 164.625 187.539 164.625 186.757V178.966C164.625 178.183 164.25 177.674 163.083 177.674H162.097Z" stroke="#A1A1A1" stroke-width="0.8" stroke-linecap="round" stroke-linejoin="round"/>
<path d="M157.875 186.674C160.153 186.674 162 184.827 162 182.549C162 180.271 160.153 178.424 157.875 178.424C155.597 178.424 153.75 180.271 153.75 182.549C153.75 184.827 155.597 186.674 157.875 186.674Z" stroke="#A1A1A1" stroke-width="0.8" stroke-linecap="round" stroke-linejoin="round"/>
<path d="M157.875 184.799C159.118 184.799 160.125 183.791 160.125 182.549C160.125 181.306 159.118 180.299 157.875 180.299C156.632 180.299 155.625 181.306 155.625 182.549C155.625 183.791 156.632 184.799 157.875 184.799Z" stroke="#A1A1A1" stroke-width="0.8" stroke-linecap="round" stroke-linejoin="round"/>
<path d="M150 181.424C150.621 181.424 151.125 180.92 151.125 180.299C151.125 179.678 150.621 179.174 150 179.174C149.379 179.174 148.875 179.678 148.875 180.299C148.875 180.92 149.379 181.424 150 181.424Z" stroke="#A1A1A1" stroke-width="0.8" stroke-linecap="round" stroke-linejoin="round"/>
</g>
<path d="M100.418 199.239H91.7776V200.439H95.4576V209.799H96.7376V200.439H100.418V199.239ZM107.361 208.871C106.913 208.871 106.753 208.679 106.753 208.295V204.359C106.753 202.503 105.425 201.639 103.601 201.639C102.049 201.639 100.785 202.407 100.368 203.591L101.312 204.279C101.745 203.271 102.545 202.759 103.601 202.759C104.801 202.759 105.473 203.463 105.473 204.519V204.967L103.345 205.319C101.281 205.671 100.225 206.615 100.225 207.815C100.225 209.255 101.441 209.959 102.945 209.959C103.969 209.959 105.009 209.527 105.521 208.775C105.665 209.671 106.177 209.959 106.961 209.959C107.361 209.959 107.697 209.879 107.921 209.799L108.001 208.791C107.809 208.839 107.569 208.871 107.361 208.871ZM103.009 208.839C102.097 208.839 101.553 208.487 101.553 207.815C101.553 207.063 102.273 206.599 103.681 206.343L105.473 206.007V207.111C105.473 208.167 104.289 208.839 103.009 208.839ZM115.527 209.799H117.079L113.767 204.919L116.887 201.799H115.287L111.143 205.943V198.119H109.863V209.799H111.143V207.543L112.839 205.847L115.527 209.799ZM125.524 205.383C125.524 203.319 124.26 201.639 121.94 201.639C119.524 201.639 118.164 203.207 118.164 205.799C118.164 208.391 119.62 209.959 122.036 209.959C123.764 209.959 124.756 209.303 125.364 208.215L124.292 207.655C124.004 208.423 123.204 208.839 122.036 208.839C120.564 208.839 119.588 207.895 119.428 206.279H125.46C125.492 206.055 125.524 205.751 125.524 205.383ZM121.94 202.759C123.3 202.759 124.116 203.671 124.292 205.143H119.444C119.636 203.639 120.516 202.759 121.94 202.759ZM139.97 208.871C139.522 208.871 139.362 208.679 139.362 208.295V204.359C139.362 202.503 138.034 201.639 136.21 201.639C134.658 201.639 133.394 202.407 132.978 203.591L133.922 204.279C134.354 203.271 135.154 202.759 136.21 202.759C137.41 202.759 138.082 203.463 138.082 204.519V204.967L135.954 205.319C133.89 205.671 132.834 206.615 132.834 207.815C132.834 209.255 134.05 209.959 135.554 209.959C136.578 209.959 137.618 209.527 138.13 208.775C138.274 209.671 138.786 209.959 139.57 209.959C139.97 209.959 140.306 209.879 140.53 209.799L140.61 208.791C140.418 208.839 140.178 208.871 139.97 208.871ZM135.618 208.839C134.706 208.839 134.162 208.487 134.162 207.815C134.162 207.063 134.882 206.599 136.29 206.343L138.082 206.007V207.111C138.082 208.167 136.898 208.839 135.618 208.839ZM148.767 198.119H147.487V207.815C147.487 209.271 148.111 209.959 149.407 209.959C149.823 209.959 150.255 209.879 150.591 209.735L150.799 208.503C150.335 208.679 150.062 208.727 149.631 208.727C148.975 208.727 148.767 208.471 148.767 207.655V198.119ZM153.081 200.263C153.657 200.263 154.041 199.879 154.041 199.303C154.041 198.727 153.657 198.343 153.081 198.343C152.505 198.343 152.121 198.727 152.121 199.303C152.121 199.879 152.505 200.263 153.081 200.263ZM153.721 201.799H152.441V209.799H153.721V201.799ZM161.987 201.799L159.379 208.503L156.851 201.799H155.395L158.723 209.799H160.003L163.331 201.799H161.987ZM171.868 205.383C171.868 203.319 170.604 201.639 168.284 201.639C165.868 201.639 164.508 203.207 164.508 205.799C164.508 208.391 165.964 209.959 168.38 209.959C170.108 209.959 171.1 209.303 171.708 208.215L170.636 207.655C170.348 208.423 169.548 208.839 168.38 208.839C166.908 208.839 165.932 207.895 165.772 206.279H171.804C171.836 206.055 171.868 205.751 171.868 205.383ZM168.284 202.759C169.644 202.759 170.46 203.671 170.636 205.143H165.788C165.98 203.639 166.86 202.759 168.284 202.759ZM182.474 209.959C184.522 209.959 185.818 208.983 185.818 207.591C185.818 206.279 185.018 205.607 182.778 205.239C181.146 204.967 180.618 204.615 180.618 203.927C180.618 203.335 181.418 202.759 182.49 202.759C183.498 202.759 184.218 203.143 184.57 204.199L185.658 203.559C185.21 202.247 184.202 201.639 182.49 201.639C180.538 201.639 179.338 202.743 179.338 204.039C179.338 205.383 180.17 206.007 182.442 206.423C184.042 206.711 184.538 207.063 184.538 207.655C184.538 208.311 183.914 208.839 182.602 208.839C181.45 208.839 180.458 208.407 180.074 207.431L179.034 208.151C179.642 209.383 181.002 209.959 182.474 209.959ZM195.055 205.383C195.055 203.319 193.791 201.639 191.471 201.639C189.055 201.639 187.695 203.207 187.695 205.799C187.695 208.391 189.151 209.959 191.567 209.959C193.295 209.959 194.287 209.303 194.895 208.215L193.823 207.655C193.535 208.423 192.735 208.839 191.567 208.839C190.095 208.839 189.119 207.895 188.959 206.279H194.991C195.023 206.055 195.055 205.751 195.055 205.383ZM191.471 202.759C192.831 202.759 193.647 203.671 193.823 205.143H188.975C189.167 203.639 190.047 202.759 191.471 202.759ZM198.704 198.119H197.424V207.815C197.424 209.271 198.048 209.959 199.344 209.959C199.76 209.959 200.192 209.879 200.528 209.735L200.736 208.503C200.272 208.679 200 208.727 199.568 208.727C198.912 208.727 198.704 208.471 198.704 207.655V198.119ZM205.739 199.207C206.107 199.207 206.395 199.287 206.651 199.447L206.987 198.407C206.699 198.167 206.187 198.039 205.627 198.039C203.867 198.039 203.003 199.031 203.003 200.455V201.799H201.403V202.903H203.003V209.799H204.283V202.903H206.955V201.799H204.283V200.583C204.283 199.623 204.811 199.207 205.739 199.207ZM209.307 198.343C208.731 198.343 208.347 198.727 208.347 199.303C208.347 199.879 208.731 200.263 209.307 200.263C209.883 200.263 210.267 199.879 210.267 199.303C210.267 198.727 209.883 198.343 209.307 198.343ZM208.667 209.799H209.947V201.799H208.667V209.799ZM219.79 205.383C219.79 203.319 218.526 201.639 216.206 201.639C213.789 201.639 212.43 203.207 212.43 205.799C212.43 208.391 213.886 209.959 216.302 209.959C218.03 209.959 219.022 209.303 219.63 208.215L218.558 207.655C218.27 208.423 217.47 208.839 216.302 208.839C214.83 208.839 213.854 207.895 213.694 206.279H219.726C219.758 206.055 219.79 205.751 219.79 205.383ZM216.206 202.759C217.566 202.759 218.382 203.671 218.558 205.143H213.71C213.902 203.639 214.782 202.759 216.206 202.759Z" fill="#181B5E"/>
<path d="M149.296 258.678H142.324V260.01H144.988V266.598H146.644V260.01H149.296V258.678ZM154.852 265.602C154.54 265.602 154.408 265.458 154.408 265.146V262.686C154.408 261.198 153.352 260.478 151.684 260.478C150.22 260.478 149.32 261.126 149.068 262.146L150.376 262.698C150.556 261.942 151.06 261.678 151.756 261.678C152.404 261.678 152.776 262.086 152.776 262.722V263.01L151.336 263.286C149.728 263.586 148.996 264.246 148.996 265.182C148.996 266.19 149.716 266.718 150.856 266.718C151.864 266.718 152.62 266.406 152.98 265.818C153.148 266.466 153.64 266.718 154.36 266.718C154.66 266.718 154.924 266.658 155.14 266.55L155.26 265.554C155.14 265.59 154.996 265.602 154.852 265.602ZM151.372 265.602C150.94 265.602 150.688 265.398 150.688 265.014C150.688 264.618 150.964 264.426 151.492 264.306L152.776 264.018V264.642C152.776 265.278 151.996 265.602 151.372 265.602ZM160.651 266.598H162.511L160.111 262.95L162.367 260.598H160.507L157.903 263.346V257.97H156.259V266.598H157.903V265.11L158.995 263.946L160.651 266.598ZM168.788 263.574C168.788 261.606 167.768 260.478 165.896 260.478C163.964 260.478 162.872 261.63 162.872 263.598C162.872 265.566 164 266.718 165.992 266.718C167.348 266.718 168.272 266.202 168.656 265.242L167.312 264.75C167.144 265.23 166.688 265.494 165.992 265.494C165.188 265.494 164.66 265.086 164.492 264.222H168.74C168.764 264.066 168.788 263.742 168.788 263.574ZM165.884 261.69C166.64 261.69 167.144 262.17 167.276 263.07H164.48C164.612 262.158 165.092 261.69 165.884 261.69Z" fill="#181B5E"/>
<rect x="18.5" y="249.098" width="275" height="27" rx="3.5" stroke="#E3E3E3"/>
</g>
<rect x="110.5" y="301.098" width="91" height="26" rx="13" fill="#F6F6F6"/>
<path d="M141.936 309.038H139.968L137.664 315.47L136.848 318.094H136.816L136.016 315.454L133.696 309.038H131.728V319.598H132.944V312.958L132.8 310.174H132.816L136.288 319.598H137.376L140.848 310.174H140.864L140.72 312.958V319.598H141.936V309.038ZM148.38 311.438C145.964 311.438 144.508 313.006 144.508 315.598C144.508 318.19 145.964 319.758 148.38 319.758C150.796 319.758 152.252 318.19 152.252 315.598C152.252 313.006 150.796 311.438 148.38 311.438ZM148.38 312.542C149.996 312.542 150.972 313.694 150.972 315.598C150.972 317.502 149.996 318.654 148.38 318.654C146.764 318.654 145.788 317.502 145.788 315.598C145.788 313.694 146.764 312.542 148.38 312.542ZM158.514 311.438C157.266 311.438 156.402 311.934 155.954 312.91L155.778 311.598H154.738V319.598H156.018V315.278C156.018 313.486 157.17 312.638 158.13 312.638C158.546 312.638 158.898 312.718 159.138 312.846L159.394 311.598C159.154 311.47 158.786 311.438 158.514 311.438ZM167.883 315.182C167.883 313.118 166.619 311.438 164.299 311.438C161.883 311.438 160.523 313.006 160.523 315.598C160.523 318.19 161.979 319.758 164.395 319.758C166.123 319.758 167.115 319.102 167.723 318.014L166.651 317.454C166.363 318.222 165.563 318.638 164.395 318.638C162.923 318.638 161.947 317.694 161.787 316.078H167.819C167.851 315.854 167.883 315.55 167.883 315.182ZM164.299 312.558C165.659 312.558 166.475 313.47 166.651 314.942H161.803C161.995 313.438 162.875 312.558 164.299 312.558ZM170.956 317.678C170.332 317.678 169.916 318.094 169.916 318.718C169.916 319.342 170.332 319.758 170.956 319.758C171.58 319.758 171.996 319.342 171.996 318.718C171.996 318.094 171.58 317.678 170.956 317.678ZM175.206 317.678C174.582 317.678 174.166 318.094 174.166 318.718C174.166 319.342 174.582 319.758 175.206 319.758C175.83 319.758 176.246 319.342 176.246 318.718C176.246 318.094 175.83 317.678 175.206 317.678ZM179.456 317.678C178.832 317.678 178.416 318.094 178.416 318.718C178.416 319.342 178.832 319.758 179.456 319.758C180.08 319.758 180.496 319.342 180.496 318.718C180.496 318.094 180.08 317.678 179.456 317.678Z" fill="#B7B7B7"/>
<rect x="110.5" y="301.098" width="91" height="26" rx="13" stroke="#E3E3E3"/>
<defs>
<filter id="filter0_d_3094_41776" x="0" y="0" width="312" height="64" filterUnits="userSpaceOnUse" color-interpolation-filters="sRGB">
<feFlood flood-opacity="0" result="BackgroundImageFix"/>
<feColorMatrix in="SourceAlpha" type="matrix" values="0 0 0 0 0 0 0 0 0 0 0 0 0 0 0 0 0 0 127 0" result="hardAlpha"/>
<feOffset/>
<feGaussianBlur stdDeviation="3"/>
<feComposite in2="hardAlpha" operator="out"/>
<feColorMatrix type="matrix" values="0 0 0 0 0 0 0 0 0 0 0 0 0 0 0 0 0 0 0.05 0"/>
<feBlend mode="normal" in2="BackgroundImageFix" result="effect1_dropShadow_3094_41776"/>
<feBlend mode="normal" in="SourceGraphic" in2="effect1_dropShadow_3094_41776" result="shape"/>
</filter>
<filter id="filter1_d_3094_41776" x="0" y="64" width="312" height="64" filterUnits="userSpaceOnUse" color-interpolation-filters="sRGB">
<feFlood flood-opacity="0" result="BackgroundImageFix"/>
<feColorMatrix in="SourceAlpha" type="matrix" values="0 0 0 0 0 0 0 0 0 0 0 0 0 0 0 0 0 0 127 0" result="hardAlpha"/>
<feOffset/>
<feGaussianBlur stdDeviation="3"/>
<feComposite in2="hardAlpha" operator="out"/>
<feColorMatrix type="matrix" values="0 0 0 0 0 0 0 0 0 0 0 0 0 0 0 0 0 0 0.05 0"/>
<feBlend mode="normal" in2="BackgroundImageFix" result="effect1_dropShadow_3094_41776"/>
<feBlend mode="normal" in="SourceGraphic" in2="effect1_dropShadow_3094_41776" result="shape"/>
</filter>
<filter id="filter2_d_3094_41776" x="0" y="128" width="312" height="166.598" filterUnits="userSpaceOnUse" color-interpolation-filters="sRGB">
<feFlood flood-opacity="0" result="BackgroundImageFix"/>
<feColorMatrix in="SourceAlpha" type="matrix" values="0 0 0 0 0 0 0 0 0 0 0 0 0 0 0 0 0 0 127 0" result="hardAlpha"/>
<feOffset/>
<feGaussianBlur stdDeviation="3"/>
<feComposite in2="hardAlpha" operator="out"/>
<feColorMatrix type="matrix" values="0 0 0 0 0 0 0 0 0 0 0 0 0 0 0 0 0 0 0.05 0"/>
<feBlend mode="normal" in2="BackgroundImageFix" result="effect1_dropShadow_3094_41776"/>
<feBlend mode="normal" in="SourceGraphic" in2="effect1_dropShadow_3094_41776" result="shape"/>
</filter>
<clipPath id="clip0_3094_41776">
<rect width="18" height="18" fill="white" transform="translate(147 172.799)"/>
</clipPath>
</defs>
</svg>
