<svg width="312" height="328" viewBox="0 0 312 328" fill="none" xmlns="http://www.w3.org/2000/svg">
<g filter="url(#filter0_d_3094_41766)">
<rect x="6" y="6" width="300" height="43" rx="8" fill="white" shape-rendering="crispEdges"/>
<path d="M27.12 23.64V22.44H19.728V33H21.008V28.248H25.776V27.048H21.008V23.64H27.12ZM34.2298 25V29.352C34.2298 31.24 33.0298 32.04 31.6698 32.04C30.5178 32.04 29.7818 31.544 29.7818 29.896V25H28.5018V30.232C28.5018 32.344 29.8618 33.16 31.4458 33.16C32.7258 33.16 33.7498 32.744 34.3098 31.784L34.3898 33H35.5098V25H34.2298ZM39.704 21.32H38.424V31.016C38.424 32.472 39.048 33.16 40.344 33.16C40.76 33.16 41.192 33.08 41.528 32.936L41.736 31.704C41.272 31.88 41 31.928 40.568 31.928C39.912 31.928 39.704 31.672 39.704 30.856V21.32ZM44.5946 21.32H43.3146V31.016C43.3146 32.472 43.9386 33.16 45.2346 33.16C45.6506 33.16 46.0826 33.08 46.4186 32.936L46.6266 31.704C46.1626 31.88 45.8906 31.928 45.4586 31.928C44.8026 31.928 44.5946 31.672 44.5946 30.856V21.32ZM57.0479 24.84C55.9439 24.84 54.9199 25.24 54.3599 26.248L54.2799 25H53.1599V33H54.4399V28.744C54.4399 26.696 55.7519 25.96 56.9199 25.96C58.0239 25.96 58.8879 26.552 58.8879 28.328V33H60.1679V27.88C60.1679 25.816 58.7599 24.84 57.0479 24.84ZM69.6261 32.072C69.1781 32.072 69.0181 31.88 69.0181 31.496V27.56C69.0181 25.704 67.6901 24.84 65.8661 24.84C64.3141 24.84 63.0501 25.608 62.6341 26.792L63.5781 27.48C64.0101 26.472 64.8101 25.96 65.8661 25.96C67.0661 25.96 67.7381 26.664 67.7381 27.72V28.168L65.6101 28.52C63.5461 28.872 62.4901 29.816 62.4901 31.016C62.4901 32.456 63.7061 33.16 65.2101 33.16C66.2341 33.16 67.2741 32.728 67.7861 31.976C67.9301 32.872 68.4421 33.16 69.2261 33.16C69.6261 33.16 69.9621 33.08 70.1861 33L70.2661 31.992C70.0741 32.04 69.8341 32.072 69.6261 32.072ZM65.2741 32.04C64.3621 32.04 63.8181 31.688 63.8181 31.016C63.8181 30.264 64.5381 29.8 65.9461 29.544L67.7381 29.208V30.312C67.7381 31.368 66.5541 32.04 65.2741 32.04ZM81.4246 24.84C80.4166 24.84 79.1366 25.32 78.6406 26.408C78.1126 25.336 77.0086 24.84 75.8886 24.84C74.8966 24.84 73.9046 25.272 73.3286 26.248L73.2486 25H72.1286V33H73.4086V28.728C73.4086 26.744 74.7206 25.96 75.7766 25.96C76.8326 25.96 77.6646 26.552 77.6646 28.008V33H78.9446V28.616C78.9446 26.904 80.0646 25.96 81.3126 25.96C82.3686 25.96 83.2006 26.552 83.2006 28.008V33H84.4806V27.88C84.4806 25.768 82.9606 24.84 81.4246 24.84ZM94.2426 28.584C94.2426 26.52 92.9786 24.84 90.6586 24.84C88.2426 24.84 86.8826 26.408 86.8826 29C86.8826 31.592 88.3386 33.16 90.7546 33.16C92.4826 33.16 93.4746 32.504 94.0826 31.416L93.0106 30.856C92.7226 31.624 91.9226 32.04 90.7546 32.04C89.2826 32.04 88.3066 31.096 88.1466 29.48H94.1786C94.2106 29.256 94.2426 28.952 94.2426 28.584ZM90.6586 25.96C92.0186 25.96 92.8346 26.872 93.0106 28.344H88.1626C88.3546 26.84 89.2346 25.96 90.6586 25.96Z" fill="#181B5E"/>
</g>
<g filter="url(#filter1_d_3094_41766)">
<rect x="6" y="61" width="300" height="43" rx="8" fill="white" shape-rendering="crispEdges"/>
<path d="M23.136 77.44H19.728V88H23.136C26.448 88 28.448 86.112 28.448 82.72C28.448 79.328 26.448 77.44 23.136 77.44ZM23.264 86.8H21.008V78.64H23.264C25.68 78.64 27.104 80.16 27.104 82.72C27.104 85.28 25.68 86.8 23.264 86.8ZM37.5793 87.072C37.1313 87.072 36.9713 86.88 36.9713 86.496V82.56C36.9713 80.704 35.6433 79.84 33.8193 79.84C32.2673 79.84 31.0033 80.608 30.5872 81.792L31.5312 82.48C31.9633 81.472 32.7633 80.96 33.8193 80.96C35.0193 80.96 35.6913 81.664 35.6913 82.72V83.168L33.5633 83.52C31.4993 83.872 30.4433 84.816 30.4433 86.016C30.4433 87.456 31.6593 88.16 33.1633 88.16C34.1873 88.16 35.2273 87.728 35.7393 86.976C35.8833 87.872 36.3953 88.16 37.1793 88.16C37.5793 88.16 37.9153 88.08 38.1393 88L38.2193 86.992C38.0273 87.04 37.7873 87.072 37.5793 87.072ZM33.2273 87.04C32.3153 87.04 31.7713 86.688 31.7713 86.016C31.7713 85.264 32.4913 84.8 33.8993 84.544L35.6913 84.208V85.312C35.6913 86.368 34.5073 87.04 33.2273 87.04ZM44.2173 86.368C43.8493 86.736 43.4333 86.96 42.8573 86.96C42.1533 86.96 41.6573 86.576 41.6573 85.792V81.104H44.6173V80H41.6573V77.728L40.3773 78.08V80H38.7773V81.104H40.3773V86.016C40.3932 87.568 41.4173 88.16 42.6013 88.16C43.4813 88.16 44.1693 87.888 44.6653 87.44L44.2173 86.368ZM53.3364 83.584C53.3364 81.52 52.0724 79.84 49.7524 79.84C47.3364 79.84 45.9764 81.408 45.9764 84C45.9764 86.592 47.4324 88.16 49.8484 88.16C51.5764 88.16 52.5684 87.504 53.1764 86.416L52.1044 85.856C51.8164 86.624 51.0164 87.04 49.8484 87.04C48.3764 87.04 47.4004 86.096 47.2404 84.48H53.2724C53.3044 84.256 53.3364 83.952 53.3364 83.584ZM49.7524 80.96C51.1124 80.96 51.9284 81.872 52.1044 83.344H47.2564C47.4484 81.84 48.3284 80.96 49.7524 80.96ZM64.5984 79.84C62.1824 79.84 60.7264 81.408 60.7264 84C60.7264 86.592 62.1824 88.16 64.5984 88.16C67.0144 88.16 68.4704 86.592 68.4704 84C68.4704 81.408 67.0144 79.84 64.5984 79.84ZM64.5984 80.944C66.2144 80.944 67.1904 82.096 67.1904 84C67.1904 85.904 66.2144 87.056 64.5984 87.056C62.9824 87.056 62.0064 85.904 62.0064 84C62.0064 82.096 62.9824 80.944 64.5984 80.944ZM72.7201 78.784C72.7201 77.824 73.2481 77.408 74.1761 77.408C74.5441 77.408 74.8321 77.488 75.0881 77.648L75.4241 76.608C75.1361 76.368 74.6241 76.24 74.0641 76.24C72.3041 76.24 71.4401 77.232 71.4401 78.656V80H69.8401V81.104H71.4401V88H72.7201V81.104H75.3921V80H72.7201V78.784ZM85.8459 79.84C84.6459 79.84 83.6859 80.416 83.1899 81.248V76.32H81.9099V88H83.0299L83.1099 86.608C83.5739 87.52 84.5819 88.16 85.8459 88.16C88.0699 88.16 89.4939 86.608 89.4939 84C89.4939 81.392 88.0699 79.84 85.8459 79.84ZM85.7019 87.04C84.1819 87.04 83.1899 85.904 83.1899 84.096V83.904C83.1899 82.096 84.1819 80.96 85.7019 80.96C87.2699 80.96 88.2139 82.144 88.2139 84C88.2139 85.856 87.2699 87.04 85.7019 87.04ZM92.628 78.464C93.204 78.464 93.588 78.08 93.588 77.504C93.588 76.928 93.204 76.544 92.628 76.544C92.052 76.544 91.668 76.928 91.668 77.504C91.668 78.08 92.052 78.464 92.628 78.464ZM93.268 80H91.988V88H93.268V80ZM100.014 79.84C98.766 79.84 97.902 80.336 97.454 81.312L97.278 80H96.238V88H97.518V83.68C97.518 81.888 98.67 81.04 99.63 81.04C100.046 81.04 100.398 81.12 100.638 81.248L100.894 80C100.654 79.872 100.286 79.84 100.014 79.84ZM106.733 86.368C106.365 86.736 105.949 86.96 105.373 86.96C104.669 86.96 104.173 86.576 104.173 85.792V81.104H107.133V80H104.173V77.728L102.893 78.08V80H101.293V81.104H102.893V86.016C102.909 87.568 103.933 88.16 105.117 88.16C105.997 88.16 106.685 87.888 107.181 87.44L106.733 86.368ZM112.876 79.84C111.788 79.84 110.828 80.24 110.268 81.2V76.32H108.988V88H110.268V83.76C110.268 81.712 111.58 80.96 112.748 80.96C113.852 80.96 114.716 81.552 114.716 83.328V88H115.996V82.88C115.996 80.816 114.588 79.84 112.876 79.84Z" fill="#181B5E"/>
</g>
<g filter="url(#filter2_d_3094_41766)">
<rect x="6" y="116" width="300" height="43" rx="8" fill="white" shape-rendering="crispEdges"/>
<path d="M21.008 132.44H19.728V143H21.008V132.44ZM27.8704 132.44H24.4624V143H27.8704C31.1824 143 33.1824 141.112 33.1824 137.72C33.1824 134.328 31.1824 132.44 27.8704 132.44ZM27.9984 141.8H25.7424V133.64H27.9984C30.4144 133.64 31.8384 135.16 31.8384 137.72C31.8384 140.28 30.4144 141.8 27.9984 141.8ZM45.0948 134.84C43.9908 134.84 42.9668 135.24 42.4068 136.248L42.3268 135H41.2068V143H42.4868V138.744C42.4868 136.696 43.7988 135.96 44.9668 135.96C46.0708 135.96 46.9348 136.552 46.9348 138.328V143H48.2148V137.88C48.2148 135.816 46.8068 134.84 45.0948 134.84ZM56.761 135V139.352C56.761 141.24 55.561 142.04 54.201 142.04C53.049 142.04 52.313 141.544 52.313 139.896V135H51.033V140.232C51.033 142.344 52.393 143.16 53.977 143.16C55.257 143.16 56.281 142.744 56.841 141.784L56.921 143H58.041V135H56.761ZM70.3153 134.84C69.3073 134.84 68.0273 135.32 67.5312 136.408C67.0033 135.336 65.8993 134.84 64.7793 134.84C63.7873 134.84 62.7953 135.272 62.2193 136.248L62.1393 135H61.0193V143H62.2993V138.728C62.2993 136.744 63.6113 135.96 64.6673 135.96C65.7233 135.96 66.5553 136.552 66.5553 138.008V143H67.8353V138.616C67.8353 136.904 68.9553 135.96 70.2033 135.96C71.2593 135.96 72.0913 136.552 72.0913 138.008V143H73.3713V137.88C73.3713 135.768 71.8513 134.84 70.3153 134.84ZM80.2053 134.84C79.0052 134.84 78.0453 135.416 77.5493 136.248V131.32H76.2693V143H77.3893L77.4693 141.608C77.9333 142.52 78.9413 143.16 80.2053 143.16C82.4293 143.16 83.8533 141.608 83.8533 139C83.8533 136.392 82.4293 134.84 80.2053 134.84ZM80.0613 142.04C78.5413 142.04 77.5493 140.904 77.5493 139.096V138.904C77.5493 137.096 78.5413 135.96 80.0613 135.96C81.6293 135.96 82.5733 137.144 82.5733 139C82.5733 140.856 81.6293 142.04 80.0613 142.04ZM93.2114 138.584C93.2114 136.52 91.9474 134.84 89.6274 134.84C87.2114 134.84 85.8514 136.408 85.8514 139C85.8514 141.592 87.3074 143.16 89.7234 143.16C91.4514 143.16 92.4434 142.504 93.0514 141.416L91.9794 140.856C91.6914 141.624 90.8914 142.04 89.7234 142.04C88.2514 142.04 87.2754 141.096 87.1154 139.48H93.1474C93.1794 139.256 93.2114 138.952 93.2114 138.584ZM89.6274 135.96C90.9874 135.96 91.8034 136.872 91.9794 138.344H87.1314C87.3234 136.84 88.2034 135.96 89.6274 135.96ZM99.4203 134.84C98.1723 134.84 97.3083 135.336 96.8603 136.312L96.6843 135H95.6443V143H96.9243V138.68C96.9243 136.888 98.0763 136.04 99.0363 136.04C99.4523 136.04 99.8043 136.12 100.044 136.248L100.3 135C100.06 134.872 99.6923 134.84 99.4203 134.84Z" fill="#181B5E"/>
</g>
<g filter="url(#filter3_d_3094_41766)">
<rect x="6" y="171" width="300" height="117.598" rx="8" fill="white" shape-rendering="crispEdges"/>
<path d="M26.784 198H28.144L24.048 187.44H22.528L18.416 198H19.76L20.88 195.072H25.664L26.784 198ZM21.344 193.872L22.784 190.08L23.248 188.656H23.28L23.776 190.128L25.2 193.872H21.344ZM35.7339 186.32V191.248C35.2379 190.416 34.2779 189.84 33.0779 189.84C30.8539 189.84 29.4299 191.392 29.4299 194C29.4299 196.608 30.8539 198.16 33.0779 198.16C34.3419 198.16 35.3499 197.52 35.8139 196.608L35.8939 198H37.0139V186.32H35.7339ZM33.2219 197.04C31.6539 197.04 30.7099 195.856 30.7099 194C30.7099 192.144 31.6539 190.96 33.2219 190.96C34.7419 190.96 35.7339 192.096 35.7339 193.904V194.096C35.7339 195.904 34.7419 197.04 33.2219 197.04ZM45.812 186.32V191.248C45.316 190.416 44.356 189.84 43.156 189.84C40.932 189.84 39.508 191.392 39.508 194C39.508 196.608 40.932 198.16 43.156 198.16C44.42 198.16 45.428 197.52 45.892 196.608L45.972 198H47.092V186.32H45.812ZM43.3 197.04C41.732 197.04 40.788 195.856 40.788 194C40.788 192.144 41.732 190.96 43.3 190.96C44.82 190.96 45.812 192.096 45.812 193.904V194.096C45.812 195.904 44.82 197.04 43.3 197.04ZM53.8421 189.84C52.5941 189.84 51.7301 190.336 51.2821 191.312L51.1061 190H50.0661V198H51.3461V193.68C51.3461 191.888 52.4981 191.04 53.4581 191.04C53.8741 191.04 54.2261 191.12 54.4661 191.248L54.7221 190C54.4821 189.872 54.1141 189.84 53.8421 189.84ZM63.2114 193.584C63.2114 191.52 61.9474 189.84 59.6274 189.84C57.2114 189.84 55.8514 191.408 55.8514 194C55.8514 196.592 57.3074 198.16 59.7234 198.16C61.4514 198.16 62.4434 197.504 63.0514 196.416L61.9794 195.856C61.6914 196.624 60.8914 197.04 59.7234 197.04C58.2514 197.04 57.2754 196.096 57.1154 194.48H63.1474C63.1794 194.256 63.2114 193.952 63.2114 193.584ZM59.6274 190.96C60.9874 190.96 61.8034 191.872 61.9794 193.344H57.1314C57.3234 191.84 58.2034 190.96 59.6274 190.96ZM68.3643 198.16C70.4123 198.16 71.7083 197.184 71.7083 195.792C71.7083 194.48 70.9083 193.808 68.6683 193.44C67.0363 193.168 66.5082 192.816 66.5082 192.128C66.5082 191.536 67.3083 190.96 68.3802 190.96C69.3883 190.96 70.1083 191.344 70.4603 192.4L71.5483 191.76C71.1003 190.448 70.0923 189.84 68.3802 189.84C66.4283 189.84 65.2283 190.944 65.2283 192.24C65.2283 193.584 66.0603 194.208 68.3323 194.624C69.9323 194.912 70.4283 195.264 70.4283 195.856C70.4283 196.512 69.8043 197.04 68.4923 197.04C67.3403 197.04 66.3483 196.608 65.9643 195.632L64.9243 196.352C65.5323 197.584 66.8923 198.16 68.3643 198.16ZM76.8018 198.16C78.8498 198.16 80.1458 197.184 80.1458 195.792C80.1458 194.48 79.3458 193.808 77.1058 193.44C75.4738 193.168 74.9457 192.816 74.9457 192.128C74.9457 191.536 75.7458 190.96 76.8177 190.96C77.8258 190.96 78.5458 191.344 78.8978 192.4L79.9858 191.76C79.5378 190.448 78.5298 189.84 76.8177 189.84C74.8658 189.84 73.6658 190.944 73.6658 192.24C73.6658 193.584 74.4978 194.208 76.7698 194.624C78.3698 194.912 78.8658 195.264 78.8658 195.856C78.8658 196.512 78.2418 197.04 76.9298 197.04C75.7778 197.04 74.7858 196.608 74.4018 195.632L73.3618 196.352C73.9698 197.584 75.3298 198.16 76.8018 198.16Z" fill="#181B5E"/>
</g>
<rect x="110.5" y="301.098" width="91" height="26" rx="13" fill="#F6F6F6"/>
<path d="M141.936 309.038H139.968L137.664 315.47L136.848 318.094H136.816L136.016 315.454L133.696 309.038H131.728V319.598H132.944V312.958L132.8 310.174H132.816L136.288 319.598H137.376L140.848 310.174H140.864L140.72 312.958V319.598H141.936V309.038ZM148.38 311.438C145.964 311.438 144.508 313.006 144.508 315.598C144.508 318.19 145.964 319.758 148.38 319.758C150.796 319.758 152.252 318.19 152.252 315.598C152.252 313.006 150.796 311.438 148.38 311.438ZM148.38 312.542C149.996 312.542 150.972 313.694 150.972 315.598C150.972 317.502 149.996 318.654 148.38 318.654C146.764 318.654 145.788 317.502 145.788 315.598C145.788 313.694 146.764 312.542 148.38 312.542ZM158.514 311.438C157.266 311.438 156.402 311.934 155.954 312.91L155.778 311.598H154.738V319.598H156.018V315.278C156.018 313.486 157.17 312.638 158.13 312.638C158.546 312.638 158.898 312.718 159.138 312.846L159.394 311.598C159.154 311.47 158.786 311.438 158.514 311.438ZM167.883 315.182C167.883 313.118 166.619 311.438 164.299 311.438C161.883 311.438 160.523 313.006 160.523 315.598C160.523 318.19 161.979 319.758 164.395 319.758C166.123 319.758 167.115 319.102 167.723 318.014L166.651 317.454C166.363 318.222 165.563 318.638 164.395 318.638C162.923 318.638 161.947 317.694 161.787 316.078H167.819C167.851 315.854 167.883 315.55 167.883 315.182ZM164.299 312.558C165.659 312.558 166.475 313.47 166.651 314.942H161.803C161.995 313.438 162.875 312.558 164.299 312.558ZM170.956 317.678C170.332 317.678 169.916 318.094 169.916 318.718C169.916 319.342 170.332 319.758 170.956 319.758C171.58 319.758 171.996 319.342 171.996 318.718C171.996 318.094 171.58 317.678 170.956 317.678ZM175.206 317.678C174.582 317.678 174.166 318.094 174.166 318.718C174.166 319.342 174.582 319.758 175.206 319.758C175.83 319.758 176.246 319.342 176.246 318.718C176.246 318.094 175.83 317.678 175.206 317.678ZM179.456 317.678C178.832 317.678 178.416 318.094 178.416 318.718C178.416 319.342 178.832 319.758 179.456 319.758C180.08 319.758 180.496 319.342 180.496 318.718C180.496 318.094 180.08 317.678 179.456 317.678Z" fill="#B7B7B7"/>
<rect x="110.5" y="301.098" width="91" height="26" rx="13" stroke="#E3E3E3"/>
<defs>
<filter id="filter0_d_3094_41766" x="0" y="0" width="312" height="55" filterUnits="userSpaceOnUse" color-interpolation-filters="sRGB">
<feFlood flood-opacity="0" result="BackgroundImageFix"/>
<feColorMatrix in="SourceAlpha" type="matrix" values="0 0 0 0 0 0 0 0 0 0 0 0 0 0 0 0 0 0 127 0" result="hardAlpha"/>
<feOffset/>
<feGaussianBlur stdDeviation="3"/>
<feComposite in2="hardAlpha" operator="out"/>
<feColorMatrix type="matrix" values="0 0 0 0 0 0 0 0 0 0 0 0 0 0 0 0 0 0 0.05 0"/>
<feBlend mode="normal" in2="BackgroundImageFix" result="effect1_dropShadow_3094_41766"/>
<feBlend mode="normal" in="SourceGraphic" in2="effect1_dropShadow_3094_41766" result="shape"/>
</filter>
<filter id="filter1_d_3094_41766" x="0" y="55" width="312" height="55" filterUnits="userSpaceOnUse" color-interpolation-filters="sRGB">
<feFlood flood-opacity="0" result="BackgroundImageFix"/>
<feColorMatrix in="SourceAlpha" type="matrix" values="0 0 0 0 0 0 0 0 0 0 0 0 0 0 0 0 0 0 127 0" result="hardAlpha"/>
<feOffset/>
<feGaussianBlur stdDeviation="3"/>
<feComposite in2="hardAlpha" operator="out"/>
<feColorMatrix type="matrix" values="0 0 0 0 0 0 0 0 0 0 0 0 0 0 0 0 0 0 0.05 0"/>
<feBlend mode="normal" in2="BackgroundImageFix" result="effect1_dropShadow_3094_41766"/>
<feBlend mode="normal" in="SourceGraphic" in2="effect1_dropShadow_3094_41766" result="shape"/>
</filter>
<filter id="filter2_d_3094_41766" x="0" y="110" width="312" height="55" filterUnits="userSpaceOnUse" color-interpolation-filters="sRGB">
<feFlood flood-opacity="0" result="BackgroundImageFix"/>
<feColorMatrix in="SourceAlpha" type="matrix" values="0 0 0 0 0 0 0 0 0 0 0 0 0 0 0 0 0 0 127 0" result="hardAlpha"/>
<feOffset/>
<feGaussianBlur stdDeviation="3"/>
<feComposite in2="hardAlpha" operator="out"/>
<feColorMatrix type="matrix" values="0 0 0 0 0 0 0 0 0 0 0 0 0 0 0 0 0 0 0.05 0"/>
<feBlend mode="normal" in2="BackgroundImageFix" result="effect1_dropShadow_3094_41766"/>
<feBlend mode="normal" in="SourceGraphic" in2="effect1_dropShadow_3094_41766" result="shape"/>
</filter>
<filter id="filter3_d_3094_41766" x="0" y="165" width="312" height="129.598" filterUnits="userSpaceOnUse" color-interpolation-filters="sRGB">
<feFlood flood-opacity="0" result="BackgroundImageFix"/>
<feColorMatrix in="SourceAlpha" type="matrix" values="0 0 0 0 0 0 0 0 0 0 0 0 0 0 0 0 0 0 127 0" result="hardAlpha"/>
<feOffset/>
<feGaussianBlur stdDeviation="3"/>
<feComposite in2="hardAlpha" operator="out"/>
<feColorMatrix type="matrix" values="0 0 0 0 0 0 0 0 0 0 0 0 0 0 0 0 0 0 0.05 0"/>
<feBlend mode="normal" in2="BackgroundImageFix" result="effect1_dropShadow_3094_41766"/>
<feBlend mode="normal" in="SourceGraphic" in2="effect1_dropShadow_3094_41766" result="shape"/>
</filter>
</defs>
</svg>
