<svg xmlns="http://www.w3.org/2000/svg" viewBox="0 0 658 194"><defs><style>.cls-1{font-size:34.8156px;font-family:HelveticaNeue-CondensedBold, Helvetica Neue;font-weight:700;letter-spacing:0.027em;}.cls-2{letter-spacing:-0.028em;}.cls-3{letter-spacing:0.027em;}.cls-4{font-size:51.7494px;font-family:Montserrat-ExtraBold, Montserrat;font-weight:800;letter-spacing:0.285em;}.cls-5{letter-spacing:0.3em;}.cls-6{fill:none;stroke:#000;stroke-miterlimit:10;stroke-width:3px;}.cls-7{fill:#d73741;}.cls-8{fill:#1d130e;}</style></defs><g id="Modo_de_aislamiento" data-name="Modo de aislamiento"><text class="cls-1" transform="translate(271.8789 84.2324)">CONNECTIVIY &amp; D<tspan class="cls-2" x="255.751" y="0">AT</tspan><tspan class="cls-3" x="289.8706" y="0">A</tspan></text><text class="cls-4" transform="translate(271.8789 135.5918)">W<tspan class="cls-5" x="76.0195" y="0">INNER</tspan></text><line class="cls-6" x1="241.3816" y1="40.5487" x2="241.3816" y2="153.4513"/><path class="cls-7" d="M127.9982,59.2713h6.5741V78.2484c0,3.334.8376,6.6251,6.1553,6.6251,4.69,0,6.1974-2.0945,6.1974-6.6251V59.2713h6.5741V78.2484c0,8.2492-4.7734,12.267-12.7715,12.267-8.04,0-12.7294-3.9749-12.7294-12.267ZM79.85,121.6023c-.1327.0055-.2685.0078-.4015.0129s-.2632.0128-.4008.0128c-.15,0-.2988-.0084-.4483-.0128s-.3-.0048-.4489-.0129c-5.2167-.2826-9.88-3.0571-9.8137-8.9233h5.3555c0,3.347,2.6071,4.6507,5.5667,4.6507,1.9374,0,4.8971-.5637,4.8971-3.1355,0-2.7129-3.77-3.171-7.4693-4.1574-3.7343-.9867-7.5043-2.4312-7.5043-7.1522,0-5.1437,4.8621-7.61,9.4071-7.61,5.2494,0,10.0761,2.29,10.0761,8.1036H83.3105c-.1763-3.03-2.3255-3.8053-4.9678-3.8053-1.7617,0-3.8049.74-3.8049,2.8539,0,1.9378,1.1978,2.1845,7.5043,3.8049,1.8321.4581,7.4692,1.6208,7.4692,7.3282C89.5113,117.9891,86.16,121.3386,79.85,121.6023Zm1.2168-31.06c-6.6161,0-12.8134-3.2662-12.73-10.6359h6.3649c0,3.9778,3.0986,5.5273,6.616,5.5273,2.3028,0,5.82-.67,5.82-3.7266,0-3.2242-4.48-3.7686-8.8771-4.941-4.4382-1.1727-8.9188-2.8894-8.9188-8.5,0-5.66,4.9524-8.59,9.9735-8.9942.4027-.0324.8057-.0506,1.2068-.0506.4778,0,.9519.018,1.4215.0506,5.6617.3929,10.554,3.2,10.554,9.5806H86.1333c-.21-3.6014-2.7639-4.5226-5.9042-4.5226-2.0939,0-4.5222.8795-4.5222,3.3918,0,2.3031,1.4236,2.5963,8.9188,4.5222,2.1775.5444,8.8772,1.9263,8.8772,8.71C93.5029,86.4383,89.19,90.5421,81.0667,90.5421Zm33.3106,20.7261c0,6.7192-3.7461,10.1092-10.0632,10.3341-.2246.008-.4517.0129-.6827.0129-.2332,0-.4623-.005-.6889-.0129-6.3422-.2236-10.0216-3.5811-10.0216-10.3341V95.2615h5.5315v16.0067c0,2.8121.7047,5.5881,5.179,5.5881,3.946,0,5.2145-1.7666,5.2145-5.5881V95.2615h5.5314Zm30.503,10.3341h-5.179V102.9259h-.07l-6.1658,18.6764h-4.2629l-6.1656-18.4917h-.0706v18.4917h-5.179V95.2487h7.7862l5.8838,18.1228h.0706l5.5664-18.1228H144.88Zm30.5031-.0062h-5.1791V102.915h-.07l-6.1658,18.6811h-4.2631L153.54,103.1h-.0707v18.4964H148.29v-26.36h7.7863l5.8838,18.1275h.0706l5.5664-18.1275h7.7863Zm5.1615-56.5H171.584V90.67H165.01V65.0956h-8.9607v-5.8h24.4957Z"/><path class="cls-7" d="M80.5223,59.2207c-.4011,0-.8041.0182-1.2068.0506h2.6283C81.4742,59.2387,81,59.2207,80.5223,59.2207Z"/><path class="cls-7" d="M80.5223,59.2207c-.4011,0-.8041.0182-1.2068.0506h2.6283C81.4742,59.2387,81,59.2207,80.5223,59.2207Z"/><path class="cls-7" d="M80.5223,59.2207c-.4011,0-.8041.0182-1.2068.0506h2.6283C81.4742,59.2387,81,59.2207,80.5223,59.2207Z"/><path class="cls-7" d="M80.5223,59.2207c-.4011,0-.8041.0182-1.2068.0506h2.6283C81.4742,59.2387,81,59.2207,80.5223,59.2207Z"/><path class="cls-7" d="M80.5223,59.2207c-.4011,0-.8041.0182-1.2068.0506h2.6283C81.4742,59.2387,81,59.2207,80.5223,59.2207Z"/><path class="cls-7" d="M80.5223,59.2207c-.4011,0-.8041.0182-1.2068.0506h2.6283C81.4742,59.2387,81,59.2207,80.5223,59.2207Z"/><path class="cls-7" d="M80.5223,59.2207c-.4011,0-.8041.0182-1.2068.0506h2.6283C81.4742,59.2387,81,59.2207,80.5223,59.2207Z"/><path class="cls-7" d="M110.75,59.2447c-.321,0-.6363.01-.948.0266h1.896C111.3866,59.2549,111.0714,59.2447,110.75,59.2447Z"/><path class="cls-7" d="M110.75,59.2447c-.321,0-.6363.01-.948.0266h1.896C111.3866,59.2549,111.0714,59.2447,110.75,59.2447Z"/><path class="cls-7" d="M110.75,59.2447c-.321,0-.6363.01-.948.0266h1.896C111.3866,59.2549,111.0714,59.2447,110.75,59.2447Z"/><path class="cls-7" d="M110.75,59.2447c-.321,0-.6363.01-.948.0266h1.896C111.3866,59.2549,111.0714,59.2447,110.75,59.2447Z"/><path class="cls-7" d="M110.75,59.2447c-.321,0-.6363.01-.948.0266h1.896C111.3866,59.2549,111.0714,59.2447,110.75,59.2447Z"/><path class="cls-7" d="M110.75,59.2447c-.321,0-.6363.01-.948.0266h1.896C111.3866,59.2549,111.0714,59.2447,110.75,59.2447Z"/><path class="cls-7" d="M110.75,59.2447c-.321,0-.6363.01-.948.0266h1.896C111.3866,59.2549,111.0714,59.2447,110.75,59.2447Z"/><path class="cls-7" d="M84.6257,72.2433c-7.4952-1.9259-8.9188-2.2191-8.9188-4.5222,0-2.5123,2.4283-3.3918,4.5222-3.3918,3.14,0,5.6946.9212,5.9042,4.5226h6.3645c0-6.38-4.8923-9.1877-10.554-9.5806H79.3155c-5.0211.4043-9.9735,3.3347-9.9735,8.9942,0,5.611,4.4806,7.3277,8.9188,8.5,4.397,1.1724,8.8771,1.7168,8.8771,4.941,0,3.0566-3.5173,3.7266-5.82,3.7266-3.5174,0-6.616-1.5495-6.616-5.5273H68.3369c-.0836,7.37,6.1137,10.6359,12.73,10.6359,8.1232,0,12.4362-4.1038,12.4362-9.5891C93.5029,74.17,86.8032,72.7877,84.6257,72.2433Z"/><path class="cls-7" d="M84.6257,72.2433c-7.4952-1.9259-8.9188-2.2191-8.9188-4.5222,0-2.5123,2.4283-3.3918,4.5222-3.3918,3.14,0,5.6946.9212,5.9042,4.5226h6.3645c0-6.38-4.8923-9.1877-10.554-9.5806H79.3155c-5.0211.4043-9.9735,3.3347-9.9735,8.9942,0,5.611,4.4806,7.3277,8.9188,8.5,4.397,1.1724,8.8771,1.7168,8.8771,4.941,0,3.0566-3.5173,3.7266-5.82,3.7266-3.5174,0-6.616-1.5495-6.616-5.5273H68.3369c-.0836,7.37,6.1137,10.6359,12.73,10.6359,8.1232,0,12.4362-4.1038,12.4362-9.5891C93.5029,74.17,86.8032,72.7877,84.6257,72.2433Z"/><path class="cls-7" d="M84.6257,72.2433c-7.4952-1.9259-8.9188-2.2191-8.9188-4.5222,0-2.5123,2.4283-3.3918,4.5222-3.3918,3.14,0,5.6946.9212,5.9042,4.5226h6.3645c0-6.38-4.8923-9.1877-10.554-9.5806H79.3155c-5.0211.4043-9.9735,3.3347-9.9735,8.9942,0,5.611,4.4806,7.3277,8.9188,8.5,4.397,1.1724,8.8771,1.7168,8.8771,4.941,0,3.0566-3.5173,3.7266-5.82,3.7266-3.5174,0-6.616-1.5495-6.616-5.5273H68.3369c-.0836,7.37,6.1137,10.6359,12.73,10.6359,8.1232,0,12.4362-4.1038,12.4362-9.5891C93.5029,74.17,86.8032,72.7877,84.6257,72.2433Z"/><path class="cls-7" d="M84.6257,72.2433c-7.4952-1.9259-8.9188-2.2191-8.9188-4.5222,0-2.5123,2.4283-3.3918,4.5222-3.3918,3.14,0,5.6946.9212,5.9042,4.5226h6.3645c0-6.38-4.8923-9.1877-10.554-9.5806H79.3155c-5.0211.4043-9.9735,3.3347-9.9735,8.9942,0,5.611,4.4806,7.3277,8.9188,8.5,4.397,1.1724,8.8771,1.7168,8.8771,4.941,0,3.0566-3.5173,3.7266-5.82,3.7266-3.5174,0-6.616-1.5495-6.616-5.5273H68.3369c-.0836,7.37,6.1137,10.6359,12.73,10.6359,8.1232,0,12.4362-4.1038,12.4362-9.5891C93.5029,74.17,86.8032,72.7877,84.6257,72.2433Z"/><path class="cls-7" d="M84.6257,72.2433c-7.4952-1.9259-8.9188-2.2191-8.9188-4.5222,0-2.5123,2.4283-3.3918,4.5222-3.3918,3.14,0,5.6946.9212,5.9042,4.5226h6.3645c0-6.38-4.8923-9.1877-10.554-9.5806H79.3155c-5.0211.4043-9.9735,3.3347-9.9735,8.9942,0,5.611,4.4806,7.3277,8.9188,8.5,4.397,1.1724,8.8771,1.7168,8.8771,4.941,0,3.0566-3.5173,3.7266-5.82,3.7266-3.5174,0-6.616-1.5495-6.616-5.5273H68.3369c-.0836,7.37,6.1137,10.6359,12.73,10.6359,8.1232,0,12.4362-4.1038,12.4362-9.5891C93.5029,74.17,86.8032,72.7877,84.6257,72.2433Z"/><path class="cls-7" d="M84.6257,72.2433c-7.4952-1.9259-8.9188-2.2191-8.9188-4.5222,0-2.5123,2.4283-3.3918,4.5222-3.3918,3.14,0,5.6946.9212,5.9042,4.5226h6.3645c0-6.38-4.8923-9.1877-10.554-9.5806H79.3155c-5.0211.4043-9.9735,3.3347-9.9735,8.9942,0,5.611,4.4806,7.3277,8.9188,8.5,4.397,1.1724,8.8771,1.7168,8.8771,4.941,0,3.0566-3.5173,3.7266-5.82,3.7266-3.5174,0-6.616-1.5495-6.616-5.5273H68.3369c-.0836,7.37,6.1137,10.6359,12.73,10.6359,8.1232,0,12.4362-4.1038,12.4362-9.5891C93.5029,74.17,86.8032,72.7877,84.6257,72.2433Z"/><path class="cls-7" d="M84.6257,72.2433c-7.4952-1.9259-8.9188-2.2191-8.9188-4.5222,0-2.5123,2.4283-3.3918,4.5222-3.3918,3.14,0,5.6946.9212,5.9042,4.5226h6.3645c0-6.38-4.8923-9.1877-10.554-9.5806H79.3155c-5.0211.4043-9.9735,3.3347-9.9735,8.9942,0,5.611,4.4806,7.3277,8.9188,8.5,4.397,1.1724,8.8771,1.7168,8.8771,4.941,0,3.0566-3.5173,3.7266-5.82,3.7266-3.5174,0-6.616-1.5495-6.616-5.5273H68.3369c-.0836,7.37,6.1137,10.6359,12.73,10.6359,8.1232,0,12.4362-4.1038,12.4362-9.5891C93.5029,74.17,86.8032,72.7877,84.6257,72.2433Z"/><path class="cls-7" d="M84.6257,72.2433c-7.4952-1.9259-8.9188-2.2191-8.9188-4.5222,0-2.5123,2.4283-3.3918,4.5222-3.3918,3.14,0,5.6946.9212,5.9042,4.5226h6.3645c0-6.38-4.8923-9.1877-10.554-9.5806H79.3155c-5.0211.4043-9.9735,3.3347-9.9735,8.9942,0,5.611,4.4806,7.3277,8.9188,8.5,4.397,1.1724,8.8771,1.7168,8.8771,4.941,0,3.0566-3.5173,3.7266-5.82,3.7266-3.5174,0-6.616-1.5495-6.616-5.5273H68.3369c-.0836,7.37,6.1137,10.6359,12.73,10.6359,8.1232,0,12.4362-4.1038,12.4362-9.5891C93.5029,74.17,86.8032,72.7877,84.6257,72.2433Z"/><path class="cls-7" d="M82.0421,106.2315c-6.3065-1.62-7.5043-1.8671-7.5043-3.8049,0-2.1139,2.0432-2.8539,3.8049-2.8539,2.6423,0,4.7915.7751,4.9678,3.8053h5.3551c0-5.8135-4.8267-8.1036-10.0761-8.1036-4.545,0-9.4071,2.4665-9.4071,7.61,0,4.721,3.77,6.1655,7.5043,7.1522,3.7.9864,7.4693,1.4445,7.4693,4.1574,0,2.5718-2.96,3.1355-4.8971,3.1355-2.96,0-5.5667-1.3037-5.5667-4.6507H68.3367c-.0666,5.8662,4.597,8.6407,9.8137,8.9233h1.7c6.31-.2637,9.6614-3.6132,9.6614-8.0426C89.5113,107.8523,83.8742,106.69,82.0421,106.2315Z"/><path class="cls-7" d="M82.0421,106.2315c-6.3065-1.62-7.5043-1.8671-7.5043-3.8049,0-2.1139,2.0432-2.8539,3.8049-2.8539,2.6423,0,4.7915.7751,4.9678,3.8053h5.3551c0-5.8135-4.8267-8.1036-10.0761-8.1036-4.545,0-9.4071,2.4665-9.4071,7.61,0,4.721,3.77,6.1655,7.5043,7.1522,3.7.9864,7.4693,1.4445,7.4693,4.1574,0,2.5718-2.96,3.1355-4.8971,3.1355-2.96,0-5.5667-1.3037-5.5667-4.6507H68.3367c-.0666,5.8662,4.597,8.6407,9.8137,8.9233h1.7c6.31-.2637,9.6614-3.6132,9.6614-8.0426C89.5113,107.8523,83.8742,106.69,82.0421,106.2315Z"/><path class="cls-7" d="M82.0421,106.2315c-6.3065-1.62-7.5043-1.8671-7.5043-3.8049,0-2.1139,2.0432-2.8539,3.8049-2.8539,2.6423,0,4.7915.7751,4.9678,3.8053h5.3551c0-5.8135-4.8267-8.1036-10.0761-8.1036-4.545,0-9.4071,2.4665-9.4071,7.61,0,4.721,3.77,6.1655,7.5043,7.1522,3.7.9864,7.4693,1.4445,7.4693,4.1574,0,2.5718-2.96,3.1355-4.8971,3.1355-2.96,0-5.5667-1.3037-5.5667-4.6507H68.3367c-.0666,5.8662,4.597,8.6407,9.8137,8.9233h1.7c6.31-.2637,9.6614-3.6132,9.6614-8.0426C89.5113,107.8523,83.8742,106.69,82.0421,106.2315Z"/><path class="cls-7" d="M82.0421,106.2315c-6.3065-1.62-7.5043-1.8671-7.5043-3.8049,0-2.1139,2.0432-2.8539,3.8049-2.8539,2.6423,0,4.7915.7751,4.9678,3.8053h5.3551c0-5.8135-4.8267-8.1036-10.0761-8.1036-4.545,0-9.4071,2.4665-9.4071,7.61,0,4.721,3.77,6.1655,7.5043,7.1522,3.7.9864,7.4693,1.4445,7.4693,4.1574,0,2.5718-2.96,3.1355-4.8971,3.1355-2.96,0-5.5667-1.3037-5.5667-4.6507H68.3367c-.0666,5.8662,4.597,8.6407,9.8137,8.9233h1.7c6.31-.2637,9.6614-3.6132,9.6614-8.0426C89.5113,107.8523,83.8742,106.69,82.0421,106.2315Z"/><path class="cls-7" d="M82.0421,106.2315c-6.3065-1.62-7.5043-1.8671-7.5043-3.8049,0-2.1139,2.0432-2.8539,3.8049-2.8539,2.6423,0,4.7915.7751,4.9678,3.8053h5.3551c0-5.8135-4.8267-8.1036-10.0761-8.1036-4.545,0-9.4071,2.4665-9.4071,7.61,0,4.721,3.77,6.1655,7.5043,7.1522,3.7.9864,7.4693,1.4445,7.4693,4.1574,0,2.5718-2.96,3.1355-4.8971,3.1355-2.96,0-5.5667-1.3037-5.5667-4.6507H68.3367c-.0666,5.8662,4.597,8.6407,9.8137,8.9233h1.7c6.31-.2637,9.6614-3.6132,9.6614-8.0426C89.5113,107.8523,83.8742,106.69,82.0421,106.2315Z"/><path class="cls-7" d="M82.0421,106.2315c-6.3065-1.62-7.5043-1.8671-7.5043-3.8049,0-2.1139,2.0432-2.8539,3.8049-2.8539,2.6423,0,4.7915.7751,4.9678,3.8053h5.3551c0-5.8135-4.8267-8.1036-10.0761-8.1036-4.545,0-9.4071,2.4665-9.4071,7.61,0,4.721,3.77,6.1655,7.5043,7.1522,3.7.9864,7.4693,1.4445,7.4693,4.1574,0,2.5718-2.96,3.1355-4.8971,3.1355-2.96,0-5.5667-1.3037-5.5667-4.6507H68.3367c-.0666,5.8662,4.597,8.6407,9.8137,8.9233h1.7c6.31-.2637,9.6614-3.6132,9.6614-8.0426C89.5113,107.8523,83.8742,106.69,82.0421,106.2315Z"/><path class="cls-7" d="M82.0421,106.2315c-6.3065-1.62-7.5043-1.8671-7.5043-3.8049,0-2.1139,2.0432-2.8539,3.8049-2.8539,2.6423,0,4.7915.7751,4.9678,3.8053h5.3551c0-5.8135-4.8267-8.1036-10.0761-8.1036-4.545,0-9.4071,2.4665-9.4071,7.61,0,4.721,3.77,6.1655,7.5043,7.1522,3.7.9864,7.4693,1.4445,7.4693,4.1574,0,2.5718-2.96,3.1355-4.8971,3.1355-2.96,0-5.5667-1.3037-5.5667-4.6507H68.3367c-.0666,5.8662,4.597,8.6407,9.8137,8.9233h1.7c6.31-.2637,9.6614-3.6132,9.6614-8.0426C89.5113,107.8523,83.8742,106.69,82.0421,106.2315Z"/><path class="cls-7" d="M82.0421,106.2315c-6.3065-1.62-7.5043-1.8671-7.5043-3.8049,0-2.1139,2.0432-2.8539,3.8049-2.8539,2.6423,0,4.7915.7751,4.9678,3.8053h5.3551c0-5.8135-4.8267-8.1036-10.0761-8.1036-4.545,0-9.4071,2.4665-9.4071,7.61,0,4.721,3.77,6.1655,7.5043,7.1522,3.7.9864,7.4693,1.4445,7.4693,4.1574,0,2.5718-2.96,3.1355-4.8971,3.1355-2.96,0-5.5667-1.3037-5.5667-4.6507H68.3367c-.0666,5.8662,4.597,8.6407,9.8137,8.9233h1.7c6.31-.2637,9.6614-3.6132,9.6614-8.0426C89.5113,107.8523,83.8742,106.69,82.0421,106.2315Z"/><polygon class="cls-7" points="156.049 65.096 165.01 65.096 165.01 90.669 171.584 90.669 171.584 65.096 180.545 65.096 180.545 59.295 156.049 59.295 156.049 65.096"/><polygon class="cls-7" points="156.049 65.096 165.01 65.096 165.01 90.669 171.584 90.669 171.584 65.096 180.545 65.096 180.545 59.295 156.049 59.295 156.049 65.096"/><polygon class="cls-7" points="156.049 65.096 165.01 65.096 165.01 90.669 171.584 90.669 171.584 65.096 180.545 65.096 180.545 59.295 156.049 59.295 156.049 65.096"/><polygon class="cls-7" points="156.049 65.096 165.01 65.096 165.01 90.669 171.584 90.669 171.584 65.096 180.545 65.096 180.545 59.295 156.049 59.295 156.049 65.096"/><polygon class="cls-7" points="156.049 65.096 165.01 65.096 165.01 90.669 171.584 90.669 171.584 65.096 180.545 65.096 180.545 59.295 156.049 59.295 156.049 65.096"/><polygon class="cls-7" points="156.049 65.096 165.01 65.096 165.01 90.669 171.584 90.669 171.584 65.096 180.545 65.096 180.545 59.295 156.049 59.295 156.049 65.096"/><polygon class="cls-7" points="156.049 65.096 165.01 65.096 165.01 90.669 171.584 90.669 171.584 65.096 180.545 65.096 180.545 59.295 156.049 59.295 156.049 65.096"/><polygon class="cls-7" points="156.049 65.096 165.01 65.096 165.01 90.669 171.584 90.669 171.584 65.096 180.545 65.096 180.545 59.295 156.049 59.295 156.049 65.096"/><path class="cls-7" d="M140.7276,90.5154c7.9981,0,12.7715-4.0178,12.7715-12.267V59.2713H146.925V78.2484c0,4.5306-1.5076,6.6251-6.1974,6.6251-5.3177,0-6.1553-3.2911-6.1553-6.6251V59.2713h-6.5741V78.2484C127.9982,86.5405,132.688,90.5154,140.7276,90.5154Z"/><path class="cls-7" d="M140.7276,90.5154c7.9981,0,12.7715-4.0178,12.7715-12.267V59.2713H146.925V78.2484c0,4.5306-1.5076,6.6251-6.1974,6.6251-5.3177,0-6.1553-3.2911-6.1553-6.6251V59.2713h-6.5741V78.2484C127.9982,86.5405,132.688,90.5154,140.7276,90.5154Z"/><path class="cls-7" d="M140.7276,90.5154c7.9981,0,12.7715-4.0178,12.7715-12.267V59.2713H146.925V78.2484c0,4.5306-1.5076,6.6251-6.1974,6.6251-5.3177,0-6.1553-3.2911-6.1553-6.6251V59.2713h-6.5741V78.2484C127.9982,86.5405,132.688,90.5154,140.7276,90.5154Z"/><path class="cls-7" d="M140.7276,90.5154c7.9981,0,12.7715-4.0178,12.7715-12.267V59.2713H146.925V78.2484c0,4.5306-1.5076,6.6251-6.1974,6.6251-5.3177,0-6.1553-3.2911-6.1553-6.6251V59.2713h-6.5741V78.2484C127.9982,86.5405,132.688,90.5154,140.7276,90.5154Z"/><path class="cls-7" d="M140.7276,90.5154c7.9981,0,12.7715-4.0178,12.7715-12.267V59.2713H146.925V78.2484c0,4.5306-1.5076,6.6251-6.1974,6.6251-5.3177,0-6.1553-3.2911-6.1553-6.6251V59.2713h-6.5741V78.2484C127.9982,86.5405,132.688,90.5154,140.7276,90.5154Z"/><path class="cls-7" d="M140.7276,90.5154c7.9981,0,12.7715-4.0178,12.7715-12.267V59.2713H146.925V78.2484c0,4.5306-1.5076,6.6251-6.1974,6.6251-5.3177,0-6.1553-3.2911-6.1553-6.6251V59.2713h-6.5741V78.2484C127.9982,86.5405,132.688,90.5154,140.7276,90.5154Z"/><path class="cls-7" d="M140.7276,90.5154c7.9981,0,12.7715-4.0178,12.7715-12.267V59.2713H146.925V78.2484c0,4.5306-1.5076,6.6251-6.1974,6.6251-5.3177,0-6.1553-3.2911-6.1553-6.6251V59.2713h-6.5741V78.2484C127.9982,86.5405,132.688,90.5154,140.7276,90.5154Z"/><path class="cls-7" d="M140.7276,90.5154c7.9981,0,12.7715-4.0178,12.7715-12.267V59.2713H146.925V78.2484c0,4.5306-1.5076,6.6251-6.1974,6.6251-5.3177,0-6.1553-3.2911-6.1553-6.6251V59.2713h-6.5741V78.2484C127.9982,86.5405,132.688,90.5154,140.7276,90.5154Z"/><path class="cls-7" d="M110.75,90.566c9.254,0,14.6977-6.9092,14.6977-15.5349,0-8.5693-5.0737-15.3028-13.75-15.76h-1.896c-8.676.457-13.7494,7.1905-13.7494,15.76C96.053,83.6568,101.4964,90.566,110.75,90.566Zm0-25.794c5.9041,0,8.1236,5.025,8.1236,10.2591,0,4.9827-2.2195,10.0076-8.1236,10.0076s-8.1233-5.0249-8.1233-10.0076C102.6271,69.797,104.8466,64.772,110.75,64.772Z"/><path class="cls-7" d="M110.75,90.566c9.254,0,14.6977-6.9092,14.6977-15.5349,0-8.5693-5.0737-15.3028-13.75-15.76h-1.896c-8.676.457-13.7494,7.1905-13.7494,15.76C96.053,83.6568,101.4964,90.566,110.75,90.566Zm0-25.794c5.9041,0,8.1236,5.025,8.1236,10.2591,0,4.9827-2.2195,10.0076-8.1236,10.0076s-8.1233-5.0249-8.1233-10.0076C102.6271,69.797,104.8466,64.772,110.75,64.772Z"/><path class="cls-7" d="M110.75,90.566c9.254,0,14.6977-6.9092,14.6977-15.5349,0-8.5693-5.0737-15.3028-13.75-15.76h-1.896c-8.676.457-13.7494,7.1905-13.7494,15.76C96.053,83.6568,101.4964,90.566,110.75,90.566Zm0-25.794c5.9041,0,8.1236,5.025,8.1236,10.2591,0,4.9827-2.2195,10.0076-8.1236,10.0076s-8.1233-5.0249-8.1233-10.0076C102.6271,69.797,104.8466,64.772,110.75,64.772Z"/><path class="cls-7" d="M110.75,90.566c9.254,0,14.6977-6.9092,14.6977-15.5349,0-8.5693-5.0737-15.3028-13.75-15.76h-1.896c-8.676.457-13.7494,7.1905-13.7494,15.76C96.053,83.6568,101.4964,90.566,110.75,90.566Zm0-25.794c5.9041,0,8.1236,5.025,8.1236,10.2591,0,4.9827-2.2195,10.0076-8.1236,10.0076s-8.1233-5.0249-8.1233-10.0076C102.6271,69.797,104.8466,64.772,110.75,64.772Z"/><path class="cls-7" d="M110.75,90.566c9.254,0,14.6977-6.9092,14.6977-15.5349,0-8.5693-5.0737-15.3028-13.75-15.76h-1.896c-8.676.457-13.7494,7.1905-13.7494,15.76C96.053,83.6568,101.4964,90.566,110.75,90.566Zm0-25.794c5.9041,0,8.1236,5.025,8.1236,10.2591,0,4.9827-2.2195,10.0076-8.1236,10.0076s-8.1233-5.0249-8.1233-10.0076C102.6271,69.797,104.8466,64.772,110.75,64.772Z"/><path class="cls-7" d="M110.75,90.566c9.254,0,14.6977-6.9092,14.6977-15.5349,0-8.5693-5.0737-15.3028-13.75-15.76h-1.896c-8.676.457-13.7494,7.1905-13.7494,15.76C96.053,83.6568,101.4964,90.566,110.75,90.566Zm0-25.794c5.9041,0,8.1236,5.025,8.1236,10.2591,0,4.9827-2.2195,10.0076-8.1236,10.0076s-8.1233-5.0249-8.1233-10.0076C102.6271,69.797,104.8466,64.772,110.75,64.772Z"/><path class="cls-7" d="M110.75,90.566c9.254,0,14.6977-6.9092,14.6977-15.5349,0-8.5693-5.0737-15.3028-13.75-15.76h-1.896c-8.676.457-13.7494,7.1905-13.7494,15.76C96.053,83.6568,101.4964,90.566,110.75,90.566Zm0-25.794c5.9041,0,8.1236,5.025,8.1236,10.2591,0,4.9827-2.2195,10.0076-8.1236,10.0076s-8.1233-5.0249-8.1233-10.0076C102.6271,69.797,104.8466,64.772,110.75,64.772Z"/><path class="cls-7" d="M110.75,90.566c9.254,0,14.6977-6.9092,14.6977-15.5349,0-8.5693-5.0737-15.3028-13.75-15.76h-1.896c-8.676.457-13.7494,7.1905-13.7494,15.76C96.053,83.6568,101.4964,90.566,110.75,90.566Zm0-25.794c5.9041,0,8.1236,5.025,8.1236,10.2591,0,4.9827-2.2195,10.0076-8.1236,10.0076s-8.1233-5.0249-8.1233-10.0076C102.6271,69.797,104.8466,64.772,110.75,64.772Z"/><polygon class="cls-7" points="187.734 100.112 195.274 100.112 195.274 121.602 200.805 121.602 200.805 100.112 208.345 100.112 208.345 95.23 187.734 95.23 187.734 100.112"/><polygon class="cls-7" points="187.734 100.112 195.274 100.112 195.274 121.602 200.805 121.602 200.805 100.112 208.345 100.112 208.345 95.23 187.734 95.23 187.734 100.112"/><polygon class="cls-7" points="187.734 100.112 195.274 100.112 195.274 121.602 200.805 121.602 200.805 100.112 208.345 100.112 208.345 95.23 187.734 95.23 187.734 100.112"/><polygon class="cls-7" points="187.734 100.112 195.274 100.112 195.274 121.602 200.805 121.602 200.805 100.112 208.345 100.112 208.345 95.23 187.734 95.23 187.734 100.112"/><polygon class="cls-7" points="187.734 100.112 195.274 100.112 195.274 121.602 200.805 121.602 200.805 100.112 208.345 100.112 208.345 95.23 187.734 95.23 187.734 100.112"/><polygon class="cls-7" points="187.734 100.112 195.274 100.112 195.274 121.602 200.805 121.602 200.805 100.112 208.345 100.112 208.345 95.23 187.734 95.23 187.734 100.112"/><polygon class="cls-7" points="187.734 100.112 195.274 100.112 195.274 121.602 200.805 121.602 200.805 100.112 208.345 100.112 208.345 95.23 187.734 95.23 187.734 100.112"/><polygon class="cls-7" points="187.734 100.112 195.274 100.112 195.274 121.602 200.805 121.602 200.805 100.112 208.345 100.112 208.345 95.23 187.734 95.23 187.734 100.112"/><polygon class="cls-7" points="201.771 71.437 189.669 71.437 189.669 59.399 183.095 59.399 183.095 90.768 189.669 90.768 189.669 77.236 201.771 77.236 201.771 90.768 208.345 90.768 208.345 59.399 201.771 59.399 201.771 71.437"/><polygon class="cls-7" points="201.771 71.437 189.669 71.437 189.669 59.399 183.095 59.399 183.095 90.768 189.669 90.768 189.669 77.236 201.771 77.236 201.771 90.768 208.345 90.768 208.345 59.399 201.771 59.399 201.771 71.437"/><polygon class="cls-7" points="201.771 71.437 189.669 71.437 189.669 59.399 183.095 59.399 183.095 90.768 189.669 90.768 189.669 77.236 201.771 77.236 201.771 90.768 208.345 90.768 208.345 59.399 201.771 59.399 201.771 71.437"/><polygon class="cls-7" points="201.771 71.437 189.669 71.437 189.669 59.399 183.095 59.399 183.095 90.768 189.669 90.768 189.669 77.236 201.771 77.236 201.771 90.768 208.345 90.768 208.345 59.399 201.771 59.399 201.771 71.437"/><polygon class="cls-7" points="201.771 71.437 189.669 71.437 189.669 59.399 183.095 59.399 183.095 90.768 189.669 90.768 189.669 77.236 201.771 77.236 201.771 90.768 208.345 90.768 208.345 59.399 201.771 59.399 201.771 71.437"/><polygon class="cls-7" points="201.771 71.437 189.669 71.437 189.669 59.399 183.095 59.399 183.095 90.768 189.669 90.768 189.669 77.236 201.771 77.236 201.771 90.768 208.345 90.768 208.345 59.399 201.771 59.399 201.771 71.437"/><polygon class="cls-7" points="201.771 71.437 189.669 71.437 189.669 59.399 183.095 59.399 183.095 90.768 189.669 90.768 189.669 77.236 201.771 77.236 201.771 90.768 208.345 90.768 208.345 59.399 201.771 59.399 201.771 71.437"/><polygon class="cls-7" points="201.771 71.437 189.669 71.437 189.669 59.399 183.095 59.399 183.095 90.768 189.669 90.768 189.669 77.236 201.771 77.236 201.771 90.768 208.345 90.768 208.345 59.399 201.771 59.399 201.771 71.437"/><rect class="cls-7" x="178.7931" y="95.2296" width="5.5314" height="26.3727"/><rect class="cls-7" x="178.7931" y="95.2296" width="5.5314" height="26.3727"/><rect class="cls-7" x="178.7931" y="95.2296" width="5.5314" height="26.3727"/><rect class="cls-7" x="178.7931" y="95.2296" width="5.5314" height="26.3727"/><rect class="cls-7" x="178.7931" y="95.2296" width="5.5314" height="26.3727"/><rect class="cls-7" x="178.7931" y="95.2296" width="5.5314" height="26.3727"/><rect class="cls-7" x="178.7931" y="95.2296" width="5.5314" height="26.3727"/><rect class="cls-7" x="178.7931" y="95.2296" width="5.5314" height="26.3727"/><polygon class="cls-7" points="131.528 113.372 131.457 113.372 125.573 95.249 117.787 95.249 117.787 121.602 122.966 121.602 122.966 103.111 123.037 103.111 129.202 121.602 133.465 121.602 139.631 102.926 139.701 102.926 139.701 121.602 144.88 121.602 144.88 95.249 137.094 95.249 131.528 113.372"/><polygon class="cls-7" points="131.528 113.372 131.457 113.372 125.573 95.249 117.787 95.249 117.787 121.602 122.966 121.602 122.966 103.111 123.037 103.111 129.202 121.602 133.465 121.602 139.631 102.926 139.701 102.926 139.701 121.602 144.88 121.602 144.88 95.249 137.094 95.249 131.528 113.372"/><polygon class="cls-7" points="131.528 113.372 131.457 113.372 125.573 95.249 117.787 95.249 117.787 121.602 122.966 121.602 122.966 103.111 123.037 103.111 129.202 121.602 133.465 121.602 139.631 102.926 139.701 102.926 139.701 121.602 144.88 121.602 144.88 95.249 137.094 95.249 131.528 113.372"/><polygon class="cls-7" points="131.528 113.372 131.457 113.372 125.573 95.249 117.787 95.249 117.787 121.602 122.966 121.602 122.966 103.111 123.037 103.111 129.202 121.602 133.465 121.602 139.631 102.926 139.701 102.926 139.701 121.602 144.88 121.602 144.88 95.249 137.094 95.249 131.528 113.372"/><polygon class="cls-7" points="131.528 113.372 131.457 113.372 125.573 95.249 117.787 95.249 117.787 121.602 122.966 121.602 122.966 103.111 123.037 103.111 129.202 121.602 133.465 121.602 139.631 102.926 139.701 102.926 139.701 121.602 144.88 121.602 144.88 95.249 137.094 95.249 131.528 113.372"/><polygon class="cls-7" points="131.528 113.372 131.457 113.372 125.573 95.249 117.787 95.249 117.787 121.602 122.966 121.602 122.966 103.111 123.037 103.111 129.202 121.602 133.465 121.602 139.631 102.926 139.701 102.926 139.701 121.602 144.88 121.602 144.88 95.249 137.094 95.249 131.528 113.372"/><polygon class="cls-7" points="131.528 113.372 131.457 113.372 125.573 95.249 117.787 95.249 117.787 121.602 122.966 121.602 122.966 103.111 123.037 103.111 129.202 121.602 133.465 121.602 139.631 102.926 139.701 102.926 139.701 121.602 144.88 121.602 144.88 95.249 137.094 95.249 131.528 113.372"/><polygon class="cls-7" points="131.528 113.372 131.457 113.372 125.573 95.249 117.787 95.249 117.787 121.602 122.966 121.602 122.966 103.111 123.037 103.111 129.202 121.602 133.465 121.602 139.631 102.926 139.701 102.926 139.701 121.602 144.88 121.602 144.88 95.249 137.094 95.249 131.528 113.372"/><path class="cls-7" d="M108.8459,111.2682c0,3.8215-1.2685,5.5881-5.2145,5.5881-4.4743,0-5.179-2.776-5.179-5.5881V95.2615H92.9209v16.0067c0,6.753,3.6794,10.1105,10.0216,10.3341h1.3716c6.3171-.2249,10.0632-3.6149,10.0632-10.3341V95.2615h-5.5314Z"/><path class="cls-7" d="M108.8459,111.2682c0,3.8215-1.2685,5.5881-5.2145,5.5881-4.4743,0-5.179-2.776-5.179-5.5881V95.2615H92.9209v16.0067c0,6.753,3.6794,10.1105,10.0216,10.3341h1.3716c6.3171-.2249,10.0632-3.6149,10.0632-10.3341V95.2615h-5.5314Z"/><path class="cls-7" d="M108.8459,111.2682c0,3.8215-1.2685,5.5881-5.2145,5.5881-4.4743,0-5.179-2.776-5.179-5.5881V95.2615H92.9209v16.0067c0,6.753,3.6794,10.1105,10.0216,10.3341h1.3716c6.3171-.2249,10.0632-3.6149,10.0632-10.3341V95.2615h-5.5314Z"/><path class="cls-7" d="M108.8459,111.2682c0,3.8215-1.2685,5.5881-5.2145,5.5881-4.4743,0-5.179-2.776-5.179-5.5881V95.2615H92.9209v16.0067c0,6.753,3.6794,10.1105,10.0216,10.3341h1.3716c6.3171-.2249,10.0632-3.6149,10.0632-10.3341V95.2615h-5.5314Z"/><path class="cls-7" d="M108.8459,111.2682c0,3.8215-1.2685,5.5881-5.2145,5.5881-4.4743,0-5.179-2.776-5.179-5.5881V95.2615H92.9209v16.0067c0,6.753,3.6794,10.1105,10.0216,10.3341h1.3716c6.3171-.2249,10.0632-3.6149,10.0632-10.3341V95.2615h-5.5314Z"/><path class="cls-7" d="M108.8459,111.2682c0,3.8215-1.2685,5.5881-5.2145,5.5881-4.4743,0-5.179-2.776-5.179-5.5881V95.2615H92.9209v16.0067c0,6.753,3.6794,10.1105,10.0216,10.3341h1.3716c6.3171-.2249,10.0632-3.6149,10.0632-10.3341V95.2615h-5.5314Z"/><path class="cls-7" d="M108.8459,111.2682c0,3.8215-1.2685,5.5881-5.2145,5.5881-4.4743,0-5.179-2.776-5.179-5.5881V95.2615H92.9209v16.0067c0,6.753,3.6794,10.1105,10.0216,10.3341h1.3716c6.3171-.2249,10.0632-3.6149,10.0632-10.3341V95.2615h-5.5314Z"/><path class="cls-7" d="M108.8459,111.2682c0,3.8215-1.2685,5.5881-5.2145,5.5881-4.4743,0-5.179-2.776-5.179-5.5881V95.2615H92.9209v16.0067c0,6.753,3.6794,10.1105,10.0216,10.3341h1.3716c6.3171-.2249,10.0632-3.6149,10.0632-10.3341V95.2615h-5.5314Z"/><polygon class="cls-7" points="162.031 113.363 161.96 113.363 156.076 95.236 148.29 95.236 148.29 121.596 153.469 121.596 153.469 103.1 153.54 103.1 159.705 121.596 163.968 121.596 170.134 102.915 170.204 102.915 170.204 121.596 175.383 121.596 175.383 95.236 167.597 95.236 162.031 113.363"/><polygon class="cls-7" points="162.031 113.363 161.96 113.363 156.076 95.236 148.29 95.236 148.29 121.596 153.469 121.596 153.469 103.1 153.54 103.1 159.705 121.596 163.968 121.596 170.134 102.915 170.204 102.915 170.204 121.596 175.383 121.596 175.383 95.236 167.597 95.236 162.031 113.363"/><polygon class="cls-7" points="162.031 113.363 161.96 113.363 156.076 95.236 148.29 95.236 148.29 121.596 153.469 121.596 153.469 103.1 153.54 103.1 159.705 121.596 163.968 121.596 170.134 102.915 170.204 102.915 170.204 121.596 175.383 121.596 175.383 95.236 167.597 95.236 162.031 113.363"/><polygon class="cls-7" points="162.031 113.363 161.96 113.363 156.076 95.236 148.29 95.236 148.29 121.596 153.469 121.596 153.469 103.1 153.54 103.1 159.705 121.596 163.968 121.596 170.134 102.915 170.204 102.915 170.204 121.596 175.383 121.596 175.383 95.236 167.597 95.236 162.031 113.363"/><polygon class="cls-7" points="162.031 113.363 161.96 113.363 156.076 95.236 148.29 95.236 148.29 121.596 153.469 121.596 153.469 103.1 153.54 103.1 159.705 121.596 163.968 121.596 170.134 102.915 170.204 102.915 170.204 121.596 175.383 121.596 175.383 95.236 167.597 95.236 162.031 113.363"/><polygon class="cls-7" points="162.031 113.363 161.96 113.363 156.076 95.236 148.29 95.236 148.29 121.596 153.469 121.596 153.469 103.1 153.54 103.1 159.705 121.596 163.968 121.596 170.134 102.915 170.204 102.915 170.204 121.596 175.383 121.596 175.383 95.236 167.597 95.236 162.031 113.363"/><polygon class="cls-7" points="162.031 113.363 161.96 113.363 156.076 95.236 148.29 95.236 148.29 121.596 153.469 121.596 153.469 103.1 153.54 103.1 159.705 121.596 163.968 121.596 170.134 102.915 170.204 102.915 170.204 121.596 175.383 121.596 175.383 95.236 167.597 95.236 162.031 113.363"/><polygon class="cls-7" points="162.031 113.363 161.96 113.363 156.076 95.236 148.29 95.236 148.29 121.596 153.469 121.596 153.469 103.1 153.54 103.1 159.705 121.596 163.968 121.596 170.134 102.915 170.204 102.915 170.204 121.596 175.383 121.596 175.383 95.236 167.597 95.236 162.031 113.363"/><path class="cls-8" d="M68.4206,126.026h2.0285v9.4627H68.4206Z"/><path class="cls-8" d="M76.7461,132.5067h.028V126.026h1.86v9.4627h-2.31l-2.4793-6.6266h-.0283v6.6266H71.9564V126.026h2.3384Z"/><path class="cls-8" d="M84.8318,132.5067H84.86V126.026H86.72v9.4627h-2.31L81.93,128.8621h-.0284v6.6266H80.0423V126.026h2.3384Z"/><path class="cls-8" d="M88.0225,128.776a4.19,4.19,0,0,1,.4649-1.5572,2.5232,2.5232,0,0,1,1.0353-1.014,4.7135,4.7135,0,0,1,3.6345,0,2.5234,2.5234,0,0,1,1.0354,1.014,4.196,4.196,0,0,1,.4649,1.5572,18.7025,18.7025,0,0,1,0,3.9693,4.1847,4.1847,0,0,1-.4649,1.5506,2.3986,2.3986,0,0,1-1.0354.994,4.9639,4.9639,0,0,1-3.6345,0,2.3984,2.3984,0,0,1-1.0353-.994,4.1791,4.1791,0,0,1-.4649-1.5506,18.6849,18.6849,0,0,1,0-3.9693Zm1.9722,3.6048a4.26,4.26,0,0,0,.1971,1.0868,1.2054,1.2054,0,0,0,.4226.61,1.4654,1.4654,0,0,0,1.451,0,1.2049,1.2049,0,0,0,.4227-.61,4.2862,4.2862,0,0,0,.1972-1.0868q.0492-.669.0492-1.6235t-.0492-1.6168a4.3652,4.3652,0,0,0-.1972-1.0868,1.2075,1.2075,0,0,0-.4227-.6163,1.4654,1.4654,0,0,0-1.451,0,1.208,1.208,0,0,0-.4226.6163,4.3383,4.3383,0,0,0-.1971,1.0868q-.05.6629-.0494,1.6168T89.9947,132.3808Z"/><path class="cls-8" d="M98.8907,133.0236h.0423l1.4931-6.9976h2.099l-2.31,9.4627H97.6087l-2.31-9.4627h2.1695Z"/><path class="cls-8" d="M107.2163,126.026l2.6623,9.4627h-2.113l-.4648-2.0012h-2.6766l-.4649,2.0012h-2.113l2.6624-9.4627Zm-.2678,5.8976-.972-4.2543h-.0281l-.9721,4.2543Z"/><path class="cls-8" d="M115.6968,127.59h-2.1976v7.8989h-2.0285V127.59H109.273V126.026h6.4238Z"/><path class="cls-8" d="M116.6687,126.026h2.0285v9.4627h-2.0285Z"/><path class="cls-8" d="M120.0989,128.776a4.1942,4.1942,0,0,1,.4649-1.5572,2.5234,2.5234,0,0,1,1.0354-1.014,4.7132,4.7132,0,0,1,3.6344,0,2.5232,2.5232,0,0,1,1.0353,1.014,4.1923,4.1923,0,0,1,.4649,1.5572,18.6674,18.6674,0,0,1,0,3.9693,4.181,4.181,0,0,1-.4649,1.5506,2.3984,2.3984,0,0,1-1.0353.994,4.9637,4.9637,0,0,1-3.6344,0,2.3986,2.3986,0,0,1-1.0354-.994,4.1829,4.1829,0,0,1-.4649-1.5506,18.6849,18.6849,0,0,1,0-3.9693Zm1.9722,3.6048a4.2554,4.2554,0,0,0,.1972,1.0868,1.2031,1.2031,0,0,0,.4227.61,1.465,1.465,0,0,0,1.4508,0,1.2043,1.2043,0,0,0,.4227-.61,4.2734,4.2734,0,0,0,.1971-1.0868q.0493-.669.0494-1.6235t-.0494-1.6168a4.3519,4.3519,0,0,0-.1971-1.0868,1.2069,1.2069,0,0,0-.4227-.6163,1.465,1.465,0,0,0-1.4508,0,1.2057,1.2057,0,0,0-.4227.6163,4.3333,4.3333,0,0,0-.1972,1.0868q-.05.6629-.0494,1.6168T122.0711,132.3808Z"/><path class="cls-8" d="M132.8266,132.5067h.028V126.026h1.86v9.4627h-2.31l-2.4793-6.6266h-.0281v6.6266h-1.86V126.026h2.3385Z"/><path class="cls-8" d="M139.6022,126.026h2.0285v9.4627h-2.0285Z"/><path class="cls-8" d="M144.7721,132.8115a2.9642,2.9642,0,0,0,.0564.603,1.0194,1.0194,0,0,0,.2112.4573,1.035,1.035,0,0,0,.4157.2915,1.744,1.744,0,0,0,.6549.1061,1.3458,1.3458,0,0,0,.8382-.2849,1.0384,1.0384,0,0,0,.3733-.8814,1.4962,1.4962,0,0,0-.0916-.55,1.09,1.09,0,0,0-.3028-.4175,2.1716,2.1716,0,0,0-.5564-.3379,8.3463,8.3463,0,0,0-.8524-.3115,7.54,7.54,0,0,1-1.1692-.4638,3.1286,3.1286,0,0,1-.8239-.59,2.0833,2.0833,0,0,1-.4862-.7819,3.11,3.11,0,0,1-.1549-1.0271,2.5636,2.5636,0,0,1,.8311-2.094,3.4707,3.4707,0,0,1,2.2822-.6892,5.2615,5.2615,0,0,1,1.2467.1391,2.6873,2.6873,0,0,1,.9861.4507,2.1291,2.1291,0,0,1,.6479.7952,2.6574,2.6574,0,0,1,.2325,1.16v.2651h-1.944a1.8091,1.8091,0,0,0-.2536-1.04.9563.9563,0,0,0-.8452-.3645,1.4905,1.4905,0,0,0-.5635.0928.9489.9489,0,0,0-.3592.2452.8226.8226,0,0,0-.1831.3512,1.69,1.69,0,0,0-.0494.4108,1.3039,1.3039,0,0,0,.1973.7356,1.766,1.766,0,0,0,.8453.55l1.5636.6362a4.8941,4.8941,0,0,1,.9438.4969,2.51,2.51,0,0,1,.5846.5567,1.8018,1.8018,0,0,1,.3029.656,3.4659,3.4659,0,0,1,.0846.7952,2.5321,2.5321,0,0,1-.9227,2.18,4.2488,4.2488,0,0,1-2.571.6826,3.5076,3.5076,0,0,1-2.4581-.7025,2.646,2.646,0,0,1-.74-2.0144v-.3843h2.0287Z"/><path class="cls-8" d="M157.2249,126.026a5.2064,5.2064,0,0,1,1.1481.1193,2.4191,2.4191,0,0,1,.9086.3975,1.8474,1.8474,0,0,1,.5916.7422,2.7414,2.7414,0,0,1,.2113,1.14,2.26,2.26,0,0,1-.38,1.3188,1.9127,1.9127,0,0,1-1.1409.7488v.0265a2.0342,2.0342,0,0,1,1.3384.6758,2.25,2.25,0,0,1,.4929,1.5242,3.5848,3.5848,0,0,1-.155,1.06,2.1273,2.1273,0,0,1-.5283.8814,2.6613,2.6613,0,0,1-.972.603,4.2474,4.2474,0,0,1-1.4861.2253H153.83V126.026Zm-.789,3.8831a2.1032,2.1032,0,0,0,1.2328-.2849,1.1149,1.1149,0,0,0,.3874-.9609,1.1493,1.1493,0,0,0-.3522-.9542,1.7947,1.7947,0,0,0-1.1129-.2783h-.7326v2.4783Zm.2114,4.1747a2.0746,2.0746,0,0,0,1.1833-.3048,1.2643,1.2643,0,0,0,.4508-1.1265,1.7,1.7,0,0,0-.12-.6825,1.1506,1.1506,0,0,0-.324-.4374,1.197,1.197,0,0,0-.486-.2319,2.7125,2.7125,0,0,0-.62-.0663h-.8734v2.8494Z"/><path class="cls-8" d="M163.564,132.626a4.0317,4.0317,0,0,0,.0494.6561,1.423,1.423,0,0,0,.1832.5168.9515.9515,0,0,0,.3662.3446,1.4367,1.4367,0,0,0,1.1763,0,.969.969,0,0,0,.3592-.3446,1.4267,1.4267,0,0,0,.1831-.5168,4.0317,4.0317,0,0,0,.0494-.6561v-6.6h2.0285v6.6a3.618,3.618,0,0,1-.2677,1.491,2.3921,2.3921,0,0,1-.7184.9343,2.5028,2.5028,0,0,1-1.0284.4639,5.9082,5.9082,0,0,1-1.1974.1193,6.6249,6.6249,0,0,1-1.1973-.1061,2.5055,2.5055,0,0,1-1.0285-.4307,2.2232,2.2232,0,0,1-.7185-.9211,3.8194,3.8194,0,0,1-.2675-1.5506v-6.6h2.0284Z"/><path class="cls-8" d="M170.8753,132.8115a2.9717,2.9717,0,0,0,.0563.603,1.0194,1.0194,0,0,0,.2112.4573,1.0343,1.0343,0,0,0,.4157.2915,1.7447,1.7447,0,0,0,.6551.1061,1.3463,1.3463,0,0,0,.8381-.2849,1.0384,1.0384,0,0,0,.3733-.8814,1.4962,1.4962,0,0,0-.0916-.55,1.0907,1.0907,0,0,0-.3029-.4175,2.1681,2.1681,0,0,0-.5564-.3379,8.332,8.332,0,0,0-.8522-.3115,7.5235,7.5235,0,0,1-1.1692-.4638,3.132,3.132,0,0,1-.8242-.59,2.0841,2.0841,0,0,1-.486-.7819,3.1076,3.1076,0,0,1-.1549-1.0271,2.5639,2.5639,0,0,1,.8311-2.094,3.4706,3.4706,0,0,1,2.2821-.6892,5.2612,5.2612,0,0,1,1.2468.1391,2.6856,2.6856,0,0,1,.9859.4507,2.1308,2.1308,0,0,1,.6482.7952,2.6589,2.6589,0,0,1,.2323,1.16v.2651H173.27a1.8107,1.8107,0,0,0-.2534-1.04.9567.9567,0,0,0-.8453-.3645,1.4907,1.4907,0,0,0-.5636.0928.9477.9477,0,0,0-.3591.2452.8263.8263,0,0,0-.1833.3512,1.7,1.7,0,0,0-.0493.4108,1.3031,1.3031,0,0,0,.1974.7356,1.7657,1.7657,0,0,0,.8451.55l1.5636.6362a4.8964,4.8964,0,0,1,.944.4969,2.5118,2.5118,0,0,1,.5846.5567,1.8,1.8,0,0,1,.3028.656,3.4662,3.4662,0,0,1,.0845.7952,2.5315,2.5315,0,0,1-.9227,2.18,4.2479,4.2479,0,0,1-2.5708.6826,3.5082,3.5082,0,0,1-2.4582-.7025,2.6455,2.6455,0,0,1-.74-2.0144v-.3843h2.0286Z"/><path class="cls-8" d="M176.6509,126.026h2.0285v9.4627h-2.0285Z"/><path class="cls-8" d="M184.9763,132.5067h.028V126.026h1.86v9.4627h-2.31l-2.4793-6.6266h-.0281v6.6266h-1.86V126.026h2.3385Z"/><path class="cls-8" d="M193.8933,127.59H190.301v2.2265h3.381V131.38h-3.381v2.5446h3.7331v1.5639h-5.7616V126.026h5.6208Z"/><path class="cls-8" d="M196.6824,132.8115a2.9717,2.9717,0,0,0,.0563.603,1.0194,1.0194,0,0,0,.2112.4573,1.0343,1.0343,0,0,0,.4157.2915,1.7445,1.7445,0,0,0,.655.1061,1.3464,1.3464,0,0,0,.8382-.2849,1.0384,1.0384,0,0,0,.3733-.8814,1.4962,1.4962,0,0,0-.0916-.55,1.0907,1.0907,0,0,0-.3029-.4175,2.1681,2.1681,0,0,0-.5564-.3379,8.332,8.332,0,0,0-.8522-.3115,7.5235,7.5235,0,0,1-1.1692-.4638,3.132,3.132,0,0,1-.8242-.59,2.0841,2.0841,0,0,1-.486-.7819,3.1076,3.1076,0,0,1-.1549-1.0271,2.5639,2.5639,0,0,1,.8311-2.094,3.4706,3.4706,0,0,1,2.2821-.6892,5.2612,5.2612,0,0,1,1.2468.1391,2.6856,2.6856,0,0,1,.9859.4507,2.1336,2.1336,0,0,1,.6482.7952,2.6589,2.6589,0,0,1,.2323,1.16v.2651h-1.944a1.8107,1.8107,0,0,0-.2534-1.04.9567.9567,0,0,0-.8453-.3645,1.4907,1.4907,0,0,0-.5636.0928.9477.9477,0,0,0-.3591.2452.8251.8251,0,0,0-.1833.3512,1.7,1.7,0,0,0-.0493.4108,1.3031,1.3031,0,0,0,.1974.7356,1.7657,1.7657,0,0,0,.8451.55l1.5636.6362a4.89,4.89,0,0,1,.9437.4969,2.5,2.5,0,0,1,.5846.5567,1.7987,1.7987,0,0,1,.303.656,3.4606,3.4606,0,0,1,.0845.7952,2.5321,2.5321,0,0,1-.9227,2.18,4.2476,4.2476,0,0,1-2.5707.6826,3.5082,3.5082,0,0,1-2.4582-.7025,2.6455,2.6455,0,0,1-.74-2.0144v-.3843h2.0286Z"/><path class="cls-8" d="M203.9934,132.8115a2.9568,2.9568,0,0,0,.0565.603,1.0185,1.0185,0,0,0,.2113.4573,1.0336,1.0336,0,0,0,.4155.2915,1.7442,1.7442,0,0,0,.655.1061,1.3459,1.3459,0,0,0,.8381-.2849,1.0384,1.0384,0,0,0,.3733-.8814,1.4962,1.4962,0,0,0-.0916-.55,1.089,1.089,0,0,0-.3027-.4175,2.1706,2.1706,0,0,0-.5565-.3379,8.3435,8.3435,0,0,0-.8523-.3115,7.54,7.54,0,0,1-1.1692-.4638,3.1292,3.1292,0,0,1-.824-.59,2.0833,2.0833,0,0,1-.4862-.7819,3.1154,3.1154,0,0,1-.1549-1.0271,2.5639,2.5639,0,0,1,.8311-2.094,3.4708,3.4708,0,0,1,2.2823-.6892,5.2606,5.2606,0,0,1,1.2466.1391,2.6826,2.6826,0,0,1,.9859.4507,2.1279,2.1279,0,0,1,.6482.7952,2.6589,2.6589,0,0,1,.2323,1.16v.2651h-1.9439a1.81,1.81,0,0,0-.2535-1.04.9566.9566,0,0,0-.8453-.3645,1.4884,1.4884,0,0,0-.5633.0928.9481.9481,0,0,0-.3594.2452.825.825,0,0,0-.1832.3512,1.7,1.7,0,0,0-.0491.4108,1.3038,1.3038,0,0,0,.1971.7356,1.7654,1.7654,0,0,0,.8453.55l1.5635.6362a4.8863,4.8863,0,0,1,.9439.4969,2.5058,2.5058,0,0,1,.5846.5567,1.8036,1.8036,0,0,1,.303.656,3.4773,3.4773,0,0,1,.0845.7952,2.5321,2.5321,0,0,1-.9227,2.18,4.2484,4.2484,0,0,1-2.571.6826,3.5077,3.5077,0,0,1-2.4581-.7025,2.6455,2.6455,0,0,1-.74-2.0144v-.3843h2.0286Z"/><rect class="cls-6" x="13.611" y="14.9412" width="629.889" height="165.6815" rx="21.1094"/></g></svg>