<svg width="41" height="41" viewBox="0 0 41 41" fill="none" xmlns="http://www.w3.org/2000/svg">
<g clip-path="url(#clip0_5736_11643)">
<path d="M16.6313 17.6703C20.7769 17.6703 24.1376 14.3096 24.1376 10.1641C24.1376 6.01858 20.7769 2.65796 16.6313 2.65796C12.4857 2.65796 9.125 6.01858 9.125 10.1641C9.125 14.3096 12.4857 17.6703 16.6313 17.6703Z" fill="#4745B7"/>
<path d="M24.2323 22.3991C24.2278 22.5471 24.1675 22.6879 24.0634 22.7932C21.9694 24.5478 20.5589 26.9828 20.0786 29.6722C19.5983 32.3616 20.0789 35.1343 21.4362 37.5052C21.4769 37.5812 21.4958 37.6669 21.4906 37.7529C21.4881 37.9044 21.4257 38.0487 21.317 38.1543C21.2083 38.2598 21.0622 38.3179 20.9108 38.3159H9.10708C4.80972 38.3159 2.53906 36.0641 2.53906 31.7856C2.53906 27.0004 5.24133 21.4271 12.8602 21.4271H20.3665C21.4808 21.4194 22.5912 21.5582 23.6693 21.8399C23.7594 21.8605 24.2323 22.0182 24.2323 22.3991Z" fill="#CCCBF8"/>
<path d="M31.6247 22.8308C29.8617 22.8308 28.1383 23.3536 26.6725 24.333C25.2066 25.3124 24.0641 26.7046 23.3895 28.3333C22.7148 29.962 22.5383 31.7543 22.8822 33.4833C23.2262 35.2124 24.0751 36.8006 25.3217 38.0472C26.5683 39.2938 28.1566 40.1427 29.8857 40.4867C31.6148 40.8306 33.4071 40.6541 35.0358 39.9794C36.6646 39.3048 38.0567 38.1623 39.0362 36.6965C40.0156 35.2306 40.5384 33.5073 40.5384 31.7444C40.5354 29.3813 39.5954 27.1158 37.9244 25.4448C36.2534 23.7739 33.9878 22.8338 31.6247 22.8308ZM31.6247 25.6456C32.7534 25.6496 33.8585 25.9694 34.8149 26.5689L26.4491 34.9345C25.8488 33.9785 25.5289 32.8732 25.5258 31.7444C25.5278 30.1275 26.171 28.5774 27.3143 27.4341C28.4577 26.2908 30.0078 25.6476 31.6247 25.6456ZM31.6247 37.8431C30.496 37.8392 29.3909 37.5193 28.4345 36.9199L36.8003 28.5543C37.4006 29.5102 37.7205 30.6155 37.7236 31.7444C37.7216 33.3612 37.0784 34.9113 35.935 36.0546C34.7917 37.198 33.2416 37.8411 31.6247 37.8431Z" fill="#4745B7"/>
</g>
<defs>
<clipPath id="clip0_5736_11643">
<rect width="40" height="40" fill="white" transform="translate(0.5 0.616211)"/>
</clipPath>
</defs>
</svg>
