<svg width="38" height="38" viewBox="0 0 38 38" fill="none" xmlns="http://www.w3.org/2000/svg">
<path d="M32.6426 16.5889H5.36052C5.09582 16.6267 4.82596 16.6023 4.5723 16.5177C4.31864 16.4331 4.08816 16.2907 3.89909 16.1016C3.71002 15.9125 3.56756 15.6821 3.48298 15.4284C3.3984 15.1748 3.37404 14.9049 3.4118 14.6402V9.65342C3.412 9.29162 3.51291 8.93701 3.70324 8.62932C3.89357 8.32162 4.1658 8.07299 4.48944 7.91127L17.694 1.30706C18.0999 1.10401 18.5476 0.998291 19.0015 0.998291C19.4555 0.998291 19.9032 1.10401 20.3091 1.30706L33.5137 7.91127C33.8373 8.07299 34.1095 8.32162 34.2999 8.62932C34.4902 8.93701 34.5911 9.29162 34.5913 9.65342V14.6402C34.6291 14.9049 34.6047 15.1748 34.5201 15.4284C34.4355 15.6821 34.2931 15.9125 34.104 16.1016C33.9149 16.2907 33.6844 16.4331 33.4308 16.5177C33.1771 16.6023 32.9073 16.6267 32.6426 16.5889Z" fill="#CCCBF8"/>
<path d="M29.2305 16.5889H32.1535V30.2299H29.2305V16.5889Z" fill="#4745B7"/>
<path d="M21.4336 16.5889H24.3567V30.2299H21.4336V16.5889Z" fill="#4745B7"/>
<path d="M13.6406 16.5889H16.5637V30.2299H13.6406V16.5889Z" fill="#4745B7"/>
<path d="M5.84766 16.5889H8.77073V30.2299H5.84766V16.5889Z" fill="#4745B7"/>
<path d="M36.5385 34.6145H34.5897V32.1786C34.6275 31.9139 34.6031 31.6441 34.5186 31.3904C34.434 31.1368 34.2915 30.9063 34.1025 30.7172C33.9134 30.5281 33.6829 30.3857 33.4292 30.3011C33.1756 30.2165 32.9057 30.1922 32.641 30.2299H5.35897C5.09427 30.1922 4.82441 30.2165 4.57075 30.3011C4.3171 30.3857 4.08661 30.5281 3.89754 30.7172C3.70847 30.9063 3.56601 31.1368 3.48143 31.3904C3.39686 31.6441 3.37249 31.9139 3.41026 32.1786V34.6145H1.46154C1.07391 34.6145 0.702166 34.7685 0.428075 35.0426C0.153983 35.3167 0 35.6884 0 36.0761C0 36.4637 0.153983 36.8354 0.428075 37.1095C0.702166 37.3836 1.07391 37.5376 1.46154 37.5376H36.5385C36.9261 37.5376 37.2978 37.3836 37.5719 37.1095C37.846 36.8354 38 36.4637 38 36.0761C38 35.6884 37.846 35.3167 37.5719 35.0426C37.2978 34.7685 36.9261 34.6145 36.5385 34.6145Z" fill="#CCCBF8"/>
<path d="M19.0023 11.2299C20.3476 11.2299 21.4382 10.1394 21.4382 8.79405C21.4382 7.44874 20.3476 6.35815 19.0023 6.35815C17.657 6.35815 16.5664 7.44874 16.5664 8.79405C16.5664 10.1394 17.657 11.2299 19.0023 11.2299Z" fill="#4745B7"/>
</svg>
