<svg width="181" height="52" viewBox="0 0 181 52" fill="none" xmlns="http://www.w3.org/2000/svg">
<path d="M179.125 46.0029C179.125 48.774 176.834 51.0187 173.999 51.0187H6.25743C3.4245 51.0187 1.125 48.774 1.125 46.0029V6.00333C1.125 3.23349 3.4245 0.980957 6.25743 0.980957H173.998C176.834 0.980957 179.124 3.23349 179.124 6.00333L179.125 46.0029Z" fill="transparent"/>
<path d="M40.2945 25.7191C40.2558 21.5292 43.8131 19.4908 43.9758 19.3959C41.9611 16.532 38.8385 16.1407 37.7411 16.1095C35.1185 15.8404 32.5745 17.6396 31.2385 17.6396C29.8758 17.6396 27.8185 16.1355 25.6011 16.1797C22.7478 16.2226 20.0785 17.8333 18.6145 20.3345C15.5931 25.4344 17.8465 32.9289 20.7411 37.0512C22.1891 39.0701 23.8811 41.3243 26.0958 41.245C28.2625 41.1579 29.0718 39.8982 31.6865 39.8982C34.2771 39.8982 35.0371 41.245 37.2958 41.1943C39.6211 41.1579 41.0851 39.1663 42.4825 37.1292C44.1558 34.8152 44.8278 32.5363 44.8545 32.4193C44.7998 32.4011 40.3385 30.741 40.2945 25.7191Z" fill="white"/>
<path d="M36.0278 13.3977C37.1931 11.9768 37.9905 10.0437 37.7691 8.08203C36.0825 8.15483 33.9731 9.21953 32.7585 10.6092C31.6838 11.8338 30.7238 13.841 30.9718 15.7286C32.8665 15.8664 34.8118 14.7965 36.0278 13.3977Z" fill="white"/>
<path d="M71.6519 40.9552H68.6239L66.9652 35.8735H61.1999L59.6199 40.9552H56.6719L62.3839 23.6548H65.9119L71.6519 40.9552ZM66.4652 33.7415L64.9652 29.224C64.8065 28.7625 64.5092 27.6757 64.0705 25.9649H64.0172C63.8425 26.7007 63.5612 27.7875 63.1745 29.224L61.7012 33.7415H66.4652Z" fill="white"/>
<path d="M86.3409 34.5647C86.3409 36.6863 85.7529 38.3633 84.5769 39.5944C83.5235 40.6903 82.2155 41.2376 80.6542 41.2376C78.9689 41.2376 77.7582 40.6474 77.0209 39.467H76.9675V46.0385H74.1249V32.5874C74.1249 31.2536 74.0889 29.8847 74.0195 28.4807H76.5195L76.6782 30.458H76.7315C77.6795 28.9682 79.1182 28.2246 81.0489 28.2246C82.5582 28.2246 83.8182 28.8057 84.8262 29.9692C85.8369 31.134 86.3409 32.6654 86.3409 34.5647ZM83.4449 34.6661C83.4449 33.4519 83.1649 32.4509 82.6022 31.6631C81.9875 30.8415 81.1622 30.4307 80.1275 30.4307C79.4262 30.4307 78.7889 30.6595 78.2195 31.1106C77.6489 31.5656 77.2755 32.1597 77.1009 32.8955C77.0129 33.2387 76.9689 33.5195 76.9689 33.7405V35.8205C76.9689 36.7279 77.2542 37.4936 77.8249 38.1189C78.3955 38.7442 79.1369 39.0562 80.0489 39.0562C81.1195 39.0562 81.9529 38.6532 82.5489 37.8498C83.1462 37.0451 83.4449 35.9843 83.4449 34.6661Z" fill="white"/>
<path d="M101.058 34.5647C101.058 36.6863 100.47 38.3633 99.293 39.5944C98.241 40.6903 96.9329 41.2376 95.3716 41.2376C93.6863 41.2376 92.4756 40.6474 91.7396 39.467H91.6863V46.0385H88.8436V32.5874C88.8436 31.2536 88.8076 29.8847 88.7383 28.4807H91.2383L91.397 30.458H91.4503C92.3969 28.9682 93.8356 28.2246 95.7676 28.2246C97.2756 28.2246 98.5356 28.8057 99.5463 29.9692C100.553 31.134 101.058 32.6654 101.058 34.5647ZM98.1623 34.6661C98.1623 33.4519 97.8809 32.4509 97.3183 31.6631C96.7036 30.8415 95.881 30.4307 94.845 30.4307C94.1423 30.4307 93.5063 30.6595 92.9356 31.1106C92.365 31.5656 91.9929 32.1597 91.8183 32.8955C91.7316 33.2387 91.6863 33.5195 91.6863 33.7405V35.8205C91.6863 36.7279 91.9716 37.4936 92.5396 38.1189C93.1103 38.7429 93.8516 39.0562 94.7663 39.0562C95.837 39.0562 96.6703 38.6532 97.2663 37.8498C97.8636 37.0451 98.1623 35.9843 98.1623 34.6661Z" fill="white"/>
<path d="M117.512 36.1037C117.512 37.5753 116.988 38.7726 115.936 39.6969C114.78 40.707 113.171 41.2114 111.103 41.2114C109.193 41.2114 107.663 40.8526 106.504 40.1337L107.163 37.8236C108.411 38.5594 109.78 38.9286 111.272 38.9286C112.343 38.9286 113.176 38.692 113.775 38.2214C114.371 37.7508 114.668 37.119 114.668 36.3312C114.668 35.6292 114.423 35.0377 113.931 34.558C113.441 34.0783 112.624 33.6324 111.483 33.2203C108.376 32.0906 106.824 30.4357 106.824 28.2595C106.824 26.8373 107.368 25.6712 108.457 24.7638C109.543 23.8551 110.991 23.4014 112.801 23.4014C114.416 23.4014 115.757 23.6757 116.828 24.223L116.117 26.4824C115.117 25.952 113.987 25.6868 112.721 25.6868C111.721 25.6868 110.94 25.9273 110.38 26.4057C109.907 26.8334 109.669 27.3547 109.669 27.9722C109.669 28.656 109.94 29.2215 110.484 29.6661C110.957 30.0769 111.817 30.5215 113.065 31.0012C114.592 31.6005 115.713 32.3012 116.435 33.1046C117.153 33.9054 117.512 34.9077 117.512 36.1037Z" fill="white"/>
<path d="M126.909 30.5604H123.776V36.6171C123.776 38.1576 124.328 38.9272 125.435 38.9272C125.943 38.9272 126.364 38.8843 126.697 38.7985L126.776 40.9032C126.216 41.1073 125.479 41.21 124.565 41.21C123.443 41.21 122.565 40.8759 121.932 40.209C121.301 39.5408 120.984 38.4202 120.984 36.8459V30.5578H119.117V28.4778H120.984V26.1937L123.776 25.3721V28.4778H126.909V30.5604Z" fill="white"/>
<path d="M141.048 34.6151C141.048 36.5326 140.485 38.1069 139.362 39.338C138.185 40.6055 136.622 41.2373 134.674 41.2373C132.797 41.2373 131.302 40.6302 130.188 39.416C129.073 38.2018 128.516 36.6691 128.516 34.8218C128.516 32.8887 129.089 31.3053 130.24 30.0742C131.388 28.8418 132.937 28.2256 134.885 28.2256C136.762 28.2256 138.273 28.8327 139.413 30.0482C140.504 31.2273 141.048 32.7496 141.048 34.6151ZM138.098 34.7048C138.098 33.5543 137.846 32.5676 137.336 31.7447C136.74 30.7489 135.888 30.2523 134.784 30.2523C133.641 30.2523 132.773 30.7502 132.177 31.7447C131.666 32.5689 131.414 33.5712 131.414 34.7568C131.414 35.9073 131.666 36.894 132.177 37.7156C132.792 38.7114 133.65 39.208 134.758 39.208C135.844 39.208 136.696 38.701 137.31 37.6896C137.834 36.8511 138.098 35.854 138.098 34.7048Z" fill="white"/>
<path d="M150.287 30.9182C150.005 30.8675 149.705 30.8415 149.391 30.8415C148.391 30.8415 147.617 31.2094 147.073 31.9465C146.6 32.5965 146.363 33.4181 146.363 34.41V40.9555H143.521L143.548 32.4093C143.548 30.9715 143.512 29.6624 143.441 28.482H145.917L146.021 30.8688H146.1C146.4 30.0485 146.873 29.3881 147.521 28.8928C148.155 28.4469 148.839 28.2246 149.576 28.2246C149.839 28.2246 150.076 28.2428 150.287 28.2753V30.9182Z" fill="white"/>
<path d="M163 34.1279C163 34.6245 162.966 35.0431 162.896 35.385H154.368C154.401 36.6174 154.813 37.5599 155.605 38.2099C156.324 38.791 157.253 39.0822 158.394 39.0822C159.657 39.0822 160.809 38.8859 161.845 38.492L162.29 40.416C161.08 40.9308 159.65 41.1869 158.001 41.1869C156.017 41.1869 154.46 40.6175 153.326 39.48C152.196 38.3425 151.629 36.815 151.629 34.8988C151.629 33.0177 152.156 31.4512 153.21 30.2019C154.314 28.8681 155.806 28.2012 157.684 28.2012C159.528 28.2012 160.924 28.8681 161.872 30.2019C162.622 31.2614 163 32.5718 163 34.1279ZM160.289 33.409C160.308 32.5874 160.122 31.8776 159.737 31.2783C159.245 30.5074 158.489 30.1226 157.472 30.1226C156.542 30.1226 155.786 30.4983 155.209 31.2523C154.736 31.8516 154.454 32.5705 154.368 33.4077H160.289V33.409Z" fill="white"/>
<path d="M65.5247 13.0118C65.5247 14.5419 65.0541 15.6937 64.114 16.4672C63.2434 17.1809 62.006 17.5384 60.4034 17.5384C59.6087 17.5384 58.9287 17.5046 58.3594 17.437V9.0767C59.102 8.9597 59.902 8.8999 60.766 8.8999C62.2927 8.8999 63.4434 9.2236 64.2194 9.871C65.0887 10.6029 65.5247 11.6494 65.5247 13.0118ZM64.0514 13.0495C64.0514 12.0576 63.782 11.2971 63.2434 10.7667C62.7047 10.2376 61.918 9.9724 60.882 9.9724C60.442 9.9724 60.0674 10.001 59.7567 10.0608V16.4165C59.9287 16.4425 60.2434 16.4542 60.7007 16.4542C61.77 16.4542 62.5954 16.1643 63.1767 15.5845C63.7581 15.0047 64.0514 14.1597 64.0514 13.0495Z" fill="white"/>
<path d="M73.3357 14.3482C73.3357 15.2907 73.0597 16.0629 72.5077 16.6687C71.929 17.2914 71.1624 17.6021 70.205 17.6021C69.2824 17.6021 68.5477 17.3044 67.9997 16.7064C67.453 16.1097 67.1797 15.357 67.1797 14.4496C67.1797 13.5006 67.461 12.7219 68.0264 12.1174C68.5917 11.5129 69.3517 11.21 70.309 11.21C71.2317 11.21 71.973 11.5077 72.5344 12.1044C73.0677 12.6842 73.3357 13.433 73.3357 14.3482ZM71.8864 14.3924C71.8864 13.8269 71.761 13.342 71.5117 12.9377C71.2184 12.4489 70.801 12.2045 70.2584 12.2045C69.697 12.2045 69.2704 12.4489 68.977 12.9377C68.7264 13.342 68.6024 13.8347 68.6024 14.4171C68.6024 14.9826 68.7277 15.4675 68.977 15.8718C69.2797 16.3606 69.701 16.605 70.245 16.605C70.7784 16.605 71.197 16.3567 71.4984 15.8588C71.757 15.4467 71.8864 14.9579 71.8864 14.3924Z" fill="white"/>
<path d="M83.8098 11.335L81.8431 17.4632H80.5631L79.7485 14.8021C79.5418 14.1378 79.3738 13.4774 79.2431 12.8222H79.2178C79.0965 13.4956 78.9285 14.1547 78.7125 14.8021L77.8471 17.4632H76.5525L74.7031 11.335H76.1391L76.8498 14.2483C77.0218 14.9373 77.1631 15.5938 77.2765 16.2152H77.3018C77.4058 15.703 77.5778 15.0504 77.8205 14.2613L78.7125 11.3363H79.8511L80.7058 14.1989C80.9125 14.897 81.0805 15.5691 81.2098 16.2165H81.2485C81.3431 15.586 81.4858 14.9139 81.6751 14.1989L82.4378 11.3363H83.8098V11.335Z" fill="white"/>
<path d="M91.0562 17.463H89.6589V13.953C89.6589 12.8714 89.2375 12.3306 88.3922 12.3306C87.9775 12.3306 87.6429 12.4788 87.3829 12.7765C87.1255 13.0742 86.9949 13.4252 86.9949 13.8269V17.4617H85.5975V13.0859C85.5975 12.5477 85.5802 11.964 85.5469 11.3322H86.7749L86.8402 12.2903H86.8789C87.0415 11.9926 87.2842 11.7469 87.6029 11.5506C87.9815 11.3218 88.4055 11.2061 88.8695 11.2061C89.4562 11.2061 89.9442 11.3907 90.3322 11.7612C90.8149 12.2149 91.0562 12.8922 91.0562 13.7918V17.463Z" fill="white"/>
<path d="M94.9077 17.463H93.5117V8.52295H94.9077V17.463Z" fill="white"/>
<path d="M103.136 14.3482C103.136 15.2907 102.86 16.0629 102.308 16.6687C101.73 17.2914 100.962 17.6021 100.006 17.6021C99.0818 17.6021 98.3471 17.3044 97.8005 16.7064C97.2538 16.1097 96.9805 15.357 96.9805 14.4496C96.9805 13.5006 97.2618 12.7219 97.8271 12.1174C98.3925 11.5129 99.1525 11.21 100.108 11.21C101.032 11.21 101.772 11.5077 102.335 12.1044C102.868 12.6842 103.136 13.433 103.136 14.3482ZM101.686 14.3924C101.686 13.8269 101.56 13.342 101.311 12.9377C101.019 12.4489 100.6 12.2045 100.059 12.2045C99.4965 12.2045 99.0698 12.4489 98.7778 12.9377C98.5271 13.342 98.4031 13.8347 98.4031 14.4171C98.4031 14.9826 98.5285 15.4675 98.7778 15.8718C99.0805 16.3606 99.5018 16.605 100.046 16.605C100.579 16.605 100.996 16.3567 101.298 15.8588C101.558 15.4467 101.686 14.9579 101.686 14.3924Z" fill="white"/>
<path d="M109.898 17.463H108.644L108.54 16.7571H108.501C108.072 17.32 107.46 17.6021 106.665 17.6021C106.072 17.6021 105.592 17.4162 105.23 17.047C104.902 16.7116 104.738 16.2943 104.738 15.799C104.738 15.0502 105.058 14.4795 105.702 14.0843C106.345 13.6891 107.249 13.4954 108.413 13.5045V13.3901C108.413 12.5828 107.978 12.1798 107.108 12.1798C106.488 12.1798 105.941 12.3319 105.469 12.6335L105.185 11.7391C105.769 11.3868 106.49 11.21 107.341 11.21C108.984 11.21 109.808 12.055 109.808 13.745V16.0018C109.808 16.6141 109.838 17.1016 109.898 17.463ZM108.448 15.357V14.4119C106.906 14.3859 106.136 14.798 106.136 15.6469C106.136 15.9667 106.224 16.2059 106.404 16.3658C106.584 16.5257 106.813 16.605 107.086 16.605C107.393 16.605 107.68 16.5101 107.941 16.3216C108.204 16.1318 108.365 15.8913 108.425 15.5962C108.44 15.5299 108.448 15.4493 108.448 15.357Z" fill="white"/>
<path d="M117.84 17.463H116.6L116.534 16.4789H116.496C116.1 17.2277 115.425 17.6021 114.477 17.6021C113.72 17.6021 113.089 17.3123 112.589 16.7324C112.089 16.1526 111.84 15.3999 111.84 14.4756C111.84 13.4837 112.111 12.6803 112.655 12.0667C113.181 11.4947 113.827 11.2087 114.594 11.2087C115.438 11.2087 116.029 11.4856 116.365 12.0407H116.392V8.52295H117.79V15.812C117.79 16.4087 117.807 16.9586 117.84 17.463ZM116.392 14.8786V13.8568C116.392 13.68 116.378 13.537 116.353 13.4278C116.274 13.1002 116.105 12.8246 115.848 12.6023C115.588 12.38 115.274 12.2682 114.913 12.2682C114.392 12.2682 113.984 12.4697 113.684 12.874C113.387 13.2783 113.236 13.7944 113.236 14.4249C113.236 15.0307 113.379 15.5221 113.665 15.9004C113.968 16.3034 114.376 16.5049 114.887 16.5049C115.345 16.5049 115.712 16.3372 115.991 16.0005C116.26 15.6898 116.392 15.3154 116.392 14.8786Z" fill="white"/>
<path d="M129.789 14.3482C129.789 15.2907 129.513 16.0629 128.961 16.6687C128.382 17.2914 127.617 17.6021 126.658 17.6021C125.737 17.6021 125.002 17.3044 124.453 16.7064C123.906 16.1097 123.633 15.357 123.633 14.4496C123.633 13.5006 123.914 12.7219 124.479 12.1174C125.045 11.5129 125.805 11.21 126.763 11.21C127.685 11.21 128.427 11.5077 128.987 12.1044C129.521 12.6842 129.789 13.433 129.789 14.3482ZM128.341 14.3924C128.341 13.8269 128.215 13.342 127.966 12.9377C127.671 12.4489 127.255 12.2045 126.711 12.2045C126.151 12.2045 125.725 12.4489 125.43 12.9377C125.179 13.342 125.055 13.8347 125.055 14.4171C125.055 14.9826 125.181 15.4675 125.43 15.8718C125.733 16.3606 126.154 16.605 126.698 16.605C127.231 16.605 127.651 16.3567 127.953 15.8588C128.21 15.4467 128.341 14.9579 128.341 14.3924Z" fill="white"/>
<path d="M137.301 17.463H135.905V13.953C135.905 12.8714 135.484 12.3306 134.637 12.3306C134.222 12.3306 133.888 12.4788 133.629 12.7765C133.37 13.0742 133.241 13.4252 133.241 13.8269V17.4617H131.842V13.0859C131.842 12.5477 131.826 11.964 131.793 11.3322H133.02L133.085 12.2903H133.124C133.288 11.9926 133.53 11.7469 133.848 11.5506C134.228 11.3218 134.65 11.2061 135.116 11.2061C135.701 11.2061 136.189 11.3907 136.577 11.7612C137.061 12.2149 137.301 12.8922 137.301 13.7918V17.463Z" fill="white"/>
<path d="M146.707 12.3553H145.168V15.3323C145.168 16.0889 145.442 16.4672 145.983 16.4672C146.234 16.4672 146.442 16.4464 146.606 16.4035L146.642 17.437C146.366 17.5384 146.003 17.5891 145.556 17.5891C145.004 17.5891 144.575 17.4253 144.264 17.0977C143.952 16.7701 143.798 16.2189 143.798 15.4454V12.3553H142.879V11.3348H143.798V10.2116L145.167 9.80859V11.3335H146.706V12.3553H146.707Z" fill="white"/>
<path d="M154.103 17.463H152.705V13.979C152.705 12.8805 152.283 12.3306 151.439 12.3306C150.791 12.3306 150.349 12.6491 150.106 13.2861C150.065 13.42 150.041 13.5838 150.041 13.7762V17.4618H148.645V8.52295H150.041V12.2162H150.067C150.507 11.5441 151.138 11.2087 151.955 11.2087C152.534 11.2087 153.013 11.3933 153.393 11.7638C153.866 12.2253 154.103 12.9117 154.103 13.8191V17.463Z" fill="white"/>
<path d="M161.733 14.1089C161.733 14.3533 161.714 14.5587 161.681 14.7264H157.49C157.509 15.3322 157.709 15.7937 158.097 16.1135C158.451 16.3995 158.909 16.5425 159.469 16.5425C160.089 16.5425 160.654 16.4463 161.163 16.2526L161.382 17.199C160.786 17.4512 160.085 17.5773 159.273 17.5773C158.299 17.5773 157.533 17.2978 156.978 16.7388C156.421 16.1798 156.145 15.4297 156.145 14.4885C156.145 13.5642 156.402 12.7946 156.921 12.181C157.462 11.5258 158.194 11.1982 159.118 11.1982C160.022 11.1982 160.709 11.5258 161.173 12.181C161.547 12.701 161.733 13.3445 161.733 14.1089ZM160.399 13.7566C160.41 13.3523 160.318 13.0039 160.129 12.7101C159.886 12.3318 159.517 12.142 159.017 12.142C158.561 12.142 158.189 12.3266 157.905 12.6971C157.673 12.9922 157.535 13.3445 157.49 13.7566H160.399Z" fill="white"/>
</svg>
