<svg width="180" height="52" viewBox="0 0 180 52" fill="none" xmlns="http://www.w3.org/2000/svg">
<path d="M173.22 52H6.7825C3.12254 52 0.125 49.0734 0.125 45.5V6.5C0.125 2.92663 3.12254 2.74817e-06 6.7825 2.74817e-06H173.22C176.88 2.74817e-06 179.878 2.92663 179.878 6.5V45.5C179.878 49.0734 176.88 52 173.22 52Z" fill="transparent"/>
<path d="M63.263 13.3172C63.263 14.4027 62.9302 15.2721 62.2744 15.9204C61.5205 16.6891 60.5385 17.0758 59.3351 17.0758C58.185 17.0758 57.2031 16.6826 56.3975 15.9074C55.5903 15.1209 55.1875 14.1557 55.1875 13.0003C55.1875 11.8449 55.5903 10.8797 56.3975 10.0997C57.2031 9.31806 58.185 8.9248 59.3351 8.9248C59.9077 8.9248 60.4536 9.04018 60.9745 9.25468C61.4938 9.4708 61.9166 9.7633 62.2228 10.1241L61.5271 10.8098C60.9928 10.1939 60.2655 9.89006 59.3351 9.89006C58.4963 9.89006 57.7689 10.1761 57.1515 10.7529C56.5406 11.3314 56.2344 12.0806 56.2344 13.0003C56.2344 13.9201 56.5406 14.6757 57.1515 15.2542C57.7689 15.8246 58.4963 16.1171 59.3351 16.1171C60.2256 16.1171 60.9745 15.8246 61.5654 15.2477C61.9549 14.8658 62.1762 14.3393 62.2345 13.6666H59.3351V12.7273H63.2031C63.2497 12.9304 63.263 13.1271 63.263 13.3172Z" fill="white" stroke="white" stroke-width="0.16" stroke-miterlimit="10"/>
<path d="M69.4002 10.0606H65.7669V12.5306H69.0424V13.4699H65.7669V15.9399H69.4002V16.897H64.7383V9.10352H69.4002V10.0606Z" fill="white" stroke="white" stroke-width="0.16" stroke-miterlimit="10"/>
<path d="M73.7298 16.897H72.7013V10.0606H70.4727V9.10352H75.9601V10.0606H73.7298V16.897Z" fill="white" stroke="white" stroke-width="0.16" stroke-miterlimit="10"/>
<path d="M79.9336 16.897V9.10352H80.9605V16.897H79.9336Z" fill="white" stroke="white" stroke-width="0.16" stroke-miterlimit="10"/>
<path d="M85.5111 16.897H84.4908V10.0606H82.2539V9.10352H87.748V10.0606H85.5111V16.897Z" fill="white" stroke="white" stroke-width="0.16" stroke-miterlimit="10"/>
<path d="M98.1369 15.8944C97.3496 16.6826 96.3743 17.0758 95.2109 17.0758C94.0408 17.0758 93.0655 16.6826 92.2783 15.8944C91.4927 15.1079 91.1016 14.1427 91.1016 13.0003C91.1016 11.8579 91.4927 10.8927 92.2783 10.1062C93.0655 9.31805 94.0408 8.9248 95.2109 8.9248C96.3676 8.9248 97.343 9.31805 98.1302 10.1127C98.9225 10.9057 99.3136 11.8644 99.3136 13.0003C99.3136 14.1427 98.9225 15.1079 98.1369 15.8944ZM93.0389 15.2412C93.6314 15.8246 94.3521 16.1171 95.2109 16.1171C96.0631 16.1171 96.7904 15.8246 97.3763 15.2412C97.9671 14.6578 98.2667 13.9087 98.2667 13.0003C98.2667 12.0919 97.9671 11.3428 97.3763 10.7594C96.7904 10.1761 96.0631 9.88355 95.2109 9.88355C94.3521 9.88355 93.6314 10.1761 93.0389 10.7594C92.448 11.3428 92.1485 12.0919 92.1485 13.0003C92.1485 13.9087 92.448 14.6578 93.0389 15.2412Z" fill="white" stroke="white" stroke-width="0.16" stroke-miterlimit="10"/>
<path d="M100.758 16.897V9.10352H102.006L105.887 15.1648H105.932L105.887 13.6665V9.10352H106.914V16.897H105.842L101.778 10.5368H101.733L101.778 12.0415V16.897H100.758Z" fill="white" stroke="white" stroke-width="0.16" stroke-miterlimit="10"/>
<mask id="path-9-inside-1_4951_39165" fill="white">
<path d="M90.8465 28.2783C87.7192 28.2783 85.1644 30.602 85.1644 33.8082C85.1644 36.9883 87.7192 39.3364 90.8465 39.3364C93.9805 39.3364 96.5354 36.9883 96.5354 33.8082C96.5354 30.602 93.9805 28.2783 90.8465 28.2783ZM90.8465 37.1589C89.1306 37.1589 87.6543 35.776 87.6543 33.8082C87.6543 31.8143 89.1306 30.4558 90.8465 30.4558C92.5625 30.4558 94.0455 31.8143 94.0455 33.8082C94.0455 35.776 92.5625 37.1589 90.8465 37.1589ZM78.4486 28.2783C75.3146 28.2783 72.7664 30.602 72.7664 33.8082C72.7664 36.9883 75.3146 39.3364 78.4486 39.3364C81.5809 39.3364 84.1308 36.9883 84.1308 33.8082C84.1308 30.602 81.5809 28.2783 78.4486 28.2783ZM78.4486 37.1589C76.731 37.1589 75.2497 35.776 75.2497 33.8082C75.2497 31.8143 76.731 30.4558 78.4486 30.4558C80.1646 30.4558 81.6409 31.8143 81.6409 33.8082C81.6409 35.776 80.1646 37.1589 78.4486 37.1589ZM63.6956 29.9732V32.3229H69.4427C69.2746 33.6359 68.8252 34.6012 68.1361 35.2739C67.2973 36.0864 65.9907 36.9883 63.6956 36.9883C60.1588 36.9883 57.3893 34.2014 57.3893 30.7483C57.3893 27.2952 60.1588 24.5083 63.6956 24.5083C65.6079 24.5083 66.9994 25.2379 68.0263 26.1837L69.7223 24.5278C68.2859 23.1888 66.3752 22.1602 63.6956 22.1602C58.8456 22.1602 54.7695 26.013 54.7695 30.7483C54.7695 35.4835 58.8456 39.3364 63.6956 39.3364C66.317 39.3364 68.2859 38.4979 69.8338 36.9249C71.4199 35.3763 71.9143 33.1988 71.9143 31.4405C71.9143 30.8945 71.8677 30.3924 71.7844 29.9732H63.6956ZM124.023 31.7948C123.555 30.5582 122.112 28.2783 119.173 28.2783C116.26 28.2783 113.835 30.5192 113.835 33.8082C113.835 36.9054 116.235 39.3364 119.452 39.3364C122.054 39.3364 123.555 37.7878 124.172 36.8859L122.242 35.6298C121.598 36.5495 120.72 37.1589 119.452 37.1589C118.192 37.1589 117.288 36.595 116.709 35.4835L124.284 32.4237L124.023 31.7948ZM116.3 33.6359C116.235 31.5039 117.996 30.4119 119.257 30.4119C120.246 30.4119 121.085 30.8945 121.365 31.5852L116.3 33.6359ZM110.143 39H112.633V22.75H110.143V39ZM106.066 29.51H105.982C105.423 28.8633 104.356 28.2783 103.005 28.2783C100.169 28.2783 97.5756 30.7093 97.5756 33.826C97.5756 36.9249 100.169 39.3364 103.005 39.3364C104.356 39.3364 105.423 38.7465 105.982 38.0803H106.066V38.8733C106.066 40.9874 104.909 42.1233 103.043 42.1233C101.522 42.1233 100.578 41.0508 100.189 40.1489L98.0233 41.0313C98.6475 42.497 100.3 44.3008 103.043 44.3008C105.962 44.3008 108.426 42.6238 108.426 38.5434V28.6147H106.066V29.51ZM103.218 37.1589C101.502 37.1589 100.065 35.7565 100.065 33.826C100.065 31.8777 101.502 30.4558 103.218 30.4558C104.909 30.4558 106.242 31.8777 106.242 33.826C106.242 35.7565 104.909 37.1589 103.218 37.1589ZM135.68 22.75H129.725V39H132.208V32.8429H135.68C138.438 32.8429 141.142 30.8945 141.142 27.7957C141.142 24.6984 138.431 22.75 135.68 22.75ZM135.745 30.5825H132.208V25.0104H135.745C137.599 25.0104 138.657 26.5135 138.657 27.7957C138.657 29.0534 137.599 30.5825 135.745 30.5825ZM151.095 28.2474C149.301 28.2474 147.435 29.0209 146.668 30.7353L148.872 31.6372C149.346 30.7353 150.218 30.4428 151.14 30.4428C152.428 30.4428 153.735 31.1984 153.755 32.5325V32.7032C153.306 32.4497 152.344 32.0743 151.16 32.0743C148.787 32.0743 146.368 33.3499 146.368 35.7305C146.368 37.908 148.312 39.3104 150.498 39.3104C152.169 39.3104 153.091 38.5743 153.67 37.7179H153.755V38.974H156.153V32.7405C156.153 29.8594 153.95 28.2474 151.095 28.2474ZM150.796 37.1524C149.983 37.1524 148.852 36.7592 148.852 35.776C148.852 34.5183 150.263 34.0357 151.485 34.0357C152.578 34.0357 153.091 34.2713 153.755 34.5817C153.56 36.0864 152.234 37.1524 150.796 37.1524ZM164.891 28.6033L162.037 35.6477H161.952L159.001 28.6033H156.323L160.757 38.4475L158.227 43.9254H160.822L167.654 28.6033H164.891ZM142.507 39H144.997V22.75H142.507V39Z"/>
</mask>
<path d="M90.8465 28.2783C87.7192 28.2783 85.1644 30.602 85.1644 33.8082C85.1644 36.9883 87.7192 39.3364 90.8465 39.3364C93.9805 39.3364 96.5354 36.9883 96.5354 33.8082C96.5354 30.602 93.9805 28.2783 90.8465 28.2783ZM90.8465 37.1589C89.1306 37.1589 87.6543 35.776 87.6543 33.8082C87.6543 31.8143 89.1306 30.4558 90.8465 30.4558C92.5625 30.4558 94.0455 31.8143 94.0455 33.8082C94.0455 35.776 92.5625 37.1589 90.8465 37.1589ZM78.4486 28.2783C75.3146 28.2783 72.7664 30.602 72.7664 33.8082C72.7664 36.9883 75.3146 39.3364 78.4486 39.3364C81.5809 39.3364 84.1308 36.9883 84.1308 33.8082C84.1308 30.602 81.5809 28.2783 78.4486 28.2783ZM78.4486 37.1589C76.731 37.1589 75.2497 35.776 75.2497 33.8082C75.2497 31.8143 76.731 30.4558 78.4486 30.4558C80.1646 30.4558 81.6409 31.8143 81.6409 33.8082C81.6409 35.776 80.1646 37.1589 78.4486 37.1589ZM63.6956 29.9732V32.3229H69.4427C69.2746 33.6359 68.8252 34.6012 68.1361 35.2739C67.2973 36.0864 65.9907 36.9883 63.6956 36.9883C60.1588 36.9883 57.3893 34.2014 57.3893 30.7483C57.3893 27.2952 60.1588 24.5083 63.6956 24.5083C65.6079 24.5083 66.9994 25.2379 68.0263 26.1837L69.7223 24.5278C68.2859 23.1888 66.3752 22.1602 63.6956 22.1602C58.8456 22.1602 54.7695 26.013 54.7695 30.7483C54.7695 35.4835 58.8456 39.3364 63.6956 39.3364C66.317 39.3364 68.2859 38.4979 69.8338 36.9249C71.4199 35.3763 71.9143 33.1988 71.9143 31.4405C71.9143 30.8945 71.8677 30.3924 71.7844 29.9732H63.6956ZM124.023 31.7948C123.555 30.5582 122.112 28.2783 119.173 28.2783C116.26 28.2783 113.835 30.5192 113.835 33.8082C113.835 36.9054 116.235 39.3364 119.452 39.3364C122.054 39.3364 123.555 37.7878 124.172 36.8859L122.242 35.6298C121.598 36.5495 120.72 37.1589 119.452 37.1589C118.192 37.1589 117.288 36.595 116.709 35.4835L124.284 32.4237L124.023 31.7948ZM116.3 33.6359C116.235 31.5039 117.996 30.4119 119.257 30.4119C120.246 30.4119 121.085 30.8945 121.365 31.5852L116.3 33.6359ZM110.143 39H112.633V22.75H110.143V39ZM106.066 29.51H105.982C105.423 28.8633 104.356 28.2783 103.005 28.2783C100.169 28.2783 97.5756 30.7093 97.5756 33.826C97.5756 36.9249 100.169 39.3364 103.005 39.3364C104.356 39.3364 105.423 38.7465 105.982 38.0803H106.066V38.8733C106.066 40.9874 104.909 42.1233 103.043 42.1233C101.522 42.1233 100.578 41.0508 100.189 40.1489L98.0233 41.0313C98.6475 42.497 100.3 44.3008 103.043 44.3008C105.962 44.3008 108.426 42.6238 108.426 38.5434V28.6147H106.066V29.51ZM103.218 37.1589C101.502 37.1589 100.065 35.7565 100.065 33.826C100.065 31.8777 101.502 30.4558 103.218 30.4558C104.909 30.4558 106.242 31.8777 106.242 33.826C106.242 35.7565 104.909 37.1589 103.218 37.1589ZM135.68 22.75H129.725V39H132.208V32.8429H135.68C138.438 32.8429 141.142 30.8945 141.142 27.7957C141.142 24.6984 138.431 22.75 135.68 22.75ZM135.745 30.5825H132.208V25.0104H135.745C137.599 25.0104 138.657 26.5135 138.657 27.7957C138.657 29.0534 137.599 30.5825 135.745 30.5825ZM151.095 28.2474C149.301 28.2474 147.435 29.0209 146.668 30.7353L148.872 31.6372C149.346 30.7353 150.218 30.4428 151.14 30.4428C152.428 30.4428 153.735 31.1984 153.755 32.5325V32.7032C153.306 32.4497 152.344 32.0743 151.16 32.0743C148.787 32.0743 146.368 33.3499 146.368 35.7305C146.368 37.908 148.312 39.3104 150.498 39.3104C152.169 39.3104 153.091 38.5743 153.67 37.7179H153.755V38.974H156.153V32.7405C156.153 29.8594 153.95 28.2474 151.095 28.2474ZM150.796 37.1524C149.983 37.1524 148.852 36.7592 148.852 35.776C148.852 34.5183 150.263 34.0357 151.485 34.0357C152.578 34.0357 153.091 34.2713 153.755 34.5817C153.56 36.0864 152.234 37.1524 150.796 37.1524ZM164.891 28.6033L162.037 35.6477H161.952L159.001 28.6033H156.323L160.757 38.4475L158.227 43.9254H160.822L167.654 28.6033H164.891ZM142.507 39H144.997V22.75H142.507V39Z" fill="white" stroke="white" stroke-width="2" mask="url(#path-9-inside-1_4951_39165)"/>
<path d="M28.6428 26.0001L12.9204 10.6558C12.8173 10.9028 12.7515 11.2235 12.7515 11.6286V40.3781C12.7515 40.7806 12.8165 41.0999 12.9185 41.3462L28.6428 26.0001Z" fill="white" stroke="#transparent"/>
<path d="M34.9441 21.2083L30.0364 25.9999L34.9403 30.7937L41.171 27.3386C41.1711 27.3386 41.1711 27.3385 41.1712 27.3385C41.9885 26.8841 42.246 26.3747 42.246 26.0006C42.246 25.6271 41.9891 25.1194 41.1725 24.6683L41.1712 24.6676L34.9441 21.2083Z" fill="white" stroke="#transparent"/>
<mask id="path-12-inside-2_4951_39165" fill="white">
<path d="M34.9633 31.4907L29.3393 25.9998L12.7422 42.206C13.3597 42.8397 14.3666 42.9161 15.5117 42.2823L34.9633 31.4907Z"/>
</mask>
<path d="M34.9633 31.4907L29.3393 25.9998L12.7422 42.206C13.3597 42.8397 14.3666 42.9161 15.5117 42.2823L34.9633 31.4907Z" fill="white"/>
<path d="M29.3393 25.9998L28.4587 25.1189L29.3393 24.259L30.2199 25.1188L29.3393 25.9998ZM12.7422 42.206L11.8396 43.065L10.9815 42.1843L11.8616 41.325L12.7422 42.206ZM15.5117 42.2823L16.125 43.3623L16.1239 43.3629L15.5117 42.2823ZM34.0827 32.3718L28.4588 26.8809L30.2199 25.1188L35.8438 30.6097L34.0827 32.3718ZM30.2199 26.8808L13.6228 43.087L11.8616 41.325L28.4587 25.1189L30.2199 26.8808ZM13.6447 41.3469C13.7185 41.4226 13.8144 41.4754 13.9803 41.4821C14.166 41.4896 14.4752 41.4366 14.8995 41.2018L16.1239 43.3629C14.6899 44.1565 12.9966 44.2524 11.8396 43.065L13.6447 41.3469ZM14.8984 41.2024L34.3499 30.4108L35.5766 32.5706L16.125 43.3623L14.8984 41.2024Z" fill="#transparent" mask="url(#path-12-inside-2_4951_39165)"/>
<path d="M29.3393 25.1297L33.931 20.6465L15.208 10.2591C15.2075 10.2588 15.2071 10.2586 15.2066 10.2583C14.6062 9.92974 14.1269 9.85657 13.7643 9.92779L29.3393 25.1297Z" fill="white" stroke="#transparent"/>
</svg>
