<svg width="39" height="39" viewBox="0 0 39 39" fill="none" xmlns="http://www.w3.org/2000/svg">
<path d="M38.0433 19.9414V32.5207C38.1642 33.3679 38.0862 34.2317 37.8155 35.0437C37.5447 35.8556 37.0887 36.5933 36.4835 37.1985C35.8784 37.8037 35.1406 38.2597 34.3287 38.5304C33.5168 38.8012 32.653 38.8792 31.8057 38.7583H6.85537C6.00809 38.8792 5.1443 38.8012 4.33238 38.5304C3.52046 38.2597 2.78271 37.8037 2.17752 37.1985C1.57234 36.5933 1.11633 35.8556 0.845615 35.0437C0.574897 34.2317 0.496894 33.3679 0.617783 32.5207V19.9207C1.25381 20.6582 2.06034 21.2292 2.96727 21.584C5.91407 22.7404 8.95366 23.6446 12.0534 24.287C12.4679 24.3577 12.8941 24.3047 13.2787 24.1346C13.6632 23.9645 13.9892 23.6848 14.2157 23.3306C14.7647 22.4635 15.5182 21.7447 16.41 21.2371C17.3019 20.7295 18.3048 20.4488 19.3305 20.4197C20.3563 20.4488 21.3592 20.7295 22.251 21.2371C23.1429 21.7447 23.8964 22.4635 24.4454 23.3306C24.6778 23.684 25.0077 23.9625 25.3952 24.1323C25.7827 24.302 26.2111 24.3558 26.6285 24.287C29.7223 23.648 32.7552 22.7436 35.6938 21.584C36.5925 21.2239 37.3964 20.6619 38.0433 19.9414Z" fill="#CCCBF8"/>
<path d="M38.0433 13.8088V19.9424C37.3964 20.6628 36.5925 21.2249 35.6938 21.585C32.7552 22.7446 29.7223 23.649 26.6285 24.288C26.2111 24.3568 25.7827 24.303 25.3952 24.1332C25.0077 23.9635 24.6778 23.685 24.4454 23.3315C23.8964 22.4645 23.1429 21.7457 22.251 21.2381C21.3592 20.7305 20.3563 20.4498 19.3305 20.4207C18.3048 20.4498 17.3019 20.7305 16.41 21.2381C15.5182 21.7457 14.7647 22.4645 14.2157 23.3315C13.9892 23.6858 13.6632 23.9655 13.2787 24.1356C12.8941 24.3057 12.4679 24.3587 12.0534 24.288C8.95366 23.6456 5.91407 22.7414 2.96727 21.585C2.06034 21.2302 1.25381 20.6592 0.617783 19.9216V13.8088C0.496894 12.9615 0.574897 12.0977 0.845615 11.2858C1.11633 10.4738 1.57234 9.73609 2.17752 9.1309C2.78271 8.52571 3.52046 8.06971 4.33238 7.79899C5.1443 7.52827 6.00809 7.45026 6.85537 7.57115H31.8057C32.653 7.45026 33.5168 7.52827 34.3287 7.79899C35.1406 8.06971 35.8784 8.52571 36.4835 9.1309C37.0887 9.73609 37.5447 10.4738 37.8155 11.2858C38.0862 12.0977 38.1642 12.9615 38.0433 13.8088Z" fill="#4745B7"/>
<path d="M29.2055 4.45209V7.5709H26.0867V4.45209C26.0872 4.38367 26.0742 4.31583 26.0482 4.25252C26.0223 4.1892 25.9841 4.13168 25.9357 4.0833C25.8873 4.03492 25.8298 3.99665 25.7665 3.97073C25.7031 3.9448 25.6353 3.93173 25.5669 3.93229H13.0917C13.0233 3.93173 12.9555 3.9448 12.8921 3.97073C12.8288 3.99665 12.7713 4.03492 12.7229 4.0833C12.6745 4.13168 12.6363 4.1892 12.6104 4.25252C12.5844 4.31583 12.5714 4.38367 12.5719 4.45209V7.5709H9.45312V4.45209C9.45423 3.48741 9.83793 2.56255 10.5201 1.88042C11.2022 1.19828 12.127 0.814577 13.0917 0.813477H25.5669C26.5305 0.817852 27.4535 1.20261 28.1349 1.88404C28.8163 2.56546 29.2011 3.48842 29.2055 4.45209Z" fill="#CCCBF8"/>
<path d="M19.3297 28.3632C18.7783 28.3655 18.2486 28.1485 17.8571 27.7601C17.4656 27.3718 17.2444 26.8438 17.2422 26.2924C17.24 25.7409 17.4569 25.2112 17.8453 24.8197C18.2337 24.4282 18.7616 24.207 19.3131 24.2048H19.3297C19.8812 24.2048 20.41 24.4239 20.7999 24.8138C21.1899 25.2037 21.4089 25.7326 21.4089 26.284C21.4089 26.8355 21.1899 27.3643 20.7999 27.7543C20.41 28.1442 19.8812 28.3632 19.3297 28.3632Z" fill="#4745B7"/>
</svg>
