<svg width="38" height="39" viewBox="0 0 38 39" fill="none" xmlns="http://www.w3.org/2000/svg">
<path d="M0.784278 14.0583V32.2723C0.666611 33.0969 0.742535 33.9377 1.00604 34.728C1.26955 35.5183 1.7134 36.2363 2.30246 36.8254C2.89152 37.4145 3.60962 37.8583 4.39991 38.1218C5.19019 38.3853 6.03097 38.4612 6.85568 38.3436H31.1413C31.966 38.4612 32.8068 38.3853 33.597 38.1218C34.3873 37.8583 35.1054 37.4145 35.6945 36.8254C36.2836 36.2363 36.7274 35.5183 36.9909 34.728C37.2544 33.9377 37.3303 33.0969 37.2127 32.2723V14.0583H0.784278Z" fill="#CCCBF8"/>
<path d="M31.1413 4.95094H28.6115V1.91529C28.6115 1.51273 28.4516 1.12667 28.167 0.842021C27.8823 0.557374 27.4962 0.397461 27.0937 0.397461C26.6911 0.397461 26.305 0.557374 26.0204 0.842021C25.7357 1.12667 25.5758 1.51273 25.5758 1.91529V4.95094H12.4211V1.91529C12.4211 1.51273 12.2612 1.12667 11.9766 0.842021C11.6919 0.557374 11.3058 0.397461 10.9033 0.397461C10.5007 0.397461 10.1146 0.557374 9.83 0.842021C9.54534 1.12667 9.38543 1.51273 9.38543 1.91529V4.95094H6.85568C6.03097 4.83327 5.19019 4.90919 4.39991 5.1727C3.60962 5.4362 2.89152 5.88004 2.30246 6.46909C1.7134 7.05815 1.26955 7.77623 1.00604 8.56651C0.742535 9.35678 0.666611 10.1975 0.784278 11.0222V14.0579H37.2127V11.0222C37.3303 10.1975 37.2544 9.35678 36.9909 8.56651C36.7274 7.77623 36.2836 7.05815 35.6945 6.46909C35.1054 5.88004 34.3873 5.4362 33.597 5.1727C32.8068 4.90919 31.966 4.83327 31.1413 4.95094Z" fill="#4745B7"/>
</svg>
