<svg width="39" height="36" viewBox="0 0 39 36" fill="none" xmlns="http://www.w3.org/2000/svg">
<path d="M35.1965 6.61201V10.8476C35.1978 10.9098 35.1799 10.9709 35.1453 11.0226C35.1106 11.0744 35.061 11.1142 35.003 11.1368C34.945 11.1593 34.8815 11.1636 34.821 11.1489C34.7605 11.1342 34.706 11.1012 34.6649 11.0545C33.6233 10.0326 32.2223 9.46001 30.763 9.46001C29.3037 9.46001 27.9026 10.0326 26.8611 11.0545C25.3889 11.0813 23.9846 11.678 22.9434 12.719C21.9023 13.76 21.3056 15.1642 21.2788 16.6362C20.2589 17.6838 19.6898 19.0891 19.6933 20.551C19.6969 22.013 20.2728 23.4155 21.2978 24.4581C21.2998 25.2386 21.4728 26.0091 21.8047 26.7155C21.8419 26.8012 21.857 26.8948 21.8486 26.9879C21.8402 27.0809 21.8086 27.1704 21.7566 27.2481C21.7046 27.3257 21.634 27.3891 21.5512 27.4324C21.4684 27.4756 21.376 27.4974 21.2826 27.4957H6.71545C5.9417 27.6061 5.15288 27.5349 4.41143 27.2877C3.66998 27.0405 2.99626 26.6241 2.4436 26.0715C1.89094 25.5189 1.47452 24.8453 1.22729 24.1039C0.980071 23.3626 0.908838 22.5738 1.01923 21.8002V6.61201C0.908838 5.83835 0.980071 5.04962 1.22729 4.30826C1.47452 3.56689 1.89094 2.89325 2.4436 2.34065C2.99626 1.78805 3.66998 1.37167 4.41143 1.12448C5.15288 0.877286 5.9417 0.806062 6.71545 0.916446H29.5003C30.274 0.806062 31.0629 0.877286 31.8043 1.12448C32.5458 1.37167 33.2195 1.78805 33.7721 2.34065C34.3248 2.89325 34.7412 3.56689 34.9885 4.30826C35.2357 5.04962 35.3069 5.83835 35.1965 6.61201Z" fill="#CCCBF8"/>
<path d="M20.004 11.8329H8.61155C8.23387 11.8329 7.87166 11.6829 7.6046 11.4158C7.33753 11.1488 7.1875 10.7866 7.1875 10.409C7.1875 10.0314 7.33753 9.66919 7.6046 9.40216C7.87166 9.13512 8.23387 8.98511 8.61155 8.98511H20.004C20.3817 8.98511 20.7439 9.13512 21.0109 9.40216C21.278 9.66919 21.428 10.0314 21.428 10.409C21.428 10.7866 21.278 11.1488 21.0109 11.4158C20.7439 11.6829 20.3817 11.8329 20.004 11.8329ZM15.7318 18.0031C15.7318 17.6254 15.5818 17.2633 15.3147 16.9962C15.0477 16.7292 14.6854 16.5792 14.3078 16.5792H8.61155C8.23387 16.5792 7.87166 16.7292 7.6046 16.9962C7.33753 17.2633 7.1875 17.6254 7.1875 18.0031C7.1875 18.3807 7.33753 18.7429 7.6046 19.0099C7.87166 19.277 8.23387 19.427 8.61155 19.427H14.3078C14.6854 19.427 15.0477 19.277 15.3147 19.0099C15.5818 18.7429 15.7318 18.3807 15.7318 18.0031Z" fill="#4745B7"/>
<path d="M34.0793 27.154C33.7156 27.1537 33.3666 27.2978 33.109 27.5546L32.7046 27.959C32.4503 28.2137 32.1483 28.4157 31.8158 28.5536C31.4833 28.6915 31.1269 28.7624 30.7669 28.7624C30.407 28.7624 30.0506 28.6915 29.7181 28.5536C29.3856 28.4157 29.0836 28.2137 28.8293 27.959L28.4249 27.5546C28.1679 27.2981 27.8196 27.154 27.4565 27.154H26.8869C26.8242 27.154 26.7654 27.1388 26.697 27.135L24.4375 35.0898L27.9445 33.6849C29.7569 32.9634 31.7769 32.9634 33.5894 33.6849L37.0964 35.0898L34.8312 27.1407C34.7685 27.1407 34.7097 27.1597 34.6413 27.1597L34.0793 27.154Z" fill="#4745B7"/>
<path fill-rule="evenodd" clip-rule="evenodd" d="M38.1833 18.5972C37.8763 18.3853 37.637 18.0894 37.4942 17.7448C37.3514 17.4003 37.3111 17.0219 37.3782 16.655C37.3681 16.2482 37.2709 15.8482 37.0931 15.4821C36.9154 15.116 36.6613 14.7923 36.3478 14.5327C36.0344 14.2731 35.669 14.0837 35.2761 13.9772C34.8833 13.8707 34.4722 13.8496 34.0706 13.9154C33.7971 13.8886 33.5328 13.8027 33.2958 13.6637C33.0588 13.5247 32.8548 13.336 32.6978 13.1105C32.1836 12.5964 31.4863 12.3076 30.7592 12.3076C30.0321 12.3076 29.3348 12.5964 28.8206 13.1105C28.6643 13.3366 28.4604 13.5258 28.2233 13.6649C27.9862 13.8039 27.7215 13.8894 27.4478 13.9154C26.9971 13.8439 26.5358 13.8801 26.1018 14.021C25.6677 14.1618 25.2732 14.4034 24.9504 14.726C24.6276 15.0486 24.3858 15.4429 24.2446 15.8769C24.1035 16.3108 24.067 16.7719 24.1383 17.2227C24.1117 17.4964 24.0259 17.7611 23.8869 17.9984C23.7479 18.2358 23.559 18.4401 23.3332 18.5972C22.8197 19.1112 22.5312 19.8081 22.5312 20.5346C22.5312 21.2612 22.8197 21.958 23.3332 22.4721C23.6408 22.6829 23.8805 22.9785 24.0234 23.3229C24.1663 23.6673 24.2062 24.0457 24.1383 24.4124C24.1398 25.1062 24.405 25.7735 24.8803 26.279C25.3556 26.7846 26.0053 27.0905 26.6978 27.1348C27.2769 27.1766 27.9851 27.0627 28.4067 27.5544C28.6439 27.886 28.9495 28.1628 29.303 28.3661C29.6564 28.5693 30.0493 28.6944 30.4553 28.7327C30.8612 28.7711 31.2706 28.7218 31.6559 28.5883C32.0411 28.4548 32.3932 28.2401 32.6883 27.9588C32.8441 27.7322 33.0479 27.5426 33.2851 27.4035C33.5223 27.2644 33.7873 27.1792 34.0611 27.1538C34.1826 27.1215 34.6953 27.1842 34.8111 27.1348C35.5034 27.0905 36.1529 26.7845 36.6279 26.2789C37.1029 25.7733 37.3677 25.106 37.3687 24.4124C37.3199 24.1425 37.3307 23.8652 37.4002 23.5999C37.4697 23.3346 37.5963 23.0877 37.7712 22.8764C38.1031 22.6398 38.3803 22.3348 38.5841 21.9818C38.7879 21.6289 38.9136 21.2364 38.9526 20.8307C38.9917 20.4251 38.9432 20.0157 38.8105 19.6304C38.6778 19.2451 38.4639 18.8928 38.1833 18.5972Z" fill="#CCCBF8"/>
<path d="M30.7668 23.6986C32.5148 23.6986 33.932 22.2816 33.932 20.5337C33.932 18.7858 32.5148 17.3689 30.7668 17.3689C29.0187 17.3689 27.6016 18.7858 27.6016 20.5337C27.6016 22.2816 29.0187 23.6986 30.7668 23.6986Z" fill="#4745B7"/>
</svg>
