<svg width="41" height="41" viewBox="0 0 41 41" fill="none" xmlns="http://www.w3.org/2000/svg">
<path d="M3.40626 32.0107C3.03076 32.0107 2.66372 31.8993 2.35153 31.6906C2.03934 31.4819 1.79602 31.1854 1.65233 30.8385C1.50865 30.4916 1.47104 30.1098 1.54428 29.7416C1.61751 29.3733 1.79829 29.035 2.06377 28.7694L12.1144 18.7188C12.8266 18.0068 13.7924 17.6069 14.7994 17.6069C15.8064 17.6069 16.7722 18.0068 17.4844 18.7188L22.3948 23.6292L36.2431 9.78087C36.4183 9.59951 36.6278 9.45485 36.8595 9.35533C37.0912 9.25582 37.3403 9.20343 37.5925 9.20124C37.8446 9.19905 38.0946 9.2471 38.328 9.34257C38.5613 9.43805 38.7734 9.57904 38.9516 9.75733C39.1299 9.93562 39.2709 10.1476 39.3664 10.381C39.4619 10.6144 39.5099 10.8644 39.5077 11.1165C39.5056 11.3687 39.4532 11.6178 39.3536 11.8495C39.2541 12.0812 39.1095 12.2907 38.9281 12.4658L25.0798 26.3142C24.3676 27.0261 23.4018 27.4261 22.3948 27.4261C21.3878 27.4261 20.422 27.0261 19.7098 26.3142L14.7994 21.4037L4.74875 31.4544C4.39273 31.8105 3.90983 32.0106 3.40626 32.0107Z" fill="#CCCBF8"/>
<path d="M37.5836 20.9102C37.08 20.9102 36.597 20.7101 36.2409 20.354C35.8848 19.9979 35.6847 19.5149 35.6847 19.0113V13.0223H29.6957C29.1921 13.0223 28.7091 12.8223 28.353 12.4662C27.9969 12.11 27.7969 11.6271 27.7969 11.1235C27.7969 10.6199 27.9969 10.1369 28.353 9.78077C28.7091 9.42467 29.1921 9.22461 29.6957 9.22461H37.5836C38.0872 9.22461 38.5702 9.42467 38.9263 9.78077C39.2824 10.1369 39.4824 10.6199 39.4824 11.1235V19.0113C39.4824 19.5149 39.2824 19.9979 38.9263 20.354C38.5702 20.7101 38.0872 20.9102 37.5836 20.9102Z" fill="#4745B7"/>
</svg>
