<svg width="32" height="33" viewBox="0 0 32 33" fill="none" xmlns="http://www.w3.org/2000/svg">
<path d="M2 16.6147C1.99881 18.6348 2.43895 20.6308 3.28964 22.463C3.60015 23.1608 3.63352 23.9507 3.38298 24.6722L2.07778 28.5617C1.98784 28.8366 1.97581 29.131 2.04302 29.4123C2.11023 29.6936 2.25405 29.9507 2.45853 30.1552C2.66302 30.3597 2.92016 30.5036 3.20142 30.5708C3.48268 30.638 3.77707 30.626 4.05191 30.536L7.94103 29.2307C8.66251 28.9801 9.45229 29.0135 10.1501 29.324C12.8988 30.5873 15.9828 30.9258 18.94 30.2886C21.8973 29.6515 24.5684 28.0731 26.5532 25.7899C28.538 23.5068 29.7295 20.6419 29.9492 17.6246C30.1689 14.6072 29.405 11.5999 27.772 9.05324C26.1389 6.5066 23.7246 4.55781 20.8909 3.49889C18.0572 2.43996 14.9567 2.32794 12.0539 3.1796C9.1512 4.03126 6.60259 5.80074 4.79003 8.22288C2.97747 10.645 1.99856 13.5894 2 16.6147Z" fill="#CCCBF8"/>
<path d="M22.2213 14.6699H9.77611C9.46668 14.6699 9.16991 14.5469 8.9511 14.3281C8.7323 14.1093 8.60938 13.8125 8.60938 13.503C8.60938 13.1936 8.7323 12.8968 8.9511 12.6779C9.16991 12.4591 9.46668 12.3362 9.77611 12.3362H22.2213C22.5308 12.3362 22.8275 12.4591 23.0463 12.6779C23.2651 12.8968 23.3881 13.1936 23.3881 13.503C23.3881 13.8125 23.2651 14.1093 23.0463 14.3281C22.8275 14.5469 22.5308 14.6699 22.2213 14.6699ZM18.7211 19.7262C18.7211 19.4168 18.5982 19.12 18.3794 18.9011C18.1606 18.6823 17.8638 18.5594 17.5544 18.5594H9.77611C9.46668 18.5594 9.16991 18.6823 8.9511 18.9011C8.7323 19.12 8.60938 19.4168 8.60938 19.7262C8.60938 20.0357 8.7323 20.3325 8.9511 20.5513C9.16991 20.7701 9.46668 20.8931 9.77611 20.8931H17.5544C17.8638 20.8931 18.1606 20.7701 18.3794 20.5513C18.5982 20.3325 18.7211 20.0357 18.7211 19.7262Z" fill="#4745B7"/>
</svg>
