<svg width="39" height="28" viewBox="0 0 39 28" fill="none" xmlns="http://www.w3.org/2000/svg">
<path d="M38.9942 15.8999C38.9942 18.4199 37.9932 20.8367 36.2114 22.6185C34.4296 24.4004 32.013 25.4015 29.4931 25.4015H17.1417C16.7502 25.4015 16.3664 25.3825 15.9863 25.3464C15.8978 25.3343 15.8138 25.3003 15.7418 25.2473C15.6699 25.1944 15.6124 25.1242 15.5746 25.0433C15.5367 24.9624 15.5198 24.8733 15.5254 24.7841C15.5309 24.695 15.5587 24.6087 15.6063 24.533C16.6318 22.8216 17.1632 20.8595 17.1417 18.8644V14.5317C17.1411 13.8969 16.93 13.2801 16.5414 12.7781C16.1529 12.2761 15.6088 11.917 14.9944 11.7573C12.8935 11.2863 10.8624 10.5454 8.95169 9.55292C8.5503 9.35296 8.10798 9.24888 7.65954 9.24888C7.2111 9.24888 6.76877 9.35296 6.36738 9.55292C6.26629 9.61699 6.14759 9.64761 6.02812 9.64044C5.90866 9.63328 5.79447 9.58869 5.70176 9.513C5.60904 9.43731 5.5425 9.33436 5.51156 9.21874C5.48063 9.10312 5.48686 8.98069 5.52938 8.86881C6.2091 6.97411 7.3421 5.27451 8.82955 3.9183C10.317 2.56209 12.1137 1.59047 14.0629 1.08821C16.0121 0.585941 18.0546 0.568286 20.0121 1.03678C21.9697 1.50528 23.783 2.4457 25.2936 3.77599C26.2089 4.58937 27.0024 5.53015 27.6499 6.56944C28.2576 6.45517 28.8747 6.39791 29.4931 6.39842C32.013 6.39842 34.4296 7.39947 36.2114 9.18135C37.9932 10.9632 38.9942 13.38 38.9942 15.8999Z" fill="#CCCBF8"/>
<path d="M14.2938 14.5223C11.9886 13.9955 9.75871 13.1815 7.65627 12.0994C5.52936 13.1739 3.29583 14.0229 0.992188 14.6325V18.8569C1.07199 20.7851 1.75765 22.639 2.95165 24.1552C4.14566 25.6713 5.78724 26.7723 7.64297 27.3018C9.49856 26.7721 11.14 25.6709 12.3339 24.1549C13.5279 22.6388 14.2137 20.785 14.2938 18.8569V14.5223Z" fill="#4745B7"/>
</svg>
