<svg width="40" height="40" viewBox="0 0 40 40" fill="none" xmlns="http://www.w3.org/2000/svg">
<path d="M33.305 33.7849H23.5174C23.3256 33.3146 23.0418 32.8874 22.6827 32.5283C22.3236 32.1692 21.8963 31.8854 21.426 31.6937V25.7051H18.5742V31.6899C18.1039 31.8816 17.6766 32.1654 17.3175 32.5245C16.9584 32.8836 16.6746 33.3108 16.4828 33.7811H6.68765C6.30947 33.7811 5.94678 33.9313 5.67936 34.1987C5.41195 34.4661 5.26172 34.8288 5.26172 35.2069C5.26172 35.5851 5.41195 35.9478 5.67936 36.2152C5.94678 36.4826 6.30947 36.6328 6.68765 36.6328H16.4752C16.7617 37.3302 17.249 37.9266 17.8753 38.3464C18.5016 38.7662 19.2385 38.9903 19.9925 38.9903C20.7465 38.9903 21.4834 38.7662 22.1097 38.3464C22.736 37.9266 23.2233 37.3302 23.5098 36.6328H33.305C33.6831 36.6328 34.0458 36.4826 34.3132 36.2152C34.5807 35.9478 34.7309 35.5851 34.7309 35.2069C34.7309 34.8288 34.5807 34.4661 34.3132 34.1987C34.0458 33.9313 33.6831 33.7811 33.305 33.7811V33.7849Z" fill="#4745B7"/>
<path d="M27.602 25.705C30.1232 25.705 32.5412 24.7035 34.3239 22.9208C36.1067 21.1382 37.1082 18.7204 37.1082 16.1993C37.1082 13.6782 36.1067 11.2604 34.3239 9.47778C32.5412 7.69513 30.1232 6.69364 27.602 6.69364C26.9833 6.69313 26.3659 6.75041 25.7578 6.86474C24.6275 5.03056 23.0373 3.52376 21.1448 2.4938C19.2524 1.46384 17.1236 0.946508 14.9695 0.993129C12.8155 1.03975 10.711 1.6487 8.86492 2.75958C7.01885 3.87045 5.49529 5.44465 4.44539 7.32601C3.3955 9.20737 2.85574 11.3305 2.87967 13.4848C2.9036 15.6392 3.49037 17.7498 4.5818 19.6074C5.67322 21.465 7.23136 23.0049 9.10166 24.0745C10.972 25.1441 13.0894 25.7062 15.244 25.705H27.602Z" fill="#CCCBF8"/>
</svg>
