<svg width="26" height="27" viewBox="0 0 26 27" fill="none" xmlns="http://www.w3.org/2000/svg">
<path d="M0.225264 14.3887V15.8089C0.142684 16.3877 0.195968 16.9777 0.3809 17.5323C0.565832 18.0869 0.877333 18.5908 1.29074 19.0042C1.70416 19.4176 2.20813 19.729 2.76276 19.9139C3.31739 20.0989 3.90746 20.1521 4.48625 20.0696H10.1676V24.6852H6.61674C6.33422 24.6852 6.06327 24.7975 5.8635 24.9972C5.66372 25.197 5.55149 25.4679 5.55149 25.7504C5.55149 26.0329 5.66372 26.3038 5.8635 26.5036C6.06327 26.7033 6.33422 26.8156 6.61674 26.8156H19.3997C19.6822 26.8156 19.9532 26.7033 20.1529 26.5036C20.3527 26.3038 20.4649 26.0329 20.4649 25.7504C20.4649 25.4679 20.3527 25.197 20.1529 24.9972C19.9532 24.7975 19.6822 24.6852 19.3997 24.6852H15.8489V20.0696H21.5302C22.109 20.1521 22.699 20.0989 23.2537 19.9139C23.8083 19.729 24.3123 19.4176 24.7257 19.0042C25.1391 18.5908 25.4506 18.0869 25.6355 17.5323C25.8205 16.9777 25.8737 16.3877 25.7912 15.8089V14.3887H0.225264Z" fill="#4745B7"/>
<path fill-rule="evenodd" clip-rule="evenodd" d="M25.7912 4.44731C25.8737 3.86857 25.8205 3.27855 25.6355 2.72397C25.4506 2.16938 25.1391 1.66545 24.7257 1.25208C24.3123 0.838701 23.8083 0.527226 23.2537 0.34231C22.699 0.157394 22.109 0.104113 21.5302 0.186687H4.48625C3.90746 0.104113 3.31739 0.157394 2.76276 0.34231C2.20813 0.527226 1.70416 0.838701 1.29074 1.25208C0.877333 1.66545 0.565832 2.16938 0.3809 2.72397C0.195968 3.27855 0.142684 3.86857 0.225264 4.44731V14.3888H25.7912V4.44731Z" fill="#CCCBF8"/>
</svg>
