<svg width="40" height="40" viewBox="0 0 40 40" fill="none" xmlns="http://www.w3.org/2000/svg">
<path d="M30.5312 15.79H35.7937C36.6311 15.79 37.4342 16.1227 38.0264 16.7148C38.6185 17.3069 38.9512 18.11 38.9512 18.9474V34.7341C38.9429 35.848 38.4967 36.914 37.709 37.7017C36.9212 38.4894 35.8552 38.9356 34.7412 38.9439C33.6257 38.9405 32.5568 38.4959 31.768 37.7072C30.9792 36.9184 30.5346 35.8496 30.5312 34.7341V15.79Z" fill="#4745B7"/>
<path d="M7.37483 38.944C6.51704 39.0664 5.64253 38.9874 4.82054 38.7134C3.99856 38.4393 3.25165 37.9777 2.63896 37.365C2.02627 36.7524 1.56461 36.0055 1.29053 35.1835C1.01646 34.3616 0.937487 33.4871 1.05987 32.6294V7.37064C0.937487 6.51289 1.01646 5.63842 1.29053 4.81647C1.56461 3.99452 2.02627 3.24765 2.63896 2.63498C3.25165 2.02232 3.99856 1.56068 4.82054 1.28661C5.64253 1.01255 6.51704 0.933583 7.37483 1.05597H24.2147C25.0725 0.933583 25.947 1.01255 26.769 1.28661C27.591 1.56068 28.3379 2.02232 28.9506 2.63498C29.5633 3.24765 30.0249 3.99452 30.299 4.81647C30.5731 5.63842 30.652 6.51289 30.5297 7.37064V34.7342C30.5297 35.8508 30.9732 36.9215 31.7627 37.711C32.5522 38.5005 33.6231 38.944 34.7396 38.944H7.37483Z" fill="#CCCBF8"/>
<path d="M24.2151 13.1587H16.8476C16.4289 13.1587 16.0273 12.9924 15.7313 12.6963C15.4352 12.4002 15.2689 11.9987 15.2689 11.58C15.2689 11.1613 15.4352 10.7598 15.7313 10.4637C16.0273 10.1677 16.4289 10.0013 16.8476 10.0013H24.2151C24.6338 10.0013 25.0353 10.1677 25.3314 10.4637C25.6275 10.7598 25.7938 11.1613 25.7938 11.58C25.7938 11.9987 25.6275 12.4002 25.3314 12.6963C25.0353 12.9924 24.6338 13.1587 24.2151 13.1587ZM25.7938 19.9996C25.7938 19.5809 25.6275 19.1794 25.3314 18.8833C25.0353 18.5872 24.6338 18.4209 24.2151 18.4209H16.8476C16.4289 18.4209 16.0273 18.5872 15.7313 18.8833C15.4352 19.1794 15.2689 19.5809 15.2689 19.9996C15.2689 20.4183 15.4352 20.8198 15.7313 21.1159C16.0273 21.4119 16.4289 21.5783 16.8476 21.5783H24.2151C24.6338 21.5783 25.0353 21.4119 25.3314 21.1159C25.6275 20.8198 25.7938 20.4183 25.7938 19.9996ZM25.7938 28.4192C25.7938 28.0005 25.6275 27.5989 25.3314 27.3029C25.0353 27.0068 24.6338 26.8405 24.2151 26.8405H16.8476C16.4289 26.8405 16.0273 27.0068 15.7313 27.3029C15.4352 27.5989 15.2689 28.0005 15.2689 28.4192C15.2689 28.8378 15.4352 29.2394 15.7313 29.5354C16.0273 29.8315 16.4289 29.9978 16.8476 29.9978H24.2151C24.6338 29.9978 25.0353 29.8315 25.3314 29.5354C25.6275 29.2394 25.7938 28.8378 25.7938 28.4192ZM9.54332 13.7481L11.6483 11.6432C11.9272 11.3439 12.079 10.9481 12.0718 10.5391C12.0646 10.1301 11.8989 9.7399 11.6096 9.45066C11.3204 9.16142 10.9301 8.99574 10.5211 8.98853C10.1121 8.98131 9.7163 9.13312 9.41702 9.41198L8.42768 10.4013C8.12163 10.1241 7.71914 9.97779 7.3065 9.99382C6.89387 10.0099 6.50395 10.1869 6.22033 10.487C5.93671 10.7872 5.78198 11.1865 5.78931 11.5993C5.79664 12.0122 5.96545 12.4057 6.25954 12.6956L7.31204 13.7481C7.45833 13.8949 7.63219 14.0115 7.82364 14.091C8.01509 14.1706 8.22036 14.2115 8.42768 14.2115C8.63499 14.2115 8.84026 14.1706 9.03172 14.091C9.22317 14.0115 9.39703 13.8949 9.54332 13.7481ZM9.54332 22.1676L11.6483 20.0627C11.8034 19.9182 11.9278 19.7439 12.0141 19.5503C12.1004 19.3566 12.1468 19.1476 12.1505 18.9356C12.1543 18.7236 12.1153 18.5131 12.0359 18.3165C11.9565 18.1199 11.8383 17.9414 11.6884 17.7915C11.5385 17.6416 11.3599 17.5234 11.1633 17.444C10.9667 17.3646 10.7562 17.3256 10.5442 17.3293C10.3322 17.3331 10.1232 17.3795 9.9295 17.4658C9.73585 17.552 9.56155 17.6764 9.41702 17.8315L8.42557 18.8208C8.11829 18.5515 7.71854 18.4118 7.31037 18.4311C6.9022 18.4504 6.5174 18.6271 6.23689 18.9243C5.95638 19.2214 5.80201 19.6157 5.80623 20.0243C5.81046 20.4329 5.97295 20.8239 6.25954 21.1152L7.31204 22.1676C7.45833 22.3145 7.63219 22.4311 7.82364 22.5106C8.01509 22.5901 8.22036 22.6311 8.42768 22.6311C8.63499 22.6311 8.84026 22.5901 9.03172 22.5106C9.22317 22.4311 9.39703 22.3145 9.54332 22.1676ZM9.54332 30.5872L11.6483 28.4823C11.8034 28.3378 11.9278 28.1635 12.0141 27.9698C12.1004 27.7762 12.1468 27.5672 12.1505 27.3552C12.1543 27.1432 12.1153 26.9327 12.0359 26.7361C11.9565 26.5395 11.8383 26.361 11.6884 26.211C11.5385 26.0611 11.3599 25.943 11.1633 25.8636C10.9667 25.7842 10.7562 25.7452 10.5442 25.7489C10.3322 25.7526 10.1232 25.799 9.9295 25.8853C9.73585 25.9716 9.56155 26.096 9.41702 26.2511L8.42557 27.2404C8.11829 26.9711 7.71854 26.8313 7.31037 26.8506C6.9022 26.8699 6.5174 27.0467 6.23689 27.3438C5.95638 27.641 5.80201 28.0353 5.80623 28.4439C5.81046 28.8525 5.97295 29.2435 6.25954 29.5348L7.31204 30.5872C7.45833 30.7341 7.63219 30.8506 7.82364 30.9302C8.01509 31.0097 8.22036 31.0506 8.42768 31.0506C8.63499 31.0506 8.84026 31.0097 9.03172 30.9302C9.22317 30.8506 9.39703 30.7341 9.54332 30.5872Z" fill="#4745B7"/>
</svg>
