<svg width="38" height="38" viewBox="0 0 38 38" fill="none" xmlns="http://www.w3.org/2000/svg">
<path d="M29.5312 14.7903H34.7937C35.6311 14.7903 36.4342 15.1229 37.0264 15.715C37.6185 16.3072 37.9512 17.1102 37.9512 17.9476V33.7343C37.9429 34.8483 37.4967 35.9142 36.709 36.702C35.9212 37.4897 34.8552 37.9358 33.7412 37.9441C32.6257 37.9408 31.5568 37.4962 30.768 36.7074C29.9792 35.9186 29.5346 34.8498 29.5312 33.7343V14.7903Z" fill="#4745B7"/>
<path d="M6.37483 37.9443C5.51704 38.0667 4.64253 37.9877 3.82054 37.7136C2.99856 37.4396 2.25165 36.9779 1.63896 36.3653C1.02627 35.7526 0.56461 35.0057 0.290533 34.1838C0.0164569 33.3618 -0.0625132 32.4874 0.0598745 31.6296V6.37089C-0.0625132 5.51313 0.0164569 4.63867 0.290533 3.81672C0.56461 2.99476 1.02627 2.24789 1.63896 1.63523C2.25165 1.02256 2.99856 0.560923 3.82054 0.286859C4.64253 0.0127942 5.51704 -0.0661724 6.37483 0.05621H23.2147C24.0725 -0.0661724 24.947 0.0127942 25.769 0.286859C26.591 0.560923 27.3379 1.02256 27.9506 1.63523C28.5633 2.24789 29.0249 2.99476 29.299 3.81672C29.5731 4.63867 29.652 5.51313 29.5297 6.37089V33.7345C29.5297 34.851 29.9732 35.9218 30.7627 36.7113C31.5522 37.5007 32.6231 37.9443 33.7396 37.9443H6.37483Z" fill="#CCCBF8"/>
<path d="M23.2151 12.1592H15.8476C15.4289 12.1592 15.0273 11.9929 14.7313 11.6968C14.4352 11.4007 14.2689 10.9992 14.2689 10.5805C14.2689 10.1618 14.4352 9.76028 14.7313 9.46422C15.0273 9.16816 15.4289 9.00184 15.8476 9.00184H23.2151C23.6338 9.00184 24.0353 9.16816 24.3314 9.46422C24.6275 9.76028 24.7938 10.1618 24.7938 10.5805C24.7938 10.9992 24.6275 11.4007 24.3314 11.6968C24.0353 11.9929 23.6338 12.1592 23.2151 12.1592ZM24.7938 19.0001C24.7938 18.5814 24.6275 18.1798 24.3314 17.8838C24.0353 17.5877 23.6338 17.4214 23.2151 17.4214H15.8476C15.4289 17.4214 15.0273 17.5877 14.7313 17.8838C14.4352 18.1798 14.2689 18.5814 14.2689 19.0001C14.2689 19.4188 14.4352 19.8203 14.7313 20.1164C15.0273 20.4124 15.4289 20.5787 15.8476 20.5787H23.2151C23.6338 20.5787 24.0353 20.4124 24.3314 20.1164C24.6275 19.8203 24.7938 19.4188 24.7938 19.0001ZM24.7938 27.4196C24.7938 27.001 24.6275 26.5994 24.3314 26.3034C24.0353 26.0073 23.6338 25.841 23.2151 25.841H15.8476C15.4289 25.841 15.0273 26.0073 14.7313 26.3034C14.4352 26.5994 14.2689 27.001 14.2689 27.4196C14.2689 27.8383 14.4352 28.2399 14.7313 28.5359C15.0273 28.832 15.4289 28.9983 15.8476 28.9983H23.2151C23.6338 28.9983 24.0353 28.832 24.3314 28.5359C24.6275 28.2399 24.7938 27.8383 24.7938 27.4196ZM8.54332 12.7485L10.6483 10.6437C10.9272 10.3444 11.079 9.94857 11.0718 9.53959C11.0646 9.13061 10.8989 8.74039 10.6096 8.45115C10.3204 8.16191 9.93013 7.99623 9.52113 7.98902C9.11213 7.9818 8.7163 8.13361 8.41702 8.41247L7.42768 9.40177C7.12163 9.12455 6.71914 8.97828 6.3065 8.99431C5.89387 9.01034 5.50395 9.18741 5.22033 9.48753C4.93671 9.78766 4.78198 10.187 4.78931 10.5998C4.79664 11.0127 4.96545 11.4062 5.25954 11.6961L6.31204 12.7485C6.45833 12.8954 6.63219 13.012 6.82364 13.0915C7.01509 13.171 7.22036 13.212 7.42768 13.212C7.63499 13.212 7.84026 13.171 8.03172 13.0915C8.22317 13.012 8.39703 12.8954 8.54332 12.7485ZM8.54332 21.1681L10.6483 19.0632C10.8034 18.9187 10.9278 18.7444 11.0141 18.5508C11.1004 18.3571 11.1468 18.1481 11.1505 17.9361C11.1543 17.7241 11.1153 17.5136 11.0359 17.317C10.9565 17.1204 10.8383 16.9419 10.6884 16.792C10.5385 16.6421 10.3599 16.5239 10.1633 16.4445C9.96673 16.3651 9.75617 16.3261 9.54419 16.3298C9.33221 16.3336 9.12316 16.38 8.9295 16.4662C8.73585 16.5525 8.56155 16.6769 8.41702 16.832L7.42557 17.8213C7.11829 17.552 6.71854 17.4123 6.31037 17.4316C5.9022 17.4508 5.5174 17.6276 5.23689 17.9248C4.95638 18.2219 4.80201 18.6162 4.80623 19.0248C4.81046 19.4334 4.97295 19.8244 5.25954 20.1157L6.31204 21.1681C6.45833 21.315 6.63219 21.4316 6.82364 21.5111C7.01509 21.5906 7.22036 21.6316 7.42768 21.6316C7.63499 21.6316 7.84026 21.5906 8.03172 21.5111C8.22317 21.4316 8.39703 21.315 8.54332 21.1681ZM8.54332 29.5877L10.6483 27.4828C10.8034 27.3383 10.9278 27.164 11.0141 26.9703C11.1004 26.7767 11.1468 26.5676 11.1505 26.3557C11.1543 26.1437 11.1153 25.9332 11.0359 25.7366C10.9565 25.54 10.8383 25.3614 10.6884 25.2115C10.5385 25.0616 10.3599 24.9434 10.1633 24.864C9.96673 24.7846 9.75617 24.7457 9.54419 24.7494C9.33221 24.7531 9.12316 24.7995 8.9295 24.8858C8.73585 24.9721 8.56155 25.0965 8.41702 25.2516L7.42557 26.2409C7.11829 25.9716 6.71854 25.8318 6.31037 25.8511C5.9022 25.8704 5.5174 26.0472 5.23689 26.3443C4.95638 26.6415 4.80201 27.0358 4.80623 27.4444C4.81046 27.8529 4.97295 28.244 5.25954 28.5352L6.31204 29.5877C6.45833 29.7346 6.63219 29.8511 6.82364 29.9307C7.01509 30.0102 7.22036 30.0511 7.42768 30.0511C7.63499 30.0511 7.84026 30.0102 8.03172 29.9307C8.22317 29.8511 8.39703 29.7346 8.54332 29.5877Z" fill="#4745B7"/>
</svg>
