<svg width="41" height="41" viewBox="0 0 41 41" fill="none" xmlns="http://www.w3.org/2000/svg">
<path d="M7.61613 28.0774H3.9085C2.88467 28.0774 2.05469 28.9073 2.05469 29.931V37.3457C2.05469 38.3694 2.88467 39.1993 3.9085 39.1993H7.61613C8.63996 39.1993 9.46994 38.3694 9.46994 37.3457V29.931C9.46994 28.9073 8.63996 28.0774 7.61613 28.0774Z" fill="#4745B7"/>
<path d="M37.2815 30.5986C37.2828 30.9691 37.2001 31.3351 37.0395 31.669C36.879 32.0029 36.6448 32.296 36.3546 32.5264L30.0516 37.5683C28.7379 38.6244 27.1027 39.1999 25.4171 39.1996H15.0358C14.0533 39.1966 13.112 38.8051 12.4173 38.1105C11.7226 37.4159 11.3311 36.4746 11.3281 35.4923V31.7849C11.3311 30.8026 11.7226 29.8613 12.4173 29.1667C13.112 28.4721 14.0533 28.0806 15.0358 28.0776H24.5273C25.0804 28.0776 25.6109 28.2973 26.002 28.6884C26.3931 29.0795 26.6128 29.6099 26.6128 30.163C26.6128 30.7161 26.3931 31.2465 26.002 31.6376C25.6109 32.0287 25.0804 32.2484 24.5273 32.2484H18.7434C18.3746 32.2484 18.021 32.3948 17.7602 32.6555C17.4995 32.9163 17.353 33.2699 17.353 33.6386C17.353 34.0073 17.4995 34.3609 17.7602 34.6216C18.021 34.8824 18.3746 35.0288 18.7434 35.0288H24.5273C25.675 35.0272 26.7854 34.6212 27.6635 33.8822C28.5416 33.1432 29.1312 32.1184 29.3286 30.9879L33.5368 28.4669C33.9173 28.2374 34.353 28.1157 34.7974 28.1147C35.4562 28.1147 36.0881 28.3764 36.5539 28.8422C37.0198 29.308 37.2815 29.9398 37.2815 30.5986Z" fill="#CCCBF8"/>
<path d="M20.5916 23.4433C26.7346 23.4433 31.7145 18.4639 31.7145 12.3214C31.7145 6.17892 26.7346 1.19946 20.5916 1.19946C14.4486 1.19946 9.46875 6.17892 9.46875 12.3214C9.46875 18.4639 14.4486 23.4433 20.5916 23.4433Z" fill="#CCCBF8"/>
<path d="M24.7602 14.9387C24.7671 14.0964 24.4944 13.2755 23.9849 12.6046C23.4753 11.9338 22.7576 11.4508 21.9442 11.2314L19.9328 10.7124C19.7221 10.6558 19.537 10.5289 19.4082 10.3528C19.2694 10.1638 19.1959 9.93478 19.1987 9.70032C19.1882 9.43652 19.2824 9.17926 19.461 8.98475C19.6395 8.79025 19.8878 8.67431 20.1516 8.66228H21.0266C21.2711 8.67233 21.5033 8.77262 21.6782 8.94379C21.8532 9.11495 21.9585 9.34485 21.9739 9.5891C21.9906 9.77294 22.0438 9.95159 22.1304 10.1146C22.2169 10.2777 22.3351 10.4219 22.478 10.5388C22.6208 10.6557 22.7855 10.743 22.9625 10.7956C23.1395 10.8481 23.3251 10.8649 23.5087 10.845C23.6922 10.8251 23.8699 10.7688 24.0315 10.6794C24.193 10.5901 24.3351 10.4695 24.4496 10.3246C24.564 10.1797 24.6484 10.0135 24.6979 9.8357C24.7474 9.65787 24.761 9.47195 24.7379 9.28881C24.6606 8.52635 24.3532 7.80543 23.8566 7.22175C23.3599 6.63806 22.6975 6.21922 21.9572 6.02082V5.8336C21.9572 5.46489 21.8107 5.11127 21.55 4.85055C21.2892 4.58983 20.9356 4.44336 20.5668 4.44336C20.1981 4.44336 19.8444 4.58983 19.5837 4.85055C19.323 5.11127 19.1765 5.46489 19.1765 5.8336V6.03565C18.3796 6.26279 17.6788 6.74414 17.1808 7.40639C16.6828 8.06863 16.4149 8.87548 16.418 9.70403C16.416 10.5434 16.6873 11.3607 17.191 12.0322C17.6963 12.7074 18.4149 13.1921 19.2302 13.4076L21.2416 13.9267C21.4599 13.9894 21.6511 14.1228 21.7853 14.306C21.9195 14.4892 21.9891 14.7118 21.9831 14.9387C21.9831 15.2148 21.8769 15.4803 21.6865 15.6802C21.6022 15.7701 21.5007 15.842 21.3879 15.8917C21.2751 15.9414 21.1535 15.9678 21.0303 15.9694H20.1553C19.9107 15.9593 19.6786 15.859 19.5036 15.6879C19.3287 15.5167 19.2234 15.2868 19.208 15.0426C19.1912 14.8587 19.138 14.6801 19.0515 14.517C18.9649 14.354 18.8468 14.2098 18.7039 14.0929C18.561 13.976 18.3963 13.8887 18.2193 13.8361C18.0424 13.7835 17.8567 13.7667 17.6732 13.7867C17.4897 13.8066 17.3119 13.8629 17.1504 13.9522C16.9888 14.0416 16.8467 14.1622 16.7323 14.3071C16.6179 14.4519 16.5334 14.6181 16.4839 14.796C16.4344 14.9738 16.4208 15.1597 16.4439 15.3428C16.5213 16.0961 16.8229 16.8087 17.3097 17.3887C17.7965 17.9687 18.4462 18.3893 19.1746 18.596V18.8092C19.1746 19.1779 19.3211 19.5315 19.5818 19.7922C19.8426 20.0529 20.1962 20.1994 20.565 20.1994C20.9337 20.1994 21.2874 20.0529 21.5481 19.7922C21.8088 19.5315 21.9553 19.1779 21.9553 18.8092V18.6238C22.6146 18.4552 23.2141 18.1067 23.6868 17.6173C24.3797 16.8982 24.7647 15.9373 24.7602 14.9387Z" fill="#4745B7"/>
</svg>
