<svg width="59" height="59" viewBox="0 0 59 59" fill="none" xmlns="http://www.w3.org/2000/svg">
<path d="M42.5959 58.8979H11.696C10.1305 59.0794 8.54412 58.9045 7.05568 58.3863C5.56725 57.8682 4.21524 57.0202 3.1008 55.9058C1.98636 54.7914 1.13835 53.4395 0.620182 51.9511C0.102018 50.4627 -0.0728775 48.8764 0.108579 47.3109V16.4124C-0.0728775 14.8469 0.102018 13.2606 0.620182 11.7722C1.13835 10.2839 1.98636 8.93192 3.1008 7.81753C4.21524 6.70314 5.56725 5.85516 7.05568 5.33701C8.54412 4.81887 10.1305 4.64399 11.696 4.82543H20.966C21.5806 4.82543 22.1701 5.06959 22.6047 5.50418C23.0393 5.93878 23.2835 6.52822 23.2835 7.14283C23.2835 7.75744 23.0393 8.34687 22.6047 8.78147C22.1701 9.21606 21.5806 9.46022 20.966 9.46022H11.696C6.82312 9.46022 4.74356 11.5397 4.74356 16.4124V47.3109C4.74356 52.1836 6.82312 54.2631 11.696 54.2631H42.5959C47.4688 54.2631 49.5484 52.1836 49.5484 47.3109V38.0414C49.5484 37.4268 49.7925 36.8373 50.2271 36.4027C50.6618 35.9681 51.2512 35.724 51.8659 35.724C52.4805 35.724 53.07 35.9681 53.5046 36.4027C53.9392 36.8373 54.1833 37.4268 54.1833 38.0414V47.3109C54.3648 48.8764 54.1899 50.4627 53.6717 51.9511C53.1536 53.4395 52.3056 54.7914 51.1911 55.9058C50.0767 57.0202 48.7247 57.8682 47.2362 58.3863C45.7478 58.9045 44.1615 59.0794 42.5959 58.8979Z" fill="#4745B7"/>
<path d="M56.7048 13.5697L50.8647 19.3786L39.6172 8.13151L45.4264 2.29169C46.2632 1.44944 47.3999 0.973252 48.5872 0.967461C49.7746 0.961669 50.9158 1.42674 51.7608 2.26079L56.7357 7.23546C57.5698 8.08048 58.0349 9.22165 58.0291 10.4089C58.0233 11.5962 57.5471 12.7328 56.7048 13.5697Z" fill="#4745B7"/>
<path d="M50.8761 19.3786L29.0299 41.1312H17.875V29.9768L39.6285 8.13153L50.8761 19.3786Z" fill="#CCCBF8"/>
</svg>
