<svg width="39" height="34" viewBox="0 0 39 34" fill="none" xmlns="http://www.w3.org/2000/svg">
<path d="M29.4903 0.939127H6.71968C5.94642 0.828795 5.15809 0.899986 4.4171 1.14706C3.67611 1.39414 3.00281 1.81032 2.45049 2.36266C1.89818 2.91499 1.48201 3.58832 1.23494 4.32933C0.987876 5.07035 0.916688 5.8587 1.02702 6.63199V23.7106C0.916688 24.4839 0.987876 25.2722 1.23494 26.0133C1.48201 26.7543 1.89818 27.4276 2.45049 27.9799C3.00281 28.5323 3.67611 28.9484 4.4171 29.1955C5.15809 29.4426 5.94642 29.5138 6.71968 29.4035H20.8754C20.9638 29.4032 21.0509 29.3816 21.1291 29.3405C21.2074 29.2993 21.2745 29.2399 21.3248 29.1672C21.3752 29.0945 21.4072 29.0107 21.4181 28.923C21.4291 28.8353 21.4187 28.7462 21.3878 28.6634C20.9268 27.1417 20.819 25.5348 21.0725 23.9652C21.3261 22.3955 21.9344 20.9043 22.8511 19.6052C23.7678 18.306 24.9687 17.2331 26.3626 16.4681C27.7564 15.703 29.3063 15.266 30.8945 15.1903C32.0874 15.1303 33.2816 15.278 34.424 15.6267C34.5094 15.6569 34.6008 15.6663 34.6906 15.6541C34.7804 15.6418 34.866 15.6083 34.9402 15.5564C35.0144 15.5044 35.0752 15.4355 35.1174 15.3553C35.1596 15.2751 35.1821 15.186 35.183 15.0954V6.63199C35.2933 5.8587 35.2221 5.07035 34.9751 4.32933C34.728 3.58832 34.3118 2.91499 33.7595 2.36266C33.2072 1.81032 32.5339 1.39414 31.7929 1.14706C31.0519 0.899986 30.2636 0.828795 29.4903 0.939127Z" fill="#CCCBF8"/>
<path d="M18.1048 17.0955C17.403 17.096 16.7192 16.8734 16.1522 16.4598L6.83145 9.67961C6.68044 9.56971 6.55255 9.43114 6.45509 9.27182C6.35763 9.1125 6.29251 8.93554 6.26343 8.75105C6.23436 8.56656 6.24191 8.37814 6.28565 8.19657C6.32938 8.01499 6.40846 7.84381 6.51835 7.6928C6.62824 7.54178 6.7668 7.41389 6.92612 7.31643C7.08544 7.21896 7.26239 7.15384 7.44688 7.12476C7.63136 7.09569 7.81977 7.10323 8.00134 7.14697C8.1829 7.19072 8.35408 7.26979 8.50509 7.37969L17.8278 14.158C17.9083 14.2166 18.0052 14.2482 18.1048 14.2482C18.2044 14.2482 18.3014 14.2166 18.3819 14.158L27.7045 7.37969C27.8555 7.26979 28.0267 7.19072 28.2083 7.14697C28.3899 7.10323 28.5783 7.09569 28.7628 7.12476C28.9472 7.15384 29.1242 7.21896 29.2835 7.31643C29.4428 7.41389 29.5814 7.54178 29.6913 7.6928C29.8012 7.84381 29.8802 8.01499 29.924 8.19657C29.9677 8.37814 29.9753 8.56656 29.9462 8.75105C29.9171 8.93554 29.852 9.1125 29.7545 9.27182C29.6571 9.43114 29.5292 9.56971 29.3782 9.67961L20.0574 16.4598C19.4904 16.8734 18.8066 17.096 18.1048 17.0955Z" fill="#4745B7"/>
<path d="M31.3871 18.0176C29.8859 18.0176 28.4184 18.4628 27.1702 19.2968C25.922 20.1309 24.9491 21.3163 24.3746 22.7033C23.8002 24.0903 23.6499 25.6165 23.9427 27.0889C24.2356 28.5613 24.9585 29.9138 26.02 30.9754C27.0815 32.0369 28.434 32.7598 29.9063 33.0527C31.3787 33.3456 32.9048 33.1953 34.2917 32.6208C35.6787 32.0463 36.8641 31.0734 37.6981 29.8251C38.5322 28.5769 38.9773 27.1093 38.9773 25.6081C38.9773 23.5949 38.1776 21.6643 36.7542 20.2408C35.3307 18.8173 33.4001 18.0176 31.3871 18.0176ZM34.4232 24.6972L31.26 27.8605C31.1718 27.9489 31.0671 28.019 30.9519 28.0668C30.8366 28.1147 30.713 28.1393 30.5882 28.1393C30.4634 28.1393 30.3399 28.1147 30.2246 28.0668C30.1093 28.019 30.0046 27.9489 29.9165 27.8605L28.3358 26.2798C28.1577 26.1017 28.0576 25.86 28.0576 25.6081C28.0576 25.3561 28.1577 25.1145 28.3358 24.9363C28.514 24.7581 28.7556 24.6581 29.0076 24.6581C29.2595 24.6581 29.5011 24.7581 29.6793 24.9363L30.5882 25.8472L33.0949 23.3556C33.183 23.2674 33.2876 23.1974 33.4027 23.1496C33.5179 23.1018 33.6413 23.0771 33.766 23.0771C33.8906 23.077 34.0141 23.1014 34.1293 23.1491C34.2445 23.1967 34.3492 23.2665 34.4374 23.3546C34.5256 23.4427 34.5956 23.5473 34.6434 23.6625C34.6912 23.7776 34.7158 23.9011 34.7159 24.0257C34.716 24.1504 34.6916 24.2739 34.6439 24.3891C34.5963 24.5043 34.5265 24.609 34.4384 24.6972H34.4232Z" fill="#4745B7"/>
</svg>
