<svg width="22" height="39" viewBox="0 0 22 39" fill="none" xmlns="http://www.w3.org/2000/svg">
<path d="M11.332 23.6869L2.80469 20.8373L11.332 16.5735L19.8594 20.8373L11.332 23.6869Z" fill="#4745B7"/>
<path d="M11.8412 26.8525L20.6662 23.91C20.7927 23.8674 20.9294 23.8659 21.0568 23.9057C21.1843 23.9455 21.2958 24.0245 21.3757 24.1315C21.4555 24.2385 21.4995 24.3679 21.5013 24.5014C21.5032 24.6349 21.4628 24.7655 21.386 24.8747L12.7489 37.2588C12.5912 37.4883 12.38 37.6759 12.1337 37.8055C11.8873 37.9351 11.6131 38.0029 11.3347 38.0029C11.0563 38.0029 10.7821 37.9351 10.5357 37.8055C10.2893 37.6759 10.0782 37.4883 9.92048 37.2588L1.28336 24.8747C1.20654 24.7655 1.16618 24.6349 1.16803 24.5014C1.16988 24.3679 1.21386 24.2385 1.29368 24.1315C1.3735 24.0245 1.48508 23.9455 1.61249 23.9057C1.7399 23.8659 1.87662 23.8674 2.00312 23.91L10.8281 26.8525C11.1564 26.9651 11.5129 26.9651 11.8412 26.8525Z" fill="#CCCBF8"/>
<path d="M10.6161 13.3858L1.83547 17.7742C1.7145 17.8371 1.57646 17.8593 1.44188 17.8374C1.30731 17.8156 1.18337 17.7509 1.08852 17.6529C0.993667 17.555 0.932957 17.429 0.915418 17.2938C0.897879 17.1586 0.924449 17.0213 0.991176 16.9024L9.81404 0.889784C9.96613 0.62062 10.187 0.396678 10.454 0.240858C10.721 0.0850373 11.0246 0.00292969 11.3338 0.00292969C11.6429 0.00292969 11.9465 0.0850373 12.2135 0.240858C12.4806 0.396678 12.7014 0.62062 12.8535 0.889784L21.6764 16.9024C21.7431 17.0213 21.7697 17.1586 21.7521 17.2938C21.7346 17.429 21.6739 17.555 21.579 17.6529C21.4842 17.7509 21.3602 17.8156 21.2256 17.8374C21.0911 17.8593 20.953 17.8371 20.8321 17.7742L12.0514 13.3858C11.8265 13.2815 11.5816 13.2275 11.3338 13.2275C11.0859 13.2275 10.841 13.2815 10.6161 13.3858Z" fill="#CCCBF8"/>
</svg>
