<svg width="38" height="39" viewBox="0 0 38 39" fill="none" xmlns="http://www.w3.org/2000/svg">
<path d="M36.087 13.5369C35.5835 13.5369 35.1006 13.3369 34.7445 12.9809C34.3885 12.6248 34.1885 12.1419 34.1885 11.6384V4.99362C34.1885 4.14119 34.0897 4.04437 33.2392 4.04437H26.5942C26.0907 4.04437 25.6078 3.84434 25.2517 3.4883C24.8957 3.13226 24.6957 2.64937 24.6957 2.14585C24.6957 1.64233 24.8957 1.15944 25.2517 0.803396C25.6078 0.447355 26.0907 0.247334 26.5942 0.247334H33.2392C33.8756 0.195706 34.5156 0.283051 35.1149 0.503317C35.7142 0.723583 36.2584 1.0715 36.7099 1.52298C37.1614 1.97445 37.5093 2.51868 37.7296 3.11795C37.9499 3.71723 38.0372 4.35724 37.9856 4.99362V11.6384C37.9856 12.1419 37.7856 12.6248 37.4295 12.9809C37.0735 13.3369 36.5905 13.5369 36.087 13.5369ZM3.81154 11.6384V4.99362C3.81154 4.14119 3.91026 4.04437 4.76082 4.04437H11.4058C11.9093 4.04437 12.3922 3.84434 12.7483 3.4883C13.1043 3.13226 13.3043 2.64937 13.3043 2.14585C13.3043 1.64233 13.1043 1.15944 12.7483 0.803396C12.3922 0.447355 11.9093 0.247334 11.4058 0.247334H4.76082C4.12442 0.195706 3.4844 0.283051 2.88511 0.503317C2.28582 0.723583 1.74158 1.0715 1.29009 1.52298C0.838612 1.97445 0.490684 2.51868 0.270413 3.11795C0.0501419 3.71723 -0.037205 4.35724 0.014424 4.99362V11.6384C0.014424 12.1419 0.21445 12.6248 0.570499 12.9809C0.926547 13.3369 1.40945 13.5369 1.91298 13.5369C2.41651 13.5369 2.89942 13.3369 3.25546 12.9809C3.61151 12.6248 3.81154 12.1419 3.81154 11.6384ZM13.3043 36.3191C13.3043 35.8156 13.1043 35.3327 12.7483 34.9767C12.3922 34.6206 11.9093 34.4206 11.4058 34.4206H4.76082C3.91026 34.4206 3.81154 34.3238 3.81154 33.4714V26.8266C3.81154 26.323 3.61151 25.8401 3.25546 25.4841C2.89942 25.1281 2.41651 24.928 1.91298 24.928C1.40945 24.928 0.926547 25.1281 0.570499 25.4841C0.21445 25.8401 0.014424 26.323 0.014424 26.8266V33.4714C-0.037205 34.1077 0.0501419 34.7478 0.270413 35.347C0.490684 35.9463 0.838612 36.4905 1.29009 36.942C1.74158 37.3935 2.28582 37.7414 2.88511 37.9617C3.4844 38.1819 4.12442 38.2693 4.76082 38.2177H11.4058C11.9093 38.2177 12.3922 38.0176 12.7483 37.6616C13.1043 37.3055 13.3043 36.8227 13.3043 36.3191ZM37.9856 33.4714V26.8266C37.9856 26.323 37.7856 25.8401 37.4295 25.4841C37.0735 25.1281 36.5905 24.928 36.087 24.928C35.5835 24.928 35.1006 25.1281 34.7445 25.4841C34.3885 25.8401 34.1885 26.323 34.1885 26.8266V33.4714C34.1885 34.3238 34.0897 34.4206 33.2392 34.4206H26.5942C26.0907 34.4206 25.6078 34.6206 25.2517 34.9767C24.8957 35.3327 24.6957 35.8156 24.6957 36.3191C24.6957 36.8227 24.8957 37.3055 25.2517 37.6616C25.6078 38.0176 26.0907 38.2177 26.5942 38.2177H33.2392C33.8756 38.2693 34.5156 38.1819 35.1149 37.9617C35.7142 37.7414 36.2584 37.3935 36.7099 36.942C37.1614 36.4905 37.5093 35.9463 37.7296 35.347C37.9499 34.7478 38.0372 34.1077 37.9856 33.4714Z" fill="#CCCBF8"/>
<path d="M27.4394 11.0214C27.1451 10.6128 26.7005 10.3379 26.2035 10.257C25.7064 10.1762 25.1976 10.2962 24.789 10.5905C24.3804 10.8848 24.1054 11.3293 24.0246 11.8264C23.9438 12.3234 24.0637 12.8322 24.358 13.2408C25.24 14.4699 25.7105 15.9465 25.7022 17.4593V25.3723C25.8205 26.8359 25.4793 28.2999 24.7264 29.5604C24.5323 29.846 24.4191 30.1788 24.3989 30.5234C24.3788 30.8681 24.4523 31.2118 24.6118 31.5181C24.7712 31.8243 25.0106 32.0817 25.3046 32.2628C25.5985 32.4439 25.936 32.5421 26.2813 32.5468C29.2184 32.2032 29.4766 26.9898 29.5088 25.3723C29.3418 21.2411 30.3518 14.4369 27.4394 11.0214Z" fill="#CCCBF8"/>
<path d="M19.5019 9.77949C19.7495 9.80947 20.0006 9.79037 20.2408 9.72329C20.481 9.65621 20.7056 9.54247 20.9019 9.38855C21.0981 9.23464 21.2621 9.04357 21.3844 8.82627C21.5068 8.60896 21.5852 8.36968 21.615 8.12209C21.8201 6.46468 20.1418 5.78691 18.7406 5.94259C15.7894 5.94561 12.9598 7.1193 10.873 9.20612C8.78611 11.2929 7.61239 14.1224 7.60938 17.0736V22.9248C7.60938 23.4283 7.8094 23.9112 8.16545 24.2673C8.5215 24.6233 9.0044 24.8233 9.50793 24.8233C10.0115 24.8233 10.4944 24.6233 10.8504 24.2673C11.2065 23.9112 11.4065 23.4283 11.4065 22.9248V17.0736C11.4065 16.0463 11.6224 15.0304 12.0401 14.0919C12.4578 13.1533 13.068 12.313 13.8312 11.6253C14.5945 10.9377 15.4936 10.418 16.4705 10.1C17.4474 9.78206 18.4802 9.67285 19.5019 9.77949Z" fill="#CCCBF8"/>
<path d="M24.1859 16.2668C23.8465 14.9949 23.0574 13.8891 21.9649 13.1545C20.8724 12.4198 19.5507 12.1062 18.2446 12.2717C16.9385 12.4372 15.7368 13.0706 14.862 14.0544C13.9873 15.0383 13.499 16.3059 13.4875 17.6224C13.4989 17.8388 13.478 20.698 13.4875 21.0036V22.9249C13.4417 23.7977 13.1566 24.641 12.6636 25.3626C12.3584 25.7619 12.224 26.2659 12.2898 26.7642C12.3556 27.2624 12.6164 27.7142 13.0148 28.0205C15.8949 29.8792 17.3454 24.6336 17.2846 22.9211C17.2846 21.5485 17.2846 19.0026 17.2846 17.6186C17.292 17.242 17.4277 16.8791 17.6693 16.5901C17.9109 16.3011 18.2439 16.1033 18.6133 16.0293C18.9827 15.9554 19.3662 16.0097 19.7005 16.1834C20.0347 16.3571 20.2997 16.6397 20.4514 16.9845C20.5984 18.3176 20.6416 19.6601 20.5805 20.9998V23.9881C20.6983 24.9354 20.5948 25.8972 20.2782 26.7978C19.9617 27.6984 19.4406 28.5133 18.756 29.1786C18.3953 29.5119 18.1777 29.972 18.1491 30.4623C18.1204 30.9526 18.2829 31.435 18.6024 31.808C18.9218 32.181 19.3735 32.4158 19.8623 32.4629C20.3512 32.51 20.8393 32.3658 21.2241 32.0606C22.3253 31.0408 23.1808 29.7845 23.726 28.3862C24.2713 26.9879 24.4921 25.4841 24.372 23.9881C24.474 21.413 24.4118 18.834 24.1859 16.2668Z" fill="#4745B7"/>
</svg>
