<svg width="37" height="39" viewBox="0 0 37 39" fill="none" xmlns="http://www.w3.org/2000/svg">
<path d="M26.7727 10.0037H10.5592C4.47915 10.0037 0.425781 14.0569 0.425781 22.1632V30.2696C0.425781 34.3228 2.45247 38.376 6.50584 38.376H7.01859C8.10734 38.3759 9.17911 38.1062 10.1382 37.5909C11.0973 37.0757 11.9139 36.331 12.515 35.4232C13.221 34.4531 14.1469 33.664 15.2166 33.1204C16.2864 32.5769 17.4697 32.2945 18.6696 32.2963C19.8695 32.2981 21.052 32.584 22.1201 33.1307C23.1883 33.6774 24.1117 34.4692 24.8149 35.4415C25.4176 36.344 26.2335 37.084 27.1905 37.5959C28.1474 38.1077 29.2159 38.3757 30.3012 38.376H30.8261C34.8795 38.376 36.9061 34.3228 36.9061 30.2696V22.1632C36.9061 14.0569 32.8528 10.0037 26.7727 10.0037Z" fill="#CCCBF8"/>
<path d="M14.6111 20.6416H12.0778V18.1083C12.0778 17.7052 11.9176 17.3186 11.6326 17.0336C11.3475 16.7485 10.9609 16.5884 10.5578 16.5884C10.1546 16.5884 9.76801 16.7485 9.48295 17.0336C9.19789 17.3186 9.03775 17.7052 9.03775 18.1083V20.6416H6.50439C6.10126 20.6416 5.71464 20.8017 5.42958 21.0867C5.14452 21.3718 4.98438 21.7584 4.98438 22.1615C4.98438 22.5646 5.14452 22.9512 5.42958 23.2363C5.71464 23.5213 6.10126 23.6815 6.50439 23.6815H9.03775V26.2147C9.03775 26.6178 9.19789 27.0044 9.48295 27.2895C9.76801 27.5745 10.1546 27.7346 10.5578 27.7346C10.9609 27.7346 11.3475 27.5745 11.6326 27.2895C11.9176 27.0044 12.0778 26.6178 12.0778 26.2147V23.6815H14.6111C15.0143 23.6815 15.4009 23.5213 15.6859 23.2363C15.971 22.9512 16.1312 22.5646 16.1312 22.1615C16.1312 21.7584 15.971 21.3718 15.6859 21.0867C15.4009 20.8017 15.0143 20.6416 14.6111 20.6416Z" fill="#4745B7"/>
<path d="M28.2913 1.89592C28.2897 3.10477 27.8087 4.26365 26.9539 5.11844C26.0991 5.97322 24.9402 6.45415 23.7313 6.45576H21.7046C21.3023 6.45841 20.9172 6.6194 20.6327 6.90388C20.3482 7.18835 20.1872 7.57341 20.1846 7.9757V10.0023H17.1445V7.9757C17.1461 6.76685 17.6271 5.60798 18.4819 4.75319C19.3367 3.8984 20.4957 3.41748 21.7046 3.41587H23.7313C24.1336 3.41321 24.5187 3.25222 24.8031 2.96775C25.0876 2.68328 25.2486 2.29822 25.2513 1.89592C25.2513 1.49281 25.4114 1.1062 25.6965 0.821158C25.9815 0.536113 26.3682 0.375977 26.7713 0.375977C27.1744 0.375977 27.561 0.536113 27.8461 0.821158C28.1312 1.1062 28.2913 1.49281 28.2913 1.89592Z" fill="#4745B7"/>
<path d="M31.3349 19.6304C31.3349 20.0312 31.2161 20.423 30.9934 20.7563C30.7707 21.0895 30.4542 21.3493 30.0838 21.5027C29.7135 21.6561 29.306 21.6962 28.9129 21.618C28.5197 21.5398 28.1586 21.3468 27.8752 21.0634C27.5917 20.7799 27.3987 20.4188 27.3205 20.0257C27.2423 19.6326 27.2824 19.2251 27.4358 18.8548C27.5892 18.4845 27.849 18.168 28.1823 17.9453C28.5156 17.7226 28.9074 17.6038 29.3082 17.6038C29.8458 17.6038 30.3613 17.8173 30.7413 18.1973C31.1214 18.5774 31.3349 19.0929 31.3349 19.6304ZM24.2415 22.6702C23.8407 22.6702 23.4489 22.7891 23.1156 23.0118C22.7823 23.2345 22.5225 23.551 22.3691 23.9213C22.2157 24.2916 22.1756 24.6991 22.2538 25.0922C22.332 25.4853 22.525 25.8464 22.8084 26.1299C23.0919 26.4133 23.453 26.6063 23.8461 26.6845C24.2393 26.7627 24.6468 26.7226 25.0171 26.5692C25.3874 26.4158 25.704 26.156 25.9267 25.8228C26.1494 25.4895 26.2682 25.0977 26.2682 24.6968C26.2685 24.4305 26.2163 24.1668 26.1145 23.9207C26.0128 23.6746 25.8636 23.4509 25.6753 23.2625C25.4871 23.0741 25.2636 22.9246 25.0176 22.8227C24.7716 22.7207 24.5079 22.6682 24.2415 22.6682V22.6702Z" fill="#4745B7"/>
</svg>
