<svg width="32" height="32" viewBox="0 0 32 32" fill="none" xmlns="http://www.w3.org/2000/svg">
<path d="M16.0013 29.3337C23.3651 29.3337 29.3346 23.3641 29.3346 16.0003C29.3346 8.63653 23.3651 2.66699 16.0013 2.66699C8.63751 2.66699 2.66797 8.63653 2.66797 16.0003C2.66797 23.3641 8.63751 29.3337 16.0013 29.3337Z" stroke="#1E1E20" stroke-width="2.66667" stroke-linecap="round" stroke-linejoin="round"/>
<path d="M22.6693 14.5192C22.6693 14.3227 22.5912 14.1343 22.4523 13.9954C22.3134 13.8565 22.125 13.7784 21.9285 13.7784H18.2248V10.0747C18.2248 9.87827 18.1468 9.68986 18.0079 9.55094C17.869 9.41203 17.6805 9.33398 17.4841 9.33398H14.5211C14.3247 9.33398 14.1363 9.41203 13.9973 9.55094C13.8584 9.68986 13.7804 9.87827 13.7804 10.0747V13.7784H10.0767C9.88022 13.7784 9.69181 13.8565 9.5529 13.9954C9.41398 14.1343 9.33594 14.3227 9.33594 14.5192V17.4821C9.33594 17.6786 9.41398 17.867 9.5529 18.0059C9.69181 18.1448 9.88022 18.2229 10.0767 18.2229H13.7804V21.9266C13.7804 22.123 13.8584 22.3114 13.9973 22.4504C14.1363 22.5893 14.3247 22.6673 14.5211 22.6673H17.4841C17.6805 22.6673 17.869 22.5893 18.0079 22.4504C18.1468 22.3114 18.2248 22.123 18.2248 21.9266V18.2229H21.9285C22.125 18.2229 22.3134 18.1448 22.4523 18.0059C22.5912 17.867 22.6693 17.6786 22.6693 17.4821V14.5192Z" stroke="#1E1E20" stroke-width="2.66667" stroke-linecap="round" stroke-linejoin="round"/>
</svg>
