<svg width="32" height="32" viewBox="0 0 32 32" fill="none" xmlns="http://www.w3.org/2000/svg">
<path d="M28 13.333C28 22.6663 16 30.6663 16 30.6663C16 30.6663 4 22.6663 4 13.333C4 10.1504 5.26428 7.09816 7.51472 4.84773C9.76516 2.59729 12.8174 1.33301 16 1.33301C19.1826 1.33301 22.2348 2.59729 24.4853 4.84773C26.7357 7.09816 28 10.1504 28 13.333Z" stroke="#1E1E20" stroke-width="2.66667" stroke-linecap="round" stroke-linejoin="round"/>
<path d="M16 17.333C18.2091 17.333 20 15.5421 20 13.333C20 11.1239 18.2091 9.33301 16 9.33301C13.7909 9.33301 12 11.1239 12 13.333C12 15.5421 13.7909 17.333 16 17.333Z" stroke="#1E1E20" stroke-width="2.66667" stroke-linecap="round" stroke-linejoin="round"/>
</svg>
