<svg width="32" height="32" viewBox="0 0 32 32" fill="none" xmlns="http://www.w3.org/2000/svg">
<path d="M19.136 6.58789H25.4105C25.7433 6.58789 26.0625 6.72011 26.2978 6.95544C26.5331 7.19078 26.6654 7.50997 26.6654 7.84279V29.1761C26.6654 29.5089 26.5331 29.8282 26.2978 30.0635C26.0625 30.2988 25.7433 30.431 25.4105 30.431H6.58693C6.25411 30.431 5.93492 30.2988 5.69958 30.0635C5.46425 29.8282 5.33203 29.5089 5.33203 29.1761V7.84279C5.33203 7.50997 5.46425 7.19078 5.69958 6.95544C5.93492 6.72011 6.25411 6.58789 6.58693 6.58789H12.8614" stroke="#1E1E20" stroke-width="2.66667" stroke-linecap="round" stroke-linejoin="round"/>
<path d="M19.1378 8.47032C19.1378 8.63673 19.0717 8.79633 18.9541 8.91399C18.8364 9.03166 18.6767 9.09777 18.5103 9.09777H13.4907C13.3243 9.09777 13.1647 9.03166 13.0471 8.91399C12.9294 8.79633 12.8633 8.63673 12.8633 8.47032V4.70561C12.8633 3.87356 13.1938 3.07558 13.7821 2.48724C14.3705 1.89889 15.1685 1.56836 16.0005 1.56836C16.8325 1.56836 17.6305 1.89889 18.219 2.48724C18.8073 3.07558 19.1378 3.87356 19.1378 4.70561V8.47032Z" stroke="#1E1E20" stroke-width="2.66667" stroke-linecap="round" stroke-linejoin="round"/>
<path d="M23.0837 29.3332V27.6078C23.0837 26.6927 22.7202 25.815 22.073 25.1679C21.4259 24.5208 20.5483 24.1572 19.6331 24.1572H12.7319C11.8167 24.1572 10.939 24.5208 10.2919 25.1679C9.6448 25.815 9.28125 26.6927 9.28125 27.6078V29.3332" stroke="#1E1E20" stroke-width="2.66667" stroke-linecap="round" stroke-linejoin="round"/>
<path d="M16.1811 20.7069C18.0868 20.7069 19.6317 19.162 19.6317 17.2563C19.6317 15.3506 18.0868 13.8057 16.1811 13.8057C14.2754 13.8057 12.7305 15.3506 12.7305 17.2563C12.7305 19.162 14.2754 20.7069 16.1811 20.7069Z" stroke="#1E1E20" stroke-width="2.66667" stroke-linecap="round" stroke-linejoin="round"/>
</svg>
