<svg width="25" height="25" viewBox="0 0 25 25" fill="none" xmlns="http://www.w3.org/2000/svg">
<g clip-path="url(#clip0_7013_29704)">
<path d="M20.1361 5.62882C18.6907 4.96708 17.1648 4.49761 15.5973 4.23242C15.3828 4.61585 15.1888 5.01035 15.0159 5.41426C13.3463 5.16267 11.6484 5.16267 9.97881 5.41426C9.80587 5.01039 9.6118 4.6159 9.3974 4.23242C7.82897 4.49985 6.30205 4.97043 4.85518 5.63229C1.98276 9.88206 1.20409 14.0263 1.59342 18.1117C3.27558 19.3545 5.1584 20.2997 7.16003 20.9062C7.61074 20.3 8.00956 19.6569 8.35226 18.9838C7.70135 18.7407 7.07311 18.4407 6.4748 18.0874C6.63227 17.9732 6.78627 17.8556 6.93508 17.7414C8.67601 18.5601 10.5761 18.9846 12.5 18.9846C14.4238 18.9846 16.3239 18.5601 18.0648 17.7414C18.2154 17.8642 18.3694 17.9819 18.5251 18.0874C17.9257 18.4413 17.2963 18.7418 16.6442 18.9855C16.9865 19.6583 17.3853 20.3009 17.8364 20.9062C19.8398 20.3022 21.724 19.3574 23.4065 18.1134C23.8633 13.3757 22.6261 9.26951 20.1361 5.62882ZM8.84541 15.5992C7.76047 15.5992 6.86414 14.6146 6.86414 13.4033C6.86414 12.1921 7.72932 11.1989 8.84195 11.1989C9.95458 11.1989 10.844 12.1921 10.825 13.4033C10.8059 14.6146 9.95112 15.5992 8.84541 15.5992ZM16.1545 15.5992C15.0678 15.5992 14.175 14.6146 14.175 13.4033C14.175 12.1921 15.0401 11.1989 16.1545 11.1989C17.2689 11.1989 18.1514 12.1921 18.1323 13.4033C18.1133 14.6146 17.2602 15.5992 16.1545 15.5992Z" stroke="#4745B7" stroke-width="1.83333"/>
</g>
<defs>
<clipPath id="clip0_7013_29704">
<rect width="24" height="24" fill="white" transform="translate(0.5 0.232422)"/>
</clipPath>
</defs>
</svg>

