<svg width="32" height="32" viewBox="0 0 32 32" fill="none" xmlns="http://www.w3.org/2000/svg">
<path d="M9.54099 6.66699H2.20765C1.72406 6.66699 1.33203 7.05902 1.33203 7.54262V13.0153C1.33203 13.4989 1.72406 13.8909 2.20766 13.8909H3.22921C4.43819 13.8909 5.41827 14.871 5.41827 16.08C5.41827 17.289 4.43819 18.2691 3.22921 18.2691H2.20766C1.72406 18.2691 1.33203 18.6611 1.33203 19.1447V24.6173C1.33203 25.1009 1.72406 25.493 2.20765 25.493H9.54099M9.54099 6.66699H29.7897C30.2733 6.66699 30.6654 7.05902 30.6654 7.54262V24.6173C30.6654 25.1009 30.2733 25.493 29.7897 25.493H9.54099M9.54099 6.66699V10.0003M9.54099 25.493V22.0003M9.54099 13.8909V18.2691" stroke="#1E1E20" stroke-width="2.66667" stroke-linecap="round"/>
</svg>
