<svg width="171" height="40" viewBox="0 0 171 40" fill="none" xmlns="http://www.w3.org/2000/svg">
<g clip-path="url(#clip0_5162_9218)">
<path d="M40.5571 21.652C38.6845 18.8421 35.6404 16.8798 32.1222 16.4641C32.7348 15.0361 33.0749 13.4628 33.0749 11.8105C33.0749 11.1296 33.0166 10.4621 32.9055 9.81204C31.9568 4.24122 27.107 0 21.2657 0C14.7435 0 9.45723 5.28696 9.45723 11.8091C9.45723 13.4621 9.79734 15.0354 10.4106 16.4634C4.54785 17.155 0 22.1407 0 28.1902C0 30.8943 0.909839 33.3861 2.43896 35.3772C4.59807 38.1877 7.99172 40 11.8092 40.0007C15.3548 40.0007 18.5355 38.4381 20.7 35.9636C20.8975 35.738 21.087 35.5044 21.2671 35.264C21.6627 35.7916 22.1026 36.2837 22.5793 36.7382C22.9542 37.0958 23.3519 37.4305 23.7716 37.7365C24.4492 38.2305 25.1809 38.6543 25.9562 38.9978C27.4143 39.6425 29.0278 40.0013 30.7243 40.0013C30.8923 40.0013 31.059 39.9967 31.2251 39.99C37.5149 39.7275 42.5328 34.5463 42.5328 28.1922C42.5328 25.7733 41.805 23.5252 40.5571 21.6526V21.652ZM15.1131 8.25682C17.0754 4.85849 21.4204 3.69358 24.8187 5.65585C27.7364 7.34029 29.0071 10.7821 28.0664 13.8725C27.9118 14.382 27.6969 14.8814 27.419 15.3621C26.7984 16.4373 25.9388 17.2889 24.9459 17.8888C24.8642 17.9383 24.7812 17.9865 24.6975 18.0327C23.8982 18.4726 23.0211 18.7537 22.118 18.8635C20.6558 19.0416 19.1267 18.7685 17.7496 17.9838C17.7181 17.9658 17.6873 17.9477 17.6558 17.9296C14.3017 15.9519 13.1615 11.6364 15.1124 8.25682H15.1131ZM36.9881 31.543C36.1693 33.0701 34.8812 34.1714 33.4029 34.772C31.3831 35.5928 29.0907 35.3899 27.2021 34.3006L26.1838 33.7128L23.0258 31.8905L18.9941 29.5633L18.802 29.4522L13.2907 26.2714L9.46661 29.4803L16.4929 33.5361C14.2675 35.4876 10.9616 35.9074 8.2555 34.3455C7.35704 33.8266 6.61524 33.1418 6.04551 32.3511C4.46015 30.1518 4.21177 27.1391 5.65519 24.6386C7.61011 21.2523 11.931 20.084 15.324 22.0168C15.3555 22.0349 15.3863 22.053 15.4177 22.0711C15.5001 22.1179 15.5831 22.1641 15.6668 22.2097L17.1269 23.0525L19.5237 24.4364L23.5286 26.7481L23.7402 26.8706L30.0193 30.4946L33.8381 27.2904L33.8414 27.2844L26.0847 22.8075C26.386 22.5477 26.7067 22.3154 27.0428 22.1126C27.1251 22.063 27.2075 22.0148 27.2918 21.9686C29.4047 20.8057 32.0573 20.7475 34.2954 22.0496C35.4261 22.7071 36.3099 23.6383 36.9104 24.7129C38.0566 26.7655 38.1684 29.3424 36.9881 31.5443V31.543Z" fill="#4745B7"/>
</g>
<path d="M64.9484 11.7302C62.2511 11.7302 60.2961 12.485 59.0835 13.9945C57.8956 15.4793 57.3017 17.5209 57.3017 20.1193C57.3017 21.3814 57.4502 22.5321 57.7472 23.5715C58.0441 24.5861 58.4896 25.4646 59.0835 26.207C59.6774 26.9494 60.4198 27.531 61.3107 27.9517C62.2016 28.3476 63.2409 28.5456 64.4288 28.5456C65.0722 28.5456 65.6166 28.5332 66.062 28.5085C66.5322 28.4837 66.9406 28.4342 67.287 28.36V19.4141H73.0777V32.1462C72.3848 32.4185 71.2712 32.703 69.7369 33C68.2026 33.3217 66.3095 33.4826 64.0576 33.4826C62.1273 33.4826 60.3703 33.1856 58.7865 32.5917C57.2275 31.9978 55.8912 31.1316 54.7776 29.9933C53.664 28.8549 52.7978 27.4567 52.1791 25.7987C51.5852 24.1407 51.2883 22.2476 51.2883 20.1193C51.2883 17.9664 51.6223 16.0609 52.2905 14.4029C52.9587 12.7448 53.8743 11.3466 55.0374 10.2083C56.2005 9.04519 57.5616 8.16669 59.1206 7.57276C60.7044 6.97884 62.3872 6.68188 64.1689 6.68188C65.3815 6.68188 66.4704 6.7685 67.4355 6.94173C68.4254 7.0902 69.2667 7.2758 69.9597 7.49853C70.6773 7.6965 71.2589 7.90685 71.7043 8.12957C72.1745 8.35229 72.5086 8.52551 72.7065 8.64925L71.0361 13.2893C70.2442 12.8686 69.3286 12.5097 68.2893 12.2128C67.2746 11.8911 66.161 11.7302 64.9484 11.7302ZM85.5556 29.1395C86.1 29.1395 86.6197 29.1271 87.1146 29.1024C87.6096 29.0776 88.0055 29.0405 88.3025 28.991V24.7965C88.0797 24.747 87.7457 24.6975 87.3002 24.648C86.8548 24.5985 86.4465 24.5737 86.0753 24.5737C85.5556 24.5737 85.0606 24.6109 84.5905 24.6851C84.145 24.7346 83.7491 24.846 83.4026 25.0192C83.0562 25.1924 82.784 25.4275 82.586 25.7245C82.388 26.0214 82.289 26.3926 82.289 26.8381C82.289 27.7042 82.5736 28.3105 83.1428 28.657C83.7367 28.9787 84.541 29.1395 85.5556 29.1395ZM85.1101 12.9552C86.7434 12.9552 88.1045 13.1408 89.1933 13.512C90.2822 13.8832 91.1483 14.4152 91.7918 15.1081C92.4599 15.801 92.9301 16.6424 93.2023 17.6323C93.4745 18.6222 93.6106 19.7234 93.6106 20.936V32.4432C92.8187 32.6164 91.7175 32.8144 90.3069 33.0371C88.8964 33.2846 87.1889 33.4083 85.1844 33.4083C83.9223 33.4083 82.7716 33.297 81.7322 33.0742C80.7176 32.8515 79.8391 32.4927 79.0967 31.9978C78.3543 31.4781 77.7851 30.8099 77.3892 29.9933C76.9932 29.1766 76.7953 28.1744 76.7953 26.9866C76.7953 25.8482 77.018 24.8831 77.4634 24.0912C77.9336 23.2993 78.5523 22.6683 79.3194 22.1981C80.0866 21.7279 80.9651 21.3938 81.9549 21.1958C82.9448 20.9731 83.9718 20.8617 85.0359 20.8617C85.7536 20.8617 86.3846 20.8989 86.929 20.9731C87.4982 21.0226 87.956 21.0968 88.3025 21.1958V20.6761C88.3025 19.7358 88.0179 18.981 87.4487 18.4118C86.8795 17.8426 85.8897 17.5581 84.4791 17.5581C83.5387 17.5581 82.6107 17.6323 81.6951 17.7808C80.7795 17.9045 79.9876 18.0901 79.3194 18.3376L78.6141 13.8832C78.9358 13.7842 79.3318 13.6852 79.802 13.5862C80.2969 13.4625 80.829 13.3635 81.3981 13.2893C81.9673 13.1903 82.5612 13.116 83.1799 13.0665C83.8233 12.9923 84.4667 12.9552 85.1101 12.9552ZM98.4264 8.61213L103.957 7.72124V13.4749H110.602V18.0777H103.957V24.9449C103.957 26.108 104.155 27.036 104.551 27.729C104.972 28.4219 105.801 28.7683 107.038 28.7683C107.632 28.7683 108.238 28.7188 108.857 28.6198C109.501 28.4961 110.082 28.3352 110.602 28.1373L111.381 32.4432C110.713 32.7154 109.971 32.9505 109.154 33.1485C108.337 33.3465 107.335 33.4454 106.147 33.4454C104.638 33.4454 103.388 33.2475 102.398 32.8515C101.408 32.4308 100.616 31.8617 100.023 31.144C99.4286 30.4016 99.0079 29.5107 98.7605 28.4714C98.5377 27.432 98.4264 26.2813 98.4264 25.0192V8.61213ZM121.842 29.1395C122.386 29.1395 122.906 29.1271 123.401 29.1024C123.896 29.0776 124.292 29.0405 124.589 28.991V24.7965C124.366 24.747 124.032 24.6975 123.587 24.648C123.141 24.5985 122.733 24.5737 122.362 24.5737C121.842 24.5737 121.347 24.6109 120.877 24.6851C120.431 24.7346 120.035 24.846 119.689 25.0192C119.342 25.1924 119.07 25.4275 118.872 25.7245C118.674 26.0214 118.575 26.3926 118.575 26.8381C118.575 27.7042 118.86 28.3105 119.429 28.657C120.023 28.9787 120.827 29.1395 121.842 29.1395ZM121.396 12.9552C123.03 12.9552 124.391 13.1408 125.48 13.512C126.569 13.8832 127.435 14.4152 128.078 15.1081C128.746 15.801 129.216 16.6424 129.489 17.6323C129.761 18.6222 129.897 19.7234 129.897 20.936V32.4432C129.105 32.6164 128.004 32.8144 126.593 33.0371C125.183 33.2846 123.475 33.4083 121.471 33.4083C120.209 33.4083 119.058 33.297 118.019 33.0742C117.004 32.8515 116.125 32.4927 115.383 31.9978C114.641 31.4781 114.071 30.8099 113.675 29.9933C113.28 29.1766 113.082 28.1744 113.082 26.9866C113.082 25.8482 113.304 24.8831 113.75 24.0912C114.22 23.2993 114.839 22.6683 115.606 22.1981C116.373 21.7279 117.251 21.3938 118.241 21.1958C119.231 20.9731 120.258 20.8617 121.322 20.8617C122.04 20.8617 122.671 20.8989 123.215 20.9731C123.784 21.0226 124.242 21.0968 124.589 21.1958V20.6761C124.589 19.7358 124.304 18.981 123.735 18.4118C123.166 17.8426 122.176 17.5581 120.765 17.5581C119.825 17.5581 118.897 17.6323 117.981 17.7808C117.066 17.9045 116.274 18.0901 115.606 18.3376L114.9 13.8832C115.222 13.7842 115.618 13.6852 116.088 13.5862C116.583 13.4625 117.115 13.3635 117.684 13.2893C118.254 13.1903 118.848 13.116 119.466 13.0665C120.11 12.9923 120.753 12.9552 121.396 12.9552ZM133.97 23.2374C133.97 21.8269 134.193 20.5029 134.638 19.2656C135.109 18.0035 135.777 16.9146 136.643 15.999C137.509 15.0586 138.561 14.3162 139.798 13.7718C141.035 13.2274 142.446 12.9552 144.03 12.9552C145.069 12.9552 146.022 13.0542 146.888 13.2521C147.754 13.4254 148.596 13.6852 149.412 14.0317L148.261 18.4489C147.742 18.251 147.173 18.0777 146.554 17.9293C145.935 17.7808 145.242 17.7065 144.475 17.7065C142.842 17.7065 141.617 18.2138 140.8 19.2285C140.008 20.2431 139.613 21.5794 139.613 23.2374C139.613 24.9944 139.984 26.3555 140.726 27.3206C141.493 28.2858 142.817 28.7683 144.698 28.7683C145.366 28.7683 146.084 28.7064 146.851 28.5827C147.618 28.459 148.323 28.261 148.967 27.9888L149.746 32.5174C149.103 32.7897 148.299 33.0247 147.333 33.2227C146.368 33.4207 145.304 33.5197 144.141 33.5197C142.359 33.5197 140.825 33.2598 139.538 32.7402C138.251 32.1957 137.187 31.4657 136.346 30.5501C135.529 29.6344 134.923 28.558 134.527 27.3206C134.156 26.0586 133.97 24.6975 133.97 23.2374ZM159.977 29.1395C160.521 29.1395 161.041 29.1271 161.536 29.1024C162.031 29.0776 162.427 29.0405 162.724 28.991V24.7965C162.501 24.747 162.167 24.6975 161.722 24.648C161.276 24.5985 160.868 24.5737 160.497 24.5737C159.977 24.5737 159.482 24.6109 159.012 24.6851C158.566 24.7346 158.17 24.846 157.824 25.0192C157.478 25.1924 157.205 25.4275 157.007 25.7245C156.809 26.0214 156.71 26.3926 156.71 26.8381C156.71 27.7042 156.995 28.3105 157.564 28.657C158.158 28.9787 158.962 29.1395 159.977 29.1395ZM159.531 12.9552C161.165 12.9552 162.526 13.1408 163.615 13.512C164.704 13.8832 165.57 14.4152 166.213 15.1081C166.881 15.801 167.351 16.6424 167.624 17.6323C167.896 18.6222 168.032 19.7234 168.032 20.936V32.4432C167.24 32.6164 166.139 32.8144 164.728 33.0371C163.318 33.2846 161.61 33.4083 159.606 33.4083C158.344 33.4083 157.193 33.297 156.154 33.0742C155.139 32.8515 154.26 32.4927 153.518 31.9978C152.776 31.4781 152.206 30.8099 151.811 29.9933C151.415 29.1766 151.217 28.1744 151.217 26.9866C151.217 25.8482 151.439 24.8831 151.885 24.0912C152.355 23.2993 152.974 22.6683 153.741 22.1981C154.508 21.7279 155.386 21.3938 156.376 21.1958C157.366 20.9731 158.393 20.8617 159.457 20.8617C160.175 20.8617 160.806 20.8989 161.35 20.9731C161.92 21.0226 162.377 21.0968 162.724 21.1958V20.6761C162.724 19.7358 162.439 18.981 161.87 18.4118C161.301 17.8426 160.311 17.5581 158.9 17.5581C157.96 17.5581 157.032 17.6323 156.116 17.7808C155.201 17.9045 154.409 18.0901 153.741 18.3376L153.035 13.8832C153.357 13.7842 153.753 13.6852 154.223 13.5862C154.718 13.4625 155.25 13.3635 155.819 13.2893C156.389 13.1903 156.983 13.116 157.601 13.0665C158.245 12.9923 158.888 12.9552 159.531 12.9552Z" fill="#1E1E20"/>
<defs>
<clipPath id="clip0_5162_9218">
<rect width="42.5328" height="40" fill="white"/>
</clipPath>
</defs>
</svg>
