<svg width="24" height="24" viewBox="0 0 24 24" fill="none" xmlns="http://www.w3.org/2000/svg">
<path d="M12 22.9999C9.82438 22.9999 7.69765 22.3548 5.88871 21.1461C4.07978 19.9374 2.66989 18.2195 1.83733 16.2095C1.00477 14.1995 0.78693 11.9878 1.21137 9.85399C1.6358 7.7202 2.68345 5.7602 4.22182 4.22182C5.76019 2.68345 7.72019 1.6358 9.85398 1.21137C11.9878 0.78693 14.1995 1.00477 16.2095 1.83733C18.2194 2.66989 19.9374 4.07978 21.1461 5.88872C22.3548 7.69766 22.9999 9.82439 22.9999 12C22.9967 14.9164 21.8368 17.7124 19.7746 19.7746C17.7124 21.8368 14.9163 22.9967 12 22.9999Z" fill="#CCCBF8"/>
<path d="M22.9609 12.8923C22.6662 12.8429 22.3637 12.871 22.0831 12.9737C21.8026 13.0765 21.5535 13.2505 21.3604 13.4786C20.8258 14.0825 20.0921 13.7844 18.9031 11.591C17.7635 9.49108 18.8074 8.56708 19.2232 7.28338C19.5785 6.23288 18.6226 3.59179 18.0352 2.80859L18.0462 2.81959C19.5673 3.82001 20.816 5.18265 21.6802 6.78509C22.5444 8.38753 22.997 10.1796 22.9972 12.0002C22.9972 12.2972 22.9862 12.6052 22.9642 12.8912L22.9609 12.8923Z" fill="#4745B7"/>
<path d="M14.55 22.7029C13.7142 22.9031 12.8575 23.0028 11.998 22.9999C11.613 22.9999 11.239 22.9779 10.865 22.9449C11.1485 22.0649 11.0896 21.1104 10.7 20.2719C9.88604 19.062 7.77405 19.04 7.69705 17.511C7.74895 16.6157 7.72318 15.7177 7.62005 14.827C7.41105 13.947 2.03207 13.5466 2.30707 6.81458V6.80798C3.2453 5.05328 4.64232 3.58622 6.34907 2.56333C8.05581 1.54045 10.0082 1.00012 11.998 1C12.7779 1.00143 13.5556 1.08252 14.319 1.242C14.3115 1.68377 14.1641 2.11178 13.8981 2.46455C13.6321 2.81733 13.2611 3.07673 12.8384 3.20549C9.72764 4.22409 12.2092 8.27868 10.139 8.70548C9.45154 8.84628 8.27785 7.69128 7.61785 7.85078C7.44647 7.88533 7.28783 7.96616 7.15916 8.08451C7.03048 8.20285 6.93667 8.35418 6.88793 8.52207C6.83918 8.68996 6.83736 8.86799 6.88265 9.03685C6.92794 9.2057 7.01862 9.35892 7.14485 9.47988C8.07985 10.449 7.63985 10.823 7.98195 11.6051C8.32405 12.3872 9.41194 12.4785 10.6967 12.3322C11.9815 12.1859 12.559 12.1199 13.4632 13.0615C14.3674 14.0031 14.1848 15.3341 15.4553 15.4815C16.7258 15.6289 18.169 16.1965 17.9853 17.2844C17.729 18.8057 14.9152 19.6075 14.5467 22.7029" fill="#4745B7"/>
</svg>
