<svg width="38" height="34" viewBox="0 0 38 34" fill="none" xmlns="http://www.w3.org/2000/svg">
<path d="M15.9025 23.3715L6.35557 18.1633H6.32812V26.9224C6.33257 27.6482 6.52077 28.3611 6.87518 28.9946C7.22958 29.628 7.73864 30.1614 8.35489 30.545C11.4758 32.7228 15.1898 33.8905 18.9954 33.8905C22.8011 33.8905 26.5151 32.7228 29.636 30.545C30.2522 30.1614 30.7613 29.628 31.1157 28.9946C31.4701 28.3611 31.6583 27.6482 31.6627 26.9224V18.1633H31.6353L22.0884 23.3715C21.1399 23.8899 20.0764 24.1617 18.9954 24.1617C17.9145 24.1617 16.8509 23.8899 15.9025 23.3715Z" fill="#CCCBF8"/>
<path d="M35.758 8.35469L22.0942 0.900338C21.1458 0.381846 20.0822 0.110107 19.0013 0.110107C17.9203 0.110107 16.8568 0.381846 15.9083 0.900338L2.24452 8.35469C1.56523 8.72546 0.998326 9.27231 0.603374 9.93782C0.208423 10.6033 0 11.3629 0 12.1368C0 12.9106 0.208423 13.6702 0.603374 14.3357C0.998326 15.0012 1.56523 15.5481 2.24452 15.9188L15.9083 23.3711C16.8568 23.8896 17.9203 24.1613 19.0013 24.1613C20.0822 24.1613 21.1458 23.8896 22.0942 23.3711L34.3076 16.7084V25.4442C34.3076 25.8641 34.4744 26.2668 34.7714 26.5638C35.0683 26.8607 35.471 27.0275 35.891 27.0275C36.3109 27.0275 36.7137 26.8607 37.0106 26.5638C37.3076 26.2668 37.4744 25.8641 37.4744 25.4442V14.194C38.0209 13.192 38.1472 12.014 37.8253 10.919C37.5034 9.82398 36.7598 8.90161 35.758 8.35469Z" fill="#4745B7"/>
</svg>
