<svg width="28" height="29" viewBox="0 0 28 29" fill="none" xmlns="http://www.w3.org/2000/svg">
<path d="M5.00256 28.948H2.13106C1.75028 28.948 1.38509 28.7967 1.11583 28.5275C0.846578 28.2582 0.695313 27.893 0.695312 27.5121V21.7685C0.695312 21.3877 0.846578 21.0225 1.11583 20.7532C1.38509 20.4839 1.75028 20.3326 2.13106 20.3326H5.00256C5.38334 20.3326 5.74853 20.4839 6.01779 20.7532C6.28704 21.0225 6.43831 21.3877 6.43831 21.7685V27.5121C6.43831 27.893 6.28704 28.2582 6.01779 28.5275C5.74853 28.7967 5.38334 28.948 5.00256 28.948Z" fill="#4745B7"/>
<path d="M27.9755 22.2855C27.9765 22.5725 27.9124 22.8559 27.7881 23.1146C27.6637 23.3733 27.4824 23.6003 27.2576 23.7788L22.3761 27.6844C21.3586 28.5025 20.0922 28.9483 18.7867 28.948H10.7465C9.98563 28.9458 9.25657 28.6425 8.71855 28.1044C8.18053 27.5663 7.87727 26.8372 7.875 26.0762V23.2044C7.87727 22.4435 8.18053 21.7144 8.71855 21.1763C9.25657 20.6382 9.98563 20.3349 10.7465 20.3326H18.0975C18.5259 20.3326 18.9368 20.5028 19.2397 20.8058C19.5426 21.1087 19.7128 21.5196 19.7128 21.948C19.7128 22.3765 19.5426 22.7873 19.2397 23.0903C18.9368 23.3932 18.5259 23.5634 18.0975 23.5634H13.618C13.3324 23.5634 13.0585 23.6769 12.8566 23.8788C12.6546 24.0808 12.5412 24.3547 12.5412 24.6403C12.5412 24.926 12.6546 25.1999 12.8566 25.4018C13.0585 25.6038 13.3324 25.7173 13.618 25.7173H18.0975C18.9864 25.716 19.8465 25.4015 20.5265 24.829C21.2066 24.2566 21.6632 23.4627 21.8161 22.587L25.0753 20.6342C25.37 20.4564 25.7074 20.3621 26.0516 20.3614C26.5618 20.3614 27.0512 20.5641 27.412 20.9249C27.7728 21.2858 27.9755 21.7752 27.9755 22.2855Z" fill="#CCCBF8"/>
<path d="M16.4891 9.56339H13.6176C13.0411 9.52582 12.4632 9.61194 11.9228 9.81597C11.3823 10.02 10.8917 10.3372 10.4838 10.7464C10.0759 11.1555 9.76018 11.6471 9.55779 12.1883C9.35541 12.7294 9.27103 13.3076 9.31032 13.884C9.27096 14.2703 9.3183 14.6604 9.44888 15.0261C9.57946 15.3917 9.78999 15.7236 10.0651 15.9975C10.3403 16.2714 10.6731 16.4805 11.0392 16.6094C11.4054 16.7384 11.7958 16.784 12.1818 16.7429H17.9248C18.3109 16.784 18.7012 16.7384 19.0674 16.6094C19.4336 16.4805 19.7664 16.2714 20.0415 15.9975C20.3166 15.7236 20.5272 15.3917 20.6577 15.0261C20.7883 14.6604 20.8357 14.2703 20.7963 13.884C20.8356 13.3076 20.7512 12.7294 20.5488 12.1883C20.3464 11.6471 20.0307 11.1555 19.6229 10.7464C19.215 10.3372 18.7243 10.02 18.1839 9.81597C17.6434 9.61194 17.0655 9.52582 16.4891 9.56339Z" fill="#CCCBF8"/>
<path d="M15.0586 7.40953C16.8427 7.40953 18.289 5.96307 18.289 4.17877C18.289 2.39446 16.8427 0.947998 15.0586 0.947998C13.2744 0.947998 11.8281 2.39446 11.8281 4.17877C11.8281 5.96307 13.2744 7.40953 15.0586 7.40953Z" fill="#4745B7"/>
</svg>
