<svg width="39" height="37" viewBox="0 0 39 37" fill="none" xmlns="http://www.w3.org/2000/svg">
<path d="M38.3099 16.648C35.8335 29.4203 19.6684 36.7776 19.6684 36.7776C19.6684 36.7776 3.50124 29.4203 1.02486 16.648C-0.495174 8.81367 2.82567 0.928642 11.2682 0.888531C17.5573 0.858975 19.6684 7.19655 19.6684 7.19655C19.6684 7.19655 21.7796 0.863197 28.0666 0.888531C36.5281 0.928642 39.8299 8.81367 38.3099 16.648Z" fill="#CCCBF8"/>
<path d="M21.7776 26.7493C21.707 26.7495 21.6364 26.7446 21.5665 26.7345C21.2726 26.6957 20.9955 26.5749 20.767 26.386C20.5385 26.1971 20.3678 25.9477 20.2745 25.6663L17.0761 16.0712L14.6504 19.7108C14.5059 19.9278 14.3101 20.1058 14.0802 20.2288C13.8504 20.3518 13.5937 20.4161 13.333 20.4159H9.11071C8.69077 20.4159 8.28804 20.2491 7.9911 19.9522C7.69416 19.6552 7.52734 19.2525 7.52734 18.8326C7.52734 18.4126 7.69416 18.0099 7.9911 17.713C8.28804 17.4161 8.69077 17.2492 9.11071 17.2492H12.4886L16.2401 11.621C16.4049 11.3748 16.6354 11.1798 16.9055 11.058C17.1756 10.9361 17.4743 10.8924 17.768 10.9318C18.0616 10.9711 18.3384 11.0919 18.5668 11.2805C18.7953 11.4692 18.9663 11.718 19.0606 11.9989L22.259 21.5939L24.6847 17.9543C24.8289 17.7376 25.0244 17.5599 25.2539 17.4369C25.4833 17.3139 25.7396 17.2494 25.9999 17.2492H30.2222C30.6422 17.2492 31.0449 17.4161 31.3418 17.713C31.6388 18.0099 31.8056 18.4126 31.8056 18.8326C31.8056 19.2525 31.6388 19.6552 31.3418 19.9522C31.0449 20.2491 30.6422 20.4159 30.2222 20.4159H26.8444L23.0929 26.0442C22.9484 26.2606 22.7528 26.4382 22.5234 26.5611C22.294 26.6841 22.0379 26.7487 21.7776 26.7493Z" fill="#4745B7"/>
</svg>
