<svg width="39" height="33" viewBox="0 0 39 33" fill="none" xmlns="http://www.w3.org/2000/svg">
<path d="M0.0598721 25.7043V6.76101C-0.0625103 5.90329 0.0164563 5.02886 0.290521 4.20694C0.564585 3.38502 1.02622 2.63818 1.63889 2.02554C2.25155 1.4129 2.99843 0.951282 3.82038 0.677228C4.64233 0.403175 5.5168 0.324211 6.37455 0.446588H31.6333C32.491 0.324211 33.3655 0.403175 34.1874 0.677228C35.0094 0.951282 35.7563 1.4129 36.3689 2.02554C36.9816 2.63818 37.4432 3.38502 37.7173 4.20694C37.9914 5.02886 38.0703 5.90329 37.9479 6.76101V25.7043C38.0703 26.562 37.9914 27.4364 37.7173 28.2583C37.4432 29.0803 36.9816 29.8271 36.3689 30.4397C35.7563 31.0524 35.0094 31.514 34.1874 31.7881C33.3655 32.0621 32.491 32.1411 31.6333 32.0187H6.37455C5.5168 32.1411 4.64233 32.0621 3.82038 31.7881C2.99843 31.514 2.25155 31.0524 1.63889 30.4397C1.02622 29.8271 0.564585 29.0803 0.290521 28.2583C0.0164563 27.4364 -0.0625103 26.562 0.0598721 25.7043Z" fill="#CCCBF8"/>
<path d="M8.17468 11.2861C8.17468 10.3911 8.4401 9.51613 8.93737 8.77194C9.43464 8.02775 10.1414 7.44773 10.9684 7.10521C11.7953 6.7627 12.7052 6.67309 13.5831 6.8477C14.4609 7.02231 15.2673 7.45331 15.9002 8.08618C16.5331 8.71906 16.9641 9.5254 17.1388 10.4032C17.3134 11.2811 17.2238 12.191 16.8812 13.0179C16.5387 13.8447 15.9587 14.5515 15.2144 15.0488C14.4702 15.546 13.5953 15.8114 12.7002 15.8114C11.5003 15.8103 10.3499 15.3332 9.5014 14.4847C8.65295 13.6363 8.17579 12.4859 8.17468 11.2861ZM14.0389 18.3372H11.3362C10.5615 18.2878 9.78483 18.3984 9.05466 18.6621C8.3245 18.9258 7.65646 19.3371 7.09213 19.8702C6.5278 20.4033 6.07927 21.0469 5.77447 21.7608C5.46966 22.4748 5.31512 23.2439 5.32045 24.0202V24.6516C5.32045 24.9307 5.43133 25.1984 5.6287 25.3958C5.82607 25.5931 6.09377 25.704 6.37289 25.704H19.0022C19.2814 25.704 19.5491 25.5931 19.7464 25.3958C19.9438 25.1984 20.0547 24.9307 20.0547 24.6516V24.0202C20.06 23.2439 19.9055 22.4748 19.6007 21.7608C19.2959 21.0469 18.8473 20.4033 18.283 19.8702C17.7187 19.3371 17.0506 18.9258 16.3205 18.6621C15.5903 18.3984 14.8137 18.2878 14.0389 18.3372Z" fill="#4745B7"/>
<path d="M31.635 13.4712H23.2154C22.7967 13.4712 22.3952 13.3049 22.0991 13.0088C21.803 12.7128 21.6367 12.3112 21.6367 11.8926C21.6367 11.4739 21.803 11.0724 22.0991 10.7763C22.3952 10.4803 22.7967 10.314 23.2154 10.314H31.635C32.0536 10.314 32.4552 10.4803 32.7512 10.7763C33.0473 11.0724 33.2136 11.4739 33.2136 11.8926C33.2136 12.3112 33.0473 12.7128 32.7512 13.0088C32.4552 13.3049 32.0536 13.4712 31.635 13.4712Z" fill="#4745B7"/>
<path d="M31.5262 22.021H25.2115C24.7928 22.021 24.3913 21.8547 24.0952 21.5586C23.7991 21.2626 23.6328 20.861 23.6328 20.4424C23.6328 20.0237 23.7991 19.6222 24.0952 19.3261C24.3913 19.0301 24.7928 18.8638 25.2115 18.8638H31.5262C31.9449 18.8638 32.3464 19.0301 32.6424 19.3261C32.9385 19.6222 33.1048 20.0237 33.1048 20.4424C33.1048 20.861 32.9385 21.2626 32.6424 21.5586C32.3464 21.8547 31.9449 22.021 31.5262 22.021Z" fill="#4745B7"/>
</svg>
