<svg width="38" height="39" viewBox="0 0 38 39" fill="none" xmlns="http://www.w3.org/2000/svg">
<path d="M14.7778 31.8991H8.44444V38.2324H0V29.788L13.2156 16.5724C12.8488 15.3826 12.6638 14.1442 12.6667 12.8991C12.6667 10.3939 13.4096 7.94489 14.8014 5.86187C16.1932 3.77885 18.1715 2.15533 20.486 1.19662C22.8005 0.23791 25.3474 -0.0129321 27.8045 0.475814C30.2616 0.96456 32.5186 2.17094 34.29 3.94241C36.0615 5.71387 37.2679 7.97086 37.7566 10.4279C38.2454 12.885 37.9945 15.4319 37.0358 17.7464C36.0771 20.0609 34.4536 22.0392 32.3706 23.431C30.2875 24.8229 27.8386 25.5658 25.3333 25.5658C24.0882 25.5687 22.8498 25.3836 21.66 25.0169L14.7778 31.8991Z" fill="#CCCBF8"/>
<path d="M27.4893 13.4267C26.7894 13.4295 26.1171 13.1542 25.6202 12.6613C25.1234 12.1683 24.8427 11.4982 24.8399 10.7984C24.8371 10.0985 25.1124 9.42617 25.6053 8.9293C26.0982 8.43244 26.7683 8.15173 27.4682 8.14893H27.4893C28.1892 8.14893 28.8604 8.42695 29.3553 8.92184C29.8502 9.41673 30.1282 10.0879 30.1282 10.7878C30.1282 11.4877 29.8502 12.1589 29.3553 12.6538C28.8604 13.1487 28.1892 13.4267 27.4893 13.4267Z" fill="#4745B7"/>
</svg>
