<svg width="38" height="38" viewBox="0 0 38 38" fill="none" xmlns="http://www.w3.org/2000/svg">
<path d="M3.16662 16.8889H6.75544C6.92341 16.8889 7.0845 16.9556 7.20327 17.0744C7.32204 17.1932 7.38877 17.3543 7.38877 17.5222V37.3667C7.38877 37.5347 7.32204 37.6958 7.20327 37.8145C7.0845 37.9333 6.92341 38 6.75544 38H3.16662C2.32678 38 1.52134 37.6664 0.92748 37.0725C0.333625 36.4787 0 35.6732 0 34.8334V20.0556C0 19.2157 0.333625 18.4103 0.92748 17.8164C1.52134 17.2225 2.32678 16.8889 3.16662 16.8889Z" fill="#4745B7"/>
<path d="M37.4667 21.0056L33.2445 33.6722C32.379 36.2478 31.4712 38 27.228 38H11.188C11.02 38 10.859 37.9333 10.7402 37.8145C10.6214 37.6957 10.5547 37.5346 10.5547 37.3667V16.9902C10.5546 16.9228 10.5653 16.8558 10.5864 16.7918L15.4102 2.17445C15.6453 1.53591 16.0709 0.984969 16.6293 0.596089C17.1877 0.20721 17.852 -0.000860154 18.5324 2.67265e-06C19.1942 0.00392346 19.8401 0.202127 20.3902 0.570002C21.2611 1.14262 21.9758 1.9229 22.47 2.84056C22.9642 3.75821 23.2223 4.7844 23.2211 5.82667V12.6667H31.4543C37.8045 12.6667 38.8431 16.91 37.4667 21.0056Z" fill="#CCCBF8"/>
</svg>
