<svg width="40" height="40" viewBox="0 0 40 40" fill="none" xmlns="http://www.w3.org/2000/svg">
<path d="M4.16662 17.8887H7.75544C7.92341 17.8887 8.0845 17.9554 8.20327 18.0742C8.32204 18.1929 8.38877 18.354 8.38877 18.522V38.3664C8.38877 38.5344 8.32204 38.6955 8.20327 38.8143C8.0845 38.9331 7.92341 38.9998 7.75544 38.9998H4.16662C3.32678 38.9998 2.52134 38.6661 1.92748 38.0723C1.33362 37.4784 1 36.673 1 35.8331V21.0553C1 20.2155 1.33362 19.41 1.92748 18.8162C2.52134 18.2223 3.32678 17.8887 4.16662 17.8887Z" fill="#4745B7"/>
<path d="M38.4667 22.0056L34.2445 34.6722C33.379 37.2478 32.4712 39 28.228 39H12.188C12.02 39 11.859 38.9333 11.7402 38.8145C11.6214 38.6957 11.5547 38.5346 11.5547 38.3667V17.9902C11.5546 17.9228 11.5653 17.8558 11.5864 17.7918L16.4102 3.17445C16.6453 2.53591 17.0709 1.98497 17.6293 1.59609C18.1877 1.20721 18.852 0.99914 19.5324 1C20.1942 1.00392 20.8401 1.20213 21.3902 1.57C22.2611 2.14262 22.9758 2.9229 23.47 3.84056C23.9642 4.75821 24.2223 5.7844 24.2211 6.82667V13.6667H32.4543C38.8045 13.6667 39.8431 17.91 38.4667 22.0056Z" fill="#CCCBF8"/>
</svg>
