<svg width="41" height="41" viewBox="0 0 41 41" fill="none" xmlns="http://www.w3.org/2000/svg">
<path d="M18.369 24.645C17.865 24.6449 17.3818 24.4446 17.0255 24.0881C15.4257 22.5095 14.4488 20.4068 14.2743 18.1661C14.0998 15.9253 14.7392 13.6967 16.0753 11.8894C16.352 11.4812 16.6704 11.1028 17.0255 10.7605L23.4107 4.37324C25.1783 2.60589 27.5755 1.6131 30.075 1.61328C32.5745 1.61346 34.9716 2.60659 36.7389 4.37419C38.5062 6.14179 39.499 8.53908 39.4988 11.0387C39.4986 13.5383 38.5055 15.9354 36.738 17.7027L33.2413 21.1995C33.066 21.381 32.8563 21.5258 32.6244 21.6254C32.3926 21.725 32.1432 21.7774 31.8909 21.7796C31.6386 21.7818 31.3883 21.7337 31.1548 21.6382C30.9212 21.5426 30.7091 21.4015 30.5306 21.2231C30.3522 21.0446 30.2111 20.8324 30.1155 20.5989C30.02 20.3653 29.9719 20.1151 29.9741 19.8628C29.9763 19.6104 30.0287 19.361 30.1283 19.1292C30.2279 18.8973 30.3727 18.6876 30.5542 18.5123L34.0509 15.0156C35.1034 13.9594 35.6944 12.5291 35.6944 11.038C35.6944 9.54689 35.1034 8.11659 34.0509 7.06043C32.9796 6.03754 31.5555 5.46679 30.0743 5.46679C28.5932 5.46679 27.169 6.03754 26.0978 7.06043L19.7145 13.4458C19.5251 13.6298 19.3544 13.8323 19.2052 14.0501C18.385 15.1291 17.9846 16.4692 18.0783 17.8213C18.1719 19.1733 18.7534 20.4454 19.7145 21.401C19.9802 21.6667 20.1611 22.0053 20.2344 22.3739C20.3077 22.7425 20.27 23.1245 20.1262 23.4717C19.9824 23.819 19.7389 24.1157 19.4265 24.3246C19.1141 24.5334 18.7448 24.6449 18.369 24.645Z" fill="#4745B7"/>
<path d="M10.923 39.6201C9.05903 39.6196 7.23709 39.0664 5.68749 38.0305C4.13788 36.9946 2.93019 35.5225 2.21709 33.8003C1.50398 32.0781 1.31748 30.1831 1.68116 28.3549C2.04484 26.5268 2.94237 24.8475 4.26029 23.5293L7.75697 20.0326C7.93227 19.851 8.14197 19.7063 8.37382 19.6067C8.60567 19.5071 8.85504 19.4546 9.10737 19.4525C9.3597 19.4503 9.60994 19.4983 9.84349 19.5939C10.077 19.6895 10.2892 19.8306 10.4676 20.009C10.6461 20.1874 10.7872 20.3996 10.8827 20.6332C10.9783 20.8667 11.0264 21.117 11.0242 21.3693C11.022 21.6216 10.9696 21.871 10.87 22.1029C10.7704 22.3347 10.6256 22.5444 10.4441 22.7197L6.94741 26.2165C5.89487 27.2727 5.30385 28.703 5.30385 30.1941C5.30385 31.6852 5.89487 33.1155 6.94741 34.1716C8.01863 35.1945 9.4428 35.7653 10.9239 35.7653C12.4051 35.7653 13.8292 35.1945 14.9005 34.1716L21.2838 27.7862C21.873 27.2051 22.321 26.4964 22.5931 25.7148C22.9637 24.7108 23.0373 23.6213 22.8051 22.5765C22.5729 21.5318 22.0448 20.576 21.2838 19.8235C21.1023 19.6482 20.9575 19.4385 20.8579 19.2066C20.7583 18.9748 20.7059 18.7254 20.7037 18.4731C20.7015 18.2207 20.7496 17.9705 20.8451 17.7369C20.9407 17.5034 21.0818 17.2912 21.2602 17.1128C21.4387 16.9343 21.6508 16.7932 21.8844 16.6977C22.1179 16.6021 22.3682 16.554 22.6205 16.5562C22.8728 16.5584 23.1222 16.6108 23.3541 16.7104C23.5859 16.81 23.7956 16.9548 23.9709 17.1363C25.2279 18.3972 26.1027 19.9879 26.4941 21.7248C26.8855 23.4616 26.7776 25.2738 26.1829 26.952C25.7243 28.2772 24.9676 29.4794 23.9709 30.4658L17.5876 36.8512C16.7149 37.7305 15.6766 38.4279 14.5326 38.9032C13.3886 39.3784 12.1617 39.6221 10.923 39.6201Z" fill="#CCCBF8"/>
</svg>
