<svg width="32" height="33" viewBox="0 0 32 33" fill="none" xmlns="http://www.w3.org/2000/svg">
<path fill-rule="evenodd" clip-rule="evenodd" d="M29.997 2.61475L23.1685 13.3637L23.1529 13.3481C21.5549 11.753 19.4683 10.7397 17.2266 10.4703L22.2196 2.61475H29.997Z" fill="#396CE8"/>
<path fill-rule="evenodd" clip-rule="evenodd" d="M14.7704 10.4703C12.5287 10.7397 10.4421 11.753 8.84406 13.3481L8.8285 13.3637L2 2.61475H9.77734L14.7704 10.4703Z" fill="#396CE8"/>
<path fill-rule="evenodd" clip-rule="evenodd" d="M29.997 2.61475L23.1685 13.3637L23.1529 13.3481C21.5549 11.753 19.4683 10.7397 17.2266 10.4703L22.2196 2.61475H29.997Z" fill="#4745B7"/>
<path fill-rule="evenodd" clip-rule="evenodd" d="M14.7704 10.4703C12.5287 10.7397 10.4421 11.753 8.84406 13.3481L8.8285 13.3637L2 2.61475H9.77734L14.7704 10.4703Z" fill="#4745B7"/>
<path d="M16.0012 30.6148C21.5851 30.6148 26.1117 26.0879 26.1117 20.5037C26.1117 14.9195 21.5851 10.3926 16.0012 10.3926C10.4173 10.3926 5.89062 14.9195 5.89062 20.5037C5.89062 26.0879 10.4173 30.6148 16.0012 30.6148Z" fill="#CCCBF8"/>
<path d="M14.6992 24.2633C14.546 24.2635 14.3943 24.2333 14.2528 24.1746C14.1114 24.1158 13.9829 24.0297 13.8748 23.9211L11.2819 21.328C11.0758 21.1068 10.9636 20.8143 10.9689 20.5121C10.9743 20.2098 11.0967 19.9215 11.3104 19.7077C11.5242 19.494 11.8125 19.3715 12.1148 19.3662C12.417 19.3608 12.7095 19.473 12.9306 19.6791L14.6992 21.4462L19.0545 17.0907C19.2746 16.8783 19.5694 16.7608 19.8753 16.7636C20.1811 16.7664 20.4737 16.8892 20.6899 17.1056C20.9061 17.3221 21.0286 17.6147 21.0311 17.9206C21.0337 18.2265 20.9159 18.5212 20.7033 18.7411L15.5283 23.9258C15.4193 24.0341 15.2899 24.1197 15.1476 24.1776C15.0052 24.2356 14.8529 24.2647 14.6992 24.2633Z" fill="#4745B7"/>
</svg>
