<svg width="60" height="60" viewBox="0 0 60 60" fill="none" xmlns="http://www.w3.org/2000/svg">
<path d="M24.2353 45.1395C18.1086 44.0587 15.5884 40.4541 16.6749 34.3259L20.4243 13.0012V12.9816L9.81445 14.8492C3.68582 15.9374 1.16566 19.5466 2.254 25.6767L6.58026 50.1934C7.63499 56.3236 11.2332 58.8435 17.3749 57.7534L35.7636 54.5166C40.0591 53.741 42.61 51.7166 43.2933 48.4826L43.2737 48.4491C43.0552 48.4183 42.8564 48.4182 42.6324 48.379L24.2353 45.1395Z" fill="#4745B7"/>
<path d="M50.1853 5.4832L31.8022 2.24361C25.6736 1.16281 22.0688 3.68281 20.9879 9.80359L20.4279 12.99L16.6645 34.3259C15.5855 40.4542 18.1056 44.0587 24.2249 45.1395L42.6108 48.3791C42.8349 48.4183 43.0337 48.4183 43.2521 48.4491C48.9756 49.2359 52.3834 46.7103 53.4251 40.8079L57.7458 16.2968C58.8341 10.1704 56.3139 6.56586 50.1853 5.4832Z" fill="#CCCBF8"/>
<path d="M46.4024 29.0311C46.2804 29.032 46.1585 29.0217 46.0384 29.0003L27.6525 25.758C27.1129 25.652 26.6365 25.3387 26.3254 24.8853C26.0144 24.432 25.8935 23.8747 25.9888 23.3333C26.0842 22.7918 26.3881 22.3093 26.8352 21.9894C27.2824 21.6695 27.8372 21.5377 28.3805 21.6224L46.7636 24.8648C47.2786 24.9579 47.7403 25.2401 48.0581 25.6559C48.376 26.0717 48.5271 26.5912 48.4819 27.1126C48.4367 27.634 48.1984 28.1197 47.8138 28.4746C47.4291 28.8295 46.9258 29.028 46.4024 29.0311ZM50.4374 18.1644C50.4854 17.8926 50.4793 17.6141 50.4195 17.3447C50.3597 17.0753 50.2474 16.8204 50.0891 16.5944C49.9307 16.3684 49.7293 16.1759 49.4965 16.0278C49.2637 15.8796 49.0039 15.7789 48.7321 15.7312L30.3406 12.4916C29.7973 12.407 29.2425 12.5387 28.7954 12.8586C28.3482 13.1785 28.0443 13.661 27.949 14.2025C27.8536 14.744 27.9745 15.3012 28.2855 15.7546C28.5966 16.2079 29.0731 16.5212 29.6126 16.6272L47.9985 19.8696C48.1196 19.8908 48.2424 19.9011 48.3653 19.9004C48.86 19.9018 49.3392 19.7284 49.7184 19.4107C50.0976 19.0931 50.3522 18.6516 50.4374 18.1644ZM39.948 35.3199C39.9959 35.0482 39.9898 34.7697 39.9301 34.5003C39.8703 34.2309 39.758 33.9759 39.5996 33.7499C39.4413 33.524 39.2399 33.3314 39.0071 33.1833C38.7742 33.0352 38.5145 32.9344 38.2427 32.8867L26.762 30.8595C26.2132 30.763 25.6485 30.8884 25.1922 31.2082C24.7358 31.528 24.4252 32.0159 24.3287 32.5647C24.2321 33.1135 24.3575 33.6782 24.6773 34.1345C24.9972 34.5908 25.4851 34.9014 26.034 34.9979L37.5147 37.0223C37.6347 37.0446 37.7566 37.0558 37.8787 37.0559C38.3727 37.0562 38.851 36.8822 39.2295 36.5647C39.608 36.2472 39.8624 35.8064 39.948 35.3199Z" fill="#4745B7"/>
</svg>
