<svg width="39" height="39" viewBox="0 0 39 39" fill="none" xmlns="http://www.w3.org/2000/svg">
<path d="M0.625 27.2041V37.3374H10.7581L30.5927 17.5936L20.3684 7.37109L0.625 27.2041Z" fill="#CCCBF8"/>
<path d="M35.9155 6.56024L31.4001 2.04482C31.0236 1.66735 30.5763 1.36787 30.0839 1.16353C29.5915 0.959187 29.0636 0.854004 28.5304 0.854004C27.9973 0.854004 27.4694 0.959187 26.977 1.16353C26.4845 1.36787 26.0372 1.66735 25.6607 2.04482L20.3672 7.3709L30.5915 17.5934L35.9094 12.2977C36.2869 11.9216 36.5866 11.4748 36.7913 10.9828C36.996 10.4907 37.1016 9.96316 37.1022 9.43024C37.1028 8.89733 36.9982 8.36954 36.7946 7.87707C36.591 7.3846 36.2922 6.93712 35.9155 6.56024Z" fill="#4745B7"/>
<path d="M37.1048 38.8569H22.9184C22.5153 38.8569 22.1287 38.6968 21.8436 38.4117C21.5586 38.1266 21.3984 37.74 21.3984 37.3369C21.3984 36.9338 21.5586 36.5471 21.8436 36.2621C22.1287 35.977 22.5153 35.8169 22.9184 35.8169H37.1048C37.5079 35.8169 37.8945 35.977 38.1796 36.2621C38.4646 36.5471 38.6247 36.9338 38.6247 37.3369C38.6247 37.74 38.4646 38.1266 38.1796 38.4117C37.8945 38.6968 37.5079 38.8569 37.1048 38.8569Z" fill="#4745B7"/>
</svg>
