<svg width="32" height="32" viewBox="0 0 32 32" fill="none" xmlns="http://www.w3.org/2000/svg">
<path d="M29.3276 16H26.994C26.1688 16 25.3774 16.3278 24.7939 16.9112C24.2104 17.4947 23.8826 18.286 23.8826 19.1111C23.8826 19.9362 24.2104 20.7276 24.7939 21.311C25.3774 21.8944 26.1688 22.2222 26.994 22.2222H29.3276C29.5339 22.2222 29.7318 22.3042 29.8776 22.45C30.0235 22.5959 30.1055 22.7937 30.1055 23V26.8889C30.1055 27.714 29.7777 28.5053 29.1942 29.0888C28.6106 29.6722 27.8192 30 26.994 30H21.549C21.3427 30 21.1449 29.9181 20.999 29.7722C20.8531 29.6263 20.7712 29.4285 20.7712 29.2222V26.8889C20.7712 26.0638 20.4434 25.2724 19.8599 24.689C19.2764 24.1056 18.4849 23.7778 17.6597 23.7778C16.8345 23.7778 16.0431 24.1056 15.4596 24.689C14.8761 25.2724 14.5483 26.0638 14.5483 26.8889V29.2222C14.5483 29.4285 14.4664 29.6263 14.3205 29.7722C14.1746 29.9181 13.9768 30 13.7705 30H9.88117C9.05596 30 8.26456 29.6722 7.68105 29.0888C7.09755 28.5053 6.76974 27.714 6.76974 26.8889V23C6.76974 22.7937 6.68778 22.5959 6.54191 22.45C6.39603 22.3042 6.19818 22.2222 5.99188 22.2222H3.65831C2.8331 22.2222 2.0417 21.8944 1.45819 21.311C0.874685 20.7276 0.546875 19.9362 0.546875 19.1111C0.546875 18.286 0.874685 17.4947 1.45819 16.9112C2.0417 16.3278 2.8331 16 3.65831 16H5.99188C6.19818 16 6.39603 15.9181 6.54191 15.7722C6.68778 15.6263 6.76974 15.4285 6.76974 15.2222V11.3333C6.76974 10.5082 7.09755 9.71689 7.68105 9.13345C8.26456 8.55 9.05596 8.22222 9.88117 8.22222H13.7705C13.9768 8.22222 14.1746 8.14028 14.3205 7.99442C14.4664 7.84855 14.5483 7.65072 14.5483 7.44444V5.11111C14.5483 4.28599 14.8761 3.49467 15.4596 2.91122C16.0431 2.32778 16.8345 2 17.6597 2C18.4849 2 19.2764 2.32778 19.8599 2.91122C20.4434 3.49467 20.7712 4.28599 20.7712 5.11111V7.44444C20.7712 7.65072 20.8531 7.84855 20.999 7.99442C21.1449 8.14028 21.3427 8.22222 21.549 8.22222H26.994C27.8192 8.22222 28.6106 8.55 29.1942 9.13345C29.7777 9.71689 30.1055 10.5082 30.1055 11.3333V15.2222C30.1055 15.4285 30.0235 15.6263 29.8776 15.7722C29.7318 15.9181 29.5339 16 29.3276 16Z" fill="#CCCBF8"/>
</svg>
