<svg width="32" height="32" viewBox="0 0 32 32" fill="none" xmlns="http://www.w3.org/2000/svg">
<path d="M30.1716 30.1715C30.0678 30.2757 29.9445 30.3584 29.8087 30.4148C29.6728 30.4712 29.5272 30.5003 29.3801 30.5003C29.233 30.5003 29.0874 30.4712 28.9516 30.4148C28.8158 30.3584 28.6924 30.2757 28.5886 30.1715L22.0625 23.6456C22.6411 23.1715 23.1714 22.6413 23.6455 22.0627L30.1716 28.5886C30.3799 28.7993 30.4967 29.0837 30.4967 29.38C30.4967 29.6763 30.3799 29.9607 30.1716 30.1715Z" fill="#4745B7"/>
<path d="M13.9471 25.8933C20.5454 25.8933 25.8943 20.5446 25.8943 13.9467C25.8943 7.34871 20.5454 2 13.9471 2C7.34891 2 2 7.34871 2 13.9467C2 20.5446 7.34891 25.8933 13.9471 25.8933Z" fill="#CCCBF8"/>
</svg>
