<svg width="39" height="38" viewBox="0 0 39 38" fill="none" xmlns="http://www.w3.org/2000/svg">
<path d="M31.9462 33.0756L38.8665 5.39191C39.0482 4.66539 39.0387 3.90419 38.8388 3.18246C38.6389 2.46072 38.2556 1.80305 37.726 1.2735C37.1965 0.743948 36.5388 0.360568 35.8171 0.1607C35.0954 -0.0391675 34.3342 -0.04871 33.6077 0.133002L5.92453 7.05339C4.50941 7.40641 3.25407 8.22496 2.36024 9.37748C1.46642 10.53 0.986023 11.9496 0.996254 13.408C1.00649 14.8665 1.50675 16.2792 2.41666 17.4191C3.32656 18.5589 4.59326 19.3598 6.01319 19.6929L16.7799 22.2263L19.3133 32.9932C19.6495 34.4101 20.4516 35.673 21.5911 36.5798C22.7305 37.4865 24.1413 37.9845 25.5974 37.994C27.0536 38.0035 28.4708 37.5239 29.6219 36.6321C30.7731 35.7403 31.5916 34.4879 31.9462 33.0756Z" fill="#CCCBF8"/>
<path d="M27.457 13.7856L17.1948 24.0459L16.7726 22.2303L14.957 21.808L25.2171 11.5478C25.5156 11.2592 25.9155 11.0994 26.3306 11.1028C26.7458 11.1062 27.143 11.2726 27.4367 11.566C27.7304 11.8594 27.8971 12.2565 27.9009 12.6717C27.9047 13.0868 27.7453 13.4868 27.457 13.7856Z" fill="#4745B7"/>
</svg>
