<svg width="40" height="40" viewBox="0 0 40 40" fill="none" xmlns="http://www.w3.org/2000/svg">
<path d="M11.9544 32.8186C10.9868 32.259 9.8888 31.9644 8.77106 31.9644C7.65332 31.9644 6.55533 32.259 5.58776 32.8186C5.50777 32.8648 5.41945 32.8948 5.32786 32.9069C5.23628 32.9189 5.14321 32.9128 5.05399 32.8889C4.96476 32.865 4.88112 32.8237 4.80785 32.7674C4.73458 32.7112 4.67311 32.641 4.62696 32.561L1.08996 26.4583C0.997153 26.2972 0.97193 26.1059 1.01981 25.9262C1.0677 25.7466 1.18479 25.5932 1.34547 25.4996H1.36659C2.33022 24.9433 3.13031 24.1429 3.68635 23.1791C4.24239 22.2153 4.53476 21.122 4.53405 20.0093C4.53284 18.897 4.23966 17.8045 3.68381 16.841C3.12796 15.8775 2.32892 15.0768 1.36659 14.519C1.28714 14.4731 1.21753 14.412 1.16177 14.3391C1.106 14.2662 1.06518 14.1831 1.04163 14.0944C1.01809 14.0057 1.01229 13.9133 1.02457 13.8223C1.03685 13.7314 1.06697 13.6438 1.11319 13.5645L4.62274 7.45128C4.71628 7.29116 4.86928 7.17448 5.04843 7.12662C5.22759 7.07877 5.41839 7.10362 5.57931 7.19577C6.54745 7.75596 7.6462 8.05094 8.76473 8.05094C9.88325 8.05094 10.982 7.75596 11.9501 7.19577C12.9123 6.63879 13.7109 5.83842 14.2658 4.87507C14.8207 3.91171 15.1123 2.8193 15.1113 1.70756C15.1118 1.51919 15.187 1.33873 15.3204 1.20573C15.4538 1.07273 15.6345 0.998046 15.8229 0.998047H24.1765C24.3649 0.998046 24.5456 1.07273 24.679 1.20573C24.8124 1.33873 24.8876 1.51919 24.8882 1.70756C24.8884 2.81689 25.1799 3.9067 25.7335 4.86799C26.2872 5.82928 27.0836 6.62833 28.043 7.18521C29.0111 7.74541 30.1098 8.04038 31.2284 8.04038C32.3469 8.04038 33.4456 7.74541 34.4138 7.18521C34.5748 7.09267 34.766 7.06783 34.9454 7.11613C35.1247 7.16443 35.2776 7.28193 35.3704 7.44283L38.9031 13.5371C38.9953 13.698 39.0201 13.8888 38.9723 14.068C38.9244 14.2471 38.8077 14.4001 38.6476 14.4937H38.6307C37.6671 15.05 36.867 15.8504 36.311 16.8142C35.7549 17.778 35.4626 18.8713 35.4633 19.984C35.4645 21.0963 35.7577 22.1888 36.3135 23.1523C36.8694 24.1158 37.6684 24.9165 38.6307 25.4743C38.7102 25.5202 38.7798 25.5813 38.8356 25.6542C38.8913 25.727 38.9321 25.8102 38.9557 25.8989C38.9792 25.9876 38.985 26.08 38.9728 26.171C38.9605 26.2619 38.9304 26.3495 38.8841 26.4288L35.3514 32.5272C35.2578 32.6873 35.1048 32.804 34.9257 32.8519C34.7465 32.8997 34.5557 32.8749 34.3948 32.7827C33.4266 32.2225 32.3279 31.9276 31.2094 31.9276C30.0908 31.9276 28.9921 32.2225 28.024 32.7827C27.0603 33.3391 26.2602 34.1395 25.7042 35.1033C25.1482 36.0671 24.8558 37.1603 24.8565 38.2731C24.8565 38.3664 24.8381 38.4588 24.8023 38.5451C24.7665 38.6313 24.714 38.7096 24.6479 38.7755C24.5818 38.8414 24.5034 38.8936 24.417 38.9292C24.3307 38.9647 24.2382 38.9829 24.1449 38.9826H15.8166C15.7233 38.9829 15.6309 38.9647 15.5447 38.9291C15.4585 38.8936 15.3802 38.8413 15.3142 38.7754C15.2483 38.7094 15.196 38.6311 15.1605 38.5449C15.1249 38.4587 15.1068 38.3663 15.107 38.2731C15.103 37.1679 14.8099 36.083 14.2568 35.1262C13.7037 34.1693 12.91 33.3738 11.9544 32.8186Z" fill="#CCCBF8"/>
<path d="M20.0029 26.3379C23.5016 26.3379 26.3378 23.5017 26.3378 20.0029C26.3378 16.5042 23.5016 13.668 20.0029 13.668C16.5042 13.668 13.668 16.5042 13.668 20.0029C13.668 23.5017 16.5042 26.3379 20.0029 26.3379Z" fill="#4745B7"/>
</svg>
