<svg width="20" height="22" viewBox="0 0 20 22" fill="none" xmlns="http://www.w3.org/2000/svg">
<path d="M19.8001 3.30002C16.3485 2.74746 13.0108 1.63266 9.91986 0C6.81146 1.62451 3.4621 2.73874 0 3.30002V9.77796C0 17.1117 6.23374 20.778 9.90006 22.0001C13.5664 20.778 19.8001 17.1117 19.8001 9.77796V3.30002Z" fill="#CCCBF8"/>
<path d="M8.81231 14.0248C8.70379 14.0251 8.59628 14.0038 8.49602 13.9623C8.39576 13.9207 8.30473 13.8597 8.22821 13.7828L6.0282 11.5827C5.87799 11.4271 5.79493 11.2186 5.79691 11.0023C5.79889 10.786 5.88575 10.5791 6.03879 10.4262C6.19182 10.2733 6.39879 10.1867 6.6151 10.1849C6.83142 10.1831 7.03978 10.2664 7.1953 10.4167L8.81231 12.0326L12.6282 8.21673C12.7838 8.06637 12.9921 7.98311 13.2084 7.98489C13.4248 7.98667 13.6317 8.07334 13.7848 8.22623C13.9378 8.37912 14.0247 8.586 14.0266 8.80231C14.0286 9.01863 13.9456 9.22706 13.7953 9.38273L9.39532 13.7828C9.319 13.8597 9.22817 13.9207 9.12809 13.9622C9.02801 14.0038 8.92067 14.025 8.81231 14.0248Z" fill="#4745B7"/>
</svg>
