<svg width="29" height="29" viewBox="0 0 29 29" fill="none" xmlns="http://www.w3.org/2000/svg">
<path d="M13.5916 23.2046C11.8467 23.2002 10.1631 22.5606 8.85553 21.4053C7.54793 20.25 6.70582 18.6581 6.4866 16.9271C6.26737 15.1961 6.68605 13.4446 7.66436 11.9998C8.64267 10.555 10.1137 9.51594 11.8024 9.07676C11.9867 9.02546 12.1794 9.0115 12.3692 9.03572C12.559 9.05994 12.7421 9.12185 12.9076 9.2178C13.0732 9.31375 13.2179 9.44182 13.3332 9.59448C13.4485 9.74713 13.5322 9.9213 13.5793 10.1067C13.6264 10.2922 13.6359 10.4852 13.6074 10.6744C13.5788 10.8635 13.5127 11.0451 13.413 11.2084C13.3133 11.3717 13.1819 11.5134 13.0267 11.6252C12.8714 11.737 12.6954 11.8167 12.5089 11.8595C11.7733 12.0492 11.1009 12.43 10.56 12.9633C10.019 13.4966 9.62869 14.1634 9.4286 14.8962C9.22852 15.629 9.22578 16.4017 9.42066 17.1359C9.61553 17.8701 10.0011 18.5397 10.5383 19.0768C11.0754 19.6139 11.7451 19.9995 12.4793 20.1944C13.2135 20.3892 13.9863 20.3865 14.7191 20.1864C15.4519 19.9863 16.1188 19.5961 16.6522 19.0551C17.1855 18.5142 17.5663 17.8419 17.756 17.1063C17.8017 16.9227 17.8833 16.7499 17.996 16.5979C18.1088 16.446 18.2504 16.3178 18.4129 16.2207C18.5753 16.1237 18.7554 16.0597 18.9426 16.0324C19.1299 16.0052 19.3207 16.0152 19.5041 16.0619C19.6875 16.1087 19.8598 16.1912 20.0112 16.3048C20.1625 16.4183 20.29 16.5607 20.3861 16.7237C20.4823 16.8866 20.5453 17.067 20.5715 17.2544C20.5977 17.4418 20.5867 17.6325 20.5389 17.8156C20.1453 19.3586 19.2485 20.7263 17.9902 21.7024C16.7319 22.6784 15.1841 23.207 13.5916 23.2046Z" fill="#4745B7"/>
<path d="M13.5879 28.9481C10.1603 28.9481 6.87307 27.5866 4.44937 25.163C2.02568 22.7395 0.664062 19.4524 0.664062 16.025C0.664062 12.5976 2.02568 9.31056 4.44937 6.88701C6.87307 4.46346 10.1603 3.10193 13.5879 3.10193C13.8998 3.10189 14.2114 3.11915 14.5213 3.15362C14.7128 3.16916 14.8992 3.22296 15.0695 3.31184C15.2399 3.40072 15.3906 3.52287 15.5129 3.67106C15.6351 3.81925 15.7264 3.99046 15.7813 4.17456C15.8362 4.35865 15.8536 4.55189 15.8324 4.74283C15.8113 4.93377 15.752 5.11852 15.6582 5.28615C15.5644 5.45379 15.4378 5.60088 15.2861 5.71874C15.1344 5.8366 14.9606 5.92281 14.775 5.97228C14.5893 6.02176 14.3956 6.03348 14.2054 6.00675C14.0003 5.98505 13.7942 5.97403 13.5879 5.97373C11.5998 5.97373 9.65641 6.56323 8.00339 7.66768C6.35036 8.77213 5.06199 10.3419 4.30118 12.1786C3.54038 14.0152 3.34132 16.0362 3.72917 17.9859C4.11703 19.9357 5.07438 21.7267 6.48016 23.1324C7.88594 24.5381 9.67702 25.4954 11.6269 25.8832C13.5768 26.271 15.5979 26.072 17.4346 25.3112C19.2714 24.5504 20.8412 23.2621 21.9458 21.6092C23.0503 19.9563 23.6398 18.013 23.6398 16.025C23.6396 15.8202 23.6286 15.6155 23.6068 15.4119C23.5636 15.0338 23.6722 14.654 23.9089 14.3559C24.1456 14.0578 24.4909 13.8659 24.869 13.8224C25.0569 13.7982 25.2477 13.812 25.4302 13.8629C25.6127 13.9138 25.7831 14.0008 25.9313 14.1188C26.0795 14.2368 26.2026 14.3833 26.2932 14.5496C26.3838 14.716 26.44 14.8989 26.4586 15.0874C26.4942 15.3987 26.512 15.7117 26.5118 16.025C26.508 19.4513 25.1451 22.7361 22.7223 25.1588C20.2994 27.5816 17.0144 28.9443 13.5879 28.9481Z" fill="#CCCBF8"/>
<path d="M28.6097 7.13547C28.5554 7.00418 28.4634 6.89194 28.3453 6.81296C28.2272 6.73397 28.0884 6.6918 27.9463 6.69178H22.9203V1.66613C22.9206 1.52395 22.8786 1.38489 22.7997 1.26659C22.7209 1.14829 22.6086 1.05607 22.4773 1.00162C22.3459 0.947176 22.2014 0.932957 22.0619 0.960765C21.9225 0.988574 21.7944 1.05716 21.694 1.15783L18.0179 4.83516C17.4812 5.37493 17.1789 6.10441 17.1764 6.86552V10.405L12.5712 15.0099C12.4341 15.1424 12.3247 15.3008 12.2494 15.476C12.1741 15.6512 12.1345 15.8396 12.1329 16.0303C12.1312 16.221 12.1675 16.41 12.2397 16.5865C12.3119 16.763 12.4186 16.9233 12.5534 17.0581C12.6882 17.1929 12.8486 17.2995 13.025 17.3717C13.2015 17.4439 13.3906 17.4803 13.5813 17.4786C13.7719 17.477 13.9604 17.4373 14.1356 17.3621C14.3108 17.2868 14.4692 17.1774 14.6017 17.0403L19.2069 12.4354H22.7466C23.5079 12.4335 24.2376 12.1311 24.7771 11.5939L28.4546 7.91804C28.555 7.81756 28.6233 7.68957 28.6509 7.55028C28.6785 7.41098 28.6642 7.26663 28.6097 7.13547Z" fill="#4745B7"/>
</svg>
