<svg width="56" height="56" viewBox="0 0 56 56" fill="none" xmlns="http://www.w3.org/2000/svg">
<path d="M23.2249 7.99511C24.6082 5.81543 26.485 3.99188 28.7036 2.67191C31.1101 1.19113 33.8312 0.297341 36.647 0.0627788C39.4628 -0.171784 42.2943 0.259464 44.9126 1.32167L38.1584 8.10711C37.2981 8.97672 36.8156 10.1506 36.8156 11.3738C36.8156 12.5971 37.2981 13.7709 38.1584 14.6405L41.3473 17.8295C42.2173 18.689 43.391 19.171 44.614 19.171C45.837 19.171 47.0107 18.689 47.8807 17.8295L54.6661 11.0783C55.7305 13.7023 56.1602 16.5407 55.9202 19.3623C55.6801 22.1839 54.7771 24.9089 53.2847 27.3154C51.8782 29.663 49.914 31.6272 47.5664 33.0337C43.9831 35.2384 39.7409 36.119 35.5761 35.5227C34.8741 35.4268 34.1594 35.4958 33.4887 35.7243C32.818 35.9527 32.2097 36.3343 31.7121 36.8387L15.1671 53.3994C13.5003 55.065 11.2404 56.0006 8.88414 56.0006C6.52783 56.0006 4.26794 55.065 2.6012 53.3994C0.935615 51.7326 0 49.4727 0 47.1164C0 44.7601 0.935615 42.5002 2.6012 40.8334L19.1649 24.2665C19.6693 23.7695 20.0508 23.1618 20.2793 22.4916C20.5077 21.8213 20.5767 21.1071 20.4809 20.4055C19.8813 16.2333 20.769 11.983 22.9885 8.39956C23.0662 8.25644 23.144 8.12578 23.2249 7.99511Z" fill="#CCCBF8"/>
<path d="M9.39236 49.778C8.9838 49.78 8.57883 49.7016 8.20059 49.5471C7.82235 49.3927 7.47823 49.1652 7.18789 48.8777C6.60153 48.2972 6.26979 47.5075 6.26566 46.6824C6.26154 45.8572 6.58536 45.0643 7.16589 44.4779C7.74643 43.8915 8.53612 43.5598 9.36125 43.5557H9.39236C10.2175 43.5557 11.0088 43.8834 11.5923 44.4669C12.1757 45.0504 12.5035 45.8417 12.5035 46.6668C12.5035 47.492 12.1757 48.2833 11.5923 48.8668C11.0088 49.4502 10.2175 49.778 9.39236 49.778Z" fill="#4745B7"/>
</svg>
