<svg width="54" height="49" viewBox="0 0 54 49" fill="none" xmlns="http://www.w3.org/2000/svg">
<path d="M46.0695 16.4947C45.6816 17.6837 45.0166 18.7633 44.1295 19.6448C43.2423 20.5263 42.1584 21.1844 40.967 21.5647C39.25 22.1317 37.3927 22.1077 35.6909 21.4965C33.9892 20.8853 32.541 19.7221 31.577 18.1922C31.5112 18.0782 31.4766 17.9489 31.4766 17.8172C31.4766 17.6856 31.5112 17.5563 31.577 17.4422C33.1009 14.7053 33.6308 11.5255 33.077 8.44225C33.0521 8.31483 33.0606 8.1831 33.1018 8.05996C33.143 7.93682 33.2154 7.82648 33.312 7.73975C34.7332 6.53188 36.5369 5.86746 38.402 5.86475C39.6815 5.86577 40.9425 6.17046 42.0813 6.75375C43.2201 7.33704 44.2042 8.18229 44.9527 9.21999C45.7012 10.2577 46.1928 11.4582 46.3869 12.7229C46.5811 13.9876 46.4723 15.2803 46.0695 16.4947Z" fill="#4745B7"/>
<path d="M53.2534 36.3147C53.3608 37.271 53.2507 38.2392 52.9311 39.1469C52.6115 40.0546 52.0908 40.8783 51.4079 41.5563C50.7251 42.2344 49.8977 42.7493 48.9878 43.0624C48.0779 43.3756 47.1089 43.4789 46.1534 43.3647H42.5034C42.4058 43.3644 42.3093 43.3447 42.2194 43.3066C42.1295 43.2686 42.0481 43.2131 41.9799 43.1433C41.9117 43.0735 41.8581 42.9908 41.8223 42.9C41.7864 42.8093 41.7689 42.7123 41.7709 42.6147C41.7699 42.513 41.7808 42.4114 41.8034 42.3122C41.9482 41.4374 42.0151 40.5514 42.0034 39.6647C42.0627 37.2651 41.6396 34.878 40.7593 32.645C39.8789 30.4119 38.5592 28.3783 36.8784 26.6647L36.8034 26.5897C36.7301 26.5238 36.672 26.4426 36.6331 26.352C36.5943 26.2613 36.5756 26.1633 36.5784 26.0647C36.5784 25.8658 36.6574 25.675 36.7981 25.5344C36.9387 25.3937 37.1295 25.3147 37.3284 25.3147H42.2784C43.7467 25.2187 45.2185 25.4377 46.5952 25.9569C47.972 26.4761 49.2219 27.2835 50.2611 28.3252C51.3004 29.3668 52.105 30.6185 52.6211 31.9964C53.1371 33.3744 53.3527 34.8467 53.2534 36.3147Z" fill="#CCCBF8"/>
<path d="M19.5234 20.8647C25.0463 20.8647 29.5234 16.3876 29.5234 10.8647C29.5234 5.3419 25.0463 0.864746 19.5234 0.864746C14.0006 0.864746 9.52344 5.3419 9.52344 10.8647C9.52344 16.3876 14.0006 20.8647 19.5234 20.8647Z" fill="#4745B7"/>
<path d="M38.25 39.6647C38.25 45.3647 35.225 48.3647 29.5 48.3647H9.5C3.775 48.3647 0.75 45.3647 0.75 39.6647C0.75 33.2897 4.35 25.8647 14.5 25.8647H24.5C34.65 25.8647 38.25 33.2897 38.25 39.6647Z" fill="#CCCBF8"/>
</svg>
