<svg width="38" height="39" viewBox="0 0 38 39" fill="none" xmlns="http://www.w3.org/2000/svg">
<path d="M28.2624 23.7529C27.2093 22.5629 25.8996 21.6277 24.4321 21.0179C22.9647 20.4081 21.3778 20.1397 19.7914 20.2329H11.7904C3.66941 20.2329 0.789062 26.1729 0.789062 31.2729C0.789062 35.8329 3.20936 38.2329 7.78991 38.2329H22.2717C22.3759 38.2315 22.4781 38.203 22.5679 38.1502C22.6578 38.0973 22.7324 38.022 22.7843 37.9315C22.8362 37.8411 22.8636 37.7387 22.8639 37.6344C22.8641 37.5301 22.8372 37.4276 22.7857 37.3369C22.1928 36.1827 21.8564 34.9139 21.7997 33.6176C21.7431 32.3213 21.9674 31.028 22.4574 29.8265C22.9474 28.6249 23.6914 27.5435 24.6385 26.6564C25.5856 25.7693 26.7133 25.0975 27.9444 24.6869C28.0377 24.6603 28.1231 24.6116 28.1934 24.5447C28.2638 24.4779 28.3168 24.395 28.3481 24.3032C28.3794 24.2114 28.3879 24.1134 28.373 24.0175C28.358 23.9217 28.3201 23.8309 28.2624 23.7529Z" fill="#CCCBF8"/>
<path d="M15.8057 16.2329C20.2245 16.2329 23.8066 12.6512 23.8066 8.23291C23.8066 3.81463 20.2245 0.23291 15.8057 0.23291C11.3868 0.23291 7.80469 3.81463 7.80469 8.23291C7.80469 12.6512 11.3868 16.2329 15.8057 16.2329Z" fill="#4745B7"/>
<path d="M30.4575 38.0671C30.2605 38.0671 30.0654 38.0283 29.8835 37.9528C29.7016 37.8773 29.5364 37.7666 29.3973 37.6271L26.731 34.9611C26.5913 34.8219 26.4803 34.6565 26.4045 34.4745C26.3287 34.2924 26.2894 34.0971 26.2891 33.8999C26.2883 33.5016 26.4459 33.1193 26.727 32.8371C27.0082 32.5549 27.3899 32.3959 27.7883 32.3952C28.1867 32.3944 28.569 32.552 28.8513 32.8331L30.4515 34.4331L34.732 30.1731C35.0164 29.9081 35.3925 29.7639 35.7812 29.7707C36.1698 29.7776 36.5406 29.935 36.8155 30.2098C37.0903 30.4847 37.2478 30.8554 37.2546 31.244C37.2615 31.6326 37.1172 32.0087 36.8522 32.2931L31.5176 37.6331C31.3781 37.7715 31.2126 37.8811 31.0307 37.9556C30.8488 38.03 30.654 38.0679 30.4575 38.0671Z" fill="#4745B7"/>
</svg>
