<svg width="29" height="29" viewBox="0 0 29 29" fill="none" xmlns="http://www.w3.org/2000/svg">
<path d="M11.1167 12.4395C14.2878 12.4395 16.8584 9.8688 16.8584 6.69766C16.8584 3.52652 14.2878 0.955811 11.1167 0.955811C7.94565 0.955811 5.375 3.52652 5.375 6.69766C5.375 9.8688 7.94565 12.4395 11.1167 12.4395Z" fill="#4745B7"/>
<path d="M17.6902 16.3153C17.6918 16.3719 17.6811 16.4282 17.6588 16.4802C17.6365 16.5323 17.6031 16.5789 17.561 16.6167C17.5109 16.654 17.4581 16.6875 17.4031 16.7172C16.8593 17.0101 16.3769 17.4049 15.9821 17.8799C15.4064 18.6402 15.005 19.5179 14.8066 20.4507C14.6081 21.3834 14.6174 22.3485 14.8337 23.2773C15.1803 24.8654 15.9604 26.3262 17.0874 27.4975C17.167 27.5781 17.2131 27.6858 17.2165 27.799C17.2165 27.9132 17.1712 28.0227 17.0904 28.1035C17.0097 28.1843 16.9001 28.2296 16.7859 28.2296H5.35993C2.0728 28.2296 0.335938 26.5071 0.335938 23.2342C0.335938 19.5738 2.40295 15.3105 8.23078 15.3105H13.9725C15.1287 15.2913 16.2781 15.491 17.3601 15.899C17.4502 15.9278 17.5298 15.9827 17.5885 16.0569C17.6473 16.131 17.6827 16.221 17.6902 16.3153Z" fill="#CCCBF8"/>
<path d="M28.2254 22.8639C27.4761 26.6592 22.5856 28.8455 22.5856 28.8455C22.5856 28.8455 17.7052 26.6592 16.9516 22.8639C16.4923 20.5356 17.4956 18.1929 20.0478 18.1814C20.6099 18.2038 21.1523 18.3945 21.6048 18.7288C22.0573 19.063 22.399 19.5254 22.5856 20.0561C22.773 19.5248 23.1157 19.062 23.5692 18.7277C24.0228 18.3934 24.5662 18.2031 25.1292 18.1814C27.6857 18.1929 28.6848 20.5356 28.2254 22.8639Z" fill="#4745B7"/>
</svg>
