<svg width="39" height="39" viewBox="0 0 39 39" fill="none" xmlns="http://www.w3.org/2000/svg">
<path d="M15.0983 16.0336C19.2948 16.0336 22.6967 12.6316 22.6967 8.43513C22.6967 4.23862 19.2948 0.83667 15.0983 0.83667C10.9019 0.83667 7.5 4.23862 7.5 8.43513C7.5 12.6316 10.9019 16.0336 15.0983 16.0336Z" fill="#4745B7"/>
<path d="M25.5323 22.0479C25.5508 22.1734 25.5295 22.3016 25.4715 22.4145C24.878 23.5186 24.5691 24.7532 24.573 26.0067V26.8425C23.9383 27.406 23.4381 28.1047 23.1093 28.8872C22.7806 29.6696 22.6316 30.5159 22.6734 31.3636V35.8467C22.6698 36.0116 22.6762 36.1765 22.6924 36.3406V36.3976C22.6827 36.542 22.6184 36.6774 22.5126 36.7762C22.4068 36.875 22.2673 36.9298 22.1225 36.9295H7.47668C3.12663 36.9295 0.828125 34.6499 0.828125 30.3188C0.828125 25.4748 3.56353 19.8329 11.2759 19.8329H18.8742C21.1637 19.7443 23.4209 20.3951 25.3119 21.6889C25.4285 21.776 25.5074 21.9045 25.5323 22.0479Z" fill="#CCCBF8"/>
<path d="M36.9202 28.5236V26.0066C36.9202 24.7471 36.4198 23.5391 35.5292 22.6485C34.6386 21.7579 33.4307 21.2576 32.1712 21.2576C30.9117 21.2576 29.7038 21.7579 28.8132 22.6485C27.9226 23.5391 27.4222 24.7471 27.4222 26.0066V28.5236C26.8061 28.674 26.269 29.0504 25.9171 29.5781C25.5653 30.1058 25.4245 30.7464 25.5226 31.373V35.8523C25.5226 37.8406 26.4724 38.8353 28.372 38.8366H35.9704C37.87 38.8366 38.8198 37.8418 38.8198 35.8523V31.3654C38.9158 30.74 38.774 30.1013 38.4224 29.5752C38.0707 29.0492 37.5348 28.674 36.9202 28.5236ZM32.1712 24.107C32.675 24.107 33.1582 24.3071 33.5144 24.6634C33.8707 25.0196 34.0708 25.5028 34.0708 26.0066V28.3811H30.2716V26.0066C30.2716 25.5028 30.4717 25.0196 30.828 24.6634C31.1842 24.3071 31.6674 24.107 32.1712 24.107Z" fill="#4745B7"/>
</svg>
