<svg width="28" height="28" viewBox="0 0 28 28" fill="none" xmlns="http://www.w3.org/2000/svg">
<path d="M5.25778 0H8.16667V9.33333H0V5.25778C0 1.74222 1.74222 0 5.25778 0Z" fill="#4745B7"/>
<path d="M10.5 0H17.5V9.33333H10.5V0Z" fill="#4745B7"/>
<path d="M28.0026 5.25778V9.33333H19.8359V0H22.7448C26.2604 0 28.0026 1.74222 28.0026 5.25778Z" fill="#4745B7"/>
<path d="M19.8333 9.33333V0H17.5V9.33333H10.5V0H8.16667V9.33333H0V22.7422C0 26.2422 1.74222 28 5.25778 28H22.7422C26.2578 28 28 26.2422 28 22.7422V9.33333H19.8333Z" fill="#CCCBF8"/>
<path d="M18.0166 16.7285L13.1197 13.7309C12.8981 13.595 12.6443 13.5205 12.3844 13.5152C12.1245 13.5099 11.8679 13.5739 11.6409 13.7006C11.4139 13.8273 11.2247 14.0122 11.0929 14.2362C10.961 14.4603 10.8912 14.7154 10.8906 14.9754V20.8025C10.8912 21.0624 10.961 21.3175 11.0929 21.5416C11.2247 21.7656 11.4139 21.9505 11.6409 22.0772C11.8679 22.204 12.1245 22.268 12.3844 22.2626C12.6443 22.2573 12.8981 22.1828 13.1197 22.0469L18.0166 19.0494C18.2159 18.9282 18.3806 18.7578 18.4949 18.5546C18.6092 18.3514 18.6693 18.1221 18.6693 17.8889C18.6693 17.6557 18.6092 17.4265 18.4949 17.2232C18.3806 17.02 18.2159 16.8496 18.0166 16.7285Z" fill="#4745B7"/>
</svg>
