<svg width="39" height="38" viewBox="0 0 39 38" fill="none" xmlns="http://www.w3.org/2000/svg">
<path d="M31.6333 8.47573H4.26966C3.15418 8.4724 2.08534 8.02781 1.29657 7.23908C0.507803 6.45035 0.0632036 5.38155 0.0598721 4.26611V31.6286C-0.0625103 32.4863 0.0164563 33.3608 0.290521 34.1827C0.564585 35.0046 1.02622 35.7514 1.63889 36.3641C2.25155 36.9767 2.99843 37.4383 3.82038 37.7124C4.64233 37.9864 5.5168 38.0654 6.37455 37.943H31.6333C32.491 38.0654 33.3655 37.9864 34.1874 37.7124C35.0094 37.4383 35.7563 36.9767 36.3689 36.3641C36.9816 35.7514 37.4432 35.0046 37.7173 34.1827C37.9914 33.3608 38.0703 32.4863 37.9479 31.6286V14.7901C38.0703 13.9324 37.9914 13.058 37.7173 12.2361C37.4432 11.4142 36.9816 10.6673 36.3689 10.0547C35.7563 9.44204 35.0094 8.98042 34.1874 8.70637C33.3655 8.43231 32.491 8.35335 31.6333 8.47573Z" fill="#CCCBF8"/>
<path d="M28.4771 17.9473C27.0814 17.9473 25.743 18.5017 24.7561 19.4885C23.7693 20.4753 23.2148 21.8137 23.2148 23.2093C23.2148 24.6049 23.7693 25.9433 24.7561 26.9301C25.743 27.9169 27.0814 28.4713 28.4771 28.4713H37.9491V17.9473H28.4771ZM29.5295 25.3141C29.1132 25.3141 28.7063 25.1906 28.3601 24.9594C28.014 24.7281 27.7442 24.3994 27.5849 24.0148C27.4255 23.6302 27.3839 23.2069 27.4651 22.7987C27.5463 22.3904 27.7468 22.0153 28.0411 21.721C28.3355 21.4266 28.7106 21.2261 29.1189 21.1449C29.5272 21.0637 29.9504 21.1054 30.335 21.2647C30.7196 21.424 31.0484 21.6938 31.2797 22.0399C31.511 22.386 31.6344 22.793 31.6344 23.2093C31.6344 23.7675 31.4127 24.3029 31.0179 24.6976C30.6232 25.0923 30.0878 25.3141 29.5295 25.3141Z" fill="#4745B7"/>
<path d="M0.0585938 4.26607C0.0668558 5.37997 0.513038 6.44591 1.30074 7.23358C2.08845 8.02125 3.15443 8.46742 4.26838 8.47568H31.632V6.37087C31.7544 5.51316 31.6754 4.63872 31.4013 3.81681C31.1273 2.99489 30.6656 2.24804 30.053 1.6354C29.4403 1.02276 28.6934 0.561145 27.8715 0.287091C27.0495 0.0130378 26.1751 -0.0659255 25.3173 0.0564518H4.26838C3.1529 0.0597832 2.08406 0.504365 1.29529 1.2931C0.506525 2.08183 0.0619252 3.15063 0.0585938 4.26607Z" fill="#4745B7"/>
</svg>
