<svg width="200" height="126" viewBox="0 0 200 126" fill="none" xmlns="http://www.w3.org/2000/svg">
    <path d="M77.5991 44.0956C77.2471 44.0956 76.8951 44.0956 76.5111 44.0956C75.4551 44.0956 75.3911 43.9682 75.8071 43.0442C77.3751 39.5713 78.9431 36.1303 80.5111 32.6574C85.0551 22.6849 89.5671 12.7442 94.1111 2.77171C94.8152 1.21052 95.9991 0.254684 97.6951 -0.000205433C99.6791 -0.286956 101.535 0.796322 102.399 2.67613C105.375 9.23952 108.383 15.8348 111.359 22.3982C114.495 29.312 117.631 36.194 120.767 43.1079C121.151 43.9363 121.023 44.0637 120.127 44.0637C119.263 44.0637 118.399 44.0319 117.535 44.0637C117.119 44.0637 116.895 43.9044 116.703 43.5221C114.399 38.4562 112.095 33.3584 109.791 28.2925C106.175 20.3272 102.527 12.3619 98.9112 4.39663C98.7832 4.10988 98.6552 3.79127 98.2712 3.79127C97.8552 3.79127 97.7271 4.10988 97.5671 4.42849C93.6951 12.9673 89.7911 21.5379 85.9191 30.0767C83.8711 34.5691 81.8231 39.0615 79.8071 43.554C79.6471 43.9044 79.4231 44.0637 79.0391 44.0637C78.5591 44.0637 78.0791 44.0956 77.5991 44.0956Z" fill="#03CECF"/>
    <path d="M110.816 58.9745C111.072 59.2612 111.072 59.6754 111.36 59.9303C112.096 61.5553 112.8 63.1483 113.536 64.7732C114.368 66.5575 115.232 68.3098 115.936 70.1259C115.776 70.4127 115.456 70.3171 115.232 70.3171C111.392 70.3171 107.52 70.3171 103.68 70.3171C103.616 70.2215 103.552 70.1259 103.488 69.9985C101.984 66.7486 100.512 63.4988 99.04 60.2489C98.88 59.8985 98.72 59.6436 98.336 59.6117C97.92 59.6117 97.696 59.8985 97.568 60.2489C97.088 61.3322 96.576 62.4155 96.096 63.4988C95.136 65.6016 94.144 67.7363 93.184 69.8392C93.12 69.871 93.088 69.9029 93.088 69.9985L93.12 70.0303C92.864 69.9985 92.608 69.9666 92.352 69.9666C88.832 69.9666 85.312 69.9666 81.792 69.9666C81.472 69.9666 81.088 70.0622 80.96 69.5843C81.6 68.1505 82.24 66.7168 82.88 65.283C82.976 65.0918 83.04 64.8688 83.104 64.6776C83.84 63.1164 84.576 61.5871 85.28 60.0259C85.28 59.9941 85.28 59.9622 85.344 59.9303C85.376 59.8985 85.376 59.8666 85.408 59.8029C85.536 59.3887 85.696 58.9745 85.952 58.624C85.92 58.9426 86.112 58.9745 86.4 58.9745C94.464 59.0064 102.624 59.0064 110.816 58.9745Z" fill="#03CECF"/>
    <path d="M106.08 48.3967C106.112 48.4604 106.144 48.556 106.176 48.6197C105.952 48.8428 105.696 48.8428 105.408 48.8428C100.672 48.8428 95.9676 48.8428 91.2316 48.8428C90.9436 48.8428 90.6876 48.8109 90.4316 48.6835C91.3276 46.6762 92.2236 44.6371 93.1196 42.6298C94.1756 40.2403 95.2956 37.8825 96.3516 35.493C96.7356 34.6008 97.3436 34.0273 98.3356 34.0273C99.2956 34.0273 99.9036 34.569 100.288 35.4292C101.344 37.8507 102.464 40.2403 103.52 42.6617C104.32 44.4778 105.184 46.262 105.984 48.0781C105.856 48.3011 105.888 48.3649 106.08 48.3967Z" fill="#018DAA"/>
    <path d="M110.815 58.9747C102.655 58.9747 94.4955 58.9747 86.3035 58.9747C86.0475 58.9747 85.8555 58.9429 85.8555 58.6243C86.5595 56.9675 87.2635 55.3107 88.0955 53.7177C88.2875 53.8132 88.4795 53.8451 88.6715 53.8451C95.0715 53.8451 101.471 53.8451 107.871 53.8451C108.095 53.8451 108.319 53.8451 108.447 53.6221C109.279 55.4063 110.175 57.1268 110.815 58.9747Z" fill="#01B5C1"/>
    <path d="M108.447 53.622C108.319 53.845 108.127 53.845 107.871 53.845C101.471 53.845 95.0707 53.845 88.6707 53.845C88.4787 53.845 88.2867 53.845 88.0947 53.7175C88.7987 51.997 89.5667 50.3084 90.3987 48.6516C90.6547 48.8109 90.9107 48.8109 91.1987 48.8109C95.9347 48.8109 100.639 48.8109 105.375 48.8109C105.663 48.8109 105.919 48.8109 106.143 48.5879C106.879 50.0216 107.551 51.4873 108.127 52.9847C108.223 53.2396 108.351 53.4308 108.447 53.622Z" fill="#01A2B5"/>
    <path d="M135.519 108.933C135.519 107.499 135.519 106.066 135.519 104.632C135.519 103.995 135.679 103.803 136.319 103.803C139.039 103.803 141.759 103.74 144.479 103.772C146.975 103.835 148.959 104.95 150.175 107.149C151.327 109.252 151.295 111.418 150.047 113.489C149.823 113.872 149.567 113.999 149.119 113.999C148.127 113.967 147.167 113.999 146.175 113.999C145.983 113.999 145.727 114.095 145.663 113.84C145.599 113.617 145.855 113.553 145.983 113.457C147.455 112.47 148.095 110.845 147.647 109.315C147.167 107.722 145.727 106.703 143.903 106.703C142.335 106.703 140.799 106.735 139.231 106.703C138.879 106.703 138.751 106.798 138.751 107.181C138.783 109.061 138.783 110.908 138.783 112.788C138.783 113.872 138.751 114.063 137.663 113.999C137.215 113.967 136.799 114.031 136.351 114.031C135.679 114.031 135.551 113.872 135.551 113.234C135.551 112.502 135.519 111.769 135.519 111.036C135.487 110.367 135.519 109.634 135.519 108.933Z" fill="#03CECF"/>
    <path d="M80.896 69.6162C81.024 70.0623 81.408 69.9985 81.728 69.9985C85.248 69.9985 88.768 69.9985 92.288 69.9985C92.544 69.9985 92.8 70.0304 93.056 70.0623C92.864 70.5402 92.64 71.0181 92.448 71.5279C92.128 72.3563 91.616 73.0891 91.424 73.9812C91.104 74.2042 91.04 74.6184 90.88 74.937C90.528 75.7017 89.92 76.1477 89.088 76.2115C88.8 76.2115 88.544 76.2115 88.256 76.2433C85.888 76.2433 83.552 76.2433 81.184 76.2433C79.424 76.2433 78.528 74.8733 79.232 73.2802C79.744 72.0058 80.32 70.7951 80.896 69.6162Z" fill="#01F2E4"/>
    <path d="M184.447 117.504C188.351 117.504 192.255 117.504 196.191 117.504C196.767 117.504 197.087 117.663 197.343 118.205C198.143 120.053 199.007 121.869 199.839 123.685C200.159 124.418 199.967 124.736 199.167 124.736C198.687 124.736 198.207 124.705 197.727 124.736C197.215 124.768 196.927 124.577 196.703 124.099C196.191 122.888 195.615 121.71 195.071 120.531C194.943 120.212 194.751 120.117 194.431 120.148C191.487 120.276 188.575 120.18 185.631 120.18C185.183 120.18 184.959 120.308 184.799 120.722C184.319 121.869 183.807 122.984 183.327 124.099C183.135 124.545 182.847 124.8 182.335 124.768C181.791 124.736 181.247 124.768 180.703 124.768C180.095 124.768 179.871 124.481 180.095 123.94C180.991 121.933 181.919 119.925 182.815 117.918C182.943 117.663 183.135 117.599 183.391 117.599C183.743 117.599 184.095 117.599 184.479 117.599C184.447 117.568 184.447 117.536 184.447 117.504Z" fill="#03CECF"/>
    <path d="M64.2878 117.949C66.4318 117.949 68.6078 117.949 70.7518 117.949C71.1358 117.949 71.3278 118.077 71.4878 118.427C72.3838 120.371 73.2798 122.282 74.1438 124.226C74.3998 124.799 74.1758 125.118 73.5678 125.15C73.0238 125.182 72.4798 125.118 71.9358 125.15C71.4238 125.182 71.1358 124.991 70.9118 124.513C70.3998 123.366 69.8558 122.25 69.3438 121.103C69.1838 120.753 69.0238 120.594 68.6078 120.594C65.6638 120.626 62.6878 120.626 59.7438 120.626C59.3918 120.626 59.1998 120.721 59.0718 121.072C58.5598 122.25 58.0158 123.397 57.5358 124.576C57.3438 125.054 56.9918 125.277 56.4798 125.277C55.9358 125.277 55.3918 125.309 54.8478 125.277C54.3038 125.245 54.0798 124.927 54.2718 124.417C55.1678 122.41 56.0958 120.403 56.9918 118.395C57.1518 118.045 57.4718 118.045 57.7918 118.045C60.0318 117.981 62.1438 117.981 64.2878 117.949C64.2878 117.981 64.2878 117.981 64.2878 117.949Z" fill="#03CECF"/>
    <path d="M18.4314 125.341C18.2074 125.341 17.9834 125.341 17.7594 125.341C17.2154 125.373 16.9274 125.15 16.7034 124.672C16.1914 123.494 15.6474 122.378 15.1354 121.2C15.0074 120.881 14.8154 120.753 14.4634 120.753C11.4554 120.785 8.47945 120.785 5.47145 120.785C5.11945 120.785 4.99145 120.913 4.86345 121.2C4.35145 122.378 3.80745 123.525 3.32745 124.672C3.13545 125.15 2.81545 125.373 2.27145 125.341C1.72745 125.31 1.18345 125.341 0.639449 125.341C0.0954496 125.31 -0.16055 125.023 0.0634496 124.513C0.959449 122.506 1.88745 120.499 2.78345 118.491C2.91145 118.173 3.16745 118.141 3.45545 118.141C4.63945 118.141 5.85545 118.141 7.03945 118.141C10.1114 118.141 13.1834 118.109 16.2554 118.077C16.7674 118.077 17.0554 118.236 17.2794 118.714C18.0794 120.53 18.9114 122.315 19.7434 124.131C20.1594 125.055 19.9994 125.31 18.9754 125.31C18.8154 125.341 18.6234 125.341 18.4314 125.341Z" fill="#03CECF"/>
    <path d="M103.68 70.3494C107.52 70.3494 111.392 70.3494 115.232 70.3494C115.488 70.3494 115.776 70.4768 115.936 70.1582C116.576 71.2733 117.088 72.4203 117.536 73.6311C118.016 74.9374 117.024 76.2118 115.584 76.2118C113.184 76.2118 110.752 76.2118 108.352 76.2118C108.224 76.2118 108.064 76.18 107.936 76.2118C106.88 76.2437 106.112 75.8295 105.696 74.8099C105.568 74.4595 105.376 74.109 105.216 73.7266C104.64 72.6115 104.128 71.4964 103.68 70.3494Z" fill="#01F2E4"/>
    <path d="M116.16 103.867C118.208 103.867 120.288 103.867 122.336 103.867C123.04 103.867 123.2 104.026 123.2 104.759C123.2 105.11 123.2 105.46 123.2 105.843C123.2 106.544 123.008 106.735 122.336 106.735C121.024 106.735 119.744 106.798 118.432 106.735C117.76 106.703 117.664 106.926 117.664 107.531C117.696 109.475 117.696 111.386 117.696 113.33C117.696 114.063 117.568 114.158 116.864 114.158C116.32 114.158 115.776 114.158 115.232 114.158C114.688 114.19 114.496 113.935 114.496 113.394C114.496 111.45 114.496 109.507 114.464 107.531C114.464 106.607 114.592 106.735 113.632 106.735C112.352 106.735 111.072 106.735 109.792 106.767C109.216 106.767 108.928 106.544 108.96 105.97C108.992 105.556 108.928 105.142 108.928 104.727C108.928 104.09 109.12 103.931 109.76 103.931C111.904 103.899 114.016 103.899 116.16 103.867C116.16 103.899 116.16 103.899 116.16 103.867Z" fill="#03CECF"/>
    <path d="M90.6876 114.254C89.9836 114.254 89.2796 114.254 88.5756 114.254C87.8396 114.286 87.2316 113.999 86.6876 113.521C85.0556 111.992 84.5116 110.112 85.0556 107.978C85.6316 105.715 87.2316 104.409 89.4716 103.899C92.1596 103.262 94.6556 103.868 96.9596 105.333C97.5356 105.715 97.5996 106.034 97.2156 106.639C96.9916 106.99 96.7676 107.34 96.5116 107.691C96.1916 108.169 95.8076 108.201 95.3276 107.882C94.5276 107.404 93.6956 106.958 92.7996 106.703C91.8076 106.416 90.8476 106.385 89.8556 106.735C87.8076 107.468 87.3596 109.857 88.9916 111.323C89.8556 112.088 90.8796 112.534 91.9356 112.98C92.3836 113.171 92.8636 113.362 93.3116 113.553C93.5036 113.649 93.6956 113.713 93.6316 113.968C93.5676 114.191 93.3756 114.254 93.1516 114.254C92.3516 114.254 91.5196 114.254 90.6876 114.254Z" fill="#03CECF"/>
    <path d="M64.1911 109.635C63.5511 111.068 62.9751 112.311 62.4631 113.553C62.2391 114.095 61.9511 114.382 61.3111 114.318C60.8311 114.254 60.3191 114.318 59.8071 114.318C59.2311 114.286 59.0071 114.031 59.2311 113.522C60.6391 110.399 62.0471 107.309 63.4871 104.186C63.6151 103.868 63.8711 103.772 64.1911 103.74C64.5431 103.74 64.7991 103.868 64.9591 104.218C66.3671 107.309 67.8071 110.399 69.2151 113.49C69.4391 113.968 69.2471 114.254 68.7031 114.286C68.1271 114.318 67.5511 114.318 66.9751 114.35C66.4951 114.382 66.2071 114.159 66.0151 113.713C65.4711 112.406 64.8631 111.132 64.1911 109.635Z" fill="#03CECF"/>
    <path d="M189.855 109.347C189.375 110.43 188.927 111.482 188.447 112.501C187.679 114.19 188.095 113.839 186.271 113.903C184.639 113.967 184.639 113.744 185.279 112.374C186.559 109.602 187.807 106.798 189.087 104.026C189.247 103.644 189.439 103.325 189.951 103.325C190.431 103.325 190.623 103.644 190.815 104.026C192.159 106.989 193.535 109.952 194.911 112.915C195.231 113.616 195.071 113.903 194.271 113.903C193.887 113.903 193.503 113.871 193.119 113.903C192.287 114.031 191.903 113.648 191.615 112.915C191.199 111.864 190.687 110.844 190.239 109.825C190.143 109.666 190.111 109.474 189.855 109.347Z" fill="#03CECF"/>
    <path d="M9.88719 109.953C9.53519 110.75 9.15119 111.578 8.79919 112.374C8.54319 112.948 8.28719 113.49 8.06319 114.063C7.93519 114.382 7.71119 114.509 7.35919 114.509C6.81519 114.477 6.23919 114.509 5.69519 114.509C4.92719 114.509 4.76719 114.254 5.08719 113.553C6.27119 110.941 7.45519 108.328 8.63919 105.684C8.83119 105.238 9.02319 104.823 9.21519 104.377C9.37519 104.027 9.63119 103.899 9.98319 103.899C10.3352 103.899 10.5912 104.091 10.7192 104.409C12.1272 107.468 13.5352 110.527 14.9432 113.617C15.1992 114.191 15.0072 114.477 14.3672 114.477C13.8232 114.477 13.2472 114.445 12.7032 114.477C12.2552 114.509 11.9992 114.318 11.8392 113.904C11.2952 112.693 10.7512 111.482 10.2072 110.272C10.1112 110.208 10.0792 110.049 9.88719 109.953Z" fill="#03CECF"/>
    <path d="M103.68 86.3117C103.008 87.7773 102.624 89.3703 101.472 90.5811C99.3599 92.7476 95.9359 92.3334 94.4319 89.689C93.7279 88.4782 93.1839 87.1401 92.6719 85.8338C92.9599 86.248 93.2799 86.2161 93.6319 85.8975C94.0159 85.5789 94.4319 85.324 94.8159 85.0054C95.2319 84.6868 95.6799 84.3682 95.9039 83.8584C96.5439 85.0054 97.0239 86.248 97.5999 87.4587C97.7599 87.7773 97.8559 88.1278 98.2719 88.1278C98.7199 88.1596 98.8479 87.7773 99.0079 87.4587C99.5199 86.3754 99.9679 85.2284 100.544 84.177C100.672 84.2089 100.832 84.2407 100.928 84.3363C101.504 84.9735 102.272 85.4196 102.944 85.9612C103.104 86.1524 103.36 86.3117 103.68 86.3117Z" fill="#03CECF"/>
    <path d="M96.3515 117.854C96.6715 117.854 96.9915 117.854 97.3115 117.854C98.1115 117.854 98.2715 118.014 98.3675 118.81C98.6555 121.232 97.5355 123.398 95.2954 124.513C92.6394 125.82 89.9834 125.597 87.3274 124.45C86.4954 124.067 85.6954 123.59 85.0234 122.952C84.7354 122.666 84.6714 122.411 84.8954 122.06C85.1514 121.646 85.3754 121.232 85.6634 120.849C86.0474 120.308 86.3994 120.276 86.9114 120.69C88.1274 121.614 89.4394 122.347 90.9754 122.57C91.9034 122.697 92.7995 122.57 93.6315 122.092C94.8475 121.391 95.2635 120.021 94.7195 118.747C94.3995 118.014 94.4954 117.886 95.2954 117.886C95.6474 117.854 95.9995 117.854 96.3515 117.854Z" fill="#03CECF"/>
    <path d="M38.016 125.374C36.288 125.374 34.592 125.374 32.864 125.374C32.224 125.374 32.064 125.214 32.032 124.577C32 122.697 32 120.849 32 118.969C32 118.428 32.192 118.173 32.768 118.205C33.312 118.237 33.856 118.205 34.4 118.205C35.104 118.205 35.2 118.3 35.232 118.969C35.232 119.957 35.264 120.913 35.232 121.901C35.2 122.41 35.328 122.602 35.904 122.57C38.304 122.538 40.704 122.538 43.104 122.538C43.936 122.538 44.032 122.665 44.032 123.462C44.032 123.844 44.032 124.227 44.032 124.609C44.032 125.278 43.904 125.405 43.2 125.405C41.44 125.374 39.712 125.374 38.016 125.374Z" fill="#03CECF"/>
    <path d="M81.0875 60.4084C80.1275 58.3374 79.1995 56.2983 78.2395 54.2273C77.3755 52.3794 76.5435 50.4996 75.7115 48.6516C75.4555 48.0463 75.5835 47.8551 76.2235 47.8232C77.1835 47.8232 78.1435 47.8232 79.1035 47.8232C79.3915 47.8232 79.6155 47.887 79.7435 48.1737C80.9275 50.8182 82.1115 53.4308 83.2955 56.0434C83.1035 55.9478 82.9435 55.7885 82.7835 56.1709C82.3035 57.286 81.7915 58.4011 81.2475 59.5163C81.0875 59.803 80.9915 60.0898 81.0875 60.4084Z" fill="#03CECF"/>
    <path d="M113.791 54.8013C114.751 52.6666 115.743 50.5319 116.703 48.3972C116.895 47.983 117.119 47.7919 117.599 47.8237C118.463 47.8556 119.359 47.8237 120.223 47.8237C120.959 47.8237 121.087 48.0149 120.799 48.684C119.423 51.7108 118.047 54.7376 116.671 57.7325C116.191 58.784 115.711 59.8354 115.231 60.8868C115.135 61.078 115.103 61.2691 114.943 61.3966C114.943 61.1735 115.103 60.9824 115.167 60.7912C115.455 59.8354 116.319 59.0388 115.551 57.86C114.975 57.0316 114.687 56.012 114.207 55.1199C114.111 54.9606 114.015 54.8013 113.791 54.8013Z" fill="#03CECF"/>
    <path d="M167.936 108.901C167.936 110.335 167.936 111.769 167.936 113.203C167.936 113.744 167.712 113.999 167.168 113.999C166.592 113.967 166.016 113.999 165.44 113.999C164.96 113.999 164.736 113.84 164.736 113.33C164.736 110.367 164.736 107.404 164.704 104.441C164.704 103.931 164.928 103.708 165.44 103.74C165.92 103.74 166.4 103.708 166.88 103.708C167.68 103.676 167.936 103.899 167.936 104.696C167.936 106.098 167.936 107.499 167.936 108.901Z" fill="#03CECF"/>
    <path d="M31.9678 109.411C31.9678 107.977 31.9678 106.543 31.9678 105.109C31.9678 104.472 32.1598 104.281 32.8318 104.249C33.3118 104.249 33.7918 104.249 34.2718 104.249C34.9758 104.249 35.1678 104.44 35.1678 105.141C35.1998 106.129 35.1678 107.117 35.1678 108.104C35.1678 109.984 35.1678 111.864 35.1998 113.775C35.1998 114.285 35.0398 114.572 34.4638 114.54C33.9198 114.508 33.3438 114.54 32.7998 114.54C32.0958 114.54 31.9998 114.445 31.9998 113.775C31.9998 112.31 31.9998 110.844 31.9678 109.411C31.9678 109.411 31.9998 109.411 31.9678 109.411Z" fill="#03CECF"/>
    <path d="M148.96 124.895C147.744 125.245 147.168 124.608 146.688 123.557C145.92 121.9 145.056 120.275 144.224 118.65C143.904 118.013 144.128 117.726 144.832 117.694C145.088 117.694 145.344 117.694 145.6 117.694C147.584 117.726 147.008 117.376 148 119.096C148.864 120.625 149.696 122.187 150.56 123.748C150.976 124.512 150.752 124.863 149.856 124.863C149.568 124.895 149.28 124.895 148.96 124.895Z" fill="#03CECF"/>
    <path d="M167.968 121.2C167.968 122.156 167.968 123.112 167.968 124.067C167.968 124.609 167.744 124.832 167.232 124.832C166.656 124.832 166.08 124.832 165.504 124.832C165.056 124.832 164.8 124.609 164.8 124.131C164.8 122.188 164.768 120.276 164.768 118.332C164.768 117.854 164.96 117.6 165.472 117.6C166.08 117.631 166.72 117.6 167.328 117.6C167.776 117.6 167.968 117.791 167.968 118.269C167.936 119.256 167.936 120.212 167.968 121.2Z" fill="#03CECF"/>
    <path d="M114.527 121.359C114.527 120.403 114.527 119.447 114.527 118.492C114.527 118.014 114.719 117.791 115.199 117.791C115.807 117.791 116.383 117.759 116.991 117.759C117.471 117.759 117.727 117.95 117.727 118.46C117.727 120.403 117.727 122.347 117.727 124.29C117.727 124.768 117.471 124.959 117.023 124.959C116.511 124.959 116.031 124.959 115.519 124.959C114.687 124.959 114.527 124.8 114.527 123.94C114.527 123.111 114.527 122.251 114.527 121.359Z" fill="#03CECF"/>
    <path d="M138.72 121.231C138.72 122.219 138.72 123.175 138.72 124.163C138.72 124.672 138.496 124.927 137.952 124.927C137.408 124.927 136.832 124.959 136.288 124.959C135.84 124.959 135.552 124.768 135.552 124.29C135.552 122.347 135.52 120.403 135.52 118.459C135.52 117.982 135.744 117.727 136.256 117.759C136.832 117.79 137.408 117.79 137.984 117.759C138.496 117.759 138.688 117.982 138.688 118.491C138.688 119.383 138.688 120.307 138.72 121.231C138.72 121.231 138.688 121.231 138.72 121.231Z" fill="#03CECF"/>
    <path d="M105.184 73.6943C105.344 74.0448 105.536 74.3953 105.664 74.7776C106.048 75.7972 106.816 76.2114 107.904 76.1795C108.032 76.1795 108.192 76.1795 108.32 76.1795C107.552 77.8044 106.816 79.3975 106.08 81.0224C105.92 81.0224 105.76 81.0224 105.6 80.895C104.64 80.1621 103.904 79.2382 103.2 78.2823C103.264 78.0912 103.328 77.8681 103.424 77.677C104 76.3707 104.576 75.0325 105.184 73.6943Z" fill="#018DAA"/>
    <path d="M88.2236 76.1801C88.5116 76.1801 88.7676 76.1801 89.0556 76.1483C89.9196 76.0845 90.4956 75.6703 90.8476 74.8738C91.0076 74.5233 91.0716 74.141 91.3916 73.918C91.9996 75.1924 92.6076 76.4669 93.1196 77.805C93.2156 78.1874 93.0876 78.4741 92.8316 78.7609C92.3516 79.2707 91.9036 79.7804 91.4236 80.2902C90.6556 81.0549 90.6556 81.0549 90.0796 80.2584C90.0476 80.1946 90.0156 80.1309 89.9516 80.0672V80.099C89.4076 78.7609 88.8316 77.4864 88.2236 76.1801Z" fill="#018DAA"/>
    <path d="M103.68 86.3117C103.36 86.3117 103.136 86.1524 102.912 85.9612C102.24 85.4196 101.472 84.9735 100.896 84.3363C100.8 84.2407 100.672 84.177 100.512 84.177C100.512 84.1451 100.512 84.1133 100.544 84.0814C100.672 84.0495 100.704 83.9858 100.64 83.8584C101.216 82.4565 101.856 81.0546 102.528 79.6846C103.136 80.513 103.84 81.2776 104.672 81.9149C105.248 82.3609 105.28 82.3928 105.696 81.7874C105.088 83.3167 104.416 84.8142 103.68 86.3117Z" fill="#01B5C1"/>
    <path d="M95.8714 83.8581C95.6474 84.3679 95.1994 84.6865 94.7834 85.0051C94.3994 85.3238 93.9834 85.5786 93.5994 85.8973C93.2474 86.2159 92.9274 86.2477 92.6394 85.8335C92.0314 84.6228 91.4554 83.4121 90.9434 82.1376C91.1034 82.1695 91.1994 82.2651 91.3914 82.1376C92.0634 81.6597 92.6714 81.1499 93.1834 80.5127C93.4074 80.226 93.6314 79.9074 93.9834 79.748C94.7194 81.0862 95.3274 82.4563 95.8714 83.8581Z" fill="#01B5C1"/>
    <path d="M81.0878 60.4084C80.9918 60.0898 81.0878 59.803 81.2158 59.5163C81.7598 58.4012 82.2718 57.3179 82.7518 56.1709C82.9118 55.7885 83.0398 55.9478 83.2638 56.0434C83.6798 56.9674 84.0958 57.9232 84.5118 58.8472C84.1598 58.8791 84.1278 59.1658 84.0318 59.3889C83.6798 60.1217 83.3598 60.8545 83.0398 61.5873C82.7198 62.2882 82.2078 62.9573 82.6558 63.8176C82.0798 62.7343 81.5678 61.5554 81.0878 60.4084Z" fill="#01B5C1"/>
    <path d="M113.792 54.8008C114.016 54.8008 114.08 54.9282 114.176 55.0875C114.688 55.9796 114.976 56.9992 115.52 57.8276C116.32 59.0065 115.456 59.803 115.136 60.7588C115.072 60.95 114.912 61.1411 114.912 61.3642C114.848 61.5235 114.784 61.6828 114.72 61.8102C114.24 61.173 114.048 60.4083 113.664 59.7074C113.28 59.0064 113.184 58.1143 112.512 57.5727C112.992 56.6806 113.408 55.7566 113.792 54.8008Z" fill="#01B5C1"/>
    <path d="M112.575 57.6045C113.247 58.178 113.343 59.0382 113.727 59.7392C114.111 60.4401 114.303 61.2048 114.783 61.842C114.367 62.8297 113.951 63.7855 113.535 64.7732C112.799 63.1483 112.095 61.5553 111.359 59.9304C111.871 59.325 112.031 58.5603 112.415 57.8594C112.447 57.7957 112.447 57.6682 112.575 57.6045Z" fill="#01A2B5"/>
    <path d="M82.6551 63.8493C82.2391 63.0209 82.7191 62.3518 83.0391 61.619C83.3591 60.8862 83.7111 60.1534 84.0311 59.4205C84.1271 59.1975 84.1591 58.9108 84.5111 58.8789C84.7991 59.2294 84.8311 59.7392 85.1831 60.0578C84.4471 61.619 83.7111 63.1483 83.0071 64.7095C82.8791 64.4228 82.7191 64.136 82.6551 63.8493Z" fill="#01A2B5"/>
    <path d="M94.0476 79.7482C93.6956 79.9394 93.4716 80.2261 93.2476 80.5129C92.7356 81.1501 92.1275 81.6599 91.4555 82.1378C91.2635 82.2652 91.1676 82.1378 91.0076 82.1378C90.6555 81.5324 90.3996 80.8952 90.1436 80.258C90.7196 81.0545 90.7515 81.0545 91.4876 80.2899C91.9676 79.8119 92.4155 79.2703 92.8956 78.7605C93.1516 78.5056 93.2796 78.187 93.1836 77.8047C93.5356 78.3463 93.7596 78.9198 93.9836 79.5252C93.8876 79.5889 93.9516 79.6208 94.0156 79.6208C94.0156 79.6526 94.0476 79.7164 94.0476 79.7482Z" fill="#01A2B5"/>
    <path d="M105.728 81.7873C105.312 82.3608 105.28 82.3608 104.704 81.9148C103.872 81.2775 103.168 80.5129 102.56 79.6845C102.72 79.2066 102.912 78.7286 103.2 78.3145C103.904 79.2703 104.64 80.1943 105.6 80.9271C105.76 81.0545 105.888 81.0864 106.08 81.0545C106.016 81.3094 105.888 81.5643 105.728 81.7873Z" fill="#01A2B5"/>
    <path d="M106.079 48.3975C105.919 48.3656 105.855 48.27 105.951 48.1426C106.047 48.2063 106.079 48.3019 106.079 48.3975Z" fill="#01A2B5"/>
    <path d="M85.3443 59.835C85.3123 59.8668 85.3123 59.8987 85.2803 59.9624C85.2803 59.8987 85.3123 59.8668 85.3443 59.835Z" fill="#01A2B5"/>
    <path d="M93.1519 69.8711C93.1519 69.9348 93.1199 69.9985 93.0559 70.0304C93.0239 69.9348 93.0559 69.903 93.1519 69.8711Z" fill="#01F2E4"/>
    <path d="M100.544 84.0814C100.576 84.0177 100.608 83.9221 100.64 83.8584C100.704 83.954 100.672 84.0177 100.544 84.0814Z" fill="#03CECF"/>
    <path d="M93.9513 79.5254C93.9513 79.5572 93.9833 79.5891 93.9833 79.6209C93.9193 79.6209 93.8553 79.621 93.9513 79.5254Z" fill="#01B5C1"/>
</svg>
