<svg width="162" height="58" viewBox="0 0 162 58" fill="none" xmlns="http://www.w3.org/2000/svg">
    <rect width="161" height="57" rx="8" fill="white"/>
    <path d="M21.96 14.9696H24.96C25.0116 14.9783 25.0645 14.9757 25.115 14.9618C25.1654 14.948 25.2123 14.9233 25.2523 14.8895C25.2922 14.8557 25.3243 14.8136 25.3464 14.7662C25.3684 14.7187 25.3798 14.667 25.3798 14.6146C25.3798 14.5623 25.3684 14.5106 25.3464 14.4631C25.3243 14.4157 25.2922 14.3736 25.2523 14.3398C25.2123 14.306 25.1654 14.2813 25.115 14.2675C25.0645 14.2536 25.0116 14.251 24.96 14.2596H21.96C21.9084 14.251 21.8555 14.2536 21.805 14.2675C21.7546 14.2813 21.7077 14.306 21.6677 14.3398C21.6278 14.3736 21.5957 14.4157 21.5736 14.4631C21.5516 14.5106 21.5402 14.5623 21.5402 14.6146C21.5402 14.667 21.5516 14.7187 21.5736 14.7662C21.5957 14.8136 21.6278 14.8557 21.6677 14.8895C21.7077 14.9233 21.7546 14.948 21.805 14.9618C21.8555 14.9757 21.9084 14.9783 21.96 14.9696V14.9696ZM23.47 41.3797C23.1591 41.3777 22.8545 41.4681 22.595 41.6394C22.3355 41.8107 22.1328 42.0552 22.0124 42.3419C21.892 42.6286 21.8595 42.9446 21.919 43.2498C21.9784 43.555 22.1271 43.8356 22.3463 44.0562C22.5655 44.2768 22.8452 44.4273 23.15 44.4887C23.4548 44.5501 23.771 44.5196 24.0585 44.4011C24.3459 44.2825 24.5917 44.0813 24.7647 43.8229C24.9377 43.5645 25.03 43.2606 25.03 42.9496C25.03 42.535 24.866 42.1372 24.5737 41.843C24.2814 41.5489 23.8847 41.3823 23.47 41.3797V41.3797ZM15.78 40.0296H31.15V17.3296H15.78V40.0296ZM65.08 32.5696C64.3487 32.5629 63.6392 32.8184 63.08 33.2896C62.4855 33.7759 62.0731 34.4491 61.91 35.1996C61.8314 35.4935 61.7878 35.7956 61.78 36.0996V38.3296C61.7711 39.2349 62.1114 40.1087 62.73 40.7696C63.0196 41.0937 63.3762 41.351 63.775 41.5236C64.1739 41.6963 64.6055 41.7802 65.04 41.7696C65.5471 41.7922 66.0517 41.6856 66.5064 41.46C66.9611 41.2344 67.3512 40.8971 67.64 40.4796C68.3027 39.4736 68.6284 38.2829 68.57 37.0796C68.6171 35.9474 68.3095 34.8286 67.69 33.8797C67.4026 33.4571 67.0119 33.1149 66.5552 32.8856C66.0984 32.6564 65.5906 32.5476 65.08 32.5696V32.5696ZM119 32.3797C118.448 32.3692 117.904 32.5111 117.428 32.7899C116.951 33.0686 116.561 33.4734 116.3 33.9596C115.741 34.9277 115.464 36.0326 115.5 37.1496C115.464 38.2509 115.741 39.3398 116.3 40.2896C116.553 40.7785 116.935 41.1884 117.405 41.4745C117.875 41.7607 118.415 41.9121 118.965 41.9121C119.515 41.9121 120.055 41.7607 120.525 41.4745C120.995 41.1884 121.377 40.7785 121.63 40.2896C122.197 39.3353 122.482 38.2394 122.45 37.1297C122.483 36.03 122.21 34.9428 121.66 33.9897C121.406 33.5039 121.024 33.097 120.555 32.8131C120.086 32.5293 119.548 32.3794 119 32.3797V32.3797ZM79.7 32.5696C78.969 32.5647 78.2601 32.8199 77.7 33.2896C77.108 33.7764 76.6989 34.4499 76.54 35.1996C76.4592 35.4933 76.4122 35.7953 76.4 36.0996V38.3296C76.3773 39.2293 76.6951 40.1043 77.29 40.7796C77.5796 41.1037 77.9362 41.361 78.3351 41.5336C78.7339 41.7063 79.1655 41.7902 79.6 41.7796C80.1088 41.8039 80.6153 41.6982 81.072 41.4725C81.5286 41.2468 81.9203 40.9086 82.21 40.4897C82.8727 39.4836 83.1984 38.2929 83.14 37.0896C83.1871 35.9574 82.8795 34.8386 82.26 33.8896C81.9811 33.4768 81.6037 33.14 81.162 32.9096C80.7203 32.6791 80.2281 32.5623 79.73 32.5696H79.7ZM49.15 27.8096C48.96 28.5896 48.67 29.7496 48.27 31.2796L46.73 36.0996H51.73L50.09 31.3296C49.92 30.7896 49.6 29.6296 49.15 27.8096ZM141.42 32.2397C140.959 32.234 140.504 32.3413 140.094 32.5523C139.685 32.7632 139.333 33.0713 139.07 33.4496C138.561 34.1113 138.255 34.9071 138.19 35.7397H144.35C144.385 34.9437 144.187 34.1549 143.78 33.4696C143.534 33.071 143.185 32.7463 142.769 32.5298C142.354 32.3133 141.888 32.2131 141.42 32.2397ZM62.19 19.1096C62.2097 18.9837 62.2097 18.8556 62.19 18.7296V17.7896C60.96 17.7896 59.8 18.0296 59.8 19.0696C59.7839 19.2048 59.7987 19.3419 59.8433 19.4706C59.8879 19.5992 59.961 19.7161 60.0573 19.8123C60.1536 19.9086 60.2704 19.9818 60.3991 20.0264C60.5277 20.0709 60.6648 20.0857 60.8 20.0696C61.1036 20.078 61.402 19.9894 61.6519 19.8168C61.9018 19.6442 62.0903 19.3965 62.19 19.1096ZM46.06 14.7996C45.87 14.2296 45.72 13.5796 45.58 13.0296C45.44 13.5796 45.28 14.2396 45.13 14.7996L44.4 17.1396H46.83L46.06 14.7996ZM144.15 14.1296C146.37 14.1296 147.15 15.9596 147.15 17.4596C147.152 17.7076 147.132 17.9553 147.09 18.1996H142.5C142.51 18.4588 142.574 18.713 142.689 18.9458C142.803 19.1787 142.964 19.385 143.163 19.5517C143.362 19.7184 143.593 19.8417 143.842 19.9137C144.092 19.9856 144.353 20.0047 144.61 19.9696C145.257 19.9772 145.899 19.8723 146.51 19.6596L146.76 20.8396C146 21.1433 145.188 21.2929 144.37 21.2796C143.902 21.323 143.429 21.2638 142.986 21.1062C142.543 20.9487 142.14 20.6965 141.804 20.3673C141.468 20.038 141.207 19.6396 141.041 19.1996C140.875 18.7597 140.806 18.2888 140.84 17.8196C140.799 17.3566 140.853 16.89 141 16.4488C141.147 16.0077 141.383 15.6014 141.693 15.2554C142.004 14.9093 142.382 14.6308 142.805 14.4371C143.227 14.2434 143.685 14.1388 144.15 14.1296V14.1296ZM116.73 14.3296L116.81 15.3296H116.86C117.09 14.9589 117.414 14.6549 117.798 14.4479C118.182 14.2409 118.614 14.1381 119.05 14.1496C120.25 14.1496 121.48 14.9196 121.48 17.0896V21.1596H119.73V17.2696C119.73 16.2696 119.37 15.5396 118.43 15.5396C118.128 15.5464 117.835 15.646 117.592 15.825C117.349 16.0039 117.166 16.2534 117.07 16.5396C117.015 16.7176 116.988 16.9032 116.99 17.0896V21.0896H115.26V16.3296C115.26 15.5496 115.26 14.8796 115.2 14.3296H116.73ZM98.56 14.1796C100.78 14.1796 101.56 16.0096 101.56 17.5096C101.562 17.7576 101.542 18.0053 101.5 18.2496H96.83C96.8402 18.5088 96.9044 18.763 97.0186 18.9958C97.1328 19.2287 97.2945 19.435 97.4932 19.6017C97.6919 19.7684 97.9232 19.8917 98.1724 19.9637C98.4216 20.0356 98.683 20.0547 98.94 20.0196C99.5864 20.0262 100.229 19.9213 100.84 19.7096L101.09 20.8896C100.339 21.1884 99.5378 21.3379 98.73 21.3296C98.2616 21.373 97.7894 21.3138 97.3463 21.1562C96.9031 20.9987 96.4995 20.7465 96.1636 20.4173C95.8277 20.088 95.5675 19.6896 95.4011 19.2496C95.2347 18.8097 95.1661 18.3388 95.2 17.8696C95.1514 17.4018 95.2006 16.929 95.3447 16.4812C95.4887 16.0334 95.7244 15.6205 96.0366 15.2687C96.3489 14.917 96.7309 14.634 97.1585 14.4379C97.586 14.2418 98.0497 14.1368 98.52 14.1296L98.56 14.1796ZM91.46 11.1796H93.19V21.1796H91.46V11.1796ZM77.73 15.3296C77.0816 15.3284 76.4453 15.5048 75.89 15.8396L75.55 14.7096C76.3062 14.2959 77.1582 14.0889 78.02 14.1096C80.22 14.1096 80.85 15.4996 80.85 17.0096V19.4696C80.8402 20.0218 80.877 20.5737 80.96 21.1196H79.4L79.28 20.3596C79.0385 20.6542 78.7325 20.8894 78.3858 21.0472C78.0391 21.205 77.6608 21.2811 77.28 21.2696C77.0042 21.2918 76.7268 21.2565 76.4654 21.1659C76.204 21.0754 75.9642 20.9316 75.7612 20.7436C75.5582 20.5556 75.3964 20.3276 75.286 20.0739C75.1756 19.8202 75.1191 19.5463 75.12 19.2696C75.12 17.5496 76.66 16.6696 79.19 16.6796V16.5696C79.09 16.0996 78.91 15.3296 77.73 15.3296ZM67.47 11.4296C67.6009 11.4161 67.7332 11.4302 67.8583 11.471C67.9834 11.5118 68.0986 11.5784 68.1963 11.6666C68.2941 11.7547 68.3722 11.8624 68.4257 11.9826C68.4792 12.1029 68.5068 12.233 68.5068 12.3646C68.5068 12.4963 68.4792 12.6264 68.4257 12.7467C68.3722 12.8669 68.2941 12.9746 68.1963 13.0627C68.0986 13.1509 67.9834 13.2175 67.8583 13.2583C67.7332 13.2991 67.6009 13.3132 67.47 13.2996C67.3415 13.3125 67.2116 13.2978 67.0892 13.2565C66.9668 13.2153 66.8545 13.1485 66.7599 13.0605C66.6653 12.9725 66.5906 12.8654 66.5406 12.7463C66.4906 12.6272 66.4665 12.4988 66.47 12.3696C66.4667 12.2401 66.4908 12.1114 66.5407 11.9918C66.5906 11.8722 66.6652 11.7645 66.7596 11.6758C66.854 11.5871 66.9661 11.5193 67.0885 11.4768C67.2109 11.4344 67.3409 11.4183 67.47 11.4296V11.4296ZM68.32 14.2796V21.1396H66.59V14.3296L68.32 14.2796ZM44.52 11.6496H46.73L49.81 21.1396H47.94L47.08 18.4496H44.08L43.26 21.1396H41.48L44.52 11.6496ZM33 43.0996C33 43.8953 32.6839 44.6584 32.1213 45.221C31.5587 45.7836 30.7956 46.0996 30 46.0996H17C16.2044 46.0996 15.4413 45.7836 14.8787 45.221C14.3161 44.6584 14 43.8953 14 43.0996V14.2196C14 13.424 14.3161 12.6609 14.8787 12.0983C15.4413 11.5357 16.2044 11.2196 17 11.2196H30C30.7956 11.2196 31.5587 11.5357 32.1213 12.0983C32.6839 12.6609 33 13.424 33 14.2196V43.0996ZM53.89 43.7896L52.16 38.3797H46.16L44.51 43.7896H41.46L47.39 25.3296H51.07L57.07 43.7796L53.89 43.7896ZM54.56 21.1396H52.85L50.31 14.3296H52.18L53.29 17.8096C53.4636 18.3589 53.6105 18.9162 53.73 19.4796V19.4796C53.85 18.9096 54.01 18.3796 54.19 17.7596L55.36 14.3296H57.18L54.56 21.1396ZM58.12 19.2496C58.12 17.5296 59.65 16.6496 62.19 16.6596V16.5496C62.19 16.0996 62 15.3496 60.79 15.3496C60.142 15.3514 59.5064 15.5276 58.95 15.8596L58.61 14.7296C59.3709 14.3185 60.2254 14.1118 61.09 14.1296C61.4783 14.0866 61.8712 14.1326 62.2391 14.2642C62.6069 14.3958 62.9398 14.6095 63.2127 14.889C63.4855 15.1686 63.691 15.5067 63.8136 15.8777C63.9362 16.2486 63.9725 16.6426 63.92 17.0296V19.4896C63.9051 20.0419 63.942 20.5943 64.03 21.1396H62.47L62.34 20.3796C62.0965 20.6719 61.7902 20.9055 61.444 21.0631C61.0977 21.2207 60.7203 21.2981 60.34 21.2896C60.0561 21.3212 59.7687 21.2915 59.4972 21.2026C59.2257 21.1138 58.9764 20.9678 58.7661 20.7745C58.5557 20.5812 58.3892 20.3451 58.2778 20.0821C58.1663 19.8191 58.1125 19.5352 58.12 19.2496V19.2496ZM69.73 42.3296C69.2112 42.8938 68.578 43.3408 67.8727 43.6409C67.1674 43.9409 66.4063 44.0871 65.64 44.0696C64.8945 44.1313 64.1462 43.9877 63.4764 43.6546C62.8066 43.3214 62.2407 42.8114 61.84 42.1796V49.1796H58.84V34.8596C58.84 33.4396 58.84 31.9797 58.73 30.4897H61.33L61.49 32.5996H61.55C61.9981 31.9136 62.6003 31.3418 63.3086 30.9297C64.0169 30.5177 64.8116 30.2768 65.6295 30.2263C66.4473 30.1758 67.2657 30.317 68.0193 30.6388C68.7729 30.9606 69.4409 31.454 69.97 32.0796C71.0691 33.4692 71.6269 35.2101 71.54 36.9796C71.6558 38.9306 71.0065 40.8498 69.73 42.3296ZM72.73 21.1396H71V11.1396H72.73V21.1396ZM84.31 42.3296C83.7884 42.893 83.1533 43.3394 82.4466 43.6394C81.7399 43.9393 80.9776 44.0859 80.21 44.0696C79.4646 44.1302 78.7168 43.9861 78.0472 43.6531C77.3775 43.32 76.8115 42.8106 76.41 42.1796V49.1796H73.41V34.8596C73.41 33.4396 73.41 31.9797 73.3 30.4897H75.89L76.06 32.5996H76.11C76.5581 31.9136 77.1603 31.3418 77.8686 30.9297C78.5769 30.5177 79.3716 30.2768 80.1895 30.2263C81.0073 30.1758 81.8257 30.317 82.5793 30.6388C83.3329 30.9606 84.0009 31.454 84.53 32.0796C85.6326 33.4678 86.1941 35.2089 86.11 36.9796C86.2243 38.9286 85.5792 40.8461 84.31 42.3296V42.3296ZM86.31 21.2696C85.8748 21.2915 85.4419 21.1929 85.0591 20.9847C84.6763 20.7765 84.3583 20.4668 84.14 20.0896V20.0896L84.06 21.0896H82.58C82.58 20.6196 82.64 19.8596 82.64 19.1596V11.1496H84.37V15.2296C84.607 14.8709 84.934 14.5805 85.3183 14.3875C85.7025 14.1945 86.1307 14.1056 86.56 14.1296C88.24 14.1296 89.43 15.5196 89.42 17.5996C89.45 20.0696 87.89 21.3296 86.34 21.3296L86.31 21.2696ZM101.19 42.4296C99.7822 43.5707 97.9991 44.1449 96.19 44.0396C94.5195 44.1216 92.8605 43.7225 91.41 42.8896L92.1 40.4296C93.3896 41.1917 94.8621 41.5892 96.36 41.5796C97.2903 41.6366 98.2119 41.3718 98.97 40.8296C99.267 40.5896 99.5045 40.2842 99.6641 39.9373C99.8237 39.5904 99.901 39.2113 99.89 38.8296C99.898 38.481 99.8348 38.1345 99.7041 37.8112C99.5734 37.4879 99.378 37.1947 99.13 36.9496C98.3856 36.3106 97.5225 35.8247 96.59 35.5196C93.35 34.3196 91.73 32.563 91.73 30.2496C91.7122 29.5388 91.857 28.8332 92.1534 28.1868C92.4497 27.5404 92.8898 26.9701 93.44 26.5196C94.7262 25.5068 96.3347 24.9919 97.97 25.0696C99.4163 25.0186 100.854 25.317 102.16 25.9396L101.42 28.3296C100.33 27.7539 99.1126 27.4616 97.88 27.4796C97.0003 27.4326 96.1334 27.7062 95.44 28.2496C95.2053 28.4596 95.0179 28.7171 94.8903 29.005C94.7627 29.2929 94.6978 29.6047 94.7 29.9196C94.6933 30.2663 94.7665 30.6099 94.9139 30.9238C95.0613 31.2376 95.279 31.5134 95.55 31.7296C96.3619 32.3429 97.2667 32.8223 98.23 33.1496C99.5564 33.616 100.755 34.3866 101.73 35.3996C102.493 36.2879 102.896 37.4293 102.86 38.5996C102.886 39.3225 102.753 40.0422 102.47 40.7077C102.186 41.3732 101.76 41.9679 101.22 42.4496L101.19 42.4296ZM111.61 32.6796H108.35V39.1496C108.35 40.7896 108.93 41.5996 110.08 41.5996C110.52 41.6131 110.96 41.5728 111.39 41.4796L111.47 43.7096C110.732 43.9534 109.957 44.0651 109.18 44.0396C108.674 44.0701 108.167 43.9912 107.694 43.8082C107.222 43.6253 106.794 43.3427 106.44 42.9796C105.676 41.9468 105.32 40.6686 105.44 39.3896V32.6996H103.5V30.4897H105.44V28.0496L108.34 27.1796V30.4897H111.6L111.61 32.6796ZM109.97 21.3296C109.506 21.3475 109.044 21.2677 108.613 21.0952C108.182 20.9228 107.792 20.6616 107.469 20.3288C107.145 19.9959 106.895 19.5987 106.735 19.163C106.575 18.7272 106.509 18.2628 106.54 17.7996C106.505 17.3209 106.573 16.8403 106.738 16.3896C106.903 15.9389 107.162 15.5284 107.498 15.1852C107.833 14.842 108.238 14.5741 108.685 14.399C109.132 14.2239 109.611 14.1457 110.09 14.1696C110.552 14.1515 111.012 14.2311 111.441 14.4032C111.87 14.5753 112.257 14.836 112.578 15.1684C112.899 15.5007 113.146 15.8971 113.303 16.3316C113.461 16.7661 113.524 17.2289 113.49 17.6896C113.526 18.1666 113.46 18.6456 113.297 19.0953C113.135 19.5451 112.879 19.9553 112.546 20.2991C112.214 20.6429 111.812 20.9124 111.368 21.0901C110.924 21.2677 110.448 21.3493 109.97 21.3296V21.3296ZM123.73 42.0696C123.112 42.7367 122.356 43.2611 121.515 43.6065C120.674 43.9519 119.768 44.1099 118.86 44.0696C117.986 44.1072 117.114 43.9529 116.305 43.6178C115.497 43.2827 114.771 42.7748 114.18 42.1297C113.005 40.7736 112.387 39.0229 112.45 37.2296C112.376 35.3759 113.017 33.5647 114.24 32.1696C114.85 31.5041 115.599 30.9802 116.434 30.6347C117.268 30.2892 118.168 30.1305 119.07 30.1696C119.949 30.1277 120.827 30.2797 121.641 30.615C122.455 30.9503 123.185 31.4606 123.78 32.1096C124.946 33.4574 125.554 35.1991 125.48 36.9796C125.566 38.8373 124.94 40.6578 123.73 42.0696ZM126.82 14.3296H127.82V12.9996L129.53 12.5196V14.3296H131.17V15.6296H129.53V18.6296C129.53 19.4796 129.75 19.8996 130.41 19.8996C130.639 19.9072 130.868 19.8836 131.09 19.8296V21.1396C130.686 21.2688 130.264 21.3296 129.84 21.3196C129.565 21.3347 129.29 21.2927 129.032 21.1963C128.773 21.0999 128.538 20.9513 128.34 20.7596C127.917 20.2099 127.721 19.5196 127.79 18.8296V15.5796H126.79L126.82 14.3296ZM134.41 33.1396C134.104 33.0815 133.792 33.0547 133.48 33.0597C133.011 33.0379 132.545 33.1346 132.124 33.3409C131.703 33.5471 131.34 33.8562 131.07 34.2397C130.553 35.0131 130.294 35.9301 130.33 36.8596V43.8596H127.38V34.6696C127.38 33.1496 127.38 31.7497 127.3 30.4897H129.87L129.98 33.0296H130.06C130.339 32.201 130.853 31.4714 131.54 30.9296C132.157 30.4667 132.908 30.2175 133.68 30.2196C133.923 30.2026 134.167 30.2026 134.41 30.2196V33.1396ZM134.86 17.0796V21.1896H133.13V11.1896H134.86V15.2496C135.073 14.9213 135.37 14.6556 135.72 14.4796C136.083 14.2747 136.493 14.1679 136.91 14.1696C138.08 14.1696 139.31 14.9396 139.31 17.1696V21.1696H137.57V17.3296C137.57 16.3296 137.21 15.5896 136.25 15.5896C135.949 15.5956 135.657 15.695 135.415 15.8742C135.173 16.0534 134.993 16.3034 134.9 16.5896C134.864 16.7334 134.85 16.8818 134.86 17.0296V17.0796ZM147.06 37.9096H138.19C138.171 38.4739 138.276 39.0354 138.499 39.554C138.722 40.0727 139.057 40.5356 139.48 40.9096C140.305 41.5558 141.333 41.8856 142.38 41.8396C143.603 41.8608 144.818 41.6469 145.96 41.2096L146.43 43.2696C145.016 43.8464 143.497 44.1222 141.97 44.0796C141.079 44.1295 140.187 43.9944 139.351 43.6829C138.514 43.3714 137.751 42.8902 137.11 42.2696C136.5 41.6064 136.029 40.8275 135.724 39.979C135.42 39.1305 135.29 38.2296 135.34 37.3296C135.28 35.5217 135.861 33.7508 136.98 32.3296C137.537 31.6356 138.248 31.0814 139.057 30.7115C139.866 30.3417 140.751 30.1664 141.64 30.1996C142.487 30.1513 143.332 30.3219 144.094 30.6949C144.856 31.068 145.509 31.631 145.99 32.3296C146.806 33.5714 147.218 35.0348 147.17 36.5196C147.174 36.9687 147.138 37.4173 147.06 37.8596V37.9096ZM85.96 15.5296C85.5996 15.5395 85.2529 15.67 84.9755 15.9002C84.6981 16.1305 84.506 16.4472 84.43 16.7996C84.392 16.9467 84.3718 17.0978 84.37 17.2496V18.3296C84.3547 18.4659 84.3547 18.6034 84.37 18.7396C84.4548 19.0843 84.6525 19.3906 84.9316 19.6099C85.2107 19.8292 85.5551 19.9488 85.91 19.9496C86.99 19.9496 87.65 19.0896 87.65 17.6996C87.73 16.4596 87.11 15.4796 85.96 15.4796V15.5296ZM98.42 15.3296C97.9911 15.3551 97.5879 15.5429 97.2925 15.855C96.9972 16.1671 96.8318 16.58 96.83 17.0096H99.83C99.8581 16.805 99.843 16.5967 99.7857 16.3982C99.7284 16.1997 99.6302 16.0154 99.4974 15.8571C99.3645 15.6989 99.2001 15.5702 99.0145 15.4793C98.829 15.3885 98.6264 15.3375 98.42 15.3296V15.3296ZM110.04 15.3996C108.82 15.3996 108.33 16.5996 108.33 17.7396C108.33 19.0596 108.99 20.0596 110.03 20.0596C111.07 20.0596 111.7 19.0596 111.7 17.7096C111.73 16.6196 111.23 15.3796 110.04 15.3796V15.3996ZM76.73 19.0696C76.7159 19.2044 76.732 19.3407 76.7772 19.4685C76.8225 19.5962 76.8957 19.7122 76.9916 19.8081C77.0874 19.9039 77.2034 19.9771 77.3312 20.0224C77.459 20.0676 77.5952 20.0838 77.73 20.0696C78.0264 20.0746 78.317 19.9866 78.5609 19.818C78.8048 19.6494 78.9898 19.4087 79.09 19.1296C79.1097 19.0037 79.1097 18.8755 79.09 18.7496V17.8096C77.91 17.7696 76.73 18.0296 76.73 19.0696ZM144.05 15.3296C143.621 15.3551 143.218 15.5429 142.923 15.855C142.627 16.1671 142.462 16.58 142.46 17.0096H145.46C145.49 16.8047 145.476 16.5958 145.419 16.3967C145.362 16.1975 145.264 16.0126 145.131 15.8539C144.998 15.6953 144.833 15.5666 144.647 15.4763C144.46 15.3859 144.257 15.336 144.05 15.3296V15.3296Z" fill="#181B5E"/>
    <path d="M153.39 57.33H7.73C5.68334 57.33 3.7202 56.5183 2.27112 55.073C0.822039 53.6277 0.00529538 51.6667 0 49.62V7.72C0.00264992 5.67161 0.818228 3.70802 2.2676 2.26053C3.71697 0.813034 5.68161 -1.71405e-06 7.73 0H153.39C155.437 0 157.401 0.813358 158.849 2.26114C160.297 3.70892 161.11 5.67253 161.11 7.72V49.59C161.113 50.6055 160.915 51.6115 160.528 52.5505C160.141 53.4894 159.573 54.3428 158.856 55.0618C158.139 55.7808 157.287 56.3512 156.349 56.7404C155.411 57.1297 154.405 57.33 153.39 57.33ZM7.73 2C6.21204 2 4.7561 2.60232 3.68181 3.67474C2.60751 4.74717 2.00265 6.20204 2 7.72V49.59C1.99869 50.3433 2.14593 51.0895 2.4333 51.7859C2.72067 52.4822 3.14253 53.1151 3.67474 53.6482C4.20695 54.1813 4.83906 54.6043 5.53491 54.8929C6.23076 55.1815 6.97668 55.33 7.73 55.33H153.39C154.905 55.33 156.359 54.7287 157.431 53.6582C158.504 52.5876 159.107 51.1353 159.11 49.62V7.72C159.107 6.20377 158.504 4.75041 157.432 3.67827C156.36 2.60614 154.906 2.00264 153.39 2H7.73Z" fill="#181B5E"/>
</svg>
