<svg width="68" height="68" viewBox="0 0 68 68" fill="none" xmlns="http://www.w3.org/2000/svg">
    <path d="M54.9941 22.3788V32.4062C54.9941 33.6912 56.9863 33.6912 56.9863 32.4062V22.3788C56.9863 21.0938 54.9941 21.0938 54.9941 22.3788Z" fill="#181B5E"/>
    <path d="M59.8926 33.4023C60.443 33.4023 60.8887 32.9561 60.8887 32.4062V22.3788C60.8887 21.0938 58.8965 21.0938 58.8965 22.3788V32.4062C58.8965 32.9561 59.3427 33.4023 59.8926 33.4023Z" fill="#181B5E"/>
    <path d="M34.8887 11.8203C34.3387 11.8203 33.8926 12.2665 33.8926 12.8164V43.7617C33.8926 44.3116 34.3387 44.7578 34.8887 44.7578C35.4391 44.7578 35.8848 44.3116 35.8848 43.7617V12.8164C35.8848 12.2665 35.4386 11.8203 34.8887 11.8203Z" fill="#181B5E"/>
    <path d="M25.1094 11.8203C24.5589 11.8203 24.1133 12.2665 24.1133 12.8164V43.7617C24.1133 44.3116 24.5589 44.7578 25.1094 44.7578C25.6593 44.7578 26.1055 44.3116 26.1055 43.7617V12.8164C26.1055 12.2665 25.6593 11.8203 25.1094 11.8203Z" fill="#181B5E"/>
    <path d="M30.1406 11.8203C29.5902 11.8203 29.1445 12.2665 29.1445 12.8164V43.7617C29.1445 44.3116 29.5902 44.7578 30.1406 44.7578C30.6906 44.7578 31.1367 44.3116 31.1367 43.7617V12.8164C31.1367 12.2665 30.6906 11.8203 30.1406 11.8203Z" fill="#181B5E"/>
    <path d="M5.83196 54.2959H18.0217C19.3062 54.2959 19.3062 52.3037 18.0217 52.3037H5.83196C4.5469 52.3037 4.5469 54.2959 5.83196 54.2959Z" fill="#181B5E"/>
    <path d="M5.83196 58.5205H18.0217C19.3062 58.5205 19.3062 56.5283 18.0217 56.5283H5.83196C4.5469 56.5283 4.5469 58.5205 5.83196 58.5205Z" fill="#181B5E"/>
    <path d="M5.83196 62.7451H18.0217C19.3062 62.7451 19.3062 60.7529 18.0217 60.7529H5.83196C4.5469 60.7529 4.5469 62.7451 5.83196 62.7451Z" fill="#181B5E"/>
    <path d="M7.92025 20.2021C6.6383 20.2021 6.63622 22.1943 7.92025 22.1943C9.20168 22.1943 9.20428 20.2021 7.92025 20.2021Z" fill="#181B5E"/>
    <path d="M11.9271 20.2021C10.6451 20.2021 10.6431 22.1943 11.9271 22.1943C13.209 22.1943 13.2111 20.2021 11.9271 20.2021Z" fill="#181B5E"/>
    <path d="M15.9339 20.2021C14.652 20.2021 14.6499 22.1943 15.9339 22.1943C17.2159 22.1943 17.2179 20.2021 15.9339 20.2021Z" fill="#181B5E"/>
    <path d="M7.92025 24.6367C6.6383 24.6367 6.63622 26.6289 7.92025 26.6289C9.20168 26.6289 9.20428 24.6367 7.92025 24.6367Z" fill="#181B5E"/>
    <path d="M11.9271 24.6367C10.6451 24.6367 10.6431 26.6289 11.9271 26.6289C13.209 26.6289 13.2111 24.6367 11.9271 24.6367Z" fill="#181B5E"/>
    <path d="M15.9339 24.6367C14.652 24.6367 14.6499 26.6289 15.9339 26.6289C17.2159 26.6289 17.2179 24.6367 15.9339 24.6367Z" fill="#181B5E"/>
    <path d="M7.92025 29.0723C6.6383 29.0723 6.63622 31.0645 7.92025 31.0645C9.20168 31.0645 9.20428 29.0723 7.92025 29.0723Z" fill="#181B5E"/>
    <path d="M11.9271 29.0723C10.6451 29.0723 10.6431 31.0645 11.9271 31.0645C13.209 31.0645 13.2111 29.0723 11.9271 29.0723Z" fill="#181B5E"/>
    <path d="M15.9339 29.0723C14.652 29.0723 14.6499 31.0645 15.9339 31.0645C17.2159 31.0645 17.2179 29.0723 15.9339 29.0723Z" fill="#181B5E"/>
    <path d="M7.92025 33.5068C6.6383 33.5068 6.63622 35.499 7.92025 35.499C9.20168 35.499 9.20428 33.5068 7.92025 33.5068Z" fill="#181B5E"/>
    <path d="M11.9271 33.5068C10.6451 33.5068 10.6431 35.499 11.9271 35.499C13.209 35.499 13.2111 33.5068 11.9271 33.5068Z" fill="#181B5E"/>
    <path d="M15.9339 33.5068C14.652 33.5068 14.6499 35.499 15.9339 35.499C17.2159 35.499 17.2179 33.5068 15.9339 33.5068Z" fill="#181B5E"/>
    <path d="M7.92025 37.9414C6.6383 37.9414 6.63622 39.9336 7.92025 39.9336C9.20168 39.9336 9.20428 37.9414 7.92025 37.9414Z" fill="#181B5E"/>
    <path d="M11.9271 37.9414C10.6451 37.9414 10.6431 39.9336 11.9271 39.9336C13.209 39.9336 13.2111 37.9414 11.9271 37.9414Z" fill="#181B5E"/>
    <path d="M15.9339 37.9414C14.652 37.9414 14.6499 39.9336 15.9339 39.9336C17.2159 39.9336 17.2179 37.9414 15.9339 37.9414Z" fill="#181B5E"/>
    <path d="M7.92025 42.376C6.6383 42.376 6.63622 44.3682 7.92025 44.3682C9.20168 44.3682 9.20428 42.376 7.92025 42.376Z" fill="#181B5E"/>
    <path d="M11.9271 42.376C10.6451 42.376 10.6431 44.3682 11.9271 44.3682C13.209 44.3682 13.2111 42.376 11.9271 42.376Z" fill="#181B5E"/>
    <path d="M15.9339 42.376C14.652 42.376 14.6499 44.3682 15.9339 44.3682C17.2159 44.3682 17.2179 42.376 15.9339 42.376Z" fill="#181B5E"/>
    <path d="M49.7539 43.4883C50.3044 43.4883 50.75 43.0427 50.75 42.4922V39.7177C50.75 38.4326 48.7578 38.4326 48.7578 39.7177V42.4922C48.7578 43.0427 49.2035 43.4883 49.7539 43.4883Z" fill="#181B5E"/>
    <path d="M44.793 49.9968C45.3429 49.9968 45.7891 49.5511 45.7891 49.0007V39.7775C45.7901 38.4395 43.8026 38.4198 43.7969 39.7775V49.0007C43.7969 49.5511 44.2425 49.9968 44.793 49.9968Z" fill="#181B5E"/>
    <path d="M49.7539 56.312C50.3044 56.312 50.75 55.8658 50.75 55.3159V46.2255C50.75 44.9405 48.7578 44.9405 48.7578 46.2255V55.3159C48.7578 55.8658 49.2035 56.312 49.7539 56.312Z" fill="#181B5E"/>
    <path d="M44.793 56.504C45.3429 56.504 45.7891 56.0583 45.7891 55.5079V52.7333C45.7891 51.4483 43.7969 51.4483 43.7969 52.7333V55.5079C43.7969 56.0583 44.2425 56.504 44.793 56.504Z" fill="#181B5E"/>
    <path d="M44.793 63.0118C45.3429 63.0118 45.7891 62.5661 45.7891 62.0157V59.2411C45.7891 57.9561 43.7969 57.9561 43.7969 59.2411V62.0157C43.7969 62.5661 44.2425 63.0118 44.793 63.0118Z" fill="#181B5E"/>
    <path d="M49.7539 63.0118C50.3044 63.0118 50.75 62.5661 50.75 62.0157V59.2411C50.75 57.9561 48.7578 57.9561 48.7578 59.2411V62.0157C48.7578 62.5661 49.2035 63.0118 49.7539 63.0118Z" fill="#181B5E"/>
    <path d="M67.9146 16.8661L66.4536 12.749C66.3125 12.3516 65.9364 12.0859 65.5146 12.0859H63.6443L59.0794 4.40512C58.8999 4.10318 58.5741 3.91797 58.2229 3.91797H56.9866V0.996094C56.9866 -0.288971 54.9944 -0.288971 54.9944 0.996094V3.91797H53.191C52.8206 3.91797 52.4808 4.12393 52.3086 4.45181L48.3102 12.0859H46.4664C46.0451 12.0859 45.669 12.3516 45.5279 12.749L44.0669 16.8661C43.8418 17.5012 44.3429 18.1953 45.0054 18.1953H46.5255V27.405L40.7041 22.5128V7.50391C40.7041 6.95398 40.2579 6.50781 39.708 6.50781H37.0896V0.996094C37.0896 0.446167 36.644 0 36.0935 0H23.9038C23.3539 0 22.9077 0.446167 22.9077 0.996094V6.50781H20.2899C19.7394 6.50781 19.2938 6.95398 19.2938 7.50391V15.0794H17.3016V5.25232C17.3016 4.53326 16.5073 4.03781 15.8598 4.36154L7.10251 8.74435C6.76529 8.91348 6.55206 9.25797 6.55206 9.63513V15.0794H3.65042C3.09998 15.0794 2.65433 15.5256 2.65433 16.0755V47.1822H1.10156C0.551117 47.1822 0.105469 47.6278 0.105469 48.1783V57.375C0.105469 58.6601 2.09766 58.6601 2.09766 57.375V49.1743H21.756V66.0078H2.09766V62.1562C2.09766 60.8712 0.105469 60.8712 0.105469 62.1562V67.0039C0.105469 67.5538 0.551117 68 1.10156 68H57.1479C58.433 68 58.433 66.0078 57.1479 66.0078H55.8348V35.6934C55.8348 35.3992 55.7046 35.1201 55.4795 34.9307L52.9866 32.8353C53.0489 32.7056 53.0847 32.5603 53.0847 32.4062V22.3789C53.0847 21.0938 51.0925 21.0938 51.0925 22.3789V31.2436L48.5177 29.0797V18.2617H63.4633V66.0078H62.1948C60.9097 66.0078 60.9097 68 62.1948 68H64.4594C65.0098 68 65.4554 67.5538 65.4554 67.0039V18.1953H66.9755C67.6365 18.1953 68.1387 17.4991 67.9146 16.8661ZM24.8999 1.99219H35.0974V6.50781H24.8999V1.99219ZM8.54425 10.2509L15.3094 6.86475V15.0794H8.54425V10.2509ZM4.64651 47.1822V17.0716H7.40445C7.45166 17.0783 7.49939 17.0835 7.54816 17.0835H16.3055C16.3548 17.0835 16.4025 17.0783 16.4497 17.0716H19.2076V47.1822H4.64651ZM53.8427 66.0078H40.7041V34.7969C40.7041 34.2469 40.2584 33.8008 39.708 33.8008C39.1575 33.8008 38.7119 34.2469 38.7119 34.7969V66.0078H23.7482V48.1783C23.7482 47.6278 23.3025 47.1822 22.7521 47.1822H21.2859V8.5H38.7119V29.75C38.7119 30.2999 39.1575 30.7461 39.708 30.7461C40.2584 30.7461 40.7041 30.2999 40.7041 29.75V25.1151L53.8427 36.1572V66.0078ZM53.7939 5.91016H57.6563L61.3268 12.0859H50.5592L53.7939 5.91016ZM46.416 16.2031L47.1704 14.0781H64.8111L65.5654 16.2031H46.416Z" fill="#181B5E"/>
    <path d="M59.9271 36.7227C58.6451 36.7227 58.6431 38.7148 59.9271 38.7148C61.209 38.7148 61.2111 36.7227 59.9271 36.7227Z" fill="#181B5E"/>
    <path d="M59.9271 41.5303C58.6451 41.5303 58.6431 43.5225 59.9271 43.5225C61.209 43.5225 61.2111 41.5303 59.9271 41.5303Z" fill="#181B5E"/>
    <path d="M59.9271 46.3379C58.6451 46.3379 58.6431 48.3301 59.9271 48.3301C61.209 48.3301 61.2111 46.3379 59.9271 46.3379Z" fill="#181B5E"/>
    <path d="M59.9271 51.1465C58.6451 51.1465 58.6431 53.1387 59.9271 53.1387C61.209 53.1387 61.2111 51.1465 59.9271 51.1465Z" fill="#181B5E"/>
    <path d="M59.9271 55.9541C58.6451 55.9541 58.6431 57.9463 59.9271 57.9463C61.209 57.9463 61.2111 55.9541 59.9271 55.9541Z" fill="#181B5E"/>
    <path d="M59.9271 60.7617C58.6451 60.7617 58.6431 62.7539 59.9271 62.7539C61.209 62.7539 61.2111 60.7617 59.9271 60.7617Z" fill="#181B5E"/>
</svg>
