<svg width="147" height="40" viewBox="0 0 147 40" fill="none" xmlns="http://www.w3.org/2000/svg">
    <g clip-path="url(#clip0)">
        <path d="M17.8367 30.0003C17.8367 31.3793 18.9458 32.5011 20.3129 32.5011C21.68 32.5011 22.7899 31.3793 22.7899 30.0003C22.7899 28.6195 21.68 27.4995 20.3129 27.4995C18.9458 27.4995 17.8367 28.6195 17.8367 30.0003ZM35.038 22.4998C34.3563 27.4885 31.16 31.6678 26.7833 33.6902C24.9632 34.5309 22.94 35.0001 20.8088 35.0001H20.3129C17.5768 35.0001 15.3597 32.762 15.3597 30.0003C15.3597 27.2387 17.5768 25.0006 20.3129 25.0006C23.048 25.0006 25.2661 27.2387 25.2661 30.0003C25.2661 30.6161 25.1554 31.2051 24.955 31.7508C25.9524 31.3747 26.8876 30.8677 27.7386 30.2511C27.7386 30.2511 27.7419 30.0841 27.7419 30.0002C27.7419 25.8577 24.4157 22.4997 20.3125 22.4997C16.2094 22.4997 12.8822 25.8577 12.8822 30.0002C12.8822 34.1408 16.2094 37.4998 20.3125 37.4998C23.3569 37.4998 26.2174 36.7071 28.7045 35.317C33.3521 32.7167 36.6903 28.0239 37.4736 22.4997L35.038 22.4998ZM10.4064 22.4998H3.15276C3.93513 28.024 7.27418 32.7168 11.9209 35.3171C10.961 33.7778 10.4064 31.9536 10.4064 30.0003V22.4998ZM40.1267 19.999C40.1267 31.0456 31.2561 39.9998 20.3129 39.9998C9.37059 39.9998 0.5 31.0456 0.5 19.999H12.8826V23.3847C14.699 21.3098 17.3545 19.999 20.3129 19.999C25.1297 19.999 29.1441 23.4695 30.0354 28.0674C31.6669 26.0422 32.6589 23.4695 32.6964 20.6627V19.999H40.1267Z" fill="#6A6F82"/>
        <path d="M20.3134 12.1429H19.0744V7.49988C17.7073 7.49988 16.5983 8.61891 16.5983 10.0007C16.5983 10.9095 17.0787 11.706 17.7988 12.1429H14.5979C14.2923 11.493 14.1212 10.7667 14.1212 10.0007C14.1212 9.1213 14.3463 8.29538 14.7407 7.57823C14.5421 7.52756 14.3353 7.49985 14.1212 7.49985C12.7541 7.49985 11.645 8.61888 11.645 10.0006C11.645 10.9095 12.1264 11.7059 12.8456 12.1428H9.64472C9.33908 11.493 9.16797 10.7666 9.16797 10.0006C9.16797 7.239 11.3861 5 14.1212 5C15.0234 5 15.8699 5.24326 16.5983 5.66827C17.3266 5.24334 18.1731 5 19.0744 5C19.5026 5 19.9181 5.05435 20.3134 5.15755C20.7087 5.05434 21.1232 5 21.5506 5C22.4537 5 23.2992 5.24326 24.0276 5.66827C24.7569 5.24334 25.6024 5 26.5056 5C29.2398 5 31.4588 7.239 31.4588 10.0006C31.4588 10.7666 31.2868 11.493 30.9821 12.1428H27.7812C28.5004 11.7059 28.9817 10.9095 28.9817 10.0006C28.9817 8.61888 27.8727 7.49985 26.5056 7.49985C26.2915 7.49985 26.0847 7.52753 25.8852 7.57823C26.2805 8.29538 26.5056 9.1213 26.5056 10.0007C26.5056 10.7667 26.3336 11.493 26.0279 12.1429H22.828C23.5463 11.706 24.0276 10.9095 24.0276 10.0007C24.0276 8.61891 22.9195 7.49988 21.5506 7.49988V12.1429H20.3134Z" fill="#6A6F82"/>
        <path d="M9.64551 14.3224C9.64551 13.4891 10.3153 12.8125 11.1425 12.8125C11.9679 12.8125 12.6378 13.4891 12.6378 14.3224C12.6378 15.1575 11.9679 15.8332 11.1425 15.8332C10.3153 15.8332 9.64551 15.1575 9.64551 14.3224Z" fill="#6A6F82"/>
        <path d="M27.9883 14.3224C27.9883 13.4891 28.659 12.8125 29.4844 12.8125C30.3116 12.8125 30.9814 13.4891 30.9814 14.3224C30.9814 15.1575 30.3116 15.8332 29.4844 15.8332C28.659 15.8332 27.9883 15.1575 27.9883 14.3224Z" fill="#6A6F82"/>
        <path d="M23.4023 14.3224C23.4023 13.4891 24.0731 12.8125 24.8994 12.8125C25.7257 12.8125 26.3955 13.4891 26.3955 14.3224C26.3955 15.1575 25.7257 15.8332 24.8994 15.8332C24.0731 15.8332 23.4023 15.1575 23.4023 14.3224Z" fill="#6A6F82"/>
        <path d="M18.8174 14.3224C18.8174 13.4891 19.4872 12.8125 20.3144 12.8125C21.1398 12.8125 21.8096 13.4891 21.8096 14.3224C21.8096 15.1575 21.1398 15.8332 20.3144 15.8332C19.4872 15.8332 18.8174 15.1575 18.8174 14.3224Z" fill="#6A6F82"/>
        <path d="M14.2314 14.3224C14.2314 13.4891 14.9013 12.8125 15.7276 12.8125C16.5539 12.8125 17.2237 13.4891 17.2237 14.3224C17.2237 15.1575 16.5539 15.8332 15.7276 15.8332C14.9013 15.8332 14.2314 15.1575 14.2314 14.3224Z" fill="#6A6F82"/>
        <path d="M12.8828 16.667H27.7434V19.1678H12.8828V16.667Z" fill="#6A6F82"/>
        <path d="M19.9005 2.25743V1.66566H19.0742V0.833291H19.9005V0H20.7259V0.833291H21.5513V1.66566H20.7259V2.25743C21.2063 2.42988 21.5513 2.89252 21.5513 3.43637C21.5513 4.12678 20.9977 4.68723 20.3132 4.68723C19.6287 4.68723 19.0742 4.12678 19.0742 3.43637C19.0742 2.89252 19.4192 2.4298 19.9005 2.25743Z" fill="#6A6F82"/>
        <path d="M64.093 29.2735C61.8239 30.6395 59.0649 31.7133 56.8832 31.8186C54.5279 31.9357 51.9373 31.5135 51.2097 29.138C50.1398 25.6441 52.2731 21.1896 55.0517 19.6987C58.8989 17.6326 62.0943 18.7512 63.1903 19.8856L63.9924 15.7153C62.3647 14.9902 60.1335 14.6836 59.3013 14.6836C53.4945 14.6836 50.7015 17.5366 48.9562 19.904C46.9967 22.5675 44.3814 29.2749 49.2436 33.911C50.6937 35.294 53.3404 36.1415 55.8486 35.9665C59.8056 35.6875 62.2289 34.5519 64.5411 32.8727C64.6561 33.1252 64.7893 33.3622 64.9409 33.582C65.952 35.0493 67.7966 35.7849 70.4628 35.7849C74.898 35.7849 77.8242 34.0334 78.7191 28.988L79.0039 27.3089C79.0364 27.1496 79.0679 26.9668 79.0953 26.7706C79.1671 26.2666 79.2142 25.6797 79.2142 25.2007C79.2142 21.391 76.9032 19.7329 72.7986 19.7329C68.4105 19.7329 65.5561 21.4621 64.5646 26.5048C66.9722 24.9178 69.3302 23.2846 72.3976 23.2846C74.0971 23.2846 74.6145 23.9716 74.6145 25.2494C74.6145 25.6665 74.5937 26.1061 74.4786 26.7706C74.4682 26.8247 74.4604 26.8758 74.4497 26.931L74.1427 28.5878C73.6006 31.2855 72.869 32.233 70.7932 32.233C69.2138 32.233 68.6234 31.6895 68.6234 30.3157C68.6001 29.8393 68.703 28.9247 68.7631 28.5878C68.8245 28.2521 69.2439 26.2849 69.2439 26.2849C69.2439 26.2849 66.383 27.8956 64.0929 29.2734" fill="#6A6F82"/>
        <path d="M91.5148 19.7773C89.8688 19.7773 87.9145 20.0351 86.1979 21.4288L86.4095 20.1787H82.1273L79.4453 35.3832H84.079L86.032 24.3582C87.2796 23.9792 89.162 23.6725 90.8329 23.6725L91.5148 19.7773Z" fill="#6A6F82"/>
        <path d="M102.266 19.7773C100.622 19.7773 98.6908 20.0351 96.9494 21.4288L97.1846 20.1787H92.9036L90.2217 35.3832H94.8553L96.8083 24.3582C98.0559 23.9792 99.9371 23.6725 101.608 23.6725L102.266 19.7773Z" fill="#6A6F82"/>
        <path d="M141.183 22.8945C142.335 22.8945 144.147 23.0116 146.03 23.2011L146.5 20.3915C145.348 20.0838 143.37 19.7783 141.088 19.7783C137.559 19.7783 134.147 20.5323 134.147 24.5473C134.147 26.7673 135.395 28.0899 137.7 29.0071L138.83 29.4572C140.453 30.1428 140.807 30.3783 140.807 31.11C140.807 32.4075 139.606 32.6681 138.124 32.6681C135.89 32.6681 134.996 32.4797 133.018 32.3879L132.547 35.1712C133.349 35.408 135.749 35.7607 137.866 35.7607C142.171 35.7607 145.442 34.4645 145.442 30.4969C145.442 28.3717 144.383 27.1912 141.749 26.1516L140.476 25.6568C139.23 25.1383 138.736 24.8765 138.736 24.2409C138.736 22.942 140.077 22.8946 141.183 22.8946" fill="#6A6F82"/>
        <path d="M127.56 26.9555L127.23 28.6071C126.713 31.2995 125.983 32.243 123.914 32.243C122.337 32.243 121.724 31.6996 121.724 30.331C121.724 29.8125 121.749 29.269 121.889 28.6071L122.219 26.9555C122.712 24.2631 123.489 23.3196 125.513 23.3196C127.208 23.3196 127.702 24.0038 127.702 25.279C127.702 25.7277 127.702 26.1988 127.56 26.9555ZM125.912 19.7783C121.512 19.7783 118.666 21.4996 117.702 26.5305L117.396 27.9938C117.208 28.915 117.208 29.623 117.208 30.331C117.208 33.9669 119.395 35.7856 123.558 35.7856C128.006 35.7856 130.925 34.038 131.818 29.0071L132.101 27.3332C132.195 26.766 132.312 25.8923 132.312 25.2303C132.312 21.4299 130.006 19.7783 125.912 19.7783Z" fill="#6A6F82"/>
        <path d="M111.584 26.5048H106.149L106.22 26.293C106.502 24.6388 107.184 23.082 109.444 23.082C111.232 23.082 111.747 23.9795 111.747 25.1112C111.747 25.4664 111.678 25.9416 111.584 26.5048H111.584ZM109.866 19.7764C105.467 19.7764 102.337 21.6174 101.444 26.9549L101.326 27.7576C101.16 28.6775 101.044 29.5513 101.044 30.3079C101.044 34.1545 103.372 35.7836 107.725 35.7836C110.43 35.7836 112.62 35.406 113.867 35.1243L114.36 32.0542C111.514 32.2422 110.195 32.3161 108.62 32.3161C106.173 32.3161 105.514 31.7002 105.514 30.4724C105.514 30.1423 105.585 29.7158 105.701 29.0315H115.654C115.96 27.4747 116.101 26.4127 116.101 25.3481C116.101 22.0424 114.311 19.7764 109.866 19.7764" fill="#6A6F82"/>
    </g>
    <defs>
        <clipPath id="clip0">
            <path d="M0.5 0H146.5V40H0.5V0Z" fill="white"/>
        </clipPath>
    </defs>
</svg>
