<svg width="384" height="140" viewBox="0 0 384 140" fill="none" xmlns="http://www.w3.org/2000/svg">
    <g filter="url(#filter0_d)">
        <rect x="10" y="6" width="364" height="120" rx="10" fill="white"/>
        <path d="M69.3 51.8V60.48C69.3 61.96 68.9 63.12 68.1 63.96C67.3133 64.7867 66.22 65.2 64.82 65.2C63.8333 65.2 63.02 65.0133 62.38 64.64C61.74 64.2667 61.2933 63.74 61.04 63.06C60.8 62.3667 60.7667 61.56 60.94 60.64L62.42 60.34C62.2733 61.4733 62.3733 62.32 62.72 62.88C63.08 63.4267 63.76 63.7 64.76 63.7C65.8933 63.7 66.6667 63.3933 67.08 62.78C67.4933 62.1533 67.7 61.2533 67.7 60.08V51.8H69.3ZM77.1719 54.8C78.1185 54.8 78.9519 55.0067 79.6719 55.42C80.4052 55.8333 80.9785 56.4333 81.3919 57.22C81.8052 57.9933 82.0119 58.92 82.0119 60C82.0119 61.08 81.8052 62.0133 81.3919 62.8C80.9785 63.5733 80.4052 64.1667 79.6719 64.58C78.9519 64.9933 78.1185 65.2 77.1719 65.2C76.2385 65.2 75.4052 64.9933 74.6719 64.58C73.9385 64.1667 73.3652 63.5733 72.9519 62.8C72.5385 62.0133 72.3319 61.08 72.3319 60C72.3319 58.92 72.5385 57.9933 72.9519 57.22C73.3652 56.4333 73.9385 55.8333 74.6719 55.42C75.4052 55.0067 76.2385 54.8 77.1719 54.8ZM77.1719 56.18C76.4919 56.18 75.9119 56.3333 75.4319 56.64C74.9519 56.9467 74.5785 57.3867 74.3119 57.96C74.0585 58.52 73.9319 59.2 73.9319 60C73.9319 60.7867 74.0585 61.4667 74.3119 62.04C74.5785 62.6133 74.9519 63.0533 75.4319 63.36C75.9119 63.6667 76.4919 63.82 77.1719 63.82C77.8519 63.82 78.4319 63.6667 78.9119 63.36C79.3919 63.0533 79.7585 62.6133 80.0119 62.04C80.2785 61.4667 80.4119 60.7867 80.4119 60C80.4119 59.2 80.2785 58.52 80.0119 57.96C79.7585 57.3867 79.3919 56.9467 78.9119 56.64C78.4319 56.3333 77.8519 56.18 77.1719 56.18ZM85.0241 65V50.4H86.6241V56.5C86.9707 55.9 87.4307 55.4667 88.0041 55.2C88.5774 54.9333 89.2041 54.8 89.8841 54.8C90.6041 54.8 91.2574 54.94 91.8441 55.22C92.4307 55.4867 92.8974 55.9 93.2441 56.46C93.6041 57.02 93.7841 57.7333 93.7841 58.6V65H92.1841V59.16C92.1841 58.0533 91.9441 57.2867 91.4641 56.86C90.9974 56.42 90.4174 56.2 89.7241 56.2C89.2441 56.2 88.7641 56.3133 88.2841 56.54C87.8041 56.7667 87.4041 57.14 87.0841 57.66C86.7774 58.1667 86.6241 58.8467 86.6241 59.7V65H85.0241ZM97.4069 65V55H98.8069L98.9469 57.24L98.6869 57.02C98.9002 56.4867 99.1869 56.06 99.5469 55.74C99.9069 55.4067 100.32 55.1667 100.787 55.02C101.267 54.8733 101.76 54.8 102.267 54.8C102.987 54.8 103.64 54.94 104.227 55.22C104.814 55.4867 105.28 55.9 105.627 56.46C105.987 57.02 106.167 57.7333 106.167 58.6V65H104.567V59.16C104.567 58.0533 104.327 57.2867 103.847 56.86C103.38 56.42 102.8 56.2 102.107 56.2C101.627 56.2 101.147 56.3133 100.667 56.54C100.187 56.7667 99.7869 57.1333 99.4669 57.64C99.1602 58.1467 99.0069 58.8267 99.0069 59.68V65H97.4069ZM121.166 51.8C123.233 51.8 124.853 52.3733 126.026 53.52C127.213 54.6533 127.806 56.28 127.806 58.4C127.806 60.52 127.213 62.1533 126.026 63.3C124.853 64.4333 123.233 65 121.166 65H116.906V51.8H121.166ZM121.326 63.5C122.833 63.5 124.006 63.0533 124.846 62.16C125.699 61.2533 126.126 60 126.126 58.4C126.126 56.8 125.699 55.5533 124.846 54.66C124.006 53.7533 122.833 53.3 121.326 53.3H118.506V63.5H121.326ZM135.16 54.8C136.107 54.8 136.94 55.0067 137.66 55.42C138.393 55.8333 138.967 56.4333 139.38 57.22C139.793 57.9933 140 58.92 140 60C140 61.08 139.793 62.0133 139.38 62.8C138.967 63.5733 138.393 64.1667 137.66 64.58C136.94 64.9933 136.107 65.2 135.16 65.2C134.227 65.2 133.393 64.9933 132.66 64.58C131.927 64.1667 131.353 63.5733 130.94 62.8C130.527 62.0133 130.32 61.08 130.32 60C130.32 58.92 130.527 57.9933 130.94 57.22C131.353 56.4333 131.927 55.8333 132.66 55.42C133.393 55.0067 134.227 54.8 135.16 54.8ZM135.16 56.18C134.48 56.18 133.9 56.3333 133.42 56.64C132.94 56.9467 132.567 57.3867 132.3 57.96C132.047 58.52 131.92 59.2 131.92 60C131.92 60.7867 132.047 61.4667 132.3 62.04C132.567 62.6133 132.94 63.0533 133.42 63.36C133.9 63.6667 134.48 63.82 135.16 63.82C135.84 63.82 136.42 63.6667 136.9 63.36C137.38 63.0533 137.747 62.6133 138 62.04C138.267 61.4667 138.4 60.7867 138.4 60C138.4 59.2 138.267 58.52 138 57.96C137.747 57.3867 137.38 56.9467 136.9 56.64C136.42 56.3333 135.84 56.18 135.16 56.18ZM147.192 65.2C146.246 65.2 145.399 64.9933 144.652 64.58C143.919 64.1667 143.346 63.5733 142.932 62.8C142.519 62.0133 142.312 61.08 142.312 60C142.312 58.92 142.519 57.9933 142.932 57.22C143.346 56.4333 143.912 55.8333 144.632 55.42C145.352 55.0067 146.172 54.8 147.092 54.8C148.026 54.8 148.819 55 149.472 55.4C150.139 55.8 150.646 56.3467 150.992 57.04C151.339 57.72 151.512 58.4867 151.512 59.34C151.512 59.5667 151.506 59.7733 151.492 59.96C151.479 60.1467 151.459 60.3133 151.432 60.46H143.352V59.04H150.732L149.912 59.2C149.912 58.24 149.646 57.5 149.112 56.98C148.592 56.46 147.906 56.2 147.052 56.2C146.399 56.2 145.832 56.3533 145.352 56.66C144.886 56.9533 144.519 57.3867 144.252 57.96C143.999 58.52 143.872 59.2 143.872 60C143.872 60.7867 144.006 61.4667 144.272 62.04C144.539 62.6133 144.912 63.0533 145.392 63.36C145.886 63.6533 146.472 63.8 147.152 63.8C147.886 63.8 148.479 63.66 148.932 63.38C149.399 63.1 149.772 62.72 150.052 62.24L151.312 62.98C151.059 63.4333 150.732 63.8267 150.332 64.16C149.946 64.4933 149.486 64.7533 148.952 64.94C148.432 65.1133 147.846 65.2 147.192 65.2ZM64.16 88V78.32C64.16 78.0933 64.16 77.8533 64.16 77.6C64.1733 77.3333 64.1867 77.06 64.2 76.78C63.7467 77.22 63.22 77.6067 62.62 77.94C62.02 78.26 61.4067 78.4933 60.78 78.64L60.36 77.18C60.6 77.1533 60.9 77.0667 61.26 76.92C61.6333 76.76 62.02 76.5667 62.42 76.34C62.8333 76.1 63.2133 75.8467 63.56 75.58C63.9067 75.3133 64.1733 75.0533 64.36 74.8H65.76V88H64.16ZM69.273 88V86.7C70.593 85.7267 71.693 84.8733 72.573 84.14C73.4663 83.4067 74.1796 82.74 74.713 82.14C75.2463 81.54 75.6263 80.9733 75.853 80.44C76.0796 79.8933 76.193 79.3267 76.193 78.74C76.193 77.9533 75.9396 77.32 75.433 76.84C74.9396 76.3467 74.2596 76.1 73.393 76.1C72.4863 76.1 71.7596 76.4 71.213 77C70.6663 77.5867 70.3463 78.3733 70.253 79.36L68.853 78.52C68.973 77.7467 69.2196 77.0667 69.593 76.48C69.9796 75.8933 70.493 75.4333 71.133 75.1C71.7863 74.7667 72.5596 74.6 73.453 74.6C74.133 74.6 74.7396 74.7 75.273 74.9C75.8196 75.1 76.2863 75.3867 76.673 75.76C77.0596 76.12 77.353 76.5533 77.553 77.06C77.7663 77.5667 77.873 78.1267 77.873 78.74C77.873 79.5667 77.673 80.38 77.273 81.18C76.873 81.9667 76.213 82.7933 75.293 83.66C74.373 84.5267 73.1263 85.4867 71.553 86.54V86.56C71.6996 86.5467 71.8996 86.54 72.153 86.54C72.4196 86.5267 72.6796 86.52 72.933 86.52C73.1996 86.5067 73.3996 86.5 73.533 86.5H78.153V88H69.273ZM85.2531 88.2C84.0798 88.2 83.0398 87.9267 82.1331 87.38C81.2398 86.82 80.6331 86.0533 80.3131 85.08L81.9131 84.26C82.0731 84.7533 82.2931 85.1867 82.5731 85.56C82.8531 85.92 83.2198 86.2 83.6731 86.4C84.1398 86.6 84.7198 86.7 85.4131 86.7C85.9998 86.7 86.4931 86.5933 86.8931 86.38C87.2931 86.1667 87.5998 85.88 87.8131 85.52C88.0265 85.1467 88.1331 84.72 88.1331 84.24C88.1331 83.76 88.0398 83.36 87.8531 83.04C87.6798 82.72 87.3998 82.4867 87.0131 82.34C86.6265 82.18 86.1198 82.1 85.4931 82.1C85.3465 82.1 85.1865 82.1067 85.0131 82.12C84.8398 82.12 84.6598 82.1333 84.4731 82.16V80.56C84.5931 80.5733 84.7065 80.58 84.8131 80.58C84.9331 80.58 85.0398 80.58 85.1331 80.58C86.1065 80.58 86.7998 80.3933 87.2131 80.02C87.6265 79.6333 87.8331 79.0333 87.8331 78.22C87.8331 77.5267 87.6198 77 87.1931 76.64C86.7665 76.28 86.1598 76.1 85.3731 76.1C84.5331 76.1 83.8931 76.2867 83.4531 76.66C83.0131 77.02 82.6665 77.5133 82.4131 78.14L80.8931 77.42C81.1065 76.86 81.4265 76.3667 81.8531 75.94C82.2798 75.5133 82.7931 75.18 83.3931 74.94C84.0065 74.7 84.6798 74.58 85.4131 74.58C86.3331 74.58 87.0931 74.74 87.6931 75.06C88.2931 75.3667 88.7398 75.78 89.0331 76.3C89.3398 76.82 89.4931 77.3933 89.4931 78.02C89.4931 78.5 89.4265 78.9333 89.2931 79.32C89.1598 79.6933 88.9731 80.02 88.7331 80.3C88.5065 80.58 88.2465 80.8067 87.9531 80.98C87.6598 81.14 87.3465 81.2467 87.0131 81.3V81.34C87.4531 81.3533 87.8398 81.44 88.1731 81.6C88.5198 81.76 88.8131 81.9733 89.0531 82.24C89.2931 82.5067 89.4731 82.8133 89.5931 83.16C89.7265 83.4933 89.7931 83.8467 89.7931 84.22C89.7931 84.9933 89.5998 85.68 89.2131 86.28C88.8398 86.88 88.3131 87.3533 87.6331 87.7C86.9531 88.0333 86.1598 88.2 85.2531 88.2ZM97.0533 74.6C98.1599 74.6 99.0933 74.8933 99.8533 75.48C100.613 76.0533 101.187 76.8533 101.573 77.88C101.96 78.8933 102.153 80.0667 102.153 81.4C102.153 82.88 101.96 84.1267 101.573 85.14C101.187 86.14 100.613 86.9 99.8533 87.42C99.1066 87.94 98.1799 88.2 97.0733 88.2C95.9799 88.2 95.0399 87.9467 94.2533 87.44C93.4666 86.9333 92.8799 86.1933 92.4933 85.22L94.0733 84.38C94.2866 85.0733 94.6333 85.6333 95.1133 86.06C95.6066 86.4867 96.2799 86.7 97.1333 86.7C97.8266 86.7 98.3999 86.5667 98.8533 86.3C99.3199 86.02 99.6866 85.6267 99.9533 85.12C100.22 84.6 100.407 83.98 100.513 83.26C100.633 82.54 100.693 81.74 100.693 80.86C100.693 80.8333 100.693 80.8067 100.693 80.78C100.693 80.74 100.693 80.7067 100.693 80.68H100.613C100.453 81.28 100.173 81.7667 99.7733 82.14C99.3733 82.5 98.9199 82.76 98.4133 82.92C97.9199 83.08 97.4266 83.16 96.9333 83.16C96.0666 83.16 95.2999 82.9933 94.6333 82.66C93.9666 82.3133 93.4466 81.8333 93.0733 81.22C92.6999 80.6067 92.5133 79.88 92.5133 79.04C92.5133 78.1333 92.6933 77.3533 93.0533 76.7C93.4133 76.0333 93.9333 75.52 94.6133 75.16C95.2933 74.7867 96.1066 74.6 97.0533 74.6ZM97.0733 76.14C96.1399 76.14 95.4266 76.4 94.9333 76.92C94.4399 77.4267 94.1933 78.14 94.1933 79.06C94.1933 79.8467 94.4533 80.4733 94.9733 80.94C95.4933 81.3933 96.1933 81.62 97.0733 81.62C97.6466 81.62 98.1466 81.5067 98.5733 81.28C99.0133 81.04 99.3533 80.72 99.5933 80.32C99.8333 79.9067 99.9533 79.4333 99.9533 78.9C99.9533 78.34 99.8333 77.8533 99.5933 77.44C99.3533 77.0267 99.0133 76.7067 98.5733 76.48C98.1466 76.2533 97.6466 76.14 97.0733 76.14ZM108.866 88.2C107.693 88.2 106.653 87.9267 105.746 87.38C104.853 86.82 104.246 86.0533 103.926 85.08L105.526 84.26C105.686 84.7533 105.906 85.1867 106.186 85.56C106.466 85.92 106.833 86.2 107.286 86.4C107.753 86.6 108.333 86.7 109.026 86.7C109.613 86.7 110.106 86.5933 110.506 86.38C110.906 86.1667 111.213 85.88 111.426 85.52C111.64 85.1467 111.746 84.72 111.746 84.24C111.746 83.76 111.653 83.36 111.466 83.04C111.293 82.72 111.013 82.4867 110.626 82.34C110.24 82.18 109.733 82.1 109.106 82.1C108.96 82.1 108.8 82.1067 108.626 82.12C108.453 82.12 108.273 82.1333 108.086 82.16V80.56C108.206 80.5733 108.32 80.58 108.426 80.58C108.546 80.58 108.653 80.58 108.746 80.58C109.72 80.58 110.413 80.3933 110.826 80.02C111.24 79.6333 111.446 79.0333 111.446 78.22C111.446 77.5267 111.233 77 110.806 76.64C110.38 76.28 109.773 76.1 108.986 76.1C108.146 76.1 107.506 76.2867 107.066 76.66C106.626 77.02 106.28 77.5133 106.026 78.14L104.506 77.42C104.72 76.86 105.04 76.3667 105.466 75.94C105.893 75.5133 106.406 75.18 107.006 74.94C107.62 74.7 108.293 74.58 109.026 74.58C109.946 74.58 110.706 74.74 111.306 75.06C111.906 75.3667 112.353 75.78 112.646 76.3C112.953 76.82 113.106 77.3933 113.106 78.02C113.106 78.5 113.04 78.9333 112.906 79.32C112.773 79.6933 112.586 80.02 112.346 80.3C112.12 80.58 111.86 80.8067 111.566 80.98C111.273 81.14 110.96 81.2467 110.626 81.3V81.34C111.066 81.3533 111.453 81.44 111.786 81.6C112.133 81.76 112.426 81.9733 112.666 82.24C112.906 82.5067 113.086 82.8133 113.206 83.16C113.34 83.4933 113.406 83.8467 113.406 84.22C113.406 84.9933 113.213 85.68 112.826 86.28C112.453 86.88 111.926 87.3533 111.246 87.7C110.566 88.0333 109.773 88.2 108.866 88.2ZM120.887 74.62C121.74 74.62 122.48 74.76 123.107 75.04C123.733 75.32 124.22 75.72 124.567 76.24C124.913 76.7467 125.087 77.36 125.087 78.08C125.087 78.76 124.92 79.36 124.587 79.88C124.267 80.3867 123.813 80.7733 123.227 81.04V81.06C123.973 81.34 124.567 81.7667 125.007 82.34C125.46 82.9133 125.687 83.6133 125.687 84.44C125.687 85.2133 125.487 85.88 125.087 86.44C124.687 87 124.127 87.4333 123.407 87.74C122.7 88.0467 121.86 88.2 120.887 88.2C119.927 88.2 119.087 88.0467 118.367 87.74C117.647 87.4333 117.087 87 116.687 86.44C116.287 85.88 116.087 85.2133 116.087 84.44C116.087 83.6267 116.307 82.9333 116.747 82.36C117.187 81.7733 117.793 81.34 118.567 81.06V81.04C117.993 80.7867 117.533 80.4067 117.187 79.9C116.853 79.38 116.687 78.7733 116.687 78.08C116.687 77.36 116.86 76.7467 117.207 76.24C117.553 75.72 118.04 75.32 118.667 75.04C119.307 74.76 120.047 74.62 120.887 74.62ZM120.887 76.12C120.113 76.12 119.493 76.3067 119.027 76.68C118.573 77.0533 118.347 77.5733 118.347 78.24C118.347 78.8933 118.58 79.4067 119.047 79.78C119.513 80.1533 120.127 80.34 120.887 80.34C121.647 80.34 122.26 80.1533 122.727 79.78C123.193 79.4067 123.427 78.8933 123.427 78.24C123.427 77.5733 123.2 77.0533 122.747 76.68C122.293 76.3067 121.673 76.12 120.887 76.12ZM120.887 86.7C121.54 86.7 122.1 86.6067 122.567 86.42C123.033 86.22 123.393 85.94 123.647 85.58C123.9 85.2067 124.027 84.7733 124.027 84.28C124.027 83.7733 123.893 83.34 123.627 82.98C123.373 82.6067 123.013 82.3267 122.547 82.14C122.08 81.94 121.527 81.84 120.887 81.84C120.26 81.84 119.707 81.94 119.227 82.14C118.76 82.3267 118.393 82.6067 118.127 82.98C117.873 83.34 117.747 83.7733 117.747 84.28C117.747 84.7733 117.873 85.2067 118.127 85.58C118.38 85.94 118.74 86.22 119.207 86.42C119.687 86.6067 120.247 86.7 120.887 86.7ZM132.46 88.2C131.287 88.2 130.247 87.9267 129.34 87.38C128.447 86.82 127.84 86.0533 127.52 85.08L129.12 84.26C129.28 84.7533 129.5 85.1867 129.78 85.56C130.06 85.92 130.427 86.2 130.88 86.4C131.347 86.6 131.927 86.7 132.62 86.7C133.207 86.7 133.7 86.5933 134.1 86.38C134.5 86.1667 134.807 85.88 135.02 85.52C135.233 85.1467 135.34 84.72 135.34 84.24C135.34 83.76 135.247 83.36 135.06 83.04C134.887 82.72 134.607 82.4867 134.22 82.34C133.833 82.18 133.327 82.1 132.7 82.1C132.553 82.1 132.393 82.1067 132.22 82.12C132.047 82.12 131.867 82.1333 131.68 82.16V80.56C131.8 80.5733 131.913 80.58 132.02 80.58C132.14 80.58 132.247 80.58 132.34 80.58C133.313 80.58 134.007 80.3933 134.42 80.02C134.833 79.6333 135.04 79.0333 135.04 78.22C135.04 77.5267 134.827 77 134.4 76.64C133.973 76.28 133.367 76.1 132.58 76.1C131.74 76.1 131.1 76.2867 130.66 76.66C130.22 77.02 129.873 77.5133 129.62 78.14L128.1 77.42C128.313 76.86 128.633 76.3667 129.06 75.94C129.487 75.5133 130 75.18 130.6 74.94C131.213 74.7 131.887 74.58 132.62 74.58C133.54 74.58 134.3 74.74 134.9 75.06C135.5 75.3667 135.947 75.78 136.24 76.3C136.547 76.82 136.7 77.3933 136.7 78.02C136.7 78.5 136.633 78.9333 136.5 79.32C136.367 79.6933 136.18 80.02 135.94 80.3C135.713 80.58 135.453 80.8067 135.16 80.98C134.867 81.14 134.553 81.2467 134.22 81.3V81.34C134.66 81.3533 135.047 81.44 135.38 81.6C135.727 81.76 136.02 81.9733 136.26 82.24C136.5 82.5067 136.68 82.8133 136.8 83.16C136.933 83.4933 137 83.8467 137 84.22C137 84.9933 136.807 85.68 136.42 86.28C136.047 86.88 135.52 87.3533 134.84 87.7C134.16 88.0333 133.367 88.2 132.46 88.2ZM138.32 74.8H148.04V76.3C146.933 77.4733 146.026 78.68 145.32 79.92C144.626 81.1467 144.12 82.4267 143.8 83.76C143.48 85.0933 143.32 86.5067 143.32 88H141.68C141.68 86.52 141.86 85.0733 142.22 83.66C142.593 82.2333 143.153 80.8667 143.9 79.56C144.646 78.2533 145.573 77.0333 146.68 75.9L146.94 76.3H138.32V74.8ZM156.095 81.94V83.6H149.495V81.94H156.095ZM167.431 74.8L162.711 82.84V88H161.111V82.84L156.391 74.8H158.291L160.851 79.32L161.911 81.2L162.971 79.32L165.531 74.8H167.431Z" fill="#181B5E"/>
        <path opacity="0.5" d="M63.74 24.1C63.1133 24.1 62.57 23.9633 62.11 23.69C61.6567 23.41 61.3033 23.0167 61.05 22.51C60.8033 22.0033 60.68 21.4 60.68 20.7C60.68 20 60.81 19.3967 61.07 18.89C61.3367 18.3833 61.7067 17.9933 62.18 17.72C62.6533 17.44 63.1967 17.3 63.81 17.3C64.4633 17.3 64.9933 17.4233 65.4 17.67C65.8133 17.9167 66.1467 18.2967 66.4 18.81L65.67 19.21C65.5233 18.83 65.29 18.5433 64.97 18.35C64.6567 18.15 64.27 18.05 63.81 18.05C63.3633 18.05 62.9667 18.1567 62.62 18.37C62.28 18.5767 62.01 18.88 61.81 19.28C61.6167 19.6733 61.52 20.1467 61.52 20.7C61.52 21.2533 61.6033 21.73 61.77 22.13C61.9433 22.5233 62.1967 22.8267 62.53 23.04C62.87 23.2467 63.2833 23.35 63.77 23.35C64.0433 23.35 64.2967 23.3167 64.53 23.25C64.77 23.1767 64.9767 23.07 65.15 22.93C65.33 22.79 65.47 22.6133 65.57 22.4C65.67 22.1867 65.72 21.9367 65.72 21.65V21.42H63.62V20.67H66.45V24H65.82L65.78 22.77L65.95 22.8C65.7767 23.2133 65.5033 23.5333 65.13 23.76C64.7567 23.9867 64.2933 24.1 63.74 24.1ZM70.2363 18.9C70.7097 18.9 71.1263 19.0033 71.4863 19.21C71.853 19.4167 72.1397 19.7167 72.3463 20.11C72.553 20.4967 72.6563 20.96 72.6563 21.5C72.6563 22.04 72.553 22.5067 72.3463 22.9C72.1397 23.2867 71.853 23.5833 71.4863 23.79C71.1263 23.9967 70.7097 24.1 70.2363 24.1C69.7697 24.1 69.353 23.9967 68.9863 23.79C68.6197 23.5833 68.333 23.2867 68.1263 22.9C67.9197 22.5067 67.8163 22.04 67.8163 21.5C67.8163 20.96 67.9197 20.4967 68.1263 20.11C68.333 19.7167 68.6197 19.4167 68.9863 19.21C69.353 19.0033 69.7697 18.9 70.2363 18.9ZM70.2363 19.59C69.8963 19.59 69.6063 19.6667 69.3663 19.82C69.1263 19.9733 68.9397 20.1933 68.8063 20.48C68.6797 20.76 68.6163 21.1 68.6163 21.5C68.6163 21.8933 68.6797 22.2333 68.8063 22.52C68.9397 22.8067 69.1263 23.0267 69.3663 23.18C69.6063 23.3333 69.8963 23.41 70.2363 23.41C70.5763 23.41 70.8663 23.3333 71.1063 23.18C71.3463 23.0267 71.5297 22.8067 71.6563 22.52C71.7897 22.2333 71.8563 21.8933 71.8563 21.5C71.8563 21.1 71.7897 20.76 71.6563 20.48C71.5297 20.1933 71.3463 19.9733 71.1063 19.82C70.8663 19.6667 70.5763 19.59 70.2363 19.59ZM77.4724 19H78.3124L76.2324 24H75.4324L73.3524 19H74.2624L75.8424 23.19L77.4724 19ZM81.4477 24.1C80.9744 24.1 80.5511 23.9967 80.1777 23.79C79.8111 23.5833 79.5244 23.2867 79.3177 22.9C79.1111 22.5067 79.0077 22.04 79.0077 21.5C79.0077 20.96 79.1111 20.4967 79.3177 20.11C79.5244 19.7167 79.8077 19.4167 80.1677 19.21C80.5277 19.0033 80.9377 18.9 81.3977 18.9C81.8644 18.9 82.2611 19 82.5877 19.2C82.9211 19.4 83.1744 19.6733 83.3477 20.02C83.5211 20.36 83.6077 20.7433 83.6077 21.17C83.6077 21.2833 83.6044 21.3867 83.5977 21.48C83.5911 21.5733 83.5811 21.6567 83.5677 21.73H79.5277V21.02H83.2177L82.8077 21.1C82.8077 20.62 82.6744 20.25 82.4077 19.99C82.1477 19.73 81.8044 19.6 81.3777 19.6C81.0511 19.6 80.7677 19.6767 80.5277 19.83C80.2944 19.9767 80.1111 20.1933 79.9777 20.48C79.8511 20.76 79.7877 21.1 79.7877 21.5C79.7877 21.8933 79.8544 22.2333 79.9877 22.52C80.1211 22.8067 80.3077 23.0267 80.5477 23.18C80.7944 23.3267 81.0877 23.4 81.4277 23.4C81.7944 23.4 82.0911 23.33 82.3177 23.19C82.5511 23.05 82.7377 22.86 82.8777 22.62L83.5077 22.99C83.3811 23.2167 83.2177 23.4133 83.0177 23.58C82.8244 23.7467 82.5944 23.8767 82.3277 23.97C82.0677 24.0567 81.7744 24.1 81.4477 24.1ZM85.1292 24V19H85.7792L85.8892 19.82C86.0292 19.5133 86.2326 19.2833 86.4992 19.13C86.7726 18.9767 87.1026 18.9 87.4892 18.9C87.5759 18.9 87.6692 18.9067 87.7692 18.92C87.8759 18.9333 87.9659 18.96 88.0392 19L87.8992 19.73C87.8259 19.7033 87.7459 19.6833 87.6592 19.67C87.5726 19.6567 87.4492 19.65 87.2892 19.65C87.0826 19.65 86.8726 19.71 86.6592 19.83C86.4526 19.95 86.2792 20.1333 86.1392 20.38C85.9992 20.62 85.9292 20.9267 85.9292 21.3V24H85.1292ZM89.2113 24V19H89.9113L89.9613 19.78C90.1413 19.4733 90.3746 19.25 90.6613 19.11C90.9546 18.97 91.2546 18.9 91.5613 18.9C91.9146 18.9 92.2479 18.98 92.5613 19.14C92.8746 19.3 93.1146 19.5467 93.2812 19.88C93.3879 19.6533 93.5379 19.47 93.7313 19.33C93.9246 19.1833 94.1346 19.0767 94.3613 19.01C94.5946 18.9367 94.8146 18.9 95.0213 18.9C95.3413 18.9 95.6446 18.9667 95.9313 19.1C96.2246 19.2333 96.4646 19.44 96.6513 19.72C96.8379 20 96.9313 20.36 96.9313 20.8V24H96.1313V20.88C96.1313 20.4267 96.0179 20.1 95.7913 19.9C95.5646 19.7 95.2846 19.6 94.9513 19.6C94.6913 19.6 94.4479 19.6633 94.2213 19.79C93.9946 19.9167 93.8113 20.1033 93.6713 20.35C93.5379 20.5967 93.4713 20.9 93.4713 21.26V24H92.6713V20.88C92.6713 20.4267 92.5579 20.1 92.3313 19.9C92.1046 19.7 91.8246 19.6 91.4913 19.6C91.2713 19.6 91.0446 19.66 90.8113 19.78C90.5846 19.8933 90.3946 20.0767 90.2413 20.33C90.0879 20.5833 90.0113 20.9167 90.0113 21.33V24H89.2113ZM100.833 24.1C100.359 24.1 99.9358 23.9967 99.5625 23.79C99.1958 23.5833 98.9092 23.2867 98.7025 22.9C98.4958 22.5067 98.3925 22.04 98.3925 21.5C98.3925 20.96 98.4958 20.4967 98.7025 20.11C98.9092 19.7167 99.1925 19.4167 99.5525 19.21C99.9125 19.0033 100.323 18.9 100.783 18.9C101.249 18.9 101.646 19 101.973 19.2C102.306 19.4 102.559 19.6733 102.733 20.02C102.906 20.36 102.993 20.7433 102.993 21.17C102.993 21.2833 102.989 21.3867 102.983 21.48C102.976 21.5733 102.966 21.6567 102.952 21.73H98.9125V21.02H102.603L102.193 21.1C102.193 20.62 102.059 20.25 101.793 19.99C101.533 19.73 101.189 19.6 100.763 19.6C100.436 19.6 100.153 19.6767 99.9125 19.83C99.6792 19.9767 99.4958 20.1933 99.3625 20.48C99.2358 20.76 99.1725 21.1 99.1725 21.5C99.1725 21.8933 99.2392 22.2333 99.3725 22.52C99.5058 22.8067 99.6925 23.0267 99.9325 23.18C100.179 23.3267 100.473 23.4 100.813 23.4C101.179 23.4 101.476 23.33 101.703 23.19C101.936 23.05 102.123 22.86 102.263 22.62L102.893 22.99C102.766 23.2167 102.603 23.4133 102.403 23.58C102.209 23.7467 101.979 23.8767 101.713 23.97C101.453 24.0567 101.159 24.1 100.833 24.1ZM104.514 24V19H105.214L105.284 20.12L105.154 20.01C105.261 19.7433 105.404 19.53 105.584 19.37C105.764 19.2033 105.971 19.0833 106.204 19.01C106.444 18.9367 106.691 18.9 106.944 18.9C107.304 18.9 107.631 18.97 107.924 19.11C108.217 19.2433 108.451 19.45 108.624 19.73C108.804 20.01 108.894 20.3667 108.894 20.8V24H108.094V21.08C108.094 20.5267 107.974 20.1433 107.734 19.93C107.501 19.71 107.211 19.6 106.864 19.6C106.624 19.6 106.384 19.6567 106.144 19.77C105.904 19.8833 105.704 20.0667 105.544 20.32C105.391 20.5733 105.314 20.9133 105.314 21.34V24H104.514ZM111.817 17.58V22.62C111.817 22.8667 111.887 23.05 112.027 23.17C112.167 23.29 112.347 23.35 112.567 23.35C112.76 23.35 112.927 23.3167 113.067 23.25C113.207 23.1833 113.334 23.0933 113.447 22.98L113.727 23.65C113.574 23.79 113.39 23.9 113.177 23.98C112.97 24.06 112.73 24.1 112.457 24.1C112.204 24.1 111.967 24.0567 111.747 23.97C111.527 23.8767 111.35 23.7333 111.217 23.54C111.09 23.34 111.024 23.08 111.017 22.76V17.8L111.817 17.58ZM113.637 19V19.69H110.017V19H113.637Z" fill="#333333"/>
        <path opacity="0.3" d="M64.382 31.38V36H63.689L61.757 32.906L61.267 32.038H61.26L61.288 32.738V36H60.756V31.38H61.449L63.374 34.46L63.871 35.349H63.878L63.85 34.642V31.38H64.382ZM67.7946 33.739C67.7946 33.4777 67.7246 33.277 67.5846 33.137C67.4446 32.9923 67.2463 32.92 66.9896 32.92C66.7469 32.92 66.5416 32.9737 66.3736 33.081C66.2056 33.1837 66.0819 33.3517 66.0026 33.585L65.5476 33.305C65.6409 33.0437 65.8136 32.8337 66.0656 32.675C66.3176 32.5117 66.6303 32.43 67.0036 32.43C67.2556 32.43 67.4843 32.4743 67.6896 32.563C67.8949 32.647 68.0559 32.7777 68.1726 32.955C68.2939 33.1277 68.3546 33.3517 68.3546 33.627V35.321C68.3546 35.489 68.4433 35.573 68.6206 35.573C68.7093 35.573 68.7956 35.5613 68.8796 35.538L68.8516 35.979C68.7583 36.0257 68.6369 36.049 68.4876 36.049C68.3523 36.049 68.2309 36.0233 68.1236 35.972C68.0163 35.9207 67.9323 35.8437 67.8716 35.741C67.8109 35.6337 67.7806 35.5007 67.7806 35.342V35.272L67.9206 35.293C67.8646 35.475 67.7689 35.6243 67.6336 35.741C67.4983 35.853 67.3466 35.937 67.1786 35.993C67.0106 36.0443 66.8449 36.07 66.6816 36.07C66.4763 36.07 66.2849 36.035 66.1076 35.965C65.9303 35.895 65.7879 35.79 65.6806 35.65C65.5779 35.5053 65.5266 35.328 65.5266 35.118C65.5266 34.8567 65.6129 34.642 65.7856 34.474C65.9629 34.3013 66.2079 34.1847 66.5206 34.124L67.9066 33.851V34.313L66.7796 34.544C66.5509 34.5907 66.3806 34.656 66.2686 34.74C66.1566 34.824 66.1006 34.9407 66.1006 35.09C66.1006 35.2347 66.1566 35.3537 66.2686 35.447C66.3853 35.5357 66.5486 35.58 66.7586 35.58C66.8939 35.58 67.0223 35.5637 67.1436 35.531C67.2696 35.4937 67.3816 35.44 67.4796 35.37C67.5776 35.2953 67.6546 35.2043 67.7106 35.097C67.7666 34.985 67.7946 34.8543 67.7946 34.705V33.739ZM70.4047 31.506V35.034C70.4047 35.2067 70.4537 35.335 70.5517 35.419C70.6497 35.503 70.7757 35.545 70.9297 35.545C71.0651 35.545 71.1817 35.5217 71.2797 35.475C71.3777 35.4283 71.4664 35.3653 71.5457 35.286L71.7417 35.755C71.6344 35.853 71.5061 35.93 71.3567 35.986C71.2121 36.042 71.0441 36.07 70.8527 36.07C70.6754 36.07 70.5097 36.0397 70.3557 35.979C70.2017 35.9137 70.0781 35.8133 69.9847 35.678C69.8961 35.538 69.8494 35.356 69.8447 35.132V31.66L70.4047 31.506ZM71.6787 32.5V32.983H69.1447V32.5H71.6787ZM72.7914 31.828C72.6654 31.828 72.5627 31.7907 72.4834 31.716C72.4087 31.6367 72.3714 31.534 72.3714 31.408C72.3714 31.282 72.4087 31.1817 72.4834 31.107C72.5627 31.0277 72.6654 30.988 72.7914 30.988C72.9174 30.988 73.0177 31.0277 73.0924 31.107C73.1717 31.1817 73.2114 31.282 73.2114 31.408C73.2114 31.534 73.1717 31.6367 73.0924 31.716C73.0177 31.7907 72.9174 31.828 72.7914 31.828ZM73.0714 32.5V36H72.5114V32.5H73.0714ZM75.8197 32.43C76.1511 32.43 76.4427 32.5023 76.6947 32.647C76.9514 32.7917 77.1521 33.0017 77.2967 33.277C77.4414 33.5477 77.5137 33.872 77.5137 34.25C77.5137 34.628 77.4414 34.9547 77.2967 35.23C77.1521 35.5007 76.9514 35.7083 76.6947 35.853C76.4427 35.9977 76.1511 36.07 75.8197 36.07C75.4931 36.07 75.2014 35.9977 74.9447 35.853C74.6881 35.7083 74.4874 35.5007 74.3427 35.23C74.1981 34.9547 74.1257 34.628 74.1257 34.25C74.1257 33.872 74.1981 33.5477 74.3427 33.277C74.4874 33.0017 74.6881 32.7917 74.9447 32.647C75.2014 32.5023 75.4931 32.43 75.8197 32.43ZM75.8197 32.913C75.5817 32.913 75.3787 32.9667 75.2107 33.074C75.0427 33.1813 74.9121 33.3353 74.8187 33.536C74.7301 33.732 74.6857 33.97 74.6857 34.25C74.6857 34.5253 74.7301 34.7633 74.8187 34.964C74.9121 35.1647 75.0427 35.3187 75.2107 35.426C75.3787 35.5333 75.5817 35.587 75.8197 35.587C76.0577 35.587 76.2607 35.5333 76.4287 35.426C76.5967 35.3187 76.7251 35.1647 76.8137 34.964C76.9071 34.7633 76.9537 34.5253 76.9537 34.25C76.9537 33.97 76.9071 33.732 76.8137 33.536C76.7251 33.3353 76.5967 33.1813 76.4287 33.074C76.2607 32.9667 76.0577 32.913 75.8197 32.913ZM78.568 36V32.5H79.058L79.107 33.284L79.016 33.207C79.0907 33.0203 79.191 32.871 79.317 32.759C79.443 32.6423 79.5877 32.5583 79.751 32.507C79.919 32.4557 80.0917 32.43 80.269 32.43C80.521 32.43 80.7497 32.479 80.955 32.577C81.1603 32.6703 81.3237 32.815 81.445 33.011C81.571 33.207 81.634 33.4567 81.634 33.76V36H81.074V33.956C81.074 33.5687 80.99 33.3003 80.822 33.151C80.6587 32.997 80.4557 32.92 80.213 32.92C80.045 32.92 79.877 32.9597 79.709 33.039C79.541 33.1183 79.401 33.2467 79.289 33.424C79.1817 33.6013 79.128 33.8393 79.128 34.138V36H78.568ZM84.946 33.739C84.946 33.4777 84.876 33.277 84.736 33.137C84.596 32.9923 84.3976 32.92 84.141 32.92C83.8983 32.92 83.693 32.9737 83.525 33.081C83.357 33.1837 83.2333 33.3517 83.154 33.585L82.699 33.305C82.7923 33.0437 82.965 32.8337 83.217 32.675C83.469 32.5117 83.7816 32.43 84.155 32.43C84.407 32.43 84.6356 32.4743 84.841 32.563C85.0463 32.647 85.2073 32.7777 85.324 32.955C85.4453 33.1277 85.506 33.3517 85.506 33.627V35.321C85.506 35.489 85.5946 35.573 85.772 35.573C85.8606 35.573 85.947 35.5613 86.031 35.538L86.003 35.979C85.9096 36.0257 85.7883 36.049 85.639 36.049C85.5036 36.049 85.3823 36.0233 85.275 35.972C85.1676 35.9207 85.0836 35.8437 85.023 35.741C84.9623 35.6337 84.932 35.5007 84.932 35.342V35.272L85.072 35.293C85.016 35.475 84.9203 35.6243 84.785 35.741C84.6496 35.853 84.498 35.937 84.33 35.993C84.162 36.0443 83.9963 36.07 83.833 36.07C83.6276 36.07 83.4363 36.035 83.259 35.965C83.0816 35.895 82.9393 35.79 82.832 35.65C82.7293 35.5053 82.678 35.328 82.678 35.118C82.678 34.8567 82.7643 34.642 82.937 34.474C83.1143 34.3013 83.3593 34.1847 83.672 34.124L85.058 33.851V34.313L83.931 34.544C83.7023 34.5907 83.532 34.656 83.42 34.74C83.308 34.824 83.252 34.9407 83.252 35.09C83.252 35.2347 83.308 35.3537 83.42 35.447C83.5366 35.5357 83.7 35.58 83.91 35.58C84.0453 35.58 84.1736 35.5637 84.295 35.531C84.421 35.4937 84.533 35.44 84.631 35.37C84.729 35.2953 84.806 35.2043 84.862 35.097C84.918 34.985 84.946 34.8543 84.946 34.705V33.739ZM87.3988 30.89V35.111C87.3988 35.2883 87.4315 35.412 87.4968 35.482C87.5622 35.5473 87.6672 35.58 87.8118 35.58C87.9052 35.58 87.9822 35.573 88.0428 35.559C88.1035 35.545 88.1852 35.5193 88.2878 35.482L88.1968 35.972C88.1222 36.0047 88.0405 36.028 87.9518 36.042C87.8632 36.0607 87.7722 36.07 87.6788 36.07C87.3942 36.07 87.1818 35.993 87.0418 35.839C86.9065 35.685 86.8388 35.4493 86.8388 35.132V30.89H87.3988ZM91.8111 31.38V36H91.2511V31.38H91.8111ZM94.5277 36.07C94.2384 36.07 93.9724 35.9977 93.7297 35.853C93.4871 35.7083 93.2934 35.5007 93.1487 35.23C93.0041 34.9547 92.9317 34.628 92.9317 34.25C92.9317 33.8627 93.0087 33.5337 93.1627 33.263C93.3167 32.9923 93.5197 32.787 93.7717 32.647C94.0237 32.5023 94.2944 32.43 94.5837 32.43C94.8731 32.43 95.1227 32.5047 95.3327 32.654C95.5474 32.8033 95.6897 33.0017 95.7597 33.249L95.6897 33.298V30.89H96.2497V36H95.7597L95.7107 35.153L95.7877 35.111C95.7551 35.3163 95.6757 35.4913 95.5497 35.636C95.4284 35.776 95.2767 35.8833 95.0947 35.958C94.9174 36.0327 94.7284 36.07 94.5277 36.07ZM94.5837 35.58C94.8077 35.58 95.0014 35.524 95.1647 35.412C95.3327 35.3 95.4611 35.1413 95.5497 34.936C95.6431 34.726 95.6897 34.481 95.6897 34.201C95.6897 33.935 95.6431 33.7063 95.5497 33.515C95.4611 33.3237 95.3351 33.1767 95.1717 33.074C95.0131 32.9713 94.8264 32.92 94.6117 32.92C94.2571 32.92 93.9817 33.0413 93.7857 33.284C93.5897 33.5267 93.4917 33.8487 93.4917 34.25C93.4917 34.6513 93.5874 34.9733 93.7787 35.216C93.9701 35.4587 94.2384 35.58 94.5837 35.58ZM99.0144 36.07C98.6831 36.07 98.3867 35.9977 98.1254 35.853C97.8687 35.7083 97.6681 35.5007 97.5234 35.23C97.3787 34.9547 97.3064 34.628 97.3064 34.25C97.3064 33.872 97.3787 33.5477 97.5234 33.277C97.6681 33.0017 97.8664 32.7917 98.1184 32.647C98.3704 32.5023 98.6574 32.43 98.9794 32.43C99.3061 32.43 99.5837 32.5 99.8124 32.64C100.046 32.78 100.223 32.9713 100.344 33.214C100.466 33.452 100.526 33.7203 100.526 34.019C100.526 34.0983 100.524 34.1707 100.519 34.236C100.515 34.3013 100.508 34.3597 100.498 34.411H97.6704V33.914H100.253L99.9664 33.97C99.9664 33.634 99.8731 33.375 99.6864 33.193C99.5044 33.011 99.2641 32.92 98.9654 32.92C98.7367 32.92 98.5384 32.9737 98.3704 33.081C98.2071 33.1837 98.0787 33.3353 97.9854 33.536C97.8967 33.732 97.8524 33.97 97.8524 34.25C97.8524 34.5253 97.8991 34.7633 97.9924 34.964C98.0857 35.1647 98.2164 35.3187 98.3844 35.426C98.5571 35.5287 98.7624 35.58 99.0004 35.58C99.2571 35.58 99.4647 35.531 99.6234 35.433C99.7867 35.335 99.9174 35.202 100.015 35.034L100.456 35.293C100.368 35.4517 100.253 35.5893 100.113 35.706C99.9781 35.8227 99.8171 35.9137 99.6304 35.979C99.4484 36.0397 99.2431 36.07 99.0144 36.07ZM101.591 36V32.5H102.081L102.13 33.284L102.039 33.207C102.114 33.0203 102.214 32.871 102.34 32.759C102.466 32.6423 102.611 32.5583 102.774 32.507C102.942 32.4557 103.115 32.43 103.292 32.43C103.544 32.43 103.773 32.479 103.978 32.577C104.184 32.6703 104.347 32.815 104.468 33.011C104.594 33.207 104.657 33.4567 104.657 33.76V36H104.097V33.956C104.097 33.5687 104.013 33.3003 103.845 33.151C103.682 32.997 103.479 32.92 103.236 32.92C103.068 32.92 102.9 32.9597 102.732 33.039C102.564 33.1183 102.424 33.2467 102.312 33.424C102.205 33.6013 102.151 33.8393 102.151 34.138V36H101.591ZM106.704 31.506V35.034C106.704 35.2067 106.753 35.335 106.851 35.419C106.949 35.503 107.075 35.545 107.229 35.545C107.364 35.545 107.481 35.5217 107.579 35.475C107.677 35.4283 107.765 35.3653 107.845 35.286L108.041 35.755C107.933 35.853 107.805 35.93 107.656 35.986C107.511 36.042 107.343 36.07 107.152 36.07C106.974 36.07 106.809 36.0397 106.655 35.979C106.501 35.9137 106.377 35.8133 106.284 35.678C106.195 35.538 106.148 35.356 106.144 35.132V31.66L106.704 31.506ZM107.978 32.5V32.983H105.444V32.5H107.978ZM109.09 31.828C108.964 31.828 108.862 31.7907 108.782 31.716C108.708 31.6367 108.67 31.534 108.67 31.408C108.67 31.282 108.708 31.1817 108.782 31.107C108.862 31.0277 108.964 30.988 109.09 30.988C109.216 30.988 109.317 31.0277 109.391 31.107C109.471 31.1817 109.51 31.282 109.51 31.408C109.51 31.534 109.471 31.6367 109.391 31.716C109.317 31.7907 109.216 31.828 109.09 31.828ZM109.37 32.5V36H108.81V32.5H109.37ZM112.091 30.855C112.212 30.855 112.326 30.869 112.434 30.897C112.541 30.925 112.625 30.9647 112.686 31.016L112.539 31.471C112.483 31.4337 112.422 31.408 112.357 31.394C112.291 31.3753 112.219 31.366 112.14 31.366C111.939 31.366 111.783 31.415 111.671 31.513C111.559 31.6063 111.503 31.758 111.503 31.968V32.5V32.682V36H110.943V31.912C110.943 31.758 110.966 31.6157 111.013 31.485C111.059 31.3543 111.129 31.2423 111.223 31.149C111.321 31.0557 111.442 30.9833 111.587 30.932C111.731 30.8807 111.899 30.855 112.091 30.855ZM112.672 32.5V32.983H110.243V32.5H112.672ZM113.701 31.828C113.575 31.828 113.472 31.7907 113.393 31.716C113.318 31.6367 113.281 31.534 113.281 31.408C113.281 31.282 113.318 31.1817 113.393 31.107C113.472 31.0277 113.575 30.988 113.701 30.988C113.827 30.988 113.927 31.0277 114.002 31.107C114.081 31.1817 114.121 31.282 114.121 31.408C114.121 31.534 114.081 31.6367 114.002 31.716C113.927 31.7907 113.827 31.828 113.701 31.828ZM113.981 32.5V36H113.421V32.5H113.981ZM116.733 32.43C116.975 32.43 117.188 32.4673 117.37 32.542C117.556 32.6167 117.717 32.724 117.853 32.864C117.988 33.004 118.098 33.1697 118.182 33.361L117.65 33.613C117.575 33.389 117.461 33.2187 117.307 33.102C117.157 32.9807 116.961 32.92 116.719 32.92C116.485 32.92 116.285 32.9737 116.117 33.081C115.949 33.1837 115.82 33.3353 115.732 33.536C115.643 33.732 115.599 33.97 115.599 34.25C115.599 34.5253 115.643 34.7633 115.732 34.964C115.82 35.1647 115.949 35.3187 116.117 35.426C116.285 35.5287 116.485 35.58 116.719 35.58C116.901 35.58 117.057 35.552 117.188 35.496C117.323 35.44 117.433 35.3583 117.517 35.251C117.605 35.1437 117.666 35.013 117.699 34.859L118.217 35.041C118.137 35.2557 118.028 35.44 117.888 35.594C117.752 35.748 117.587 35.867 117.391 35.951C117.199 36.0303 116.98 36.07 116.733 36.07C116.406 36.07 116.114 35.9977 115.858 35.853C115.601 35.7083 115.4 35.5007 115.256 35.23C115.111 34.9547 115.039 34.628 115.039 34.25C115.039 33.872 115.111 33.5477 115.256 33.277C115.4 33.0017 115.601 32.7917 115.858 32.647C116.114 32.5023 116.406 32.43 116.733 32.43ZM121.245 33.739C121.245 33.4777 121.175 33.277 121.035 33.137C120.895 32.9923 120.696 32.92 120.44 32.92C120.197 32.92 119.992 32.9737 119.824 33.081C119.656 33.1837 119.532 33.3517 119.453 33.585L118.998 33.305C119.091 33.0437 119.264 32.8337 119.516 32.675C119.768 32.5117 120.08 32.43 120.454 32.43C120.706 32.43 120.934 32.4743 121.14 32.563C121.345 32.647 121.506 32.7777 121.623 32.955C121.744 33.1277 121.805 33.3517 121.805 33.627V35.321C121.805 35.489 121.893 35.573 122.071 35.573C122.159 35.573 122.246 35.5613 122.33 35.538L122.302 35.979C122.208 36.0257 122.087 36.049 121.938 36.049C121.802 36.049 121.681 36.0233 121.574 35.972C121.466 35.9207 121.382 35.8437 121.322 35.741C121.261 35.6337 121.231 35.5007 121.231 35.342V35.272L121.371 35.293C121.315 35.475 121.219 35.6243 121.084 35.741C120.948 35.853 120.797 35.937 120.629 35.993C120.461 36.0443 120.295 36.07 120.132 36.07C119.926 36.07 119.735 36.035 119.558 35.965C119.38 35.895 119.238 35.79 119.131 35.65C119.028 35.5053 118.977 35.328 118.977 35.118C118.977 34.8567 119.063 34.642 119.236 34.474C119.413 34.3013 119.658 34.1847 119.971 34.124L121.357 33.851V34.313L120.23 34.544C120.001 34.5907 119.831 34.656 119.719 34.74C119.607 34.824 119.551 34.9407 119.551 35.09C119.551 35.2347 119.607 35.3537 119.719 35.447C119.835 35.5357 119.999 35.58 120.209 35.58C120.344 35.58 120.472 35.5637 120.594 35.531C120.72 35.4937 120.832 35.44 120.93 35.37C121.028 35.2953 121.105 35.2043 121.161 35.097C121.217 34.985 121.245 34.8543 121.245 34.705V33.739ZM123.855 31.506V35.034C123.855 35.2067 123.904 35.335 124.002 35.419C124.1 35.503 124.226 35.545 124.38 35.545C124.515 35.545 124.632 35.5217 124.73 35.475C124.828 35.4283 124.917 35.3653 124.996 35.286L125.192 35.755C125.085 35.853 124.956 35.93 124.807 35.986C124.662 36.042 124.494 36.07 124.303 36.07C124.126 36.07 123.96 36.0397 123.806 35.979C123.652 35.9137 123.528 35.8133 123.435 35.678C123.346 35.538 123.3 35.356 123.295 35.132V31.66L123.855 31.506ZM125.129 32.5V32.983H122.595V32.5H125.129ZM126.242 31.828C126.116 31.828 126.013 31.7907 125.934 31.716C125.859 31.6367 125.822 31.534 125.822 31.408C125.822 31.282 125.859 31.1817 125.934 31.107C126.013 31.0277 126.116 30.988 126.242 30.988C126.368 30.988 126.468 31.0277 126.543 31.107C126.622 31.1817 126.662 31.282 126.662 31.408C126.662 31.534 126.622 31.6367 126.543 31.716C126.468 31.7907 126.368 31.828 126.242 31.828ZM126.522 32.5V36H125.962V32.5H126.522ZM129.27 32.43C129.601 32.43 129.893 32.5023 130.145 32.647C130.402 32.7917 130.602 33.0017 130.747 33.277C130.892 33.5477 130.964 33.872 130.964 34.25C130.964 34.628 130.892 34.9547 130.747 35.23C130.602 35.5007 130.402 35.7083 130.145 35.853C129.893 35.9977 129.601 36.07 129.27 36.07C128.943 36.07 128.652 35.9977 128.395 35.853C128.138 35.7083 127.938 35.5007 127.793 35.23C127.648 34.9547 127.576 34.628 127.576 34.25C127.576 33.872 127.648 33.5477 127.793 33.277C127.938 33.0017 128.138 32.7917 128.395 32.647C128.652 32.5023 128.943 32.43 129.27 32.43ZM129.27 32.913C129.032 32.913 128.829 32.9667 128.661 33.074C128.493 33.1813 128.362 33.3353 128.269 33.536C128.18 33.732 128.136 33.97 128.136 34.25C128.136 34.5253 128.18 34.7633 128.269 34.964C128.362 35.1647 128.493 35.3187 128.661 35.426C128.829 35.5333 129.032 35.587 129.27 35.587C129.508 35.587 129.711 35.5333 129.879 35.426C130.047 35.3187 130.175 35.1647 130.264 34.964C130.357 34.7633 130.404 34.5253 130.404 34.25C130.404 33.97 130.357 33.732 130.264 33.536C130.175 33.3353 130.047 33.1813 129.879 33.074C129.711 32.9667 129.508 32.913 129.27 32.913ZM132.018 36V32.5H132.508L132.557 33.284L132.466 33.207C132.541 33.0203 132.641 32.871 132.767 32.759C132.893 32.6423 133.038 32.5583 133.201 32.507C133.369 32.4557 133.542 32.43 133.719 32.43C133.971 32.43 134.2 32.479 134.405 32.577C134.611 32.6703 134.774 32.815 134.895 33.011C135.021 33.207 135.084 33.4567 135.084 33.76V36H134.524V33.956C134.524 33.5687 134.44 33.3003 134.272 33.151C134.109 32.997 133.906 32.92 133.663 32.92C133.495 32.92 133.327 32.9597 133.159 33.039C132.991 33.1183 132.851 33.2467 132.739 33.424C132.632 33.6013 132.578 33.8393 132.578 34.138V36H132.018Z" fill="#212121"/>
        <g clip-path="url(#clip0)">
            <path d="M44.8499 36.6418V36.2585C44.8467 35.774 44.5401 35.3435 44.0832 35.1822V34.7251C44.0818 34.2394 43.7747 33.8072 43.3166 33.6458V27.7546C43.7747 27.5932 44.0817 27.161 44.0832 26.6752V25.9991L44.7818 24.6021L45.8876 23.4962C46.0372 23.3468 46.0375 23.1043 45.888 22.9546C45.8664 22.933 45.8422 22.914 45.8161 22.8981L34.6996 16.1143C34.5771 16.0394 34.423 16.0394 34.3005 16.1143L23.1839 22.8981C23.0033 23.008 22.9459 23.2436 23.0559 23.4243C23.0718 23.4504 23.0908 23.4746 23.1124 23.4962L24.2182 24.6021L24.9167 25.9991V26.6752C24.9182 27.1609 25.2253 27.5932 25.6834 27.7545V33.6457C25.2253 33.8071 24.9183 34.2393 24.9167 34.7251V35.1821C24.4599 35.3434 24.1533 35.7739 24.1501 36.2584V36.6417C23.5152 36.6424 23.0008 37.1569 23.0001 37.7917V38.5584C23 38.7701 23.1715 38.9417 23.3832 38.9417C23.3833 38.9417 23.3834 38.9417 23.3834 38.9417H45.6166C45.8283 38.9417 45.9999 38.7702 45.9999 38.5586C45.9999 38.5585 45.9999 38.5584 45.9999 38.5584V37.7917C45.9992 37.1569 45.4847 36.6424 44.8499 36.6418ZM43.3166 26.6752C43.3164 26.8868 43.1449 27.0583 42.9333 27.0585H40.6333C40.4217 27.0583 40.2502 26.8868 40.25 26.6752V26.2919H43.3167V26.6752H43.3166ZM32.5834 33.6458V27.7546C33.0416 27.5932 33.3485 27.161 33.3501 26.6752V26.2919H35.65V26.6752C35.6515 27.1609 35.9586 27.5932 36.4167 27.7545V33.6457C35.9586 33.8071 35.6516 34.2393 35.65 34.7251V35.1084H33.3501V34.7251C33.3485 34.2394 33.0415 33.8071 32.5834 33.6458ZM26.0668 27.0585C25.8552 27.0583 25.6836 26.8869 25.6835 26.6752V26.2919H28.7501V26.6752C28.7499 26.8869 28.5784 27.0584 28.3668 27.0585H26.0668ZM27.9834 27.8252V33.5751H26.4501V27.8252H27.9834ZM28.7501 27.7546C28.8916 27.7043 29.0218 27.6267 29.1334 27.5261C29.2449 27.6267 29.3752 27.7043 29.5167 27.7545V33.6457C29.3752 33.696 29.2449 33.7736 29.1334 33.8742C29.0218 33.7736 28.8916 33.696 28.7501 33.6457V27.7546ZM29.5167 34.7251C29.517 34.5135 29.6885 34.342 29.9001 34.3418H32.2C32.4117 34.342 32.5832 34.5135 32.5834 34.7251V35.1084H29.5167V34.7251ZM30.2834 33.5751V27.8252H31.8167V33.5751H30.2834ZM32.2 27.0585H29.9001C29.6884 27.0583 29.5169 26.8869 29.5167 26.6752V26.2919H32.5834V26.6752C32.5832 26.8868 32.4117 27.0583 32.2 27.0585ZM36.4167 34.7251C36.4169 34.5135 36.5884 34.342 36.8 34.3418H39.1C39.3116 34.342 39.4831 34.5135 39.4833 34.7251V35.1084H36.4167V34.7251ZM37.1833 33.5751V27.8252H38.7166V33.5751H37.1833ZM39.1 27.0585H36.8C36.5884 27.0583 36.4169 26.8869 36.4167 26.6752V26.2919H39.4833V26.6752C39.4831 26.8868 39.3116 27.0583 39.1 27.0585ZM39.4833 27.7546C39.6248 27.7043 39.7551 27.6267 39.8666 27.5261C39.9781 27.6267 40.1084 27.7043 40.2499 27.7545V33.6457C40.1084 33.696 39.9781 33.7736 39.8666 33.8742C39.7551 33.7736 39.6248 33.696 39.4833 33.6457V27.7546ZM40.25 34.7251C40.2502 34.5135 40.4217 34.342 40.6333 34.3418H42.9333C43.1449 34.342 43.3164 34.5135 43.3166 34.7251V35.1084H40.2499V34.7251H40.25ZM41.0166 33.5751V27.8252H42.5499V33.5751H41.0166ZM24.5903 23.8901L23.9989 23.2986L34.5 16.8905L45.0012 23.2986L44.4097 23.8901L34.701 17.9155C34.5778 17.8395 34.4223 17.8395 34.299 17.9155L24.5903 23.8901ZM43.1122 23.9919H25.8878L34.5 18.6921L43.1122 23.9919ZM25.5371 25.5252L25.1538 24.7585H43.8463L43.463 25.5252H25.5371ZM25.6834 34.7251C25.6836 34.5135 25.8551 34.342 26.0667 34.3418H28.3667C28.5783 34.342 28.7498 34.5135 28.75 34.7251V35.1084H25.6834V34.7251ZM45.2332 38.1751H23.7668V37.7918C23.767 37.5801 23.9385 37.4086 24.1501 37.4084H32.2C32.4118 37.4084 32.5834 37.2368 32.5834 37.0251C32.5834 36.8134 32.4117 36.6418 32.2 36.6418H24.9168V36.2585C24.9212 36.0428 25.0994 35.8713 25.3151 35.8752H43.685C43.9007 35.8714 44.0788 36.0428 44.0833 36.2585V36.6418H36.8C36.5883 36.6418 36.4167 36.8134 36.4167 37.0251C36.4167 37.2368 36.5883 37.4084 36.8 37.4084H44.8499C45.0615 37.4087 45.233 37.5801 45.2332 37.7918V38.1751Z" fill="#181B5E"/>
            <path d="M34.5001 19.967C33.6536 19.9679 32.9677 20.6538 32.9668 21.5003C32.9668 22.3471 33.6533 23.0336 34.5001 23.0336C35.3469 23.0336 36.0334 22.3471 36.0334 21.5003C36.0334 20.6535 35.3469 19.967 34.5001 19.967ZM34.5001 22.267C34.0767 22.267 33.7334 21.9237 33.7334 21.5003C33.7334 21.0769 34.0767 20.7336 34.5001 20.7336C34.9233 20.7341 35.2663 21.077 35.2668 21.5003C35.2668 21.9237 34.9235 22.267 34.5001 22.267Z" fill="#181B5E"/>
        </g>
        <path d="M366 99V112C366 114.761 363.761 117 361 117H348" stroke="#181B5E"/>
        <path opacity="0.3" d="M339.62 54L341.419 49.38H342.084L343.876 54H343.281L341.965 50.556L341.748 49.912H341.734L341.531 50.535L340.208 54H339.62ZM340.502 52.719V52.194H342.973V52.719H340.502ZM348.382 52.817C348.284 53.0783 348.144 53.3047 347.962 53.496C347.78 53.6827 347.566 53.825 347.318 53.923C347.076 54.021 346.81 54.07 346.52 54.07C346.082 54.07 345.701 53.9743 345.379 53.783C345.062 53.587 344.815 53.3117 344.637 52.957C344.465 52.6023 344.378 52.18 344.378 51.69C344.378 51.2 344.465 50.7777 344.637 50.423C344.815 50.0683 345.062 49.7953 345.379 49.604C345.701 49.408 346.077 49.31 346.506 49.31C346.805 49.31 347.071 49.352 347.304 49.436C347.538 49.5153 347.736 49.6367 347.899 49.8C348.067 49.9587 348.2 50.1547 348.298 50.388L347.745 50.647C347.643 50.381 347.493 50.1803 347.297 50.045C347.106 49.905 346.856 49.835 346.548 49.835C346.236 49.835 345.96 49.9097 345.722 50.059C345.484 50.2037 345.298 50.4137 345.162 50.689C345.032 50.9643 344.966 51.298 344.966 51.69C344.966 52.0773 345.029 52.411 345.155 52.691C345.281 52.9663 345.461 53.1787 345.694 53.328C345.928 53.4727 346.203 53.545 346.52 53.545C346.828 53.545 347.097 53.468 347.325 53.314C347.554 53.1553 347.72 52.9197 347.822 52.607L348.382 52.817ZM352.705 49.38V49.905H351.095V54H350.535V49.905H348.925V49.38H352.705ZM354.242 49.38V54H353.682V49.38H354.242ZM359.337 49.38L357.587 54H356.95L355.193 49.38H355.795L356.971 52.572L357.265 53.489L357.559 52.579L358.735 49.38H359.337ZM360.292 54V49.38H363.533V49.905H360.852V51.396H362.938V51.921H360.852V53.475H363.638V54H360.292Z" fill="#212121"/>
        <path opacity="0.3" d="M337.207 21.475H339.853V22H336.647V17.38H337.207V21.475ZM340.83 22V17.38H344.071V17.905H341.39V19.396H343.476V19.921H341.39V21.475H344.176V22H340.83ZM348.878 17.38L347.128 22H346.491L344.734 17.38H345.336L346.512 20.572L346.806 21.489L347.1 20.579L348.276 17.38H348.878ZM349.833 22V17.38H353.074V17.905H350.393V19.396H352.479V19.921H350.393V21.475H353.179V22H349.833ZM354.857 21.475H357.503V22H354.297V17.38H354.857V21.475ZM361.949 22.07C361.538 22.07 361.174 21.9743 360.857 21.783C360.544 21.587 360.332 21.3187 360.22 20.978L360.78 20.691C360.836 20.8637 360.913 21.0153 361.011 21.146C361.109 21.272 361.237 21.37 361.396 21.44C361.559 21.51 361.762 21.545 362.005 21.545C362.21 21.545 362.383 21.5077 362.523 21.433C362.663 21.3583 362.77 21.258 362.845 21.132C362.92 21.0013 362.957 20.852 362.957 20.684C362.957 20.516 362.924 20.376 362.859 20.264C362.798 20.152 362.7 20.0703 362.565 20.019C362.43 19.963 362.252 19.935 362.033 19.935C361.982 19.935 361.926 19.9373 361.865 19.942C361.804 19.942 361.741 19.9467 361.676 19.956V19.396C361.718 19.4007 361.758 19.403 361.795 19.403C361.837 19.403 361.874 19.403 361.907 19.403C362.248 19.403 362.49 19.3377 362.635 19.207C362.78 19.0717 362.852 18.8617 362.852 18.577C362.852 18.3343 362.777 18.15 362.628 18.024C362.479 17.898 362.266 17.835 361.991 17.835C361.697 17.835 361.473 17.9003 361.319 18.031C361.165 18.157 361.044 18.3297 360.955 18.549L360.423 18.297C360.498 18.101 360.61 17.9283 360.759 17.779C360.908 17.6297 361.088 17.513 361.298 17.429C361.513 17.345 361.748 17.303 362.005 17.303C362.327 17.303 362.593 17.359 362.803 17.471C363.013 17.5783 363.169 17.723 363.272 17.905C363.379 18.087 363.433 18.2877 363.433 18.507C363.433 18.675 363.41 18.8267 363.363 18.962C363.316 19.0927 363.251 19.207 363.167 19.305C363.088 19.403 362.997 19.4823 362.894 19.543C362.791 19.599 362.682 19.6363 362.565 19.655V19.669C362.719 19.6737 362.854 19.704 362.971 19.76C363.092 19.816 363.195 19.8907 363.279 19.984C363.363 20.0773 363.426 20.1847 363.468 20.306C363.515 20.4227 363.538 20.5463 363.538 20.677C363.538 20.9477 363.47 21.188 363.335 21.398C363.204 21.608 363.02 21.7737 362.782 21.895C362.544 22.0117 362.266 22.07 361.949 22.07Z" fill="#212121"/>
        <circle cx="327" cy="20" r="2" fill="#181B5E"/>
        <circle cx="321" cy="20" r="2" fill="#181B5E"/>
        <circle cx="315" cy="20" r="2" fill="#181B5E"/>
        <path opacity="0.3" d="M339.585 33.38C339.898 33.38 340.169 33.4383 340.397 33.555C340.631 33.667 340.813 33.828 340.943 34.038C341.074 34.248 341.139 34.4977 341.139 34.787C341.139 35.0763 341.074 35.326 340.943 35.536C340.813 35.746 340.631 35.9093 340.397 36.026C340.169 36.138 339.898 36.194 339.585 36.194H338.514V38H337.954V33.38H339.585ZM339.501 35.669C339.865 35.669 340.131 35.5943 340.299 35.445C340.467 35.291 340.551 35.0717 340.551 34.787C340.551 34.4977 340.467 34.2783 340.299 34.129C340.131 33.9797 339.865 33.905 339.501 33.905H338.514V35.669H339.501ZM343.977 33.38C344.448 33.38 344.826 33.5013 345.111 33.744C345.395 33.9867 345.538 34.3157 345.538 34.731C345.538 35.1463 345.393 35.4707 345.104 35.704C344.819 35.9327 344.441 36.047 343.97 36.047L343.921 36.082H342.787V38H342.227V33.38H343.977ZM343.97 35.557C344.301 35.557 344.546 35.4893 344.705 35.354C344.868 35.214 344.95 35.0063 344.95 34.731C344.95 34.4557 344.868 34.2503 344.705 34.115C344.546 33.975 344.301 33.905 343.97 33.905H342.787V35.557H343.97ZM344.292 35.669L345.818 38H345.153L343.823 35.977L344.292 35.669ZM347.442 33.38V38H346.882V33.38H347.442ZM352.537 33.38L350.787 38H350.15L348.393 33.38H348.995L350.171 36.572L350.465 37.489L350.759 36.579L351.935 33.38H352.537ZM352.501 38L354.3 33.38H354.965L356.757 38H356.162L354.846 34.556L354.629 33.912H354.615L354.412 34.535L353.089 38H352.501ZM353.383 36.719V36.194H355.854V36.719H353.383ZM360.316 33.38V33.905H358.706V38H358.146V33.905H356.536V33.38H360.316ZM361.292 38V33.38H364.533V33.905H361.852V35.396H363.938V35.921H361.852V37.475H364.638V38H361.292Z" fill="#212121"/>
        <path d="M331 39.3333H327C326.449 39.3333 326 38.8846 326 38.3333V35.6666C326 35.1153 326.449 34.6666 327 34.6666H331C331.551 34.6666 332 35.1153 332 35.6666V38.3333C332 38.8846 331.551 39.3333 331 39.3333ZM327 35.3333C326.816 35.3333 326.667 35.4833 326.667 35.6666V38.3333C326.667 38.5166 326.816 38.6666 327 38.6666H331C331.184 38.6666 331.333 38.5166 331.333 38.3333V35.6666C331.333 35.4833 331.184 35.3333 331 35.3333H327Z" fill="#181B5E"/>
        <path d="M330.333 35.3333H327.667C327.483 35.3333 327.333 35.184 327.333 35V33.6667C327.333 32.7473 328.081 32 329 32C329.919 32 330.667 32.7473 330.667 33.6667V35C330.667 35.184 330.517 35.3333 330.333 35.3333ZM328 34.6667H330V33.6667C330 33.1153 329.551 32.6667 329 32.6667C328.449 32.6667 328 33.1153 328 33.6667V34.6667Z" fill="#181B5E"/>
    </g>
    <defs>
        <filter id="filter0_d" x="0" y="0" width="384" height="140" filterUnits="userSpaceOnUse" color-interpolation-filters="sRGB">
            <feFlood flood-opacity="0" result="BackgroundImageFix"/>
            <feColorMatrix in="SourceAlpha" type="matrix" values="0 0 0 0 0 0 0 0 0 0 0 0 0 0 0 0 0 0 127 0"/>
            <feOffset dy="4"/>
            <feGaussianBlur stdDeviation="5"/>
            <feColorMatrix type="matrix" values="0 0 0 0 0 0 0 0 0 0 0 0 0 0 0 0 0 0 0.1 0"/>
            <feBlend mode="normal" in2="BackgroundImageFix" result="effect1_dropShadow"/>
            <feBlend mode="normal" in="SourceGraphic" in2="effect1_dropShadow" result="shape"/>
        </filter>
        <clipPath id="clip0">
            <rect x="23" y="16" width="23" height="23" fill="white"/>
        </clipPath>
    </defs>
</svg>
