<svg width="24" height="24" viewBox="0 0 24 24" fill="none" xmlns="http://www.w3.org/2000/svg">
    <path fill-rule="evenodd" clip-rule="evenodd" d="M16 22.5L12.5 23.5L13.5 20L20.647 12.852C20.7408 12.7579 20.8682 12.7051 21.001 12.7051C21.1338 12.7051 21.2612 12.7579 21.355 12.852L23.147 14.644C23.241 14.7378 23.2939 14.8651 23.2939 14.998C23.2939 15.1308 23.241 15.2582 23.147 15.352L16 22.5Z" stroke="#181B5E" stroke-linecap="round" stroke-linejoin="round"/>
    <path d="M19.001 14.499L21.501 16.999" stroke="#181B5E" stroke-linecap="round" stroke-linejoin="round"/>
    <path d="M13.5 20.001L16 22.501" stroke="#181B5E" stroke-linecap="round" stroke-linejoin="round"/>
    <path fill-rule="evenodd" clip-rule="evenodd" d="M3.5 8C3.5 7.72386 3.72386 7.5 4 7.5H8C8.27614 7.5 8.5 7.72386 8.5 8V10C8.5 10.2761 8.27614 10.5 8 10.5H4C3.72386 10.5 3.5 10.2761 3.5 10V8Z" stroke="#181B5E" stroke-linecap="round" stroke-linejoin="round"/>
    <path fill-rule="evenodd" clip-rule="evenodd" d="M3.5 13C3.5 12.7239 3.72386 12.5 4 12.5H8C8.27614 12.5 8.5 12.7239 8.5 13V15C8.5 15.2761 8.27614 15.5 8 15.5H4C3.72386 15.5 3.5 15.2761 3.5 15V13Z" stroke="#181B5E" stroke-linecap="round" stroke-linejoin="round"/>
    <path fill-rule="evenodd" clip-rule="evenodd" d="M3.5 18C3.5 17.7239 3.72386 17.5 4 17.5H8C8.27614 17.5 8.5 17.7239 8.5 18V20C8.5 20.2761 8.27614 20.5 8 20.5H4C3.72386 20.5 3.5 20.2761 3.5 20V18Z" stroke="#181B5E" stroke-linecap="round" stroke-linejoin="round"/>
    <path d="M10 23.5H1.5C0.947715 23.5 0.5 23.0523 0.5 22.5V1.5C0.5 0.947715 0.947715 0.5 1.5 0.5H11.086C11.3512 0.500057 11.6055 0.605451 11.793 0.793L17.207 6.207C17.3946 6.39449 17.4999 6.64881 17.5 6.914V13" stroke="#181B5E" stroke-linecap="round" stroke-linejoin="round"/>
    <path d="M11.5 0.590027V5.50003C11.5 6.05231 11.9477 6.50003 12.5 6.50003H17.41" stroke="#181B5E" stroke-linecap="round" stroke-linejoin="round"/>
    <path d="M8.5 8.5H10.5C11.0523 8.5 11.5 8.94772 11.5 9.5V17.5C11.5 18.0523 11.0523 18.5 10.5 18.5H8.5" stroke="#181B5E" stroke-linecap="round" stroke-linejoin="round"/>
    <path d="M8.5 13.5H14" stroke="#181B5E" stroke-linecap="round" stroke-linejoin="round"/>
</svg>
