<svg width="24" height="24" viewBox="0 0 24 24" fill="none" xmlns="http://www.w3.org/2000/svg">
    <path d="M4.5 1.5C4.5 0.947715 4.94772 0.5 5.5 0.5H18.5C19.0523 0.5 19.5 0.947715 19.5 1.5" stroke="#181B5E" stroke-linecap="round" stroke-linejoin="round"/>
    <path d="M13.5 4L12 2.5L10.5 4" stroke="#181B5E" stroke-linecap="round" stroke-linejoin="round"/>
    <path d="M19.5 22.5C19.5 23.0523 19.0523 23.5 18.5 23.5H5.5C4.94772 23.5 4.5 23.0523 4.5 22.5" stroke="#181B5E" stroke-linecap="round" stroke-linejoin="round"/>
    <path d="M10.5 20L12 21.5L13.5 20" stroke="#181B5E" stroke-linecap="round" stroke-linejoin="round"/>
    <path fill-rule="evenodd" clip-rule="evenodd" d="M18.5 6.5C19.0523 6.5 19.5 6.94772 19.5 7.5V16.5C19.5 17.0523 19.0523 17.5 18.5 17.5H5.5C4.94772 17.5 4.5 17.0523 4.5 16.5V7.5C4.5 6.94771 4.94772 6.5 5.5 6.5L18.5 6.5Z" stroke="#181B5E" stroke-linecap="round" stroke-linejoin="round"/>
</svg>
