<svg width="24" height="24" viewBox="0 0 24 24" fill="none" xmlns="http://www.w3.org/2000/svg">
    <path d="M0.5 6.5V3.5C0.5 1.84315 1.84315 0.5 3.5 0.5H6.5" stroke="#181B5E" stroke-linecap="round" stroke-linejoin="round"/>
    <path d="M23.5 6.5V3.5C23.5 1.84315 22.1569 0.5 20.5 0.5H17.5" stroke="#181B5E" stroke-linecap="round" stroke-linejoin="round"/>
    <path d="M0.5 17.5V20.5C0.5 22.1569 1.84315 23.5 3.5 23.5H6.5" stroke="#181B5E" stroke-linecap="round" stroke-linejoin="round"/>
    <path d="M23.5 17.5V20.5C23.5 22.1569 22.1569 23.5 20.5 23.5H17.5" stroke="#181B5E" stroke-linecap="round" stroke-linejoin="round"/>
    <path d="M3.95898 19.0871C5.66657 18.0969 7.48298 17.3077 9.37198 16.7351C10.209 16.4251 10.3 14.5061 9.69998 13.8451C8.83398 12.8931 8.09998 11.7761 8.09998 9.08006C7.99795 7.9936 8.36642 6.9155 9.1121 6.11877C9.85778 5.32205 10.9092 4.88309 12 4.91306C13.0908 4.88309 14.1422 5.32205 14.8879 6.11877C15.6335 6.9155 16.002 7.9936 15.9 9.08006C15.9 11.7801 15.166 12.8931 14.3 13.8451C13.7 14.5061 13.791 16.4251 14.628 16.7351C16.517 17.3077 18.3334 18.0969 20.041 19.0871" stroke="#181B5E" stroke-linecap="round" stroke-linejoin="round"/>
</svg>
