<svg width="25" height="25" viewBox="0 0 25 25" fill="none" xmlns="http://www.w3.org/2000/svg">
    <g clip-path="url(#clip0)">
        <path d="M23.7499 22.4367V22.0201C23.7464 21.4935 23.4131 21.0255 22.9166 20.8502V20.3534C22.915 19.8255 22.5812 19.3556 22.0832 19.1802V12.7767C22.5812 12.6013 22.9149 12.1315 22.9166 11.6035V10.8686L23.6758 9.35007L24.8778 8.14808C25.0405 7.98563 25.0407 7.72206 24.8783 7.55936C24.8547 7.53583 24.8285 7.51517 24.8001 7.49789L12.7169 0.124279C12.5838 0.0428835 12.4163 0.0428835 12.2832 0.124279L0.199941 7.49789C0.00355587 7.61742 -0.058797 7.87352 0.060733 8.06991C0.078018 8.09832 0.0986721 8.12459 0.122207 8.14808L1.32415 9.35007L2.08342 10.8686V11.6035C2.08503 12.1314 2.41877 12.6013 2.91676 12.7766V19.1801C2.41877 19.3555 2.08508 19.8254 2.08342 20.3534V20.8502C1.58684 21.0255 1.25354 21.4934 1.25008 22.02V22.4367C0.560044 22.4374 0.000821523 22.9966 8.91087e-05 23.6866V24.52C4.02811e-05 24.7501 0.186464 24.9366 0.41654 24.9366C0.416638 24.9366 0.416687 24.9366 0.416735 24.9366H24.5832C24.8133 24.9367 24.9998 24.7503 24.9999 24.5202C24.9999 24.5201 24.9999 24.52 24.9999 24.52V23.6866C24.9992 22.9967 24.4399 22.4374 23.7499 22.4367ZM22.0833 11.6035C22.083 11.8335 21.8967 12.0199 21.6666 12.0201H19.1666C18.9366 12.0199 18.7502 11.8335 18.75 11.6035V11.1868H22.0833V11.6035H22.0833ZM10.4167 19.1802V12.7767C10.9147 12.6013 11.2484 12.1315 11.2501 11.6035V11.1868H13.7501V11.6035C13.7517 12.1314 14.0854 12.6013 14.5834 12.7766V19.1801C14.0854 19.3555 13.7517 19.8254 13.7501 20.3534V20.77H11.2501V20.3534C11.2484 19.8254 10.9147 19.3556 10.4167 19.1802ZM3.33345 12.0202C3.10343 12.0199 2.917 11.8335 2.91681 11.6035V11.1869H6.25013V11.6035C6.24988 11.8335 6.06351 12.02 5.83348 12.0202H3.33345ZM5.41673 12.8535V19.1034H3.7501V12.8535H5.41673ZM6.25008 12.7767C6.40393 12.7221 6.54548 12.6377 6.66672 12.5284C6.78796 12.6377 6.92956 12.7221 7.08337 12.7766V19.1801C6.92951 19.2348 6.78796 19.3192 6.66672 19.4285C6.54548 19.3192 6.40388 19.2348 6.25008 19.1801V12.7767ZM7.08342 20.3534C7.08366 20.1234 7.27009 19.9369 7.50006 19.9367H10C10.2301 19.937 10.4165 20.1234 10.4167 20.3534V20.77H7.08342V20.3534ZM7.91671 19.1034V12.8535H9.58334V19.1034H7.91671ZM10 12.0202H7.50006C7.27004 12.0199 7.08361 11.8335 7.08342 11.6035V11.1869H10.4167V11.6035C10.4165 11.8335 10.2301 12.0199 10 12.0202ZM14.5833 20.3534C14.5836 20.1234 14.77 19.9369 15 19.9367H17.5C17.73 19.937 17.9164 20.1234 17.9166 20.3534V20.77H14.5833V20.3534ZM15.4166 19.1034V12.8535H17.0833V19.1034H15.4166ZM17.5 12.0202H15C14.77 12.0199 14.5835 11.8335 14.5833 11.6035V11.1869H17.9167V11.6035C17.9164 11.8335 17.73 12.0199 17.5 12.0202ZM17.9166 12.7767C18.0705 12.7221 18.212 12.6377 18.3333 12.5284C18.4545 12.6377 18.5961 12.7221 18.7499 12.7766V19.1801C18.596 19.2348 18.4545 19.3192 18.3333 19.4285C18.212 19.3192 18.0704 19.2348 17.9166 19.1801V12.7767ZM18.75 20.3534C18.7502 20.1234 18.9366 19.9369 19.1666 19.9367H21.6666C21.8966 19.937 22.083 20.1234 22.0832 20.3534V20.77H18.7499V20.3534H18.75ZM19.5833 19.1034V12.8535H21.2499V19.1034H19.5833ZM1.72864 8.57615L1.08572 7.93324L12.5 0.967972L23.9143 7.93324L23.2714 8.57615L12.7185 2.08207C12.5845 1.99946 12.4155 1.99946 12.2815 2.08207L1.72864 8.57615ZM21.8611 8.68684H3.13893L12.5 2.9262L21.8611 8.68684ZM2.75768 10.3535L2.34103 9.52014H22.659L22.2424 10.3535H2.75768ZM2.91676 20.3534C2.917 20.1234 3.10338 19.9369 3.33341 19.9367H5.83338C6.06341 19.937 6.24983 20.1234 6.25003 20.3534V20.77H2.91676V20.3534ZM24.1666 24.1033H0.833479V23.6867C0.833723 23.4567 1.0201 23.2702 1.25013 23.27H10C10.2302 23.27 10.4167 23.0835 10.4167 22.8534C10.4167 22.6233 10.2301 22.4368 10 22.4368H2.08347V22.0201C2.0883 21.7856 2.2819 21.5993 2.51642 21.6035H22.4837C22.7181 21.5993 22.9118 21.7856 22.9166 22.0201V22.4368H15C14.7699 22.4368 14.5833 22.6233 14.5833 22.8534C14.5833 23.0835 14.7699 23.27 15 23.27H23.7499C23.9799 23.2703 24.1664 23.4567 24.1666 23.6867V24.1033Z" fill="#181B5E"/>
        <path d="M12.4999 4.31189C11.5798 4.31287 10.8342 5.05847 10.8333 5.97853C10.8333 6.89898 11.5794 7.64517 12.4999 7.64517C13.4203 7.64517 14.1665 6.89898 14.1665 5.97853C14.1665 5.05808 13.4203 4.31189 12.4999 4.31189ZM12.4999 6.81187C12.0396 6.81187 11.6665 6.43878 11.6665 5.97853C11.6665 5.51828 12.0396 5.14518 12.4999 5.14518C12.9599 5.14572 13.3327 5.51847 13.3332 5.97853C13.3332 6.43878 12.9601 6.81187 12.4999 6.81187Z" fill="#181B5E"/>
    </g>
    <defs>
        <clipPath id="clip0">
            <path d="M0 0H25V25H0V0Z" fill="white"/>
        </clipPath>
    </defs>
</svg>
