<svg width="861" height="227" viewBox="0 0 861 227" fill="none" xmlns="http://www.w3.org/2000/svg">
    <path fill-rule="evenodd" clip-rule="evenodd" d="M56.618 2.25C54.666 5.325 0 108.14 0 108.736C0 108.998 12.913 133.465 28.695 163.106L57.39 217H67.268H77.147L74.199 211.75C65.423 196.12 19.671 109.537 19.694 108.602C19.708 107.996 32.383 83.763 47.86 54.75C63.337 25.738 76 1.551 76 1C76 0.407 72.344 0 67.023 0C58.803 0 57.926 0.19 56.618 2.25ZM98.614 0.815002C98.337 1.264 93.321 25.676 87.468 55.065L76.826 108.5L87.527 162.75L98.227 217H107.23C115.308 217 116.187 216.82 115.786 215.25C115.54 214.288 110.683 189.828 104.992 160.895L94.645 108.291L105.323 54.895C111.196 25.528 116 1.162 116 0.75C116 -0.271 99.247 -0.207998 98.614 0.815002ZM140 0.710999C140 1.145 144.806 25.535 150.68 54.912L161.361 108.324L151.018 160.912C145.329 189.835 140.47 214.288 140.22 215.25C139.813 216.821 140.689 217 148.761 217H157.756L168.501 162.75L179.247 108.5L168.373 54.5L157.5 0.5L148.75 0.210999C143.938 0.0519985 140 0.276999 140 0.710999ZM180.621 3.25C181.541 5.037 194.443 29.225 209.293 57C224.142 84.775 236.301 107.996 236.312 108.602C236.33 109.546 188.24 200.657 181.34 212.75L178.916 217H188.768H198.62L227.31 163.149C243.09 133.53 256 109.051 256 108.751C256 108.106 201.477 5.541 199.384 2.25C198.065 0.175 197.215 0 188.451 0H178.949L180.621 3.25ZM309 111.5V164H317H325V111.5V59H317H309V111.5ZM360 111.5V164L380.25 163.983C403.037 163.963 410.84 162.81 420.592 158.022C432.521 152.164 441.569 141.611 446.17 128.19C447.947 123.008 448.456 119.359 448.43 112C448.375 96.679 443.178 84.329 432.45 74.027C420.188 62.253 408.863 59.091 378.75 59.035L360 59V111.5ZM476 111.5V164H510.044H544.088L543.794 156.75L543.5 149.5L517.75 149.233L492 148.966V133.483V118H515.5H539V110.5V103H515.5H492V88.5V74H517.5H543V66.5V59H509.5H476V111.5ZM573 111.5V164H580.5H588V125C588 103.55 588.337 86.001 588.75 86.003C589.163 86.004 596.737 103.442 605.582 124.753L621.663 163.5L628.686 163.791L635.708 164.082L652.104 124.791L668.5 85.5L668.762 124.75L669.023 164H677.012H685V111.5V59L673.75 59.012L662.5 59.023L646 99.489C636.925 121.745 629.274 139.964 628.997 139.977C628.72 139.99 620.888 121.775 611.592 99.5L594.691 59H583.846H573V111.5ZM720 111.5V164H728H736V111.5V59H728H720V111.5ZM780 107.182C769.275 133.688 759.72 157.316 758.767 159.688L757.033 164H765.389H773.744L778.526 151.484L783.308 138.967L809.248 139.234L835.187 139.5L839.844 151.735L844.5 163.971L852.817 163.985C860.795 163.999 861.108 163.915 860.473 161.916C860.109 160.769 850.674 137.257 839.505 109.666L819.199 59.5L809.35 59.244L799.5 58.988L780 107.182ZM410.439 77.811C418.848 81.762 423.739 86.694 428.163 95.68C431.224 101.898 431.494 103.203 431.432 111.479C431.348 122.702 428.829 129.749 422.309 137.001C414.229 145.988 405.631 148.97 387.75 148.988L376 149V111.387V73.773L389.75 74.162C402.789 74.53 403.859 74.719 410.439 77.811ZM819.527 99.796C824.87 113.159 829.027 124.306 828.766 124.568C828.504 124.829 819.506 124.921 808.769 124.772L789.248 124.5L798.094 102C808.086 76.586 808.928 74.591 809.444 75.121C809.647 75.329 814.185 86.433 819.527 99.796ZM519 193.557V200.113L516.777 198.557C511.957 195.18 505.688 197.108 503.359 202.684C499.547 211.806 509.058 220.85 516.777 215.443C518.789 214.034 519 214.034 519 215.443C519 216.333 519.857 217 521 217C522.911 217 523 216.333 523 202C523 187.667 522.911 187 521 187C519.203 187 519 187.667 519 193.557ZM565 193.035C565 198.692 564.879 199.005 563.066 198.035C557.791 195.212 550.937 198.419 549.432 204.414C547.361 212.667 555.826 219.839 563.066 215.965C564.399 215.251 565 215.251 565 215.965C565 216.534 566.125 217 567.5 217H570V202V187H567.5C565.109 187 565 187.264 565 193.035ZM539.408 189.378C538.599 191.487 539.735 193 542.129 193C543.639 193 544.06 192.443 543.82 190.76C543.447 188.146 540.264 187.149 539.408 189.378ZM639.701 188.632C639.316 189.018 639 190.19 639 191.236C639 192.638 639.593 193.055 641.25 192.82C642.721 192.611 643.5 191.812 643.5 190.514C643.5 188.53 641.028 187.306 639.701 188.632ZM467 194C467 196.333 466.556 197 465 197C463.667 197 463 197.667 463 199C463 200.333 463.667 201 465 201C466.809 201 467 201.667 467 207.965C467 213.965 467.284 215.082 469.052 216.028C471.828 217.513 475.408 216.876 475.798 214.827C476.009 213.719 475.338 213.044 473.808 212.827C471.745 212.535 471.468 211.89 471.2 206.75C470.909 201.175 470.978 201 473.45 201C475.333 201 476 200.477 476 199C476 197.533 475.333 197 473.5 197C471.389 197 471 196.533 471 194C471 191.667 470.556 191 469 191C467.444 191 467 191.667 467 194ZM625 194C625 196.333 624.556 197 623 197C621.667 197 621 197.667 621 199C621 200.333 621.667 201 623 201C624.793 201 625 201.667 625 207.429C625 214.755 626.424 217 631.071 217C633.298 217 634 216.537 634 215.07C634 213.829 633.196 213.025 631.75 212.82C629.757 212.536 629.466 211.844 629.2 206.75C628.909 201.175 628.978 201 631.45 201C633.333 201 634 200.477 634 199C634 197.533 633.333 197 631.5 197C629.389 197 629 196.533 629 194C629 191.667 628.556 191 627 191C625.444 191 625 191.667 625 194ZM652 194C652 196.333 651.556 197 650 197C648.667 197 648 197.667 648 199C648 200.333 648.667 201 650 201C651.793 201 652 201.667 652 207.429C652 214.755 653.424 217 658.071 217C660.298 217 661 216.537 661 215.07C661 213.829 660.196 213.025 658.75 212.82C656.757 212.536 656.466 211.844 656.2 206.75C655.909 201.175 655.978 201 658.45 201C660.333 201 661 200.477 661 199C661 197.533 660.333 197 658.5 197C656.389 197 656 196.533 656 194C656 191.667 655.556 191 654 191C652.444 191 652 191.667 652 194ZM311.75 198.977C308.482 201.554 308.303 202.584 311 203.29C312.1 203.577 313 203.395 313 202.885C313 202.375 314.112 201.451 315.47 200.832C317.359 199.971 318.301 200.005 319.47 200.975C322.09 203.149 321.171 204.717 316.875 205.404C310.188 206.473 308.842 207.593 309.194 211.797C309.443 214.78 310.02 215.645 312.286 216.437C314.177 217.098 316.024 217.052 318.036 216.293C319.674 215.674 321 215.582 321 216.087C321 216.589 321.9 217 323 217C324.829 217 325 216.333 325 209.191C325 199.975 323.95 198.07 318.465 197.338C315.376 196.926 313.893 197.288 311.75 198.977ZM331.278 205.227C331.748 212.085 332.206 213.749 334.032 215.227C336.577 217.288 341.018 217.549 342.925 215.75C343.985 214.75 344.342 214.75 344.708 215.75C344.96 216.438 346.029 217 347.083 217C348.844 217 349 216.188 349 207C349 197.667 348.867 197 347 197C345.196 197 345 197.667 345 203.8C345 210.997 344.02 213 340.5 213C336.98 213 336 210.997 336 203.8C336 197.115 335.955 197 333.357 197H330.714L331.278 205.227ZM357.923 199.923C355.631 202.216 355 203.742 355 207C355 214.494 362.272 219.299 367.777 215.443C369.921 213.942 370 213.989 370 216.788C370 222.385 364.456 224.72 359.822 221.075C358.297 219.875 356.873 219.46 356.042 219.974C352.147 222.381 360.498 227.56 366.468 226.44C368.317 226.093 370.881 224.692 372.165 223.327C374.294 221.064 374.529 219.794 374.834 208.922C375.156 197.4 375.098 197 373.084 197C371.864 197 371 197.646 371 198.557C371 199.966 370.789 199.966 368.777 198.557C365.281 196.108 361.228 196.618 357.923 199.923ZM381.214 206.75C381.478 215.738 381.656 216.5 383.5 216.5C385.278 216.5 385.556 215.667 386 209L386.5 201.5H390H393.5L393.792 209.25C394.053 216.178 394.292 217 396.042 217C397.746 217 398 216.294 398 211.565C398 204.277 399.326 201 402.275 201C406.03 201 407 202.89 407 210.2C407 216.875 407.048 217 409.628 217H412.257L411.784 208.835C411.382 201.88 410.976 200.399 409.045 198.835C406.329 196.636 403.838 196.515 400.182 198.406C397.846 199.614 397.192 199.614 395.54 198.406C393.158 196.664 388.841 196.584 387.075 198.25C386.015 199.25 385.658 199.25 385.292 198.25C385.04 197.563 383.955 197 382.88 197C381.057 197 380.947 197.647 381.214 206.75ZM419.923 199.923C417.631 202.216 417 203.742 417 207C417 212.317 421.202 217 425.973 217C429.879 217 435 214.433 435 212.474C435 210.584 434.073 210.618 429.982 212.659C427.043 214.125 426.358 214.15 424.085 212.874C422.671 212.081 421.365 210.659 421.184 209.716C420.895 208.217 421.81 208 428.427 208C435.899 208 436 207.965 436 205.423C436 201.457 430.974 197 426.5 197C423.795 197 422.087 197.759 419.923 199.923ZM441 207C441 216.333 441.133 217 443 217C444.78 217 445 216.333 445 210.934C445 203.317 446.166 201 450 201C453.834 201 455 203.317 455 210.934C455 216.333 455.22 217 457 217C458.819 217 459 216.333 459 209.635C459 203.698 458.598 201.759 456.927 199.635C454.647 196.735 449.454 196.006 447.075 198.25C446.015 199.25 445.658 199.25 445.292 198.25C445.04 197.563 443.971 197 442.917 197C441.156 197 441 197.812 441 207ZM482.495 199.414C475.941 205.968 479.157 215.7 488.213 216.721C492.332 217.185 493.163 216.926 495.674 214.396C498.03 212.022 498.219 211.493 496.809 211.213C495.879 211.028 493.989 211.616 492.608 212.521C489.913 214.287 487.016 213.873 484.506 211.363C481.778 208.635 482.911 208 490.5 208H498V204.955C498 197.756 487.799 194.11 482.495 199.414ZM540 207C540 216.333 540.133 217 542 217C543.867 217 544 216.333 544 207C544 197.667 543.867 197 542 197C540.133 197 540 197.667 540 207ZM578.306 199.413C575.904 201.479 575.5 202.572 575.5 207C575.5 211.428 575.904 212.521 578.306 214.587C582.295 218.018 588.188 217.903 591.767 214.324C595.036 211.055 593.423 210.097 588.546 212.411C583.921 214.606 579 212.547 579 208.418C579 208.188 582.375 208 586.5 208C593.273 208 594 207.811 594 206.047C594 198.141 584.469 194.112 578.306 199.413ZM599.214 206.75C599.478 215.738 599.656 216.5 601.5 216.5C603.28 216.5 603.533 215.733 603.801 209.528C604.112 202.309 604.844 201.042 608.715 201.015C611.778 200.994 613 203.822 613 210.934C613 216.333 613.22 217 615 217C616.808 217 617 216.333 617 210.065C617 206.251 616.566 201.988 616.035 200.593C614.846 197.464 610.751 196.278 606.576 197.854C604.575 198.609 603.388 198.663 603.169 198.007C602.984 197.453 601.955 197 600.88 197C599.057 197 598.947 197.647 599.214 206.75ZM639 207C639 216.333 639.133 217 641 217C642.867 217 643 216.333 643 207C643 197.667 642.867 197 641 197C639.133 197 639 197.667 639 207ZM668.423 205.847L672.867 214.694L670.433 219.947C667.518 226.24 667.452 227 669.826 227C671.205 227 673.223 223.538 678.076 212.845C681.609 205.059 684.65 198.309 684.833 197.845C685.017 197.38 684.234 197 683.093 197C681.504 197 680.31 198.567 677.974 203.717L674.929 210.434L671.808 203.717C669.251 198.214 668.262 197 666.333 197C664.02 197 664.055 197.149 668.423 205.847ZM430.75 202.245C433.183 204.191 431.935 205 426.5 205C420.6 205 419.682 204.037 423.219 201.559C425.424 200.015 428.288 200.275 430.75 202.245ZM492.139 201.914C495.3 204.476 494.271 205.172 487.861 204.806L482.5 204.5L484.75 202.25C487.5 199.5 489.073 199.428 492.139 201.914ZM588.139 201.914C591.3 204.476 590.271 205.172 583.861 204.806L578.5 204.5L580.75 202.25C583.5 199.5 585.073 199.428 588.139 201.914ZM369.797 204.25C371.765 208.376 369.599 212.393 365.178 212.818C363.358 212.993 361.268 212.637 360.533 212.027C358.252 210.134 357.768 206.004 359.515 203.337C360.82 201.345 361.81 200.944 364.803 201.193C367.681 201.433 368.773 202.101 369.797 204.25ZM517.969 204.25C519.344 206.72 519.344 207.28 517.969 209.75C516.819 211.815 515.552 212.575 512.883 212.801C508.693 213.155 506.667 211.264 506.667 207C506.667 202.736 508.693 200.845 512.883 201.199C515.552 201.425 516.819 202.185 517.969 204.25ZM563.8 202.2C564.46 202.86 565 205.02 565 207C565 211.453 563.545 213 559.357 213C556.004 213 553 210.164 553 207C553 206.145 553.701 204.445 554.557 203.223C556.292 200.744 561.742 200.142 563.8 202.2ZM321 209.965C321 212.368 317.63 214.335 314.962 213.488C313.066 212.886 312.3 210.033 313.667 208.667C314.033 208.3 315.833 208 317.667 208C320.313 208 321 208.405 321 209.965Z" fill="#403092"/>
</svg>
