<svg width="30" height="30" viewBox="0 0 30 30" fill="none" xmlns="http://www.w3.org/2000/svg">
    <g clip-path="url(#clip0)">
        <rect width="30" height="30" fill="#EFEFEF"/>
        <g opacity="0.3">
            <path d="M15 1C15.5523 1 16 0.552285 16 0C16 -0.552285 15.5523 -1 15 -1C14.4477 -1 14 -0.552285 14 0C14 0.552285 14.4477 1 15 1Z" fill="#181B5E"/>
            <path d="M15 31C15.5523 31 16 30.5523 16 30C16 29.4477 15.5523 29 15 29C14.4477 29 14 29.4477 14 30C14 30.5523 14.4477 31 15 31Z" fill="#181B5E"/>
            <path d="M0 16C0.552285 16 1 15.5523 1 15C1 14.4477 0.552285 14 0 14C-0.552285 14 -1 14.4477 -1 15C-1 15.5523 -0.552285 16 0 16Z" fill="#181B5E"/>
            <path d="M30 16C30.5523 16 31 15.5523 31 15C31 14.4477 30.5523 14 30 14C29.4477 14 29 14.4477 29 15C29 15.5523 29.4477 16 30 16Z" fill="#181B5E"/>
        </g>
    </g>
    <defs>
        <clipPath id="clip0">
            <rect width="30" height="30" fill="white"/>
        </clipPath>
    </defs>
</svg>
