<svg width="468" height="986" viewBox="0 0 468 986" fill="none" xmlns="http://www.w3.org/2000/svg">
    <g clip-path="url(#clip0)" filter="url(#filter0_d)">
        <rect width="415" height="899.586" transform="translate(32 64.3918)" fill="#F9F9F9"/>
        <rect x="32" y="64.3918" width="414" height="60" fill="white"/>
        <path d="M96.936 88.8318V99.3918H95.72V92.7518L95.864 89.9678H95.848L92.376 99.3918H91.288L87.816 89.9678H87.8L87.944 92.7518V99.3918H86.728V88.8318H88.696L91.016 95.2478L91.816 97.8878H91.848L92.664 95.2638L94.968 88.8318H96.936ZM106.286 91.3918L102.526 100.736C102.323 101.259 102.099 101.669 101.854 101.968C101.619 102.277 101.353 102.496 101.054 102.624C100.766 102.763 100.43 102.832 100.046 102.832C99.6835 102.832 99.3475 102.779 99.0381 102.672C98.7395 102.576 98.4728 102.443 98.2381 102.272L98.5901 101.152C98.8035 101.344 99.0275 101.483 99.2621 101.568C99.5075 101.664 99.7475 101.712 99.9821 101.712C100.259 101.712 100.521 101.627 100.766 101.456C101.011 101.285 101.235 100.939 101.438 100.416L101.854 99.3758L101.054 97.4718L98.5101 91.3918H99.9661L101.966 96.6078L102.462 98.0318L103.038 96.4478L104.91 91.3918H106.286ZM115.451 91.2318C116.005 91.2318 116.491 91.3172 116.907 91.4878C117.333 91.6585 117.701 91.9038 118.011 92.2238C118.32 92.5438 118.571 92.9225 118.763 93.3598L117.547 93.9358C117.376 93.4238 117.115 93.0345 116.763 92.7678C116.421 92.4905 115.973 92.3518 115.419 92.3518C114.885 92.3518 114.427 92.4745 114.043 92.7198C113.659 92.9545 113.365 93.3012 113.163 93.7598C112.96 94.2078 112.859 94.7518 112.859 95.3918C112.859 96.0212 112.96 96.5652 113.163 97.0238C113.365 97.4825 113.659 97.8345 114.043 98.0798C114.427 98.3145 114.885 98.4318 115.419 98.4318C115.835 98.4318 116.192 98.3678 116.491 98.2398C116.8 98.1118 117.051 97.9252 117.243 97.6798C117.445 97.4345 117.584 97.1358 117.659 96.7838L118.843 97.1998C118.661 97.6905 118.411 98.1118 118.091 98.4638C117.781 98.8158 117.403 99.0878 116.955 99.2798C116.517 99.4612 116.016 99.5518 115.451 99.5518C114.704 99.5518 114.037 99.3865 113.451 99.0558C112.864 98.7252 112.405 98.2505 112.075 97.6318C111.744 97.0025 111.579 96.2558 111.579 95.3918C111.579 94.5278 111.744 93.7865 112.075 93.1678C112.405 92.5385 112.864 92.0585 113.451 91.7278C114.037 91.3972 114.704 91.2318 115.451 91.2318ZM120.658 99.3918V91.3918H121.698L121.874 92.7038C122.098 92.2132 122.423 91.8452 122.85 91.5998C123.287 91.3545 123.815 91.2318 124.434 91.2318C124.572 91.2318 124.722 91.2425 124.882 91.2638C125.052 91.2852 125.196 91.3278 125.314 91.3918L125.09 92.5598C124.972 92.5172 124.844 92.4852 124.706 92.4638C124.567 92.4425 124.37 92.4318 124.114 92.4318C123.783 92.4318 123.447 92.5278 123.106 92.7198C122.775 92.9118 122.498 93.2052 122.274 93.5998C122.05 93.9838 121.938 94.4745 121.938 95.0718V99.3918H120.658ZM129.849 99.5518C129.092 99.5518 128.414 99.3865 127.817 99.0558C127.23 98.7252 126.772 98.2505 126.441 97.6318C126.11 97.0025 125.945 96.2558 125.945 95.3918C125.945 94.5278 126.11 93.7865 126.441 93.1678C126.772 92.5385 127.225 92.0585 127.801 91.7278C128.377 91.3972 129.033 91.2318 129.769 91.2318C130.516 91.2318 131.15 91.3918 131.673 91.7118C132.206 92.0318 132.612 92.4692 132.889 93.0238C133.166 93.5678 133.305 94.1812 133.305 94.8638C133.305 95.0452 133.3 95.2105 133.289 95.3598C133.278 95.5092 133.262 95.6425 133.241 95.7598H126.777V94.6238H132.681L132.025 94.7518C132.025 93.9838 131.812 93.3918 131.385 92.9758C130.969 92.5598 130.42 92.3518 129.737 92.3518C129.214 92.3518 128.761 92.4745 128.377 92.7198C128.004 92.9545 127.71 93.3012 127.497 93.7598C127.294 94.2078 127.193 94.7518 127.193 95.3918C127.193 96.0212 127.3 96.5652 127.513 97.0238C127.726 97.4825 128.025 97.8345 128.409 98.0798C128.804 98.3145 129.273 98.4318 129.817 98.4318C130.404 98.4318 130.878 98.3198 131.241 98.0958C131.614 97.8718 131.913 97.5678 132.137 97.1838L133.145 97.7758C132.942 98.1385 132.681 98.4532 132.361 98.7198C132.052 98.9865 131.684 99.1945 131.257 99.3438C130.841 99.4825 130.372 99.5518 129.849 99.5518ZM138.425 99.5518C137.764 99.5518 137.156 99.3865 136.601 99.0558C136.047 98.7252 135.604 98.2505 135.273 97.6318C134.943 97.0025 134.777 96.2558 134.777 95.3918C134.777 94.5065 134.953 93.7545 135.305 93.1358C135.657 92.5172 136.121 92.0478 136.697 91.7278C137.273 91.3972 137.892 91.2318 138.553 91.2318C139.215 91.2318 139.785 91.4025 140.265 91.7438C140.756 92.0852 141.081 92.5385 141.241 93.1038L141.081 93.2158V87.7118H142.361V99.3918H141.241L141.129 97.4558L141.305 97.3598C141.231 97.8292 141.049 98.2292 140.761 98.5598C140.484 98.8798 140.137 99.1252 139.721 99.2958C139.316 99.4665 138.884 99.5518 138.425 99.5518ZM138.553 98.4318C139.065 98.4318 139.508 98.3038 139.881 98.0478C140.265 97.7918 140.559 97.4292 140.761 96.9598C140.975 96.4798 141.081 95.9198 141.081 95.2798C141.081 94.6718 140.975 94.1492 140.761 93.7118C140.559 93.2745 140.271 92.9385 139.897 92.7038C139.535 92.4692 139.108 92.3518 138.617 92.3518C137.807 92.3518 137.177 92.6292 136.729 93.1838C136.281 93.7385 136.057 94.4745 136.057 95.3918C136.057 96.3092 136.276 97.0452 136.713 97.5998C137.151 98.1545 137.764 98.4318 138.553 98.4318ZM148.246 99.5518C147.489 99.5518 146.812 99.3865 146.214 99.0558C145.628 98.7252 145.169 98.2505 144.838 97.6318C144.508 97.0025 144.342 96.2558 144.342 95.3918C144.342 94.5278 144.508 93.7865 144.838 93.1678C145.169 92.5385 145.622 92.0585 146.198 91.7278C146.774 91.3972 147.43 91.2318 148.166 91.2318C148.913 91.2318 149.548 91.3918 150.07 91.7118C150.604 92.0318 151.009 92.4692 151.286 93.0238C151.564 93.5678 151.702 94.1812 151.702 94.8638C151.702 95.0452 151.697 95.2105 151.686 95.3598C151.676 95.5092 151.66 95.6425 151.638 95.7598H145.174V94.6238H151.078L150.422 94.7518C150.422 93.9838 150.209 93.3918 149.782 92.9758C149.366 92.5598 148.817 92.3518 148.134 92.3518C147.612 92.3518 147.158 92.4745 146.774 92.7198C146.401 92.9545 146.108 93.3012 145.894 93.7598C145.692 94.2078 145.59 94.7518 145.59 95.3918C145.59 96.0212 145.697 96.5652 145.91 97.0238C146.124 97.4825 146.422 97.8345 146.806 98.0798C147.201 98.3145 147.67 98.4318 148.214 98.4318C148.801 98.4318 149.276 98.3198 149.638 98.0958C150.012 97.8718 150.31 97.5678 150.534 97.1838L151.542 97.7758C151.34 98.1385 151.078 98.4532 150.758 98.7198C150.449 98.9865 150.081 99.1945 149.654 99.3438C149.238 99.4825 148.769 99.5518 148.246 99.5518ZM153.703 99.3918V91.3918H154.823L154.935 93.1838L154.727 93.0078C154.897 92.5812 155.127 92.2398 155.415 91.9838C155.703 91.7172 156.033 91.5252 156.407 91.4078C156.791 91.2905 157.185 91.2318 157.591 91.2318C158.167 91.2318 158.689 91.3438 159.159 91.5678C159.628 91.7812 160.001 92.1118 160.279 92.5598C160.567 93.0078 160.711 93.5785 160.711 94.2718V99.3918H159.431V94.7198C159.431 93.8345 159.239 93.2212 158.855 92.8798C158.481 92.5278 158.017 92.3518 157.463 92.3518C157.079 92.3518 156.695 92.4425 156.311 92.6238C155.927 92.8052 155.607 93.0985 155.351 93.5038C155.105 93.9092 154.983 94.4532 154.983 95.1358V99.3918H153.703ZM164.953 89.1198V97.1838C164.953 97.5785 165.065 97.8718 165.289 98.0638C165.513 98.2558 165.801 98.3518 166.153 98.3518C166.463 98.3518 166.729 98.2985 166.953 98.1918C167.177 98.0852 167.38 97.9412 167.561 97.7598L168.009 98.8318C167.764 99.0558 167.471 99.2318 167.129 99.3598C166.799 99.4878 166.415 99.5518 165.977 99.5518C165.572 99.5518 165.193 99.4825 164.841 99.3438C164.489 99.1945 164.207 98.9652 163.993 98.6558C163.791 98.3358 163.684 97.9198 163.673 97.4078V89.4718L164.953 89.1198ZM167.865 91.3918V92.4958H162.073V91.3918H167.865ZM169.974 89.8558C169.686 89.8558 169.452 89.7705 169.27 89.5998C169.1 89.4185 169.014 89.1838 169.014 88.8958C169.014 88.6078 169.1 88.3785 169.27 88.2078C169.452 88.0265 169.686 87.9358 169.974 87.9358C170.262 87.9358 170.492 88.0265 170.662 88.2078C170.844 88.3785 170.934 88.6078 170.934 88.8958C170.934 89.1838 170.844 89.4185 170.662 89.5998C170.492 89.7705 170.262 89.8558 169.974 89.8558ZM170.614 91.3918V99.3918H169.334V91.3918H170.614ZM177.822 94.2238C177.822 93.6265 177.662 93.1678 177.342 92.8478C177.022 92.5172 176.569 92.3518 175.982 92.3518C175.428 92.3518 174.958 92.4745 174.574 92.7198C174.19 92.9545 173.908 93.3385 173.726 93.8718L172.686 93.2318C172.9 92.6345 173.294 92.1545 173.87 91.7918C174.446 91.4185 175.161 91.2318 176.014 91.2318C176.59 91.2318 177.113 91.3332 177.582 91.5358C178.052 91.7278 178.42 92.0265 178.686 92.4318C178.964 92.8265 179.102 93.3385 179.102 93.9678V97.8398C179.102 98.2238 179.305 98.4158 179.71 98.4158C179.913 98.4158 180.11 98.3892 180.302 98.3358L180.238 99.3438C180.025 99.4505 179.748 99.5038 179.406 99.5038C179.097 99.5038 178.82 99.4452 178.574 99.3278C178.329 99.2105 178.137 99.0345 177.998 98.7998C177.86 98.5545 177.79 98.2505 177.79 97.8878V97.7278L178.11 97.7758C177.982 98.1918 177.764 98.5332 177.454 98.7998C177.145 99.0558 176.798 99.2478 176.414 99.3758C176.03 99.4932 175.652 99.5518 175.278 99.5518C174.809 99.5518 174.372 99.4718 173.966 99.3118C173.561 99.1518 173.236 98.9118 172.99 98.5918C172.756 98.2612 172.638 97.8558 172.638 97.3758C172.638 96.7785 172.836 96.2878 173.23 95.9038C173.636 95.5092 174.196 95.2425 174.91 95.1038L178.078 94.4798V95.5358L175.502 96.0638C174.98 96.1705 174.59 96.3198 174.334 96.5118C174.078 96.7038 173.95 96.9705 173.95 97.3118C173.95 97.6425 174.078 97.9145 174.334 98.1278C174.601 98.3305 174.974 98.4318 175.454 98.4318C175.764 98.4318 176.057 98.3945 176.334 98.3198C176.622 98.2345 176.878 98.1118 177.102 97.9518C177.326 97.7812 177.502 97.5732 177.63 97.3278C177.758 97.0718 177.822 96.7732 177.822 96.4318V94.2238ZM182.995 87.7118V97.3598C182.995 97.7652 183.069 98.0478 183.219 98.2078C183.368 98.3572 183.608 98.4318 183.939 98.4318C184.152 98.4318 184.328 98.4158 184.467 98.3838C184.605 98.3518 184.792 98.2932 185.027 98.2078L184.819 99.3278C184.648 99.4025 184.461 99.4558 184.259 99.4878C184.056 99.5305 183.848 99.5518 183.635 99.5518C182.984 99.5518 182.499 99.3758 182.179 99.0238C181.869 98.6718 181.715 98.1332 181.715 97.4078V87.7118H182.995ZM189.115 99.5518C188.336 99.5518 187.616 99.3865 186.955 99.0558C186.304 98.7252 185.803 98.2558 185.451 97.6478L186.539 96.8638C186.774 97.3545 187.115 97.7385 187.563 98.0158C188.022 98.2932 188.571 98.4318 189.211 98.4318C189.776 98.4318 190.219 98.3252 190.539 98.1118C190.859 97.8878 191.019 97.5998 191.019 97.2478C191.019 97.0238 190.944 96.8212 190.795 96.6398C190.656 96.4478 190.384 96.3092 189.979 96.2238L188.059 95.8238C187.28 95.6638 186.72 95.3972 186.379 95.0238C186.048 94.6505 185.883 94.1865 185.883 93.6318C185.883 93.1945 186.006 92.7945 186.251 92.4318C186.507 92.0692 186.864 91.7812 187.323 91.5678C187.792 91.3438 188.342 91.2318 188.971 91.2318C189.76 91.2318 190.427 91.3865 190.971 91.6958C191.515 92.0052 191.92 92.4425 192.187 93.0078L191.115 93.7118C190.934 93.2425 190.64 92.9012 190.235 92.6878C189.83 92.4638 189.408 92.3518 188.971 92.3518C188.587 92.3518 188.256 92.4052 187.979 92.5118C187.712 92.6185 187.504 92.7678 187.355 92.9598C187.216 93.1412 187.147 93.3492 187.147 93.5838C187.147 93.8185 187.227 94.0372 187.387 94.2398C187.547 94.4318 187.846 94.5705 188.283 94.6558L190.283 95.0718C191.03 95.2212 191.552 95.4665 191.851 95.8078C192.15 96.1492 192.299 96.5652 192.299 97.0558C192.299 97.5572 192.166 97.9998 191.899 98.3838C191.632 98.7572 191.259 99.0452 190.779 99.2478C190.299 99.4505 189.744 99.5518 189.115 99.5518Z" fill="#181B5E"/>
        <rect x="32" y="888.392" width="414" height="73" fill="white"/>
        <g opacity="0.6">
            <path d="M347.815 934.352C348.511 934.352 349.111 934.496 349.615 934.784C350.119 935.064 350.539 935.48 350.875 936.032L350.071 936.656C349.775 936.144 349.439 935.784 349.063 935.576C348.695 935.36 348.247 935.252 347.719 935.252C347.295 935.252 346.943 935.312 346.663 935.432C346.391 935.552 346.191 935.712 346.063 935.912C345.935 936.104 345.871 936.324 345.871 936.572C345.871 936.852 345.959 937.1 346.135 937.316C346.311 937.524 346.663 937.688 347.191 937.808L348.907 938.192C349.667 938.36 350.195 938.616 350.491 938.96C350.795 939.296 350.947 939.716 350.947 940.22C350.947 940.668 350.819 941.068 350.563 941.42C350.315 941.764 349.963 942.032 349.507 942.224C349.051 942.416 348.515 942.512 347.899 942.512C347.323 942.512 346.815 942.436 346.375 942.284C345.943 942.124 345.571 941.912 345.259 941.648C344.947 941.384 344.691 941.088 344.491 940.76L345.331 940.076C345.483 940.38 345.679 940.648 345.919 940.88C346.159 941.112 346.447 941.292 346.783 941.42C347.127 941.548 347.519 941.612 347.959 941.612C348.367 941.612 348.719 941.564 349.015 941.468C349.319 941.364 349.551 941.216 349.711 941.024C349.871 940.824 349.951 940.584 349.951 940.304C349.951 940.048 349.867 939.82 349.699 939.62C349.531 939.412 349.215 939.256 348.751 939.152L346.891 938.732C346.403 938.62 346.007 938.468 345.703 938.276C345.407 938.076 345.191 937.844 345.055 937.58C344.927 937.308 344.863 937.016 344.863 936.704C344.863 936.28 344.979 935.892 345.211 935.54C345.451 935.18 345.791 934.892 346.231 934.676C346.679 934.46 347.207 934.352 347.815 934.352ZM355.286 942.512C354.718 942.512 354.21 942.388 353.762 942.14C353.322 941.892 352.978 941.536 352.73 941.072C352.482 940.6 352.358 940.04 352.358 939.392C352.358 938.744 352.482 938.188 352.73 937.724C352.978 937.252 353.318 936.892 353.75 936.644C354.182 936.396 354.674 936.272 355.226 936.272C355.786 936.272 356.262 936.392 356.654 936.632C357.054 936.872 357.358 937.2 357.566 937.616C357.774 938.024 357.878 938.484 357.878 938.996C357.878 939.132 357.874 939.256 357.866 939.368C357.858 939.48 357.846 939.58 357.83 939.668H352.982V938.816H357.41L356.918 938.912C356.918 938.336 356.758 937.892 356.438 937.58C356.126 937.268 355.714 937.112 355.202 937.112C354.81 937.112 354.47 937.204 354.182 937.388C353.902 937.564 353.682 937.824 353.522 938.168C353.37 938.504 353.294 938.912 353.294 939.392C353.294 939.864 353.374 940.272 353.534 940.616C353.694 940.96 353.918 941.224 354.206 941.408C354.502 941.584 354.854 941.672 355.262 941.672C355.702 941.672 356.058 941.588 356.33 941.42C356.61 941.252 356.834 941.024 357.002 940.736L357.758 941.18C357.606 941.452 357.41 941.688 357.17 941.888C356.938 942.088 356.662 942.244 356.342 942.356C356.03 942.46 355.678 942.512 355.286 942.512ZM360.944 934.688V940.736C360.944 941.032 361.028 941.252 361.196 941.396C361.364 941.54 361.58 941.612 361.844 941.612C362.076 941.612 362.276 941.572 362.444 941.492C362.612 941.412 362.764 941.304 362.9 941.168L363.236 941.972C363.052 942.14 362.832 942.272 362.576 942.368C362.328 942.464 362.04 942.512 361.712 942.512C361.408 942.512 361.124 942.46 360.86 942.356C360.596 942.244 360.384 942.072 360.224 941.84C360.072 941.6 359.992 941.288 359.984 940.904V934.952L360.944 934.688ZM363.128 936.392V937.22H358.784V936.392H363.128ZM365.198 934.688V940.736C365.198 941.032 365.282 941.252 365.45 941.396C365.618 941.54 365.834 941.612 366.098 941.612C366.33 941.612 366.53 941.572 366.698 941.492C366.866 941.412 367.018 941.304 367.154 941.168L367.49 941.972C367.306 942.14 367.086 942.272 366.83 942.368C366.582 942.464 366.294 942.512 365.966 942.512C365.662 942.512 365.378 942.46 365.114 942.356C364.85 942.244 364.638 942.072 364.478 941.84C364.326 941.6 364.246 941.288 364.238 940.904V934.952L365.198 934.688ZM367.382 936.392V937.22H363.038V936.392H367.382ZM369.289 935.24C369.073 935.24 368.897 935.176 368.761 935.048C368.633 934.912 368.569 934.736 368.569 934.52C368.569 934.304 368.633 934.132 368.761 934.004C368.897 933.868 369.073 933.8 369.289 933.8C369.505 933.8 369.677 933.868 369.805 934.004C369.941 934.132 370.009 934.304 370.009 934.52C370.009 934.736 369.941 934.912 369.805 935.048C369.677 935.176 369.505 935.24 369.289 935.24ZM369.769 936.392V942.392H368.809V936.392H369.769ZM371.997 942.392V936.392H372.837L372.921 937.736L372.765 937.604C372.893 937.284 373.065 937.028 373.281 936.836C373.497 936.636 373.745 936.492 374.025 936.404C374.313 936.316 374.609 936.272 374.913 936.272C375.345 936.272 375.737 936.356 376.089 936.524C376.441 936.684 376.721 936.932 376.929 937.268C377.145 937.604 377.253 938.032 377.253 938.552V942.392H376.293V938.888C376.293 938.224 376.149 937.764 375.861 937.508C375.581 937.244 375.233 937.112 374.817 937.112C374.529 937.112 374.241 937.18 373.953 937.316C373.665 937.452 373.425 937.672 373.233 937.976C373.049 938.28 372.957 938.688 372.957 939.2V942.392H371.997ZM384.479 935.288L384.695 936.14C384.687 936.14 384.675 936.14 384.659 936.14C384.643 936.14 384.627 936.14 384.611 936.14C384.219 936.14 383.915 936.22 383.699 936.38C383.491 936.532 383.387 936.78 383.387 937.124L382.799 936.824C382.799 936.512 382.871 936.24 383.015 936.008C383.159 935.776 383.355 935.6 383.603 935.48C383.851 935.352 384.123 935.288 384.419 935.288C384.427 935.288 384.435 935.288 384.443 935.288C384.459 935.288 384.471 935.288 384.479 935.288ZM382.655 941.624C383.223 941.624 383.667 941.756 383.987 942.02C384.307 942.276 384.467 942.62 384.467 943.052C384.467 943.444 384.335 943.784 384.071 944.072C383.815 944.36 383.467 944.58 383.027 944.732C382.595 944.892 382.107 944.972 381.563 944.972C380.619 944.972 379.911 944.812 379.439 944.492C378.975 944.172 378.743 943.788 378.743 943.34C378.743 943.02 378.847 942.732 379.055 942.476C379.271 942.228 379.631 942.088 380.135 942.056L380.051 942.236C379.779 942.164 379.547 942.044 379.355 941.876C379.171 941.7 379.079 941.448 379.079 941.12C379.079 940.792 379.199 940.512 379.439 940.28C379.687 940.04 380.051 939.892 380.531 939.836L381.167 940.16H381.047C380.655 940.2 380.375 940.3 380.207 940.46C380.047 940.612 379.967 940.78 379.967 940.964C379.967 941.188 380.047 941.356 380.207 941.468C380.375 941.572 380.607 941.624 380.903 941.624H382.655ZM381.551 944.168C382.015 944.168 382.395 944.12 382.691 944.024C382.995 943.928 383.219 943.804 383.363 943.652C383.507 943.5 383.579 943.336 383.579 943.16C383.579 942.944 383.491 942.772 383.315 942.644C383.147 942.516 382.839 942.452 382.391 942.452H380.543C380.287 942.452 380.071 942.516 379.895 942.644C379.719 942.78 379.631 942.964 379.631 943.196C379.631 943.492 379.799 943.728 380.135 943.904C380.479 944.08 380.951 944.168 381.551 944.168ZM381.467 936.272C381.947 936.272 382.371 936.36 382.739 936.536C383.115 936.704 383.407 936.94 383.615 937.244C383.823 937.548 383.927 937.9 383.927 938.3C383.927 938.692 383.823 939.044 383.615 939.356C383.407 939.66 383.115 939.9 382.739 940.076C382.371 940.244 381.947 940.328 381.467 940.328C380.675 940.328 380.067 940.14 379.643 939.764C379.219 939.38 379.007 938.892 379.007 938.3C379.007 937.9 379.111 937.548 379.319 937.244C379.535 936.94 379.827 936.704 380.195 936.536C380.563 936.36 380.987 936.272 381.467 936.272ZM381.467 937.052C381.051 937.052 380.703 937.168 380.423 937.4C380.143 937.624 380.003 937.924 380.003 938.3C380.003 938.668 380.143 938.968 380.423 939.2C380.703 939.432 381.051 939.548 381.467 939.548C381.883 939.548 382.231 939.432 382.511 939.2C382.791 938.968 382.931 938.668 382.931 938.3C382.931 937.924 382.791 937.624 382.511 937.4C382.231 937.168 381.883 937.052 381.467 937.052ZM387.973 942.512C387.389 942.512 386.849 942.388 386.353 942.14C385.865 941.892 385.489 941.54 385.225 941.084L386.041 940.496C386.217 940.864 386.473 941.152 386.809 941.36C387.153 941.568 387.565 941.672 388.045 941.672C388.469 941.672 388.801 941.592 389.041 941.432C389.281 941.264 389.401 941.048 389.401 940.784C389.401 940.616 389.345 940.464 389.233 940.328C389.129 940.184 388.925 940.08 388.621 940.016L387.181 939.716C386.597 939.596 386.177 939.396 385.921 939.116C385.673 938.836 385.549 938.488 385.549 938.072C385.549 937.744 385.641 937.444 385.825 937.172C386.017 936.9 386.285 936.684 386.629 936.524C386.981 936.356 387.393 936.272 387.865 936.272C388.457 936.272 388.957 936.388 389.365 936.62C389.773 936.852 390.077 937.18 390.277 937.604L389.473 938.132C389.337 937.78 389.117 937.524 388.813 937.364C388.509 937.196 388.193 937.112 387.865 937.112C387.577 937.112 387.329 937.152 387.121 937.232C386.921 937.312 386.765 937.424 386.653 937.568C386.549 937.704 386.497 937.86 386.497 938.036C386.497 938.212 386.557 938.376 386.677 938.528C386.797 938.672 387.021 938.776 387.349 938.84L388.849 939.152C389.409 939.264 389.801 939.448 390.025 939.704C390.249 939.96 390.361 940.272 390.361 940.64C390.361 941.016 390.261 941.348 390.061 941.636C389.861 941.916 389.581 942.132 389.221 942.284C388.861 942.436 388.445 942.512 387.973 942.512Z" fill="#6F6F6F"/>
            <path fill-rule="evenodd" clip-rule="evenodd" d="M356.5 908.893C356.5 906.684 358.291 904.893 360.5 904.893H375.5C377.709 904.893 379.5 906.684 379.5 908.893V923.893C379.5 926.102 377.709 927.893 375.5 927.893H360.5C358.291 927.893 356.5 926.102 356.5 923.893V908.893Z" stroke="#181B5E" stroke-linecap="round" stroke-linejoin="round"/>
            <path fill-rule="evenodd" clip-rule="evenodd" d="M368 919.393C369.381 919.393 370.5 918.274 370.5 916.893C370.5 915.512 369.381 914.393 368 914.393C366.619 914.393 365.5 915.512 365.5 916.893C365.5 918.274 366.619 919.393 368 919.393Z" stroke="#181B5E" stroke-linecap="round" stroke-linejoin="round"/>
            <path fill-rule="evenodd" clip-rule="evenodd" d="M373.386 915.804L374.071 915.404C374.549 915.128 374.713 914.516 374.437 914.038L373.687 912.738C373.411 912.26 372.799 912.096 372.321 912.372L371.637 912.766C371.086 912.28 370.445 911.909 369.749 911.674V910.892C369.749 910.34 369.301 909.892 368.749 909.892H367.249C366.697 909.892 366.249 910.34 366.249 910.892V911.692C365.554 911.922 364.913 912.29 364.364 912.773L363.679 912.373C363.201 912.097 362.589 912.261 362.313 912.739L361.563 914.039C361.287 914.517 361.45 915.128 361.928 915.405L362.612 915.805C362.465 916.523 362.465 917.264 362.612 917.983L361.927 918.378C361.449 918.654 361.285 919.266 361.561 919.744L362.311 921.044C362.587 921.522 363.199 921.686 363.677 921.41L364.361 921.015C364.911 921.5 365.552 921.872 366.247 922.107V922.892C366.247 923.444 366.695 923.892 367.247 923.892H368.747C369.299 923.892 369.747 923.444 369.747 922.892V922.099C370.442 921.867 371.084 921.497 371.633 921.012L372.319 921.412C372.797 921.688 373.409 921.524 373.685 921.046L374.435 919.746C374.711 919.268 374.547 918.656 374.069 918.38L373.385 917.986C373.533 917.266 373.533 916.524 373.386 915.804Z" stroke="#181B5E" stroke-linecap="round" stroke-linejoin="round"/>
        </g>
        <path d="M85.346 940.364C85.178 940.812 84.938 941.2 84.626 941.528C84.314 941.848 83.946 942.092 83.522 942.26C83.106 942.428 82.65 942.512 82.154 942.512C81.402 942.512 80.75 942.348 80.198 942.02C79.654 941.684 79.23 941.212 78.926 940.604C78.63 939.996 78.482 939.272 78.482 938.432C78.482 937.592 78.63 936.868 78.926 936.26C79.23 935.652 79.654 935.184 80.198 934.856C80.75 934.52 81.394 934.352 82.13 934.352C82.642 934.352 83.098 934.424 83.498 934.568C83.898 934.704 84.238 934.912 84.518 935.192C84.806 935.464 85.034 935.8 85.202 936.2L84.254 936.644C84.078 936.188 83.822 935.844 83.486 935.612C83.158 935.372 82.73 935.252 82.202 935.252C81.666 935.252 81.194 935.38 80.786 935.636C80.378 935.884 80.058 936.244 79.826 936.716C79.602 937.188 79.49 937.76 79.49 938.432C79.49 939.096 79.598 939.668 79.814 940.148C80.03 940.62 80.338 940.984 80.738 941.24C81.138 941.488 81.61 941.612 82.154 941.612C82.682 941.612 83.142 941.48 83.534 941.216C83.926 940.944 84.21 940.54 84.386 940.004L85.346 940.364ZM87.0086 942.392V936.392H87.7886L87.9206 937.376C88.0886 937.008 88.3326 936.732 88.6526 936.548C88.9806 936.364 89.3766 936.272 89.8406 936.272C89.9446 936.272 90.0566 936.28 90.1766 936.296C90.3046 936.312 90.4126 936.344 90.5006 936.392L90.3326 937.268C90.2446 937.236 90.1486 937.212 90.0446 937.196C89.9406 937.18 89.7926 937.172 89.6006 937.172C89.3526 937.172 89.1006 937.244 88.8446 937.388C88.5966 937.532 88.3886 937.752 88.2206 938.048C88.0526 938.336 87.9686 938.704 87.9686 939.152V942.392H87.0086ZM94.2275 942.512C93.6595 942.512 93.1515 942.388 92.7035 942.14C92.2635 941.892 91.9195 941.536 91.6715 941.072C91.4235 940.6 91.2995 940.04 91.2995 939.392C91.2995 938.744 91.4235 938.188 91.6715 937.724C91.9195 937.252 92.2595 936.892 92.6915 936.644C93.1235 936.396 93.6155 936.272 94.1675 936.272C94.7275 936.272 95.2035 936.392 95.5955 936.632C95.9955 936.872 96.2995 937.2 96.5075 937.616C96.7155 938.024 96.8195 938.484 96.8195 938.996C96.8195 939.132 96.8155 939.256 96.8075 939.368C96.7995 939.48 96.7875 939.58 96.7715 939.668H91.9235V938.816H96.3515L95.8595 938.912C95.8595 938.336 95.6995 937.892 95.3795 937.58C95.0675 937.268 94.6555 937.112 94.1435 937.112C93.7515 937.112 93.4115 937.204 93.1235 937.388C92.8435 937.564 92.6235 937.824 92.4635 938.168C92.3115 938.504 92.2355 938.912 92.2355 939.392C92.2355 939.864 92.3155 940.272 92.4755 940.616C92.6355 940.96 92.8595 941.224 93.1475 941.408C93.4435 941.584 93.7955 941.672 94.2035 941.672C94.6435 941.672 94.9995 941.588 95.2715 941.42C95.5515 941.252 95.7755 941.024 95.9435 940.736L96.6995 941.18C96.5475 941.452 96.3515 941.688 96.1115 941.888C95.8795 942.088 95.6035 942.244 95.2835 942.356C94.9715 942.46 94.6195 942.512 94.2275 942.512ZM100.985 942.512C100.489 942.512 100.033 942.388 99.6173 942.14C99.2013 941.892 98.8693 941.536 98.6213 941.072C98.3733 940.6 98.2493 940.04 98.2493 939.392C98.2493 938.728 98.3813 938.164 98.6453 937.7C98.9093 937.236 99.2573 936.884 99.6893 936.644C100.121 936.396 100.585 936.272 101.081 936.272C101.577 936.272 102.005 936.4 102.365 936.656C102.733 936.912 102.977 937.252 103.097 937.676L102.977 937.76V933.632H103.937V942.392H103.097L103.013 940.94L103.145 940.868C103.089 941.22 102.953 941.52 102.737 941.768C102.529 942.008 102.269 942.192 101.957 942.32C101.653 942.448 101.329 942.512 100.985 942.512ZM101.081 941.672C101.465 941.672 101.797 941.576 102.077 941.384C102.365 941.192 102.585 940.92 102.737 940.568C102.897 940.208 102.977 939.788 102.977 939.308C102.977 938.852 102.897 938.46 102.737 938.132C102.585 937.804 102.369 937.552 102.089 937.376C101.817 937.2 101.497 937.112 101.129 937.112C100.521 937.112 100.049 937.32 99.7133 937.736C99.3773 938.152 99.2093 938.704 99.2093 939.392C99.2093 940.08 99.3733 940.632 99.7013 941.048C100.029 941.464 100.489 941.672 101.081 941.672ZM108.677 942.512C108.109 942.512 107.601 942.388 107.153 942.14C106.713 941.892 106.369 941.536 106.121 941.072C105.873 940.6 105.749 940.04 105.749 939.392C105.749 938.744 105.873 938.188 106.121 937.724C106.369 937.252 106.709 936.892 107.141 936.644C107.573 936.396 108.065 936.272 108.617 936.272C109.177 936.272 109.653 936.392 110.045 936.632C110.445 936.872 110.749 937.2 110.957 937.616C111.165 938.024 111.269 938.484 111.269 938.996C111.269 939.132 111.265 939.256 111.257 939.368C111.249 939.48 111.237 939.58 111.221 939.668H106.373V938.816H110.801L110.309 938.912C110.309 938.336 110.149 937.892 109.829 937.58C109.517 937.268 109.105 937.112 108.593 937.112C108.201 937.112 107.861 937.204 107.573 937.388C107.293 937.564 107.073 937.824 106.913 938.168C106.761 938.504 106.685 938.912 106.685 939.392C106.685 939.864 106.765 940.272 106.925 940.616C107.085 940.96 107.309 941.224 107.597 941.408C107.893 941.584 108.245 941.672 108.653 941.672C109.093 941.672 109.449 941.588 109.721 941.42C110.001 941.252 110.225 941.024 110.393 940.736L111.149 941.18C110.997 941.452 110.801 941.688 110.561 941.888C110.329 942.088 110.053 942.244 109.733 942.356C109.421 942.46 109.069 942.512 108.677 942.512ZM113.095 942.392V936.392H113.935L114.019 937.736L113.863 937.604C113.991 937.284 114.163 937.028 114.379 936.836C114.595 936.636 114.843 936.492 115.123 936.404C115.411 936.316 115.707 936.272 116.011 936.272C116.443 936.272 116.835 936.356 117.187 936.524C117.539 936.684 117.819 936.932 118.027 937.268C118.243 937.604 118.351 938.032 118.351 938.552V942.392H117.391V938.888C117.391 938.224 117.247 937.764 116.959 937.508C116.679 937.244 116.331 937.112 115.915 937.112C115.627 937.112 115.339 937.18 115.051 937.316C114.763 937.452 114.523 937.672 114.331 937.976C114.147 938.28 114.055 938.688 114.055 939.2V942.392H113.095ZM121.858 934.688V940.736C121.858 941.032 121.942 941.252 122.11 941.396C122.278 941.54 122.494 941.612 122.758 941.612C122.99 941.612 123.19 941.572 123.358 941.492C123.526 941.412 123.678 941.304 123.814 941.168L124.15 941.972C123.966 942.14 123.746 942.272 123.49 942.368C123.242 942.464 122.954 942.512 122.626 942.512C122.322 942.512 122.038 942.46 121.774 942.356C121.51 942.244 121.298 942.072 121.138 941.84C120.986 941.6 120.906 941.288 120.898 940.904V934.952L121.858 934.688ZM124.042 936.392V937.22H119.698V936.392H124.042ZM125.95 935.24C125.734 935.24 125.558 935.176 125.422 935.048C125.294 934.912 125.23 934.736 125.23 934.52C125.23 934.304 125.294 934.132 125.422 934.004C125.558 933.868 125.734 933.8 125.95 933.8C126.166 933.8 126.338 933.868 126.466 934.004C126.602 934.132 126.67 934.304 126.67 934.52C126.67 934.736 126.602 934.912 126.466 935.048C126.338 935.176 126.166 935.24 125.95 935.24ZM126.43 936.392V942.392H125.47V936.392H126.43ZM132.161 938.516C132.161 938.068 132.041 937.724 131.801 937.484C131.561 937.236 131.221 937.112 130.781 937.112C130.365 937.112 130.013 937.204 129.725 937.388C129.437 937.564 129.225 937.852 129.089 938.252L128.309 937.772C128.469 937.324 128.765 936.964 129.197 936.692C129.629 936.412 130.165 936.272 130.805 936.272C131.237 936.272 131.629 936.348 131.981 936.5C132.333 936.644 132.609 936.868 132.809 937.172C133.017 937.468 133.121 937.852 133.121 938.324V941.228C133.121 941.516 133.273 941.66 133.577 941.66C133.729 941.66 133.877 941.64 134.021 941.6L133.973 942.356C133.813 942.436 133.605 942.476 133.349 942.476C133.117 942.476 132.909 942.432 132.725 942.344C132.541 942.256 132.397 942.124 132.293 941.948C132.189 941.764 132.137 941.536 132.137 941.264V941.144L132.377 941.18C132.281 941.492 132.117 941.748 131.885 941.948C131.653 942.14 131.393 942.284 131.105 942.38C130.817 942.468 130.533 942.512 130.253 942.512C129.901 942.512 129.573 942.452 129.269 942.332C128.965 942.212 128.721 942.032 128.537 941.792C128.361 941.544 128.273 941.24 128.273 940.88C128.273 940.432 128.421 940.064 128.717 939.776C129.021 939.48 129.441 939.28 129.977 939.176L132.353 938.708V939.5L130.421 939.896C130.029 939.976 129.737 940.088 129.545 940.232C129.353 940.376 129.257 940.576 129.257 940.832C129.257 941.08 129.353 941.284 129.545 941.444C129.745 941.596 130.025 941.672 130.385 941.672C130.617 941.672 130.837 941.644 131.045 941.588C131.261 941.524 131.453 941.432 131.621 941.312C131.789 941.184 131.921 941.028 132.017 940.844C132.113 940.652 132.161 940.428 132.161 940.172V938.516ZM136.366 933.632V940.868C136.366 941.172 136.422 941.384 136.534 941.504C136.646 941.616 136.826 941.672 137.074 941.672C137.234 941.672 137.366 941.66 137.47 941.636C137.574 941.612 137.714 941.568 137.89 941.504L137.734 942.344C137.606 942.4 137.466 942.44 137.314 942.464C137.162 942.496 137.006 942.512 136.846 942.512C136.358 942.512 135.994 942.38 135.754 942.116C135.522 941.852 135.406 941.448 135.406 940.904V933.632H136.366ZM141.282 942.512C140.698 942.512 140.158 942.388 139.662 942.14C139.174 941.892 138.798 941.54 138.534 941.084L139.35 940.496C139.526 940.864 139.782 941.152 140.118 941.36C140.462 941.568 140.874 941.672 141.354 941.672C141.778 941.672 142.11 941.592 142.35 941.432C142.59 941.264 142.71 941.048 142.71 940.784C142.71 940.616 142.654 940.464 142.542 940.328C142.438 940.184 142.234 940.08 141.93 940.016L140.49 939.716C139.906 939.596 139.486 939.396 139.23 939.116C138.982 938.836 138.858 938.488 138.858 938.072C138.858 937.744 138.95 937.444 139.134 937.172C139.326 936.9 139.594 936.684 139.938 936.524C140.29 936.356 140.702 936.272 141.174 936.272C141.766 936.272 142.266 936.388 142.674 936.62C143.082 936.852 143.386 937.18 143.586 937.604L142.782 938.132C142.646 937.78 142.426 937.524 142.122 937.364C141.818 937.196 141.502 937.112 141.174 937.112C140.886 937.112 140.638 937.152 140.43 937.232C140.23 937.312 140.074 937.424 139.962 937.568C139.858 937.704 139.806 937.86 139.806 938.036C139.806 938.212 139.866 938.376 139.986 938.528C140.106 938.672 140.33 938.776 140.658 938.84L142.158 939.152C142.718 939.264 143.11 939.448 143.334 939.704C143.558 939.96 143.67 940.272 143.67 940.64C143.67 941.016 143.57 941.348 143.37 941.636C143.17 941.916 142.89 942.132 142.53 942.284C142.17 942.436 141.754 942.512 141.282 942.512Z" fill="#6F6F6F"/>
        <path d="M99.5 911.892H122.5" stroke="#181B5E" stroke-linecap="round" stroke-linejoin="round"/>
        <path d="M113.5 907.892H121.5C122.052 907.892 122.5 908.34 122.5 908.892V923.892C122.5 924.444 122.052 924.892 121.5 924.892H100.5C99.9477 924.892 99.5 924.444 99.5 923.892V908.892C99.5 908.34 99.9477 907.892 100.5 907.892H108.5" stroke="#181B5E" stroke-linecap="round" stroke-linejoin="round"/>
        <path d="M114 916.892H120" stroke="#181B5E" stroke-linecap="round" stroke-linejoin="round"/>
        <path d="M114 919.892H117.5" stroke="#181B5E" stroke-linecap="round" stroke-linejoin="round"/>
        <path d="M111.963 922.392C111.555 921.762 110.202 921.304 108.508 920.677C108.03 920.499 108.108 919.251 108.32 919.018C109.002 918.279 109.336 917.284 109.238 916.284C109.297 915.66 109.085 915.042 108.657 914.584C108.23 914.127 107.626 913.875 107 913.892C106.374 913.875 105.771 914.127 105.343 914.584C104.915 915.042 104.703 915.66 104.762 916.284C104.664 917.284 104.998 918.279 105.68 919.018C105.892 919.251 105.97 920.499 105.492 920.677C103.8 921.304 102.445 921.762 102.037 922.392" stroke="#181B5E" stroke-linecap="round" stroke-linejoin="round"/>
        <path fill-rule="evenodd" clip-rule="evenodd" d="M113.5 909.392C113.5 909.668 113.276 909.892 113 909.892H109C108.724 909.892 108.5 909.668 108.5 909.392V906.392C108.5 905.011 109.619 903.892 111 903.892C112.381 903.892 113.5 905.011 113.5 906.392V909.392Z" stroke="#181B5E" stroke-linecap="round" stroke-linejoin="round"/>
        <g opacity="0.6">
            <path d="M218.389 935.203C219.085 935.203 219.685 935.347 220.189 935.635C220.693 935.915 221.113 936.331 221.449 936.883L220.645 937.507C220.349 936.995 220.013 936.635 219.637 936.427C219.269 936.211 218.821 936.103 218.293 936.103C217.869 936.103 217.517 936.163 217.237 936.283C216.965 936.403 216.765 936.563 216.637 936.763C216.509 936.955 216.445 937.175 216.445 937.423C216.445 937.703 216.533 937.951 216.709 938.167C216.885 938.375 217.237 938.539 217.765 938.659L219.481 939.043C220.241 939.211 220.769 939.467 221.065 939.811C221.369 940.147 221.521 940.567 221.521 941.071C221.521 941.519 221.393 941.919 221.137 942.271C220.889 942.615 220.537 942.883 220.081 943.075C219.625 943.267 219.089 943.363 218.473 943.363C217.897 943.363 217.389 943.287 216.949 943.135C216.517 942.975 216.145 942.763 215.833 942.499C215.521 942.235 215.265 941.939 215.065 941.611L215.905 940.927C216.057 941.231 216.253 941.499 216.493 941.731C216.733 941.963 217.021 942.143 217.357 942.271C217.701 942.399 218.093 942.463 218.533 942.463C218.941 942.463 219.293 942.415 219.589 942.319C219.893 942.215 220.125 942.067 220.285 941.875C220.445 941.675 220.525 941.435 220.525 941.155C220.525 940.899 220.441 940.671 220.273 940.471C220.105 940.263 219.789 940.107 219.325 940.003L217.465 939.583C216.977 939.471 216.581 939.319 216.277 939.127C215.981 938.927 215.765 938.695 215.629 938.431C215.501 938.159 215.437 937.867 215.437 937.555C215.437 937.131 215.553 936.743 215.785 936.391C216.025 936.031 216.365 935.743 216.805 935.527C217.253 935.311 217.781 935.203 218.389 935.203ZM225.86 943.363C225.292 943.363 224.784 943.239 224.336 942.991C223.896 942.743 223.552 942.387 223.304 941.923C223.056 941.451 222.932 940.891 222.932 940.243C222.932 939.595 223.056 939.039 223.304 938.575C223.552 938.103 223.892 937.743 224.324 937.495C224.756 937.247 225.248 937.123 225.8 937.123C226.36 937.123 226.836 937.243 227.228 937.483C227.628 937.723 227.932 938.051 228.14 938.467C228.348 938.875 228.452 939.335 228.452 939.847C228.452 939.983 228.448 940.107 228.44 940.219C228.432 940.331 228.42 940.431 228.404 940.519H223.556V939.667H227.984L227.492 939.763C227.492 939.187 227.332 938.743 227.012 938.431C226.7 938.119 226.288 937.963 225.776 937.963C225.384 937.963 225.044 938.055 224.756 938.239C224.476 938.415 224.256 938.675 224.096 939.019C223.944 939.355 223.868 939.763 223.868 940.243C223.868 940.715 223.948 941.123 224.108 941.467C224.268 941.811 224.492 942.075 224.78 942.259C225.076 942.435 225.428 942.523 225.836 942.523C226.276 942.523 226.632 942.439 226.904 942.271C227.184 942.103 227.408 941.875 227.576 941.587L228.332 942.031C228.18 942.303 227.984 942.539 227.744 942.739C227.512 942.939 227.236 943.095 226.916 943.207C226.604 943.311 226.252 943.363 225.86 943.363ZM230.278 943.243V937.243H231.058L231.19 938.227C231.358 937.859 231.602 937.583 231.922 937.399C232.25 937.215 232.646 937.123 233.11 937.123C233.214 937.123 233.326 937.131 233.446 937.147C233.574 937.163 233.682 937.195 233.77 937.243L233.602 938.119C233.514 938.087 233.418 938.063 233.314 938.047C233.21 938.031 233.062 938.023 232.87 938.023C232.622 938.023 232.37 938.095 232.114 938.239C231.866 938.383 231.658 938.603 231.49 938.899C231.322 939.187 231.238 939.555 231.238 940.003V943.243H230.278ZM239.149 937.243H240.157L237.661 943.243H236.701L234.205 937.243H235.297L237.193 942.271L239.149 937.243ZM241.891 936.091C241.675 936.091 241.499 936.027 241.363 935.899C241.235 935.763 241.171 935.587 241.171 935.371C241.171 935.155 241.235 934.983 241.363 934.855C241.499 934.719 241.675 934.651 241.891 934.651C242.107 934.651 242.279 934.719 242.407 934.855C242.543 934.983 242.611 935.155 242.611 935.371C242.611 935.587 242.543 935.763 242.407 935.899C242.279 936.027 242.107 936.091 241.891 936.091ZM242.371 937.243V943.243H241.411V937.243H242.371ZM247.082 937.123C247.498 937.123 247.862 937.187 248.174 937.315C248.494 937.443 248.77 937.627 249.002 937.867C249.234 938.107 249.422 938.391 249.566 938.719L248.654 939.151C248.526 938.767 248.33 938.475 248.066 938.275C247.81 938.067 247.474 937.963 247.058 937.963C246.658 937.963 246.314 938.055 246.026 938.239C245.738 938.415 245.518 938.675 245.366 939.019C245.214 939.355 245.138 939.763 245.138 940.243C245.138 940.715 245.214 941.123 245.366 941.467C245.518 941.811 245.738 942.075 246.026 942.259C246.314 942.435 246.658 942.523 247.058 942.523C247.37 942.523 247.638 942.475 247.862 942.379C248.094 942.283 248.282 942.143 248.426 941.959C248.578 941.775 248.682 941.551 248.738 941.287L249.626 941.599C249.49 941.967 249.302 942.283 249.062 942.547C248.83 942.811 248.546 943.015 248.21 943.159C247.882 943.295 247.506 943.363 247.082 943.363C246.522 943.363 246.022 943.239 245.582 942.991C245.142 942.743 244.798 942.387 244.55 941.923C244.302 941.451 244.178 940.891 244.178 940.243C244.178 939.595 244.302 939.039 244.55 938.575C244.798 938.103 245.142 937.743 245.582 937.495C246.022 937.247 246.522 937.123 247.082 937.123ZM253.821 943.363C253.253 943.363 252.745 943.239 252.297 942.991C251.857 942.743 251.513 942.387 251.265 941.923C251.017 941.451 250.893 940.891 250.893 940.243C250.893 939.595 251.017 939.039 251.265 938.575C251.513 938.103 251.853 937.743 252.285 937.495C252.717 937.247 253.209 937.123 253.761 937.123C254.321 937.123 254.797 937.243 255.189 937.483C255.589 937.723 255.893 938.051 256.101 938.467C256.309 938.875 256.413 939.335 256.413 939.847C256.413 939.983 256.409 940.107 256.401 940.219C256.393 940.331 256.381 940.431 256.365 940.519H251.517V939.667H255.945L255.453 939.763C255.453 939.187 255.293 938.743 254.973 938.431C254.661 938.119 254.249 937.963 253.737 937.963C253.345 937.963 253.005 938.055 252.717 938.239C252.437 938.415 252.217 938.675 252.057 939.019C251.905 939.355 251.829 939.763 251.829 940.243C251.829 940.715 251.909 941.123 252.069 941.467C252.229 941.811 252.453 942.075 252.741 942.259C253.037 942.435 253.389 942.523 253.797 942.523C254.237 942.523 254.593 942.439 254.865 942.271C255.145 942.103 255.369 941.875 255.537 941.587L256.293 942.031C256.141 942.303 255.945 942.539 255.705 942.739C255.473 942.939 255.197 943.095 254.877 943.207C254.565 943.311 254.213 943.363 253.821 943.363ZM260.399 943.363C259.815 943.363 259.275 943.239 258.779 942.991C258.291 942.743 257.915 942.391 257.651 941.935L258.467 941.347C258.643 941.715 258.899 942.003 259.235 942.211C259.579 942.419 259.991 942.523 260.471 942.523C260.895 942.523 261.227 942.443 261.467 942.283C261.707 942.115 261.827 941.899 261.827 941.635C261.827 941.467 261.771 941.315 261.659 941.179C261.555 941.035 261.351 940.931 261.047 940.867L259.607 940.567C259.023 940.447 258.603 940.247 258.347 939.967C258.099 939.687 257.975 939.339 257.975 938.923C257.975 938.595 258.067 938.295 258.251 938.023C258.443 937.751 258.711 937.535 259.055 937.375C259.407 937.207 259.819 937.123 260.291 937.123C260.883 937.123 261.383 937.239 261.791 937.471C262.199 937.703 262.503 938.031 262.703 938.455L261.899 938.983C261.763 938.631 261.543 938.375 261.239 938.215C260.935 938.047 260.619 937.963 260.291 937.963C260.003 937.963 259.755 938.003 259.547 938.083C259.347 938.163 259.191 938.275 259.079 938.419C258.975 938.555 258.923 938.711 258.923 938.887C258.923 939.063 258.983 939.227 259.103 939.379C259.223 939.523 259.447 939.627 259.775 939.691L261.275 940.003C261.835 940.115 262.227 940.299 262.451 940.555C262.675 940.811 262.787 941.123 262.787 941.491C262.787 941.867 262.687 942.199 262.487 942.487C262.287 942.767 262.007 942.983 261.647 943.135C261.287 943.287 260.871 943.363 260.399 943.363Z" fill="#6F6F6F"/>
            <path d="M236.5 924.892H229.5C228.395 924.892 227.5 923.996 227.5 922.892V907.892C227.5 906.787 228.395 905.892 229.5 905.892H248.5C249.605 905.892 250.5 906.787 250.5 907.892V914.892" stroke="#181B5E" stroke-linecap="round" stroke-linejoin="round"/>
            <path d="M227.5 910.892H250.5" stroke="#181B5E" stroke-linecap="round" stroke-linejoin="round"/>
            <path d="M231 908.142C231.138 908.142 231.25 908.254 231.25 908.392C231.25 908.53 231.138 908.642 231 908.642C230.862 908.642 230.75 908.53 230.75 908.392C230.75 908.254 230.862 908.142 231 908.142" stroke="#181B5E" stroke-linecap="round" stroke-linejoin="round"/>
            <path d="M234 908.142C234.138 908.142 234.25 908.254 234.25 908.392C234.25 908.53 234.138 908.642 234 908.642C233.862 908.642 233.75 908.53 233.75 908.392C233.75 908.254 233.862 908.142 234 908.142" stroke="#181B5E" stroke-linecap="round" stroke-linejoin="round"/>
            <path d="M237 908.142C237.138 908.142 237.25 908.254 237.25 908.392C237.25 908.53 237.138 908.642 237 908.642C236.862 908.642 236.75 908.53 236.75 908.392C236.75 908.254 236.862 908.142 237 908.142" stroke="#181B5E" stroke-linecap="round" stroke-linejoin="round"/>
            <path d="M238 919.892H231C230.724 919.892 230.5 919.668 230.5 919.392V916.392C230.5 916.116 230.724 915.892 231 915.892H245.5" stroke="#181B5E" stroke-linecap="round" stroke-linejoin="round"/>
            <path fill-rule="evenodd" clip-rule="evenodd" d="M243.405 925.623C242.917 926.111 242.125 926.111 241.637 925.623C241.149 925.135 241.149 924.343 241.637 923.855C242.125 923.367 242.917 923.367 243.405 923.855C243.893 924.343 243.893 925.134 243.405 925.623Z" stroke="#181B5E" stroke-linecap="round" stroke-linejoin="round"/>
            <path fill-rule="evenodd" clip-rule="evenodd" d="M246.048 923.334L250.5 918.892V916.892H248.5L243.926 921.213C242.163 920.466 240.118 921.073 239.049 922.661C237.979 924.248 238.184 926.372 239.538 927.725C240.892 929.078 243.015 929.283 244.603 928.212C246.19 927.141 246.796 925.096 246.048 923.334V923.334Z" stroke="#181B5E" stroke-linecap="round" stroke-linejoin="round"/>
        </g>
        <path d="M47 89.3918H70" stroke="#181B5E" stroke-linecap="round" stroke-linejoin="round"/>
        <path d="M61 85.3918H69C69.5523 85.3918 70 85.8396 70 86.3918V101.392C70 101.944 69.5523 102.392 69 102.392H48C47.4477 102.392 47 101.944 47 101.392V86.3918C47 85.8396 47.4477 85.3918 48 85.3918H56" stroke="#181B5E" stroke-linecap="round" stroke-linejoin="round"/>
        <path d="M61.5 94.3918H67.5" stroke="#181B5E" stroke-linecap="round" stroke-linejoin="round"/>
        <path d="M61.5 97.3918H65" stroke="#181B5E" stroke-linecap="round" stroke-linejoin="round"/>
        <path d="M59.4631 99.8919C59.0551 99.2619 57.7021 98.8039 56.0081 98.1769C55.5301 97.9989 55.6081 96.7509 55.8201 96.5179C56.5021 95.7792 56.8361 94.7844 56.7381 93.7839C56.7967 93.1603 56.5853 92.5415 56.1574 92.0842C55.7295 91.6268 55.1262 91.3748 54.5001 91.3919C53.874 91.3748 53.2707 91.6268 52.8428 92.0842C52.4149 92.5415 52.2035 93.1603 52.2621 93.7839C52.1641 94.7844 52.4981 95.7792 53.1801 96.5179C53.3921 96.7509 53.4701 97.9989 52.9921 98.1769C51.3001 98.8039 49.9451 99.2619 49.5371 99.8919" stroke="#181B5E" stroke-linecap="round" stroke-linejoin="round"/>
        <path fill-rule="evenodd" clip-rule="evenodd" d="M61 86.8918C61 87.168 60.7761 87.3918 60.5 87.3918H56.5C56.2239 87.3918 56 87.168 56 86.8918V83.8918C56 82.5111 57.1193 81.3918 58.5 81.3918C59.8807 81.3918 61 82.5111 61 83.8918V86.8918Z" stroke="#181B5E" stroke-linecap="round" stroke-linejoin="round"/>
        <g filter="url(#filter1_d)">
            <rect x="303" y="822.392" width="118.277" height="44.1225" rx="22.0612" fill="#181B5E"/>
        </g>
        <path d="M367.84 840.352C368.536 840.352 369.136 840.496 369.64 840.784C370.144 841.064 370.564 841.48 370.9 842.032L370.096 842.656C369.8 842.144 369.464 841.784 369.088 841.576C368.72 841.36 368.272 841.252 367.744 841.252C367.32 841.252 366.968 841.312 366.688 841.432C366.416 841.552 366.216 841.712 366.088 841.912C365.96 842.104 365.896 842.324 365.896 842.572C365.896 842.852 365.984 843.1 366.16 843.316C366.336 843.524 366.688 843.688 367.216 843.808L368.932 844.192C369.692 844.36 370.22 844.616 370.516 844.96C370.82 845.296 370.972 845.716 370.972 846.22C370.972 846.668 370.844 847.068 370.588 847.42C370.34 847.764 369.988 848.032 369.532 848.224C369.076 848.416 368.54 848.512 367.924 848.512C367.348 848.512 366.84 848.436 366.4 848.284C365.968 848.124 365.596 847.912 365.284 847.648C364.972 847.384 364.716 847.088 364.516 846.76L365.356 846.076C365.508 846.38 365.704 846.648 365.944 846.88C366.184 847.112 366.472 847.292 366.808 847.42C367.152 847.548 367.544 847.612 367.984 847.612C368.392 847.612 368.744 847.564 369.04 847.468C369.344 847.364 369.576 847.216 369.736 847.024C369.896 846.824 369.976 846.584 369.976 846.304C369.976 846.048 369.892 845.82 369.724 845.62C369.556 845.412 369.24 845.256 368.776 845.152L366.916 844.732C366.428 844.62 366.032 844.468 365.728 844.276C365.432 844.076 365.216 843.844 365.08 843.58C364.952 843.308 364.888 843.016 364.888 842.704C364.888 842.28 365.004 841.892 365.236 841.54C365.476 841.18 365.816 840.892 366.256 840.676C366.704 840.46 367.232 840.352 367.84 840.352ZM375.288 842.272C375.704 842.272 376.068 842.336 376.38 842.464C376.7 842.592 376.976 842.776 377.208 843.016C377.44 843.256 377.628 843.54 377.772 843.868L376.86 844.3C376.732 843.916 376.536 843.624 376.272 843.424C376.016 843.216 375.68 843.112 375.264 843.112C374.864 843.112 374.52 843.204 374.232 843.388C373.944 843.564 373.724 843.824 373.572 844.168C373.42 844.504 373.344 844.912 373.344 845.392C373.344 845.864 373.42 846.272 373.572 846.616C373.724 846.96 373.944 847.224 374.232 847.408C374.52 847.584 374.864 847.672 375.264 847.672C375.576 847.672 375.844 847.624 376.068 847.528C376.3 847.432 376.488 847.292 376.632 847.108C376.784 846.924 376.888 846.7 376.944 846.436L377.832 846.748C377.696 847.116 377.508 847.432 377.268 847.696C377.036 847.96 376.752 848.164 376.416 848.308C376.088 848.444 375.712 848.512 375.288 848.512C374.728 848.512 374.228 848.388 373.788 848.14C373.348 847.892 373.004 847.536 372.756 847.072C372.508 846.6 372.384 846.04 372.384 845.392C372.384 844.744 372.508 844.188 372.756 843.724C373.004 843.252 373.348 842.892 373.788 842.644C374.228 842.396 374.728 842.272 375.288 842.272ZM383.022 844.516C383.022 844.068 382.902 843.724 382.662 843.484C382.422 843.236 382.082 843.112 381.642 843.112C381.226 843.112 380.874 843.204 380.586 843.388C380.298 843.564 380.086 843.852 379.95 844.252L379.17 843.772C379.33 843.324 379.626 842.964 380.058 842.692C380.49 842.412 381.026 842.272 381.666 842.272C382.098 842.272 382.49 842.348 382.842 842.5C383.194 842.644 383.47 842.868 383.67 843.172C383.878 843.468 383.982 843.852 383.982 844.324V847.228C383.982 847.516 384.134 847.66 384.438 847.66C384.59 847.66 384.738 847.64 384.882 847.6L384.834 848.356C384.674 848.436 384.466 848.476 384.21 848.476C383.978 848.476 383.77 848.432 383.586 848.344C383.402 848.256 383.258 848.124 383.154 847.948C383.05 847.764 382.998 847.536 382.998 847.264V847.144L383.238 847.18C383.142 847.492 382.978 847.748 382.746 847.948C382.514 848.14 382.254 848.284 381.966 848.38C381.678 848.468 381.394 848.512 381.114 848.512C380.762 848.512 380.434 848.452 380.13 848.332C379.826 848.212 379.582 848.032 379.398 847.792C379.222 847.544 379.134 847.24 379.134 846.88C379.134 846.432 379.282 846.064 379.578 845.776C379.882 845.48 380.302 845.28 380.838 845.176L383.214 844.708V845.5L381.282 845.896C380.89 845.976 380.598 846.088 380.406 846.232C380.214 846.376 380.118 846.576 380.118 846.832C380.118 847.08 380.214 847.284 380.406 847.444C380.606 847.596 380.886 847.672 381.246 847.672C381.478 847.672 381.698 847.644 381.906 847.588C382.122 847.524 382.314 847.432 382.482 847.312C382.65 847.184 382.782 847.028 382.878 846.844C382.974 846.652 383.022 846.428 383.022 846.172V844.516ZM386.315 848.392V842.392H387.155L387.239 843.736L387.083 843.604C387.211 843.284 387.383 843.028 387.599 842.836C387.815 842.636 388.063 842.492 388.343 842.404C388.631 842.316 388.927 842.272 389.231 842.272C389.663 842.272 390.055 842.356 390.407 842.524C390.759 842.684 391.039 842.932 391.247 843.268C391.463 843.604 391.571 844.032 391.571 844.552V848.392H390.611V844.888C390.611 844.224 390.467 843.764 390.179 843.508C389.899 843.244 389.551 843.112 389.135 843.112C388.847 843.112 388.559 843.18 388.271 843.316C387.983 843.452 387.743 843.672 387.551 843.976C387.367 844.28 387.275 844.688 387.275 845.2V848.392H386.315Z" fill="white"/>
        <path fill-rule="evenodd" clip-rule="evenodd" d="M324.031 832.422C324.014 832.439 324 834.15 324 836.224V839.996L324.103 840.02C324.16 840.034 325.873 840.039 327.91 840.033L331.612 840.02V836.217V832.415L327.837 832.403C325.761 832.397 324.048 832.405 324.031 832.422ZM334.975 832.464C334.959 832.504 334.947 832.749 334.947 833.01V833.483L333.877 833.495L332.808 833.508V834.031V834.555L333.866 834.578L334.924 834.601L334.947 835.124L334.97 835.648L336.05 835.671L337.131 835.694L337.144 836.775L337.156 837.857H336.603H336.05V838.403V838.95H336.602H337.154V838.403V837.857H337.628C337.935 837.857 338.121 837.838 338.157 837.802C338.199 837.761 338.212 837.098 338.212 835.097C338.212 832.723 338.205 832.444 338.139 832.419C338.099 832.404 337.377 832.392 336.535 832.392C335.18 832.392 334.999 832.4 334.975 832.464ZM339.374 832.422C339.328 832.44 339.316 833.242 339.316 836.216C339.316 839.613 339.323 839.99 339.389 840.015C339.498 840.057 346.873 840.047 346.94 840.005C346.986 839.976 346.995 839.183 346.986 836.192L346.974 832.415L343.203 832.407C341.128 832.402 339.405 832.409 339.374 832.422ZM330.595 833.557C330.611 833.597 330.623 834.799 330.623 836.229C330.623 838.584 330.616 838.837 330.547 838.912C330.475 838.991 330.33 838.995 327.82 838.995C325.819 838.995 325.155 838.982 325.113 838.941C325.071 838.899 325.058 838.241 325.058 836.257C325.058 834.812 325.07 833.597 325.086 833.557C325.111 833.492 325.396 833.485 327.841 833.485C330.285 833.485 330.57 833.492 330.595 833.557ZM337.154 834.026C337.154 834.491 337.143 834.572 337.077 834.597C336.991 834.63 336.198 834.624 336.108 834.59C336.066 834.574 336.05 834.418 336.05 834.026V833.485H336.602H337.154V834.026ZM345.928 836.189C345.937 838.132 345.926 838.888 345.888 838.933C345.845 838.984 345.367 838.995 343.194 838.995C341.461 838.995 340.521 838.979 340.463 838.948C340.377 838.902 340.374 838.825 340.374 836.265C340.374 834.815 340.387 833.596 340.402 833.557C340.427 833.491 340.702 833.485 343.173 833.496L345.916 833.508L345.928 836.189ZM326.369 834.62L326.231 834.647L326.218 836.149C326.211 836.976 326.216 837.698 326.23 837.754L326.255 837.857H327.841H329.427V836.24V834.623L328.174 834.616C327.485 834.613 326.827 834.606 326.714 834.602C326.6 834.597 326.445 834.606 326.369 834.62ZM341.708 834.615L341.547 834.646L341.534 836.149C341.527 836.976 341.532 837.698 341.546 837.754L341.572 837.857H343.157H344.743V836.24V834.623L343.674 834.623C343.086 834.623 342.439 834.614 342.237 834.603C342.034 834.593 341.796 834.598 341.708 834.615ZM332.785 836.168C332.785 836.416 332.797 836.652 332.813 836.692C332.836 836.751 332.925 836.764 333.319 836.764H333.797V837.309V837.854L333.302 837.867L332.808 837.88L332.796 838.924C332.786 839.729 332.796 839.976 332.842 840.005C332.874 840.025 333.102 840.042 333.348 840.042L333.797 840.043V838.951V837.86L334.36 837.847L334.924 837.834L334.936 836.775L334.948 835.716H333.867H332.785V836.168ZM334.975 839.067C334.959 839.107 334.947 839.33 334.947 839.563C334.947 839.908 334.96 839.993 335.019 840.015C335.156 840.067 335.938 840.045 335.995 839.988C336.053 839.931 336.075 839.202 336.023 839.067C335.999 839.008 335.908 838.995 335.499 838.995C335.089 838.995 334.998 839.008 334.975 839.067ZM337.154 839.491C337.154 839.902 337.167 839.992 337.227 840.015C337.322 840.051 338.045 840.051 338.139 840.015C338.247 839.974 338.247 839.064 338.139 839.023C338.099 839.008 337.861 838.995 337.611 838.995H337.154V839.491ZM333.817 840.148C333.804 840.181 333.799 840.422 333.807 840.683L333.82 841.159L334.28 841.172C334.99 841.192 334.947 841.229 334.947 840.611V840.088H334.393C333.978 840.088 333.834 840.103 333.817 840.148ZM324.021 841.238C324.009 841.27 324.004 842.248 324.011 843.413L324.023 845.531H324.529H325.035L325.048 845.009C325.057 844.661 325.08 844.475 325.117 844.451C325.148 844.432 325.393 844.416 325.662 844.415C326.066 844.415 326.157 844.402 326.18 844.343C326.195 844.303 326.208 843.811 326.208 843.25V842.229H327.818H329.427V841.705V841.181H326.735C324.624 841.181 324.038 841.194 324.021 841.238ZM330.614 841.625C330.606 841.87 330.615 842.105 330.636 842.149C330.669 842.222 330.767 842.229 331.727 842.229H332.782L332.795 842.764L332.808 843.299L333.302 843.312L333.797 843.325V842.253V841.181H332.213H330.629L330.614 841.625ZM336.072 841.238C336.059 841.271 336.054 841.748 336.061 842.298L336.073 843.299L336.602 843.322L337.131 843.345V843.891V844.438L336.591 844.45L336.05 844.463V845.008V845.553H336.602H337.154V846.624V847.694H337.611C337.861 847.694 338.099 847.681 338.139 847.666C338.2 847.643 338.212 847.551 338.212 847.125C338.212 846.698 338.225 846.606 338.285 846.583C338.392 846.542 340.295 846.55 340.361 846.592C340.398 846.615 340.421 846.802 340.43 847.149L340.443 847.671L340.949 847.694C341.26 847.708 341.468 847.699 341.489 847.671C341.508 847.646 341.518 847.164 341.512 846.601L341.501 845.576L340.42 845.553L339.339 845.531L339.326 844.997L339.313 844.463L338.774 844.45L338.235 844.438L338.223 843.333L338.211 842.229L337.74 842.228C337.481 842.228 337.244 842.212 337.214 842.192C337.177 842.169 337.153 841.992 337.145 841.681L337.131 841.204L336.613 841.191C336.219 841.181 336.089 841.193 336.072 841.238ZM338.233 841.24C338.219 841.274 338.215 841.505 338.222 841.754L338.235 842.206L338.672 842.219C339.357 842.24 339.322 842.27 339.306 841.692L339.293 841.204L338.775 841.191C338.372 841.181 338.251 841.192 338.233 841.24ZM340.451 841.212C340.434 841.228 340.42 841.453 340.42 841.712C340.42 842.267 340.386 842.24 341.064 842.219L341.501 842.206L341.514 841.796C341.536 841.149 341.564 841.181 340.979 841.181C340.705 841.181 340.467 841.195 340.451 841.212ZM342.66 841.21C342.642 841.228 342.628 841.432 342.628 841.663C342.628 841.895 342.615 842.117 342.6 842.157C342.577 842.217 342.483 842.229 342.046 842.229H341.521L341.534 842.764L341.547 843.299L342.064 843.312C342.349 843.319 342.586 843.329 342.591 843.335C342.596 843.34 342.612 843.836 342.626 844.438L342.651 845.531L343.683 845.543C344.439 845.552 344.726 845.57 344.752 845.611C344.772 845.642 344.788 845.867 344.789 846.112L344.789 846.557L345.882 846.545L346.974 846.532L346.987 846.095C346.997 845.772 346.984 845.645 346.939 845.607C346.904 845.579 346.661 845.551 346.397 845.544L345.916 845.531L345.904 844.447L345.892 843.364L345.352 843.377L344.812 843.39L344.801 843.823C344.783 844.508 344.823 844.46 344.265 844.46C343.924 844.46 343.774 844.443 343.738 844.399C343.703 844.358 343.683 843.835 343.675 842.771L343.663 841.204L343.177 841.191C342.91 841.184 342.677 841.193 342.66 841.21ZM344.818 841.252C344.776 841.36 344.785 842.105 344.828 842.174C344.856 842.217 344.997 842.229 345.368 842.219L345.87 842.206V841.705V841.204L345.358 841.191C344.922 841.18 344.842 841.189 344.818 841.252ZM345.939 842.777V843.325L346.457 843.312L346.974 843.299L346.987 842.764L347 842.229H346.47H345.939V842.777ZM329.459 843.397C329.441 843.414 329.427 843.627 329.427 843.87C329.427 844.19 329.445 844.327 329.491 844.365C329.535 844.401 329.863 844.413 330.583 844.404L331.612 844.392V843.891V843.39L330.551 843.378C329.968 843.371 329.476 843.38 329.459 843.397ZM333.829 843.396C333.811 843.414 333.797 843.638 333.797 843.894C333.797 844.276 333.81 844.364 333.87 844.387C333.978 844.428 334.822 844.419 334.891 844.376C334.934 844.349 334.947 844.213 334.937 843.865L334.924 843.39L334.392 843.377C334.1 843.37 333.846 843.379 333.829 843.396ZM327.296 844.491C327.279 844.507 327.266 844.741 327.266 845.01C327.266 845.413 327.278 845.503 327.338 845.526C327.378 845.541 327.627 845.553 327.89 845.553H328.369V846.054V846.555H330.004H331.638L331.625 846.066L331.612 845.576L329.991 845.564L328.369 845.552V845.006V844.46H327.848C327.561 844.46 327.313 844.474 327.296 844.491ZM331.691 844.995L331.704 845.531H332.233H332.762L332.775 844.995L332.788 844.46H332.233H331.678L331.691 844.995ZM333.825 845.625C333.809 845.665 333.797 845.89 333.797 846.126V846.555H334.299C334.575 846.555 334.834 846.568 334.874 846.583C334.934 846.606 334.947 846.695 334.947 847.097C334.947 847.416 334.966 847.603 335.002 847.639C335.077 847.714 335.92 847.714 335.995 847.639C336.073 847.562 336.073 845.685 335.995 845.608C335.956 845.569 335.647 845.553 334.896 845.553C333.987 845.553 333.849 845.563 333.825 845.625ZM332.816 846.631C332.777 846.669 332.775 848.616 332.813 848.715C332.836 848.774 332.925 848.787 333.319 848.787H333.797V847.694V846.601H333.322C333.06 846.601 332.832 846.614 332.816 846.631ZM343.713 846.673C343.661 846.808 343.683 847.582 343.741 847.639C343.776 847.675 343.962 847.694 344.27 847.694H344.743V847.147V846.601H344.242C343.828 846.601 343.737 846.613 343.713 846.673ZM324 851.541V855.343L324.103 855.368C324.16 855.381 325.873 855.387 327.91 855.38L331.612 855.368L331.624 851.553L331.636 847.739H327.818H324V851.541ZM336.05 848.264V848.79L336.591 848.777L337.131 848.764L337.144 848.252L337.157 847.739H336.604H336.05V848.264ZM344.789 848.23C344.789 848.553 344.77 848.742 344.734 848.778C344.695 848.817 344.389 848.832 343.652 848.832H342.625L342.638 849.367L342.651 849.903H344.26H345.87V848.832V847.762L345.33 847.749L344.789 847.736V848.23ZM330.576 848.875C330.607 848.933 330.623 849.851 330.623 851.542C330.623 853.233 330.607 854.151 330.576 854.209C330.529 854.295 330.451 854.297 327.866 854.297C326.401 854.297 325.171 854.285 325.131 854.27C325.065 854.245 325.058 853.966 325.058 851.586C325.058 850.126 325.07 848.898 325.086 848.859C325.111 848.794 325.395 848.787 327.821 848.787C330.45 848.787 330.529 848.789 330.576 848.875ZM333.797 849.377V849.922L333.302 849.935L332.808 849.948L332.796 852.607C332.787 854.571 332.798 855.283 332.837 855.33C332.878 855.378 332.998 855.39 333.332 855.38L333.774 855.368L333.787 854.869C333.794 854.595 333.823 854.344 333.85 854.311C333.886 854.269 334.048 854.252 334.424 854.252H334.948L334.936 853.193L334.924 852.134L334.42 852.121C334.144 852.114 333.89 852.086 333.857 852.059C333.811 852.02 333.797 851.77 333.797 850.967V849.925H334.372H334.947V850.421C334.947 850.773 334.964 850.93 335.007 850.965C335.04 850.993 335.283 851.021 335.547 851.028L336.027 851.041L336.04 851.549L336.053 852.057L336.367 852.088C336.54 852.105 336.762 852.115 336.86 852.111C336.959 852.106 337.065 852.104 337.097 852.107C337.139 852.11 337.154 852.249 337.154 852.635C337.154 853.022 337.139 853.16 337.097 853.162C337.065 853.164 336.872 853.162 336.667 853.159C336.462 853.156 336.24 853.167 336.173 853.184L336.05 853.214V853.733V854.252H336.53C336.793 854.252 337.042 854.264 337.082 854.279C337.142 854.302 337.154 854.394 337.154 854.821C337.154 855.248 337.167 855.34 337.227 855.363C337.363 855.414 338.099 855.393 338.157 855.336C338.193 855.3 338.212 855.112 338.212 854.794C338.212 854.392 338.225 854.302 338.285 854.279C338.325 854.264 339.071 854.252 339.942 854.252H341.527L341.514 853.717L341.501 853.182L340.961 853.169C340.327 853.154 340.362 853.191 340.383 852.544L340.397 852.134L341.489 852.122C342.762 852.108 342.64 852.177 342.618 851.474L342.605 851.041L339.891 851.017C338.398 851.004 337.172 850.989 337.166 850.983C337.16 850.977 337.154 850.738 337.154 850.45V849.928L336.614 849.915L336.073 849.903L336.062 849.47C336.056 849.232 336.04 848.991 336.027 848.935L336.003 848.832H334.9H333.797V849.377ZM326.238 849.956C326.2 849.994 326.197 852.988 326.236 853.087C326.26 853.15 326.445 853.159 327.845 853.159H329.427V851.542V849.925H327.848C326.98 849.925 326.255 849.939 326.238 849.956ZM345.949 850.459L345.962 850.996L346.376 851.009C347.037 851.03 347.002 851.061 346.987 850.459L346.974 849.948L346.455 849.935L345.936 849.922L345.949 850.459ZM339.243 852.093C339.304 852.116 339.316 852.209 339.316 852.64V853.159H338.764H338.212V852.637V852.115L338.638 852.1C338.872 852.091 339.087 852.08 339.117 852.075C339.146 852.07 339.203 852.078 339.243 852.093ZM342.628 853.182V854.252H343.686H344.743V853.182V852.111H343.686H342.628V853.182ZM341.554 854.328C341.498 854.383 341.52 855.277 341.579 855.336C341.615 855.371 341.8 855.39 342.103 855.39C342.488 855.39 342.577 855.377 342.6 855.318C342.615 855.279 342.628 855.065 342.628 854.844C342.628 854.622 342.615 854.409 342.6 854.369C342.577 854.31 342.486 854.297 342.078 854.297C341.807 854.297 341.571 854.311 341.554 854.328ZM344.821 854.326C344.804 854.344 344.789 854.567 344.789 854.823C344.789 855.165 344.806 855.302 344.854 855.341C344.896 855.375 345.082 855.389 345.394 855.381L345.87 855.368V854.844V854.32L345.362 854.307C345.082 854.3 344.839 854.309 344.821 854.326Z" fill="white"/>
        <path fill-rule="evenodd" clip-rule="evenodd" d="M415 105.392C421.075 105.392 426 100.467 426 94.3918C426 88.3167 421.075 83.3918 415 83.3918C408.925 83.3918 404 88.3167 404 94.3918C404 100.467 408.925 105.392 415 105.392Z" stroke="black" stroke-linecap="round" stroke-linejoin="round"/>
        <path d="M415 88.3918V100.392" stroke="black" stroke-linecap="round" stroke-linejoin="round"/>
        <path d="M421 94.3918H409" stroke="black" stroke-linecap="round" stroke-linejoin="round"/>
    </g>
    <rect width="411" height="44.2694" transform="translate(35 22.1347)" fill="white"/>
    <g opacity="0.8">
        <rect opacity="0.35" x="405.233" y="41.0141" width="19.1332" height="8.52113" rx="2.16667" stroke="black"/>
        <path opacity="0.4" d="M425.782 43.5948V46.9552C426.518 46.6705 426.997 46.0085 426.997 45.275C426.997 44.5414 426.518 43.8794 425.782 43.5948" fill="black"/>
        <rect x="406.563" y="42.1943" width="16.4726" height="6.16073" rx="1.33333" fill="black"/>
    </g>
    <path opacity="0.8" fill-rule="evenodd" clip-rule="evenodd" d="M393.141 42.4323C395.177 42.4324 397.136 43.1499 398.611 44.4366C398.722 44.536 398.9 44.5347 399.009 44.4338L400.071 43.4506C400.127 43.3994 400.158 43.3301 400.157 43.258C400.157 43.1859 400.125 43.1169 400.069 43.0663C396.196 39.6621 390.086 39.6621 386.213 43.0663C386.157 43.1169 386.126 43.1858 386.125 43.2579C386.124 43.3301 386.155 43.3994 386.211 43.4506L387.273 44.4338C387.382 44.5349 387.56 44.5361 387.671 44.4366C389.147 43.1498 391.105 42.4323 393.141 42.4323ZM393.141 45.6308C394.26 45.6308 395.339 46.0121 396.168 46.7008C396.28 46.7986 396.457 46.7964 396.566 46.696L397.627 45.7128C397.683 45.6613 397.714 45.5913 397.713 45.5186C397.712 45.4459 397.68 45.3765 397.623 45.326C395.098 43.1717 391.187 43.1717 388.662 45.326C388.605 45.3765 388.573 45.4459 388.572 45.5187C388.571 45.5914 388.602 45.6613 388.658 45.7128L389.719 46.696C389.828 46.7964 390.005 46.7986 390.117 46.7008C390.946 46.0126 392.023 45.6312 393.141 45.6308ZM395.267 47.7835C395.268 47.8564 395.237 47.9266 395.18 47.9777L393.345 49.6764C393.291 49.7263 393.218 49.7544 393.142 49.7544C393.065 49.7544 392.992 49.7263 392.938 49.6764L391.102 47.9777C391.046 47.9266 391.015 47.8563 391.016 47.7834C391.018 47.7105 391.052 47.6415 391.111 47.5926C392.283 46.6834 394 46.6834 395.172 47.5926C395.231 47.6415 395.265 47.7106 395.267 47.7835Z" fill="black"/>
    <path opacity="0.8" fill-rule="evenodd" clip-rule="evenodd" d="M380.635 40.7951H379.719C379.214 40.7951 378.804 41.1712 378.804 41.6352V48.9161C378.804 49.3801 379.214 49.7562 379.719 49.7562H380.635C381.14 49.7562 381.55 49.3801 381.55 48.9161V41.6352C381.55 41.1712 381.14 40.7951 380.635 40.7951ZM375.449 42.7551H376.364C376.869 42.7551 377.279 43.1312 377.279 43.5952V48.9158C377.279 49.3798 376.869 49.7559 376.364 49.7559H375.449C374.943 49.7559 374.534 49.3798 374.534 48.9158V43.5952C374.534 43.1312 374.943 42.7551 375.449 42.7551ZM372.093 44.7159H371.178C370.672 44.7159 370.263 45.092 370.263 45.556V48.9164C370.263 49.3803 370.672 49.7565 371.178 49.7565H372.093C372.598 49.7565 373.008 49.3803 373.008 48.9164V45.556C373.008 45.092 372.598 44.7159 372.093 44.7159ZM367.822 46.3961H366.907C366.402 46.3961 365.992 46.7722 365.992 47.2362V48.9164C365.992 49.3803 366.402 49.7565 366.907 49.7565H367.822C368.328 49.7565 368.738 49.3803 368.738 48.9164V47.2362C368.738 46.7722 368.328 46.3961 367.822 46.3961Z" fill="black"/>
    <g opacity="0.8">
        <path d="M70.1767 49.401C72.3271 49.401 73.6044 47.7193 73.6044 44.8717C73.6044 42.0768 72.245 40.5299 70.2236 40.5299C68.3837 40.5299 67.0829 41.7662 67.0829 43.5006C67.0829 45.1236 68.2548 46.3072 69.8661 46.3072C70.8564 46.3072 71.6591 45.8502 72.0575 45.0475H72.1571C72.1396 47.0045 71.4306 48.1354 70.1943 48.1354C69.4677 48.1354 68.8876 47.7428 68.706 47.11H67.2001C67.4462 48.4928 68.6298 49.401 70.1767 49.401ZM70.2294 45.1119C69.245 45.1119 68.5653 44.4322 68.5653 43.4537C68.5653 42.5104 69.2802 41.7897 70.2353 41.7897C71.1903 41.7897 71.9052 42.5221 71.9052 43.483C71.9052 44.4264 71.2079 45.1119 70.2294 45.1119ZM76.0773 49.319C76.6339 49.319 77.0148 48.9205 77.0148 48.3932C77.0148 47.86 76.6339 47.4674 76.0773 47.4674C75.5265 47.4674 75.1398 47.86 75.1398 48.3932C75.1398 48.9205 75.5265 49.319 76.0773 49.319ZM76.0773 45.0416C76.6339 45.0416 77.0148 44.649 77.0148 44.1217C77.0148 43.5885 76.6339 43.1959 76.0773 43.1959C75.5265 43.1959 75.1398 43.5885 75.1398 44.1217C75.1398 44.649 75.5265 45.0416 76.0773 45.0416ZM82.4994 49.1959H83.9467V47.5846H85.0893V46.3072H83.9467V40.7408H81.8139C80.6654 42.4869 79.4643 44.4147 78.3686 46.3248V47.5846H82.4994V49.1959ZM79.7689 46.2604C80.5951 44.8365 81.5736 43.2838 82.4408 41.9713H82.5229V46.3424H79.7689V46.2604ZM88.3121 49.1959H89.8239V40.7408H88.318L86.109 42.2877V43.7408L88.2125 42.2643H88.3121V49.1959Z" fill="black"/>
    </g>
    <path fill-rule="evenodd" clip-rule="evenodd" d="M72.5544 5.79312C40.6842 5.79312 14.8481 32.9925 14.8481 66.5449V135.175H13.8495C11.6186 135.175 9.81006 137.079 9.81006 139.427V170.315C9.81006 172.664 11.6186 174.568 13.8495 174.568H14.8481V208.748H13.8495C11.6186 208.748 9.81006 210.652 9.81006 213.001V275.172C9.81006 277.521 11.6186 279.425 13.8495 279.425H14.8481V298.542H13.8495C11.6186 298.542 9.81006 300.446 9.81006 302.795V364.967C9.81006 367.316 11.6186 369.22 13.8495 369.22H14.8481V919.452C14.8481 953.006 40.6843 980.204 72.555 980.204H405.894C437.764 980.204 463.6 953.006 463.6 919.452V66.5449C463.6 32.9926 437.764 5.79312 405.894 5.79312H72.5544ZM82.0465 22.5933C54.9568 22.5933 32.9962 45.7129 32.9962 74.2324V911.767C32.9962 940.284 54.9568 963.406 82.0465 963.406H396.402C423.491 963.406 445.452 940.284 445.452 911.767V74.2324C445.452 45.7129 423.491 22.5933 396.402 22.5933H353.012C353.045 22.9509 353.062 23.3134 353.062 23.6803V43.5077C353.062 56.5931 342.986 67.201 330.556 67.201H147.892C135.463 67.201 125.386 56.5931 125.386 43.5077V23.6803C125.386 23.3134 125.403 22.9509 125.437 22.5933H82.0465Z" fill="url(#paint0_linear)"/>
    <path d="M14.8483 135.175V136.633H16.2333V135.175H14.8483ZM14.8483 174.568H16.2333V173.11H14.8483V174.568ZM14.8483 208.748V210.206H16.2333V208.748H14.8483ZM14.8483 279.425H16.2333V277.967H14.8483V279.425ZM14.8483 298.542V300H16.2333V298.542H14.8483ZM14.8483 369.22H16.2333V367.762H14.8483V369.22ZM353.012 22.5935V21.1355H351.483L351.633 22.7366L353.012 22.5935ZM125.437 22.5935L126.815 22.7367L126.965 21.1355H125.437V22.5935ZM16.2333 66.545C16.2333 33.7979 41.4493 7.25132 72.5546 7.25132V4.33524C39.9195 4.33524 13.4634 32.1874 13.4634 66.545H16.2333ZM16.2333 135.175V66.545H13.4634V135.175H16.2333ZM13.8497 136.633H14.8483V133.717H13.8497V136.633ZM11.1952 139.428C11.1952 137.884 12.3837 136.633 13.8497 136.633V133.717C10.8539 133.717 8.42529 136.273 8.42529 139.428H11.1952ZM11.1952 170.316V139.428H8.42529V170.316H11.1952ZM13.8497 173.11C12.3837 173.11 11.1952 171.859 11.1952 170.316H8.42529C8.42529 173.47 10.8539 176.026 13.8497 176.026V173.11ZM14.8483 173.11H13.8497V176.026H14.8483V173.11ZM16.2333 208.748V174.568H13.4634V208.748H16.2333ZM13.8497 210.206H14.8483V207.29H13.8497V210.206ZM11.1952 213.001C11.1952 211.457 12.3837 210.206 13.8497 210.206V207.29C10.8539 207.29 8.42529 209.847 8.42529 213.001H11.1952ZM11.1952 275.172V213.001H8.42529V275.172H11.1952ZM13.8497 277.967C12.3837 277.967 11.1952 276.716 11.1952 275.172H8.42529C8.42529 278.327 10.8539 280.883 13.8497 280.883V277.967ZM14.8483 277.967H13.8497V280.883H14.8483V277.967ZM16.2333 298.542V279.425H13.4634V298.542H16.2333ZM13.8497 300H14.8483V297.084H13.8497V300ZM11.1952 302.795C11.1952 301.252 12.3837 300 13.8497 300V297.084C10.8539 297.084 8.42529 299.641 8.42529 302.795H11.1952ZM11.1952 364.967V302.795H8.42529V364.967H11.1952ZM13.8497 367.762C12.3837 367.762 11.1952 366.51 11.1952 364.967H8.42529C8.42529 368.121 10.8539 370.678 13.8497 370.678V367.762ZM14.8483 367.762H13.8497V370.678H14.8483V367.762ZM16.2333 919.453V369.22H13.4634V919.453H16.2333ZM72.5552 978.746C41.4493 978.746 16.2333 952.204 16.2333 919.453H13.4634C13.4634 953.814 39.9196 981.662 72.5552 981.662V978.746ZM405.894 978.746H72.5552V981.662H405.894V978.746ZM462.216 919.453C462.216 952.204 437 978.746 405.894 978.746V981.662C438.529 981.662 464.986 953.814 464.986 919.453H462.216ZM462.216 66.545V919.453H464.986V66.545H462.216ZM405.894 7.25132C437 7.25132 462.216 33.798 462.216 66.545H464.986C464.986 32.1875 438.529 4.33524 405.894 4.33524V7.25132ZM72.5546 7.25132H405.894V4.33524H72.5546V7.25132ZM34.3813 74.2326C34.3813 46.5183 55.7219 24.0515 82.0467 24.0515V21.1355C54.1922 21.1355 31.6114 44.9078 31.6114 74.2326H34.3813ZM34.3813 911.768V74.2326H31.6114V911.768H34.3813ZM82.0467 961.949C55.7219 961.949 34.3813 939.483 34.3813 911.768H31.6114C31.6114 941.092 54.1921 964.865 82.0467 964.865V961.949ZM396.402 961.949H82.0467V964.865H396.402V961.949ZM444.068 911.768C444.068 939.483 422.727 961.949 396.402 961.949V964.865C424.256 964.865 446.837 941.092 446.837 911.768H444.068ZM444.068 74.2326V911.768H446.837V74.2326H444.068ZM396.402 24.0515C422.727 24.0515 444.068 46.5183 444.068 74.2326H446.837C446.837 44.9078 424.256 21.1355 396.402 21.1355V24.0515ZM353.012 24.0515H396.402V21.1355H353.012V24.0515ZM354.447 23.6804C354.447 23.2657 354.428 22.8554 354.39 22.4504L351.633 22.7366C351.662 23.0467 351.677 23.3615 351.677 23.6804H354.447ZM354.447 43.5079V23.6804H351.677V43.5079H354.447ZM330.556 68.6592C343.751 68.6592 354.447 57.3985 354.447 43.5079H351.677C351.677 55.788 342.221 65.7431 330.556 65.7431V68.6592ZM147.892 68.6592H330.556V65.7431H147.892V68.6592ZM124.002 43.5079C124.002 57.3985 134.698 68.6592 147.892 68.6592V65.7431C136.227 65.7431 126.772 55.788 126.772 43.5079H124.002ZM124.002 23.6804V43.5079H126.772V23.6804H124.002ZM124.059 22.4504C124.021 22.8553 124.002 23.2657 124.002 23.6804H126.772C126.772 23.3615 126.787 23.0467 126.815 22.7367L124.059 22.4504ZM82.0467 24.0515H125.437V21.1355H82.0467V24.0515Z" fill="black" fill-opacity="0.03"/>
    <g opacity="0.6">
        <g opacity="0.75">
            <g opacity="0.75" filter="url(#filter2_di)">
                <path opacity="0.75" fill-rule="evenodd" clip-rule="evenodd" d="M298.068 46.9249C301.713 46.9249 304.667 43.8124 304.667 39.9731C304.667 36.1337 301.713 33.0212 298.068 33.0212C294.423 33.0212 291.469 36.1337 291.469 39.9731C291.469 43.8124 294.423 46.9249 298.068 46.9249Z" fill="#9092A5"/>
            </g>
            <g opacity="0.75" filter="url(#filter3_di)">
                <path opacity="0.75" fill-rule="evenodd" clip-rule="evenodd" d="M298.068 45.187C300.802 45.187 303.018 42.8526 303.018 39.9731C303.018 37.0936 300.802 34.7592 298.068 34.7592C295.335 34.7592 293.119 37.0936 293.119 39.9731C293.119 42.8526 295.335 45.187 298.068 45.187Z" fill="#9092A5"/>
            </g>
        </g>
        <g opacity="0.6" filter="url(#filter4_di)">
            <path opacity="0.6" d="M261.221 37.0763H211.729C210.21 37.0763 208.978 38.3732 208.978 39.9729C208.978 41.5727 210.21 42.8695 211.729 42.8695H261.221C262.74 42.8695 263.972 41.5727 263.972 39.9729C263.972 38.3732 262.74 37.0763 261.221 37.0763Z" fill="#9092A5"/>
        </g>
    </g>
    <defs>
        <filter id="filter0_d" x="22" y="56.3918" width="435" height="919.586" filterUnits="userSpaceOnUse" color-interpolation-filters="sRGB">
            <feFlood flood-opacity="0" result="BackgroundImageFix"/>
            <feColorMatrix in="SourceAlpha" type="matrix" values="0 0 0 0 0 0 0 0 0 0 0 0 0 0 0 0 0 0 127 0"/>
            <feOffset dy="2"/>
            <feGaussianBlur stdDeviation="5"/>
            <feColorMatrix type="matrix" values="0 0 0 0 0 0 0 0 0 0 0 0 0 0 0 0 0 0 0.07 0"/>
            <feBlend mode="normal" in2="BackgroundImageFix" result="effect1_dropShadow"/>
            <feBlend mode="normal" in="SourceGraphic" in2="effect1_dropShadow" result="shape"/>
        </filter>
        <filter id="filter1_d" x="293" y="814.392" width="138.277" height="64.1225" filterUnits="userSpaceOnUse" color-interpolation-filters="sRGB">
            <feFlood flood-opacity="0" result="BackgroundImageFix"/>
            <feColorMatrix in="SourceAlpha" type="matrix" values="0 0 0 0 0 0 0 0 0 0 0 0 0 0 0 0 0 0 127 0"/>
            <feOffset dy="2"/>
            <feGaussianBlur stdDeviation="5"/>
            <feColorMatrix type="matrix" values="0 0 0 0 0 0 0 0 0 0 0 0 0 0 0 0 0 0 0.07 0"/>
            <feBlend mode="normal" in2="BackgroundImageFix" result="effect1_dropShadow"/>
            <feBlend mode="normal" in="SourceGraphic" in2="effect1_dropShadow" result="shape"/>
        </filter>
        <filter id="filter2_di" x="288.469" y="30.0212" width="19.1986" height="19.9037" filterUnits="userSpaceOnUse" color-interpolation-filters="sRGB">
            <feFlood flood-opacity="0" result="BackgroundImageFix"/>
            <feColorMatrix in="SourceAlpha" type="matrix" values="0 0 0 0 0 0 0 0 0 0 0 0 0 0 0 0 0 0 127 0"/>
            <feOffset/>
            <feGaussianBlur stdDeviation="1.5"/>
            <feColorMatrix type="matrix" values="0 0 0 0 0.49062 0 0 0 0 0.49062 0 0 0 0 0.49062 0 0 0 0.25 0"/>
            <feBlend mode="normal" in2="BackgroundImageFix" result="effect1_dropShadow"/>
            <feBlend mode="normal" in="SourceGraphic" in2="effect1_dropShadow" result="shape"/>
            <feColorMatrix in="SourceAlpha" type="matrix" values="0 0 0 0 0 0 0 0 0 0 0 0 0 0 0 0 0 0 127 0" result="hardAlpha"/>
            <feOffset dx="2" dy="2"/>
            <feGaussianBlur stdDeviation="2"/>
            <feComposite in2="hardAlpha" operator="arithmetic" k2="-1" k3="1"/>
            <feColorMatrix type="matrix" values="0 0 0 0 0 0 0 0 0 0 0 0 0 0 0 0 0 0 0.344061 0"/>
            <feBlend mode="normal" in2="shape" result="effect2_innerShadow"/>
        </filter>
        <filter id="filter3_di" x="290.119" y="32.7592" width="15.899" height="18.4277" filterUnits="userSpaceOnUse" color-interpolation-filters="sRGB">
            <feFlood flood-opacity="0" result="BackgroundImageFix"/>
            <feColorMatrix in="SourceAlpha" type="matrix" values="0 0 0 0 0 0 0 0 0 0 0 0 0 0 0 0 0 0 127 0"/>
            <feOffset dy="3"/>
            <feGaussianBlur stdDeviation="1.5"/>
            <feColorMatrix type="matrix" values="0 0 0 0 0.49062 0 0 0 0 0.49062 0 0 0 0 0.49062 0 0 0 0.428838 0"/>
            <feBlend mode="normal" in2="BackgroundImageFix" result="effect1_dropShadow"/>
            <feBlend mode="normal" in="SourceGraphic" in2="effect1_dropShadow" result="shape"/>
            <feColorMatrix in="SourceAlpha" type="matrix" values="0 0 0 0 0 0 0 0 0 0 0 0 0 0 0 0 0 0 127 0" result="hardAlpha"/>
            <feOffset dx="-2" dy="-2"/>
            <feGaussianBlur stdDeviation="2.5"/>
            <feComposite in2="hardAlpha" operator="arithmetic" k2="-1" k3="1"/>
            <feColorMatrix type="matrix" values="0 0 0 0 0 0 0 0 0 0 0 0 0 0 0 0 0 0 0.344061 0"/>
            <feBlend mode="normal" in2="shape" result="effect2_innerShadow"/>
        </filter>
        <filter id="filter4_di" x="205.978" y="34.0763" width="60.9941" height="11.7932" filterUnits="userSpaceOnUse" color-interpolation-filters="sRGB">
            <feFlood flood-opacity="0" result="BackgroundImageFix"/>
            <feColorMatrix in="SourceAlpha" type="matrix" values="0 0 0 0 0 0 0 0 0 0 0 0 0 0 0 0 0 0 127 0"/>
            <feOffset/>
            <feGaussianBlur stdDeviation="1.5"/>
            <feColorMatrix type="matrix" values="0 0 0 0 0.49062 0 0 0 0 0.49062 0 0 0 0 0.49062 0 0 0 0.25 0"/>
            <feBlend mode="normal" in2="BackgroundImageFix" result="effect1_dropShadow"/>
            <feBlend mode="normal" in="SourceGraphic" in2="effect1_dropShadow" result="shape"/>
            <feColorMatrix in="SourceAlpha" type="matrix" values="0 0 0 0 0 0 0 0 0 0 0 0 0 0 0 0 0 0 127 0" result="hardAlpha"/>
            <feOffset dx="2" dy="2"/>
            <feGaussianBlur stdDeviation="2"/>
            <feComposite in2="hardAlpha" operator="arithmetic" k2="-1" k3="1"/>
            <feColorMatrix type="matrix" values="0 0 0 0 0 0 0 0 0 0 0 0 0 0 0 0 0 0 0.344061 0"/>
            <feBlend mode="normal" in2="shape" result="effect2_innerShadow"/>
        </filter>
        <linearGradient id="paint0_linear" x1="60.9657" y1="-150.102" x2="-472.811" y2="753.059" gradientUnits="userSpaceOnUse">
            <stop stop-color="#47474C"/>
            <stop offset="1" stop-color="#222225"/>
        </linearGradient>
        <clipPath id="clip0">
            <rect width="415" height="899.586" fill="white" transform="translate(32 64.3918)"/>
        </clipPath>
    </defs>
</svg>
