<svg width="517" height="1038" viewBox="0 0 517 1038" fill="none" xmlns="http://www.w3.org/2000/svg">
    <g filter="url(#filter0_d)">
        <g filter="url(#filter1_d)">
            <path d="M468.575 80.0562H53.5752V979.643H468.575V80.0562Z" fill="#F9F9F9"/>
            <path d="M467.575 80.0562H53.5752V140.057H467.575V80.0562Z" fill="white"/>
            <path d="M118.511 104.495V115.055H117.295V108.415L117.439 105.631H117.423L113.951 115.055H112.863L109.391 105.631H109.375L109.519 108.415V115.055H108.303V104.495H110.271L112.591 110.911L113.391 113.551H113.423L114.239 110.927L116.543 104.495H118.511ZM127.861 107.055L124.101 116.4C123.898 116.923 123.674 117.333 123.429 117.632C123.194 117.941 122.928 118.16 122.629 118.288C122.341 118.427 122.005 118.496 121.621 118.496C121.258 118.496 120.922 118.443 120.613 118.336C120.314 118.24 120.047 118.107 119.813 117.936L120.165 116.816C120.378 117.008 120.602 117.147 120.837 117.232C121.082 117.328 121.322 117.376 121.557 117.376C121.834 117.376 122.096 117.291 122.341 117.12C122.586 116.949 122.81 116.603 123.013 116.08L123.429 115.039L122.629 113.135L120.085 107.055H121.541L123.541 112.271L124.037 113.695L124.613 112.111L126.485 107.055H127.861ZM137.026 106.895C137.58 106.895 138.066 106.981 138.482 107.151C138.908 107.322 139.276 107.567 139.586 107.887C139.895 108.207 140.146 108.586 140.338 109.023L139.122 109.599C138.951 109.087 138.69 108.698 138.338 108.431C137.996 108.154 137.548 108.015 136.994 108.015C136.46 108.015 136.002 108.138 135.618 108.383C135.234 108.618 134.94 108.965 134.738 109.423C134.535 109.871 134.434 110.415 134.434 111.055C134.434 111.685 134.535 112.229 134.738 112.687C134.94 113.146 135.234 113.498 135.618 113.743C136.002 113.978 136.46 114.095 136.994 114.095C137.41 114.095 137.767 114.031 138.066 113.903C138.375 113.775 138.626 113.589 138.818 113.343C139.02 113.098 139.159 112.799 139.234 112.447L140.418 112.863C140.236 113.354 139.986 113.775 139.666 114.127C139.356 114.479 138.978 114.751 138.53 114.943C138.092 115.125 137.591 115.215 137.026 115.215C136.279 115.215 135.612 115.05 135.026 114.719C134.439 114.389 133.98 113.914 133.65 113.295C133.319 112.666 133.154 111.919 133.154 111.055C133.154 110.191 133.319 109.45 133.65 108.831C133.98 108.202 134.439 107.722 135.026 107.391C135.612 107.061 136.279 106.895 137.026 106.895ZM142.233 115.055V107.055H143.273L143.449 108.367C143.673 107.877 143.998 107.509 144.425 107.263C144.862 107.018 145.39 106.895 146.009 106.895C146.147 106.895 146.297 106.906 146.457 106.927C146.627 106.949 146.771 106.991 146.889 107.055L146.665 108.223C146.547 108.181 146.419 108.149 146.281 108.127C146.142 108.106 145.945 108.095 145.689 108.095C145.358 108.095 145.022 108.191 144.681 108.383C144.35 108.575 144.073 108.869 143.849 109.263C143.625 109.647 143.513 110.138 143.513 110.735V115.055H142.233ZM151.424 115.215C150.667 115.215 149.989 115.05 149.392 114.719C148.805 114.389 148.347 113.914 148.016 113.295C147.685 112.666 147.52 111.919 147.52 111.055C147.52 110.191 147.685 109.45 148.016 108.831C148.347 108.202 148.8 107.722 149.376 107.391C149.952 107.061 150.608 106.895 151.344 106.895C152.091 106.895 152.725 107.055 153.248 107.375C153.781 107.695 154.187 108.133 154.464 108.687C154.741 109.231 154.88 109.845 154.88 110.527C154.88 110.709 154.875 110.874 154.864 111.023C154.853 111.173 154.837 111.306 154.816 111.423H148.352V110.287H154.256L153.6 110.415C153.6 109.647 153.387 109.055 152.96 108.639C152.544 108.223 151.995 108.015 151.312 108.015C150.789 108.015 150.336 108.138 149.952 108.383C149.579 108.618 149.285 108.965 149.072 109.423C148.869 109.871 148.768 110.415 148.768 111.055C148.768 111.685 148.875 112.229 149.088 112.687C149.301 113.146 149.6 113.498 149.984 113.743C150.379 113.978 150.848 114.095 151.392 114.095C151.979 114.095 152.453 113.983 152.816 113.759C153.189 113.535 153.488 113.231 153.712 112.847L154.72 113.439C154.517 113.802 154.256 114.117 153.936 114.383C153.627 114.65 153.259 114.858 152.832 115.007C152.416 115.146 151.947 115.215 151.424 115.215ZM160 115.215C159.339 115.215 158.731 115.05 158.176 114.719C157.622 114.389 157.179 113.914 156.848 113.295C156.518 112.666 156.352 111.919 156.352 111.055C156.352 110.17 156.528 109.418 156.88 108.799C157.232 108.181 157.696 107.711 158.272 107.391C158.848 107.061 159.467 106.895 160.128 106.895C160.79 106.895 161.36 107.066 161.84 107.407C162.331 107.749 162.656 108.202 162.816 108.767L162.656 108.879V103.375H163.936V115.055H162.816L162.704 113.119L162.88 113.023C162.806 113.493 162.624 113.893 162.336 114.223C162.059 114.543 161.712 114.789 161.296 114.959C160.891 115.13 160.459 115.215 160 115.215ZM160.128 114.095C160.64 114.095 161.083 113.967 161.456 113.711C161.84 113.455 162.134 113.093 162.336 112.623C162.55 112.143 162.656 111.583 162.656 110.943C162.656 110.335 162.55 109.813 162.336 109.375C162.134 108.938 161.846 108.602 161.472 108.367C161.11 108.133 160.683 108.015 160.192 108.015C159.382 108.015 158.752 108.293 158.304 108.847C157.856 109.402 157.632 110.138 157.632 111.055C157.632 111.973 157.851 112.709 158.288 113.263C158.726 113.818 159.339 114.095 160.128 114.095ZM169.821 115.215C169.064 115.215 168.387 115.05 167.789 114.719C167.203 114.389 166.744 113.914 166.413 113.295C166.083 112.666 165.917 111.919 165.917 111.055C165.917 110.191 166.083 109.45 166.413 108.831C166.744 108.202 167.197 107.722 167.773 107.391C168.349 107.061 169.005 106.895 169.741 106.895C170.488 106.895 171.123 107.055 171.645 107.375C172.179 107.695 172.584 108.133 172.861 108.687C173.139 109.231 173.277 109.845 173.277 110.527C173.277 110.709 173.272 110.874 173.261 111.023C173.251 111.173 173.235 111.306 173.213 111.423H166.749V110.287H172.653L171.997 110.415C171.997 109.647 171.784 109.055 171.357 108.639C170.941 108.223 170.392 108.015 169.709 108.015C169.187 108.015 168.733 108.138 168.349 108.383C167.976 108.618 167.683 108.965 167.469 109.423C167.267 109.871 167.165 110.415 167.165 111.055C167.165 111.685 167.272 112.229 167.485 112.687C167.699 113.146 167.997 113.498 168.381 113.743C168.776 113.978 169.245 114.095 169.789 114.095C170.376 114.095 170.851 113.983 171.213 113.759C171.587 113.535 171.885 113.231 172.109 112.847L173.117 113.439C172.915 113.802 172.653 114.117 172.333 114.383C172.024 114.65 171.656 114.858 171.229 115.007C170.813 115.146 170.344 115.215 169.821 115.215ZM175.278 115.055V107.055H176.398L176.51 108.847L176.302 108.671C176.472 108.245 176.702 107.903 176.99 107.647C177.278 107.381 177.608 107.189 177.982 107.071C178.366 106.954 178.76 106.895 179.166 106.895C179.742 106.895 180.264 107.007 180.734 107.231C181.203 107.445 181.576 107.775 181.854 108.223C182.142 108.671 182.286 109.242 182.286 109.935V115.055H181.006V110.383C181.006 109.498 180.814 108.885 180.43 108.543C180.056 108.191 179.592 108.015 179.038 108.015C178.654 108.015 178.27 108.106 177.886 108.287C177.502 108.469 177.182 108.762 176.926 109.167C176.68 109.573 176.558 110.117 176.558 110.799V115.055H175.278ZM186.528 104.783V112.847C186.528 113.242 186.64 113.535 186.864 113.727C187.088 113.919 187.376 114.015 187.728 114.015C188.038 114.015 188.304 113.962 188.528 113.855C188.752 113.749 188.955 113.605 189.136 113.423L189.584 114.495C189.339 114.719 189.046 114.895 188.704 115.023C188.374 115.151 187.99 115.215 187.552 115.215C187.147 115.215 186.768 115.146 186.416 115.007C186.064 114.858 185.782 114.629 185.568 114.319C185.366 113.999 185.259 113.583 185.248 113.071V105.135L186.528 104.783ZM189.44 107.055V108.159H183.648V107.055H189.44ZM191.549 105.519C191.261 105.519 191.027 105.434 190.845 105.263C190.675 105.082 190.589 104.847 190.589 104.559C190.589 104.271 190.675 104.042 190.845 103.871C191.027 103.69 191.261 103.599 191.549 103.599C191.837 103.599 192.067 103.69 192.237 103.871C192.419 104.042 192.509 104.271 192.509 104.559C192.509 104.847 192.419 105.082 192.237 105.263C192.067 105.434 191.837 105.519 191.549 105.519ZM192.189 107.055V115.055H190.909V107.055H192.189ZM199.397 109.887C199.397 109.29 199.237 108.831 198.917 108.511C198.597 108.181 198.144 108.015 197.557 108.015C197.003 108.015 196.533 108.138 196.149 108.383C195.765 108.618 195.483 109.002 195.301 109.535L194.261 108.895C194.475 108.298 194.869 107.818 195.445 107.455C196.021 107.082 196.736 106.895 197.589 106.895C198.165 106.895 198.688 106.997 199.157 107.199C199.627 107.391 199.995 107.69 200.261 108.095C200.539 108.49 200.677 109.002 200.677 109.631V113.503C200.677 113.887 200.88 114.079 201.285 114.079C201.488 114.079 201.685 114.053 201.877 113.999L201.813 115.007C201.6 115.114 201.323 115.167 200.981 115.167C200.672 115.167 200.395 115.109 200.149 114.991C199.904 114.874 199.712 114.698 199.573 114.463C199.435 114.218 199.365 113.914 199.365 113.551V113.391L199.685 113.439C199.557 113.855 199.339 114.197 199.029 114.463C198.72 114.719 198.373 114.911 197.989 115.039C197.605 115.157 197.227 115.215 196.853 115.215C196.384 115.215 195.947 115.135 195.541 114.975C195.136 114.815 194.811 114.575 194.565 114.255C194.331 113.925 194.213 113.519 194.213 113.039C194.213 112.442 194.411 111.951 194.805 111.567C195.211 111.173 195.771 110.906 196.485 110.767L199.653 110.143V111.199L197.077 111.727C196.555 111.834 196.165 111.983 195.909 112.175C195.653 112.367 195.525 112.634 195.525 112.975C195.525 113.306 195.653 113.578 195.909 113.791C196.176 113.994 196.549 114.095 197.029 114.095C197.339 114.095 197.632 114.058 197.909 113.983C198.197 113.898 198.453 113.775 198.677 113.615C198.901 113.445 199.077 113.237 199.205 112.991C199.333 112.735 199.397 112.437 199.397 112.095V109.887ZM204.57 103.375V113.023C204.57 113.429 204.644 113.711 204.794 113.871C204.943 114.021 205.183 114.095 205.514 114.095C205.727 114.095 205.903 114.079 206.042 114.047C206.18 114.015 206.367 113.957 206.602 113.871L206.394 114.991C206.223 115.066 206.036 115.119 205.834 115.151C205.631 115.194 205.423 115.215 205.21 115.215C204.559 115.215 204.074 115.039 203.754 114.687C203.444 114.335 203.29 113.797 203.29 113.071V103.375H204.57ZM210.69 115.215C209.911 115.215 209.191 115.05 208.53 114.719C207.879 114.389 207.378 113.919 207.026 113.311L208.114 112.527C208.349 113.018 208.69 113.402 209.138 113.679C209.597 113.957 210.146 114.095 210.786 114.095C211.351 114.095 211.794 113.989 212.114 113.775C212.434 113.551 212.594 113.263 212.594 112.911C212.594 112.687 212.519 112.485 212.37 112.303C212.231 112.111 211.959 111.973 211.554 111.887L209.634 111.487C208.855 111.327 208.295 111.061 207.954 110.687C207.623 110.314 207.458 109.85 207.458 109.295C207.458 108.858 207.581 108.458 207.826 108.095C208.082 107.733 208.439 107.445 208.898 107.231C209.367 107.007 209.917 106.895 210.546 106.895C211.335 106.895 212.002 107.05 212.546 107.359C213.09 107.669 213.495 108.106 213.762 108.671L212.69 109.375C212.509 108.906 212.215 108.565 211.81 108.351C211.405 108.127 210.983 108.015 210.546 108.015C210.162 108.015 209.831 108.069 209.554 108.175C209.287 108.282 209.079 108.431 208.93 108.623C208.791 108.805 208.722 109.013 208.722 109.247C208.722 109.482 208.802 109.701 208.962 109.903C209.122 110.095 209.421 110.234 209.858 110.319L211.858 110.735C212.605 110.885 213.127 111.13 213.426 111.471C213.725 111.813 213.874 112.229 213.874 112.719C213.874 113.221 213.741 113.663 213.474 114.047C213.207 114.421 212.834 114.709 212.354 114.911C211.874 115.114 211.319 115.215 210.69 115.215Z" fill="#181B5E"/>
            <path d="M467.575 904.057H53.5752V977.057H467.575V904.057Z" fill="white"/>
            <g opacity="0.6">
                <path opacity="0.6" d="M369.39 950.017C370.086 950.017 370.686 950.161 371.19 950.449C371.694 950.729 372.114 951.145 372.45 951.697L371.646 952.321C371.35 951.809 371.014 951.449 370.638 951.241C370.27 951.025 369.822 950.917 369.294 950.917C368.87 950.917 368.518 950.977 368.238 951.097C367.966 951.217 367.766 951.377 367.638 951.577C367.51 951.769 367.446 951.989 367.446 952.237C367.446 952.517 367.534 952.765 367.71 952.981C367.886 953.189 368.238 953.353 368.766 953.473L370.482 953.857C371.242 954.025 371.77 954.281 372.066 954.625C372.37 954.961 372.522 955.381 372.522 955.885C372.522 956.333 372.394 956.733 372.138 957.085C371.89 957.429 371.538 957.697 371.082 957.889C370.626 958.081 370.09 958.177 369.474 958.177C368.898 958.177 368.39 958.101 367.95 957.949C367.518 957.789 367.146 957.577 366.834 957.313C366.522 957.049 366.266 956.753 366.066 956.425L366.906 955.741C367.058 956.045 367.254 956.313 367.494 956.545C367.734 956.777 368.022 956.957 368.358 957.085C368.702 957.213 369.094 957.277 369.534 957.277C369.942 957.277 370.294 957.229 370.59 957.133C370.894 957.029 371.126 956.881 371.286 956.689C371.446 956.489 371.526 956.249 371.526 955.969C371.526 955.713 371.442 955.485 371.274 955.285C371.106 955.077 370.79 954.921 370.326 954.817L368.466 954.397C367.978 954.285 367.582 954.133 367.278 953.941C366.982 953.741 366.766 953.509 366.63 953.245C366.502 952.973 366.438 952.681 366.438 952.369C366.438 951.945 366.554 951.557 366.786 951.205C367.026 950.845 367.366 950.557 367.806 950.341C368.254 950.125 368.782 950.017 369.39 950.017ZM376.861 958.177C376.293 958.177 375.785 958.053 375.337 957.805C374.897 957.557 374.553 957.201 374.305 956.737C374.057 956.265 373.933 955.705 373.933 955.057C373.933 954.409 374.057 953.853 374.305 953.389C374.553 952.917 374.893 952.557 375.325 952.309C375.757 952.061 376.249 951.937 376.801 951.937C377.361 951.937 377.837 952.057 378.229 952.297C378.629 952.537 378.933 952.865 379.141 953.281C379.349 953.689 379.453 954.149 379.453 954.661C379.453 954.797 379.449 954.921 379.441 955.033C379.433 955.145 379.421 955.245 379.405 955.333H374.557V954.481H378.985L378.493 954.577C378.493 954.001 378.333 953.557 378.013 953.245C377.701 952.933 377.289 952.777 376.777 952.777C376.385 952.777 376.045 952.869 375.757 953.053C375.477 953.229 375.257 953.489 375.097 953.833C374.945 954.169 374.869 954.577 374.869 955.057C374.869 955.529 374.949 955.937 375.109 956.281C375.269 956.625 375.493 956.889 375.781 957.073C376.077 957.249 376.429 957.337 376.837 957.337C377.277 957.337 377.633 957.253 377.905 957.085C378.185 956.917 378.409 956.689 378.577 956.401L379.333 956.845C379.181 957.117 378.985 957.353 378.745 957.553C378.513 957.753 378.237 957.909 377.917 958.021C377.605 958.125 377.253 958.177 376.861 958.177ZM382.519 950.353V956.401C382.519 956.697 382.603 956.917 382.771 957.061C382.939 957.205 383.155 957.277 383.419 957.277C383.651 957.277 383.851 957.237 384.019 957.157C384.187 957.077 384.339 956.969 384.475 956.833L384.811 957.637C384.627 957.805 384.407 957.937 384.151 958.033C383.903 958.129 383.615 958.177 383.287 958.177C382.983 958.177 382.699 958.125 382.435 958.021C382.171 957.909 381.959 957.737 381.799 957.505C381.647 957.265 381.567 956.953 381.559 956.569V950.617L382.519 950.353ZM384.703 952.057V952.885H380.359V952.057H384.703ZM386.773 950.353V956.401C386.773 956.697 386.857 956.917 387.025 957.061C387.193 957.205 387.409 957.277 387.673 957.277C387.905 957.277 388.105 957.237 388.273 957.157C388.441 957.077 388.593 956.969 388.729 956.833L389.065 957.637C388.881 957.805 388.661 957.937 388.405 958.033C388.157 958.129 387.869 958.177 387.541 958.177C387.237 958.177 386.953 958.125 386.689 958.021C386.425 957.909 386.213 957.737 386.053 957.505C385.901 957.265 385.821 956.953 385.813 956.569V950.617L386.773 950.353ZM388.957 952.057V952.885H384.613V952.057H388.957ZM390.864 950.905C390.648 950.905 390.472 950.841 390.336 950.713C390.208 950.577 390.144 950.401 390.144 950.185C390.144 949.969 390.208 949.797 390.336 949.669C390.472 949.533 390.648 949.465 390.864 949.465C391.08 949.465 391.252 949.533 391.38 949.669C391.516 949.797 391.584 949.969 391.584 950.185C391.584 950.401 391.516 950.577 391.38 950.713C391.252 950.841 391.08 950.905 390.864 950.905ZM391.344 952.057V958.057H390.384V952.057H391.344ZM393.572 958.057V952.057H394.412L394.496 953.401L394.34 953.269C394.468 952.949 394.64 952.693 394.856 952.501C395.072 952.301 395.32 952.157 395.6 952.069C395.888 951.981 396.184 951.937 396.488 951.937C396.92 951.937 397.312 952.021 397.664 952.189C398.016 952.349 398.296 952.597 398.504 952.933C398.72 953.269 398.828 953.697 398.828 954.217V958.057H397.868V954.553C397.868 953.889 397.724 953.429 397.436 953.173C397.156 952.909 396.808 952.777 396.392 952.777C396.104 952.777 395.816 952.845 395.528 952.981C395.24 953.117 395 953.337 394.808 953.641C394.624 953.945 394.532 954.353 394.532 954.865V958.057H393.572ZM406.054 950.953L406.27 951.805C406.262 951.805 406.25 951.805 406.234 951.805C406.218 951.805 406.202 951.805 406.186 951.805C405.794 951.805 405.49 951.885 405.274 952.045C405.066 952.197 404.962 952.445 404.962 952.789L404.374 952.489C404.374 952.177 404.446 951.905 404.59 951.673C404.734 951.441 404.93 951.265 405.178 951.145C405.426 951.017 405.698 950.953 405.994 950.953C406.002 950.953 406.01 950.953 406.018 950.953C406.034 950.953 406.046 950.953 406.054 950.953ZM404.23 957.289C404.798 957.289 405.242 957.421 405.562 957.685C405.882 957.941 406.042 958.285 406.042 958.717C406.042 959.109 405.91 959.449 405.646 959.737C405.39 960.025 405.042 960.245 404.602 960.397C404.17 960.557 403.682 960.637 403.138 960.637C402.194 960.637 401.486 960.477 401.014 960.157C400.55 959.837 400.318 959.453 400.318 959.005C400.318 958.685 400.422 958.397 400.63 958.141C400.846 957.893 401.206 957.753 401.71 957.721L401.626 957.901C401.354 957.829 401.122 957.709 400.93 957.541C400.746 957.365 400.654 957.113 400.654 956.785C400.654 956.457 400.774 956.177 401.014 955.945C401.262 955.705 401.626 955.557 402.106 955.501L402.742 955.825H402.622C402.23 955.865 401.95 955.965 401.782 956.125C401.622 956.277 401.542 956.445 401.542 956.629C401.542 956.853 401.622 957.021 401.782 957.133C401.95 957.237 402.182 957.289 402.478 957.289H404.23ZM403.126 959.833C403.59 959.833 403.97 959.785 404.266 959.689C404.57 959.593 404.794 959.469 404.938 959.317C405.082 959.165 405.154 959.001 405.154 958.825C405.154 958.609 405.066 958.437 404.89 958.309C404.722 958.181 404.414 958.117 403.966 958.117H402.118C401.862 958.117 401.646 958.181 401.47 958.309C401.294 958.445 401.206 958.629 401.206 958.861C401.206 959.157 401.374 959.393 401.71 959.569C402.054 959.745 402.526 959.833 403.126 959.833ZM403.042 951.937C403.522 951.937 403.946 952.025 404.314 952.201C404.69 952.369 404.982 952.605 405.19 952.909C405.398 953.213 405.502 953.565 405.502 953.965C405.502 954.357 405.398 954.709 405.19 955.021C404.982 955.325 404.69 955.565 404.314 955.741C403.946 955.909 403.522 955.993 403.042 955.993C402.25 955.993 401.642 955.805 401.218 955.429C400.794 955.045 400.582 954.557 400.582 953.965C400.582 953.565 400.686 953.213 400.894 952.909C401.11 952.605 401.402 952.369 401.77 952.201C402.138 952.025 402.562 951.937 403.042 951.937ZM403.042 952.717C402.626 952.717 402.278 952.833 401.998 953.065C401.718 953.289 401.578 953.589 401.578 953.965C401.578 954.333 401.718 954.633 401.998 954.865C402.278 955.097 402.626 955.213 403.042 955.213C403.458 955.213 403.806 955.097 404.086 954.865C404.366 954.633 404.506 954.333 404.506 953.965C404.506 953.589 404.366 953.289 404.086 953.065C403.806 952.833 403.458 952.717 403.042 952.717ZM409.548 958.177C408.964 958.177 408.424 958.053 407.928 957.805C407.44 957.557 407.064 957.205 406.8 956.749L407.616 956.161C407.792 956.529 408.048 956.817 408.384 957.025C408.728 957.233 409.14 957.337 409.62 957.337C410.044 957.337 410.376 957.257 410.616 957.097C410.856 956.929 410.976 956.713 410.976 956.449C410.976 956.281 410.92 956.129 410.808 955.993C410.704 955.849 410.5 955.745 410.196 955.681L408.756 955.381C408.172 955.261 407.752 955.061 407.496 954.781C407.248 954.501 407.124 954.153 407.124 953.737C407.124 953.409 407.216 953.109 407.4 952.837C407.592 952.565 407.86 952.349 408.204 952.189C408.556 952.021 408.968 951.937 409.44 951.937C410.032 951.937 410.532 952.053 410.94 952.285C411.348 952.517 411.652 952.845 411.852 953.269L411.048 953.797C410.912 953.445 410.692 953.189 410.388 953.029C410.084 952.861 409.768 952.777 409.44 952.777C409.152 952.777 408.904 952.817 408.696 952.897C408.496 952.977 408.34 953.089 408.228 953.233C408.124 953.369 408.072 953.525 408.072 953.701C408.072 953.877 408.132 954.041 408.252 954.193C408.372 954.337 408.596 954.441 408.924 954.505L410.424 954.817C410.984 954.929 411.376 955.113 411.6 955.369C411.824 955.625 411.936 955.937 411.936 956.305C411.936 956.681 411.836 957.013 411.636 957.301C411.436 957.581 411.156 957.797 410.796 957.949C410.436 958.101 410.02 958.177 409.548 958.177Z" fill="#6F6F6F"/>
                <path opacity="0.6" fill-rule="evenodd" clip-rule="evenodd" d="M378.075 924.558C378.075 922.349 379.866 920.558 382.075 920.558H397.075C399.284 920.558 401.075 922.349 401.075 924.558V939.558C401.075 941.767 399.284 943.558 397.075 943.558H382.075C379.866 943.558 378.075 941.767 378.075 939.558V924.558Z" stroke="#181B5E" stroke-linecap="round" stroke-linejoin="round"/>
                <path opacity="0.6" fill-rule="evenodd" clip-rule="evenodd" d="M389.575 935.058C390.956 935.058 392.075 933.939 392.075 932.558C392.075 931.177 390.956 930.058 389.575 930.058C388.194 930.058 387.075 931.177 387.075 932.558C387.075 933.939 388.194 935.058 389.575 935.058Z" stroke="#181B5E" stroke-linecap="round" stroke-linejoin="round"/>
                <path opacity="0.6" fill-rule="evenodd" clip-rule="evenodd" d="M394.961 931.469L395.646 931.069C396.124 930.793 396.288 930.181 396.012 929.703L395.262 928.403C394.986 927.925 394.374 927.761 393.896 928.037L393.212 928.431C392.661 927.945 392.02 927.574 391.324 927.339V926.557C391.324 926.005 390.876 925.557 390.324 925.557H388.824C388.272 925.557 387.824 926.005 387.824 926.557V927.357C387.129 927.587 386.488 927.955 385.939 928.438L385.254 928.038C384.776 927.762 384.164 927.926 383.888 928.404L383.138 929.704C382.862 930.182 383.025 930.793 383.503 931.07L384.187 931.47C384.04 932.188 384.04 932.929 384.187 933.648L383.502 934.043C383.024 934.319 382.86 934.931 383.136 935.409L383.886 936.709C384.162 937.187 384.774 937.351 385.252 937.075L385.936 936.68C386.486 937.165 387.127 937.537 387.822 937.772V938.557C387.822 939.109 388.27 939.557 388.822 939.557H390.322C390.874 939.557 391.322 939.109 391.322 938.557V937.764C392.017 937.532 392.659 937.162 393.208 936.677L393.894 937.077C394.372 937.353 394.984 937.189 395.26 936.711L396.01 935.411C396.286 934.933 396.122 934.321 395.644 934.045L394.96 933.651C395.108 932.931 395.108 932.189 394.961 931.469Z" stroke="#181B5E" stroke-linecap="round" stroke-linejoin="round"/>
            </g>
            <path d="M106.922 956.028C106.754 956.476 106.514 956.864 106.202 957.192C105.89 957.512 105.522 957.756 105.098 957.924C104.682 958.092 104.226 958.176 103.73 958.176C102.978 958.176 102.326 958.012 101.774 957.684C101.23 957.348 100.806 956.876 100.502 956.268C100.206 955.66 100.058 954.936 100.058 954.096C100.058 953.256 100.206 952.532 100.502 951.924C100.806 951.316 101.23 950.848 101.774 950.52C102.326 950.184 102.97 950.016 103.706 950.016C104.218 950.016 104.674 950.088 105.074 950.232C105.474 950.368 105.814 950.576 106.094 950.856C106.382 951.128 106.61 951.464 106.778 951.864L105.83 952.308C105.654 951.852 105.398 951.508 105.062 951.276C104.734 951.036 104.306 950.916 103.778 950.916C103.242 950.916 102.77 951.044 102.362 951.3C101.954 951.548 101.634 951.908 101.402 952.38C101.178 952.852 101.066 953.424 101.066 954.096C101.066 954.76 101.174 955.332 101.39 955.812C101.606 956.284 101.914 956.648 102.314 956.904C102.714 957.152 103.186 957.276 103.73 957.276C104.258 957.276 104.718 957.144 105.11 956.88C105.502 956.608 105.786 956.204 105.962 955.668L106.922 956.028ZM108.585 958.056V952.056H109.365L109.497 953.04C109.665 952.672 109.909 952.396 110.229 952.212C110.557 952.028 110.953 951.936 111.417 951.936C111.521 951.936 111.633 951.944 111.753 951.96C111.881 951.976 111.989 952.008 112.077 952.056L111.909 952.932C111.821 952.9 111.725 952.876 111.621 952.86C111.517 952.844 111.369 952.836 111.177 952.836C110.929 952.836 110.677 952.908 110.421 953.052C110.173 953.196 109.965 953.416 109.797 953.712C109.629 954 109.545 954.368 109.545 954.816V958.056H108.585ZM115.804 958.176C115.236 958.176 114.728 958.052 114.28 957.804C113.84 957.556 113.496 957.2 113.248 956.736C113 956.264 112.876 955.704 112.876 955.056C112.876 954.408 113 953.852 113.248 953.388C113.496 952.916 113.836 952.556 114.268 952.308C114.7 952.06 115.192 951.936 115.744 951.936C116.304 951.936 116.78 952.056 117.172 952.296C117.572 952.536 117.876 952.864 118.084 953.28C118.292 953.688 118.396 954.148 118.396 954.66C118.396 954.796 118.392 954.92 118.384 955.032C118.376 955.144 118.364 955.244 118.348 955.332H113.5V954.48H117.928L117.436 954.576C117.436 954 117.276 953.556 116.956 953.244C116.644 952.932 116.232 952.776 115.72 952.776C115.328 952.776 114.988 952.868 114.7 953.052C114.42 953.228 114.2 953.488 114.04 953.832C113.888 954.168 113.812 954.576 113.812 955.056C113.812 955.528 113.892 955.936 114.052 956.28C114.212 956.624 114.436 956.888 114.724 957.072C115.02 957.248 115.372 957.336 115.78 957.336C116.22 957.336 116.576 957.252 116.848 957.084C117.128 956.916 117.352 956.688 117.52 956.4L118.276 956.844C118.124 957.116 117.928 957.352 117.688 957.552C117.456 957.752 117.18 957.908 116.86 958.02C116.548 958.124 116.196 958.176 115.804 958.176ZM122.561 958.176C122.065 958.176 121.609 958.052 121.194 957.804C120.778 957.556 120.446 957.2 120.198 956.736C119.95 956.264 119.826 955.704 119.826 955.056C119.826 954.392 119.958 953.828 120.222 953.364C120.486 952.9 120.834 952.548 121.266 952.308C121.697 952.06 122.161 951.936 122.657 951.936C123.153 951.936 123.581 952.064 123.941 952.32C124.309 952.576 124.553 952.916 124.673 953.34L124.553 953.424V949.296H125.513V958.056H124.673L124.589 956.604L124.721 956.532C124.665 956.884 124.529 957.184 124.313 957.432C124.105 957.672 123.845 957.856 123.533 957.984C123.229 958.112 122.905 958.176 122.561 958.176ZM122.657 957.336C123.041 957.336 123.373 957.24 123.653 957.048C123.941 956.856 124.161 956.584 124.313 956.232C124.473 955.872 124.553 955.452 124.553 954.972C124.553 954.516 124.473 954.124 124.313 953.796C124.161 953.468 123.945 953.216 123.665 953.04C123.393 952.864 123.073 952.776 122.705 952.776C122.097 952.776 121.625 952.984 121.29 953.4C120.954 953.816 120.786 954.368 120.786 955.056C120.786 955.744 120.95 956.296 121.278 956.712C121.605 957.128 122.065 957.336 122.657 957.336ZM130.253 958.176C129.685 958.176 129.177 958.052 128.729 957.804C128.289 957.556 127.945 957.2 127.697 956.736C127.449 956.264 127.325 955.704 127.325 955.056C127.325 954.408 127.449 953.852 127.697 953.388C127.945 952.916 128.285 952.556 128.717 952.308C129.149 952.06 129.641 951.936 130.193 951.936C130.753 951.936 131.229 952.056 131.621 952.296C132.021 952.536 132.325 952.864 132.533 953.28C132.741 953.688 132.845 954.148 132.845 954.66C132.845 954.796 132.841 954.92 132.833 955.032C132.825 955.144 132.813 955.244 132.797 955.332H127.949V954.48H132.377L131.885 954.576C131.885 954 131.725 953.556 131.405 953.244C131.093 952.932 130.681 952.776 130.169 952.776C129.777 952.776 129.437 952.868 129.149 953.052C128.869 953.228 128.649 953.488 128.489 953.832C128.337 954.168 128.261 954.576 128.261 955.056C128.261 955.528 128.341 955.936 128.501 956.28C128.661 956.624 128.885 956.888 129.173 957.072C129.469 957.248 129.821 957.336 130.229 957.336C130.669 957.336 131.025 957.252 131.297 957.084C131.577 956.916 131.801 956.688 131.969 956.4L132.725 956.844C132.573 957.116 132.377 957.352 132.137 957.552C131.905 957.752 131.629 957.908 131.309 958.02C130.997 958.124 130.645 958.176 130.253 958.176ZM134.671 958.056V952.056H135.511L135.595 953.4L135.439 953.268C135.567 952.948 135.739 952.692 135.955 952.5C136.171 952.3 136.419 952.156 136.699 952.068C136.987 951.98 137.283 951.936 137.587 951.936C138.019 951.936 138.411 952.02 138.763 952.188C139.115 952.348 139.395 952.596 139.603 952.932C139.819 953.268 139.927 953.696 139.927 954.216V958.056H138.967V954.552C138.967 953.888 138.823 953.428 138.535 953.172C138.255 952.908 137.907 952.776 137.491 952.776C137.203 952.776 136.915 952.844 136.627 952.98C136.339 953.116 136.099 953.336 135.907 953.64C135.723 953.944 135.631 954.352 135.631 954.864V958.056H134.671ZM143.434 950.352V956.4C143.434 956.696 143.518 956.916 143.686 957.06C143.854 957.204 144.07 957.276 144.334 957.276C144.566 957.276 144.766 957.236 144.934 957.156C145.102 957.076 145.254 956.968 145.39 956.832L145.726 957.636C145.542 957.804 145.322 957.936 145.066 958.032C144.818 958.128 144.53 958.176 144.202 958.176C143.898 958.176 143.614 958.124 143.35 958.02C143.086 957.908 142.874 957.736 142.714 957.504C142.562 957.264 142.482 956.952 142.474 956.568V950.616L143.434 950.352ZM145.618 952.056V952.884H141.274V952.056H145.618ZM147.526 950.904C147.31 950.904 147.134 950.84 146.998 950.712C146.87 950.576 146.806 950.4 146.806 950.184C146.806 949.968 146.87 949.796 146.998 949.668C147.134 949.532 147.31 949.464 147.526 949.464C147.742 949.464 147.914 949.532 148.042 949.668C148.178 949.796 148.246 949.968 148.246 950.184C148.246 950.4 148.178 950.576 148.042 950.712C147.914 950.84 147.742 950.904 147.526 950.904ZM148.006 952.056V958.056H147.046V952.056H148.006ZM153.737 954.18C153.737 953.732 153.617 953.388 153.377 953.148C153.137 952.9 152.797 952.776 152.357 952.776C151.941 952.776 151.589 952.868 151.301 953.052C151.013 953.228 150.801 953.516 150.665 953.916L149.885 953.436C150.045 952.988 150.341 952.628 150.773 952.356C151.205 952.076 151.741 951.936 152.381 951.936C152.813 951.936 153.205 952.012 153.557 952.164C153.909 952.308 154.185 952.532 154.385 952.836C154.593 953.132 154.697 953.516 154.697 953.988V956.892C154.697 957.18 154.849 957.324 155.153 957.324C155.305 957.324 155.453 957.304 155.597 957.264L155.549 958.02C155.389 958.1 155.181 958.14 154.925 958.14C154.693 958.14 154.485 958.096 154.301 958.008C154.117 957.92 153.973 957.788 153.869 957.612C153.765 957.428 153.713 957.2 153.713 956.928V956.808L153.953 956.844C153.857 957.156 153.693 957.412 153.461 957.612C153.229 957.804 152.969 957.948 152.681 958.044C152.393 958.132 152.109 958.176 151.829 958.176C151.477 958.176 151.149 958.116 150.845 957.996C150.541 957.876 150.297 957.696 150.113 957.456C149.937 957.208 149.849 956.904 149.849 956.544C149.849 956.096 149.997 955.728 150.293 955.44C150.597 955.144 151.017 954.944 151.553 954.84L153.929 954.372V955.164L151.997 955.56C151.605 955.64 151.313 955.752 151.121 955.896C150.929 956.04 150.833 956.24 150.833 956.496C150.833 956.744 150.929 956.948 151.121 957.108C151.321 957.26 151.601 957.336 151.961 957.336C152.193 957.336 152.413 957.308 152.621 957.252C152.837 957.188 153.029 957.096 153.197 956.976C153.365 956.848 153.497 956.692 153.593 956.508C153.689 956.316 153.737 956.092 153.737 955.836V954.18ZM157.942 949.296V956.532C157.942 956.836 157.998 957.048 158.11 957.168C158.222 957.28 158.402 957.336 158.65 957.336C158.81 957.336 158.942 957.324 159.046 957.3C159.15 957.276 159.29 957.232 159.466 957.168L159.31 958.008C159.182 958.064 159.042 958.104 158.89 958.128C158.738 958.16 158.582 958.176 158.422 958.176C157.934 958.176 157.57 958.044 157.33 957.78C157.098 957.516 156.982 957.112 156.982 956.568V949.296H157.942ZM162.858 958.176C162.274 958.176 161.734 958.052 161.238 957.804C160.75 957.556 160.374 957.204 160.11 956.748L160.926 956.16C161.102 956.528 161.358 956.816 161.694 957.024C162.038 957.232 162.45 957.336 162.93 957.336C163.354 957.336 163.686 957.256 163.926 957.096C164.166 956.928 164.286 956.712 164.286 956.448C164.286 956.28 164.23 956.128 164.118 955.992C164.014 955.848 163.81 955.744 163.506 955.68L162.066 955.38C161.482 955.26 161.062 955.06 160.806 954.78C160.558 954.5 160.434 954.152 160.434 953.736C160.434 953.408 160.526 953.108 160.71 952.836C160.902 952.564 161.17 952.348 161.514 952.188C161.866 952.02 162.278 951.936 162.75 951.936C163.342 951.936 163.842 952.052 164.25 952.284C164.658 952.516 164.962 952.844 165.162 953.268L164.358 953.796C164.222 953.444 164.002 953.188 163.698 953.028C163.394 952.86 163.078 952.776 162.75 952.776C162.462 952.776 162.214 952.816 162.006 952.896C161.806 952.976 161.65 953.088 161.538 953.232C161.434 953.368 161.382 953.524 161.382 953.7C161.382 953.876 161.442 954.04 161.562 954.192C161.682 954.336 161.906 954.44 162.234 954.504L163.734 954.816C164.294 954.928 164.686 955.112 164.91 955.368C165.134 955.624 165.246 955.936 165.246 956.304C165.246 956.68 165.146 957.012 164.946 957.3C164.746 957.58 164.466 957.796 164.106 957.948C163.746 958.1 163.33 958.176 162.858 958.176Z" fill="#6F6F6F"/>
            <path d="M121.075 927.557H144.075" stroke="#181B5E" stroke-linecap="round" stroke-linejoin="round"/>
            <path d="M135.075 923.557H143.075C143.627 923.557 144.075 924.005 144.075 924.557V939.557C144.075 940.109 143.627 940.557 143.075 940.557H122.075C121.523 940.557 121.075 940.109 121.075 939.557V924.557C121.075 924.005 121.523 923.557 122.075 923.557H130.075" stroke="#181B5E" stroke-linecap="round" stroke-linejoin="round"/>
            <path d="M135.575 932.557H141.575" stroke="#181B5E" stroke-linecap="round" stroke-linejoin="round"/>
            <path d="M135.575 935.557H139.075" stroke="#181B5E" stroke-linecap="round" stroke-linejoin="round"/>
            <path d="M133.538 938.056C133.13 937.426 131.777 936.968 130.083 936.341C129.605 936.163 129.683 934.915 129.895 934.682C130.577 933.943 130.911 932.948 130.813 931.948C130.872 931.324 130.66 930.706 130.232 930.248C129.805 929.791 129.201 929.539 128.575 929.556C127.949 929.539 127.346 929.791 126.918 930.248C126.49 930.706 126.278 931.324 126.337 931.948C126.239 932.948 126.573 933.943 127.255 934.682C127.467 934.915 127.545 936.163 127.067 936.341C125.375 936.968 124.02 937.426 123.612 938.056" stroke="#181B5E" stroke-linecap="round" stroke-linejoin="round"/>
            <path fill-rule="evenodd" clip-rule="evenodd" d="M135.075 925.057C135.075 925.333 134.851 925.557 134.575 925.557H130.575C130.299 925.557 130.075 925.333 130.075 925.057V922.057C130.075 920.676 131.194 919.557 132.575 919.557C133.956 919.557 135.075 920.676 135.075 922.057V925.057Z" stroke="#181B5E" stroke-linecap="round" stroke-linejoin="round"/>
            <g opacity="0.6">
                <path opacity="0.6" d="M239.965 950.866C240.661 950.866 241.261 951.01 241.765 951.298C242.269 951.578 242.689 951.994 243.025 952.546L242.221 953.17C241.925 952.658 241.589 952.298 241.213 952.09C240.845 951.874 240.397 951.766 239.869 951.766C239.445 951.766 239.093 951.826 238.813 951.946C238.541 952.066 238.341 952.226 238.213 952.426C238.085 952.618 238.021 952.838 238.021 953.086C238.021 953.366 238.109 953.614 238.285 953.83C238.461 954.038 238.813 954.202 239.341 954.322L241.057 954.706C241.817 954.874 242.345 955.13 242.641 955.474C242.945 955.81 243.097 956.23 243.097 956.734C243.097 957.182 242.969 957.582 242.713 957.934C242.465 958.278 242.113 958.546 241.657 958.738C241.201 958.93 240.665 959.026 240.049 959.026C239.473 959.026 238.965 958.95 238.525 958.798C238.093 958.638 237.721 958.426 237.409 958.162C237.097 957.898 236.841 957.602 236.641 957.274L237.481 956.59C237.633 956.894 237.829 957.162 238.069 957.394C238.309 957.626 238.597 957.806 238.933 957.934C239.277 958.062 239.669 958.126 240.109 958.126C240.517 958.126 240.869 958.078 241.165 957.982C241.469 957.878 241.701 957.73 241.861 957.538C242.021 957.338 242.101 957.098 242.101 956.818C242.101 956.562 242.017 956.334 241.849 956.134C241.681 955.926 241.365 955.77 240.901 955.666L239.041 955.246C238.553 955.134 238.157 954.982 237.853 954.79C237.557 954.59 237.341 954.358 237.205 954.094C237.077 953.822 237.013 953.53 237.013 953.218C237.013 952.794 237.129 952.406 237.361 952.054C237.601 951.694 237.941 951.406 238.381 951.19C238.829 950.974 239.357 950.866 239.965 950.866ZM247.436 959.026C246.868 959.026 246.36 958.902 245.912 958.654C245.472 958.406 245.128 958.05 244.88 957.586C244.632 957.114 244.508 956.554 244.508 955.906C244.508 955.258 244.632 954.702 244.88 954.238C245.128 953.766 245.468 953.406 245.9 953.158C246.332 952.91 246.824 952.786 247.376 952.786C247.936 952.786 248.412 952.906 248.804 953.146C249.204 953.386 249.508 953.714 249.716 954.13C249.924 954.538 250.028 954.998 250.028 955.51C250.028 955.646 250.024 955.77 250.016 955.882C250.008 955.994 249.996 956.094 249.98 956.182H245.132V955.33H249.56L249.068 955.426C249.068 954.85 248.908 954.406 248.588 954.094C248.276 953.782 247.864 953.626 247.352 953.626C246.96 953.626 246.62 953.718 246.332 953.902C246.052 954.078 245.832 954.338 245.672 954.682C245.52 955.018 245.444 955.426 245.444 955.906C245.444 956.378 245.524 956.786 245.684 957.13C245.844 957.474 246.068 957.738 246.356 957.922C246.652 958.098 247.004 958.186 247.412 958.186C247.852 958.186 248.208 958.102 248.48 957.934C248.76 957.766 248.984 957.538 249.152 957.25L249.908 957.694C249.756 957.966 249.56 958.202 249.32 958.402C249.088 958.602 248.812 958.758 248.492 958.87C248.18 958.974 247.828 959.026 247.436 959.026ZM251.854 958.906V952.906H252.634L252.766 953.89C252.934 953.522 253.178 953.246 253.498 953.062C253.826 952.878 254.222 952.786 254.686 952.786C254.79 952.786 254.902 952.794 255.022 952.81C255.15 952.826 255.258 952.858 255.346 952.906L255.178 953.782C255.09 953.75 254.994 953.726 254.89 953.71C254.786 953.694 254.638 953.686 254.446 953.686C254.198 953.686 253.946 953.758 253.69 953.902C253.442 954.046 253.234 954.266 253.066 954.562C252.898 954.85 252.814 955.218 252.814 955.666V958.906H251.854ZM260.725 952.906H261.733L259.237 958.906H258.277L255.781 952.906H256.873L258.769 957.934L260.725 952.906ZM263.467 951.754C263.251 951.754 263.075 951.69 262.939 951.562C262.811 951.426 262.747 951.25 262.747 951.034C262.747 950.818 262.811 950.646 262.939 950.518C263.075 950.382 263.251 950.314 263.467 950.314C263.683 950.314 263.855 950.382 263.983 950.518C264.119 950.646 264.187 950.818 264.187 951.034C264.187 951.25 264.119 951.426 263.983 951.562C263.855 951.69 263.683 951.754 263.467 951.754ZM263.947 952.906V958.906H262.987V952.906H263.947ZM268.658 952.786C269.074 952.786 269.438 952.85 269.75 952.978C270.07 953.106 270.346 953.29 270.578 953.53C270.81 953.77 270.998 954.054 271.142 954.382L270.23 954.814C270.102 954.43 269.906 954.138 269.642 953.938C269.386 953.73 269.05 953.626 268.634 953.626C268.234 953.626 267.89 953.718 267.602 953.902C267.314 954.078 267.094 954.338 266.942 954.682C266.79 955.018 266.714 955.426 266.714 955.906C266.714 956.378 266.79 956.786 266.942 957.13C267.094 957.474 267.314 957.738 267.602 957.922C267.89 958.098 268.234 958.186 268.634 958.186C268.946 958.186 269.214 958.138 269.438 958.042C269.67 957.946 269.858 957.806 270.002 957.622C270.154 957.438 270.258 957.214 270.314 956.95L271.202 957.262C271.066 957.63 270.878 957.946 270.638 958.21C270.406 958.474 270.122 958.678 269.786 958.822C269.458 958.958 269.082 959.026 268.658 959.026C268.098 959.026 267.598 958.902 267.158 958.654C266.718 958.406 266.374 958.05 266.126 957.586C265.878 957.114 265.754 956.554 265.754 955.906C265.754 955.258 265.878 954.702 266.126 954.238C266.374 953.766 266.718 953.406 267.158 953.158C267.598 952.91 268.098 952.786 268.658 952.786ZM275.397 959.026C274.829 959.026 274.321 958.902 273.873 958.654C273.433 958.406 273.089 958.05 272.841 957.586C272.593 957.114 272.469 956.554 272.469 955.906C272.469 955.258 272.593 954.702 272.841 954.238C273.089 953.766 273.429 953.406 273.861 953.158C274.293 952.91 274.785 952.786 275.337 952.786C275.897 952.786 276.373 952.906 276.765 953.146C277.165 953.386 277.469 953.714 277.677 954.13C277.885 954.538 277.989 954.998 277.989 955.51C277.989 955.646 277.985 955.77 277.977 955.882C277.969 955.994 277.957 956.094 277.941 956.182H273.093V955.33H277.521L277.029 955.426C277.029 954.85 276.869 954.406 276.549 954.094C276.237 953.782 275.825 953.626 275.313 953.626C274.921 953.626 274.581 953.718 274.293 953.902C274.013 954.078 273.793 954.338 273.633 954.682C273.481 955.018 273.405 955.426 273.405 955.906C273.405 956.378 273.485 956.786 273.645 957.13C273.805 957.474 274.029 957.738 274.317 957.922C274.613 958.098 274.965 958.186 275.373 958.186C275.813 958.186 276.169 958.102 276.441 957.934C276.721 957.766 276.945 957.538 277.113 957.25L277.869 957.694C277.717 957.966 277.521 958.202 277.281 958.402C277.049 958.602 276.773 958.758 276.453 958.87C276.141 958.974 275.789 959.026 275.397 959.026ZM281.975 959.026C281.391 959.026 280.851 958.902 280.355 958.654C279.867 958.406 279.491 958.054 279.227 957.598L280.043 957.01C280.219 957.378 280.475 957.666 280.811 957.874C281.155 958.082 281.567 958.186 282.047 958.186C282.471 958.186 282.803 958.106 283.043 957.946C283.283 957.778 283.403 957.562 283.403 957.298C283.403 957.13 283.347 956.978 283.235 956.842C283.131 956.698 282.927 956.594 282.623 956.53L281.183 956.23C280.599 956.11 280.179 955.91 279.923 955.63C279.675 955.35 279.551 955.002 279.551 954.586C279.551 954.258 279.643 953.958 279.827 953.686C280.019 953.414 280.287 953.198 280.631 953.038C280.983 952.87 281.395 952.786 281.867 952.786C282.459 952.786 282.959 952.902 283.367 953.134C283.775 953.366 284.079 953.694 284.279 954.118L283.475 954.646C283.339 954.294 283.119 954.038 282.815 953.878C282.511 953.71 282.195 953.626 281.867 953.626C281.579 953.626 281.331 953.666 281.123 953.746C280.923 953.826 280.767 953.938 280.655 954.082C280.551 954.218 280.499 954.374 280.499 954.55C280.499 954.726 280.559 954.89 280.679 955.042C280.799 955.186 281.023 955.29 281.351 955.354L282.851 955.666C283.411 955.778 283.803 955.962 284.027 956.218C284.251 956.474 284.363 956.786 284.363 957.154C284.363 957.53 284.263 957.862 284.063 958.15C283.863 958.43 283.583 958.646 283.223 958.798C282.863 958.95 282.447 959.026 281.975 959.026Z" fill="#6F6F6F"/>
                <path opacity="0.6" d="M258.075 940.557H251.075C249.97 940.557 249.075 939.661 249.075 938.557V923.557C249.075 922.452 249.97 921.557 251.075 921.557H270.075C271.18 921.557 272.075 922.452 272.075 923.557V930.557" stroke="#181B5E" stroke-linecap="round" stroke-linejoin="round"/>
                <path opacity="0.6" d="M249.075 926.557H272.075" stroke="#181B5E" stroke-linecap="round" stroke-linejoin="round"/>
                <path opacity="0.6" d="M252.575 923.807C252.713 923.807 252.825 923.919 252.825 924.057C252.825 924.195 252.713 924.307 252.575 924.307C252.437 924.307 252.325 924.195 252.325 924.057C252.325 923.919 252.437 923.807 252.575 923.807Z" stroke="#181B5E" stroke-linecap="round" stroke-linejoin="round"/>
                <path opacity="0.6" d="M255.575 923.807C255.713 923.807 255.825 923.919 255.825 924.057C255.825 924.195 255.713 924.307 255.575 924.307C255.437 924.307 255.325 924.195 255.325 924.057C255.325 923.919 255.437 923.807 255.575 923.807Z" stroke="#181B5E" stroke-linecap="round" stroke-linejoin="round"/>
                <path opacity="0.6" d="M258.575 923.807C258.713 923.807 258.825 923.919 258.825 924.057C258.825 924.195 258.713 924.307 258.575 924.307C258.437 924.307 258.325 924.195 258.325 924.057C258.325 923.919 258.437 923.807 258.575 923.807Z" stroke="#181B5E" stroke-linecap="round" stroke-linejoin="round"/>
                <path opacity="0.6" d="M259.575 935.557H252.575C252.299 935.557 252.075 935.333 252.075 935.057V932.057C252.075 931.781 252.299 931.557 252.575 931.557H267.075" stroke="#181B5E" stroke-linecap="round" stroke-linejoin="round"/>
                <path opacity="0.6" fill-rule="evenodd" clip-rule="evenodd" d="M264.981 941.286C264.493 941.774 263.701 941.774 263.213 941.286C262.725 940.798 262.725 940.006 263.213 939.518C263.701 939.03 264.493 939.03 264.981 939.518C265.469 940.006 265.469 940.797 264.981 941.286Z" stroke="#181B5E" stroke-linecap="round" stroke-linejoin="round"/>
                <path opacity="0.6" fill-rule="evenodd" clip-rule="evenodd" d="M267.623 938.999L272.075 934.557V932.557H270.075L265.501 936.878C263.738 936.131 261.693 936.738 260.624 938.326C259.554 939.913 259.759 942.037 261.113 943.39C262.467 944.743 264.59 944.948 266.178 943.877C267.765 942.806 268.371 940.761 267.623 938.999Z" stroke="#181B5E" stroke-linecap="round" stroke-linejoin="round"/>
            </g>
            <path d="M68.5752 105.057H91.5752" stroke="#181B5E" stroke-linecap="round" stroke-linejoin="round"/>
            <path d="M82.5752 101.057H90.5752C91.1275 101.057 91.5752 101.504 91.5752 102.057V117.057C91.5752 117.609 91.1275 118.057 90.5752 118.057H69.5752C69.0229 118.057 68.5752 117.609 68.5752 117.057V102.057C68.5752 101.504 69.0229 101.057 69.5752 101.057H77.5752" stroke="#181B5E" stroke-linecap="round" stroke-linejoin="round"/>
            <path d="M83.0752 110.057H89.0752" stroke="#181B5E" stroke-linecap="round" stroke-linejoin="round"/>
            <path d="M83.0752 113.057H86.5752" stroke="#181B5E" stroke-linecap="round" stroke-linejoin="round"/>
            <path d="M81.0383 115.556C80.6303 114.926 79.2773 114.468 77.5833 113.841C77.1053 113.663 77.1833 112.415 77.3953 112.182C78.0773 111.443 78.4113 110.448 78.3133 109.448C78.3719 108.824 78.1605 108.206 77.7326 107.748C77.3047 107.291 76.7014 107.039 76.0753 107.056C75.4492 107.039 74.8459 107.291 74.418 107.748C73.9901 108.206 73.7787 108.824 73.8373 109.448C73.7393 110.448 74.0733 111.443 74.7553 112.182C74.9673 112.415 75.0453 113.663 74.5673 113.841C72.8753 114.468 71.5203 114.926 71.1123 115.556" stroke="#181B5E" stroke-linecap="round" stroke-linejoin="round"/>
            <path fill-rule="evenodd" clip-rule="evenodd" d="M82.5752 102.557C82.5752 102.833 82.3513 103.057 82.0752 103.057H78.0752C77.7991 103.057 77.5752 102.833 77.5752 102.557V99.5562C77.5752 98.1755 78.6945 97.0562 80.0752 97.0562C81.4559 97.0562 82.5752 98.1755 82.5752 99.5562V102.557Z" stroke="#181B5E" stroke-linecap="round" stroke-linejoin="round"/>
            <g filter="url(#filter2_d)">
                <path d="M420.791 838.057H346.636C334.452 838.057 324.575 847.934 324.575 860.118C324.575 872.302 334.452 882.179 346.636 882.179H420.791C432.975 882.179 442.852 872.302 442.852 860.118C442.852 847.934 432.975 838.057 420.791 838.057Z" fill="#181B5E"/>
            </g>
            <path d="M389.415 856.017C390.111 856.017 390.711 856.161 391.215 856.449C391.719 856.729 392.139 857.145 392.475 857.697L391.671 858.321C391.375 857.809 391.039 857.449 390.663 857.241C390.295 857.025 389.847 856.917 389.319 856.917C388.895 856.917 388.543 856.977 388.263 857.097C387.991 857.217 387.791 857.377 387.663 857.577C387.535 857.769 387.471 857.989 387.471 858.237C387.471 858.517 387.559 858.765 387.735 858.981C387.911 859.189 388.263 859.353 388.791 859.473L390.507 859.857C391.267 860.025 391.795 860.281 392.091 860.625C392.395 860.961 392.547 861.381 392.547 861.885C392.547 862.333 392.419 862.733 392.163 863.085C391.915 863.429 391.563 863.697 391.107 863.889C390.651 864.081 390.115 864.177 389.499 864.177C388.923 864.177 388.415 864.101 387.975 863.949C387.543 863.789 387.171 863.577 386.859 863.313C386.547 863.049 386.291 862.753 386.091 862.425L386.931 861.741C387.083 862.045 387.279 862.313 387.519 862.545C387.759 862.777 388.047 862.957 388.383 863.085C388.727 863.213 389.119 863.277 389.559 863.277C389.967 863.277 390.319 863.229 390.615 863.133C390.919 863.029 391.151 862.881 391.311 862.689C391.471 862.489 391.551 862.249 391.551 861.969C391.551 861.713 391.467 861.485 391.299 861.285C391.131 861.077 390.815 860.921 390.351 860.817L388.491 860.397C388.003 860.285 387.607 860.133 387.303 859.941C387.007 859.741 386.791 859.509 386.655 859.245C386.527 858.973 386.463 858.681 386.463 858.369C386.463 857.945 386.579 857.557 386.811 857.205C387.051 856.845 387.391 856.557 387.831 856.341C388.279 856.125 388.807 856.017 389.415 856.017ZM396.863 857.937C397.279 857.937 397.643 858.001 397.955 858.129C398.275 858.257 398.551 858.441 398.783 858.681C399.015 858.921 399.203 859.205 399.347 859.533L398.435 859.965C398.307 859.581 398.111 859.289 397.847 859.089C397.591 858.881 397.255 858.777 396.839 858.777C396.439 858.777 396.095 858.869 395.807 859.053C395.519 859.229 395.299 859.489 395.147 859.833C394.995 860.169 394.919 860.577 394.919 861.057C394.919 861.529 394.995 861.937 395.147 862.281C395.299 862.625 395.519 862.889 395.807 863.073C396.095 863.249 396.439 863.337 396.839 863.337C397.151 863.337 397.419 863.289 397.643 863.193C397.875 863.097 398.063 862.957 398.207 862.773C398.359 862.589 398.463 862.365 398.519 862.101L399.407 862.413C399.271 862.781 399.083 863.097 398.843 863.361C398.611 863.625 398.327 863.829 397.991 863.973C397.663 864.109 397.287 864.177 396.863 864.177C396.303 864.177 395.803 864.053 395.363 863.805C394.923 863.557 394.579 863.201 394.331 862.737C394.083 862.265 393.959 861.705 393.959 861.057C393.959 860.409 394.083 859.853 394.331 859.389C394.579 858.917 394.923 858.557 395.363 858.309C395.803 858.061 396.303 857.937 396.863 857.937ZM404.597 860.181C404.597 859.733 404.477 859.389 404.237 859.149C403.997 858.901 403.657 858.777 403.217 858.777C402.801 858.777 402.449 858.869 402.161 859.053C401.873 859.229 401.661 859.517 401.525 859.917L400.745 859.437C400.905 858.989 401.201 858.629 401.633 858.357C402.065 858.077 402.601 857.937 403.241 857.937C403.673 857.937 404.065 858.013 404.417 858.165C404.769 858.309 405.045 858.533 405.245 858.837C405.453 859.133 405.557 859.517 405.557 859.989V862.893C405.557 863.181 405.709 863.325 406.013 863.325C406.165 863.325 406.313 863.305 406.457 863.265L406.409 864.021C406.249 864.101 406.041 864.141 405.785 864.141C405.553 864.141 405.345 864.097 405.161 864.009C404.977 863.921 404.833 863.789 404.729 863.613C404.625 863.429 404.573 863.201 404.573 862.929V862.809L404.813 862.845C404.717 863.157 404.553 863.413 404.321 863.613C404.089 863.805 403.829 863.949 403.541 864.045C403.253 864.133 402.969 864.177 402.689 864.177C402.337 864.177 402.009 864.117 401.705 863.997C401.401 863.877 401.157 863.697 400.973 863.457C400.797 863.209 400.709 862.905 400.709 862.545C400.709 862.097 400.857 861.729 401.153 861.441C401.457 861.145 401.877 860.945 402.413 860.841L404.789 860.373V861.165L402.857 861.561C402.465 861.641 402.173 861.753 401.981 861.897C401.789 862.041 401.693 862.241 401.693 862.497C401.693 862.745 401.789 862.949 401.981 863.109C402.181 863.261 402.461 863.337 402.821 863.337C403.053 863.337 403.273 863.309 403.481 863.253C403.697 863.189 403.889 863.097 404.057 862.977C404.225 862.849 404.357 862.693 404.453 862.509C404.549 862.317 404.597 862.093 404.597 861.837V860.181ZM407.89 864.057V858.057H408.73L408.814 859.401L408.658 859.269C408.786 858.949 408.958 858.693 409.174 858.501C409.39 858.301 409.638 858.157 409.918 858.069C410.206 857.981 410.502 857.937 410.806 857.937C411.238 857.937 411.63 858.021 411.982 858.189C412.334 858.349 412.614 858.597 412.822 858.933C413.038 859.269 413.146 859.697 413.146 860.217V864.057H412.186V860.553C412.186 859.889 412.042 859.429 411.754 859.173C411.474 858.909 411.126 858.777 410.71 858.777C410.422 858.777 410.134 858.845 409.846 858.981C409.558 859.117 409.318 859.337 409.126 859.641C408.942 859.945 408.85 860.353 408.85 860.865V864.057H407.89Z" fill="white"/>
            <path fill-rule="evenodd" clip-rule="evenodd" d="M345.606 848.087C345.589 848.104 345.575 849.815 345.575 851.889V855.661L345.678 855.685C345.735 855.699 347.448 855.704 349.485 855.698L353.187 855.685V851.882V848.08L349.412 848.068C347.336 848.062 345.623 848.07 345.606 848.087ZM356.55 848.129C356.534 848.169 356.522 848.414 356.522 848.675V849.148L355.452 849.16L354.383 849.173V849.696V850.22L355.441 850.243L356.499 850.266L356.522 850.789L356.545 851.313L357.625 851.336L358.706 851.359L358.719 852.44L358.731 853.522H358.178H357.625V854.068V854.615H358.177H358.729V854.068V853.522H359.203C359.51 853.522 359.696 853.503 359.732 853.467C359.774 853.426 359.787 852.763 359.787 850.762C359.787 848.388 359.78 848.109 359.714 848.084C359.674 848.069 358.952 848.057 358.11 848.057C356.755 848.057 356.574 848.065 356.55 848.129ZM360.949 848.087C360.903 848.105 360.891 848.907 360.891 851.881C360.891 855.278 360.898 855.655 360.964 855.68C361.073 855.722 368.448 855.712 368.515 855.67C368.561 855.641 368.57 854.848 368.561 851.857L368.549 848.08L364.778 848.072C362.703 848.067 360.98 848.074 360.949 848.087ZM352.17 849.222C352.186 849.262 352.198 850.464 352.198 851.894C352.198 854.249 352.191 854.502 352.122 854.577C352.05 854.656 351.905 854.66 349.395 854.66C347.394 854.66 346.73 854.647 346.688 854.606C346.646 854.564 346.633 853.906 346.633 851.922C346.633 850.477 346.645 849.262 346.661 849.222C346.686 849.157 346.971 849.15 349.416 849.15C351.86 849.15 352.145 849.157 352.17 849.222ZM358.729 849.691C358.729 850.156 358.718 850.237 358.652 850.262C358.566 850.295 357.773 850.289 357.683 850.255C357.641 850.239 357.625 850.083 357.625 849.691V849.15H358.177H358.729V849.691ZM367.503 851.854C367.512 853.797 367.501 854.553 367.463 854.598C367.42 854.649 366.942 854.66 364.769 854.66C363.036 854.66 362.096 854.644 362.038 854.613C361.952 854.567 361.949 854.49 361.949 851.93C361.949 850.48 361.962 849.261 361.977 849.222C362.002 849.156 362.277 849.15 364.748 849.161L367.491 849.173L367.503 851.854ZM347.944 850.285L347.806 850.312L347.793 851.814C347.786 852.641 347.791 853.363 347.805 853.419L347.83 853.522H349.416H351.002V851.905V850.288L349.749 850.281C349.06 850.278 348.402 850.271 348.289 850.267C348.175 850.262 348.02 850.271 347.944 850.285ZM363.283 850.28L363.122 850.311L363.109 851.814C363.102 852.641 363.107 853.363 363.121 853.419L363.147 853.522H364.732H366.318V851.905V850.288H365.249C364.661 850.288 364.014 850.279 363.812 850.268C363.609 850.258 363.371 850.263 363.283 850.28ZM354.36 851.833C354.36 852.081 354.372 852.317 354.388 852.357C354.411 852.416 354.5 852.429 354.894 852.429H355.372V852.974V853.519L354.877 853.532L354.383 853.545L354.371 854.589C354.361 855.394 354.371 855.641 354.417 855.67C354.449 855.69 354.677 855.707 354.923 855.707L355.372 855.708V854.616V853.525L355.935 853.512L356.499 853.499L356.511 852.44L356.523 851.381H355.442H354.36V851.833ZM356.55 854.732C356.534 854.772 356.522 854.995 356.522 855.228C356.522 855.573 356.535 855.658 356.594 855.68C356.731 855.732 357.513 855.71 357.57 855.653C357.628 855.596 357.65 854.867 357.598 854.732C357.574 854.673 357.483 854.66 357.074 854.66C356.664 854.66 356.573 854.673 356.55 854.732ZM358.729 855.156C358.729 855.567 358.742 855.657 358.802 855.68C358.897 855.716 359.62 855.716 359.714 855.68C359.822 855.639 359.822 854.729 359.714 854.688C359.674 854.673 359.436 854.66 359.186 854.66H358.729V855.156ZM355.392 855.813C355.379 855.846 355.374 856.087 355.382 856.348L355.395 856.824L355.855 856.837C356.565 856.857 356.522 856.894 356.522 856.276V855.753H355.968C355.553 855.753 355.409 855.768 355.392 855.813ZM345.596 856.903C345.584 856.935 345.579 857.913 345.586 859.078L345.598 861.196H346.104H346.61L346.623 860.674C346.632 860.326 346.655 860.14 346.692 860.116C346.723 860.097 346.968 860.081 347.237 860.08C347.641 860.08 347.732 860.067 347.755 860.008C347.77 859.968 347.783 859.476 347.783 858.915V857.894H349.393H351.002V857.37V856.846H348.31C346.199 856.846 345.613 856.859 345.596 856.903ZM352.189 857.29C352.181 857.535 352.19 857.77 352.211 857.814C352.244 857.887 352.342 857.894 353.302 857.894H354.357L354.37 858.429L354.383 858.964L354.877 858.977L355.372 858.99V857.918V856.846H353.788H352.204L352.189 857.29ZM357.647 856.903C357.634 856.936 357.629 857.413 357.636 857.963L357.648 858.964L358.177 858.987L358.706 859.01V859.556V860.103L358.166 860.115L357.625 860.128V860.673V861.218H358.177H358.729V862.289V863.359H359.186C359.436 863.359 359.674 863.346 359.714 863.331C359.775 863.308 359.787 863.216 359.787 862.79C359.787 862.363 359.8 862.271 359.86 862.248C359.967 862.207 361.87 862.215 361.936 862.257C361.973 862.28 361.996 862.467 362.005 862.814L362.018 863.336L362.524 863.359C362.835 863.373 363.043 863.364 363.064 863.336C363.083 863.311 363.093 862.829 363.087 862.266L363.076 861.241L361.995 861.218L360.914 861.196L360.901 860.662L360.888 860.128L360.349 860.115L359.81 860.103L359.798 858.998L359.786 857.894L359.315 857.893C359.056 857.893 358.819 857.877 358.789 857.857C358.752 857.834 358.728 857.657 358.72 857.346L358.706 856.869L358.188 856.856C357.794 856.846 357.664 856.858 357.647 856.903ZM359.808 856.905C359.794 856.939 359.79 857.17 359.797 857.419L359.81 857.871L360.247 857.884C360.932 857.905 360.897 857.935 360.881 857.357L360.868 856.869L360.35 856.856C359.947 856.846 359.826 856.857 359.808 856.905ZM362.026 856.877C362.009 856.893 361.995 857.118 361.995 857.377C361.995 857.932 361.961 857.905 362.639 857.884L363.076 857.871L363.089 857.461C363.111 856.814 363.139 856.846 362.554 856.846C362.28 856.846 362.042 856.86 362.026 856.877ZM364.235 856.875C364.217 856.893 364.203 857.097 364.203 857.328C364.203 857.56 364.19 857.782 364.175 857.822C364.152 857.882 364.058 857.894 363.621 857.894H363.096L363.109 858.429L363.122 858.964L363.639 858.977C363.924 858.984 364.161 858.994 364.166 859C364.171 859.005 364.187 859.501 364.201 860.103L364.226 861.196L365.258 861.208C366.014 861.217 366.301 861.235 366.327 861.276C366.347 861.307 366.363 861.532 366.364 861.777V862.222L367.457 862.21L368.549 862.197L368.562 861.76C368.572 861.437 368.559 861.31 368.514 861.272C368.479 861.244 368.236 861.216 367.972 861.209L367.491 861.196L367.479 860.112L367.467 859.029L366.927 859.042L366.387 859.055L366.376 859.488C366.358 860.173 366.398 860.125 365.84 860.125C365.499 860.125 365.349 860.108 365.313 860.064C365.278 860.023 365.258 859.5 365.25 858.436L365.238 856.869L364.752 856.856C364.485 856.849 364.252 856.858 364.235 856.875ZM366.393 856.917C366.351 857.025 366.36 857.77 366.403 857.839C366.431 857.882 366.572 857.894 366.943 857.884L367.445 857.871V857.37V856.869L366.933 856.856C366.497 856.845 366.417 856.854 366.393 856.917ZM367.514 858.442V858.99L368.032 858.977L368.549 858.964L368.562 858.429L368.575 857.894H368.045H367.514V858.442ZM351.034 859.062C351.016 859.079 351.002 859.292 351.002 859.535C351.002 859.855 351.02 859.992 351.066 860.03C351.11 860.066 351.438 860.078 352.158 860.069L353.187 860.057V859.556V859.055L352.126 859.043C351.543 859.036 351.051 859.045 351.034 859.062ZM355.404 859.061C355.386 859.079 355.372 859.303 355.372 859.559C355.372 859.941 355.385 860.029 355.445 860.052C355.553 860.093 356.397 860.084 356.466 860.041C356.509 860.014 356.522 859.878 356.512 859.53L356.499 859.055L355.967 859.042C355.675 859.035 355.421 859.044 355.404 859.061ZM348.871 860.156C348.854 860.172 348.841 860.406 348.841 860.675C348.841 861.078 348.853 861.168 348.913 861.191C348.953 861.206 349.202 861.218 349.465 861.218H349.944V861.719V862.22H351.579H353.213L353.2 861.731L353.187 861.241L351.566 861.229L349.944 861.217V860.671V860.125H349.423C349.136 860.125 348.888 860.139 348.871 860.156ZM353.266 860.66L353.279 861.196H353.808H354.337L354.35 860.66L354.363 860.125H353.808H353.253L353.266 860.66ZM355.4 861.29C355.384 861.33 355.372 861.555 355.372 861.791V862.22H355.874C356.15 862.22 356.409 862.233 356.449 862.248C356.509 862.271 356.522 862.36 356.522 862.762C356.522 863.081 356.541 863.268 356.577 863.304C356.652 863.379 357.495 863.379 357.57 863.304C357.648 863.227 357.648 861.35 357.57 861.273C357.531 861.234 357.222 861.218 356.471 861.218C355.562 861.218 355.424 861.228 355.4 861.29ZM354.391 862.296C354.352 862.334 354.35 864.281 354.388 864.38C354.411 864.439 354.5 864.452 354.894 864.452H355.372V863.359V862.266H354.897C354.635 862.266 354.407 862.279 354.391 862.296ZM365.288 862.338C365.236 862.473 365.258 863.247 365.316 863.304C365.351 863.34 365.537 863.359 365.845 863.359H366.318V862.812V862.266H365.817C365.403 862.266 365.312 862.278 365.288 862.338ZM345.575 867.206V871.008L345.678 871.033C345.735 871.046 347.448 871.052 349.485 871.045L353.187 871.033L353.199 867.218L353.211 863.404H349.393H345.575V867.206ZM357.625 863.929V864.455L358.166 864.442L358.706 864.429L358.719 863.917L358.732 863.404H358.179H357.625V863.929ZM366.364 863.895C366.364 864.218 366.345 864.407 366.309 864.443C366.27 864.482 365.964 864.497 365.227 864.497H364.2L364.213 865.032L364.226 865.568H365.835H367.445V864.497V863.427L366.905 863.414L366.364 863.401V863.895ZM352.151 864.54C352.182 864.598 352.198 865.516 352.198 867.207C352.198 868.898 352.182 869.816 352.151 869.874C352.104 869.96 352.026 869.962 349.441 869.962C347.976 869.962 346.746 869.95 346.706 869.935C346.64 869.91 346.633 869.631 346.633 867.251C346.633 865.791 346.645 864.563 346.661 864.524C346.686 864.459 346.97 864.452 349.396 864.452C352.025 864.452 352.104 864.454 352.151 864.54ZM355.372 865.042V865.587L354.877 865.6L354.383 865.613L354.371 868.272C354.362 870.236 354.373 870.948 354.412 870.995C354.453 871.043 354.573 871.055 354.907 871.045L355.349 871.033L355.362 870.534C355.369 870.26 355.398 870.009 355.425 869.976C355.461 869.934 355.623 869.917 355.999 869.917H356.523L356.511 868.858L356.499 867.799L355.995 867.786C355.719 867.779 355.465 867.751 355.432 867.724C355.386 867.685 355.372 867.435 355.372 866.632V865.59H355.947H356.522V866.086C356.522 866.438 356.539 866.595 356.582 866.63C356.615 866.658 356.858 866.686 357.122 866.693L357.602 866.706L357.615 867.214L357.628 867.722L357.942 867.753C358.115 867.77 358.337 867.78 358.435 867.776C358.534 867.771 358.64 867.769 358.672 867.772C358.714 867.775 358.729 867.914 358.729 868.3C358.729 868.687 358.714 868.825 358.672 868.827C358.64 868.829 358.447 868.827 358.242 868.824C358.037 868.821 357.815 868.832 357.748 868.849L357.625 868.879V869.398V869.917H358.105C358.368 869.917 358.617 869.929 358.657 869.944C358.717 869.967 358.729 870.059 358.729 870.486C358.729 870.913 358.742 871.005 358.802 871.028C358.938 871.079 359.674 871.058 359.732 871.001C359.768 870.965 359.787 870.777 359.787 870.459C359.787 870.057 359.8 869.967 359.86 869.944C359.9 869.929 360.646 869.917 361.517 869.917H363.102L363.089 869.382L363.076 868.847L362.536 868.834C361.902 868.819 361.937 868.856 361.958 868.209L361.972 867.799L363.064 867.787C364.337 867.773 364.215 867.842 364.193 867.139L364.18 866.706L361.466 866.682C359.973 866.669 358.747 866.654 358.741 866.648C358.735 866.642 358.729 866.403 358.729 866.115V865.593L358.189 865.58L357.648 865.568L357.637 865.135C357.631 864.897 357.615 864.656 357.602 864.6L357.578 864.497H356.475H355.372V865.042ZM347.813 865.621C347.775 865.659 347.772 868.653 347.811 868.752C347.835 868.815 348.02 868.824 349.42 868.824H351.002V867.207V865.59H349.423C348.555 865.59 347.83 865.604 347.813 865.621ZM367.524 866.124L367.537 866.661L367.951 866.674C368.612 866.695 368.577 866.726 368.562 866.124L368.549 865.613L368.03 865.6L367.511 865.587L367.524 866.124ZM360.818 867.758C360.879 867.781 360.891 867.874 360.891 868.305V868.824H360.339H359.787V868.302V867.78L360.213 867.765C360.447 867.756 360.662 867.745 360.692 867.74C360.721 867.735 360.778 867.743 360.818 867.758ZM364.203 868.847V869.917H365.261H366.318V868.847V867.776H365.261H364.203V868.847ZM363.129 869.993C363.073 870.048 363.095 870.942 363.154 871.001C363.19 871.036 363.375 871.055 363.678 871.055C364.063 871.055 364.152 871.042 364.175 870.983C364.19 870.944 364.203 870.73 364.203 870.509C364.203 870.287 364.19 870.074 364.175 870.034C364.152 869.975 364.061 869.962 363.653 869.962C363.382 869.962 363.146 869.976 363.129 869.993ZM366.396 869.991C366.379 870.009 366.364 870.232 366.364 870.488C366.364 870.83 366.381 870.967 366.429 871.006C366.471 871.04 366.657 871.054 366.969 871.046L367.445 871.033V870.509V869.985L366.937 869.972C366.657 869.965 366.414 869.974 366.396 869.991Z" fill="white"/>
            <path fill-rule="evenodd" clip-rule="evenodd" d="M436.575 121.057C442.65 121.057 447.575 116.132 447.575 110.057C447.575 103.982 442.65 99.0562 436.575 99.0562C430.5 99.0562 425.575 103.982 425.575 110.057C425.575 116.132 430.5 121.057 436.575 121.057Z" stroke="black" stroke-linecap="round" stroke-linejoin="round"/>
            <path d="M436.575 104.057V116.057" stroke="black" stroke-linecap="round" stroke-linejoin="round"/>
            <path d="M442.575 110.057H430.575" stroke="black" stroke-linecap="round" stroke-linejoin="round"/>
        </g>
        <path d="M467.575 37.7993H56.5752V82.0687H467.575V37.7993Z" fill="white"/>
        <g opacity="0.8">
            <path opacity="0.35" d="M443.776 56.6787H428.976C427.779 56.6787 426.809 57.6487 426.809 58.8453V63.0331C426.809 64.2297 427.779 65.1998 428.976 65.1998H443.776C444.973 65.1998 445.943 64.2297 445.943 63.0331V58.8453C445.943 57.6487 444.973 56.6787 443.776 56.6787Z" stroke="black"/>
            <path opacity="0.4" d="M447.357 59.2593V62.6197C448.093 62.335 448.572 61.673 448.572 60.9395C448.572 60.2059 448.093 59.5439 447.357 59.2593Z" fill="black"/>
            <path opacity="0.8" d="M443.279 57.8589H429.473C428.736 57.8589 428.139 58.4559 428.139 59.1923V62.6863C428.139 63.4227 428.736 64.0197 429.473 64.0197H443.279C444.015 64.0197 444.612 63.4227 444.612 62.6863V59.1923C444.612 58.4559 444.015 57.8589 443.279 57.8589Z" fill="black"/>
        </g>
        <path opacity="0.8" fill-rule="evenodd" clip-rule="evenodd" d="M414.716 58.0969C416.752 58.097 418.711 58.8145 420.186 60.1012C420.297 60.2006 420.475 60.1993 420.584 60.0984L421.646 59.1152C421.702 59.064 421.733 58.9947 421.732 58.9226C421.732 58.8505 421.7 58.7815 421.644 58.7309C417.771 55.3267 411.661 55.3267 407.788 58.7309C407.732 58.7815 407.701 58.8504 407.7 58.9225C407.699 58.9947 407.73 59.064 407.786 59.1152L408.848 60.0984C408.957 60.1995 409.135 60.2007 409.246 60.1012C410.722 58.8144 412.68 58.0969 414.716 58.0969ZM414.716 61.2954C415.835 61.2954 416.914 61.6767 417.743 62.3654C417.855 62.4632 418.032 62.461 418.141 62.3606L419.202 61.3774C419.258 61.3259 419.289 61.2559 419.288 61.1832C419.287 61.1105 419.255 61.0411 419.198 60.9906C416.673 58.8363 412.762 58.8363 410.237 60.9906C410.18 61.0411 410.148 61.1105 410.147 61.1833C410.146 61.256 410.177 61.3259 410.233 61.3774L411.294 62.3606C411.403 62.461 411.58 62.4632 411.692 62.3654C412.521 61.6772 413.598 61.2958 414.716 61.2954ZM416.842 63.4481C416.843 63.521 416.812 63.5912 416.755 63.6423L414.92 65.341C414.866 65.3909 414.793 65.419 414.717 65.419C414.64 65.419 414.567 65.3909 414.513 65.341L412.677 63.6423C412.621 63.5912 412.59 63.5209 412.591 63.448C412.593 63.3751 412.627 63.3061 412.686 63.2572C413.858 62.348 415.575 62.348 416.747 63.2572C416.806 63.3061 416.84 63.3752 416.842 63.4481Z" fill="black"/>
        <path opacity="0.8" fill-rule="evenodd" clip-rule="evenodd" d="M402.21 56.4595H401.294C400.789 56.4595 400.379 56.8356 400.379 57.2996V64.5805C400.379 65.0445 400.789 65.4206 401.294 65.4206H402.21C402.715 65.4206 403.125 65.0445 403.125 64.5805V57.2996C403.125 56.8356 402.715 56.4595 402.21 56.4595ZM397.024 58.4195H397.939C398.444 58.4195 398.854 58.7956 398.854 59.2596V64.5802C398.854 65.0442 398.444 65.4203 397.939 65.4203H397.024C396.518 65.4203 396.109 65.0442 396.109 64.5802V59.2596C396.109 58.7956 396.518 58.4195 397.024 58.4195ZM393.668 60.3803H392.753C392.247 60.3803 391.838 60.7564 391.838 61.2204V64.5808C391.838 65.0447 392.247 65.4209 392.753 65.4209H393.668C394.173 65.4209 394.583 65.0447 394.583 64.5808V61.2204C394.583 60.7564 394.173 60.3803 393.668 60.3803ZM389.397 62.0605H388.482C387.977 62.0605 387.567 62.4366 387.567 62.9006V64.5808C387.567 65.0447 387.977 65.4209 388.482 65.4209H389.397C389.903 65.4209 390.313 65.0447 390.313 64.5808V62.9006C390.313 62.4366 389.903 62.0605 389.397 62.0605Z" fill="black"/>
        <g opacity="0.8">
            <path opacity="0.8" d="M91.752 65.0654C93.9024 65.0654 95.1797 63.3837 95.1797 60.5361C95.1797 57.7412 93.8203 56.1943 91.7989 56.1943C89.959 56.1943 88.6582 57.4306 88.6582 59.165C88.6582 60.788 89.8301 61.9716 91.4414 61.9716C92.4317 61.9716 93.2344 61.5146 93.6328 60.7119H93.7324C93.7149 62.6689 93.0059 63.7998 91.7696 63.7998C91.043 63.7998 90.4629 63.4072 90.2813 62.7744H88.7754C89.0215 64.1572 90.2051 65.0654 91.752 65.0654ZM91.8047 60.7763C90.8203 60.7763 90.1406 60.0966 90.1406 59.1181C90.1406 58.1748 90.8555 57.4541 91.8106 57.4541C92.7656 57.4541 93.4805 58.1865 93.4805 59.1474C93.4805 60.0908 92.7832 60.7763 91.8047 60.7763ZM97.6526 64.9834C98.2092 64.9834 98.5901 64.5849 98.5901 64.0576C98.5901 63.5244 98.2092 63.1318 97.6526 63.1318C97.1018 63.1318 96.7151 63.5244 96.7151 64.0576C96.7151 64.5849 97.1018 64.9834 97.6526 64.9834ZM97.6526 60.706C98.2092 60.706 98.5901 60.3134 98.5901 59.7861C98.5901 59.2529 98.2092 58.8603 97.6526 58.8603C97.1018 58.8603 96.7151 59.2529 96.7151 59.7861C96.7151 60.3134 97.1018 60.706 97.6526 60.706ZM104.075 64.8603H105.522V63.249H106.664V61.9716H105.522V56.4052H103.389C102.241 58.1513 101.039 60.0791 99.9442 61.9892V63.249H104.075V64.8603ZM101.344 61.9248C102.17 60.5009 103.149 58.9482 104.016 57.6357H104.098V62.0068H101.344V61.9248ZM109.887 64.8603H111.399V56.4052H109.893L107.684 57.9521V59.4052L109.788 57.9287H109.887V64.8603Z" fill="black"/>
        </g>
        <path fill-rule="evenodd" clip-rule="evenodd" d="M94.1301 21.4575C62.2599 21.4575 36.4238 48.6568 36.4238 82.2092V150.84H35.4252C33.1943 150.84 31.3857 152.744 31.3857 155.092V185.98C31.3857 188.329 33.1943 190.233 35.4252 190.233H36.4238V224.413H35.4252C33.1943 224.413 31.3857 226.317 31.3857 228.666V290.837C31.3857 293.186 33.1943 295.09 35.4252 295.09H36.4238V314.207H35.4252C33.1943 314.207 31.3857 316.111 31.3857 318.46V380.632C31.3857 382.981 33.1943 384.885 35.4252 384.885H36.4238V935.117C36.4238 968.671 62.26 995.869 94.1307 995.869H427.47C459.34 995.869 485.175 968.671 485.175 935.117V82.2092C485.175 48.6569 459.34 21.4575 427.47 21.4575H94.1301ZM103.622 38.2576C76.5325 38.2576 54.5719 61.3772 54.5719 89.8967V927.432C54.5719 955.949 76.5325 979.071 103.622 979.071H417.977C445.066 979.071 467.027 955.949 467.027 927.432V89.8967C467.027 61.3772 445.066 38.2576 417.977 38.2576H374.587C374.62 38.6152 374.637 38.9777 374.637 39.3446V59.172C374.637 72.2574 364.561 82.8653 352.131 82.8653H169.467C157.038 82.8653 146.961 72.2574 146.961 59.172V39.3446C146.961 38.9777 146.978 38.6152 147.012 38.2576H103.622Z" fill="url(#paint0_linear)"/>
        <path d="M36.423 150.84V152.298H37.808V150.84H36.423ZM36.423 190.233H37.808V188.775H36.423V190.233ZM36.423 224.413V225.871H37.808V224.413H36.423ZM36.423 295.09H37.808V293.632H36.423V295.09ZM36.423 314.207V315.665H37.808V314.207H36.423ZM36.423 384.885H37.808V383.427H36.423V384.885ZM374.587 38.2583V36.8003H373.058L373.208 38.4014L374.587 38.2583ZM147.012 38.2583L148.39 38.4015L148.54 36.8003H147.012V38.2583ZM37.808 82.2098C37.808 49.4627 63.024 22.9161 94.1293 22.9161V20C61.4942 20 35.0381 47.8522 35.0381 82.2098H37.808ZM37.808 150.84V82.2098H35.0381V150.84H37.808ZM35.4244 152.298H36.423V149.382H35.4244V152.298ZM32.7699 155.093C32.7699 153.549 33.9584 152.298 35.4244 152.298V149.382C32.4286 149.382 30 151.938 30 155.093H32.7699ZM32.7699 185.981V155.093H30V185.981H32.7699ZM35.4244 188.775C33.9584 188.775 32.7699 187.524 32.7699 185.981H30C30 189.135 32.4286 191.691 35.4244 191.691V188.775ZM36.423 188.775H35.4244V191.691H36.423V188.775ZM37.808 224.413V190.233H35.0381V224.413H37.808ZM35.4244 225.871H36.423V222.955H35.4244V225.871ZM32.7699 228.666C32.7699 227.122 33.9584 225.871 35.4244 225.871V222.955C32.4286 222.955 30 225.512 30 228.666H32.7699ZM32.7699 290.837V228.666H30V290.837H32.7699ZM35.4244 293.632C33.9584 293.632 32.7699 292.381 32.7699 290.837H30C30 293.992 32.4286 296.548 35.4244 296.548V293.632ZM36.423 293.632H35.4244V296.548H36.423V293.632ZM37.808 314.207V295.09H35.0381V314.207H37.808ZM35.4244 315.665H36.423V312.749H35.4244V315.665ZM32.7699 318.46C32.7699 316.917 33.9584 315.665 35.4244 315.665V312.749C32.4286 312.749 30 315.306 30 318.46H32.7699ZM32.7699 380.632V318.46H30V380.632H32.7699ZM35.4244 383.427C33.9584 383.427 32.7699 382.175 32.7699 380.632H30C30 383.786 32.4286 386.343 35.4244 386.343V383.427ZM36.423 383.427H35.4244V386.343H36.423V383.427ZM37.808 935.118V384.885H35.0381V935.118H37.808ZM94.1299 994.411C63.024 994.411 37.808 967.869 37.808 935.118H35.0381C35.0381 969.479 61.4943 997.327 94.1299 997.327V994.411ZM427.469 994.411H94.1299V997.327H427.469V994.411ZM483.791 935.118C483.791 967.869 458.575 994.411 427.469 994.411V997.327C460.104 997.327 486.561 969.479 486.561 935.118H483.791ZM483.791 82.2098V935.118H486.561V82.2098H483.791ZM427.469 22.9161C458.575 22.9161 483.791 49.4628 483.791 82.2098H486.561C486.561 47.8523 460.104 20 427.469 20V22.9161ZM94.1293 22.9161H427.469V20H94.1293V22.9161ZM55.956 89.8974C55.956 62.1831 77.2966 39.7163 103.621 39.7163V36.8003C75.7669 36.8003 53.1861 60.5726 53.1861 89.8974H55.956ZM55.956 927.433V89.8974H53.1861V927.433H55.956ZM103.621 977.614C77.2966 977.614 55.956 955.148 55.956 927.433H53.1861C53.1861 956.757 75.7668 980.53 103.621 980.53V977.614ZM417.977 977.614H103.621V980.53H417.977V977.614ZM465.643 927.433C465.643 955.148 444.302 977.614 417.977 977.614V980.53C445.831 980.53 468.412 956.757 468.412 927.433H465.643ZM465.643 89.8974V927.433H468.412V89.8974H465.643ZM417.977 39.7163C444.302 39.7163 465.643 62.1831 465.643 89.8974H468.412C468.412 60.5726 445.831 36.8003 417.977 36.8003V39.7163ZM374.587 39.7163H417.977V36.8003H374.587V39.7163ZM376.022 39.3452C376.022 38.9305 376.003 38.5202 375.965 38.1152L373.208 38.4014C373.237 38.7115 373.252 39.0263 373.252 39.3452H376.022ZM376.022 59.1727V39.3452H373.252V59.1727H376.022ZM352.131 84.324C365.326 84.324 376.022 73.0633 376.022 59.1727H373.252C373.252 71.4528 363.796 81.4079 352.131 81.4079V84.324ZM169.467 84.324H352.131V81.4079H169.467V84.324ZM145.577 59.1727C145.577 73.0633 156.273 84.324 169.467 84.324V81.4079C157.802 81.4079 148.347 71.4528 148.347 59.1727H145.577ZM145.577 39.3452V59.1727H148.347V39.3452H145.577ZM145.634 38.1152C145.596 38.5201 145.577 38.9305 145.577 39.3452H148.347C148.347 39.0263 148.362 38.7115 148.39 38.4015L145.634 38.1152ZM103.621 39.7163H147.012V36.8003H103.621V39.7163Z" fill="black" fill-opacity="0.03"/>
        <g opacity="0.6">
            <g opacity="0.75">
                <g opacity="0.75" filter="url(#filter3_di)">
                    <path opacity="0.75" fill-rule="evenodd" clip-rule="evenodd" d="M319.643 62.5892C323.288 62.5892 326.242 59.4767 326.242 55.6374C326.242 51.798 323.288 48.6855 319.643 48.6855C315.998 48.6855 313.044 51.798 313.044 55.6374C313.044 59.4767 315.998 62.5892 319.643 62.5892Z" fill="#9092A5"/>
                </g>
                <g opacity="0.75" filter="url(#filter4_di)">
                    <path opacity="0.75" fill-rule="evenodd" clip-rule="evenodd" d="M319.643 60.8511C322.377 60.8511 324.593 58.5167 324.593 55.6372C324.593 52.7577 322.377 50.4233 319.643 50.4233C316.91 50.4233 314.694 52.7577 314.694 55.6372C314.694 58.5167 316.91 60.8511 319.643 60.8511Z" fill="#9092A5"/>
                </g>
            </g>
            <g opacity="0.6" filter="url(#filter5_di)">
                <path opacity="0.6" d="M282.796 52.7407H233.304C231.785 52.7407 230.553 54.0376 230.553 55.6373C230.553 57.2371 231.785 58.5339 233.304 58.5339H282.796C284.315 58.5339 285.547 57.2371 285.547 55.6373C285.547 54.0376 284.315 52.7407 282.796 52.7407Z" fill="#9092A5"/>
            </g>
        </g>
    </g>
    <defs>
        <filter id="filter0_d" x="0" y="0" width="516.561" height="1037.33" filterUnits="userSpaceOnUse" color-interpolation-filters="sRGB">
            <feFlood flood-opacity="0" result="BackgroundImageFix"/>
            <feColorMatrix in="SourceAlpha" type="matrix" values="0 0 0 0 0 0 0 0 0 0 0 0 0 0 0 0 0 0 127 0" result="hardAlpha"/>
            <feOffset dy="10"/>
            <feGaussianBlur stdDeviation="15"/>
            <feColorMatrix type="matrix" values="0 0 0 0 0 0 0 0 0 0 0 0 0 0 0 0 0 0 0.15 0"/>
            <feBlend mode="normal" in2="BackgroundImageFix" result="effect1_dropShadow"/>
            <feBlend mode="normal" in="SourceGraphic" in2="effect1_dropShadow" result="shape"/>
        </filter>
        <filter id="filter1_d" x="43.5752" y="72.0562" width="435" height="919.586" filterUnits="userSpaceOnUse" color-interpolation-filters="sRGB">
            <feFlood flood-opacity="0" result="BackgroundImageFix"/>
            <feColorMatrix in="SourceAlpha" type="matrix" values="0 0 0 0 0 0 0 0 0 0 0 0 0 0 0 0 0 0 127 0" result="hardAlpha"/>
            <feOffset dy="2"/>
            <feGaussianBlur stdDeviation="5"/>
            <feColorMatrix type="matrix" values="0 0 0 0 0 0 0 0 0 0 0 0 0 0 0 0 0 0 0.07 0"/>
            <feBlend mode="normal" in2="BackgroundImageFix" result="effect1_dropShadow"/>
            <feBlend mode="normal" in="SourceGraphic" in2="effect1_dropShadow" result="shape"/>
        </filter>
        <filter id="filter2_d" x="314.575" y="830.057" width="138.277" height="64.1219" filterUnits="userSpaceOnUse" color-interpolation-filters="sRGB">
            <feFlood flood-opacity="0" result="BackgroundImageFix"/>
            <feColorMatrix in="SourceAlpha" type="matrix" values="0 0 0 0 0 0 0 0 0 0 0 0 0 0 0 0 0 0 127 0" result="hardAlpha"/>
            <feOffset dy="2"/>
            <feGaussianBlur stdDeviation="5"/>
            <feColorMatrix type="matrix" values="0 0 0 0 0 0 0 0 0 0 0 0 0 0 0 0 0 0 0.07 0"/>
            <feBlend mode="normal" in2="BackgroundImageFix" result="effect1_dropShadow"/>
            <feBlend mode="normal" in="SourceGraphic" in2="effect1_dropShadow" result="shape"/>
        </filter>
        <filter id="filter3_di" x="310.044" y="45.6855" width="19.198" height="19.9037" filterUnits="userSpaceOnUse" color-interpolation-filters="sRGB">
            <feFlood flood-opacity="0" result="BackgroundImageFix"/>
            <feColorMatrix in="SourceAlpha" type="matrix" values="0 0 0 0 0 0 0 0 0 0 0 0 0 0 0 0 0 0 127 0" result="hardAlpha"/>
            <feOffset/>
            <feGaussianBlur stdDeviation="1.5"/>
            <feColorMatrix type="matrix" values="0 0 0 0 0.49062 0 0 0 0 0.49062 0 0 0 0 0.49062 0 0 0 0.25 0"/>
            <feBlend mode="normal" in2="BackgroundImageFix" result="effect1_dropShadow"/>
            <feBlend mode="normal" in="SourceGraphic" in2="effect1_dropShadow" result="shape"/>
            <feColorMatrix in="SourceAlpha" type="matrix" values="0 0 0 0 0 0 0 0 0 0 0 0 0 0 0 0 0 0 127 0" result="hardAlpha"/>
            <feOffset dx="2" dy="2"/>
            <feGaussianBlur stdDeviation="2"/>
            <feComposite in2="hardAlpha" operator="arithmetic" k2="-1" k3="1"/>
            <feColorMatrix type="matrix" values="0 0 0 0 0 0 0 0 0 0 0 0 0 0 0 0 0 0 0.344061 0"/>
            <feBlend mode="normal" in2="shape" result="effect2_innerShadow"/>
        </filter>
        <filter id="filter4_di" x="311.694" y="48.4233" width="15.899" height="18.4278" filterUnits="userSpaceOnUse" color-interpolation-filters="sRGB">
            <feFlood flood-opacity="0" result="BackgroundImageFix"/>
            <feColorMatrix in="SourceAlpha" type="matrix" values="0 0 0 0 0 0 0 0 0 0 0 0 0 0 0 0 0 0 127 0" result="hardAlpha"/>
            <feOffset dy="3"/>
            <feGaussianBlur stdDeviation="1.5"/>
            <feColorMatrix type="matrix" values="0 0 0 0 0.49062 0 0 0 0 0.49062 0 0 0 0 0.49062 0 0 0 0.428838 0"/>
            <feBlend mode="normal" in2="BackgroundImageFix" result="effect1_dropShadow"/>
            <feBlend mode="normal" in="SourceGraphic" in2="effect1_dropShadow" result="shape"/>
            <feColorMatrix in="SourceAlpha" type="matrix" values="0 0 0 0 0 0 0 0 0 0 0 0 0 0 0 0 0 0 127 0" result="hardAlpha"/>
            <feOffset dx="-2" dy="-2"/>
            <feGaussianBlur stdDeviation="2.5"/>
            <feComposite in2="hardAlpha" operator="arithmetic" k2="-1" k3="1"/>
            <feColorMatrix type="matrix" values="0 0 0 0 0 0 0 0 0 0 0 0 0 0 0 0 0 0 0.344061 0"/>
            <feBlend mode="normal" in2="shape" result="effect2_innerShadow"/>
        </filter>
        <filter id="filter5_di" x="227.553" y="49.7407" width="60.994" height="11.7932" filterUnits="userSpaceOnUse" color-interpolation-filters="sRGB">
            <feFlood flood-opacity="0" result="BackgroundImageFix"/>
            <feColorMatrix in="SourceAlpha" type="matrix" values="0 0 0 0 0 0 0 0 0 0 0 0 0 0 0 0 0 0 127 0" result="hardAlpha"/>
            <feOffset/>
            <feGaussianBlur stdDeviation="1.5"/>
            <feColorMatrix type="matrix" values="0 0 0 0 0.49062 0 0 0 0 0.49062 0 0 0 0 0.49062 0 0 0 0.25 0"/>
            <feBlend mode="normal" in2="BackgroundImageFix" result="effect1_dropShadow"/>
            <feBlend mode="normal" in="SourceGraphic" in2="effect1_dropShadow" result="shape"/>
            <feColorMatrix in="SourceAlpha" type="matrix" values="0 0 0 0 0 0 0 0 0 0 0 0 0 0 0 0 0 0 127 0" result="hardAlpha"/>
            <feOffset dx="2" dy="2"/>
            <feGaussianBlur stdDeviation="2"/>
            <feComposite in2="hardAlpha" operator="arithmetic" k2="-1" k3="1"/>
            <feColorMatrix type="matrix" values="0 0 0 0 0 0 0 0 0 0 0 0 0 0 0 0 0 0 0.344061 0"/>
            <feBlend mode="normal" in2="shape" result="effect2_innerShadow"/>
        </filter>
        <linearGradient id="paint0_linear" x1="82.5414" y1="-134.437" x2="-451.236" y2="768.724" gradientUnits="userSpaceOnUse">
            <stop stop-color="#47474C"/>
            <stop offset="1" stop-color="#222225"/>
        </linearGradient>
    </defs>
</svg>
