<svg width="338" height="68" viewBox="0 0 338 68" fill="none" xmlns="http://www.w3.org/2000/svg">
    <path fill-rule="evenodd" clip-rule="evenodd" d="M120.352 36.4478H112.031V33.5355H123.179V45.3333C123.179 46.7831 122.682 47.9991 121.681 49.0095C120.681 50.0198 119.48 50.52 118.049 50.52H95.6098C94.1789 50.52 92.9774 50.0198 91.9773 49.0095C90.977 47.9991 90.48 46.7831 90.48 45.3333V22.6666C90.48 21.2169 90.977 20.0009 91.9773 18.9905C92.9774 17.9802 94.1789 17.48 95.6098 17.48H118.049C119.48 17.48 120.681 17.9802 121.681 18.9905C122.682 20.0009 123.179 21.2169 123.179 22.6666V23.5561H120.352V22.6666C120.352 22.0344 120.113 21.4874 119.653 21.0537C119.223 20.5883 118.68 20.345 118.049 20.345H95.6098C94.9739 20.345 94.4172 20.5918 93.9597 21.054C93.5246 21.4934 93.3066 22.0412 93.3066 22.6666V45.3333C93.3066 45.958 93.5235 46.5133 93.9454 46.9781L93.9594 46.9936L93.9747 47.0077C94.4352 47.4342 94.9873 47.655 95.6098 47.655H118.049C118.672 47.655 119.217 47.4329 119.652 46.9932C120.11 46.5311 120.352 45.971 120.352 45.3333V36.4478ZM136.88 38.1005V50.52H134.053V22.6666C134.053 21.2169 134.55 20.0009 135.55 18.9905C136.55 17.9802 137.752 17.48 139.183 17.48H161.622C163.053 17.48 164.254 17.9802 165.254 18.9905C166.255 20.0009 166.752 21.2169 166.752 22.6666V50.52H163.925V38.1005H136.88ZM136.88 22.6666V35.2355H163.925V22.6666C163.925 22.0344 163.686 21.4873 163.226 21.0537C162.796 20.5883 162.253 20.345 161.622 20.345H139.183C138.547 20.345 137.99 20.5918 137.533 21.054C137.098 21.4934 136.88 22.0412 136.88 22.6666ZM193.816 20.345V50.52H190.99V20.345H176.03V17.48H208.729V20.345H193.816ZM220.78 38.1005V50.52H217.953V22.6666C217.953 21.2169 218.45 20.0009 219.451 18.9905C220.451 17.9802 221.652 17.48 223.083 17.48H245.522C246.953 17.48 248.155 17.9802 249.155 18.9905C250.155 20.0009 250.652 21.2169 250.652 22.6666V50.52H247.826V38.1005H220.78ZM220.78 22.6666V35.2355H247.826V22.6666C247.826 22.0344 247.587 21.4874 247.126 21.0537C246.697 20.5883 246.153 20.345 245.522 20.345H223.083C222.447 20.345 221.891 20.5918 221.433 21.054C220.998 21.4934 220.78 22.0412 220.78 22.6666ZM266.743 47.655H294.219V50.52H266.743C265.312 50.52 264.111 50.0198 263.111 49.0095C262.11 47.9991 261.613 46.7831 261.613 45.3333V22.6666C261.613 21.2169 262.11 20.0009 263.111 18.9905C264.111 17.9802 265.312 17.48 266.743 17.48H294.219V20.345H266.743C266.107 20.345 265.551 20.5918 265.093 21.054C264.658 21.4934 264.44 22.0412 264.44 22.6666V45.3333C264.44 45.958 264.657 46.5133 265.079 46.9781L265.093 46.9936L265.108 47.0077C265.569 47.4342 266.121 47.655 266.743 47.655ZM307.648 38.1005V50.52H304.821V22.6666C304.821 21.2169 305.318 20.0009 306.319 18.9905C307.319 17.9802 308.52 17.48 309.951 17.48H332.39C333.821 17.48 335.023 17.9802 336.023 18.9905C337.023 20.0009 337.52 21.2169 337.52 22.6666V50.52H334.693V38.1005H307.648ZM307.648 22.6666V35.2355H334.693V22.6666C334.693 22.0344 334.455 21.4874 333.994 21.0537C333.565 20.5883 333.021 20.345 332.39 20.345H309.951C309.315 20.345 308.758 20.5918 308.301 21.054C307.866 21.4934 307.648 22.0412 307.648 22.6666Z" fill="#181B5E" style="mix-blend-mode:multiply"/>
    <path fill-rule="evenodd" clip-rule="evenodd" d="M33.3071 6.65771C40.1192 6.65771 45.6609 12.1989 45.6609 19.011C45.6609 25.8226 40.1192 31.3643 33.3071 31.3643C26.4955 31.3643 20.9538 25.8226 20.9538 19.011C20.9538 12.1989 26.4955 6.65771 33.3071 6.65771ZM33.3065 28.6014C38.5949 28.6014 42.8975 24.2988 42.8975 19.0109C42.8975 13.7224 38.5949 9.42034 33.3065 9.42034C28.0185 9.42034 23.7154 13.7224 23.7154 19.0109C23.7154 24.2988 28.0185 28.6014 33.3065 28.6014Z" fill="#181B5E" style="mix-blend-mode:multiply"/>
    <path d="M50.4444 59.9356C53.6328 59.321 56.3908 57.5013 58.2105 54.8127C60.0303 52.1236 60.6939 48.8867 60.0794 45.6978C59.47 42.5341 57.6732 39.7938 55.0175 37.974C54.9977 37.9599 54.9768 37.9464 54.9564 37.9323C52.2678 36.112 49.0309 35.4483 45.8426 36.0624C42.6538 36.6775 39.8957 38.4967 38.076 41.1858C37.8833 41.4704 37.8118 41.8192 37.877 42.1565C37.9418 42.4913 38.135 42.7868 38.4159 42.979C38.4185 42.98 38.4201 42.9816 38.4222 42.9831L47.418 49.0705C48.0101 49.471 48.8142 49.3159 49.2147 48.7243C49.6137 48.1348 49.4617 47.3338 48.8748 46.9322C48.8732 46.9307 48.8706 46.9291 48.8685 46.9275L41.0163 41.613C42.4037 40.058 44.2511 39.0053 46.3324 38.6043C48.8419 38.1202 51.3895 38.6429 53.5059 40.0757C53.5226 40.0862 53.5382 40.0971 53.5544 40.1081C55.6446 41.5404 57.0581 43.698 57.5385 46.1882C58.022 48.6977 57.4999 51.2453 56.0671 53.3621C54.6353 55.479 52.4642 56.9102 49.9546 57.3943C47.4457 57.8783 44.8975 57.3561 42.7812 55.9239L25.1055 43.9622C24.5139 43.5617 23.7092 43.7168 23.3093 44.3089C22.9103 44.8984 23.0623 45.6994 23.6487 46.101C23.6513 46.1025 23.6534 46.1046 23.6555 46.1051L41.3306 58.0668C43.3655 59.4438 45.7147 60.1591 48.1187 60.1591C48.891 60.1591 49.669 60.0855 50.4444 59.9356Z" fill="#181B5E" style="mix-blend-mode:multiply"/>
    <path d="M28.8062 55.0643C28.9984 54.7798 29.0704 54.431 29.0046 54.0942C28.9404 53.7595 28.7467 53.4639 28.4658 53.2718C28.4642 53.2702 28.4616 53.2692 28.46 53.2676L19.4642 47.1797C18.8721 46.7792 18.0674 46.9343 17.6669 47.5264C17.268 48.1159 17.421 48.9169 18.0074 49.3185C18.0089 49.3206 18.0116 49.3216 18.0131 49.3232L25.8659 54.6367C22.7256 58.1456 17.3818 58.886 13.3758 56.1755C11.2537 54.7406 9.8272 52.5726 9.34368 50.0626C8.85963 47.553 9.38231 45.0054 10.8146 42.8886C13.7716 38.5191 19.7321 37.3699 24.1015 40.3269L42.0002 52.4394C42.5918 52.8405 43.3964 52.6854 43.7969 52.0938C44.1959 51.5037 44.0434 50.7032 43.457 50.3012C43.4549 50.2991 43.4528 50.2981 43.4507 50.2965L25.5521 38.1839C20.0005 34.427 12.4281 35.8869 8.67113 41.4385C6.85192 44.1277 6.18773 47.364 6.80231 50.5529C7.4169 53.7412 9.24498 56.5024 11.9258 58.3185C14.0087 59.7283 16.3767 60.4034 18.7201 60.4034C22.6228 60.4034 26.4591 58.532 28.8062 55.0643Z" fill="#181B5E" style="mix-blend-mode:multiply"/>
    <path fill-rule="evenodd" clip-rule="evenodd" d="M17.6912 29.3747C15.5958 26.2997 14.4632 22.6367 14.4632 18.8203C14.4632 8.44283 22.906 0 33.2845 0C43.662 0 52.1053 8.44283 52.1053 18.8203C52.1053 22.7631 50.9733 26.5154 48.9906 29.3972C52.1873 29.7099 55.433 30.8697 58.4355 32.9275C66.9514 38.7637 69.1314 50.4403 63.2947 58.9557C57.4585 67.4716 45.7819 69.6516 37.266 63.8149L32.6966 60.683C26.8765 68.0016 16.5503 69.2679 8.13199 63.498C-0.383415 57.6618 -2.56345 45.9852 3.27327 37.4698C6.68351 32.4931 12.0884 29.688 17.6912 29.3747ZM20.9737 29.5532C21.7919 30.4905 22.6065 31.2581 23.4639 31.8998L24.0127 32.3103L21.8175 31.9249C16.3708 31.409 9.10233 33.541 5.40699 38.9323C0.377525 46.2713 2.25574 56.3334 9.5942 61.3628C13.2384 63.8603 17.4298 64.9417 21.3971 64.4075C25.4261 63.8655 28.9554 61.6542 31.336 58.1813C31.7396 57.5928 32.5453 57.4419 33.1343 57.8461L38.7293 61.6803C46.0672 66.7097 56.1298 64.8315 61.1598 57.4931C66.1892 50.1541 64.311 40.092 56.9725 35.062C53.8291 32.9081 50.2789 31.8111 46.816 31.8915L46.7993 31.9072C46.8006 31.9058 46.8019 31.9045 46.8032 31.9032C46.8071 31.8991 46.8111 31.895 46.8155 31.8915C46.5262 31.8983 46.2374 31.9108 45.9497 31.9343C45.2202 32.0131 43.9561 32.1547 42.965 32.292H42.4977L42.6799 32.1594C46.1361 29.6498 49.6236 24.5525 49.6236 18.8202C49.6236 9.81032 42.2935 2.48074 33.2842 2.48074C24.2743 2.48074 16.9436 9.81032 16.9436 18.8202C16.9436 22.7651 18.3749 26.5769 20.9737 29.5532Z" fill="#181B5E" style="mix-blend-mode:multiply"/>
    <mask id="mask0" maskUnits="userSpaceOnUse" x="0" y="0" width="67" height="68">
        <path fill-rule="evenodd" clip-rule="evenodd" d="M17.6912 29.3747C15.5958 26.2997 14.4632 22.6367 14.4632 18.8203C14.4632 8.44283 22.906 0 33.2845 0C43.662 0 52.1053 8.44283 52.1053 18.8203C52.1053 22.7631 50.9733 26.5154 48.9906 29.3972C52.1873 29.7099 55.433 30.8697 58.4355 32.9275C66.9514 38.7637 69.1314 50.4403 63.2947 58.9557C57.4585 67.4716 45.7819 69.6516 37.266 63.8149L32.6966 60.683C26.8765 68.0016 16.5503 69.2679 8.13199 63.498C-0.383415 57.6618 -2.56345 45.9852 3.27327 37.4698C6.68351 32.4931 12.0884 29.688 17.6912 29.3747ZM20.9737 29.5532C21.7919 30.4905 22.6065 31.2581 23.4639 31.8998L24.0127 32.3103L21.8175 31.9249C16.3708 31.409 9.10233 33.541 5.40699 38.9323C0.377525 46.2713 2.25574 56.3334 9.5942 61.3628C13.2384 63.8603 17.4298 64.9417 21.3971 64.4075C25.4261 63.8655 28.9554 61.6542 31.336 58.1813C31.7396 57.5928 32.5453 57.4419 33.1343 57.8461L38.7293 61.6803C46.0672 66.7097 56.1298 64.8315 61.1598 57.4931C66.1892 50.1541 64.311 40.092 56.9725 35.062C53.8291 32.9081 50.2789 31.8111 46.816 31.8915L46.7993 31.9072C46.8006 31.9058 46.8019 31.9045 46.8032 31.9032C46.8071 31.8991 46.8111 31.895 46.8155 31.8915C46.5262 31.8983 46.2374 31.9108 45.9497 31.9343C45.2202 32.0131 43.9561 32.1547 42.965 32.292H42.4977L42.6799 32.1594C46.1361 29.6498 49.6236 24.5525 49.6236 18.8202C49.6236 9.81032 42.2935 2.48074 33.2842 2.48074C24.2743 2.48074 16.9436 9.81032 16.9436 18.8202C16.9436 22.7651 18.3749 26.5769 20.9737 29.5532Z" fill="white"/>
        <path fill-rule="evenodd" clip-rule="evenodd" d="M17.6912 29.3747C15.5958 26.2997 14.4632 22.6367 14.4632 18.8203C14.4632 8.44283 22.906 0 33.2845 0C43.662 0 52.1053 8.44283 52.1053 18.8203C52.1053 22.7631 50.9733 26.5154 48.9906 29.3972C52.1873 29.7099 55.433 30.8697 58.4355 32.9275C66.9514 38.7637 69.1314 50.4403 63.2947 58.9557C57.4585 67.4716 45.7819 69.6516 37.266 63.8149L32.6966 60.683C26.8765 68.0016 16.5503 69.2679 8.13199 63.498C-0.383415 57.6618 -2.56345 45.9852 3.27327 37.4698C6.68351 32.4931 12.0884 29.688 17.6912 29.3747ZM20.9737 29.5532C21.7919 30.4905 22.6065 31.2581 23.4639 31.8998L24.0127 32.3103L21.8175 31.9249C16.3708 31.409 9.10233 33.541 5.40699 38.9323C0.377525 46.2713 2.25574 56.3334 9.5942 61.3628C13.2384 63.8603 17.4298 64.9417 21.3971 64.4075C25.4261 63.8655 28.9554 61.6542 31.336 58.1813C31.7396 57.5928 32.5453 57.4419 33.1343 57.8461L38.7293 61.6803C46.0672 66.7097 56.1298 64.8315 61.1598 57.4931C66.1892 50.1541 64.311 40.092 56.9725 35.062C53.8291 32.9081 50.2789 31.8111 46.816 31.8915L46.7993 31.9072C46.8006 31.9058 46.8019 31.9045 46.8032 31.9032C46.8071 31.8991 46.8111 31.895 46.8155 31.8915C46.5262 31.8983 46.2374 31.9108 45.9497 31.9343C45.2202 32.0131 43.9561 32.1547 42.965 32.292H42.4977L42.6799 32.1594C46.1361 29.6498 49.6236 24.5525 49.6236 18.8202C49.6236 9.81032 42.2935 2.48074 33.2842 2.48074C24.2743 2.48074 16.9436 9.81032 16.9436 18.8202C16.9436 22.7651 18.3749 26.5769 20.9737 29.5532Z" stroke="white"/>
    </mask>
    <g mask="url(#mask0)">
    </g>
</svg>
