<svg width="1280" height="693" viewBox="0 0 1280 693" fill="none" xmlns="http://www.w3.org/2000/svg">
    <g clip-path="url(#clip0)">
        <g clip-path="url(#clip1)">
            <rect width="1280" height="693" fill="white"/>
            <rect width="1280" height="48" fill="#181B5E"/>
            <path fill-rule="evenodd" clip-rule="evenodd" d="M0 0H1280V48H0V0Z" fill="white"/>
            <rect y="47" width="1280" height="1" fill="#181B5E"/>
            <path d="M18.8 28C18.24 28 17.764 27.804 17.372 27.412C16.98 27.02 16.784 26.544 16.784 25.984V19.936C16.784 19.376 16.98 18.9 17.372 18.508C17.764 18.116 18.24 17.92 18.8 17.92H26.836V19.936H19.262C18.982 19.936 18.8327 19.9453 18.814 19.964C18.8047 19.9827 18.8 20.132 18.8 20.412V25.508C18.8 25.788 18.8047 25.9373 18.814 25.956C18.8327 25.9747 18.982 25.984 19.262 25.984H26.836V28H18.8ZM31.2837 28C30.7237 28 30.2477 27.804 29.8557 27.412C29.4637 27.02 29.2677 26.544 29.2677 25.984V19.936C29.2677 19.376 29.4637 18.9 29.8557 18.508C30.2477 18.116 30.7237 17.92 31.2837 17.92H37.3317C37.8824 17.92 38.3537 18.116 38.7457 18.508C39.1471 18.9 39.3477 19.376 39.3477 19.936V25.984C39.3477 26.544 39.1471 27.02 38.7457 27.412C38.3537 27.804 37.8824 28 37.3317 28H31.2837ZM31.7457 25.984H36.8417C37.1217 25.984 37.2711 25.9747 37.2897 25.956C37.3084 25.9373 37.3177 25.788 37.3177 25.508V20.412C37.3177 20.132 37.3084 19.9827 37.2897 19.964C37.2711 19.9453 37.1217 19.936 36.8417 19.936H31.7457C31.4657 19.936 31.3164 19.9453 31.2977 19.964C31.2884 19.9827 31.2837 20.132 31.2837 20.412V25.508C31.2837 25.788 31.2884 25.9373 31.2977 25.956C31.3164 25.9747 31.4657 25.984 31.7457 25.984ZM41.8895 28V17.92H44.0175L49.9395 24.962V17.92H51.9695V28H49.8415L43.9055 20.93V28H41.8895ZM54.5379 28V17.92H56.6659L62.5879 24.962V17.92H64.6179V28H62.4899L56.5539 20.93V28H54.5379ZM67.2143 28V17.92H76.5103V19.936H69.2443V21.952H75.0963V23.968H69.2443V25.984H76.5103V28H67.2143ZM80.9211 28C80.3611 28 79.8851 27.804 79.4931 27.412C79.1011 27.02 78.9051 26.544 78.9051 25.984V19.936C78.9051 19.376 79.1011 18.9 79.4931 18.508C79.8851 18.116 80.3611 17.92 80.9211 17.92H88.9571V19.936H81.3831C81.1031 19.936 80.9538 19.9453 80.9351 19.964C80.9258 19.9827 80.9211 20.132 80.9211 20.412V25.508C80.9211 25.788 80.9258 25.9373 80.9351 25.956C80.9538 25.9747 81.1031 25.984 81.3831 25.984H88.9571V28H80.9211ZM94.9448 28V19.936H90.9128V17.92H100.993V19.936H96.9608V28H94.9448Z" fill="#181B5E"/>
            <circle cx="1250" cy="24" r="14" fill="#EAEAEA"/>
            <path d="M1082.58 20.08V25.288C1082.58 26.176 1082.34 26.872 1081.86 27.376C1081.39 27.872 1080.73 28.12 1079.89 28.12C1079.3 28.12 1078.81 28.008 1078.43 27.784C1078.04 27.56 1077.78 27.244 1077.62 26.836C1077.48 26.42 1077.46 25.936 1077.56 25.384L1078.45 25.204C1078.36 25.884 1078.42 26.392 1078.63 26.728C1078.85 27.056 1079.26 27.22 1079.86 27.22C1080.54 27.22 1081 27.036 1081.25 26.668C1081.5 26.292 1081.62 25.752 1081.62 25.048V20.08H1082.58ZM1087.46 21.88C1088.03 21.88 1088.53 22.004 1088.96 22.252C1089.4 22.5 1089.75 22.86 1090 23.332C1090.24 23.796 1090.37 24.352 1090.37 25C1090.37 25.648 1090.24 26.208 1090 26.68C1089.75 27.144 1089.4 27.5 1088.96 27.748C1088.53 27.996 1088.03 28.12 1087.46 28.12C1086.9 28.12 1086.4 27.996 1085.96 27.748C1085.52 27.5 1085.18 27.144 1084.93 26.68C1084.68 26.208 1084.56 25.648 1084.56 25C1084.56 24.352 1084.68 23.796 1084.93 23.332C1085.18 22.86 1085.52 22.5 1085.96 22.252C1086.4 22.004 1086.9 21.88 1087.46 21.88ZM1087.46 22.708C1087.06 22.708 1086.71 22.8 1086.42 22.984C1086.13 23.168 1085.91 23.432 1085.75 23.776C1085.6 24.112 1085.52 24.52 1085.52 25C1085.52 25.472 1085.6 25.88 1085.75 26.224C1085.91 26.568 1086.13 26.832 1086.42 27.016C1086.71 27.2 1087.06 27.292 1087.46 27.292C1087.87 27.292 1088.22 27.2 1088.51 27.016C1088.8 26.832 1089.02 26.568 1089.17 26.224C1089.33 25.88 1089.41 25.472 1089.41 25C1089.41 24.52 1089.33 24.112 1089.17 23.776C1089.02 23.432 1088.8 23.168 1088.51 22.984C1088.22 22.8 1087.87 22.708 1087.46 22.708ZM1092.33 28V19.24H1093.29V22.9C1093.5 22.54 1093.78 22.28 1094.12 22.12C1094.47 21.96 1094.84 21.88 1095.25 21.88C1095.68 21.88 1096.07 21.964 1096.43 22.132C1096.78 22.292 1097.06 22.54 1097.27 22.876C1097.48 23.212 1097.59 23.64 1097.59 24.16V28H1096.63V24.496C1096.63 23.832 1096.49 23.372 1096.2 23.116C1095.92 22.852 1095.57 22.72 1095.15 22.72C1094.87 22.72 1094.58 22.788 1094.29 22.924C1094 23.06 1093.76 23.284 1093.57 23.596C1093.39 23.9 1093.29 24.308 1093.29 24.82V28H1092.33ZM1099.92 28V22H1100.76L1100.85 23.344L1100.69 23.212C1100.82 22.892 1100.99 22.636 1101.21 22.444C1101.42 22.244 1101.67 22.1 1101.95 22.012C1102.24 21.924 1102.54 21.88 1102.84 21.88C1103.27 21.88 1103.66 21.964 1104.02 22.132C1104.37 22.292 1104.65 22.54 1104.86 22.876C1105.07 23.212 1105.18 23.64 1105.18 24.16V28H1104.22V24.496C1104.22 23.832 1104.08 23.372 1103.79 23.116C1103.51 22.852 1103.16 22.72 1102.74 22.72C1102.46 22.72 1102.17 22.788 1101.88 22.924C1101.59 23.06 1101.35 23.28 1101.16 23.584C1100.98 23.888 1100.88 24.296 1100.88 24.808V28H1099.92ZM1110.19 20.08C1111.43 20.08 1112.4 20.424 1113.11 21.112C1113.82 21.792 1114.18 22.768 1114.18 24.04C1114.18 25.312 1113.82 26.292 1113.11 26.98C1112.4 27.66 1111.43 28 1110.19 28H1107.64V20.08H1110.19ZM1110.29 27.1C1111.19 27.1 1111.9 26.832 1112.4 26.296C1112.91 25.752 1113.17 25 1113.17 24.04C1113.17 23.08 1112.91 22.332 1112.4 21.796C1111.9 21.252 1111.19 20.98 1110.29 20.98H1108.6V27.1H1110.29ZM1118.75 21.88C1119.32 21.88 1119.82 22.004 1120.25 22.252C1120.69 22.5 1121.03 22.86 1121.28 23.332C1121.53 23.796 1121.65 24.352 1121.65 25C1121.65 25.648 1121.53 26.208 1121.28 26.68C1121.03 27.144 1120.69 27.5 1120.25 27.748C1119.82 27.996 1119.32 28.12 1118.75 28.12C1118.19 28.12 1117.69 27.996 1117.25 27.748C1116.81 27.5 1116.46 27.144 1116.22 26.68C1115.97 26.208 1115.84 25.648 1115.84 25C1115.84 24.352 1115.97 23.796 1116.22 23.332C1116.46 22.86 1116.81 22.5 1117.25 22.252C1117.69 22.004 1118.19 21.88 1118.75 21.88ZM1118.75 22.708C1118.34 22.708 1117.99 22.8 1117.7 22.984C1117.42 23.168 1117.19 23.432 1117.03 23.776C1116.88 24.112 1116.8 24.52 1116.8 25C1116.8 25.472 1116.88 25.88 1117.03 26.224C1117.19 26.568 1117.42 26.832 1117.7 27.016C1117.99 27.2 1118.34 27.292 1118.75 27.292C1119.16 27.292 1119.5 27.2 1119.79 27.016C1120.08 26.832 1120.3 26.568 1120.45 26.224C1120.61 25.88 1120.69 25.472 1120.69 25C1120.69 24.52 1120.61 24.112 1120.45 23.776C1120.3 23.432 1120.08 23.168 1119.79 22.984C1119.5 22.8 1119.16 22.708 1118.75 22.708ZM1126.13 28.12C1125.56 28.12 1125.05 27.996 1124.6 27.748C1124.16 27.5 1123.82 27.144 1123.57 26.68C1123.32 26.208 1123.2 25.648 1123.2 25C1123.2 24.352 1123.32 23.796 1123.57 23.332C1123.82 22.86 1124.16 22.5 1124.59 22.252C1125.02 22.004 1125.51 21.88 1126.07 21.88C1126.63 21.88 1127.1 22 1127.49 22.24C1127.89 22.48 1128.2 22.808 1128.41 23.224C1128.61 23.632 1128.72 24.092 1128.72 24.604C1128.72 24.74 1128.71 24.864 1128.71 24.976C1128.7 25.088 1128.69 25.188 1128.67 25.276H1123.82V24.424H1128.25L1127.76 24.52C1127.76 23.944 1127.6 23.5 1127.28 23.188C1126.97 22.876 1126.55 22.72 1126.04 22.72C1125.65 22.72 1125.31 22.812 1125.02 22.996C1124.74 23.172 1124.52 23.432 1124.36 23.776C1124.21 24.112 1124.13 24.52 1124.13 25C1124.13 25.472 1124.21 25.88 1124.37 26.224C1124.53 26.568 1124.76 26.832 1125.05 27.016C1125.34 27.192 1125.69 27.28 1126.1 27.28C1126.54 27.28 1126.9 27.196 1127.17 27.028C1127.45 26.86 1127.67 26.632 1127.84 26.344L1128.6 26.788C1128.45 27.06 1128.25 27.296 1128.01 27.496C1127.78 27.696 1127.5 27.852 1127.18 27.964C1126.87 28.068 1126.52 28.12 1126.13 28.12ZM1135.4 30.34C1134.64 30.34 1133.96 30.22 1133.34 29.98C1132.73 29.74 1132.2 29.4 1131.76 28.96C1131.32 28.52 1130.98 27.992 1130.74 27.376C1130.5 26.76 1130.38 26.076 1130.38 25.324C1130.38 24.548 1130.51 23.84 1130.76 23.2C1131.03 22.56 1131.4 22.008 1131.87 21.544C1132.34 21.072 1132.9 20.712 1133.54 20.464C1134.18 20.208 1134.88 20.08 1135.65 20.08C1136.4 20.08 1137.07 20.204 1137.65 20.452C1138.24 20.692 1138.73 21.028 1139.13 21.46C1139.54 21.892 1139.84 22.388 1140.05 22.948C1140.26 23.508 1140.36 24.1 1140.36 24.724C1140.36 25.244 1140.3 25.712 1140.16 26.128C1140.03 26.544 1139.85 26.9 1139.62 27.196C1139.39 27.484 1139.12 27.708 1138.83 27.868C1138.54 28.02 1138.24 28.096 1137.93 28.096C1137.5 28.096 1137.18 27.984 1136.97 27.76C1136.77 27.536 1136.68 27.252 1136.72 26.908C1136.54 27.244 1136.28 27.512 1135.92 27.712C1135.57 27.912 1135.21 28.012 1134.83 28.012C1134.42 28.012 1134.05 27.912 1133.73 27.712C1133.42 27.512 1133.17 27.236 1133 26.884C1132.82 26.524 1132.73 26.112 1132.73 25.648C1132.73 25.2 1132.8 24.784 1132.94 24.4C1133.07 24.008 1133.26 23.668 1133.5 23.38C1133.75 23.084 1134.04 22.856 1134.38 22.696C1134.71 22.528 1135.08 22.444 1135.47 22.444C1135.78 22.444 1136.06 22.5 1136.31 22.612C1136.56 22.716 1136.76 22.868 1136.93 23.068C1137.1 23.26 1137.22 23.492 1137.28 23.764L1137.57 22.552H1138.42L1137.51 26.464C1137.49 26.544 1137.48 26.62 1137.46 26.692C1137.45 26.756 1137.45 26.82 1137.45 26.884C1137.45 27.108 1137.5 27.256 1137.62 27.328C1137.74 27.392 1137.87 27.424 1138.01 27.424C1138.3 27.424 1138.57 27.324 1138.82 27.124C1139.06 26.924 1139.26 26.624 1139.42 26.224C1139.58 25.816 1139.66 25.316 1139.66 24.724C1139.66 24.164 1139.56 23.644 1139.38 23.164C1139.2 22.684 1138.93 22.268 1138.58 21.916C1138.23 21.556 1137.82 21.28 1137.33 21.088C1136.84 20.888 1136.29 20.788 1135.68 20.788C1135.02 20.788 1134.41 20.896 1133.86 21.112C1133.32 21.32 1132.84 21.624 1132.44 22.024C1132.04 22.416 1131.73 22.892 1131.51 23.452C1131.29 24.012 1131.18 24.636 1131.18 25.324C1131.18 25.996 1131.29 26.596 1131.5 27.124C1131.71 27.652 1132.01 28.104 1132.4 28.48C1132.78 28.856 1133.23 29.14 1133.74 29.332C1134.25 29.532 1134.8 29.632 1135.4 29.632C1136.08 29.632 1136.61 29.544 1137 29.368C1137.4 29.2 1137.72 29.016 1137.99 28.816L1138.41 29.404C1138.19 29.572 1137.95 29.724 1137.68 29.86C1137.41 30.004 1137.1 30.12 1136.73 30.208C1136.36 30.296 1135.92 30.34 1135.4 30.34ZM1135.11 27.28C1135.44 27.28 1135.75 27.172 1136.03 26.956C1136.31 26.732 1136.53 26.432 1136.69 26.056C1136.86 25.672 1136.94 25.244 1136.94 24.772C1136.94 24.452 1136.88 24.176 1136.76 23.944C1136.65 23.704 1136.49 23.52 1136.27 23.392C1136.06 23.256 1135.82 23.188 1135.53 23.188C1135.24 23.188 1134.98 23.252 1134.74 23.38C1134.5 23.5 1134.3 23.672 1134.12 23.896C1133.96 24.12 1133.82 24.38 1133.73 24.676C1133.63 24.972 1133.58 25.292 1133.58 25.636C1133.58 25.988 1133.64 26.288 1133.76 26.536C1133.88 26.776 1134.06 26.96 1134.28 27.088C1134.51 27.216 1134.79 27.28 1135.11 27.28ZM1144.84 21.88C1145.26 21.88 1145.62 21.944 1145.94 22.072C1146.26 22.2 1146.53 22.384 1146.76 22.624C1147 22.864 1147.18 23.148 1147.33 23.476L1146.42 23.908C1146.29 23.524 1146.09 23.232 1145.83 23.032C1145.57 22.824 1145.24 22.72 1144.82 22.72C1144.42 22.72 1144.08 22.812 1143.79 22.996C1143.5 23.172 1143.28 23.432 1143.13 23.776C1142.98 24.112 1142.9 24.52 1142.9 25C1142.9 25.472 1142.98 25.88 1143.13 26.224C1143.28 26.568 1143.5 26.832 1143.79 27.016C1144.08 27.192 1144.42 27.28 1144.82 27.28C1145.13 27.28 1145.4 27.232 1145.62 27.136C1145.86 27.04 1146.04 26.9 1146.19 26.716C1146.34 26.532 1146.44 26.308 1146.5 26.044L1147.39 26.356C1147.25 26.724 1147.06 27.04 1146.82 27.304C1146.59 27.568 1146.31 27.772 1145.97 27.916C1145.64 28.052 1145.27 28.12 1144.84 28.12C1144.28 28.12 1143.78 27.996 1143.34 27.748C1142.9 27.5 1142.56 27.144 1142.31 26.68C1142.06 26.208 1141.94 25.648 1141.94 25C1141.94 24.352 1142.06 23.796 1142.31 23.332C1142.56 22.86 1142.9 22.5 1143.34 22.252C1143.78 22.004 1144.28 21.88 1144.84 21.88ZM1151.72 21.88C1152.29 21.88 1152.79 22.004 1153.22 22.252C1153.66 22.5 1154 22.86 1154.25 23.332C1154.5 23.796 1154.62 24.352 1154.62 25C1154.62 25.648 1154.5 26.208 1154.25 26.68C1154 27.144 1153.66 27.5 1153.22 27.748C1152.79 27.996 1152.29 28.12 1151.72 28.12C1151.16 28.12 1150.66 27.996 1150.22 27.748C1149.78 27.5 1149.44 27.144 1149.19 26.68C1148.94 26.208 1148.82 25.648 1148.82 25C1148.82 24.352 1148.94 23.796 1149.19 23.332C1149.44 22.86 1149.78 22.5 1150.22 22.252C1150.66 22.004 1151.16 21.88 1151.72 21.88ZM1151.72 22.708C1151.31 22.708 1150.96 22.8 1150.68 22.984C1150.39 23.168 1150.16 23.432 1150 23.776C1149.85 24.112 1149.78 24.52 1149.78 25C1149.78 25.472 1149.85 25.88 1150 26.224C1150.16 26.568 1150.39 26.832 1150.68 27.016C1150.96 27.2 1151.31 27.292 1151.72 27.292C1152.13 27.292 1152.48 27.2 1152.76 27.016C1153.05 26.832 1153.27 26.568 1153.42 26.224C1153.58 25.88 1153.66 25.472 1153.66 25C1153.66 24.52 1153.58 24.112 1153.42 23.776C1153.27 23.432 1153.05 23.168 1152.76 22.984C1152.48 22.8 1152.13 22.708 1151.72 22.708ZM1156.59 28V22H1157.43L1157.49 22.936C1157.71 22.568 1157.99 22.3 1158.33 22.132C1158.68 21.964 1159.04 21.88 1159.41 21.88C1159.83 21.88 1160.23 21.976 1160.61 22.168C1160.99 22.36 1161.27 22.656 1161.47 23.056C1161.6 22.784 1161.78 22.564 1162.01 22.396C1162.25 22.22 1162.5 22.092 1162.77 22.012C1163.05 21.924 1163.31 21.88 1163.56 21.88C1163.95 21.88 1164.31 21.96 1164.65 22.12C1165.01 22.28 1165.29 22.528 1165.52 22.864C1165.74 23.2 1165.85 23.632 1165.85 24.16V28H1164.89V24.256C1164.89 23.712 1164.76 23.32 1164.49 23.08C1164.21 22.84 1163.88 22.72 1163.48 22.72C1163.17 22.72 1162.87 22.796 1162.6 22.948C1162.33 23.1 1162.11 23.324 1161.94 23.62C1161.78 23.916 1161.7 24.28 1161.7 24.712V28H1160.74V24.256C1160.74 23.712 1160.61 23.32 1160.33 23.08C1160.06 22.84 1159.73 22.72 1159.33 22.72C1159.06 22.72 1158.79 22.792 1158.51 22.936C1158.24 23.072 1158.01 23.292 1157.83 23.596C1157.64 23.9 1157.55 24.3 1157.55 24.796V28H1156.59ZM1168.19 30.52V22H1169.03L1169.11 23.464L1168.98 23.296C1169.08 23.016 1169.24 22.772 1169.45 22.564C1169.66 22.348 1169.91 22.18 1170.2 22.06C1170.5 21.94 1170.82 21.88 1171.16 21.88C1171.65 21.88 1172.1 22.004 1172.51 22.252C1172.92 22.5 1173.26 22.856 1173.5 23.32C1173.75 23.784 1173.88 24.344 1173.88 25C1173.88 25.648 1173.75 26.208 1173.49 26.68C1173.24 27.144 1172.91 27.5 1172.5 27.748C1172.08 27.996 1171.62 28.12 1171.13 28.12C1170.63 28.12 1170.2 28 1169.82 27.76C1169.45 27.512 1169.19 27.2 1169.03 26.824L1169.15 26.644V30.52H1168.19ZM1171.03 27.28C1171.62 27.28 1172.08 27.072 1172.41 26.656C1172.75 26.24 1172.92 25.688 1172.92 25C1172.92 24.312 1172.75 23.76 1172.42 23.344C1172.1 22.928 1171.65 22.72 1171.07 22.72C1170.68 22.72 1170.35 22.816 1170.06 23.008C1169.77 23.192 1169.55 23.456 1169.39 23.8C1169.23 24.136 1169.15 24.536 1169.15 25C1169.15 25.456 1169.22 25.856 1169.38 26.2C1169.54 26.544 1169.76 26.812 1170.04 27.004C1170.32 27.188 1170.66 27.28 1171.03 27.28ZM1179.38 24.124C1179.38 23.676 1179.26 23.332 1179.02 23.092C1178.78 22.844 1178.44 22.72 1178 22.72C1177.58 22.72 1177.23 22.812 1176.94 22.996C1176.65 23.172 1176.44 23.46 1176.3 23.86L1175.52 23.38C1175.68 22.932 1175.98 22.572 1176.41 22.3C1176.84 22.02 1177.38 21.88 1178.02 21.88C1178.45 21.88 1178.84 21.956 1179.2 22.108C1179.55 22.252 1179.82 22.476 1180.02 22.78C1180.23 23.076 1180.34 23.46 1180.34 23.932V26.836C1180.34 27.124 1180.49 27.268 1180.79 27.268C1180.94 27.268 1181.09 27.248 1181.24 27.208L1181.19 27.964C1181.03 28.044 1180.82 28.084 1180.56 28.084C1180.33 28.084 1180.12 28.04 1179.94 27.952C1179.76 27.864 1179.61 27.732 1179.51 27.556C1179.4 27.372 1179.35 27.144 1179.35 26.872V26.752L1179.59 26.788C1179.5 27.1 1179.33 27.356 1179.1 27.556C1178.87 27.748 1178.61 27.892 1178.32 27.988C1178.03 28.076 1177.75 28.12 1177.47 28.12C1177.12 28.12 1176.79 28.06 1176.48 27.94C1176.18 27.82 1175.94 27.64 1175.75 27.4C1175.58 27.152 1175.49 26.848 1175.49 26.488C1175.49 26.04 1175.64 25.672 1175.93 25.384C1176.24 25.088 1176.66 24.888 1177.19 24.784L1179.57 24.316V25.108L1177.64 25.504C1177.24 25.584 1176.95 25.696 1176.76 25.84C1176.57 25.984 1176.47 26.184 1176.47 26.44C1176.47 26.688 1176.57 26.892 1176.76 27.052C1176.96 27.204 1177.24 27.28 1177.6 27.28C1177.83 27.28 1178.05 27.252 1178.26 27.196C1178.48 27.132 1178.67 27.04 1178.84 26.92C1179 26.792 1179.14 26.636 1179.23 26.452C1179.33 26.26 1179.38 26.036 1179.38 25.78V24.124ZM1182.83 28V22H1183.67L1183.75 23.344L1183.6 23.212C1183.72 22.892 1183.9 22.636 1184.11 22.444C1184.33 22.244 1184.58 22.1 1184.86 22.012C1185.14 21.924 1185.44 21.88 1185.74 21.88C1186.18 21.88 1186.57 21.964 1186.92 22.132C1187.27 22.292 1187.55 22.54 1187.76 22.876C1187.98 23.212 1188.08 23.64 1188.08 24.16V28H1187.12V24.496C1187.12 23.832 1186.98 23.372 1186.69 23.116C1186.41 22.852 1186.06 22.72 1185.65 22.72C1185.36 22.72 1185.07 22.788 1184.78 22.924C1184.5 23.06 1184.26 23.28 1184.06 23.584C1183.88 23.888 1183.79 24.296 1183.79 24.808V28H1182.83ZM1195.19 22L1192.37 29.008C1192.21 29.4 1192.05 29.708 1191.86 29.932C1191.69 30.164 1191.49 30.328 1191.26 30.424C1191.05 30.528 1190.79 30.58 1190.51 30.58C1190.23 30.58 1189.98 30.54 1189.75 30.46C1189.53 30.388 1189.33 30.288 1189.15 30.16L1189.41 29.32C1189.57 29.464 1189.74 29.568 1189.92 29.632C1190.1 29.704 1190.28 29.74 1190.46 29.74C1190.67 29.74 1190.86 29.676 1191.05 29.548C1191.23 29.42 1191.4 29.16 1191.55 28.768L1191.86 27.988L1191.26 26.56L1189.35 22H1190.45L1191.95 25.912L1192.32 26.98L1192.75 25.792L1194.15 22H1195.19ZM1196.19 26.56C1196.42 26.56 1196.61 26.632 1196.76 26.776C1196.9 26.92 1196.97 27.108 1196.97 27.34C1196.97 27.572 1196.9 27.76 1196.76 27.904C1196.61 28.048 1196.42 28.12 1196.19 28.12C1195.96 28.12 1195.77 28.048 1195.63 27.904C1195.48 27.76 1195.41 27.572 1195.41 27.34C1195.41 27.108 1195.48 26.92 1195.63 26.776C1195.77 26.632 1195.96 26.56 1196.19 26.56ZM1201.31 21.88C1201.72 21.88 1202.09 21.944 1202.4 22.072C1202.72 22.2 1203 22.384 1203.23 22.624C1203.46 22.864 1203.65 23.148 1203.79 23.476L1202.88 23.908C1202.75 23.524 1202.56 23.232 1202.29 23.032C1202.04 22.824 1201.7 22.72 1201.28 22.72C1200.88 22.72 1200.54 22.812 1200.25 22.996C1199.96 23.172 1199.74 23.432 1199.59 23.776C1199.44 24.112 1199.36 24.52 1199.36 25C1199.36 25.472 1199.44 25.88 1199.59 26.224C1199.74 26.568 1199.96 26.832 1200.25 27.016C1200.54 27.192 1200.88 27.28 1201.28 27.28C1201.6 27.28 1201.86 27.232 1202.09 27.136C1202.32 27.04 1202.51 26.9 1202.65 26.716C1202.8 26.532 1202.91 26.308 1202.96 26.044L1203.85 26.356C1203.72 26.724 1203.53 27.04 1203.29 27.304C1203.06 27.568 1202.77 27.772 1202.44 27.916C1202.11 28.052 1201.73 28.12 1201.31 28.12C1200.75 28.12 1200.25 27.996 1199.81 27.748C1199.37 27.5 1199.02 27.144 1198.78 26.68C1198.53 26.208 1198.4 25.648 1198.4 25C1198.4 24.352 1198.53 23.796 1198.78 23.332C1199.02 22.86 1199.37 22.5 1199.81 22.252C1200.25 22.004 1200.75 21.88 1201.31 21.88ZM1208.18 21.88C1208.75 21.88 1209.25 22.004 1209.68 22.252C1210.12 22.5 1210.47 22.86 1210.72 23.332C1210.96 23.796 1211.09 24.352 1211.09 25C1211.09 25.648 1210.96 26.208 1210.72 26.68C1210.47 27.144 1210.12 27.5 1209.68 27.748C1209.25 27.996 1208.75 28.12 1208.18 28.12C1207.62 28.12 1207.12 27.996 1206.68 27.748C1206.24 27.5 1205.9 27.144 1205.65 26.68C1205.4 26.208 1205.28 25.648 1205.28 25C1205.28 24.352 1205.4 23.796 1205.65 23.332C1205.9 22.86 1206.24 22.5 1206.68 22.252C1207.12 22.004 1207.62 21.88 1208.18 21.88ZM1208.18 22.708C1207.78 22.708 1207.43 22.8 1207.14 22.984C1206.85 23.168 1206.63 23.432 1206.47 23.776C1206.32 24.112 1206.24 24.52 1206.24 25C1206.24 25.472 1206.32 25.88 1206.47 26.224C1206.63 26.568 1206.85 26.832 1207.14 27.016C1207.43 27.2 1207.78 27.292 1208.18 27.292C1208.59 27.292 1208.94 27.2 1209.23 27.016C1209.52 26.832 1209.74 26.568 1209.89 26.224C1210.05 25.88 1210.13 25.472 1210.13 25C1210.13 24.52 1210.05 24.112 1209.89 23.776C1209.74 23.432 1209.52 23.168 1209.23 22.984C1208.94 22.8 1208.59 22.708 1208.18 22.708ZM1213.05 28V22H1213.89L1213.95 22.936C1214.17 22.568 1214.45 22.3 1214.79 22.132C1215.15 21.964 1215.51 21.88 1215.87 21.88C1216.3 21.88 1216.7 21.976 1217.07 22.168C1217.45 22.36 1217.74 22.656 1217.94 23.056C1218.07 22.784 1218.25 22.564 1218.48 22.396C1218.71 22.22 1218.96 22.092 1219.23 22.012C1219.51 21.924 1219.78 21.88 1220.03 21.88C1220.41 21.88 1220.77 21.96 1221.12 22.12C1221.47 22.28 1221.76 22.528 1221.98 22.864C1222.21 23.2 1222.32 23.632 1222.32 24.16V28H1221.36V24.256C1221.36 23.712 1221.22 23.32 1220.95 23.08C1220.68 22.84 1220.34 22.72 1219.94 22.72C1219.63 22.72 1219.34 22.796 1219.07 22.948C1218.79 23.1 1218.57 23.324 1218.41 23.62C1218.25 23.916 1218.17 24.28 1218.17 24.712V28H1217.21V24.256C1217.21 23.712 1217.07 23.32 1216.8 23.08C1216.53 22.84 1216.19 22.72 1215.79 22.72C1215.53 22.72 1215.25 22.792 1214.97 22.936C1214.7 23.072 1214.47 23.292 1214.29 23.596C1214.11 23.9 1214.01 24.3 1214.01 24.796V28H1213.05Z" fill="black"/>
            <rect y="48" width="256" height="879" fill="white"/>
            <rect x="255" y="48" width="1" height="879" fill="#181B5E"/>
            <rect opacity="0.5" y="61" width="255" height="32" fill="#E5E5E5"/>
            <rect opacity="0.5" y="99" width="255" height="32" fill="#E5E5E5"/>
            <rect opacity="0.5" y="137" width="255" height="32" fill="#E5E5E5"/>
            <rect opacity="0.5" y="175" width="255" height="32" fill="#E5E5E5"/>
            <rect opacity="0.5" y="213" width="255" height="32" fill="#E5E5E5"/>
            <rect x="256" y="521" width="1024" height="48" fill="#F4F4F4"/>
            <rect x="256" y="521" width="1024" height="1" fill="#E0E0E0"/>
            <rect x="256" y="473" width="1024" height="48" fill="#F4F4F4"/>
            <rect x="256" y="473" width="1024" height="1" fill="#E0E0E0"/>
            <rect x="256" y="425" width="1024" height="48" fill="#F4F4F4"/>
            <rect x="256" y="425" width="1024" height="1" fill="#E0E0E0"/>
            <rect x="256" y="377" width="1024" height="48" fill="#F4F4F4"/>
            <rect x="256" y="377" width="1024" height="1" fill="#E0E0E0"/>
            <rect x="256" y="329" width="1024" height="48" fill="#F4F4F4"/>
            <rect x="256" y="329" width="1024" height="1" fill="#E0E0E0"/>
            <rect x="256" y="281" width="1023" height="48" fill="#F4F4F4"/>
            <rect x="256" y="281" width="1023" height="1" fill="#E0E0E0"/>
            <rect x="272" y="445" width="64" height="8" fill="#E5E5E5"/>
            <rect x="442.817" y="445" width="63.9375" height="8" fill="#E5E5E5"/>
            <rect x="613.65" y="445" width="63.9375" height="8" fill="#E5E5E5"/>
            <rect x="784.483" y="445" width="63.9375" height="8" fill="#E5E5E5"/>
            <rect x="955.316" y="445" width="63.9375" height="8" fill="#E5E5E5"/>
            <rect x="1126.15" y="445" width="63.9375" height="8" fill="#E5E5E5"/>
            <rect x="272" y="493" width="64" height="8" fill="#E5E5E5"/>
            <rect x="442.817" y="493" width="63.9375" height="8" fill="#E5E5E5"/>
            <rect x="613.65" y="493" width="63.9375" height="8" fill="#E5E5E5"/>
            <rect x="784.483" y="493" width="63.9375" height="8" fill="#E5E5E5"/>
            <rect x="955.316" y="493" width="63.9375" height="8" fill="#E5E5E5"/>
            <rect x="1126.15" y="493" width="63.9375" height="8" fill="#E5E5E5"/>
            <rect x="272" y="397" width="64" height="8" fill="#E5E5E5"/>
            <rect x="442.817" y="397" width="63.9375" height="8" fill="#E5E5E5"/>
            <rect x="613.65" y="397" width="63.9375" height="8" fill="#E5E5E5"/>
            <rect x="784.483" y="397" width="63.9375" height="8" fill="#E5E5E5"/>
            <rect x="955.316" y="397" width="63.9375" height="8" fill="#E5E5E5"/>
            <rect x="1126.15" y="397" width="63.9375" height="8" fill="#E5E5E5"/>
            <rect x="272" y="541" width="64" height="8" fill="#E5E5E5"/>
            <rect x="442.817" y="541" width="63.9375" height="8" fill="#E5E5E5"/>
            <rect x="613.65" y="541" width="63.9375" height="8" fill="#E5E5E5"/>
            <rect x="784.483" y="541" width="63.9375" height="8" fill="#E5E5E5"/>
            <rect x="955.316" y="541" width="63.9375" height="8" fill="#E5E5E5"/>
            <rect x="1126.15" y="541" width="63.9375" height="8" fill="#E5E5E5"/>
            <rect x="272" y="349" width="64" height="8" fill="#E5E5E5"/>
            <rect x="442.817" y="349" width="63.9375" height="8" fill="#E5E5E5"/>
            <rect x="613.65" y="349" width="63.9375" height="8" fill="#E5E5E5"/>
            <rect x="784.483" y="349" width="63.9375" height="8" fill="#E5E5E5"/>
            <rect x="955.316" y="349" width="63.9375" height="8" fill="#E5E5E5"/>
            <rect x="1126.15" y="349" width="63.9375" height="8" fill="#E5E5E5"/>
            <rect x="272" y="301" width="64" height="8" fill="#E5E5E5"/>
            <rect x="442.817" y="301" width="63.9375" height="8" fill="#E5E5E5"/>
            <rect x="613.65" y="301" width="63.9375" height="8" fill="#E5E5E5"/>
            <rect x="784.483" y="301" width="63.9375" height="8" fill="#E5E5E5"/>
            <rect x="955.316" y="301" width="63.9375" height="8" fill="#E5E5E5"/>
            <rect x="1126.15" y="301" width="63.9375" height="8" fill="#E5E5E5"/>
            <rect x="256" y="233" width="1024" height="48" fill="#E0E0E0"/>
            <rect x="256" y="185" width="1023" height="48" fill="#F4F4F4"/>
            <rect x="256" y="99" width="1024" height="88" fill="#F4F4F4"/>
            <rect x="1126.15" y="253" width="87.9141" height="8" fill="#C6C6C6"/>
            <rect x="955.316" y="253" width="87.9141" height="8" fill="#C6C6C6"/>
            <rect x="784.483" y="253" width="87.9141" height="8" fill="#C6C6C6"/>
            <rect x="613.65" y="253" width="87.9141" height="8" fill="#C6C6C6"/>
            <rect x="442.817" y="253" width="87.9141" height="8" fill="#C6C6C6"/>
            <rect x="272" y="253" width="88" height="8" fill="#C6C6C6"/>
            <path fill-rule="evenodd" clip-rule="evenodd" d="M1082.5 209.4V208.6L1083.5 207.8C1083.9 207.5 1083.9 206.9 1083.7 206.5L1082.5 204.5C1082.3 204.2 1082 204 1081.6 204C1081.5 204 1081.4 204 1081.3 204.1L1080.1 204.5C1080.03 204.463 1079.95 204.412 1079.87 204.357C1079.74 204.265 1079.59 204.163 1079.4 204.1L1079.1 202.8C1079.1 202.3 1078.7 202 1078.2 202H1075.8C1075.3 202 1074.9 202.3 1074.8 202.8L1074.6 204.1C1074.3 204.2 1074.1 204.3 1073.9 204.4L1073.9 204.4L1072.7 204H1072.4C1072 204 1071.7 204.2 1071.5 204.5L1070.3 206.5C1070.1 206.9 1070.2 207.4 1070.6 207.8L1071.5 208.7V209.5L1070.6 210.2C1070.2 210.5 1070.1 211.1 1070.4 211.5L1071.6 213.5C1071.7 213.8 1072 214 1072.4 214C1072.5 214 1072.6 214 1072.7 213.9L1073.9 213.5C1073.97 213.537 1074.05 213.588 1074.13 213.643L1074.13 213.643C1074.26 213.735 1074.41 213.837 1074.6 213.9L1074.9 215.2C1075 215.7 1075.4 216 1075.9 216H1078.3C1078.8 216 1079.2 215.7 1079.3 215.2L1079.6 213.9L1079.6 213.9C1079.8 213.8 1080 213.7 1080.3 213.5L1081.5 213.9C1081.55 213.9 1081.6 213.925 1081.65 213.95C1081.7 213.975 1081.75 214 1081.8 214C1082.2 214 1082.5 213.8 1082.7 213.5L1083.8 211.5C1084 211.1 1084 210.6 1083.6 210.2L1082.5 209.4ZM1075.2 210C1075.2 211.7 1076.5 213 1078.2 213C1078.61 213 1079 212.919 1079.35 212.773C1079.08 212.936 1078.79 213.085 1078.5 213.2L1078.2 215H1075.8L1075.4 213.2C1075.04 213.056 1074.73 212.86 1074.4 212.65C1074.27 212.568 1074.14 212.484 1074 212.4L1072.4 213L1071.2 211L1072.6 209.8C1072.5 209.3 1072.5 208.7 1072.6 208.2L1071.2 207L1072.4 205L1074.1 205.6C1074.5 205.2 1075 205 1075.5 204.8L1075.8 203H1078.2L1078.6 204.8C1078.96 204.944 1079.27 205.14 1079.6 205.35C1079.73 205.432 1079.86 205.516 1080 205.6L1081.6 205L1082.8 207L1081.4 208.2C1081.5 208.7 1081.5 209.3 1081.4 209.8L1082.8 211L1081.6 213L1079.97 212.423C1080.72 211.868 1081.2 210.971 1081.2 210C1081.2 208.3 1079.9 207 1078.2 207C1076.5 207 1075.2 208.3 1075.2 210ZM1079.97 212.423C1079.78 212.563 1079.57 212.681 1079.35 212.773C1079.54 212.654 1079.73 212.527 1079.9 212.4L1079.97 212.423ZM1076.2 209.9C1076.2 208.8 1077.1 208 1078.2 208C1079.4 208 1080.2 208.9 1080.2 210V210.1C1080.2 211.2 1079.3 212 1078.2 212H1078.1C1077 212 1076.2 211.1 1076.2 210V209.9Z" fill="black"/>
            <path fill-rule="evenodd" clip-rule="evenodd" d="M1022 214H1036V215H1022V214ZM1033.7 205.5C1034.1 205.1 1034.1 204.5 1033.7 204.1L1031.9 202.3C1031.5 201.9 1030.9 201.9 1030.5 202.3L1023 209.8V213H1026.2L1033.7 205.5ZM1031.2 203L1033 204.8L1031.5 206.3L1029.7 204.5L1031.2 203ZM1024 212V210.2L1029 205.2L1030.8 207L1025.8 212H1024Z" fill="#161616"/>
            <path fill-rule="evenodd" clip-rule="evenodd" d="M988 215.3L983.7 211C985.6 208.7 985.3 205.2 983 203.3C980.7 201.4 977.2 201.7 975.3 204C973.4 206.3 973.7 209.8 976 211.7C978 213.4 981 213.4 983 211.7L987.3 216L988 215.3ZM975 207.5C975 205 977 203 979.5 203C982 203 984 205 984 207.5C984 210 982 212 979.5 212C977 212 975 210 975 207.5Z" fill="#161616"/>
            <rect x="1101" y="187" width="178" height="46" fill="#E5E5E5"/>
            <rect x="272" y="147" width="160" height="8" fill="#E5E5E5"/>
            <rect x="272" y="115" width="120" height="16" fill="#E5E5E5"/>
        </g>
        <rect x="256.2" y="48" width="1023.8" height="49" fill="#181B5E"/>
        <path d="M272.733 79L277.873 65.8H279.773L284.893 79H283.193L279.433 69.16L278.813 67.32H278.773L278.193 69.1L274.413 79H272.733ZM275.253 75.34V73.84H282.313V75.34H275.253ZM292.74 68.8C293.434 68.8 294.04 68.9067 294.56 69.12C295.094 69.3333 295.554 69.64 295.94 70.04C296.327 70.44 296.64 70.9133 296.88 71.46L295.36 72.18C295.147 71.54 294.82 71.0533 294.38 70.72C293.954 70.3733 293.394 70.2 292.7 70.2C292.034 70.2 291.46 70.3533 290.98 70.66C290.5 70.9533 290.134 71.3867 289.88 71.96C289.627 72.52 289.5 73.2 289.5 74C289.5 74.7867 289.627 75.4667 289.88 76.04C290.134 76.6133 290.5 77.0533 290.98 77.36C291.46 77.6533 292.034 77.8 292.7 77.8C293.22 77.8 293.667 77.72 294.04 77.56C294.427 77.4 294.74 77.1667 294.98 76.86C295.234 76.5533 295.407 76.18 295.5 75.74L296.98 76.26C296.754 76.8733 296.44 77.4 296.04 77.84C295.654 78.28 295.18 78.62 294.62 78.86C294.074 79.0867 293.447 79.2 292.74 79.2C291.807 79.2 290.974 78.9933 290.24 78.58C289.507 78.1667 288.934 77.5733 288.52 76.8C288.107 76.0133 287.9 75.08 287.9 74C287.9 72.92 288.107 71.9933 288.52 71.22C288.934 70.4333 289.507 69.8333 290.24 69.42C290.974 69.0067 291.807 68.8 292.74 68.8ZM303.652 66.16V76.24C303.652 76.7333 303.792 77.1 304.072 77.34C304.352 77.58 304.712 77.7 305.152 77.7C305.538 77.7 305.872 77.6333 306.152 77.5C306.432 77.3667 306.685 77.1867 306.912 76.96L307.472 78.3C307.165 78.58 306.798 78.8 306.372 78.96C305.958 79.12 305.478 79.2 304.932 79.2C304.425 79.2 303.952 79.1133 303.512 78.94C303.072 78.7533 302.718 78.4667 302.452 78.08C302.198 77.68 302.065 77.16 302.052 76.52V66.6L303.652 66.16ZM307.292 69V70.38H300.052V69H307.292ZM311.971 67.08C311.611 67.08 311.317 66.9733 311.091 66.76C310.877 66.5333 310.771 66.24 310.771 65.88C310.771 65.52 310.877 65.2333 311.091 65.02C311.317 64.7933 311.611 64.68 311.971 64.68C312.331 64.68 312.617 64.7933 312.831 65.02C313.057 65.2333 313.171 65.52 313.171 65.88C313.171 66.24 313.057 66.5333 312.831 66.76C312.617 66.9733 312.331 67.08 311.971 67.08ZM312.771 69V79H311.171V69H312.771ZM324.603 69H326.283L322.123 79H320.523L316.363 69H318.183L321.343 77.38L324.603 69ZM334.054 79.2C333.107 79.2 332.26 78.9933 331.514 78.58C330.78 78.1667 330.207 77.5733 329.794 76.8C329.38 76.0133 329.174 75.08 329.174 74C329.174 72.92 329.38 71.9933 329.794 71.22C330.207 70.4333 330.774 69.8333 331.494 69.42C332.214 69.0067 333.034 68.8 333.954 68.8C334.887 68.8 335.68 69 336.334 69.4C337 69.8 337.507 70.3467 337.854 71.04C338.2 71.72 338.374 72.4867 338.374 73.34C338.374 73.5667 338.367 73.7733 338.354 73.96C338.34 74.1467 338.32 74.3133 338.294 74.46H330.214V73.04H337.594L336.774 73.2C336.774 72.24 336.507 71.5 335.974 70.98C335.454 70.46 334.767 70.2 333.914 70.2C333.26 70.2 332.694 70.3533 332.214 70.66C331.747 70.9533 331.38 71.3867 331.114 71.96C330.86 72.52 330.734 73.2 330.734 74C330.734 74.7867 330.867 75.4667 331.134 76.04C331.4 76.6133 331.774 77.0533 332.254 77.36C332.747 77.6533 333.334 77.8 334.014 77.8C334.747 77.8 335.34 77.66 335.794 77.38C336.26 77.1 336.634 76.72 336.914 76.24L338.174 76.98C337.92 77.4333 337.594 77.8267 337.194 78.16C336.807 78.4933 336.347 78.7533 335.814 78.94C335.294 79.1133 334.707 79.2 334.054 79.2ZM355.373 68.8C356.066 68.8 356.673 68.9067 357.193 69.12C357.726 69.3333 358.186 69.64 358.573 70.04C358.96 70.44 359.273 70.9133 359.513 71.46L357.993 72.18C357.78 71.54 357.453 71.0533 357.013 70.72C356.586 70.3733 356.026 70.2 355.333 70.2C354.666 70.2 354.093 70.3533 353.613 70.66C353.133 70.9533 352.766 71.3867 352.513 71.96C352.26 72.52 352.133 73.2 352.133 74C352.133 74.7867 352.26 75.4667 352.513 76.04C352.766 76.6133 353.133 77.0533 353.613 77.36C354.093 77.6533 354.666 77.8 355.333 77.8C355.853 77.8 356.3 77.72 356.673 77.56C357.06 77.4 357.373 77.1667 357.613 76.86C357.866 76.5533 358.04 76.18 358.133 75.74L359.613 76.26C359.386 76.8733 359.073 77.4 358.673 77.84C358.286 78.28 357.813 78.62 357.253 78.86C356.706 79.0867 356.08 79.2 355.373 79.2C354.44 79.2 353.606 78.9933 352.873 78.58C352.14 78.1667 351.566 77.5733 351.153 76.8C350.74 76.0133 350.533 75.08 350.533 74C350.533 72.92 350.74 71.9933 351.153 71.22C351.566 70.4333 352.14 69.8333 352.873 69.42C353.606 69.0067 354.44 68.8 355.373 68.8ZM363.924 79V69H365.224L365.444 70.64C365.724 70.0267 366.131 69.5667 366.664 69.26C367.211 68.9533 367.871 68.8 368.644 68.8C368.818 68.8 369.004 68.8133 369.204 68.84C369.418 68.8667 369.598 68.92 369.744 69L369.464 70.46C369.318 70.4067 369.158 70.3667 368.984 70.34C368.811 70.3133 368.564 70.3 368.244 70.3C367.831 70.3 367.411 70.42 366.984 70.66C366.571 70.9 366.224 71.2667 365.944 71.76C365.664 72.24 365.524 72.8533 365.524 73.6V79H363.924ZM377.456 79.2C376.509 79.2 375.663 78.9933 374.916 78.58C374.183 78.1667 373.609 77.5733 373.196 76.8C372.783 76.0133 372.576 75.08 372.576 74C372.576 72.92 372.783 71.9933 373.196 71.22C373.609 70.4333 374.176 69.8333 374.896 69.42C375.616 69.0067 376.436 68.8 377.356 68.8C378.289 68.8 379.083 69 379.736 69.4C380.403 69.8 380.909 70.3467 381.256 71.04C381.603 71.72 381.776 72.4867 381.776 73.34C381.776 73.5667 381.769 73.7733 381.756 73.96C381.743 74.1467 381.723 74.3133 381.696 74.46H373.616V73.04H380.996L380.176 73.2C380.176 72.24 379.909 71.5 379.376 70.98C378.856 70.46 378.169 70.2 377.316 70.2C376.663 70.2 376.096 70.3533 375.616 70.66C375.149 70.9533 374.783 71.3867 374.516 71.96C374.263 72.52 374.136 73.2 374.136 74C374.136 74.7867 374.269 75.4667 374.536 76.04C374.803 76.6133 375.176 77.0533 375.656 77.36C376.149 77.6533 376.736 77.8 377.416 77.8C378.149 77.8 378.743 77.66 379.196 77.38C379.663 77.1 380.036 76.72 380.316 76.24L381.576 76.98C381.323 77.4333 380.996 77.8267 380.596 78.16C380.209 78.4933 379.749 78.7533 379.216 78.94C378.696 79.1133 378.109 79.2 377.456 79.2ZM390.219 79.2C389.392 79.2 388.632 78.9933 387.939 78.58C387.246 78.1667 386.692 77.5733 386.279 76.8C385.866 76.0133 385.659 75.08 385.659 74C385.659 72.8933 385.879 71.9533 386.319 71.18C386.759 70.4067 387.339 69.82 388.059 69.42C388.779 69.0067 389.552 68.8 390.379 68.8C391.206 68.8 391.919 69.0133 392.519 69.44C393.132 69.8667 393.539 70.4333 393.739 71.14L393.539 71.28V64.4H395.139V79H393.739L393.599 76.58L393.819 76.46C393.726 77.0467 393.499 77.5467 393.139 77.96C392.792 78.36 392.359 78.6667 391.839 78.88C391.332 79.0933 390.792 79.2 390.219 79.2ZM390.379 77.8C391.019 77.8 391.572 77.64 392.039 77.32C392.519 77 392.886 76.5467 393.139 75.96C393.406 75.36 393.539 74.66 393.539 73.86C393.539 73.1 393.406 72.4467 393.139 71.9C392.886 71.3533 392.526 70.9333 392.059 70.64C391.606 70.3467 391.072 70.2 390.459 70.2C389.446 70.2 388.659 70.5467 388.099 71.24C387.539 71.9333 387.259 72.8533 387.259 74C387.259 75.1467 387.532 76.0667 388.079 76.76C388.626 77.4533 389.392 77.8 390.379 77.8ZM404.538 79.2C403.591 79.2 402.745 78.9933 401.998 78.58C401.265 78.1667 400.691 77.5733 400.278 76.8C399.865 76.0133 399.658 75.08 399.658 74C399.658 72.92 399.865 71.9933 400.278 71.22C400.691 70.4333 401.258 69.8333 401.978 69.42C402.698 69.0067 403.518 68.8 404.438 68.8C405.371 68.8 406.165 69 406.818 69.4C407.485 69.8 407.991 70.3467 408.338 71.04C408.685 71.72 408.858 72.4867 408.858 73.34C408.858 73.5667 408.851 73.7733 408.838 73.96C408.825 74.1467 408.805 74.3133 408.778 74.46H400.698V73.04H408.078L407.258 73.2C407.258 72.24 406.991 71.5 406.458 70.98C405.938 70.46 405.251 70.2 404.398 70.2C403.745 70.2 403.178 70.3533 402.698 70.66C402.231 70.9533 401.865 71.3867 401.598 71.96C401.345 72.52 401.218 73.2 401.218 74C401.218 74.7867 401.351 75.4667 401.618 76.04C401.885 76.6133 402.258 77.0533 402.738 77.36C403.231 77.6533 403.818 77.8 404.498 77.8C405.231 77.8 405.825 77.66 406.278 77.38C406.745 77.1 407.118 76.72 407.398 76.24L408.658 76.98C408.405 77.4333 408.078 77.8267 407.678 78.16C407.291 78.4933 406.831 78.7533 406.298 78.94C405.778 79.1133 405.191 79.2 404.538 79.2ZM413.401 79V69H414.801L414.941 71.24L414.681 71.02C414.894 70.4867 415.181 70.06 415.541 69.74C415.901 69.4067 416.314 69.1667 416.781 69.02C417.261 68.8733 417.754 68.8 418.261 68.8C418.981 68.8 419.634 68.94 420.221 69.22C420.808 69.4867 421.274 69.9 421.621 70.46C421.981 71.02 422.161 71.7333 422.161 72.6V79H420.561V73.16C420.561 72.0533 420.321 71.2867 419.841 70.86C419.374 70.42 418.794 70.2 418.101 70.2C417.621 70.2 417.141 70.3133 416.661 70.54C416.181 70.7667 415.781 71.1333 415.461 71.64C415.154 72.1467 415.001 72.8267 415.001 73.68V79H413.401ZM429.507 66.16V76.24C429.507 76.7333 429.647 77.1 429.927 77.34C430.207 77.58 430.567 77.7 431.007 77.7C431.394 77.7 431.727 77.6333 432.007 77.5C432.287 77.3667 432.54 77.1867 432.767 76.96L433.327 78.3C433.02 78.58 432.654 78.8 432.227 78.96C431.814 79.12 431.334 79.2 430.787 79.2C430.28 79.2 429.807 79.1133 429.367 78.94C428.927 78.7533 428.574 78.4667 428.307 78.08C428.054 77.68 427.92 77.16 427.907 76.52V66.6L429.507 66.16ZM433.147 69V70.38H425.907V69H433.147ZM437.826 67.08C437.466 67.08 437.173 66.9733 436.946 66.76C436.733 66.5333 436.626 66.24 436.626 65.88C436.626 65.52 436.733 65.2333 436.946 65.02C437.173 64.7933 437.466 64.68 437.826 64.68C438.186 64.68 438.473 64.7933 438.686 65.02C438.913 65.2333 439.026 65.52 439.026 65.88C439.026 66.24 438.913 66.5333 438.686 66.76C438.473 66.9733 438.186 67.08 437.826 67.08ZM438.626 69V79H437.026V69H438.626ZM449.679 72.54C449.679 71.7933 449.479 71.22 449.079 70.82C448.679 70.4067 448.112 70.2 447.379 70.2C446.685 70.2 446.099 70.3533 445.619 70.66C445.139 70.9533 444.785 71.4333 444.559 72.1L443.259 71.3C443.525 70.5533 444.019 69.9533 444.739 69.5C445.459 69.0333 446.352 68.8 447.419 68.8C448.139 68.8 448.792 68.9267 449.379 69.18C449.965 69.42 450.425 69.7933 450.759 70.3C451.105 70.7933 451.279 71.4333 451.279 72.22V77.06C451.279 77.54 451.532 77.78 452.039 77.78C452.292 77.78 452.539 77.7467 452.779 77.68L452.699 78.94C452.432 79.0733 452.085 79.14 451.659 79.14C451.272 79.14 450.925 79.0667 450.619 78.92C450.312 78.7733 450.072 78.5533 449.899 78.26C449.725 77.9533 449.639 77.5733 449.639 77.12V76.92L450.039 76.98C449.879 77.5 449.605 77.9267 449.219 78.26C448.832 78.58 448.399 78.82 447.919 78.98C447.439 79.1267 446.965 79.2 446.499 79.2C445.912 79.2 445.365 79.1 444.859 78.9C444.352 78.7 443.945 78.4 443.639 78C443.345 77.5867 443.199 77.08 443.199 76.48C443.199 75.7333 443.445 75.12 443.939 74.64C444.445 74.1467 445.145 73.8133 446.039 73.64L449.999 72.86V74.18L446.779 74.84C446.125 74.9733 445.639 75.16 445.319 75.4C444.999 75.64 444.839 75.9733 444.839 76.4C444.839 76.8133 444.999 77.1533 445.319 77.42C445.652 77.6733 446.119 77.8 446.719 77.8C447.105 77.8 447.472 77.7533 447.819 77.66C448.179 77.5533 448.499 77.4 448.779 77.2C449.059 76.9867 449.279 76.7267 449.439 76.42C449.599 76.1 449.679 75.7267 449.679 75.3V72.54ZM458.187 64.4V76.46C458.187 76.9667 458.28 77.32 458.467 77.52C458.653 77.7067 458.953 77.8 459.367 77.8C459.633 77.8 459.853 77.78 460.027 77.74C460.2 77.7 460.433 77.6267 460.727 77.52L460.467 78.92C460.253 79.0133 460.02 79.08 459.767 79.12C459.513 79.1733 459.253 79.2 458.987 79.2C458.173 79.2 457.567 78.98 457.167 78.54C456.78 78.1 456.587 77.4267 456.587 76.52V64.4H458.187ZM467.88 79.2C466.907 79.2 466.007 78.9933 465.18 78.58C464.367 78.1667 463.74 77.58 463.3 76.82L464.66 75.84C464.953 76.4533 465.38 76.9333 465.94 77.28C466.513 77.6267 467.2 77.8 468 77.8C468.707 77.8 469.26 77.6667 469.66 77.4C470.06 77.12 470.26 76.76 470.26 76.32C470.26 76.04 470.167 75.7867 469.98 75.56C469.807 75.32 469.467 75.1467 468.96 75.04L466.56 74.54C465.587 74.34 464.887 74.0067 464.46 73.54C464.047 73.0733 463.84 72.4933 463.84 71.8C463.84 71.2533 463.993 70.7533 464.3 70.3C464.62 69.8467 465.067 69.4867 465.64 69.22C466.227 68.94 466.913 68.8 467.7 68.8C468.687 68.8 469.52 68.9933 470.2 69.38C470.88 69.7667 471.387 70.3133 471.72 71.02L470.38 71.9C470.153 71.3133 469.787 70.8867 469.28 70.62C468.773 70.34 468.247 70.2 467.7 70.2C467.22 70.2 466.807 70.2667 466.46 70.4C466.127 70.5333 465.867 70.72 465.68 70.96C465.507 71.1867 465.42 71.4467 465.42 71.74C465.42 72.0333 465.52 72.3067 465.72 72.56C465.92 72.8 466.293 72.9733 466.84 73.08L469.34 73.6C470.273 73.7867 470.927 74.0933 471.3 74.52C471.673 74.9467 471.86 75.4667 471.86 76.08C471.86 76.7067 471.693 77.26 471.36 77.74C471.027 78.2067 470.56 78.5667 469.96 78.82C469.36 79.0733 468.667 79.2 467.88 79.2Z" fill="white"/>
    </g>
    <defs>
        <clipPath id="clip0">
            <rect width="1280" height="693" fill="white"/>
        </clipPath>
        <clipPath id="clip1">
            <rect width="1280" height="693" fill="white"/>
        </clipPath>
    </defs>
</svg>
