<svg width="1280" height="693" viewBox="0 0 1280 693" fill="none" xmlns="http://www.w3.org/2000/svg">
    <g clip-path="url(#clip0)">
        <g clip-path="url(#clip1)">
            <rect width="1280" height="693" fill="white"/>
            <rect width="1280" height="48" fill="#181B5E"/>
            <path fill-rule="evenodd" clip-rule="evenodd" d="M0 0H1280V48H0V0Z" fill="white"/>
            <rect y="47" width="1280" height="1" fill="#181B5E"/>
            <path d="M18.8 28C18.24 28 17.764 27.804 17.372 27.412C16.98 27.02 16.784 26.544 16.784 25.984V19.936C16.784 19.376 16.98 18.9 17.372 18.508C17.764 18.116 18.24 17.92 18.8 17.92H26.836V19.936H19.262C18.982 19.936 18.8327 19.9453 18.814 19.964C18.8047 19.9827 18.8 20.132 18.8 20.412V25.508C18.8 25.788 18.8047 25.9373 18.814 25.956C18.8327 25.9747 18.982 25.984 19.262 25.984H26.836V28H18.8ZM29.2817 28V17.934H37.3457C37.8964 17.934 38.3677 18.1347 38.7597 18.536C39.1611 18.928 39.3617 19.3993 39.3617 19.95V22.61C39.3617 23.1513 39.1611 23.6227 38.7597 24.024C38.3677 24.416 37.8964 24.612 37.3457 24.612H37.0237L39.3477 27.37V28H37.2337L34.3917 24.612L31.2977 24.626V28H29.2817ZM31.7597 22.596H36.8557C37.1357 22.596 37.2851 22.5867 37.3037 22.568C37.3224 22.5493 37.3317 22.4 37.3317 22.12V20.412C37.3317 20.132 37.3224 19.9873 37.3037 19.978C37.2851 19.9593 37.1357 19.95 36.8557 19.95H31.7597C31.4797 19.95 31.3304 19.9593 31.3117 19.978C31.3024 19.9873 31.2977 20.132 31.2977 20.412V22.12C31.2977 22.4 31.3024 22.5493 31.3117 22.568C31.3304 22.5867 31.4797 22.596 31.7597 22.596ZM41.8765 28V17.92H51.1725V19.936H43.9065V21.952H49.7585V23.968H43.9065V25.984H51.1725V28H41.8765ZM53.5952 28V17.92H61.6592C62.2099 17.92 62.6812 18.116 63.0732 18.508C63.4745 18.9 63.6752 19.376 63.6752 19.936V25.984C63.6752 26.544 63.4745 27.02 63.0732 27.412C62.6812 27.804 62.2099 28 61.6592 28H53.5952ZM56.0732 25.984H61.1692C61.4492 25.984 61.5985 25.9747 61.6172 25.956C61.6359 25.9373 61.6452 25.788 61.6452 25.508V20.412C61.6452 20.132 61.6359 19.9827 61.6172 19.964C61.5985 19.9453 61.4492 19.936 61.1692 19.936H56.0732C55.7932 19.936 55.6439 19.9453 55.6252 19.964C55.6159 19.9827 55.6112 20.132 55.6112 20.412V25.508C55.6112 25.788 55.6159 25.9373 55.6252 25.956C55.6439 25.9747 55.7932 25.984 56.0732 25.984ZM66.271 28V17.92H75.567V19.936H68.301V21.952H74.153V23.968H68.301V25.984H75.567V28H66.271ZM77.9617 28V17.92H80.0897L86.0117 24.962V17.92H88.0417V28H85.9137L79.9777 20.93V28H77.9617ZM94.1382 28V19.936H90.1062V17.92H100.186V19.936H96.1542V28H94.1382ZM102.177 28V17.92H104.165V28H102.177ZM106.255 28V19.936C106.255 19.376 106.451 18.9 106.843 18.508C107.235 18.116 107.711 17.92 108.271 17.92H114.319C114.87 17.92 115.341 18.116 115.733 18.508C116.135 18.9 116.335 19.376 116.335 19.936V28H114.305V24.682H108.271V28H106.255ZM108.271 22.666H114.305V20.412C114.305 20.132 114.296 19.9827 114.277 19.964C114.259 19.9453 114.109 19.936 113.829 19.936H108.733C108.453 19.936 108.304 19.9453 108.285 19.964C108.276 19.9827 108.271 20.132 108.271 20.412V22.666ZM118.944 28V17.906H120.96V25.984H129.024V28H118.944ZM132.815 28C132.264 28 131.793 27.804 131.401 27.412C131.009 27.02 130.813 26.544 130.813 25.984V25.13H132.815V25.508C132.815 25.788 132.824 25.9373 132.843 25.956C132.861 25.9747 133.011 25.984 133.291 25.984H138.373C138.662 25.984 138.811 25.9747 138.821 25.956C138.839 25.9373 138.849 25.788 138.849 25.508V24.444C138.849 24.164 138.839 24.0147 138.821 23.996C138.811 23.9773 138.662 23.968 138.373 23.968H132.815C132.264 23.968 131.793 23.772 131.401 23.38C131.009 22.988 130.813 22.5167 130.813 21.966V19.936C130.813 19.376 131.009 18.9 131.401 18.508C131.793 18.116 132.264 17.92 132.815 17.92H138.877C139.418 17.92 139.889 18.116 140.291 18.508C140.692 18.9 140.893 19.376 140.893 19.936V20.79H138.849V20.412C138.849 20.132 138.839 19.9827 138.821 19.964C138.811 19.9453 138.662 19.936 138.373 19.936H133.291C133.011 19.936 132.861 19.9453 132.843 19.964C132.824 19.9827 132.815 20.132 132.815 20.412V21.476C132.815 21.756 132.824 21.9053 132.843 21.924C132.861 21.9427 133.011 21.952 133.291 21.952H138.877C139.418 21.952 139.889 22.148 140.291 22.54C140.692 22.932 140.893 23.4033 140.893 23.954V25.984C140.893 26.544 140.692 27.02 140.291 27.412C139.889 27.804 139.418 28 138.877 28H132.815Z" fill="#181B5E"/>
            <circle cx="1250" cy="24" r="14" fill="#EAEAEA"/>
            <path d="M1082.58 20.08V25.288C1082.58 26.176 1082.34 26.872 1081.86 27.376C1081.39 27.872 1080.73 28.12 1079.89 28.12C1079.3 28.12 1078.81 28.008 1078.43 27.784C1078.04 27.56 1077.78 27.244 1077.62 26.836C1077.48 26.42 1077.46 25.936 1077.56 25.384L1078.45 25.204C1078.36 25.884 1078.42 26.392 1078.63 26.728C1078.85 27.056 1079.26 27.22 1079.86 27.22C1080.54 27.22 1081 27.036 1081.25 26.668C1081.5 26.292 1081.62 25.752 1081.62 25.048V20.08H1082.58ZM1087.46 21.88C1088.03 21.88 1088.53 22.004 1088.96 22.252C1089.4 22.5 1089.75 22.86 1090 23.332C1090.24 23.796 1090.37 24.352 1090.37 25C1090.37 25.648 1090.24 26.208 1090 26.68C1089.75 27.144 1089.4 27.5 1088.96 27.748C1088.53 27.996 1088.03 28.12 1087.46 28.12C1086.9 28.12 1086.4 27.996 1085.96 27.748C1085.52 27.5 1085.18 27.144 1084.93 26.68C1084.68 26.208 1084.56 25.648 1084.56 25C1084.56 24.352 1084.68 23.796 1084.93 23.332C1085.18 22.86 1085.52 22.5 1085.96 22.252C1086.4 22.004 1086.9 21.88 1087.46 21.88ZM1087.46 22.708C1087.06 22.708 1086.71 22.8 1086.42 22.984C1086.13 23.168 1085.91 23.432 1085.75 23.776C1085.6 24.112 1085.52 24.52 1085.52 25C1085.52 25.472 1085.6 25.88 1085.75 26.224C1085.91 26.568 1086.13 26.832 1086.42 27.016C1086.71 27.2 1087.06 27.292 1087.46 27.292C1087.87 27.292 1088.22 27.2 1088.51 27.016C1088.8 26.832 1089.02 26.568 1089.17 26.224C1089.33 25.88 1089.41 25.472 1089.41 25C1089.41 24.52 1089.33 24.112 1089.17 23.776C1089.02 23.432 1088.8 23.168 1088.51 22.984C1088.22 22.8 1087.87 22.708 1087.46 22.708ZM1092.33 28V19.24H1093.29V22.9C1093.5 22.54 1093.78 22.28 1094.12 22.12C1094.47 21.96 1094.84 21.88 1095.25 21.88C1095.68 21.88 1096.07 21.964 1096.43 22.132C1096.78 22.292 1097.06 22.54 1097.27 22.876C1097.48 23.212 1097.59 23.64 1097.59 24.16V28H1096.63V24.496C1096.63 23.832 1096.49 23.372 1096.2 23.116C1095.92 22.852 1095.57 22.72 1095.15 22.72C1094.87 22.72 1094.58 22.788 1094.29 22.924C1094 23.06 1093.76 23.284 1093.57 23.596C1093.39 23.9 1093.29 24.308 1093.29 24.82V28H1092.33ZM1099.92 28V22H1100.76L1100.85 23.344L1100.69 23.212C1100.82 22.892 1100.99 22.636 1101.21 22.444C1101.42 22.244 1101.67 22.1 1101.95 22.012C1102.24 21.924 1102.54 21.88 1102.84 21.88C1103.27 21.88 1103.66 21.964 1104.02 22.132C1104.37 22.292 1104.65 22.54 1104.86 22.876C1105.07 23.212 1105.18 23.64 1105.18 24.16V28H1104.22V24.496C1104.22 23.832 1104.08 23.372 1103.79 23.116C1103.51 22.852 1103.16 22.72 1102.74 22.72C1102.46 22.72 1102.17 22.788 1101.88 22.924C1101.59 23.06 1101.35 23.28 1101.16 23.584C1100.98 23.888 1100.88 24.296 1100.88 24.808V28H1099.92ZM1110.19 20.08C1111.43 20.08 1112.4 20.424 1113.11 21.112C1113.82 21.792 1114.18 22.768 1114.18 24.04C1114.18 25.312 1113.82 26.292 1113.11 26.98C1112.4 27.66 1111.43 28 1110.19 28H1107.64V20.08H1110.19ZM1110.29 27.1C1111.19 27.1 1111.9 26.832 1112.4 26.296C1112.91 25.752 1113.17 25 1113.17 24.04C1113.17 23.08 1112.91 22.332 1112.4 21.796C1111.9 21.252 1111.19 20.98 1110.29 20.98H1108.6V27.1H1110.29ZM1118.75 21.88C1119.32 21.88 1119.82 22.004 1120.25 22.252C1120.69 22.5 1121.03 22.86 1121.28 23.332C1121.53 23.796 1121.65 24.352 1121.65 25C1121.65 25.648 1121.53 26.208 1121.28 26.68C1121.03 27.144 1120.69 27.5 1120.25 27.748C1119.82 27.996 1119.32 28.12 1118.75 28.12C1118.19 28.12 1117.69 27.996 1117.25 27.748C1116.81 27.5 1116.46 27.144 1116.22 26.68C1115.97 26.208 1115.84 25.648 1115.84 25C1115.84 24.352 1115.97 23.796 1116.22 23.332C1116.46 22.86 1116.81 22.5 1117.25 22.252C1117.69 22.004 1118.19 21.88 1118.75 21.88ZM1118.75 22.708C1118.34 22.708 1117.99 22.8 1117.7 22.984C1117.42 23.168 1117.19 23.432 1117.03 23.776C1116.88 24.112 1116.8 24.52 1116.8 25C1116.8 25.472 1116.88 25.88 1117.03 26.224C1117.19 26.568 1117.42 26.832 1117.7 27.016C1117.99 27.2 1118.34 27.292 1118.75 27.292C1119.16 27.292 1119.5 27.2 1119.79 27.016C1120.08 26.832 1120.3 26.568 1120.45 26.224C1120.61 25.88 1120.69 25.472 1120.69 25C1120.69 24.52 1120.61 24.112 1120.45 23.776C1120.3 23.432 1120.08 23.168 1119.79 22.984C1119.5 22.8 1119.16 22.708 1118.75 22.708ZM1126.13 28.12C1125.56 28.12 1125.05 27.996 1124.6 27.748C1124.16 27.5 1123.82 27.144 1123.57 26.68C1123.32 26.208 1123.2 25.648 1123.2 25C1123.2 24.352 1123.32 23.796 1123.57 23.332C1123.82 22.86 1124.16 22.5 1124.59 22.252C1125.02 22.004 1125.51 21.88 1126.07 21.88C1126.63 21.88 1127.1 22 1127.49 22.24C1127.89 22.48 1128.2 22.808 1128.41 23.224C1128.61 23.632 1128.72 24.092 1128.72 24.604C1128.72 24.74 1128.71 24.864 1128.71 24.976C1128.7 25.088 1128.69 25.188 1128.67 25.276H1123.82V24.424H1128.25L1127.76 24.52C1127.76 23.944 1127.6 23.5 1127.28 23.188C1126.97 22.876 1126.55 22.72 1126.04 22.72C1125.65 22.72 1125.31 22.812 1125.02 22.996C1124.74 23.172 1124.52 23.432 1124.36 23.776C1124.21 24.112 1124.13 24.52 1124.13 25C1124.13 25.472 1124.21 25.88 1124.37 26.224C1124.53 26.568 1124.76 26.832 1125.05 27.016C1125.34 27.192 1125.69 27.28 1126.1 27.28C1126.54 27.28 1126.9 27.196 1127.17 27.028C1127.45 26.86 1127.67 26.632 1127.84 26.344L1128.6 26.788C1128.45 27.06 1128.25 27.296 1128.01 27.496C1127.78 27.696 1127.5 27.852 1127.18 27.964C1126.87 28.068 1126.52 28.12 1126.13 28.12ZM1135.4 30.34C1134.64 30.34 1133.96 30.22 1133.34 29.98C1132.73 29.74 1132.2 29.4 1131.76 28.96C1131.32 28.52 1130.98 27.992 1130.74 27.376C1130.5 26.76 1130.38 26.076 1130.38 25.324C1130.38 24.548 1130.51 23.84 1130.76 23.2C1131.03 22.56 1131.4 22.008 1131.87 21.544C1132.34 21.072 1132.9 20.712 1133.54 20.464C1134.18 20.208 1134.88 20.08 1135.65 20.08C1136.4 20.08 1137.07 20.204 1137.65 20.452C1138.24 20.692 1138.73 21.028 1139.13 21.46C1139.54 21.892 1139.84 22.388 1140.05 22.948C1140.26 23.508 1140.36 24.1 1140.36 24.724C1140.36 25.244 1140.3 25.712 1140.16 26.128C1140.03 26.544 1139.85 26.9 1139.62 27.196C1139.39 27.484 1139.12 27.708 1138.83 27.868C1138.54 28.02 1138.24 28.096 1137.93 28.096C1137.5 28.096 1137.18 27.984 1136.97 27.76C1136.77 27.536 1136.68 27.252 1136.72 26.908C1136.54 27.244 1136.28 27.512 1135.92 27.712C1135.57 27.912 1135.21 28.012 1134.83 28.012C1134.42 28.012 1134.05 27.912 1133.73 27.712C1133.42 27.512 1133.17 27.236 1133 26.884C1132.82 26.524 1132.73 26.112 1132.73 25.648C1132.73 25.2 1132.8 24.784 1132.94 24.4C1133.07 24.008 1133.26 23.668 1133.5 23.38C1133.75 23.084 1134.04 22.856 1134.38 22.696C1134.71 22.528 1135.08 22.444 1135.47 22.444C1135.78 22.444 1136.06 22.5 1136.31 22.612C1136.56 22.716 1136.76 22.868 1136.93 23.068C1137.1 23.26 1137.22 23.492 1137.28 23.764L1137.57 22.552H1138.42L1137.51 26.464C1137.49 26.544 1137.48 26.62 1137.46 26.692C1137.45 26.756 1137.45 26.82 1137.45 26.884C1137.45 27.108 1137.5 27.256 1137.62 27.328C1137.74 27.392 1137.87 27.424 1138.01 27.424C1138.3 27.424 1138.57 27.324 1138.82 27.124C1139.06 26.924 1139.26 26.624 1139.42 26.224C1139.58 25.816 1139.66 25.316 1139.66 24.724C1139.66 24.164 1139.56 23.644 1139.38 23.164C1139.2 22.684 1138.93 22.268 1138.58 21.916C1138.23 21.556 1137.82 21.28 1137.33 21.088C1136.84 20.888 1136.29 20.788 1135.68 20.788C1135.02 20.788 1134.41 20.896 1133.86 21.112C1133.32 21.32 1132.84 21.624 1132.44 22.024C1132.04 22.416 1131.73 22.892 1131.51 23.452C1131.29 24.012 1131.18 24.636 1131.18 25.324C1131.18 25.996 1131.29 26.596 1131.5 27.124C1131.71 27.652 1132.01 28.104 1132.4 28.48C1132.78 28.856 1133.23 29.14 1133.74 29.332C1134.25 29.532 1134.8 29.632 1135.4 29.632C1136.08 29.632 1136.61 29.544 1137 29.368C1137.4 29.2 1137.72 29.016 1137.99 28.816L1138.41 29.404C1138.19 29.572 1137.95 29.724 1137.68 29.86C1137.41 30.004 1137.1 30.12 1136.73 30.208C1136.36 30.296 1135.92 30.34 1135.4 30.34ZM1135.11 27.28C1135.44 27.28 1135.75 27.172 1136.03 26.956C1136.31 26.732 1136.53 26.432 1136.69 26.056C1136.86 25.672 1136.94 25.244 1136.94 24.772C1136.94 24.452 1136.88 24.176 1136.76 23.944C1136.65 23.704 1136.49 23.52 1136.27 23.392C1136.06 23.256 1135.82 23.188 1135.53 23.188C1135.24 23.188 1134.98 23.252 1134.74 23.38C1134.5 23.5 1134.3 23.672 1134.12 23.896C1133.96 24.12 1133.82 24.38 1133.73 24.676C1133.63 24.972 1133.58 25.292 1133.58 25.636C1133.58 25.988 1133.64 26.288 1133.76 26.536C1133.88 26.776 1134.06 26.96 1134.28 27.088C1134.51 27.216 1134.79 27.28 1135.11 27.28ZM1144.84 21.88C1145.26 21.88 1145.62 21.944 1145.94 22.072C1146.26 22.2 1146.53 22.384 1146.76 22.624C1147 22.864 1147.18 23.148 1147.33 23.476L1146.42 23.908C1146.29 23.524 1146.09 23.232 1145.83 23.032C1145.57 22.824 1145.24 22.72 1144.82 22.72C1144.42 22.72 1144.08 22.812 1143.79 22.996C1143.5 23.172 1143.28 23.432 1143.13 23.776C1142.98 24.112 1142.9 24.52 1142.9 25C1142.9 25.472 1142.98 25.88 1143.13 26.224C1143.28 26.568 1143.5 26.832 1143.79 27.016C1144.08 27.192 1144.42 27.28 1144.82 27.28C1145.13 27.28 1145.4 27.232 1145.62 27.136C1145.86 27.04 1146.04 26.9 1146.19 26.716C1146.34 26.532 1146.44 26.308 1146.5 26.044L1147.39 26.356C1147.25 26.724 1147.06 27.04 1146.82 27.304C1146.59 27.568 1146.31 27.772 1145.97 27.916C1145.64 28.052 1145.27 28.12 1144.84 28.12C1144.28 28.12 1143.78 27.996 1143.34 27.748C1142.9 27.5 1142.56 27.144 1142.31 26.68C1142.06 26.208 1141.94 25.648 1141.94 25C1141.94 24.352 1142.06 23.796 1142.31 23.332C1142.56 22.86 1142.9 22.5 1143.34 22.252C1143.78 22.004 1144.28 21.88 1144.84 21.88ZM1151.72 21.88C1152.29 21.88 1152.79 22.004 1153.22 22.252C1153.66 22.5 1154 22.86 1154.25 23.332C1154.5 23.796 1154.62 24.352 1154.62 25C1154.62 25.648 1154.5 26.208 1154.25 26.68C1154 27.144 1153.66 27.5 1153.22 27.748C1152.79 27.996 1152.29 28.12 1151.72 28.12C1151.16 28.12 1150.66 27.996 1150.22 27.748C1149.78 27.5 1149.44 27.144 1149.19 26.68C1148.94 26.208 1148.82 25.648 1148.82 25C1148.82 24.352 1148.94 23.796 1149.19 23.332C1149.44 22.86 1149.78 22.5 1150.22 22.252C1150.66 22.004 1151.16 21.88 1151.72 21.88ZM1151.72 22.708C1151.31 22.708 1150.96 22.8 1150.68 22.984C1150.39 23.168 1150.16 23.432 1150 23.776C1149.85 24.112 1149.78 24.52 1149.78 25C1149.78 25.472 1149.85 25.88 1150 26.224C1150.16 26.568 1150.39 26.832 1150.68 27.016C1150.96 27.2 1151.31 27.292 1151.72 27.292C1152.13 27.292 1152.48 27.2 1152.76 27.016C1153.05 26.832 1153.27 26.568 1153.42 26.224C1153.58 25.88 1153.66 25.472 1153.66 25C1153.66 24.52 1153.58 24.112 1153.42 23.776C1153.27 23.432 1153.05 23.168 1152.76 22.984C1152.48 22.8 1152.13 22.708 1151.72 22.708ZM1156.59 28V22H1157.43L1157.49 22.936C1157.71 22.568 1157.99 22.3 1158.33 22.132C1158.68 21.964 1159.04 21.88 1159.41 21.88C1159.83 21.88 1160.23 21.976 1160.61 22.168C1160.99 22.36 1161.27 22.656 1161.47 23.056C1161.6 22.784 1161.78 22.564 1162.01 22.396C1162.25 22.22 1162.5 22.092 1162.77 22.012C1163.05 21.924 1163.31 21.88 1163.56 21.88C1163.95 21.88 1164.31 21.96 1164.65 22.12C1165.01 22.28 1165.29 22.528 1165.52 22.864C1165.74 23.2 1165.85 23.632 1165.85 24.16V28H1164.89V24.256C1164.89 23.712 1164.76 23.32 1164.49 23.08C1164.21 22.84 1163.88 22.72 1163.48 22.72C1163.17 22.72 1162.87 22.796 1162.6 22.948C1162.33 23.1 1162.11 23.324 1161.94 23.62C1161.78 23.916 1161.7 24.28 1161.7 24.712V28H1160.74V24.256C1160.74 23.712 1160.61 23.32 1160.33 23.08C1160.06 22.84 1159.73 22.72 1159.33 22.72C1159.06 22.72 1158.79 22.792 1158.51 22.936C1158.24 23.072 1158.01 23.292 1157.83 23.596C1157.64 23.9 1157.55 24.3 1157.55 24.796V28H1156.59ZM1168.19 30.52V22H1169.03L1169.11 23.464L1168.98 23.296C1169.08 23.016 1169.24 22.772 1169.45 22.564C1169.66 22.348 1169.91 22.18 1170.2 22.06C1170.5 21.94 1170.82 21.88 1171.16 21.88C1171.65 21.88 1172.1 22.004 1172.51 22.252C1172.92 22.5 1173.26 22.856 1173.5 23.32C1173.75 23.784 1173.88 24.344 1173.88 25C1173.88 25.648 1173.75 26.208 1173.49 26.68C1173.24 27.144 1172.91 27.5 1172.5 27.748C1172.08 27.996 1171.62 28.12 1171.13 28.12C1170.63 28.12 1170.2 28 1169.82 27.76C1169.45 27.512 1169.19 27.2 1169.03 26.824L1169.15 26.644V30.52H1168.19ZM1171.03 27.28C1171.62 27.28 1172.08 27.072 1172.41 26.656C1172.75 26.24 1172.92 25.688 1172.92 25C1172.92 24.312 1172.75 23.76 1172.42 23.344C1172.1 22.928 1171.65 22.72 1171.07 22.72C1170.68 22.72 1170.35 22.816 1170.06 23.008C1169.77 23.192 1169.55 23.456 1169.39 23.8C1169.23 24.136 1169.15 24.536 1169.15 25C1169.15 25.456 1169.22 25.856 1169.38 26.2C1169.54 26.544 1169.76 26.812 1170.04 27.004C1170.32 27.188 1170.66 27.28 1171.03 27.28ZM1179.38 24.124C1179.38 23.676 1179.26 23.332 1179.02 23.092C1178.78 22.844 1178.44 22.72 1178 22.72C1177.58 22.72 1177.23 22.812 1176.94 22.996C1176.65 23.172 1176.44 23.46 1176.3 23.86L1175.52 23.38C1175.68 22.932 1175.98 22.572 1176.41 22.3C1176.84 22.02 1177.38 21.88 1178.02 21.88C1178.45 21.88 1178.84 21.956 1179.2 22.108C1179.55 22.252 1179.82 22.476 1180.02 22.78C1180.23 23.076 1180.34 23.46 1180.34 23.932V26.836C1180.34 27.124 1180.49 27.268 1180.79 27.268C1180.94 27.268 1181.09 27.248 1181.24 27.208L1181.19 27.964C1181.03 28.044 1180.82 28.084 1180.56 28.084C1180.33 28.084 1180.12 28.04 1179.94 27.952C1179.76 27.864 1179.61 27.732 1179.51 27.556C1179.4 27.372 1179.35 27.144 1179.35 26.872V26.752L1179.59 26.788C1179.5 27.1 1179.33 27.356 1179.1 27.556C1178.87 27.748 1178.61 27.892 1178.32 27.988C1178.03 28.076 1177.75 28.12 1177.47 28.12C1177.12 28.12 1176.79 28.06 1176.48 27.94C1176.18 27.82 1175.94 27.64 1175.75 27.4C1175.58 27.152 1175.49 26.848 1175.49 26.488C1175.49 26.04 1175.64 25.672 1175.93 25.384C1176.24 25.088 1176.66 24.888 1177.19 24.784L1179.57 24.316V25.108L1177.64 25.504C1177.24 25.584 1176.95 25.696 1176.76 25.84C1176.57 25.984 1176.47 26.184 1176.47 26.44C1176.47 26.688 1176.57 26.892 1176.76 27.052C1176.96 27.204 1177.24 27.28 1177.6 27.28C1177.83 27.28 1178.05 27.252 1178.26 27.196C1178.48 27.132 1178.67 27.04 1178.84 26.92C1179 26.792 1179.14 26.636 1179.23 26.452C1179.33 26.26 1179.38 26.036 1179.38 25.78V24.124ZM1182.83 28V22H1183.67L1183.75 23.344L1183.6 23.212C1183.72 22.892 1183.9 22.636 1184.11 22.444C1184.33 22.244 1184.58 22.1 1184.86 22.012C1185.14 21.924 1185.44 21.88 1185.74 21.88C1186.18 21.88 1186.57 21.964 1186.92 22.132C1187.27 22.292 1187.55 22.54 1187.76 22.876C1187.98 23.212 1188.08 23.64 1188.08 24.16V28H1187.12V24.496C1187.12 23.832 1186.98 23.372 1186.69 23.116C1186.41 22.852 1186.06 22.72 1185.65 22.72C1185.36 22.72 1185.07 22.788 1184.78 22.924C1184.5 23.06 1184.26 23.28 1184.06 23.584C1183.88 23.888 1183.79 24.296 1183.79 24.808V28H1182.83ZM1195.19 22L1192.37 29.008C1192.21 29.4 1192.05 29.708 1191.86 29.932C1191.69 30.164 1191.49 30.328 1191.26 30.424C1191.05 30.528 1190.79 30.58 1190.51 30.58C1190.23 30.58 1189.98 30.54 1189.75 30.46C1189.53 30.388 1189.33 30.288 1189.15 30.16L1189.41 29.32C1189.57 29.464 1189.74 29.568 1189.92 29.632C1190.1 29.704 1190.28 29.74 1190.46 29.74C1190.67 29.74 1190.86 29.676 1191.05 29.548C1191.23 29.42 1191.4 29.16 1191.55 28.768L1191.86 27.988L1191.26 26.56L1189.35 22H1190.45L1191.95 25.912L1192.32 26.98L1192.75 25.792L1194.15 22H1195.19ZM1196.19 26.56C1196.42 26.56 1196.61 26.632 1196.76 26.776C1196.9 26.92 1196.97 27.108 1196.97 27.34C1196.97 27.572 1196.9 27.76 1196.76 27.904C1196.61 28.048 1196.42 28.12 1196.19 28.12C1195.96 28.12 1195.77 28.048 1195.63 27.904C1195.48 27.76 1195.41 27.572 1195.41 27.34C1195.41 27.108 1195.48 26.92 1195.63 26.776C1195.77 26.632 1195.96 26.56 1196.19 26.56ZM1201.31 21.88C1201.72 21.88 1202.09 21.944 1202.4 22.072C1202.72 22.2 1203 22.384 1203.23 22.624C1203.46 22.864 1203.65 23.148 1203.79 23.476L1202.88 23.908C1202.75 23.524 1202.56 23.232 1202.29 23.032C1202.04 22.824 1201.7 22.72 1201.28 22.72C1200.88 22.72 1200.54 22.812 1200.25 22.996C1199.96 23.172 1199.74 23.432 1199.59 23.776C1199.44 24.112 1199.36 24.52 1199.36 25C1199.36 25.472 1199.44 25.88 1199.59 26.224C1199.74 26.568 1199.96 26.832 1200.25 27.016C1200.54 27.192 1200.88 27.28 1201.28 27.28C1201.6 27.28 1201.86 27.232 1202.09 27.136C1202.32 27.04 1202.51 26.9 1202.65 26.716C1202.8 26.532 1202.91 26.308 1202.96 26.044L1203.85 26.356C1203.72 26.724 1203.53 27.04 1203.29 27.304C1203.06 27.568 1202.77 27.772 1202.44 27.916C1202.11 28.052 1201.73 28.12 1201.31 28.12C1200.75 28.12 1200.25 27.996 1199.81 27.748C1199.37 27.5 1199.02 27.144 1198.78 26.68C1198.53 26.208 1198.4 25.648 1198.4 25C1198.4 24.352 1198.53 23.796 1198.78 23.332C1199.02 22.86 1199.37 22.5 1199.81 22.252C1200.25 22.004 1200.75 21.88 1201.31 21.88ZM1208.18 21.88C1208.75 21.88 1209.25 22.004 1209.68 22.252C1210.12 22.5 1210.47 22.86 1210.72 23.332C1210.96 23.796 1211.09 24.352 1211.09 25C1211.09 25.648 1210.96 26.208 1210.72 26.68C1210.47 27.144 1210.12 27.5 1209.68 27.748C1209.25 27.996 1208.75 28.12 1208.18 28.12C1207.62 28.12 1207.12 27.996 1206.68 27.748C1206.24 27.5 1205.9 27.144 1205.65 26.68C1205.4 26.208 1205.28 25.648 1205.28 25C1205.28 24.352 1205.4 23.796 1205.65 23.332C1205.9 22.86 1206.24 22.5 1206.68 22.252C1207.12 22.004 1207.62 21.88 1208.18 21.88ZM1208.18 22.708C1207.78 22.708 1207.43 22.8 1207.14 22.984C1206.85 23.168 1206.63 23.432 1206.47 23.776C1206.32 24.112 1206.24 24.52 1206.24 25C1206.24 25.472 1206.32 25.88 1206.47 26.224C1206.63 26.568 1206.85 26.832 1207.14 27.016C1207.43 27.2 1207.78 27.292 1208.18 27.292C1208.59 27.292 1208.94 27.2 1209.23 27.016C1209.52 26.832 1209.74 26.568 1209.89 26.224C1210.05 25.88 1210.13 25.472 1210.13 25C1210.13 24.52 1210.05 24.112 1209.89 23.776C1209.74 23.432 1209.52 23.168 1209.23 22.984C1208.94 22.8 1208.59 22.708 1208.18 22.708ZM1213.05 28V22H1213.89L1213.95 22.936C1214.17 22.568 1214.45 22.3 1214.79 22.132C1215.15 21.964 1215.51 21.88 1215.87 21.88C1216.3 21.88 1216.7 21.976 1217.07 22.168C1217.45 22.36 1217.74 22.656 1217.94 23.056C1218.07 22.784 1218.25 22.564 1218.48 22.396C1218.71 22.22 1218.96 22.092 1219.23 22.012C1219.51 21.924 1219.78 21.88 1220.03 21.88C1220.41 21.88 1220.77 21.96 1221.12 22.12C1221.47 22.28 1221.76 22.528 1221.98 22.864C1222.21 23.2 1222.32 23.632 1222.32 24.16V28H1221.36V24.256C1221.36 23.712 1221.22 23.32 1220.95 23.08C1220.68 22.84 1220.34 22.72 1219.94 22.72C1219.63 22.72 1219.34 22.796 1219.07 22.948C1218.79 23.1 1218.57 23.324 1218.41 23.62C1218.25 23.916 1218.17 24.28 1218.17 24.712V28H1217.21V24.256C1217.21 23.712 1217.07 23.32 1216.8 23.08C1216.53 22.84 1216.19 22.72 1215.79 22.72C1215.53 22.72 1215.25 22.792 1214.97 22.936C1214.7 23.072 1214.47 23.292 1214.29 23.596C1214.11 23.9 1214.01 24.3 1214.01 24.796V28H1213.05Z" fill="black"/>
            <rect y="48" width="256" height="879" fill="white"/>
            <rect x="255" y="48" width="1" height="879" fill="#181B5E"/>
            <rect opacity="0.5" y="61" width="255" height="32" fill="#E5E5E5"/>
            <rect opacity="0.5" y="99" width="255" height="32" fill="#E5E5E5"/>
            <rect opacity="0.5" y="137" width="255" height="32" fill="#E5E5E5"/>
            <rect opacity="0.5" y="175" width="255" height="32" fill="#E5E5E5"/>
            <rect opacity="0.5" y="213" width="255" height="32" fill="#E5E5E5"/>
            <rect x="256" y="521" width="1024" height="48" fill="#F4F4F4"/>
            <rect x="256" y="521" width="1024" height="1" fill="#E0E0E0"/>
            <rect x="256" y="473" width="1024" height="48" fill="#F4F4F4"/>
            <rect x="256" y="473" width="1024" height="1" fill="#E0E0E0"/>
            <rect x="256" y="425" width="1024" height="48" fill="#F4F4F4"/>
            <rect x="256" y="425" width="1024" height="1" fill="#E0E0E0"/>
            <rect x="256" y="377" width="1024" height="48" fill="#F4F4F4"/>
            <rect x="256" y="377" width="1024" height="1" fill="#E0E0E0"/>
            <rect x="256" y="329" width="1024" height="48" fill="#F4F4F4"/>
            <rect x="256" y="329" width="1024" height="1" fill="#E0E0E0"/>
            <rect x="256" y="281" width="1023" height="48" fill="#F4F4F4"/>
            <rect x="256" y="281" width="1023" height="1" fill="#E0E0E0"/>
            <rect x="272" y="445" width="64" height="8" fill="#E5E5E5"/>
            <rect x="442.817" y="445" width="63.9375" height="8" fill="#E5E5E5"/>
            <rect x="613.65" y="445" width="63.9375" height="8" fill="#E5E5E5"/>
            <rect x="784.483" y="445" width="63.9375" height="8" fill="#E5E5E5"/>
            <rect x="955.316" y="445" width="63.9375" height="8" fill="#E5E5E5"/>
            <rect x="1126.15" y="445" width="63.9375" height="8" fill="#E5E5E5"/>
            <rect x="272" y="493" width="64" height="8" fill="#E5E5E5"/>
            <rect x="442.817" y="493" width="63.9375" height="8" fill="#E5E5E5"/>
            <rect x="613.65" y="493" width="63.9375" height="8" fill="#E5E5E5"/>
            <rect x="784.483" y="493" width="63.9375" height="8" fill="#E5E5E5"/>
            <rect x="955.316" y="493" width="63.9375" height="8" fill="#E5E5E5"/>
            <rect x="1126.15" y="493" width="63.9375" height="8" fill="#E5E5E5"/>
            <rect x="272" y="397" width="64" height="8" fill="#E5E5E5"/>
            <rect x="442.817" y="397" width="63.9375" height="8" fill="#E5E5E5"/>
            <rect x="613.65" y="397" width="63.9375" height="8" fill="#E5E5E5"/>
            <rect x="784.483" y="397" width="63.9375" height="8" fill="#E5E5E5"/>
            <rect x="955.316" y="397" width="63.9375" height="8" fill="#E5E5E5"/>
            <rect x="1126.15" y="397" width="63.9375" height="8" fill="#E5E5E5"/>
            <rect x="272" y="541" width="64" height="8" fill="#E5E5E5"/>
            <rect x="442.817" y="541" width="63.9375" height="8" fill="#E5E5E5"/>
            <rect x="613.65" y="541" width="63.9375" height="8" fill="#E5E5E5"/>
            <rect x="784.483" y="541" width="63.9375" height="8" fill="#E5E5E5"/>
            <rect x="955.316" y="541" width="63.9375" height="8" fill="#E5E5E5"/>
            <rect x="1126.15" y="541" width="63.9375" height="8" fill="#E5E5E5"/>
            <rect x="272" y="349" width="64" height="8" fill="#E5E5E5"/>
            <rect x="442.817" y="349" width="63.9375" height="8" fill="#E5E5E5"/>
            <rect x="613.65" y="349" width="63.9375" height="8" fill="#E5E5E5"/>
            <rect x="784.483" y="349" width="63.9375" height="8" fill="#E5E5E5"/>
            <rect x="955.316" y="349" width="63.9375" height="8" fill="#E5E5E5"/>
            <rect x="1126.15" y="349" width="63.9375" height="8" fill="#E5E5E5"/>
            <rect x="272" y="301" width="64" height="8" fill="#E5E5E5"/>
            <rect x="442.817" y="301" width="63.9375" height="8" fill="#E5E5E5"/>
            <rect x="613.65" y="301" width="63.9375" height="8" fill="#E5E5E5"/>
            <rect x="784.483" y="301" width="63.9375" height="8" fill="#E5E5E5"/>
            <rect x="955.316" y="301" width="63.9375" height="8" fill="#E5E5E5"/>
            <rect x="1126.15" y="301" width="63.9375" height="8" fill="#E5E5E5"/>
            <rect x="256" y="233" width="1024" height="48" fill="#E0E0E0"/>
            <rect x="256" y="185" width="1023" height="48" fill="#F4F4F4"/>
            <rect x="256" y="99" width="1024" height="88" fill="#F4F4F4"/>
            <rect x="1126.15" y="253" width="87.9141" height="8" fill="#C6C6C6"/>
            <rect x="955.316" y="253" width="87.9141" height="8" fill="#C6C6C6"/>
            <rect x="784.483" y="253" width="87.9141" height="8" fill="#C6C6C6"/>
            <rect x="613.65" y="253" width="87.9141" height="8" fill="#C6C6C6"/>
            <rect x="442.817" y="253" width="87.9141" height="8" fill="#C6C6C6"/>
            <rect x="272" y="253" width="88" height="8" fill="#C6C6C6"/>
            <path fill-rule="evenodd" clip-rule="evenodd" d="M1082.5 209.4V208.6L1083.5 207.8C1083.9 207.5 1083.9 206.9 1083.7 206.5L1082.5 204.5C1082.3 204.2 1082 204 1081.6 204C1081.5 204 1081.4 204 1081.3 204.1L1080.1 204.5C1080.03 204.463 1079.95 204.412 1079.87 204.357C1079.74 204.265 1079.59 204.163 1079.4 204.1L1079.1 202.8C1079.1 202.3 1078.7 202 1078.2 202H1075.8C1075.3 202 1074.9 202.3 1074.8 202.8L1074.6 204.1C1074.3 204.2 1074.1 204.3 1073.9 204.4L1073.9 204.4L1072.7 204H1072.4C1072 204 1071.7 204.2 1071.5 204.5L1070.3 206.5C1070.1 206.9 1070.2 207.4 1070.6 207.8L1071.5 208.7V209.5L1070.6 210.2C1070.2 210.5 1070.1 211.1 1070.4 211.5L1071.6 213.5C1071.7 213.8 1072 214 1072.4 214C1072.5 214 1072.6 214 1072.7 213.9L1073.9 213.5C1073.97 213.537 1074.05 213.588 1074.13 213.643L1074.13 213.643C1074.26 213.735 1074.41 213.837 1074.6 213.9L1074.9 215.2C1075 215.7 1075.4 216 1075.9 216H1078.3C1078.8 216 1079.2 215.7 1079.3 215.2L1079.6 213.9L1079.6 213.9C1079.8 213.8 1080 213.7 1080.3 213.5L1081.5 213.9C1081.55 213.9 1081.6 213.925 1081.65 213.95C1081.7 213.975 1081.75 214 1081.8 214C1082.2 214 1082.5 213.8 1082.7 213.5L1083.8 211.5C1084 211.1 1084 210.6 1083.6 210.2L1082.5 209.4ZM1075.2 210C1075.2 211.7 1076.5 213 1078.2 213C1078.61 213 1079 212.919 1079.35 212.773C1079.08 212.936 1078.79 213.085 1078.5 213.2L1078.2 215H1075.8L1075.4 213.2C1075.04 213.056 1074.73 212.86 1074.4 212.65C1074.27 212.568 1074.14 212.484 1074 212.4L1072.4 213L1071.2 211L1072.6 209.8C1072.5 209.3 1072.5 208.7 1072.6 208.2L1071.2 207L1072.4 205L1074.1 205.6C1074.5 205.2 1075 205 1075.5 204.8L1075.8 203H1078.2L1078.6 204.8C1078.96 204.944 1079.27 205.14 1079.6 205.35C1079.73 205.432 1079.86 205.516 1080 205.6L1081.6 205L1082.8 207L1081.4 208.2C1081.5 208.7 1081.5 209.3 1081.4 209.8L1082.8 211L1081.6 213L1079.97 212.423C1080.72 211.868 1081.2 210.971 1081.2 210C1081.2 208.3 1079.9 207 1078.2 207C1076.5 207 1075.2 208.3 1075.2 210ZM1079.97 212.423C1079.78 212.563 1079.57 212.681 1079.35 212.773C1079.54 212.654 1079.73 212.527 1079.9 212.4L1079.97 212.423ZM1076.2 209.9C1076.2 208.8 1077.1 208 1078.2 208C1079.4 208 1080.2 208.9 1080.2 210V210.1C1080.2 211.2 1079.3 212 1078.2 212H1078.1C1077 212 1076.2 211.1 1076.2 210V209.9Z" fill="black"/>
            <path fill-rule="evenodd" clip-rule="evenodd" d="M1022 214H1036V215H1022V214ZM1033.7 205.5C1034.1 205.1 1034.1 204.5 1033.7 204.1L1031.9 202.3C1031.5 201.9 1030.9 201.9 1030.5 202.3L1023 209.8V213H1026.2L1033.7 205.5ZM1031.2 203L1033 204.8L1031.5 206.3L1029.7 204.5L1031.2 203ZM1024 212V210.2L1029 205.2L1030.8 207L1025.8 212H1024Z" fill="#161616"/>
            <path fill-rule="evenodd" clip-rule="evenodd" d="M988 215.3L983.7 211C985.6 208.7 985.3 205.2 983 203.3C980.7 201.4 977.2 201.7 975.3 204C973.4 206.3 973.7 209.8 976 211.7C978 213.4 981 213.4 983 211.7L987.3 216L988 215.3ZM975 207.5C975 205 977 203 979.5 203C982 203 984 205 984 207.5C984 210 982 212 979.5 212C977 212 975 210 975 207.5Z" fill="#161616"/>
            <rect x="1101" y="187" width="178" height="46" fill="#E5E5E5"/>
            <rect x="272" y="147" width="160" height="8" fill="#E5E5E5"/>
            <rect x="272" y="115" width="120" height="16" fill="#E5E5E5"/>
        </g>
        <rect x="256.2" y="48" width="1023.8" height="49" fill="#181B5E"/>
        <path d="M285.013 75.62C284.733 76.3667 284.333 77.0133 283.813 77.56C283.293 78.0933 282.68 78.5 281.973 78.78C281.28 79.06 280.52 79.2 279.693 79.2C278.44 79.2 277.353 78.9267 276.433 78.38C275.526 77.82 274.82 77.0333 274.313 76.02C273.82 75.0067 273.573 73.8 273.573 72.4C273.573 71 273.82 69.7933 274.313 68.78C274.82 67.7667 275.526 66.9867 276.433 66.44C277.353 65.88 278.426 65.6 279.653 65.6C280.506 65.6 281.266 65.72 281.933 65.96C282.6 66.1867 283.166 66.5333 283.633 67C284.113 67.4533 284.493 68.0133 284.773 68.68L283.193 69.42C282.9 68.66 282.473 68.0867 281.913 67.7C281.366 67.3 280.653 67.1 279.773 67.1C278.88 67.1 278.093 67.3133 277.413 67.74C276.733 68.1533 276.2 68.7533 275.813 69.54C275.44 70.3267 275.253 71.28 275.253 72.4C275.253 73.5067 275.433 74.46 275.793 75.26C276.153 76.0467 276.666 76.6533 277.333 77.08C278 77.4933 278.786 77.7 279.693 77.7C280.573 77.7 281.34 77.48 281.993 77.04C282.646 76.5867 283.12 75.9133 283.413 75.02L285.013 75.62ZM289.284 79V69H290.584L290.804 70.64C291.084 70.0267 291.49 69.5667 292.024 69.26C292.57 68.9533 293.23 68.8 294.004 68.8C294.177 68.8 294.364 68.8133 294.564 68.84C294.777 68.8667 294.957 68.92 295.104 69L294.824 70.46C294.677 70.4067 294.517 70.3667 294.344 70.34C294.17 70.3133 293.924 70.3 293.604 70.3C293.19 70.3 292.77 70.42 292.344 70.66C291.93 70.9 291.584 71.2667 291.304 71.76C291.024 72.24 290.884 72.8533 290.884 73.6V79H289.284ZM302.815 79.2C301.869 79.2 301.022 78.9933 300.275 78.58C299.542 78.1667 298.969 77.5733 298.555 76.8C298.142 76.0133 297.935 75.08 297.935 74C297.935 72.92 298.142 71.9933 298.555 71.22C298.969 70.4333 299.535 69.8333 300.255 69.42C300.975 69.0067 301.795 68.8 302.715 68.8C303.649 68.8 304.442 69 305.095 69.4C305.762 69.8 306.269 70.3467 306.615 71.04C306.962 71.72 307.135 72.4867 307.135 73.34C307.135 73.5667 307.129 73.7733 307.115 73.96C307.102 74.1467 307.082 74.3133 307.055 74.46H298.975V73.04H306.355L305.535 73.2C305.535 72.24 305.269 71.5 304.735 70.98C304.215 70.46 303.529 70.2 302.675 70.2C302.022 70.2 301.455 70.3533 300.975 70.66C300.509 70.9533 300.142 71.3867 299.875 71.96C299.622 72.52 299.495 73.2 299.495 74C299.495 74.7867 299.629 75.4667 299.895 76.04C300.162 76.6133 300.535 77.0533 301.015 77.36C301.509 77.6533 302.095 77.8 302.775 77.8C303.509 77.8 304.102 77.66 304.555 77.38C305.022 77.1 305.395 76.72 305.675 76.24L306.935 76.98C306.682 77.4333 306.355 77.8267 305.955 78.16C305.569 78.4933 305.109 78.7533 304.575 78.94C304.055 79.1133 303.469 79.2 302.815 79.2ZM315.578 79.2C314.752 79.2 313.992 78.9933 313.298 78.58C312.605 78.1667 312.052 77.5733 311.638 76.8C311.225 76.0133 311.018 75.08 311.018 74C311.018 72.8933 311.238 71.9533 311.678 71.18C312.118 70.4067 312.698 69.82 313.418 69.42C314.138 69.0067 314.912 68.8 315.738 68.8C316.565 68.8 317.278 69.0133 317.878 69.44C318.492 69.8667 318.898 70.4333 319.098 71.14L318.898 71.28V64.4H320.498V79H319.098L318.958 76.58L319.178 76.46C319.085 77.0467 318.858 77.5467 318.498 77.96C318.152 78.36 317.718 78.6667 317.198 78.88C316.692 79.0933 316.152 79.2 315.578 79.2ZM315.738 77.8C316.378 77.8 316.932 77.64 317.398 77.32C317.878 77 318.245 76.5467 318.498 75.96C318.765 75.36 318.898 74.66 318.898 73.86C318.898 73.1 318.765 72.4467 318.498 71.9C318.245 71.3533 317.885 70.9333 317.418 70.64C316.965 70.3467 316.432 70.2 315.818 70.2C314.805 70.2 314.018 70.5467 313.458 71.24C312.898 71.9333 312.618 72.8533 312.618 74C312.618 75.1467 312.892 76.0667 313.438 76.76C313.985 77.4533 314.752 77.8 315.738 77.8ZM329.897 79.2C328.951 79.2 328.104 78.9933 327.357 78.58C326.624 78.1667 326.051 77.5733 325.637 76.8C325.224 76.0133 325.017 75.08 325.017 74C325.017 72.92 325.224 71.9933 325.637 71.22C326.051 70.4333 326.617 69.8333 327.337 69.42C328.057 69.0067 328.877 68.8 329.797 68.8C330.731 68.8 331.524 69 332.177 69.4C332.844 69.8 333.351 70.3467 333.697 71.04C334.044 71.72 334.217 72.4867 334.217 73.34C334.217 73.5667 334.211 73.7733 334.197 73.96C334.184 74.1467 334.164 74.3133 334.137 74.46H326.057V73.04H333.437L332.617 73.2C332.617 72.24 332.351 71.5 331.817 70.98C331.297 70.46 330.611 70.2 329.757 70.2C329.104 70.2 328.537 70.3533 328.057 70.66C327.591 70.9533 327.224 71.3867 326.957 71.96C326.704 72.52 326.577 73.2 326.577 74C326.577 74.7867 326.711 75.4667 326.977 76.04C327.244 76.6133 327.617 77.0533 328.097 77.36C328.591 77.6533 329.177 77.8 329.857 77.8C330.591 77.8 331.184 77.66 331.637 77.38C332.104 77.1 332.477 76.72 332.757 76.24L334.017 76.98C333.764 77.4333 333.437 77.8267 333.037 78.16C332.651 78.4933 332.191 78.7533 331.657 78.94C331.137 79.1133 330.551 79.2 329.897 79.2ZM338.76 79V69H340.16L340.3 71.24L340.04 71.02C340.254 70.4867 340.54 70.06 340.9 69.74C341.26 69.4067 341.674 69.1667 342.14 69.02C342.62 68.8733 343.114 68.8 343.62 68.8C344.34 68.8 344.994 68.94 345.58 69.22C346.167 69.4867 346.634 69.9 346.98 70.46C347.34 71.02 347.52 71.7333 347.52 72.6V79H345.92V73.16C345.92 72.0533 345.68 71.2867 345.2 70.86C344.734 70.42 344.154 70.2 343.46 70.2C342.98 70.2 342.5 70.3133 342.02 70.54C341.54 70.7667 341.14 71.1333 340.82 71.64C340.514 72.1467 340.36 72.8267 340.36 73.68V79H338.76ZM354.866 66.16V76.24C354.866 76.7333 355.006 77.1 355.286 77.34C355.566 77.58 355.926 77.7 356.366 77.7C356.753 77.7 357.086 77.6333 357.366 77.5C357.646 77.3667 357.9 77.1867 358.126 76.96L358.686 78.3C358.38 78.58 358.013 78.8 357.586 78.96C357.173 79.12 356.693 79.2 356.146 79.2C355.64 79.2 355.166 79.1133 354.726 78.94C354.286 78.7533 353.933 78.4667 353.666 78.08C353.413 77.68 353.28 77.16 353.266 76.52V66.6L354.866 66.16ZM358.506 69V70.38H351.266V69H358.506ZM363.185 67.08C362.825 67.08 362.532 66.9733 362.305 66.76C362.092 66.5333 361.985 66.24 361.985 65.88C361.985 65.52 362.092 65.2333 362.305 65.02C362.532 64.7933 362.825 64.68 363.185 64.68C363.545 64.68 363.832 64.7933 364.045 65.02C364.272 65.2333 364.385 65.52 364.385 65.88C364.385 66.24 364.272 66.5333 364.045 66.76C363.832 66.9733 363.545 67.08 363.185 67.08ZM363.985 69V79H362.385V69H363.985ZM375.038 72.54C375.038 71.7933 374.838 71.22 374.438 70.82C374.038 70.4067 373.471 70.2 372.738 70.2C372.045 70.2 371.458 70.3533 370.978 70.66C370.498 70.9533 370.145 71.4333 369.918 72.1L368.618 71.3C368.885 70.5533 369.378 69.9533 370.098 69.5C370.818 69.0333 371.711 68.8 372.778 68.8C373.498 68.8 374.151 68.9267 374.738 69.18C375.325 69.42 375.785 69.7933 376.118 70.3C376.465 70.7933 376.638 71.4333 376.638 72.22V77.06C376.638 77.54 376.891 77.78 377.398 77.78C377.651 77.78 377.898 77.7467 378.138 77.68L378.058 78.94C377.791 79.0733 377.445 79.14 377.018 79.14C376.631 79.14 376.285 79.0667 375.978 78.92C375.671 78.7733 375.431 78.5533 375.258 78.26C375.085 77.9533 374.998 77.5733 374.998 77.12V76.92L375.398 76.98C375.238 77.5 374.965 77.9267 374.578 78.26C374.191 78.58 373.758 78.82 373.278 78.98C372.798 79.1267 372.325 79.2 371.858 79.2C371.271 79.2 370.725 79.1 370.218 78.9C369.711 78.7 369.305 78.4 368.998 78C368.705 77.5867 368.558 77.08 368.558 76.48C368.558 75.7333 368.805 75.12 369.298 74.64C369.805 74.1467 370.505 73.8133 371.398 73.64L375.358 72.86V74.18L372.138 74.84C371.485 74.9733 370.998 75.16 370.678 75.4C370.358 75.64 370.198 75.9733 370.198 76.4C370.198 76.8133 370.358 77.1533 370.678 77.42C371.011 77.6733 371.478 77.8 372.078 77.8C372.465 77.8 372.831 77.7533 373.178 77.66C373.538 77.5533 373.858 77.4 374.138 77.2C374.418 76.9867 374.638 76.7267 374.798 76.42C374.958 76.1 375.038 75.7267 375.038 75.3V72.54ZM383.546 64.4V76.46C383.546 76.9667 383.639 77.32 383.826 77.52C384.013 77.7067 384.313 77.8 384.726 77.8C384.993 77.8 385.213 77.78 385.386 77.74C385.559 77.7 385.793 77.6267 386.086 77.52L385.826 78.92C385.613 79.0133 385.379 79.08 385.126 79.12C384.873 79.1733 384.613 79.2 384.346 79.2C383.533 79.2 382.926 78.98 382.526 78.54C382.139 78.1 381.946 77.4267 381.946 76.52V64.4H383.546ZM399.222 66.16V76.24C399.222 76.7333 399.362 77.1 399.642 77.34C399.922 77.58 400.282 77.7 400.722 77.7C401.109 77.7 401.442 77.6333 401.722 77.5C402.002 77.3667 402.255 77.1867 402.482 76.96L403.042 78.3C402.735 78.58 402.369 78.8 401.942 78.96C401.529 79.12 401.049 79.2 400.502 79.2C399.995 79.2 399.522 79.1133 399.082 78.94C398.642 78.7533 398.289 78.4667 398.022 78.08C397.769 77.68 397.635 77.16 397.622 76.52V66.6L399.222 66.16ZM402.862 69V70.38H395.622V69H402.862ZM414.961 69L410.261 80.68C410.008 81.3333 409.728 81.8467 409.421 82.22C409.128 82.6067 408.794 82.88 408.421 83.04C408.061 83.2133 407.641 83.3 407.161 83.3C406.708 83.3 406.288 83.2333 405.901 83.1C405.528 82.98 405.194 82.8133 404.901 82.6L405.341 81.2C405.608 81.44 405.888 81.6133 406.181 81.72C406.488 81.84 406.788 81.9 407.081 81.9C407.428 81.9 407.754 81.7933 408.061 81.58C408.368 81.3667 408.648 80.9333 408.901 80.28L409.421 78.98L408.421 76.6L405.241 69H407.061L409.561 75.52L410.181 77.3L410.901 75.32L413.241 69H414.961ZM418.553 83.2V69H419.953L420.093 71.44L419.873 71.16C420.047 70.6933 420.307 70.2867 420.653 69.94C421 69.58 421.42 69.3 421.913 69.1C422.407 68.9 422.94 68.8 423.513 68.8C424.327 68.8 425.073 69.0067 425.753 69.42C426.447 69.8333 427 70.4267 427.413 71.2C427.827 71.9733 428.033 72.9067 428.033 74C428.033 75.08 427.82 76.0133 427.393 76.8C426.98 77.5733 426.427 78.1667 425.733 78.58C425.04 78.9933 424.28 79.2 423.453 79.2C422.627 79.2 421.9 79 421.273 78.6C420.66 78.1867 420.22 77.6667 419.953 77.04L420.153 76.74V83.2H418.553ZM423.293 77.8C424.28 77.8 425.047 77.4533 425.593 76.76C426.153 76.0667 426.433 75.1467 426.433 74C426.433 72.8533 426.16 71.9333 425.613 71.24C425.08 70.5467 424.327 70.2 423.353 70.2C422.713 70.2 422.153 70.36 421.673 70.68C421.193 70.9867 420.82 71.4267 420.553 72C420.287 72.56 420.153 73.2267 420.153 74C420.153 74.76 420.28 75.4267 420.533 76C420.8 76.5733 421.167 77.02 421.633 77.34C422.113 77.6467 422.667 77.8 423.293 77.8ZM436.772 79.2C435.826 79.2 434.979 78.9933 434.232 78.58C433.499 78.1667 432.926 77.5733 432.512 76.8C432.099 76.0133 431.892 75.08 431.892 74C431.892 72.92 432.099 71.9933 432.512 71.22C432.926 70.4333 433.492 69.8333 434.212 69.42C434.932 69.0067 435.752 68.8 436.672 68.8C437.606 68.8 438.399 69 439.052 69.4C439.719 69.8 440.226 70.3467 440.572 71.04C440.919 71.72 441.092 72.4867 441.092 73.34C441.092 73.5667 441.086 73.7733 441.072 73.96C441.059 74.1467 441.039 74.3133 441.012 74.46H432.932V73.04H440.312L439.492 73.2C439.492 72.24 439.226 71.5 438.692 70.98C438.172 70.46 437.486 70.2 436.632 70.2C435.979 70.2 435.412 70.3533 434.932 70.66C434.466 70.9533 434.099 71.3867 433.832 71.96C433.579 72.52 433.452 73.2 433.452 74C433.452 74.7867 433.586 75.4667 433.852 76.04C434.119 76.6133 434.492 77.0533 434.972 77.36C435.466 77.6533 436.052 77.8 436.732 77.8C437.466 77.8 438.059 77.66 438.512 77.38C438.979 77.1 439.352 76.72 439.632 76.24L440.892 76.98C440.639 77.4333 440.312 77.8267 439.912 78.16C439.526 78.4933 439.066 78.7533 438.532 78.94C438.012 79.1133 437.426 79.2 436.772 79.2ZM449.235 79.2C448.262 79.2 447.362 78.9933 446.535 78.58C445.722 78.1667 445.095 77.58 444.655 76.82L446.015 75.84C446.309 76.4533 446.735 76.9333 447.295 77.28C447.869 77.6267 448.555 77.8 449.355 77.8C450.062 77.8 450.615 77.6667 451.015 77.4C451.415 77.12 451.615 76.76 451.615 76.32C451.615 76.04 451.522 75.7867 451.335 75.56C451.162 75.32 450.822 75.1467 450.315 75.04L447.915 74.54C446.942 74.34 446.242 74.0067 445.815 73.54C445.402 73.0733 445.195 72.4933 445.195 71.8C445.195 71.2533 445.349 70.7533 445.655 70.3C445.975 69.8467 446.422 69.4867 446.995 69.22C447.582 68.94 448.269 68.8 449.055 68.8C450.042 68.8 450.875 68.9933 451.555 69.38C452.235 69.7667 452.742 70.3133 453.075 71.02L451.735 71.9C451.509 71.3133 451.142 70.8867 450.635 70.62C450.129 70.34 449.602 70.2 449.055 70.2C448.575 70.2 448.162 70.2667 447.815 70.4C447.482 70.5333 447.222 70.72 447.035 70.96C446.862 71.1867 446.775 71.4467 446.775 71.74C446.775 72.0333 446.875 72.3067 447.075 72.56C447.275 72.8 447.649 72.9733 448.195 73.08L450.695 73.6C451.629 73.7867 452.282 74.0933 452.655 74.52C453.029 74.9467 453.215 75.4667 453.215 76.08C453.215 76.7067 453.049 77.26 452.715 77.74C452.382 78.2067 451.915 78.5667 451.315 78.82C450.715 79.0733 450.022 79.2 449.235 79.2Z" fill="white"/>
    </g>
    <rect opacity="0.2" width="1279" height="693" fill="#212121"/>
    <rect x="405" y="167" width="470" height="359" fill="white"/>
    <rect x="405" y="167" width="470" height="48" fill="#181B5E"/>
    <path d="M437.52 184.8V198H435.54L430.02 189.16L428.62 186.68H428.6L428.68 188.68V198H427.16V184.8H429.14L434.64 193.6L436.06 196.14H436.08L436 194.12V184.8H437.52ZM447.071 198.2C446.125 198.2 445.278 197.993 444.531 197.58C443.798 197.167 443.225 196.573 442.811 195.8C442.398 195.013 442.191 194.08 442.191 193C442.191 191.92 442.398 190.993 442.811 190.22C443.225 189.433 443.791 188.833 444.511 188.42C445.231 188.007 446.051 187.8 446.971 187.8C447.905 187.8 448.698 188 449.351 188.4C450.018 188.8 450.525 189.347 450.871 190.04C451.218 190.72 451.391 191.487 451.391 192.34C451.391 192.567 451.385 192.773 451.371 192.96C451.358 193.147 451.338 193.313 451.311 193.46H443.231V192.04H450.611L449.791 192.2C449.791 191.24 449.525 190.5 448.991 189.98C448.471 189.46 447.785 189.2 446.931 189.2C446.278 189.2 445.711 189.353 445.231 189.66C444.765 189.953 444.398 190.387 444.131 190.96C443.878 191.52 443.751 192.2 443.751 193C443.751 193.787 443.885 194.467 444.151 195.04C444.418 195.613 444.791 196.053 445.271 196.36C445.765 196.653 446.351 196.8 447.031 196.8C447.765 196.8 448.358 196.66 448.811 196.38C449.278 196.1 449.651 195.72 449.931 195.24L451.191 195.98C450.938 196.433 450.611 196.827 450.211 197.16C449.825 197.493 449.365 197.753 448.831 197.94C448.311 198.113 447.725 198.2 447.071 198.2ZM468.24 188H470.02L466.54 198H464.94L462.12 190.04L459.46 198H457.86L454.38 188H456.16L458.68 196.14L461.4 188H463L465.72 196.14L468.24 188ZM492.726 194.62C492.446 195.367 492.046 196.013 491.526 196.56C491.006 197.093 490.392 197.5 489.686 197.78C488.992 198.06 488.232 198.2 487.406 198.2C486.152 198.2 485.066 197.927 484.146 197.38C483.239 196.82 482.532 196.033 482.026 195.02C481.532 194.007 481.286 192.8 481.286 191.4C481.286 190 481.532 188.793 482.026 187.78C482.532 186.767 483.239 185.987 484.146 185.44C485.066 184.88 486.139 184.6 487.366 184.6C488.219 184.6 488.979 184.72 489.646 184.96C490.312 185.187 490.879 185.533 491.346 186C491.826 186.453 492.206 187.013 492.486 187.68L490.906 188.42C490.612 187.66 490.186 187.087 489.626 186.7C489.079 186.3 488.366 186.1 487.486 186.1C486.592 186.1 485.806 186.313 485.126 186.74C484.446 187.153 483.912 187.753 483.526 188.54C483.152 189.327 482.966 190.28 482.966 191.4C482.966 192.507 483.146 193.46 483.506 194.26C483.866 195.047 484.379 195.653 485.046 196.08C485.712 196.493 486.499 196.7 487.406 196.7C488.286 196.7 489.052 196.48 489.706 196.04C490.359 195.587 490.832 194.913 491.126 194.02L492.726 194.62ZM496.997 198V188H498.297L498.517 189.64C498.797 189.027 499.203 188.567 499.737 188.26C500.283 187.953 500.943 187.8 501.717 187.8C501.89 187.8 502.077 187.813 502.277 187.84C502.49 187.867 502.67 187.92 502.817 188L502.537 189.46C502.39 189.407 502.23 189.367 502.057 189.34C501.883 189.313 501.637 189.3 501.317 189.3C500.903 189.3 500.483 189.42 500.057 189.66C499.643 189.9 499.297 190.267 499.017 190.76C498.737 191.24 498.597 191.853 498.597 192.6V198H496.997ZM510.528 198.2C509.582 198.2 508.735 197.993 507.988 197.58C507.255 197.167 506.682 196.573 506.268 195.8C505.855 195.013 505.648 194.08 505.648 193C505.648 191.92 505.855 190.993 506.268 190.22C506.682 189.433 507.248 188.833 507.968 188.42C508.688 188.007 509.508 187.8 510.428 187.8C511.362 187.8 512.155 188 512.808 188.4C513.475 188.8 513.982 189.347 514.328 190.04C514.675 190.72 514.848 191.487 514.848 192.34C514.848 192.567 514.842 192.773 514.828 192.96C514.815 193.147 514.795 193.313 514.768 193.46H506.688V192.04H514.068L513.248 192.2C513.248 191.24 512.982 190.5 512.448 189.98C511.928 189.46 511.242 189.2 510.388 189.2C509.735 189.2 509.168 189.353 508.688 189.66C508.222 189.953 507.855 190.387 507.588 190.96C507.335 191.52 507.208 192.2 507.208 193C507.208 193.787 507.342 194.467 507.608 195.04C507.875 195.613 508.248 196.053 508.728 196.36C509.222 196.653 509.808 196.8 510.488 196.8C511.222 196.8 511.815 196.66 512.268 196.38C512.735 196.1 513.108 195.72 513.388 195.24L514.648 195.98C514.395 196.433 514.068 196.827 513.668 197.16C513.282 197.493 512.822 197.753 512.288 197.94C511.768 198.113 511.182 198.2 510.528 198.2ZM523.291 198.2C522.465 198.2 521.705 197.993 521.011 197.58C520.318 197.167 519.765 196.573 519.351 195.8C518.938 195.013 518.731 194.08 518.731 193C518.731 191.893 518.951 190.953 519.391 190.18C519.831 189.407 520.411 188.82 521.131 188.42C521.851 188.007 522.625 187.8 523.451 187.8C524.278 187.8 524.991 188.013 525.591 188.44C526.205 188.867 526.611 189.433 526.811 190.14L526.611 190.28V183.4H528.211V198H526.811L526.671 195.58L526.891 195.46C526.798 196.047 526.571 196.547 526.211 196.96C525.865 197.36 525.431 197.667 524.911 197.88C524.405 198.093 523.865 198.2 523.291 198.2ZM523.451 196.8C524.091 196.8 524.645 196.64 525.111 196.32C525.591 196 525.958 195.547 526.211 194.96C526.478 194.36 526.611 193.66 526.611 192.86C526.611 192.1 526.478 191.447 526.211 190.9C525.958 190.353 525.598 189.933 525.131 189.64C524.678 189.347 524.145 189.2 523.531 189.2C522.518 189.2 521.731 189.547 521.171 190.24C520.611 190.933 520.331 191.853 520.331 193C520.331 194.147 520.605 195.067 521.151 195.76C521.698 196.453 522.465 196.8 523.451 196.8ZM537.61 198.2C536.664 198.2 535.817 197.993 535.07 197.58C534.337 197.167 533.764 196.573 533.35 195.8C532.937 195.013 532.73 194.08 532.73 193C532.73 191.92 532.937 190.993 533.35 190.22C533.764 189.433 534.33 188.833 535.05 188.42C535.77 188.007 536.59 187.8 537.51 187.8C538.444 187.8 539.237 188 539.89 188.4C540.557 188.8 541.064 189.347 541.41 190.04C541.757 190.72 541.93 191.487 541.93 192.34C541.93 192.567 541.924 192.773 541.91 192.96C541.897 193.147 541.877 193.313 541.85 193.46H533.77V192.04H541.15L540.33 192.2C540.33 191.24 540.064 190.5 539.53 189.98C539.01 189.46 538.324 189.2 537.47 189.2C536.817 189.2 536.25 189.353 535.77 189.66C535.304 189.953 534.937 190.387 534.67 190.96C534.417 191.52 534.29 192.2 534.29 193C534.29 193.787 534.424 194.467 534.69 195.04C534.957 195.613 535.33 196.053 535.81 196.36C536.304 196.653 536.89 196.8 537.57 196.8C538.304 196.8 538.897 196.66 539.35 196.38C539.817 196.1 540.19 195.72 540.47 195.24L541.73 195.98C541.477 196.433 541.15 196.827 540.75 197.16C540.364 197.493 539.904 197.753 539.37 197.94C538.85 198.113 538.264 198.2 537.61 198.2ZM546.473 198V188H547.873L548.013 190.24L547.753 190.02C547.967 189.487 548.253 189.06 548.613 188.74C548.973 188.407 549.387 188.167 549.853 188.02C550.333 187.873 550.827 187.8 551.333 187.8C552.053 187.8 552.707 187.94 553.293 188.22C553.88 188.487 554.347 188.9 554.693 189.46C555.053 190.02 555.233 190.733 555.233 191.6V198H553.633V192.16C553.633 191.053 553.393 190.287 552.913 189.86C552.447 189.42 551.867 189.2 551.173 189.2C550.693 189.2 550.213 189.313 549.733 189.54C549.253 189.767 548.853 190.133 548.533 190.64C548.227 191.147 548.073 191.827 548.073 192.68V198H546.473ZM562.579 185.16V195.24C562.579 195.733 562.719 196.1 562.999 196.34C563.279 196.58 563.639 196.7 564.079 196.7C564.466 196.7 564.799 196.633 565.079 196.5C565.359 196.367 565.613 196.187 565.839 195.96L566.399 197.3C566.093 197.58 565.726 197.8 565.299 197.96C564.886 198.12 564.406 198.2 563.859 198.2C563.353 198.2 562.879 198.113 562.439 197.94C561.999 197.753 561.646 197.467 561.379 197.08C561.126 196.68 560.993 196.16 560.979 195.52V185.6L562.579 185.16ZM566.219 188V189.38H558.979V188H566.219ZM570.898 186.08C570.538 186.08 570.245 185.973 570.018 185.76C569.805 185.533 569.698 185.24 569.698 184.88C569.698 184.52 569.805 184.233 570.018 184.02C570.245 183.793 570.538 183.68 570.898 183.68C571.258 183.68 571.545 183.793 571.758 184.02C571.985 184.233 572.098 184.52 572.098 184.88C572.098 185.24 571.985 185.533 571.758 185.76C571.545 185.973 571.258 186.08 570.898 186.08ZM571.698 188V198H570.098V188H571.698ZM582.751 191.54C582.751 190.793 582.551 190.22 582.151 189.82C581.751 189.407 581.184 189.2 580.451 189.2C579.757 189.2 579.171 189.353 578.691 189.66C578.211 189.953 577.857 190.433 577.631 191.1L576.331 190.3C576.597 189.553 577.091 188.953 577.811 188.5C578.531 188.033 579.424 187.8 580.491 187.8C581.211 187.8 581.864 187.927 582.451 188.18C583.037 188.42 583.497 188.793 583.831 189.3C584.177 189.793 584.351 190.433 584.351 191.22V196.06C584.351 196.54 584.604 196.78 585.111 196.78C585.364 196.78 585.611 196.747 585.851 196.68L585.771 197.94C585.504 198.073 585.157 198.14 584.731 198.14C584.344 198.14 583.997 198.067 583.691 197.92C583.384 197.773 583.144 197.553 582.971 197.26C582.797 196.953 582.711 196.573 582.711 196.12V195.92L583.111 195.98C582.951 196.5 582.677 196.927 582.291 197.26C581.904 197.58 581.471 197.82 580.991 197.98C580.511 198.127 580.037 198.2 579.571 198.2C578.984 198.2 578.437 198.1 577.931 197.9C577.424 197.7 577.017 197.4 576.711 197C576.417 196.587 576.271 196.08 576.271 195.48C576.271 194.733 576.517 194.12 577.011 193.64C577.517 193.147 578.217 192.813 579.111 192.64L583.071 191.86V193.18L579.851 193.84C579.197 193.973 578.711 194.16 578.391 194.4C578.071 194.64 577.911 194.973 577.911 195.4C577.911 195.813 578.071 196.153 578.391 196.42C578.724 196.673 579.191 196.8 579.791 196.8C580.177 196.8 580.544 196.753 580.891 196.66C581.251 196.553 581.571 196.4 581.851 196.2C582.131 195.987 582.351 195.727 582.511 195.42C582.671 195.1 582.751 194.727 582.751 194.3V191.54ZM591.259 183.4V195.46C591.259 195.967 591.352 196.32 591.539 196.52C591.726 196.707 592.026 196.8 592.439 196.8C592.706 196.8 592.926 196.78 593.099 196.74C593.272 196.7 593.506 196.627 593.799 196.52L593.539 197.92C593.326 198.013 593.092 198.08 592.839 198.12C592.586 198.173 592.326 198.2 592.059 198.2C591.246 198.2 590.639 197.98 590.239 197.54C589.852 197.1 589.659 196.427 589.659 195.52V183.4H591.259Z" fill="white"/>
    <rect x="405" y="459" width="470" height="1" fill="#E0E0E0"/>
    <rect x="421" y="435" width="36.4659" height="8" fill="#E5E5E5"/>
    <rect x="405" y="418" width="470" height="1" fill="#E0E0E0"/>
    <path fill-rule="evenodd" clip-rule="evenodd" d="M851 442L846 437L846.7 436.3L851 440.6L855.3 436.3L856 437L851 442Z" fill="#161616"/>
    <rect x="405" y="377" width="470" height="1" fill="#E0E0E0"/>
    <rect x="421" y="394" width="36.4659" height="8" fill="#E5E5E5"/>
    <path fill-rule="evenodd" clip-rule="evenodd" d="M851 401L846 396L846.7 395.3L851 399.6L855.3 395.3L856 396L851 401Z" fill="#161616"/>
    <rect x="405" y="336" width="470" height="1" fill="#E0E0E0"/>
    <rect x="421" y="353" width="36.4659" height="8" fill="#E5E5E5"/>
    <path fill-rule="evenodd" clip-rule="evenodd" d="M851 361L846 356L846.7 355.3L851 359.6L855.3 355.3L856 356L851 361Z" fill="#161616"/>
    <rect x="421" y="304" width="216.972" height="8" fill="#E5E5E5"/>
    <rect x="421" y="288" width="333.663" height="8" fill="#E5E5E5"/>
    <rect x="421" y="272" width="371.04" height="8" fill="#E5E5E5"/>
    <rect x="421" y="256" width="366.482" height="8" fill="#E5E5E5"/>
    <rect x="421" y="232" width="36.4659" height="8" fill="#E5E5E5"/>
    <rect x="405" y="215" width="470" height="1" fill="#E0E0E0"/>
    <path fill-rule="evenodd" clip-rule="evenodd" d="M851 233L856 238L855.3 238.7L851 234.4L846.7 238.7L846 238L851 233Z" fill="#161616"/>
    <rect x="732" y="475" width="128" height="36" fill="#181B5E"/>
    <path d="M774.639 487.78V499H773.279V487.78H774.639ZM782.465 499.17C781.637 499.17 780.872 498.994 780.17 498.643C779.478 498.292 778.946 497.793 778.572 497.147L779.728 496.314C779.977 496.835 780.34 497.243 780.816 497.538C781.303 497.833 781.887 497.98 782.567 497.98C783.167 497.98 783.638 497.867 783.978 497.64C784.318 497.402 784.488 497.096 784.488 496.722C784.488 496.484 784.408 496.269 784.25 496.076C784.102 495.872 783.813 495.725 783.383 495.634L781.343 495.209C780.515 495.039 779.92 494.756 779.558 494.359C779.206 493.962 779.031 493.469 779.031 492.88C779.031 492.415 779.161 491.99 779.422 491.605C779.694 491.22 780.073 490.914 780.561 490.687C781.059 490.449 781.643 490.33 782.312 490.33C783.15 490.33 783.859 490.494 784.437 490.823C785.015 491.152 785.445 491.616 785.729 492.217L784.59 492.965C784.397 492.466 784.085 492.104 783.655 491.877C783.224 491.639 782.776 491.52 782.312 491.52C781.904 491.52 781.552 491.577 781.258 491.69C780.974 491.803 780.753 491.962 780.595 492.166C780.447 492.359 780.374 492.58 780.374 492.829C780.374 493.078 780.459 493.311 780.629 493.526C780.799 493.73 781.116 493.877 781.581 493.968L783.706 494.41C784.499 494.569 785.054 494.829 785.372 495.192C785.689 495.555 785.848 495.997 785.848 496.518C785.848 497.051 785.706 497.521 785.423 497.929C785.139 498.326 784.743 498.632 784.233 498.847C783.723 499.062 783.133 499.17 782.465 499.17ZM792.93 499.17C792.102 499.17 791.337 498.994 790.635 498.643C789.943 498.292 789.411 497.793 789.037 497.147L790.193 496.314C790.442 496.835 790.805 497.243 791.281 497.538C791.768 497.833 792.352 497.98 793.032 497.98C793.632 497.98 794.103 497.867 794.443 497.64C794.783 497.402 794.953 497.096 794.953 496.722C794.953 496.484 794.873 496.269 794.715 496.076C794.567 495.872 794.278 495.725 793.848 495.634L791.808 495.209C790.98 495.039 790.385 494.756 790.023 494.359C789.671 493.962 789.496 493.469 789.496 492.88C789.496 492.415 789.626 491.99 789.887 491.605C790.159 491.22 790.538 490.914 791.026 490.687C791.524 490.449 792.108 490.33 792.777 490.33C793.615 490.33 794.324 490.494 794.902 490.823C795.48 491.152 795.91 491.616 796.194 492.217L795.055 492.965C794.862 492.466 794.55 492.104 794.12 491.877C793.689 491.639 793.241 491.52 792.777 491.52C792.369 491.52 792.017 491.577 791.723 491.69C791.439 491.803 791.218 491.962 791.06 492.166C790.912 492.359 790.839 492.58 790.839 492.829C790.839 493.078 790.924 493.311 791.094 493.526C791.264 493.73 791.581 493.877 792.046 493.968L794.171 494.41C794.964 494.569 795.519 494.829 795.837 495.192C796.154 495.555 796.313 495.997 796.313 496.518C796.313 497.051 796.171 497.521 795.888 497.929C795.604 498.326 795.208 498.632 794.698 498.847C794.188 499.062 793.598 499.17 792.93 499.17ZM803.411 499.17C802.867 499.17 802.352 499.068 801.864 498.864C801.388 498.66 800.997 498.331 800.691 497.878C800.397 497.413 800.249 496.813 800.249 496.076V490.5H801.609V495.719C801.609 496.58 801.796 497.175 802.17 497.504C802.544 497.821 803.071 497.98 803.751 497.98C804.069 497.98 804.38 497.929 804.686 497.827C804.992 497.714 805.264 497.544 805.502 497.317C805.752 497.079 805.944 496.779 806.08 496.416C806.228 496.053 806.301 495.623 806.301 495.124V490.5H807.661V499H806.471L806.386 497.708C806.092 498.218 805.689 498.592 805.179 498.83C804.681 499.057 804.091 499.17 803.411 499.17ZM815.88 499.17C815.075 499.17 814.355 498.994 813.721 498.643C813.097 498.292 812.61 497.787 812.259 497.13C811.907 496.461 811.732 495.668 811.732 494.75C811.732 493.832 811.907 493.044 812.259 492.387C812.61 491.718 813.092 491.208 813.704 490.857C814.316 490.506 815.013 490.33 815.795 490.33C816.588 490.33 817.262 490.5 817.818 490.84C818.384 491.18 818.815 491.645 819.11 492.234C819.404 492.812 819.552 493.464 819.552 494.189C819.552 494.382 819.546 494.557 819.535 494.716C819.523 494.875 819.506 495.016 819.484 495.141H812.616V493.934H818.889L818.192 494.07C818.192 493.254 817.965 492.625 817.512 492.183C817.07 491.741 816.486 491.52 815.761 491.52C815.205 491.52 814.724 491.65 814.316 491.911C813.919 492.16 813.607 492.529 813.381 493.016C813.165 493.492 813.058 494.07 813.058 494.75C813.058 495.419 813.171 495.997 813.398 496.484C813.624 496.971 813.942 497.345 814.35 497.606C814.769 497.855 815.268 497.98 815.846 497.98C816.469 497.98 816.973 497.861 817.359 497.623C817.755 497.385 818.073 497.062 818.311 496.654L819.382 497.283C819.166 497.668 818.889 498.003 818.549 498.286C818.22 498.569 817.829 498.79 817.376 498.949C816.934 499.096 816.435 499.17 815.88 499.17Z" fill="white"/>
    <defs>
        <clipPath id="clip0">
            <rect width="1280" height="693" fill="white"/>
        </clipPath>
        <clipPath id="clip1">
            <rect width="1280" height="693" fill="white"/>
        </clipPath>
    </defs>
</svg>
