<svg width="24" height="24" viewBox="0 0 24 24" fill="none" xmlns="http://www.w3.org/2000/svg">
    <path d="M15.5 19.849V23.5" stroke="#181B5E" stroke-linecap="round" stroke-linejoin="round"/>
    <path fill-rule="evenodd" clip-rule="evenodd" d="M15.5 19.849L16.575 19.491C17.4741 19.191 18.4614 19.3231 19.25 19.849C20.2212 20.3777 21.3605 20.5061 22.425 20.207L23.5 19.849V14.016L22.425 14.374C21.3605 14.6731 20.2212 14.5447 19.25 14.016C18.4614 13.4901 17.4741 13.358 16.575 13.658L15.5 14.016V19.849Z" stroke="#181B5E" stroke-linecap="round" stroke-linejoin="round"/>
    <path fill-rule="evenodd" clip-rule="evenodd" d="M0.5 13.5C0.509723 12.5717 0.70169 11.6543 1.065 10.8C1.465 10 3.128 9.45 5.218 8.676C5.783 8.467 5.69 6.992 5.44 6.716C4.63428 5.84292 4.23954 4.66743 4.355 3.485C4.2826 2.73213 4.52637 1.98304 5.02797 1.41696C5.52958 0.850874 6.24389 0.518732 7 0.5C7.75611 0.518732 8.47042 0.850874 8.97203 1.41696C9.47363 1.98304 9.7174 2.73213 9.645 3.485C9.76076 4.66776 9.366 5.84368 8.56 6.717C8.31 6.993 8.217 8.468 8.782 8.677C10.872 9.451 12.536 10.004 12.935 10.801C13.2983 11.6553 13.4903 12.5727 13.5 13.501L0.5 13.5Z" stroke="#181B5E" stroke-linecap="round" stroke-linejoin="round"/>
    <path d="M10.912 0.737017C11.253 0.579548 11.6244 0.498654 12 0.500017C12.7561 0.518749 13.4704 0.850891 13.972 1.41697C14.4736 1.98305 14.7174 2.73215 14.645 3.48502C14.7607 4.66778 14.366 5.84369 13.56 6.71702C13.31 6.99302 13.217 8.46802 13.782 8.67702C15.872 9.45102 17.536 10.004 17.935 10.801C18.0436 11.0235 18.1336 11.2546 18.204 11.492" stroke="#181B5E" stroke-linecap="round" stroke-linejoin="round"/>
</svg>
