<svg width="32" height="56" viewBox="0 0 32 56" fill="none" xmlns="http://www.w3.org/2000/svg">
    <path d="M5.41924 0H27.0967C28.294 0.00134474 29.4419 0.477582 30.2886 1.32423C31.1352 2.17088 31.6114 3.31879 31.6128 4.51613V51.4839C31.6114 52.6812 31.1352 53.8291 30.2886 54.6758C29.4419 55.5224 28.294 55.9987 27.0967 56H5.41924C4.22191 55.9987 3.07399 55.5224 2.22734 54.6758C1.3807 53.8291 0.904461 52.6812 0.903116 51.4839V4.51613C0.904461 3.31879 1.3807 2.17088 2.22734 1.32423C3.07399 0.477582 4.22191 0.00134474 5.41924 0ZM10.1339 1.80645L10.6758 4.51613H21.84L22.3819 1.80645H10.1339ZM2.70957 51.4839C2.71037 52.2023 2.99612 52.891 3.5041 53.399C4.01209 53.907 4.70084 54.1927 5.41924 54.1935H27.0967C27.8151 54.1927 28.5038 53.907 29.0118 53.399C29.5198 52.891 29.8055 52.2023 29.8063 51.4839V4.51613C29.8055 3.79773 29.5198 3.10898 29.0118 2.60099C28.5038 2.093 27.8151 1.80726 27.0967 1.80645H24.2243L23.4663 5.5965C23.4253 5.80125 23.3147 5.98549 23.1532 6.11787C22.9917 6.25025 22.7893 6.32259 22.5805 6.32258H9.93538C9.72656 6.32259 9.5242 6.25025 9.36272 6.11787C9.20123 5.98549 9.0906 5.80125 9.04965 5.5965L8.29162 1.80645H5.41924C4.70084 1.80726 4.01209 2.093 3.5041 2.60099C2.99612 3.10898 2.71037 3.79773 2.70957 4.51613V51.4839Z" fill="#181B5E"/>
    <path d="M21.6769 50.5811H27.0963C27.3358 50.5811 27.5656 50.6762 27.735 50.8456C27.9044 51.015 27.9995 51.2447 27.9995 51.4843C27.9995 51.7238 27.9044 51.9536 27.735 52.123C27.5656 52.2923 27.3358 52.3875 27.0963 52.3875H21.6769C21.4374 52.3875 21.2076 52.2923 21.0383 52.123C20.8689 51.9536 20.7737 51.7238 20.7737 51.4843C20.7737 51.2447 20.8689 51.015 21.0383 50.8456C21.2076 50.6762 21.4374 50.5811 21.6769 50.5811Z" fill="#181B5E"/>
    <path d="M18.0646 50.5811H18.9679C19.2074 50.5811 19.4372 50.6762 19.6065 50.8456C19.7759 51.015 19.8711 51.2447 19.8711 51.4843C19.8711 51.7238 19.7759 51.9536 19.6065 52.123C19.4372 52.2923 19.2074 52.3875 18.9679 52.3875H18.0646C17.8251 52.3875 17.5954 52.2923 17.426 52.123C17.2566 51.9536 17.1614 51.7238 17.1614 51.4843C17.1614 51.2447 17.2566 51.015 17.426 50.8456C17.5954 50.6762 17.8251 50.5811 18.0646 50.5811Z" fill="#181B5E"/>
</svg>
