<svg width="22" height="24" viewBox="0 0 22 24" fill="none" xmlns="http://www.w3.org/2000/svg">
    <path fill-rule="evenodd" clip-rule="evenodd" d="M0.5 3.775V11.412C0.560187 16.5811 3.8433 21.1621 8.719 22.88L9.84 23.294C10.5889 23.569 11.4111 23.569 12.16 23.294L13.281 22.88C18.1567 21.1621 21.4398 16.5811 21.5 11.412V3.775C21.4979 3.16169 21.1306 2.60864 20.566 2.369C17.5368 1.10465 14.2823 0.468795 11 0.499996C7.71767 0.468795 4.46321 1.10465 1.434 2.369C0.869447 2.60864 0.502054 3.16169 0.5 3.775Z" stroke="#181B5E" stroke-linecap="round" stroke-linejoin="round"/>
    <path fill-rule="evenodd" clip-rule="evenodd" d="M6.5 10.243C6.5 9.6907 6.94772 9.24298 7.5 9.24298H14.5C15.0523 9.24298 15.5 9.6907 15.5 10.243V16.242C15.5 16.7943 15.0523 17.242 14.5 17.242H7.5C6.94772 17.242 6.5 16.7943 6.5 16.242V10.243Z" stroke="#181B5E" stroke-linecap="round" stroke-linejoin="round"/>
    <path fill-rule="evenodd" clip-rule="evenodd" d="M11 14.556C11.6904 14.556 12.25 13.9963 12.25 13.306C12.25 12.6156 11.6904 12.056 11 12.056C10.3096 12.056 9.75 12.6156 9.75 13.306C9.75 13.9963 10.3096 14.556 11 14.556Z" stroke="#181B5E" stroke-linecap="round" stroke-linejoin="round"/>
    <path fill-rule="evenodd" clip-rule="evenodd" d="M13.5 7.74298C13.5 6.36227 12.3807 5.24298 11 5.24298C9.61929 5.24298 8.5 6.36227 8.5 7.74298V9.24298H13.5V7.74298Z" stroke="#181B5E" stroke-linecap="round" stroke-linejoin="round"/>
</svg>
