<svg width="24" height="24" viewBox="0 0 24 24" fill="none" xmlns="http://www.w3.org/2000/svg">
    <path fill-rule="evenodd" clip-rule="evenodd" d="M12 23.5C18.3513 23.5 23.5 18.3513 23.5 12C23.5 5.64873 18.3513 0.5 12 0.5C5.64873 0.5 0.5 5.64873 0.5 12C0.5 18.3513 5.64873 23.5 12 23.5Z" stroke="#181B5E" stroke-linecap="round" stroke-linejoin="round"/>
    <path d="M18.5 9V15.5C18.5 16.0523 18.0523 16.5 17.5 16.5H6.5C5.94772 16.5 5.5 16.0523 5.5 15.5V9" stroke="#181B5E" stroke-linecap="round" stroke-linejoin="round"/>
    <path fill-rule="evenodd" clip-rule="evenodd" d="M18.5 9V8.5C18.5 7.94772 18.0523 7.5 17.5 7.5H6.5C5.94772 7.5 5.5 7.94772 5.5 8.5V9L11.205 12.253C11.6914 12.557 12.3086 12.557 12.795 12.253L18.5 9Z" stroke="#181B5E" stroke-linecap="round" stroke-linejoin="round"/>
</svg>
