<svg width="200" height="29" viewBox="0 0 200 29" fill="none" xmlns="http://www.w3.org/2000/svg">
    <path d="M92.1393 17.8386C91.9081 19.2044 91.698 20.4231 91.5089 21.6417C91.2148 23.4067 90.9206 25.1507 90.6474 26.9157C90.6054 27.2309 90.5004 27.378 90.1221 27.378C88.2521 27.357 86.382 27.357 84.512 27.378C84.1338 27.378 84.0497 27.3149 84.1128 26.9157C85.1003 20.8433 86.0458 14.7499 87.0124 8.67745C87.3276 6.74436 87.6427 4.81127 87.9369 2.89919C87.9789 2.60503 88.105 2.54199 88.3782 2.54199C91.7401 2.563 95.1019 2.54199 98.4638 2.563C99.3884 2.563 100.313 2.7311 101.195 3.00425C103.822 3.82371 105.167 5.42061 105.356 8.17316C105.566 11.3249 104.452 13.9094 101.91 15.8425C101.09 16.4728 100.166 16.8931 99.1572 17.0822C98.6109 17.1872 98.716 17.3343 98.9261 17.6915C100.817 20.7592 102.687 23.827 104.557 26.8947C104.641 27.0208 104.809 27.1468 104.725 27.2939C104.641 27.462 104.452 27.357 104.305 27.357C101.952 27.357 99.5775 27.357 97.2241 27.378C96.8669 27.378 96.6988 27.2729 96.5518 26.9577C95.207 24.1211 93.8202 21.3056 92.4755 18.469C92.3704 18.3009 92.2864 18.1538 92.1393 17.8386ZM93.8412 13.6362C94.2825 13.6572 94.7868 13.5942 95.27 13.5102C96.8459 13.237 98.2957 12.3965 98.4218 10.1063C98.4848 8.99262 98.0226 8.21519 96.972 7.83697C96.0685 7.5218 95.123 7.47977 94.1774 7.43775C93.8202 7.41674 93.6941 7.54281 93.6521 7.879C93.421 9.4759 93.1478 11.0518 92.8957 12.6277C92.7276 13.6572 92.7276 13.6572 93.8412 13.6362Z" fill="#636569"/>
    <path d="M74.2788 25.6975C73.2703 26.664 72.1356 27.3784 70.7699 27.6726C65.0547 28.9753 61.7768 25.0251 61.5037 20.9488C61.1464 15.3596 65.1597 11.3464 69.152 10.2328C70.7068 9.79151 72.2827 9.79151 73.8586 10.2538C74.8882 10.5479 75.7497 11.1153 76.4851 12.0608C76.6742 10.9682 76.8213 9.98062 76.9894 9.01407C77.4516 6.13545 77.9139 3.25683 78.3551 0.378213C78.3972 0.0840473 78.5022 0 78.7754 0C80.5404 0.0210118 82.3054 0.0210118 84.0704 0C84.3855 0 84.4486 0.0630355 84.4065 0.399225C83.398 6.61873 82.4104 12.8382 81.4229 19.0577C81.0026 21.6842 80.5824 24.3317 80.1832 26.9582C80.1411 27.2944 80.0151 27.3784 79.6999 27.3784C77.9769 27.3574 76.2329 27.3574 74.51 27.3784C74.1318 27.3784 74.0897 27.2734 74.1528 26.9372C74.2158 26.5169 74.3629 26.0967 74.2788 25.6975C74.2999 25.6765 74.2999 25.6554 74.3209 25.6554C74.2999 25.6554 74.2999 25.6554 74.2999 25.6554C74.2788 25.6554 74.2788 25.6765 74.2788 25.6975ZM67.8492 19.604C67.8072 20.9908 68.4796 22.0624 69.6773 22.4827C72.4298 23.4072 75.3294 21.6002 75.6236 19.0157C75.8547 17.0406 75.0143 15.5698 73.2913 15.2336C70.4337 14.6663 67.9123 16.6834 67.8492 19.604Z" fill="#8BC53E"/>
    <path d="M165.407 27.3572C162.613 27.3572 159.923 27.3572 157.234 27.3572C156.961 27.3572 156.835 27.1891 156.688 27.021C155.07 25.0039 153.452 22.9867 151.834 20.9696C151.729 20.8435 151.666 20.6754 151.435 20.5914C151.182 22.1253 150.951 23.6591 150.699 25.193C150.594 25.8233 150.489 26.4327 150.405 27.063C150.363 27.3152 150.279 27.3782 150.048 27.3782C148.241 27.3782 146.434 27.3572 144.648 27.3782C144.312 27.3782 144.333 27.2521 144.375 27C144.9 23.7222 145.425 20.4443 145.93 17.1875C146.602 12.9011 147.295 8.61465 147.968 4.30723C148.178 3.00449 148.388 1.68075 148.577 0.378015C148.619 0.125873 148.682 -0.000198156 148.955 0.0208137C150.762 0.0418255 152.569 0.0208137 154.355 0.0208137C154.628 0.0208137 154.67 0.104861 154.628 0.357003C153.998 4.34925 153.347 8.3415 152.716 12.3548C152.527 13.5524 152.338 14.7291 152.149 15.9268C152.128 16.0739 152.065 16.2209 152.191 16.4311C152.716 15.9898 153.242 15.5696 153.746 15.1283C155.448 13.6785 157.171 12.2497 158.873 10.7999C159.125 10.5898 159.377 10.4847 159.713 10.4847C162.109 10.5057 164.504 10.4847 166.899 10.4847C167.046 10.4847 167.193 10.4847 167.488 10.4847C166.836 11.01 166.29 11.4512 165.765 11.8715C163.243 13.8886 160.722 15.9268 158.179 17.9229C157.801 18.2171 157.843 18.3852 158.116 18.7213C160.428 21.4529 162.718 24.2054 165.008 26.958C165.176 27.063 165.26 27.1681 165.407 27.3572Z" fill="#636569"/>
    <path d="M13.3447 1.87012C15.8031 1.91214 18.1144 2.45845 20.2786 3.65612C20.6148 3.84523 20.6989 3.9713 20.4467 4.30749C19.4802 5.71528 18.5136 7.14409 17.5681 8.55188C17.379 8.84604 17.2529 8.84604 16.9798 8.63593C15.509 7.48027 13.891 6.93397 12.042 7.48027C11.1175 7.75343 10.3611 8.25771 10.172 9.3083C10.0459 9.93866 10.256 10.4429 10.7813 10.8001C11.6008 11.3675 12.5253 11.6826 13.4708 11.9558C14.8786 12.376 16.2654 12.8593 17.4841 13.7208C18.8709 14.7083 19.4802 16.0951 19.4382 17.734C19.3961 19.1839 19.102 20.5917 18.5347 21.9574C17.4 24.6469 15.3829 26.3699 12.6513 27.2524C8.28089 28.6812 4.14156 28.1559 0.317407 25.5084C-0.0818181 25.2353 -0.0818181 25.0672 0.191336 24.689C1.22092 23.2391 2.22948 21.7683 3.23805 20.2975C3.44817 20.0033 3.55323 20.0033 3.82638 20.2345C5.02406 21.3691 6.36881 22.2516 8.07077 22.4617C9.14237 22.6088 10.1509 22.4617 11.1175 21.9154C11.9159 21.4531 12.3572 20.7387 12.4622 19.8352C12.5463 19.1208 12.2521 18.5745 11.6008 18.2383C10.6342 17.713 9.58362 17.3768 8.53303 17.0617C7.56649 16.7675 6.62096 16.4103 5.69643 15.9691C3.97347 15.1916 3.21704 13.8679 3.11198 12.0398C2.7968 6.2826 6.89411 2.77363 11.5167 1.97518C12.1261 1.87012 12.7354 1.87012 13.3447 1.87012Z" fill="#8BC53E"/>
    <path d="M125.296 7.75391C125.254 8.6364 124.96 9.49789 124.939 10.3804C124.918 11.3469 125.023 12.2294 125.695 13.0069C126.599 14.0575 126.998 15.3392 127.082 16.726C127.418 22.3361 123.762 26.1182 118.867 27.442C116.156 28.1774 113.425 28.1564 110.798 27.0428C107.478 25.614 105.923 22.7564 106.47 19.1843C106.554 18.596 106.638 18.0077 106.722 17.4193C106.995 15.6123 108.109 14.3306 109.411 13.196C111.912 11.0318 114.811 9.89711 118.152 9.93914C120.716 9.98116 123.069 9.3508 125.128 7.79593C125.191 7.77492 125.254 7.77492 125.296 7.75391C125.296 7.75391 125.317 7.75391 125.296 7.75391ZM120.716 18.2178C120.737 16.7049 119.854 15.5913 118.425 15.2341C115.526 14.5407 112.731 16.831 112.836 19.8147C112.899 21.2645 113.74 22.2941 115.147 22.6093C117.816 23.1766 120.737 21.4536 120.716 18.2178Z" fill="#8BC53E"/>
    <path d="M33.1798 19.898C31.2467 19.898 29.2926 19.919 27.3596 19.898C26.9603 19.898 26.8343 20.0241 26.7922 20.4233C26.6031 22.9447 28.074 23.7011 30.1751 23.6801C31.2888 23.6801 32.2763 23.2809 32.9697 22.3774C33.1168 22.1883 33.2849 22.1463 33.516 22.1463C35.176 22.1463 36.8359 22.1673 38.4958 22.1463C38.9161 22.1463 38.9581 22.2513 38.79 22.6085C38.0546 24.1634 36.962 25.4241 35.4701 26.2856C32.2763 28.1346 28.8934 28.4498 25.4265 27.2942C22.5478 26.3276 20.9509 24.0163 20.8669 20.9906C20.8249 19.5408 21.077 18.133 21.3922 16.7462C21.7074 15.3805 22.5899 14.3089 23.5774 13.3423C26.9393 10.0435 30.9526 9.18197 35.3651 10.5057C37.9915 11.2832 39.3783 13.2793 39.7565 15.9688C39.9246 17.1455 39.8196 18.3011 39.6515 19.4568C39.6094 19.814 39.4624 19.919 39.1262 19.898C37.1301 19.877 35.1549 19.898 33.1798 19.898ZM30.9946 16.4311C32.0032 16.4311 33.0327 16.41 34.0413 16.4311C34.4405 16.4311 34.5246 16.284 34.4405 15.9268C34.2935 15.2754 33.9573 14.7501 33.3899 14.3509C32.6335 13.8256 31.793 13.7415 30.9316 13.8466C29.5028 13.9937 28.3891 14.645 27.6957 15.9478C27.4856 16.347 27.5697 16.4521 28.0109 16.4311C28.9985 16.41 30.007 16.4311 30.9946 16.4311Z" fill="#8BC53E"/>
    <path d="M185.18 22.1251C184.528 23.785 183.52 25.0667 182.112 25.9912C178.813 28.1134 175.262 28.5127 171.564 27.252C168.665 26.2644 167.131 23.9531 167.068 20.9064C167.047 19.5406 167.299 18.1959 167.551 16.8511C167.698 16.0316 168.118 15.3172 168.623 14.6449C170.871 11.7242 173.791 10.0433 177.532 9.93821C178.918 9.89618 180.305 9.98023 181.608 10.4635C184.255 11.43 185.621 13.3631 185.978 16.0947C186.125 17.2083 185.999 18.3219 185.852 19.4356C185.81 19.8138 185.642 19.8978 185.285 19.8978C181.398 19.8768 177.511 19.8978 173.623 19.8768C173.119 19.8768 173.014 20.0659 172.972 20.4861C172.804 22.2511 173.749 23.4068 175.514 23.6169C176.964 23.785 178.267 23.5329 179.212 22.2932C179.318 22.1671 179.423 22.1251 179.57 22.1251C181.44 22.1251 183.268 22.1251 185.18 22.1251ZM177.216 16.4099C178.246 16.4099 179.276 16.4099 180.305 16.4099C180.641 16.4099 180.725 16.3258 180.683 15.9896C180.536 15.1491 180.074 14.5608 179.318 14.1616C177.468 13.195 174.758 14.1406 173.875 16.0106C173.728 16.3048 173.749 16.4099 174.107 16.3888C175.157 16.4099 176.187 16.4099 177.216 16.4099Z" fill="#636569"/>
    <path d="M59.1294 22.1884C58.5201 23.7223 57.5745 25.004 56.1877 25.9075C52.8048 28.1348 49.1488 28.555 45.3667 27.1682C42.6141 26.1597 41.1853 24.0795 41.0592 21.1378C40.9962 19.667 41.2273 18.2382 41.5425 16.8304C41.8787 15.3386 42.8242 14.2249 43.8958 13.1954C47.1317 10.1066 50.9558 9.30816 55.2002 10.4008C58.0578 11.1362 59.8018 13.4685 59.9699 16.4102C60.0329 17.4187 59.9699 18.4273 59.8228 19.4359C59.7598 19.8561 59.5917 19.9191 59.2135 19.9191C55.3683 19.8981 51.5231 19.9191 47.6569 19.9191C46.9636 19.9191 46.9636 19.9401 46.9425 20.6125C46.8585 22.6927 48.0352 23.7853 50.3044 23.7013C51.4391 23.6592 52.4266 23.3231 53.141 22.3775C53.2461 22.2304 53.3722 22.1464 53.5823 22.1464C55.3893 22.1464 57.1963 22.1464 58.9823 22.1674C59.0454 22.1254 59.0664 22.1464 59.1294 22.1884ZM51.1449 16.4312C51.9854 16.4312 52.8259 16.4312 53.6663 16.4312C54.7589 16.4312 54.906 16.158 54.3597 15.1915C54.2547 15.0024 54.1286 14.8553 53.9815 14.7082C53.2251 13.9308 52.2585 13.7627 51.229 13.8677C49.7371 14.0148 48.5815 14.6872 47.8671 16.053C47.72 16.3471 47.72 16.4732 48.1192 16.4732C49.1278 16.4102 50.1363 16.4312 51.1449 16.4312Z" fill="#8BC53E"/>
    <path d="M190.874 27.3573C190.013 27.3573 189.151 27.3363 188.311 27.3573C187.911 27.3783 187.848 27.2312 187.911 26.874C188.521 23.197 189.109 19.4989 189.74 15.8218C189.803 15.4436 189.697 15.3596 189.361 15.4016C189.088 15.4226 188.794 15.4016 188.521 15.4016C187.806 15.4016 187.806 15.4016 187.911 14.7082C188.122 13.4475 188.332 12.1868 188.521 10.9261C188.563 10.5899 188.668 10.3798 189.067 10.4428C189.277 10.4848 189.487 10.4428 189.698 10.4428C190.559 10.4428 190.559 10.4428 190.706 9.56029C190.916 8.25756 191.147 6.97584 191.336 5.69412C191.378 5.39995 191.484 5.33691 191.778 5.33691C193.543 5.33691 195.308 5.35793 197.073 5.33691C197.43 5.33691 197.472 5.46299 197.409 5.75715C197.157 7.16494 196.947 8.57274 196.694 9.98053C196.631 10.3587 196.736 10.4638 197.115 10.4428C197.976 10.4218 198.838 10.4428 199.678 10.4428C199.888 10.4428 200.035 10.4218 199.993 10.737C199.741 12.1868 199.531 13.6366 199.321 15.0864C199.279 15.3806 199.111 15.3806 198.88 15.3806C198.039 15.3806 197.199 15.4016 196.358 15.3806C195.98 15.3596 195.833 15.4646 195.791 15.8428C195.224 19.4569 194.656 23.0499 194.089 26.6429C194.005 27.1472 193.9 27.3993 193.291 27.3573C192.492 27.3153 191.694 27.3573 190.874 27.3573Z" fill="#636569"/>
    <path d="M142.462 15.9477C142.315 15.8637 142.252 15.8217 142.21 15.7796C139.52 13.8045 136.6 15.0442 135.297 17.2715C134.099 19.3096 134.414 22.2513 137.23 22.9237C138.575 23.2388 139.835 22.9867 140.991 22.2513C141.138 22.1672 141.285 22.0622 141.495 21.9361C141.285 23.2388 141.096 24.4785 140.907 25.7182C140.907 25.7603 140.865 25.8233 140.886 25.8653C140.97 26.8319 140.403 27.2101 139.541 27.4412C137.062 28.1346 134.625 28.1976 132.292 27.021C129.519 25.6552 128.027 22.7976 128.447 19.7509C128.531 19.1836 128.615 18.6162 128.657 18.0279C128.762 16.6831 129.33 15.5485 130.191 14.5399C132.797 11.4722 136.032 9.70722 140.172 9.95936C141.138 10.0224 142.063 10.2956 142.924 10.7158C143.176 10.8419 143.26 10.9679 143.218 11.2831C142.945 12.817 142.714 14.3508 142.462 15.9477Z" fill="#636569"/>
    <path d="M125.317 7.75347C125.338 7.73245 125.338 7.71144 125.359 7.69043C125.38 7.75347 125.38 7.77448 125.317 7.75347C125.317 7.75347 125.296 7.75347 125.317 7.75347Z" fill="#8BC53E"/>
</svg>
