<svg width="61" height="50" viewBox="0 0 61 50" fill="none" xmlns="http://www.w3.org/2000/svg">
    <path fill-rule="evenodd" clip-rule="evenodd" d="M43.8851 43.1647H6.11452C3.40946 43.1647 1.20996 40.9652 1.20996 38.2601V12.7395C1.20996 10.0345 3.40946 7.83496 6.11452 7.83496H43.8851C46.5902 7.83496 48.7897 10.0345 48.7897 12.7395V38.2601C48.7897 40.9652 46.5902 43.1647 43.8851 43.1647ZM6.11452 9.47717C4.31556 9.47717 2.85217 10.9406 2.85217 12.7395V38.2601C2.85217 40.0591 4.31556 41.5225 6.11452 41.5225H43.8851C45.6841 41.5225 47.1475 40.0591 47.1475 38.2601V12.7395C47.1475 10.9406 45.6841 9.47717 43.8851 9.47717H6.11452Z" fill="black"/>
    <path fill-rule="evenodd" clip-rule="evenodd" d="M15.8124 24.7901C13.3911 24.7901 11.4185 22.8172 11.4185 20.3962C11.4185 17.9748 13.3911 16.002 15.8124 16.002C18.2336 16.002 20.2063 17.9748 20.2063 20.3962C20.2063 22.8172 18.2336 24.7901 15.8124 24.7901ZM15.8124 17.6442C14.2952 17.6442 13.0607 18.8788 13.0607 20.3962C13.0607 21.9133 14.2953 23.1479 15.8124 23.1479C17.3294 23.1479 18.564 21.9133 18.564 20.3962C18.564 18.8788 17.3295 17.6442 15.8124 17.6442Z" fill="black"/>
    <path fill-rule="evenodd" clip-rule="evenodd" d="M23.4686 34.9986C23.0155 34.9986 22.6475 34.6305 22.6475 34.1775V33.1565C22.6475 31.3576 21.1841 29.8942 19.3851 29.8942H12.2395C10.4406 29.8942 8.97717 31.3576 8.97717 33.1565V34.1775C8.97717 34.6305 8.60912 34.9986 8.15607 34.9986C7.70302 34.9986 7.33496 34.6305 7.33496 34.1775V33.1565C7.33496 30.4515 9.53446 28.252 12.2395 28.252H19.3851C22.0902 28.252 24.2897 30.4515 24.2897 33.1565V34.1775C24.2897 34.6305 23.9216 34.9986 23.4686 34.9986Z" fill="black"/>
    <path fill-rule="evenodd" clip-rule="evenodd" d="M41.8436 18.6647H30.6146C30.1615 18.6647 29.7935 18.2966 29.7935 17.8436C29.7935 17.3905 30.1615 17.0225 30.6146 17.0225H41.8436C42.2967 17.0225 42.6647 17.3905 42.6647 17.8436C42.6647 18.2966 42.2967 18.6647 41.8436 18.6647Z" fill="black"/>
    <path fill-rule="evenodd" clip-rule="evenodd" d="M41.8436 26.8317H30.6146C30.1615 26.8317 29.7935 26.4636 29.7935 26.0106C29.7935 25.5575 30.1615 25.1895 30.6146 25.1895H41.8436C42.2967 25.1895 42.6647 25.5575 42.6647 26.0106C42.6647 26.4636 42.2967 26.8317 41.8436 26.8317Z" fill="black"/>
    <circle cx="43.375" cy="16.9253" r="15.7417" fill="white" stroke="#181B5E" stroke-width="2"/>
    <path d="M35.6167 17.3336L40.7889 22.2336L51.1334 12.4336" stroke="#181B5E" stroke-width="2" stroke-linecap="round"/>
</svg>
