<svg width="167" height="190" viewBox="0 0 167 190" fill="none" xmlns="http://www.w3.org/2000/svg">
    <path fill-rule="evenodd" clip-rule="evenodd" d="M126.229 3.34154C121.213 11.836 115.624 26.038 113.179 36.5055C112.346 40.0699 111.863 43.7994 111.39 50.3312C109.676 73.9719 104.646 101.62 101.285 105.886C100.738 106.578 100.055 106.594 95.1955 106.023C92.1847 105.669 89.6283 105.247 89.5144 105.085C89.4005 104.923 90.0036 103.766 90.8552 102.514C94.1209 97.7091 97.5629 88.7473 98.7955 81.8397C100.057 74.7705 99.8104 66.8975 98.1305 60.59C96.9163 56.0314 93.8725 50.6583 91.9847 49.7402C90.8489 49.188 90.6245 48.7892 90.4911 47.0834C90.2962 44.6001 89.3947 41.622 88.4858 40.4588C86.3789 37.7624 80.3529 35.397 74.8731 35.1159C68.4197 34.7844 59.9847 37.0434 56.8221 39.95C54.8681 41.746 52.7548 44.7336 51.3342 47.7079C50.2214 50.0378 49.557 53.0645 45.8247 72.8096C41.2006 97.2697 40.6185 101.703 41.2608 107.581C42.3622 117.665 48.3817 134.298 53.6391 141.787C63.7554 156.197 72.6164 163.005 79.164 161.398C81.8119 160.748 86.4323 157.785 88.4062 155.47C89.6654 153.994 90.0085 153.119 90.9475 148.988C91.5445 146.361 92.1934 144.1 92.3891 143.964C92.5847 143.828 93.88 143.657 95.2671 143.583C96.6543 143.509 98.9951 143.001 100.468 142.453C103.086 141.48 109.338 137.547 110.357 136.231C110.706 135.782 111.787 135.6 113.732 135.665L116.594 135.76L114.187 135.281L111.781 134.803L112.112 133.208C112.427 131.693 112.335 131.529 110.259 129.899C109.058 128.956 107.505 127.567 106.81 126.812C103.328 123.035 100.456 122.253 95.6329 123.768L92.5108 124.75L91.0364 123.356C88.0724 120.555 80.9988 120.632 73.4453 123.546C69.0919 125.226 68.3056 125.901 69.2094 127.186C69.6796 127.854 70.405 128.149 72.1008 128.361C73.3459 128.517 78.829 129.372 84.2853 130.26C89.8515 131.167 95.2626 131.831 96.6135 131.774C97.9381 131.718 100.359 131.908 101.994 132.195C105.057 132.735 109.883 134.808 109.757 135.53C109.64 136.197 103.99 139.841 101.197 141.05C98.8917 142.048 94.1231 142.719 93.6921 142.106C93.6026 141.979 93.8202 141.388 94.1756 140.794C95.1152 139.223 95.4842 136.546 94.8621 135.816C94.4748 135.362 92.9643 135.023 89.4197 134.596C81.2936 133.617 80.0036 133.6 78.5559 134.457C77.3721 135.157 77.2619 135.372 77.5398 136.439C78.1112 138.634 84.9825 142.898 89.1237 143.628L90.8116 143.925L89.9489 148.523C88.9146 154.04 88.1897 155.226 84.2881 157.789C76.9526 162.607 72.1346 160.956 62.1378 150.201C58.4424 146.225 53.2697 139.222 51.3873 135.646C48.2947 129.771 44.6024 118.943 42.9671 110.95C41.4241 103.409 41.5381 102.148 46.1086 76.2357C49.8074 55.2655 50.3444 52.6724 51.688 49.2961C54.4277 42.4099 57.6367 39.4134 64.1864 37.6262C69.0707 36.2933 73.4032 36.0148 77.6811 36.7594C84.5184 37.9491 88.2376 40.9135 89.1861 45.9296L89.6517 48.3925L88.2755 47.8978C78.6394 44.433 78.8063 44.4783 75.3336 44.3766C70.892 44.2466 69.609 44.8629 69.1271 47.3569C68.8086 49.0065 68.6367 49.2268 67.6945 49.1926C66.2917 49.1417 60.5056 50.5287 58.8103 51.3216C57.3732 51.9939 56.6733 53.9197 57.5189 54.8751C57.7735 55.1625 59.6898 56.4678 61.7777 57.7759C65.4517 60.0775 65.7338 60.1815 70.5287 60.9934C74.6769 61.6961 76.083 61.7467 79.1673 61.3045C83.4047 60.6973 85.8187 59.7587 86.8593 58.3145C87.2604 57.7576 88.0681 55.8194 88.6543 54.0075C89.2407 52.1951 89.7985 50.6579 89.8937 50.5907C89.989 50.5235 90.6367 50.7026 91.3327 50.9887C92.9236 51.6418 96.0252 57.2161 97.1443 61.4327C98.2467 65.588 98.7062 71.8595 98.3045 77.2662C97.6888 85.5485 94.0694 96.3439 89.8455 102.498L88.1232 105.006L85.3948 104.525C80.8077 103.718 79.0066 105.262 82.0136 107.426C84.3056 109.074 84.8547 109.101 86.5724 107.644L88.0448 106.396L93.9639 107.272C100.879 108.295 101.218 108.194 102.935 104.611C106.382 97.4165 110.863 72.0063 112.468 50.545C113.397 38.1313 116.113 27.1636 121.177 15.3773C123.257 10.5355 127.519 2.35343 127.923 2.42461C128.393 2.50753 136.474 15.0918 140.4 21.8563C146.513 32.3901 150.101 39.7464 153.445 48.6038C154.999 52.7207 157.844 62.096 157.592 62.2712C157.515 62.3249 156.452 61.8327 155.229 61.1777C149.037 57.8603 143.615 56.8899 134.811 57.5227C128.357 57.9869 124.596 59.0112 123.439 60.6205C121.52 63.2897 124.541 66.7379 131.52 69.8444C137.854 72.6635 148.259 73.2905 155.841 71.3094L159.035 70.4748L159.2 68.1648C159.35 66.0564 159.424 65.9016 160.052 66.3927C162.498 68.3069 165.24 75.6301 165.356 80.5569C165.521 87.5396 162.729 102.173 159.393 111.814C157.123 118.374 152.868 128.255 148.198 137.81C138.815 157.009 134.804 163.344 126.496 172.084C119.105 179.858 116.441 181.463 106.319 184.233C99.5475 186.086 94.6361 186.852 85.9785 187.405C70.2711 188.407 59.8248 188.112 49.7754 186.381L42.2393 185.084L38.4129 182.347C32.7045 178.264 28.0384 173.489 23.6425 167.23C19.2872 161.03 17.7102 157.398 15.7684 149.093C14.0045 141.549 13.0943 134.736 11.9433 120.463C9.70524 92.7114 7.75248 84.0129 1.52662 74.0664C0.376664 72.2293 0.268541 72.1554 0.0879223 73.0852C-0.0295039 73.6889 0.501549 75.0622 1.41738 76.5231C6.41714 84.498 8.64187 94.9802 10.861 121.015C11.4598 128.042 12.1777 135.522 12.4557 137.636C13.6294 146.561 16.3387 157.209 18.5771 161.693C21.8943 168.339 26.9963 174.675 33.7098 180.485C39.8002 185.757 40.6149 186.126 49.5469 187.679C59.8276 189.466 69.0948 189.72 85.1611 188.655C98.2576 187.787 110.578 185.003 116.747 181.517C124.079 177.375 134.46 165.517 140.793 154.054C149.262 138.72 157.754 119.973 161.214 108.968C164.768 97.6688 167 83.4422 166.202 77.1822C165.682 73.1047 163.14 67.458 160.797 65.1778C159.759 64.1673 158.874 62.8997 158.832 62.3602C158.44 57.4205 152.422 41.4442 146.957 30.8386C142.394 21.9812 129.358 0.915484 128.325 0.729564C128.05 0.680272 127.107 1.85534 126.229 3.34154ZM84.7662 48.1759C86.71 48.9164 88.4431 49.6923 88.6177 49.9002C88.7948 50.1117 88.4128 51.877 87.7521 53.8976C86.3281 58.2545 85.5888 58.9352 81.397 59.7471C77.3031 60.5404 72.4286 60.4318 68.9027 59.4687C64.7993 58.3479 57.9799 54.1467 58.2035 52.8772C58.3394 52.1057 67.4066 50.0968 69.2705 50.4251C69.4503 50.4568 69.7762 51.4033 69.9945 52.5288C70.7197 56.2637 73.2743 58.122 76.7787 57.4639C79.5011 56.9531 82.3676 54.2365 82.8049 51.7536C82.9465 50.9496 82.7161 50.5899 81.8266 50.2242C80.8538 49.8249 72.673 48.9351 70.8524 49.0311C70.1363 49.0685 69.7101 46.5961 70.3551 46.1463C71.2494 45.5225 76.5522 45.5519 78.9035 46.1936C80.1841 46.5434 82.8223 47.4353 84.7662 48.1759ZM152.978 61.4405C157.227 63.5765 158.058 64.4489 158.213 66.9379C158.289 68.1635 158.201 69.3349 158.016 69.541C157.345 70.2911 150.312 71.3295 146.288 71.2725C138.66 71.1643 132.632 69.5227 127.76 66.2275C123.32 63.2249 122.921 60.9311 126.643 59.8094C128.373 59.2881 136.173 58.573 141.075 58.4863C143.206 58.4489 150.752 60.3215 152.978 61.4405ZM81.832 52.2394C81.5834 53.6503 79.7156 55.3903 77.8994 55.9025C74.5336 56.852 72.6737 56.0577 71.3982 53.1269C70.6205 51.3403 70.8566 50.3651 72.0712 50.3465C74.3557 50.3119 81.9133 51.7773 81.832 52.2394ZM86.1857 106.874C85.116 107.703 84.5378 107.671 83.1302 106.707C81.5214 105.606 82.0612 105.264 84.682 105.726C87.0885 106.149 87.1054 106.162 86.1857 106.874ZM106.499 128.453C108.377 130.262 110.294 131.94 110.757 132.182C111.684 132.665 111.727 132.939 111 133.734C110.497 134.284 110.151 134.169 107.401 132.534C105.293 131.28 101.496 130.616 95.4271 130.439C91.1792 130.315 89.6936 130.081 84.7709 128.762C79.8453 127.443 78.6882 127.261 76.4386 127.453C73.2312 127.727 71.6608 127.476 70.7642 126.546C70.1389 125.897 70.3875 125.732 73.5563 124.697C79.4627 122.768 81.9191 122.352 85.2564 122.716C88.0844 123.024 88.5628 123.205 90.1863 124.581L91.9849 126.103L95.3397 125.063C100.219 123.549 101.956 124.076 106.499 128.453ZM94.1946 137.792C94.1763 138.341 93.6723 139.694 93.0745 140.798L91.9874 142.806L89.9252 142.443C86.3369 141.811 78.4209 137.105 78.6602 135.746C78.7141 135.44 79.2775 135.153 79.9124 135.108C81.896 134.968 87.6511 135.518 91.0093 136.169C94.0101 136.751 94.2251 136.86 94.1946 137.792Z" fill="#181B5E"/>
</svg>
