<svg width="140" height="153" viewBox="0 0 140 153" fill="none" xmlns="http://www.w3.org/2000/svg">
    <path d="M10.5824 138.033C9.02342 135.565 6.07542 133.759 3.09042 134.526C-1.80158 135.783 -1.72158 144.919 9.48542 145.48C35.2754 146.771 48.7544 97.5701 29.9074 87.3091C18.8584 81.2931 3.38842 94.9831 12.8354 110.861C17.3634 118.472 23.7204 120.687 31.9534 117.955C57.4744 109.486 57.1854 86.7781 52.9924 60.5281C50.5684 45.3541 49.0864 34.3731 53.3344 19.8381C56.7084 8.29206 62.4074 2.92106 76.1054 1.22406C84.3624 0.201057 100.428 -0.0839419 108.545 4.31806C115.368 8.01906 119.627 15.0411 122.815 22.0821C124.594 26.0101 126.524 30.4421 125.711 34.8531C124.553 41.1331 118.005 44.5551 112.106 44.9051C104.8 45.3381 96.7334 40.0511 90.0854 45.1771C87.6804 47.0311 86.0744 49.9621 86.9784 53.0161C87.2234 53.8441 90.0424 52.0711 97.3544 53.2321C101.419 53.8771 107.42 55.3011 106.986 59.4091C106.813 61.0481 105.328 62.0551 103.768 61.3401C100.593 59.8831 102.403 55.9571 105.004 55.0871C111.272 52.9901 117.718 61.5321 112.665 63.9071C109.917 65.1991 96.2834 64.4441 94.2684 63.0821C90.8944 60.8011 95.4354 55.1041 101.787 52.3791C110.045 48.8341 120.427 50.3291 126.861 56.3741C134.716 63.7541 142.303 86.8041 136.928 107.132C133.581 119.79 125.314 126.387 115.156 134.615C90.0004 154.991 81.7144 159.637 63.0244 128.343C51.7584 109.48 47.6724 96.2151 44.8494 81.0781C43.9744 76.3851 43.0964 71.1491 44.3154 66.4371C45.3364 62.4901 49.1584 59.3931 53.1634 58.8041C58.7824 57.9771 60.9784 64.3011 58.0894 65.2891C54.9444 66.3641 56.4924 59.1921 58.0914 58.9251C64.9374 57.7831 72.8644 73.5971 57.3404 71.1821C52.1934 70.3811 46.5714 68.2461 42.5444 64.8721C39.9244 62.6771 38.4834 59.2161 41.3284 56.6471C46.5334 51.9461 83.6984 41.6791 72.7414 82.7841C71.6534 86.8651 69.4924 91.1231 71.9484 93.4151C76.3094 97.4871 89.5784 91.5701 97.1694 94.2221C101.802 95.8411 104.6 100.387 105.156 105.108C105.622 109.067 103.738 108.288 100.237 107.031C92.5764 104.282 92.6354 108.12 89.8344 109.716C83.9234 113.085 81.2304 98.2631 66.7784 113.052C65.3524 114.511 86.8754 127.15 104.558 113.475C104.37 113.397 104.182 113.319 103.995 113.242C104.352 119.221 101.148 125.108 96.0784 128.257C88.1234 133.197 77.1384 129.553 73.1584 121.119C72.9774 120.735 72.4084 121.07 72.5884 121.452C75.1554 126.892 80.7244 130.551 86.6734 131.11C96.6844 132.051 105.241 123.075 104.654 113.242C104.636 112.935 104.315 112.835 104.091 113.009C93.5384 121.17 77.7314 121.124 67.1784 113.001C67.2004 113.174 67.2234 113.347 67.2454 113.519C69.4764 111.237 71.9404 108.933 74.9414 107.72C78.9474 106.1 81.1884 107.553 83.7844 109.134C91.6514 113.925 91.2634 106.645 95.7424 106.637C98.8994 106.631 102.234 109.09 104.362 108.672C107.207 108.113 105.505 102.143 104.122 99.5341C101.491 94.5721 97.1364 92.7331 91.5654 92.8621C84.5504 93.0241 72.4924 96.6271 71.5674 91.2831C70.9144 87.5121 74.4814 83.4661 75.2754 72.1811C76.2774 57.9301 69.2254 50.9711 57.5254 51.4591C52.2544 51.6791 41.9214 53.1601 39.5254 57.8721C35.8504 65.0931 52.3324 72.1311 60.5414 72.1041C72.5384 72.0641 65.3084 57.0791 57.9964 58.2741C56.9264 58.4491 56.6904 59.1151 56.2804 60.1151C52.9484 68.2441 61.2584 67.1441 59.8824 62.2301C57.7994 54.7911 44.0284 57.7261 43.1824 69.4761C42.3584 80.9221 49.0484 110.43 68.5894 138.316C83.7944 160.014 94.8484 151.44 112.687 137.423C125.043 127.714 134.018 120.496 137.516 107.49C142.66 88.3681 136.371 62.1371 125.154 54.1251C117.449 48.6221 106.022 48.3481 98.0574 53.6451C91.1004 58.2711 91.6464 62.8661 94.7334 64.0381C97.2154 64.9811 110.678 66.1271 113.563 64.1531C116.848 61.9061 114.746 56.2371 109.342 54.5641C102.763 52.5281 99.3344 58.8041 102.762 61.4851C106.565 64.4591 110.256 58.3721 105.276 55.0741C100.932 52.1971 92.3954 51.7961 87.2114 52.6081C87.3464 52.6851 87.4824 52.7621 87.6174 52.8391C86.4924 49.0381 89.6224 45.5981 92.9674 44.2851C99.6134 41.6771 106.424 46.6811 114.303 45.3051C119.517 44.3941 124.427 41.2921 126.021 36.3271C128.533 28.5011 120.313 13.7711 114.487 7.97606C109.046 2.56406 101.887 0.666057 94.4054 0.255057C64.1254 -1.40794 55.6574 4.86906 51.4394 24.7581C47.5364 43.1651 52.8404 58.5131 54.3634 75.0621C56.7294 100.761 46.4324 113.098 30.4394 117.735C16.8194 121.684 8.37442 106.853 11.2524 96.6181C14.7434 84.2021 33.9324 80.6551 37.5824 100.991C40.0574 114.784 33.5044 133.635 20.8794 141.522C11.5864 147.327 2.54942 144.633 0.94742 140.301C-0.64758 135.989 3.92542 133.371 7.90942 136.133C13.7864 140.208 11.6914 149.313 3.19442 151.906C2.78942 152.03 2.96242 152.667 3.36942 152.542C6.13942 152.545 15.3224 145.537 10.5824 138.033Z" fill="#181B5E"/>
</svg>
