<?xml version="1.0" encoding="utf-8"?>
<!-- Generator: Adobe Illustrator 25.4.1, SVG Export Plug-In . SVG Version: 6.00 Build 0)  -->
<svg version="1.1" id="Layer_1" xmlns="http://www.w3.org/2000/svg" xmlns:xlink="http://www.w3.org/1999/xlink" x="0px" y="0px"
     viewBox="0 0 280.5 452.9" style="enable-background:new 0 0 280.5 452.9;" xml:space="preserve">
<style type="text/css">
	.st0{fill:none;stroke:#121212;stroke-width:1.4172;stroke-linecap:round;stroke-linejoin:round;stroke-miterlimit:10;}
	.st1{fill:none;stroke:#0B0B0B;stroke-width:1.4172;stroke-linecap:round;stroke-linejoin:round;stroke-miterlimit:10;}
	.st2{fill:none;stroke:#0B0B0B;stroke-width:0.8495;stroke-linecap:round;stroke-linejoin:round;stroke-miterlimit:10;}
	.st3{fill:none;stroke:#0B0B0B;stroke-width:1.1334;stroke-linecap:round;stroke-linejoin:round;stroke-miterlimit:10;}
</style>
    <g id="Layer_21">
	<path class="st0" d="M9.4,147.1V144c-0.4,5-1.4,17.6-2,25.1C7,176,6.3,189.5,6,196c-0.2,6.5-0.6,19.4-0.7,26
		C5.2,228.5,5.1,241.6,5,248c0,6.6-0.1,19.6-0.1,26.1c-0.1,3.2-0.2,9.7-0.3,13c-0.3,6.7-1,19.8-1.4,26.2c-0.5,6.8-1.4,20-1.9,26.5
		c-0.2,3.1-0.5,9.7-0.6,13.2c0,1.6,0,4.8,0.1,5.9c0.1,1.7,0.6,4.5,1.1,6.3c0.4,1.2,1.8,4.5,2.4,5.7c0.5,1.1,2,3.4,3.1,4.8
		c0.4,0.5,3.4,3.8,4.1,4.5c1,1,3.5,3.2,4.8,4.2c1.3,1,3.5,2.6,5.2,3.7c2.7,1.7,7.6,4.4,11.4,6.2c3,1.3,8.5,3.7,10.9,4.7
		c2.2,0.8,9.2,3,11.9,3.8c3.3,1,9.8,2.8,13,3.7c3.2,0.9,9.5,2.5,12.6,3.3c3.1,0.7,9.3,2.2,12.5,2.9c3.2,0.6,9.5,1.9,12.8,2.4
		c3.1,0.5,8.2,1.2,13.1,1.6c2.6,0.2,11,0.4,12.5,0.3c1.7-0.1,5.1-0.4,6.4-0.6c1.4-0.2,4.5-0.9,5.7-1.3c2.7-0.9,8.5-3.4,11.6-4.8
		c5.5-2.6,17-8,23-10.9c3-1.5,8.9-4.5,11.8-6c2.8-1.5,8.6-4.7,11.5-6.4c2.7-1.6,8.8-5.5,10.3-6.6c1.4-1,4-3,5.2-4
		c1.2-1,3.6-3.1,4.7-4.2c1.6-1.6,2.9-2.9,4.4-4.7c1.7-2,6.1-7.8,7.7-10.1c0.5-0.8,2.6-4.1,3.4-5.6c1.6-3.1,3.9-8.1,5.3-11.1
		c1-2.3,3.5-9,4.6-12.2c0.7-2.2,2.8-9.1,3.6-12.3c0.8-3.1,2.1-9.1,2.7-12.2c0.6-3.1,1.6-9.5,2.1-12.6c0.5-3.3,1.3-9.8,1.7-13
		c0.3-3.2,1-9.8,1.3-13.1c0.2-3.2,0.6-9.6,0.8-12.9c0.3-6.5,0.7-19.4,0.9-25.8c0.1-6.5,0.1-19.4,0-26c-0.1-3.2-0.3-9.7-0.5-13
		c-0.2-3.2-0.6-9.6-0.8-12.9c-0.3-3.3-0.9-9.8-1.3-13c-0.4-3.1-1.4-9.7-1.9-13c-0.6-3.2-1.8-9.2-2.6-12.6c-0.9-3.2-3-10.2-3.8-12.2
		c-0.6-1.5-2-4.5-2.7-5.9c-0.7-1.3-2.5-4.4-3-5.2c-1.1-1.6-3-4-4.1-5.1c-1.3-1.4-3.3-3.1-4.8-4.2c-1.1-0.8-4.1-2.7-5.6-3.5
		c-0.8-0.5-4.2-2-5.7-2.6c-3-1.2-7.7-2.7-12-3.9c-3.1-0.8-9.6-2.3-12.5-2.8c-3.2-0.5-9.7-1.6-13.1-2.1c-3.1-0.4-9.4-1.1-12.6-1.4
		c-3.3-0.3-9.9-0.9-13.2-1.2c-6.4-0.4-19.5-1.2-26.1-1.5c-6.5-0.2-19.5-0.5-26-0.5c-6.7,0.1-20,0.3-26.4,0.5
		c-3.2,0.1-9.4,0.5-12.3,0.7c-3.6,0.3-10.1,1.2-13,1.7c-1.4,0.3-4.8,1.3-6.2,1.8c-1.5,0.5-4.1,1.8-5.3,2.6c-1.2,0.8-3.5,2.8-4.7,3.9
		c-1,1-3,3.5-4,4.8c-1.9,2.7-4.8,7.2-5.9,9.1c-3.1,6-9.5,18.2-12.8,24.5c-3.5,6.8-10.7,20.5-10.7,20.5c-0.3,0.6-1.2,1.7-1.9,2.3
		c-0.5,0.4-1.4,0.3-1.7,0.2"/>
        <path class="st0" d="M266.6,252.8c-0.1-0.3-0.4-0.6-0.6-0.8c-0.4-0.2-2,0-2.7,0.3c-1.4,0.6-3.8,2-5,3.1c-0.6,0.5-1.7,1.7-2.2,2.2
		c-0.9,1.1-2.4,4.2-2.9,5.6c-0.5,1.4-1.3,4.6-1.6,6.1c-0.2,1.3-0.7,5.5-0.7,6.5c-0.1,2.1-0.1,4.7,0.1,6c0.1,1.5,0.7,4.5,1.2,5.8
		c0.3,0.7,1,2.1,1.4,2.7c0.5,0.6,1.6,1.4,2.3,1.6c0.7,0.1,2.1-0.1,2.7-0.4c0.6-0.3,1.9-1.2,2.4-1.8c0.9-0.9,2.9-3.5,3.7-5
		c0.6-1.1,2-3.9,2.7-5.7c0.7-1.9,1.5-4.5,1.9-6.2c0.4-1.7,0.9-4.7,1-6.2c0.1-1.7,0-4.9-0.2-5.9c-0.2-0.9-1-2.4-1.4-2.8
		c-0.3-0.3-1-0.6-1.4-0.6c-0.4,0-1.1,0-1.5,0.2c-0.8,0.3-2.1,1.1-2.7,1.6c-0.6,0.6-1.8,1.9-2.2,2.5c-0.6,0.9-2.4,4.3-2.9,5.5
		c-0.6,1.5-1.3,4.1-1.7,6.1c-0.3,1.5-0.8,4.8-1.1,6.5c-0.2,1.7-0.6,4.5-0.7,6.7c-0.1,1.7-0.1,5,0,6.2c0.1,1.6,0.6,4.7,1.1,6.3
		c0.2,0.7,0.8,2.2,1,2.6c0.4,0.8,1.3,1.9,1.9,2.6c0.8,0.8,1.7,1.5,2.2,1.6c0.3,0,0.8-0.1,1-0.3c0.7-0.6,2.3-2.6,3.8-4.6
		c1-1.3,3-4,3.9-5.4c0.9-1.4,2.4-4.3,2.9-5.8c0.9-2.2,2.9-8.9,3.8-12c1.1-4.3,2.3-9.9,2.9-13.3c0.3-1.6,0.8-4.9,0.8-5.8
		c0-1-0.1-2-0.3-2.7c-0.2-0.7-0.5-1.4-1-2.3c-0.5-0.8-1.3-1.8-1.8-2.2c-0.5-0.3-2-0.7-2.9-0.8c-1.5-0.2-4.5,0-6.1,0.3
		c-1.2,0.2-4,1-5.7,1.7c-1.4,0.6-6.3,3.2-6.5,3.3c1.2-0.7,4.2-2.5,5.5-3c1-0.4,2.4-0.7,3.2-0.8c0.8,0,2.1,0.1,2.6,0.6
		c0.7,0.6,2.8,3.4,3.3,4.5c0.4,1,1.2,4.4,1.5,6c0.3,1.9,0.7,4.7,0.7,6.5c0.1,2.2-0.4,8.5-0.8,12.2c-0.2,1.6-0.9,5.3-1,6.1
		c-0.4,2-3.3,11.2-3.8,12.1c-0.6,1-2.8,3.8-3.9,5c-2.2,2.5-7.5,8.3-8.5,9.1c-0.3,0.2-0.9,0.6-1.2,0.7c-0.4,0.1-1.3,0.2-1.6,0.1
		c-0.3-0.1-0.3-0.7-0.1-1.1c0.2-0.5,1.2-1.9,1.4-2.2"/>
        <path class="st0" d="M253.7,264.2c0,0.1,0,0.2,0,0.2c0,0.1,0,0.2,0,0.2c0-0.8,0.3-1.5,0.8-2.3c0.8-1.3,5.5-8.8,7.1-11.5
		c1.7-3,5-8.7,6.4-11.3c0.9-1.7,2.6-5,3.1-5.9c0.6-1.4,1.4-3.7,1.6-5.1c0.3-1.7,0.5-3.3,0.6-5.3c0.1-2.8,0-8.8-0.2-12.3
		c-0.4-6.2-1.2-19.9-1.7-27.4c-0.5-6.4-1.7-21.3-2.4-28.1c-0.4-2.8-1.2-8.1-1.7-10.4c-0.4-1.6-1.5-5.3-2.2-6.8
		c-0.4-0.9-2-4.2-2.7-5.4c-0.9-1.6-2.5-4-3.5-5.2c-0.9-1.1-2.2-2.6-3.6-4c-2.5-2.5-6.9-6.3-9-8c-2.7-2.3-8.3-6.8-11-9
		c-2.1-1.6-8.5-6.1-11.4-8c-2.5-1.6-8-5.1-10.6-6.5c-2.5-1.3-7.5-3.6-10.9-4.9c-3.8-1.4-9.3-3.2-12.3-3.9c-3.2-0.7-10-1.8-12.7-2
		c-2.5-0.2-9.5-0.3-12.8-0.2c-2.3,0.1-9.3,0.6-12.5,0.9c-3.3,0.4-9.6,1.2-12.8,1.7c-3.2,0.5-9.7,1.6-12.9,2.2
		c-3.2,0.7-9.5,2.1-12.6,2.9c-3.1,0.8-9.3,2.5-12.4,3.5c-3.1,1-9.1,3.2-12.1,4.3c-2.8,1.1-8.8,3.7-11.7,5c-2.8,1.3-7.6,3.8-11.1,5.8
		c-2.8,1.7-8.8,5.5-10.7,6.9c-2.8,2-8.6,6.6-10.3,8.1c-1.9,1.7-6.6,6.3-8.7,8.6c-2,2.3-5,5.9-7.8,9.6c-2.4,3.3-5.2,7.9-6.8,10.6
		c-1.8,3.3-3.8,7.9-5.2,11.4c-1.1,3.1-3.1,9.2-4,12.2c-0.9,3.2-2.9,10.6-3.3,12.7c-0.7,3.2-2,9.6-2.6,12.7
		c-0.7,3.7-1.4,8.9-1.8,11.9c-0.3,3.1-0.9,9.6-1.1,12.6c-0.2,2.5-0.5,7.9-0.6,10.8c-0.1,3.2-0.2,10.5-0.1,14.6
		c0.3,7.8,1.2,20.7,1.6,27.5c0.7,7.5,1.9,21.5,2.4,27.9c0.6,6.5,1.7,18.7,2.2,24.5c0.7,6,2.5,19,3.5,26.2c0.5,3.1,1.8,10.9,2.4,13.5
		c0.4,1.7,1.3,4.1,1.7,5.1c0.6,1.4,1.8,4.1,2.1,4.8c0.7,1.4,2.7,4,3.5,4.9c1.1,1.2,3,2.7,5,4c0.8,0.5,4.2,2.4,5.6,3.2
		c0.7,0.4,3.8,1.8,5.1,2.3c1.8,0.6,10.1,2.7,12.5,3.3c4.9,1,10.1,1.8,13.3,2.1c3.3,0.3,9.8,0.8,13,1.1c2.7,0.2,8.1,0.4,10.7,0.5
		c4.6,0.1,21.1-0.1,27.2-0.2c7.5-0.2,21.6-0.6,28.2-0.8c2.6-0.1,10-0.5,14.6-0.7c2.1-0.2,8.5-0.9,9.9-1.1c3.3-0.5,10.9-2,12.5-2.5
		c1.7-0.6,4.2-1.7,5.5-2.7c0.9-0.7,2.9-2.6,4.4-4.2c3.6-4,6.2-7,7.9-9c2-2.4,6.3-7.9,8.2-10.3c4.1-5.5,11.8-15.8,16.4-22.2
		c1.7-2.4,4.8-7.1,6.6-9.8c2.2-3.6,4.4-7.9,5.8-10.8c1.5-3,3.8-8.1,4.8-10.5c1.3-3.6,2.9-8.5,3.7-11.2c1-3.1,2.9-10,3.9-13.8
		c0.8-3.5,2.5-10.6,3.2-14.1c1.5-7.2,3.6-18,4.3-21.5c0.1-0.3,0.2-0.8,0.2-0.9c0,0,0,0,0,0"/>
        <path class="st1" d="M157.3,415.9v0.7c0.9-0.2,1.9-0.4,2.6-0.9c0.1-0.1,0.3-0.2,0.5-0.4"/>
        <path class="st1" d="M161.6,408.1l-0.7,0.1c0,2.2,0.2,3.8,0.6,5.6c1.6,6.4,4.9,19.3,6.5,25.7c0.7,2.6,1.8,6.8,2.3,8.5
		c0.3,1.1,1.1,3.8,1.4,4.1c0.2,0.2,0.7,0.3,1,0.1c0.8-0.3,7.9-2.5,12.5-3.8c3.3-0.8,10.2-2.6,13.4-3.4c1.4-0.4,4.7-1.4,6.6-2.1
		c1.7-0.6,4.2-2,5.2-2.6c1.3-0.9,3.8-2.9,4.9-4c0.6-0.6,1.7-1.9,2-2.4c0.7-1.1,1.6-3.9,1.9-5.6c0.2-1.3,0.3-4.4,0.3-6
		c-0.1-1.6-0.4-4.7-0.7-6.4c-0.5-2.4-2-8.7-3.1-12.6c-0.4-1.4-1.2-4.4-1.6-5.9c-0.4-1.8-0.8-4.5-0.8-6c0-0.8,0.1-2.4,0.3-3.2
		c0.2-1.3,1.1-2.9,2.6-5.2c1.6-2.5,5.2-8.1,7.1-11.1c1.7-2.8,5-8.2,6.4-10.7c1.5-2.7,4.4-8.2,5.9-11.1c1.5-3,4.2-8.9,5.5-11.7
		c1.3-3,3.8-8.9,5-11.9c1.2-2.9,3.5-8.9,4.7-11.9c1.1-3,3.1-8.9,4.1-11.9c0.9-3,3.1-10.2,3.6-12.2c0.8-3,2.2-9.3,2.9-12.4
		c0.6-3.2,1.8-9.6,2.2-12.7c0.4-3.1,1.2-9.6,1.5-12.9c0.2-3.5,0.5-10.3,0.6-13.7c0-3.6,0-10.5,0-13.8c-0.1-2.8-0.4-10.7-0.6-13.1
		c-0.3-2.8-0.8-6.7-1.6-11.6c-0.5-3.2-1.5-9-2.4-12.8c-0.7-3.1-2.3-9.4-3.2-12.4c-1-3.1-3.5-10.4-4.2-12.1
		c-1.2-2.9-3.8-8.8-5.1-11.6c-0.8-1.7-4.5-8.3-6.2-11c-1.3-2.1-5.3-7.8-7.3-10.3c-2.4-3-6.6-7.6-8.4-9.3c-2.9-2.8-7-6.3-9.6-8.2
		c-2.6-1.9-7.2-4.9-10.8-7c-2.9-1.6-8.2-4.1-11.8-5.6c-1.5-0.6-4.5-1.7-6.1-2.3c-3.9-1.3-9.2-2.7-12.3-3.4c-3.1-0.7-8.7-1.5-12.8-2
		c-3.3-0.3-11.1-0.7-12.7-0.7c-4,0-10.1,0.3-12.7,0.6c-3,0.4-9.3,1.3-12.7,1.8c-4,0.8-9.7,2.2-12.8,3c-3.1,1-8.7,2.8-12.2,4.2
		c-2.9,1.2-8.8,3.9-11.7,5.4c-2,1-8.4,4.8-11.2,6.6c-2.7,1.8-6.9,4.7-10.4,7.5c-2.4,2-7.2,6.3-9.5,8.5c-1.2,1.2-6.6,7.1-8.7,9.6
		c-2.1,2.6-5.1,6.7-7.7,10.5c-1.8,2.8-5.2,8.4-6.8,11.3c-1.1,2-4.3,8.6-5.6,11.5c-1.3,3-4,9.7-4.8,12c-1,3-3,9.1-3.9,12.2
		c-0.9,3.1-2.3,8.4-3.2,12.5c-0.7,3.2-1.9,9.6-2.5,12.9c-0.5,3.2-1.4,9.7-1.7,12.8c-0.3,3.2-0.9,9.7-1.1,12.9
		c-0.2,3.2-0.4,9.8-0.5,13.1c0,6.6,0,19.1,0.1,25c0.1,2.7,0.4,9.7,0.6,13.6c0.5,6.1,1.6,19.3,2.2,26.4c0.3,3.4,1,9.8,1.3,12.8
		c0.4,3.7,1.4,10.8,1.8,14.3c0.5,3,1.5,8.7,2,11.5c0.6,3,2.2,10.1,3.1,13.5c0.4,1.6,1.3,4.5,1.7,5.8c0.6,1.9,1.9,5.2,2.7,6.6
		c0.6,1,1.4,2.4,1.9,3.1"/>
        <path class="st2" d="M124.4,256.7c0-0.4,0-0.9,0-1.2c0-0.8-0.4-1.9-0.8-2.4c-0.4-0.5-1.4-1-2.1-1.2c-0.7-0.2-2-0.4-2.7-0.5
		c-1.5-0.1-4.6,0.4-6,0.8c-0.7,0.2-2.2,0.9-2.9,1.2c-0.7,0.4-1.9,1.3-2.5,1.8c-0.7,0.6-1.5,1.6-2.1,2.3c-0.5,0.6-1.3,2-1.6,2.7
		c-0.7,1.5-1.3,4.3-1.4,5.9c-0.1,1.4,0.1,4.4,0.3,5.8c0.3,1.3,1.2,4.3,1.9,5.7c0.4,0.7,1.2,2.1,1.7,2.7c0.5,0.6,1.6,1.8,2.1,2.2
		c0.5,0.4,1.8,1.1,2.5,1.4c0.7,0.3,2.1,0.6,2.7,0.7c0.8,0.1,2,0.1,2.8,0c0.7-0.1,2.1-0.4,2.8-0.7c0.7-0.3,2.1-1,2.6-1.4
		c1.2-0.8,3.4-3,4.4-4.4c0.9-1.3,2.4-3.8,2.9-5.1c0.5-1.2,1.4-4.3,1.6-5.6c0.2-1.4,0.2-4.3-0.1-5.9c-0.2-0.9-0.6-2.1-1-2.9
		c-0.3-0.7-1.1-2-1.5-2.5c-0.5-0.6-1.6-1.7-2-2.1c-0.5-0.4-1.8-1.2-2.5-1.4c-0.6-0.3-2-0.6-2.8-0.7c-0.8-0.1-2.1-0.1-3,0.1
		c-1.6,0.2-4.3,1.2-5.6,1.9c-1.2,0.6-3.8,2.5-4.7,3.4c-1.1,1.1-2.9,3.2-3.6,4.6c-0.3,0.6-1,1.9-1.2,2.7c-0.3,0.8-0.7,2.5-0.7,3.2
		c-0.1,0.7-0.1,2.3,0,3.1c0.1,0.8,0.4,2.3,0.7,2.9c0.3,0.8,0.8,2,1.3,2.7c0.4,0.6,1.3,1.8,1.9,2.3c0.6,0.5,1.8,1.4,2.4,1.7
		c0.6,0.3,2,0.9,2.8,1.1c0.7,0.2,2.3,0.4,3.1,0.4c1.5,0,4.4-0.5,5.7-1c1.2-0.5,3.9-2,5.1-3c1.3-1.1,3.1-3.1,4-4.5
		c0.8-1.2,2-4,2.2-5.2c0.2-0.7,0.3-2.4,0.3-3.2c0-0.8-0.2-2.4-0.4-3.1c-0.2-0.9-0.7-2.1-1.2-2.8c-0.2-0.4-1.2-1.9-1.6-2.4
		c-0.6-0.7-1.4-1.4-2.3-1.9c-1-0.5-4.7-1.8-6.2-1.9c-0.7-0.1-2.3,0-3.1,0.1c-1.6,0.3-4.5,1.3-6,2.2c-0.7,0.4-2,1.3-2.6,1.9
		c-0.6,0.6-1.4,1.7-1.8,2.4c-0.4,0.6-0.6,1.7-0.6,2.6c0,0.2,0,0.4,0.1,0.4c0.1,0.1,0.2,0.2,0.5,0.5"/>
        <path class="st3" d="M122.7,260.1c-0.1-0.3-0.1-0.9,0-1.4c0.1-0.4,0.8-2,1.3-3c0.3-0.6,0.4-1.6,0.3-2c-0.1-0.3-0.4-0.8-0.7-1
		c-0.6-0.5-1.8-1.1-2.6-1.3c-0.5-0.1-2.1-0.3-2.8-0.3c-0.8,0-2.3,0.2-3,0.4c-1.3,0.4-4.1,1.9-5.3,2.8c-1,0.8-3.3,3.1-4.2,4.3
		c-0.9,1.3-2.2,4.1-2.8,6c-0.3,1-0.7,2.5-0.8,2.7c-0.2,1.1-0.3,2.3-0.2,3.2c0.1,0.6,0.4,2.5,0.5,2.8c0.2,0.8,0.7,2,1.1,2.7
		c0.3,0.6,1.2,1.8,1.7,2.3c0.5,0.5,1.7,1.5,2.3,1.9c0.5,0.3,1.9,1,2.7,1.3c1.3,0.5,4.6,1.1,6.2,1.1c1.7,0,4.5-0.5,5.9-1
		c1.2-0.4,4-1.7,5-2.4c1.2-0.8,3.3-2.7,4.3-4c0.6-0.7,1.3-1.9,1.7-2.6c0.3-0.7,0.9-2.1,1.1-2.8c0.2-0.7,0.4-2.3,0.4-2.9
		c0-0.6-0.1-2.2-0.2-2.9c-0.1-0.7-0.6-2.1-0.9-2.8c-0.3-0.8-1-1.8-1.6-2.5c-0.5-0.6-1.6-1.6-2.2-2.1c-0.7-0.5-2.2-1.3-2.9-1.5
		c-1.2-0.5-4.2-1-5.8-1.1c-1.7,0-4.6,0.3-6.3,0.8c-1.5,0.4-4.3,1.5-5.5,2.1c-1.2,0.6-3.8,2.3-4.8,3.1c-1,0.8-3.2,3.1-4,4.2
		c-1,1.3-2.5,4-3.1,5.5c-0.6,1.6-1,4.4-1,5.8c0,0.7,0.3,2.3,0.6,3c0.3,0.8,0.9,2,1.4,2.7c0.5,0.6,1.6,1.6,2.2,2.1
		c0.6,0.4,2.2,1.2,2.8,1.4c0.6,0.2,2.4,0.7,3.1,0.8c1.3,0.2,4.5,0.1,5.8-0.2c1.5-0.3,4.2-1.3,5.7-2.1c1.5-0.8,3.8-2.7,4.9-3.8
		c1-1,2.9-3.6,3.5-4.8c0.6-1.2,1.6-4.1,1.9-5.8c0.1-0.9,0.2-2.2,0.1-3.1c-0.1-0.7-0.3-2.2-0.5-2.8c-0.4-1.4-1.6-3.6-2.5-4.7
		c-0.4-0.5-1.6-1.6-2.3-2c-0.7-0.4-2.2-1-2.9-1.2c-0.8-0.2-2.4-0.1-3.2,0c-0.7,0.1-2,0.7-2.6,1.1c-0.7,0.4-1.6,1.2-2.1,1.8
		c-0.4,0.4-1.3,1.6-1.6,2.2c-0.4,0.7-0.8,1.6-0.9,2.5c-0.2,0.9-0.2,4.5-0.1,5.9c0.2,1.4,0.9,4.5,1.5,5.7c0.3,0.7,1.1,2.2,1.6,2.9
		c0.4,0.6,1.5,1.8,2.1,2.4c0.6,0.5,1.9,1.3,2.6,1.6c0.4,0.1,1.1,0.3,1.5,0.3c0.4,0,1.6-0.4,1.9-0.4"/>
        <path class="st3" d="M19.7,258.4c0-0.6,0-0.9,0.3-1.3c0.3-0.5,0.5-1.1,0.5-1.4c0-0.3-0.3-0.8-0.6-1c-0.6-0.4-2.1-0.7-2.6-0.7
		c-0.7,0-2,0.4-2.7,0.8c-0.6,0.4-1.8,1.4-2.4,2c-0.9,1-2.6,3.9-3.2,5.2c-0.6,1.5-1.1,4.3-1.3,6.4c0,0.5-0.1,2.2,0,2.9
		c0.1,1,1.2,3.7,1.9,4.8c0.4,0.6,1.4,1.7,2,2.1c0.6,0.4,1.9,0.9,2.7,1c0.7,0.1,2.2-0.1,2.9-0.3c0.7-0.2,2.1-1,2.8-1.4
		c1.1-0.8,3.1-3.2,4-4.5c0.9-1.4,2.2-4.3,2.7-5.7c0.4-1.4,1-4.5,1-6.1c0-0.9-0.1-2.2-0.3-3.1c-0.2-0.9-0.8-2-1.2-2.6
		c-0.5-0.6-1.5-1.4-2.3-1.7c-0.7-0.3-2.4-0.4-3.1-0.2c-0.5,0.1-1.8,0.8-2.3,1.2c-1.1,0.8-2.8,3.1-3.6,4.4c-0.6,1.1-1.7,3.9-2,5.4
		c-0.2,0.9-0.3,2.3-0.3,3.1c0,0.8,0.2,2.1,0.5,2.8c0.3,0.6,0.9,1.4,1.4,1.8c0.3,0.3,0.9,0.4,1.4,0.4c0.2,0,1.9-0.6,2.4-0.9
		c0.6-0.4,1.5-1.5,2-2.2c0.4-0.7,1.1-2.1,1.3-2.9c0.2-0.8,0.5-2.4,0.6-3.2c0-0.8-0.3-2.4-0.7-3.1c-0.2-0.3-0.7-0.7-1-0.8
		c-0.2-0.1-1,0.1-1.2,0.2c-0.3,0.1-0.9,0.6-1.1,0.9c-0.5,0.5-1,2-1,2.7c0,0.3,0,0.6,0.1,1.2c0,0.3,0.2,0.5,0.6,0.9l0.5-1.6
		c-0.3,0.3-0.5,0.5-0.5,0.6c-0.1,0.2,0.3,0.6,0.5,0.7"/>
        <path class="st3" d="M12.4,134.2l0.4-0.4l0,0c-0.5,5.4-1.7,18.5-2.1,25.7c-0.3,6.3-0.8,19.2-1,25.8c-0.3,6.5-0.8,19.4-1.1,25.9
		c-0.4,6.6-1.3,19.5-1.8,25.8c-0.6,6.5-1.8,19.5-2.4,26.1c-0.6,7-1.6,20.5-2.1,26.9c-0.2,2.8-0.6,9.4-0.8,13.2
		c-0.1,2.6-0.2,8.2-0.2,11.3c0,3.3,0.1,8.3,0.4,12.7c0.4,4.2,1,9.1,1.6,12.1c0.4,2,1,4.4,1.4,5.8c0.4,1.4,1.4,4.2,2,5.6
		c0.6,1.4,1.9,4.1,2.5,5.5c0.4,0.8,2.3,4.1,3.1,5.4c1.3,1.9,2.2,3.4,3.6,5.2c2,2.6,5.2,6.3,8.3,9.5c3,2.9,7.6,7.1,9.4,8.6
		c1.3,1,3.4,2.6,5.1,3.8c2.6,1.7,8.2,5,10.8,6.3c2.2,1.1,8.7,3.8,11.7,4.9c3.1,1,9.4,2.9,12.5,3.7c2.1,0.5,9.4,2,12.5,2.5
		c2.9,0.5,9.3,1.3,11.5,1.5c3.9,0.2,10.1,0.3,13.2,0.4c3.6,0,10.6-0.1,13.9-0.2c3.3-0.2,10.2-0.7,13.3-1.1c3-0.4,8.9-1.3,12.1-1.9
		c3.1-0.6,9.3-2.1,12.4-2.9c2.4-0.7,9.2-3,12.3-4.1c2.9-1.1,7.9-3.1,12.2-5c3.1-1.4,9.3-4.4,11.3-5.7c1.3-0.8,3.5-2.6,4.4-3.6
		c1-1.1,3.3-3.9,3.8-4.6c1.6-1.8,5.8-6,9-9c3.1-2.9,6.7-6.9,8.8-9.2c2.1-2.5,5.8-7.2,8.2-10.4c1.9-2.7,5.7-8.3,7.4-11.1
		c1.3-2.2,4.5-8.2,6.3-11.8c1.3-2.8,3.6-8.2,4.7-11.6c0.9-2.8,2.4-8.4,3-11.4c0.6-3.5,2.5-16.9,3-20.7c0.2-1.5,0.7-5.3,0.7-5.4"/>
        <path class="st3" d="M11.9,164.1c0,0,0.2-1.1,0.4-1.7c1.1-4.7,2.8-10.4,3.6-12.8c1-2.6,3.6-8.8,5-11.8c1.4-3,4.5-8.7,6.1-11.6
		c2.4-4,5.2-8.2,7.1-10.8c1.9-2.6,5.4-6.8,8.1-9.7c2.7-2.8,7.2-7,9.3-8.7c2-1.6,7.7-5.7,10.5-7.5c2.1-1.4,8.3-4.8,11.2-6.3
		c2.9-1.4,7.4-3.6,11.6-5.4c3-1.2,10.3-4,12.1-4.5c3.1-1,9.3-2.7,12.5-3.6c2.8-0.7,8.3-2,10.9-2.7c4.1-0.9,20-3.7,26.3-4.7
		c7.2-1.2,21.1-3.6,27.7-4.8c4.5-0.9,9.2-2.1,11.7-2.8c2.7-0.8,8.7-2.6,11.8-3.6c3-1,8.1-2.9,12-4.7c1.5-0.7,4.4-2.2,5.7-2.9
		c2-1.1,3.5-2.1,5.5-3.4c1.4-1,4-3,5.2-4c1.7-1.5,3.2-2.9,4.6-4.3c0.9-0.9,3-3.5,3.9-4.7c0.9-1.2,2.6-3.8,3.6-5.5
		c0.8-1.4,1.9-3.5,2.8-5.5c0.7-1.6,1.6-4,2.1-5.8c0.4-1.6,1.4-5.7,1.4-6c0.1-0.8,0.1-1.8,0-2.1c-0.1,1.3-2,10.6-2.5,12.3
		c-0.6,2.1-3.8,9.1-4.7,10.6c-0.8,1.4-2.4,3.9-3.3,5.1c-1.1,1.5-3.4,4.3-4.1,5c-0.6,0.6-3.3,3.3-4.5,4.4c-1.2,1.1-4.5,3.8-5.2,4.3
		c-1.8,1.3-8.1,5.2-10.9,6.8c-1.9,1.1-7.6,4.1-9.1,4.9c-4.3,1.9-18.3,7.4-24.1,9.7c-6.8,2.5-20.2,7.4-26.9,9.8
		c-6.5,2.2-19.3,6.4-25.6,8.5c-5.8,1.9-18.9,6.3-26.1,8.7c-2.9,1-8,2.7-10.2,3.5c-1.3,0.5-5.2,1.5-5.4,1.5"/>
        <path class="st3" d="M5,186.6c0.4-1.5,1-3.3,1.4-4.3c2.5-6.8,7.4-20,9.8-26.3c1.3-3.4,3.6-9.5,4.7-12.3c1.4-3.4,4-9.9,4.9-11.7
		c1.2-2.5,4.8-8.5,6.2-10.7c1-1.4,3.4-4.8,4-5.5c1.9-2.3,6.2-7,8.5-9.2c2.5-2.3,7.2-6.2,9.8-8.1c2.6-1.9,9-6.2,10.8-7.4
		c2.8-1.7,8.5-5,11.4-6.6c2.7-1.5,8-4.2,10.4-5.5c2.3-1.1,6.7-3.2,10.9-4.9c7.1-2.8,19.4-7.4,26.1-9.8c6.6-2.4,19.7-7.1,26.2-9.5
		c2.8-1,7.9-2.9,10.3-3.8c2.8-1.1,8.7-3.5,11.9-4.8c3-1.3,9.1-3.9,12.2-5.3c2.9-1.4,8.5-4.1,11.5-5.8c2.9-1.7,9-5.4,11.1-6.8
		c2.7-1.9,7.4-5.3,9.5-6.9c1.2-1,2.6-2.3,4.9-4.5c4.7-5.1,11.3-12.3,13.2-14.4c0.5-0.5,1.2-1.1,1.7-1.3c0.1-0.1,0.9-0.4,1.2-0.5"/>
        <path class="st3" d="M237.8,4.9V4l0,0c0,0-0.7,0.7-7.7,9.8c-1.8,2.2-5.7,6.9-8.3,9.8c-2.1,2.2-7,6.9-9.6,9.4
		c-2.3,2.1-7.3,6.5-9.8,8.5c-2.3,1.6-6.4,4.5-9.8,6.7c-2.8,1.8-9.3,5.8-11,6.8c-2.4,1.4-7.6,4.3-10.4,5.8c-5.7,3-17.7,9-23.9,12.2
		c-3,1.4-9,4.4-12.1,5.9c-6.2,2.8-17.3,7.7-23.3,10.2c-3.1,1.2-9,3.4-11.7,4.4c-2.9,1-9.4,3.1-12.2,4c-0.1,0-0.3,0.1-0.4,0.1"/>
        <path class="st3" d="M217.9,365.2v-0.4c-1.1,1.2-2.3,3-3.2,4.5c-0.7,1.2-2,4.2-2.6,5.7c-0.7,1.9-1.5,4.4-2,6
		c-0.4,1.6-1.1,4.1-1.5,6.2c-0.3,1.5-0.8,4.5-1.1,6c-0.2,1.4-0.6,4.4-0.6,5.9c-0.1,2.1,0.1,10.1,0.3,13.4c0.1,1.5,0.5,5.4,0.6,6.2
		c0.2,1.3,0.8,4,1.4,6c0.5,1.6,1.6,5,2.2,6.7c0.8,2.2,1.8,4.6,1.9,4.8c0.1,0.3,0.2,1,0.2,1.2c0,0.3-0.3,0.7-0.6,1
		c-0.6,0.4-2,1-2.6,1.2c-2.2,0.6-9.1,1.3-12,1.6c-3.4,0.3-9,0.8-13.7,1c-1.9,0.1-4.6,0-5.7-0.1c-0.9-0.1-2.5-0.5-3.1-0.8
		c-0.6-0.3-1.9-1.1-2.5-1.7c-1-0.9-3.1-3.8-4.1-5.5c-0.4-0.7-1.3-2.4-1.3-2.5c-0.3-0.7-0.4-1.6-0.4-2.1c0.1-0.5,0.2-1.2,0.2-1.3"/>
        <path class="st3" d="M213.5,98.3c1.6,1.5,2.8,2.8,4,4.2c2.6,3.1,6,7.4,8.3,10.6c1.7,2.5,5.2,7.9,7,10.6c1.7,2.8,5.1,8.3,6.7,11.1
		c1.6,2.8,4.7,8.4,6.2,11.2c1.5,3,4.2,8.8,5.5,11.7c1.2,2.9,3.7,8.9,4.9,12c1.1,3.1,3.2,9.1,4.2,12.2c0.9,3.2,2.6,9.4,3.3,12.4
		c0.7,3.3,1.7,9.7,2.1,12.7c0.4,3,1,8.2,1.4,12.9c0.3,6.4,0.8,19.6,1,26.4c0,1.6,0,4.6,0,6c-0.1,1.9-0.4,5-0.8,6.7
		c-0.2,0.7-0.6,2.5-0.6,2.5c-0.1,0.3-0.2,0.5-0.6,0.7l-0.6-0.5"/>
        <path class="st3" d="M255.9,296.5l0.7,0.2c-0.3,2.7-0.5,4.5-0.8,5.8c-0.6,2.4-3.2,8.1-4.4,10.5c-1.5,3.1-4.6,9.4-6.2,12.5
		c-1.5,2.9-4.6,8.6-6.1,11.4c-1.6,2.7-4.7,8.1-6.5,11c-1.8,2.8-5.4,8-7.2,10.5c-2.2,3-6,7.5-8.2,9.9c-1.1,1.2-3.4,3.5-4.5,4.6
		c-2.2,2-7.2,6.1-9.8,8c-2.6,1.8-6.6,4.4-10.7,6.8c-2.9,1.5-9.7,4.8-11.6,5.6c-3,1.2-9.1,3.4-12.2,4.4c-2.4,0.7-9.1,2.5-12.2,3.3
		c-3.1,0.7-8.4,1.5-12.7,2c-3.2,0.3-9.6,0.7-12.8,0.9c-3.4,0.1-10,0.3-13.2,0.3c-3.2,0-9.5-0.1-12.7-0.2c-2.9-0.1-9.8-0.6-12-0.9
		c-1.2-0.1-4.8-0.8-6.2-1c-0.1,0-0.3-0.1-0.4-0.1"/>
</g>
</svg>
