<?xml version="1.0" encoding="utf-8"?>
<!-- Generator: Adobe Illustrator 25.4.1, SVG Export Plug-In . SVG Version: 6.00 Build 0)  -->
<svg version="1.1" id="Layer_1" xmlns="http://www.w3.org/2000/svg" xmlns:xlink="http://www.w3.org/1999/xlink" x="0px" y="0px"
	 viewBox="0 0 155 369" style="enable-background:new 0 0 155 369;" xml:space="preserve">
<style type="text/css">
	.st0{fill:none;stroke:#0B0B0B;stroke-width:3.4021;stroke-linecap:round;stroke-linejoin:round;stroke-miterlimit:10;}
	.st1{fill:none;stroke:#0B0B0B;stroke-width:4.2516;stroke-linecap:round;stroke-linejoin:round;stroke-miterlimit:10;}
</style>
<g id="Layer_3">
	<path class="st0" d="M19,18.9c0-0.5,0.4-1.8,0.9-2.6c0.5-0.9,2.5-3.3,3.7-4.5c1.2-1.1,3.5-2.9,4.8-3.7c1.2-0.7,4-2.2,5.3-2.7
		c1.6-0.6,4.4-1.6,5.7-2c1.3-0.3,4.4-0.9,5.8-1.1c0.9-0.1,4.7-0.5,6.3-0.6c1,0,4.5,0.1,6,0.2C58.7,2,62,2.6,63.3,3
		c1.2,0.4,4.2,1.7,5.3,2.4c1.5,0.9,3.7,2.7,4.7,3.9c1,1.2,2.5,3.4,3.2,4.8c0.7,1.4,1.6,3.9,2.1,5.5c0.4,1.4,0.9,4.1,1.1,5.9
		c0.1,1.5,0.3,5.3,0.3,6.2c0,1.6-0.3,4.9-0.4,6.5c-0.1,1-0.7,4.6-1,6.1c-0.5,2.1-1,3.9-1.7,6.1c-0.5,1.5-1.7,4.5-2.3,6
		c-0.7,1.4-2.5,4.9-2.7,5.5c-0.7,1.3-2.2,3.7-3.2,5.3c-2.2,2.9-12.2,15.3-16.4,20.2c-1.9,2.5-5.7,7.7-7.4,10.3
		c-1.6,2.5-4.6,8-5.9,10.8c-1.2,2.7-3.7,9.6-4.5,12.1c-0.8,2.7-2.4,9.5-3,12.7c-0.6,3.3-1.5,9.8-1.9,13.1c-0.3,3.3-0.9,9.6-1.2,12.5
		c-0.2,2.8-0.5,9.3-0.7,12.9c-0.2,6-0.4,19-0.5,25.9c0,7.1,0.2,21.1,0.3,28c0,2.7,0.1,8.6,0.1,11.9c0,1.9-0.9,18-1.3,24.8
		c-0.1,3.4-0.4,10.4-0.4,14c0,4.5,0.7,15.7,0.9,19.2c0.3,4.2,0.3,4.8,0.4,5.2"/>
	<path class="st0" d="M31.9,306.4c0.9-0.1,1.7-0.3,2.4-0.7c1-0.5,4.8-2.8,5.7-3.4c1.8-1.3,3.4-3,3.5-3.3c0.2-0.5,0.2-1.1-0.1-1.5
		c-0.4-0.7-3.3-4.1-3.8-4.9c-0.4-0.6-0.7-1.9-0.7-2.7c0-0.8,0.5-2.3,0.8-3c0.4-0.9,2.3-4,3.2-5.3c1.2-1.9,2.2-3.8,2.5-4.8
		c0.2-0.8,0.8-4.8,1-6.6c0.2-1.6,0.6-6,0.7-6.3c0.2-1.3,1-3.9,1.7-6c0.7-1.8,1.7-3.9,2.8-5.3c0.7-1,2.8-3.3,4-4.5
		c1.5-1.4,3-2.8,4.6-4c1.2-0.9,3.3-2.4,5-3.4c1.6-1,3.7-2.1,5.3-2.9c1.4-0.6,4-1.7,5.6-2.1c1.6-0.5,4.5-1,6.1-1.1c0.9,0,2.2,0,3,0.1
		c1.6,0.3,3.4,1,3.9,1.4c0.3,0.2,0.6,0.7,0.8,1c0.3,0.7,0.3,2.1,0.1,2.8c-0.2,0.7-1,1.7-1.3,2c-0.5,0.6-1.8,1.3-2.9,1.8
		c-0.6,0.2-4.1,1.1-5.9,1.4c-1.9,0.3-5.4,0.9-7.1,1.2c-1.5,0.2-5.8,0.7-7.2,0.7c-1.3,0-4.7,0.2-5.4,0.1c-0.4,0-1.1-0.2-1.5-0.4
		c-0.6-0.3-0.8-0.3-1.1-0.2c-0.1,0.1-1.5,1-1.6,1.1"/>
	<path class="st0" d="M25.8,275c0.3-0.1,0.5-0.2,0.7-0.6c1.3-2.7,3.3-6.8,4.8-10.4c0.7-1.7,1.5-4.7,2.1-7.3c0.5-2.8,1.6-9.4,2.1-13
		c0.4-3.3,1.1-10.7,1.3-13.4c0.1-1.8,0.6-18.4,0.9-25.2c0.5-6.4,1.6-19.5,2.2-26.1c0.6-6.7,1.5-17,1.9-19.5c0.3-2.1,0.7-4,1.2-5.8
		c0.6-2.1,3.1-9,4.3-12c1-2.2,2.9-6.3,5.4-11.2c2.9-5.5,9-17.1,12.3-23.2c1.6-3.2,5-10,5.8-12c0.8-2,3.1-8.2,4.1-11.2
		c1-3.2,2.9-9.5,3.8-12.6c0.9-3.1,2.5-9.2,3.1-11.9c0.4-1.8,1.1-5.3,1.4-6.9c0.6-3.9,0.6-7.1,0.6-7.6"/>
	<path class="st0" d="M6.6,312.6c0-0.3,0-0.7,0-0.8c0-0.3,0.1-0.6,0.6-0.8c0.1-0.1,1.6-0.5,2.2-0.6c0.8-0.1,1.9,0,2.6,0.3
		c0.3,0.1,1,0.4,1.1,0.6c0.2,0.2,0.5,0.8,0.5,1.2c0,0.5,0.1,1.3,0.1,1.4c0.1,0.4,0.3,0.7,0.7,0.7c0.2,0,1.3,0.1,2.3,0
		c2.2-0.2,4.6-0.5,6.3-0.9c1.8-0.4,11-2.9,11.9-3.1c1.6-0.4,5.1-0.7,5.8-0.4c0.2,0.1,0.5,0.4,0.7,0.5c0,0.2-0.2,0.6-0.4,0.7
		c-0.2,0.2-3.9,1.2-5.6,1.4c-1.7,0.3-6.5,0.5-6.5,0.4c-0.1,0-0.1-0.1-0.2-0.2"/>
	<path class="st0" d="M24.5,320.9c0.2-0.2,0.8-0.6,0.9-0.8c0.2-0.2,0.3-0.7,0.3-0.7c-0.3,0.6-1.1,2.1-1.3,2.7
		c-0.1,0.4-0.1,1.2,0,1.6c0.1,0.2,0.6,1.2,0.7,1.4c0.1,0.3,0.1,1,0,1.3c-0.2,0.5-1.1,1.9-1.4,2.3c-0.5,0.6-1.6,1.7-1.6,1.7"/>
	<path class="st0" d="M1.7,343.5c1-0.8,3.4-2.8,4.9-4c1.9-1.5,4.4-3.2,5.6-3.7c1.2-0.5,3.9-1.3,5.4-1.4c0.7-0.1,2.1,0,2.9,0.1
		c0.6,0.1,2.5,0.5,3.1,0.6c0.8,0.1,2.3,0.1,3.1,0c1.6-0.1,4.4-0.9,6.2-1.7c1.6-0.7,4.1-1.4,5.7-1.5c0.7-0.1,2.4-0.1,3.1,0
		c0.8,0.1,2.2,0.6,2.9,0.9c1,0.6,9.7,6.4,11.2,7.3c2,1.1,2.2,1.2,2.6,1.4"/>
	<path class="st0" d="M15.3,346.5c2.7-0.8,8.9-2.2,12-2.8c3.4-0.6,8.7-1.7,10.6-2c-0.5-0.1-3.3,0.4-5.2,0.7
		c-1.7,0.4-5.2,1.1-6.8,1.5c-2.1,0.6-4.3,1.3-6.2,2.1c-0.8,0.4-0.9,0.4-1.2,0.8c0.1,0.3,0.3,0.5,0.7,0.6c0.8,0.3,2,0.5,2.9,0.6
		c1.5,0.1,4.8,0,6-0.2c1.4-0.1,4.3-0.7,5.7-1c1.5-0.4,4.8-1.8,5.8-2.3c0.7-0.4,1.3-1,1.5-1.4c-0.7-0.3-1.4-0.4-2.3-0.4
		c-1.5,0-4.7,0-6,0.1"/>
	<path class="st1" d="M13.6,366.9l-0.5-0.2l0.1-0.5c1,0.1,3.6-0.1,5.3-0.4c1.6-0.3,9.4-1.8,13-2.5c3.2-0.7,10.2-2.2,13.3-2.9
		c9-2.4,13-3.9,13.1-3.9c0.2-0.1,0.3-0.5,0.4-0.8"/>
	<path class="st1" d="M57.2,357.1l-0.2,0.5c0.1,0,0.9-0.6,1.3-1c1.8-1.6,6-5.7,7.8-7.6c5-5.1,14.9-15.5,19.9-20.8
		c4.7-5.3,13.3-14.8,17-19.2c2.4-2.8,6.4-7.8,7.8-9.7c0.2-0.2,1.3-3.3,1.9-4.8c0.6-1.6,1.9-5.1,2.2-6c0-0.1,0.1-0.2,0.1-0.4"/>
	<path class="st1" d="M111.8,298.7c0.2-0.5,0.7-1.6,1-2.2c1.3-2.7,4.1-8.7,5.7-12c1.8-3.9,5.6-13.9,6.5-16.1c0.5-1.3,1.4-4.6,2.1-7
		c1.4-6,4.4-19.8,5.9-26.9c0.6-2.7,1.8-8.7,2.5-12c0.6-2.9,3-17.4,3.8-22.8c1.1-7.1,3.5-22.3,4.8-30.3c1-6.6,3-19.4,3.9-25.5
		c0.6-4.2,1.3-10.9,1.4-11.4c0-0.8-0.1-2.1-0.1-2.6"/>
	<path class="st1" d="M105.2,305.9c0.2-0.6,0.3-0.8,1-1.6c1.1-1.3,3.3-3.9,4.3-5.3c1.3-1.6,2.2-3.1,3.2-4.8c1-1.9,2-3.8,2.8-5.7
		c0.6-1.4,1.7-4.4,2.3-6c0.5-1.5,1.7-5.3,2.1-6.7c0.2-0.7,0.5-1.8,0.6-2.2"/>
	<path class="st1" d="M133.6,238.4c-0.3,0.1-0.5,0.1-0.6,0.1c0,0-0.1,0.2,0,0.1c0,0,4-2.7,5.1-3.3c1.6-1,4.1-2.1,5.6-2.5
		c1.3-0.4,4.9-1.1,5.7-1.1c0.8,0.1,1.7,0.4,2.3,0.9c0.4,0.5,0.8,1,1,1.4c0.2,0.4,0.2,1.7,0.2,2.6c-0.1,1.2-1,4.9-1.5,6.2
		c-0.8,2.2-1.9,4.4-2.9,5.8c-0.9,1.2-2.5,3.1-4.1,4.8c-1.6,1.6-3.5,3.4-4.7,4.5c-1.2,1-3.9,3.2-4.9,3.9c-1.4,1-4,2.7-5,3.3
		c-0.8,0.5-2.3,1.1-3.2,1.5c-1,0.4-1.2,0.4-1.8,0.5l0.7-0.8"/>
	<path class="st1" d="M130.7,253.7c-0.3-0.1-0.5,0-0.8,0.3c0.2-0.6,0.6-1.4,1.3-2.3c1.1-1.4,3.2-3.5,4.4-4.4c1.4-1.1,7.3-5,7.4-5.3
		c0-0.1,0-0.2-0.1-0.3"/>
	<path class="st1" d="M51.8,359.5c0.1,0.3,0.2,0.4,0.2,0.5c0.1,0.1,3.1-1.7,4.6-2.7c1.2-0.8,3.6-2.4,5.3-3.8
		c2.1-1.6,7.3-6.2,9.8-8.4c2.4-2.3,7-7.1,9.3-9.6c2.1-2.4,6.2-7.1,8.5-9.9c2-2.5,5.6-7.2,7.4-9.9c0.6-0.9,1.4-2.2,1.5-2.3"/>
</g>
</svg>
