<svg width="434" height="421" viewBox="0 0 434 421" fill="none" xmlns="http://www.w3.org/2000/svg">
    <path d="M222.357 296.8C222.335 319.379 217.919 341.738 209.356 362.63C195.666 396.01 169.896 413.75 134.966 418.95C108.156 422.95 82.5157 418.29 58.6557 405.64C32.3657 391.7 15.3857 370.17 9.06569 340.79C5.89569 326.09 7.06569 311.46 10.5157 296.94C13.5313 283.872 17.8565 271.141 23.4257 258.94C24.7937 256.036 25.7528 252.957 26.2757 249.79C28.7363 233.267 35.2844 217.62 45.3257 204.27C46.9457 202.13 48.4357 199.9 49.9457 197.69C62.2357 179.74 79.3157 168.97 100.436 164.69C129.886 158.69 155.686 166.12 177.326 187.06C196.166 205.29 210.426 226.38 216.836 252.2C220.56 266.772 222.415 281.759 222.357 296.8Z" fill="#F84B3E"/>
    <path d="M197.046 0C212.046 0.06 227.046 0.0999999 242.046 2.12C253.746 3.53061 265.281 6.07935 276.486 9.73C292.976 15.36 304.396 26.08 311.096 42.15C316.506 55.15 319.546 68.68 321.846 82.43C324.692 99.3623 325.761 116.546 325.036 133.7C324.426 147.9 323.036 162.03 319.126 175.79C318.246 178.87 317.236 181.93 316.126 184.94C310.526 200.27 300.206 211.41 285.826 218.94C278.923 222.519 271.681 225.4 264.206 227.54C235.876 235.69 207.876 244.94 179.936 254.17C160.821 260.39 141.072 264.462 121.056 266.31C107.716 267.58 94.4259 269.22 80.9959 269.13C64.8159 269.03 49.8259 264.54 35.7559 256.76C27.2621 252.029 20.3483 244.903 15.8759 236.27C8.40586 222.34 4.69586 207.36 3.31586 191.73C1.80586 174.61 2.01586 157.45 1.97586 140.29C1.97586 124.75 2.45586 109.18 1.24586 93.66C0.345858 82.15 0.245858 70.66 0.0027919 59.12C-0.0592191 53.2166 0.91218 47.3476 2.87586 41.78C4.61352 36.0875 7.95316 31.0155 12.4959 27.17C20.6459 20.52 29.4359 14.93 40.2059 13.58C49.7659 12.3667 59.3392 11.2433 68.9259 10.21C83.0359 8.66 97.1459 7.13 111.276 5.74C125.406 4.35 139.566 3.28 153.686 1.83C168.116 0.38 182.576 0.17 197.046 0Z" fill="#181B5E"/>
    <path d="M273.716 246.77C273.816 231.98 273.616 221 275.266 210.08C277.536 195.14 281.456 180.78 288.996 167.55C294.99 157.002 303.867 148.382 314.586 142.7C324.366 137.39 334.976 134.78 345.756 132.58C358.376 129.977 371.389 129.933 384.026 132.45C396.576 134.91 406.166 141.38 412.556 152.61C417.497 161.529 421.016 171.165 422.986 181.17C425.454 192.687 427.231 204.341 428.306 216.07C429.516 229.66 431.176 243.21 432.516 256.79C435.636 288.33 433.296 319.34 423.066 349.52C415.74 371.892 400.952 391.069 381.176 403.84C369.311 411.843 355.231 415.911 340.926 415.47C324.076 414.95 310.516 407.99 300.706 394.06C294.926 385.83 291.246 376.66 288.566 367.06C285.388 355.438 283.081 343.595 281.666 331.63C279.666 315.97 277.376 300.35 275.866 284.63C274.546 270.81 273.136 256.92 273.716 246.77Z" fill="#5D9EDA"/>
    <path d="M380.876 229.65C382.276 224.42 381.236 220.29 379.776 216.24C376.556 207.3 365.776 201.5 356.416 203.76C346.416 206.19 337.296 210.38 330.146 218.23C325.636 223.23 320.766 227.82 315.956 232.49C312.386 235.94 310.156 236.14 305.956 233.73C302.627 231.911 300.03 228.996 298.606 225.48C296.196 219.54 293.786 213.59 291.606 207.57C288.666 199.57 285.936 191.44 283.066 183.38C282.093 180.578 280.392 178.086 278.136 176.16C275.288 173.461 270.837 173.426 267.946 176.08C265.026 178.61 262.896 181.62 262.536 185.61C262.028 190.124 260.953 194.555 259.336 198.8C257.165 205.15 253.134 210.701 247.766 214.73C240.656 220.12 233.346 224.88 224.816 227.6C216.766 230.16 208.986 229.78 201.816 224.97C198.016 222.43 196.266 218.29 195.266 214.19C193.796 208.19 192.456 202.25 189.436 196.79C187.916 194.07 188.436 191 188.556 188.1C188.797 179.699 192.539 171.781 198.876 166.26C200.146 165.15 201.526 164.37 203.256 164.97C205.256 165.69 205.936 167.36 206.136 169.37C206.546 173.77 205.046 177.89 203.726 181.88C202.116 186.72 201.276 191.71 200.076 196.62C198.656 202.41 202.496 205.73 208.466 204.35C214.966 202.85 218.986 198.35 222.466 193.09C230.226 181.33 234.746 168.22 238.146 154.69C239.826 147.97 241.756 141.25 242.686 134.41C243.876 125.71 245.686 117 244.786 108.12C244.654 106.529 244.379 104.952 243.966 103.41C242.376 97.75 240.076 95.73 234.496 95.41C229.436 95.11 224.376 95.53 219.366 93.97C217.014 93.3719 214.539 93.4621 212.236 94.23C209.143 95.1078 205.929 95.4826 202.716 95.34C191.716 95.17 180.896 96.93 170.206 99.13C162.406 100.73 154.446 101.74 146.886 104.61C143.016 106.07 139.576 107.78 136.766 110.82C134.766 112.98 132.606 115 130.526 117.09C124.766 122.89 122.946 129.86 124.526 137.76C125.736 143.76 127.176 149.71 127.386 155.88C127.624 157.459 127.957 159.022 128.386 160.56C128.757 162.121 128.909 163.727 128.836 165.33C127.576 175.15 125.666 184.77 120.376 193.41C118.146 197.06 115.686 200.55 113.376 204.13C110.306 208.91 105.846 211.65 101.376 214.48C97.4763 216.93 92.9863 216.54 88.8563 215.67C85.6863 215 83.5063 212.3 82.3363 209.08C80.9563 205.26 80.1363 201.45 81.1763 197.31C81.9663 194.15 81.4463 193.5 78.0563 193.61C73.1463 193.76 68.5463 192.21 63.8663 191.31C53.8063 189.38 46.9763 182.51 40.8663 174.9C37.4015 170.45 35.1484 165.179 34.3263 159.6C32.9393 151.815 34.9482 143.808 39.8463 137.6C46.4263 129.05 54.6263 122.16 65.4363 119.06C82.3463 114.2 94.9663 123.34 98.6663 137.85C101.806 150.16 98.4163 160.58 91.6663 170.3C89.7397 172.827 88.7089 175.923 88.7363 179.1C88.7363 187.57 89.6663 188.52 97.2763 185.54C111.056 180.12 118.416 170.54 119.366 156.08C119.536 153.41 119.176 150.69 119.436 148.08C120.326 139.34 117.306 131.63 112.886 124.51C108.581 117.643 102.279 112.256 94.8263 109.07C88.6724 106.456 82.0803 105.028 75.3963 104.86C62.6763 104.32 51.1063 107.76 39.7463 112.73C35.1163 114.73 30.2363 116.25 26.0263 119.2C25.6063 119.49 24.4263 119.1 23.8863 118.68C23.2897 118.103 23.2459 117.16 23.7863 116.53C24.0763 116.08 24.4263 115.68 24.7863 115.26C26.6389 113.002 29.0335 111.251 31.7463 110.17C39.1763 107.17 46.5263 103.87 54.1463 101.44C68.5133 96.6159 84.2177 97.7801 97.7163 104.67C105.386 108.43 111.786 113.29 116.536 120.39C118.176 122.85 119.446 122.72 121.346 120.13C123.866 116.68 126.426 113.3 129.296 110.13C135.296 103.45 142.896 99.68 151.226 97.42C160.226 94.98 169.446 93.56 178.626 91.93C184.936 90.81 191.406 91.21 197.626 89.24C200.066 88.46 202.946 89.01 205.626 89C212.336 89 219.036 89.08 225.736 89C229.739 89.028 233.725 89.5145 237.616 90.45C245.826 92.19 248.846 95.36 249.376 104.27C250.016 115.18 250.266 126.2 247.746 137.03C245.026 148.73 242.326 160.41 238.426 171.81C235.99 179.188 232.747 186.274 228.756 192.94C225.606 198.08 222.596 203.59 216.896 206.78C213.16 208.89 208.914 209.928 204.626 209.78C200.006 209.68 199.686 210.53 201.166 215.09C201.772 216.859 202.778 218.464 204.106 219.78C205.689 221.644 208.032 222.689 210.476 222.62C213.956 222.52 217.476 222.57 220.936 222.62C222.811 222.595 224.657 222.162 226.346 221.35C233.215 218.341 239.651 214.43 245.486 209.72C251.202 205.111 254.9 198.458 255.796 191.17C256.186 188.51 257.086 185.95 257.366 183.34C257.956 177.75 261.366 174.09 265.246 170.76C267.278 168.976 269.847 167.92 272.546 167.76C275.495 167.41 278.441 168.426 280.546 170.52C283.263 173.117 285.406 176.254 286.836 179.73C288.726 184.44 290.546 189.18 292.336 193.93C295.726 202.93 299.136 211.93 302.396 220.93C302.948 222.712 303.88 224.353 305.126 225.74C308.186 228.91 310.356 230.25 314.466 225.94C318.576 221.63 322.876 217.66 326.926 213.37C332.776 207.18 339.976 203.05 347.786 200.16C357.876 196.43 367.786 197.33 376.956 203.3C378.128 203.933 379.151 204.809 379.956 205.87C383.116 211.11 386.816 216.19 386.296 222.87C386.186 224.2 386.396 225.57 386.296 226.87C385.66 232.509 387.014 238.194 390.126 242.94C393.466 248.17 393.376 253.54 391.046 259.05C390.316 260.78 389.546 262.49 388.826 264.22C388.216 265.66 388.496 266.75 390.056 267.43C390.782 267.727 391.441 268.166 391.996 268.72C392.866 269.64 392.156 271.83 390.926 271.96C388.8 272.181 386.664 272.288 384.526 272.28C382.386 272.233 380.297 272.941 378.626 274.28C375.036 277.06 371.296 279.65 367.496 282.13C356.966 289.03 345.266 291.24 332.956 289.79C327.831 289.104 323.191 286.4 320.066 282.28C318.406 280.395 318.277 277.61 319.756 275.58C321.556 273.27 323.436 270.97 326.756 270.64C329.926 270.32 332.856 268.64 336.196 268.97C337.243 268.926 338.267 268.653 339.196 268.17C339.816 267.906 340.277 267.369 340.446 266.717C340.614 266.065 340.47 265.371 340.056 264.84C339.496 264.28 338.756 263.9 338.186 263.35C332.636 258 331.796 252.35 334.656 245.07C338.506 235.32 345.556 229.47 355.386 226.56C356.937 226.141 358.463 225.633 359.956 225.04C362.935 223.724 366.335 223.746 369.296 225.1C373.016 226.74 376.766 228.07 380.876 229.65ZM88.0363 166.31C90.6295 162.111 92.5779 157.547 93.8163 152.77C95.8163 145.93 93.8163 139.99 91.4963 134.21C89.5993 129.421 85.6536 125.736 80.7463 124.17C71.1863 121.02 62.7463 123.96 55.3363 129.69C51.1263 132.92 47.5363 137.01 43.9563 140.97C39.4563 145.97 38.2163 154.57 40.0363 161.24C42.7463 171.24 50.2263 177.29 57.5463 183.51C58.8663 184.64 60.9963 184.78 62.7063 185.51C67.7663 187.69 73.2563 186.66 78.4763 187.67C81.4763 188.25 82.1463 187.52 82.1763 184.39C82.1763 180.02 81.5063 179.25 77.1763 179.07C76.1073 179.005 75.0353 179.005 73.9663 179.07C64.6063 179.87 58.4463 174.54 52.8763 168.07C52.3528 167.462 52.0069 166.722 51.8763 165.93C51.1363 159.73 50.9263 153.54 55.8163 148.7C57.7771 146.893 59.9456 145.325 62.2763 144.03C67.2763 141.03 71.8063 141.43 76.3463 145.13C78.6452 147.006 80.4595 149.406 81.6363 152.13C83.5563 156.44 85.5363 160.78 88.0363 166.31ZM350.876 261.17C357.166 261.17 357.336 261.17 360.216 259.7C367.417 256.045 373.256 250.178 376.876 242.96C379.546 237.79 378.276 234.24 372.876 232.22C366.376 229.79 360.076 229.76 353.616 233.11C346.686 236.71 341.176 241.11 339.136 249.11C337.486 255.52 341.046 260.84 347.676 261.11C348.736 261.17 349.806 261.17 350.876 261.17ZM121.966 170.89C120.966 170.89 120.626 171.63 120.216 172.29C113.906 182.49 105.396 189.67 93.2963 191.96C91.9963 192.228 90.7314 192.644 89.5263 193.2C88.2091 193.631 87.2841 194.817 87.1863 196.2C87.1863 199.93 87.0463 203.68 87.2563 207.41C87.3352 209.397 88.948 210.979 90.9363 211.02C92.5128 211.263 94.1233 211.161 95.6563 210.72C98.8863 209.48 102.076 208.1 104.656 205.65C113.506 197.36 118.466 186.81 122.156 175.54C122.721 174.028 122.653 172.351 121.966 170.89ZM72.9663 174.31C74.5562 174.243 76.1398 174.07 77.7063 173.79C81.1163 172.98 82.8363 170.67 82.0163 167.32C80.6363 161.65 79.0863 155.99 75.4663 151.18C74.4729 149.572 72.7448 148.564 70.8563 148.49C69.2574 148.405 67.6552 148.405 66.0563 148.49C62.6263 148.81 57.2263 153.84 56.5463 157.22C55.3863 162.93 56.9663 167.29 61.8263 170.3C65.2163 172.41 68.6863 174.62 72.9963 174.31H72.9663ZM371.876 271.05C368.376 270.6 364.696 270.34 361.106 271.43C359.071 272.08 356.943 272.394 354.806 272.36C345.416 272.17 336.356 274.68 327.136 275.81C325.751 275.919 324.592 276.902 324.256 278.25C323.836 280.18 325.256 281.16 326.676 281.94C333.351 285.533 341.132 286.486 348.476 284.61C356.536 282.67 363.886 278.74 370.776 274.09C371.905 273.541 372.392 272.194 371.876 271.05ZM361.876 264.87C362.386 265.49 362.516 265.8 362.656 265.8C366.656 265.87 370.656 265.69 374.656 266.01C379.126 266.36 382.446 265.12 384.356 260.84C384.776 259.89 385.656 259.14 386.136 258.21C387.129 256.622 387.738 254.824 387.916 252.96C388.044 251.094 387.645 249.231 386.766 247.58C385.766 245.88 385.416 243.69 383.026 242.53C380.665 247.13 377.632 251.353 374.026 255.06C370.386 258.81 365.876 261.53 361.876 264.87Z" fill="#E6F2F5"/>
</svg>
