<svg width="500" height="500" viewBox="0 0 500 500" fill="none" xmlns="http://www.w3.org/2000/svg">
    <path d="M245.106 114.895C245.266 126.305 242.756 137.265 239.426 148.055C233.358 167.233 225.231 185.698 215.186 203.125C208.06 215.725 201.56 228.649 195.686 241.895C186.176 263.285 179.466 285.555 174.146 308.305C170.476 323.955 166.606 339.565 161.336 354.775C156.186 369.605 149.266 383.415 138.676 395.175C132.298 402.438 124.825 408.659 116.526 413.615C99.8965 423.305 81.1265 421.885 66.0965 408.035C59.2497 401.579 53.8567 393.739 50.2765 385.035C45.7865 374.625 43.0765 363.695 41.0965 352.615C38.0292 335.454 36.221 318.091 35.6865 300.666C34.9665 277.496 37.4765 254.665 41.4065 231.845C44.0224 215.705 47.8941 199.793 52.9865 184.255C59.7944 163.888 69.5479 144.627 81.9365 127.085C90.9527 114.407 100.678 102.247 111.066 90.6655C120.664 79.7946 131.601 70.1846 143.616 62.0655C145.931 60.7223 147.863 58.808 149.226 56.5055C151.456 52.3055 155.366 49.8255 159.466 47.7655C168.141 43.3643 177.94 41.6777 187.586 42.9255C194.513 43.7112 201.348 45.1612 207.996 47.2555C222.456 51.8955 232.526 61.1355 237.526 75.6355C241.856 88.3555 245.336 101.255 245.106 114.895Z" fill="#989CE4"/>
    <path d="M315.747 279.455C298.627 279.355 286.027 279.355 273.507 277.615C261.507 275.965 249.747 273.565 238.437 269.185C233.162 267.176 228.131 264.58 223.437 261.445C209.687 252.175 202.437 239.035 199.917 222.845C197.917 209.695 198.736 196.605 200.307 183.565C201.782 171.05 204.277 158.675 207.767 146.565C214.627 122.935 228.007 104.295 248.867 90.9855C269.867 77.5455 292.737 68.7355 317.087 63.6255C334.667 59.9355 352.547 58.2255 370.277 55.5155C388.007 52.8055 405.587 54.6355 423.027 57.1655C440.767 59.7355 452.717 70.0255 457.607 87.6655C458.866 91.7633 459.77 95.9622 460.307 100.215C462.395 119.952 462.669 139.839 461.127 159.625C459.847 174.855 458.277 190.025 455.817 205.115C453.637 218.445 449.757 231.175 442.707 242.835C436.027 253.835 426.887 261.455 414.267 264.915C397.485 269.528 380.458 273.201 363.267 275.915C347.558 278.46 331.659 279.644 315.747 279.455Z" fill="#FF7E79"/>
    <path d="M349.756 457.985C336.876 458.075 324.126 456.435 311.346 455.095C303.083 454.371 294.876 453.111 286.776 451.325C267.306 446.715 252.236 436.065 242.006 418.685C237.24 410.584 233.978 401.688 232.376 392.425C227.976 367.275 230.446 342.775 240.646 319.275C245.276 308.615 252.056 299.275 260.006 290.835C268.487 281.878 277.938 273.892 288.186 267.025C309.247 252.673 332.196 241.309 356.376 233.255C363.005 231.158 369.763 229.487 376.606 228.255C378.983 227.845 381.398 227.704 383.806 227.835C389.026 227.995 393.356 229.965 395.036 235.255C396.036 238.315 397.966 239.405 400.756 239.875C405.767 240.72 410.713 241.916 415.556 243.455C425.395 246.465 433.799 252.956 439.196 261.715C445.436 271.485 449.956 282.075 454.026 292.855C456.547 299.346 458.69 305.977 460.446 312.715C465.216 331.875 464.306 350.955 458.496 369.775C453.537 385.649 446.553 400.817 437.716 414.905C423.076 438.505 401.526 451.385 374.526 456.305C366.316 457.805 358.056 457.955 349.756 457.985Z" fill="#181B5E"/>
    <g filter="url(#filter0_d)">
        <path d="M373.776 116.685C363.706 116.255 353.206 118.005 342.636 119.585C333.396 120.965 324.286 122.875 315.186 124.855C307.186 126.585 300.186 130.555 293.606 135.215C290.116 137.675 288.726 141.275 288.376 145.575C287.806 152.825 290.286 159.305 292.956 165.715C295.484 171.882 297.533 178.234 299.086 184.715C300.486 190.345 296.646 196.855 291.006 198.555C288.456 199.335 285.816 199.805 283.286 200.655C281.214 201.254 279.32 202.349 277.766 203.845C276.616 205.035 275.766 206.235 276.256 208.105C277.376 212.765 278.056 217.555 279.396 222.105C281.116 227.935 280.796 233.875 280.136 239.635C279.446 245.705 274.996 249.435 269.326 251.465C267.764 251.928 266.085 251.793 264.616 251.085C261.648 249.806 259.073 247.759 257.156 245.155C255.836 243.475 254.816 241.525 253.316 240.045C251.076 237.825 249.316 234.545 245.866 234.275C241.116 233.915 236.336 233.485 231.706 235.805C223.357 240.083 215.62 245.464 208.706 251.805C196.456 262.805 186.556 275.715 177.846 289.595C173.743 296.503 168.945 302.973 163.526 308.905C162.083 310.465 160.477 311.866 158.736 313.085C154.796 315.775 150.736 314.685 148.916 310.235C147.716 307.305 146.626 304.236 146.836 300.916C147.216 294.536 145.926 288.025 148.286 281.795C147.716 273.735 150.776 265.955 150.106 257.875C149.871 256.008 149.959 254.113 150.366 252.275C152.916 243.015 151.256 233.615 151.566 224.275C151.626 222.275 150.206 221.505 148.306 222.275C147.293 222.634 146.318 223.093 145.396 223.645C140.146 227.125 134.666 226.645 129.276 224.305C121.216 220.815 114.346 215.945 110.946 207.305C108.621 201.736 109.347 195.359 112.866 190.455C117.346 183.565 125.018 179.422 133.236 179.455C135.112 179.556 136.991 179.556 138.866 179.455C148.016 178.375 153.416 183.955 157.866 190.565C161.036 195.285 159.976 200.885 159.096 206.175C158.836 207.735 158.096 209.175 158.316 210.855C158.516 212.115 159.316 212.855 160.486 212.625C170.436 210.395 179.046 205.785 185.576 197.795C189.716 192.725 189.806 186.735 187.686 181.065C184.514 172.466 179.147 164.847 172.116 158.965C168.355 155.903 164.02 153.622 159.366 152.255C148.016 148.725 136.496 147.625 124.616 149.985C118.856 151.125 113.106 152.345 107.466 153.875C100.526 155.755 93.5263 157.815 88.4663 163.605C88.1225 164.025 87.6141 164.276 87.0718 164.293C86.5295 164.31 86.0061 164.093 85.6363 163.695C85.0616 163.325 84.6748 162.725 84.5751 162.049C84.4755 161.372 84.6728 160.686 85.1163 160.165C86.5645 158.2 88.4072 156.558 90.5263 155.345C98.7163 150.625 107.626 147.965 116.716 145.625C123.216 143.955 130.046 144.755 136.436 142.625C136.954 142.467 137.503 142.433 138.036 142.525C150.706 144.295 163.576 145.335 174.256 153.685C184.936 162.035 191.996 172.755 194.896 186.085C195.152 187.13 195.152 188.221 194.896 189.265C192.576 197.095 189.336 204.265 181.846 208.745C175.416 212.605 169.156 216.745 161.686 218.335C159.758 218.695 158.356 220.374 158.346 222.335C158.206 223.935 158.236 225.555 158.206 227.155C158.307 230.366 157.97 233.575 157.206 236.695C156.466 239.195 156.726 241.995 156.606 244.695C156.346 250.555 157.236 256.465 155.246 262.235C154.666 263.925 155.036 265.955 154.986 267.825C154.896 271.565 155.376 275.355 153.756 278.925C153.552 279.426 153.457 279.965 153.476 280.505C153.476 288.812 153.476 297.122 153.476 305.435C153.436 306.547 154.165 307.54 155.236 307.835C156.299 308.223 157.491 307.917 158.236 307.065C161.626 302.955 165.166 298.945 168.236 294.615C175.236 284.815 181.736 274.705 188.806 264.985C194.496 257.155 201.806 250.725 208.996 244.365C212.386 241.365 216.376 239.095 219.996 236.365C225.226 232.365 231.246 230.255 237.436 228.485C243.626 226.715 249.086 228.235 253.756 232.485C256.248 234.532 258.375 236.987 260.046 239.745C261.042 241.336 262.304 242.743 263.776 243.905C266.536 246.275 269.846 245.905 272.296 243.175C274.402 241.038 275.612 238.176 275.676 235.175C275.676 231.975 275.766 228.835 274.816 225.635C273.306 220.535 272.256 215.285 271.186 210.065C269.966 204.125 271.726 200.345 277.076 197.355C278.766 196.564 280.51 195.895 282.296 195.355C284.796 194.415 287.296 193.515 289.796 192.525C292.197 191.74 293.703 189.362 293.386 186.855C293.326 184.961 293.037 183.081 292.526 181.255C290.816 175.905 289.166 170.515 286.956 165.365C285.009 160.692 283.525 155.839 282.526 150.875C280.786 142.775 284.126 136.235 290.306 131.115C300.546 122.645 313.066 119.575 325.606 116.805C334.176 114.915 342.876 113.635 351.526 112.135C352.851 111.952 354.189 111.868 355.526 111.885C360.336 111.795 365.186 112.265 369.826 110.455C370.612 110.27 371.423 110.216 372.226 110.295C383.703 110.18 395.136 111.732 406.166 114.905C411.018 116.454 415.546 118.878 419.526 122.055C422.836 124.555 424.526 128.435 425.066 132.415C425.77 136.667 425.156 141.033 423.306 144.925C418.306 155.315 410.926 163.475 401.796 170.395C393.628 176.446 384.543 181.149 374.886 184.325C373.036 184.955 372.576 186.105 372.056 187.725C371.256 190.225 370.386 190.725 368.846 189.495C366.266 187.425 363.426 187.575 360.476 187.445C354.848 187.361 349.323 185.924 344.366 183.255C334.286 177.495 330.366 168.665 332.186 157.575C333.18 152.232 335.937 147.377 340.016 143.785C348.776 135.935 359.086 131.055 371.236 131.205C376.836 131.275 382.496 130.605 387.886 132.895C390.116 133.845 392.366 134.685 394.166 136.375C401.496 143.245 403.436 147.015 397.096 157.245C393.503 163.254 387.926 167.82 381.326 170.155C378.816 171.055 376.416 172.265 373.956 173.325C372.466 173.975 372.276 175.325 372.286 176.645C372.286 178.205 373.586 179.275 374.906 178.695C380.756 176.115 386.736 173.975 392.256 170.475C399.636 165.815 405.716 159.885 411.526 153.615C415.071 149.95 417.693 145.494 419.176 140.615C421.176 133.725 419.576 128.615 413.856 124.615C411.462 122.919 408.826 121.594 406.036 120.685C398.449 118.107 390.499 116.757 382.486 116.685H373.776ZM373.416 136.095C366.416 135.095 360.186 137.785 354.066 140.385C349.306 142.293 345.127 145.413 341.946 149.435C332.206 162.285 336.406 171.365 347.116 178.675C352.336 182.235 358.956 181.485 365.116 180.675C366.646 180.485 367.116 179.105 367.116 177.675C367.116 176.245 366.396 175.055 364.826 174.875C363.256 174.695 361.626 174.685 360.016 174.615C352.326 174.325 346.846 170.945 344.076 163.495C343.183 161.239 343.227 158.72 344.196 156.495C347.346 148.385 354.286 145.045 361.736 142.595C365.416 141.385 368.816 143.365 370.186 146.955C371.316 149.955 372.436 152.955 372.186 156.295C372.05 159.241 372.073 162.192 372.256 165.135C372.336 167.195 373.626 167.995 375.496 167.135C378.233 166.042 380.884 164.745 383.426 163.255C387.506 160.635 391.276 157.425 393.326 152.965C396.946 145.055 394.026 140.345 387.566 138.255C383.026 136.805 378.346 135.385 373.416 136.095ZM133.936 189.095C129.516 188.825 125.476 190.195 121.616 192.095C115.996 194.905 114.806 198.645 118.086 203.825C120.546 207.705 123.746 210.985 128.196 212.635C131.427 213.914 134.733 214.993 138.096 215.865C140.444 216.369 142.853 216.524 145.246 216.325C149.106 216.085 151.316 213.425 151.686 209.465C152.026 205.835 150.616 202.625 149.476 199.375C147.576 194.015 141.696 188.255 133.936 189.105V189.095ZM367.266 160.395C367.266 158.265 367.266 156.125 367.266 153.985C367.213 152.378 366.73 150.813 365.866 149.455C364.866 147.755 362.866 146.685 361.136 147.525C355.836 150.145 350.816 153.155 348.566 159.125C347.917 160.626 348.172 162.365 349.226 163.615C352.786 168.145 357.326 170.375 363.176 169.775C366.176 169.475 367.056 168.775 367.226 165.995C367.356 164.145 367.266 162.255 367.266 160.405V160.395Z" fill="#E6F1F5"/>
    </g>
    <defs>
        <filter id="filter0_d" x="80.5498" y="110.26" width="348.8" height="212.281" filterUnits="userSpaceOnUse" color-interpolation-filters="sRGB">
            <feFlood flood-opacity="0" result="BackgroundImageFix"/>
            <feColorMatrix in="SourceAlpha" type="matrix" values="0 0 0 0 0 0 0 0 0 0 0 0 0 0 0 0 0 0 127 0" result="hardAlpha"/>
            <feOffset dy="4"/>
            <feGaussianBlur stdDeviation="2"/>
            <feColorMatrix type="matrix" values="0 0 0 0 0 0 0 0 0 0 0 0 0 0 0 0 0 0 0.25 0"/>
            <feBlend mode="normal" in2="BackgroundImageFix" result="effect1_dropShadow"/>
            <feBlend mode="normal" in="SourceGraphic" in2="effect1_dropShadow" result="shape"/>
        </filter>
    </defs>
</svg>
