<svg width="694" height="623" viewBox="0 0 694 623" fill="none" xmlns="http://www.w3.org/2000/svg">
<circle cx="332.5" cy="64.5" r="44.5" stroke="#181B5E" stroke-width="2"/>
<circle opacity="0.3" cx="549" cy="17" r="16" stroke="#181B5E" stroke-width="2"/>
<circle opacity="0.3" cx="636" cy="405" r="16" stroke="#181B5E" stroke-width="2"/>
<circle opacity="0.3" cx="540.5" cy="546.5" r="26.5" stroke="#181B5E" stroke-width="2"/>
<g filter="url(#filter0_b_1945:63478)">
<path fill-rule="evenodd" clip-rule="evenodd" d="M370 65C329.683 65 297 97.6832 297 138V290H149C112.549 290 83 319.549 83 356V557C83 593.451 112.549 623 149 623H417C453.451 623 483 593.451 483 557V410H597C637.317 410 670 377.317 670 337V138C670 97.6832 637.317 65 597 65H370Z" fill="white" fill-opacity="0.5"/>
</g>
<path fill-rule="evenodd" clip-rule="evenodd" d="M430.748 296.358C430.986 295.096 430.996 293.092 430.78 290.345L430.543 290.468C429.737 293.425 429.609 295.596 430.16 296.984C430.365 296.783 430.561 296.573 430.748 296.358V296.358Z" fill="#B57991" stroke="#B57991" stroke-width="0.57" stroke-miterlimit="22.93"/>
<path fill-rule="evenodd" clip-rule="evenodd" d="M430.78 290.345C430.999 293.083 430.989 295.087 430.748 296.359C430.561 296.573 430.365 296.783 430.16 296.984C430.283 297.32 430.469 297.629 430.707 297.896C431.012 298.208 431.378 298.452 431.783 298.614C432.188 298.775 432.622 298.849 433.057 298.832C433.841 298.837 434.623 298.734 435.379 298.526C446.05 293.051 453.185 288.389 456.783 284.541C455.736 281.426 455.259 278.148 455.374 274.864C455.428 272.405 455.67 269.953 456.099 267.531C448.078 275.343 437.989 279.075 429.074 277.569C429.956 282.862 430.525 287.121 430.78 290.345V290.345Z" fill="#5E509B" stroke="#7C458E" stroke-width="0.57" stroke-miterlimit="22.93"/>
<path fill-rule="evenodd" clip-rule="evenodd" d="M472.329 226.964C474.808 217.09 471.158 208.582 461.378 201.44C444.785 194.529 432.313 196.514 423.964 207.394C412.557 243.367 407.921 257.466 414.24 267.919C427.016 286.148 454.105 278.053 465.53 254.309C475.468 258.093 482.759 255.541 487.404 246.652C492.752 234.374 485.821 226.923 472.347 226.964H472.329Z" fill="#6C79D3" stroke="#8F62A9" stroke-width="0.57" stroke-miterlimit="22.93"/>
<path fill-rule="evenodd" clip-rule="evenodd" d="M419.757 250.964C426.236 233.747 427.37 223.215 423.16 219.367C417.813 229.581 412.627 237.44 407.601 242.942C409.509 247.779 413.56 250.453 419.757 250.964Z" fill="#E17C64" stroke="#E17C64" stroke-width="0.57" stroke-miterlimit="22.93"/>
<path fill-rule="evenodd" clip-rule="evenodd" d="M483.54 229.391C481.797 231.186 479.999 232.321 478.146 232.795C474.469 234.251 472.562 240.246 466.844 253.455C466.461 253.195 465.571 253.035 464.166 252.972C469.363 239.324 464.864 231.668 456.268 227.329C449.141 219.949 439.418 215.539 427.098 214.097C416.941 211.603 412.972 202.933 415.189 188.089C417.446 193.634 419.716 195.943 421.997 195.015C420.989 193.304 419.898 188.929 419.442 186.269C422.307 190.886 427.463 194.29 431.232 193.925C437.551 193.313 443.205 188.532 451.409 189.791C465.8 190.247 471.941 199.738 474.254 206.806C485.223 212.737 488.318 220.272 483.54 229.409V229.391Z" fill="#2B281F" stroke="#2B281F" stroke-width="0.57" stroke-miterlimit="22.93"/>
<path fill-rule="evenodd" clip-rule="evenodd" d="M339.411 266.372C339.737 264.663 339.752 261.948 339.457 258.228L339.133 258.392C338.038 262.398 337.864 265.339 338.613 267.216C338.893 266.948 339.159 266.667 339.411 266.372V266.372Z" fill="#1E1A08"/>
<path fill-rule="evenodd" clip-rule="evenodd" d="M339.457 258.228C339.761 261.948 339.746 264.663 339.411 266.372C339.159 266.667 338.893 266.948 338.613 267.216C338.787 267.662 339.039 268.073 339.356 268.43C340.082 269.238 341.145 269.662 342.55 269.698C343.612 269.707 344.67 269.569 345.694 269.288C360.14 261.866 369.799 255.555 374.672 250.357C373.316 246.57 372.678 242.202 372.76 237.253C372.835 233.924 373.164 230.607 373.746 227.329C362.887 237.901 349.226 242.952 337.157 240.917C338.353 248.08 339.124 253.85 339.471 258.228H339.457Z" fill="#8C2649"/>
<path fill-rule="evenodd" clip-rule="evenodd" d="M369.899 161.57C366.106 148.323 356.068 140.827 339.785 139.081C315.651 142.235 302.377 153.02 299.961 171.435C310.994 221.311 315.11 240.985 329.619 248.947C356.905 261.659 383.173 233.804 380.476 198.228C394.684 195.928 401.498 187.995 400.917 174.428C398.864 156.419 385.687 152.386 369.913 161.57H369.899Z" fill="#D85B79"/>
<path fill-rule="evenodd" clip-rule="evenodd" d="M364.392 225.34C360.319 200.768 354.508 187.659 346.958 186.013C347.621 201.609 346.873 214.334 344.713 224.19C350.225 228.561 356.784 228.947 364.392 225.349V225.34Z" fill="#181B5E"/>
<path fill-rule="evenodd" clip-rule="evenodd" d="M356.59 189.846C360.865 189.681 361.527 189.846 365.474 188.691C365.638 184.252 361.367 179.15 360.541 173.867C363.495 179.154 367.031 182.536 371.15 184.014L375.521 180.725C373.896 178.857 372.059 174.915 370.009 168.898C372.643 173.661 376.774 176.531 382.401 177.508L386.768 174.848C384.14 174.296 382.589 170.741 378.003 159.713C384.332 162.647 387.703 165.188 392.23 171.823L397.358 168.857C395.834 165.207 396.491 165.964 390.058 157.623C393.398 159.302 394.333 159.353 399.065 166.749L403.746 166.106C403.947 163.243 402.636 158.89 399.813 153.047C384.677 127.356 363.174 119.314 335.305 128.924C324.135 124.005 313.984 126.375 304.853 136.032C293.975 138.408 287.131 142.571 284.32 148.521L285.388 150.346C288.795 146.54 292.506 144.807 296.521 145.144C286.942 151.836 281.806 162.62 281.113 177.494L284.827 178.224C285.435 174.833 285.922 172.358 286.287 170.801C289.155 177.776 290.348 183.391 289.864 187.646C291.559 188.111 293.304 188.369 295.061 188.413C296.5 185.015 296.261 179.167 294.345 170.869C301.189 178.941 302.403 184.881 301.727 188.874C304.789 188.55 306.956 188.641 307.203 188.29C308.147 182.76 308.841 177.166 306.623 172.197C313.467 178.658 316.625 185.552 316.415 187.979C317.379 187.935 318.322 187.684 319.18 187.244C320.038 186.803 320.791 186.182 321.388 185.424C322.562 182.109 321.811 177.85 319.134 172.649C325.458 178.163 328.765 183.22 329.054 187.82L335.076 188.705C335.396 183.23 336.728 180.948 332.886 175.076C342.509 181.135 344.088 183.184 343.81 188.025L350.038 188.605C350.768 182.995 350.159 179.193 348.213 177.198C353.975 182.979 356.385 186.405 356.59 189.846V189.846Z" fill="#E5E5E5"/>
<path fill-rule="evenodd" clip-rule="evenodd" d="M339.808 281.324C358.902 280.549 373.772 273.654 384.418 260.641C381.258 258.47 378.005 255.041 374.659 250.357C369.792 255.555 360.132 261.866 345.68 269.288C344.252 269.648 340.775 269.991 339.356 268.416C339.041 268.058 338.791 267.647 338.617 267.203C337.969 265.578 338.012 263.159 338.745 259.943C336.322 265.683 334.269 269.169 332.357 271.414C332.795 275.886 335.28 279.184 339.813 281.311L339.808 281.324Z" fill="#272416"/>
<path fill-rule="evenodd" clip-rule="evenodd" d="M339.356 268.416C339.041 268.058 338.791 267.647 338.617 267.203C337.969 265.578 338.012 263.159 338.745 259.943C334.433 270.168 331.285 273.23 328.027 274.895C316.818 280.243 310.961 287.318 310.456 296.121C309.942 299.571 309.545 302.363 309.265 304.499L447.663 304.02C442.729 288.506 432.253 278.964 416.234 275.393C399.261 270.182 406.726 272.103 388.027 262.571C383.747 260.908 379.293 256.832 374.663 250.343C369.796 255.542 360.137 261.852 345.685 269.274C344.257 269.635 340.78 269.977 339.361 268.403L339.356 268.416Z" fill="#F9F9F9"/>
<path fill-rule="evenodd" clip-rule="evenodd" d="M309.26 304.512C309.26 304.512 305.428 319.063 311.647 321.969C317.866 324.876 348.573 329.434 360.185 328.193C371.798 326.952 439.842 320.473 441.083 318.333C442.324 316.193 450.076 317.229 447.658 304.051C445.24 290.874 309.26 304.512 309.26 304.512Z" fill="#F9F9F9"/>
<path fill-rule="evenodd" clip-rule="evenodd" d="M221.632 307.223C226.219 282.913 235.108 270.862 248.297 271.072C284.694 275.087 285.1 329.685 268.022 349.178C254.639 357.012 238.738 357.286 225.99 341.763C220.63 335.625 219.177 324.111 221.632 307.223V307.223ZM219.164 416.141C228.673 424.235 240.732 428.427 255.342 428.716C283.461 429.37 306.693 412.976 325.038 379.534C314.057 372.644 309.722 346.508 312.034 301.127C316.491 276.333 306.337 257.615 281.573 244.973C253.454 237.934 234.933 246.131 226.008 269.562C220.724 305.831 208.784 356.483 197.751 368.61C197.322 390.712 202.35 399.897 219.146 416.141H219.164Z" fill="#D6D6D6"/>
<path fill-rule="evenodd" clip-rule="evenodd" d="M248.297 271.072C235.105 270.862 226.216 282.912 221.632 307.222C219.178 324.108 220.63 335.621 225.99 341.762C238.738 357.276 254.639 357.011 268.022 349.177C285.1 329.685 284.694 275.087 248.297 271.072Z" fill="#231F20" stroke="#231F20" stroke-width="0.57" stroke-miterlimit="22.93"/>
<path fill-rule="evenodd" clip-rule="evenodd" d="M243.953 271.793C230.873 273.618 223.93 286.885 223.124 311.594C223.276 328.659 226.47 339.815 232.706 345.062C247.677 358.458 263.35 355.757 275.377 345.974C289.28 324.096 280.551 270.2 243.953 271.793Z" fill="#8CC7F2" stroke="#8CC7F2" stroke-width="0.57" stroke-miterlimit="22.93"/>
<path fill-rule="evenodd" clip-rule="evenodd" d="M246.577 330.848C248.895 315.942 251.049 303.308 247.17 299.27C241.467 313.939 236.096 320.295 233.026 325.478C235.879 329.822 240.393 331.612 246.568 330.848H246.577Z" fill="#E17C64" stroke="#E17C64" stroke-width="0.57" stroke-miterlimit="22.93"/>
<path fill-rule="evenodd" clip-rule="evenodd" d="M251.806 283.15C263.885 288.017 273.598 297.107 280.944 310.421C278.033 290.153 267.606 269.037 245.5 270C233.941 271.6 224.5 283.15 223.5 303.5C229.5 290 237.274 279.518 251.82 283.15H251.806Z" fill="#181B5E"/>
<path fill-rule="evenodd" clip-rule="evenodd" d="M364.627 438.476C365.829 408.191 352.633 388.674 325.038 379.923C306.69 413.365 283.458 429.759 255.342 429.105C240.741 428.801 228.682 424.609 219.164 416.53C202.368 400.287 197.34 391.102 197.769 369C162.399 376.684 147.138 399.856 151.986 438.518H152.028C152.391 441.76 155.2 464.207 163.79 467.275C173.053 470.583 213.397 477.856 246.139 478.518C249.27 478.581 252.449 478.651 255.654 478.72C285.964 479.381 318.556 480.092 334.109 476.205C351.12 471.953 364.527 449.166 364.627 438.476Z" fill="#F9F9F9"/>
<path fill-rule="evenodd" clip-rule="evenodd" d="M440.732 432.078C465.605 460.091 492.107 458.617 520.238 427.657C516.697 427.353 513.073 427.099 509.365 426.895C501.976 419.75 499.077 404.162 500.668 380.131C491.05 392.506 477.413 398.522 459.759 398.182C452.887 397.433 446.943 395.161 441.927 391.365C446.761 407.718 447.435 421.195 443.949 431.796C442.863 431.873 441.795 431.964 440.732 432.06V432.078Z" fill="#4B6CC6" stroke="#61A6D9" stroke-width="0.22" stroke-miterlimit="22.93"/>
<path fill-rule="evenodd" clip-rule="evenodd" d="M459.759 398.181C477.401 398.51 491.038 392.487 500.668 380.113C504.318 375.398 507.4 369.762 509.912 363.203C516.985 364.283 522.982 360.093 527.903 350.633C534.258 336.382 529.417 327.44 513.38 323.808C512.014 325.296 509.995 332.33 507.321 344.911H504.46C503.502 336.014 498.959 323.443 490.831 307.2H430.863C430.342 307.154 427.258 314.715 421.609 329.881C421.971 360.908 428.744 381.409 441.927 391.383C446.946 395.179 452.89 397.451 459.759 398.2V398.181Z" fill="#AFD1E8" stroke="#82BDEB" stroke-width="0.22" stroke-miterlimit="22.93"/>
<path fill-rule="evenodd" clip-rule="evenodd" d="M490.84 307.2C498.968 323.444 503.511 336.014 504.469 344.911H507.321C509.995 332.33 512.013 325.296 513.376 323.809C512.609 323.635 511.82 323.471 510.999 323.32C511.172 307.74 502.807 295.725 485.903 287.274C445.295 276.023 416.791 287.548 421.295 325.533C421.295 326.825 421.573 328.645 421.587 329.904C427.235 314.738 430.321 307.177 430.844 307.223L490.84 307.2Z" fill="#F2A7D4"/>
<path fill-rule="evenodd" clip-rule="evenodd" d="M520.238 427.657C492.104 458.62 465.602 460.093 440.732 432.078C437.328 432.382 434.037 432.758 430.858 433.205C447.482 451.511 462.022 460.789 474.478 461.038C497.077 463.096 521.155 450.621 531.681 428.889C527.967 428.405 524.153 427.99 520.238 427.643V427.657Z" fill="#F27385"/>
<path fill-rule="evenodd" clip-rule="evenodd" d="M454.721 362.783C454.178 347.749 453.9 334.973 449.351 331.756C446.54 347.192 442.507 354.433 440.481 360.082C444.085 363.799 448.832 364.701 454.721 362.788V362.783Z" fill="#E17C64"/>
<path fill-rule="evenodd" clip-rule="evenodd" d="M448.58 370.189C442.192 371.43 438.037 376.638 436.114 385.812C437.833 387.884 439.784 389.753 441.927 391.383C446.946 395.179 452.89 397.451 459.758 398.2C469.873 398.388 478.671 396.49 486.154 392.505C479.921 376.435 467.396 368.997 448.58 370.189V370.189ZM456.546 384.037C462.003 385.196 466.818 384.057 470.992 380.619C461.258 373.748 453.034 372.61 446.321 377.207C445.98 381.036 449.389 383.318 456.546 384.051V384.037Z" fill="#262424"/>
<path fill-rule="evenodd" clip-rule="evenodd" d="M474.336 461.365C495.639 463.456 519.091 451.444 529 429.5L529.5 428.5C564.129 433.33 588.071 445.41 603.925 463.912C605.463 464.615 607.94 467.187 605.79 476.607C603.111 488.34 596.222 491.159 588.182 494.448C587.293 494.812 586.389 495.182 585.476 495.57C576.305 499.466 489.818 501.501 461.132 502.158C432.446 502.815 384.34 486.43 377.086 480.827C369.831 475.224 377.086 463.648 377.086 463.648H377.302C387.314 447.496 405.704 436.617 433 432.5C448.654 450.975 462.613 461.104 474.336 461.365Z" fill="#F9F9F9"/>
<path fill-rule="evenodd" clip-rule="evenodd" d="M284.498 319.177C253.709 335.503 236.991 364.284 247.161 383.471C257.331 402.657 290.539 404.975 321.329 388.65C352.118 372.324 368.836 343.542 358.666 324.356C348.495 305.169 315.288 302.851 284.498 319.177V319.177Z" fill="#CE5190"/>
<path fill-rule="evenodd" clip-rule="evenodd" d="M375.503 484.824C398.316 488.693 420.587 500.132 425.953 506.146C430.595 510.182 433.991 517.984 436.142 529.553C436.776 531.378 437.333 533.061 437.812 534.658H259.038C258.895 517.122 264.159 505.323 274.83 499.26C294.098 495.053 308.685 488.574 328.862 479.75C330.441 474.772 331.244 468.991 331.143 462.484C331.084 458.433 330.03 445.602 329.318 440.976C341.971 454.874 363.635 469.981 377.684 467.307C376.383 476.082 376.087 475.977 375.475 484.824H375.503Z" fill="#8DADD3"/>
<path fill-rule="evenodd" clip-rule="evenodd" d="M320.343 405.103C317.058 392.023 321.893 380.739 334.848 371.252C356.864 362.085 383.871 365.964 394.954 380.377C410.07 428.09 405.776 445.543 397.395 459.404C380.476 483.605 344.521 472.869 329.373 441.372C316.196 446.391 306.524 443.006 300.358 431.216C292.5 410 302.466 405.053 320.348 405.103H320.343Z" fill="#889ED8"/>
<path fill-rule="evenodd" clip-rule="evenodd" d="M381.781 441.194C382.415 423.673 382.744 408.799 388.055 405.03C391.34 423.021 396.062 431.457 398.421 438.041C394.205 442.373 388.658 443.424 381.781 441.194Z" fill="#181B5E"/>
<path fill-rule="evenodd" clip-rule="evenodd" d="M292.953 387.454C294.291 383.475 295.986 379.625 298.018 375.952C300.595 370.572 303.994 365.626 308.092 361.291C320.454 348.394 338.663 342.896 362.718 344.797C385.121 348.392 399.798 361.472 406.748 384.037C408.649 398.702 407.372 407.645 402.915 410.866C402.611 411.083 402.291 411.277 401.957 411.445C402.222 403.841 399.242 397.397 393.019 392.113C393.019 393.692 394.201 395.794 396.564 398.419C390.532 398.19 382.445 389.704 372.304 372.958C372.146 391.38 366.054 402.962 354.03 407.704C355.855 404.413 356.854 401.416 357.028 398.715C347.829 407.248 344.1 414.134 345.84 419.375C340.742 419.375 338.629 414.286 339.502 404.108C333.008 417.724 331.082 432.588 333.726 448.7C332.084 446.229 330.616 443.646 329.332 440.971C326.9 432.716 325.044 424.302 323.779 415.789C323.21 408.452 317.832 405.474 307.645 406.855C300.23 409.912 296.603 416.113 298.346 424.728C290.179 413.753 288.381 401.327 292.953 387.45V387.454Z" fill="#ED7061"/>
<path fill-rule="evenodd" clip-rule="evenodd" d="M314.64 492.557C356.882 512.707 391.746 520.919 436.365 523.406C436.849 525.231 437.232 527.773 437.629 529.858C438.286 531.683 438.939 533.052 439.454 534.658H259.038C258.81 506.775 264.793 494.124 307.5 489C310.977 490.789 311.14 490.892 314.64 492.557Z" fill="#F9F9F9"/>
<path fill-rule="evenodd" clip-rule="evenodd" d="M259.038 534.658C259.038 534.658 256.661 557.016 268.884 560.57C284.717 565.178 404.458 562.126 414.145 561.528C429.754 560.57 439.436 559.457 441.311 549.209C442.11 544.833 439.436 534.649 439.436 534.649L259.038 534.658Z" fill="#F9F9F9"/>
<g filter="url(#filter1_b_1945:63478)">
<circle cx="452.5" cy="437.5" r="32.1153" transform="rotate(-21.0268 452.5 437.5)" fill="white" fill-opacity="0.2"/>
<circle cx="452.5" cy="437.5" r="30.6153" transform="rotate(-21.0268 452.5 437.5)" stroke="#FF7E79" stroke-width="3"/>
</g>
<g filter="url(#filter2_b_1945:63478)">
<circle cx="405.5" cy="177.5" r="38.5" fill="white" fill-opacity="0.2"/>
<circle cx="405.5" cy="177.5" r="37.5" stroke="#181B5E" stroke-width="2"/>
</g>
<g filter="url(#filter3_b_1945:63478)">
<circle cx="83" cy="519" r="58" transform="rotate(-135 83 519)" fill="white" fill-opacity="0.2"/>
<circle cx="83" cy="519" r="57" transform="rotate(-135 83 519)" stroke="#181B5E" stroke-width="2"/>
</g>
<g filter="url(#filter4_b_1945:63478)">
<circle cx="653.5" cy="109.5" r="37.5" fill="white" fill-opacity="0.2"/>
<circle cx="653.5" cy="109.5" r="36.5" stroke="#181B5E" stroke-width="2"/>
</g>
<defs>
<filter id="filter0_b_1945:63478" x="69" y="51" width="615" height="586" filterUnits="userSpaceOnUse" color-interpolation-filters="sRGB">
<feFlood flood-opacity="0" result="BackgroundImageFix"/>
<feGaussianBlur in="BackgroundImage" stdDeviation="7"/>
<feComposite in2="SourceAlpha" operator="in" result="effect1_backgroundBlur_1945:63478"/>
<feBlend mode="normal" in="SourceGraphic" in2="effect1_backgroundBlur_1945:63478" result="shape"/>
</filter>
<filter id="filter1_b_1945:63478" x="405" y="390" width="95" height="95" filterUnits="userSpaceOnUse" color-interpolation-filters="sRGB">
<feFlood flood-opacity="0" result="BackgroundImageFix"/>
<feGaussianBlur in="BackgroundImage" stdDeviation="3"/>
<feComposite in2="SourceAlpha" operator="in" result="effect1_backgroundBlur_1945:63478"/>
<feBlend mode="normal" in="SourceGraphic" in2="effect1_backgroundBlur_1945:63478" result="shape"/>
</filter>
<filter id="filter2_b_1945:63478" x="347" y="119" width="117" height="117" filterUnits="userSpaceOnUse" color-interpolation-filters="sRGB">
<feFlood flood-opacity="0" result="BackgroundImageFix"/>
<feGaussianBlur in="BackgroundImage" stdDeviation="10"/>
<feComposite in2="SourceAlpha" operator="in" result="effect1_backgroundBlur_1945:63478"/>
<feBlend mode="normal" in="SourceGraphic" in2="effect1_backgroundBlur_1945:63478" result="shape"/>
</filter>
<filter id="filter3_b_1945:63478" x="-14.0244" y="421.976" width="194.049" height="194.049" filterUnits="userSpaceOnUse" color-interpolation-filters="sRGB">
<feFlood flood-opacity="0" result="BackgroundImageFix"/>
<feGaussianBlur in="BackgroundImage" stdDeviation="7.5"/>
<feComposite in2="SourceAlpha" operator="in" result="effect1_backgroundBlur_1945:63478"/>
<feBlend mode="normal" in="SourceGraphic" in2="effect1_backgroundBlur_1945:63478" result="shape"/>
</filter>
<filter id="filter4_b_1945:63478" x="601" y="57" width="105" height="105" filterUnits="userSpaceOnUse" color-interpolation-filters="sRGB">
<feFlood flood-opacity="0" result="BackgroundImageFix"/>
<feGaussianBlur in="BackgroundImage" stdDeviation="7.5"/>
<feComposite in2="SourceAlpha" operator="in" result="effect1_backgroundBlur_1945:63478"/>
<feBlend mode="normal" in="SourceGraphic" in2="effect1_backgroundBlur_1945:63478" result="shape"/>
</filter>
</defs>
</svg>
