<svg width="561" height="837" viewBox="0 0 561 837" fill="none" xmlns="http://www.w3.org/2000/svg">
    <g clip-path="url(#clip0)">
        <path d="M498.12 364.98H0V706.66H498.12V364.98Z" fill="#EDBD7D"/>
        <path d="M522.19 602.11H288.13V836.17H522.19V602.11Z" fill="#C791ED"/>
        <path fill-rule="evenodd" clip-rule="evenodd" d="M206.35 568.15H537.05V80.09H206.35V568.15Z" fill="#F2E387"/>
        <path fill-rule="evenodd" clip-rule="evenodd" d="M242.2 283.67C252.24 230.403 271.717 203.997 300.63 204.45C380.41 213.24 381.29 332.9 343.86 375.63C314.53 392.79 279.68 393.4 251.74 359.38C239.993 345.92 236.813 320.683 242.2 283.67ZM236.78 522.39C257.62 540.123 284.05 549.31 316.07 549.95C377.703 551.383 428.62 515.453 468.82 442.16C444.747 427.06 435.26 369.777 440.36 270.31C450.127 215.983 427.877 174.963 373.61 147.25C311.97 131.823 271.373 149.787 251.82 201.14C240.24 280.63 214.07 391.63 189.89 418.21C188.95 466.66 199.97 486.79 236.78 522.39V522.39Z" fill="#231F20" stroke="#231F20" stroke-width="0.57" stroke-miterlimit="22.93"/>
        <path fill-rule="evenodd" clip-rule="evenodd" d="M300.63 204.48C271.723 204.02 252.247 230.427 242.2 283.7C236.813 320.72 239.993 345.957 251.74 359.41C279.68 393.41 314.53 392.82 343.86 375.66C381.29 332.93 380.41 213.27 300.63 204.48Z" fill="#231F20" stroke="#231F20" stroke-width="0.57" stroke-miterlimit="22.93"/>
        <path fill-rule="evenodd" clip-rule="evenodd" d="M291.11 206.03C262.444 209.99 247.23 239.067 245.47 293.26C245.804 330.66 252.804 355.11 266.47 366.61C299.28 395.96 333.63 390.04 360 368.61C390.46 320.67 371.3 202.55 291.12 206.04L291.11 206.03Z" fill="#8CC7F2" stroke="#8CC7F2" stroke-width="0.57" stroke-miterlimit="22.93"/>
        <path fill-rule="evenodd" clip-rule="evenodd" d="M296.87 335.48C301.95 302.81 306.66 275.12 298.16 266.27C285.66 298.42 273.89 312.35 267.16 323.7C273.42 333.227 283.317 337.153 296.85 335.48H296.87Z" fill="#E17C64" stroke="#E17C64" stroke-width="0.57" stroke-miterlimit="22.93"/>
        <path fill-rule="evenodd" clip-rule="evenodd" d="M555.58 570.58C558.247 504.153 529.327 461.347 468.82 442.16C428.6 515.44 377.683 551.37 316.07 549.95C284.07 549.283 257.64 540.097 236.78 522.39C199.97 486.79 188.95 466.66 189.89 418.21C112.37 435.057 78.9234 485.847 89.5501 570.58H555.58Z" fill="white" stroke="white" stroke-width="0.57" stroke-miterlimit="22.93"/>
        <path fill-rule="evenodd" clip-rule="evenodd" d="M308.28 230.91C334.76 241.577 356.05 261.503 372.15 290.69C365.77 246.27 339.6 203.92 291.15 206.03C265.817 209.543 250.987 232.717 246.66 275.55C259.83 241.81 276.44 222.96 308.32 230.91H308.28Z" fill="#99755E" stroke="#99755E" stroke-width="0.57" stroke-miterlimit="22.93"/>
        <path fill-rule="evenodd" clip-rule="evenodd" d="M89.5498 570.58C89.5498 570.58 95.1198 627.21 115.42 634.45C135.72 641.69 224.14 657.65 295.9 659.1C367.66 660.55 451.02 663.45 488.71 654.02C526.4 644.59 556.02 593.67 555.58 570.58H89.5498Z" fill="white" stroke="white" stroke-width="0.57" stroke-miterlimit="22.93"/>
    </g>
    <defs>
        <clipPath id="clip0">
            <rect width="560.96" height="836.17" fill="white"/>
        </clipPath>
    </defs>
</svg>
