<svg width="233" height="220" viewBox="0 0 233 220" fill="none" xmlns="http://www.w3.org/2000/svg">
<path fill-rule="evenodd" clip-rule="evenodd" d="M66.8704 148.919C91.7436 176.931 118.246 175.457 146.377 144.497C142.836 144.193 139.212 143.939 135.504 143.735C128.115 136.59 125.216 121.002 126.807 96.9717C117.189 109.346 103.552 115.363 85.8972 115.022C79.0256 114.274 73.0819 112.001 68.0659 108.205C72.8994 124.558 73.5731 138.035 70.0872 148.636C69.0012 148.713 67.9335 148.805 66.8704 148.9V148.919Z" fill="#4B6CC6" stroke="#61A6D9" stroke-width="0.22" stroke-miterlimit="22.93"/>
<path fill-rule="evenodd" clip-rule="evenodd" d="M85.8971 115.022C103.54 115.35 117.176 109.327 126.807 96.9532C130.457 92.2384 133.538 86.6018 136.051 80.0436C143.123 81.1235 149.12 76.9333 154.042 67.4732C160.396 53.2222 155.555 44.2807 139.519 40.6487C138.153 42.1362 136.133 49.1704 133.459 61.7515H130.599C129.64 52.8541 125.097 40.2837 116.97 24.0402H57.0011C56.481 23.9946 53.3966 31.5551 47.7479 46.7218C48.1098 77.7485 54.8825 98.249 68.0658 108.223C73.0849 112.019 79.0286 114.292 85.8971 115.04V115.022Z" fill="#AFD1E8" stroke="#82BDEB" stroke-width="0.22" stroke-miterlimit="22.93"/>
<path fill-rule="evenodd" clip-rule="evenodd" d="M116.979 24.0404C125.107 40.2838 129.65 52.8543 130.608 61.7517H133.459C136.133 49.1706 138.152 42.1363 139.514 40.6489C138.748 40.4755 137.958 40.3112 137.137 40.1607C137.31 24.5803 128.945 12.5651 112.042 4.11481C71.4333 -7.13696 42.9297 4.3886 47.4331 42.3736C47.4331 43.6649 47.7115 45.4854 47.7251 46.7447C53.3738 31.5781 56.4598 24.0176 56.983 24.0632L116.979 24.0404Z" fill="#F2A7D4"/>
<path fill-rule="evenodd" clip-rule="evenodd" d="M146.377 144.497C118.243 175.46 91.7406 176.934 66.8705 148.918C63.4666 149.223 60.1754 149.598 56.9966 150.045C73.6203 168.351 88.1603 177.629 100.617 177.878C123.216 179.936 147.294 167.461 157.82 145.729C154.106 145.245 150.292 144.83 146.377 144.483V144.497Z" fill="#F27385"/>
<path fill-rule="evenodd" clip-rule="evenodd" d="M80.8598 79.6235C80.3168 64.5892 80.0385 51.8134 75.4895 48.5967C72.6788 64.0325 68.6453 71.2736 66.6194 76.9223C70.224 80.6395 74.9708 81.5414 80.8598 79.628V79.6235Z" fill="#E17C64"/>
<path fill-rule="evenodd" clip-rule="evenodd" d="M74.7182 87.0293C68.3304 88.2704 64.1752 93.478 62.2527 102.652C63.972 104.724 65.9223 106.594 68.0657 108.223C73.0847 112.02 79.0285 114.292 85.897 115.04C96.0111 115.229 104.81 113.331 112.293 109.346C106.06 93.2757 93.5351 85.8369 74.7182 87.0293ZM82.6848 100.877C88.1419 102.036 92.9571 100.897 97.1305 97.4598C87.3966 90.5883 79.173 89.4506 72.4596 94.0468C72.119 97.8765 75.5273 100.158 82.6848 100.891V100.877Z" fill="#262424"/>
<path fill-rule="evenodd" clip-rule="evenodd" d="M153.59 145.743C143.73 167.475 121.195 179.963 99.9959 177.892C88.3305 177.633 74.7091 168.356 59.1318 150.059C31.7735 154.166 13.1376 164.313 3.22427 180.502H229.022C213.247 162.129 188.103 150.547 153.59 145.756V145.743Z" fill="#F9F9F9"/>
<path fill-rule="evenodd" clip-rule="evenodd" d="M3.22435 180.488C3.22435 180.488 -4.03044 192.064 3.22435 197.667C10.4791 203.27 58.5844 219.655 87.2705 218.998C115.957 218.341 202.444 216.306 211.615 212.409C220.786 208.513 228.953 206.478 231.928 193.447C234.903 180.415 229.022 180.488 229.022 180.488H3.22435Z" fill="#F9F9F9"/>
</svg>
