<svg width="168" height="204" viewBox="0 0 168 204" fill="none" xmlns="http://www.w3.org/2000/svg">
<path fill-rule="evenodd" clip-rule="evenodd" d="M58.2985 141.372C58.624 139.663 58.6392 136.948 58.3441 133.228L58.0202 133.392C56.9251 137.398 56.7517 140.339 57.5 142.216C57.7801 141.948 58.0466 141.667 58.2985 141.372Z" fill="#1E1A08"/>
<path fill-rule="evenodd" clip-rule="evenodd" d="M58.3442 133.228C58.6484 136.948 58.6332 139.663 58.2986 141.372C58.0467 141.667 57.7802 141.948 57.5001 142.216C57.674 142.662 57.9258 143.073 58.2438 143.43C58.9693 144.238 60.0324 144.662 61.4377 144.698C62.4996 144.707 63.5574 144.569 64.5815 144.288C79.0272 136.866 88.6866 130.555 93.5596 125.357C92.203 121.57 91.5657 117.202 91.6478 112.253C91.7221 108.924 92.0516 105.607 92.6334 102.329C81.774 112.901 68.1131 117.952 56.0446 115.917C57.24 123.08 58.0111 128.85 58.3579 133.228H58.3442Z" fill="#8C2649"/>
<path fill-rule="evenodd" clip-rule="evenodd" d="M88.7869 36.5704C84.9937 23.3232 74.9556 15.8266 58.6726 14.0806C34.5387 17.235 21.264 28.0198 18.8488 46.4351C29.8816 96.3107 33.9972 115.985 48.5068 123.947C75.7921 136.659 102.06 108.804 99.3634 73.2277C113.572 70.928 120.386 62.9949 119.805 49.4283C117.751 31.4191 104.574 27.3856 88.8005 36.5704H88.7869Z" fill="#D85B79"/>
<path fill-rule="evenodd" clip-rule="evenodd" d="M83.2795 100.34C79.2065 75.7676 73.395 62.6588 65.8452 61.0132C66.5083 76.6087 65.76 89.3343 63.6003 99.1898C69.1121 103.561 75.6718 103.947 83.2795 100.349V100.34Z" fill="#181B5E"/>
<path fill-rule="evenodd" clip-rule="evenodd" d="M75.4772 64.8456C79.7526 64.6813 80.4141 64.8456 84.3609 63.6912C84.5252 59.2517 80.2545 54.1505 79.4286 48.8668C82.3822 54.1535 85.9184 57.536 90.037 59.0144L94.4082 55.7246C92.7838 53.8569 90.9465 49.9147 88.8963 43.898C91.5306 48.6615 95.6614 51.5315 101.289 52.5079L105.655 49.8478C103.027 49.2957 101.476 45.7413 96.8903 34.7131C103.219 37.647 106.591 40.1884 111.117 46.8227L116.246 43.8569C114.722 40.2067 115.379 40.9641 108.945 32.6234C112.285 34.3025 113.22 34.3526 117.952 41.7489L122.633 41.1055C122.834 38.2432 121.523 33.8903 118.7 28.0469C103.564 2.3555 82.0613 -5.6856 54.1919 3.92358C43.0223 -0.995083 32.8717 1.37451 23.7401 11.0324C12.8624 13.408 6.01829 17.5708 3.20762 23.5206L4.27529 25.3458C7.68216 21.5404 11.3932 19.8066 15.4084 20.1442C5.82969 26.8363 0.69354 37.6196 0 52.4942L3.71408 53.2242C4.32245 49.8326 4.80915 47.358 5.17417 45.8006C8.04263 52.7756 9.23502 58.3908 8.75136 62.6463C10.4463 63.1112 12.1914 63.3686 13.9484 63.4129C15.3872 60.0152 15.1484 54.1672 13.232 45.8691C20.0761 53.9406 21.2898 59.8813 20.6146 63.8737C23.6762 63.5498 25.8435 63.641 26.0899 63.2897C27.0344 57.7596 27.7279 52.1657 25.5104 47.1968C32.3546 53.6577 35.512 60.552 35.3021 62.9794C36.2659 62.9355 37.2089 62.6845 38.0671 62.2436C38.9253 61.8027 39.6785 61.1822 40.2755 60.4243C41.4497 57.1087 40.6983 52.8501 38.0215 47.6485C44.3455 53.1634 47.652 58.2205 47.941 62.8197L53.9638 63.7049C54.2832 58.2296 55.6155 55.9482 51.7737 50.0759C61.3966 56.1353 62.9753 58.184 62.6969 63.0251L68.9251 63.6045C69.6551 57.9954 69.0468 54.1931 67.1 52.1976C72.8628 57.9786 75.2719 61.4053 75.4772 64.8456Z" fill="#E5E5E5"/>
<path fill-rule="evenodd" clip-rule="evenodd" d="M58.6956 156.324C77.7892 155.549 92.6593 148.654 103.306 135.641C100.145 133.47 96.892 130.041 93.546 125.357C88.679 130.555 79.0196 136.866 64.5678 144.288C63.1397 144.648 59.6629 144.991 58.2439 143.416C57.9288 143.058 57.6787 142.647 57.5047 142.203C56.8568 140.578 56.8994 138.159 57.6324 134.943C55.2096 140.683 53.1564 144.169 51.2446 146.414C51.6826 150.886 54.1678 154.184 58.7001 156.311L58.6956 156.324Z" fill="#272416"/>
<path fill-rule="evenodd" clip-rule="evenodd" d="M58.2437 143.416C57.9286 143.058 57.6785 142.647 57.5045 142.203C56.8566 140.578 56.8992 138.159 57.6323 134.943C53.3205 145.168 50.1721 148.23 46.9143 149.895C35.7051 155.243 29.8481 162.318 29.3431 171.121C28.8291 174.571 28.4321 177.363 28.1523 179.499L166.55 179.02C161.616 163.506 151.14 153.964 135.122 150.393C118.148 145.182 125.613 147.103 106.915 137.571C102.635 135.908 98.18 131.832 93.5504 125.343C88.6834 130.542 79.024 136.852 64.5722 144.274C63.1441 144.635 59.6673 144.977 58.2483 143.403L58.2437 143.416Z" fill="#F9F9F9"/>
<path fill-rule="evenodd" clip-rule="evenodd" d="M28.1476 179.512C28.1476 179.512 24.3149 194.063 30.5339 196.969C36.753 199.876 67.4604 204.434 79.0726 203.193C90.6849 201.952 158.729 195.473 159.97 193.333C161.212 191.193 168.964 192.229 166.545 179.051C164.127 165.874 28.1476 179.512 28.1476 179.512Z" fill="#F9F9F9"/>
</svg>
