<svg width="379" height="474" viewBox="0 0 379 474" fill="none" xmlns="http://www.w3.org/2000/svg">
<path fill-rule="evenodd" clip-rule="evenodd" d="M114.315 183.746C106.815 166.246 101.015 144.546 97.0146 118.646C97.0146 116.546 97.0146 114.446 97.1146 112.446C94.6146 113.146 92.1146 114.746 89.5146 117.546C76.1146 139.046 84.4146 161.146 114.315 183.746Z" fill="#3B48B5"/>
<path fill-rule="evenodd" clip-rule="evenodd" d="M240.715 109.546C233.215 67.3465 213.115 43.1465 180.515 36.9465C122.915 34.0465 94.0149 62.2465 93.8149 121.546C103.415 184.146 123.415 222.146 153.615 235.546C188.815 244.946 213.715 222.946 228.415 169.346C231.515 173.846 235.515 175.146 240.215 173.246C262.215 156.946 272.915 140.846 272.215 125.046C271.915 118.746 269.915 112.446 266.015 106.146C256.715 102.346 248.315 103.446 240.715 109.546Z" fill="#E36290"/>
<path fill-rule="evenodd" clip-rule="evenodd" d="M140.615 227.847C136.515 243.847 135.215 258.647 136.515 272.247C140.815 270.047 145.015 267.847 149.315 265.447C153.815 258.447 156.715 248.847 157.815 236.547C156.415 236.247 155.015 235.947 153.615 235.547C149.115 233.547 144.715 230.947 140.615 227.847Z" fill="#3B48B5"/>
<path fill-rule="evenodd" clip-rule="evenodd" d="M136.615 272.246C137.515 281.046 139.515 289.346 142.615 297.146C160.715 302.946 182.215 304.446 207.315 301.546C202.715 278.146 205.415 248.546 215.415 212.746C217.215 208.346 218.915 204.046 220.415 199.946C224.315 189.146 226.815 179.346 228.115 170.646C214.015 221.146 190.615 243.146 157.815 236.646C156.715 248.946 153.815 258.546 149.315 265.546C145.115 267.846 140.815 270.046 136.615 272.246Z" fill="#6874E2"/>
<path fill-rule="evenodd" clip-rule="evenodd" d="M160.715 181.347C166.415 183.247 172.515 183.247 178.915 181.347C181.615 175.547 179.715 159.347 173.115 132.647C171.015 129.947 169.215 129.947 167.515 132.847C157.415 165.247 155.215 181.447 160.715 181.347Z" fill="#6C80EA"/>
<path fill-rule="evenodd" clip-rule="evenodd" d="M328.014 336.346C328.314 326.446 327.114 315.146 324.214 302.546C324.76 302.675 325.303 302.803 325.844 302.931C328.676 303.601 331.46 304.259 334.314 304.846C344.614 313.046 350.414 323.446 351.714 336.346C364.573 369.217 373.038 397.601 377.11 421.499C377.237 421.827 377.339 422.161 377.414 422.5C386.225 462.149 321.238 460.107 303.021 459.534C302.63 459.522 302.261 459.511 301.914 459.5C295.18 459.296 264.871 461.341 226.424 463.935C170.677 467.697 97.822 472.612 54.9143 473.5C-3.0857 474.7 -3.91903 440 2.9143 422.5C2.94296 422.497 2.97163 422.494 3.0003 422.491C7.6947 397.595 14.2667 368.848 22.8145 336.346C24.8145 323.646 29.8144 313.946 37.7144 307.246C46.6144 305.446 55.5145 303.246 64.3145 300.746C62.2145 313.946 59.6144 325.746 56.5144 336.346C41.9985 377.738 41.725 404.68 55.5798 417.116C91.1641 413.757 131.206 410.509 170.65 408.166C158.201 393.028 153.147 369.088 155.414 336.346C156.614 328.046 154.714 319.646 149.914 311.246C147.014 306.746 144.614 302.046 142.614 297.146C160.714 302.946 182.314 304.446 207.314 301.546C210.014 315.346 215.314 326.946 223.114 336.446C236.875 365.224 241.024 388.147 235.561 405.216C267.034 404.301 296.047 404.353 319.534 405.851C327.399 390.339 330.244 367.171 328.014 336.346Z" fill="white"/>
<path fill-rule="evenodd" clip-rule="evenodd" d="M94.0144 113.746C93.9144 116.246 93.8145 118.946 93.8145 121.546C94.6145 126.646 95.4144 131.546 96.4144 136.346C97.4144 134.746 98.3144 133.046 99.2144 131.346C106.814 116.846 112.014 96.4463 114.814 70.3463C121.814 97.4463 137.914 111.546 163.314 112.646C172.114 121.046 190.514 126.446 218.514 128.646C227.714 137.846 230.914 151.846 228.114 170.646C226.814 179.346 224.214 189.146 220.414 199.946C218.914 204.046 217.314 208.346 215.414 212.746C199.514 269.746 202.014 310.946 223.114 336.446C242.814 377.646 242.814 406.846 223.114 424.046H303.014C323.014 412.646 331.314 383.446 328.014 336.446C328.414 326.446 327.114 315.146 324.214 302.646C323.214 298.346 322.014 293.846 320.614 289.146C299.214 265.046 283.414 211.246 283.514 123.546C274.714 58.5463 236.414 23.5463 195.314 7.44631C150.314 -9.25369 116.914 2.1463 95.2144 41.5463C81.5144 58.6463 73.6144 92.7463 71.5144 143.746C73.4144 208.246 71.0144 260.646 64.4144 300.946C62.2144 314.146 59.6144 325.946 56.6144 336.546C39.1144 386.446 42.2144 415.346 66.0144 423.146H106.414V424.146H188.814L174.714 412.646C159.314 397.946 152.914 372.546 155.414 336.446C156.614 328.146 154.714 319.746 149.914 311.346C142.514 299.646 138.014 286.646 136.614 272.346C135.214 258.746 136.614 243.946 140.714 227.946C127.214 217.546 116.314 201.146 107.914 178.746C83.3144 157.946 77.2144 137.646 89.7144 117.646C91.1144 115.846 92.5144 114.646 94.0144 113.746Z" fill="#F2EBE3"/>
<path d="M115.415 442C89.0145 444.4 64.7479 426 55.9146 416.5L111.415 407.5H169.415C174.081 411.667 184.315 421.5 187.915 427.5C192.415 435 178.415 433 172.415 432C166.415 431 148.415 439 115.415 442Z" fill="#F2EBE3"/>
<path d="M233.415 415C229.815 413.8 233.915 407.5 236.415 404.5L264.915 393L319.415 404.5C312.248 415.333 296.115 435 288.915 427C279.915 417 237.915 416.5 233.415 415Z" fill="#F2EBE3"/>
</svg>
