<svg width="198" height="255" viewBox="0 0 198 255" fill="none" xmlns="http://www.w3.org/2000/svg">
<path fill-rule="evenodd" clip-rule="evenodd" d="M40.3154 10.8757C9.52589 27.2013 -7.19207 55.9832 2.97833 75.1696C13.1487 94.3561 46.3565 96.6739 77.1461 80.3484C107.936 64.0228 124.654 35.2409 114.483 16.0545C104.313 -3.13194 71.105 -5.44984 40.3154 10.8757V10.8757Z" fill="#CE5190"/>
<path fill-rule="evenodd" clip-rule="evenodd" d="M131.32 176.522C154.133 180.392 176.404 191.831 181.77 197.844C186.412 201.881 189.808 209.683 191.959 221.251C192.593 223.076 193.15 224.76 193.629 226.357H14.8551C14.7122 208.821 19.9761 197.021 30.6469 190.959C49.9154 186.752 64.5026 180.273 84.6791 171.449C86.2578 166.471 87.0609 160.69 86.9605 154.183C86.9012 150.131 85.8472 137.301 85.1354 132.674C97.7879 146.572 119.452 161.68 133.501 159.006C132.2 167.78 131.904 167.675 131.292 176.522H131.32Z" fill="#8DADD3"/>
<path fill-rule="evenodd" clip-rule="evenodd" d="M76.1605 96.8018C72.8753 83.7218 77.7103 72.4381 90.6655 62.9506C112.681 53.784 139.688 57.6624 150.771 72.0762C165.887 119.789 161.594 137.242 153.212 151.103C136.293 175.304 100.339 164.568 85.1902 133.071C72.0129 138.09 62.3414 134.705 56.1756 122.914C49.085 106.635 58.2836 96.7516 76.165 96.8018H76.1605Z" fill="#889ED8"/>
<path fill-rule="evenodd" clip-rule="evenodd" d="M137.598 132.893C138.232 115.372 138.561 100.497 143.872 96.7285C147.157 114.719 151.88 123.156 154.239 129.74C150.023 134.072 144.476 135.123 137.598 132.893Z" fill="#181B5E"/>
<path fill-rule="evenodd" clip-rule="evenodd" d="M48.77 79.153C50.1079 75.1739 51.8031 71.324 53.8347 67.6503C56.4126 62.2709 59.8114 57.3251 63.9092 52.9902C76.2713 40.0927 94.4798 34.5946 118.535 36.4958C140.938 40.0912 155.615 53.1711 162.565 75.7355C164.466 90.4002 163.189 99.3433 158.733 102.565C158.428 102.782 158.108 102.976 157.774 103.144C158.039 95.5394 155.06 89.0953 148.836 83.8116C148.836 85.3903 150.018 87.4922 152.381 90.1174C146.349 89.8892 138.263 81.4025 128.121 64.6571C127.963 83.0785 121.872 94.6603 109.847 99.4026C111.672 96.1113 112.671 93.1151 112.845 90.4139C103.646 98.9463 99.9171 105.833 101.657 111.074C96.5589 111.074 94.4463 105.985 95.3193 95.8071C88.825 109.422 86.8995 124.286 89.5428 140.399C87.901 137.927 86.4328 135.345 85.1489 132.67C82.717 124.414 80.8616 116 79.596 107.488C79.0272 100.151 73.6492 97.1729 63.4621 98.5539C56.0476 101.611 52.4202 107.812 54.1632 116.426C45.9958 105.451 44.1981 93.0253 48.77 79.1485V79.153Z" fill="#ED7061"/>
<path fill-rule="evenodd" clip-rule="evenodd" d="M70.4569 184.256C112.699 204.405 147.563 212.618 192.182 215.105C192.666 216.93 193.049 219.471 193.446 221.557C194.103 223.382 194.756 224.751 195.271 226.357H14.8551C14.6269 198.474 21.7676 186.487 64.4751 181.363C67.9519 183.152 66.9573 182.591 70.4569 184.256Z" fill="#F9F9F9"/>
<path fill-rule="evenodd" clip-rule="evenodd" d="M14.8552 226.357C14.8552 226.357 12.478 248.714 24.7017 252.269C40.5345 256.877 160.275 253.825 169.962 253.227C185.571 252.269 195.253 251.155 197.129 240.907C197.927 236.532 195.253 226.348 195.253 226.348L14.8552 226.357Z" fill="#F9F9F9"/>
</svg>
