<svg width="434" height="869" viewBox="0 0 434 869" fill="none" xmlns="http://www.w3.org/2000/svg">
    <path d="M31 20H413V63H31V20Z" fill="white"/>
    <g opacity="0.8">
        <rect opacity="0.35" x="375.146" y="38.3525" width="17.7126" height="8.24812" rx="2.16667" stroke="black"/>
        <path opacity="0.4" d="M394.208 40.8447V44.1088C394.893 43.8323 395.338 43.1892 395.338 42.4767C395.338 41.7643 394.893 41.1212 394.208 40.8447" fill="black"/>
        <rect x="376.347" y="39.4844" width="15.3103" height="5.98407" rx="1.33333" fill="black"/>
    </g>
    <path opacity="0.8" fill-rule="evenodd" clip-rule="evenodd" d="M363.871 39.7157C365.764 39.7158 367.584 40.4128 368.955 41.6626C369.058 41.759 369.223 41.7578 369.325 41.6598L370.312 40.7048C370.364 40.6551 370.393 40.5878 370.392 40.5177C370.392 40.4477 370.362 40.3807 370.31 40.3316C366.711 37.0249 361.032 37.0249 357.432 40.3316C357.38 40.3806 357.351 40.4476 357.35 40.5177C357.35 40.5877 357.378 40.6551 357.43 40.7048L358.417 41.6598C358.519 41.758 358.684 41.7592 358.787 41.6626C360.159 40.4127 361.979 39.7157 363.871 39.7157ZM363.871 42.8225C364.911 42.8225 365.914 43.1929 366.684 43.8618C366.789 43.9568 366.953 43.9547 367.054 43.8572L368.041 42.9022C368.092 42.8521 368.121 42.7841 368.12 42.7135C368.12 42.6429 368.09 42.5755 368.037 42.5265C365.69 40.4339 362.055 40.4339 359.708 42.5265C359.655 42.5755 359.625 42.6429 359.624 42.7136C359.624 42.7842 359.653 42.8522 359.705 42.9022L360.69 43.8572C360.792 43.9547 360.956 43.9568 361.06 43.8618C361.831 43.1933 362.832 42.8229 363.871 42.8225ZM365.847 44.9134C365.848 44.9842 365.819 45.0525 365.767 45.1021L364.061 46.7521C364.011 46.8006 363.943 46.8279 363.872 46.8279C363.8 46.8279 363.732 46.8006 363.682 46.7521L361.976 45.1021C361.924 45.0525 361.895 44.9842 361.896 44.9134C361.898 44.8426 361.93 44.7755 361.985 44.728C363.074 43.8449 364.669 43.8449 365.759 44.728C365.813 44.7755 365.845 44.8426 365.847 44.9134Z" fill="black"/>
    <path opacity="0.8" fill-rule="evenodd" clip-rule="evenodd" d="M352.246 38.125H351.396C350.926 38.125 350.545 38.4903 350.545 38.941V46.0131C350.545 46.4638 350.926 46.8291 351.396 46.8291H352.246C352.716 46.8291 353.097 46.4638 353.097 46.0131V38.941C353.097 38.4903 352.716 38.125 352.246 38.125ZM347.427 40.0288H348.277C348.747 40.0288 349.128 40.3941 349.128 40.8448V46.0128C349.128 46.4635 348.747 46.8288 348.277 46.8288H347.427C346.957 46.8288 346.576 46.4635 346.576 46.0128V40.8448C346.576 40.3941 346.957 40.0288 347.427 40.0288ZM344.308 41.9333H343.457C342.987 41.9333 342.606 42.2987 342.606 42.7493V46.0134C342.606 46.464 342.987 46.8294 343.457 46.8294H344.308C344.777 46.8294 345.158 46.464 345.158 46.0134V42.7493C345.158 42.2987 344.777 41.9333 344.308 41.9333ZM340.338 43.5653H339.488C339.018 43.5653 338.637 43.9307 338.637 44.3814V46.0134C338.637 46.464 339.018 46.8294 339.488 46.8294H340.338C340.808 46.8294 341.189 46.464 341.189 46.0134V44.3814C341.189 43.9307 340.808 43.5653 340.338 43.5653Z" fill="black"/>
    <g opacity="0.8">
        <path d="M63.0833 45.9775C65.2337 45.9775 66.5111 44.2959 66.5111 41.4482C66.5111 38.6533 65.1517 37.1064 63.1302 37.1064C61.2904 37.1064 59.9896 38.3428 59.9896 40.0771C59.9896 41.7002 61.1614 42.8838 62.7728 42.8838C63.763 42.8838 64.5657 42.4268 64.9642 41.624H65.0638C65.0462 43.5811 64.3372 44.7119 63.1009 44.7119C62.3743 44.7119 61.7943 44.3193 61.6126 43.6865H60.1068C60.3529 45.0693 61.5364 45.9775 63.0833 45.9775ZM63.1361 41.6885C62.1517 41.6885 61.472 41.0088 61.472 40.0303C61.472 39.0869 62.1868 38.3662 63.1419 38.3662C64.097 38.3662 64.8118 39.0986 64.8118 40.0596C64.8118 41.0029 64.1146 41.6885 63.1361 41.6885ZM68.9839 45.8955C69.5406 45.8955 69.9214 45.4971 69.9214 44.9697C69.9214 44.4365 69.5406 44.0439 68.9839 44.0439C68.4332 44.0439 68.0464 44.4365 68.0464 44.9697C68.0464 45.4971 68.4332 45.8955 68.9839 45.8955ZM68.9839 41.6182C69.5406 41.6182 69.9214 41.2256 69.9214 40.6982C69.9214 40.165 69.5406 39.7725 68.9839 39.7725C68.4332 39.7725 68.0464 40.165 68.0464 40.6982C68.0464 41.2256 68.4332 41.6182 68.9839 41.6182ZM75.4061 45.7725H76.8533V44.1611H77.9959V42.8838H76.8533V37.3174H74.7205C73.5721 39.0635 72.3709 40.9912 71.2752 42.9014V44.1611H75.4061V45.7725ZM72.6756 42.8369C73.5018 41.4131 74.4803 39.8604 75.3475 38.5479H75.4295V42.9189H72.6756V42.8369ZM81.2188 45.7725H82.7305V37.3174H81.2246L79.0157 38.8643V40.3174L81.1192 38.8408H81.2188V45.7725Z" fill="black"/>
    </g>
    <rect x="29" y="60" width="390" height="49" fill="white"/>
    <path d="M107.24 87.296C107.016 87.8933 106.696 88.4107 106.28 88.848C105.864 89.2747 105.373 89.6 104.808 89.824C104.253 90.048 103.645 90.16 102.984 90.16C101.981 90.16 101.112 89.9413 100.376 89.504C99.6507 89.056 99.0853 88.4267 98.68 87.616C98.2853 86.8053 98.088 85.84 98.088 84.72C98.088 83.6 98.2853 82.6347 98.68 81.824C99.0853 81.0133 99.6507 80.3893 100.376 79.952C101.112 79.504 101.971 79.28 102.952 79.28C103.635 79.28 104.243 79.376 104.776 79.568C105.309 79.7493 105.763 80.0267 106.136 80.4C106.52 80.7627 106.824 81.2107 107.048 81.744L105.784 82.336C105.549 81.728 105.208 81.2693 104.76 80.96C104.323 80.64 103.752 80.48 103.048 80.48C102.333 80.48 101.704 80.6507 101.16 80.992C100.616 81.3227 100.189 81.8027 99.88 82.432C99.5813 83.0613 99.432 83.824 99.432 84.72C99.432 85.6053 99.576 86.368 99.864 87.008C100.152 87.6373 100.563 88.1227 101.096 88.464C101.629 88.7947 102.259 88.96 102.984 88.96C103.688 88.96 104.301 88.784 104.824 88.432C105.347 88.0693 105.725 87.5307 105.96 86.816L107.24 87.296ZM109.023 90V82H110.063L110.239 83.312C110.463 82.8213 110.788 82.4533 111.215 82.208C111.652 81.9627 112.18 81.84 112.799 81.84C112.937 81.84 113.087 81.8507 113.247 81.872C113.417 81.8933 113.561 81.936 113.679 82L113.455 83.168C113.337 83.1253 113.209 83.0933 113.071 83.072C112.932 83.0507 112.735 83.04 112.479 83.04C112.148 83.04 111.812 83.136 111.471 83.328C111.14 83.52 110.863 83.8133 110.639 84.208C110.415 84.592 110.303 85.0827 110.303 85.68V90H109.023ZM118.214 90.16C117.456 90.16 116.779 89.9947 116.182 89.664C115.595 89.3333 115.136 88.8587 114.806 88.24C114.475 87.6107 114.31 86.864 114.31 86C114.31 85.136 114.475 84.3947 114.806 83.776C115.136 83.1467 115.59 82.6667 116.166 82.336C116.742 82.0053 117.398 81.84 118.134 81.84C118.88 81.84 119.515 82 120.038 82.32C120.571 82.64 120.976 83.0773 121.254 83.632C121.531 84.176 121.67 84.7893 121.67 85.472C121.67 85.6533 121.664 85.8187 121.654 85.968C121.643 86.1173 121.627 86.2507 121.606 86.368H115.142V85.232H121.046L120.39 85.36C120.39 84.592 120.176 84 119.75 83.584C119.334 83.168 118.784 82.96 118.102 82.96C117.579 82.96 117.126 83.0827 116.742 83.328C116.368 83.5627 116.075 83.9093 115.862 84.368C115.659 84.816 115.558 85.36 115.558 86C115.558 86.6293 115.664 87.1733 115.878 87.632C116.091 88.0907 116.39 88.4427 116.774 88.688C117.168 88.9227 117.638 89.04 118.182 89.04C118.768 89.04 119.243 88.928 119.606 88.704C119.979 88.48 120.278 88.176 120.502 87.792L121.51 88.384C121.307 88.7467 121.046 89.0613 120.726 89.328C120.416 89.5947 120.048 89.8027 119.622 89.952C119.206 90.0907 118.736 90.16 118.214 90.16ZM126.79 90.16C126.129 90.16 125.521 89.9947 124.966 89.664C124.411 89.3333 123.969 88.8587 123.638 88.24C123.307 87.6107 123.142 86.864 123.142 86C123.142 85.1147 123.318 84.3627 123.67 83.744C124.022 83.1253 124.486 82.656 125.062 82.336C125.638 82.0053 126.257 81.84 126.918 81.84C127.579 81.84 128.15 82.0107 128.63 82.352C129.121 82.6933 129.446 83.1467 129.606 83.712L129.446 83.824V78.32H130.726V90H129.606L129.494 88.064L129.67 87.968C129.595 88.4373 129.414 88.8373 129.126 89.168C128.849 89.488 128.502 89.7333 128.086 89.904C127.681 90.0747 127.249 90.16 126.79 90.16ZM126.918 89.04C127.43 89.04 127.873 88.912 128.246 88.656C128.63 88.4 128.923 88.0373 129.126 87.568C129.339 87.088 129.446 86.528 129.446 85.888C129.446 85.28 129.339 84.7573 129.126 84.32C128.923 83.8827 128.635 83.5467 128.262 83.312C127.899 83.0773 127.473 82.96 126.982 82.96C126.171 82.96 125.542 83.2373 125.094 83.792C124.646 84.3467 124.422 85.0827 124.422 86C124.422 86.9173 124.641 87.6533 125.078 88.208C125.515 88.7627 126.129 89.04 126.918 89.04ZM136.611 90.16C135.854 90.16 135.176 89.9947 134.579 89.664C133.992 89.3333 133.534 88.8587 133.203 88.24C132.872 87.6107 132.707 86.864 132.707 86C132.707 85.136 132.872 84.3947 133.203 83.776C133.534 83.1467 133.987 82.6667 134.563 82.336C135.139 82.0053 135.795 81.84 136.531 81.84C137.278 81.84 137.912 82 138.435 82.32C138.968 82.64 139.374 83.0773 139.651 83.632C139.928 84.176 140.067 84.7893 140.067 85.472C140.067 85.6533 140.062 85.8187 140.051 85.968C140.04 86.1173 140.024 86.2507 140.003 86.368H133.539V85.232H139.443L138.787 85.36C138.787 84.592 138.574 84 138.147 83.584C137.731 83.168 137.182 82.96 136.499 82.96C135.976 82.96 135.523 83.0827 135.139 83.328C134.766 83.5627 134.472 83.9093 134.259 84.368C134.056 84.816 133.955 85.36 133.955 86C133.955 86.6293 134.062 87.1733 134.275 87.632C134.488 88.0907 134.787 88.4427 135.171 88.688C135.566 88.9227 136.035 89.04 136.579 89.04C137.166 89.04 137.64 88.928 138.003 88.704C138.376 88.48 138.675 88.176 138.899 87.792L139.907 88.384C139.704 88.7467 139.443 89.0613 139.123 89.328C138.814 89.5947 138.446 89.8027 138.019 89.952C137.603 90.0907 137.134 90.16 136.611 90.16ZM142.067 90V82H143.187L143.299 83.792L143.091 83.616C143.262 83.1893 143.491 82.848 143.779 82.592C144.067 82.3253 144.398 82.1333 144.771 82.016C145.155 81.8987 145.55 81.84 145.955 81.84C146.531 81.84 147.054 81.952 147.523 82.176C147.993 82.3893 148.366 82.72 148.643 83.168C148.931 83.616 149.075 84.1867 149.075 84.88V90H147.795V85.328C147.795 84.4427 147.603 83.8293 147.219 83.488C146.846 83.136 146.382 82.96 145.827 82.96C145.443 82.96 145.059 83.0507 144.675 83.232C144.291 83.4133 143.971 83.7067 143.715 84.112C143.47 84.5173 143.347 85.0613 143.347 85.744V90H142.067ZM153.318 79.728V87.792C153.318 88.1867 153.43 88.48 153.654 88.672C153.878 88.864 154.166 88.96 154.518 88.96C154.828 88.96 155.094 88.9067 155.318 88.8C155.542 88.6933 155.745 88.5493 155.926 88.368L156.374 89.44C156.129 89.664 155.836 89.84 155.494 89.968C155.164 90.096 154.78 90.16 154.342 90.16C153.937 90.16 153.558 90.0907 153.206 89.952C152.854 89.8027 152.572 89.5733 152.358 89.264C152.156 88.944 152.049 88.528 152.038 88.016V80.08L153.318 79.728ZM156.23 82V83.104H150.438V82H156.23ZM158.339 80.464C158.051 80.464 157.817 80.3787 157.635 80.208C157.465 80.0267 157.379 79.792 157.379 79.504C157.379 79.216 157.465 78.9867 157.635 78.816C157.817 78.6347 158.051 78.544 158.339 78.544C158.627 78.544 158.857 78.6347 159.027 78.816C159.209 78.9867 159.299 79.216 159.299 79.504C159.299 79.792 159.209 80.0267 159.027 80.208C158.857 80.3787 158.627 80.464 158.339 80.464ZM158.979 82V90H157.699V82H158.979ZM166.187 84.832C166.187 84.2347 166.027 83.776 165.707 83.456C165.387 83.1253 164.934 82.96 164.347 82.96C163.792 82.96 163.323 83.0827 162.939 83.328C162.555 83.5627 162.272 83.9467 162.091 84.48L161.051 83.84C161.264 83.2427 161.659 82.7627 162.235 82.4C162.811 82.0267 163.526 81.84 164.379 81.84C164.955 81.84 165.478 81.9413 165.947 82.144C166.416 82.336 166.784 82.6347 167.051 83.04C167.328 83.4347 167.467 83.9467 167.467 84.576V88.448C167.467 88.832 167.67 89.024 168.075 89.024C168.278 89.024 168.475 88.9973 168.667 88.944L168.603 89.952C168.39 90.0587 168.112 90.112 167.771 90.112C167.462 90.112 167.184 90.0533 166.939 89.936C166.694 89.8187 166.502 89.6427 166.363 89.408C166.224 89.1627 166.155 88.8587 166.155 88.496V88.336L166.475 88.384C166.347 88.8 166.128 89.1413 165.819 89.408C165.51 89.664 165.163 89.856 164.779 89.984C164.395 90.1013 164.016 90.16 163.643 90.16C163.174 90.16 162.736 90.08 162.331 89.92C161.926 89.76 161.6 89.52 161.355 89.2C161.12 88.8693 161.003 88.464 161.003 87.984C161.003 87.3867 161.2 86.896 161.595 86.512C162 86.1173 162.56 85.8507 163.275 85.712L166.443 85.088V86.144L163.867 86.672C163.344 86.7787 162.955 86.928 162.699 87.12C162.443 87.312 162.315 87.5787 162.315 87.92C162.315 88.2507 162.443 88.5227 162.699 88.736C162.966 88.9387 163.339 89.04 163.819 89.04C164.128 89.04 164.422 89.0027 164.699 88.928C164.987 88.8427 165.243 88.72 165.467 88.56C165.691 88.3893 165.867 88.1813 165.995 87.936C166.123 87.68 166.187 87.3813 166.187 87.04V84.832ZM171.359 78.32V87.968C171.359 88.3733 171.434 88.656 171.583 88.816C171.733 88.9653 171.973 89.04 172.303 89.04C172.517 89.04 172.693 89.024 172.831 88.992C172.97 88.96 173.157 88.9013 173.391 88.816L173.183 89.936C173.013 90.0107 172.826 90.064 172.623 90.096C172.421 90.1387 172.213 90.16 171.999 90.16C171.349 90.16 170.863 89.984 170.543 89.632C170.234 89.28 170.079 88.7413 170.079 88.016V78.32H171.359ZM177.48 90.16C176.701 90.16 175.981 89.9947 175.32 89.664C174.669 89.3333 174.168 88.864 173.816 88.256L174.904 87.472C175.139 87.9627 175.48 88.3467 175.928 88.624C176.387 88.9013 176.936 89.04 177.576 89.04C178.141 89.04 178.584 88.9333 178.904 88.72C179.224 88.496 179.384 88.208 179.384 87.856C179.384 87.632 179.309 87.4293 179.16 87.248C179.021 87.056 178.749 86.9173 178.344 86.832L176.424 86.432C175.645 86.272 175.085 86.0053 174.744 85.632C174.413 85.2587 174.248 84.7947 174.248 84.24C174.248 83.8027 174.371 83.4027 174.616 83.04C174.872 82.6773 175.229 82.3893 175.688 82.176C176.157 81.952 176.707 81.84 177.336 81.84C178.125 81.84 178.792 81.9947 179.336 82.304C179.88 82.6133 180.285 83.0507 180.552 83.616L179.48 84.32C179.299 83.8507 179.005 83.5093 178.6 83.296C178.195 83.072 177.773 82.96 177.336 82.96C176.952 82.96 176.621 83.0133 176.344 83.12C176.077 83.2267 175.869 83.376 175.72 83.568C175.581 83.7493 175.512 83.9573 175.512 84.192C175.512 84.4267 175.592 84.6453 175.752 84.848C175.912 85.04 176.211 85.1787 176.648 85.264L178.648 85.68C179.395 85.8293 179.917 86.0747 180.216 86.416C180.515 86.7573 180.664 87.1733 180.664 87.664C180.664 88.1653 180.531 88.608 180.264 88.992C179.997 89.3653 179.624 89.6533 179.144 89.856C178.664 90.0587 178.109 90.16 177.48 90.16Z" fill="#232323"/>
    <path fill-rule="evenodd" clip-rule="evenodd" d="M75.7916 95.0947H54.2084C52.6626 95.0947 51.4058 93.8378 51.4058 92.292V77.7089C51.4058 76.1631 52.6626 74.9062 54.2084 74.9062H75.7916C77.3373 74.9062 78.5942 76.1631 78.5942 77.7089V92.292C78.5942 93.8378 77.3373 95.0947 75.7916 95.0947ZM54.2084 75.8447C53.1804 75.8447 52.3442 76.6809 52.3442 77.7089V92.292C52.3442 93.32 53.1804 94.1562 54.2084 94.1562H75.7916C76.8195 94.1562 77.6558 93.32 77.6558 92.292V77.7089C77.6558 76.6809 76.8195 75.8447 75.7916 75.8447H54.2084Z" fill="black"/>
    <path fill-rule="evenodd" clip-rule="evenodd" d="M59.7501 84.5951C58.3665 84.5951 57.2393 83.4677 57.2393 82.0843C57.2393 80.7006 58.3665 79.5732 59.7501 79.5732C61.1336 79.5732 62.2609 80.7006 62.2609 82.0843C62.2609 83.4677 61.1336 84.5951 59.7501 84.5951ZM59.7501 80.5116C58.8831 80.5116 58.1777 81.2172 58.1777 82.0843C58.1777 82.9512 58.8831 83.6566 59.7501 83.6566C60.617 83.6566 61.3225 82.9512 61.3225 82.0843C61.3225 81.2172 60.617 80.5116 59.7501 80.5116Z" fill="black"/>
    <path fill-rule="evenodd" clip-rule="evenodd" d="M64.125 90.4285C63.8661 90.4285 63.6558 90.2181 63.6558 89.9593V89.3758C63.6558 88.3479 62.8195 87.5116 61.7916 87.5116H57.7084C56.6804 87.5116 55.8442 88.3479 55.8442 89.3758V89.9593C55.8442 90.2181 55.6339 90.4285 55.375 90.4285C55.1161 90.4285 54.9058 90.2181 54.9058 89.9593V89.3758C54.9058 87.8301 56.1626 86.5732 57.7084 86.5732H61.7916C63.3373 86.5732 64.5942 87.8301 64.5942 89.3758V89.9593C64.5942 90.2181 64.3839 90.4285 64.125 90.4285Z" fill="black"/>
    <path fill-rule="evenodd" clip-rule="evenodd" d="M74.6251 81.0947H68.2085C67.9496 81.0947 67.7393 80.8843 67.7393 80.6255C67.7393 80.3666 67.9496 80.1562 68.2085 80.1562H74.6251C74.8839 80.1562 75.0943 80.3666 75.0943 80.6255C75.0943 80.8843 74.8839 81.0947 74.6251 81.0947Z" fill="black"/>
    <path fill-rule="evenodd" clip-rule="evenodd" d="M74.6251 85.7616H68.2085C67.9496 85.7616 67.7393 85.5513 67.7393 85.2924C67.7393 85.0336 67.9496 84.8232 68.2085 84.8232H74.6251C74.8839 84.8232 75.0943 85.0336 75.0943 85.2924C75.0943 85.5513 74.8839 85.7616 74.6251 85.7616Z" fill="black"/>
    <path fill-rule="evenodd" clip-rule="evenodd" d="M74.6251 90.4277H68.2085C67.9496 90.4277 67.7393 90.2173 67.7393 89.9585C67.7393 89.6996 67.9496 89.4893 68.2085 89.4893H74.6251C74.8839 89.4893 75.0943 89.6996 75.0943 89.9585C75.0943 90.2173 74.8839 90.4277 74.6251 90.4277Z" fill="black"/>
    <g filter="url(#filter0_d)">
        <rect x="30" y="770" width="383" height="80" fill="white"/>
        <g opacity="0.5">
            <path d="M308.893 818.908C308.517 818.356 307.969 818.08 307.249 818.08C307.025 818.08 306.805 818.112 306.589 818.176C306.373 818.232 306.177 818.324 306.001 818.452C305.833 818.572 305.697 818.732 305.593 818.932C305.489 819.124 305.437 819.352 305.437 819.616C305.437 820 305.545 820.3 305.761 820.516C305.977 820.724 306.245 820.896 306.565 821.032C306.885 821.168 307.233 821.292 307.609 821.404C307.993 821.508 308.345 821.652 308.665 821.836C308.985 822.012 309.253 822.248 309.469 822.544C309.685 822.84 309.793 823.244 309.793 823.756C309.793 824.14 309.709 824.488 309.541 824.8C309.381 825.104 309.165 825.36 308.893 825.568C308.629 825.776 308.329 825.936 307.993 826.048C307.665 826.16 307.333 826.216 306.997 826.216C306.477 826.216 305.981 826.12 305.509 825.928C305.045 825.728 304.649 825.404 304.321 824.956L305.101 824.392C305.285 824.704 305.541 824.956 305.869 825.148C306.197 825.332 306.585 825.424 307.033 825.424C307.249 825.424 307.465 825.392 307.681 825.328C307.897 825.256 308.089 825.156 308.257 825.028C308.433 824.892 308.577 824.728 308.689 824.536C308.801 824.344 308.857 824.124 308.857 823.876C308.857 823.58 308.793 823.336 308.665 823.144C308.545 822.944 308.381 822.78 308.173 822.652C307.973 822.516 307.741 822.404 307.477 822.316C307.221 822.228 306.953 822.14 306.673 822.052C306.401 821.964 306.133 821.864 305.869 821.752C305.613 821.64 305.381 821.5 305.173 821.332C304.973 821.156 304.809 820.94 304.681 820.684C304.561 820.42 304.501 820.092 304.501 819.7C304.501 819.292 304.577 818.936 304.729 818.632C304.889 818.328 305.097 818.076 305.353 817.876C305.617 817.676 305.913 817.528 306.241 817.432C306.569 817.336 306.905 817.288 307.249 817.288C307.729 817.288 308.165 817.364 308.557 817.516C308.949 817.668 309.313 817.936 309.649 818.32L308.893 818.908ZM315.621 822.76C315.621 822.224 315.461 821.792 315.141 821.464C314.821 821.128 314.373 820.96 313.797 820.96C313.541 820.96 313.293 821.012 313.053 821.116C312.813 821.212 312.601 821.344 312.417 821.512C312.241 821.68 312.097 821.872 311.985 822.088C311.881 822.304 311.829 822.528 311.829 822.76H315.621ZM311.805 823.408C311.829 823.688 311.897 823.952 312.009 824.2C312.121 824.448 312.269 824.664 312.453 824.848C312.637 825.024 312.849 825.164 313.089 825.268C313.329 825.372 313.589 825.424 313.869 825.424C314.293 825.424 314.657 825.328 314.961 825.136C315.273 824.936 315.509 824.708 315.669 824.452L316.281 824.956C315.945 825.38 315.573 825.684 315.165 825.868C314.765 826.052 314.333 826.144 313.869 826.144C313.453 826.144 313.065 826.072 312.705 825.928C312.353 825.776 312.049 825.568 311.793 825.304C311.537 825.04 311.333 824.728 311.181 824.368C311.037 824.008 310.965 823.616 310.965 823.192C310.965 822.768 311.037 822.376 311.181 822.016C311.325 821.656 311.525 821.344 311.781 821.08C312.037 820.816 312.337 820.612 312.681 820.468C313.025 820.316 313.397 820.24 313.797 820.24C314.221 820.24 314.601 820.316 314.937 820.468C315.273 820.62 315.553 820.824 315.777 821.08C316.009 821.328 316.185 821.624 316.305 821.968C316.425 822.304 316.485 822.664 316.485 823.048V823.408H311.805ZM318.005 822.136C318.005 821.888 317.997 821.636 317.981 821.38C317.973 821.124 317.965 820.792 317.957 820.384H318.737V821.428H318.761C318.817 821.276 318.897 821.132 319.001 820.996C319.105 820.852 319.229 820.724 319.373 820.612C319.525 820.5 319.697 820.412 319.889 820.348C320.089 820.276 320.313 820.24 320.561 820.24C320.785 820.24 320.981 820.264 321.149 820.312L320.993 821.092C320.889 821.052 320.737 821.032 320.537 821.032C320.233 821.032 319.973 821.092 319.757 821.212C319.541 821.324 319.361 821.472 319.217 821.656C319.073 821.832 318.965 822.024 318.893 822.232C318.829 822.44 318.797 822.64 318.797 822.832V826H318.005V822.136ZM324.377 826H323.489L321.209 820.384H322.157L323.945 825.112H323.969L325.757 820.384H326.657L324.377 826ZM328.846 818.224C328.846 818.392 328.786 818.532 328.666 818.644C328.546 818.748 328.414 818.8 328.27 818.8C328.126 818.8 327.994 818.748 327.874 818.644C327.754 818.532 327.694 818.392 327.694 818.224C327.694 818.056 327.754 817.92 327.874 817.816C327.994 817.704 328.126 817.648 328.27 817.648C328.414 817.648 328.546 817.704 328.666 817.816C328.786 817.92 328.846 818.056 328.846 818.224ZM328.666 826H327.874V820.384H328.666V826ZM334.669 821.704C334.533 821.496 334.341 821.32 334.093 821.176C333.853 821.032 333.577 820.96 333.265 820.96C332.937 820.952 332.641 821.004 332.377 821.116C332.121 821.228 331.901 821.384 331.717 821.584C331.533 821.784 331.393 822.024 331.297 822.304C331.201 822.576 331.153 822.872 331.153 823.192C331.153 823.512 331.201 823.812 331.297 824.092C331.393 824.364 331.533 824.6 331.717 824.8C331.901 825 332.121 825.156 332.377 825.268C332.641 825.38 332.937 825.432 333.265 825.424C333.577 825.424 333.853 825.352 334.093 825.208C334.341 825.064 334.533 824.888 334.669 824.68L335.317 825.172C335.037 825.5 334.721 825.744 334.369 825.904C334.017 826.056 333.649 826.136 333.265 826.144C332.809 826.152 332.397 826.084 332.029 825.94C331.661 825.788 331.345 825.58 331.081 825.316C330.825 825.052 330.629 824.74 330.493 824.38C330.357 824.012 330.289 823.616 330.289 823.192C330.289 822.768 330.357 822.376 330.493 822.016C330.629 821.648 330.825 821.332 331.081 821.068C331.345 820.804 331.661 820.6 332.029 820.456C332.397 820.304 332.809 820.232 333.265 820.24C333.649 820.248 334.017 820.332 334.369 820.492C334.721 820.644 335.037 820.884 335.317 821.212L334.669 821.704ZM340.734 822.76C340.734 822.224 340.574 821.792 340.254 821.464C339.934 821.128 339.486 820.96 338.91 820.96C338.654 820.96 338.406 821.012 338.166 821.116C337.926 821.212 337.714 821.344 337.53 821.512C337.354 821.68 337.21 821.872 337.098 822.088C336.994 822.304 336.942 822.528 336.942 822.76H340.734ZM336.918 823.408C336.942 823.688 337.01 823.952 337.122 824.2C337.234 824.448 337.382 824.664 337.566 824.848C337.75 825.024 337.962 825.164 338.202 825.268C338.442 825.372 338.702 825.424 338.982 825.424C339.406 825.424 339.77 825.328 340.074 825.136C340.386 824.936 340.622 824.708 340.782 824.452L341.394 824.956C341.058 825.38 340.686 825.684 340.278 825.868C339.878 826.052 339.446 826.144 338.982 826.144C338.566 826.144 338.178 826.072 337.818 825.928C337.466 825.776 337.162 825.568 336.906 825.304C336.65 825.04 336.446 824.728 336.294 824.368C336.15 824.008 336.078 823.616 336.078 823.192C336.078 822.768 336.15 822.376 336.294 822.016C336.438 821.656 336.638 821.344 336.894 821.08C337.15 820.816 337.45 820.612 337.794 820.468C338.138 820.316 338.51 820.24 338.91 820.24C339.334 820.24 339.714 820.316 340.05 820.468C340.386 820.62 340.666 820.824 340.89 821.08C341.122 821.328 341.298 821.624 341.418 821.968C341.538 822.304 341.598 822.664 341.598 823.048V823.408H336.918ZM346.01 821.716C345.89 821.484 345.73 821.3 345.53 821.164C345.33 821.028 345.086 820.96 344.798 820.96C344.662 820.96 344.522 820.976 344.378 821.008C344.242 821.04 344.118 821.092 344.006 821.164C343.894 821.228 343.802 821.312 343.73 821.416C343.666 821.52 343.634 821.648 343.634 821.8C343.634 822.064 343.726 822.256 343.91 822.376C344.094 822.496 344.37 822.6 344.738 822.688L345.542 822.88C345.934 822.968 346.258 823.148 346.514 823.42C346.778 823.684 346.91 824.016 346.91 824.416C346.91 824.72 346.846 824.984 346.718 825.208C346.598 825.424 346.434 825.604 346.226 825.748C346.026 825.884 345.794 825.984 345.53 826.048C345.266 826.112 344.998 826.144 344.726 826.144C344.294 826.144 343.89 826.064 343.514 825.904C343.146 825.736 342.83 825.452 342.566 825.052L343.25 824.584C343.41 824.84 343.61 825.044 343.85 825.196C344.098 825.348 344.39 825.424 344.726 825.424C344.886 825.424 345.046 825.408 345.206 825.376C345.366 825.336 345.506 825.28 345.626 825.208C345.754 825.128 345.854 825.028 345.926 824.908C346.006 824.788 346.046 824.648 346.046 824.488C346.046 824.208 345.942 824.008 345.734 823.888C345.526 823.76 345.274 823.66 344.978 823.588L344.21 823.408C344.114 823.384 343.982 823.344 343.814 823.288C343.654 823.232 343.494 823.148 343.334 823.036C343.182 822.924 343.05 822.78 342.938 822.604C342.826 822.42 342.77 822.196 342.77 821.932C342.77 821.644 342.826 821.392 342.938 821.176C343.058 820.96 343.214 820.784 343.406 820.648C343.606 820.512 343.83 820.412 344.078 820.348C344.326 820.276 344.582 820.24 344.846 820.24C345.238 820.24 345.602 820.316 345.938 820.468C346.274 820.62 346.534 820.88 346.718 821.248L346.01 821.716Z" fill="#212121"/>
            <path fill-rule="evenodd" clip-rule="evenodd" d="M335.331 792.655C335.331 790.781 333.78 789.25 331.866 789.25C329.952 789.25 328.401 790.781 328.401 792.655C328.401 794.327 329.636 795.727 331.264 796.008L331.471 796.044V798.014L331.252 798.041C329.765 798.225 328.484 799.068 327.723 800.261L327.597 800.459L325.015 799.038L325.092 798.835C325.254 798.408 325.343 797.947 325.343 797.465C325.343 795.302 323.551 793.534 321.341 793.534C319.13 793.534 317.338 795.302 317.338 797.465C317.338 799.058 318.308 800.436 319.704 801.053L319.909 801.144L318.567 805.338L318.362 805.313C318.252 805.3 318.139 805.293 318.025 805.293C316.491 805.293 315.25 806.521 315.25 808.022C315.25 809.522 316.491 810.75 318.025 810.75C319.559 810.75 320.8 809.522 320.8 808.022C320.8 807.044 320.274 806.182 319.481 805.7L319.313 805.597L320.672 801.347L320.876 801.37C321.029 801.388 321.184 801.397 321.341 801.397C322.619 801.397 323.758 800.805 324.491 799.887L324.623 799.722L327.265 801.176L327.203 801.372C327.059 801.823 326.982 802.302 326.982 802.799C326.982 805.44 329.169 807.595 331.866 807.595C334.563 807.595 336.75 805.44 336.75 802.799C336.75 800.363 334.887 798.339 332.48 798.041L332.26 798.014V796.044L332.468 796.008C334.096 795.727 335.331 794.327 335.331 792.655ZM331.866 790.039C333.336 790.039 334.542 791.206 334.542 792.655C334.542 794.103 333.336 795.271 331.866 795.271C330.396 795.271 329.19 794.103 329.19 792.655C329.19 791.206 330.396 790.039 331.866 790.039ZM321.341 794.323C323.107 794.323 324.554 795.727 324.554 797.465C324.554 799.204 323.107 800.608 321.341 800.608C319.574 800.608 318.127 799.204 318.127 797.465C318.127 795.727 319.574 794.323 321.341 794.323ZM331.866 798.792C334.119 798.792 335.961 800.584 335.961 802.799C335.961 805.014 334.119 806.806 331.866 806.806C329.613 806.806 327.771 805.014 327.771 802.799C327.771 800.584 329.613 798.792 331.866 798.792ZM318.025 806.082C319.114 806.082 320.011 806.946 320.011 808.022C320.011 809.098 319.114 809.961 318.025 809.961C316.936 809.961 316.039 809.098 316.039 808.022C316.039 806.946 316.936 806.082 318.025 806.082Z" fill="#212121"/>
        </g>
        <path d="M84.346 825.972C84.178 826.42 83.938 826.808 83.626 827.136C83.314 827.456 82.946 827.7 82.522 827.868C82.106 828.036 81.65 828.12 81.154 828.12C80.402 828.12 79.75 827.956 79.198 827.628C78.654 827.292 78.23 826.82 77.926 826.212C77.63 825.604 77.482 824.88 77.482 824.04C77.482 823.2 77.63 822.476 77.926 821.868C78.23 821.26 78.654 820.792 79.198 820.464C79.75 820.128 80.394 819.96 81.13 819.96C81.642 819.96 82.098 820.032 82.498 820.176C82.898 820.312 83.238 820.52 83.518 820.8C83.806 821.072 84.034 821.408 84.202 821.808L83.254 822.252C83.078 821.796 82.822 821.452 82.486 821.22C82.158 820.98 81.73 820.86 81.202 820.86C80.666 820.86 80.194 820.988 79.786 821.244C79.378 821.492 79.058 821.852 78.826 822.324C78.602 822.796 78.49 823.368 78.49 824.04C78.49 824.704 78.598 825.276 78.814 825.756C79.03 826.228 79.338 826.592 79.738 826.848C80.138 827.096 80.61 827.22 81.154 827.22C81.682 827.22 82.142 827.088 82.534 826.824C82.926 826.552 83.21 826.148 83.386 825.612L84.346 825.972ZM86.0086 828V822H86.7886L86.9206 822.984C87.0886 822.616 87.3326 822.34 87.6526 822.156C87.9806 821.972 88.3766 821.88 88.8406 821.88C88.9446 821.88 89.0566 821.888 89.1766 821.904C89.3046 821.92 89.4126 821.952 89.5006 822L89.3326 822.876C89.2446 822.844 89.1486 822.82 89.0446 822.804C88.9406 822.788 88.7926 822.78 88.6006 822.78C88.3526 822.78 88.1006 822.852 87.8446 822.996C87.5966 823.14 87.3886 823.36 87.2206 823.656C87.0526 823.944 86.9686 824.312 86.9686 824.76V828H86.0086ZM93.2275 828.12C92.6595 828.12 92.1515 827.996 91.7035 827.748C91.2635 827.5 90.9195 827.144 90.6715 826.68C90.4235 826.208 90.2995 825.648 90.2995 825C90.2995 824.352 90.4235 823.796 90.6715 823.332C90.9195 822.86 91.2595 822.5 91.6915 822.252C92.1235 822.004 92.6155 821.88 93.1675 821.88C93.7275 821.88 94.2035 822 94.5955 822.24C94.9955 822.48 95.2995 822.808 95.5075 823.224C95.7155 823.632 95.8195 824.092 95.8195 824.604C95.8195 824.74 95.8155 824.864 95.8075 824.976C95.7995 825.088 95.7875 825.188 95.7715 825.276H90.9235V824.424H95.3515L94.8595 824.52C94.8595 823.944 94.6995 823.5 94.3795 823.188C94.0675 822.876 93.6555 822.72 93.1435 822.72C92.7515 822.72 92.4115 822.812 92.1235 822.996C91.8435 823.172 91.6235 823.432 91.4635 823.776C91.3115 824.112 91.2355 824.52 91.2355 825C91.2355 825.472 91.3155 825.88 91.4755 826.224C91.6355 826.568 91.8595 826.832 92.1475 827.016C92.4435 827.192 92.7955 827.28 93.2035 827.28C93.6435 827.28 93.9995 827.196 94.2715 827.028C94.5515 826.86 94.7755 826.632 94.9435 826.344L95.6995 826.788C95.5475 827.06 95.3515 827.296 95.1115 827.496C94.8795 827.696 94.6035 827.852 94.2835 827.964C93.9715 828.068 93.6195 828.12 93.2275 828.12ZM99.9853 828.12C99.4893 828.12 99.0333 827.996 98.6173 827.748C98.2013 827.5 97.8693 827.144 97.6213 826.68C97.3733 826.208 97.2493 825.648 97.2493 825C97.2493 824.336 97.3813 823.772 97.6453 823.308C97.9093 822.844 98.2573 822.492 98.6893 822.252C99.1213 822.004 99.5853 821.88 100.081 821.88C100.577 821.88 101.005 822.008 101.365 822.264C101.733 822.52 101.977 822.86 102.097 823.284L101.977 823.368V819.24H102.937V828H102.097L102.013 826.548L102.145 826.476C102.089 826.828 101.953 827.128 101.737 827.376C101.529 827.616 101.269 827.8 100.957 827.928C100.653 828.056 100.329 828.12 99.9853 828.12ZM100.081 827.28C100.465 827.28 100.797 827.184 101.077 826.992C101.365 826.8 101.585 826.528 101.737 826.176C101.897 825.816 101.977 825.396 101.977 824.916C101.977 824.46 101.897 824.068 101.737 823.74C101.585 823.412 101.369 823.16 101.089 822.984C100.817 822.808 100.497 822.72 100.129 822.72C99.5213 822.72 99.0493 822.928 98.7133 823.344C98.3773 823.76 98.2093 824.312 98.2093 825C98.2093 825.688 98.3733 826.24 98.7013 826.656C99.0293 827.072 99.4893 827.28 100.081 827.28ZM107.677 828.12C107.109 828.12 106.601 827.996 106.153 827.748C105.713 827.5 105.369 827.144 105.121 826.68C104.873 826.208 104.749 825.648 104.749 825C104.749 824.352 104.873 823.796 105.121 823.332C105.369 822.86 105.709 822.5 106.141 822.252C106.573 822.004 107.065 821.88 107.617 821.88C108.177 821.88 108.653 822 109.045 822.24C109.445 822.48 109.749 822.808 109.957 823.224C110.165 823.632 110.269 824.092 110.269 824.604C110.269 824.74 110.265 824.864 110.257 824.976C110.249 825.088 110.237 825.188 110.221 825.276H105.373V824.424H109.801L109.309 824.52C109.309 823.944 109.149 823.5 108.829 823.188C108.517 822.876 108.105 822.72 107.593 822.72C107.201 822.72 106.861 822.812 106.573 822.996C106.293 823.172 106.073 823.432 105.913 823.776C105.761 824.112 105.685 824.52 105.685 825C105.685 825.472 105.765 825.88 105.925 826.224C106.085 826.568 106.309 826.832 106.597 827.016C106.893 827.192 107.245 827.28 107.653 827.28C108.093 827.28 108.449 827.196 108.721 827.028C109.001 826.86 109.225 826.632 109.393 826.344L110.149 826.788C109.997 827.06 109.801 827.296 109.561 827.496C109.329 827.696 109.053 827.852 108.733 827.964C108.421 828.068 108.069 828.12 107.677 828.12ZM112.095 828V822H112.935L113.019 823.344L112.863 823.212C112.991 822.892 113.163 822.636 113.379 822.444C113.595 822.244 113.843 822.1 114.123 822.012C114.411 821.924 114.707 821.88 115.011 821.88C115.443 821.88 115.835 821.964 116.187 822.132C116.539 822.292 116.819 822.54 117.027 822.876C117.243 823.212 117.351 823.64 117.351 824.16V828H116.391V824.496C116.391 823.832 116.247 823.372 115.959 823.116C115.679 822.852 115.331 822.72 114.915 822.72C114.627 822.72 114.339 822.788 114.051 822.924C113.763 823.06 113.523 823.28 113.331 823.584C113.147 823.888 113.055 824.296 113.055 824.808V828H112.095ZM120.858 820.296V826.344C120.858 826.64 120.942 826.86 121.11 827.004C121.278 827.148 121.494 827.22 121.758 827.22C121.99 827.22 122.19 827.18 122.358 827.1C122.526 827.02 122.678 826.912 122.814 826.776L123.15 827.58C122.966 827.748 122.746 827.88 122.49 827.976C122.242 828.072 121.954 828.12 121.626 828.12C121.322 828.12 121.038 828.068 120.774 827.964C120.51 827.852 120.298 827.68 120.138 827.448C119.986 827.208 119.906 826.896 119.898 826.512V820.56L120.858 820.296ZM123.042 822V822.828H118.698V822H123.042ZM124.95 820.848C124.734 820.848 124.558 820.784 124.422 820.656C124.294 820.52 124.23 820.344 124.23 820.128C124.23 819.912 124.294 819.74 124.422 819.612C124.558 819.476 124.734 819.408 124.95 819.408C125.166 819.408 125.338 819.476 125.466 819.612C125.602 819.74 125.67 819.912 125.67 820.128C125.67 820.344 125.602 820.52 125.466 820.656C125.338 820.784 125.166 820.848 124.95 820.848ZM125.43 822V828H124.47V822H125.43ZM131.161 824.124C131.161 823.676 131.041 823.332 130.801 823.092C130.561 822.844 130.221 822.72 129.781 822.72C129.365 822.72 129.013 822.812 128.725 822.996C128.437 823.172 128.225 823.46 128.089 823.86L127.309 823.38C127.469 822.932 127.765 822.572 128.197 822.3C128.629 822.02 129.165 821.88 129.805 821.88C130.237 821.88 130.629 821.956 130.981 822.108C131.333 822.252 131.609 822.476 131.809 822.78C132.017 823.076 132.121 823.46 132.121 823.932V826.836C132.121 827.124 132.273 827.268 132.577 827.268C132.729 827.268 132.877 827.248 133.021 827.208L132.973 827.964C132.813 828.044 132.605 828.084 132.349 828.084C132.117 828.084 131.909 828.04 131.725 827.952C131.541 827.864 131.397 827.732 131.293 827.556C131.189 827.372 131.137 827.144 131.137 826.872V826.752L131.377 826.788C131.281 827.1 131.117 827.356 130.885 827.556C130.653 827.748 130.393 827.892 130.105 827.988C129.817 828.076 129.533 828.12 129.253 828.12C128.901 828.12 128.573 828.06 128.269 827.94C127.965 827.82 127.721 827.64 127.537 827.4C127.361 827.152 127.273 826.848 127.273 826.488C127.273 826.04 127.421 825.672 127.717 825.384C128.021 825.088 128.441 824.888 128.977 824.784L131.353 824.316V825.108L129.421 825.504C129.029 825.584 128.737 825.696 128.545 825.84C128.353 825.984 128.257 826.184 128.257 826.44C128.257 826.688 128.353 826.892 128.545 827.052C128.745 827.204 129.025 827.28 129.385 827.28C129.617 827.28 129.837 827.252 130.045 827.196C130.261 827.132 130.453 827.04 130.621 826.92C130.789 826.792 130.921 826.636 131.017 826.452C131.113 826.26 131.161 826.036 131.161 825.78V824.124ZM135.366 819.24V826.476C135.366 826.78 135.422 826.992 135.534 827.112C135.646 827.224 135.826 827.28 136.074 827.28C136.234 827.28 136.366 827.268 136.47 827.244C136.574 827.22 136.714 827.176 136.89 827.112L136.734 827.952C136.606 828.008 136.466 828.048 136.314 828.072C136.162 828.104 136.006 828.12 135.846 828.12C135.358 828.12 134.994 827.988 134.754 827.724C134.522 827.46 134.406 827.056 134.406 826.512V819.24H135.366ZM140.282 828.12C139.698 828.12 139.158 827.996 138.662 827.748C138.174 827.5 137.798 827.148 137.534 826.692L138.35 826.104C138.526 826.472 138.782 826.76 139.118 826.968C139.462 827.176 139.874 827.28 140.354 827.28C140.778 827.28 141.11 827.2 141.35 827.04C141.59 826.872 141.71 826.656 141.71 826.392C141.71 826.224 141.654 826.072 141.542 825.936C141.438 825.792 141.234 825.688 140.93 825.624L139.49 825.324C138.906 825.204 138.486 825.004 138.23 824.724C137.982 824.444 137.858 824.096 137.858 823.68C137.858 823.352 137.95 823.052 138.134 822.78C138.326 822.508 138.594 822.292 138.938 822.132C139.29 821.964 139.702 821.88 140.174 821.88C140.766 821.88 141.266 821.996 141.674 822.228C142.082 822.46 142.386 822.788 142.586 823.212L141.782 823.74C141.646 823.388 141.426 823.132 141.122 822.972C140.818 822.804 140.502 822.72 140.174 822.72C139.886 822.72 139.638 822.76 139.43 822.84C139.23 822.92 139.074 823.032 138.962 823.176C138.858 823.312 138.806 823.468 138.806 823.644C138.806 823.82 138.866 823.984 138.986 824.136C139.106 824.28 139.33 824.384 139.658 824.448L141.158 824.76C141.718 824.872 142.11 825.056 142.334 825.312C142.558 825.568 142.67 825.88 142.67 826.248C142.67 826.624 142.57 826.956 142.37 827.244C142.17 827.524 141.89 827.74 141.53 827.892C141.17 828.044 140.754 828.12 140.282 828.12Z" fill="#181B5E"/>
        <path fill-rule="evenodd" clip-rule="evenodd" d="M119.25 810.652H100.75C99.425 810.652 98.3477 809.575 98.3477 808.25V795.75C98.3477 794.425 99.425 793.348 100.75 793.348H119.25C120.575 793.348 121.652 794.425 121.652 795.75V808.25C121.652 809.575 120.575 810.652 119.25 810.652ZM100.75 794.152C99.8688 794.152 99.152 794.869 99.152 795.75V808.25C99.152 809.131 99.8688 809.848 100.75 809.848H119.25C120.131 809.848 120.848 809.131 120.848 808.25V795.75C120.848 794.869 120.131 794.152 119.25 794.152H100.75Z" fill="#181B5E"/>
        <path fill-rule="evenodd" clip-rule="evenodd" d="M105.5 801.652C104.314 801.652 103.348 800.686 103.348 799.5C103.348 798.314 104.314 797.348 105.5 797.348C106.686 797.348 107.652 798.314 107.652 799.5C107.652 800.686 106.686 801.652 105.5 801.652ZM105.5 798.152C104.757 798.152 104.152 798.757 104.152 799.5C104.152 800.243 104.757 800.848 105.5 800.848C106.243 800.848 106.848 800.243 106.848 799.5C106.848 798.757 106.243 798.152 105.5 798.152Z" fill="#181B5E"/>
        <path fill-rule="evenodd" clip-rule="evenodd" d="M109.25 806.652C109.028 806.652 108.848 806.472 108.848 806.25V805.75C108.848 804.869 108.131 804.152 107.25 804.152H103.75C102.869 804.152 102.152 804.869 102.152 805.75V806.25C102.152 806.472 101.972 806.652 101.75 806.652C101.528 806.652 101.348 806.472 101.348 806.25V805.75C101.348 804.425 102.425 803.348 103.75 803.348H107.25C108.575 803.348 109.652 804.425 109.652 805.75V806.25C109.652 806.472 109.472 806.652 109.25 806.652Z" fill="#181B5E"/>
        <path fill-rule="evenodd" clip-rule="evenodd" d="M118.25 798.652H112.75C112.528 798.652 112.348 798.472 112.348 798.25C112.348 798.028 112.528 797.848 112.75 797.848H118.25C118.472 797.848 118.652 798.028 118.652 798.25C118.652 798.472 118.472 798.652 118.25 798.652Z" fill="#181B5E"/>
        <path fill-rule="evenodd" clip-rule="evenodd" d="M118.25 802.652H112.75C112.528 802.652 112.348 802.472 112.348 802.25C112.348 802.028 112.528 801.848 112.75 801.848H118.25C118.472 801.848 118.652 802.028 118.652 802.25C118.652 802.472 118.472 802.652 118.25 802.652Z" fill="#181B5E"/>
        <path fill-rule="evenodd" clip-rule="evenodd" d="M118.25 806.652H112.75C112.528 806.652 112.348 806.472 112.348 806.25C112.348 806.028 112.528 805.848 112.75 805.848H118.25C118.472 805.848 118.652 806.028 118.652 806.25C118.652 806.472 118.472 806.652 118.25 806.652Z" fill="#181B5E"/>
        <path d="M223 808C240.121 808 254 794.121 254 777C254 759.879 240.121 746 223 746C205.879 746 192 759.879 192 777C192 794.121 205.879 808 223 808Z" fill="#181B5E" stroke="white" stroke-width="3"/>
        <path d="M211.632 764.678H216.159V763.169H210.123V769.205H211.632V764.678Z" fill="white"/>
        <path d="M229.841 763.169V764.678H234.368V769.205H235.877V763.169H229.841Z" fill="white"/>
        <path d="M234.368 787.414H229.841V788.923H235.877V782.887H234.368V787.414Z" fill="white"/>
        <path d="M211.632 782.887H210.123V788.923H216.159V787.414H211.632V782.887Z" fill="white"/>
        <path fill-rule="evenodd" clip-rule="evenodd" d="M213.191 773.732V766.187H220.736V767.696H222.245V769.205H220.736V773.732H213.191ZM214.7 772.223H219.227V767.696H214.7V772.223Z" fill="white"/>
        <path fill-rule="evenodd" clip-rule="evenodd" d="M232.808 778.259V785.804H225.263V782.786H223.754V781.277H225.263V779.768H223.754V778.259H228.281V776.75H229.79V778.259H232.808ZM231.299 779.768H226.772V784.295H231.299V779.768Z" fill="white"/>
        <path d="M217.718 776.75H220.736V775.241H213.191V776.75H216.209V778.259H214.7V779.768H216.209V782.786H214.7V784.295H216.209V785.804H223.755V784.295H222.245V782.786H220.736V784.295H217.718V782.786H219.227V781.277H217.718V776.75Z" fill="white"/>
        <path d="M216.209 769.205H217.718V770.714H216.209V769.205Z" fill="white"/>
        <path d="M228.282 769.205H229.791V770.714H228.282V769.205Z" fill="white"/>
        <path fill-rule="evenodd" clip-rule="evenodd" d="M232.809 773.732H229.791V775.241H228.282V773.732H225.264V766.187H232.809V773.732ZM226.773 767.696V772.223H231.3V767.696H226.773Z" fill="white"/>
        <path d="M232.809 776.75V775.241C232.443 775.241 230.158 775.241 229.791 775.241V776.75H232.809Z" fill="white"/>
        <path d="M228.282 781.277H229.791V782.786H228.282V781.277Z" fill="white"/>
        <path d="M222.246 779.769H223.755V781.278H222.246V779.769Z" fill="white"/>
        <path d="M219.228 781.277H220.737C220.737 780.912 220.737 778.626 220.737 778.259H219.228V781.277Z" fill="white"/>
        <path d="M220.736 776.75H222.245V778.259H220.736V776.75Z" fill="white"/>
        <path d="M214.7 779.769H213.191V782.787H214.7C214.7 782.422 214.7 780.136 214.7 779.769Z" fill="white"/>
        <path d="M213.191 784.295H214.7V785.804H213.191V784.295Z" fill="white"/>
        <path d="M222.246 766.187H223.755V767.696H222.246V766.187Z" fill="white"/>
        <path d="M222.246 772.223H223.755C223.755 771.858 223.755 769.573 223.755 769.205H222.246V772.223Z" fill="white"/>
        <path d="M223.755 775.241V773.732H222.246V776.75H228.282V775.241H223.755Z" fill="white"/>
        <path opacity="0.5" d="M211.026 819.41C211.722 819.41 212.322 819.554 212.826 819.842C213.33 820.122 213.75 820.538 214.086 821.09L213.282 821.714C212.986 821.202 212.65 820.842 212.274 820.634C211.906 820.418 211.458 820.31 210.93 820.31C210.506 820.31 210.154 820.37 209.874 820.49C209.602 820.61 209.402 820.77 209.274 820.97C209.146 821.162 209.082 821.382 209.082 821.63C209.082 821.91 209.17 822.158 209.346 822.374C209.522 822.582 209.874 822.746 210.402 822.866L212.118 823.25C212.878 823.418 213.406 823.674 213.702 824.018C214.006 824.354 214.158 824.774 214.158 825.278C214.158 825.726 214.03 826.126 213.774 826.478C213.526 826.822 213.174 827.09 212.718 827.282C212.262 827.474 211.726 827.57 211.11 827.57C210.534 827.57 210.026 827.494 209.586 827.342C209.154 827.182 208.782 826.97 208.47 826.706C208.158 826.442 207.902 826.146 207.702 825.818L208.542 825.134C208.694 825.438 208.89 825.706 209.13 825.938C209.37 826.17 209.658 826.35 209.994 826.478C210.338 826.606 210.73 826.67 211.17 826.67C211.578 826.67 211.93 826.622 212.226 826.526C212.53 826.422 212.762 826.274 212.922 826.082C213.082 825.882 213.162 825.642 213.162 825.362C213.162 825.106 213.078 824.878 212.91 824.678C212.742 824.47 212.426 824.314 211.962 824.21L210.102 823.79C209.614 823.678 209.218 823.526 208.914 823.334C208.618 823.134 208.402 822.902 208.266 822.638C208.138 822.366 208.074 822.074 208.074 821.762C208.074 821.338 208.19 820.95 208.422 820.598C208.662 820.238 209.002 819.95 209.442 819.734C209.89 819.518 210.418 819.41 211.026 819.41ZM218.473 821.33C218.889 821.33 219.253 821.394 219.565 821.522C219.885 821.65 220.161 821.834 220.393 822.074C220.625 822.314 220.813 822.598 220.957 822.926L220.045 823.358C219.917 822.974 219.721 822.682 219.457 822.482C219.201 822.274 218.865 822.17 218.449 822.17C218.049 822.17 217.705 822.262 217.417 822.446C217.129 822.622 216.909 822.882 216.757 823.226C216.605 823.562 216.529 823.97 216.529 824.45C216.529 824.922 216.605 825.33 216.757 825.674C216.909 826.018 217.129 826.282 217.417 826.466C217.705 826.642 218.049 826.73 218.449 826.73C218.761 826.73 219.029 826.682 219.253 826.586C219.485 826.49 219.673 826.35 219.817 826.166C219.969 825.982 220.073 825.758 220.129 825.494L221.017 825.806C220.881 826.174 220.693 826.49 220.453 826.754C220.221 827.018 219.937 827.222 219.601 827.366C219.273 827.502 218.897 827.57 218.473 827.57C217.913 827.57 217.413 827.446 216.973 827.198C216.533 826.95 216.189 826.594 215.941 826.13C215.693 825.658 215.569 825.098 215.569 824.45C215.569 823.802 215.693 823.246 215.941 822.782C216.189 822.31 216.533 821.95 216.973 821.702C217.413 821.454 217.913 821.33 218.473 821.33ZM226.208 823.574C226.208 823.126 226.088 822.782 225.848 822.542C225.608 822.294 225.268 822.17 224.828 822.17C224.412 822.17 224.06 822.262 223.772 822.446C223.484 822.622 223.272 822.91 223.136 823.31L222.356 822.83C222.516 822.382 222.812 822.022 223.244 821.75C223.676 821.47 224.212 821.33 224.852 821.33C225.284 821.33 225.676 821.406 226.028 821.558C226.38 821.702 226.656 821.926 226.856 822.23C227.064 822.526 227.168 822.91 227.168 823.382V826.286C227.168 826.574 227.32 826.718 227.624 826.718C227.776 826.718 227.924 826.698 228.068 826.658L228.02 827.414C227.86 827.494 227.652 827.534 227.396 827.534C227.164 827.534 226.956 827.49 226.772 827.402C226.588 827.314 226.444 827.182 226.34 827.006C226.236 826.822 226.184 826.594 226.184 826.322V826.202L226.424 826.238C226.328 826.55 226.164 826.806 225.932 827.006C225.7 827.198 225.44 827.342 225.152 827.438C224.864 827.526 224.58 827.57 224.3 827.57C223.948 827.57 223.62 827.51 223.316 827.39C223.012 827.27 222.768 827.09 222.584 826.85C222.408 826.602 222.32 826.298 222.32 825.938C222.32 825.49 222.468 825.122 222.764 824.834C223.068 824.538 223.488 824.338 224.024 824.234L226.4 823.766V824.558L224.468 824.954C224.076 825.034 223.784 825.146 223.592 825.29C223.4 825.434 223.304 825.634 223.304 825.89C223.304 826.138 223.4 826.342 223.592 826.502C223.792 826.654 224.072 826.73 224.432 826.73C224.664 826.73 224.884 826.702 225.092 826.646C225.308 826.582 225.5 826.49 225.668 826.37C225.836 826.242 225.968 826.086 226.064 825.902C226.16 825.71 226.208 825.486 226.208 825.23V823.574ZM229.501 827.45V821.45H230.341L230.425 822.794L230.269 822.662C230.397 822.342 230.569 822.086 230.785 821.894C231.001 821.694 231.249 821.55 231.529 821.462C231.817 821.374 232.113 821.33 232.417 821.33C232.849 821.33 233.241 821.414 233.593 821.582C233.945 821.742 234.225 821.99 234.433 822.326C234.649 822.662 234.757 823.09 234.757 823.61V827.45H233.797V823.946C233.797 823.282 233.653 822.822 233.365 822.566C233.085 822.302 232.737 822.17 232.321 822.17C232.033 822.17 231.745 822.238 231.457 822.374C231.169 822.51 230.929 822.73 230.737 823.034C230.553 823.338 230.461 823.746 230.461 824.258V827.45H229.501Z" fill="#212121"/>
    </g>
    <path fill-rule="evenodd" clip-rule="evenodd" d="M67.2831 5.10547C37.7283 5.10547 13.7692 29.0773 13.7692 58.6484V119.135H12.8432C10.7743 119.135 9.09717 120.813 9.09717 122.883V150.105C9.09717 152.175 10.7743 153.853 12.8432 153.853H13.7692V183.978H12.8432C10.7743 183.978 9.09717 185.656 9.09717 187.726V242.52C9.09717 244.59 10.7743 246.268 12.8432 246.268H13.7692V263.117H12.8432C10.7743 263.117 9.09717 264.795 9.09717 266.865V321.659C9.09717 323.729 10.7743 325.407 12.8432 325.407H13.7692V810.349C13.7692 839.921 37.7284 863.892 67.2837 863.892H376.406C405.96 863.892 429.92 839.921 429.92 810.349V58.6484C429.92 29.0774 405.96 5.10547 376.406 5.10547H67.2831ZM76.0857 19.9122C50.964 19.9122 30.5988 40.2883 30.5988 65.4237V803.576C30.5988 828.709 50.964 849.087 76.0857 849.087H367.603C392.725 849.087 413.09 828.709 413.09 803.576V65.4237C413.09 40.2883 392.725 19.9122 367.603 19.9122H327.365C327.396 20.2273 327.412 20.5468 327.412 20.8701V38.3448C327.412 49.8774 318.068 59.2266 306.541 59.2266H137.148C125.621 59.2266 116.277 49.8774 116.277 38.3448V20.8701C116.277 20.5468 116.292 20.2273 116.324 19.9122H76.0857Z" fill="url(#paint0_linear)"/>
    <path d="M13.7694 119.135V120.42H15.0537V119.135H13.7694ZM13.7694 153.854H15.0537V152.569H13.7694V153.854ZM13.7694 183.978V185.264H15.0537V183.978H13.7694ZM13.7694 246.269H15.0537V244.984H13.7694V246.269ZM13.7694 263.117V264.402H15.0537V263.117H13.7694ZM13.7694 325.408H15.0537V324.123H13.7694V325.408ZM327.365 19.913V18.628H325.948L326.087 20.0391L327.365 19.913ZM116.324 19.913L117.602 20.0392L117.741 18.628H116.324V19.913ZM15.0537 58.6492C15.0537 29.7879 38.4378 6.39135 67.2833 6.39135V3.82129C37.0192 3.82129 12.485 28.3685 12.485 58.6492H15.0537ZM15.0537 119.135V58.6492H12.485V119.135H15.0537ZM12.8433 120.42H13.7694V117.85H12.8433V120.42ZM10.3817 122.883C10.3817 121.523 11.4838 120.42 12.8433 120.42V117.85C10.0651 117.85 7.81299 120.104 7.81299 122.883H10.3817ZM10.3817 150.106V122.883H7.81299V150.106H10.3817ZM12.8433 152.569C11.4838 152.569 10.3817 151.467 10.3817 150.106H7.81299C7.81299 152.886 10.0651 155.139 12.8433 155.139V152.569ZM13.7694 152.569H12.8433V155.139H13.7694V152.569ZM15.0537 183.978V153.854H12.485V183.978H15.0537ZM12.8433 185.264H13.7694V182.693H12.8433V185.264ZM10.3817 187.726C10.3817 186.366 11.4838 185.264 12.8433 185.264V182.693C10.0651 182.693 7.81299 184.947 7.81299 187.726H10.3817ZM10.3817 242.521V187.726H7.81299V242.521H10.3817ZM12.8433 244.984C11.4838 244.984 10.3817 243.881 10.3817 242.521H7.81299C7.81299 245.301 10.0651 247.554 12.8433 247.554V244.984ZM13.7694 244.984H12.8433V247.554H13.7694V244.984ZM15.0537 263.117V246.269H12.485V263.117H15.0537ZM12.8433 264.402H13.7694V261.832H12.8433V264.402ZM10.3817 266.865C10.3817 265.505 11.4838 264.402 12.8433 264.402V261.832C10.0651 261.832 7.81299 264.086 7.81299 266.865H10.3817ZM10.3817 321.66V266.865H7.81299V321.66H10.3817ZM12.8433 324.123C11.4838 324.123 10.3817 323.02 10.3817 321.66H7.81299C7.81299 324.44 10.0651 326.693 12.8433 326.693V324.123ZM13.7694 324.123H12.8433V326.693H13.7694V324.123ZM15.0537 810.35V325.408H12.485V810.35H15.0537ZM67.2838 862.608C38.4378 862.608 15.0537 839.215 15.0537 810.35H12.485C12.485 840.634 37.0192 865.178 67.2838 865.178V862.608ZM376.406 862.608H67.2838V865.178H376.406V862.608ZM428.636 810.35C428.636 839.215 405.252 862.608 376.406 862.608V865.178C406.67 865.178 431.204 840.634 431.204 810.35H428.636ZM428.636 58.6492V810.35H431.204V58.6492H428.636ZM376.406 6.39135C405.252 6.39135 428.636 29.788 428.636 58.6492H431.204C431.204 28.3685 406.67 3.82129 376.406 3.82129V6.39135ZM67.2833 6.39135H376.406V3.82129H67.2833V6.39135ZM31.8833 65.4245C31.8833 40.9989 51.6735 21.198 76.0858 21.198V18.628C50.2549 18.628 29.3147 39.5794 29.3147 65.4245H31.8833ZM31.8833 803.577V65.4245H29.3147V803.577H31.8833ZM76.0858 847.803C51.6735 847.803 31.8833 828.003 31.8833 803.577H29.3147C29.3147 829.422 50.2549 850.373 76.0858 850.373V847.803ZM367.603 847.803H76.0858V850.373H367.603V847.803ZM411.806 803.577C411.806 828.003 392.015 847.803 367.603 847.803V850.373C393.434 850.373 414.375 829.422 414.375 803.577H411.806ZM411.806 65.4245V803.577H414.375V65.4245H411.806ZM367.603 21.198C392.015 21.198 411.806 40.9989 411.806 65.4245H414.375C414.375 39.5794 393.434 18.628 367.603 18.628V21.198ZM327.365 21.198H367.603V18.628H327.365V21.198ZM328.696 20.8709C328.696 20.5055 328.679 20.1438 328.643 19.7869L326.087 20.0391C326.114 20.3124 326.128 20.5899 326.128 20.8709H328.696ZM328.696 38.3457V20.8709H326.128V38.3457H328.696ZM306.541 60.5125C318.777 60.5125 328.696 50.588 328.696 38.3457H326.128C326.128 49.1686 317.359 57.9424 306.541 57.9424V60.5125ZM137.148 60.5125H306.541V57.9424H137.148V60.5125ZM114.993 38.3457C114.993 50.588 124.912 60.5125 137.148 60.5125V57.9424C126.33 57.9424 117.561 49.1686 117.561 38.3457H114.993ZM114.993 20.8709V38.3457H117.561V20.8709H114.993ZM115.046 19.7869C115.01 20.1438 114.993 20.5055 114.993 20.8709H117.561C117.561 20.5899 117.575 20.3124 117.602 20.0392L115.046 19.7869ZM76.0858 21.198H116.324V18.628H76.0858V21.198Z" fill="black" fill-opacity="0.03"/>
    <g opacity="0.6">
        <g opacity="0.75">
            <g opacity="0.75" filter="url(#filter1_di)">
                <path opacity="0.75" fill-rule="evenodd" clip-rule="evenodd" d="M276.414 41.3564C279.794 41.3564 282.534 38.6133 282.534 35.2295C282.534 31.8457 279.794 29.1025 276.414 29.1025C273.034 29.1025 270.294 31.8457 270.294 35.2295C270.294 38.6133 273.034 41.3564 276.414 41.3564Z" fill="#9092A5"/>
            </g>
            <g opacity="0.75" filter="url(#filter2_di)">
                <path opacity="0.75" fill-rule="evenodd" clip-rule="evenodd" d="M276.414 39.8251C278.949 39.8251 281.004 37.7678 281.004 35.2299C281.004 32.6921 278.949 30.6348 276.414 30.6348C273.879 30.6348 271.824 32.6921 271.824 35.2299C271.824 37.7678 273.879 39.8251 276.414 39.8251Z" fill="#9092A5"/>
            </g>
        </g>
        <g opacity="0.6" filter="url(#filter3_di)">
            <path opacity="0.6" d="M242.243 32.6768H196.347C194.938 32.6768 193.796 33.8197 193.796 35.2296C193.796 36.6396 194.938 37.7825 196.347 37.7825H242.243C243.652 37.7825 244.795 36.6396 244.795 35.2296C244.795 33.8197 243.652 32.6768 242.243 32.6768Z" fill="#9092A5"/>
        </g>
    </g>
    <defs>
        <filter id="filter0_d" x="20" y="736.5" width="403" height="125.5" filterUnits="userSpaceOnUse" color-interpolation-filters="sRGB">
            <feFlood flood-opacity="0" result="BackgroundImageFix"/>
            <feColorMatrix in="SourceAlpha" type="matrix" values="0 0 0 0 0 0 0 0 0 0 0 0 0 0 0 0 0 0 127 0"/>
            <feOffset dy="2"/>
            <feGaussianBlur stdDeviation="5"/>
            <feColorMatrix type="matrix" values="0 0 0 0 0 0 0 0 0 0 0 0 0 0 0 0 0 0 0.1 0"/>
            <feBlend mode="normal" in2="BackgroundImageFix" result="effect1_dropShadow"/>
            <feBlend mode="normal" in="SourceGraphic" in2="effect1_dropShadow" result="shape"/>
        </filter>
        <filter id="filter1_di" x="267.294" y="26.1025" width="18.2397" height="18.2539" filterUnits="userSpaceOnUse" color-interpolation-filters="sRGB">
            <feFlood flood-opacity="0" result="BackgroundImageFix"/>
            <feColorMatrix in="SourceAlpha" type="matrix" values="0 0 0 0 0 0 0 0 0 0 0 0 0 0 0 0 0 0 127 0"/>
            <feOffset/>
            <feGaussianBlur stdDeviation="1.5"/>
            <feColorMatrix type="matrix" values="0 0 0 0 0.49062 0 0 0 0 0.49062 0 0 0 0 0.49062 0 0 0 0.25 0"/>
            <feBlend mode="normal" in2="BackgroundImageFix" result="effect1_dropShadow"/>
            <feBlend mode="normal" in="SourceGraphic" in2="effect1_dropShadow" result="shape"/>
            <feColorMatrix in="SourceAlpha" type="matrix" values="0 0 0 0 0 0 0 0 0 0 0 0 0 0 0 0 0 0 127 0" result="hardAlpha"/>
            <feOffset dx="2" dy="2"/>
            <feGaussianBlur stdDeviation="2"/>
            <feComposite in2="hardAlpha" operator="arithmetic" k2="-1" k3="1"/>
            <feColorMatrix type="matrix" values="0 0 0 0 0 0 0 0 0 0 0 0 0 0 0 0 0 0 0.344061 0"/>
            <feBlend mode="normal" in2="shape" result="effect2_innerShadow"/>
        </filter>
        <filter id="filter2_di" x="268.824" y="28.6348" width="15.1798" height="17.1904" filterUnits="userSpaceOnUse" color-interpolation-filters="sRGB">
            <feFlood flood-opacity="0" result="BackgroundImageFix"/>
            <feColorMatrix in="SourceAlpha" type="matrix" values="0 0 0 0 0 0 0 0 0 0 0 0 0 0 0 0 0 0 127 0"/>
            <feOffset dy="3"/>
            <feGaussianBlur stdDeviation="1.5"/>
            <feColorMatrix type="matrix" values="0 0 0 0 0.49062 0 0 0 0 0.49062 0 0 0 0 0.49062 0 0 0 0.428838 0"/>
            <feBlend mode="normal" in2="BackgroundImageFix" result="effect1_dropShadow"/>
            <feBlend mode="normal" in="SourceGraphic" in2="effect1_dropShadow" result="shape"/>
            <feColorMatrix in="SourceAlpha" type="matrix" values="0 0 0 0 0 0 0 0 0 0 0 0 0 0 0 0 0 0 127 0" result="hardAlpha"/>
            <feOffset dx="-2" dy="-2"/>
            <feGaussianBlur stdDeviation="2.5"/>
            <feComposite in2="hardAlpha" operator="arithmetic" k2="-1" k3="1"/>
            <feColorMatrix type="matrix" values="0 0 0 0 0 0 0 0 0 0 0 0 0 0 0 0 0 0 0.344061 0"/>
            <feBlend mode="normal" in2="shape" result="effect2_innerShadow"/>
        </filter>
        <filter id="filter3_di" x="190.796" y="29.6768" width="56.9988" height="11.1058" filterUnits="userSpaceOnUse" color-interpolation-filters="sRGB">
            <feFlood flood-opacity="0" result="BackgroundImageFix"/>
            <feColorMatrix in="SourceAlpha" type="matrix" values="0 0 0 0 0 0 0 0 0 0 0 0 0 0 0 0 0 0 127 0"/>
            <feOffset/>
            <feGaussianBlur stdDeviation="1.5"/>
            <feColorMatrix type="matrix" values="0 0 0 0 0.49062 0 0 0 0 0.49062 0 0 0 0 0.49062 0 0 0 0.25 0"/>
            <feBlend mode="normal" in2="BackgroundImageFix" result="effect1_dropShadow"/>
            <feBlend mode="normal" in="SourceGraphic" in2="effect1_dropShadow" result="shape"/>
            <feColorMatrix in="SourceAlpha" type="matrix" values="0 0 0 0 0 0 0 0 0 0 0 0 0 0 0 0 0 0 127 0" result="hardAlpha"/>
            <feOffset dx="2" dy="2"/>
            <feGaussianBlur stdDeviation="2"/>
            <feComposite in2="hardAlpha" operator="arithmetic" k2="-1" k3="1"/>
            <feColorMatrix type="matrix" values="0 0 0 0 0 0 0 0 0 0 0 0 0 0 0 0 0 0 0.344061 0"/>
            <feBlend mode="normal" in2="shape" result="effect2_innerShadow"/>
        </filter>
        <linearGradient id="paint0_linear" x1="56.5364" y1="-132.291" x2="-402.049" y2="684.153" gradientUnits="userSpaceOnUse">
            <stop stop-color="#47474C"/>
            <stop offset="1" stop-color="#222225"/>
        </linearGradient>
    </defs>
</svg>
