<svg width="1812" height="994" viewBox="0 0 1812 994" fill="none" xmlns="http://www.w3.org/2000/svg">
    <path fill-rule="evenodd" clip-rule="evenodd" d="M903.194 55.5498C960.501 55.5498 1007.12 101.783 1007.12 158.62C1007.12 215.454 960.501 261.691 903.194 261.691C845.892 261.691 799.273 215.454 799.273 158.62C799.273 101.783 845.892 55.5498 903.194 55.5498ZM903.189 238.639C947.678 238.639 983.874 202.74 983.874 158.619C983.874 114.495 947.678 78.6 903.189 78.6C858.705 78.6 822.505 114.495 822.505 158.619C822.505 202.74 858.705 238.639 903.189 238.639Z" fill="#181B5E" style="mix-blend-mode:multiply"/>
    <path d="M1047.36 500.078C1074.18 494.951 1097.38 479.767 1112.69 457.335V457.335C1128 434.898 1133.58 407.891 1128.41 381.284V381.284C1123.29 354.887 1108.17 332.023 1085.83 316.84V316.84C1085.66 316.723 1085.49 316.609 1085.31 316.492V316.492C1062.7 301.304 1035.47 295.767 1008.65 300.89V300.89C981.82 306.022 958.617 321.201 943.309 343.638V343.638C941.688 346.013 941.086 348.923 941.635 351.737V351.737C942.18 354.53 943.805 356.996 946.169 358.599V358.599C946.191 358.608 946.204 358.621 946.221 358.634V358.634L1021.9 409.424C1026.88 412.766 1033.64 411.472 1037.01 406.536V406.536C1040.37 401.617 1039.09 394.934 1034.15 391.584V391.584C1034.14 391.571 1034.12 391.557 1034.1 391.544V391.544L968.044 347.202C979.715 334.228 995.257 325.445 1012.77 322.099V322.099C1033.88 318.06 1055.31 322.421 1073.11 334.376V334.376C1073.25 334.463 1073.38 334.554 1073.52 334.646V334.646C1091.1 346.596 1103 364.598 1107.04 385.375V385.375C1111.1 406.314 1106.71 427.57 1094.66 445.232V445.232C1082.61 462.894 1064.35 474.836 1043.24 478.874V478.874C1022.13 482.913 1000.69 478.556 982.891 466.606V466.606L834.195 366.803C829.219 363.461 822.449 364.755 819.085 369.696V369.696C815.729 374.614 817.007 381.297 821.94 384.648V384.648C821.962 384.661 821.979 384.678 821.997 384.683V384.683L970.689 484.486C987.807 495.974 1007.57 501.943 1027.79 501.943V501.943C1034.29 501.943 1040.83 501.329 1047.36 500.078" fill="#181B5E" style="mix-blend-mode:multiply"/>
    <path d="M865.328 459.433C866.945 457.059 867.551 454.148 866.997 451.338V451.338C866.457 448.546 864.827 446.08 862.464 444.477V444.477C862.451 444.464 862.429 444.455 862.416 444.442V444.442L786.739 393.647C781.758 390.305 774.989 391.599 771.619 396.54V396.54C768.263 401.459 769.55 408.142 774.483 411.492V411.492C774.497 411.509 774.519 411.518 774.532 411.531V411.531L840.593 455.865C814.175 485.142 769.221 491.32 735.52 468.704V468.704C717.669 456.732 705.668 438.643 701.6 417.7V417.7C697.528 396.762 701.925 375.506 713.974 357.844V357.844C738.85 321.387 788.992 311.798 825.75 336.47V336.47L976.322 437.532C981.299 440.878 988.068 439.584 991.437 434.648V434.648C994.793 429.725 993.51 423.046 988.577 419.691V419.691C988.56 419.674 988.542 419.665 988.525 419.652V419.652L837.953 318.59C791.25 287.244 727.548 299.425 695.943 345.745V345.745C680.639 368.182 675.051 395.185 680.221 421.791V421.791C685.391 448.393 700.77 471.431 723.322 486.584V486.584C740.844 498.347 760.765 503.98 780.479 503.98V503.98C813.31 503.98 845.583 488.366 865.328 459.433" fill="#181B5E" style="mix-blend-mode:multiply"/>
    <path fill-rule="evenodd" clip-rule="evenodd" d="M771.827 245.09C754.199 219.434 744.671 188.871 744.671 157.028C744.671 70.4434 815.696 0 903.005 0C990.304 0 1061.33 70.4434 1061.33 157.028C1061.33 189.926 1051.81 221.233 1035.13 245.277C1062.02 247.887 1089.33 257.563 1114.59 274.733C1186.23 323.428 1204.57 420.852 1155.46 491.901C1106.37 562.955 1008.14 581.144 936.499 532.445L898.058 506.313C849.098 567.377 762.229 577.942 691.41 529.8C619.775 481.105 601.435 383.681 650.536 312.632C679.225 271.108 724.693 247.704 771.827 245.09ZM799.44 246.58C806.323 254.4 813.176 260.804 820.389 266.159L825.005 269.583L806.539 266.368C760.719 262.063 699.573 279.852 668.486 324.835C626.176 386.068 641.976 470.021 703.711 511.985C734.367 532.823 769.627 541.846 803.003 537.389C836.896 532.867 866.586 514.416 886.612 485.44C890.008 480.53 896.786 479.271 901.741 482.643L948.808 514.634C1010.54 556.598 1095.19 540.927 1137.5 479.698C1179.81 418.464 1164.01 334.511 1102.28 292.543C1075.84 274.571 1045.97 265.418 1016.84 266.089L1016.7 266.22C1016.71 266.209 1016.72 266.198 1016.73 266.186C1016.76 266.153 1016.8 266.118 1016.83 266.089C1014.4 266.146 1011.97 266.25 1009.55 266.446C1003.41 267.104 992.779 268.285 984.441 269.431H980.51L982.043 268.324C1011.12 247.386 1040.46 204.856 1040.46 157.028C1040.46 81.8531 978.792 20.6982 903.002 20.6982C827.206 20.6982 765.538 81.8531 765.538 157.028C765.538 189.943 777.578 221.747 799.44 246.58Z" fill="#181B5E" style="mix-blend-mode:multiply"/>
    <mask id="mask0" mask-type="alpha" maskUnits="userSpaceOnUse" x="623" y="0" width="560" height="560">
        <path fill-rule="evenodd" clip-rule="evenodd" d="M771.827 245.09C754.199 219.434 744.671 188.871 744.671 157.028C744.671 70.4434 815.696 0 903.005 0C990.304 0 1061.33 70.4434 1061.33 157.028C1061.33 189.926 1051.81 221.233 1035.13 245.277C1062.02 247.887 1089.33 257.563 1114.59 274.733C1186.23 323.428 1204.57 420.852 1155.46 491.901C1106.37 562.955 1008.14 581.144 936.499 532.445L898.058 506.313C849.098 567.377 762.229 577.942 691.41 529.8C619.775 481.105 601.435 383.681 650.536 312.632C679.225 271.108 724.693 247.704 771.827 245.09ZM799.44 246.58C806.323 254.4 813.176 260.804 820.389 266.159L825.005 269.583L806.539 266.368C760.719 262.063 699.573 279.852 668.486 324.835C626.176 386.068 641.976 470.021 703.711 511.985C734.367 532.823 769.627 541.846 803.003 537.389C836.896 532.867 866.586 514.416 886.612 485.44C890.008 480.53 896.786 479.271 901.741 482.643L948.808 514.634C1010.54 556.598 1095.19 540.927 1137.5 479.698C1179.81 418.464 1164.01 334.511 1102.28 292.543C1075.84 274.571 1045.97 265.418 1016.84 266.089L1016.7 266.22C1016.71 266.209 1016.72 266.198 1016.73 266.186C1016.76 266.153 1016.8 266.118 1016.83 266.089C1014.4 266.146 1011.97 266.25 1009.55 266.446C1003.41 267.104 992.779 268.285 984.441 269.431H980.51L982.043 268.324C1011.12 247.386 1040.46 204.856 1040.46 157.028C1040.46 81.8531 978.792 20.6982 903.002 20.6982C827.206 20.6982 765.538 81.8531 765.538 157.028C765.538 189.943 777.578 221.747 799.44 246.58Z" fill="white"/>
        <path fill-rule="evenodd" clip-rule="evenodd" d="M771.827 245.09C754.199 219.434 744.671 188.871 744.671 157.028C744.671 70.4434 815.696 0 903.005 0C990.304 0 1061.33 70.4434 1061.33 157.028C1061.33 189.926 1051.81 221.233 1035.13 245.277C1062.02 247.887 1089.33 257.563 1114.59 274.733C1186.23 323.428 1204.57 420.852 1155.46 491.901C1106.37 562.955 1008.14 581.144 936.499 532.445L898.058 506.313C849.098 567.377 762.229 577.942 691.41 529.8C619.775 481.105 601.435 383.681 650.536 312.632C679.225 271.108 724.693 247.704 771.827 245.09ZM799.44 246.58C806.323 254.4 813.176 260.804 820.389 266.159L825.005 269.583L806.539 266.368C760.719 262.063 699.573 279.852 668.486 324.835C626.176 386.068 641.976 470.021 703.711 511.985C734.367 532.823 769.627 541.846 803.003 537.389C836.896 532.867 866.586 514.416 886.612 485.44C890.008 480.53 896.786 479.271 901.741 482.643L948.808 514.634C1010.54 556.598 1095.19 540.927 1137.5 479.698C1179.81 418.464 1164.01 334.511 1102.28 292.543C1075.84 274.571 1045.97 265.418 1016.84 266.089L1016.7 266.22C1016.71 266.209 1016.72 266.198 1016.73 266.186C1016.76 266.153 1016.8 266.118 1016.83 266.089C1014.4 266.146 1011.97 266.25 1009.55 266.446C1003.41 267.104 992.779 268.285 984.441 269.431H980.51L982.043 268.324C1011.12 247.386 1040.46 204.856 1040.46 157.028C1040.46 81.8531 978.792 20.6982 903.002 20.6982C827.206 20.6982 765.538 81.8531 765.538 157.028C765.538 189.943 777.578 221.747 799.44 246.58Z" stroke="white"/>
    </mask>
    <g mask="url(#mask0)">
    </g>
    <mask id="path-6-outside-1" maskUnits="userSpaceOnUse" x="0" y="745" width="1812" height="249" fill="black">
        <rect fill="white" y="745" width="1812" height="249"/>
        <path fill-rule="evenodd" clip-rule="evenodd" d="M222.105 887.489H161.35V866.226H242.743V952.365C242.743 962.95 239.114 971.828 231.81 979.206C224.508 986.582 215.736 990.234 205.289 990.234H41.454C31.0069 990.234 22.2345 986.582 14.9323 979.206C7.6287 971.828 4 962.95 4 952.365V786.869C4 776.284 7.6287 767.406 14.9323 760.028C22.2345 752.652 31.0069 749 41.454 749H205.289C215.736 749 224.508 752.652 231.81 760.028C239.114 767.406 242.743 776.284 242.743 786.869V793.363H222.105V786.869C222.105 782.253 220.361 778.259 216.997 775.093C213.863 771.695 209.893 769.918 205.289 769.918H41.454C36.8112 769.918 32.747 771.72 29.4064 775.095C26.2298 778.303 24.6379 782.303 24.6379 786.869V952.365C24.6379 956.926 26.2218 960.98 29.3017 964.374L29.4041 964.487L29.5159 964.59C32.8784 967.704 36.9089 969.316 41.454 969.316H205.289C209.841 969.316 213.817 967.695 216.995 964.484C220.335 961.11 222.105 957.021 222.105 952.365V887.489ZM342.777 899.556V990.234H322.139V786.869C322.139 776.284 325.768 767.406 333.071 760.028C340.373 752.652 349.146 749 359.593 749H523.427C533.875 749 542.647 752.652 549.949 760.028C557.253 767.406 560.882 776.284 560.882 786.869V990.234H540.244V899.556H342.777ZM342.777 786.869V878.638H540.244V786.869C540.244 782.253 538.5 778.259 535.135 775.092C532.001 771.695 528.032 769.918 523.427 769.918H359.593C354.95 769.918 350.886 771.72 347.545 775.095C344.369 778.303 342.777 782.303 342.777 786.869ZM758.486 769.918V990.234H737.848V769.918H628.625V749H867.367V769.918H758.486ZM955.357 899.556V990.234H934.719V786.869C934.719 776.284 938.347 767.406 945.651 760.028C952.953 752.652 961.726 749 972.173 749H1136.01C1146.45 749 1155.23 752.652 1162.53 760.028C1169.83 767.406 1173.46 776.284 1173.46 786.869V990.234H1152.82V899.556H955.357ZM955.357 786.869V878.638H1152.82V786.869C1152.82 782.253 1151.08 778.259 1147.72 775.093C1144.58 771.695 1140.61 769.918 1136.01 769.918H972.173C967.53 769.918 963.466 771.72 960.125 775.095C956.948 778.303 955.357 782.303 955.357 786.869ZM1290.95 969.316H1491.55V990.234H1290.95C1280.5 990.234 1271.73 986.582 1264.42 979.206C1257.12 971.828 1253.49 962.95 1253.49 952.365V786.869C1253.49 776.284 1257.12 767.406 1264.42 760.028C1271.73 752.652 1280.5 749 1290.95 749H1491.55V769.918H1290.95C1286.3 769.918 1282.24 771.72 1278.9 775.095C1275.72 778.303 1274.13 782.303 1274.13 786.869V952.365C1274.13 956.926 1275.71 960.98 1278.79 964.374L1278.9 964.487L1279.01 964.59C1282.37 967.704 1286.4 969.316 1290.95 969.316ZM1589.6 899.556V990.234H1568.96V786.869C1568.96 776.284 1572.59 767.406 1579.9 760.028C1587.2 752.652 1595.97 749 1606.42 749H1770.25C1780.7 749 1789.47 752.652 1796.77 760.028C1804.08 767.406 1807.71 776.284 1807.71 786.869V990.234H1787.07V899.556H1589.6ZM1589.6 786.869V878.638H1787.07V786.869C1787.07 782.253 1785.33 778.259 1781.96 775.093C1778.83 771.695 1774.86 769.918 1770.25 769.918H1606.42C1601.78 769.918 1597.71 771.72 1594.37 775.095C1591.19 778.303 1589.6 782.303 1589.6 786.869Z"/>
    </mask>
    <path fill-rule="evenodd" clip-rule="evenodd" d="M222.105 887.489H161.35V866.226H242.743V952.365C242.743 962.95 239.114 971.828 231.81 979.206C224.508 986.582 215.736 990.234 205.289 990.234H41.454C31.0069 990.234 22.2345 986.582 14.9323 979.206C7.6287 971.828 4 962.95 4 952.365V786.869C4 776.284 7.6287 767.406 14.9323 760.028C22.2345 752.652 31.0069 749 41.454 749H205.289C215.736 749 224.508 752.652 231.81 760.028C239.114 767.406 242.743 776.284 242.743 786.869V793.363H222.105V786.869C222.105 782.253 220.361 778.259 216.997 775.093C213.863 771.695 209.893 769.918 205.289 769.918H41.454C36.8112 769.918 32.747 771.72 29.4064 775.095C26.2298 778.303 24.6379 782.303 24.6379 786.869V952.365C24.6379 956.926 26.2218 960.98 29.3017 964.374L29.4041 964.487L29.5159 964.59C32.8784 967.704 36.9089 969.316 41.454 969.316H205.289C209.841 969.316 213.817 967.695 216.995 964.484C220.335 961.11 222.105 957.021 222.105 952.365V887.489ZM342.777 899.556V990.234H322.139V786.869C322.139 776.284 325.768 767.406 333.071 760.028C340.373 752.652 349.146 749 359.593 749H523.427C533.875 749 542.647 752.652 549.949 760.028C557.253 767.406 560.882 776.284 560.882 786.869V990.234H540.244V899.556H342.777ZM342.777 786.869V878.638H540.244V786.869C540.244 782.253 538.5 778.259 535.135 775.092C532.001 771.695 528.032 769.918 523.427 769.918H359.593C354.95 769.918 350.886 771.72 347.545 775.095C344.369 778.303 342.777 782.303 342.777 786.869ZM758.486 769.918V990.234H737.848V769.918H628.625V749H867.367V769.918H758.486ZM955.357 899.556V990.234H934.719V786.869C934.719 776.284 938.347 767.406 945.651 760.028C952.953 752.652 961.726 749 972.173 749H1136.01C1146.45 749 1155.23 752.652 1162.53 760.028C1169.83 767.406 1173.46 776.284 1173.46 786.869V990.234H1152.82V899.556H955.357ZM955.357 786.869V878.638H1152.82V786.869C1152.82 782.253 1151.08 778.259 1147.72 775.093C1144.58 771.695 1140.61 769.918 1136.01 769.918H972.173C967.53 769.918 963.466 771.72 960.125 775.095C956.948 778.303 955.357 782.303 955.357 786.869ZM1290.95 969.316H1491.55V990.234H1290.95C1280.5 990.234 1271.73 986.582 1264.42 979.206C1257.12 971.828 1253.49 962.95 1253.49 952.365V786.869C1253.49 776.284 1257.12 767.406 1264.42 760.028C1271.73 752.652 1280.5 749 1290.95 749H1491.55V769.918H1290.95C1286.3 769.918 1282.24 771.72 1278.9 775.095C1275.72 778.303 1274.13 782.303 1274.13 786.869V952.365C1274.13 956.926 1275.71 960.98 1278.79 964.374L1278.9 964.487L1279.01 964.59C1282.37 967.704 1286.4 969.316 1290.95 969.316ZM1589.6 899.556V990.234H1568.96V786.869C1568.96 776.284 1572.59 767.406 1579.9 760.028C1587.2 752.652 1595.97 749 1606.42 749H1770.25C1780.7 749 1789.47 752.652 1796.77 760.028C1804.08 767.406 1807.71 776.284 1807.71 786.869V990.234H1787.07V899.556H1589.6ZM1589.6 786.869V878.638H1787.07V786.869C1787.07 782.253 1785.33 778.259 1781.96 775.093C1778.83 771.695 1774.86 769.918 1770.25 769.918H1606.42C1601.78 769.918 1597.71 771.72 1594.37 775.095C1591.19 778.303 1589.6 782.303 1589.6 786.869Z" fill="#181B5E" style="mix-blend-mode:multiply"/>
    <path d="M161.35 887.489H158.05V890.789H161.35V887.489ZM222.105 887.489H225.405V884.189H222.105V887.489ZM161.35 866.226V862.926H158.05V866.226H161.35ZM242.743 866.226H246.043V862.926H242.743V866.226ZM231.81 979.206L234.156 981.527L234.156 981.527L231.81 979.206ZM14.9323 979.206L12.5871 981.527L12.5871 981.527L14.9323 979.206ZM14.9323 760.028L12.5871 757.707L12.5871 757.707L14.9323 760.028ZM231.81 760.028L234.156 757.707L234.156 757.707L231.81 760.028ZM242.743 793.363V796.663H246.043V793.363H242.743ZM222.105 793.363H218.805V796.663H222.105V793.363ZM216.997 775.093L214.571 777.33L214.65 777.416L214.735 777.496L216.997 775.093ZM29.4064 775.095L31.7516 777.416L31.7516 777.416L29.4064 775.095ZM29.3017 964.374L31.7455 962.156L31.7455 962.156L29.3017 964.374ZM29.4041 964.487L26.9603 966.704L27.0568 966.811L27.1621 966.908L29.4041 964.487ZM29.5159 964.59L31.758 962.169L31.7579 962.169L29.5159 964.59ZM216.995 964.484L214.65 962.163L214.65 962.163L216.995 964.484ZM342.777 990.234V993.534H346.077V990.234H342.777ZM342.777 899.556V896.256H339.477V899.556H342.777ZM322.139 990.234H318.839V993.534H322.139V990.234ZM333.071 760.028L330.726 757.707L330.726 757.707L333.071 760.028ZM549.949 760.028L552.294 757.707L552.294 757.707L549.949 760.028ZM560.882 990.234V993.534H564.182V990.234H560.882ZM540.244 990.234H536.944V993.534H540.244V990.234ZM540.244 899.556H543.544V896.256H540.244V899.556ZM342.777 878.638H339.477V881.938H342.777V878.638ZM540.244 878.638V881.938H543.544V878.638H540.244ZM535.135 775.092L532.71 777.33L532.789 777.416L532.874 777.496L535.135 775.092ZM347.545 775.095L349.89 777.416L349.89 777.416L347.545 775.095ZM758.486 990.234V993.534H761.786V990.234H758.486ZM758.486 769.918V766.618H755.186V769.918H758.486ZM737.848 990.234H734.548V993.534H737.848V990.234ZM737.848 769.918H741.148V766.618H737.848V769.918ZM628.625 769.918H625.325V773.218H628.625V769.918ZM628.625 749V745.7H625.325V749H628.625ZM867.367 749H870.667V745.7H867.367V749ZM867.367 769.918V773.218H870.667V769.918H867.367ZM955.357 990.234V993.534H958.657V990.234H955.357ZM955.357 899.556V896.256H952.057V899.556H955.357ZM934.719 990.234H931.419V993.534H934.719V990.234ZM945.651 760.028L943.306 757.707L943.306 757.707L945.651 760.028ZM1162.53 760.028L1164.87 757.707L1164.87 757.707L1162.53 760.028ZM1173.46 990.234V993.534H1176.76V990.234H1173.46ZM1152.82 990.234H1149.52V993.534H1152.82V990.234ZM1152.82 899.556H1156.12V896.256H1152.82V899.556ZM955.357 878.638H952.057V881.938H955.357V878.638ZM1152.82 878.638V881.938H1156.12V878.638H1152.82ZM1147.72 775.093L1145.29 777.33L1145.37 777.416L1145.45 777.496L1147.72 775.093ZM960.125 775.095L962.47 777.416L962.47 777.416L960.125 775.095ZM1491.55 969.316H1494.85V966.016H1491.55V969.316ZM1491.55 990.234V993.534H1494.85V990.234H1491.55ZM1264.42 979.206L1266.77 976.884L1266.77 976.884L1264.42 979.206ZM1264.42 760.028L1266.77 762.35L1266.77 762.35L1264.42 760.028ZM1491.55 749H1494.85V745.7H1491.55V749ZM1491.55 769.918V773.218H1494.85V769.918H1491.55ZM1278.9 775.095L1276.55 772.773L1276.55 772.773L1278.9 775.095ZM1278.79 964.374L1276.35 966.592L1276.35 966.592L1278.79 964.374ZM1278.9 964.487L1276.45 966.705L1276.55 966.811L1276.65 966.908L1278.9 964.487ZM1279.01 964.59L1281.25 962.169L1281.25 962.169L1279.01 964.59ZM1589.6 990.234V993.534H1592.9V990.234H1589.6ZM1589.6 899.556V896.256H1586.3V899.556H1589.6ZM1568.96 990.234H1565.66V993.534H1568.96V990.234ZM1579.9 760.028L1582.24 762.35L1582.24 762.35L1579.9 760.028ZM1796.77 760.028L1794.43 762.35L1794.43 762.35L1796.77 760.028ZM1807.71 990.234V993.534H1811.01V990.234H1807.71ZM1787.07 990.234H1783.77V993.534H1787.07V990.234ZM1787.07 899.556H1790.37V896.256H1787.07V899.556ZM1589.6 878.638H1586.3V881.938H1589.6V878.638ZM1787.07 878.638V881.938H1790.37V878.638H1787.07ZM1781.96 775.093L1779.54 777.33L1779.62 777.416L1779.7 777.496L1781.96 775.093ZM1594.37 775.095L1592.03 772.773L1592.03 772.773L1594.37 775.095ZM161.35 890.789H222.105V884.189H161.35V890.789ZM158.05 866.226V887.489H164.65V866.226H158.05ZM242.743 862.926H161.35V869.526H242.743V862.926ZM246.043 952.365V866.226H239.443V952.365H246.043ZM234.156 981.527C242.081 973.522 246.043 963.805 246.043 952.365H239.443C239.443 962.095 236.147 970.135 229.465 976.884L234.156 981.527ZM205.289 993.534C216.612 993.534 226.23 989.533 234.156 981.527L229.465 976.884C222.786 983.631 214.86 986.934 205.289 986.934V993.534ZM41.454 993.534H205.289V986.934H41.454V993.534ZM12.5871 981.527C20.5126 989.533 30.1309 993.534 41.454 993.534V986.934C31.8829 986.934 23.9564 983.631 17.2774 976.884L12.5871 981.527ZM0.7 952.365C0.7 963.805 4.66152 973.522 12.5871 981.527L17.2775 976.884C10.5959 970.135 7.3 962.095 7.3 952.365H0.7ZM0.7 786.869V952.365H7.3V786.869H0.7ZM12.5871 757.707C4.66152 765.713 0.7 775.429 0.7 786.869H7.3C7.3 777.139 10.5959 769.099 17.2775 762.35L12.5871 757.707ZM41.454 745.7C30.1309 745.7 20.5126 749.701 12.5871 757.707L17.2775 762.35C23.9564 755.603 31.8829 752.3 41.454 752.3V745.7ZM205.289 745.7H41.454V752.3H205.289V745.7ZM234.156 757.707C226.23 749.701 216.612 745.7 205.289 745.7V752.3C214.86 752.3 222.786 755.603 229.465 762.35L234.156 757.707ZM246.043 786.869C246.043 775.429 242.081 765.713 234.156 757.707L229.465 762.35C236.147 769.099 239.443 777.139 239.443 786.869H246.043ZM246.043 793.363V786.869H239.443V793.363H246.043ZM222.105 796.663H242.743V790.063H222.105V796.663ZM218.805 786.869V793.363H225.405V786.869H218.805ZM214.735 777.496C217.444 780.045 218.805 783.172 218.805 786.869H225.405C225.405 781.333 223.278 776.473 219.258 772.689L214.735 777.496ZM205.289 773.218C208.95 773.218 212.047 774.594 214.571 777.33L219.423 772.855C215.678 768.796 210.836 766.618 205.289 766.618V773.218ZM41.454 773.218H205.289V766.618H41.454V773.218ZM31.7516 777.416C34.5184 774.621 37.7556 773.218 41.454 773.218V766.618C35.8669 766.618 30.9755 768.819 27.0612 772.773L31.7516 777.416ZM27.9379 786.869C27.9379 783.139 29.2095 779.984 31.7516 777.416L27.0612 772.773C23.25 776.623 21.3379 781.467 21.3379 786.869H27.9379ZM27.9379 952.365V786.869H21.3379V952.365H27.9379ZM31.7455 962.156C29.2087 959.361 27.9379 956.094 27.9379 952.365H21.3379C21.3379 957.757 23.2349 962.599 26.8579 966.592L31.7455 962.156ZM31.8479 962.269L31.7455 962.156L26.8579 966.592L26.9603 966.704L31.8479 962.269ZM31.7579 962.169L31.6461 962.065L27.1621 966.908L27.2739 967.012L31.7579 962.169ZM41.454 966.016C37.7607 966.016 34.5257 964.732 31.758 962.169L27.2738 967.012C31.2312 970.676 36.0571 972.616 41.454 972.616V966.016ZM205.289 966.016H41.454V972.616H205.289V966.016ZM214.65 962.163C212.108 964.731 208.983 966.016 205.289 966.016V972.616C210.698 972.616 215.526 970.659 219.34 966.806L214.65 962.163ZM218.805 952.365C218.805 956.099 217.416 959.368 214.65 962.163L219.34 966.806C223.254 962.852 225.405 957.943 225.405 952.365H218.805ZM218.805 887.489V952.365H225.405V887.489H218.805ZM346.077 990.234V899.556H339.477V990.234H346.077ZM322.139 993.534H342.777V986.934H322.139V993.534ZM318.839 786.869V990.234H325.439V786.869H318.839ZM330.726 757.707C322.8 765.713 318.839 775.429 318.839 786.869H325.439C325.439 777.139 328.735 769.099 335.416 762.35L330.726 757.707ZM359.593 745.7C348.27 745.7 338.651 749.701 330.726 757.707L335.416 762.35C342.095 755.603 350.022 752.3 359.593 752.3V745.7ZM523.427 745.7H359.593V752.3H523.427V745.7ZM552.294 757.707C544.369 749.701 534.751 745.7 523.427 745.7V752.3C532.999 752.3 540.925 755.603 547.604 762.35L552.294 757.707ZM564.182 786.869C564.182 775.429 560.22 765.713 552.294 757.707L547.604 762.35C554.286 769.099 557.582 777.139 557.582 786.869H564.182ZM564.182 990.234V786.869H557.582V990.234H564.182ZM540.244 993.534H560.882V986.934H540.244V993.534ZM536.944 899.556V990.234H543.544V899.556H536.944ZM342.777 902.856H540.244V896.256H342.777V902.856ZM346.077 878.638V786.869H339.477V878.638H346.077ZM540.244 875.338H342.777V881.938H540.244V875.338ZM536.944 786.869V878.638H543.544V786.869H536.944ZM532.874 777.496C535.583 780.045 536.944 783.172 536.944 786.869H543.544C543.544 781.333 541.417 776.473 537.397 772.689L532.874 777.496ZM523.427 773.218C527.089 773.218 530.186 774.594 532.71 777.33L537.561 772.855C533.817 768.796 528.975 766.618 523.427 766.618V773.218ZM359.593 773.218H523.427V766.618H359.593V773.218ZM349.89 777.416C352.657 774.621 355.894 773.218 359.593 773.218V766.618C354.006 766.618 349.114 768.819 345.2 772.773L349.89 777.416ZM346.077 786.869C346.077 783.139 347.348 779.984 349.89 777.416L345.2 772.773C341.389 776.623 339.477 781.467 339.477 786.869H346.077ZM761.786 990.234V769.918H755.186V990.234H761.786ZM737.848 993.534H758.486V986.934H737.848V993.534ZM734.548 769.918V990.234H741.148V769.918H734.548ZM628.625 773.218H737.848V766.618H628.625V773.218ZM625.325 749V769.918H631.925V749H625.325ZM867.367 745.7H628.625V752.3H867.367V745.7ZM870.667 769.918V749H864.067V769.918H870.667ZM758.486 773.218H867.367V766.618H758.486V773.218ZM958.657 990.234V899.556H952.057V990.234H958.657ZM934.719 993.534H955.357V986.934H934.719V993.534ZM931.419 786.869V990.234H938.019V786.869H931.419ZM943.306 757.707C935.38 765.713 931.419 775.429 931.419 786.869H938.019C938.019 777.139 941.315 769.099 947.996 762.35L943.306 757.707ZM972.173 745.7C960.85 745.7 951.231 749.701 943.306 757.707L947.996 762.35C954.675 755.603 962.602 752.3 972.173 752.3V745.7ZM1136.01 745.7H972.173V752.3H1136.01V745.7ZM1164.87 757.707C1156.95 749.701 1147.33 745.7 1136.01 745.7V752.3C1145.58 752.3 1153.51 755.603 1160.18 762.35L1164.87 757.707ZM1176.76 786.869C1176.76 775.429 1172.8 765.713 1164.87 757.707L1160.18 762.35C1166.87 769.099 1170.16 777.139 1170.16 786.869H1176.76ZM1176.76 990.234V786.869H1170.16V990.234H1176.76ZM1152.82 993.534H1173.46V986.934H1152.82V993.534ZM1149.52 899.556V990.234H1156.12V899.556H1149.52ZM955.357 902.856H1152.82V896.256H955.357V902.856ZM958.657 878.638V786.869H952.057V878.638H958.657ZM1152.82 875.338H955.357V881.938H1152.82V875.338ZM1149.52 786.869V878.638H1156.12V786.869H1149.52ZM1145.45 777.496C1148.16 780.045 1149.52 783.173 1149.52 786.869H1156.12C1156.12 781.334 1154 776.473 1149.98 772.69L1145.45 777.496ZM1136.01 773.218C1139.67 773.218 1142.77 774.594 1145.29 777.33L1150.14 772.856C1146.4 768.796 1141.55 766.618 1136.01 766.618V773.218ZM972.173 773.218H1136.01V766.618H972.173V773.218ZM962.47 777.416C965.237 774.621 968.474 773.218 972.173 773.218V766.618C966.586 766.618 961.694 768.819 957.78 772.773L962.47 777.416ZM958.657 786.869C958.657 783.139 959.928 779.984 962.47 777.416L957.78 772.773C953.969 776.623 952.057 781.467 952.057 786.869H958.657ZM1491.55 966.016H1290.95V972.616H1491.55V966.016ZM1494.85 990.234V969.316H1488.25V990.234H1494.85ZM1290.95 993.534H1491.55V986.934H1290.95V993.534ZM1262.08 981.527C1270 989.533 1279.62 993.534 1290.95 993.534V986.934C1281.38 986.934 1273.45 983.631 1266.77 976.884L1262.08 981.527ZM1250.19 952.365C1250.19 963.805 1254.15 973.522 1262.08 981.527L1266.77 976.884C1260.09 970.135 1256.79 962.095 1256.79 952.365H1250.19ZM1250.19 786.869V952.365H1256.79V786.869H1250.19ZM1262.08 757.707C1254.15 765.713 1250.19 775.429 1250.19 786.869H1256.79C1256.79 777.139 1260.09 769.099 1266.77 762.35L1262.08 757.707ZM1290.95 745.7C1279.62 745.7 1270 749.701 1262.08 757.707L1266.77 762.35C1273.45 755.603 1281.38 752.3 1290.95 752.3V745.7ZM1491.55 745.7H1290.95V752.3H1491.55V745.7ZM1494.85 769.918V749H1488.25V769.918H1494.85ZM1290.95 773.218H1491.55V766.618H1290.95V773.218ZM1281.24 777.416C1284.01 774.621 1287.25 773.218 1290.95 773.218V766.618C1285.36 766.618 1280.47 768.819 1276.55 772.773L1281.24 777.416ZM1277.43 786.869C1277.43 783.139 1278.7 779.984 1281.24 777.416L1276.55 772.773C1272.74 776.623 1270.83 781.467 1270.83 786.869H1277.43ZM1277.43 952.365V786.869H1270.83V952.365H1277.43ZM1281.24 962.156C1278.7 959.361 1277.43 956.094 1277.43 952.365H1270.83C1270.83 957.757 1272.73 962.599 1276.35 966.592L1281.24 962.156ZM1281.34 962.269L1281.24 962.156L1276.35 966.592L1276.45 966.705L1281.34 962.269ZM1281.25 962.169L1281.14 962.065L1276.65 966.908L1276.77 967.012L1281.25 962.169ZM1290.95 966.016C1287.25 966.016 1284.02 964.732 1281.25 962.169L1276.77 967.012C1280.72 970.676 1285.55 972.616 1290.95 972.616V966.016ZM1592.9 990.234V899.556H1586.3V990.234H1592.9ZM1568.96 993.534H1589.6V986.934H1568.96V993.534ZM1565.66 786.869V990.234H1572.26V786.869H1565.66ZM1577.55 757.707C1569.63 765.713 1565.66 775.429 1565.66 786.869H1572.26C1572.26 777.139 1575.56 769.099 1582.24 762.35L1577.55 757.707ZM1606.42 745.7C1595.1 745.7 1585.48 749.701 1577.55 757.707L1582.24 762.35C1588.92 755.603 1596.85 752.3 1606.42 752.3V745.7ZM1770.25 745.7H1606.42V752.3H1770.25V745.7ZM1799.12 757.707C1791.19 749.701 1781.58 745.7 1770.25 745.7V752.3C1779.82 752.3 1787.75 755.603 1794.43 762.35L1799.12 757.707ZM1811.01 786.869C1811.01 775.429 1807.05 765.713 1799.12 757.707L1794.43 762.35C1801.11 769.099 1804.41 777.139 1804.41 786.869H1811.01ZM1811.01 990.234V786.869H1804.41V990.234H1811.01ZM1787.07 993.534H1807.71V986.934H1787.07V993.534ZM1783.77 899.556V990.234H1790.37V899.556H1783.77ZM1589.6 902.856H1787.07V896.256H1589.6V902.856ZM1592.9 878.638V786.869H1586.3V878.638H1592.9ZM1787.07 875.338H1589.6V881.938H1787.07V875.338ZM1783.77 786.869V878.638H1790.37V786.869H1783.77ZM1779.7 777.496C1782.41 780.045 1783.77 783.172 1783.77 786.869H1790.37C1790.37 781.334 1788.24 776.473 1784.22 772.69L1779.7 777.496ZM1770.25 773.218C1773.92 773.218 1777.01 774.594 1779.54 777.33L1784.39 772.856C1780.64 768.796 1775.8 766.618 1770.25 766.618V773.218ZM1606.42 773.218H1770.25V766.618H1606.42V773.218ZM1596.72 777.416C1599.48 774.621 1602.72 773.218 1606.42 773.218V766.618C1600.83 766.618 1595.94 768.819 1592.03 772.773L1596.72 777.416ZM1592.9 786.869C1592.9 783.139 1594.17 779.984 1596.72 777.416L1592.03 772.773C1588.21 776.623 1586.3 781.467 1586.3 786.869H1592.9Z" fill="#181B5E" mask="url(#path-6-outside-1)"/>
</svg>
