<svg width="200" height="30" viewBox="0 0 200 30" fill="none" xmlns="http://www.w3.org/2000/svg">
<g clip-path="url(#clip0_6385_58058)">
<path d="M0.000727891 0.321533H5.30149V10.0671C8.45993 8.38781 11.6409 8.35527 14.8469 8.71066C19.7998 9.25875 22.1924 11.366 22.7505 16.3039C23.0358 18.8166 22.763 21.462 22.315 23.9698C21.837 26.6352 19.9224 28.2844 17.297 28.9952C13.5605 30.0063 9.79138 29.9613 6.0448 29.1053C2.49094 28.2945 0.486256 25.8943 0.210957 22.2229C0.0933286 20.6461 0.0257551 19.0619 0.0182469 17.4802C-0.009283 12.2245 0.00323061 6.97126 0.000727891 1.71805C0.000727891 1.27257 0.000727891 0.827083 0.000727891 0.321533ZM17.5899 19.147L17.4697 19.137C17.4697 18.4287 17.5023 17.718 17.4647 17.0122C17.3146 14.1891 16.1533 12.8852 13.3527 12.6424C11.8286 12.5098 10.2744 12.5548 8.74774 12.6925C6.84067 12.8627 5.61684 13.7887 5.42913 15.6807C5.19137 18.0959 5.28147 20.5635 5.47418 22.9887C5.58931 24.4378 6.68049 25.4313 8.15209 25.5515C10.1743 25.7167 12.2265 25.8067 14.2412 25.6466C15.9381 25.5114 17.0117 24.3852 17.227 22.6183C17.3696 21.4645 17.4697 20.3058 17.5899 19.1495V19.147Z" fill="#C6C6C8"/>
<path d="M84.6514 0.263949V16.4165C86.3433 16.7294 87.7048 16.5116 88.886 15.3078C90.7531 13.4032 92.6651 11.5437 94.6173 9.72674C95.0252 9.34883 95.6759 9.07603 96.2315 9.0435C97.8032 8.9534 99.3824 9.01096 101.325 9.01096C98.0585 12.3621 95.0052 15.493 91.8743 18.7065C95.2505 22.2428 98.549 25.6966 102.083 29.3956C99.6953 29.3956 97.6055 29.4282 95.5182 29.3606C95.1954 29.3506 94.86 28.8976 94.5797 28.5998C92.7527 26.6576 90.9458 24.698 89.1213 22.7534C88.7509 22.358 88.403 21.8049 87.94 21.6672C86.974 21.3794 85.9428 21.2643 84.9367 21.2593C84.8366 21.2593 84.6564 22.5056 84.6414 23.1764C84.5989 24.9258 84.6039 26.6777 84.6414 28.4271C84.6564 29.1854 84.3861 29.4707 83.6228 29.4357C82.5416 29.3856 81.4555 29.3881 80.3718 29.4357C79.6535 29.4657 79.3807 29.1679 79.4157 28.4896C79.4258 28.2819 79.4157 28.0717 79.4157 27.864C79.4157 19.1945 79.4358 10.5226 79.3907 1.85318C79.3857 0.659379 79.5959 0.0787475 80.9524 0.233916C82.1012 0.36656 83.2799 0.261446 84.6514 0.261446V0.263949Z" fill="#C6C6C8"/>
<path d="M180.181 24.5227C180.181 25.6214 180.248 26.6099 180.138 27.5785C180.105 27.8613 179.612 28.2342 179.267 28.3193C177.373 28.7873 175.478 29.3454 173.548 29.5556C170.4 29.8985 167.226 29.9536 164.113 29.1127C161.273 28.3443 159.533 26.4523 159.18 23.6042C158.862 21.0589 158.742 18.4411 158.94 15.8883C159.265 11.6862 161.383 9.55139 165.755 8.84562C169.229 8.28501 172.73 8.28501 176.159 9.30612C179.705 10.3598 181.297 12.8199 180.874 16.4789C180.634 18.5687 179.407 19.9377 177.508 20.3757C174.805 20.9963 172.029 21.3142 169.271 21.6621C168.037 21.8172 166.771 21.7872 165.522 21.7421C164.363 21.6996 164.263 22.2452 164.589 23.1337C165.182 24.7554 166.408 25.5738 168.06 25.794C171.671 26.2771 175.203 25.7515 178.701 24.8931C179.137 24.7855 179.57 24.6778 180.176 24.5252L180.181 24.5227ZM164.176 18.2834C167.592 17.9105 170.695 17.6677 173.761 17.1947C175.415 16.9394 176.049 15.2301 175.057 13.9537C174.635 13.4081 173.876 12.8375 173.236 12.7949C171.053 12.6498 168.848 12.6197 166.668 12.7799C165.542 12.8625 164.719 13.7309 164.521 14.9297C164.361 15.8983 164.313 16.8844 164.176 18.2859V18.2834Z" fill="#C6C6C8"/>
<path d="M27.9129 13.8237C27.9129 12.71 27.8554 11.7539 27.9455 10.8104C27.9755 10.5001 28.3334 10.0546 28.6312 9.9595C33.4014 8.46788 38.2442 7.94731 43.137 9.26374C46.2329 10.0971 47.8046 12.1669 47.8822 15.3579C47.9447 17.9407 47.9522 20.526 47.8822 23.1088C47.7896 26.4449 46.1328 28.5097 42.8592 29.1979C38.7272 30.0689 34.5702 29.9838 30.4958 28.835C28.2808 28.2118 26.5815 26.8579 26.2812 24.4002C26.0134 22.2103 26.2086 19.8928 28.3609 18.7841C30.1579 17.8581 32.2627 17.3951 34.2874 17.0722C36.6625 16.6918 39.0926 16.6393 41.5027 16.5341C42.3987 16.4941 42.6565 16.1637 42.6039 15.3253C42.5038 13.7061 41.723 12.9077 39.8684 12.6775C36.2645 12.232 32.7257 12.6324 29.2244 13.5084C28.864 13.5985 28.5036 13.681 27.9129 13.8212V13.8237ZM42.5464 19.9028C40.0536 20.058 37.7336 20.1656 35.4236 20.3633C34.6102 20.4334 33.7993 20.6686 33.011 20.9089C31.8672 21.2593 31.5569 22.1402 31.6145 23.254C31.6695 24.3627 32.0825 25.3963 33.2137 25.4639C35.764 25.6165 38.3293 25.599 40.8846 25.4914C41.7805 25.4538 42.4963 24.7631 42.5363 23.737C42.5839 22.5432 42.5464 21.3444 42.5464 19.9028Z" fill="#C6C6C8"/>
<path d="M131.354 29.4257C131.354 27.6713 131.354 26.0946 131.354 24.5204C131.349 21.6848 131.374 18.8492 131.329 16.0161C131.296 14.0064 130.42 12.9002 128.468 12.7301C126.571 12.5649 124.639 12.5749 122.742 12.7276C120.925 12.8727 120.004 13.8087 119.941 15.6582C119.809 19.6551 119.851 23.6594 119.821 27.6588C119.816 28.1919 119.821 28.7224 119.821 29.3406H114.578C114.578 28.5648 114.578 27.8265 114.578 27.0907C114.578 23.7971 114.578 20.5035 114.578 17.2099C114.578 12.0793 116.498 9.61417 121.581 8.88087C124.739 8.42537 127.978 8.3553 131.136 9.21623C134.838 10.2248 136.612 12.4347 136.647 16.2364C136.685 20.1957 136.615 24.1575 136.655 28.1168C136.665 29.1529 136.334 29.5158 135.291 29.4457C134.052 29.3606 132.8 29.4257 131.351 29.4257H131.354Z" fill="#C6C6C8"/>
<path d="M57.6461 29.3581H52.518C52.4855 28.8575 52.4304 28.377 52.4279 27.8965C52.4204 24.3526 52.5205 20.8063 52.4004 17.2674C52.2277 12.1769 54.335 9.67417 59.1878 8.92335C62.5214 8.40779 65.9176 8.34522 69.2287 9.28124C72.6274 10.2423 74.4143 12.6499 74.4169 16.1888C74.4219 20.1906 74.4169 24.1925 74.4118 28.1943C74.4118 28.5572 74.3743 28.9226 74.3518 29.3531H69.2888C69.2512 28.8976 69.1812 28.4221 69.1787 27.9465C69.1686 24.3201 69.1787 20.6937 69.1711 17.0672C69.1611 13.7236 68.4203 12.8576 65.0667 12.5873C63.6251 12.4697 62.151 12.5548 60.7044 12.6899C58.6347 12.8852 57.6711 13.9839 57.6536 16.0811C57.6236 19.9979 57.6436 23.9172 57.6411 27.8364C57.6411 28.2919 57.6411 28.7474 57.6411 29.3581H57.6461Z" fill="#C6C6C8"/>
<path d="M141.436 2.5965H146.474V9.13861H155.406V12.8827C155.011 12.9052 154.573 12.9503 154.135 12.9528C151.925 12.9603 149.715 12.9678 147.505 12.9528C146.88 12.9478 146.479 13.0554 146.487 13.8312C146.517 16.9571 146.482 20.0855 146.517 23.2114C146.532 24.5228 147.33 25.4363 148.557 25.5114C150.531 25.6341 152.523 25.4689 154.508 25.4138C154.791 25.4063 155.074 25.3362 155.552 25.2661C155.552 26.3298 155.589 27.3159 155.524 28.2919C155.509 28.5222 155.171 28.8651 154.926 28.9226C151.697 29.691 148.456 30.149 145.195 29.0778C142.795 28.2894 141.381 26.5651 141.366 24.0974C141.324 17.0948 141.354 10.0896 141.359 3.08453C141.359 2.96189 141.396 2.84176 141.436 2.59399V2.5965Z" fill="#C6C6C8"/>
<path d="M190.536 29.353H185.405C185.34 29.1828 185.235 29.0302 185.235 28.8775C185.252 24.1724 185.16 19.4623 185.342 14.7621C185.485 11.1007 187.79 8.80316 191.432 8.57041C194.202 8.39272 196.993 8.53537 199.983 8.53537C199.983 9.94941 200.041 11.0231 199.936 12.0792C199.913 12.307 199.305 12.6323 198.957 12.6448C197.168 12.7049 195.376 12.6624 193.584 12.6799C191.121 12.7049 190.546 13.273 190.538 15.7007C190.526 20.1981 190.536 24.6954 190.536 29.3555V29.353Z" fill="#C6C6C8"/>
<path d="M104.375 29.4256V9.09595H109.498C109.528 9.39878 109.593 9.75166 109.596 10.107C109.603 16.066 109.578 22.025 109.623 27.984C109.631 29.1127 109.323 29.5532 108.144 29.4481C106.948 29.343 105.736 29.4256 104.375 29.4256Z" fill="#C6C6C8"/>
<path d="M194.729 29.4257V24.3877H199.982C199.982 25.8543 200.017 27.3334 199.942 28.81C199.932 29.0277 199.409 29.3856 199.109 29.3981C197.702 29.4607 196.291 29.4257 194.727 29.4257H194.729Z" fill="#C6C6C8"/>
<path d="M104.367 5.30677V0.348877H109.563C109.563 1.81297 109.593 3.28457 109.525 4.75116C109.515 4.94888 109.01 5.26923 108.724 5.28174C107.32 5.3368 105.911 5.30677 104.367 5.30677Z" fill="#C6C6C8"/>
</g>
<defs>
<clipPath id="clip0_6385_58058">
<rect width="200" height="29.5772" fill="white" transform="translate(0 0.211426)"/>
</clipPath>
</defs>
</svg>
