<svg width="62" height="50" viewBox="0 0 62 50" fill="none" xmlns="http://www.w3.org/2000/svg">
<g clip-path="url(#clip0_5110_43882)">
<path d="M0 13.595C0 13.595 20.5696 10.9331 21.1499 10.8388C22.0407 10.6934 22.8306 10.5231 23.5681 10.32C25.2318 9.86415 26.7632 9.16854 28.1191 8.25154C29.4199 7.38039 30.629 6.11235 31.8277 4.72113C32.5888 3.83558 33.3892 2.68149 34.1359 1.568V1.02954C33.2504 2.34085 32.3779 3.47137 31.4805 4.46828C30.2911 5.79269 29.0439 6.87479 27.7719 7.68699C26.4593 8.53324 24.983 9.16333 23.3808 9.56288C22.6629 9.74366 21.8953 9.89037 21.0307 10.0109C20.4622 10.0907 19.8753 10.1524 19.308 10.2114C19.0814 10.2363 0 12.2601 0 12.2601V13.595V13.595Z" fill="#8C8C90"/>
<path d="M27.5846 10.146C26.2969 10.8861 24.81 11.4285 23.1647 11.756C22.4625 11.8987 21.6962 12.014 20.8237 12.1083C20.3102 12.1646 19.794 12.2091 19.2766 12.2537C18.9976 12.2773 18.7185 12.3022 18.4395 12.3271C12.1358 12.893 5.86486 13.4943 0 14.0628V15.3977C5.91071 14.6851 12.2262 13.9292 18.5273 13.2166C18.8076 13.1839 19.0879 13.1524 19.3683 13.1222C19.8844 13.0659 20.4019 13.0083 20.9193 12.9402C21.8167 12.821 22.6014 12.6834 23.3179 12.521C25.0275 12.1385 26.5707 11.5359 27.9056 10.7276C29.2313 9.93243 30.4024 8.81763 31.6626 7.45523C32.4473 6.60766 33.3197 5.41033 34.1372 4.28636V3.79639C33.1743 5.10114 32.2613 6.19764 31.3587 7.13298C30.1286 8.4076 28.8592 9.42023 27.5846 10.146" fill="#8C8C90"/>
<path d="M31.1845 9.81924C29.9295 10.9707 28.6195 11.8759 27.2899 12.51C25.989 13.1375 24.5349 13.5776 22.8411 13.8553C22.1429 13.9719 21.3831 14.0663 20.5198 14.1449L0 15.8295V17.1605L18.2404 15.2256L20.5997 14.978C21.4892 14.8746 22.2647 14.7592 22.9695 14.6256C24.7236 14.2942 26.2288 13.8003 27.5689 13.1139C28.9391 12.4209 30.3081 11.2681 31.5814 10.0472C32.4355 9.22846 33.2582 8.17126 34.1372 7.063V6.6189C33.1219 7.88173 32.1526 8.93237 31.1845 9.81924" fill="#8C8C90"/>
<path d="M26.2222 16.7329C25.0275 17.401 24.1341 17.7862 22.4285 17.9644C21.3975 18.0757 20.3377 18.1281 19.312 18.1792C18.8168 18.204 18.3203 18.229 17.8238 18.2604C14.7244 18.4372 11.6799 18.6338 8.57392 18.8355L0 19.4132V20.7441L8.6604 19.9503C11.4586 19.6988 14.71 19.4093 17.8841 19.1499L20.1923 18.9717C21.0936 18.9024 21.8324 18.829 22.5162 18.7399C24.2716 18.5132 25.7716 18.1582 27.0999 17.6565C28.5304 17.122 29.8797 16.2915 31.2303 15.3142C32.4486 14.4339 34.1346 12.6982 34.1359 12.6759V12.2056C33.0342 13.2798 32.4002 13.8837 31.1937 14.6789C29.7514 15.6286 27.2938 16.1343 26.2222 16.7329" fill="#8C8C90"/>
<path d="M26.6584 19.2629C25.3642 19.6428 23.9074 19.8996 22.2044 20.0477C21.5141 20.1079 20.77 20.1538 19.929 20.1878L17.6339 20.2886C11.9315 20.5532 6.25524 20.8493 0 21.1807V22.5078C5.97621 22.0454 11.8319 21.596 17.6863 21.1795L19.9735 21.0236C20.8578 20.9646 21.5901 20.9017 22.2791 20.8245C24.024 20.6293 25.5175 20.3279 26.8432 19.9035C28.3117 19.4384 29.7435 18.7638 31.098 17.8992C32.0976 17.2626 33.0984 16.5028 34.1359 15.5976V15.574C32.9923 16.5499 31.9024 16.7674 30.8164 17.4224C29.4854 18.2293 28.0863 18.8477 26.6584 19.2629" fill="#8C8C90"/>
<path d="M26.4475 21.4689C25.1441 21.7741 23.7306 21.9693 22.0001 22.0859C21.3333 22.1305 20.6154 22.1632 19.7416 22.1907L17.4688 22.2719C11.7415 22.4881 5.93429 22.737 0 22.995V24.3221C5.8963 23.9199 11.6799 23.5282 17.5133 23.164L19.781 23.0278C20.6704 22.9767 21.3949 22.9256 22.0616 22.864C23.8236 22.7016 25.2659 22.4645 26.5995 22.1199C28.0955 21.7348 29.5496 21.1689 30.9211 20.4406C31.9822 19.8786 33.0407 19.2026 34.1372 18.3878V17.8206C32.9516 18.676 31.8146 19.3742 30.6775 19.9427C29.3295 20.6174 27.9068 21.1309 26.4475 21.4689" fill="#8C8C90"/>
<path d="M26.2524 23.6315C24.9437 23.8712 23.5354 24.0245 21.818 24.1122C21.1722 24.1463 20.4805 24.1699 19.5766 24.1909L0 24.7201V26.0471L17.3588 25.1406L19.6081 25.0266C20.4858 24.9847 21.2036 24.9428 21.8678 24.8917C23.6088 24.7581 25.0406 24.5669 26.3742 24.2878C27.8885 23.9734 29.3584 23.5149 30.7417 22.9254C31.8565 22.4525 32.9726 21.8761 34.1359 21.1752V20.6421C32.894 21.3652 31.7124 21.9442 30.5387 22.4092C29.175 22.9516 27.7327 23.3629 26.2524 23.6315" fill="#8C8C90"/>
<path d="M26.0991 25.8034C23.6965 26.1244 21.2246 26.161 18.8325 26.1964C18.2849 26.2037 17.736 26.2121 17.1885 26.224L0 26.5331V27.8575L17.2186 27.1161C17.7636 27.0913 18.3111 27.0689 18.8587 27.048C21.2665 26.951 23.7568 26.8514 26.1921 26.465C27.7326 26.2226 29.2156 25.8624 30.6002 25.3974C31.7465 25.0135 32.9333 24.517 34.1359 23.9301V23.4219C32.8718 24.0101 31.6286 24.5 30.4352 24.8668C29.0675 25.2887 27.6095 25.6044 26.0991 25.8035" fill="#8C8C90"/>
<path d="M25.9628 27.9891C23.7122 28.1751 21.4093 28.1751 19.181 28.1751C18.488 28.1751 17.795 28.1751 17.102 28.1803C11.4075 28.2053 5.75875 28.2524 0 28.3021V29.6266C5.48496 29.4406 11.3026 29.2467 17.1217 29.0737C17.812 29.0502 18.5024 29.0332 19.1941 29.0148C21.4342 28.9585 23.7502 28.9009 26.0244 28.6546C27.6121 28.4843 29.0583 28.2341 30.443 27.8922C31.6508 27.5948 32.8914 27.1992 34.1372 26.7237V26.2363C32.8508 26.6974 31.5696 27.0747 30.3212 27.3498C28.9496 27.6524 27.5243 27.8607 25.9628 27.9891" fill="#8C8C90"/>
<path d="M25.8751 30.1436C24.9371 30.1803 23.9218 30.1986 22.7703 30.1986C22.3354 30.1986 21.8992 30.1966 21.4656 30.1924L17.0352 30.1387C14.013 30.1164 11.0013 30.1112 8.17568 30.1086L0 30.116V31.439L8.19532 31.2255C11.0105 31.1561 14.03 31.0841 17.0443 31.0304L21.4708 30.9713C22.6852 30.953 24.2873 30.9163 25.9104 30.8102C27.5007 30.7068 28.9483 30.5482 30.3356 30.3268C31.584 30.1277 32.8599 29.8591 34.1359 29.533V29.064C32.8246 29.3653 31.5211 29.6077 30.257 29.7767C28.8776 29.9614 27.4444 30.0806 25.8751 30.1434" fill="#8C8C90"/>
<path d="M21.4145 32.2255L16.9998 32.1784C11.3668 32.0984 5.74041 31.9963 0 31.8889V33.2133C5.47841 33.178 11.2817 33.1359 17.0038 33.0718L21.4211 33.0063C22.9092 32.9801 24.3673 32.9527 25.841 32.9042C28.8763 32.8072 31.5958 32.5936 34.1359 32.257V31.7959C31.5853 32.071 28.8632 32.215 25.8253 32.2347C24.3568 32.2478 22.8856 32.2379 21.4145 32.2253" fill="#8C8C90"/>
<path d="M34.1359 34.5676L0 33.7017V35.026H34.1359V34.5676Z" fill="#8C8C90"/>
<path d="M31.0627 12.3209C29.7658 13.3623 28.7649 14.1025 27.1772 14.7326C25.7951 15.2828 24.3109 15.5068 22.6145 15.7386C21.5233 15.8919 20.3822 16.1173 19.2923 16.1906C18.8443 16.2207 18.3963 16.2495 17.9496 16.2849L0 17.5936V18.922L18.0216 17.1744L20.3587 16.9556C21.2246 16.873 21.9949 16.7788 22.7101 16.6622C24.4563 16.3819 25.9615 15.9548 27.3108 15.3535C28.7099 14.7365 30.126 13.7252 31.4426 12.6182C32.3373 11.8663 33.1993 10.9205 34.1359 9.88689V9.41138C33.0028 10.5825 32.0622 11.5192 31.0627 12.3209Z" fill="#8C8C90"/>
<path d="M14.1875 47.7216H44.0895V34.4238H14.1875V47.7216V47.7216Z" fill="#F2F2F2"/>
<path fill-rule="evenodd" clip-rule="evenodd" d="M44.0947 15.0188H14.1875V35.0251H44.0947V15.0188ZM29.4654 17.8639H30.5055L29.6671 18.5176L29.9933 19.5538L29.1575 18.9158L28.3217 19.5538L28.6519 18.5176L27.8056 17.8639H28.8431L29.1575 16.8526L29.4654 17.8639ZM30.5448 31.2058H29.502L29.1955 30.2337L28.8811 31.2058H27.8423L28.6898 31.8359L28.361 32.8315L29.1955 32.2184L30.0313 32.8315L29.7051 31.8359L30.5448 31.2058ZM32.8021 30.3224H33.8449L33.0052 30.9512L33.3314 31.948L32.4956 31.3324L31.6611 31.948L31.9899 30.9512L31.1424 30.3224H32.1812L32.4956 29.349L32.8021 30.3224ZM33.8449 18.7539H32.8021L32.4956 17.7819L32.1812 18.7539H31.1424L31.9899 19.3827L31.6611 20.3796L32.4956 19.7652L33.3314 20.3796L33.0052 19.3827L33.8449 18.7539ZM35.2531 21.204H36.2932L35.4549 21.8314L35.781 22.8296L34.9453 22.2153L34.1121 22.8296L34.4409 21.8314L33.5934 21.204H34.6309L34.9453 20.2306L35.2531 21.204ZM36.2932 27.9055H35.2531L34.9453 26.9322L34.6309 27.9055H33.5934L34.4409 28.5356L34.1121 29.5338L34.9453 28.9181L35.781 29.5338L35.4549 28.5356L36.2932 27.9055ZM36.1711 24.5037H37.2138L36.3741 25.1324L36.7003 26.1307L35.8645 25.5149L35.0301 26.1307L35.3589 25.1324L34.5113 24.5037H35.5488L35.8645 23.5316L36.1711 24.5037ZM27.1402 18.7621H26.1L25.7922 17.7901L25.4778 18.7621H24.4403L25.2865 19.3922L24.9564 20.3891L25.7922 19.7734L26.628 20.3891L26.3018 19.3922L27.1402 18.7621ZM23.7179 21.2121H24.7607L23.921 21.8409L24.2459 22.8391L23.4114 22.2234L22.5769 22.8391L22.9044 21.8409L22.0582 21.2121H23.097L23.4114 20.24L23.7179 21.2121ZM23.8759 24.5119H22.8344L22.5279 23.5399L22.2135 24.5119H21.176L22.0209 25.1407L21.6921 26.1389L22.5279 25.5245L23.3624 26.1389L23.0375 25.1407L23.8759 24.5119ZM23.7179 27.9138H24.7607L23.921 28.5439L24.2459 29.5421L23.4114 28.9264L22.5769 29.5421L22.9044 28.5439L22.0582 27.9138H23.097L23.4114 26.9431L23.7179 27.9138ZM27.1751 30.3306H26.1349L25.8271 29.3573L25.5127 30.3306H24.4752L25.3214 30.9594L24.9913 31.9563L25.8271 31.3419L26.6602 31.9563L26.3367 30.9594L27.1751 30.3306Z" fill="#545458"/>
<path d="M29.4645 17.8639H30.5046L29.6662 18.5175L29.9924 19.5538L29.1566 18.9158L28.3209 19.5538L28.651 18.5175L27.8047 17.8639H28.8422L29.1566 16.8525L29.4645 17.8639V17.8639Z" fill="#F2F2F2"/>
<path d="M29.5035 31.2057H30.5463L29.7066 31.8358L30.0327 32.8314L29.197 32.2183L28.3625 32.8314L28.6913 31.8358L27.8438 31.2057H28.8826L29.197 30.2336L29.5035 31.2057V31.2057Z" fill="#F2F2F2"/>
<path d="M32.8043 30.3222H33.8471L33.0073 30.951L33.3335 31.9479L32.4978 31.3322L31.6633 31.9479L31.9921 30.951L31.1445 30.3222H32.1833L32.4978 29.3489L32.8043 30.3222V30.3222Z" fill="#F2F2F2"/>
<path d="M32.8043 18.7537H33.8471L33.0073 19.3825L33.3335 20.3795L32.4978 19.765L31.6633 20.3795L31.9921 19.3825L31.1445 18.7537H32.1833L32.4978 17.7817L32.8043 18.7537V18.7537Z" fill="#F2F2F2"/>
<path d="M35.2535 21.2038H36.2936L35.4553 21.8312L35.7814 22.8295L34.9456 22.2151L34.1125 22.8295L34.4413 21.8312L33.5938 21.2038H34.6313L34.9456 20.2305L35.2535 21.2038Z" fill="#F2F2F2"/>
<path d="M35.2535 27.9054H36.2936L35.4553 28.5355L35.7814 29.5338L34.9456 28.918L34.1125 29.5338L34.4413 28.5355L33.5938 27.9054H34.6313L34.9456 26.9321L35.2535 27.9054Z" fill="#F2F2F2"/>
<path d="M36.1715 24.5036H37.2142L36.3745 25.1323L36.7007 26.1306L35.8649 25.5148L35.0305 26.1306L35.3593 25.1323L34.5117 24.5036H35.5492L35.8649 23.5315L36.1715 24.5036V24.5036Z" fill="#F2F2F2"/>
<path d="M26.1012 18.762H27.1413L26.3029 19.3922L26.6291 20.3891L25.7933 19.7733L24.9575 20.3891L25.2877 19.3922L24.4414 18.762H25.4789L25.7933 17.79L26.1012 18.762V18.762Z" fill="#F2F2F2"/>
<path d="M23.7183 21.2121H24.7611L23.9214 21.8408L24.2463 22.8391L23.4118 22.2233L22.5773 22.8391L22.9048 21.8408L22.0586 21.2121H23.0974L23.4118 20.24L23.7183 21.2121V21.2121Z" fill="#F2F2F2"/>
<path d="M22.8342 24.5118H23.8757L23.0373 25.1406L23.3622 26.1388L22.5277 25.5244L21.6919 26.1388L22.0207 25.1406L21.1758 24.5118H22.2133L22.5277 23.5398L22.8342 24.5118V24.5118Z" fill="#F2F2F2"/>
<path d="M23.7183 27.9138H24.7611L23.9214 28.5439L24.2463 29.5421L23.4118 28.9264L22.5773 29.5421L22.9048 28.5439L22.0586 27.9138H23.0974L23.4118 26.9431L23.7183 27.9138V27.9138Z" fill="#F2F2F2"/>
<path d="M26.1363 30.3305H27.1765L26.3381 30.9593L26.6616 31.9562L25.8285 31.3418L24.9927 31.9562L25.3228 30.9593L24.4766 30.3305H25.5141L25.8285 29.3572L26.1363 30.3305V30.3305Z" fill="#F2F2F2"/>
<path d="M14.1875 49.0355H44.0973V47.3286H14.1875V49.0355Z" fill="#545458"/>
<path d="M48.3516 0.964844C48.3516 0.964844 54.5871 10.6758 55.7281 12.4613C56.8678 14.2456 58.1713 15.6578 62.7851 16.6167C67.3989 17.5756 69.4071 18.0288 69.4071 18.0288V18.3747C69.4071 18.3747 66.4753 17.7616 62.7026 16.9363C58.9311 16.111 57.3892 15.832 55.6692 13.4871C54.2374 11.5352 48.3516 3.23898 48.3516 3.23898V0.964844V0.964844Z" fill="#8C8C90"/>
<path d="M48.3516 3.72583C48.3516 3.72583 54.7955 12.9574 55.6509 14.0893C56.5064 15.2211 57.6579 17.0446 62.7511 18.1214C64.0664 18.3991 69.4242 19.4537 69.4242 19.4537V19.7458C69.4242 19.7458 65.3528 18.9611 62.7511 18.4135C60.1482 17.8659 57.4142 17.3668 55.6693 15.166C54.0842 13.167 48.3398 5.79432 48.3398 5.79432L48.3516 3.72583H48.3516Z" fill="#8C8C90"/>
<path d="M48.3516 6.49927C48.3516 6.49927 54.4235 14.3448 55.6509 15.9142C56.8771 17.4822 58.5683 18.7778 62.7511 19.5809C65.1628 20.0446 69.4059 20.8214 69.4059 20.8214V21.1135C69.4059 21.1135 65.6881 20.4206 62.7511 19.8914C59.8141 19.3621 57.3893 18.8499 55.6509 16.8993C54.1261 15.1871 48.3398 8.45767 48.3398 8.45767L48.3516 6.49927H48.3516Z" fill="#8C8C90"/>
<path d="M48.3399 9.22388C48.3399 9.22388 54.4877 16.3411 55.6693 17.6105C57.5099 19.5873 58.402 20.2685 62.7512 21.0951C64.4909 21.4265 69.406 22.2819 69.406 22.2819V22.5911C69.406 22.5911 65.3358 21.8614 62.7512 21.4056C60.1679 20.9497 57.9815 20.7794 55.651 18.5406C53.876 16.8363 48.3517 11.0605 48.3517 11.0605L48.3398 9.22388H48.3399Z" fill="#8C8C90"/>
<path d="M48.3516 12.0579C48.3516 12.0579 54.0278 17.8887 55.6692 19.5628C57.4102 21.3379 59.6411 21.9955 62.7327 22.5366C65.6841 23.0527 69.4058 23.6501 69.4058 23.6501V23.9776C69.4058 23.9776 65.9107 23.4169 62.7327 22.8837C59.6162 22.3597 57.4351 22.0689 55.6509 20.4563C54.0527 19.0127 48.3516 13.7727 48.3516 13.7727V12.0579V12.0579Z" fill="#8C8C90"/>
<path d="M48.3516 14.6853C48.3516 14.6853 53.75 19.5991 55.6692 21.2785C57.4351 22.823 58.8669 23.3038 62.751 23.9784C66.6365 24.6531 69.4058 25.0723 69.4058 25.0723V25.4194C69.4058 25.4194 65.8924 24.8535 62.7327 24.3609C59.573 23.8684 57.5595 23.6745 55.6692 22.1719C53.488 20.4375 48.3516 16.2913 48.3516 16.2913V14.6853V14.6853Z" fill="#8C8C90"/>
<path d="M48.3399 17.4951C48.3399 17.4951 54.4982 22.2818 55.651 23.1202C56.8038 23.9599 58.3273 24.9385 62.7512 25.566C67.1384 26.1869 69.3876 26.4961 69.3876 26.4961V26.8616C69.3876 26.8616 65.4105 26.2944 62.7512 25.9669C60.0932 25.638 58.0548 25.4992 55.6693 23.9416C53.3467 22.4259 48.3517 18.9793 48.3517 18.9793L48.3398 17.4951H48.3399Z" fill="#8C8C90"/>
<path d="M48.3399 20.1831C48.3399 20.1831 54.5165 24.2152 55.6877 24.8545C56.8601 25.4925 58.2356 26.5326 62.7512 27.0985C67.2681 27.6631 69.3876 27.9186 69.3876 27.9186V28.2657C69.3876 28.2657 65.6515 27.8649 62.7328 27.5545C59.8142 27.244 57.8256 26.8248 55.651 25.6562C53.4764 24.489 48.3517 21.5573 48.3517 21.5573L48.3398 20.1831H48.3399Z" fill="#8C8C90"/>
<path d="M48.3516 22.8713C48.3516 22.8713 53.8182 25.786 55.6693 26.6965C57.7325 27.7117 59.5167 28.199 62.7511 28.575C65.9266 28.947 69.4059 29.306 69.4059 29.306V29.6348C69.4059 29.6348 66.1886 29.2969 62.7511 28.9772C59.3438 28.6615 58.1294 28.5148 55.6693 27.4445C53.4685 26.4882 48.3398 24.1486 48.3398 24.1486L48.3516 22.8713H48.3516Z" fill="#8C8C90"/>
<path d="M48.3516 25.6079C48.3516 25.6079 52.6524 27.4131 55.6876 28.5934C58.6744 29.7554 60.9551 29.8536 62.7694 30.054C63.5685 30.1419 69.3876 30.7287 69.3876 30.7287V31.0562C69.3876 31.0562 65.9108 30.7838 62.7511 30.51C59.5914 30.2362 58.2277 30.1209 55.6693 29.2877C53.0794 28.4454 48.3398 26.8249 48.3398 26.8249L48.3516 25.6079H48.3516Z" fill="#8C8C90"/>
<path d="M48.3516 28.3813C48.3516 28.3813 52.7139 29.707 55.6876 30.4734C58.6613 31.2397 61.3939 31.5502 62.7694 31.6406C64.1449 31.7323 69.3876 32.1515 69.3876 32.1515V32.462C69.3876 32.462 66.4139 32.2629 62.7511 32.0061C59.7892 31.7991 57.4103 31.5803 55.6693 31.203C53.7396 30.7851 48.3398 29.525 48.3398 29.525L48.3516 28.3813H48.3516Z" fill="#8C8C90"/>
<path d="M48.3398 31.1182C48.3398 31.1182 51.9188 31.7221 55.6876 32.3339C58.5133 32.7937 62.3424 33.0832 62.7511 33.1002C63.1598 33.1186 69.4059 33.539 69.4059 33.539V33.8665C69.4059 33.8665 65.4091 33.6648 62.7511 33.5207C59.9831 33.3701 57.2321 33.2063 55.6693 33.0465C52.169 32.6876 48.3398 32.2134 48.3398 32.2134V31.1182V31.1182Z" fill="#8C8C90"/>
<path d="M48.3516 33.9519C48.3516 33.9519 53.978 34.1589 55.6875 34.1955C57.3971 34.2322 69.4058 34.7064 69.4058 34.7064V35.0353L48.3516 35.0222V33.9519V33.9519Z" fill="#8C8C90"/>
<path d="M15.9375 36.9971C15.9375 36.9355 15.9663 36.9028 16.0318 36.9028H17.7676C17.8239 36.9028 17.858 36.9356 17.858 36.9919V37.2853C17.858 37.3417 17.8344 37.3705 17.7637 37.3705H16.476V38.1814H17.617C17.6785 38.1814 17.7113 38.2103 17.7113 38.2666V38.5587C17.7113 38.6151 17.6877 38.6438 17.617 38.6438H16.476V39.5725H17.7964C17.8527 39.5725 17.8816 39.6013 17.8816 39.663V39.9499C17.8816 40.0115 17.8581 40.035 17.7912 40.035H16.0319C15.9664 40.035 15.9376 40.0061 15.9376 39.9499V36.9971H15.9375Z" fill="#545458"/>
<path d="M20.0692 40.0355H19.7338C19.6631 40.0355 19.6448 40.0028 19.6448 39.9464V39.7997L19.6353 39.7944C19.4506 39.9228 19.1297 40.0774 18.8428 40.0774C18.2061 40.0774 18.1445 39.7001 18.1445 39.2049V37.8177C18.1445 37.7614 18.1681 37.7246 18.2336 37.7246H18.5781C18.6398 37.7246 18.6633 37.7573 18.6633 37.8177V39.1434C18.6633 39.4277 18.7196 39.6058 19.0079 39.6058C19.2109 39.6058 19.5214 39.4551 19.6445 39.3936V37.8177C19.6445 37.7614 19.6629 37.7246 19.7336 37.7246H20.069C20.1345 37.7246 20.1581 37.7573 20.1581 37.8177V39.9464C20.1581 40.0067 20.1345 40.0355 20.069 40.0355" fill="#545458"/>
<path d="M21.0773 39.9459C21.0773 40.0022 21.0538 40.0349 20.9883 40.0349H20.6477C20.5822 40.0349 20.5586 40.0074 20.5586 39.9459V37.8184C20.5586 37.7568 20.5822 37.7241 20.6477 37.7241H20.983C21.0538 37.7241 21.0773 37.762 21.0773 37.8184V38.0254L21.0868 38.0348C21.2283 37.9038 21.5636 37.7427 21.785 37.7008C21.8466 37.6863 21.8884 37.7008 21.899 37.7806L21.9317 38.0963C21.9359 38.1632 21.9411 38.1906 21.8413 38.2103C21.578 38.2614 21.2427 38.3557 21.0776 38.4264V39.946L21.0773 39.9459Z" fill="#545458"/>
<path d="M23.0647 38.1293C22.6639 38.1293 22.5735 38.3847 22.5735 38.8747C22.5735 39.3751 22.6638 39.62 23.0595 39.62C23.4892 39.62 23.5743 39.379 23.5743 38.8747C23.5743 38.3742 23.4943 38.1293 23.0647 38.1293ZM23.0595 40.0734C22.1123 40.0734 22.0508 39.379 22.0508 38.8419C22.0508 38.3978 22.149 37.676 23.0595 37.676C23.9752 37.676 24.1022 38.2852 24.1022 38.8419C24.1022 39.379 24.0367 40.0734 23.0595 40.0734Z" fill="#545458"/>
<path d="M25.5095 38.1578C25.3156 38.1578 25.0182 38.2941 24.8767 38.37V39.549C25.0889 39.6107 25.2593 39.629 25.4204 39.629C25.7597 39.629 25.8776 39.4547 25.8776 38.8613C25.8776 38.2613 25.7597 38.1579 25.5095 38.1579M25.4715 40.0783C25.3156 40.0783 25.0995 40.0495 24.882 39.9735L24.8768 39.9788V40.8093C24.8768 40.8603 24.8637 40.9036 24.7877 40.9036H24.4524C24.3777 40.9036 24.3633 40.8709 24.3633 40.8093V37.8185C24.3633 37.757 24.3869 37.7243 24.4524 37.7243H24.7877C24.8546 37.7243 24.8729 37.7609 24.8729 37.8185V37.96L24.8874 37.9695C25.0564 37.8516 25.359 37.6865 25.6328 37.6865C26.2498 37.6865 26.4109 38.1529 26.4109 38.8655C26.4109 39.6345 26.217 40.0785 25.4716 40.0785" fill="#545458"/>
<path d="M27.2258 38.6673H28.1598C28.1598 38.3791 28.0839 38.1014 27.6935 38.1014C27.3437 38.1014 27.2494 38.3136 27.2258 38.6673ZM27.2206 39.021C27.235 39.4979 27.4053 39.6302 27.7917 39.6302C27.962 39.6302 28.2254 39.5961 28.4048 39.5778C28.49 39.5683 28.5188 39.5683 28.5332 39.6577L28.5608 39.8136C28.5752 39.8844 28.566 39.9224 28.4809 39.9603C28.2962 40.0311 27.953 40.0782 27.7211 40.0782C26.8198 40.0782 26.6875 39.5031 26.6875 38.8887C26.6875 38.4316 26.7727 37.677 27.6936 37.677C28.5372 37.677 28.6879 38.2246 28.7023 38.7329C28.7075 38.9032 28.6604 39.0211 28.4717 39.0211H27.2207L27.2206 39.021Z" fill="#545458"/>
<path d="M30.3723 38.9832H29.7973C29.5615 38.9832 29.4095 39.0685 29.4095 39.3802C29.4095 39.5872 29.4802 39.6539 29.7029 39.6539C29.906 39.6539 30.1929 39.5347 30.3723 39.4312V38.9832ZM30.4012 39.7666C30.1654 39.9461 29.8483 40.0732 29.5326 40.0732C29.0322 40.0732 28.8868 39.7993 28.8868 39.4037C28.8815 38.8509 29.1789 38.6151 29.7737 38.6151H30.3776V38.4933C30.3776 38.2103 30.2728 38.1107 29.8863 38.1107C29.7304 38.1107 29.4331 38.1344 29.2444 38.1527C29.1501 38.1672 29.1265 38.1621 29.1134 38.0964L29.0702 37.9222C29.0608 37.8605 29.0755 37.8226 29.179 37.7807C29.382 37.7099 29.7541 37.6772 29.9768 37.6772C30.7929 37.6772 30.8912 38.0113 30.8912 38.5406V39.451C30.8912 39.6436 30.9147 39.6488 31.0615 39.6671C31.1322 39.6724 31.1505 39.6867 31.1505 39.7379V39.937C31.1505 39.9881 31.1178 40.0208 31.0379 40.0352C30.9619 40.0496 30.8872 40.0588 30.8165 40.0588C30.5938 40.0588 30.4576 39.9933 30.4104 39.7719L30.401 39.7667L30.4012 39.7666Z" fill="#545458"/>
<path d="M33.2057 40.0355H32.8664C32.8048 40.0355 32.776 40.0066 32.776 39.9464L32.7812 38.6206C32.7812 38.3416 32.7157 38.1582 32.4419 38.1582C32.2533 38.1582 31.9231 38.3089 31.7948 38.3705V39.9464C31.7948 40.0028 31.7712 40.0355 31.7057 40.0355H31.3703C31.3048 40.0355 31.2812 40.0066 31.2812 39.9464V37.8176C31.2812 37.7574 31.3048 37.7246 31.3703 37.7246H31.7057C31.7712 37.7246 31.7948 37.7573 31.7948 37.8176V37.9604C31.8 37.9604 31.8053 37.9646 31.8092 37.9646C31.9835 37.8428 32.3136 37.6816 32.6018 37.6816C33.2384 37.6816 33.2961 38.1022 33.2961 38.5777V39.9466C33.2961 40.003 33.2764 40.0357 33.2056 40.0357" fill="#545458"/>
<path d="M17.1679 41.8479C17.3985 41.8479 17.781 41.8806 18.0312 41.9841C18.1072 42.0182 18.1346 42.0562 18.1203 42.1308L18.0783 42.3248C18.0639 42.3811 18.0404 42.4047 17.9552 42.3954C17.7247 42.3666 17.4417 42.334 17.1967 42.334C16.5548 42.334 16.4605 42.8527 16.4605 43.4658C16.4605 44.0841 16.5784 44.5701 17.1967 44.5701C17.4692 44.5701 17.7011 44.5413 17.9552 44.5085C18.0457 44.4991 18.0639 44.523 18.0836 44.5845L18.1203 44.7639C18.1399 44.8386 18.1161 44.8818 18.0403 44.9146C17.8098 45.0128 17.3984 45.056 17.1679 45.056C16.1159 45.056 15.8945 44.2779 15.8945 43.4749C15.8945 42.6693 16.0924 41.8479 17.1679 41.8479" fill="#545458"/>
<path d="M19.1897 43.1073C18.7889 43.1073 18.6985 43.3627 18.6985 43.8527C18.6985 44.3531 18.7889 44.5981 19.1845 44.5981C19.6142 44.5981 19.6993 44.357 19.6993 43.8527C19.6993 43.3523 19.6193 43.1073 19.1897 43.1073ZM19.1845 45.0514C18.2373 45.0514 18.1758 44.357 18.1758 43.8199C18.1758 43.3758 18.274 42.6541 19.1845 42.6541C20.1002 42.6541 20.2272 43.2632 20.2272 43.8199C20.2272 44.357 20.1617 45.0514 19.1845 45.0514Z" fill="#545458"/>
<path d="M23.7972 45.0133H23.4579C23.3911 45.0133 23.3674 44.9844 23.3674 44.9242V43.584C23.3674 43.2343 23.2836 43.136 23.0465 43.136C22.8723 43.136 22.5893 43.2723 22.4439 43.3483C22.4439 43.3954 22.4481 43.4805 22.4481 43.5879V44.9242C22.4481 44.9806 22.4297 45.0133 22.359 45.0133H22.0145C21.9529 45.0133 21.9345 44.9844 21.9345 44.9242V43.5604C21.9345 43.2722 21.8585 43.136 21.6227 43.136C21.4577 43.136 21.193 43.254 21.0136 43.3483V44.9242C21.0136 44.9806 20.99 45.0133 20.9245 45.0133H20.5852C20.5236 45.0133 20.5 44.9844 20.5 44.9242V42.7954C20.5 42.7352 20.5236 42.7024 20.5852 42.7024H20.9193C20.99 42.7024 21.0136 42.739 21.0136 42.7954V42.9329L21.0188 42.9382C21.2022 42.8098 21.4616 42.6683 21.7223 42.6592C21.9948 42.6592 22.2214 42.7156 22.3681 42.9893C22.6039 42.8151 22.8961 42.6592 23.1987 42.6592C23.8209 42.6592 23.8825 43.0653 23.8825 43.5369V44.9242C23.8825 44.9806 23.8628 45.0133 23.7973 45.0133" fill="#545458"/>
<path d="M27.4925 45.0133H27.1532C27.0864 45.0133 27.0627 44.9844 27.0627 44.9242V43.584C27.0627 43.2343 26.9789 43.136 26.7418 43.136C26.5675 43.136 26.2846 43.2723 26.1392 43.3483C26.1392 43.3954 26.1434 43.4805 26.1434 43.5879V44.9242C26.1434 44.9806 26.125 45.0133 26.0543 45.0133H25.7098C25.6483 45.0133 25.6298 44.9844 25.6298 44.9242V43.5604C25.6298 43.2722 25.5538 43.136 25.318 43.136C25.153 43.136 24.8884 43.254 24.7089 43.3483V44.9242C24.7089 44.9806 24.6853 45.0133 24.6198 45.0133H24.2805C24.2189 45.0133 24.1953 44.9844 24.1953 44.9242V42.7954C24.1953 42.7352 24.2189 42.7024 24.2805 42.7024H24.6145C24.6853 42.7024 24.7089 42.739 24.7089 42.7954V42.9329L24.7141 42.9382C24.8975 42.8098 25.1569 42.6683 25.4176 42.6592C25.6901 42.6592 25.9167 42.7156 26.0634 42.9893C26.2992 42.8151 26.5913 42.6592 26.894 42.6592C27.5162 42.6592 27.5778 43.0653 27.5778 43.5369V44.9242C27.5778 44.9806 27.5581 45.0133 27.4926 45.0133" fill="#545458"/>
<path d="M28.4771 44.9238C28.4771 44.975 28.4588 45.0128 28.3919 45.0128H28.0566C27.9911 45.0128 27.9622 44.9853 27.9622 44.9238V42.7911C27.9622 42.7256 27.9911 42.7021 28.0566 42.7021H28.3919C28.4588 42.7021 28.4771 42.74 28.4771 42.7911V44.9238ZM28.2269 42.3627C27.982 42.3627 27.9492 42.2252 27.9492 42.089C27.9492 41.9383 28.0003 41.8191 28.2269 41.8191C28.4588 41.8191 28.506 41.9278 28.506 42.089C28.506 42.2344 28.4628 42.3627 28.2269 42.3627Z" fill="#545458"/>
<path d="M29.6473 45.0511C29.4115 45.0511 29.0958 45.0184 28.9163 44.9477C28.822 44.9098 28.8023 44.8665 28.8167 44.7918L28.8495 44.6359C28.8639 44.56 28.8966 44.5561 28.9726 44.5652C29.1796 44.5979 29.4822 44.6216 29.642 44.6216C29.9446 44.6216 30.0677 44.5416 30.0677 44.353C30.0677 44.1356 29.9865 44.0884 29.6892 44.0465C29.2267 43.9796 28.8219 43.8815 28.8219 43.3666C28.8219 42.9003 29.1796 42.6553 29.7088 42.6553C29.9014 42.6553 30.2276 42.6828 30.4254 42.7587C30.5053 42.7914 30.5393 42.8295 30.5249 42.9002L30.487 43.0692C30.4725 43.1361 30.4451 43.1451 30.3599 43.136C30.1569 43.1125 29.8923 43.0836 29.718 43.0836C29.4167 43.0836 29.346 43.1687 29.346 43.3483C29.346 43.5317 29.4587 43.5552 29.7469 43.6024C30.1949 43.6692 30.5997 43.7583 30.5997 44.3203C30.5997 44.8718 30.1333 45.0513 29.6473 45.0513" fill="#545458"/>
<path d="M31.6239 45.0511C31.3881 45.0511 31.0723 45.0184 30.8929 44.9477C30.7986 44.9098 30.7789 44.8665 30.7933 44.7918L30.826 44.6359C30.8405 44.56 30.8732 44.5561 30.9492 44.5652C31.1561 44.5979 31.4587 44.6216 31.6185 44.6216C31.9212 44.6216 32.0443 44.5416 32.0443 44.353C32.0443 44.1356 31.9631 44.0884 31.6657 44.0465C31.2033 43.9796 30.7985 43.8815 30.7985 43.3666C30.7985 42.9003 31.1561 42.6553 31.6854 42.6553C31.8779 42.6553 32.2041 42.6828 32.4019 42.7587C32.4819 42.7914 32.5159 42.8295 32.5015 42.9002L32.4636 43.0692C32.4492 43.1361 32.4216 43.1451 32.3365 43.136C32.1334 43.1125 31.8688 43.0836 31.6946 43.0836C31.3933 43.0836 31.3226 43.1687 31.3226 43.3483C31.3226 43.5317 31.4352 43.5552 31.7234 43.6024C32.1714 43.6692 32.5762 43.7583 32.5762 44.3203C32.5762 44.8718 32.1099 45.0513 31.6239 45.0513" fill="#545458"/>
<path d="M33.4068 44.9238C33.4068 44.975 33.3885 45.0128 33.3216 45.0128H32.9863C32.9208 45.0128 32.892 44.9853 32.892 44.9238V42.7911C32.892 42.7256 32.9208 42.7021 32.9863 42.7021H33.3216C33.3885 42.7021 33.4068 42.74 33.4068 42.7911V44.9238ZM33.1566 42.3627C32.9117 42.3627 32.8789 42.2252 32.8789 42.089C32.8789 41.9383 32.9301 41.8191 33.1566 41.8191C33.3885 41.8191 33.4357 41.9278 33.4357 42.089C33.4357 42.2344 33.3925 42.3627 33.1566 42.3627Z" fill="#545458"/>
<path d="M34.7678 43.1073C34.367 43.1073 34.2779 43.3627 34.2779 43.8527C34.2779 44.3531 34.367 44.5981 34.7626 44.5981C35.1923 44.5981 35.2774 44.357 35.2774 43.8527C35.2774 43.3523 35.1975 43.1073 34.7678 43.1073ZM34.7626 45.0514C33.8155 45.0514 33.7539 44.357 33.7539 43.8199C33.7539 43.3758 33.8521 42.6541 34.7626 42.6541C35.6783 42.6541 35.8053 43.2632 35.8053 43.8199C35.8053 44.357 35.7399 45.0514 34.7626 45.0514Z" fill="#545458"/>
<path d="M37.9869 45.0135H37.6476C37.586 45.0135 37.5572 44.9847 37.5572 44.9244L37.5624 43.5987C37.5624 43.3196 37.4969 43.1363 37.2231 43.1363C37.0345 43.1363 36.7044 43.2869 36.576 43.3485V44.9244C36.576 44.9808 36.5524 45.0135 36.4869 45.0135H36.1516C36.0861 45.0135 36.0625 44.9847 36.0625 44.9244V42.7957C36.0625 42.7354 36.0861 42.7026 36.1516 42.7026H36.4869C36.5524 42.7026 36.576 42.7353 36.576 42.7957V42.9384C36.5812 42.9384 36.5854 42.9426 36.5905 42.9426C36.7647 42.8208 37.0961 42.6597 37.383 42.6597C38.0197 42.6597 38.0773 43.0802 38.0773 43.5557V44.9247C38.0773 44.981 38.0577 45.0138 37.9869 45.0138" fill="#545458"/>
</g>
<defs>
<clipPath id="clip0_5110_43882">
<rect width="69.4252" height="48.0709" fill="white" transform="translate(0 0.9646)"/>
</clipPath>
</defs>
</svg>
