<svg width="163" height="49" viewBox="0 0 163 49" fill="none" xmlns="http://www.w3.org/2000/svg">
<g clip-path="url(#clip0_5279_63275)">
<path d="M0.3125 13.1588C0.3125 13.1588 20.8639 10.4992 21.4438 10.405C22.3338 10.2597 23.123 10.0895 23.8599 9.88667C25.5221 9.4312 27.0522 8.7362 28.4068 7.82001C29.7065 6.94963 30.9146 5.6827 32.1121 4.29271C32.8726 3.40793 33.6723 2.25487 34.4183 1.14235V0.60437C33.5336 1.91452 32.6619 3.04405 31.7653 4.04008C30.5769 5.36332 29.3309 6.44447 28.06 7.25595C26.7485 8.10146 25.2734 8.73099 23.6727 9.13019C22.9555 9.31081 22.1885 9.45739 21.3247 9.57781C20.7566 9.65759 20.1703 9.7192 19.6035 9.77809C19.3771 9.80301 0.3125 11.8251 0.3125 11.8251V13.1588Z" fill="#8C8C90"/>
<path d="M27.8728 9.71325C26.5862 10.4527 25.1007 10.9946 23.4568 11.3218C22.7552 11.4645 21.9896 11.5797 21.1179 11.6739C20.6048 11.7301 20.0891 11.7746 19.5721 11.8192C19.2933 11.8427 19.0146 11.8675 18.7358 11.8925C12.4376 12.4579 6.17219 13.0586 0.3125 13.6267V14.9604C6.218 14.2484 12.5279 13.4932 18.8235 12.7812C19.1036 12.7485 19.3836 12.7171 19.6637 12.6869C20.1794 12.6306 20.6964 12.5731 21.2134 12.505C22.11 12.3859 22.894 12.2485 23.6099 12.0862C25.3179 11.704 26.8598 11.1019 28.1935 10.2944C29.518 9.4999 30.6881 8.38608 31.9472 7.02488C32.7312 6.17806 33.6029 4.98179 34.4196 3.8588V3.36926C33.4576 4.67287 32.5454 5.7684 31.6436 6.70291C30.4146 7.97642 29.1463 8.98815 27.8728 9.71325Z" fill="#8C8C90"/>
<path d="M31.4695 9.38674C30.2156 10.5372 28.9068 11.4416 27.5783 12.0751C26.2786 12.702 24.8258 13.1418 23.1335 13.4193C22.4359 13.5358 21.6767 13.63 20.8142 13.7085L0.3125 15.3917V16.7215L18.5368 14.7883L20.8941 14.5409C21.7828 14.4376 22.5576 14.3224 23.2617 14.1889C25.0143 13.8577 26.5182 13.3643 27.8571 12.6785C29.2261 11.9861 30.5939 10.8343 31.8661 9.6145C32.7194 8.79648 33.5414 7.74021 34.4196 6.63292V6.18921C33.4053 7.45093 32.4368 8.50065 31.4695 9.38674Z" fill="#8C8C90"/>
<path d="M26.5116 16.2942C25.318 16.9618 24.4253 17.3466 22.7212 17.5246C21.6911 17.6359 20.6323 17.6882 19.6075 17.7392C19.1127 17.764 18.6167 17.789 18.1206 17.8204C15.0239 17.9971 11.9821 18.1934 8.87887 18.395L0.3125 18.9721V20.3019L8.96528 19.5088C11.761 19.2575 15.0095 18.9682 18.1808 18.7091L20.487 18.5311C21.3875 18.4618 22.1257 18.3884 22.8089 18.2994C24.5628 18.073 26.0614 17.7183 27.3886 17.217C28.8178 16.683 30.1659 15.8532 31.5153 14.8768C32.7326 13.9973 34.417 12.263 34.4183 12.2408V11.7709C33.3176 12.8441 32.6841 13.4476 31.4787 14.242C30.0377 15.1909 27.5823 15.6961 26.5116 16.2942Z" fill="#8C8C90"/>
<path d="M26.9475 18.8221C25.6543 19.2016 24.1989 19.4582 22.4974 19.6061C21.8076 19.6663 21.0642 19.7121 20.2239 19.7461L17.9309 19.8468C12.2335 20.1112 6.56223 20.407 0.3125 20.7382V22.0641C6.28344 21.6021 12.134 21.1531 17.9832 20.7369L20.2684 20.5812C21.1519 20.5222 21.8836 20.4594 22.572 20.3822C24.3154 20.1872 25.8075 19.8861 27.132 19.4621C28.5992 18.9974 30.0298 18.3234 31.3831 17.4595C32.3818 16.8235 33.3817 16.0643 34.4183 15.1599V15.1364C33.2757 16.1114 32.1868 16.3287 31.1017 16.9831C29.7719 17.7894 28.3741 18.4072 26.9475 18.8221Z" fill="#8C8C90"/>
<path d="M26.7367 21.026C25.4344 21.331 24.0222 21.526 22.2932 21.6425C21.627 21.687 20.9098 21.7197 20.0368 21.7471L17.7659 21.8283C12.0436 22.0443 6.24156 22.2929 0.3125 22.5508V23.8766C6.2036 23.4748 11.9821 23.0835 17.8104 22.7196L20.076 22.5835C20.9647 22.5324 21.6885 22.4814 22.3547 22.4199C24.1151 22.2576 25.5561 22.0207 26.8885 21.6765C28.3832 21.2917 29.8361 20.7263 31.2064 19.9985C32.2666 19.4371 33.3241 18.7617 34.4196 17.9476V17.3809C33.2351 18.2355 32.0991 18.9331 30.963 19.5011C29.6162 20.1752 28.1948 20.6883 26.7367 21.026Z" fill="#8C8C90"/>
<path d="M26.5417 23.1867C25.2342 23.4262 23.8272 23.5794 22.1113 23.667C21.466 23.7011 20.775 23.7246 19.8719 23.7456L0.3125 24.2744V25.6002L17.656 24.6945L19.9033 24.5806C20.7802 24.5387 21.4975 24.4969 22.161 24.4458C23.9005 24.3123 25.331 24.1213 26.6635 23.8425C28.1765 23.5283 29.645 23.0702 31.0271 22.4812C32.141 22.0087 33.2561 21.4329 34.4183 20.7326V20.2C33.1776 20.9224 31.997 21.5009 30.8243 21.9655C29.4618 22.5074 28.0207 22.9184 26.5417 23.1867Z" fill="#8C8C90"/>
<path d="M26.3886 25.3567C23.9882 25.6774 21.5184 25.714 19.1284 25.7494C18.5813 25.7567 18.0329 25.7651 17.4858 25.7769L0.3125 26.0858V27.409L17.5159 26.6683C18.0604 26.6434 18.6075 26.6211 19.1546 26.6002C21.5603 26.5033 24.0484 26.4038 26.4815 26.0177C28.0207 25.7756 29.5023 25.4157 30.8858 24.951C32.031 24.5675 33.2168 24.0715 34.4183 23.4851V22.9773C33.1553 23.565 31.9132 24.0545 30.7209 24.421C29.3544 24.8424 27.8977 25.1579 26.3886 25.3568" fill="#8C8C90"/>
<path d="M26.2525 27.5405C24.0039 27.7264 21.7029 27.7264 19.4766 27.7264C18.7842 27.7264 18.0918 27.7264 17.3995 27.7316C11.7099 27.7565 6.06617 27.8036 0.3125 27.8533V29.1766C5.79263 28.9907 11.6052 28.797 17.4191 28.6242C18.1088 28.6007 18.7986 28.5837 19.4897 28.5654C21.7278 28.5091 24.0418 28.4515 26.314 28.2054C27.9003 28.0353 29.3452 27.7853 30.7287 27.4437C31.9354 27.1466 33.1749 26.7513 34.4196 26.2762V25.7893C33.1343 26.25 31.8543 26.627 30.607 26.9018C29.2366 27.2042 27.8126 27.4123 26.2525 27.5405Z" fill="#8C8C90"/>
<path d="M26.1648 29.6931C25.2276 29.7297 24.2133 29.7481 23.0628 29.7481C22.6283 29.7481 22.1924 29.746 21.7592 29.7418L17.3327 29.6882C14.3132 29.6659 11.3042 29.6606 8.48098 29.6581L0.3125 29.6655V30.9874L8.5006 30.774C11.3133 30.7047 14.3302 30.6327 17.3418 30.5791L21.7644 30.5201C22.9777 30.5017 24.5784 30.4651 26.2001 30.3591C27.789 30.2557 29.2353 30.0973 30.6214 29.8761C31.8687 29.6772 33.1435 29.4089 34.4183 29.083V28.6144C33.1082 28.9154 31.8059 29.1576 30.5428 29.3264C29.1646 29.511 27.7328 29.6301 26.1648 29.6929" fill="#8C8C90"/>
<path d="M21.7082 31.7733L17.2974 31.7262C11.6693 31.6463 6.04785 31.5442 0.3125 31.4369V32.7601C5.78608 32.7249 11.5843 32.6829 17.3013 32.6188L21.7147 32.5533C23.2016 32.5272 24.6583 32.4997 26.1307 32.4513C29.1633 32.3544 31.8805 32.141 34.4183 31.8046V31.344C31.87 31.6189 29.1503 31.7628 26.1151 31.7824C24.6478 31.7955 23.178 31.7856 21.7082 31.773" fill="#8C8C90"/>
<path d="M34.4183 34.1132L0.3125 33.248V34.5713H34.4183V34.1132Z" fill="#8C8C90"/>
<path d="M31.3478 11.8862C30.052 12.9267 29.0521 13.6662 27.4658 14.2958C26.0849 14.8455 24.602 15.0693 22.9071 15.3009C21.8168 15.4541 20.6768 15.6792 19.5878 15.7525C19.1402 15.7826 18.6926 15.8113 18.2463 15.8467L0.3125 17.1543V18.4815L18.3183 16.7354L20.6533 16.5169C21.5184 16.4343 22.288 16.3402 23.0026 16.2237C24.7473 15.9436 26.2512 15.5169 27.5993 14.9161C28.9971 14.2997 30.412 13.2893 31.7274 12.1833C32.6213 11.432 33.4825 10.487 34.4183 9.45434V8.97925C33.2862 10.1494 32.3465 11.0852 31.3478 11.8862Z" fill="#8C8C90"/>
<path d="M14.4883 47.2556H44.3639V33.9696H14.4883V47.2556Z" fill="#F2F2F2"/>
<path fill-rule="evenodd" clip-rule="evenodd" d="M44.3692 14.5817H14.4883V34.5703H44.3692V14.5817ZM29.7531 17.4243H30.7923L29.9547 18.0773L30.2806 19.1127L29.4455 18.4752L28.6105 19.1127L28.9403 18.0773L28.0948 17.4243H29.1314L29.4455 16.4138L29.7531 17.4243ZM30.8319 30.7545H29.79L29.4837 29.7833L29.1696 30.7545H28.1317L28.9785 31.384L28.65 32.3787L29.4837 31.7663L30.3188 32.3787L29.9929 31.384L30.8319 30.7545ZM33.0876 29.8718H34.1295L33.2905 30.5L33.6164 31.496L32.7814 30.8809L31.9476 31.496L32.2761 30.5L31.4293 29.8718H32.4672L32.7814 28.8993L33.0876 29.8718ZM34.1295 18.3135H33.0876L32.7814 17.3424L32.4672 18.3135H31.4293L32.2761 18.9418L31.9476 19.9378L32.7814 19.3239L33.6164 19.9378L33.2905 18.9418L34.1295 18.3135ZM35.5358 20.7615H36.575L35.7374 21.3884L36.0633 22.3857L35.2282 21.7719L34.3958 22.3857L34.7243 21.3884L33.8775 20.7615H34.9141L35.2282 19.789L35.5358 20.7615ZM36.575 27.457H35.5358L35.2282 26.4846L34.9141 27.457H33.8775L34.7243 28.0866L34.3958 29.084L35.2282 28.4688L36.0633 29.084L35.7374 28.0866L36.575 27.457ZM36.4523 24.0582H37.4941L36.6552 24.6864L36.9811 25.6837L36.146 25.0686L35.3123 25.6837L35.6408 24.6864L34.794 24.0582H35.8306L36.146 23.087L36.4523 24.0582ZM27.4306 18.3217H26.3913L26.0838 17.3505L25.7696 18.3217H24.733L25.5786 18.9512L25.2487 19.9473L26.0838 19.3321L26.9188 19.9473L26.5929 18.9512L27.4306 18.3217ZM24.0112 20.7696H25.053L24.2141 21.3978L24.5387 22.3951L23.7049 21.7799L22.8712 22.3951L23.1984 21.3978L22.3529 20.7696H23.3908L23.7049 19.7983L24.0112 20.7696ZM24.168 24.0664H23.1274L22.8212 23.0953L22.507 24.0664H21.4704L22.3146 24.6946L21.9861 25.692L22.8212 25.0782L23.6549 25.692L23.3303 24.6946L24.168 24.0664ZM24.0112 27.4653H25.053L24.2141 28.0948L24.5387 29.0922L23.7049 28.477L22.8712 29.0922L23.1984 28.0948L22.3529 27.4653H23.3908L23.7049 26.4955L24.0112 27.4653ZM27.4646 29.8801H26.4254L26.1178 28.9076L25.8037 29.8801H24.7671L25.6126 30.5083L25.2827 31.5043L26.1178 30.8905L26.9502 31.5043L26.6269 30.5083L27.4646 29.8801Z" fill="#545458"/>
<path d="M29.7521 17.4243H30.7913L29.9536 18.0774L30.2795 19.1127L29.4445 18.4752L28.6095 19.1127L28.9393 18.0774L28.0938 17.4243H29.1304L29.4445 16.4138L29.7521 17.4243Z" fill="#F2F2F2"/>
<path d="M29.7872 30.7544H30.829L29.9901 31.3839L30.316 32.3786L29.4809 31.7662L28.6472 32.3786L28.9757 31.3839L28.1289 30.7544H29.1668L29.4809 29.7832L29.7872 30.7544Z" fill="#F2F2F2"/>
<path d="M33.0841 29.8718H34.1259L33.287 30.5L33.6129 31.496L32.7778 30.8809L31.9441 31.496L32.2726 30.5L31.4258 29.8718H32.4637L32.7778 28.8993L33.0841 29.8718Z" fill="#F2F2F2"/>
<path d="M33.0841 18.3134H34.1259L33.287 18.9417L33.6129 19.9377L32.7778 19.3238L31.9441 19.9377L32.2726 18.9417L31.4258 18.3134H32.4637L32.7778 17.3423L33.0841 18.3134Z" fill="#F2F2F2"/>
<path d="M35.5333 20.7614H36.5725L35.7349 21.3883L36.0608 22.3857L35.2257 21.7718L34.3933 22.3857L34.7218 21.3883L33.875 20.7614H34.9116L35.2257 19.7889L35.5333 20.7614Z" fill="#F2F2F2"/>
<path d="M35.5333 27.457H36.5725L35.7349 28.0866L36.0608 29.084L35.2257 28.4688L34.3933 29.084L34.7218 28.0866L33.875 27.457H34.9116L35.2257 26.4846L35.5333 27.457Z" fill="#F2F2F2"/>
<path d="M36.4513 24.0581H37.4931L36.6541 24.6863L36.98 25.6837L36.145 25.0685L35.3113 25.6837L35.6398 24.6863L34.793 24.0581H35.8296L36.145 23.0869L36.4513 24.0581Z" fill="#F2F2F2"/>
<path d="M26.3888 18.3216H27.428L26.5903 18.9512L26.9162 19.9472L26.0812 19.332L25.2461 19.9472L25.576 18.9512L24.7305 18.3216H25.7671L26.0812 17.3505L26.3888 18.3216Z" fill="#F2F2F2"/>
<path d="M24.0099 20.7696H25.0517L24.2127 21.3978L24.5373 22.3951L23.7036 21.7799L22.8699 22.3951L23.1971 21.3978L22.3516 20.7696H23.3895L23.7036 19.7983L24.0099 20.7696Z" fill="#F2F2F2"/>
<path d="M23.1257 24.0665H24.1663L23.3286 24.6947L23.6532 25.6921L22.8195 25.0782L21.9844 25.6921L22.3129 24.6947L21.4688 24.0665H22.5053L22.8195 23.0953L23.1257 24.0665Z" fill="#F2F2F2"/>
<path d="M24.0099 27.4653H25.0517L24.2127 28.0949L24.5373 29.0922L23.7036 28.477L22.8699 29.0922L23.1971 28.0949L22.3516 27.4653H23.3895L23.7036 26.4955L24.0099 27.4653Z" fill="#F2F2F2"/>
<path d="M26.4239 29.88H27.4632L26.6255 30.5082L26.9488 31.5042L26.1164 30.8904L25.2813 31.5042L25.6111 30.5082L24.7656 29.88H25.8022L26.1164 28.9075L26.4239 29.88Z" fill="#F2F2F2"/>
<path d="M14.4883 48.5684H44.3718V46.863H14.4883V48.5684Z" fill="#545458"/>
<path d="M48.6211 0.539917C48.6211 0.539917 54.8512 10.2423 55.9912 12.0263C57.1299 13.8089 58.4322 15.2199 63.0419 16.178C67.6517 17.136 69.6581 17.5889 69.6581 17.5889V17.9344C69.6581 17.9344 66.7289 17.3219 62.9594 16.4973C59.1913 15.6728 57.6508 15.394 55.9323 13.0511C54.5017 11.101 48.6211 2.81205 48.6211 2.81205V0.539917Z" fill="#8C8C90"/>
<path d="M48.6212 3.29871C48.6212 3.29871 55.0594 12.5222 55.914 13.653C56.7687 14.7839 57.9192 16.6057 63.008 17.6816C64.322 17.9591 69.6752 19.0127 69.6752 19.0127V19.3046C69.6752 19.3046 65.6073 18.5206 63.008 17.9735C60.4073 17.4264 57.6757 16.9277 55.9323 14.7288C54.3486 12.7315 48.6094 5.36537 48.6094 5.36537L48.6211 3.29871H48.6212Z" fill="#8C8C90"/>
<path d="M48.6212 6.06958C48.6212 6.06958 54.6877 13.9082 55.914 15.4762C57.1391 17.0429 58.8288 18.3373 63.008 19.1397C65.4175 19.603 69.6569 20.3791 69.6569 20.3791V20.671C69.6569 20.671 65.9424 19.9787 63.008 19.4499C60.0735 18.9211 57.6509 18.4093 55.914 16.4604C54.3905 14.7498 48.6094 8.02626 48.6094 8.02626L48.6211 6.06958H48.6212Z" fill="#8C8C90"/>
<path d="M48.6094 8.79175C48.6094 8.79175 54.7518 15.9027 55.9324 17.171C57.7713 19.146 58.6627 19.8266 63.008 20.6525C64.7462 20.9836 69.657 21.8383 69.657 21.8383V22.1472C69.657 22.1472 65.5904 21.4182 63.008 20.9627C60.427 20.5072 58.2425 20.3371 55.9141 18.1003C54.1406 16.3975 48.6212 10.6267 48.6212 10.6267L48.6094 8.79175H48.6094Z" fill="#8C8C90"/>
<path d="M48.6211 11.6234C48.6211 11.6234 54.2923 17.4491 55.9323 19.1218C57.6717 20.8953 59.9007 21.5523 62.9895 22.0929C65.9384 22.6086 69.6568 23.2054 69.6568 23.2054V23.5326C69.6568 23.5326 66.1648 22.9724 62.9895 22.4397C59.8758 21.9162 57.6966 21.6256 55.914 20.0145C54.3172 18.5721 48.6211 13.3367 48.6211 13.3367V11.6234Z" fill="#8C8C90"/>
<path d="M48.6211 14.2484C48.6211 14.2484 54.0148 19.1579 55.9323 20.8358C57.6966 22.379 59.1272 22.8593 63.0079 23.5333C66.8899 24.2074 69.6568 24.6262 69.6568 24.6262V24.9731C69.6568 24.9731 66.1465 24.4076 62.9895 23.9155C59.8326 23.4234 57.8209 23.2297 55.9323 21.7284C53.7531 19.9955 48.6211 15.853 48.6211 15.853V14.2484Z" fill="#8C8C90"/>
<path d="M48.6094 17.0557C48.6094 17.0557 54.7623 21.8382 55.9141 22.6758C57.0659 23.5148 58.5881 24.4925 63.008 25.1194C67.3913 25.7398 69.6386 26.0487 69.6386 26.0487V26.4139C69.6386 26.4139 65.665 25.8472 63.008 25.5199C60.3524 25.1914 58.3158 25.0527 55.9324 23.4965C53.6118 21.9821 48.6212 18.5385 48.6212 18.5385L48.6094 17.0557H48.6094Z" fill="#8C8C90"/>
<path d="M48.6094 19.7415C48.6094 19.7415 54.7806 23.77 55.9507 24.4087C57.1221 25.0462 58.4964 26.0854 63.008 26.6508C67.5209 27.2149 69.6386 27.4701 69.6386 27.4701V27.817C69.6386 27.817 65.9058 27.4165 62.9897 27.1063C60.0736 26.7961 58.0868 26.3773 55.9141 25.2098C53.7414 24.0436 48.6212 21.1144 48.6212 21.1144L48.6094 19.7415H48.6094Z" fill="#8C8C90"/>
<path d="M48.6212 22.4272C48.6212 22.4272 54.083 25.3394 55.9323 26.249C57.9938 27.2634 59.7764 27.7503 63.008 28.1259C66.1806 28.4976 69.6569 28.8562 69.6569 28.8562V29.1848C69.6569 29.1848 66.4424 28.8471 63.008 28.5277C59.6037 28.2123 58.3904 28.0657 55.9323 26.9964C53.7335 26.0409 48.6094 23.7034 48.6094 23.7034L48.6211 22.4272H48.6212Z" fill="#8C8C90"/>
<path d="M48.6212 25.1615C48.6212 25.1615 52.9181 26.9651 55.9507 28.1444C58.9349 29.3053 61.2135 29.4035 63.0263 29.6037C63.8247 29.6915 69.6385 30.2778 69.6385 30.2778V30.605C69.6385 30.605 66.1649 30.3328 63.008 30.0592C59.851 29.7857 58.4885 29.6705 55.9323 28.8381C53.3448 27.9965 48.6094 26.3774 48.6094 26.3774L48.6211 25.1615H48.6212Z" fill="#8C8C90"/>
<path d="M48.6212 27.9324C48.6212 27.9324 52.9796 29.2569 55.9507 30.0226C58.9218 30.7882 61.652 31.0984 63.0263 31.1888C64.4006 31.2804 69.6385 31.6992 69.6385 31.6992V32.0094C69.6385 32.0094 66.6675 31.8105 63.008 31.5539C60.0487 31.3471 57.6718 31.1285 55.9323 30.7516C54.0044 30.334 48.6094 29.075 48.6094 29.075L48.6211 27.9324H48.6212Z" fill="#8C8C90"/>
<path d="M48.6094 30.6669C48.6094 30.6669 52.1851 31.2703 55.9507 31.8815C58.7739 32.3409 62.5996 32.6302 63.008 32.6472C63.4163 32.6655 69.6569 33.0856 69.6569 33.0856V33.4128C69.6569 33.4128 65.6636 33.2113 63.008 33.0673C60.2424 32.9168 57.4938 32.7532 55.9323 32.5935C52.4351 32.2349 48.6094 31.7611 48.6094 31.7611V30.6669Z" fill="#8C8C90"/>
<path d="M48.6211 33.4979C48.6211 33.4979 54.2426 33.7047 55.9506 33.7414C57.6587 33.778 69.6568 34.2518 69.6568 34.2518V34.5803L48.6211 34.5672V33.4979Z" fill="#8C8C90"/>
<path d="M16.2344 36.5407C16.2344 36.4792 16.2632 36.4465 16.3286 36.4465H18.0628C18.1192 36.4465 18.1532 36.4792 18.1532 36.5356V36.8287C18.1532 36.885 18.1296 36.9138 18.059 36.9138H16.7724V37.724H17.9124C17.9738 37.724 18.0066 37.7528 18.0066 37.8091V38.1009C18.0066 38.1573 17.983 38.1859 17.9124 38.1859H16.7724V39.1139H18.0917C18.1479 39.1139 18.1768 39.1427 18.1768 39.2042V39.4909C18.1768 39.5524 18.1532 39.5759 18.0864 39.5759H16.3287C16.2632 39.5759 16.2344 39.5471 16.2344 39.4909V36.5407H16.2344Z" fill="#545458"/>
<path d="M20.3644 39.5762H20.0293C19.9586 39.5762 19.9403 39.5435 19.9403 39.4872V39.3406L19.9309 39.3353C19.7463 39.4636 19.4257 39.6181 19.139 39.6181C18.5029 39.6181 18.4414 39.2411 18.4414 38.7464V37.3603C18.4414 37.3041 18.465 37.2673 18.5304 37.2673H18.8746C18.9362 37.2673 18.9598 37.3 18.9598 37.3603V38.6849C18.9598 38.9689 19.016 39.1469 19.304 39.1469C19.5069 39.1469 19.8171 38.9963 19.9401 38.9348V37.3603C19.9401 37.3041 19.9584 37.2673 20.0291 37.2673H20.3642C20.4296 37.2673 20.4532 37.3 20.4532 37.3603V39.4872C20.4532 39.5474 20.4296 39.5762 20.3642 39.5762" fill="#545458"/>
<path d="M21.3699 39.4867C21.3699 39.543 21.3463 39.5757 21.2809 39.5757H20.9406C20.8751 39.5757 20.8516 39.5482 20.8516 39.4867V37.3611C20.8516 37.2996 20.8751 37.2669 20.9406 37.2669H21.2756C21.3463 37.2669 21.3699 37.3048 21.3699 37.3611V37.5679L21.3793 37.5774C21.5206 37.4465 21.8557 37.2855 22.0769 37.2436C22.1385 37.2291 22.1802 37.2436 22.1908 37.3234L22.2234 37.6388C22.2276 37.7056 22.2329 37.7331 22.1332 37.7527C21.8701 37.8038 21.535 37.898 21.3701 37.9686V39.4869L21.3699 39.4867Z" fill="#545458"/>
<path d="M23.3568 37.672C22.9563 37.672 22.866 37.9272 22.866 38.4167C22.866 38.9167 22.9562 39.1614 23.3516 39.1614C23.7809 39.1614 23.866 38.9206 23.866 38.4167C23.866 37.9167 23.786 37.672 23.3568 37.672ZM23.3516 39.6143C22.4053 39.6143 22.3438 38.9206 22.3438 38.384C22.3438 37.9403 22.4419 37.2191 23.3516 37.2191C24.2664 37.2191 24.3934 37.8277 24.3934 38.384C24.3934 38.9206 24.3279 39.6143 23.3516 39.6143Z" fill="#545458"/>
<path d="M25.8014 37.7004C25.6077 37.7004 25.3106 37.8365 25.1692 37.9124V39.0904C25.3813 39.1519 25.5514 39.1703 25.7124 39.1703C26.0514 39.1703 26.1692 38.9961 26.1692 38.4032C26.1692 37.8038 26.0514 37.7004 25.8014 37.7004M25.7635 39.6192C25.6078 39.6192 25.3918 39.5904 25.1745 39.5145L25.1693 39.5197V40.3495C25.1693 40.4005 25.1562 40.4438 25.0803 40.4438H24.7452C24.6707 40.4438 24.6562 40.4111 24.6562 40.3495V37.3614C24.6562 37.2999 24.6798 37.2672 24.7452 37.2672H25.0803C25.1471 37.2672 25.1654 37.3038 25.1654 37.3614V37.5028L25.1799 37.5122C25.3487 37.3944 25.6511 37.2295 25.9246 37.2295C26.5411 37.2295 26.7021 37.6954 26.7021 38.4075C26.7021 39.1757 26.5084 39.6194 25.7636 39.6194" fill="#545458"/>
<path d="M27.5144 38.2093H28.4476C28.4476 37.9213 28.3717 37.6439 27.9816 37.6439C27.6322 37.6439 27.538 37.8559 27.5144 38.2093ZM27.5092 38.5627C27.5236 39.0391 27.6937 39.1713 28.0798 39.1713C28.25 39.1713 28.5131 39.1373 28.6924 39.1189C28.7775 39.1095 28.8062 39.1095 28.8206 39.1988L28.8482 39.3546C28.8626 39.4253 28.8534 39.4632 28.7684 39.5012C28.5838 39.5719 28.2409 39.619 28.0093 39.619C27.1088 39.619 26.9766 39.0444 26.9766 38.4305C26.9766 37.9737 27.0617 37.2198 27.9818 37.2198C28.8247 37.2198 28.9752 37.767 28.9896 38.2748C28.9948 38.4449 28.9477 38.5628 28.7592 38.5628H27.5093L27.5092 38.5627Z" fill="#545458"/>
<path d="M30.6601 38.5249H30.0855C29.8499 38.5249 29.6981 38.6101 29.6981 38.9215C29.6981 39.1283 29.7688 39.1951 29.9913 39.1951C30.1941 39.1951 30.4808 39.0759 30.6601 38.9725V38.5249ZM30.6889 39.3076C30.4533 39.4869 30.1366 39.6139 29.8211 39.6139C29.3212 39.6139 29.1758 39.3403 29.1758 38.945C29.1706 38.3927 29.4677 38.1571 30.0619 38.1571H30.6653V38.0354C30.6653 37.7527 30.5606 37.6532 30.1745 37.6532C30.0188 37.6532 29.7216 37.6768 29.5332 37.6951C29.4389 37.7096 29.4154 37.7045 29.4023 37.6389L29.3591 37.4648C29.3497 37.4032 29.3644 37.3653 29.4678 37.3234C29.6707 37.2528 30.0424 37.2201 30.2649 37.2201C31.0803 37.2201 31.1784 37.5539 31.1784 38.0827V38.9923C31.1784 39.1847 31.202 39.1899 31.3486 39.2082C31.4193 39.2135 31.4376 39.2278 31.4376 39.2789V39.4778C31.4376 39.5289 31.4049 39.5616 31.325 39.5759C31.2491 39.5904 31.1745 39.5995 31.1038 39.5995C30.8813 39.5995 30.7452 39.5341 30.6981 39.3129L30.6887 39.3077L30.6889 39.3076Z" fill="#545458"/>
<path d="M33.4892 39.5761H33.1502C33.0886 39.5761 33.0598 39.5473 33.0598 39.4871L33.065 38.1625C33.065 37.8838 32.9996 37.7005 32.7261 37.7005C32.5376 37.7005 32.2077 37.8511 32.0795 37.9126V39.4871C32.0795 39.5434 32.0559 39.5761 31.9905 39.5761H31.6554C31.59 39.5761 31.5664 39.5473 31.5664 39.4871V37.3602C31.5664 37.3 31.59 37.2672 31.6554 37.2672H31.9905C32.0559 37.2672 32.0795 37.2999 32.0795 37.3602V37.5029C32.0847 37.5029 32.09 37.5071 32.0939 37.5071C32.268 37.3854 32.5978 37.2244 32.8858 37.2244C33.5219 37.2244 33.5795 37.6445 33.5795 38.1197V39.4874C33.5795 39.5437 33.5598 39.5764 33.4891 39.5764" fill="#545458"/>
<path d="M17.4676 41.3871C17.6979 41.3871 18.0801 41.4198 18.3301 41.5232C18.406 41.5572 18.4334 41.5952 18.4191 41.6698L18.3772 41.8635C18.3628 41.9199 18.3393 41.9434 18.2542 41.9341C18.0238 41.9053 17.7411 41.8727 17.4964 41.8727C16.855 41.8727 16.7608 42.391 16.7608 43.0035C16.7608 43.6213 16.8786 44.1069 17.4964 44.1069C17.7686 44.1069 18.0003 44.0781 18.2542 44.0454C18.3445 44.0359 18.3628 44.0598 18.3824 44.1213L18.4191 44.3005C18.4387 44.3752 18.4149 44.4183 18.3392 44.451C18.1089 44.5492 17.6979 44.5924 17.4675 44.5924C16.4165 44.5924 16.1953 43.815 16.1953 43.0127C16.1953 42.2077 16.393 41.3871 17.4675 41.3871" fill="#545458"/>
<path d="M19.4857 42.6456C19.0852 42.6456 18.9949 42.9008 18.9949 43.3903C18.9949 43.8903 19.0852 44.1351 19.4805 44.1351C19.9098 44.1351 19.9948 43.8942 19.9948 43.3903C19.9948 42.8903 19.9149 42.6456 19.4857 42.6456ZM19.4805 44.588C18.5342 44.588 18.4727 43.8942 18.4727 43.3576C18.4727 42.9139 18.5708 42.1927 19.4805 42.1927C20.3953 42.1927 20.5223 42.8013 20.5223 43.3576C20.5223 43.8942 20.4569 44.588 19.4805 44.588Z" fill="#545458"/>
<path d="M24.0872 44.5498H23.7483C23.6816 44.5498 23.6579 44.521 23.6579 44.4607V43.1218C23.6579 42.7723 23.5741 42.6742 23.3372 42.6742C23.1631 42.6742 22.8804 42.8103 22.7351 42.8862C22.7351 42.9334 22.7393 43.0184 22.7393 43.1257V44.4607C22.7393 44.5171 22.721 44.5498 22.6503 44.5498H22.3061C22.2446 44.5498 22.2262 44.521 22.2262 44.4607V43.0982C22.2262 42.8103 22.1503 42.6742 21.9147 42.6742C21.7498 42.6742 21.4854 42.792 21.3061 42.8862V44.4607C21.3061 44.5171 21.2825 44.5498 21.2171 44.5498H20.8781C20.8165 44.5498 20.793 44.521 20.793 44.4607V42.3339C20.793 42.2737 20.8165 42.2409 20.8781 42.2409H21.2119C21.2825 42.2409 21.3061 42.2775 21.3061 42.3339V42.4713L21.3113 42.4765C21.4946 42.3483 21.7537 42.2069 22.0142 42.1978C22.2864 42.1978 22.5129 42.2541 22.6594 42.5276C22.895 42.3535 23.1869 42.1978 23.4893 42.1978C24.111 42.1978 24.1725 42.6035 24.1725 43.0747V44.4607C24.1725 44.5171 24.1528 44.5498 24.0873 44.5498" fill="#545458"/>
<path d="M27.7786 44.5498H27.4396C27.3729 44.5498 27.3493 44.521 27.3493 44.4607V43.1218C27.3493 42.7723 27.2655 42.6742 27.0286 42.6742C26.8545 42.6742 26.5718 42.8103 26.4265 42.8862C26.4265 42.9334 26.4307 43.0184 26.4307 43.1257V44.4607C26.4307 44.5171 26.4124 44.5498 26.3417 44.5498H25.9975C25.936 44.5498 25.9176 44.521 25.9176 44.4607V43.0982C25.9176 42.8103 25.8417 42.6742 25.6061 42.6742C25.4412 42.6742 25.1768 42.792 24.9975 42.8862V44.4607C24.9975 44.5171 24.9739 44.5498 24.9085 44.5498H24.5695C24.5079 44.5498 24.4844 44.521 24.4844 44.4607V42.3339C24.4844 42.2737 24.5079 42.2409 24.5695 42.2409H24.9032C24.9739 42.2409 24.9975 42.2775 24.9975 42.3339V42.4713L25.0027 42.4765C25.1859 42.3483 25.4451 42.2069 25.7056 42.1978C25.9778 42.1978 26.2042 42.2541 26.3508 42.5276C26.5864 42.3535 26.8783 42.1978 27.1806 42.1978C27.8023 42.1978 27.8638 42.6035 27.8638 43.0747V44.4607C27.8638 44.5171 27.8442 44.5498 27.7787 44.5498" fill="#545458"/>
<path d="M28.7657 44.4603C28.7657 44.5114 28.7474 44.5492 28.6806 44.5492H28.3456C28.2801 44.5492 28.2513 44.5217 28.2513 44.4603V42.3294C28.2513 42.264 28.2801 42.2405 28.3456 42.2405H28.6806C28.7474 42.2405 28.7657 42.2783 28.7657 42.3294V44.4603ZM28.5157 41.9014C28.271 41.9014 28.2383 41.764 28.2383 41.6279C28.2383 41.4774 28.2894 41.3583 28.5157 41.3583C28.7474 41.3583 28.7945 41.4669 28.7945 41.6279C28.7945 41.7732 28.7514 41.9014 28.5157 41.9014Z" fill="#545458"/>
<path d="M29.9317 44.5876C29.6961 44.5876 29.3807 44.5549 29.2014 44.4843C29.1071 44.4464 29.0875 44.4031 29.1019 44.3285L29.1346 44.1728C29.149 44.0969 29.1817 44.093 29.2576 44.1021C29.4644 44.1348 29.7667 44.1585 29.9264 44.1585C30.2288 44.1585 30.3518 44.0785 30.3518 43.8901C30.3518 43.6728 30.2707 43.6257 29.9735 43.5839C29.5115 43.5171 29.1071 43.4189 29.1071 42.9046C29.1071 42.4386 29.4644 42.1938 29.9932 42.1938C30.1856 42.1938 30.5115 42.2214 30.7091 42.2972C30.789 42.3299 30.823 42.3679 30.8086 42.4386L30.7707 42.6074C30.7562 42.6742 30.7288 42.6833 30.6437 42.6742C30.4408 42.6506 30.1765 42.6218 30.0024 42.6218C29.7014 42.6218 29.6307 42.7069 29.6307 42.8862C29.6307 43.0695 29.7432 43.093 30.0312 43.1401C30.4788 43.2068 30.8832 43.2959 30.8832 43.8574C30.8832 44.4084 30.4173 44.5877 29.9317 44.5877" fill="#545458"/>
<path d="M31.9083 44.5876C31.6727 44.5876 31.3572 44.5549 31.1779 44.4843C31.0837 44.4464 31.0641 44.4031 31.0785 44.3285L31.1112 44.1728C31.1256 44.0969 31.1583 44.093 31.2342 44.1021C31.441 44.1348 31.7433 44.1585 31.903 44.1585C32.2053 44.1585 32.3283 44.0785 32.3283 43.8901C32.3283 43.6728 32.2472 43.6257 31.9501 43.5839C31.4881 43.5171 31.0836 43.4189 31.0836 42.9046C31.0836 42.4386 31.441 42.1938 31.9697 42.1938C32.1621 42.1938 32.488 42.2214 32.6857 42.2972C32.7656 42.3299 32.7995 42.3679 32.7851 42.4386L32.7472 42.6074C32.7329 42.6742 32.7054 42.6833 32.6203 42.6742C32.4174 42.6506 32.153 42.6218 31.979 42.6218C31.6779 42.6218 31.6072 42.7069 31.6072 42.8862C31.6072 43.0695 31.7198 43.093 32.0078 43.1401C32.4554 43.2068 32.8598 43.2959 32.8598 43.8574C32.8598 44.4084 32.3939 44.5877 31.9083 44.5877" fill="#545458"/>
<path d="M33.6876 44.4603C33.6876 44.5114 33.6693 44.5492 33.6025 44.5492H33.2674C33.202 44.5492 33.1732 44.5217 33.1732 44.4603V42.3294C33.1732 42.264 33.202 42.2405 33.2674 42.2405H33.6025C33.6693 42.2405 33.6876 42.2783 33.6876 42.3294V44.4603ZM33.4376 41.9014C33.1929 41.9014 33.1602 41.764 33.1602 41.6279C33.1602 41.4774 33.2113 41.3583 33.4376 41.3583C33.6693 41.3583 33.7164 41.4669 33.7164 41.6279C33.7164 41.7732 33.6733 41.9014 33.4376 41.9014Z" fill="#545458"/>
<path d="M35.0482 42.6456C34.6477 42.6456 34.5587 42.9008 34.5587 43.3903C34.5587 43.8903 34.6477 44.1351 35.043 44.1351C35.4723 44.1351 35.5573 43.8942 35.5573 43.3903C35.5573 42.8903 35.4774 42.6456 35.0482 42.6456ZM35.043 44.588C34.0967 44.588 34.0352 43.8942 34.0352 43.3576C34.0352 42.9139 34.1333 42.1927 35.043 42.1927C35.9578 42.1927 36.0848 42.8013 36.0848 43.3576C36.0848 43.8942 36.0194 44.588 35.043 44.588Z" fill="#545458"/>
<path d="M38.2626 44.5499H37.9236C37.862 44.5499 37.8332 44.5211 37.8332 44.4609L37.8385 43.1363C37.8385 42.8575 37.773 42.6743 37.4995 42.6743C37.311 42.6743 36.9812 42.8248 36.8529 42.8863V44.4609C36.8529 44.5172 36.8293 44.5499 36.7639 44.5499H36.4288C36.3634 44.5499 36.3398 44.5211 36.3398 44.4609V42.334C36.3398 42.2738 36.3634 42.241 36.4288 42.241H36.7639C36.8293 42.241 36.8529 42.2737 36.8529 42.334V42.4766C36.8581 42.4766 36.8623 42.4809 36.8673 42.4809C37.0414 42.3591 37.3726 42.1981 37.6592 42.1981C38.2953 42.1981 38.3529 42.6183 38.3529 43.0934V44.4611C38.3529 44.5174 38.3333 44.5501 38.2625 44.5501" fill="#545458"/>
</g>
<path d="M87.0707 21.5543V13.1013H93.0006V14.0619H88.0953V16.7899H91.912V17.7505H88.0953V20.5938H93.1928V21.5543H87.0707ZM97.1765 21.6824C96.7667 21.6824 96.3782 21.6056 96.011 21.4519C95.6524 21.2982 95.3578 21.0506 95.1273 20.709C94.9053 20.3589 94.7943 19.9064 94.7943 19.3514V15.1505H95.8189V19.0825C95.8189 19.7314 95.9598 20.1796 96.2416 20.4273C96.5233 20.6663 96.9204 20.7859 97.4327 20.7859C97.6718 20.7859 97.9066 20.7474 98.1371 20.6706C98.3676 20.5852 98.5726 20.4571 98.7519 20.2864C98.9397 20.1071 99.0849 19.8808 99.1873 19.6076C99.2983 19.3343 99.3538 19.0099 99.3538 18.6342V15.1505H100.378V21.5543H99.4819L99.4179 20.5809C99.1959 20.9652 98.8927 21.2469 98.5085 21.4262C98.1328 21.597 97.6888 21.6824 97.1765 21.6824ZM102.763 21.5543V15.1505H103.596L103.736 16.2007C103.916 15.808 104.176 15.5134 104.518 15.317C104.868 15.1206 105.29 15.0224 105.786 15.0224C105.897 15.0224 106.016 15.031 106.144 15.0481C106.281 15.0651 106.396 15.0993 106.49 15.1505L106.311 16.0855C106.217 16.0513 106.114 16.0257 106.003 16.0086C105.892 15.9916 105.734 15.983 105.529 15.983C105.265 15.983 104.996 16.0599 104.723 16.2135C104.458 16.3672 104.236 16.602 104.057 16.918C103.877 17.2254 103.788 17.6181 103.788 18.0963V21.5543H102.763ZM110.442 15.0224C111.048 15.0224 111.582 15.1548 112.043 15.4195C112.513 15.6842 112.88 16.0684 113.145 16.5722C113.409 17.0674 113.542 17.6608 113.542 18.3524C113.542 19.044 113.409 19.6417 113.145 20.1455C112.88 20.6407 112.513 21.0207 112.043 21.2854C111.582 21.5501 111.048 21.6824 110.442 21.6824C109.845 21.6824 109.311 21.5501 108.841 21.2854C108.372 21.0207 108.004 20.6407 107.74 20.1455C107.475 19.6417 107.343 19.044 107.343 18.3524C107.343 17.6608 107.475 17.0674 107.74 16.5722C108.004 16.0684 108.372 15.6842 108.841 15.4195C109.311 15.1548 109.845 15.0224 110.442 15.0224ZM110.442 15.9062C110.007 15.9062 109.635 16.0044 109.328 16.2007C109.021 16.3971 108.781 16.6789 108.611 17.046C108.448 17.4047 108.367 17.8401 108.367 18.3524C108.367 18.8562 108.448 19.2916 108.611 19.6588C108.781 20.0259 109.021 20.3077 109.328 20.5041C109.635 20.7005 110.007 20.7987 110.442 20.7987C110.878 20.7987 111.249 20.7005 111.556 20.5041C111.864 20.3077 112.099 20.0259 112.261 19.6588C112.432 19.2916 112.517 18.8562 112.517 18.3524C112.517 17.8401 112.432 17.4047 112.261 17.046C112.099 16.6789 111.864 16.3971 111.556 16.2007C111.249 16.0044 110.878 15.9062 110.442 15.9062ZM115.471 24.2439V15.1505H116.367L116.457 16.713L116.316 16.5337C116.427 16.2349 116.593 15.9745 116.815 15.7525C117.037 15.5219 117.306 15.3426 117.622 15.2146C117.938 15.0865 118.28 15.0224 118.647 15.0224C119.168 15.0224 119.646 15.1548 120.081 15.4195C120.525 15.6842 120.88 16.0641 121.144 16.5594C121.409 17.0546 121.541 17.6523 121.541 18.3524C121.541 19.044 121.405 19.6417 121.132 20.1455C120.867 20.6407 120.513 21.0207 120.069 21.2854C119.625 21.5501 119.138 21.6824 118.608 21.6824C118.079 21.6824 117.614 21.5543 117.212 21.2982C116.82 21.0335 116.538 20.7005 116.367 20.2992L116.495 20.1071V24.2439H115.471ZM118.506 20.7859C119.138 20.7859 119.629 20.5639 119.979 20.1199C120.337 19.6759 120.517 19.0867 120.517 18.3524C120.517 17.6181 120.342 17.029 119.992 16.585C119.65 16.141 119.168 15.919 118.544 15.919C118.135 15.919 117.776 16.0214 117.469 16.2264C117.161 16.4227 116.922 16.7045 116.751 17.0717C116.581 17.4303 116.495 17.8572 116.495 18.3524C116.495 18.8391 116.576 19.266 116.739 19.6332C116.909 20.0003 117.144 20.2864 117.443 20.4913C117.75 20.6877 118.105 20.7859 118.506 20.7859ZM126.177 21.6824C125.571 21.6824 125.029 21.5501 124.551 21.2854C124.081 21.0207 123.714 20.6407 123.449 20.1455C123.184 19.6417 123.052 19.044 123.052 18.3524C123.052 17.6608 123.184 17.0674 123.449 16.5722C123.714 16.0684 124.077 15.6842 124.538 15.4195C124.999 15.1548 125.524 15.0224 126.113 15.0224C126.711 15.0224 127.219 15.1505 127.637 15.4067C128.064 15.6628 128.389 16.0129 128.611 16.4569C128.833 16.8924 128.944 17.3833 128.944 17.9298C128.944 18.0749 128.939 18.2073 128.931 18.3268C128.922 18.4463 128.909 18.5531 128.892 18.647H123.718V17.7377H128.444L127.919 17.8401C127.919 17.2254 127.748 16.7515 127.407 16.4185C127.074 16.0855 126.634 15.919 126.087 15.919C125.669 15.919 125.306 16.0172 124.999 16.2135C124.7 16.4014 124.465 16.6789 124.294 17.046C124.132 17.4047 124.051 17.8401 124.051 18.3524C124.051 18.8562 124.136 19.2916 124.307 19.6588C124.478 20.0259 124.717 20.3077 125.024 20.5041C125.34 20.6919 125.716 20.7859 126.152 20.7859C126.621 20.7859 127.001 20.6962 127.291 20.5169C127.59 20.3376 127.829 20.0943 128.009 19.7869L128.816 20.2608C128.653 20.5511 128.444 20.8029 128.188 21.0164C127.94 21.2299 127.646 21.3964 127.304 21.5159C126.971 21.6269 126.596 21.6824 126.177 21.6824ZM134.632 17.4175C134.632 16.9393 134.504 16.5722 134.248 16.316C133.992 16.0513 133.629 15.919 133.159 15.919C132.715 15.919 132.34 16.0172 132.032 16.2135C131.725 16.4014 131.498 16.7088 131.353 17.1357L130.521 16.6234C130.692 16.1452 131.008 15.761 131.469 15.4707C131.93 15.1719 132.502 15.0224 133.185 15.0224C133.646 15.0224 134.064 15.1036 134.44 15.2658C134.816 15.4195 135.11 15.6586 135.324 15.983C135.546 16.2989 135.657 16.7088 135.657 17.2125V20.312C135.657 20.6194 135.819 20.7731 136.143 20.7731C136.306 20.7731 136.464 20.7517 136.617 20.709L136.566 21.5159C136.395 21.6013 136.173 21.644 135.9 21.644C135.652 21.644 135.43 21.597 135.234 21.5031C135.038 21.4092 134.884 21.2683 134.773 21.0804C134.662 20.8841 134.606 20.6407 134.606 20.3504V20.2223L134.863 20.2608C134.76 20.5938 134.585 20.867 134.337 21.0804C134.09 21.2854 133.812 21.4391 133.505 21.5415C133.198 21.6354 132.895 21.6824 132.596 21.6824C132.22 21.6824 131.87 21.6184 131.545 21.4903C131.221 21.3622 130.961 21.1701 130.764 20.9139C130.576 20.6493 130.482 20.3248 130.482 19.9406C130.482 19.4624 130.64 19.0696 130.956 18.7623C131.281 18.4463 131.729 18.2329 132.301 18.1219L134.837 17.6224V18.4677L132.775 18.8903C132.357 18.9757 132.045 19.0953 131.84 19.249C131.635 19.4026 131.533 19.6161 131.533 19.8893C131.533 20.154 131.635 20.3718 131.84 20.5425C132.053 20.7048 132.352 20.7859 132.737 20.7859C132.984 20.7859 133.219 20.756 133.441 20.6962C133.671 20.6279 133.876 20.5297 134.056 20.4016C134.235 20.265 134.376 20.0985 134.478 19.9021C134.581 19.6972 134.632 19.4581 134.632 19.1849V17.4175ZM138.147 21.5543V15.1505H139.043L139.133 16.585L138.966 16.4441C139.103 16.1026 139.286 15.8293 139.517 15.6244C139.748 15.4109 140.012 15.2572 140.311 15.1633C140.618 15.0694 140.934 15.0224 141.259 15.0224C141.72 15.0224 142.138 15.1121 142.514 15.2914C142.89 15.4622 143.188 15.7269 143.41 16.0855C143.641 16.4441 143.756 16.9009 143.756 17.4559V21.5543H142.732V17.8145C142.732 17.1058 142.578 16.6149 142.271 16.3416C141.972 16.0599 141.6 15.919 141.156 15.919C140.849 15.919 140.542 15.9916 140.234 16.1367C139.927 16.2819 139.671 16.5167 139.466 16.8411C139.269 17.1656 139.171 17.601 139.171 18.1475V21.5543H138.147ZM93.8844 34.3898C93.7051 34.868 93.4489 35.2821 93.1159 35.6322C92.7829 35.9737 92.3901 36.2341 91.9376 36.4134C91.4936 36.5927 91.0069 36.6824 90.4775 36.6824C89.6749 36.6824 88.9791 36.5074 88.3899 36.1573C87.8093 35.7987 87.3568 35.2949 87.0323 34.646C86.7164 33.9971 86.5584 33.2243 86.5584 32.3278C86.5584 31.4313 86.7164 30.6586 87.0323 30.0096C87.3568 29.3607 87.8093 28.8612 88.3899 28.5111C88.9791 28.1525 89.6664 27.9732 90.4519 27.9732C90.9984 27.9732 91.4851 28.0501 91.912 28.2038C92.3389 28.3489 92.7018 28.5709 93.0006 28.8698C93.308 29.1601 93.5514 29.5187 93.7307 29.9456L92.7189 30.4195C92.531 29.9328 92.2578 29.5656 91.8992 29.318C91.5491 29.0619 91.0923 28.9338 90.5288 28.9338C89.9567 28.9338 89.4529 29.0704 89.0175 29.3436C88.582 29.6083 88.2405 29.9926 87.9929 30.4963C87.7538 31.0001 87.6343 31.6106 87.6343 32.3278C87.6343 33.0365 87.7495 33.647 87.9801 34.1593C88.2106 34.6631 88.5393 35.0516 88.9662 35.3248C89.3932 35.5895 89.8969 35.7218 90.4775 35.7218C91.0411 35.7218 91.532 35.5809 91.9504 35.2992C92.3688 35.0089 92.6719 34.5777 92.8598 34.0056L93.8844 34.3898ZM98.31 30.0224C98.9162 30.0224 99.4499 30.1548 99.9109 30.4195C100.381 30.6842 100.748 31.0684 101.012 31.5722C101.277 32.0674 101.409 32.6608 101.409 33.3524C101.409 34.044 101.277 34.6417 101.012 35.1455C100.748 35.6407 100.381 36.0207 99.9109 36.2854C99.4499 36.5501 98.9162 36.6824 98.31 36.6824C97.7123 36.6824 97.1787 36.5501 96.709 36.2854C96.2394 36.0207 95.8723 35.6407 95.6076 35.1455C95.3429 34.6417 95.2106 34.044 95.2106 33.3524C95.2106 32.6608 95.3429 32.0674 95.6076 31.5722C95.8723 31.0684 96.2394 30.6842 96.709 30.4195C97.1787 30.1548 97.7123 30.0224 98.31 30.0224ZM98.31 30.9062C97.8745 30.9062 97.5031 31.0044 97.1957 31.2007C96.8884 31.3971 96.6493 31.6789 96.4785 32.046C96.3163 32.4047 96.2352 32.8401 96.2352 33.3524C96.2352 33.8562 96.3163 34.2916 96.4785 34.6588C96.6493 35.0259 96.8884 35.3077 97.1957 35.5041C97.5031 35.7005 97.8745 35.7987 98.31 35.7987C98.7455 35.7987 99.1169 35.7005 99.4243 35.5041C99.7316 35.3077 99.9664 35.0259 100.129 34.6588C100.299 34.2916 100.385 33.8562 100.385 33.3524C100.385 32.8401 100.299 32.4047 100.129 32.046C99.9664 31.6789 99.7316 31.3971 99.4243 31.2007C99.1169 31.0044 98.7455 30.9062 98.31 30.9062ZM103.338 36.5543V30.1505H104.235L104.299 31.1495C104.529 30.7567 104.828 30.4707 105.195 30.2914C105.571 30.1121 105.955 30.0224 106.348 30.0224C106.801 30.0224 107.228 30.1249 107.629 30.3298C108.03 30.5347 108.338 30.8507 108.551 31.2776C108.688 30.9873 108.88 30.7525 109.127 30.5732C109.375 30.3853 109.644 30.2487 109.934 30.1633C110.233 30.0694 110.515 30.0224 110.78 30.0224C111.189 30.0224 111.578 30.1078 111.945 30.2786C112.321 30.4494 112.628 30.7141 112.867 31.0727C113.106 31.4313 113.226 31.8924 113.226 32.4559V36.5543H112.201V32.5583C112.201 31.9777 112.056 31.5594 111.766 31.3032C111.475 31.0471 111.117 30.919 110.69 30.919C110.357 30.919 110.045 31.0001 109.755 31.1623C109.465 31.3245 109.23 31.5636 109.051 31.8795C108.88 32.1955 108.794 32.584 108.794 33.045V36.5543H107.77V32.5583C107.77 31.9777 107.625 31.5594 107.334 31.3032C107.044 31.0471 106.685 30.919 106.259 30.919C105.977 30.919 105.686 30.9958 105.388 31.1495C105.097 31.2947 104.854 31.5295 104.658 31.8539C104.461 32.1784 104.363 32.6053 104.363 33.1347V36.5543H103.338ZM115.546 36.5543V30.1505H116.442L116.506 31.1495C116.737 30.7567 117.036 30.4707 117.403 30.2914C117.778 30.1121 118.163 30.0224 118.555 30.0224C119.008 30.0224 119.435 30.1249 119.836 30.3298C120.237 30.5347 120.545 30.8507 120.758 31.2776C120.895 30.9873 121.087 30.7525 121.335 30.5732C121.582 30.3853 121.851 30.2487 122.142 30.1633C122.44 30.0694 122.722 30.0224 122.987 30.0224C123.397 30.0224 123.785 30.1078 124.152 30.2786C124.528 30.4494 124.835 30.7141 125.074 31.0727C125.314 31.4313 125.433 31.8924 125.433 32.4559V36.5543H124.408V32.5583C124.408 31.9777 124.263 31.5594 123.973 31.3032C123.683 31.0471 123.324 30.919 122.897 30.919C122.564 30.919 122.253 31.0001 121.962 31.1623C121.672 31.3245 121.437 31.5636 121.258 31.8795C121.087 32.1955 121.002 32.584 121.002 33.045V36.5543H119.977V32.5583C119.977 31.9777 119.832 31.5594 119.542 31.3032C119.251 31.0471 118.893 30.919 118.466 30.919C118.184 30.919 117.894 30.9958 117.595 31.1495C117.305 31.2947 117.061 31.5295 116.865 31.8539C116.668 32.1784 116.57 32.6053 116.57 33.1347V36.5543H115.546ZM128.265 28.921C128.035 28.921 127.847 28.8527 127.702 28.7161C127.565 28.5709 127.497 28.3831 127.497 28.1525C127.497 27.922 127.565 27.7384 127.702 27.6018C127.847 27.4567 128.035 27.3841 128.265 27.3841C128.496 27.3841 128.679 27.4567 128.816 27.6018C128.961 27.7384 129.034 27.922 129.034 28.1525C129.034 28.3831 128.961 28.5709 128.816 28.7161C128.679 28.8527 128.496 28.921 128.265 28.921ZM128.777 30.1505V36.5543H127.753V30.1505H128.777ZM133.46 36.6824C132.837 36.6824 132.261 36.5501 131.731 36.2854C131.21 36.0207 130.809 35.645 130.527 35.1583L131.398 34.5307C131.586 34.9235 131.859 35.2309 132.218 35.4529C132.585 35.6749 133.025 35.7859 133.537 35.7859C133.99 35.7859 134.344 35.7005 134.6 35.5297C134.856 35.3504 134.984 35.1199 134.984 34.8381C134.984 34.6588 134.925 34.4966 134.805 34.3514C134.694 34.1977 134.476 34.0867 134.152 34.0184L132.615 33.6982C131.992 33.5701 131.543 33.3567 131.27 33.0578C131.005 32.759 130.873 32.3876 130.873 31.9436C130.873 31.5935 130.971 31.2733 131.168 30.983C131.373 30.6927 131.659 30.4622 132.026 30.2914C132.402 30.1121 132.841 30.0224 133.345 30.0224C133.977 30.0224 134.51 30.1462 134.946 30.3939C135.381 30.6415 135.706 30.9916 135.919 31.4441L135.061 32.0076C134.916 31.6319 134.681 31.3587 134.357 31.1879C134.032 31.0086 133.695 30.919 133.345 30.919C133.038 30.919 132.773 30.9617 132.551 31.0471C132.337 31.1324 132.171 31.252 132.051 31.4057C131.94 31.5508 131.885 31.7173 131.885 31.9052C131.885 32.093 131.949 32.268 132.077 32.4303C132.205 32.584 132.444 32.695 132.794 32.7633L134.395 33.0963C134.993 33.2158 135.411 33.4122 135.65 33.6854C135.889 33.9586 136.009 34.2916 136.009 34.6844C136.009 35.0857 135.902 35.4401 135.689 35.7474C135.475 36.0463 135.176 36.2768 134.792 36.4391C134.408 36.6013 133.964 36.6824 133.46 36.6824ZM140.214 36.6824C139.591 36.6824 139.015 36.5501 138.485 36.2854C137.964 36.0207 137.563 35.645 137.281 35.1583L138.152 34.5307C138.34 34.9235 138.613 35.2309 138.972 35.4529C139.339 35.6749 139.779 35.7859 140.291 35.7859C140.744 35.7859 141.098 35.7005 141.354 35.5297C141.61 35.3504 141.738 35.1199 141.738 34.8381C141.738 34.6588 141.679 34.4966 141.559 34.3514C141.448 34.1977 141.23 34.0867 140.906 34.0184L139.369 33.6982C138.746 33.5701 138.297 33.3567 138.024 33.0578C137.759 32.759 137.627 32.3876 137.627 31.9436C137.627 31.5935 137.725 31.2733 137.922 30.983C138.127 30.6927 138.413 30.4622 138.78 30.2914C139.156 30.1121 139.595 30.0224 140.099 30.0224C140.731 30.0224 141.265 30.1462 141.7 30.3939C142.135 30.6415 142.46 30.9916 142.673 31.4441L141.815 32.0076C141.67 31.6319 141.435 31.3587 141.111 31.1879C140.786 31.0086 140.449 30.919 140.099 30.919C139.792 30.919 139.527 30.9617 139.305 31.0471C139.091 31.1324 138.925 31.252 138.805 31.4057C138.694 31.5508 138.639 31.7173 138.639 31.9052C138.639 32.093 138.703 32.268 138.831 32.4303C138.959 32.584 139.198 32.695 139.548 32.7633L141.149 33.0963C141.747 33.2158 142.165 33.4122 142.404 33.6854C142.643 33.9586 142.763 34.2916 142.763 34.6844C142.763 35.0857 142.656 35.4401 142.443 35.7474C142.229 36.0463 141.93 36.2768 141.546 36.4391C141.162 36.6013 140.718 36.6824 140.214 36.6824ZM145.175 28.921C144.945 28.921 144.757 28.8527 144.612 28.7161C144.475 28.5709 144.407 28.3831 144.407 28.1525C144.407 27.922 144.475 27.7384 144.612 27.6018C144.757 27.4567 144.945 27.3841 145.175 27.3841C145.406 27.3841 145.589 27.4567 145.726 27.6018C145.871 27.7384 145.944 27.922 145.944 28.1525C145.944 28.3831 145.871 28.5709 145.726 28.7161C145.589 28.8527 145.406 28.921 145.175 28.921ZM145.688 30.1505V36.5543H144.663V30.1505H145.688ZM150.716 30.0224C151.322 30.0224 151.856 30.1548 152.317 30.4195C152.787 30.6842 153.154 31.0684 153.419 31.5722C153.683 32.0674 153.816 32.6608 153.816 33.3524C153.816 34.044 153.683 34.6417 153.419 35.1455C153.154 35.6407 152.787 36.0207 152.317 36.2854C151.856 36.5501 151.322 36.6824 150.716 36.6824C150.118 36.6824 149.585 36.5501 149.115 36.2854C148.646 36.0207 148.278 35.6407 148.014 35.1455C147.749 34.6417 147.617 34.044 147.617 33.3524C147.617 32.6608 147.749 32.0674 148.014 31.5722C148.278 31.0684 148.646 30.6842 149.115 30.4195C149.585 30.1548 150.118 30.0224 150.716 30.0224ZM150.716 30.9062C150.281 30.9062 149.909 31.0044 149.602 31.2007C149.294 31.3971 149.055 31.6789 148.885 32.046C148.722 32.4047 148.641 32.8401 148.641 33.3524C148.641 33.8562 148.722 34.2916 148.885 34.6588C149.055 35.0259 149.294 35.3077 149.602 35.5041C149.909 35.7005 150.281 35.7987 150.716 35.7987C151.152 35.7987 151.523 35.7005 151.83 35.5041C152.138 35.3077 152.373 35.0259 152.535 34.6588C152.706 34.2916 152.791 33.8562 152.791 33.3524C152.791 32.8401 152.706 32.4047 152.535 32.046C152.373 31.6789 152.138 31.3971 151.83 31.2007C151.523 31.0044 151.152 30.9062 150.716 30.9062ZM155.745 36.5543V30.1505H156.641L156.731 31.585L156.564 31.4441C156.701 31.1026 156.884 30.8293 157.115 30.6244C157.345 30.4109 157.61 30.2572 157.909 30.1633C158.216 30.0694 158.532 30.0224 158.857 30.0224C159.318 30.0224 159.736 30.1121 160.112 30.2914C160.488 30.4622 160.786 30.7269 161.008 31.0855C161.239 31.4441 161.354 31.9009 161.354 32.4559V36.5543H160.33V32.8145C160.33 32.1058 160.176 31.6149 159.869 31.3416C159.57 31.0599 159.198 30.919 158.754 30.919C158.447 30.919 158.14 30.9916 157.832 31.1367C157.525 31.2819 157.269 31.5167 157.064 31.8411C156.867 32.1656 156.769 32.601 156.769 33.1475V36.5543H155.745Z" fill="#545458"/>
<defs>
<clipPath id="clip0_5279_63275">
<rect width="69.3641" height="48.0285" fill="white" transform="translate(0.3125 0.540039)"/>
</clipPath>
</defs>
</svg>
