<svg width="162" height="40" viewBox="0 0 162 40" fill="none" xmlns="http://www.w3.org/2000/svg">
<g clip-path="url(#clip0_5110_43818)">
<path d="M107.806 10.3896C109.067 10.3896 110.238 10.3513 111.401 10.4199C111.654 10.4343 111.989 10.7935 112.105 11.0681C113.96 15.4535 115.785 19.8532 117.62 24.2482C117.747 24.5563 117.885 24.8596 118.097 25.3497C118.316 24.8724 118.461 24.577 118.587 24.2753C120.42 19.8803 122.257 15.487 124.069 11.0824C124.278 10.5748 124.521 10.3465 125.104 10.372C126.215 10.4231 127.332 10.3864 128.51 10.3864V29.6904H125.619V15.5301L125.468 15.5029C125.349 15.7552 125.222 16.0042 125.113 16.2613C123.32 20.5014 121.518 24.7383 119.756 28.9911C119.518 29.5658 119.256 29.8452 118.605 29.7686C118.055 29.7047 117.493 29.7558 116.908 29.7558C114.914 24.9426 112.931 20.1565 110.946 15.3704L110.78 15.3848V29.6999H107.805V10.3896H107.806Z" fill="#545458"/>
<path d="M68.4414 10.2251C71.8067 10.423 75.2086 9.76851 78.4781 10.9547C82.5011 12.4138 84.8862 15.9403 84.792 20.2043C84.6754 25.4486 80.8712 29.379 75.6014 29.5929C73.2419 29.6887 70.8744 29.6089 68.443 29.6089V10.2251H68.4414ZM71.2639 13.1801V26.9381C72.5107 26.9381 73.7 26.9524 74.8894 26.9301C75.3108 26.9221 75.7339 26.8487 76.1489 26.7688C79.1135 26.2005 81.4235 23.6877 81.6135 20.8413C81.837 17.4824 80.1208 14.66 77.2664 13.6526C75.3092 12.9614 73.2961 13.2567 71.2639 13.1801V13.1801Z" fill="#545458"/>
<path d="M14.9199 0.017445C14.5144 0.786922 14.1999 1.39516 13.8775 1.99861C10.8091 7.74254 7.7488 13.4897 4.65333 19.2192C4.33724 19.8051 4.3564 20.2314 4.6661 20.8077C7.94356 26.8901 11.1907 32.9884 14.4458 39.0819C14.5799 39.3342 14.7028 39.5928 14.8944 39.9743C13.7067 39.9743 12.6323 39.9935 11.5595 39.9536C11.3934 39.9472 11.1859 39.6934 11.0853 39.5066C7.68175 33.1624 4.28456 26.8134 0.912909 20.4517C0.782003 20.2058 0.793178 19.7684 0.925681 19.5194C4.28775 13.1832 7.66898 6.85653 11.0757 0.542669C11.2114 0.290434 11.6185 0.0605485 11.9139 0.0413914C12.8621 -0.0224656 13.8184 0.017445 14.9199 0.017445V0.017445Z" fill="#545458"/>
<path d="M33.9648 0.0222757C35.135 0.0222757 36.1679 -0.00167064 37.1992 0.0430292C37.3972 0.0510114 37.6574 0.285686 37.7643 0.482046C41.1855 6.84859 44.5938 13.2199 47.9814 19.604C48.0996 19.8259 48.0756 20.2234 47.9543 20.4517C44.5779 26.8103 41.1823 33.1608 37.7723 39.5018C37.659 39.7142 37.362 39.9504 37.1401 39.96C36.136 40.0095 35.1286 39.9808 33.9776 39.9808C34.1548 39.6104 34.2746 39.3358 34.415 39.0724C37.6845 32.9565 40.9508 26.8374 44.241 20.7311C44.5204 20.2107 44.5364 19.8195 44.249 19.2863C40.9572 13.1816 37.6941 7.06251 34.4246 0.945009C34.2889 0.692774 34.1692 0.43096 33.9664 0.0190829L33.9648 0.0222757Z" fill="#545458"/>
<path d="M161.181 29.6903C161.053 29.7238 161.028 29.7366 161.002 29.7366C160.073 29.7366 158.941 30.0607 158.275 29.644C157.63 29.2401 157.434 28.0875 157.094 27.243C156.275 25.2028 156.288 25.198 154.115 25.198C151.99 25.198 149.867 25.2267 147.744 25.182C147.035 25.1676 146.641 25.3305 146.412 26.0616C146.074 27.144 145.585 28.1785 145.188 29.2417C145.049 29.6105 144.864 29.7829 144.442 29.7653C143.649 29.7302 142.852 29.7558 141.973 29.7558C142.076 29.4493 142.147 29.2018 142.242 28.9655C144.667 23.0189 147.104 17.0754 149.508 11.1191C149.731 10.5652 149.993 10.3337 150.6 10.3768C151.497 10.4406 152.608 10.1102 153.24 10.5284C153.869 10.9435 154.04 12.0706 154.378 12.8991C156.558 18.2344 158.727 23.5712 160.898 28.9097C160.996 29.1491 161.075 29.395 161.184 29.6919L161.181 29.6903ZM151.574 13.4866L151.38 13.4643C150.185 16.4608 148.989 19.4572 147.763 22.5304H155.181C153.954 19.4525 152.764 16.4687 151.574 13.4866Z" fill="#545458"/>
<path d="M102.415 10.4343V13.0493H92.9675C92.9675 14.7782 92.95 16.4385 92.9979 18.0972C93.0027 18.2376 93.4353 18.4787 93.6732 18.4819C95.9576 18.5106 98.2437 18.4995 100.528 18.4995C100.817 18.4995 101.108 18.4995 101.468 18.4995V21.1767H92.9564C92.9564 21.6907 92.9564 22.1297 92.9564 22.5687C92.9564 23.7868 92.9915 25.0081 92.9436 26.2246C92.9165 26.9078 93.1751 27.0707 93.8168 27.0627C96.3408 27.0323 98.8663 27.0499 101.39 27.0499C101.706 27.0499 102.022 27.0499 102.398 27.0499V29.7159H89.9727V10.4343H102.415V10.4343Z" fill="#545458"/>
<path d="M22.2034 0.0174489C21.6973 2.56215 21.22 4.97434 20.7347 7.38495C19.9221 11.4303 19.0217 15.4629 18.3432 19.5305C18.1581 20.6417 18.5875 21.8725 18.8174 23.0331C19.8838 28.4322 20.9789 33.8249 22.0613 39.2192C22.1028 39.4252 22.114 39.6375 22.1539 39.9743C21.1545 39.9743 20.1839 40.0031 19.2197 39.944C19.0632 39.9344 18.8509 39.5465 18.8014 39.3054C17.9729 35.2346 17.1683 31.1605 16.3557 27.0864C15.931 24.9584 15.3899 22.8463 15.1233 20.6991C14.986 19.5896 15.2558 18.4035 15.4745 17.278C16.5505 11.7735 17.6791 6.28022 18.7631 0.777347C18.8748 0.210616 19.0728 -0.0400224 19.6858 0.00148464C20.4745 0.0541666 21.2711 0.014256 22.2002 0.014256L22.2034 0.0174489Z" fill="#545458"/>
<path d="M26.6633 39.9856C26.997 38.295 27.2987 36.7416 27.6116 35.1899C28.5902 30.3176 29.6503 25.4597 30.4964 20.5651C30.7007 19.3821 30.2585 18.0667 30.0158 16.831C28.9606 11.4623 27.8671 6.10147 26.7927 0.735892C26.7527 0.536339 26.7607 0.325611 26.7384 0.0206938C27.7106 0.0206938 28.6349 -0.0096383 29.5529 0.047833C29.7301 0.0590079 29.9887 0.392661 30.0334 0.612967C31.0663 5.66246 32.0736 10.7183 33.0858 15.7726C33.1847 16.2643 33.2262 16.78 33.3987 17.2445C34.3086 19.6886 33.52 22.0466 33.0522 24.4141C32.0736 29.3678 31.0519 34.3119 30.0781 39.2656C29.9679 39.8259 29.762 40.0223 29.2001 39.9936C28.4098 39.9521 27.6164 39.9824 26.6602 39.9824L26.6633 39.9856Z" fill="#545458"/>
<path d="M61.8933 29.7175H59.0469V10.4614H61.8933V29.7159V29.7175Z" fill="#545458"/>
<path d="M135.082 10.4136H137.844V29.708H135.082V10.4136Z" fill="#545458"/>
</g>
<defs>
<clipPath id="clip0_5110_43818">
<rect width="160.362" height="40" fill="white" transform="translate(0.820312)"/>
</clipPath>
</defs>
</svg>
