<svg width="237" height="55" viewBox="0 0 237 55" fill="none" xmlns="http://www.w3.org/2000/svg">
<path d="M14.8497 28.0148C14.7352 28.0148 14.6379 27.9748 14.5577 27.8946C14.4776 27.8145 14.4375 27.7171 14.4375 27.6026H14.6894C14.6894 27.6484 14.7066 27.6885 14.7409 27.7229C14.7753 27.7572 14.8154 27.7744 14.8612 27.7744H15.4451C15.4909 27.7744 15.531 27.7572 15.5654 27.7229C15.5997 27.6885 15.6169 27.6484 15.6169 27.6026C15.6169 27.5568 15.5997 27.5168 15.5654 27.4824C15.531 27.4481 15.4909 27.4309 15.4451 27.4309H14.8497C14.7352 27.4309 14.6379 27.3908 14.5577 27.3106C14.4776 27.2305 14.4375 27.1332 14.4375 27.0187C14.4375 26.9042 14.4776 26.8068 14.5577 26.7267C14.6379 26.6465 14.7352 26.6064 14.8497 26.6064H15.4337C15.5482 26.6064 15.6455 26.6465 15.7257 26.7267C15.8058 26.8068 15.8459 26.9042 15.8459 27.0187H15.594C15.594 26.9729 15.5768 26.9328 15.5425 26.8984C15.5081 26.8641 15.468 26.8469 15.4222 26.8469H14.8497C14.8039 26.8469 14.7638 26.8641 14.7295 26.8984C14.6951 26.9328 14.678 26.9729 14.678 27.0187C14.678 27.0645 14.6951 27.1045 14.7295 27.1389C14.7638 27.1732 14.8039 27.1904 14.8497 27.1904H15.4337C15.5482 27.1904 15.6455 27.2305 15.7257 27.3106C15.8058 27.3908 15.8459 27.4881 15.8459 27.6026C15.8459 27.7171 15.8058 27.8145 15.7257 27.8946C15.6455 27.9748 15.5482 28.0148 15.4337 28.0148H14.8497Z" fill="#454545"/>
<path d="M19.1954 26.6016V26.8535H18.0332V27.1855H19.1954V27.4374H18.0332V27.7695H19.1954V28.0214H17.7812V26.6073H19.1954V26.6016Z" fill="#454545"/>
<path d="M22.549 27.0187V27.1045H22.2971V27.0187C22.2971 26.9729 22.2799 26.9328 22.2456 26.8984C22.2112 26.8641 22.1712 26.8469 22.1254 26.8469H21.5414C21.4956 26.8469 21.4555 26.8641 21.4212 26.8984C21.3868 26.9328 21.3696 26.9729 21.3696 27.0187V27.6026C21.3696 27.6484 21.3868 27.6885 21.4212 27.7229C21.4555 27.7572 21.4956 27.7744 21.5414 27.7744H22.1254C22.1712 27.7744 22.2112 27.7572 22.2456 27.7229C22.2799 27.6885 22.2971 27.6484 22.2971 27.6026V27.5168H22.549V27.6026C22.549 27.7171 22.509 27.8145 22.4288 27.8946C22.3486 27.9748 22.2513 28.0148 22.1368 28.0148H21.5528C21.4383 28.0148 21.341 27.9748 21.2609 27.8946C21.1807 27.8145 21.1406 27.7171 21.1406 27.6026V27.0187C21.1406 26.9042 21.1807 26.8068 21.2609 26.7267C21.341 26.6465 21.4383 26.6064 21.5528 26.6064H22.1368C22.2513 26.6064 22.3486 26.6465 22.4288 26.7267C22.509 26.8011 22.549 26.8984 22.549 27.0187Z" fill="#454545"/>
<path d="M24.4922 27.5978V26.6016H24.7441V27.5978C24.7441 27.6436 24.7613 27.6836 24.7956 27.718C24.83 27.7523 24.8701 27.7695 24.9159 27.7695H25.4998C25.5456 27.7695 25.5857 27.7523 25.6201 27.718C25.6544 27.6836 25.6716 27.6436 25.6716 27.5978V26.6016H25.9235V27.5978C25.9235 27.7123 25.8834 27.8096 25.8033 27.8897C25.7231 27.9699 25.6258 28.01 25.5113 28.01H24.9273C24.8128 28.01 24.7155 27.9699 24.6353 27.8897C24.5552 27.8096 24.4922 27.7123 24.4922 27.5978Z" fill="#454545"/>
<path d="M28.0957 27.1913V28.0157H27.8438V26.6016H28.8399C28.9544 26.6016 29.0518 26.6416 29.1319 26.7218C29.2121 26.8019 29.2522 26.8993 29.2522 27.0138C29.2522 27.1283 29.2121 27.2256 29.1319 27.3058C29.0518 27.3859 28.9544 27.426 28.8399 27.426H28.6854L29.2693 28.01H28.9144L28.0957 27.1913ZM28.0957 26.8477V27.1798H28.8457C28.8915 27.1798 28.9315 27.1626 28.9659 27.1283C29.0002 27.0939 29.0174 27.0539 29.0174 27.0081C29.0174 26.9623 29.0002 26.9222 28.9659 26.8878C28.9315 26.8535 28.8915 26.8363 28.8457 26.8363H28.0957V26.8477Z" fill="#454545"/>
<path d="M31.4394 28.0157H31.1875V26.6016H31.4394V28.0157Z" fill="#454545"/>
<path d="M34.2109 26.8476V28.0098H33.959V26.8476H33.375V26.5957H34.7891V26.8476H34.2109Z" fill="#454545"/>
<path d="M37.5608 27.3573V28.0157H37.3089V27.3573L36.6562 26.6016H36.9883L37.4349 27.1168L37.8814 26.6016H38.2135L37.5608 27.3573Z" fill="#454545"/>
<path d="M7.44531 19.3818V16.7654H8.02356V19.3818H7.44531Z" fill="#737373"/>
<path d="M9.22537 19.4387C9.10515 19.4387 8.99064 19.4272 8.88759 19.3986C8.78453 19.37 8.69293 19.3413 8.61278 19.3013C8.53262 19.2612 8.4582 19.2211 8.40094 19.181C8.34369 19.141 8.29216 19.1066 8.25781 19.078L8.53835 18.6257C8.65285 18.723 8.76163 18.7974 8.85896 18.8432C8.96201 18.889 9.05934 18.9119 9.1624 18.9119C9.20247 18.9119 9.24828 18.9062 9.28835 18.9005C9.33415 18.8948 9.37423 18.8833 9.41431 18.8604C9.45438 18.8432 9.48301 18.8146 9.50591 18.7803C9.52881 18.7459 9.54026 18.7001 9.54026 18.6429C9.54026 18.5856 9.51164 18.5341 9.45438 18.4883C9.39713 18.4425 9.3227 18.3967 9.24255 18.3566C9.15667 18.3108 9.06507 18.265 8.96774 18.2135C8.87041 18.1619 8.77308 18.1047 8.69293 18.036C8.60705 17.9673 8.53835 17.8871 8.4811 17.7955C8.42384 17.7039 8.39522 17.5951 8.39522 17.4635C8.39522 17.3604 8.41239 17.2631 8.45247 17.1715C8.48682 17.0799 8.54407 16.994 8.61278 16.9253C8.68148 16.8566 8.77308 16.7993 8.87614 16.7593C8.97919 16.7192 9.09942 16.6963 9.23683 16.6963C9.37996 16.6963 9.51736 16.7192 9.64904 16.7593C9.78072 16.7993 9.9124 16.8623 10.0498 16.9482L9.75782 17.3948C9.68912 17.349 9.63187 17.3203 9.58034 17.2917C9.52881 17.2688 9.48301 17.2516 9.44293 17.2402C9.40286 17.2287 9.3685 17.223 9.3456 17.223C9.31698 17.223 9.2998 17.223 9.28835 17.223C9.17957 17.223 9.10514 17.2459 9.05934 17.2917C9.01354 17.3375 8.99064 17.3833 8.99064 17.4348C8.99064 17.4978 9.01927 17.5551 9.07652 17.6009C9.13377 17.6467 9.2082 17.6982 9.28835 17.7383C9.37423 17.7841 9.46583 17.8299 9.56889 17.8814C9.67194 17.9329 9.76354 17.9902 9.84942 18.0532C9.9353 18.1161 10.004 18.1963 10.0613 18.2879C10.1185 18.3795 10.1471 18.4883 10.1471 18.6142C10.1471 18.8776 10.067 19.0837 9.90095 19.2211C9.72347 19.3642 9.50019 19.4387 9.22537 19.4387Z" fill="#737373"/>
<path d="M11.5122 19.4398C11.3061 19.4398 11.1229 19.4054 10.9683 19.3367C10.8137 19.268 10.6877 19.1707 10.5847 19.0505C10.4816 18.9302 10.4072 18.7814 10.3557 18.6153C10.3042 18.4493 10.2812 18.2604 10.2812 18.0657C10.2812 17.8653 10.3042 17.6821 10.3557 17.5161C10.4072 17.3501 10.4816 17.2069 10.5847 17.0867C10.6877 16.9665 10.8137 16.8749 10.9683 16.8062C11.1229 16.7375 11.3061 16.7031 11.5122 16.7031C11.7183 16.7031 11.9015 16.7375 12.0561 16.8062C12.2106 16.8749 12.3366 16.9665 12.4397 17.0867C12.5427 17.2069 12.6171 17.3501 12.6687 17.5161C12.7202 17.6821 12.7431 17.8653 12.7431 18.0657C12.7431 18.2661 12.7202 18.4493 12.6687 18.6153C12.6171 18.7814 12.5427 18.9302 12.4397 19.0505C12.3366 19.1707 12.2106 19.268 12.0561 19.3367C11.8958 19.4054 11.7183 19.4398 11.5122 19.4398ZM11.5122 18.9073C11.6038 18.9073 11.6839 18.8902 11.7584 18.8558C11.8328 18.8215 11.9015 18.7699 11.953 18.6955C12.0103 18.6268 12.0503 18.5352 12.079 18.4321C12.1076 18.3291 12.1248 18.2031 12.1248 18.06C12.1248 17.7909 12.0675 17.5848 11.953 17.4417C11.8385 17.2985 11.6897 17.2298 11.5064 17.2298C11.3232 17.2298 11.1744 17.2985 11.0599 17.4417C10.9454 17.5848 10.8881 17.7852 10.8881 18.06C10.8881 18.3405 10.9454 18.5524 11.0599 18.6955C11.1801 18.8329 11.329 18.9073 11.5122 18.9073Z" fill="#737373"/>
<path d="M13.7578 19.0333C13.9009 18.8673 14.0441 18.7184 14.1815 18.5753C14.3189 18.4321 14.4391 18.3005 14.5479 18.1745C14.6509 18.0486 14.7368 17.934 14.7998 17.8253C14.8628 17.7165 14.8971 17.6192 14.8971 17.5333C14.8971 17.436 14.8685 17.3558 14.8055 17.2871C14.7483 17.2184 14.6509 17.184 14.5307 17.184C14.4391 17.184 14.3475 17.2012 14.2559 17.2413C14.1643 17.2814 14.0784 17.3329 13.9983 17.4073L13.7635 17.018C13.9009 16.9035 14.0326 16.8234 14.17 16.7776C14.3074 16.7318 14.4448 16.7031 14.588 16.7031C14.8857 16.7031 15.109 16.7718 15.2635 16.915C15.4181 17.0581 15.4926 17.247 15.4926 17.4818C15.4926 17.602 15.4639 17.7222 15.4124 17.8482C15.3609 17.9684 15.2922 18.0944 15.2063 18.2146C15.1204 18.3348 15.0231 18.4608 14.9086 18.581C14.7941 18.7012 14.6796 18.8272 14.5536 18.9474C14.6223 18.9417 14.7025 18.936 14.7769 18.936C14.8571 18.936 14.9372 18.9302 15.0174 18.9302H15.5555V19.3825H13.7578V19.0333Z" fill="#737373"/>
<path d="M15.912 16.7598H17.6639V17.2121L16.8795 19.3819H16.3185L17.12 17.2121C17.0284 17.2121 16.9368 17.2178 16.8395 17.2178C16.7421 17.2178 16.6391 17.2178 16.5246 17.2178H16.3414H15.9062V16.7598H15.912Z" fill="#737373"/>
<path d="M18.8754 19.4398C18.6922 19.4398 18.5376 19.4054 18.4116 19.331C18.2857 19.2566 18.1826 19.1592 18.1082 19.0333C18.028 18.9073 17.9765 18.7642 17.9422 18.5924C17.9078 18.4264 17.8906 18.2432 17.8906 18.0543C17.8906 17.8653 17.9078 17.6821 17.9422 17.5218C17.9765 17.3558 18.028 17.2127 18.1082 17.0924C18.1883 16.9722 18.2857 16.8749 18.4116 16.8062C18.5376 16.7375 18.6922 16.7031 18.8754 16.7031C19.0586 16.7031 19.2131 16.7375 19.3391 16.8062C19.4651 16.8749 19.5681 16.9722 19.6425 17.0924C19.7227 17.2127 19.7742 17.3558 19.8086 17.5218C19.8429 17.6879 19.8601 17.8653 19.8601 18.0543C19.8601 18.2432 19.8429 18.4264 19.8086 18.5924C19.7742 18.7585 19.7227 18.9073 19.6425 19.0333C19.5624 19.1592 19.4651 19.2566 19.3391 19.331C19.2189 19.3997 19.0586 19.4398 18.8754 19.4398ZM18.8754 18.9417C18.9441 18.9417 19.0013 18.9188 19.0528 18.873C19.0986 18.8272 19.1387 18.7642 19.1731 18.684C19.2017 18.6039 19.2246 18.5123 19.2418 18.4035C19.2532 18.2947 19.2647 18.1802 19.2647 18.0486C19.2647 17.934 19.259 17.8253 19.2418 17.7165C19.2303 17.6134 19.2074 17.5218 19.1731 17.4417C19.1444 17.3615 19.1044 17.2985 19.0528 17.2527C19.007 17.2069 18.9441 17.184 18.8754 17.184C18.8067 17.184 18.7494 17.2069 18.6979 17.2527C18.6521 17.2985 18.612 17.3615 18.5777 17.4417C18.549 17.5218 18.5261 17.6134 18.5089 17.7165C18.4975 17.8195 18.486 17.9283 18.486 18.0486C18.486 18.1745 18.4918 18.2947 18.5089 18.4035C18.5204 18.5123 18.5433 18.6039 18.5777 18.684C18.6063 18.7642 18.6464 18.8272 18.6979 18.873C18.7494 18.9245 18.8067 18.9417 18.8754 18.9417Z" fill="#737373"/>
<path d="M20.9925 19.4398C20.8093 19.4398 20.6548 19.4054 20.5288 19.331C20.4029 19.2566 20.2998 19.1592 20.2254 19.0333C20.1452 18.9073 20.0937 18.7642 20.0593 18.5924C20.025 18.4264 20.0078 18.2432 20.0078 18.0543C20.0078 17.8653 20.025 17.6821 20.0593 17.5218C20.0937 17.3558 20.1452 17.2127 20.2254 17.0924C20.3055 16.9722 20.4029 16.8749 20.5288 16.8062C20.6548 16.7375 20.8093 16.7031 20.9925 16.7031C21.1758 16.7031 21.3303 16.7375 21.4563 16.8062C21.5822 16.8749 21.6853 16.9722 21.7597 17.0924C21.8399 17.2127 21.8914 17.3558 21.9258 17.5218C21.9601 17.6879 21.9773 17.8653 21.9773 18.0543C21.9773 18.2432 21.9601 18.4264 21.9258 18.5924C21.8914 18.7585 21.8399 18.9073 21.7597 19.0333C21.6796 19.1592 21.5822 19.2566 21.4563 19.331C21.3303 19.3997 21.1758 19.4398 20.9925 19.4398ZM20.9925 18.9417C21.0613 18.9417 21.1185 18.9188 21.17 18.873C21.2158 18.8272 21.2559 18.7642 21.2903 18.684C21.3189 18.6039 21.3418 18.5123 21.359 18.4035C21.3704 18.2947 21.3819 18.1802 21.3819 18.0486C21.3819 17.934 21.3761 17.8253 21.359 17.7165C21.3475 17.6134 21.3246 17.5218 21.2903 17.4417C21.2616 17.3615 21.2216 17.2985 21.17 17.2527C21.1242 17.2069 21.0613 17.184 20.9925 17.184C20.9238 17.184 20.8666 17.2069 20.8151 17.2527C20.7693 17.2985 20.7292 17.3615 20.6948 17.4417C20.6662 17.5218 20.6433 17.6134 20.6261 17.7165C20.6147 17.8195 20.6032 17.9283 20.6032 18.0486C20.6032 18.1745 20.609 18.2947 20.6261 18.4035C20.6376 18.5123 20.6605 18.6039 20.6948 18.684C20.7235 18.7642 20.7635 18.8272 20.8151 18.873C20.8666 18.9245 20.9238 18.9417 20.9925 18.9417Z" fill="#737373"/>
<path d="M22.9459 18.9295V17.6528C22.9459 17.5783 22.9459 17.5039 22.9516 17.4352C22.9574 17.3665 22.9574 17.2978 22.9631 17.2405L22.4764 17.481L22.3047 17.1318L23.0432 16.7539H23.5127V18.9295V19.3818H22.9459V18.9295Z" fill="#737373"/>
<path d="M26.2465 17.2349C26.0633 17.2349 25.9145 17.3036 25.8 17.4467C25.6855 17.5898 25.6282 17.7902 25.6282 18.065C25.6282 18.3456 25.6855 18.5574 25.8 18.7005C25.9145 18.8436 26.0633 18.9124 26.2465 18.9124C26.384 18.9124 26.4985 18.8895 26.5958 18.8436C26.6931 18.7978 26.7733 18.752 26.8362 18.712L27.1168 19.1185C27.071 19.1528 27.0195 19.1872 26.9622 19.2272C26.9049 19.2673 26.8362 19.3017 26.7675 19.336C26.6931 19.3704 26.613 19.399 26.5271 19.4162C26.4412 19.4391 26.3439 19.4505 26.2465 19.4505C26.0404 19.4505 25.8572 19.4162 25.7027 19.3475C25.5481 19.2788 25.4221 19.1814 25.3191 19.0612C25.216 18.941 25.1416 18.7921 25.0901 18.6261C25.0385 18.4601 25.0156 18.2711 25.0156 18.0765C25.0156 17.8761 25.0385 17.6929 25.0901 17.5268C25.1416 17.3608 25.216 17.2177 25.3191 17.0975C25.4221 16.9772 25.5481 16.8856 25.7027 16.8169C25.8572 16.7482 26.0404 16.7139 26.2465 16.7139C26.3496 16.7139 26.4412 16.7253 26.5271 16.7482C26.613 16.7711 26.6931 16.7997 26.7675 16.8284C26.842 16.8627 26.9049 16.8971 26.9622 16.9372C27.0195 16.9772 27.071 17.0116 27.1168 17.0459L26.8362 17.4524C26.7733 17.4066 26.6931 17.3665 26.5958 17.3207C26.4985 17.2578 26.384 17.2349 26.2465 17.2349Z" fill="#737373"/>
<path d="M27.4062 19.3821V16.7656H29.1467V17.2866H27.9845V17.7561H28.8776V18.2771H27.9845V18.8668H29.2211V19.3878H27.4062V19.3821Z" fill="#737373"/>
<path d="M31.5954 19.3821H30.9313L30.5076 18.758C30.4618 18.6951 30.4218 18.6321 30.376 18.5634C30.3302 18.4947 30.2901 18.426 30.2443 18.363H30.0782V19.3821H29.5V16.8057C29.5802 16.7886 29.666 16.7771 29.7576 16.7657C29.8378 16.7542 29.9351 16.7485 30.0382 16.737C30.1412 16.7256 30.2615 16.7256 30.3874 16.7256C30.5477 16.7256 30.6851 16.7428 30.8053 16.7828C30.9199 16.8229 31.0172 16.8802 31.0916 16.9489C31.166 17.0176 31.2233 17.1092 31.2576 17.2065C31.292 17.3096 31.3092 17.4183 31.3092 17.5443C31.3092 17.7218 31.2634 17.8706 31.166 17.9909C31.0687 18.1111 30.9428 18.2027 30.7882 18.2599C30.834 18.3172 30.8741 18.3744 30.9141 18.4317C30.9485 18.4775 30.9886 18.529 31.0229 18.5806C31.063 18.6321 31.0973 18.6836 31.126 18.7237L31.5954 19.3821ZM30.3531 17.8363C30.4676 17.8363 30.5534 17.8077 30.6164 17.7561C30.6794 17.7046 30.708 17.6302 30.708 17.5443C30.708 17.4584 30.6794 17.384 30.6279 17.3153C30.5763 17.2466 30.4905 17.2122 30.3817 17.2122C30.3244 17.2122 30.2672 17.2122 30.2214 17.218C30.1756 17.218 30.1298 17.2237 30.084 17.2294V17.8363H30.3531Z" fill="#737373"/>
<path d="M32.2375 19.3821V17.2866H31.4531V16.7656H33.6001V17.2866H32.8157V19.3821H32.2375Z" fill="#737373"/>
<path d="M33.8281 19.3818V16.7654H34.4064V19.3818H33.8281Z" fill="#737373"/>
<path d="M34.8281 19.3821V16.7656H36.54V17.2866H35.4064V17.8076H36.3911V18.3286H35.4064V19.3821H34.8281Z" fill="#737373"/>
<path d="M36.8203 19.3818V16.7654H37.3986V19.3818H36.8203Z" fill="#737373"/>
<path d="M37.8203 19.3821V16.7656H39.5608V17.2866H38.3986V17.7561H39.2917V18.2771H38.3986V18.8668H39.6352V19.3878H37.8203V19.3821Z" fill="#737373"/>
<path d="M39.9297 16.8057C40.0098 16.7886 40.0957 16.7771 40.1873 16.7657C40.2675 16.7542 40.3591 16.7485 40.4564 16.737C40.5595 16.7313 40.6625 16.7256 40.7713 16.7256C40.9831 16.7256 41.1778 16.7599 41.3438 16.8229C41.5098 16.8859 41.6473 16.9775 41.7675 17.092C41.882 17.2122 41.9679 17.3496 42.0251 17.5099C42.0824 17.6702 42.111 17.8535 42.111 18.0538C42.111 18.2542 42.0824 18.4374 42.0308 18.6035C41.9793 18.7695 41.8992 18.9183 41.7904 19.0386C41.6816 19.1588 41.5442 19.2561 41.3724 19.3248C41.2007 19.3935 41.0003 19.4279 40.7713 19.4279C40.6625 19.4279 40.5537 19.4222 40.4564 19.4164C40.3534 19.4107 40.2675 19.405 40.1873 19.3935C40.0957 19.3821 40.0098 19.3706 39.9297 19.3649V16.8057ZM40.777 17.2351C40.6854 17.2351 40.5938 17.2409 40.5079 17.2466V18.9298C40.5537 18.9298 40.5995 18.9355 40.6453 18.9355C40.6854 18.9355 40.7312 18.9355 40.777 18.9355C41.0232 18.9355 41.2064 18.8611 41.3266 18.7122C41.4411 18.5634 41.5041 18.3458 41.5041 18.0596C41.5041 17.7905 41.4469 17.5844 41.3324 17.4412C41.2121 17.3038 41.0289 17.2351 40.777 17.2351Z" fill="#737373"/>
<path d="M43.7059 16.5479V17.3723C43.7517 17.3494 43.7975 17.3265 43.8605 17.3093C43.9177 17.2921 43.9921 17.2864 44.0723 17.2864C44.2154 17.2864 44.3414 17.315 44.4501 17.3666C44.5589 17.4181 44.6448 17.4925 44.7135 17.5841C44.7822 17.6757 44.8337 17.7902 44.8681 17.9219C44.9024 18.0536 44.9196 18.1967 44.9196 18.3513C44.9196 18.4944 44.8967 18.6318 44.8509 18.7635C44.8051 18.8952 44.7364 19.0097 44.6505 19.107C44.5647 19.2044 44.4559 19.2845 44.3356 19.3475C44.2097 19.4047 44.0723 19.4391 43.912 19.4391C43.723 19.4391 43.5685 19.4219 43.454 19.3876C43.3395 19.3532 43.2421 19.3017 43.1562 19.2387V16.5536H43.7059V16.5479ZM44.3643 18.357C44.3643 18.1452 44.3242 17.9906 44.2498 17.8933C44.1753 17.7959 44.078 17.7444 43.9521 17.7444C43.9005 17.7444 43.8547 17.7501 43.8146 17.7616C43.7746 17.773 43.7345 17.7845 43.7059 17.8017V18.9753C43.7345 18.9811 43.7631 18.9868 43.7917 18.9925C43.8204 18.9925 43.8547 18.9982 43.8891 18.9982C44.0322 18.9982 44.1524 18.941 44.2383 18.8265C44.3185 18.7005 44.3643 18.546 44.3643 18.357Z" fill="#737373"/>
<path d="M44.8943 17.3495H45.5011L45.5355 17.4525C45.6328 17.756 45.713 18.0365 45.7645 18.277C45.8217 18.5231 45.8618 18.7293 45.8905 18.8953C45.9248 18.7407 45.9706 18.546 46.0279 18.3056C46.0851 18.0651 46.1595 17.7674 46.2454 17.4067L46.2626 17.3438H46.8008C46.692 17.6815 46.5947 17.9907 46.5031 18.277C46.4114 18.5632 46.3313 18.8094 46.2569 19.0155C46.171 19.2617 46.0966 19.485 46.0279 19.6854C45.9935 19.7884 45.9534 19.8743 45.8962 19.9373C45.8389 20.006 45.7817 20.0575 45.713 20.0919C45.6443 20.1319 45.5756 20.1548 45.5011 20.172C45.4267 20.1835 45.3523 20.1949 45.2836 20.1949C45.1862 20.1949 45.1061 20.1892 45.0431 20.172C44.9801 20.1606 44.9229 20.1434 44.8828 20.1262L44.9343 19.7426C44.9859 19.7655 45.0317 19.777 45.0717 19.7884C45.1118 19.7999 45.1519 19.7999 45.192 19.7999C45.2893 19.7999 45.3637 19.7884 45.421 19.7598C45.4782 19.7312 45.5183 19.6968 45.5412 19.651C45.5698 19.6052 45.587 19.5594 45.5927 19.5136C45.5985 19.4678 45.6042 19.422 45.6042 19.3762L44.8943 17.3495Z" fill="#737373"/>
<path d="M24.2169 42.8143C24.1081 43.1521 24.0165 43.4441 23.9364 43.696C23.8562 43.9479 23.7818 44.1597 23.7245 44.3315C23.6558 44.5319 23.5986 44.7036 23.5471 44.8468H23.0146L22.3047 42.8086H22.9116L22.9459 42.9116C23.0432 43.2151 23.1234 43.4899 23.1806 43.7361C23.2379 43.9823 23.278 44.1941 23.3009 44.3716C23.3352 44.2113 23.3868 44.0052 23.444 43.7647C23.5013 43.5185 23.5757 43.2208 23.6616 42.8716L23.6787 42.8086L24.2169 42.8143Z" fill="#737373"/>
<path d="M24.7913 43.9422C24.8142 44.28 24.9688 44.4518 25.2493 44.4518C25.3409 44.4518 25.4268 44.4346 25.5069 44.406C25.5871 44.3773 25.6787 44.3315 25.7703 44.2743L25.9707 44.6579C25.8733 44.7438 25.7588 44.8067 25.6272 44.8468C25.5012 44.8869 25.3638 44.9098 25.2149 44.9098C25.0718 44.9098 24.9459 44.8869 24.8199 44.8468C24.6997 44.8067 24.5909 44.738 24.505 44.6522C24.4134 44.5663 24.3447 44.4518 24.2932 44.3144C24.2417 44.177 24.2188 44.0167 24.2188 43.8277C24.2188 43.7075 24.2359 43.5873 24.2646 43.4613C24.2989 43.3353 24.3504 43.2208 24.4191 43.1178C24.4878 43.0147 24.5852 42.9289 24.7054 42.8659C24.8199 42.7972 24.9688 42.7686 25.1405 42.7686C25.2951 42.7686 25.4268 42.7972 25.5355 42.8602C25.6386 42.9174 25.7245 42.9976 25.7875 43.0892C25.8504 43.1808 25.8962 43.2838 25.9191 43.3926C25.9478 43.5071 25.9592 43.6159 25.9592 43.7189C25.9592 43.7647 25.9592 43.8048 25.9535 43.8449C25.9535 43.885 25.9478 43.925 25.942 43.9537H24.7913V43.9422ZM25.152 43.1808C25.0432 43.1808 24.963 43.2208 24.9058 43.2953C24.8485 43.3697 24.8142 43.4785 24.797 43.6159H25.4497C25.4497 43.6044 25.4554 43.593 25.4554 43.5815C25.4554 43.5701 25.4554 43.5586 25.4554 43.5529C25.4554 43.4384 25.4268 43.3468 25.3638 43.2838C25.3008 43.2094 25.2321 43.1808 25.152 43.1808Z" fill="#737373"/>
<path d="M27.3622 43.2616C27.2935 43.2273 27.2077 43.2101 27.1218 43.2101C27.0531 43.2101 26.9958 43.2216 26.9386 43.2502C26.8813 43.2788 26.8241 43.3132 26.7783 43.3532V44.8475H26.2344V42.8151H26.6237L26.7325 42.9925C26.7611 42.9639 26.7897 42.9353 26.8241 42.9067C26.8584 42.878 26.8928 42.8551 26.9386 42.8322C26.9787 42.8093 27.0302 42.7922 27.0817 42.7807C27.139 42.7693 27.2019 42.7578 27.2706 42.7578C27.3107 42.7578 27.3508 42.7635 27.3966 42.7693C27.4424 42.7807 27.4882 42.7922 27.534 42.8151L27.3622 43.2616Z" fill="#737373"/>
<path d="M28.2829 42.282C28.2829 42.3678 28.2543 42.4423 28.2028 42.4995C28.1512 42.5568 28.0768 42.5854 27.9852 42.5854C27.8936 42.5854 27.8192 42.5568 27.7677 42.4995C27.7104 42.4423 27.6875 42.3678 27.6875 42.282C27.6875 42.1903 27.7161 42.1216 27.7677 42.0644C27.8249 42.0071 27.8936 41.9785 27.9852 41.9785C28.0768 41.9785 28.1512 42.0071 28.2028 42.0644C28.2543 42.1216 28.2829 42.1903 28.2829 42.282ZM28.2543 42.8144V44.8468H27.7104V42.8144H28.2543Z" fill="#737373"/>
<path d="M29.9558 43.2036H29.4463V44.8524H28.9024V43.2036H28.5703V42.8143H28.9024V42.654C28.9024 42.5223 28.931 42.4135 28.9825 42.3219C29.0341 42.236 29.097 42.1616 29.1772 42.1158C29.2573 42.0643 29.3432 42.0299 29.4348 42.007C29.5264 41.9841 29.618 41.9727 29.7039 41.9727C29.7955 41.9727 29.8757 41.9841 29.9501 42.0013C30.0245 42.0185 30.0932 42.0414 30.1562 42.07L30.0531 42.4364C30.0131 42.4192 29.9673 42.4021 29.9215 42.3906C29.8757 42.3791 29.8241 42.3734 29.7669 42.3734C29.6581 42.3734 29.5779 42.402 29.5207 42.4593C29.4692 42.5166 29.4405 42.6024 29.4405 42.7055V42.8143H29.9558V43.2036Z" fill="#737373"/>
<path d="M30.0583 42.8143H30.6652L30.6996 42.9174C30.7969 43.2208 30.877 43.5013 30.9286 43.7418C30.9858 43.988 31.0259 44.1941 31.0545 44.3601C31.0889 44.2055 31.1347 44.0109 31.1919 43.7704C31.2492 43.53 31.3236 43.2323 31.4095 42.8716L31.4267 42.8086H31.9648C31.856 43.1464 31.7587 43.4555 31.6671 43.7418C31.5755 44.0281 31.4954 44.2743 31.4209 44.4804C31.335 44.7265 31.2606 44.9498 31.1919 45.1502C31.1576 45.2533 31.1175 45.3391 31.0602 45.4021C31.003 45.4708 30.9457 45.5223 30.877 45.5567C30.8083 45.5968 30.7396 45.6197 30.6652 45.6368C30.5908 45.6483 30.5163 45.6598 30.4476 45.6598C30.3503 45.6598 30.2702 45.654 30.2072 45.6368C30.1442 45.6254 30.087 45.6082 30.0469 45.591L30.0984 45.2075C30.1499 45.2304 30.1957 45.2418 30.2358 45.2533C30.2759 45.2647 30.316 45.2647 30.356 45.2647C30.4534 45.2647 30.5278 45.2533 30.585 45.2246C30.6423 45.196 30.6824 45.1617 30.7053 45.1159C30.7339 45.0701 30.7511 45.0243 30.7568 44.9784C30.7625 44.9326 30.7683 44.8868 30.7683 44.841L30.0583 42.8143Z" fill="#737373"/>
<path d="M22.2656 45.4194V45.2305H31.947V45.4194H22.2656Z" fill="#737373"/>
<path d="M27.0026 0.0412408C27.1057 0.00116423 27.2259 -0.0217367 27.3347 0.0297903C29.4129 0.796969 31.4969 1.5298 33.5752 2.28553C38.2985 4.00882 43.0332 5.70921 47.7623 7.42677C49.7031 8.12525 51.6382 8.82373 53.5734 9.5222C53.6592 9.61953 53.6306 9.76266 53.6535 9.88289C53.8768 12.2589 53.9226 14.6577 53.7337 17.0394C53.4818 20.4631 52.7833 23.8524 51.7356 27.1215C50.0466 32.4116 47.413 37.3983 43.9779 41.7609C43.142 42.8601 42.2202 43.8907 41.2813 44.904C37.7202 48.6941 33.495 51.8888 28.8003 54.1674C28.2736 54.4079 27.7641 54.6942 27.2202 54.8831C26.5446 54.6655 25.9148 54.322 25.2736 54.0186C20.8251 51.8144 16.8003 48.78 13.3709 45.196C12.993 44.8239 12.6495 44.4289 12.3003 44.0338C11.556 43.2323 10.8747 42.3678 10.1991 41.509C5.67046 35.675 2.55594 28.7532 1.20479 21.4936C0.958601 20.2455 0.821196 18.986 0.672341 17.7264C0.431881 15.0413 0.437607 12.3276 0.723868 9.64816C0.718142 9.56228 0.79257 9.52793 0.855548 9.4993C3.74106 8.44014 6.63229 7.41532 9.52353 6.37333C13.8461 4.7989 18.1743 3.25309 22.4969 1.67293C23.9969 1.12903 25.5026 0.590862 27.0026 0.0412408ZM26.8595 2.01644C23.3728 3.28744 19.8747 4.53554 16.3823 5.80081C13.806 6.73975 11.2239 7.67296 8.63612 8.60044C6.59222 9.34472 4.54831 10.089 2.50441 10.8218C2.30403 12.8486 2.3441 14.8925 2.48723 16.9192C2.92808 22.5929 4.57121 28.1521 7.13611 33.2246C9.04261 36.9746 11.4529 40.4785 14.3327 43.5414C15.1285 44.4231 15.9758 45.259 16.869 46.0491C18.1686 47.2628 19.577 48.3621 21.0255 49.3926C22.3938 50.3487 23.8137 51.2361 25.2965 51.9976C25.8748 52.3239 26.4931 52.5816 27.0828 52.8907C27.266 52.948 27.4377 52.8048 27.6038 52.7361C32.5618 50.3888 36.9988 46.9766 40.6458 42.883C44.476 38.5949 47.4703 33.5624 49.4226 28.1578C50.6592 24.757 51.4837 21.2016 51.8214 17.6005C52.0218 15.3447 52.039 13.0776 51.8787 10.8218C47.9741 9.3848 44.0523 7.99929 40.1477 6.56799C35.8595 5.01645 31.5656 3.47637 27.2832 1.91339C27.1343 1.86186 26.9912 1.97636 26.8595 2.01644Z" fill="#4E4E4E"/>
<path d="M26.8179 2.6923C26.9839 2.63505 27.1557 2.50337 27.3389 2.59498C31.7645 4.20949 36.1958 5.81827 40.6329 7.40988C44.0451 8.65798 47.4745 9.87745 50.8924 11.1198C51.0127 11.1656 51.1329 11.2 51.2531 11.2286C51.3047 11.4404 51.2932 11.658 51.3047 11.8698C51.5508 16.284 51.0012 20.7325 49.7817 24.9806C48.8714 28.2096 47.5775 31.3241 45.9688 34.2669C44.6462 36.7001 43.0775 39.0016 41.3199 41.1371C39.5622 43.2956 37.5641 45.2593 35.4229 47.0341C33.5221 48.5799 31.4897 49.9712 29.337 51.1448C28.6958 51.5112 28.0259 51.8261 27.3675 52.1639C27.2931 52.1983 27.2072 52.2441 27.1271 52.204C24.4362 50.9387 21.8999 49.3586 19.5698 47.515C18.7625 46.9024 18.0011 46.2269 17.2511 45.5398C14.3541 42.9005 11.8465 39.849 9.75103 36.5398C7.1117 32.3604 5.17085 27.7344 4.05444 22.9195C3.31588 19.7477 2.95519 16.4901 3.0239 13.2382C3.0239 12.5798 3.06397 11.9214 3.08115 11.263C6.3388 10.0721 9.6079 8.90417 12.8713 7.72477C15.9343 6.60835 18.9915 5.50339 22.0545 4.39842C23.6519 3.8488 25.2263 3.24765 26.8179 2.6923ZM26.9381 3.41941C24.1786 4.41559 21.4133 5.40033 18.6537 6.40225C15.8942 7.41561 13.1232 8.40035 10.3579 9.40226C8.18232 10.1809 6.01818 10.9996 3.83115 11.7553C3.7968 11.9672 3.79107 12.1847 3.78535 12.3965C3.61359 16.8279 4.23192 21.2821 5.51437 25.5245C6.03536 27.2592 6.68231 28.9596 7.40369 30.6199C9.21286 34.6562 11.6003 38.4406 14.5373 41.7612C18.0526 45.7517 22.3236 49.1067 27.1156 51.4254C27.1843 51.4368 27.253 51.4311 27.316 51.4025C33.6824 48.3051 39.1099 43.4158 43.0947 37.5875C47.2054 31.5531 49.8562 24.4939 50.4802 17.2057C50.5203 16.4042 50.6062 15.6084 50.6062 14.8011C50.6234 13.7935 50.6119 12.7859 50.5661 11.784C50.4917 11.7324 50.4115 11.7095 50.3314 11.6752C49.5298 11.3946 48.7283 11.1026 47.9325 10.8049C43.3294 9.13317 38.7149 7.47859 34.1118 5.80682C31.8389 4.98812 29.566 4.17514 27.2931 3.34498C27.1671 3.282 27.0469 3.37933 26.9381 3.41941Z" fill="#4E4E4E"/>
<path d="M30.5519 31.8971V38.733H23.7389V31.8971H30.5519ZM31.5252 30.9238H22.7656V39.7063H31.5252V30.9238Z" fill="#737373"/>
<path d="M29.308 32.9443L26.2908 35.9558L24.9855 34.6505L24.2812 35.3547L25.5923 36.66L26.2679 37.3356L29.9836 33.6199L29.308 32.9443Z" fill="#737373"/>
<path d="M20.6744 8.24487C24.9225 8.24487 29.1649 8.24487 33.413 8.24487C33.4073 10.3747 33.4245 12.5044 33.4073 14.6399C29.6458 14.6285 25.8786 14.6399 22.1172 14.6342C22.1172 14.3938 22.1172 14.159 22.1229 13.9243C25.6496 13.9357 29.1764 13.9186 32.6974 13.93C32.7146 12.2697 32.6974 10.6094 32.7031 8.94907C28.9302 8.94907 25.1573 8.94907 21.3843 8.94907C21.3843 10.8441 21.3843 12.7392 21.3843 14.6342C21.1496 14.6342 20.9092 14.6342 20.6744 14.6342C20.6744 12.5044 20.6687 10.3747 20.6744 8.24487Z" fill="#3F3F3F"/>
<path d="M27.5394 10.1855C27.7456 9.90501 28.112 9.7905 28.4498 9.77905C29.6062 9.77905 30.7627 9.77905 31.9192 9.77905C31.7647 10.0252 31.57 10.2485 31.4154 10.4947C30.5223 10.5119 29.6349 10.489 28.7417 10.5062C28.5872 10.5062 28.3811 10.5577 28.3753 10.7466C28.3238 10.9642 28.57 11.0615 28.7475 11.0558C29.486 11.0672 30.2303 11.0558 30.9689 11.0615C31.2895 11.0844 31.633 11.1932 31.8162 11.4737C31.9937 11.7428 31.925 12.0806 31.925 12.3783C31.8505 12.8478 31.341 13.0653 30.9173 13.0825C29.7494 13.0825 28.5814 13.0825 27.4192 13.0825C27.4192 12.8363 27.4192 12.5959 27.4249 12.3497C28.4326 12.3554 29.4459 12.3497 30.4536 12.3554C30.5853 12.3497 30.7227 12.3611 30.8429 12.3039C31.0204 12.2294 31.0318 11.9375 30.8601 11.8516C30.7513 11.7886 30.6253 11.7886 30.5108 11.7829C29.8066 11.7829 29.1024 11.7886 28.3982 11.7829C27.9803 11.7714 27.4879 11.5481 27.4249 11.0901C27.4192 10.7924 27.3448 10.4489 27.5394 10.1855Z" fill="#3F3F3F"/>
<path d="M22.0781 9.78453C23.2461 9.7788 24.414 9.78453 25.5762 9.78453C25.9942 9.79598 26.4808 10.0135 26.5781 10.4601C26.5953 10.7693 26.5839 11.0842 26.5896 11.3933C26.5953 11.628 26.4579 11.8456 26.2633 11.9658C26.0228 12.1147 25.7365 12.1719 25.4617 12.1719C24.8377 12.1662 24.2194 12.1719 23.5953 12.1719C23.7671 11.9258 23.9388 11.6853 24.1106 11.4391C24.4827 11.4391 24.8606 11.4448 25.2327 11.4391C25.4045 11.4448 25.5934 11.3418 25.6163 11.1586C25.6392 10.9868 25.6507 10.775 25.519 10.6376C25.4102 10.5288 25.2499 10.5231 25.1125 10.5174C24.4197 10.5174 23.727 10.5174 23.0342 10.5174C23.04 11.3761 23.0285 12.2349 23.04 13.0937C22.7194 13.1109 22.3987 13.0994 22.0839 13.0994C22.0839 11.9887 22.0781 10.8838 22.0781 9.78453Z" fill="#3F3F3F"/>
<path d="M38.7656 21.4414C39.6015 22.1628 40.4317 22.8899 41.2618 23.6113C41.2618 22.9414 41.2618 22.2716 41.2618 21.6017C41.4393 21.6017 41.6168 21.6017 41.8 21.6017C41.8057 22.6666 41.8 23.7315 41.8057 24.7964C40.9584 24.0979 40.1454 23.3536 39.3038 22.6437C39.3038 23.3136 39.3038 23.9891 39.3038 24.659C39.1263 24.659 38.9431 24.659 38.7656 24.6533C38.7656 23.5769 38.7656 22.512 38.7656 21.4414Z" fill="#454545"/>
<path d="M7.6875 21.6076C8.40315 21.5962 9.12453 21.6076 9.84018 21.6019C10.218 21.5905 10.5902 21.8538 10.6932 22.2202C10.7734 22.4951 10.7333 22.8157 10.5558 23.0447C10.4013 23.2508 10.1551 23.3882 9.90316 23.3882C9.34209 23.3939 8.78674 23.3882 8.22567 23.3882C8.22567 23.8061 8.22567 24.2298 8.22567 24.6477C8.04819 24.6477 7.86498 24.6477 7.6875 24.6477C7.6875 23.6344 7.69323 22.621 7.6875 21.6076ZM8.22567 22.1458C8.22567 22.3806 8.22567 22.6153 8.22567 22.85C8.76384 22.85 9.30201 22.8557 9.84591 22.85C10.0864 22.8557 10.2696 22.5695 10.1551 22.3577C10.0921 22.2088 9.93179 22.1401 9.7772 22.1515C9.26193 22.1401 8.74094 22.1458 8.22567 22.1458Z" fill="#454545"/>
<path d="M12.4922 21.6016C13.2307 21.6016 13.9636 21.6016 14.7021 21.6016C15.1201 21.613 15.5037 21.968 15.5323 22.3916C15.5781 22.7466 15.3949 23.1187 15.08 23.2905C14.851 23.4279 14.5704 23.3878 14.3128 23.3936C14.7307 23.8172 15.1544 24.2294 15.5724 24.6531C15.3204 24.6531 15.0628 24.6531 14.8109 24.6531C14.2212 24.0691 13.6315 23.4794 13.0361 22.8955C13.0304 23.4794 13.0304 24.0634 13.0361 24.6474C12.8586 24.6531 12.6754 24.6531 12.4979 24.6531C12.4922 23.634 12.4979 22.6149 12.4922 21.6016ZM13.0304 22.1455C13.0304 22.3802 13.0304 22.6149 13.0304 22.8497C13.5743 22.8497 14.1124 22.8554 14.6563 22.8439C14.8166 22.8439 14.9483 22.7123 14.9769 22.5577C15.017 22.3573 14.851 22.1512 14.6449 22.1512C14.1067 22.134 13.5685 22.1512 13.0304 22.1455Z" fill="#454545"/>
<path d="M17.2812 21.584C18.2946 21.584 19.308 21.584 20.3213 21.584C20.3213 21.7672 20.3271 21.9561 20.3156 22.1393C19.4855 22.1279 18.6553 22.1393 17.8251 22.1336C17.8251 22.3683 17.8251 22.6031 17.8251 22.8435C18.6553 22.8435 19.4912 22.8435 20.3213 22.8435C20.3213 23.021 20.3213 23.1985 20.3213 23.3817C19.4855 23.3817 18.6553 23.3817 17.8251 23.3817C17.8251 23.6164 17.8309 23.8512 17.8194 24.0859C18.6553 24.0974 19.4855 24.0859 20.3213 24.0916C20.3213 24.2691 20.3213 24.4523 20.3213 24.6298C19.308 24.6298 18.2946 24.6298 17.2812 24.6298C17.2813 23.6164 17.2812 22.5973 17.2812 21.584Z" fill="#454545"/>
<path d="M22.1422 22.5631C22.0964 22.0994 22.4742 21.6357 22.9494 21.6185C23.4074 21.607 23.8712 21.6128 24.3292 21.6128C24.8044 21.607 25.2052 22.0422 25.1937 22.5116C25.0162 22.5116 24.8388 22.5116 24.6613 22.5116C24.6326 22.3456 24.5181 22.1681 24.3292 22.1681C23.9055 22.1624 23.4876 22.1681 23.0639 22.1624C22.8865 22.1452 22.7147 22.2826 22.6918 22.4544C22.6574 22.6433 22.812 22.8437 23.0067 22.8494C23.4475 22.8609 23.8884 22.8437 24.3235 22.8551C24.6441 22.8609 24.9533 23.0555 25.0907 23.3418C25.2853 23.7254 25.1708 24.2406 24.8101 24.4868C24.4666 24.733 24.0258 24.6299 23.6307 24.6529C23.2586 24.6357 22.8292 24.733 22.5086 24.4925C22.2624 24.3322 22.1365 24.0403 22.125 23.754C22.3025 23.754 22.48 23.754 22.6574 23.754C22.6918 23.9257 22.812 24.1032 23.001 24.1032C23.4189 24.109 23.8426 24.1032 24.2605 24.1032C24.4265 24.1147 24.5811 23.9887 24.6155 23.8284C24.6613 23.6395 24.5124 23.4277 24.3178 23.4162C23.8597 23.399 23.4017 23.4219 22.9494 23.4048C22.5258 23.3761 22.1479 22.9925 22.1422 22.5631Z" fill="#454545"/>
<path d="M26.9782 22.4428C26.984 22.0019 27.3733 21.6012 27.8198 21.6012C28.2607 21.5955 28.6958 21.6012 29.1366 21.6012C29.4859 21.5897 29.8237 21.813 29.9611 22.1336C30.0412 22.3054 30.0298 22.4943 30.0355 22.6775C29.858 22.6832 29.6748 22.6832 29.4973 22.6775C29.526 22.46 29.4515 22.1794 29.1996 22.1508C28.7817 22.1279 28.358 22.1451 27.9401 22.1451C27.734 22.1222 27.5393 22.2882 27.545 22.4943C27.5393 22.918 27.5393 23.3359 27.545 23.7596C27.545 23.9542 27.734 24.1203 27.9286 24.0974C28.3523 24.0916 28.776 24.1031 29.1939 24.0916C29.4458 24.063 29.5145 23.7768 29.4916 23.5707C29.6691 23.5707 29.8466 23.5707 30.0241 23.5707C30.0241 23.771 30.0241 23.9771 29.9267 24.1604C29.7836 24.4581 29.463 24.6527 29.1309 24.647C28.6901 24.647 28.255 24.6527 27.8141 24.6413C27.379 24.6355 26.984 24.252 26.9725 23.8168C26.9668 23.3588 26.9668 22.9008 26.9782 22.4428Z" fill="#454545"/>
<path d="M31.7266 21.6016C31.904 21.6016 32.0872 21.6016 32.2647 21.6016C32.259 22.6207 32.2705 23.6397 32.259 24.6531C32.0815 24.6474 31.904 24.6474 31.7266 24.6474C31.7266 23.634 31.7323 22.6149 31.7266 21.6016Z" fill="#454545"/>
<path d="M33.9667 21.5897C34.98 21.5783 35.9934 21.5897 37.0068 21.584C37.0068 21.7672 37.0068 21.9504 37.0068 22.1336C36.1766 22.1336 35.3407 22.1336 34.5106 22.1336C34.5106 22.3683 34.5106 22.6031 34.5106 22.8435C35.3464 22.8493 36.1766 22.8378 37.0125 22.8493C37.0125 23.0267 37.0125 23.2042 37.0068 23.3817C36.1766 23.376 35.3464 23.3817 34.5163 23.376C34.5106 23.6107 34.5106 23.8512 34.5106 24.0859C35.3407 24.0859 36.1709 24.0916 37.001 24.0859C37.0068 24.2634 37.0068 24.4409 37.0068 24.6183C35.9934 24.6298 34.9743 24.6355 33.9609 24.6126C33.9724 23.6107 33.9724 22.5973 33.9667 21.5897Z" fill="#454545"/>
<path d="M43.6762 21.6016C44.6781 21.6016 45.68 21.6016 46.6819 21.6016C46.6819 21.779 46.6819 21.9565 46.6819 22.1397C46.2754 22.1397 45.8747 22.1455 45.4682 22.134C45.451 22.9699 45.4682 23.8 45.4624 24.6359C45.285 24.6359 45.1017 24.6359 44.9243 24.6359C44.9243 23.8058 44.9243 22.9699 44.9243 22.1397C44.5063 22.1397 44.0884 22.1397 43.6762 22.1397C43.6704 21.9565 43.6704 21.779 43.6762 21.6016Z" fill="#454545"/>
<path d="M67.8676 7.07765V15.4417H66.7756V7.07765H67.8676ZM72.3807 15.5257C71.8287 15.5257 71.3327 15.4297 70.8927 15.2377C70.4607 15.0377 70.1207 14.7657 69.8727 14.4217C69.6247 14.0697 69.4967 13.6657 69.4887 13.2097H70.6527C70.6927 13.6017 70.8527 13.9337 71.1327 14.2057C71.4207 14.4697 71.8367 14.6017 72.3807 14.6017C72.9007 14.6017 73.3087 14.4737 73.6047 14.2177C73.9087 13.9537 74.0607 13.6177 74.0607 13.2097C74.0607 12.8897 73.9727 12.6297 73.7967 12.4297C73.6207 12.2297 73.4007 12.0777 73.1367 11.9737C72.8727 11.8697 72.5167 11.7577 72.0687 11.6377C71.5167 11.4937 71.0727 11.3497 70.7367 11.2057C70.4087 11.0617 70.1247 10.8377 69.8847 10.5337C69.6527 10.2217 69.5367 9.80565 69.5367 9.28565C69.5367 8.82965 69.6527 8.42565 69.8847 8.07365C70.1167 7.72165 70.4407 7.44965 70.8567 7.25765C71.2807 7.06565 71.7647 6.96965 72.3087 6.96965C73.0927 6.96965 73.7327 7.16565 74.2287 7.55765C74.7327 7.94965 75.0167 8.46965 75.0807 9.11765H73.8807C73.8407 8.79765 73.6727 8.51765 73.3767 8.27765C73.0807 8.02965 72.6887 7.90565 72.2007 7.90565C71.7447 7.90565 71.3727 8.02565 71.0847 8.26565C70.7967 8.49765 70.6527 8.82565 70.6527 9.24965C70.6527 9.55365 70.7367 9.80165 70.9047 9.99365C71.0807 10.1857 71.2927 10.3337 71.5407 10.4377C71.7967 10.5337 72.1527 10.6457 72.6087 10.7737C73.1607 10.9257 73.6047 11.0777 73.9407 11.2297C74.2767 11.3737 74.5647 11.6017 74.8047 11.9137C75.0447 12.2177 75.1647 12.6337 75.1647 13.1617C75.1647 13.5697 75.0567 13.9537 74.8407 14.3137C74.6247 14.6737 74.3047 14.9657 73.8807 15.1897C73.4567 15.4137 72.9567 15.5257 72.3807 15.5257ZM80.5637 15.5257C79.7877 15.5257 79.0797 15.3457 78.4397 14.9857C77.7997 14.6177 77.2917 14.1097 76.9157 13.4617C76.5477 12.8057 76.3637 12.0697 76.3637 11.2537C76.3637 10.4377 76.5477 9.70565 76.9157 9.05765C77.2917 8.40165 77.7997 7.89365 78.4397 7.53365C79.0797 7.16565 79.7877 6.98165 80.5637 6.98165C81.3477 6.98165 82.0597 7.16565 82.6997 7.53365C83.3397 7.89365 83.8437 8.39765 84.2117 9.04565C84.5797 9.69365 84.7637 10.4297 84.7637 11.2537C84.7637 12.0777 84.5797 12.8137 84.2117 13.4617C83.8437 14.1097 83.3397 14.6177 82.6997 14.9857C82.0597 15.3457 81.3477 15.5257 80.5637 15.5257ZM80.5637 14.5777C81.1477 14.5777 81.6717 14.4417 82.1357 14.1697C82.6077 13.8977 82.9757 13.5097 83.2397 13.0057C83.5117 12.5017 83.6477 11.9177 83.6477 11.2537C83.6477 10.5817 83.5117 9.99765 83.2397 9.50165C82.9757 8.99765 82.6117 8.60965 82.1477 8.33765C81.6837 8.06565 81.1557 7.92965 80.5637 7.92965C79.9717 7.92965 79.4437 8.06565 78.9797 8.33765C78.5157 8.60965 78.1477 8.99765 77.8757 9.50165C77.6117 9.99765 77.4797 10.5817 77.4797 11.2537C77.4797 11.9177 77.6117 12.5017 77.8757 13.0057C78.1477 13.5097 78.5157 13.8977 78.9797 14.1697C79.4517 14.4417 79.9797 14.5777 80.5637 14.5777ZM89.0925 14.5657C90.1085 13.7497 90.9045 13.0817 91.4805 12.5617C92.0565 12.0337 92.5405 11.4857 92.9325 10.9177C93.3325 10.3417 93.5325 9.77765 93.5325 9.22565C93.5325 8.70565 93.4045 8.29765 93.1485 8.00165C92.9005 7.69765 92.4965 7.54565 91.9365 7.54565C91.3925 7.54565 90.9685 7.71765 90.6645 8.06165C90.3685 8.39765 90.2085 8.84965 90.1845 9.41765H89.1285C89.1605 8.52165 89.4325 7.82965 89.9445 7.34165C90.4565 6.85365 91.1165 6.60965 91.9245 6.60965C92.7485 6.60965 93.4005 6.83765 93.8805 7.29365C94.3685 7.74965 94.6125 8.37765 94.6125 9.17765C94.6125 9.84165 94.4125 10.4897 94.0125 11.1217C93.6205 11.7457 93.1725 12.2977 92.6685 12.7777C92.1645 13.2497 91.5205 13.8017 90.7365 14.4337H94.8645V15.3457H89.0925V14.5657ZM101.467 7.61765L98.1308 15.4417H97.0268L100.411 7.72565H95.7788V6.78965H101.467V7.61765ZM102.678 11.0137C102.678 9.63765 102.902 8.56565 103.35 7.79765C103.798 7.02165 104.582 6.63365 105.702 6.63365C106.814 6.63365 107.594 7.02165 108.042 7.79765C108.49 8.56565 108.714 9.63765 108.714 11.0137C108.714 12.4137 108.49 13.5017 108.042 14.2777C107.594 15.0537 106.814 15.4417 105.702 15.4417C104.582 15.4417 103.798 15.0537 103.35 14.2777C102.902 13.5017 102.678 12.4137 102.678 11.0137ZM107.634 11.0137C107.634 10.3177 107.586 9.72965 107.49 9.24965C107.402 8.76165 107.214 8.36965 106.926 8.07365C106.646 7.77765 106.238 7.62965 105.702 7.62965C105.158 7.62965 104.742 7.77765 104.454 8.07365C104.174 8.36965 103.986 8.76165 103.89 9.24965C103.802 9.72965 103.758 10.3177 103.758 11.0137C103.758 11.7337 103.802 12.3377 103.89 12.8257C103.986 13.3137 104.174 13.7057 104.454 14.0017C104.742 14.2977 105.158 14.4457 105.702 14.4457C106.238 14.4457 106.646 14.2977 106.926 14.0017C107.214 13.7057 107.402 13.3137 107.49 12.8257C107.586 12.3377 107.634 11.7337 107.634 11.0137ZM110.213 11.0137C110.213 9.63765 110.437 8.56565 110.885 7.79765C111.333 7.02165 112.117 6.63365 113.237 6.63365C114.349 6.63365 115.129 7.02165 115.577 7.79765C116.025 8.56565 116.249 9.63765 116.249 11.0137C116.249 12.4137 116.025 13.5017 115.577 14.2777C115.129 15.0537 114.349 15.4417 113.237 15.4417C112.117 15.4417 111.333 15.0537 110.885 14.2777C110.437 13.5017 110.213 12.4137 110.213 11.0137ZM115.169 11.0137C115.169 10.3177 115.121 9.72965 115.025 9.24965C114.937 8.76165 114.749 8.36965 114.461 8.07365C114.181 7.77765 113.773 7.62965 113.237 7.62965C112.693 7.62965 112.277 7.77765 111.989 8.07365C111.709 8.36965 111.521 8.76165 111.425 9.24965C111.337 9.72965 111.293 10.3177 111.293 11.0137C111.293 11.7337 111.337 12.3377 111.425 12.8257C111.521 13.3137 111.709 13.7057 111.989 14.0017C112.277 14.2977 112.693 14.4457 113.237 14.4457C113.773 14.4457 114.181 14.2977 114.461 14.0017C114.749 13.7057 114.937 13.3137 115.025 12.8257C115.121 12.3377 115.169 11.7337 115.169 11.0137ZM117.46 7.76165V6.76565H119.716V15.4417H118.612V7.76165H117.46ZM124.563 11.2537C124.563 10.4377 124.747 9.70565 125.115 9.05765C125.483 8.40165 125.983 7.88965 126.615 7.52165C127.255 7.15365 127.963 6.96965 128.739 6.96965C129.651 6.96965 130.447 7.18965 131.127 7.62965C131.807 8.06965 132.303 8.69365 132.615 9.50165H131.307C131.075 8.99765 130.739 8.60965 130.299 8.33765C129.867 8.06565 129.347 7.92965 128.739 7.92965C128.155 7.92965 127.631 8.06565 127.167 8.33765C126.703 8.60965 126.339 8.99765 126.075 9.50165C125.811 9.99765 125.679 10.5817 125.679 11.2537C125.679 11.9177 125.811 12.5017 126.075 13.0057C126.339 13.5017 126.703 13.8857 127.167 14.1577C127.631 14.4297 128.155 14.5657 128.739 14.5657C129.347 14.5657 129.867 14.4337 130.299 14.1697C130.739 13.8977 131.075 13.5097 131.307 13.0057H132.615C132.303 13.8057 131.807 14.4257 131.127 14.8657C130.447 15.2977 129.651 15.5137 128.739 15.5137C127.963 15.5137 127.255 15.3337 126.615 14.9737C125.983 14.6057 125.483 14.0977 125.115 13.4497C124.747 12.8017 124.563 12.0697 124.563 11.2537ZM140.24 11.9017C140.24 12.1097 140.228 12.3297 140.204 12.5617H134.948C134.988 13.2097 135.208 13.7177 135.608 14.0857C136.016 14.4457 136.508 14.6257 137.084 14.6257C137.556 14.6257 137.948 14.5177 138.26 14.3017C138.58 14.0777 138.804 13.7817 138.932 13.4137H140.108C139.932 14.0457 139.58 14.5617 139.052 14.9617C138.524 15.3537 137.868 15.5497 137.084 15.5497C136.46 15.5497 135.9 15.4097 135.404 15.1297C134.916 14.8497 134.532 14.4537 134.252 13.9417C133.972 13.4217 133.832 12.8217 133.832 12.1417C133.832 11.4617 133.968 10.8657 134.24 10.3537C134.512 9.84165 134.892 9.44965 135.38 9.17765C135.876 8.89765 136.444 8.75765 137.084 8.75765C137.708 8.75765 138.26 8.89365 138.74 9.16565C139.22 9.43765 139.588 9.81365 139.844 10.2937C140.108 10.7657 140.24 11.3017 140.24 11.9017ZM139.112 11.6737C139.112 11.2577 139.02 10.9017 138.836 10.6057C138.652 10.3017 138.4 10.0737 138.08 9.92165C137.768 9.76165 137.42 9.68165 137.036 9.68165C136.484 9.68165 136.012 9.85765 135.62 10.2097C135.236 10.5617 135.016 11.0497 134.96 11.6737H139.112ZM142.774 9.93365C142.966 9.55765 143.238 9.26565 143.59 9.05765C143.95 8.84965 144.386 8.74565 144.898 8.74565V9.87365H144.61C143.386 9.87365 142.774 10.5377 142.774 11.8657V15.4417H141.682V8.86565H142.774V9.93365ZM147.49 9.76565V13.6417C147.49 13.9617 147.558 14.1897 147.694 14.3257C147.83 14.4537 148.066 14.5177 148.402 14.5177H149.206V15.4417H148.222C147.614 15.4417 147.158 15.3017 146.854 15.0217C146.55 14.7417 146.398 14.2817 146.398 13.6417V9.76565H145.546V8.86565H146.398V7.20965H147.49V8.86565H149.206V9.76565H147.49ZM151.093 7.79765C150.885 7.79765 150.709 7.72565 150.565 7.58165C150.421 7.43765 150.349 7.26165 150.349 7.05365C150.349 6.84565 150.421 6.66965 150.565 6.52565C150.709 6.38165 150.885 6.30965 151.093 6.30965C151.293 6.30965 151.461 6.38165 151.597 6.52565C151.741 6.66965 151.813 6.84565 151.813 7.05365C151.813 7.26165 151.741 7.43765 151.597 7.58165C151.461 7.72565 151.293 7.79765 151.093 7.79765ZM151.621 8.86565V15.4417H150.529V8.86565H151.621ZM156.159 9.76565H154.779V15.4417H153.687V9.76565H152.835V8.86565H153.687V8.39765C153.687 7.66165 153.875 7.12565 154.251 6.78965C154.635 6.44565 155.247 6.27365 156.087 6.27365V7.18565C155.607 7.18565 155.267 7.28165 155.067 7.47365C154.875 7.65765 154.779 7.96565 154.779 8.39765V8.86565H156.159V9.76565ZM157.996 7.79765C157.788 7.79765 157.612 7.72565 157.468 7.58165C157.324 7.43765 157.252 7.26165 157.252 7.05365C157.252 6.84565 157.324 6.66965 157.468 6.52565C157.612 6.38165 157.788 6.30965 157.996 6.30965C158.196 6.30965 158.364 6.38165 158.5 6.52565C158.644 6.66965 158.716 6.84565 158.716 7.05365C158.716 7.26165 158.644 7.43765 158.5 7.58165C158.364 7.72565 158.196 7.79765 157.996 7.79765ZM158.524 8.86565V15.4417H157.432V8.86565H158.524ZM166.385 11.9017C166.385 12.1097 166.373 12.3297 166.349 12.5617H161.093C161.133 13.2097 161.353 13.7177 161.753 14.0857C162.161 14.4457 162.653 14.6257 163.229 14.6257C163.701 14.6257 164.093 14.5177 164.405 14.3017C164.725 14.0777 164.949 13.7817 165.077 13.4137H166.253C166.077 14.0457 165.725 14.5617 165.197 14.9617C164.669 15.3537 164.013 15.5497 163.229 15.5497C162.605 15.5497 162.045 15.4097 161.549 15.1297C161.061 14.8497 160.677 14.4537 160.397 13.9417C160.117 13.4217 159.977 12.8217 159.977 12.1417C159.977 11.4617 160.113 10.8657 160.385 10.3537C160.657 9.84165 161.037 9.44965 161.525 9.17765C162.021 8.89765 162.589 8.75765 163.229 8.75765C163.853 8.75765 164.405 8.89365 164.885 9.16565C165.365 9.43765 165.733 9.81365 165.989 10.2937C166.253 10.7657 166.385 11.3017 166.385 11.9017ZM165.257 11.6737C165.257 11.2577 165.165 10.9017 164.981 10.6057C164.797 10.3017 164.545 10.0737 164.225 9.92165C163.913 9.76165 163.565 9.68165 163.181 9.68165C162.629 9.68165 162.157 9.85765 161.765 10.2097C161.381 10.5617 161.161 11.0497 161.105 11.6737H165.257ZM167.418 12.1297C167.418 11.4577 167.554 10.8697 167.826 10.3657C168.098 9.85365 168.47 9.45765 168.942 9.17765C169.422 8.89765 169.958 8.75765 170.55 8.75765C171.062 8.75765 171.538 8.87765 171.978 9.11765C172.418 9.34965 172.754 9.65765 172.986 10.0417V6.56165H174.09V15.4417H172.986V14.2057C172.77 14.5977 172.45 14.9217 172.026 15.1777C171.602 15.4257 171.106 15.5497 170.538 15.5497C169.954 15.5497 169.422 15.4057 168.942 15.1177C168.47 14.8297 168.098 14.4257 167.826 13.9057C167.554 13.3857 167.418 12.7937 167.418 12.1297ZM172.986 12.1417C172.986 11.6457 172.886 11.2137 172.686 10.8457C172.486 10.4777 172.214 10.1977 171.87 10.0057C171.534 9.80565 171.162 9.70565 170.754 9.70565C170.346 9.70565 169.974 9.80165 169.638 9.99365C169.302 10.1857 169.034 10.4657 168.834 10.8337C168.634 11.2017 168.534 11.6337 168.534 12.1297C168.534 12.6337 168.634 13.0737 168.834 13.4497C169.034 13.8177 169.302 14.1017 169.638 14.3017C169.974 14.4937 170.346 14.5897 170.754 14.5897C171.162 14.5897 171.534 14.4937 171.87 14.3017C172.214 14.1017 172.486 13.8177 172.686 13.4497C172.886 13.0737 172.986 12.6377 172.986 12.1417ZM67.8676 23.0777V31.4417H66.7756V23.0777H67.8676ZM72.9327 24.7457C73.7327 24.7457 74.3807 24.9897 74.8767 25.4777C75.3727 25.9577 75.6207 26.6537 75.6207 27.5657V31.4417H74.5407V27.7217C74.5407 27.0657 74.3767 26.5657 74.0487 26.2217C73.7207 25.8697 73.2727 25.6937 72.7047 25.6937C72.1287 25.6937 71.6687 25.8737 71.3247 26.2337C70.9887 26.5937 70.8207 27.1177 70.8207 27.8057V31.4417H69.7287V24.8656H70.8207V25.8017C71.0367 25.4657 71.3287 25.2057 71.6967 25.0217C72.0727 24.8377 72.4847 24.7457 72.9327 24.7457ZM80.0805 25.7657H78.7005V31.4417H77.6085V25.7657H76.7565V24.8656H77.6085V24.3977C77.6085 23.6617 77.7965 23.1257 78.1725 22.7897C78.5565 22.4456 79.1685 22.2736 80.0085 22.2736V23.1857C79.5285 23.1857 79.1885 23.2817 78.9885 23.4736C78.7965 23.6576 78.7005 23.9657 78.7005 24.3977V24.8656H80.0805V25.7657ZM84.2217 31.5497C83.6057 31.5497 83.0457 31.4097 82.5417 31.1297C82.0457 30.8497 81.6537 30.4537 81.3657 29.9417C81.0857 29.4217 80.9457 28.8217 80.9457 28.1417C80.9457 27.4697 81.0897 26.8777 81.3777 26.3657C81.6737 25.8457 82.0737 25.4497 82.5777 25.1777C83.0817 24.8977 83.6457 24.7576 84.2697 24.7576C84.8937 24.7576 85.4577 24.8977 85.9617 25.1777C86.4657 25.4497 86.8617 25.8417 87.1497 26.3537C87.4457 26.8657 87.5937 27.4617 87.5937 28.1417C87.5937 28.8217 87.4417 29.4217 87.1377 29.9417C86.8417 30.4537 86.4377 30.8497 85.9257 31.1297C85.4137 31.4097 84.8457 31.5497 84.2217 31.5497ZM84.2217 30.5897C84.6137 30.5897 84.9817 30.4977 85.3257 30.3137C85.6697 30.1297 85.9457 29.8537 86.1537 29.4857C86.3697 29.1177 86.4777 28.6697 86.4777 28.1417C86.4777 27.6137 86.3737 27.1657 86.1657 26.7977C85.9577 26.4297 85.6857 26.1577 85.3497 25.9817C85.0137 25.7977 84.6497 25.7057 84.2577 25.7057C83.8577 25.7057 83.4897 25.7977 83.1537 25.9817C82.8257 26.1577 82.5617 26.4297 82.3617 26.7977C82.1617 27.1657 82.0617 27.6137 82.0617 28.1417C82.0617 28.6777 82.1577 29.1297 82.3497 29.4977C82.5497 29.8657 82.8137 30.1417 83.1417 30.3257C83.4697 30.5017 83.8297 30.5897 84.2217 30.5897ZM90.1215 25.9337C90.3135 25.5576 90.5855 25.2657 90.9375 25.0577C91.2975 24.8497 91.7335 24.7457 92.2455 24.7457V25.8737H91.9575C90.7335 25.8737 90.1215 26.5377 90.1215 27.8657V31.4417H89.0295V24.8656H90.1215V25.9337ZM101.414 24.7457C101.926 24.7457 102.382 24.8537 102.782 25.0697C103.182 25.2777 103.498 25.5937 103.73 26.0177C103.962 26.4417 104.078 26.9577 104.078 27.5657V31.4417H102.998V27.7217C102.998 27.0657 102.834 26.5657 102.506 26.2217C102.186 25.8697 101.75 25.6937 101.198 25.6937C100.63 25.6937 100.178 25.8777 99.842 26.2457C99.506 26.6057 99.338 27.1297 99.338 27.8177V31.4417H98.258V27.7217C98.258 27.0657 98.094 26.5657 97.766 26.2217C97.446 25.8697 97.01 25.6937 96.458 25.6937C95.89 25.6937 95.438 25.8777 95.102 26.2457C94.766 26.6057 94.598 27.1297 94.598 27.8177V31.4417H93.506V24.8656H94.598V25.8137C94.814 25.4697 95.102 25.2057 95.462 25.0217C95.83 24.8377 96.234 24.7457 96.674 24.7457C97.226 24.7457 97.714 24.8697 98.138 25.1177C98.562 25.3657 98.878 25.7297 99.086 26.2097C99.27 25.7457 99.574 25.3857 99.998 25.1297C100.422 24.8737 100.894 24.7457 101.414 24.7457ZM105.461 28.1297C105.461 27.4577 105.597 26.8697 105.869 26.3657C106.141 25.8537 106.513 25.4577 106.985 25.1777C107.465 24.8977 107.997 24.7576 108.581 24.7576C109.157 24.7576 109.657 24.8816 110.081 25.1297C110.505 25.3777 110.821 25.6897 111.029 26.0657V24.8656H112.133V31.4417H111.029V30.2177C110.813 30.6017 110.489 30.9217 110.057 31.1777C109.633 31.4257 109.137 31.5497 108.569 31.5497C107.985 31.5497 107.457 31.4057 106.985 31.1177C106.513 30.8297 106.141 30.4257 105.869 29.9057C105.597 29.3857 105.461 28.7937 105.461 28.1297ZM111.029 28.1417C111.029 27.6457 110.929 27.2137 110.729 26.8457C110.529 26.4777 110.257 26.1977 109.913 26.0057C109.577 25.8057 109.205 25.7057 108.797 25.7057C108.389 25.7057 108.017 25.8017 107.681 25.9937C107.345 26.1857 107.077 26.4657 106.877 26.8337C106.677 27.2017 106.577 27.6337 106.577 28.1297C106.577 28.6337 106.677 29.0737 106.877 29.4497C107.077 29.8177 107.345 30.1017 107.681 30.3017C108.017 30.4937 108.389 30.5897 108.797 30.5897C109.205 30.5897 109.577 30.4937 109.913 30.3017C110.257 30.1017 110.529 29.8177 110.729 29.4497C110.929 29.0737 111.029 28.6377 111.029 28.1417ZM115.311 25.7657V29.6417C115.311 29.9617 115.379 30.1897 115.515 30.3257C115.651 30.4537 115.887 30.5177 116.223 30.5177H117.027V31.4417H116.043C115.435 31.4417 114.979 31.3017 114.675 31.0217C114.371 30.7417 114.219 30.2817 114.219 29.6417V25.7657H113.367V24.8656H114.219V23.2096H115.311V24.8656H117.027V25.7657H115.311ZM118.914 23.7977C118.706 23.7977 118.53 23.7257 118.386 23.5817C118.242 23.4376 118.17 23.2616 118.17 23.0536C118.17 22.8456 118.242 22.6697 118.386 22.5257C118.53 22.3816 118.706 22.3096 118.914 22.3096C119.114 22.3096 119.282 22.3816 119.418 22.5257C119.562 22.6697 119.634 22.8456 119.634 23.0536C119.634 23.2616 119.562 23.4376 119.418 23.5817C119.282 23.7257 119.114 23.7977 118.914 23.7977ZM119.442 24.8656V31.4417H118.35V24.8656H119.442ZM124.171 31.5497C123.555 31.5497 122.995 31.4097 122.491 31.1297C121.995 30.8497 121.603 30.4537 121.315 29.9417C121.035 29.4217 120.895 28.8217 120.895 28.1417C120.895 27.4697 121.039 26.8777 121.327 26.3657C121.623 25.8457 122.023 25.4497 122.527 25.1777C123.031 24.8977 123.595 24.7576 124.219 24.7576C124.843 24.7576 125.407 24.8977 125.911 25.1777C126.415 25.4497 126.811 25.8417 127.099 26.3537C127.395 26.8657 127.543 27.4617 127.543 28.1417C127.543 28.8217 127.391 29.4217 127.087 29.9417C126.791 30.4537 126.387 30.8497 125.875 31.1297C125.363 31.4097 124.795 31.5497 124.171 31.5497ZM124.171 30.5897C124.563 30.5897 124.931 30.4977 125.275 30.3137C125.619 30.1297 125.895 29.8537 126.103 29.4857C126.319 29.1177 126.427 28.6697 126.427 28.1417C126.427 27.6137 126.323 27.1657 126.115 26.7977C125.907 26.4297 125.635 26.1577 125.299 25.9817C124.963 25.7977 124.599 25.7057 124.207 25.7057C123.807 25.7057 123.439 25.7977 123.103 25.9817C122.775 26.1577 122.511 26.4297 122.311 26.7977C122.111 27.1657 122.011 27.6137 122.011 28.1417C122.011 28.6777 122.107 29.1297 122.299 29.4977C122.499 29.8657 122.763 30.1417 123.091 30.3257C123.419 30.5017 123.779 30.5897 124.171 30.5897ZM132.183 24.7457C132.983 24.7457 133.631 24.9897 134.127 25.4777C134.623 25.9577 134.871 26.6537 134.871 27.5657V31.4417H133.791V27.7217C133.791 27.0657 133.627 26.5657 133.299 26.2217C132.971 25.8697 132.523 25.6937 131.955 25.6937C131.379 25.6937 130.919 25.8737 130.575 26.2337C130.239 26.5937 130.071 27.1177 130.071 27.8057V31.4417H128.979V24.8656H130.071V25.8017C130.287 25.4657 130.579 25.2057 130.947 25.0217C131.323 24.8377 131.735 24.7457 132.183 24.7457ZM142.506 31.5257C141.954 31.5257 141.458 31.4297 141.018 31.2377C140.586 31.0377 140.246 30.7657 139.998 30.4217C139.75 30.0697 139.622 29.6657 139.614 29.2097H140.778C140.818 29.6017 140.978 29.9337 141.258 30.2057C141.546 30.4697 141.962 30.6017 142.506 30.6017C143.026 30.6017 143.434 30.4737 143.73 30.2177C144.034 29.9537 144.186 29.6177 144.186 29.2097C144.186 28.8897 144.098 28.6297 143.922 28.4297C143.746 28.2297 143.526 28.0777 143.262 27.9737C142.998 27.8697 142.642 27.7577 142.194 27.6377C141.642 27.4937 141.198 27.3497 140.862 27.2057C140.534 27.0617 140.25 26.8377 140.01 26.5337C139.778 26.2217 139.662 25.8057 139.662 25.2857C139.662 24.8296 139.778 24.4256 140.01 24.0737C140.242 23.7216 140.566 23.4496 140.982 23.2576C141.406 23.0656 141.89 22.9697 142.434 22.9697C143.218 22.9697 143.858 23.1657 144.354 23.5577C144.858 23.9497 145.142 24.4697 145.206 25.1177H144.006C143.966 24.7977 143.798 24.5177 143.502 24.2777C143.206 24.0297 142.814 23.9057 142.326 23.9057C141.87 23.9057 141.498 24.0257 141.21 24.2656C140.922 24.4977 140.778 24.8257 140.778 25.2497C140.778 25.5537 140.862 25.8017 141.03 25.9937C141.206 26.1857 141.418 26.3337 141.666 26.4377C141.922 26.5337 142.278 26.6457 142.734 26.7737C143.286 26.9257 143.73 27.0777 144.066 27.2297C144.402 27.3737 144.69 27.6017 144.93 27.9137C145.17 28.2177 145.29 28.6337 145.29 29.1617C145.29 29.5697 145.182 29.9537 144.966 30.3137C144.75 30.6737 144.43 30.9657 144.006 31.1897C143.582 31.4137 143.082 31.5257 142.506 31.5257ZM152.897 27.9017C152.897 28.1097 152.885 28.3297 152.861 28.5617H147.605C147.645 29.2097 147.865 29.7177 148.265 30.0857C148.673 30.4457 149.165 30.6257 149.741 30.6257C150.213 30.6257 150.605 30.5177 150.917 30.3017C151.237 30.0777 151.461 29.7817 151.589 29.4137H152.765C152.589 30.0457 152.237 30.5617 151.709 30.9617C151.181 31.3537 150.525 31.5497 149.741 31.5497C149.117 31.5497 148.557 31.4097 148.061 31.1297C147.573 30.8497 147.189 30.4537 146.909 29.9417C146.629 29.4217 146.489 28.8217 146.489 28.1417C146.489 27.4617 146.625 26.8657 146.897 26.3537C147.169 25.8417 147.549 25.4497 148.037 25.1777C148.533 24.8977 149.101 24.7576 149.741 24.7576C150.365 24.7576 150.917 24.8937 151.397 25.1657C151.877 25.4377 152.245 25.8137 152.501 26.2937C152.765 26.7657 152.897 27.3017 152.897 27.9017ZM151.769 27.6737C151.769 27.2577 151.677 26.9017 151.493 26.6057C151.309 26.3017 151.057 26.0737 150.737 25.9217C150.425 25.7617 150.077 25.6817 149.693 25.6817C149.141 25.6817 148.669 25.8577 148.277 26.2097C147.893 26.5617 147.673 27.0497 147.617 27.6737H151.769ZM153.93 28.1417C153.93 27.4617 154.066 26.8697 154.338 26.3657C154.61 25.8537 154.986 25.4577 155.466 25.1777C155.954 24.8977 156.51 24.7576 157.134 24.7576C157.942 24.7576 158.606 24.9536 159.126 25.3457C159.654 25.7377 160.002 26.2817 160.17 26.9777H158.994C158.882 26.5777 158.662 26.2617 158.334 26.0296C158.014 25.7977 157.614 25.6817 157.134 25.6817C156.51 25.6817 156.006 25.8977 155.622 26.3297C155.238 26.7537 155.046 27.3577 155.046 28.1417C155.046 28.9337 155.238 29.5457 155.622 29.9777C156.006 30.4097 156.51 30.6257 157.134 30.6257C157.614 30.6257 158.014 30.5137 158.334 30.2897C158.654 30.0657 158.874 29.7457 158.994 29.3297H160.17C159.994 30.0017 159.642 30.5417 159.114 30.9497C158.586 31.3497 157.926 31.5497 157.134 31.5497C156.51 31.5497 155.954 31.4097 155.466 31.1297C154.986 30.8497 154.61 30.4537 154.338 29.9417C154.066 29.4297 153.93 28.8297 153.93 28.1417ZM167.459 24.8656V31.4417H166.367V30.4697C166.159 30.8057 165.867 31.0697 165.491 31.2617C165.123 31.4457 164.715 31.5377 164.267 31.5377C163.755 31.5377 163.295 31.4337 162.887 31.2257C162.479 31.0097 162.155 30.6897 161.915 30.2657C161.683 29.8417 161.567 29.3257 161.567 28.7177V24.8656H162.647V28.5737C162.647 29.2217 162.811 29.7217 163.139 30.0737C163.467 30.4177 163.915 30.5897 164.483 30.5897C165.067 30.5897 165.527 30.4097 165.863 30.0497C166.199 29.6897 166.367 29.1657 166.367 28.4777V24.8656H167.459ZM170.395 25.9337C170.587 25.5576 170.859 25.2657 171.211 25.0577C171.571 24.8497 172.007 24.7457 172.519 24.7457V25.8737H172.231C171.007 25.8737 170.395 26.5377 170.395 27.8657V31.4417H169.303V24.8656H170.395V25.9337ZM174.343 23.7977C174.135 23.7977 173.959 23.7257 173.815 23.5817C173.671 23.4376 173.599 23.2616 173.599 23.0536C173.599 22.8456 173.671 22.6697 173.815 22.5257C173.959 22.3816 174.135 22.3096 174.343 22.3096C174.543 22.3096 174.711 22.3816 174.847 22.5257C174.991 22.6697 175.063 22.8456 175.063 23.0536C175.063 23.2616 174.991 23.4376 174.847 23.5817C174.711 23.7257 174.543 23.7977 174.343 23.7977ZM174.871 24.8656V31.4417H173.779V24.8656H174.871ZM178.065 25.7657V29.6417C178.065 29.9617 178.133 30.1897 178.269 30.3257C178.405 30.4537 178.641 30.5177 178.977 30.5177H179.781V31.4417H178.797C178.189 31.4417 177.733 31.3017 177.429 31.0217C177.125 30.7417 176.973 30.2817 176.973 29.6417V25.7657H176.121V24.8656H176.973V23.2096H178.065V24.8656H179.781V25.7657H178.065ZM186.768 24.8656L182.808 34.5377H181.68L182.976 31.3697L180.324 24.8656H181.536L183.6 30.1937L185.64 24.8656H186.768ZM75.2596 39.1377V47.4417H74.1676V41.2497L71.4076 47.4417H70.6396L67.8676 41.2377V47.4417H66.7756V39.1377H67.9516L71.0236 46.0017L74.0956 39.1377H75.2596ZM76.7035 44.1297C76.7035 43.4577 76.8395 42.8697 77.1115 42.3657C77.3835 41.8537 77.7555 41.4577 78.2275 41.1777C78.7075 40.8977 79.2395 40.7576 79.8235 40.7576C80.3995 40.7576 80.8995 40.8816 81.3235 41.1297C81.7475 41.3777 82.0635 41.6897 82.2715 42.0657V40.8656H83.3755V47.4417H82.2715V46.2177C82.0555 46.6017 81.7315 46.9217 81.2995 47.1777C80.8755 47.4257 80.3795 47.5497 79.8115 47.5497C79.2275 47.5497 78.6995 47.4057 78.2275 47.1177C77.7555 46.8297 77.3835 46.4257 77.1115 45.9057C76.8395 45.3857 76.7035 44.7937 76.7035 44.1297ZM82.2715 44.1417C82.2715 43.6457 82.1715 43.2137 81.9715 42.8457C81.7715 42.4777 81.4995 42.1977 81.1555 42.0057C80.8195 41.8057 80.4475 41.7057 80.0395 41.7057C79.6315 41.7057 79.2595 41.8017 78.9235 41.9937C78.5875 42.1857 78.3195 42.4657 78.1195 42.8337C77.9195 43.2017 77.8195 43.6337 77.8195 44.1297C77.8195 44.6337 77.9195 45.0737 78.1195 45.4497C78.3195 45.8177 78.5875 46.1017 78.9235 46.3017C79.2595 46.4937 79.6315 46.5897 80.0395 46.5897C80.4475 46.5897 80.8195 46.4937 81.1555 46.3017C81.4995 46.1017 81.7715 45.8177 81.9715 45.4497C82.1715 45.0737 82.2715 44.6377 82.2715 44.1417ZM88.4249 40.7457C89.2249 40.7457 89.8729 40.9897 90.3689 41.4777C90.8649 41.9577 91.1129 42.6537 91.1129 43.5657V47.4417H90.0329V43.7217C90.0329 43.0657 89.8689 42.5657 89.5409 42.2217C89.2129 41.8697 88.7649 41.6937 88.1969 41.6937C87.6209 41.6937 87.1609 41.8737 86.8169 42.2337C86.4809 42.5937 86.3129 43.1177 86.3129 43.8057V47.4417H85.2209V40.8656H86.3129V41.8017C86.5289 41.4657 86.8209 41.2057 87.1889 41.0217C87.5649 40.8377 87.9769 40.7457 88.4249 40.7457ZM92.4887 44.1297C92.4887 43.4577 92.6247 42.8697 92.8967 42.3657C93.1687 41.8537 93.5407 41.4577 94.0127 41.1777C94.4927 40.8977 95.0247 40.7576 95.6087 40.7576C96.1847 40.7576 96.6847 40.8816 97.1087 41.1297C97.5327 41.3777 97.8487 41.6897 98.0567 42.0657V40.8656H99.1607V47.4417H98.0567V46.2177C97.8407 46.6017 97.5167 46.9217 97.0847 47.1777C96.6607 47.4257 96.1647 47.5497 95.5967 47.5497C95.0127 47.5497 94.4847 47.4057 94.0127 47.1177C93.5407 46.8297 93.1687 46.4257 92.8967 45.9057C92.6247 45.3857 92.4887 44.7937 92.4887 44.1297ZM98.0567 44.1417C98.0567 43.6457 97.9567 43.2137 97.7567 42.8457C97.5567 42.4777 97.2847 42.1977 96.9407 42.0057C96.6047 41.8057 96.2327 41.7057 95.8247 41.7057C95.4167 41.7057 95.0447 41.8017 94.7087 41.9937C94.3727 42.1857 94.1047 42.4657 93.9047 42.8337C93.7047 43.2017 93.6047 43.6337 93.6047 44.1297C93.6047 44.6337 93.7047 45.0737 93.9047 45.4497C94.1047 45.8177 94.3727 46.1017 94.7087 46.3017C95.0447 46.4937 95.4167 46.5897 95.8247 46.5897C96.2327 46.5897 96.6047 46.4937 96.9407 46.3017C97.2847 46.1017 97.5567 45.8177 97.7567 45.4497C97.9567 45.0737 98.0567 44.6377 98.0567 44.1417ZM103.718 40.7576C104.286 40.7576 104.782 40.8816 105.206 41.1297C105.638 41.3777 105.958 41.6897 106.166 42.0657V40.8656H107.27V47.5857C107.27 48.1857 107.142 48.7177 106.886 49.1817C106.63 49.6537 106.262 50.0217 105.782 50.2857C105.31 50.5497 104.758 50.6817 104.126 50.6817C103.262 50.6817 102.542 50.4777 101.966 50.0697C101.39 49.6617 101.05 49.1057 100.946 48.4017H102.026C102.146 48.8017 102.394 49.1217 102.77 49.3617C103.146 49.6097 103.598 49.7337 104.126 49.7337C104.726 49.7337 105.214 49.5457 105.59 49.1697C105.974 48.7937 106.166 48.2657 106.166 47.5857V46.2057C105.95 46.5897 105.63 46.9097 105.206 47.1657C104.782 47.4217 104.286 47.5497 103.718 47.5497C103.134 47.5497 102.602 47.4057 102.122 47.1177C101.65 46.8297 101.278 46.4257 101.006 45.9057C100.734 45.3857 100.598 44.7937 100.598 44.1297C100.598 43.4577 100.734 42.8697 101.006 42.3657C101.278 41.8537 101.65 41.4577 102.122 41.1777C102.602 40.8977 103.134 40.7576 103.718 40.7576ZM106.166 44.1417C106.166 43.6457 106.066 43.2137 105.866 42.8457C105.666 42.4777 105.394 42.1977 105.05 42.0057C104.714 41.8057 104.342 41.7057 103.934 41.7057C103.526 41.7057 103.154 41.8017 102.818 41.9937C102.482 42.1857 102.214 42.4657 102.014 42.8337C101.814 43.2017 101.714 43.6337 101.714 44.1297C101.714 44.6337 101.814 45.0737 102.014 45.4497C102.214 45.8177 102.482 46.1017 102.818 46.3017C103.154 46.4937 103.526 46.5897 103.934 46.5897C104.342 46.5897 104.714 46.4937 105.05 46.3017C105.394 46.1017 105.666 45.8177 105.866 45.4497C106.066 45.0737 106.166 44.6377 106.166 44.1417ZM115.115 43.9017C115.115 44.1097 115.103 44.3297 115.079 44.5617H109.823C109.863 45.2097 110.083 45.7177 110.483 46.0857C110.891 46.4457 111.383 46.6257 111.959 46.6257C112.431 46.6257 112.823 46.5177 113.135 46.3017C113.455 46.0777 113.679 45.7817 113.807 45.4137H114.983C114.807 46.0457 114.455 46.5617 113.927 46.9617C113.399 47.3537 112.743 47.5497 111.959 47.5497C111.335 47.5497 110.775 47.4097 110.279 47.1297C109.791 46.8497 109.407 46.4537 109.127 45.9417C108.847 45.4217 108.707 44.8217 108.707 44.1417C108.707 43.4617 108.843 42.8657 109.115 42.3537C109.387 41.8417 109.767 41.4497 110.255 41.1777C110.751 40.8977 111.319 40.7576 111.959 40.7576C112.583 40.7576 113.135 40.8937 113.615 41.1657C114.095 41.4377 114.463 41.8137 114.719 42.2937C114.983 42.7657 115.115 43.3017 115.115 43.9017ZM113.987 43.6737C113.987 43.2577 113.895 42.9017 113.711 42.6057C113.527 42.3017 113.275 42.0737 112.955 41.9217C112.643 41.7617 112.295 41.6817 111.911 41.6817C111.359 41.6817 110.887 41.8577 110.495 42.2097C110.111 42.5617 109.891 43.0497 109.835 43.6737H113.987ZM124.465 40.7457C124.977 40.7457 125.433 40.8537 125.833 41.0697C126.233 41.2777 126.549 41.5937 126.781 42.0177C127.013 42.4417 127.129 42.9577 127.129 43.5657V47.4417H126.049V43.7217C126.049 43.0657 125.885 42.5657 125.557 42.2217C125.237 41.8697 124.801 41.6937 124.249 41.6937C123.681 41.6937 123.229 41.8777 122.893 42.2457C122.557 42.6057 122.389 43.1297 122.389 43.8177V47.4417H121.309V43.7217C121.309 43.0657 121.145 42.5657 120.817 42.2217C120.497 41.8697 120.061 41.6937 119.509 41.6937C118.941 41.6937 118.489 41.8777 118.153 42.2457C117.817 42.6057 117.649 43.1297 117.649 43.8177V47.4417H116.557V40.8656H117.649V41.8137C117.865 41.4697 118.153 41.2057 118.513 41.0217C118.881 40.8377 119.285 40.7457 119.725 40.7457C120.277 40.7457 120.765 40.8697 121.189 41.1177C121.613 41.3657 121.929 41.7297 122.137 42.2097C122.321 41.7457 122.625 41.3857 123.049 41.1297C123.473 40.8737 123.945 40.7457 124.465 40.7457ZM134.92 43.9017C134.92 44.1097 134.908 44.3297 134.884 44.5617H129.628C129.668 45.2097 129.888 45.7177 130.288 46.0857C130.696 46.4457 131.188 46.6257 131.764 46.6257C132.236 46.6257 132.628 46.5177 132.94 46.3017C133.26 46.0777 133.484 45.7817 133.612 45.4137H134.788C134.612 46.0457 134.26 46.5617 133.732 46.9617C133.204 47.3537 132.548 47.5497 131.764 47.5497C131.14 47.5497 130.58 47.4097 130.084 47.1297C129.596 46.8497 129.212 46.4537 128.932 45.9417C128.652 45.4217 128.512 44.8217 128.512 44.1417C128.512 43.4617 128.648 42.8657 128.92 42.3537C129.192 41.8417 129.572 41.4497 130.06 41.1777C130.556 40.8977 131.124 40.7576 131.764 40.7576C132.388 40.7576 132.94 40.8937 133.42 41.1657C133.9 41.4377 134.268 41.8137 134.524 42.2937C134.788 42.7657 134.92 43.3017 134.92 43.9017ZM133.792 43.6737C133.792 43.2577 133.7 42.9017 133.516 42.6057C133.332 42.3017 133.08 42.0737 132.76 41.9217C132.448 41.7617 132.1 41.6817 131.716 41.6817C131.164 41.6817 130.692 41.8577 130.3 42.2097C129.916 42.5617 129.696 43.0497 129.64 43.6737H133.792ZM139.566 40.7457C140.366 40.7457 141.014 40.9897 141.51 41.4777C142.006 41.9577 142.254 42.6537 142.254 43.5657V47.4417H141.174V43.7217C141.174 43.0657 141.01 42.5657 140.682 42.2217C140.354 41.8697 139.906 41.6937 139.338 41.6937C138.762 41.6937 138.302 41.8737 137.958 42.2337C137.622 42.5937 137.454 43.1177 137.454 43.8057V47.4417H136.362V40.8656H137.454V41.8017C137.67 41.4657 137.962 41.2057 138.33 41.0217C138.706 40.8377 139.118 40.7457 139.566 40.7457ZM145.369 41.7657V45.6417C145.369 45.9617 145.437 46.1897 145.573 46.3257C145.709 46.4537 145.945 46.5177 146.281 46.5177H147.085V47.4417H146.101C145.493 47.4417 145.037 47.3017 144.733 47.0217C144.429 46.7417 144.277 46.2817 144.277 45.6417V41.7657H143.425V40.8656H144.277V39.2096H145.369V40.8656H147.085V41.7657H145.369ZM154.26 47.5257C153.708 47.5257 153.212 47.4297 152.772 47.2377C152.34 47.0377 152 46.7657 151.752 46.4217C151.504 46.0697 151.376 45.6657 151.368 45.2097H152.532C152.572 45.6017 152.732 45.9337 153.012 46.2057C153.3 46.4697 153.716 46.6017 154.26 46.6017C154.78 46.6017 155.188 46.4737 155.484 46.2177C155.788 45.9537 155.94 45.6177 155.94 45.2097C155.94 44.8897 155.852 44.6297 155.676 44.4297C155.5 44.2297 155.28 44.0777 155.016 43.9737C154.752 43.8697 154.396 43.7577 153.948 43.6377C153.396 43.4937 152.952 43.3497 152.616 43.2057C152.288 43.0617 152.004 42.8377 151.764 42.5337C151.532 42.2217 151.416 41.8057 151.416 41.2857C151.416 40.8296 151.532 40.4256 151.764 40.0737C151.996 39.7216 152.32 39.4496 152.736 39.2576C153.16 39.0656 153.644 38.9697 154.188 38.9697C154.972 38.9697 155.612 39.1657 156.108 39.5577C156.612 39.9497 156.896 40.4697 156.96 41.1177H155.76C155.72 40.7977 155.552 40.5177 155.256 40.2777C154.96 40.0297 154.568 39.9057 154.08 39.9057C153.624 39.9057 153.252 40.0257 152.964 40.2656C152.676 40.4977 152.532 40.8257 152.532 41.2497C152.532 41.5537 152.616 41.8017 152.784 41.9937C152.96 42.1857 153.172 42.3337 153.42 42.4377C153.676 42.5337 154.032 42.6457 154.488 42.7737C155.04 42.9257 155.484 43.0777 155.82 43.2297C156.156 43.3737 156.444 43.6017 156.684 43.9137C156.924 44.2177 157.044 44.6337 157.044 45.1617C157.044 45.5697 156.936 45.9537 156.72 46.3137C156.504 46.6737 156.184 46.9657 155.76 47.1897C155.336 47.4137 154.836 47.5257 154.26 47.5257ZM164.315 40.8656L160.355 50.5377H159.227L160.523 47.3697L157.871 40.8656H159.083L161.147 46.1937L163.187 40.8656H164.315ZM167.74 47.5497C167.236 47.5497 166.784 47.4657 166.384 47.2977C165.984 47.1217 165.668 46.8817 165.436 46.5777C165.204 46.2657 165.076 45.9097 165.052 45.5097H166.18C166.212 45.8377 166.364 46.1057 166.636 46.3137C166.916 46.5217 167.28 46.6257 167.728 46.6257C168.144 46.6257 168.472 46.5337 168.712 46.3497C168.952 46.1657 169.072 45.9337 169.072 45.6537C169.072 45.3657 168.944 45.1537 168.688 45.0177C168.432 44.8737 168.036 44.7337 167.5 44.5977C167.012 44.4697 166.612 44.3417 166.3 44.2137C165.996 44.0777 165.732 43.8817 165.508 43.6257C165.292 43.3617 165.184 43.0177 165.184 42.5937C165.184 42.2577 165.284 41.9497 165.484 41.6696C165.684 41.3896 165.968 41.1697 166.336 41.0097C166.704 40.8417 167.124 40.7576 167.596 40.7576C168.324 40.7576 168.912 40.9416 169.36 41.3096C169.808 41.6776 170.048 42.1817 170.08 42.8217H168.988C168.964 42.4777 168.824 42.2017 168.568 41.9937C168.32 41.7857 167.984 41.6817 167.56 41.6817C167.168 41.6817 166.856 41.7657 166.624 41.9337C166.392 42.1017 166.276 42.3217 166.276 42.5937C166.276 42.8097 166.344 42.9897 166.48 43.1337C166.624 43.2697 166.8 43.3817 167.008 43.4697C167.224 43.5497 167.52 43.6417 167.896 43.7457C168.368 43.8737 168.752 44.0017 169.048 44.1297C169.344 44.2497 169.596 44.4337 169.804 44.6817C170.02 44.9297 170.132 45.2537 170.14 45.6537C170.14 46.0137 170.04 46.3377 169.84 46.6257C169.64 46.9137 169.356 47.1417 168.988 47.3097C168.628 47.4697 168.212 47.5497 167.74 47.5497ZM173.014 41.7657V45.6417C173.014 45.9617 173.082 46.1897 173.218 46.3257C173.354 46.4537 173.59 46.5177 173.926 46.5177H174.73V47.4417H173.746C173.138 47.4417 172.682 47.3017 172.378 47.0217C172.074 46.7417 171.922 46.2817 171.922 45.6417V41.7657H171.07V40.8656H171.922V39.2096H173.014V40.8656H174.73V41.7657H173.014ZM182.053 43.9017C182.053 44.1097 182.041 44.3297 182.017 44.5617H176.761C176.801 45.2097 177.021 45.7177 177.421 46.0857C177.829 46.4457 178.321 46.6257 178.897 46.6257C179.369 46.6257 179.761 46.5177 180.073 46.3017C180.393 46.0777 180.617 45.7817 180.745 45.4137H181.921C181.745 46.0457 181.393 46.5617 180.865 46.9617C180.337 47.3537 179.681 47.5497 178.897 47.5497C178.273 47.5497 177.713 47.4097 177.217 47.1297C176.729 46.8497 176.345 46.4537 176.065 45.9417C175.785 45.4217 175.645 44.8217 175.645 44.1417C175.645 43.4617 175.781 42.8657 176.053 42.3537C176.325 41.8417 176.705 41.4497 177.193 41.1777C177.689 40.8977 178.257 40.7576 178.897 40.7576C179.521 40.7576 180.073 40.8937 180.553 41.1657C181.033 41.4377 181.401 41.8137 181.657 42.2937C181.921 42.7657 182.053 43.3017 182.053 43.9017ZM180.925 43.6737C180.925 43.2577 180.833 42.9017 180.649 42.6057C180.465 42.3017 180.213 42.0737 179.893 41.9217C179.581 41.7617 179.233 41.6817 178.849 41.6817C178.297 41.6817 177.825 41.8577 177.433 42.2097C177.049 42.5617 176.829 43.0497 176.773 43.6737H180.925ZM191.402 40.7457C191.914 40.7457 192.37 40.8537 192.77 41.0697C193.17 41.2777 193.486 41.5937 193.718 42.0177C193.95 42.4417 194.066 42.9577 194.066 43.5657V47.4417H192.986V43.7217C192.986 43.0657 192.822 42.5657 192.494 42.2217C192.174 41.8697 191.738 41.6937 191.186 41.6937C190.618 41.6937 190.166 41.8777 189.83 42.2457C189.494 42.6057 189.326 43.1297 189.326 43.8177V47.4417H188.246V43.7217C188.246 43.0657 188.082 42.5657 187.754 42.2217C187.434 41.8697 186.998 41.6937 186.446 41.6937C185.878 41.6937 185.426 41.8777 185.09 42.2457C184.754 42.6057 184.586 43.1297 184.586 43.8177V47.4417H183.494V40.8656H184.586V41.8137C184.802 41.4697 185.09 41.2057 185.45 41.0217C185.818 40.8377 186.222 40.7457 186.662 40.7457C187.214 40.7457 187.702 40.8697 188.126 41.1177C188.55 41.3657 188.866 41.7297 189.074 42.2097C189.258 41.7457 189.562 41.3857 189.986 41.1297C190.41 40.8737 190.882 40.7457 191.402 40.7457ZM201.865 49.6737C201.097 48.9217 200.497 47.9657 200.065 46.8057C199.641 45.6457 199.429 44.3937 199.429 43.0497C199.429 41.6736 199.653 40.3896 200.101 39.1976C200.557 37.9977 201.205 37.0097 202.045 36.2337H203.185V36.3416C202.289 37.1816 201.613 38.1936 201.157 39.3776C200.709 40.5536 200.485 41.7776 200.485 43.0497C200.485 44.2897 200.697 45.4737 201.121 46.6017C201.553 47.7297 202.181 48.7177 203.005 49.5657V49.6737H201.865ZM205.598 39.0777V47.4417H204.506V39.0777H205.598ZM210.111 47.5257C209.559 47.5257 209.063 47.4297 208.623 47.2377C208.191 47.0377 207.851 46.7657 207.603 46.4217C207.355 46.0697 207.227 45.6657 207.219 45.2097H208.383C208.423 45.6017 208.583 45.9337 208.863 46.2057C209.151 46.4697 209.567 46.6017 210.111 46.6017C210.631 46.6017 211.039 46.4737 211.335 46.2177C211.639 45.9537 211.791 45.6177 211.791 45.2097C211.791 44.8897 211.703 44.6297 211.527 44.4297C211.351 44.2297 211.131 44.0777 210.867 43.9737C210.603 43.8697 210.247 43.7577 209.799 43.6377C209.247 43.4937 208.803 43.3497 208.467 43.2057C208.139 43.0617 207.855 42.8377 207.615 42.5337C207.383 42.2217 207.267 41.8057 207.267 41.2857C207.267 40.8296 207.383 40.4256 207.615 40.0737C207.847 39.7216 208.171 39.4496 208.587 39.2576C209.011 39.0656 209.495 38.9697 210.039 38.9697C210.823 38.9697 211.463 39.1657 211.959 39.5577C212.463 39.9497 212.747 40.4697 212.811 41.1177H211.611C211.571 40.7977 211.403 40.5177 211.107 40.2777C210.811 40.0297 210.419 39.9057 209.931 39.9057C209.475 39.9057 209.103 40.0257 208.815 40.2656C208.527 40.4977 208.383 40.8257 208.383 41.2497C208.383 41.5537 208.467 41.8017 208.635 41.9937C208.811 42.1857 209.023 42.3337 209.271 42.4377C209.527 42.5337 209.883 42.6457 210.339 42.7737C210.891 42.9257 211.335 43.0777 211.671 43.2297C212.007 43.3737 212.295 43.6017 212.535 43.9137C212.775 44.2177 212.895 44.6337 212.895 45.1617C212.895 45.5697 212.787 45.9537 212.571 46.3137C212.355 46.6737 212.035 46.9657 211.611 47.1897C211.187 47.4137 210.687 47.5257 210.111 47.5257ZM222.986 39.1377V47.4417H221.894V41.2497L219.134 47.4417H218.366L215.594 41.2377V47.4417H214.502V39.1377H215.678L218.75 46.0017L221.822 39.1377H222.986ZM227.49 47.5257C226.938 47.5257 226.442 47.4297 226.002 47.2377C225.57 47.0377 225.23 46.7657 224.982 46.4217C224.734 46.0697 224.606 45.6657 224.598 45.2097H225.762C225.802 45.6017 225.962 45.9337 226.242 46.2057C226.53 46.4697 226.946 46.6017 227.49 46.6017C228.01 46.6017 228.418 46.4737 228.714 46.2177C229.018 45.9537 229.17 45.6177 229.17 45.2097C229.17 44.8897 229.082 44.6297 228.906 44.4297C228.73 44.2297 228.51 44.0777 228.246 43.9737C227.982 43.8697 227.626 43.7577 227.178 43.6377C226.626 43.4937 226.182 43.3497 225.846 43.2057C225.518 43.0617 225.234 42.8377 224.994 42.5337C224.762 42.2217 224.646 41.8057 224.646 41.2857C224.646 40.8296 224.762 40.4256 224.994 40.0737C225.226 39.7216 225.55 39.4496 225.966 39.2576C226.39 39.0656 226.874 38.9697 227.418 38.9697C228.202 38.9697 228.842 39.1657 229.338 39.5577C229.842 39.9497 230.126 40.4697 230.19 41.1177H228.99C228.95 40.7977 228.782 40.5177 228.486 40.2777C228.19 40.0297 227.798 39.9057 227.31 39.9057C226.854 39.9057 226.482 40.0257 226.194 40.2656C225.906 40.4977 225.762 40.8257 225.762 41.2497C225.762 41.5537 225.846 41.8017 226.014 41.9937C226.19 42.1857 226.402 42.3337 226.65 42.4377C226.906 42.5337 227.262 42.6457 227.718 42.7737C228.27 42.9257 228.714 43.0777 229.05 43.2297C229.386 43.3737 229.674 43.6017 229.914 43.9137C230.154 44.2177 230.274 44.6337 230.274 45.1617C230.274 45.5697 230.166 45.9537 229.95 46.3137C229.734 46.6737 229.414 46.9657 228.99 47.1897C228.566 47.4137 228.066 47.5257 227.49 47.5257ZM231.533 49.6737V49.5657C232.357 48.7177 232.981 47.7297 233.405 46.6017C233.837 45.4737 234.053 44.2897 234.053 43.0497C234.053 41.7776 233.825 40.5536 233.369 39.3776C232.921 38.1936 232.249 37.1816 231.353 36.3416V36.2337H232.493C233.333 37.0097 233.977 37.9977 234.425 39.1976C234.881 40.3896 235.109 41.6736 235.109 43.0497C235.109 44.3937 234.893 45.6457 234.461 46.8057C234.037 47.9657 233.441 48.9217 232.673 49.6737H231.533Z" fill="#707074"/>
</svg>
