<svg width="296" height="310" viewBox="0 0 296 310" fill="none" xmlns="http://www.w3.org/2000/svg">
<path d="M83.7079 160.265C83.1163 160.265 82.6134 160.058 82.1993 159.644C81.7852 159.23 81.5781 158.727 81.5781 158.135H82.8797C82.8797 158.372 82.9684 158.579 83.1459 158.757C83.3234 158.934 83.5304 159.023 83.7671 159.023H86.7842C87.0209 159.023 87.2279 158.934 87.4054 158.757C87.5829 158.579 87.6716 158.372 87.6716 158.135C87.6716 157.899 87.5829 157.692 87.4054 157.514C87.2279 157.337 87.0209 157.248 86.7842 157.248H83.7079C83.1163 157.248 82.6134 157.041 82.1993 156.627C81.7852 156.213 81.5781 155.71 81.5781 155.118C81.5781 154.527 81.7852 154.024 82.1993 153.61C82.6134 153.195 83.1163 152.988 83.7079 152.988H86.7251C87.3167 152.988 87.8195 153.195 88.2337 153.61C88.6478 154.024 88.8548 154.527 88.8548 155.118H87.5533C87.5533 154.882 87.4646 154.674 87.2871 154.497C87.1096 154.32 86.9026 154.231 86.6659 154.231H83.7079C83.4713 154.231 83.2642 154.32 83.0867 154.497C82.9092 154.674 82.8205 154.882 82.8205 155.118C82.8205 155.355 82.9092 155.562 83.0867 155.739C83.2642 155.917 83.4713 156.006 83.7079 156.006H86.7251C87.3167 156.006 87.8195 156.213 88.2337 156.627C88.6478 157.041 88.8548 157.544 88.8548 158.135C88.8548 158.727 88.6478 159.23 88.2337 159.644C87.8195 160.058 87.3167 160.265 86.7251 160.265H83.7079Z" fill="#454545"/>
<path d="M106.189 152.959V154.261H100.184V155.976H106.189V157.278H100.184V158.993H106.189V160.295H98.8828V152.989H106.189V152.959Z" fill="#454545"/>
<path d="M123.495 155.118V155.562H122.194V155.118C122.194 154.882 122.105 154.674 121.928 154.497C121.75 154.32 121.543 154.231 121.307 154.231H118.289C118.053 154.231 117.846 154.32 117.668 154.497C117.491 154.674 117.402 154.882 117.402 155.118V158.135C117.402 158.372 117.491 158.579 117.668 158.757C117.846 158.934 118.053 159.023 118.289 159.023H121.307C121.543 159.023 121.75 158.934 121.928 158.757C122.105 158.579 122.194 158.372 122.194 158.135V157.692H123.495V158.135C123.495 158.727 123.288 159.23 122.874 159.644C122.46 160.058 121.957 160.265 121.366 160.265H118.349C117.757 160.265 117.254 160.058 116.84 159.644C116.426 159.23 116.219 158.727 116.219 158.135V155.118C116.219 154.527 116.426 154.024 116.84 153.61C117.254 153.195 117.757 152.988 118.349 152.988H121.366C121.957 152.988 122.46 153.195 122.874 153.61C123.288 153.994 123.495 154.497 123.495 155.118Z" fill="#454545"/>
<path d="M133.516 158.106V152.959H134.817V158.106C134.817 158.343 134.906 158.55 135.083 158.727C135.261 158.905 135.468 158.993 135.705 158.993H138.722C138.958 158.993 139.165 158.905 139.343 158.727C139.52 158.55 139.609 158.343 139.609 158.106V152.959H140.911V158.106C140.911 158.698 140.704 159.2 140.289 159.615C139.875 160.029 139.373 160.236 138.781 160.236H135.764C135.172 160.236 134.669 160.029 134.255 159.615C133.841 159.2 133.516 158.698 133.516 158.106Z" fill="#454545"/>
<path d="M152.13 156.006V160.265H150.828V152.959H155.975C156.567 152.959 157.07 153.166 157.484 153.58C157.898 153.994 158.105 154.497 158.105 155.089C158.105 155.68 157.898 156.183 157.484 156.597C157.07 157.011 156.567 157.219 155.975 157.219H155.176L158.194 160.236H156.36L152.13 156.006ZM152.13 154.231V155.947H156.005C156.241 155.947 156.448 155.858 156.626 155.68C156.803 155.503 156.892 155.296 156.892 155.059C156.892 154.823 156.803 154.615 156.626 154.438C156.448 154.261 156.241 154.172 156.005 154.172H152.13V154.231Z" fill="#454545"/>
<path d="M169.434 160.265H168.133V152.959H169.434V160.265Z" fill="#454545"/>
<path d="M183.748 154.231V160.236H182.447V154.231H179.43V152.929H186.736V154.231H183.748Z" fill="#454545"/>
<path d="M201.056 156.864V160.265H199.755V156.864L196.383 152.959H198.098L200.406 155.621L202.713 152.959H204.429L201.056 156.864Z" fill="#454545"/>
<path d="M45.4609 115.658V102.14H48.4485V115.658H45.4609Z" fill="#737373"/>
<path d="M54.6631 115.954C54.0419 115.954 53.4503 115.895 52.9179 115.747C52.3854 115.599 51.9122 115.451 51.498 115.244C51.0839 115.037 50.6994 114.83 50.4036 114.623C50.1078 114.416 49.8415 114.239 49.6641 114.091L51.1135 111.754C51.7051 112.257 52.2671 112.641 52.77 112.878C53.3024 113.115 53.8053 113.233 54.3377 113.233C54.5448 113.233 54.7814 113.203 54.9885 113.174C55.2251 113.144 55.4322 113.085 55.6393 112.967C55.8463 112.878 55.9942 112.73 56.1125 112.553C56.2309 112.375 56.29 112.138 56.29 111.843C56.29 111.547 56.1421 111.281 55.8463 111.044C55.5505 110.807 55.166 110.571 54.7519 110.364C54.3082 110.127 53.8349 109.89 53.332 109.624C52.8291 109.358 52.3263 109.062 51.9122 108.707C51.4685 108.352 51.1135 107.938 50.8177 107.465C50.5219 106.992 50.374 106.429 50.374 105.749C50.374 105.217 50.4627 104.714 50.6698 104.241C50.8473 103.767 51.1431 103.324 51.498 102.969C51.853 102.614 52.3263 102.318 52.8587 102.111C53.3912 101.904 54.0123 101.785 54.7223 101.785C55.4618 101.785 56.1717 101.904 56.852 102.111C57.5324 102.318 58.2127 102.643 58.9227 103.087L57.4141 105.394C57.0591 105.158 56.7633 105.01 56.4971 104.862C56.2309 104.743 55.9942 104.655 55.7872 104.596C55.5801 104.536 55.4026 104.507 55.2843 104.507C55.1364 104.507 55.0477 104.507 54.9885 104.507C54.4265 104.507 54.0419 104.625 53.8053 104.862C53.5686 105.098 53.4503 105.335 53.4503 105.601C53.4503 105.927 53.5982 106.222 53.894 106.459C54.1898 106.696 54.5744 106.962 54.9885 107.169C55.4322 107.406 55.9055 107.642 56.4379 107.908C56.9704 108.175 57.4436 108.471 57.8873 108.796C58.331 109.121 58.686 109.535 58.9818 110.009C59.2776 110.482 59.4255 111.044 59.4255 111.695C59.4255 113.055 59.0114 114.12 58.1536 114.83C57.2366 115.57 56.083 115.954 54.6631 115.954Z" fill="#737373"/>
<path d="M66.4613 115.954C65.3964 115.954 64.4498 115.777 63.6512 115.422C62.8525 115.067 62.2018 114.564 61.6693 113.943C61.1369 113.321 60.7523 112.552 60.4861 111.695C60.2199 110.837 60.1016 109.861 60.1016 108.855C60.1016 107.82 60.2199 106.873 60.4861 106.015C60.7523 105.157 61.1369 104.418 61.6693 103.797C62.2018 103.176 62.8525 102.702 63.6512 102.347C64.4498 101.992 65.3964 101.815 66.4613 101.815C67.5262 101.815 68.4727 101.992 69.2714 102.347C70.0701 102.702 70.7208 103.176 71.2533 103.797C71.7857 104.418 72.1703 105.157 72.4365 106.015C72.7027 106.873 72.821 107.82 72.821 108.855C72.821 109.89 72.7027 110.837 72.4365 111.695C72.1703 112.552 71.7857 113.321 71.2533 113.943C70.7208 114.564 70.0701 115.067 69.2714 115.422C68.4432 115.777 67.5262 115.954 66.4613 115.954ZM66.4613 113.203C66.9346 113.203 67.3487 113.114 67.7332 112.937C68.1178 112.759 68.4727 112.493 68.739 112.109C69.0348 111.754 69.2418 111.28 69.3897 110.748C69.5376 110.216 69.6264 109.565 69.6264 108.825C69.6264 107.435 69.3306 106.37 68.739 105.631C68.1474 104.891 67.3783 104.536 66.4317 104.536C65.4852 104.536 64.7161 104.891 64.1245 105.631C63.5329 106.37 63.2371 107.405 63.2371 108.825C63.2371 110.275 63.5329 111.369 64.1245 112.109C64.7456 112.819 65.5147 113.203 66.4613 113.203Z" fill="#737373"/>
<path d="M78.0859 113.854C78.8254 112.996 79.5649 112.227 80.2749 111.488C80.9848 110.748 81.606 110.068 82.168 109.417C82.7004 108.766 83.1441 108.175 83.4695 107.613C83.7949 107.05 83.9724 106.548 83.9724 106.104C83.9724 105.601 83.8245 105.187 83.4991 104.832C83.2033 104.477 82.7004 104.3 82.0793 104.3C81.606 104.3 81.1327 104.388 80.6594 104.595C80.1861 104.802 79.7424 105.069 79.3283 105.453L78.1155 103.442C78.8254 102.85 79.5058 102.436 80.2157 102.199C80.9256 101.963 81.6356 101.815 82.3751 101.815C83.9132 101.815 85.0668 102.17 85.8655 102.909C86.6642 103.649 87.0487 104.625 87.0487 105.838C87.0487 106.459 86.9008 107.08 86.6346 107.731C86.3684 108.352 86.0134 109.003 85.5697 109.624C85.126 110.245 84.6232 110.896 84.0315 111.517C83.4399 112.138 82.8483 112.789 82.1976 113.41C82.5525 113.381 82.9667 113.351 83.3512 113.351C83.7653 113.351 84.1794 113.321 84.5936 113.321H87.3741V115.658H78.0859V113.854Z" fill="#737373"/>
<path d="M89.2093 102.111H98.2608V104.448L94.2083 115.658H91.3095L95.4507 104.448C94.9774 104.448 94.5041 104.477 94.0012 104.477C93.4984 104.477 92.9659 104.477 92.3743 104.477H91.4278H89.1797V102.111H89.2093Z" fill="#737373"/>
<path d="M104.533 115.954C103.587 115.954 102.788 115.777 102.137 115.392C101.486 115.008 100.954 114.505 100.569 113.854C100.155 113.203 99.889 112.464 99.7115 111.576C99.5341 110.718 99.4453 109.772 99.4453 108.796C99.4453 107.82 99.5341 106.873 99.7115 106.045C99.889 105.187 100.155 104.447 100.569 103.826C100.983 103.205 101.486 102.702 102.137 102.347C102.788 101.992 103.587 101.815 104.533 101.815C105.48 101.815 106.278 101.992 106.929 102.347C107.58 102.702 108.112 103.205 108.497 103.826C108.911 104.447 109.177 105.187 109.355 106.045C109.532 106.903 109.621 107.82 109.621 108.796C109.621 109.772 109.532 110.718 109.355 111.576C109.177 112.434 108.911 113.203 108.497 113.854C108.083 114.505 107.58 115.008 106.929 115.392C106.308 115.747 105.48 115.954 104.533 115.954ZM104.533 113.381C104.888 113.381 105.184 113.262 105.45 113.026C105.687 112.789 105.894 112.464 106.071 112.05C106.219 111.635 106.337 111.162 106.426 110.6C106.485 110.038 106.545 109.446 106.545 108.766C106.545 108.175 106.515 107.613 106.426 107.051C106.367 106.518 106.249 106.045 106.071 105.631C105.923 105.217 105.716 104.891 105.45 104.655C105.213 104.418 104.888 104.3 104.533 104.3C104.178 104.3 103.882 104.418 103.616 104.655C103.379 104.891 103.172 105.217 102.995 105.631C102.847 106.045 102.729 106.518 102.64 107.051C102.581 107.583 102.522 108.145 102.522 108.766C102.522 109.417 102.551 110.038 102.64 110.6C102.699 111.162 102.817 111.635 102.995 112.05C103.143 112.464 103.35 112.789 103.616 113.026C103.882 113.292 104.178 113.381 104.533 113.381Z" fill="#737373"/>
<path d="M115.447 115.954C114.501 115.954 113.702 115.777 113.051 115.392C112.4 115.008 111.868 114.505 111.483 113.854C111.069 113.203 110.803 112.464 110.626 111.576C110.448 110.718 110.359 109.772 110.359 108.796C110.359 107.82 110.448 106.873 110.626 106.045C110.803 105.187 111.069 104.447 111.483 103.826C111.898 103.205 112.4 102.702 113.051 102.347C113.702 101.992 114.501 101.815 115.447 101.815C116.394 101.815 117.192 101.992 117.843 102.347C118.494 102.702 119.026 103.205 119.411 103.826C119.825 104.447 120.091 105.187 120.269 106.045C120.446 106.903 120.535 107.82 120.535 108.796C120.535 109.772 120.446 110.718 120.269 111.576C120.091 112.434 119.825 113.203 119.411 113.854C118.997 114.505 118.494 115.008 117.843 115.392C117.192 115.747 116.394 115.954 115.447 115.954ZM115.447 113.381C115.802 113.381 116.098 113.262 116.364 113.026C116.601 112.789 116.808 112.464 116.985 112.05C117.133 111.635 117.252 111.162 117.34 110.6C117.399 110.038 117.459 109.446 117.459 108.766C117.459 108.175 117.429 107.613 117.34 107.051C117.281 106.518 117.163 106.045 116.985 105.631C116.837 105.217 116.63 104.891 116.364 104.655C116.128 104.418 115.802 104.3 115.447 104.3C115.092 104.3 114.796 104.418 114.53 104.655C114.294 104.891 114.086 105.217 113.909 105.631C113.761 106.045 113.643 106.518 113.554 107.051C113.495 107.583 113.436 108.145 113.436 108.766C113.436 109.417 113.465 110.038 113.554 110.6C113.613 111.162 113.732 111.635 113.909 112.05C114.057 112.464 114.264 112.789 114.53 113.026C114.796 113.292 115.092 113.381 115.447 113.381Z" fill="#737373"/>
<path d="M125.532 113.322V106.725C125.532 106.341 125.532 105.956 125.561 105.601C125.591 105.246 125.591 104.891 125.62 104.595L123.106 105.838L122.219 104.033L126.035 102.081H128.46V113.322V115.658H125.532V113.322Z" fill="#737373"/>
<path d="M142.633 104.566C141.687 104.566 140.918 104.921 140.326 105.66C139.734 106.4 139.439 107.435 139.439 108.855C139.439 110.304 139.734 111.399 140.326 112.138C140.918 112.878 141.687 113.233 142.633 113.233C143.343 113.233 143.935 113.115 144.438 112.878C144.94 112.641 145.355 112.405 145.68 112.198L147.129 114.298C146.893 114.475 146.626 114.653 146.331 114.86C146.035 115.067 145.68 115.244 145.325 115.422C144.94 115.599 144.526 115.747 144.083 115.836C143.639 115.954 143.136 116.013 142.633 116.013C141.568 116.013 140.622 115.836 139.823 115.481C139.024 115.126 138.374 114.623 137.841 114.002C137.309 113.381 136.924 112.612 136.658 111.754C136.392 110.896 136.273 109.92 136.273 108.914C136.273 107.879 136.392 106.932 136.658 106.075C136.924 105.217 137.309 104.477 137.841 103.856C138.374 103.235 139.024 102.762 139.823 102.407C140.622 102.052 141.568 101.874 142.633 101.874C143.166 101.874 143.639 101.933 144.083 102.052C144.526 102.17 144.94 102.318 145.325 102.466C145.709 102.643 146.035 102.821 146.331 103.028C146.626 103.235 146.893 103.412 147.129 103.59L145.68 105.69C145.355 105.453 144.94 105.246 144.438 105.01C143.935 104.684 143.343 104.566 142.633 104.566Z" fill="#737373"/>
<path d="M148.57 115.658V102.14H157.563V104.832H151.558V107.258H156.172V109.949H151.558V112.996H157.947V115.688H148.57V115.658Z" fill="#737373"/>
<path d="M170.256 115.658H166.825L164.636 112.434C164.399 112.109 164.192 111.783 163.955 111.428C163.719 111.073 163.512 110.719 163.275 110.393H162.417V115.658H159.43V102.347C159.844 102.259 160.288 102.199 160.761 102.14C161.175 102.081 161.678 102.052 162.21 101.992C162.743 101.933 163.364 101.933 164.015 101.933C164.843 101.933 165.553 102.022 166.174 102.229C166.766 102.436 167.268 102.732 167.653 103.087C168.038 103.442 168.333 103.915 168.511 104.418C168.688 104.95 168.777 105.512 168.777 106.163C168.777 107.08 168.54 107.849 168.038 108.47C167.535 109.092 166.884 109.565 166.085 109.861C166.322 110.157 166.529 110.452 166.736 110.748C166.913 110.985 167.121 111.251 167.298 111.517C167.505 111.783 167.683 112.05 167.83 112.257L170.256 115.658ZM163.837 107.672C164.429 107.672 164.872 107.524 165.198 107.258C165.523 106.991 165.671 106.607 165.671 106.163C165.671 105.719 165.523 105.335 165.257 104.98C164.991 104.625 164.547 104.448 163.985 104.448C163.689 104.448 163.393 104.448 163.157 104.477C162.92 104.477 162.684 104.507 162.447 104.536V107.672H163.837Z" fill="#737373"/>
<path d="M173.545 115.658V104.832H169.492V102.14H180.585V104.832H176.532V115.658H173.545Z" fill="#737373"/>
<path d="M181.797 115.658V102.14H184.784V115.658H181.797Z" fill="#737373"/>
<path d="M186.969 115.658V102.14H195.813V104.832H189.956V107.524H195.044V110.216H189.956V115.658H186.969Z" fill="#737373"/>
<path d="M197.242 115.658V102.14H200.23V115.658H197.242Z" fill="#737373"/>
<path d="M202.414 115.658V102.14H211.406V104.832H205.402V107.258H210.016V109.949H205.402V112.996H211.791V115.688H202.414V115.658Z" fill="#737373"/>
<path d="M213.297 102.347C213.711 102.259 214.155 102.199 214.628 102.14C215.042 102.081 215.515 102.052 216.018 101.992C216.551 101.963 217.083 101.933 217.645 101.933C218.74 101.933 219.745 102.111 220.603 102.436C221.461 102.761 222.171 103.235 222.792 103.826C223.384 104.448 223.827 105.157 224.123 105.986C224.419 106.814 224.567 107.761 224.567 108.796C224.567 109.831 224.419 110.778 224.153 111.636C223.887 112.493 223.472 113.262 222.91 113.884C222.348 114.505 221.638 115.008 220.751 115.363C219.864 115.718 218.828 115.895 217.645 115.895C217.083 115.895 216.521 115.865 216.018 115.836C215.486 115.806 215.042 115.777 214.628 115.718C214.155 115.658 213.711 115.599 213.297 115.57V102.347ZM217.675 104.566C217.201 104.566 216.728 104.595 216.284 104.625V113.322C216.521 113.322 216.758 113.351 216.994 113.351C217.201 113.351 217.438 113.351 217.675 113.351C218.947 113.351 219.893 112.967 220.514 112.198C221.106 111.428 221.431 110.304 221.431 108.825C221.431 107.435 221.136 106.37 220.544 105.631C219.923 104.921 218.976 104.566 217.675 104.566Z" fill="#737373"/>
<path d="M232.793 101.016V105.276C233.029 105.157 233.266 105.039 233.591 104.95C233.887 104.862 234.272 104.832 234.686 104.832C235.425 104.832 236.076 104.98 236.638 105.246C237.2 105.512 237.644 105.897 237.999 106.37C238.354 106.844 238.62 107.435 238.798 108.115C238.975 108.796 239.064 109.535 239.064 110.334C239.064 111.073 238.945 111.783 238.709 112.464C238.472 113.144 238.117 113.736 237.674 114.239C237.23 114.741 236.668 115.156 236.047 115.481C235.396 115.777 234.686 115.954 233.858 115.954C232.882 115.954 232.083 115.865 231.491 115.688C230.9 115.511 230.397 115.244 229.953 114.919V101.046H232.793V101.016ZM236.195 110.364C236.195 109.269 235.987 108.47 235.603 107.968C235.218 107.465 234.716 107.198 234.065 107.198C233.799 107.198 233.562 107.228 233.355 107.287C233.148 107.346 232.941 107.406 232.793 107.494V113.558C232.941 113.588 233.089 113.617 233.237 113.647C233.384 113.647 233.562 113.677 233.739 113.677C234.479 113.677 235.1 113.381 235.544 112.789C235.958 112.138 236.195 111.34 236.195 110.364Z" fill="#737373"/>
<path d="M238.942 105.157H242.077L242.255 105.69C242.758 107.258 243.172 108.707 243.438 109.949C243.734 111.221 243.941 112.286 244.089 113.144C244.266 112.345 244.503 111.34 244.799 110.097C245.095 108.855 245.479 107.317 245.923 105.453L246.012 105.128H248.792C248.23 106.873 247.727 108.47 247.254 109.949C246.781 111.428 246.367 112.7 245.982 113.765C245.538 115.037 245.154 116.191 244.799 117.226C244.621 117.759 244.414 118.202 244.119 118.528C243.823 118.883 243.527 119.149 243.172 119.326C242.817 119.533 242.462 119.652 242.077 119.74C241.693 119.8 241.308 119.859 240.953 119.859C240.451 119.859 240.036 119.829 239.711 119.74C239.386 119.681 239.09 119.593 238.883 119.504L239.149 117.522C239.415 117.64 239.652 117.699 239.859 117.759C240.066 117.818 240.273 117.818 240.48 117.818C240.983 117.818 241.368 117.759 241.663 117.611C241.959 117.463 242.166 117.285 242.285 117.049C242.432 116.812 242.521 116.575 242.551 116.339C242.58 116.102 242.61 115.865 242.61 115.629L238.942 105.157Z" fill="#737373"/>
<path d="M132.138 236.73C131.576 238.475 131.102 239.984 130.688 241.285C130.274 242.587 129.889 243.681 129.594 244.569C129.239 245.604 128.943 246.491 128.677 247.231H125.926L122.258 236.7H125.393L125.571 237.233C126.074 238.801 126.488 240.22 126.784 241.492C127.079 242.764 127.286 243.859 127.405 244.776C127.582 243.947 127.848 242.883 128.144 241.64C128.44 240.368 128.825 238.83 129.268 237.026L129.357 236.7L132.138 236.73Z" fill="#737373"/>
<path d="M135.099 242.557C135.217 244.302 136.016 245.19 137.465 245.19C137.938 245.19 138.382 245.101 138.796 244.953C139.21 244.805 139.684 244.569 140.157 244.273L141.192 246.255C140.689 246.698 140.098 247.024 139.417 247.231C138.767 247.438 138.057 247.556 137.288 247.556C136.548 247.556 135.897 247.438 135.247 247.231C134.625 247.024 134.063 246.669 133.62 246.225C133.146 245.781 132.791 245.19 132.525 244.48C132.259 243.77 132.141 242.942 132.141 241.966C132.141 241.344 132.229 240.723 132.377 240.072C132.555 239.422 132.821 238.83 133.176 238.298C133.531 237.765 134.034 237.322 134.655 236.996C135.247 236.641 136.016 236.493 136.903 236.493C137.702 236.493 138.382 236.641 138.944 236.967C139.477 237.262 139.92 237.676 140.246 238.15C140.571 238.623 140.808 239.156 140.926 239.718C141.074 240.309 141.133 240.871 141.133 241.404C141.133 241.64 141.133 241.847 141.103 242.054C141.103 242.261 141.074 242.468 141.044 242.616H135.099V242.557ZM136.962 238.623C136.4 238.623 135.986 238.83 135.69 239.215C135.394 239.599 135.217 240.161 135.128 240.871H138.5C138.5 240.812 138.53 240.753 138.53 240.694C138.53 240.635 138.53 240.575 138.53 240.546C138.53 239.954 138.382 239.481 138.057 239.155C137.731 238.771 137.376 238.623 136.962 238.623Z" fill="#737373"/>
<path d="M148.413 239.037C148.058 238.86 147.615 238.771 147.171 238.771C146.816 238.771 146.52 238.83 146.224 238.978C145.928 239.126 145.633 239.303 145.396 239.511V247.231H142.586V236.73H144.597L145.159 237.647C145.307 237.499 145.455 237.351 145.633 237.203C145.81 237.055 145.988 236.937 146.224 236.819C146.431 236.7 146.698 236.612 146.964 236.553C147.26 236.493 147.585 236.434 147.94 236.434C148.147 236.434 148.354 236.464 148.591 236.493C148.827 236.553 149.064 236.612 149.301 236.73L148.413 239.037Z" fill="#737373"/>
<path d="M153.147 233.979C153.147 234.423 152.999 234.807 152.733 235.103C152.466 235.399 152.082 235.547 151.608 235.547C151.135 235.547 150.751 235.399 150.484 235.103C150.189 234.807 150.07 234.423 150.07 233.979C150.07 233.506 150.218 233.151 150.484 232.855C150.78 232.559 151.135 232.411 151.608 232.411C152.082 232.411 152.466 232.559 152.733 232.855C152.999 233.151 153.147 233.506 153.147 233.979ZM152.999 236.73V247.231H150.189V236.73H152.999Z" fill="#737373"/>
<path d="M161.776 238.741H159.143V247.261H156.333V238.741H154.617V236.73H156.333V235.902C156.333 235.221 156.481 234.659 156.747 234.186C157.013 233.742 157.339 233.358 157.753 233.121C158.167 232.855 158.611 232.678 159.084 232.559C159.557 232.441 160.03 232.382 160.474 232.382C160.947 232.382 161.361 232.441 161.746 232.53C162.131 232.618 162.486 232.737 162.811 232.885L162.278 234.778C162.071 234.689 161.835 234.6 161.598 234.541C161.361 234.482 161.095 234.452 160.799 234.452C160.237 234.452 159.823 234.6 159.527 234.896C159.261 235.192 159.113 235.636 159.113 236.168V236.73H161.776V238.741Z" fill="#737373"/>
<path d="M162.309 236.73H165.445L165.622 237.262C166.125 238.83 166.539 240.28 166.805 241.522C167.101 242.794 167.308 243.859 167.456 244.717C167.634 243.918 167.87 242.912 168.166 241.67C168.462 240.427 168.846 238.889 169.29 237.026L169.379 236.7H172.159C171.597 238.446 171.094 240.043 170.621 241.522C170.148 243.001 169.734 244.273 169.349 245.338C168.906 246.61 168.521 247.763 168.166 248.799C167.989 249.331 167.781 249.775 167.486 250.1C167.19 250.455 166.894 250.721 166.539 250.899C166.184 251.106 165.829 251.224 165.445 251.313C165.06 251.372 164.676 251.431 164.321 251.431C163.818 251.431 163.404 251.402 163.078 251.313C162.753 251.254 162.457 251.165 162.25 251.076L162.516 249.094C162.782 249.213 163.019 249.272 163.226 249.331C163.433 249.39 163.64 249.39 163.847 249.39C164.35 249.39 164.735 249.331 165.031 249.183C165.326 249.035 165.533 248.858 165.652 248.621C165.8 248.384 165.888 248.148 165.918 247.911C165.948 247.675 165.977 247.438 165.977 247.201L162.309 236.73Z" fill="#737373"/>
<path d="M122.055 250.189V249.213H172.075V250.189H122.055Z" fill="#737373"/>
<path d="M146.469 15.7368C147.001 15.5297 147.622 15.4114 148.184 15.6776C158.922 19.6413 169.689 23.4276 180.427 27.3322C204.83 36.2358 229.293 45.0211 253.726 53.8952C263.754 57.5039 273.752 61.1127 283.75 64.7215C284.194 65.2244 284.046 65.9639 284.164 66.585C285.318 78.8608 285.554 91.2549 284.578 103.56C283.277 121.249 279.668 138.761 274.255 155.651C265.529 182.983 251.922 208.747 234.174 231.287C229.855 236.967 225.093 242.291 220.241 247.527C201.843 267.109 180.012 283.615 155.757 295.388C153.035 296.63 150.403 298.109 147.593 299.085C144.102 297.961 140.848 296.186 137.535 294.618C114.552 283.23 93.7568 267.553 76.0383 249.035C74.086 247.113 72.3112 245.072 70.5068 243.031C66.6614 238.889 63.1413 234.423 59.6509 229.986C36.253 199.844 20.1614 164.081 13.1804 126.574C11.9085 120.125 11.1986 113.617 10.4295 107.11C9.18712 93.2368 9.2167 79.2158 10.6957 65.3723C10.6661 64.9286 11.0507 64.7511 11.376 64.6032C26.2844 59.1308 41.2224 53.836 56.1604 48.4524C78.4934 40.3179 100.856 32.3312 123.189 24.1671C130.939 21.357 138.719 18.5765 146.469 15.7368ZM145.729 25.9419C127.715 32.5087 109.641 38.9572 91.5974 45.4944C78.2864 50.3455 64.9457 55.1671 51.5755 59.9591C41.0154 63.8045 30.4552 67.6499 19.8951 71.4362C18.8598 81.9076 19.0669 92.4677 19.8064 102.939C22.0841 132.253 30.5736 160.975 43.8255 187.183C53.6757 206.558 66.1289 224.661 81.0077 240.487C85.1194 245.042 89.4972 249.361 94.1117 253.443C100.826 259.714 108.103 265.393 115.587 270.718C122.657 275.658 129.992 280.242 137.654 284.177C140.641 285.863 143.836 287.194 146.883 288.791C147.829 289.087 148.717 288.347 149.575 287.992C175.191 275.865 198.116 258.235 216.958 237.085C236.747 214.929 252.218 188.929 262.304 161.005C268.694 143.434 272.953 125.065 274.699 106.459C275.734 94.8045 275.823 83.0908 274.994 71.4362C254.821 64.0116 234.558 56.8532 214.385 49.4581C192.229 41.4419 170.044 33.4848 147.918 25.4095C147.149 25.1432 146.409 25.7348 145.729 25.9419Z" fill="#4E4E4E"/>
<path d="M145.501 29.4324C146.359 29.1366 147.247 28.4562 148.193 28.9295C171.059 37.2711 193.954 45.5832 216.878 53.8064C234.508 60.2549 252.227 66.5555 269.886 72.9744C270.507 73.211 271.128 73.3885 271.749 73.5364C272.016 74.6309 271.956 75.7549 272.016 76.8494C273.288 99.6557 270.448 122.639 264.147 144.588C259.444 161.271 252.759 177.363 244.447 192.567C237.614 205.138 229.509 217.03 220.428 228.063C211.347 239.215 201.023 249.361 189.96 258.531C180.14 266.517 169.639 273.705 158.517 279.769C155.204 281.662 151.743 283.289 148.341 285.034C147.956 285.212 147.513 285.449 147.099 285.242C133.196 278.704 120.092 270.54 108.053 261.015C103.882 257.85 99.9479 254.36 96.0729 250.81C81.1053 237.174 68.1492 221.408 57.3229 204.31C43.6864 182.717 33.6587 158.816 27.8906 133.939C24.0748 117.552 22.2112 100.721 22.5662 83.919C22.5662 80.5173 22.7732 77.1156 22.862 73.7139C39.6931 67.5612 56.5834 61.5269 73.444 55.4333C89.2694 49.6652 105.065 43.9562 120.891 38.2473C129.143 35.4076 137.278 32.3017 145.501 29.4324ZM146.122 33.1891C131.865 38.336 117.578 43.4238 103.32 48.6003C89.0624 53.836 74.7456 58.9238 60.4583 64.1003C49.2179 68.1232 38.0366 72.3532 26.737 76.2578C26.5595 77.3522 26.5299 78.4763 26.5003 79.5707C25.6129 102.466 28.8076 125.479 35.4335 147.398C38.1253 156.361 41.4679 165.146 45.195 173.724C54.5423 194.578 66.8772 214.131 82.0519 231.287C100.214 251.905 122.281 269.239 147.039 281.219C147.394 281.278 147.749 281.248 148.075 281.1C180.968 265.097 209.01 239.836 229.598 209.723C250.836 178.546 264.532 142.074 267.756 104.418C267.963 100.277 268.407 96.1652 268.407 91.9944C268.496 86.7883 268.436 81.5822 268.2 76.4057C267.815 76.1394 267.401 76.0211 266.987 75.8436C262.846 74.3942 258.705 72.8856 254.593 71.3475C230.81 62.7101 206.969 54.1614 183.186 45.524C171.443 41.294 159.7 37.0937 147.956 32.8045C147.306 32.4791 146.684 32.982 146.122 33.1891Z" fill="#4E4E4E"/>
<path d="M164.784 180.321V215.639H129.583V180.321H164.784ZM169.812 175.292H124.555V220.668H169.812V175.292Z" fill="#737373"/>
<path d="M158.331 185.734L142.742 201.293L135.998 194.549L132.359 198.187L139.133 204.931L142.624 208.422L161.821 189.224L158.331 185.734Z" fill="#737373"/>
<path d="M113.787 58.1251C135.735 58.1251 157.654 58.1251 179.602 58.1251C179.573 69.1289 179.662 80.1327 179.573 91.1661C160.139 91.1069 140.675 91.1661 121.241 91.1365C121.241 89.8941 121.241 88.6814 121.27 87.4686C139.492 87.5277 157.713 87.439 175.905 87.4981C175.994 78.9199 175.905 70.3417 175.934 61.7634C156.441 61.7634 136.948 61.7634 117.455 61.7634C117.455 71.5545 117.455 81.3455 117.455 91.1365C116.242 91.1365 114.999 91.1365 113.787 91.1365C113.787 80.1327 113.757 69.1289 113.787 58.1251Z" fill="#3F3F3F"/>
<path d="M149.258 68.1527C150.323 66.7033 152.217 66.1117 153.962 66.0526C159.937 66.0526 165.912 66.0526 171.887 66.0526C171.089 67.3245 170.083 68.4781 169.284 69.7501C164.67 69.8388 160.085 69.7205 155.47 69.8092C154.672 69.8092 153.607 70.0755 153.577 71.0516C153.311 72.1756 154.583 72.6785 155.5 72.6489C159.316 72.7081 163.161 72.6489 166.977 72.6785C168.633 72.7968 170.408 73.3588 171.355 74.8083C172.272 76.1985 171.917 77.9438 171.917 79.4819C171.532 81.9075 168.9 83.0316 166.711 83.1203C160.676 83.1203 154.642 83.1203 148.637 83.1203C148.637 81.8484 148.637 80.606 148.667 79.334C153.873 79.3636 159.109 79.334 164.315 79.3636C164.995 79.334 165.705 79.3932 166.326 79.0974C167.243 78.7129 167.302 77.2043 166.415 76.7606C165.853 76.4352 165.202 76.4352 164.611 76.4056C160.972 76.4056 157.334 76.4352 153.696 76.4056C151.536 76.3464 148.992 75.1928 148.667 72.8264C148.637 71.2882 148.253 69.5134 149.258 68.1527Z" fill="#3F3F3F"/>
<path d="M121.062 66.0822C127.097 66.0526 133.131 66.0822 139.136 66.0822C141.295 66.1413 143.81 67.2654 144.313 69.5726C144.401 71.17 144.342 72.7969 144.372 74.3942C144.401 75.607 143.691 76.731 142.686 77.3522C141.443 78.1213 139.964 78.4171 138.544 78.4171C135.32 78.3875 132.125 78.4171 128.901 78.4171C129.789 77.1452 130.676 75.9028 131.563 74.6308C133.486 74.6308 135.438 74.6604 137.361 74.6308C138.249 74.6604 139.225 74.128 139.343 73.1814C139.461 72.294 139.521 71.1995 138.84 70.4896C138.278 69.9276 137.45 69.898 136.74 69.8684C133.161 69.8684 129.582 69.8684 126.002 69.8684C126.032 74.3055 125.973 78.7425 126.032 83.1795C124.375 83.2683 122.719 83.2091 121.092 83.2091C121.092 77.4705 121.062 71.7616 121.062 66.0822Z" fill="#3F3F3F"/>
<path d="M207.234 126.307C211.553 130.034 215.842 133.791 220.131 137.518C220.131 134.057 220.131 130.596 220.131 127.136C221.048 127.136 221.965 127.136 222.912 127.136C222.941 132.638 222.912 138.139 222.941 143.641C218.564 140.033 214.363 136.187 210.015 132.519C210.015 135.98 210.015 139.471 210.015 142.931C209.098 142.931 208.151 142.931 207.234 142.902C207.234 137.341 207.234 131.839 207.234 126.307Z" fill="#454545"/>
<path d="M46.6719 127.165C50.3694 127.106 54.0965 127.165 57.794 127.136C59.7463 127.077 61.669 128.437 62.2015 130.33C62.6156 131.75 62.4085 133.407 61.4915 134.59C60.6929 135.655 59.4209 136.365 58.1194 136.365C55.2205 136.394 52.3513 136.365 49.4524 136.365C49.4524 138.524 49.4524 140.713 49.4524 142.872C48.5354 142.872 47.5889 142.872 46.6719 142.872C46.6719 137.637 46.7015 132.401 46.6719 127.165ZM49.4524 129.946C49.4524 131.159 49.4524 132.371 49.4524 133.584C52.2329 133.584 55.0135 133.614 57.8236 133.584C59.066 133.614 60.0125 132.135 59.4209 131.04C59.0955 130.271 58.2673 129.916 57.4686 129.975C54.8064 129.916 52.1146 129.946 49.4524 129.946Z" fill="#454545"/>
<path d="M71.4844 127.136C75.3002 127.136 79.0865 127.136 82.9023 127.136C85.0617 127.195 87.0435 129.029 87.1914 131.218C87.4281 133.052 86.4815 134.974 84.8546 135.862C83.6714 136.572 82.222 136.365 80.8909 136.394C83.0502 138.583 85.2391 140.713 87.3985 142.902C86.097 142.902 84.7659 142.902 83.4643 142.902C80.4176 139.885 77.3708 136.838 74.2945 133.821C74.2649 136.838 74.2649 139.855 74.2945 142.872C73.3775 142.902 72.4309 142.902 71.514 142.902C71.4844 137.637 71.514 132.371 71.4844 127.136ZM74.2649 129.946C74.2649 131.159 74.2649 132.371 74.2649 133.584C77.075 133.584 79.8556 133.614 82.6657 133.555C83.4939 133.555 84.1743 132.874 84.3222 132.076C84.5292 131.04 83.6714 129.975 82.6065 129.975C79.826 129.887 77.0454 129.975 74.2649 129.946Z" fill="#454545"/>
<path d="M96.25 127.047C101.486 127.047 106.721 127.047 111.957 127.047C111.957 127.993 111.987 128.97 111.927 129.916C107.638 129.857 103.349 129.916 99.0601 129.887C99.0601 131.099 99.0601 132.312 99.0601 133.555C103.349 133.555 107.668 133.555 111.957 133.555C111.957 134.471 111.957 135.388 111.957 136.335C107.638 136.335 103.349 136.335 99.0601 136.335C99.0601 137.548 99.0897 138.761 99.0305 139.973C103.349 140.033 107.638 139.973 111.957 140.003C111.957 140.92 111.957 141.867 111.957 142.784C106.721 142.784 101.486 142.784 96.25 142.784C96.25 137.548 96.25 132.283 96.25 127.047Z" fill="#454545"/>
<path d="M121.331 132.105C121.094 129.709 123.047 127.313 125.502 127.224C127.868 127.165 130.264 127.195 132.631 127.195C135.086 127.165 137.156 129.413 137.097 131.839C136.18 131.839 135.263 131.839 134.346 131.839C134.198 130.981 133.607 130.064 132.631 130.064C130.442 130.034 128.282 130.064 126.093 130.034C125.176 129.946 124.289 130.656 124.171 131.543C123.993 132.519 124.792 133.555 125.798 133.584C128.075 133.643 130.353 133.555 132.601 133.614C134.257 133.643 135.855 134.649 136.565 136.128C137.57 138.11 136.979 140.772 135.115 142.044C133.34 143.316 131.063 142.784 129.022 142.902C127.099 142.813 124.881 143.316 123.224 142.074C121.952 141.245 121.301 139.737 121.242 138.258C122.159 138.258 123.076 138.258 123.993 138.258C124.171 139.145 124.792 140.062 125.768 140.062C127.927 140.092 130.116 140.062 132.276 140.062C133.133 140.121 133.932 139.471 134.11 138.642C134.346 137.666 133.577 136.572 132.571 136.513C130.205 136.424 127.839 136.542 125.502 136.453C123.313 136.305 121.361 134.324 121.331 132.105Z" fill="#454545"/>
<path d="M146.33 131.484C146.36 129.206 148.371 127.136 150.679 127.136C152.956 127.106 155.204 127.136 157.482 127.136C159.286 127.076 161.032 128.23 161.742 129.887C162.156 130.774 162.096 131.75 162.126 132.697C161.209 132.726 160.263 132.726 159.346 132.697C159.493 131.573 159.109 130.123 157.807 129.975C155.648 129.857 153.459 129.946 151.3 129.946C150.235 129.827 149.229 130.685 149.259 131.75C149.229 133.939 149.229 136.098 149.259 138.287C149.259 139.293 150.235 140.151 151.241 140.033C153.429 140.003 155.618 140.062 157.778 140.003C159.079 139.855 159.434 138.376 159.316 137.311C160.233 137.311 161.15 137.311 162.067 137.311C162.067 138.346 162.067 139.411 161.564 140.358C160.825 141.896 159.168 142.902 157.452 142.872C155.175 142.872 152.927 142.902 150.649 142.843C148.401 142.813 146.36 140.831 146.301 138.583C146.271 136.217 146.271 133.85 146.33 131.484Z" fill="#454545"/>
<path d="M170.875 127.136C171.792 127.136 172.739 127.136 173.656 127.136C173.626 132.401 173.685 137.666 173.626 142.902C172.709 142.872 171.792 142.872 170.875 142.872C170.875 137.637 170.905 132.371 170.875 127.136Z" fill="#454545"/>
<path d="M182.444 127.076C187.679 127.017 192.915 127.076 198.151 127.047C198.151 127.993 198.151 128.94 198.151 129.887C193.862 129.887 189.543 129.887 185.254 129.887C185.254 131.099 185.254 132.312 185.254 133.555C189.572 133.584 193.862 133.525 198.18 133.584C198.18 134.501 198.18 135.418 198.151 136.335C193.862 136.305 189.572 136.335 185.283 136.305C185.254 137.518 185.254 138.761 185.254 139.973C189.543 139.973 193.832 140.003 198.121 139.973C198.151 140.89 198.151 141.807 198.151 142.724C192.915 142.784 187.65 142.813 182.414 142.695C182.473 137.518 182.473 132.283 182.444 127.076Z" fill="#454545"/>
<path d="M232.616 127.136C237.792 127.136 242.969 127.136 248.146 127.136C248.146 128.053 248.146 128.97 248.146 129.916C246.045 129.916 243.975 129.946 241.875 129.887C241.786 134.205 241.875 138.494 241.845 142.813C240.928 142.813 239.981 142.813 239.064 142.813C239.064 138.524 239.064 134.205 239.064 129.916C236.905 129.916 234.746 129.916 232.616 129.916C232.586 128.97 232.586 128.053 232.616 127.136Z" fill="#454545"/>
</svg>
