<svg width="32" height="32" viewBox="0 0 32 32" fill="none" xmlns="http://www.w3.org/2000/svg">
<rect width="32" height="32" rx="4" fill="#DEDEFB"/>
<path d="M18.6641 13.3333C19.7249 13.3333 20.7423 13.7547 21.4925 14.5048C22.2426 15.255 22.6641 16.2724 22.6641 17.3333V21.9999H19.9974V17.3333C19.9974 16.9796 19.8569 16.6405 19.6069 16.3904C19.3568 16.1404 19.0177 15.9999 18.6641 15.9999C18.3104 15.9999 17.9713 16.1404 17.7213 16.3904C17.4712 16.6405 17.3307 16.9796 17.3307 17.3333V21.9999H14.6641V17.3333C14.6641 16.2724 15.0855 15.255 15.8356 14.5048C16.5858 13.7547 17.6032 13.3333 18.6641 13.3333Z" stroke="#4745B7" stroke-width="1.33333" stroke-linecap="round" stroke-linejoin="round"/>
<path d="M12.0026 14H9.33594V22H12.0026V14Z" stroke="#4745B7" stroke-width="1.33333" stroke-linecap="round" stroke-linejoin="round"/>
<path d="M10.6693 11.9999C11.4057 11.9999 12.0026 11.403 12.0026 10.6666C12.0026 9.93021 11.4057 9.33325 10.6693 9.33325C9.93289 9.33325 9.33594 9.93021 9.33594 10.6666C9.33594 11.403 9.93289 11.9999 10.6693 11.9999Z" stroke="#4745B7" stroke-width="1.33333" stroke-linecap="round" stroke-linejoin="round"/>
</svg>
