<svg width="162" height="40" viewBox="0 0 162 40" fill="none" xmlns="http://www.w3.org/2000/svg">
<g clip-path="url(#clip0_6385_58072)">
<path d="M107.806 10.3896C109.067 10.3896 110.238 10.3513 111.401 10.4199C111.654 10.4343 111.989 10.7935 112.105 11.0681C113.96 15.4535 115.785 19.8532 117.62 24.2482C117.747 24.5563 117.885 24.8596 118.097 25.3497C118.316 24.8724 118.461 24.577 118.587 24.2753C120.42 19.8803 122.257 15.487 124.069 11.0824C124.278 10.5748 124.521 10.3465 125.104 10.372C126.215 10.4231 127.332 10.3864 128.51 10.3864V29.6904H125.619V15.5301L125.468 15.5029C125.349 15.7552 125.222 16.0042 125.113 16.2613C123.32 20.5014 121.518 24.7383 119.756 28.9911C119.518 29.5658 119.256 29.8452 118.605 29.7686C118.055 29.7047 117.493 29.7558 116.908 29.7558C114.914 24.9426 112.931 20.1565 110.946 15.3704L110.78 15.3848V29.6999H107.805V10.3896H107.806Z" fill="#C6C6C8"/>
<path d="M68.4375 10.2251C71.8028 10.423 75.2047 9.76851 78.4742 10.9547C82.4972 12.4138 84.8823 15.9403 84.7881 20.2043C84.6715 25.4486 80.8673 29.379 75.5975 29.5929C73.2379 29.6887 70.8704 29.6089 68.4391 29.6089V10.2251H68.4375ZM71.26 13.1801V26.9381C72.5068 26.9381 73.6961 26.9524 74.8855 26.9301C75.3069 26.9221 75.73 26.8487 76.145 26.7688C79.1096 26.2005 81.4196 23.6877 81.6096 20.8413C81.8331 17.4824 80.1169 14.66 77.2625 13.6526C75.3053 12.9614 73.2922 13.2567 71.26 13.1801Z" fill="#C6C6C8"/>
<path d="M14.9199 0.017445C14.5144 0.786922 14.1999 1.39516 13.8775 1.99861C10.8091 7.74254 7.7488 13.4897 4.65333 19.2192C4.33724 19.8051 4.3564 20.2314 4.6661 20.8077C7.94356 26.8901 11.1907 32.9884 14.4458 39.0819C14.5799 39.3342 14.7028 39.5928 14.8944 39.9743C13.7067 39.9743 12.6323 39.9935 11.5595 39.9536C11.3934 39.9472 11.1859 39.6934 11.0853 39.5066C7.68175 33.1624 4.28456 26.8134 0.912909 20.4517C0.782003 20.2058 0.793178 19.7684 0.925681 19.5194C4.28775 13.1832 7.66898 6.85653 11.0757 0.542669C11.2114 0.290434 11.6185 0.0605485 11.9139 0.0413914C12.8621 -0.0224656 13.8184 0.017445 14.9199 0.017445Z" fill="#C6C6C8"/>
<path d="M33.9688 0.0222757C35.1389 0.0222757 36.1718 -0.00167064 37.2031 0.0430292C37.4011 0.0510114 37.6613 0.285686 37.7682 0.482046C41.1894 6.84859 44.5977 13.2199 47.9854 19.604C48.1035 19.8259 48.0795 20.2234 47.9582 20.4517C44.5818 26.8103 41.1862 33.1608 37.7762 39.5018C37.6629 39.7142 37.3659 39.9504 37.144 39.96C36.1399 40.0095 35.1325 39.9808 33.9815 39.9808C34.1587 39.6104 34.2785 39.3358 34.4189 39.0724C37.6884 32.9565 40.9547 26.8374 44.2449 20.7311C44.5243 20.2107 44.5403 19.8195 44.2529 19.2863C40.9611 13.1816 37.698 7.06251 34.4285 0.945009C34.2928 0.692774 34.1731 0.43096 33.9703 0.0190829L33.9688 0.0222757Z" fill="#C6C6C8"/>
<path d="M161.185 29.6903C161.057 29.7238 161.031 29.7366 161.006 29.7366C160.077 29.7366 158.945 30.0607 158.279 29.644C157.634 29.2401 157.438 28.0875 157.098 27.243C156.279 25.2028 156.292 25.198 154.119 25.198C151.994 25.198 149.871 25.2267 147.748 25.182C147.039 25.1676 146.645 25.3305 146.416 26.0616C146.078 27.144 145.589 28.1785 145.192 29.2417C145.053 29.6105 144.868 29.7829 144.446 29.7654C143.653 29.7302 142.856 29.7558 141.977 29.7558C142.08 29.4493 142.151 29.2018 142.246 28.9655C144.671 23.0189 147.107 17.0754 149.512 11.1191C149.735 10.5652 149.997 10.3337 150.604 10.3768C151.501 10.4406 152.612 10.1102 153.244 10.5284C153.873 10.9435 154.044 12.0706 154.382 12.8991C156.561 18.2344 158.731 23.5712 160.902 28.9097C161 29.1491 161.079 29.395 161.188 29.6919L161.185 29.6903ZM151.577 13.4866L151.384 13.4643C150.189 16.4608 148.993 19.4572 147.767 22.5304H155.185C153.958 19.4525 152.768 16.4687 151.577 13.4866Z" fill="#C6C6C8"/>
<path d="M102.419 10.4343V13.0493H92.9714C92.9714 14.7782 92.9539 16.4385 93.0018 18.0972C93.0066 18.2376 93.4392 18.4787 93.6771 18.4819C95.9616 18.5106 98.2476 18.4995 100.532 18.4995C100.821 18.4995 101.112 18.4995 101.472 18.4995V21.1767H92.9603C92.9603 21.6907 92.9603 22.1297 92.9603 22.5687C92.9603 23.7868 92.9954 25.0081 92.9475 26.2246C92.9204 26.9078 93.179 27.0707 93.8207 27.0627C96.3447 27.0323 98.8702 27.0499 101.394 27.0499C101.71 27.0499 102.026 27.0499 102.402 27.0499V29.7159H89.9766V10.4343H102.419Z" fill="#C6C6C8"/>
<path d="M22.2034 0.0174489C21.6973 2.56215 21.22 4.97434 20.7347 7.38495C19.9221 11.4303 19.0217 15.4629 18.3432 19.5305C18.1581 20.6417 18.5875 21.8725 18.8174 23.0331C19.8838 28.4322 20.9789 33.8249 22.0613 39.2192C22.1028 39.4252 22.114 39.6375 22.1539 39.9743C21.1545 39.9743 20.1839 40.0031 19.2197 39.944C19.0632 39.9344 18.8509 39.5465 18.8014 39.3054C17.9729 35.2346 17.1683 31.1605 16.3557 27.0864C15.931 24.9584 15.3899 22.8463 15.1233 20.6991C14.986 19.5896 15.2558 18.4035 15.4745 17.278C16.5505 11.7735 17.6791 6.28022 18.7631 0.777347C18.8748 0.210616 19.0728 -0.0400224 19.6858 0.00148464C20.4745 0.0541666 21.2711 0.014256 22.2002 0.014256L22.2034 0.0174489Z" fill="#C6C6C8"/>
<path d="M26.6673 39.9856C27.0009 38.295 27.3026 36.7416 27.6155 35.1899C28.5941 30.3176 29.6542 25.4597 30.5003 20.5651C30.7046 19.3821 30.2624 18.0667 30.0197 16.831C28.9645 11.4623 27.871 6.10147 26.7966 0.735892C26.7567 0.536339 26.7646 0.325611 26.7423 0.0206938C27.7145 0.0206938 28.6388 -0.0096383 29.5568 0.047833C29.734 0.0590079 29.9926 0.392661 30.0373 0.612967C31.0702 5.66246 32.0775 10.7183 33.0897 15.7726C33.1886 16.2643 33.2302 16.78 33.4026 17.2445C34.3125 19.6886 33.5239 22.0466 33.0561 24.4141C32.0775 29.3678 31.0558 34.3119 30.082 39.2656C29.9719 39.8259 29.7659 40.0223 29.204 39.9936C28.4137 39.9521 27.6203 39.9824 26.6641 39.9824L26.6673 39.9856Z" fill="#C6C6C8"/>
<path d="M61.8933 29.7175H59.0469V10.4614H61.8933V29.7159V29.7175Z" fill="#C6C6C8"/>
<path d="M135.078 10.4136H137.84V29.708H135.078V10.4136Z" fill="#C6C6C8"/>
</g>
<defs>
<clipPath id="clip0_6385_58072">
<rect width="160.362" height="40" fill="white" transform="translate(0.820312)"/>
</clipPath>
</defs>
</svg>
