<svg width="189" height="49" viewBox="0 0 189 49" fill="none" xmlns="http://www.w3.org/2000/svg">
<g clip-path="url(#clip0_5279_63193)">
<path d="M0.5 13.1491C0.5 13.1491 21.0696 10.4872 21.6499 10.3929C22.5407 10.2474 23.3306 10.0772 24.0681 9.8741C25.7318 9.41823 27.2632 8.72261 28.6191 7.80561C29.9199 6.93447 31.129 5.66643 32.3277 4.27521C33.0888 3.38965 33.8892 2.23557 34.6359 1.12207V0.583618C33.7504 1.89492 32.8779 3.02545 31.9805 4.02236C30.7911 5.34677 29.5439 6.42886 28.2719 7.24106C26.9593 8.08732 25.483 8.71741 23.8808 9.11695C23.1629 9.29773 22.3953 9.44444 21.5307 9.56496C20.9622 9.64482 20.3753 9.70648 19.808 9.76543C19.5814 9.79037 0.5 11.8142 0.5 11.8142V13.1491Z" fill="#8C8C90"/>
<path d="M28.0846 9.70029C26.7969 10.4404 25.31 10.9828 23.6647 11.3103C22.9625 11.4531 22.1962 11.5683 21.3237 11.6627C20.8102 11.7189 20.294 11.7635 19.7766 11.8081C19.4976 11.8316 19.2185 11.8565 18.9395 11.8814C12.6358 12.4473 6.36486 13.0486 0.5 13.6172V14.952C6.41071 14.2394 12.7262 13.4836 19.0273 12.7709C19.3076 12.7382 19.5879 12.7067 19.8683 12.6766C20.3844 12.6202 20.9019 12.5626 21.4193 12.4945C22.3167 12.3753 23.1014 12.2377 23.8179 12.0753C25.5275 11.6928 27.0707 11.0902 28.4056 10.2819C29.7313 9.48675 30.9024 8.37195 32.1626 7.00955C32.9473 6.16198 33.8197 4.96465 34.6372 3.84068V3.35071C33.6743 4.65546 32.7613 5.75196 31.8587 6.6873C30.6286 7.96192 29.3592 8.97455 28.0846 9.70029Z" fill="#8C8C90"/>
<path d="M31.6845 9.37344C30.4295 10.5249 29.1195 11.4301 27.7899 12.0642C26.489 12.6917 25.0349 13.1318 23.3411 13.4095C22.6429 13.5261 21.8831 13.6205 21.0198 13.6991L0.5 15.3837V16.7147L18.7404 14.7798L21.0997 14.5322C21.9892 14.4288 22.7647 14.3134 23.4695 14.1798C25.2236 13.8484 26.7288 13.3545 28.0689 12.6681C29.4391 11.9751 30.8081 10.8223 32.0814 9.60141C32.9355 8.78266 33.7582 7.72546 34.6372 6.6172V6.1731C33.6219 7.43593 32.6526 8.48657 31.6845 9.37344Z" fill="#8C8C90"/>
<path d="M26.7222 16.287C25.5275 16.9551 24.6341 17.3403 22.9285 17.5184C21.8975 17.6298 20.8377 17.6822 19.812 17.7332C19.3168 17.7581 18.8203 17.783 18.3238 17.8145C15.2244 17.9913 12.1799 18.1878 9.07392 18.3896L0.5 18.9672V20.2982L9.1604 19.5044C11.9586 19.2528 15.21 18.9633 18.3841 18.704L20.6923 18.5258C21.5936 18.4564 22.3324 18.383 23.0162 18.294C24.7716 18.0673 26.2716 17.7123 27.5999 17.2106C29.0304 16.6761 30.3797 15.8456 31.7303 14.8683C32.9486 13.988 34.6346 12.2522 34.6359 12.23V11.7596C33.5342 12.8338 32.9002 13.4378 31.6937 14.233C30.2514 15.1827 27.7938 15.6883 26.7222 16.287Z" fill="#8C8C90"/>
<path d="M27.1584 18.8171C25.8642 19.197 24.4074 19.4538 22.7044 19.6019C22.0141 19.6621 21.27 19.708 20.429 19.742L18.1339 19.8428C12.4315 20.1074 6.75524 20.4035 0.5 20.7349V22.062C6.47621 21.5996 12.3319 21.1502 18.1863 20.7337L20.4735 20.5778C21.3578 20.5188 22.0901 20.4559 22.7791 20.3787C24.524 20.1835 26.0175 19.8821 27.3432 19.4577C28.8117 18.9926 30.2435 18.318 31.598 17.4534C32.5976 16.8168 33.5984 16.057 34.6359 15.1518V15.1282C33.4923 16.1041 32.4024 16.3216 31.3164 16.9766C29.9854 17.7835 28.5863 18.4019 27.1584 18.8171Z" fill="#8C8C90"/>
<path d="M26.9475 21.023C25.6441 21.3282 24.2306 21.5234 22.5001 21.64C21.8333 21.6845 21.1154 21.7173 20.2416 21.7448L17.9688 21.826C12.2415 22.0421 6.43429 22.2911 0.5 22.5491V23.8761C6.3963 23.474 12.1799 23.0823 18.0133 22.7181L20.281 22.5819C21.1704 22.5307 21.8949 22.4797 22.5616 22.4181C24.3236 22.2557 25.7659 22.0185 27.0995 21.674C28.5955 21.2889 30.0496 20.723 31.4211 19.9946C32.4822 19.4326 33.5407 18.7567 34.6372 17.9419V17.3746C33.4516 18.2301 32.3146 18.9283 31.1775 19.4968C29.8295 20.1714 28.4068 20.685 26.9475 21.023Z" fill="#8C8C90"/>
<path d="M26.7524 23.1857C25.4437 23.4254 24.0354 23.5787 22.318 23.6664C21.6722 23.7005 20.9805 23.7241 20.0766 23.745L0.5 24.2743V25.6013L17.8588 24.6948L20.1081 24.5808C20.9858 24.5389 21.7036 24.497 22.3678 24.4459C24.1088 24.3123 25.5406 24.121 26.8742 23.842C28.3885 23.5276 29.8584 23.0691 31.2417 22.4796C32.3565 22.0067 33.4726 21.4303 34.6359 20.7294V20.1963C33.394 20.9194 32.2124 21.4984 31.0387 21.9634C29.675 22.5058 28.2327 22.9171 26.7524 23.1857Z" fill="#8C8C90"/>
<path d="M26.5991 25.3576C24.1965 25.6786 21.7246 25.7152 19.3325 25.7506C18.7849 25.7579 18.236 25.7663 17.6885 25.7782L0.5 26.0873V27.4117L17.7186 26.6703C18.2636 26.6455 18.8111 26.6231 19.3587 26.6022C21.7665 26.5052 24.2568 26.4056 26.6921 26.0192C28.2326 25.7768 29.7156 25.4166 31.1002 24.9516C32.2465 24.5677 33.4333 24.0712 34.6359 23.4843V22.9761C33.3718 23.5643 32.1286 24.0542 30.9352 24.421C29.5675 24.8429 28.1095 25.1586 26.5991 25.3577" fill="#8C8C90"/>
<path d="M26.4628 27.5433C24.2122 27.7293 21.9093 27.7293 19.681 27.7293C18.988 27.7293 18.295 27.7293 17.602 27.7345C11.9075 27.7595 6.25875 27.8066 0.5 27.8563V29.1808C5.98496 28.9948 11.8026 28.8009 17.6217 28.6279C18.312 28.6044 19.0024 28.5874 19.6941 28.569C21.9342 28.5127 24.2502 28.4551 26.5244 28.2088C28.1121 28.0385 29.5583 27.7883 30.943 27.4464C32.1508 27.149 33.3914 26.7534 34.6372 26.2779V25.7905C33.3508 26.2516 32.0696 26.6289 30.8212 26.904C29.4496 27.2066 28.0243 27.4149 26.4628 27.5433Z" fill="#8C8C90"/>
<path d="M26.3751 29.6977C25.4371 29.7344 24.4218 29.7527 23.2703 29.7527C22.8354 29.7527 22.3992 29.7506 21.9656 29.7464L17.5352 29.6928C14.513 29.6705 11.5013 29.6652 8.67568 29.6627L0.5 29.6701V30.9931L8.69532 30.7796C11.5105 30.7102 14.53 30.6382 17.5443 30.5844L21.9708 30.5254C23.1852 30.5071 24.7873 30.4704 26.4104 30.3643C28.0007 30.2608 29.4483 30.1023 30.8356 29.8809C32.084 29.6818 33.3599 29.4132 34.6359 29.087V28.618C33.3246 28.9193 32.0211 29.1617 30.757 29.3307C29.3776 29.5154 27.9444 29.6346 26.3751 29.6975" fill="#8C8C90"/>
<path d="M21.9145 31.7799L17.4998 31.7327C11.8668 31.6528 6.24041 31.5506 0.5 31.4432V32.7676C5.97841 32.7323 11.7817 32.6903 17.5038 32.6261L21.9211 32.5606C23.4092 32.5344 24.8673 32.507 26.341 32.4585C29.3763 32.3615 32.0958 32.1479 34.6359 31.8113V31.3502C32.0853 31.6253 29.3632 31.7694 26.3253 31.789C24.8568 31.8021 23.3856 31.7922 21.9145 31.7796" fill="#8C8C90"/>
<path d="M34.6359 34.1217L0.5 33.2559V34.5802H34.6359V34.1217Z" fill="#8C8C90"/>
<path d="M31.5627 11.8752C30.2658 12.9166 29.2649 13.6568 27.6772 14.2869C26.2951 14.8371 24.8109 15.0611 23.1145 15.293C22.0233 15.4462 20.8822 15.6716 19.7923 15.7449C19.3443 15.775 18.8963 15.8038 18.4496 15.8392L0.5 17.1479V18.4763L18.5216 16.7287L20.8587 16.5099C21.7246 16.4274 22.4949 16.3331 23.2101 16.2165C24.9563 15.9362 26.4615 15.5091 27.8108 14.9078C29.2099 14.2908 30.626 13.2795 31.9426 12.1726C32.8373 11.4206 33.6993 10.4748 34.6359 9.44121V8.9657C33.5028 10.1368 32.5622 11.0735 31.5627 11.8752Z" fill="#8C8C90"/>
<path d="M14.6875 47.2758H44.5895V33.978H14.6875V47.2758Z" fill="#F2F2F2"/>
<path fill-rule="evenodd" clip-rule="evenodd" d="M44.5947 14.573H14.6875V34.5793H44.5947V14.573ZM29.9654 17.4181H31.0055L30.1671 18.0718L30.4933 19.108L29.6575 18.47L28.8217 19.108L29.1519 18.0718L28.3056 17.4181H29.3431L29.6575 16.4068L29.9654 17.4181ZM31.0448 30.76H30.002L29.6955 29.7879L29.3811 30.76H28.3423L29.1898 31.3901L28.861 32.3857L29.6955 31.7726L30.5313 32.3857L30.2051 31.3901L31.0448 30.76ZM33.3021 29.8766H34.3449L33.5052 30.5054L33.8314 31.5022L32.9956 30.8866L32.1611 31.5022L32.4899 30.5054L31.6424 29.8766H32.6812L32.9956 28.9032L33.3021 29.8766ZM34.3449 18.3081H33.3021L32.9956 17.3361L32.6812 18.3081H31.6424L32.4899 18.9369L32.1611 19.9338L32.9956 19.3194L33.8314 19.9338L33.5052 18.9369L34.3449 18.3081ZM35.7531 20.7582H36.7932L35.9549 21.3856L36.281 22.3838L35.4453 21.7695L34.6121 22.3838L34.9409 21.3856L34.0934 20.7582H35.1309L35.4453 19.7848L35.7531 20.7582ZM36.7932 27.4597H35.7531L35.4453 26.4864L35.1309 27.4597H34.0934L34.9409 28.0898L34.6121 29.088L35.4453 28.4723L36.281 29.088L35.9549 28.0898L36.7932 27.4597ZM36.6711 24.0579H37.7138L36.8741 24.6866L37.2003 25.6849L36.3645 25.0691L35.5301 25.6849L35.8589 24.6866L35.0113 24.0579H36.0488L36.3645 23.0858L36.6711 24.0579ZM27.6402 18.3163H26.6L26.2922 17.3443L25.9778 18.3163H24.9403L25.7865 18.9464L25.4564 19.9433L26.2922 19.3276L27.128 19.9433L26.8018 18.9464L27.6402 18.3163ZM24.2179 20.7663H25.2607L24.421 21.3951L24.7459 22.3933L23.9114 21.7776L23.0769 22.3933L23.4044 21.3951L22.5582 20.7663H23.597L23.9114 19.7942L24.2179 20.7663ZM24.3759 24.0661H23.3344L23.0279 23.0941L22.7135 24.0661H21.676L22.5209 24.6949L22.1921 25.6931L23.0279 25.0787L23.8624 25.6931L23.5375 24.6949L24.3759 24.0661ZM24.2179 27.468H25.2607L24.421 28.0981L24.7459 29.0963L23.9114 28.4806L23.0769 29.0963L23.4044 28.0981L22.5582 27.468H23.597L23.9114 26.4973L24.2179 27.468ZM27.6751 29.8848H26.6349L26.3271 28.9115L26.0127 29.8848H24.9752L25.8214 30.5136L25.4913 31.5105L26.3271 30.8961L27.1602 31.5105L26.8367 30.5136L27.6751 29.8848Z" fill="#545458"/>
<path d="M29.9645 17.4181H31.0046L30.1662 18.0717L30.4924 19.108L29.6566 18.47L28.8209 19.108L29.151 18.0717L28.3047 17.4181H29.3422L29.6566 16.4067L29.9645 17.4181Z" fill="#F2F2F2"/>
<path d="M30.0035 30.7599H31.0463L30.2066 31.39L30.5327 32.3856L29.697 31.7725L28.8625 32.3856L29.1913 31.39L28.3438 30.7599H29.3826L29.697 29.7878L30.0035 30.7599Z" fill="#F2F2F2"/>
<path d="M33.3043 29.8765H34.3471L33.5073 30.5053L33.8335 31.5022L32.9978 30.8866L32.1633 31.5022L32.4921 30.5053L31.6445 29.8765H32.6833L32.9978 28.9032L33.3043 29.8765Z" fill="#F2F2F2"/>
<path d="M33.3043 18.3079H34.3471L33.5073 18.9367L33.8335 19.9337L32.9978 19.3192L32.1633 19.9337L32.4921 18.9367L31.6445 18.3079H32.6833L32.9978 17.3359L33.3043 18.3079Z" fill="#F2F2F2"/>
<path d="M35.7535 20.7581H36.7936L35.9553 21.3856L36.2814 22.3838L35.4456 21.7694L34.6125 22.3838L34.9413 21.3856L34.0938 20.7581H35.1313L35.4456 19.7848L35.7535 20.7581Z" fill="#F2F2F2"/>
<path d="M35.7535 27.4596H36.7936L35.9553 28.0897L36.2814 29.088L35.4456 28.4722L34.6125 29.088L34.9413 28.0897L34.0938 27.4596H35.1313L35.4456 26.4863L35.7535 27.4596Z" fill="#F2F2F2"/>
<path d="M36.6715 24.0578H37.7142L36.8745 24.6865L37.2007 25.6848L36.3649 25.069L35.5305 25.6848L35.8593 24.6865L35.0117 24.0578H36.0492L36.3649 23.0857L36.6715 24.0578Z" fill="#F2F2F2"/>
<path d="M26.6012 18.3162H27.6413L26.8029 18.9464L27.1291 19.9433L26.2933 19.3275L25.4575 19.9433L25.7877 18.9464L24.9414 18.3162H25.9789L26.2933 17.3442L26.6012 18.3162Z" fill="#F2F2F2"/>
<path d="M24.2183 20.7663H25.2611L24.4214 21.395L24.7463 22.3933L23.9118 21.7775L23.0773 22.3933L23.4048 21.395L22.5586 20.7663H23.5974L23.9118 19.7942L24.2183 20.7663Z" fill="#F2F2F2"/>
<path d="M23.3342 24.0661H24.3757L23.5373 24.6949L23.8622 25.6931L23.0277 25.0787L22.1919 25.6931L22.5207 24.6949L21.6758 24.0661H22.7133L23.0277 23.0941L23.3342 24.0661Z" fill="#F2F2F2"/>
<path d="M24.2183 27.468H25.2611L24.4214 28.0981L24.7463 29.0963L23.9118 28.4806L23.0773 29.0963L23.4048 28.0981L22.5586 27.468H23.5974L23.9118 26.4973L24.2183 27.468Z" fill="#F2F2F2"/>
<path d="M26.6363 29.8847H27.6765L26.8381 30.5135L27.1616 31.5104L26.3285 30.896L25.4927 31.5104L25.8228 30.5135L24.9766 29.8847H26.0141L26.3285 28.9114L26.6363 29.8847Z" fill="#F2F2F2"/>
<path d="M14.6875 48.5897H44.5973V46.8828H14.6875V48.5897Z" fill="#545458"/>
<path d="M48.8516 0.518921C48.8516 0.518921 55.0871 10.2299 56.2281 12.0154C57.3678 13.7996 58.6713 15.2118 63.2851 16.1708C67.8989 17.1297 69.9071 17.5829 69.9071 17.5829V17.9288C69.9071 17.9288 66.9753 17.3157 63.2026 16.4904C59.4311 15.6651 57.8892 15.386 56.1692 13.0412C54.7374 11.0893 48.8516 2.79306 48.8516 2.79306V0.518921Z" fill="#8C8C90"/>
<path d="M48.8516 3.28003C48.8516 3.28003 55.2955 12.5116 56.1509 13.6435C57.0064 14.7753 58.1579 16.5988 63.2511 17.6756C64.5664 17.9533 69.9242 19.0079 69.9242 19.0079V19.3C69.9242 19.3 65.8528 18.5153 63.2511 17.9677C60.6482 17.4201 57.9142 16.921 56.1693 14.7202C54.5842 12.7212 48.8398 5.34852 48.8398 5.34852L48.8516 3.28003H48.8516Z" fill="#8C8C90"/>
<path d="M48.8516 6.05334C48.8516 6.05334 54.9235 13.8989 56.1509 15.4682C57.3771 17.0363 59.0683 18.3319 63.2511 19.135C65.6628 19.5987 69.9059 20.3755 69.9059 20.3755V20.6676C69.9059 20.6676 66.1881 19.9747 63.2511 19.4454C60.3141 18.9162 57.8893 18.4039 56.1509 16.4534C54.6261 14.7412 48.8398 8.01175 48.8398 8.01175L48.8516 6.05334H48.8516Z" fill="#8C8C90"/>
<path d="M48.8399 8.77808C48.8399 8.77808 54.9877 15.8953 56.1693 17.1647C58.0099 19.1415 58.902 19.8227 63.2512 20.6493C64.9909 20.9807 69.906 21.8361 69.906 21.8361V22.1453C69.906 22.1453 65.8358 21.4156 63.2512 20.9598C60.6679 20.5039 58.4815 20.3336 56.151 18.0948C54.376 16.3905 48.8517 10.6147 48.8517 10.6147L48.8398 8.77808H48.8399Z" fill="#8C8C90"/>
<path d="M48.8516 11.6122C48.8516 11.6122 54.5278 17.443 56.1692 19.1172C57.9102 20.8922 60.1411 21.5498 63.2327 22.0909C66.1841 22.607 69.9058 23.2044 69.9058 23.2044V23.5319C69.9058 23.5319 66.4107 22.9712 63.2327 22.438C60.1162 21.914 57.9351 21.6232 56.1509 20.0106C54.5527 18.567 48.8516 13.327 48.8516 13.327V11.6122Z" fill="#8C8C90"/>
<path d="M48.8516 14.2394C48.8516 14.2394 54.25 19.1532 56.1692 20.8326C57.9351 22.3771 59.3669 22.8578 63.251 23.5325C67.1365 24.2071 69.9058 24.6263 69.9058 24.6263V24.9735C69.9058 24.9735 66.3924 24.4076 63.2327 23.915C60.073 23.4224 58.0595 23.2286 56.1692 21.726C53.988 19.9916 48.8516 15.8454 48.8516 15.8454V14.2394Z" fill="#8C8C90"/>
<path d="M48.8399 17.0492C48.8399 17.0492 54.9982 21.8359 56.151 22.6743C57.3038 23.514 58.8273 24.4926 63.2512 25.1201C67.6384 25.741 69.8876 26.0502 69.8876 26.0502V26.4157C69.8876 26.4157 65.9105 25.8484 63.2512 25.5209C60.5932 25.1921 58.5548 25.0533 56.1693 23.4957C53.8467 21.98 48.8517 18.5334 48.8517 18.5334L48.8398 17.0492H48.8399Z" fill="#8C8C90"/>
<path d="M48.8399 19.7373C48.8399 19.7373 55.0165 23.7694 56.1877 24.4087C57.3601 25.0467 58.7356 26.0868 63.2512 26.6527C67.7681 27.2173 69.8876 27.4728 69.8876 27.4728V27.8199C69.8876 27.8199 66.1515 27.4191 63.2328 27.1087C60.3142 26.7982 58.3256 26.379 56.151 25.2104C53.9764 24.0432 48.8517 21.1115 48.8517 21.1115L48.8398 19.7373H48.8399Z" fill="#8C8C90"/>
<path d="M48.8516 22.4255C48.8516 22.4255 54.3182 25.3402 56.1693 26.2507C58.2325 27.2659 60.0167 27.7532 63.2511 28.1292C66.4266 28.5012 69.9059 28.8602 69.9059 28.8602V29.189C69.9059 29.189 66.6886 28.8511 63.2511 28.5314C59.8438 28.2157 58.6294 28.069 56.1693 26.9987C53.9685 26.0424 48.8398 23.7028 48.8398 23.7028L48.8516 22.4255H48.8516Z" fill="#8C8C90"/>
<path d="M48.8516 25.1621C48.8516 25.1621 53.1524 26.9673 56.1876 28.1476C59.1744 29.3096 61.4551 29.4078 63.2694 29.6082C64.0685 29.6961 69.8876 30.2829 69.8876 30.2829V30.6104C69.8876 30.6104 66.4108 30.338 63.2511 30.0642C60.0914 29.7904 58.7277 29.6751 56.1693 28.8419C53.5794 27.9996 48.8398 26.3791 48.8398 26.3791L48.8516 25.1621H48.8516Z" fill="#8C8C90"/>
<path d="M48.8516 27.9355C48.8516 27.9355 53.2139 29.2612 56.1876 30.0276C59.1613 30.7939 61.8939 31.1044 63.2694 31.1948C64.6449 31.2865 69.8876 31.7057 69.8876 31.7057V32.0162C69.8876 32.0162 66.9139 31.8171 63.2511 31.5603C60.2892 31.3533 57.9103 31.1345 56.1693 30.7572C54.2396 30.3393 48.8398 29.0792 48.8398 29.0792L48.8516 27.9355H48.8516Z" fill="#8C8C90"/>
<path d="M48.8398 30.6724C48.8398 30.6724 52.4188 31.2763 56.1876 31.8881C59.0133 32.3479 62.8424 32.6374 63.2511 32.6544C63.6598 32.6728 69.9059 33.0932 69.9059 33.0932V33.4207C69.9059 33.4207 65.9091 33.219 63.2511 33.0749C60.4831 32.9243 57.7321 32.7605 56.1693 32.6007C52.669 32.2418 48.8398 31.7676 48.8398 31.7676V30.6724Z" fill="#8C8C90"/>
<path d="M48.8516 33.506C48.8516 33.506 54.478 33.7129 56.1875 33.7496C57.8971 33.7863 69.9058 34.2605 69.9058 34.2605V34.5894L48.8516 34.5762V33.506Z" fill="#8C8C90"/>
<path d="M16.4375 36.5514C16.4375 36.4898 16.4663 36.4572 16.5318 36.4572H18.2676C18.3239 36.4572 18.358 36.4899 18.358 36.5463V36.8397C18.358 36.896 18.3344 36.9249 18.2637 36.9249H16.976V37.7357H18.117C18.1785 37.7357 18.2113 37.7646 18.2113 37.8209V38.113C18.2113 38.1694 18.1877 38.1981 18.117 38.1981H16.976V39.1268H18.2964C18.3527 39.1268 18.3816 39.1557 18.3816 39.2173V39.5042C18.3816 39.5658 18.3581 39.5893 18.2912 39.5893H16.5319C16.4664 39.5893 16.4376 39.5605 16.4376 39.5042V36.5514H16.4375Z" fill="#545458"/>
<path d="M20.5692 39.5896H20.2338C20.1631 39.5896 20.1448 39.5569 20.1448 39.5005V39.3538L20.1353 39.3485C19.9506 39.4769 19.6297 39.6315 19.3428 39.6315C18.7061 39.6315 18.6445 39.2542 18.6445 38.759V37.3718C18.6445 37.3155 18.6681 37.2787 18.7336 37.2787H19.0781C19.1398 37.2787 19.1633 37.3114 19.1633 37.3718V38.6975C19.1633 38.9818 19.2196 39.1599 19.5079 39.1599C19.7109 39.1599 20.0214 39.0092 20.1445 38.9477V37.3718C20.1445 37.3155 20.1629 37.2787 20.2336 37.2787H20.569C20.6345 37.2787 20.6581 37.3114 20.6581 37.3718V39.5005C20.6581 39.5608 20.6345 39.5896 20.569 39.5896" fill="#545458"/>
<path d="M21.5773 39.5C21.5773 39.5564 21.5538 39.5891 21.4883 39.5891H21.1477C21.0822 39.5891 21.0586 39.5616 21.0586 39.5V37.3726C21.0586 37.311 21.0822 37.2783 21.1477 37.2783H21.483C21.5538 37.2783 21.5773 37.3162 21.5773 37.3726V37.5796L21.5868 37.589C21.7283 37.458 22.0636 37.2969 22.285 37.255C22.3466 37.2405 22.3884 37.255 22.399 37.3348L22.4317 37.6505C22.4359 37.7174 22.4411 37.7448 22.3413 37.7645C22.078 37.8156 21.7427 37.9099 21.5776 37.9806V39.5002L21.5773 39.5Z" fill="#545458"/>
<path d="M23.5647 37.6836C23.1639 37.6836 23.0735 37.939 23.0735 38.429C23.0735 38.9294 23.1638 39.1744 23.5595 39.1744C23.9892 39.1744 24.0743 38.9333 24.0743 38.429C24.0743 37.9286 23.9943 37.6836 23.5647 37.6836ZM23.5595 39.6277C22.6123 39.6277 22.5508 38.9333 22.5508 38.3962C22.5508 37.9521 22.649 37.2303 23.5595 37.2303C24.4752 37.2303 24.6022 37.8395 24.6022 38.3962C24.6022 38.9333 24.5367 39.6277 23.5595 39.6277Z" fill="#545458"/>
<path d="M26.0095 37.712C25.8156 37.712 25.5182 37.8483 25.3767 37.9242V39.1032C25.5889 39.1649 25.7593 39.1832 25.9204 39.1832C26.2597 39.1832 26.3776 39.0089 26.3776 38.4155C26.3776 37.8155 26.2597 37.7121 26.0095 37.7121M25.9715 39.6325C25.8156 39.6325 25.5995 39.6037 25.382 39.5277L25.3768 39.533V40.3635C25.3768 40.4145 25.3637 40.4578 25.2877 40.4578H24.9524C24.8777 40.4578 24.8633 40.4251 24.8633 40.3635V37.3727C24.8633 37.3112 24.8869 37.2785 24.9524 37.2785H25.2877C25.3546 37.2785 25.3729 37.3151 25.3729 37.3727V37.5142L25.3874 37.5237C25.5564 37.4058 25.859 37.2407 26.1328 37.2407C26.7498 37.2407 26.9109 37.7071 26.9109 38.4197C26.9109 39.1887 26.717 39.6327 25.9716 39.6327" fill="#545458"/>
<path d="M27.7258 38.2215H28.6598C28.6598 37.9333 28.5839 37.6556 28.1935 37.6556C27.8437 37.6556 27.7494 37.8678 27.7258 38.2215ZM27.7206 38.5752C27.735 39.0521 27.9053 39.1844 28.2917 39.1844C28.462 39.1844 28.7254 39.1503 28.9048 39.132C28.99 39.1225 29.0188 39.1225 29.0332 39.2119L29.0608 39.3678C29.0752 39.4386 29.066 39.4766 28.9809 39.5145C28.7962 39.5853 28.453 39.6324 28.2211 39.6324C27.3198 39.6324 27.1875 39.0573 27.1875 38.4429C27.1875 37.9858 27.2727 37.2312 28.1936 37.2312C29.0372 37.2312 29.1879 37.7788 29.2023 38.2871C29.2075 38.4574 29.1604 38.5753 28.9717 38.5753H27.7207L27.7206 38.5752Z" fill="#545458"/>
<path d="M30.8723 38.5373H30.2973C30.0615 38.5373 29.9095 38.6225 29.9095 38.9343C29.9095 39.1412 29.9802 39.208 30.2029 39.208C30.406 39.208 30.6929 39.0888 30.8723 38.9853V38.5373ZM30.9012 39.3207C30.6654 39.5001 30.3483 39.6272 30.0326 39.6272C29.5322 39.6272 29.3868 39.3534 29.3868 38.9578C29.3815 38.405 29.6789 38.1692 30.2737 38.1692H30.8776V38.0474C30.8776 37.7644 30.7728 37.6648 30.3863 37.6648C30.2304 37.6648 29.9331 37.6884 29.7444 37.7068C29.6501 37.7212 29.6265 37.7162 29.6134 37.6505L29.5702 37.4762C29.5608 37.4146 29.5755 37.3767 29.679 37.3348C29.882 37.264 30.2541 37.2313 30.4768 37.2313C31.2929 37.2313 31.3912 37.5654 31.3912 38.0947V39.0051C31.3912 39.1976 31.4147 39.2029 31.5615 39.2212C31.6322 39.2264 31.6505 39.2408 31.6505 39.2919V39.4911C31.6505 39.5422 31.6178 39.5749 31.5379 39.5893C31.4619 39.6037 31.3872 39.6129 31.3165 39.6129C31.0938 39.6129 30.9576 39.5474 30.9104 39.326L30.901 39.3207L30.9012 39.3207Z" fill="#545458"/>
<path d="M33.7057 39.5896H33.3664C33.3048 39.5896 33.276 39.5607 33.276 39.5005L33.2812 38.1747C33.2812 37.8957 33.2157 37.7123 32.9419 37.7123C32.7533 37.7123 32.4231 37.863 32.2948 37.9246V39.5005C32.2948 39.5568 32.2712 39.5896 32.2057 39.5896H31.8703C31.8048 39.5896 31.7812 39.5607 31.7812 39.5005V37.3717C31.7812 37.3114 31.8048 37.2786 31.8703 37.2786H32.2057C32.2712 37.2786 32.2948 37.3113 32.2948 37.3717V37.5145C32.3 37.5145 32.3053 37.5187 32.3092 37.5187C32.4835 37.3969 32.8136 37.2357 33.1018 37.2357C33.7384 37.2357 33.7961 37.6563 33.7961 38.1318V39.5007C33.7961 39.5571 33.7764 39.5898 33.7056 39.5898" fill="#545458"/>
<path d="M17.6679 41.402C17.8985 41.402 18.281 41.4347 18.5312 41.5382C18.6072 41.5723 18.6346 41.6103 18.6203 41.6849L18.5783 41.8788C18.5639 41.9352 18.5404 41.9587 18.4552 41.9495C18.2247 41.9207 17.9417 41.888 17.6967 41.888C17.0548 41.888 16.9605 42.4068 16.9605 43.0198C16.9605 43.6382 17.0784 44.1242 17.6967 44.1242C17.9692 44.1242 18.2011 44.0954 18.4552 44.0626C18.5457 44.0532 18.5639 44.0771 18.5836 44.1386L18.6203 44.318C18.6399 44.3927 18.6161 44.4359 18.5403 44.4686C18.3098 44.5668 17.8984 44.6101 17.6679 44.6101C16.6159 44.6101 16.3945 43.832 16.3945 43.029C16.3945 42.2233 16.5924 41.402 17.6679 41.402" fill="#545458"/>
<path d="M19.6897 42.6616C19.2889 42.6616 19.1985 42.9171 19.1985 43.407C19.1985 43.9074 19.2889 44.1524 19.6845 44.1524C20.1142 44.1524 20.1993 43.9114 20.1993 43.407C20.1993 42.9066 20.1193 42.6616 19.6897 42.6616ZM19.6845 44.6057C18.7373 44.6057 18.6758 43.9114 18.6758 43.3743C18.6758 42.9302 18.774 42.2084 19.6845 42.2084C20.6002 42.2084 20.7272 42.8175 20.7272 43.3743C20.7272 43.9114 20.6617 44.6057 19.6845 44.6057Z" fill="#545458"/>
<path d="M24.2972 44.5676H23.9579C23.8911 44.5676 23.8674 44.5388 23.8674 44.4785V43.1384C23.8674 42.7886 23.7836 42.6904 23.5465 42.6904C23.3723 42.6904 23.0893 42.8266 22.9439 42.9026C22.9439 42.9498 22.9481 43.0348 22.9481 43.1423V44.4785C22.9481 44.5349 22.9297 44.5676 22.859 44.5676H22.5145C22.4529 44.5676 22.4345 44.5388 22.4345 44.4785V43.1148C22.4345 42.8266 22.3585 42.6904 22.1227 42.6904C21.9577 42.6904 21.693 42.8083 21.5136 42.9026V44.4785C21.5136 44.5349 21.49 44.5676 21.4245 44.5676H21.0852C21.0236 44.5676 21 44.5388 21 44.4785V42.3497C21 42.2895 21.0236 42.2567 21.0852 42.2567H21.4193C21.49 42.2567 21.5136 42.2934 21.5136 42.3497V42.4873L21.5188 42.4925C21.7022 42.3641 21.9616 42.2227 22.2223 42.2135C22.4948 42.2135 22.7214 42.2699 22.8681 42.5436C23.1039 42.3694 23.3961 42.2135 23.6987 42.2135C24.3209 42.2135 24.3825 42.6196 24.3825 43.0912V44.4785C24.3825 44.5349 24.3628 44.5676 24.2973 44.5676" fill="#545458"/>
<path d="M27.9925 44.5676H27.6532C27.5864 44.5676 27.5627 44.5388 27.5627 44.4785V43.1384C27.5627 42.7886 27.4789 42.6904 27.2418 42.6904C27.0675 42.6904 26.7846 42.8266 26.6392 42.9026C26.6392 42.9498 26.6434 43.0348 26.6434 43.1423V44.4785C26.6434 44.5349 26.625 44.5676 26.5543 44.5676H26.2098C26.1483 44.5676 26.1298 44.5388 26.1298 44.4785V43.1148C26.1298 42.8266 26.0538 42.6904 25.818 42.6904C25.653 42.6904 25.3884 42.8083 25.2089 42.9026V44.4785C25.2089 44.5349 25.1853 44.5676 25.1198 44.5676H24.7805C24.7189 44.5676 24.6953 44.5388 24.6953 44.4785V42.3497C24.6953 42.2895 24.7189 42.2567 24.7805 42.2567H25.1145C25.1853 42.2567 25.2089 42.2934 25.2089 42.3497V42.4873L25.2141 42.4925C25.3975 42.3641 25.6569 42.2227 25.9176 42.2135C26.1901 42.2135 26.4167 42.2699 26.5634 42.5436C26.7992 42.3694 27.0913 42.2135 27.394 42.2135C28.0162 42.2135 28.0778 42.6196 28.0778 43.0912V44.4785C28.0778 44.5349 28.0581 44.5676 27.9926 44.5676" fill="#545458"/>
<path d="M28.9771 44.478C28.9771 44.5292 28.9588 44.567 28.8919 44.567H28.5566C28.4911 44.567 28.4622 44.5395 28.4622 44.478V42.3453C28.4622 42.2798 28.4911 42.2563 28.5566 42.2563H28.8919C28.9588 42.2563 28.9771 42.2942 28.9771 42.3453V44.478ZM28.7269 41.9169C28.482 41.9169 28.4492 41.7794 28.4492 41.6432C28.4492 41.4925 28.5003 41.3733 28.7269 41.3733C28.9588 41.3733 29.006 41.482 29.006 41.6432C29.006 41.7886 28.9628 41.9169 28.7269 41.9169Z" fill="#545458"/>
<path d="M30.1473 44.6053C29.9115 44.6053 29.5958 44.5726 29.4163 44.5019C29.322 44.464 29.3023 44.4207 29.3167 44.346L29.3495 44.1901C29.3639 44.1142 29.3966 44.1103 29.4726 44.1194C29.6796 44.1521 29.9822 44.1758 30.142 44.1758C30.4446 44.1758 30.5677 44.0958 30.5677 43.9072C30.5677 43.6898 30.4865 43.6426 30.1892 43.6007C29.7267 43.5338 29.3219 43.4357 29.3219 42.9208C29.3219 42.4545 29.6796 42.2095 30.2088 42.2095C30.4014 42.2095 30.7276 42.237 30.9254 42.3129C31.0053 42.3456 31.0393 42.3837 31.0249 42.4544L30.987 42.6234C30.9725 42.6903 30.9451 42.6993 30.8599 42.6902C30.6569 42.6667 30.3923 42.6378 30.218 42.6378C29.9167 42.6378 29.846 42.7229 29.846 42.9025C29.846 43.0859 29.9587 43.1094 30.2469 43.1566C30.6949 43.2234 31.0997 43.3125 31.0997 43.8745C31.0997 44.426 30.6333 44.6055 30.1473 44.6055" fill="#545458"/>
<path d="M32.1239 44.6053C31.8881 44.6053 31.5723 44.5726 31.3929 44.5019C31.2986 44.464 31.2789 44.4207 31.2933 44.346L31.326 44.1901C31.3405 44.1142 31.3732 44.1103 31.4492 44.1194C31.6561 44.1521 31.9587 44.1758 32.1185 44.1758C32.4212 44.1758 32.5443 44.0958 32.5443 43.9072C32.5443 43.6898 32.4631 43.6426 32.1657 43.6007C31.7033 43.5338 31.2985 43.4357 31.2985 42.9208C31.2985 42.4545 31.6561 42.2095 32.1854 42.2095C32.3779 42.2095 32.7041 42.237 32.9019 42.3129C32.9819 42.3456 33.0159 42.3837 33.0015 42.4544L32.9636 42.6234C32.9492 42.6903 32.9216 42.6993 32.8365 42.6902C32.6334 42.6667 32.3688 42.6378 32.1946 42.6378C31.8933 42.6378 31.8226 42.7229 31.8226 42.9025C31.8226 43.0859 31.9352 43.1094 32.2234 43.1566C32.6714 43.2234 33.0762 43.3125 33.0762 43.8745C33.0762 44.426 32.6099 44.6055 32.1239 44.6055" fill="#545458"/>
<path d="M33.9068 44.478C33.9068 44.5292 33.8885 44.567 33.8216 44.567H33.4863C33.4208 44.567 33.392 44.5395 33.392 44.478V42.3453C33.392 42.2798 33.4208 42.2563 33.4863 42.2563H33.8216C33.8885 42.2563 33.9068 42.2942 33.9068 42.3453V44.478ZM33.6566 41.9169C33.4117 41.9169 33.3789 41.7794 33.3789 41.6432C33.3789 41.4925 33.4301 41.3733 33.6566 41.3733C33.8885 41.3733 33.9357 41.482 33.9357 41.6432C33.9357 41.7886 33.8925 41.9169 33.6566 41.9169Z" fill="#545458"/>
<path d="M35.2678 42.6616C34.867 42.6616 34.7779 42.9171 34.7779 43.407C34.7779 43.9074 34.867 44.1524 35.2626 44.1524C35.6923 44.1524 35.7774 43.9114 35.7774 43.407C35.7774 42.9066 35.6975 42.6616 35.2678 42.6616ZM35.2626 44.6057C34.3155 44.6057 34.2539 43.9114 34.2539 43.3743C34.2539 42.9302 34.3521 42.2084 35.2626 42.2084C36.1783 42.2084 36.3053 42.8175 36.3053 43.3743C36.3053 43.9114 36.2399 44.6057 35.2626 44.6057Z" fill="#545458"/>
<path d="M38.4869 44.5676H38.1476C38.086 44.5676 38.0572 44.5387 38.0572 44.4785L38.0624 43.1527C38.0624 42.8737 37.9969 42.6903 37.7231 42.6903C37.5345 42.6903 37.2044 42.841 37.076 42.9026V44.4785C37.076 44.5349 37.0524 44.5676 36.9869 44.5676H36.6516C36.5861 44.5676 36.5625 44.5387 36.5625 44.4785V42.3497C36.5625 42.2895 36.5861 42.2567 36.6516 42.2567H36.9869C37.0524 42.2567 37.076 42.2894 37.076 42.3497V42.4925C37.0812 42.4925 37.0854 42.4967 37.0905 42.4967C37.2647 42.3749 37.5961 42.2137 37.883 42.2137C38.5197 42.2137 38.5773 42.6343 38.5773 43.1098V44.4787C38.5773 44.5351 38.5577 44.5678 38.4869 44.5678" fill="#545458"/>
</g>
<path d="M87.3337 21.5543V13.0939H93.2688V14.0553H88.3592V16.7857H92.1792V17.7471H88.3592V20.5929H93.4611V21.5543H87.3337ZM99.059 17.4138C99.059 16.9352 98.9309 16.5678 98.6745 16.3114C98.4181 16.0465 98.0549 15.914 97.5849 15.914C97.1405 15.914 96.7645 16.0123 96.4568 16.2088C96.1492 16.3969 95.9227 16.7045 95.7774 17.1318L94.9442 16.619C95.1151 16.1405 95.4313 15.7559 95.8928 15.4653C96.3543 15.1662 96.9268 15.0167 97.6105 15.0167C98.072 15.0167 98.4907 15.0979 98.8668 15.2602C99.2428 15.4141 99.5376 15.6534 99.7513 15.9781C99.9735 16.2943 100.085 16.7045 100.085 17.2087V20.3109C100.085 20.6185 100.247 20.7724 100.572 20.7724C100.734 20.7724 100.892 20.751 101.046 20.7083L100.995 21.5159C100.824 21.6013 100.602 21.6441 100.328 21.6441C100.08 21.6441 99.8581 21.5971 99.6615 21.503C99.465 21.409 99.3111 21.268 99.2 21.08C99.089 20.8835 99.0334 20.6399 99.0334 20.3493V20.2212L99.2898 20.2596C99.1872 20.5929 99.012 20.8664 98.7642 21.08C98.5164 21.2851 98.2386 21.439 97.931 21.5415C97.6233 21.6355 97.3199 21.6825 97.0208 21.6825C96.6448 21.6825 96.2944 21.6184 95.9697 21.4902C95.6449 21.362 95.3843 21.1698 95.1877 20.9134C94.9997 20.6485 94.9057 20.3237 94.9057 19.9391C94.9057 19.4606 95.0638 19.0675 95.38 18.7598C95.7048 18.4436 96.1534 18.23 96.726 18.1189L99.2641 17.6189V18.465L97.2003 18.888C96.7816 18.9735 96.4696 19.0931 96.2645 19.2469C96.0594 19.4007 95.9569 19.6144 95.9569 19.8879C95.9569 20.1528 96.0594 20.3707 96.2645 20.5416C96.4782 20.704 96.7773 20.7852 97.1618 20.7852C97.4097 20.7852 97.6447 20.7553 97.8669 20.6955C98.0976 20.6271 98.3027 20.5288 98.4822 20.4006C98.6617 20.2639 98.8027 20.0972 98.9052 19.9007C99.0078 19.6956 99.059 19.4563 99.059 19.1828V17.4138ZM102.577 21.5543V15.1449H103.41L103.551 16.196C103.73 15.8029 103.991 15.5081 104.333 15.3115C104.683 15.115 105.106 15.0167 105.602 15.0167C105.713 15.0167 105.833 15.0252 105.961 15.0423C106.098 15.0594 106.213 15.0936 106.307 15.1449L106.127 16.0807C106.033 16.0465 105.931 16.0208 105.82 16.0037C105.709 15.9866 105.551 15.9781 105.346 15.9781C105.081 15.9781 104.811 16.055 104.538 16.2088C104.273 16.3627 104.051 16.5977 103.871 16.9139C103.692 17.2215 103.602 17.6146 103.602 18.0932V21.5543H102.577ZM108.784 12.1965V19.9263C108.784 20.2511 108.843 20.4775 108.963 20.6057C109.083 20.7254 109.275 20.7852 109.54 20.7852C109.711 20.7852 109.852 20.7724 109.963 20.7467C110.074 20.7211 110.224 20.6741 110.412 20.6057L110.245 21.503C110.108 21.5629 109.959 21.6056 109.796 21.6312C109.634 21.6654 109.467 21.6825 109.296 21.6825C108.775 21.6825 108.386 21.5415 108.13 21.2595C107.882 20.9775 107.758 20.5459 107.758 19.9648V12.1965H108.784ZM116.671 15.1449L113.658 22.6311C113.496 23.0499 113.316 23.3789 113.12 23.6182C112.932 23.866 112.718 24.0412 112.479 24.1437C112.248 24.2548 111.979 24.3104 111.671 24.3104C111.381 24.3104 111.112 24.2677 110.864 24.1822C110.624 24.1053 110.411 23.9985 110.223 23.8617L110.505 22.9644C110.676 23.1182 110.855 23.2293 111.043 23.2977C111.24 23.3746 111.432 23.4131 111.62 23.4131C111.842 23.4131 112.052 23.3447 112.248 23.208C112.445 23.0712 112.624 22.7935 112.787 22.3747L113.12 21.5415L112.479 20.0161L110.441 15.1449H111.607L113.21 19.3238L113.607 20.4647L114.068 19.1956L115.568 15.1449H116.671ZM128.477 21.5543H127.387L126.49 19.2085H122.657L121.76 21.5543H120.683L123.978 13.0939H125.195L128.477 21.5543ZM123.029 18.247H126.118L124.567 14.0809L123.029 18.247ZM132.392 21.6825C131.862 21.6825 131.375 21.55 130.93 21.2851C130.486 21.0202 130.131 20.6399 129.866 20.1442C129.601 19.64 129.469 19.0418 129.469 18.3496C129.469 17.6403 129.61 17.0378 129.892 16.5421C130.174 16.0465 130.546 15.6704 131.007 15.4141C131.469 15.1491 131.964 15.0167 132.494 15.0167C133.024 15.0167 133.481 15.1534 133.866 15.4269C134.259 15.7004 134.52 16.0636 134.648 16.5165L134.52 16.6062V12.1965H135.545V21.5543H134.648L134.558 20.0032L134.699 19.9263C134.639 20.3023 134.494 20.6228 134.263 20.8877C134.041 21.1441 133.763 21.3407 133.43 21.4774C133.105 21.6141 132.759 21.6825 132.392 21.6825ZM132.494 20.7852C132.904 20.7852 133.259 20.6826 133.558 20.4775C133.866 20.2724 134.101 19.9819 134.263 19.6058C134.434 19.2213 134.52 18.7726 134.52 18.2599C134.52 17.7727 134.434 17.354 134.263 17.0036C134.101 16.6532 133.87 16.384 133.571 16.196C133.28 16.008 132.939 15.914 132.545 15.914C131.896 15.914 131.392 16.1362 131.033 16.5806C130.674 17.025 130.494 17.6146 130.494 18.3496C130.494 19.0845 130.67 19.6742 131.02 20.1186C131.37 20.563 131.862 20.7852 132.494 20.7852ZM140.582 15.0167C141.189 15.0167 141.723 15.1491 142.185 15.4141C142.655 15.679 143.022 16.0636 143.287 16.5678C143.552 17.0634 143.684 17.6574 143.684 18.3496C143.684 19.0418 143.552 19.64 143.287 20.1442C143.022 20.6399 142.655 21.0202 142.185 21.2851C141.723 21.55 141.189 21.6825 140.582 21.6825C139.984 21.6825 139.45 21.55 138.98 21.2851C138.51 21.0202 138.142 20.6399 137.877 20.1442C137.613 19.64 137.48 19.0418 137.48 18.3496C137.48 17.6574 137.613 17.0634 137.877 16.5678C138.142 16.0636 138.51 15.679 138.98 15.4141C139.45 15.1491 139.984 15.0167 140.582 15.0167ZM140.582 15.9012C140.146 15.9012 139.775 15.9995 139.467 16.196C139.159 16.3926 138.92 16.6746 138.749 17.0421C138.587 17.401 138.506 17.8368 138.506 18.3496C138.506 18.8538 138.587 19.2896 138.749 19.6571C138.92 20.0246 139.159 20.3066 139.467 20.5032C139.775 20.6997 140.146 20.798 140.582 20.798C141.018 20.798 141.39 20.6997 141.697 20.5032C142.005 20.3066 142.24 20.0246 142.403 19.6571C142.573 19.2896 142.659 18.8538 142.659 18.3496C142.659 17.8368 142.573 17.401 142.403 17.0421C142.24 16.6746 142.005 16.3926 141.697 16.196C141.39 15.9995 141.018 15.9012 140.582 15.9012ZM145.615 24.2463V15.1449H146.512L146.602 16.7088L146.461 16.5293C146.572 16.2302 146.739 15.9696 146.961 15.7474C147.183 15.5166 147.452 15.3372 147.769 15.209C148.085 15.0808 148.427 15.0167 148.794 15.0167C149.315 15.0167 149.794 15.1491 150.23 15.4141C150.674 15.679 151.029 16.0593 151.294 16.555C151.559 17.0506 151.691 17.6488 151.691 18.3496C151.691 19.0418 151.554 19.64 151.281 20.1442C151.016 20.6399 150.661 21.0202 150.217 21.2851C149.773 21.55 149.286 21.6825 148.756 21.6825C148.226 21.6825 147.76 21.5543 147.358 21.2979C146.965 21.033 146.683 20.6997 146.512 20.2981L146.641 20.1058V24.2463H145.615ZM148.653 20.7852C149.286 20.7852 149.777 20.563 150.127 20.1186C150.486 19.6742 150.666 19.0845 150.666 18.3496C150.666 17.6146 150.491 17.025 150.14 16.5806C149.798 16.1362 149.315 15.914 148.692 15.914C148.281 15.914 147.922 16.0166 147.615 16.2217C147.307 16.4182 147.068 16.7002 146.897 17.0677C146.726 17.4266 146.641 17.8539 146.641 18.3496C146.641 18.8367 146.722 19.264 146.884 19.6315C147.055 19.999 147.29 20.2853 147.589 20.4904C147.897 20.6869 148.251 20.7852 148.653 20.7852ZM155.052 13.3246V19.7853C155.052 20.1015 155.142 20.3365 155.321 20.4904C155.501 20.6442 155.731 20.7211 156.013 20.7211C156.261 20.7211 156.475 20.6784 156.654 20.5929C156.834 20.5074 156.996 20.3921 157.141 20.2468L157.5 21.1057C157.304 21.2851 157.069 21.4261 156.795 21.5287C156.53 21.6312 156.223 21.6825 155.872 21.6825C155.548 21.6825 155.244 21.627 154.962 21.5159C154.68 21.3962 154.454 21.2125 154.283 20.9647C154.12 20.7083 154.035 20.375 154.026 19.9648V13.6066L155.052 13.3246ZM157.385 15.1449V16.0294H152.744V15.1449H157.385ZM161.589 21.6825C160.982 21.6825 160.439 21.55 159.961 21.2851C159.491 21.0202 159.123 20.6399 158.858 20.1442C158.593 19.64 158.461 19.0418 158.461 18.3496C158.461 17.6574 158.593 17.0634 158.858 16.5678C159.123 16.0636 159.487 15.679 159.948 15.4141C160.409 15.1491 160.935 15.0167 161.525 15.0167C162.123 15.0167 162.631 15.1449 163.05 15.4013C163.477 15.6576 163.802 16.008 164.024 16.4524C164.247 16.8882 164.358 17.3796 164.358 17.9266C164.358 18.0719 164.353 18.2043 164.345 18.324C164.336 18.4436 164.324 18.5504 164.306 18.6444H159.128V17.7343H163.858L163.332 17.8368C163.332 17.2215 163.161 16.7472 162.819 16.4139C162.486 16.0807 162.046 15.914 161.499 15.914C161.08 15.914 160.717 16.0123 160.409 16.2088C160.11 16.3969 159.875 16.6746 159.704 17.0421C159.542 17.401 159.461 17.8368 159.461 18.3496C159.461 18.8538 159.546 19.2896 159.717 19.6571C159.888 20.0246 160.127 20.3066 160.435 20.5032C160.751 20.6912 161.127 20.7852 161.563 20.7852C162.033 20.7852 162.413 20.6955 162.704 20.516C163.003 20.3365 163.242 20.093 163.422 19.7853L164.229 20.2596C164.067 20.5502 163.858 20.8023 163.601 21.0159C163.354 21.2296 163.059 21.3962 162.717 21.5159C162.384 21.627 162.008 21.6825 161.589 21.6825ZM166.308 21.5543V15.1449H167.141L167.282 16.196C167.462 15.8029 167.722 15.5081 168.064 15.3115C168.415 15.115 168.838 15.0167 169.333 15.0167C169.444 15.0167 169.564 15.0252 169.692 15.0423C169.829 15.0594 169.944 15.0936 170.038 15.1449L169.859 16.0807C169.765 16.0465 169.662 16.0208 169.551 16.0037C169.44 15.9866 169.282 15.9781 169.077 15.9781C168.812 15.9781 168.543 16.055 168.269 16.2088C168.004 16.3627 167.782 16.5977 167.603 16.9139C167.423 17.2215 167.334 17.6146 167.334 18.0932V21.5543H166.308ZM173.573 21.6825C172.949 21.6825 172.372 21.55 171.842 21.2851C171.321 21.0202 170.919 20.6442 170.637 20.1571L171.509 19.5289C171.697 19.922 171.97 20.2297 172.329 20.4519C172.697 20.6741 173.137 20.7852 173.65 20.7852C174.103 20.7852 174.457 20.6997 174.714 20.5288C174.97 20.3493 175.098 20.1186 175.098 19.8366C175.098 19.6571 175.038 19.4948 174.919 19.3495C174.808 19.1956 174.59 19.0845 174.265 19.0162L172.727 18.6957C172.103 18.5675 171.654 18.3539 171.381 18.0548C171.116 17.7557 170.983 17.3839 170.983 16.9395C170.983 16.5891 171.082 16.2687 171.278 15.9781C171.483 15.6875 171.77 15.4568 172.137 15.2859C172.513 15.1064 172.953 15.0167 173.457 15.0167C174.09 15.0167 174.624 15.1406 175.06 15.3884C175.496 15.6363 175.82 15.9866 176.034 16.4396L175.175 17.0036C175.03 16.6276 174.795 16.3541 174.47 16.1832C174.145 16.0037 173.808 15.914 173.457 15.914C173.15 15.914 172.885 15.9567 172.663 16.0422C172.449 16.1277 172.282 16.2473 172.163 16.4011C172.052 16.5464 171.996 16.7131 171.996 16.9011C171.996 17.0891 172.06 17.2643 172.188 17.4266C172.317 17.5805 172.556 17.6916 172.906 17.7599L174.509 18.0932C175.107 18.2129 175.526 18.4094 175.765 18.6829C176.004 18.9564 176.124 19.2897 176.124 19.6828C176.124 20.0844 176.017 20.4391 175.803 20.7467C175.59 21.0458 175.29 21.2766 174.906 21.439C174.521 21.6013 174.077 21.6825 173.573 21.6825ZM90.3205 28.0939C90.893 28.0939 91.3887 28.2007 91.8075 28.4143C92.2347 28.6194 92.568 28.9143 92.8073 29.2988C93.0466 29.6834 93.1663 30.1406 93.1663 30.6704C93.1663 31.2003 93.0466 31.6575 92.8073 32.0421C92.568 32.4266 92.2347 32.7257 91.8075 32.9394C91.3887 33.1445 90.893 33.247 90.3205 33.247H88.3592V36.5543H87.3337V28.0939H90.3205ZM90.1666 32.2856C90.8332 32.2856 91.3203 32.1489 91.628 31.8754C91.9356 31.5934 92.0895 31.1918 92.0895 30.6704C92.0895 30.1406 91.9356 29.7389 91.628 29.4655C91.3203 29.192 90.8332 29.0553 90.1666 29.0553H88.3592V32.2856H90.1666ZM94.9654 36.5543V30.1449H95.7986L95.9396 31.196C96.1191 30.8029 96.3798 30.5081 96.7216 30.3115C97.072 30.115 97.495 30.0167 97.9907 30.0167C98.1018 30.0167 98.2214 30.0252 98.3496 30.0423C98.4863 30.0594 98.6017 30.0936 98.6957 30.1449L98.5162 31.0807C98.4222 31.0465 98.3197 31.0208 98.2086 31.0037C98.0975 30.9866 97.9394 30.9781 97.7343 30.9781C97.4694 30.9781 97.2002 31.055 96.9267 31.2088C96.6618 31.3627 96.4396 31.5977 96.2601 31.9139C96.0807 32.2215 95.9909 32.6146 95.9909 33.0932V36.5543H94.9654ZM102.651 30.0167C103.258 30.0167 103.792 30.1491 104.254 30.4141C104.724 30.679 105.091 31.0636 105.356 31.5678C105.621 32.0634 105.754 32.6574 105.754 33.3496C105.754 34.0418 105.621 34.64 105.356 35.1442C105.091 35.6399 104.724 36.0202 104.254 36.2851C103.792 36.55 103.258 36.6825 102.651 36.6825C102.053 36.6825 101.519 36.55 101.049 36.2851C100.579 36.0202 100.211 35.6399 99.9465 35.1442C99.6816 34.64 99.5492 34.0418 99.5492 33.3496C99.5492 32.6574 99.6816 32.0634 99.9465 31.5678C100.211 31.0636 100.579 30.679 101.049 30.4141C101.519 30.1491 102.053 30.0167 102.651 30.0167ZM102.651 30.9012C102.215 30.9012 101.844 30.9995 101.536 31.196C101.228 31.3926 100.989 31.6746 100.818 32.0421C100.656 32.401 100.575 32.8368 100.575 33.3496C100.575 33.8538 100.656 34.2896 100.818 34.6571C100.989 35.0246 101.228 35.3066 101.536 35.5032C101.844 35.6997 102.215 35.798 102.651 35.798C103.087 35.798 103.459 35.6997 103.767 35.5032C104.074 35.3066 104.309 35.0246 104.472 34.6571C104.643 34.2896 104.728 33.8538 104.728 33.3496C104.728 32.8368 104.643 32.401 104.472 32.0421C104.309 31.6746 104.074 31.3926 103.767 31.196C103.459 30.9995 103.087 30.9012 102.651 30.9012ZM113.081 28.9655L113.312 29.8757C113.303 29.8757 113.29 29.8757 113.273 29.8757C113.256 29.8757 113.239 29.8757 113.222 29.8757C112.803 29.8757 112.478 29.9611 112.248 30.1321C112.025 30.2944 111.914 30.5594 111.914 30.9268L111.286 30.6064C111.286 30.2731 111.363 29.9825 111.517 29.7347C111.671 29.4868 111.88 29.2988 112.145 29.1706C112.41 29.0339 112.701 28.9655 113.017 28.9655C113.025 28.9655 113.034 28.9655 113.042 28.9655C113.06 28.9655 113.072 28.9655 113.081 28.9655ZM111.132 35.7339C111.739 35.7339 112.213 35.8749 112.555 36.1569C112.897 36.4304 113.068 36.7979 113.068 37.2594C113.068 37.6781 112.927 38.0413 112.645 38.349C112.372 38.6566 112 38.8916 111.53 39.054C111.068 39.2249 110.547 39.3104 109.966 39.3104C108.957 39.3104 108.201 39.1395 107.697 38.7976C107.201 38.4558 106.953 38.0456 106.953 37.567C106.953 37.2252 107.065 36.9175 107.287 36.6441C107.518 36.3791 107.902 36.2296 108.44 36.1954L108.351 36.3877C108.06 36.3108 107.812 36.1826 107.607 36.0031C107.411 35.8151 107.312 35.5459 107.312 35.1955C107.312 34.8451 107.441 34.546 107.697 34.2982C107.962 34.0418 108.351 33.8837 108.863 33.8239L109.543 34.17H109.415C108.996 34.2127 108.697 34.3196 108.517 34.4905C108.346 34.6529 108.261 34.8323 108.261 35.0289C108.261 35.2682 108.346 35.4476 108.517 35.5673C108.697 35.6784 108.945 35.7339 109.261 35.7339H111.132ZM109.953 38.4515C110.449 38.4515 110.855 38.4002 111.171 38.2977C111.496 38.1951 111.735 38.0627 111.889 37.9003C112.043 37.7379 112.119 37.5627 112.119 37.3747C112.119 37.144 112.025 36.9603 111.837 36.8235C111.658 36.6868 111.329 36.6184 110.85 36.6184H108.876C108.603 36.6184 108.372 36.6868 108.184 36.8235C107.996 36.9688 107.902 37.1654 107.902 37.4132C107.902 37.7294 108.082 37.9815 108.44 38.1695C108.808 38.3575 109.312 38.4515 109.953 38.4515ZM109.863 30.0167C110.376 30.0167 110.829 30.1107 111.222 30.2987C111.624 30.4782 111.936 30.7303 112.158 31.055C112.38 31.3798 112.491 31.7558 112.491 32.1831C112.491 32.6018 112.38 32.9778 112.158 33.3111C111.936 33.6359 111.624 33.8923 111.222 34.0803C110.829 34.2597 110.376 34.3495 109.863 34.3495C109.017 34.3495 108.368 34.1486 107.915 33.747C107.462 33.3368 107.235 32.8155 107.235 32.1831C107.235 31.7558 107.347 31.3798 107.569 31.055C107.8 30.7303 108.111 30.4782 108.505 30.2987C108.898 30.1107 109.351 30.0167 109.863 30.0167ZM109.863 30.8499C109.419 30.8499 109.047 30.9738 108.748 31.2217C108.449 31.4609 108.299 31.7814 108.299 32.1831C108.299 32.5762 108.449 32.8967 108.748 33.1445C109.047 33.3923 109.419 33.5162 109.863 33.5162C110.308 33.5162 110.68 33.3923 110.979 33.1445C111.278 32.8967 111.427 32.5762 111.427 32.1831C111.427 31.7814 111.278 31.4609 110.979 31.2217C110.68 30.9738 110.308 30.8499 109.863 30.8499ZM114.507 36.5543V30.1449H115.34L115.481 31.196C115.66 30.8029 115.921 30.5081 116.263 30.3115C116.613 30.115 117.036 30.0167 117.532 30.0167C117.643 30.0167 117.763 30.0252 117.891 30.0423C118.028 30.0594 118.143 30.0936 118.237 30.1449L118.058 31.0807C117.964 31.0465 117.861 31.0208 117.75 31.0037C117.639 30.9866 117.481 30.9781 117.276 30.9781C117.011 30.9781 116.741 31.055 116.468 31.2088C116.203 31.3627 115.981 31.5977 115.801 31.9139C115.622 32.2215 115.532 32.6146 115.532 33.0932V36.5543H114.507ZM123.307 32.4138C123.307 31.9352 123.179 31.5678 122.923 31.3114C122.666 31.0465 122.303 30.914 121.833 30.914C121.389 30.914 121.013 31.0123 120.705 31.2088C120.397 31.3969 120.171 31.7045 120.026 32.1318L119.192 31.619C119.363 31.1405 119.68 30.7559 120.141 30.4653C120.602 30.1662 121.175 30.0167 121.859 30.0167C122.32 30.0167 122.739 30.0979 123.115 30.2602C123.491 30.4141 123.786 30.6534 123.999 30.9781C124.222 31.2943 124.333 31.7045 124.333 32.2087V35.3109C124.333 35.6185 124.495 35.7724 124.82 35.7724C124.982 35.7724 125.14 35.751 125.294 35.7083L125.243 36.5159C125.072 36.6013 124.85 36.6441 124.576 36.6441C124.329 36.6441 124.106 36.5971 123.91 36.503C123.713 36.409 123.559 36.268 123.448 36.08C123.337 35.8835 123.282 35.6399 123.282 35.3493V35.2212L123.538 35.2596C123.435 35.5929 123.26 35.8664 123.012 36.08C122.765 36.2851 122.487 36.439 122.179 36.5415C121.872 36.6355 121.568 36.6825 121.269 36.6825C120.893 36.6825 120.543 36.6184 120.218 36.4902C119.893 36.362 119.633 36.1698 119.436 35.9134C119.248 35.6485 119.154 35.3237 119.154 34.9391C119.154 34.4606 119.312 34.0675 119.628 33.7598C119.953 33.4436 120.402 33.23 120.974 33.1189L123.512 32.6189V33.465L121.449 33.888C121.03 33.9735 120.718 34.0931 120.513 34.2469C120.308 34.4007 120.205 34.6144 120.205 34.8879C120.205 35.1528 120.308 35.3707 120.513 35.5416C120.726 35.704 121.026 35.7852 121.41 35.7852C121.658 35.7852 121.893 35.7553 122.115 35.6955C122.346 35.6271 122.551 35.5288 122.73 35.4006C122.91 35.2639 123.051 35.0972 123.153 34.9007C123.256 34.6956 123.307 34.4563 123.307 34.1828V32.4138ZM126.825 36.5543V30.1449H127.722L127.786 31.1447C128.017 30.7516 128.316 30.4653 128.684 30.2859C129.06 30.1064 129.444 30.0167 129.837 30.0167C130.29 30.0167 130.718 30.1192 131.119 30.3243C131.521 30.5294 131.829 30.8456 132.042 31.2729C132.179 30.9824 132.371 30.7474 132.619 30.5679C132.867 30.3799 133.136 30.2432 133.427 30.1577C133.726 30.0637 134.008 30.0167 134.273 30.0167C134.683 30.0167 135.072 30.1021 135.439 30.2731C135.815 30.444 136.123 30.7089 136.362 31.0678C136.601 31.4268 136.721 31.8882 136.721 32.4523V36.5543H135.696V32.5548C135.696 31.9737 135.55 31.555 135.26 31.2986C134.969 31.0422 134.61 30.914 134.183 30.914C133.85 30.914 133.538 30.9952 133.247 31.1576C132.957 31.3199 132.722 31.5592 132.542 31.8754C132.371 32.1916 132.286 32.5805 132.286 33.0419V36.5543H131.26V32.5548C131.26 31.9737 131.115 31.555 130.824 31.2986C130.534 31.0422 130.175 30.914 129.748 30.914C129.466 30.914 129.175 30.9909 128.876 31.1447C128.585 31.29 128.342 31.525 128.145 31.8498C127.949 32.1745 127.85 32.6018 127.85 33.1317V36.5543H126.825ZM147.604 32.6702V33.7342H143.373V32.6702H147.604ZM157.225 27.9657C157.969 27.9657 158.61 28.1195 159.148 28.4271C159.686 28.7263 160.135 29.1706 160.494 29.7603L159.635 30.4269C159.319 29.88 158.96 29.4954 158.558 29.2732C158.165 29.0424 157.687 28.9271 157.123 28.9271C156.67 28.9271 156.294 28.9912 155.995 29.1194C155.704 29.2476 155.49 29.4185 155.354 29.6321C155.217 29.8372 155.149 30.0722 155.149 30.3372C155.149 30.6363 155.243 30.9012 155.431 31.1319C155.619 31.3541 155.995 31.5293 156.559 31.6575L158.392 32.0677C159.204 32.2472 159.768 32.5206 160.084 32.8881C160.409 33.247 160.571 33.6957 160.571 34.2341C160.571 34.7127 160.434 35.14 160.161 35.516C159.896 35.8835 159.52 36.1698 159.033 36.3749C158.546 36.58 157.973 36.6825 157.315 36.6825C156.7 36.6825 156.157 36.6013 155.687 36.439C155.226 36.268 154.828 36.0416 154.495 35.7595C154.162 35.4775 153.888 35.1613 153.674 34.811L154.572 34.0803C154.734 34.405 154.944 34.6913 155.2 34.9391C155.456 35.187 155.764 35.3793 156.123 35.516C156.49 35.6527 156.909 35.7211 157.379 35.7211C157.815 35.7211 158.191 35.6698 158.507 35.5673C158.832 35.4562 159.08 35.2981 159.251 35.093C159.422 34.8793 159.507 34.6229 159.507 34.3238C159.507 34.0504 159.417 33.8068 159.238 33.5932C159.058 33.371 158.721 33.2043 158.225 33.0932L156.238 32.6446C155.717 32.5249 155.294 32.3625 154.969 32.1574C154.653 31.9438 154.422 31.696 154.277 31.4139C154.14 31.1234 154.072 30.8115 154.072 30.4782C154.072 30.0252 154.196 29.6108 154.444 29.2347C154.7 28.8502 155.063 28.5425 155.533 28.3118C156.012 28.081 156.576 27.9657 157.225 27.9657ZM162.465 39.2463V30.1449H163.362L163.452 31.7088L163.311 31.5293C163.422 31.2302 163.589 30.9696 163.811 30.7474C164.033 30.5166 164.302 30.3372 164.618 30.209C164.935 30.0808 165.277 30.0167 165.644 30.0167C166.165 30.0167 166.644 30.1491 167.08 30.4141C167.524 30.679 167.879 31.0593 168.144 31.555C168.409 32.0506 168.541 32.6488 168.541 33.3496C168.541 34.0418 168.404 34.64 168.131 35.1442C167.866 35.6399 167.511 36.0202 167.067 36.2851C166.622 36.55 166.135 36.6825 165.606 36.6825C165.076 36.6825 164.61 36.5543 164.208 36.2979C163.815 36.033 163.533 35.6997 163.362 35.2981L163.49 35.1058V39.2463H162.465ZM165.503 35.7852C166.135 35.7852 166.627 35.563 166.977 35.1186C167.336 34.6742 167.516 34.0845 167.516 33.3496C167.516 32.6146 167.34 32.025 166.99 31.5806C166.648 31.1362 166.165 30.914 165.541 30.914C165.131 30.914 164.772 31.0166 164.465 31.2217C164.157 31.4182 163.918 31.7002 163.747 32.0677C163.576 32.4266 163.49 32.8539 163.49 33.3496C163.49 33.8367 163.572 34.264 163.734 34.6315C163.905 34.999 164.14 35.2853 164.439 35.4904C164.747 35.6869 165.101 35.7852 165.503 35.7852ZM174.245 32.4138C174.245 31.9352 174.117 31.5678 173.86 31.3114C173.604 31.0465 173.241 30.914 172.771 30.914C172.326 30.914 171.95 31.0123 171.643 31.2088C171.335 31.3969 171.109 31.7045 170.963 32.1318L170.13 31.619C170.301 31.1405 170.617 30.7559 171.079 30.4653C171.54 30.1662 172.113 30.0167 172.796 30.0167C173.258 30.0167 173.677 30.0979 174.053 30.2602C174.429 30.4141 174.723 30.6534 174.937 30.9781C175.159 31.2943 175.27 31.7045 175.27 32.2087V35.3109C175.27 35.6185 175.433 35.7724 175.757 35.7724C175.92 35.7724 176.078 35.751 176.232 35.7083L176.181 36.5159C176.01 36.6013 175.787 36.6441 175.514 36.6441C175.266 36.6441 175.044 36.5971 174.847 36.503C174.651 36.409 174.497 36.268 174.386 36.08C174.275 35.8835 174.219 35.6399 174.219 35.3493V35.2212L174.476 35.2596C174.373 35.5929 174.198 35.8664 173.95 36.08C173.702 36.2851 173.424 36.439 173.117 36.5415C172.809 36.6355 172.506 36.6825 172.207 36.6825C171.831 36.6825 171.48 36.6184 171.156 36.4902C170.831 36.362 170.57 36.1698 170.374 35.9134C170.186 35.6485 170.092 35.3237 170.092 34.9391C170.092 34.4606 170.25 34.0675 170.566 33.7598C170.891 33.4436 171.339 33.23 171.912 33.1189L174.45 32.6189V33.465L172.386 33.888C171.967 33.9735 171.655 34.0931 171.45 34.2469C171.245 34.4007 171.143 34.6144 171.143 34.8879C171.143 35.1528 171.245 35.3707 171.45 35.5416C171.664 35.704 171.963 35.7852 172.348 35.7852C172.595 35.7852 172.831 35.7553 173.053 35.6955C173.283 35.6271 173.489 35.5288 173.668 35.4006C173.847 35.2639 173.988 35.0972 174.091 34.9007C174.194 34.6956 174.245 34.4563 174.245 34.1828V32.4138ZM178.275 28.9143C178.044 28.9143 177.856 28.8459 177.711 28.7092C177.574 28.5639 177.506 28.3759 177.506 28.1451C177.506 27.9144 177.574 27.7306 177.711 27.5939C177.856 27.4486 178.044 27.376 178.275 27.376C178.506 27.376 178.69 27.4486 178.826 27.5939C178.972 27.7306 179.044 27.9144 179.044 28.1451C179.044 28.3759 178.972 28.5639 178.826 28.7092C178.69 28.8459 178.506 28.9143 178.275 28.9143ZM178.788 30.1449V36.5543H177.762V30.1449H178.788ZM181.167 36.5543V30.1449H182.065L182.155 31.5806L181.988 31.4396C182.125 31.0977 182.308 30.8243 182.539 30.6192C182.77 30.4055 183.035 30.2517 183.334 30.1577C183.642 30.0637 183.958 30.0167 184.282 30.0167C184.744 30.0167 185.163 30.1064 185.539 30.2859C185.915 30.4568 186.214 30.7217 186.436 31.0807C186.667 31.4396 186.782 31.8968 186.782 32.4523V36.5543H185.757V32.8112C185.757 32.1019 185.603 31.6105 185.295 31.337C184.996 31.055 184.624 30.914 184.18 30.914C183.872 30.914 183.565 30.9866 183.257 31.1319C182.949 31.2772 182.693 31.5122 182.488 31.837C182.291 32.1617 182.193 32.5976 182.193 33.1445V36.5543H181.167Z" fill="#545458"/>
<defs>
<clipPath id="clip0_5279_63193">
<rect width="69.4252" height="48.0709" fill="white" transform="translate(0.5 0.518921)"/>
</clipPath>
</defs>
</svg>
