<svg version="1.2" xmlns="http://www.w3.org/2000/svg" viewBox="0 0 127 49" width="127" height="49">
	<title>ERUA-Logo-WEB_3x-_1_-svg</title>
	<style>
		.s0 { fill: #C6C6C8 } 
	</style>
	<g id="Layer">
		<path id="Layer" class="s0" d="m1.6 13.4v13.4h7 7l-7.8 4.2-7.8 4.2v5.9 6h16.2 16.2l-0.2-0.5c-0.2-0.3-2.9-4.8-6-10.1-3.1-5.3-5.6-9.7-5.6-9.7-0.1-0.1 0.1-0.1 0.2-0.2 1.8-0.1 4.3-1.1 6-2.3 2.7-1.9 4.5-4.7 5.3-8 0.3-1.4 0.4-3.6 0.2-5.1-0.5-2.9-1.8-5.2-3.8-7.3-2-1.9-4-3-6.8-3.7-0.8-0.1-1-0.1-10.5-0.2h-9.6z"/>
		<path id="Layer" class="s0" d="m42.7 4.4c0 0 0 4.4 0 9.8v9.6h6.9 7v-0.9-0.9h-5.8l-5.8-0.1v-3.6-3.6h5 5.1v-0.9-1h-5.1-5v-3.3-3.3h5.6 5.7v-1-1h-6.8c-5.3 0-6.8 0.1-6.8 0.2z"/>
		<path id="Layer" class="s0" d="m78.6 4.4c0 0 0 3 0 6.6 0.1 7 0.1 7 0.5 8.3 0.4 1.1 0.8 1.8 1.7 2.6 0.8 0.8 1.5 1.3 2.5 1.6 1.9 0.7 4.1 0.7 5.9 0.1 2.5-0.7 4-2.3 4.8-4.8l0.3-0.8v-6.9-6.9h-1.1-1.1v6.7c0 6.4 0 6.6-0.2 7.3-0.3 1-0.7 1.7-1.4 2.4-0.5 0.4-0.8 0.7-1.3 0.9-1 0.5-1.5 0.6-2.8 0.6-1.1-0.1-1.3-0.1-1.9-0.3-1.4-0.4-2.4-1.3-2.9-2.5-0.7-1.3-0.6-1-0.7-8.4v-6.7h-1.1c-0.9 0-1.1 0.1-1.2 0.2z"/>
		<path id="Layer" fill-rule="evenodd" class="s0" d="m105.2 4.3h1.8l3.6 9.7c2 5.3 3.6 9.7 3.6 9.8 0 0.1-0.3 0.1-1.1 0.1-0.8 0-1.1-0.1-1.2-0.1 0-0.1-0.4-1.2-0.9-2.5l-0.8-2.4h-10l-0.8 2.4c-0.5 1.3-0.9 2.4-1 2.5-0.1 0.1-2.2 0.1-2.2 0 0-0.1 5.2-14.1 7.1-19.4 0.1-0.2 0.1-0.2 1.9-0.1zm0 1.1c0-0.1-1 2.4-2.1 5.6l-2 5.8h4c2.3 0 4.1 0 4.1 0 0 0-0.8-2.6-1.9-5.7-1.1-3.1-2.1-5.7-2.1-5.7z"/>
		<path id="Layer" fill-rule="evenodd" class="s0" d="m60 4.3l5 0.1c4.9 0 5.1 0 5.8 0.2 1.2 0.3 2.2 0.9 2.9 1.6 1.1 1 1.5 2.2 1.5 3.8 0 1.5-0.4 2.7-1.5 3.8-0.9 0.9-1.9 1.3-3.5 1.7q-0.8 0.1-0.5 0.1c0.4 0.1 0.9 0.3 1.3 0.7 0.2 0.2 4.1 7.4 4.1 7.5 0 0.1-0.6 0.1-1.3 0.1l-1.3-0.1-4.3-8.1h-3-3v8.1h-2.2zm5.9 1.8h-3.6v7.7l3.6-0.1c3 0 3.6 0 4.1-0.1 1.2-0.4 2.2-1.2 2.7-2.2 0.2-0.5 0.2-0.6 0.2-1.5 0-1 0-1.1-0.3-1.6-0.5-1-1.4-1.7-2.6-2-0.5-0.1-1.1-0.2-4.1-0.2z"/>
		<path id="Layer" class="s0" d="m102.4 28.8c-0.1 0.1-0.3 0.2-0.4 0.4-0.2 0.3-0.2 0.8 0.1 1.2l0.2 0.3h-0.7-0.7v0.3 0.4h0.4 0.4v2.2 2.2h0.4 0.4v-2.2-2.2h0.7 0.7v-0.4-0.3h-0.7-0.7l0.1-0.5c0.1-0.6 0.2-0.7 0.9-0.8l0.5-0.1v-0.3-0.3l-0.7 0.1c-0.4 0-0.8 0-0.9 0z"/>
		<path id="Layer" class="s0" d="m42.7 32.3v3.5h2.5 2.5v-0.4-0.4h-2-2.1v-1.2-1.2h1.8 1.8v-0.4-0.4h-1.8-1.8v-1.1-1.1h2 2v-0.4-0.4h-2.4-2.5z"/>
		<path id="Layer" fill-rule="evenodd" class="s0" d="m89.3 28.8l1.9 0.1h1.9l0.6 0.2c0.7 0.4 1 0.9 1 1.6 0.1 1.1-0.4 1.7-1.6 2.1-0.1 0.1-0.1 0.1 0.1 0.2 0.1 0.2 1.5 2.6 1.5 2.8 0 0-0.2 0-0.5 0h-0.5l-1.5-2.9h-2v2.9h-0.9zm2.2 0.8h-1.3v2.6h1.3c1.2 0 1.4-0.1 1.7-0.2 0.9-0.6 0.9-1.7 0-2.2-0.3-0.1-0.6-0.2-1.7-0.2z"/>
		<path id="Layer" fill-rule="evenodd" class="s0" d="m62.2 31.6c0.8 1 0.8 2.6-0.1 3.5-0.6 0.7-2 1-2.9 0.6-0.8-0.5-1.4-1.4-1.4-2.4 0-1.3 0.7-2.3 1.8-2.6 0.9-0.2 2.1 0.1 2.6 0.9zm-1.8-0.2c-0.9-0.2-1.7 0.7-1.7 1.9 0 0.9 0.5 1.7 1.3 1.8 1 0.3 1.9-0.6 1.9-1.9 0-0.7-0.4-1.4-0.9-1.7-0.1 0-0.4-0.1-0.6-0.1z"/>
		<path id="Layer" fill-rule="evenodd" class="s0" d="m68.6 32c0.2 0.6 0.2 1.9 0 2.5-0.6 1.2-1.7 1.7-2.8 1.2-0.4-0.1-0.8-0.7-0.9-1.1q-0.1-0.3-0.2 1.4v1.6l-0.4 0.1h-0.4v-7h0.3 0.4v0.8c0.1 0.7 0.1 0.7 0.2 0.4 0.2-0.4 0.6-0.9 1-1.1 1.1-0.5 2.2 0 2.8 1.2zm-3.4-0.1c-0.3 0.3-0.5 0.8-0.5 1.4 0 1.6 1.6 2.5 2.6 1.4 1-0.9 0.7-2.8-0.4-3.3-0.6-0.2-1.2-0.1-1.7 0.5z"/>
		<path id="Layer" fill-rule="evenodd" class="s0" d="m72.2 30.6c1.2 0.2 2 0.9 2.1 2.3l0.1 0.5h-4v0.3c0 0.3 0.2 0.8 0.5 1 0.3 0.4 0.6 0.5 1.1 0.5q0.9 0 1.3-0.6c0.2-0.2 0.2-0.3 0.6-0.3 0.2 0 0.4 0.1 0.4 0.1 0 0-0.2 0.3-0.3 0.5-0.4 0.6-1.1 1-2 1-1.5-0.1-2.5-1.1-2.4-2.7 0-1.1 0.6-2.1 1.6-2.4 0.3-0.2 0.6-0.2 1-0.2zm-1.5 1.5c-0.2 0.2-0.3 0.5-0.3 0.6 0 0.2 0 0.2 1.6 0.2h1.6l-0.1-0.4q-0.2-0.8-0.9-1.1c-0.7-0.4-1.5-0.1-1.9 0.7z"/>
		<path id="Layer" fill-rule="evenodd" class="s0" d="m78 30.7c0.4 0.2 0.8 0.6 1 1.1l0.2 0.4 0.1-1.5h0.8v5.1h-0.8v-0.4c-0.1-0.2-0.1-0.6-0.1-0.8v-0.3l-0.1 0.4c-0.5 1.3-2.2 1.6-3.3 0.6-0.6-0.6-0.9-2.1-0.5-3.2 0.2-0.6 0.7-1.2 1.2-1.3 0.5-0.2 1.1-0.2 1.5-0.1zm-1.8 1.5c-0.2 0.3-0.2 0.5-0.2 1 0 1.2 0.6 1.9 1.6 1.9 0.6 0 1-0.2 1.3-0.8 0.5-0.9 0.2-2.3-0.5-2.7-0.8-0.5-1.7-0.2-2.2 0.6z"/>
		<path id="Layer" class="s0" d="m83.5 30.7c-0.5 0.1-0.7 0.4-1 0.8l-0.2 0.5v-0.3c0-0.2 0-0.5-0.1-0.7 0-0.3 0-0.3-0.4-0.3h-0.3v2.6 2.5h0.4 0.5v-1.9c0-1.6 0.1-1.8 0.2-2 0.3-0.4 0.6-0.5 1.1-0.5 0.4 0 0.9 0.2 1 0.5 0.1 0.1 0.1 0.7 0.2 2v1.9h0.4 0.5v-1.9c0-2-0.1-2.3-0.6-2.8-0.3-0.4-1.2-0.6-1.7-0.4z"/>
		<path id="Layer" fill-rule="evenodd" class="s0" d="m99 30.9q1.1 0.5 1.2 2l0.1 0.5h-4v0.3c0 0.5 0.4 1.1 0.9 1.4 0.6 0.3 1.7 0 2-0.5 0.1-0.2 0.2-0.3 0.6-0.3 0.2 0 0.4 0.1 0.4 0.1 0 0-0.2 0.3-0.3 0.5-0.8 1.2-2.7 1.3-3.7 0.3-0.5-0.5-0.8-1.1-0.8-2 0-1.2 0.6-2.1 1.7-2.4 0.6-0.3 1.3-0.2 1.9 0.1zm-2.5 1.2c-0.1 0.2-0.2 0.5-0.2 0.6 0 0.2 0 0.2 1.5 0.2h1.6l-0.1-0.4c-0.1-0.5-0.4-0.9-0.8-1.1-0.7-0.4-1.5-0.1-2 0.7z"/>
		<path id="Layer" fill-rule="evenodd" class="s0" d="m107.9 30.9c0.9 0.5 1.3 1.2 1.3 2.4 0 1.1-0.4 1.9-1.3 2.3-0.7 0.3-1.6 0.4-2.2 0.1-1.6-0.8-1.9-3.2-0.6-4.4 0.4-0.4 0.6-0.5 1.2-0.6 0.4-0.1 1.1 0 1.6 0.2zm-2.7 2.3c0 1.3 0.9 2.2 1.9 1.9 0.5-0.1 0.8-0.4 1.1-0.9 0.4-1 0.1-2.3-0.7-2.7-1.2-0.6-2.3 0.3-2.3 1.7z"/>
		<path id="Layer" class="s0" d="m116 30.7c-0.3 0.1-0.6 0.4-0.8 0.8-0.2 0.3-0.2 0.3-0.2 0.1-0.1-0.1-0.1-0.3-0.1-0.5v-0.4h-0.4-0.4v2.6 2.5h0.4 0.5v-1.8c0-1.9 0.1-2.1 0.6-2.5 0.4-0.2 1.1-0.1 1.4 0.1 0.4 0.3 0.5 0.8 0.5 2.7v1.5h0.4 0.4v-1.5c0-1.8 0-2.3 0.5-2.6 0.2-0.3 0.3-0.3 0.7-0.3 0.5 0 0.6 0 0.8 0.2 0.4 0.4 0.4 0.8 0.4 2.6v1.6h0.5 0.4v-1.7c0-2 0-2.4-0.6-2.9-0.4-0.5-0.9-0.6-1.5-0.6-0.5 0.1-0.9 0.4-1.1 1-0.3 0.4-0.3 0.5-0.3 0.2-0.1-0.4-0.4-0.8-0.7-1-0.3-0.1-1-0.2-1.4-0.1z"/>
		<path id="Layer" class="s0" d="m48.8 32.4c0 1.4 0 1.9 0.1 2.3 0.2 0.6 0.6 1 1.2 1.1 0.8 0.2 1.5-0.1 1.9-0.8l0.2-0.4v0.6l0.1 0.6h0.4 0.3v-2.5-2.6h-0.4-0.4v1.7c-0.1 1.9-0.1 2.1-0.6 2.5-0.2 0.2-0.3 0.2-0.7 0.2-0.5 0-0.6 0-0.8-0.2-0.4-0.4-0.5-0.7-0.5-2.6v-1.6h-0.4-0.4z"/>
		<path id="Layer" class="s0" d="m54.4 30.8c0 0.1 0 1.2 0 2.5v2.5h0.5 0.4l0.1-1.8c0-1.5 0-1.7 0.2-1.9 0.3-0.5 0.6-0.6 1.2-0.7h0.6v-0.4-0.3h-0.4c-0.8 0-1.4 0.4-1.6 1.1 0 0.2-0.1 0.2-0.1 0.1-0.1-0.1-0.1-0.4-0.1-0.7v-0.5h-0.4c-0.2 0-0.3 0-0.4 0.1z"/>
		<path id="Layer" class="s0" d="m110.3 33.3v2.5h0.4 0.5v-1.6c0-1.5 0-1.6 0.2-2 0.2-0.5 0.8-0.8 1.4-0.8h0.4v-0.4-0.3h-0.4c-0.8 0-1.4 0.4-1.6 1.2-0.1 0.2-0.1 0.2-0.1-0.1 0-0.1 0-0.5-0.1-0.7 0-0.4 0-0.4-0.3-0.4h-0.4z"/>
		<path id="Layer" class="s0" d="m98.1 43.4v3.7h0.5 0.4v-3.7-3.6h-0.4-0.5z"/>
		<path id="Layer" class="s0" d="m100.5 43.4v3.7h0.4 0.5v-3.7-3.6h-0.5-0.4z"/>
		<path id="Layer" class="s0" d="m55.8 40.1c-0.2 0.2-0.1 0.7 0.1 0.8 0.5 0.1 0.9-0.3 0.7-0.7-0.2-0.2-0.6-0.3-0.8-0.1z"/>
		<path id="Layer" class="s0" d="m77.8 40.1c-0.2 0.2-0.2 0.6 0.1 0.8 0.2 0.1 0.3 0.1 0.5-0.1q0.2-0.1 0.2-0.4c0-0.4-0.5-0.6-0.8-0.3z"/>
		<path id="Layer" class="s0" d="m103.3 40.1c-0.2 0.2-0.2 0.6 0.1 0.7 0.2 0.2 0.2 0.2 0.5 0.1 0.2-0.2 0.3-0.6 0.1-0.8-0.2-0.1-0.6-0.2-0.7 0z"/>
		<path id="Layer" class="s0" d="m42.7 42.6c0 2.3 0 2.5 0.2 2.9 0.3 0.6 0.6 1 1 1.2 1.3 0.7 3.1 0.4 3.9-0.6 0.5-0.7 0.5-1 0.5-3.7v-2.3h-0.4-0.5v2.4c0 2.3 0 2.5-0.2 2.8-0.4 0.7-0.9 1-1.7 1q-1.1 0-1.6-0.8l-0.2-0.3-0.1-2.6v-2.5h-0.5-0.5z"/>
		<path id="Layer" fill-rule="evenodd" class="s0" d="m93.8 40.1h0.7l1.2 3.3c0.7 1.8 1.3 3.3 1.3 3.5 0.1 0.2 0.1 0.2-0.4 0.1h-0.4l-0.4-0.9-0.3-0.8h-3.4l-0.3 0.8-0.3 0.9h-0.4c-0.3 0.1-0.5 0-0.5 0 0 0 1.1-3.1 2.5-6.7 0.1-0.2 0.1-0.2 0.7-0.2zm0 0.4c0 0-0.3 0.9-0.7 2l-0.7 1.9 1.4 0.1c0.7 0 1.4 0 1.4 0 0-0.1-0.3-1-0.7-2-0.3-1.1-0.7-2-0.7-2z"/>
		<path id="Layer" class="s0" d="m80.4 41.2v0.7h-0.5-0.4v0.4 0.3h0.4 0.5v1.8c0 1.6 0 1.8 0.2 2 0.4 0.5 0.6 0.6 1.4 0.6l0.8 0.1v-0.4-0.4h-0.5c-1 0-1-0.2-1-2.2v-1.5h0.7 0.8v-0.3-0.4h-1-0.9l0.2-0.2c0.1-0.1 0.2-0.2 0.2-0.7v-0.5h-0.5-0.4z"/>
		<path id="Layer" class="s0" d="m51.5 42q-0.6 0.3-0.8 0.9c-0.1 0.3-0.1 0.3-0.1-0.3l-0.1-0.7h-0.4-0.4v2.6l0.1 2.5h0.4l0.4 0.1v-1.6c0-1.7 0.1-2.2 0.4-2.6 0.6-0.5 1.7-0.4 2 0.3 0.1 0.2 0.2 0.6 0.2 2.1v1.8h0.4 0.5v-1.9c0-1-0.1-2-0.1-2.2-0.3-0.9-1.5-1.4-2.5-1z"/>
		<path id="Layer" fill-rule="evenodd" class="s0" d="m66.6 42.4c0.4 0.2 0.8 1.1 0.8 1.8v0.5h-4l0.1 0.2c0.1 0.6 0.4 1.1 0.8 1.3 0.7 0.4 1.7 0.2 2.1-0.4 0.1-0.2 0.2-0.2 0.6-0.2h0.4l-0.2 0.3c-0.8 1.7-3.5 1.6-4.3-0.2-0.3-0.7-0.3-1.8 0-2.5 0.3-0.6 0.8-1.1 1.4-1.2 0.7-0.3 1.6-0.1 2.3 0.4zm-3.1 1.5l-0.1 0.2h3.2v-0.2c0-0.5-0.5-1.2-1-1.3-0.9-0.4-1.9 0.2-2.1 1.3z"/>
		<path id="Layer" class="s0" d="m73.2 42c-0.6 0.2-1 0.7-1.1 1 0 1.1 0.3 1.3 1.8 1.6 1 0.2 1.3 0.3 1.5 0.5 0.3 0.4 0 1.1-0.4 1.2-0.4 0.2-1.2 0.2-1.5 0-0.2-0.1-0.4-0.3-0.5-0.5-0.2-0.3-0.3-0.3-0.6-0.3-0.2 0-0.3 0-0.4 0-0.1 0.2 0.3 0.8 0.6 1.1q0.7 0.5 1.8 0.5c1.2 0 1.9-0.6 1.9-1.6 0-0.9-0.4-1.2-2-1.5-0.5-0.1-1-0.2-1.1-0.3-0.4-0.3-0.3-1 0.3-1.1 0.8-0.3 1.5-0.1 1.8 0.4 0.1 0.3 0.2 0.3 0.5 0.3 0.3 0 0.3 0 0.3-0.2 0-0.1-0.1-0.3-0.2-0.5-0.4-0.6-1.7-0.9-2.7-0.6z"/>
		<path id="Layer" fill-rule="evenodd" class="s0" d="m108.6 42.3c0.1 0.1 0.3 0.4 0.4 0.6l0.2 0.4 0.1-0.4c0-0.2 0-0.5 0-0.7 0-0.3 0-0.3 0.4-0.3h0.4v5.2l-0.3-0.1h-0.4l-0.1-1.5-0.2 0.4c-0.5 1.3-2.1 1.6-3.1 0.6-1-0.9-1.1-2.8-0.2-3.9 0.1-0.2 0.4-0.4 0.6-0.5 0.8-0.4 1.7-0.3 2.2 0.2zm-2 0.7c-0.6 0.7-0.7 1.6-0.3 2.5 0.3 0.6 0.7 0.8 1.3 0.8 0.7 0 1-0.1 1.3-0.7 0.3-0.4 0.4-1.3 0.3-1.9-0.2-0.4-0.7-1-1.1-1.1-0.6-0.1-1 0-1.5 0.4z"/>
		<path id="Layer" class="s0" d="m113.3 42c-0.3 0.2-0.7 0.5-0.8 0.9 0 0.3-0.2 0-0.2-0.5v-0.5h-0.4-0.4v2.6 2.6h0.5 0.4v-1.8c0.1-1.7 0.1-1.8 0.3-2.1 0.5-0.9 1.8-0.8 2.2 0.1 0.1 0.2 0.1 0.7 0.1 2v1.8h0.4 0.5v-1.8c0-1-0.1-2-0.1-2.2-0.3-1-1.5-1.5-2.5-1.1z"/>
		<path id="Layer" class="s0" d="m118.6 42c-0.8 0.3-1.2 0.6-1.5 1.4-0.3 0.6-0.3 1.5 0 2.2 0.6 1.5 2.6 2 3.8 0.9 0.4-0.3 0.7-0.8 0.7-1.1q0-0.1-0.4-0.1c-0.3 0-0.4 0-0.5 0.3-0.1 0.2-0.3 0.4-0.5 0.6-0.3 0.1-0.4 0.2-0.9 0.1-0.8 0-1.3-0.4-1.5-1.3-0.3-1.2 0.5-2.4 1.5-2.5 0.6 0 1.2 0.5 1.4 0.9 0.1 0.3 0.2 0.3 0.5 0.3 0.4 0 0.4 0 0.4-0.3-0.1-0.1-0.2-0.4-0.3-0.6-0.5-0.8-1.8-1.2-2.7-0.8z"/>
		<path id="Layer" fill-rule="evenodd" class="s0" d="m125.9 42.1q1.2 0.6 1.3 2v0.6h-4l0.1 0.3c0 0.5 0.4 1.1 0.8 1.3 0.7 0.3 1.7 0.1 2.1-0.5 0.1-0.2 0.2-0.2 0.5-0.2 0.2 0 0.4 0 0.4 0 0 0.5-0.8 1.2-1.4 1.4-1.3 0.3-2.5-0.2-3-1.3-0.4-0.7-0.3-1.8 0-2.5 0.3-0.6 0.8-1.1 1.4-1.2 0.5-0.2 1.4-0.1 1.8 0.1zm-2.6 1.8l-0.1 0.2h3.2v-0.2c0-0.5-0.5-1.2-1-1.3-0.9-0.4-1.9 0.2-2.1 1.3z"/>
		<path id="Layer" class="s0" d="m54.8 42.3v0.3h0.5 0.4v2.2 2.3h0.5 0.4v-2.6-2.6h-0.9-0.9z"/>
		<path id="Layer" class="s0" d="m57.5 42c0 0 0.4 1.2 0.9 2.6l0.9 2.5 0.6-0.1h0.5l0.9-2.5c0.5-1.3 0.9-2.5 0.9-2.5 0 0-0.2-0.1-0.4-0.1h-0.5l-0.7 2.3-0.7 2.2-0.8-2.2-0.7-2.3h-0.5c-0.2 0-0.4 0.1-0.4 0.1z"/>
		<path id="Layer" class="s0" d="m68.5 44.5v2.6h0.5 0.4v-1.7c0-1.5 0-1.6 0.2-2 0.3-0.5 0.6-0.7 1.3-0.8h0.5v-0.3-0.4h-0.5c-0.7 0.1-1.1 0.3-1.4 0.9l-0.2 0.5v-0.7l-0.1-0.7h-0.3-0.4z"/>
		<path id="Layer" class="s0" d="m76.7 42.3v0.3h0.5 0.5v2.3 2.2l0.4-0.1h0.5v-2.5-2.6h-0.9-1z"/>
		<path id="Layer" class="s0" d="m83.2 42c0 0.1 0.5 1.3 0.9 2.6 0.9 2.4 0.9 2.5 1.1 2.5 0.2 0 0.3 0 0.3 0 0 0.2-0.5 0.9-0.6 1-0.1 0.1-0.4 0.1-0.7 0.1h-0.6v0.4 0.4h0.7c0.8-0.1 1.2-0.2 1.5-0.7 0.1-0.2 0.7-1.7 1.3-3.3l1-3-0.3-0.1c-0.2 0-0.4 0-0.5 0.1-0.1 0-0.5 1-0.9 2.3l-0.8 2.4-0.8-2.4-0.7-2.4h-0.5q-0.4 0-0.4 0.1z"/>
		<path id="Layer" class="s0" d="m102.3 42.3v0.3h0.4 0.5v2.2 2.2h0.4l0.4 0.1v-2.6-2.6h-0.8-0.9z"/>
	</g>
</svg>