<svg version="1.2" xmlns="http://www.w3.org/2000/svg" viewBox="0 0 200 40" width="200" height="40">
	<title>a3-large-default-svg</title>
	<style>
		.s0 { fill: #8C8C90 } 
	</style>
	<path id="Layer" fill-rule="evenodd" class="s0" d="m192.5 20.2h7.3c-3.9-1.9-7-5.1-9-9-3.2-6.3-9.4-10-17.4-10.8l0.2 0.6c5.5 2.2 9.4 5.7 11.6 10.7 1.6 3.5 4.1 6.4 7.3 8.5z"/>
	<path id="Layer" fill-rule="evenodd" class="s0" d="m192.5 20.2h7.3c-3.9 2-7 5.1-9 9-3.2 6.4-9.4 10-17.4 10.8l0.2-0.6c5.5-2.2 9.4-5.7 11.6-10.7 1.6-3.5 4.1-6.4 7.3-8.5z"/>
	<path id="Layer" fill-rule="evenodd" class="s0" d="m173.4 6.8c1.3 4.9 3.1 9 4.7 11 0.8 1 1.9 1.9 3.1 2.4h5.8c-2.7-1.2-4.9-3.4-6.1-6.1-1.5-3.3-4.2-5.9-7.5-7.3z"/>
	<path id="Layer" fill-rule="evenodd" class="s0" d="m173.4 33.6c1.3-4.9 3.1-9 4.7-11 0.8-1 1.9-1.8 3.1-2.4h5.8c-2.7 1.2-4.9 3.4-6.1 6.1-1.5 3.3-4.2 5.9-7.5 7.3z"/>
	<path id="Layer" fill-rule="evenodd" class="s0" d="m49.4 29.7l0.7-3.3h-15.9v-4.2h12.6q0.1 0 0.1 0v-3.8h-12.7v-4.1h14.2c0.4 0 0.7-0.3 0.7-0.6l0.6-3.3h-19.2c-0.4 0-0.7 0.3-0.7 0.7v19.1h19c0.3 0 0.6-0.2 0.6-0.5z"/>
	<path id="Layer" fill-rule="evenodd" class="s0" d="m102.9 29.7l0.6-3.3h-15.8v-4.2h12.6q0 0 0 0v-3.8h-12.6v-4.1h14.2c0.3 0 0.6-0.3 0.7-0.6l0.6-3.3h-19.3c-0.3 0-0.6 0.3-0.6 0.7v19.1h19c0.3 0 0.5-0.2 0.6-0.5z"/>
	<path id="Layer" fill-rule="evenodd" class="s0" d="m140.6 16.3l14 13.4c0.3 0.3 0.8 0.5 1.3 0.5h3.2v-19.8h-3.6c-0.4 0-0.7 0.3-0.7 0.7v12.7l-13.6-12.9c-0.3-0.3-0.7-0.5-1.2-0.5h-3.9v19.8h4.4z"/>
	<path id="Layer" fill-rule="evenodd" class="s0" d="m4.9 30.2h-4.9l10.4-19.8h4.2c0.6 0 1.1 0.3 1.4 0.8l10 19h-4.4c-0.4 0-0.8-0.2-1-0.6l-1.9-3.7h-10.8c-0.5 0-0.9 0.3-1.1 0.7zm4.3-8.1h7.5l-3.8-7.1z"/>
	<path id="Layer" fill-rule="evenodd" class="s0" d="m111.2 30.2h-4.9l10.4-19.8h4.2c0.6 0 1.1 0.3 1.4 0.8l10 19h-4.4c-0.4 0-0.8-0.2-1-0.6l-2-3.7h-10.7c-0.5 0-0.9 0.3-1.1 0.7zm4.3-8.1h7.4l-3.7-7.1z"/>
	<path id="Layer" fill-rule="evenodd" class="s0" d="m77.3 27.7v-8.7h-8.3v3.2c0 0.3 0.2 0.6 0.6 0.6h3.3v2.6c-1.2 0.8-3.9 1.4-6.8 1.4-4.6 0-7.5-2.5-7.5-6.5 0.1-4 3-6.5 7.6-6.5 3.1 0 6 0.8 8.6 2.2l1.9-3.7c-5.4-2.7-10.1-2.5-10.5-2.5-7.1 0-12.1 4.3-12.1 10.5 0 6.3 4.7 10.6 11.8 10.6 7.6 0 11.4-3.2 11.4-3.2z"/>
</svg>