<svg width="48" height="48" viewBox="0 0 48 48" fill="none" xmlns="http://www.w3.org/2000/svg">
<g clip-path="url(#clip0_6385_58713)">
<path fill-rule="evenodd" clip-rule="evenodd" d="M22.2407 0.0230114C15.8379 0.604602 10.1194 3.46334 6.04201 8.1207C-3.53536 19.0601 -1.32954 35.731 10.7716 43.8661C18.6913 49.1903 29.2315 49.2149 37.168 43.9276C42.8599 40.1356 46.5934 34.3721 47.6869 27.6889C48.0364 25.5539 48.0079 21.9674 47.6244 19.8237C45.616 8.59441 36.0961 0.362148 24.7264 0.0230114C23.6968 -0.00767046 22.5782 -0.00767046 22.2407 0.0230114ZM26.3316 0.826193C26.9691 0.868602 28.1964 1.06006 29.0589 1.25178C39.0054 3.46305 46.5415 12.1922 47.1747 22.2352C47.552 28.2218 45.8764 33.7084 42.2607 38.3253C41.967 38.7003 41.1623 39.5802 40.4724 40.2806C37.228 43.5745 33.2922 45.717 28.604 46.7414C27.3913 47.0063 26.8172 47.0442 24.0135 47.0442C21.2026 47.0442 20.6372 47.0067 19.4113 46.739C16.5499 46.1141 13.7691 44.9741 11.5009 43.4959C9.92851 42.4711 9.3191 41.9817 7.87542 40.584C4.44805 37.2659 2.25151 33.2951 1.21337 28.541C0.945691 27.3151 0.908191 26.7498 0.908191 23.9389C0.908191 21.1351 0.9461 20.561 1.21105 19.3484C2.23542 14.6602 4.37796 10.7243 7.67182 7.47993C10.2585 4.93225 12.7778 3.3196 16.1044 2.08223C18.5545 1.17092 22.2485 0.564784 24.4907 0.706193C24.8657 0.729921 25.6941 0.783921 26.3316 0.826193ZM22.2646 16.4505C21.9403 16.6154 21.5453 16.9256 21.3867 17.14C20.9884 17.6787 20.8771 17.6299 20.8771 16.9162C20.8771 16.3935 20.8367 16.3025 20.6044 16.3025C20.3481 16.3025 20.3316 16.3935 20.3316 17.8103C20.3316 19.7726 20.1634 20.4162 19.4582 21.151C18.791 21.8463 18.1675 22.0185 17.4313 21.7109C16.7645 21.4323 16.6515 20.9506 16.6506 18.3821L16.6498 16.3025H16.2983H15.9467L15.9915 18.8594C16.0404 21.659 16.1251 21.98 16.8951 22.284C18.0497 22.74 18.8607 22.5638 19.7318 21.6674L20.3316 21.0502V21.7445C20.3316 22.348 20.3674 22.4389 20.6044 22.4389C20.8577 22.4389 20.8771 22.348 20.8771 21.162C20.8771 18.8084 21.2979 17.6712 22.3718 17.1235C23.1451 16.729 23.6795 16.7658 24.1603 17.2466L24.5589 17.6452V20.042V22.4389H24.8998H25.2407L25.2387 19.9503C25.2373 18.2467 25.1836 17.3583 25.0682 17.1338C24.6107 16.2436 23.3003 15.9243 22.2646 16.4505ZM27.825 16.3471C27.5588 16.4351 27.2151 16.5991 27.0612 16.7116C26.7182 16.9623 26.2905 17.7619 26.4023 17.9429C26.5573 18.1938 26.9701 18.0745 27.1251 17.7341C27.5989 16.6942 29.6957 16.5194 30.1348 17.483C30.3079 17.8631 30.3354 18.3469 30.1839 18.3502C30.1277 18.3513 29.5164 18.4715 28.8255 18.6175C26.7642 19.0526 26.0559 19.5844 26.061 20.6935C26.0685 22.3777 28.4374 23.1522 29.8767 21.941C30.1082 21.7462 30.3105 21.6098 30.326 21.6379C30.3417 21.666 30.4217 21.8116 30.5042 21.9616C30.5866 22.1116 30.8049 22.3201 30.9893 22.4249C31.2766 22.5881 31.3819 22.5878 31.7258 22.423C32.324 22.1363 32.249 21.8253 31.5816 21.8253H31.0362L30.968 19.5506C30.907 17.5175 30.8695 17.2351 30.6143 16.8915C30.1249 16.2325 28.8969 15.9927 27.825 16.3471ZM30.2604 19.9336C30.2075 20.7644 30.1633 20.8737 29.7124 21.2869C28.8128 22.1114 27.2117 22.0152 26.8643 21.1159C26.5373 20.2699 27.131 19.6729 28.6696 19.3008C30.3651 18.8906 30.3278 18.8757 30.2604 19.9336ZM9.61773 25.0186C8.10382 25.3915 7.18692 26.9123 7.42569 28.6545C7.79114 31.3208 10.9184 32.2171 12.5217 30.1151C12.876 29.6505 12.8794 29.6292 12.6291 29.4462C12.279 29.1901 12.2519 29.1994 11.9873 29.6641C11.6176 30.314 10.9686 30.6457 10.1966 30.5791C9.83332 30.5479 9.37528 30.4015 9.17387 30.2523C8.64737 29.8623 8.19532 29.1413 8.19532 28.6915V28.3025H10.5817H12.9681L12.9672 27.8594C12.9655 26.795 12.3311 25.6778 11.482 25.2435C11.0026 24.9985 10.1281 24.8929 9.61773 25.0186ZM23.6357 25.0242C22.3864 25.3286 21.5599 26.417 21.4539 27.897C21.3981 28.6762 21.4403 28.9304 21.7298 29.5628C22.9651 32.2612 26.6933 31.6308 27.1013 28.6545C27.4133 26.3786 25.6513 24.5329 23.6357 25.0242ZM30.235 25.0938C29.9443 25.1974 29.4995 25.4828 29.2464 25.7281L28.7862 26.1742V25.602C28.7862 25.0826 28.7547 25.0298 28.4453 25.0298H28.1044V29.1889V33.348H28.4453H28.7862V31.7656V30.1834L29.2517 30.5922C30.577 31.7558 32.333 31.39 33.2326 29.7627C33.7444 28.8371 33.7842 27.4564 33.3242 26.585C32.9445 25.8656 32.2037 25.2192 31.5512 25.038C30.9141 24.8611 30.8844 24.8624 30.235 25.0938ZM36.3861 25.0418C35.7068 25.2019 35.2258 25.5299 34.9838 25.9979C34.6939 26.5585 34.7329 26.8025 35.1124 26.8025C35.3458 26.8025 35.4625 26.7064 35.5234 26.4641C35.6783 25.847 36.9814 25.4235 37.8465 25.709C38.378 25.8844 38.6044 26.1865 38.6044 26.7202C38.6044 27.0961 38.4304 27.1683 36.7474 27.4897C35.1068 27.8032 34.2496 28.6432 34.4547 29.7365C34.7577 31.3514 37.0892 31.852 38.432 30.5905C38.6074 30.4257 38.7407 30.3724 38.7407 30.4668C38.7407 30.7612 39.3992 31.3025 39.7573 31.3025C40.1172 31.3025 40.7416 30.8033 40.5815 30.6435C40.5315 30.5935 40.2349 30.5525 39.9225 30.5525H39.3544L39.2862 28.2029C39.2192 25.8975 39.2113 25.8466 38.8644 25.5003C38.3292 24.9656 37.4221 24.7979 36.3861 25.0418ZM13.9246 27.5185C13.926 29.222 13.9797 30.1105 14.095 30.3349C14.7237 31.5582 16.8557 31.5742 17.7519 30.362C17.924 30.1293 18.1145 29.9389 18.1755 29.9389C18.2364 29.9389 18.2862 30.215 18.2862 30.5525C18.2862 31.0752 18.3265 31.1662 18.5589 31.1662C18.8147 31.1662 18.8316 31.075 18.8325 29.7003C18.8329 28.8941 18.8948 28.0124 18.9702 27.741C19.2643 26.682 20.2509 25.7116 21.0336 25.7116C21.3575 25.7116 21.4225 25.6546 21.4225 25.3707C21.4225 25.0966 21.3548 25.0298 21.0762 25.0298C20.5531 25.0298 19.727 25.5057 19.254 26.0797L18.8316 26.592V25.8109C18.8316 25.1389 18.796 25.0298 18.5766 25.0298C18.3437 25.0298 18.3163 25.1851 18.2589 26.8366C18.1932 28.7275 18.0613 29.2105 17.418 29.9178C16.6821 30.7268 15.6391 30.8583 15.003 30.2221L14.6044 29.8235V27.4267V25.0298H14.2635H13.9225L13.9246 27.5185ZM11.3198 25.9545C11.7379 26.2661 12.1094 26.8732 12.1726 27.348L12.2181 27.6889L10.2067 27.7267C8.24946 27.7634 8.19532 27.7568 8.19532 27.4812C8.19532 26.8769 8.86528 26.0123 9.5591 25.7215C10.0296 25.5243 10.8966 25.639 11.3198 25.9545ZM25.3771 25.9699C26.4799 26.7595 26.7544 28.5498 25.9588 29.764C25.6791 30.1908 24.8244 30.6207 24.2554 30.6207C22.3663 30.6207 21.4411 27.8782 22.8058 26.3238C23.4751 25.5614 24.5919 25.4077 25.3771 25.9699ZM31.8122 25.8619C32.2448 26.0935 32.7398 26.8898 32.8639 27.5538C33.2495 29.618 31.52 31.2481 29.8783 30.3678C28.2625 29.5012 28.4976 26.2324 30.2128 25.7161C30.6535 25.5835 31.4229 25.6535 31.8122 25.8619ZM38.6044 28.613C38.6044 29.614 38.4147 29.9577 37.6463 30.3498C36.7723 30.7957 35.5137 30.6101 35.28 30.001C35.0668 29.4455 35.1924 28.8686 35.5876 28.5871C35.9112 28.3568 37.7949 27.8156 38.4339 27.7694C38.5535 27.7608 38.6044 28.0126 38.6044 28.613Z" fill="#C6C6C8"/>
</g>
<defs>
<clipPath id="clip0_6385_58713">
<rect width="47.8636" height="48" fill="white" transform="translate(0.0703125)"/>
</clipPath>
</defs>
</svg>
