<svg width="164" height="50" viewBox="0 0 164 50" fill="none" xmlns="http://www.w3.org/2000/svg">
<g clip-path="url(#clip0_6385_58716)">
<path d="M0.8125 13.6045C0.8125 13.6045 21.3639 10.9449 21.9438 10.8506C22.8338 10.7054 23.623 10.5352 24.3599 10.3324C26.0221 9.87688 27.5522 9.18188 28.9068 8.26569C30.2065 7.3953 31.4146 6.12838 32.6121 4.73839C33.3726 3.85361 34.1723 2.70055 34.9183 1.58803V1.05005C34.0336 2.3602 33.1619 3.48973 32.2653 4.48576C31.0769 5.809 29.8309 6.89015 28.56 7.70163C27.2485 8.54714 25.7734 9.17667 24.1727 9.57587C23.4555 9.75649 22.6885 9.90307 21.8247 10.0235C21.2566 10.1033 20.6703 10.1649 20.1035 10.2238C19.8771 10.2487 0.8125 12.2708 0.8125 12.2708V13.6045Z" fill="#C6C6C8"/>
<path d="M28.3728 10.1589C27.0862 10.8984 25.6007 11.4403 23.9568 11.7675C23.2552 11.9102 22.4896 12.0253 21.6179 12.1196C21.1048 12.1758 20.5891 12.2203 20.0721 12.2648C19.7933 12.2884 19.5146 12.3132 19.2358 12.3381C12.9376 12.9036 6.67219 13.5043 0.8125 14.0724V15.4061C6.718 14.6941 13.0279 13.9389 19.3235 13.2269C19.6036 13.1942 19.8836 13.1627 20.1637 13.1326C20.6794 13.0763 21.1964 13.0188 21.7134 12.9507C22.61 12.8316 23.394 12.6941 24.1099 12.5318C25.8179 12.1497 27.3598 11.5476 28.6935 10.7401C30.018 9.94558 31.1881 8.83176 32.4472 7.47056C33.2312 6.62374 34.1029 5.42747 34.9196 4.30448V3.81494C33.9576 5.11855 33.0454 6.21408 32.1436 7.14859C30.9146 8.4221 29.6463 9.43383 28.3728 10.1589Z" fill="#C6C6C8"/>
<path d="M31.9695 9.83241C30.7156 10.9829 29.4068 11.8873 28.0783 12.5208C26.7786 13.1477 25.3258 13.5875 23.6335 13.865C22.9359 13.9815 22.1767 14.0757 21.3142 14.1542L0.8125 15.8374V17.1672L19.0368 15.234L21.3941 14.9866C22.2828 14.8833 23.0576 14.7681 23.7617 14.6346C25.5143 14.3034 27.0182 13.81 28.3571 13.1241C29.7261 12.4318 31.0939 11.28 32.3661 10.0602C33.2194 9.24216 34.0414 8.18588 34.9196 7.0786V6.63489C33.9053 7.89661 32.9368 8.94633 31.9695 9.83241Z" fill="#C6C6C8"/>
<path d="M27.0116 16.7398C25.818 17.4073 24.9253 17.7922 23.2212 17.9702C22.1911 18.0814 21.1323 18.1337 20.1075 18.1848C19.6127 18.2096 19.1167 18.2345 18.6206 18.2659C15.5239 18.4426 12.4821 18.639 9.37887 18.8405L0.8125 19.4177V20.7475L9.46528 19.9543C12.261 19.703 15.5095 19.4138 18.6808 19.1546L20.987 18.9767C21.8875 18.9073 22.6257 18.834 23.3089 18.745C25.0628 18.5186 26.5614 18.1639 27.8886 17.6626C29.3178 17.1286 30.6659 16.2988 32.0153 15.3224C33.2326 14.4428 34.917 12.7086 34.9183 12.6863V12.2164C33.8176 13.2897 33.1841 13.8931 31.9787 14.6876C30.5377 15.6365 28.0823 16.1417 27.0116 16.7398Z" fill="#C6C6C8"/>
<path d="M27.4475 19.2678C26.1543 19.6473 24.6989 19.9039 22.9974 20.0518C22.3076 20.112 21.5642 20.1578 20.7239 20.1918L18.4309 20.2925C12.7335 20.5569 7.06223 20.8527 0.8125 21.1839V22.5098C6.78344 22.0477 12.634 21.5988 18.4832 21.1826L20.7684 21.0268C21.6519 20.9679 22.3836 20.9051 23.072 20.8279C24.8154 20.6329 26.3075 20.3318 27.632 19.9077C29.0992 19.4431 30.5298 18.7691 31.8831 17.9052C32.8818 17.2691 33.8817 16.51 34.9183 15.6056V15.582C33.7757 16.5571 32.6868 16.7744 31.6017 17.4288C30.2719 18.235 28.8741 18.8529 27.4475 19.2678Z" fill="#C6C6C8"/>
<path d="M27.2367 21.4717C25.9344 21.7766 24.5222 21.9717 22.7932 22.0881C22.127 22.1326 21.4098 22.1654 20.5368 22.1928L18.2659 22.274C12.5436 22.4899 6.74156 22.7386 0.8125 22.9965V24.3223C6.7036 23.9205 12.4821 23.5292 18.3104 23.1653L20.576 23.0292C21.4647 22.9781 22.1885 22.9271 22.8547 22.8656C24.6151 22.7033 26.0561 22.4664 27.3885 22.1221C28.8832 21.7373 30.3361 21.1719 31.7064 20.4442C32.7666 19.8827 33.8241 19.2074 34.9196 18.3933V17.8265C33.7351 18.6812 32.5991 19.3788 31.463 19.9468C30.1162 20.6209 28.6948 21.134 27.2367 21.4717Z" fill="#C6C6C8"/>
<path d="M27.0417 23.6324C25.7342 23.8719 24.3272 24.025 22.6113 24.1127C21.966 24.1468 21.275 24.1703 20.3719 24.1913L0.8125 24.72V26.0459L18.156 25.1402L20.4033 25.0263C21.2802 24.9844 21.9975 24.9426 22.661 24.8915C24.4005 24.758 25.831 24.5669 27.1635 24.2882C28.6765 23.974 30.145 23.5159 31.5271 22.9269C32.641 22.4544 33.7561 21.8785 34.9183 21.1783V20.6456C33.6776 21.3681 32.497 21.9466 31.3243 22.4112C29.9618 22.9531 28.5207 23.3641 27.0417 23.6324Z" fill="#C6C6C8"/>
<path d="M26.8886 25.8024C24.4882 26.1231 22.0184 26.1597 19.6284 26.1951C19.0813 26.2024 18.5329 26.2108 17.9858 26.2226L0.8125 26.5315V27.8547L18.0159 27.1139C18.5604 27.0891 19.1075 27.0668 19.6546 27.0459C22.0603 26.949 24.5484 26.8495 26.9815 26.4634C28.5207 26.2213 30.0023 25.8614 31.3858 25.3967C32.531 25.0132 33.7168 24.5172 34.9183 23.9308V23.423C33.6553 24.0106 32.4132 24.5002 31.2209 24.8667C29.8544 25.2881 28.3977 25.6035 26.8886 25.8025" fill="#C6C6C8"/>
<path d="M26.7525 27.9862C24.5039 28.1721 22.2029 28.172 19.9766 28.172C19.2842 28.172 18.5918 28.1721 17.8995 28.1773C12.2099 28.2022 6.56617 28.2493 0.8125 28.299V29.6223C6.29263 29.4364 12.1052 29.2427 17.9191 29.0699C18.6088 29.0463 19.2986 29.0294 19.9897 29.011C22.2278 28.9548 24.5418 28.8972 26.814 28.6511C28.4003 28.481 29.8452 28.231 31.2287 27.8894C32.4354 27.5923 33.6749 27.197 34.9196 26.7219V26.235C33.6343 26.6957 32.3543 27.0726 31.107 27.3475C29.7366 27.6498 28.3126 27.8579 26.7525 27.9862Z" fill="#C6C6C8"/>
<path d="M26.6648 30.1388C25.7276 30.1754 24.7133 30.1937 23.5628 30.1937C23.1283 30.1937 22.6924 30.1917 22.2592 30.1875L17.8327 30.1338C14.8132 30.1115 11.8042 30.1063 8.98098 30.1038L0.8125 30.1112V31.433L9.0006 31.2197C11.8133 31.1504 14.8302 31.0784 17.8418 31.0247L22.2644 30.9657C23.4777 30.9474 25.0784 30.9108 26.7001 30.8048C28.289 30.7014 29.7353 30.543 31.1214 30.3218C32.3687 30.1229 33.6435 29.8545 34.9183 29.5286V29.0601C33.6082 29.3611 32.3059 29.6033 31.0428 29.7721C29.6646 29.9567 28.2328 30.0758 26.6648 30.1386" fill="#C6C6C8"/>
<path d="M22.2082 32.2189L17.7974 32.1718C12.1693 32.092 6.54785 31.9899 0.8125 31.8826V33.2058C6.28608 33.1705 12.0843 33.1285 17.8013 33.0645L22.2147 32.999C23.7016 32.9728 25.1583 32.9454 26.6307 32.8969C29.6633 32.8001 32.3805 32.5867 34.9183 32.2503V31.7897C32.37 32.0645 29.6503 32.2085 26.6151 32.2281C25.1478 32.2412 23.678 32.2313 22.2082 32.2187" fill="#C6C6C8"/>
<path d="M34.9183 34.5589L0.8125 33.6937V35.0169H34.9183V34.5589Z" fill="#C6C6C8"/>
<path d="M31.8478 12.3319C30.552 13.3724 29.5521 14.1119 27.9658 14.7415C26.5849 15.2912 25.102 15.5149 23.4071 15.7466C22.3168 15.8997 21.1768 16.1249 20.0878 16.1982C19.6402 16.2282 19.1926 16.257 18.7463 16.2924L0.8125 17.6V18.9271L18.8183 17.1811L21.1533 16.9625C22.0184 16.88 22.788 16.7859 23.5026 16.6694C25.2473 16.3893 26.7512 15.9626 28.0993 15.3618C29.4971 14.7454 30.912 13.7349 32.2274 12.629C33.1213 11.8777 33.9825 10.9327 34.9183 9.90002V9.42493C33.7862 10.595 32.8465 11.5309 31.8478 12.3319Z" fill="#C6C6C8"/>
<path d="M14.9922 47.7013H44.8678V34.4153H14.9922V47.7013Z" fill="white"/>
<path fill-rule="evenodd" clip-rule="evenodd" d="M44.8731 15.0273H14.9922V35.016H44.8731V15.0273ZM30.2579 17.8699H31.2971L30.4595 18.523L30.7854 19.5583L29.9503 18.9209L29.1153 19.5583L29.4451 18.523L28.5996 17.8699H29.6362L29.9503 16.8595L30.2579 17.8699ZM31.3349 31.2002H30.2931L29.9868 30.229L29.6727 31.2002H28.6348L29.4816 31.8297L29.1531 32.8244L29.9868 32.2119L30.8218 32.8244L30.4959 31.8297L31.3349 31.2002ZM33.5919 30.3175H34.6338L33.7948 30.9457L34.1207 31.9417L33.2856 31.3266L32.4519 31.9417L32.7804 30.9457L31.9336 30.3175H32.9715L33.2856 29.345L33.5919 30.3175ZM34.6338 18.7592H33.5919L33.2856 17.7881L32.9715 18.7592H31.9336L32.7804 19.3874L32.4519 20.3835L33.2856 19.7696L34.1207 20.3835L33.7948 19.3874L34.6338 18.7592ZM36.0392 21.2072H37.0784L36.2407 21.834L36.5666 22.8314L35.7316 22.2175L34.8992 22.8314L35.2277 21.834L34.3809 21.2072H35.4175L35.7316 20.2347L36.0392 21.2072ZM37.0784 27.9027H36.0392L35.7316 26.9303L35.4175 27.9027H34.3809L35.2277 28.5323L34.8992 29.5296L35.7316 28.9144L36.5666 29.5296L36.2407 28.5323L37.0784 27.9027ZM36.9571 24.5038H37.999L37.16 25.1321L37.4859 26.1294L36.6508 25.5142L35.8171 26.1294L36.1456 25.1321L35.2988 24.5038H36.3354L36.6508 23.5326L36.9571 24.5038ZM27.9338 18.7674H26.8946L26.5871 17.7962L26.2729 18.7674H25.2363L26.0818 19.3969L25.752 20.3929L26.5871 19.7778L27.4221 20.3929L27.0962 19.3969L27.9338 18.7674ZM24.5157 21.2152H25.5576L24.7186 21.8435L25.0432 22.8408L24.2095 22.2256L23.3757 22.8408L23.7029 21.8435L22.8574 21.2152H23.8953L24.2095 20.244L24.5157 21.2152ZM24.6721 24.5121H23.6316L23.3253 23.541L23.0112 24.5121H21.9746L22.8188 25.1403L22.4903 26.1377L23.3253 25.5238L24.1591 26.1377L23.8345 25.1403L24.6721 24.5121ZM24.5157 27.911H25.5576L24.7186 28.5405L25.0432 29.5379L24.2095 28.9227L23.3757 29.5379L23.7029 28.5405L22.8574 27.911H23.8953L24.2095 26.9412L24.5157 27.911ZM27.969 30.3257H26.9298L26.6222 29.3533L26.3081 30.3257H25.2715L26.117 30.954L25.7872 31.95L26.6222 31.3361L27.4546 31.95L27.1313 30.954L27.969 30.3257Z" fill="#A9A9AC"/>
<path d="M30.2521 17.87H31.2913L30.4536 18.523L30.7795 19.5583L29.9445 18.9209L29.1095 19.5583L29.4393 18.523L28.5938 17.87H29.6304L29.9445 16.8595L30.2521 17.87Z" fill="white"/>
<path d="M30.2911 31.2001H31.3329L30.494 31.8296L30.8199 32.8243L29.9848 32.2118L29.1511 32.8243L29.4796 31.8296L28.6328 31.2001H29.6707L29.9848 30.2289L30.2911 31.2001Z" fill="white"/>
<path d="M33.5802 30.3175H34.622L33.783 30.9457L34.1089 31.9417L33.2739 31.3266L32.4402 31.9417L32.7687 30.9457L31.9219 30.3175H32.9598L33.2739 29.345L33.5802 30.3175Z" fill="white"/>
<path d="M33.5802 18.7591H34.622L33.783 19.3873L34.1089 20.3834L33.2739 19.7695L32.4402 20.3834L32.7687 19.3873L31.9219 18.7591H32.9598L33.2739 17.788L33.5802 18.7591Z" fill="white"/>
<path d="M36.0333 21.2071H37.0725L36.2349 21.834L36.5608 22.8313L35.7257 22.2175L34.8933 22.8313L35.2218 21.834L34.375 21.2071H35.4116L35.7257 20.2346L36.0333 21.2071Z" fill="white"/>
<path d="M36.0333 27.9027H37.0725L36.2349 28.5323L36.5608 29.5296L35.7257 28.9145L34.8933 29.5296L35.2218 28.5323L34.375 27.9027H35.4116L35.7257 26.9303L36.0333 27.9027Z" fill="white"/>
<path d="M36.9552 24.5038H37.997L37.158 25.132L37.4839 26.1294L36.6489 25.5142L35.8152 26.1294L36.1437 25.132L35.2969 24.5038H36.3335L36.6489 23.5326L36.9552 24.5038Z" fill="white"/>
<path d="M26.8849 18.7673H27.9241L27.0864 19.3969L27.4123 20.3929L26.5773 19.7777L25.7422 20.3929L26.0721 19.3969L25.2266 18.7673H26.2632L26.5773 17.7961L26.8849 18.7673Z" fill="white"/>
<path d="M24.5099 21.2152H25.5517L24.7127 21.8435L25.0373 22.8408L24.2036 22.2256L23.3699 22.8408L23.6971 21.8435L22.8516 21.2152H23.8895L24.2036 20.244L24.5099 21.2152Z" fill="white"/>
<path d="M23.6257 24.5122H24.6663L23.8286 25.1404L24.1532 26.1377L23.3195 25.5239L22.4844 26.1377L22.8129 25.1404L21.9688 24.5122H23.0053L23.3195 23.541L23.6257 24.5122Z" fill="white"/>
<path d="M24.5099 27.911H25.5517L24.7127 28.5405L25.0373 29.5379L24.2036 28.9227L23.3699 29.5379L23.6971 28.5405L22.8516 27.911H23.8895L24.2036 26.9412L24.5099 27.911Z" fill="white"/>
<path d="M26.9239 30.3256H27.9632L27.1255 30.9539L27.4488 31.9499L26.6164 31.336L25.7813 31.9499L26.1111 30.9539L25.2656 30.3256H26.3022L26.6164 29.3531L26.9239 30.3256Z" fill="white"/>
<path d="M14.9922 49.0141H44.8757V47.3087H14.9922V49.0141Z" fill="#A9A9AC"/>
<path d="M49.125 0.985596C49.125 0.985596 55.3551 10.688 56.4951 12.472C57.6338 14.2546 58.9361 15.6656 63.5458 16.6236C68.1556 17.5817 70.162 18.0346 70.162 18.0346V18.3801C70.162 18.3801 67.2328 17.7676 63.4634 16.943C59.6952 16.1184 58.1547 15.8396 56.4362 13.4968C55.0056 11.5466 49.125 3.25773 49.125 3.25773V0.985596Z" fill="#C6C6C8"/>
<path d="M49.1212 3.74438C49.1212 3.74438 55.5594 12.9678 56.414 14.0987C57.2687 15.2295 58.4192 17.0514 63.508 18.1273C64.822 18.4048 70.1752 19.4584 70.1752 19.4584V19.7502C70.1752 19.7502 66.1073 18.9662 63.508 18.4192C60.9073 17.8721 58.1757 17.3734 56.4323 15.1745C54.8486 13.1772 49.1094 5.81105 49.1094 5.81105L49.1211 3.74438H49.1212Z" fill="#C6C6C8"/>
<path d="M49.1212 6.51526C49.1212 6.51526 55.1877 14.3539 56.414 15.9219C57.6391 17.4886 59.3288 18.783 63.508 19.5853C65.9175 20.0487 70.1569 20.8248 70.1569 20.8248V21.1167C70.1569 21.1167 66.4424 20.4243 63.508 19.8956C60.5735 19.3668 58.1509 18.855 56.414 16.9061C54.8905 15.1955 49.1094 8.47194 49.1094 8.47194L49.1211 6.51526H49.1212Z" fill="#C6C6C8"/>
<path d="M49.1094 9.23743C49.1094 9.23743 55.2518 16.3484 56.4324 17.6166C58.2713 19.5917 59.1627 20.2723 63.508 21.0982C65.2462 21.4293 70.157 22.284 70.157 22.284V22.5929C70.157 22.5929 66.0904 21.8639 63.508 21.4084C60.927 20.9529 58.7425 20.7827 56.4141 18.5459C54.6406 16.8431 49.1212 11.0724 49.1212 11.0724L49.1094 9.23743H49.1094Z" fill="#C6C6C8"/>
<path d="M49.125 12.0691C49.125 12.0691 54.7962 17.8948 56.4362 19.5675C58.1756 21.3409 60.4046 21.998 63.4935 22.5386C66.4423 23.0542 70.1607 23.6511 70.1607 23.6511V23.9783C70.1607 23.9783 66.6687 23.4181 63.4935 22.8854C60.3797 22.3619 58.2005 22.0713 56.4179 20.4601C54.8211 19.0178 49.125 13.7824 49.125 13.7824V12.0691Z" fill="#C6C6C8"/>
<path d="M49.125 14.6941C49.125 14.6941 54.5187 19.6036 56.4362 21.2815C58.2005 22.8246 59.6311 23.305 63.5118 23.979C67.3938 24.6531 70.1607 25.0719 70.1607 25.0719V25.4187C70.1607 25.4187 66.6504 24.8533 63.4935 24.3612C60.3365 23.8691 58.3248 23.6754 56.4362 22.1741C54.257 20.4412 49.125 16.2987 49.125 16.2987V14.6941Z" fill="#C6C6C8"/>
<path d="M49.1094 17.5013C49.1094 17.5013 55.2623 22.2838 56.4141 23.1215C57.5659 23.9605 59.0881 24.9382 63.508 25.5651C67.8913 26.1855 70.1386 26.4944 70.1386 26.4944V26.8596C70.1386 26.8596 66.165 26.2928 63.508 25.9656C60.8524 25.6371 58.8158 25.4984 56.4324 23.9422C54.1118 22.4278 49.1212 18.9842 49.1212 18.9842L49.1094 17.5013H49.1094Z" fill="#C6C6C8"/>
<path d="M49.1094 20.1871C49.1094 20.1871 55.2806 24.2157 56.4507 24.8544C57.6221 25.4918 58.9964 26.531 63.508 27.0965C68.0209 27.6606 70.1386 27.9158 70.1386 27.9158V28.2627C70.1386 28.2627 66.4058 27.8622 63.4897 27.552C60.5736 27.2418 58.5868 26.8229 56.4141 25.6555C54.2414 24.4893 49.1212 21.5601 49.1212 21.5601L49.1094 20.1871H49.1094Z" fill="#C6C6C8"/>
<path d="M49.1212 22.8729C49.1212 22.8729 54.583 25.7851 56.4323 26.6947C58.4938 27.7091 60.2764 28.1959 63.508 28.5716C66.6806 28.9433 70.1569 29.3019 70.1569 29.3019V29.6305C70.1569 29.6305 66.9424 29.2928 63.508 28.9734C60.1037 28.658 58.8904 28.5114 56.4323 27.4421C54.2335 26.4866 49.1094 24.149 49.1094 24.149L49.1211 22.8729H49.1212Z" fill="#C6C6C8"/>
<path d="M49.1212 25.6072C49.1212 25.6072 53.4181 27.4108 56.4507 28.59C59.4349 29.751 61.7135 29.8491 63.5263 30.0494C64.3247 30.1371 70.1385 30.7235 70.1385 30.7235V31.0507C70.1385 31.0507 66.6649 30.7785 63.508 30.5049C60.351 30.2314 58.9885 30.1162 56.4323 29.2838C53.8448 28.4422 49.1094 26.8231 49.1094 26.8231L49.1211 25.6072H49.1212Z" fill="#C6C6C8"/>
<path d="M49.1212 28.3781C49.1212 28.3781 53.4796 29.7026 56.4507 30.4682C59.4218 31.2339 62.152 31.5441 63.5263 31.6344C64.9006 31.7261 70.1385 32.1449 70.1385 32.1449V32.4551C70.1385 32.4551 67.1675 32.2561 63.508 31.9996C60.5487 31.7928 58.1718 31.5742 56.4323 31.1972C54.5044 30.7797 49.1094 29.5207 49.1094 29.5207L49.1211 28.3781H49.1212Z" fill="#C6C6C8"/>
<path d="M49.1094 31.1125C49.1094 31.1125 52.6851 31.716 56.4507 32.3272C59.2739 32.7866 63.0996 33.0759 63.508 33.0929C63.9163 33.1112 70.1569 33.5313 70.1569 33.5313V33.8585C70.1569 33.8585 66.1636 33.657 63.508 33.513C60.7424 33.3625 57.9938 33.1989 56.4323 33.0392C52.9351 32.6806 49.1094 32.2068 49.1094 32.2068V31.1125Z" fill="#C6C6C8"/>
<path d="M49.125 33.9436C49.125 33.9436 54.7465 34.1504 56.4545 34.187C58.1626 34.2237 70.1607 34.6975 70.1607 34.6975V35.026L49.125 35.0129V33.9436Z" fill="#C6C6C8"/>
<path d="M16.7344 36.9864C16.7344 36.9248 16.7632 36.8922 16.8286 36.8922H18.5628C18.6192 36.8922 18.6532 36.9249 18.6532 36.9812V37.2744C18.6532 37.3307 18.6296 37.3595 18.559 37.3595H17.2724V38.1697H18.4124C18.4738 38.1697 18.5066 38.1985 18.5066 38.2547V38.5466C18.5066 38.6029 18.483 38.6316 18.4124 38.6316H17.2724V39.5596H18.5917C18.6479 39.5596 18.6768 39.5884 18.6768 39.6499V39.9366C18.6768 39.9981 18.6532 40.0216 18.5864 40.0216H16.8287C16.7632 40.0216 16.7344 39.9928 16.7344 39.9366V36.9864H16.7344Z" fill="#A9A9AC"/>
<path d="M20.8605 40.0219H20.5254C20.4547 40.0219 20.4364 39.9892 20.4364 39.9329V39.7863L20.427 39.781C20.2424 39.9093 19.9218 40.0638 19.6351 40.0638C18.999 40.0638 18.9375 39.6868 18.9375 39.192V37.806C18.9375 37.7498 18.9611 37.713 19.0265 37.713H19.3707C19.4323 37.713 19.4559 37.7457 19.4559 37.806V39.1306C19.4559 39.4146 19.5121 39.5926 19.8001 39.5926C20.003 39.5926 20.3132 39.442 20.4362 39.3805V37.806C20.4362 37.7498 20.4545 37.713 20.5252 37.713H20.8602C20.9257 37.713 20.9493 37.7457 20.9493 37.806V39.9329C20.9493 39.9931 20.9257 40.0219 20.8602 40.0219" fill="#A9A9AC"/>
<path d="M21.8699 39.9324C21.8699 39.9887 21.8463 40.0214 21.7809 40.0214H21.4406C21.3751 40.0214 21.3516 39.9939 21.3516 39.9324V37.8068C21.3516 37.7452 21.3751 37.7126 21.4406 37.7126H21.7756C21.8463 37.7126 21.8699 37.7505 21.8699 37.8068V38.0136L21.8793 38.0231C22.0206 37.8922 22.3557 37.7312 22.5769 37.6893C22.6385 37.6748 22.6802 37.6893 22.6908 37.7691L22.7234 38.0845C22.7276 38.1513 22.7329 38.1787 22.6332 38.1984C22.3701 38.2495 22.035 38.3436 21.8701 38.4143V39.9326L21.8699 39.9324Z" fill="#A9A9AC"/>
<path d="M23.8568 38.1176C23.4563 38.1176 23.366 38.3729 23.366 38.8624C23.366 39.3624 23.4562 39.6071 23.8516 39.6071C24.2809 39.6071 24.366 39.3663 24.366 38.8624C24.366 38.3624 24.286 38.1176 23.8568 38.1176ZM23.8516 40.06C22.9053 40.06 22.8438 39.3663 22.8438 38.8297C22.8438 38.386 22.9419 37.6648 23.8516 37.6648C24.7664 37.6648 24.8934 38.2734 24.8934 38.8297C24.8934 39.3663 24.8279 40.06 23.8516 40.06Z" fill="#A9A9AC"/>
<path d="M26.3014 38.146C26.1077 38.146 25.8106 38.2822 25.6692 38.3581V39.5361C25.8813 39.5976 26.0514 39.6159 26.2124 39.6159C26.5514 39.6159 26.6692 39.4418 26.6692 38.8489C26.6692 38.2495 26.5514 38.1461 26.3014 38.1461M26.2635 40.0648C26.1078 40.0648 25.8918 40.0361 25.6745 39.9602L25.6693 39.9654V40.7952C25.6693 40.8462 25.6562 40.8894 25.5803 40.8894H25.2452C25.1707 40.8894 25.1562 40.8567 25.1562 40.7952V37.8071C25.1562 37.7456 25.1798 37.7129 25.2452 37.7129H25.5803C25.6471 37.7129 25.6654 37.7495 25.6654 37.8071V37.9484L25.6799 37.9579C25.8487 37.8401 26.1511 37.6752 26.4246 37.6752C27.0411 37.6752 27.2021 38.1411 27.2021 38.8531C27.2021 39.6214 27.0084 40.0651 26.2636 40.0651" fill="#A9A9AC"/>
<path d="M28.0144 38.655H28.9476C28.9476 38.367 28.8717 38.0896 28.4816 38.0896C28.1322 38.0896 28.038 38.3016 28.0144 38.655ZM28.0092 39.0084C28.0236 39.4848 28.1937 39.617 28.5798 39.617C28.75 39.617 29.0131 39.583 29.1924 39.5646C29.2775 39.5552 29.3062 39.5552 29.3206 39.6445L29.3482 39.8003C29.3626 39.8709 29.3534 39.9089 29.2684 39.9469C29.0838 40.0175 28.7409 40.0646 28.5093 40.0646C27.6088 40.0646 27.4766 39.4901 27.4766 38.8762C27.4766 38.4194 27.5617 37.6655 28.4818 37.6655C29.3247 37.6655 29.4752 38.2126 29.4896 38.7205C29.4948 38.8906 29.4477 39.0084 29.2592 39.0084H28.0093L28.0092 39.0084Z" fill="#A9A9AC"/>
<path d="M31.1562 38.9706H30.5816C30.346 38.9706 30.1942 39.0558 30.1942 39.3672C30.1942 39.574 30.2648 39.6407 30.4873 39.6407C30.6902 39.6407 30.9769 39.5216 31.1562 39.4182V38.9706ZM31.185 39.7533C30.9494 39.9326 30.6327 40.0596 30.3172 40.0596C29.8172 40.0596 29.6719 39.786 29.6719 39.3907C29.6667 38.8384 29.9638 38.6028 30.558 38.6028H31.1614V38.4811C31.1614 38.1984 31.0567 38.0989 30.6706 38.0989C30.5149 38.0989 30.2177 38.1225 30.0293 38.1408C29.935 38.1553 29.9115 38.1502 29.8984 38.0846L29.8552 37.9105C29.8458 37.8489 29.8605 37.811 29.9639 37.7691C30.1667 37.6984 30.5385 37.6658 30.761 37.6658C31.5764 37.6658 31.6745 37.9996 31.6745 38.5283V39.438C31.6745 39.6304 31.6981 39.6356 31.8447 39.6539C31.9154 39.6591 31.9337 39.6735 31.9337 39.7246V39.9235C31.9337 39.9746 31.901 40.0073 31.8211 40.0216C31.7452 40.0361 31.6706 40.0452 31.5999 40.0452C31.3774 40.0452 31.2413 39.9798 31.1942 39.7586L31.1848 39.7533L31.185 39.7533Z" fill="#A9A9AC"/>
<path d="M33.9852 40.0218H33.6462C33.5847 40.0218 33.5559 39.993 33.5559 39.9328L33.5611 38.6082C33.5611 38.3294 33.4957 38.1462 33.2221 38.1462C33.0337 38.1462 32.7038 38.2968 32.5756 38.3583V39.9328C32.5756 39.9891 32.552 40.0218 32.4866 40.0218H32.1515C32.0861 40.0218 32.0625 39.993 32.0625 39.9328V37.8059C32.0625 37.7457 32.0861 37.7129 32.1515 37.7129H32.4866C32.552 37.7129 32.5756 37.7456 32.5756 37.8059V37.9486C32.5808 37.9486 32.5861 37.9528 32.59 37.9528C32.7641 37.8311 33.0939 37.67 33.3819 37.67C34.018 37.67 34.0755 38.0902 34.0755 38.5653V39.933C34.0755 39.9894 34.0559 40.0221 33.9852 40.0221" fill="#A9A9AC"/>
<path d="M17.9676 41.8328C18.1979 41.8328 18.5801 41.8654 18.8301 41.9689C18.906 42.0029 18.9334 42.0409 18.9191 42.1154L18.8772 42.3092C18.8628 42.3655 18.8393 42.389 18.7542 42.3798C18.5238 42.351 18.2411 42.3184 17.9964 42.3184C17.355 42.3184 17.2608 42.8367 17.2608 43.4492C17.2608 44.067 17.3786 44.5526 17.9964 44.5526C18.2686 44.5526 18.5003 44.5238 18.7542 44.491C18.8445 44.4816 18.8628 44.5055 18.8824 44.567L18.9191 44.7462C18.9387 44.8209 18.9149 44.864 18.8392 44.8967C18.6089 44.9948 18.1979 45.0381 17.9675 45.0381C16.9165 45.0381 16.6953 44.2607 16.6953 43.4583C16.6953 42.6534 16.893 41.8328 17.9675 41.8328" fill="#A9A9AC"/>
<path d="M19.9896 43.0913C19.5891 43.0913 19.4988 43.3465 19.4988 43.836C19.4988 44.336 19.5891 44.5807 19.9844 44.5807C20.4137 44.5807 20.4987 44.3399 20.4987 43.836C20.4987 43.336 20.4189 43.0913 19.9896 43.0913ZM19.9844 45.0336C19.0381 45.0336 18.9766 44.3399 18.9766 43.8033C18.9766 43.3596 19.0747 42.6384 19.9844 42.6384C20.8992 42.6384 21.0262 43.247 21.0262 43.8033C21.0262 44.3399 20.9608 45.0336 19.9844 45.0336Z" fill="#A9A9AC"/>
<path d="M24.5911 44.9955H24.2522C24.1855 44.9955 24.1618 44.9666 24.1618 44.9064V43.5675C24.1618 43.218 24.078 43.1199 23.8411 43.1199C23.6671 43.1199 23.3843 43.256 23.2391 43.3319C23.2391 43.379 23.2432 43.4641 23.2432 43.5714V44.9064C23.2432 44.9628 23.2249 44.9955 23.1542 44.9955H22.81C22.7485 44.9955 22.7301 44.9666 22.7301 44.9064V43.5439C22.7301 43.256 22.6542 43.1199 22.4186 43.1199C22.2537 43.1199 21.9893 43.2377 21.81 43.3319V44.9064C21.81 44.9628 21.7864 44.9955 21.721 44.9955H21.382C21.3204 44.9955 21.2969 44.9666 21.2969 44.9064V42.7796C21.2969 42.7194 21.3204 42.6866 21.382 42.6866H21.7158C21.7864 42.6866 21.81 42.7232 21.81 42.7796V42.917L21.8152 42.9222C21.9985 42.7939 22.2576 42.6526 22.5181 42.6434C22.7903 42.6434 23.0168 42.6998 23.1634 42.9733C23.3989 42.7992 23.6908 42.6434 23.9932 42.6434C24.6149 42.6434 24.6764 43.0492 24.6764 43.5204V44.9064C24.6764 44.9628 24.6567 44.9955 24.5913 44.9955" fill="#A9A9AC"/>
<path d="M28.2786 44.9955H27.9396C27.8729 44.9955 27.8493 44.9666 27.8493 44.9064V43.5675C27.8493 43.218 27.7655 43.1199 27.5286 43.1199C27.3545 43.1199 27.0718 43.256 26.9265 43.3319C26.9265 43.379 26.9307 43.4641 26.9307 43.5714V44.9064C26.9307 44.9628 26.9124 44.9955 26.8417 44.9955H26.4975C26.436 44.9955 26.4176 44.9666 26.4176 44.9064V43.5439C26.4176 43.256 26.3417 43.1199 26.1061 43.1199C25.9412 43.1199 25.6768 43.2377 25.4975 43.3319V44.9064C25.4975 44.9628 25.4739 44.9955 25.4085 44.9955H25.0695C25.0079 44.9955 24.9844 44.9666 24.9844 44.9064V42.7796C24.9844 42.7194 25.0079 42.6866 25.0695 42.6866H25.4032C25.4739 42.6866 25.4975 42.7232 25.4975 42.7796V42.917L25.5027 42.9222C25.6859 42.7939 25.9451 42.6526 26.2056 42.6434C26.4778 42.6434 26.7042 42.6998 26.8508 42.9733C27.0864 42.7992 27.3783 42.6434 27.6806 42.6434C28.3023 42.6434 28.3638 43.0492 28.3638 43.5204V44.9064C28.3638 44.9628 28.3442 44.9955 28.2787 44.9955" fill="#A9A9AC"/>
<path d="M29.2618 44.9059C29.2618 44.957 29.2435 44.9949 29.1767 44.9949H28.8416C28.7762 44.9949 28.7474 44.9674 28.7474 44.9059V42.7751C28.7474 42.7097 28.7762 42.6861 28.8416 42.6861H29.1767C29.2435 42.6861 29.2618 42.724 29.2618 42.7751V44.9059ZM29.0118 42.3471C28.7671 42.3471 28.7344 42.2097 28.7344 42.0736C28.7344 41.9231 28.7855 41.804 29.0118 41.804C29.2435 41.804 29.2906 41.9126 29.2906 42.0736C29.2906 42.2189 29.2475 42.3471 29.0118 42.3471Z" fill="#A9A9AC"/>
<path d="M30.4356 45.0333C30.2 45.0333 29.8846 45.0006 29.7053 44.9299C29.611 44.892 29.5914 44.8488 29.6058 44.7742L29.6385 44.6184C29.6529 44.5425 29.6856 44.5387 29.7615 44.5478C29.9683 44.5804 30.2706 44.6041 30.4303 44.6041C30.7327 44.6041 30.8557 44.5242 30.8557 44.3358C30.8557 44.1185 30.7746 44.0714 30.4775 44.0295C30.0154 43.9627 29.611 43.8646 29.611 43.3503C29.611 42.8843 29.9683 42.6395 30.4971 42.6395C30.6895 42.6395 31.0154 42.6671 31.213 42.7429C31.2929 42.7755 31.3269 42.8136 31.3125 42.8842L31.2746 43.0531C31.2601 43.1199 31.2327 43.129 31.1476 43.1199C30.9448 43.0963 30.6804 43.0675 30.5063 43.0675C30.2053 43.0675 30.1346 43.1525 30.1346 43.3319C30.1346 43.5151 30.2472 43.5387 30.5351 43.5858C30.9827 43.6525 31.3872 43.7416 31.3872 44.3031C31.3872 44.8541 30.9212 45.0334 30.4356 45.0334" fill="#A9A9AC"/>
<path d="M32.4122 45.0333C32.1766 45.0333 31.8612 45.0006 31.6818 44.9299C31.5876 44.892 31.568 44.8488 31.5824 44.7742L31.6151 44.6184C31.6295 44.5425 31.6622 44.5387 31.7381 44.5478C31.9449 44.5804 32.2472 44.6041 32.4069 44.6041C32.7092 44.6041 32.8323 44.5242 32.8323 44.3358C32.8323 44.1185 32.7511 44.0714 32.454 44.0295C31.992 43.9627 31.5875 43.8646 31.5875 43.3503C31.5875 42.8843 31.9449 42.6395 32.4736 42.6395C32.666 42.6395 32.9919 42.6671 33.1896 42.7429C33.2695 42.7755 33.3034 42.8136 33.289 42.8842L33.2511 43.0531C33.2368 43.1199 33.2093 43.129 33.1242 43.1199C32.9213 43.0963 32.6569 43.0675 32.4829 43.0675C32.1818 43.0675 32.1111 43.1525 32.1111 43.3319C32.1111 43.5151 32.2237 43.5387 32.5117 43.5858C32.9593 43.6525 33.3637 43.7416 33.3637 44.3031C33.3637 44.8541 32.8978 45.0334 32.4122 45.0334" fill="#A9A9AC"/>
<path d="M34.1915 44.9059C34.1915 44.957 34.1732 44.9949 34.1064 44.9949H33.7713C33.7059 44.9949 33.6771 44.9674 33.6771 44.9059V42.7751C33.6771 42.7097 33.7059 42.6861 33.7713 42.6861H34.1064C34.1732 42.6861 34.1915 42.724 34.1915 42.7751V44.9059ZM33.9416 42.3471C33.6968 42.3471 33.6641 42.2097 33.6641 42.0736C33.6641 41.9231 33.7152 41.804 33.9416 41.804C34.1732 41.804 34.2203 41.9126 34.2203 42.0736C34.2203 42.2189 34.1772 42.3471 33.9416 42.3471Z" fill="#A9A9AC"/>
<path d="M35.5521 43.0913C35.1516 43.0913 35.0626 43.3465 35.0626 43.836C35.0626 44.336 35.1516 44.5807 35.5469 44.5807C35.9762 44.5807 36.0612 44.3399 36.0612 43.836C36.0612 43.336 35.9814 43.0913 35.5521 43.0913ZM35.5469 45.0336C34.6006 45.0336 34.5391 44.3399 34.5391 43.8033C34.5391 43.3596 34.6372 42.6384 35.5469 42.6384C36.4617 42.6384 36.5887 43.247 36.5887 43.8033C36.5887 44.3399 36.5233 45.0336 35.5469 45.0336Z" fill="#A9A9AC"/>
<path d="M38.7665 44.9956H38.4275C38.3659 44.9956 38.3371 44.9667 38.3371 44.9065L38.3424 43.582C38.3424 43.3032 38.2769 43.12 38.0034 43.12C37.8149 43.12 37.4851 43.2705 37.3568 43.332V44.9065C37.3568 44.9629 37.3333 44.9956 37.2678 44.9956H36.9327C36.8673 44.9956 36.8438 44.9667 36.8438 44.9065V42.7797C36.8438 42.7195 36.8673 42.6867 36.9327 42.6867H37.2678C37.3333 42.6867 37.3568 42.7194 37.3568 42.7797V42.9223C37.362 42.9223 37.3662 42.9265 37.3712 42.9265C37.5453 42.8048 37.8765 42.6438 38.1631 42.6438C38.7992 42.6438 38.8568 43.064 38.8568 43.5391V44.9068C38.8568 44.9631 38.8372 44.9958 38.7664 44.9958" fill="#A9A9AC"/>
</g>
<path d="M87.5707 22V13.547H93.5006V14.5076H88.5953V17.2356H92.412V18.1961H88.5953V21.0394H93.6928V22H87.5707ZM97.6765 22.1281C97.2667 22.1281 96.8782 22.0512 96.511 21.8975C96.1524 21.7438 95.8578 21.4962 95.6273 21.1547C95.4053 20.8046 95.2943 20.3521 95.2943 19.7971V15.5962H96.3189V19.5281C96.3189 20.1771 96.4598 20.6253 96.7416 20.8729C97.0233 21.112 97.4204 21.2315 97.9327 21.2315C98.1718 21.2315 98.4066 21.1931 98.6371 21.1163C98.8676 21.0309 99.0726 20.9028 99.2519 20.732C99.4397 20.5527 99.5849 20.3265 99.6873 20.0532C99.7983 19.78 99.8538 19.4556 99.8538 19.0799V15.5962H100.878V22H99.9819L99.9179 21.0266C99.6959 21.4109 99.3927 21.6926 99.0085 21.8719C98.6328 22.0427 98.1888 22.1281 97.6765 22.1281ZM103.263 22V15.5962H104.096L104.236 16.6464C104.416 16.2537 104.676 15.9591 105.018 15.7627C105.368 15.5663 105.79 15.4681 106.286 15.4681C106.397 15.4681 106.516 15.4767 106.644 15.4937C106.781 15.5108 106.896 15.545 106.99 15.5962L106.811 16.5312C106.717 16.497 106.614 16.4714 106.503 16.4543C106.392 16.4372 106.234 16.4287 106.029 16.4287C105.765 16.4287 105.496 16.5055 105.223 16.6592C104.958 16.8129 104.736 17.0477 104.557 17.3636C104.377 17.671 104.288 18.0638 104.288 18.5419V22H103.263ZM110.942 15.4681C111.548 15.4681 112.082 15.6005 112.543 15.8652C113.013 16.1298 113.38 16.5141 113.645 17.0178C113.909 17.5131 114.042 18.1065 114.042 18.7981C114.042 19.4897 113.909 20.0874 113.645 20.5912C113.38 21.0864 113.013 21.4663 112.543 21.731C112.082 21.9957 111.548 22.1281 110.942 22.1281C110.345 22.1281 109.811 21.9957 109.341 21.731C108.872 21.4663 108.504 21.0864 108.24 20.5912C107.975 20.0874 107.843 19.4897 107.843 18.7981C107.843 18.1065 107.975 17.5131 108.24 17.0178C108.504 16.5141 108.872 16.1298 109.341 15.8652C109.811 15.6005 110.345 15.4681 110.942 15.4681ZM110.942 16.3518C110.507 16.3518 110.135 16.45 109.828 16.6464C109.521 16.8428 109.281 17.1246 109.111 17.4917C108.948 17.8503 108.867 18.2858 108.867 18.7981C108.867 19.3019 108.948 19.7373 109.111 20.1045C109.281 20.4716 109.521 20.7534 109.828 20.9498C110.135 21.1462 110.507 21.2444 110.942 21.2444C111.378 21.2444 111.749 21.1462 112.056 20.9498C112.364 20.7534 112.599 20.4716 112.761 20.1045C112.932 19.7373 113.017 19.3019 113.017 18.7981C113.017 18.2858 112.932 17.8503 112.761 17.4917C112.599 17.1246 112.364 16.8428 112.056 16.6464C111.749 16.45 111.378 16.3518 110.942 16.3518ZM115.971 24.6896V15.5962H116.867L116.957 17.1587L116.816 16.9794C116.927 16.6806 117.093 16.4202 117.315 16.1982C117.537 15.9676 117.806 15.7883 118.122 15.6602C118.438 15.5322 118.78 15.4681 119.147 15.4681C119.668 15.4681 120.146 15.6005 120.581 15.8652C121.025 16.1298 121.38 16.5098 121.644 17.005C121.909 17.5003 122.041 18.0979 122.041 18.7981C122.041 19.4897 121.905 20.0874 121.632 20.5912C121.367 21.0864 121.013 21.4663 120.569 21.731C120.125 21.9957 119.638 22.1281 119.108 22.1281C118.579 22.1281 118.114 22 117.712 21.7438C117.32 21.4792 117.038 21.1462 116.867 20.7449L116.995 20.5527V24.6896H115.971ZM119.006 21.2315C119.638 21.2315 120.129 21.0095 120.479 20.5655C120.837 20.1216 121.017 19.5324 121.017 18.7981C121.017 18.0638 120.842 17.4746 120.492 17.0306C120.15 16.5867 119.668 16.3647 119.044 16.3647C118.635 16.3647 118.276 16.4671 117.969 16.672C117.661 16.8684 117.422 17.1502 117.251 17.5173C117.081 17.876 116.995 18.3029 116.995 18.7981C116.995 19.2848 117.076 19.7117 117.239 20.0789C117.409 20.446 117.644 20.732 117.943 20.937C118.25 21.1334 118.605 21.2315 119.006 21.2315ZM126.677 22.1281C126.071 22.1281 125.529 21.9957 125.051 21.731C124.581 21.4663 124.214 21.0864 123.949 20.5912C123.684 20.0874 123.552 19.4897 123.552 18.7981C123.552 18.1065 123.684 17.5131 123.949 17.0178C124.214 16.5141 124.577 16.1298 125.038 15.8652C125.499 15.6005 126.024 15.4681 126.613 15.4681C127.211 15.4681 127.719 15.5962 128.137 15.8523C128.564 16.1085 128.889 16.4586 129.111 16.9026C129.333 17.338 129.444 17.829 129.444 18.3754C129.444 18.5206 129.439 18.6529 129.431 18.7725C129.422 18.892 129.409 18.9988 129.392 19.0927H124.218V18.1833H128.944L128.419 18.2858C128.419 17.671 128.248 17.1971 127.907 16.8641C127.574 16.5312 127.134 16.3647 126.587 16.3647C126.169 16.3647 125.806 16.4628 125.499 16.6592C125.2 16.8471 124.965 17.1246 124.794 17.4917C124.632 17.8503 124.551 18.2858 124.551 18.7981C124.551 19.3019 124.636 19.7373 124.807 20.1045C124.978 20.4716 125.217 20.7534 125.524 20.9498C125.84 21.1376 126.216 21.2315 126.652 21.2315C127.121 21.2315 127.501 21.1419 127.791 20.9626C128.09 20.7833 128.329 20.5399 128.509 20.2326L129.316 20.7064C129.153 20.9967 128.944 21.2486 128.688 21.4621C128.44 21.6755 128.146 21.842 127.804 21.9616C127.471 22.0726 127.096 22.1281 126.677 22.1281ZM135.132 17.8631C135.132 17.385 135.004 17.0178 134.748 16.7617C134.492 16.497 134.129 16.3647 133.659 16.3647C133.215 16.3647 132.84 16.4628 132.532 16.6592C132.225 16.8471 131.998 17.1545 131.853 17.5814L131.021 17.0691C131.192 16.5909 131.508 16.2067 131.969 15.9164C132.43 15.6175 133.002 15.4681 133.685 15.4681C134.146 15.4681 134.564 15.5492 134.94 15.7115C135.316 15.8652 135.61 16.1042 135.824 16.4287C136.046 16.7446 136.157 17.1545 136.157 17.6582V20.7577C136.157 21.065 136.319 21.2187 136.643 21.2187C136.806 21.2187 136.964 21.1974 137.117 21.1547L137.066 21.9616C136.895 22.047 136.673 22.0897 136.4 22.0897C136.152 22.0897 135.93 22.0427 135.734 21.9488C135.538 21.8548 135.384 21.714 135.273 21.5261C135.162 21.3297 135.106 21.0864 135.106 20.7961V20.668L135.363 20.7064C135.26 21.0394 135.085 21.3127 134.837 21.5261C134.59 21.731 134.312 21.8847 134.005 21.9872C133.698 22.0811 133.395 22.1281 133.096 22.1281C132.72 22.1281 132.37 22.064 132.045 21.936C131.721 21.8079 131.461 21.6158 131.264 21.3596C131.076 21.0949 130.982 20.7705 130.982 20.3862C130.982 19.9081 131.14 19.5153 131.456 19.2079C131.781 18.892 132.229 18.6786 132.801 18.5676L135.337 18.0681V18.9134L133.275 19.336C132.857 19.4214 132.545 19.5409 132.34 19.6946C132.135 19.8483 132.033 20.0618 132.033 20.335C132.033 20.5997 132.135 20.8174 132.34 20.9882C132.553 21.1504 132.852 21.2315 133.237 21.2315C133.484 21.2315 133.719 21.2017 133.941 21.1419C134.171 21.0736 134.376 20.9754 134.556 20.8473C134.735 20.7107 134.876 20.5442 134.978 20.3478C135.081 20.1429 135.132 19.9038 135.132 19.6306V17.8631ZM138.647 22V15.5962H139.543L139.633 17.0306L139.466 16.8898C139.603 16.5482 139.786 16.275 140.017 16.0701C140.248 15.8566 140.512 15.7029 140.811 15.609C141.118 15.5151 141.434 15.4681 141.759 15.4681C142.22 15.4681 142.638 15.5578 143.014 15.7371C143.39 15.9078 143.688 16.1725 143.91 16.5312C144.141 16.8898 144.256 17.3466 144.256 17.9016V22H143.232V18.2602C143.232 17.5515 143.078 17.0605 142.771 16.7873C142.472 16.5055 142.1 16.3647 141.656 16.3647C141.349 16.3647 141.042 16.4372 140.734 16.5824C140.427 16.7275 140.171 16.9623 139.966 17.2868C139.769 17.6113 139.671 18.0467 139.671 18.5932V22H138.647ZM94.3844 34.8355C94.2051 35.3137 93.9489 35.7278 93.6159 36.0779C93.2829 36.4194 92.8901 36.6798 92.4376 36.8591C91.9936 37.0384 91.5069 37.1281 90.9775 37.1281C90.1749 37.1281 89.4791 36.953 88.8899 36.603C88.3093 36.2444 87.8568 35.7406 87.5323 35.0917C87.2164 34.4427 87.0584 33.67 87.0584 32.7735C87.0584 31.877 87.2164 31.1042 87.5323 30.4553C87.8568 29.8064 88.3093 29.3069 88.8899 28.9568C89.4791 28.5982 90.1664 28.4189 90.9519 28.4189C91.4984 28.4189 91.9851 28.4957 92.412 28.6494C92.8389 28.7946 93.2018 29.0166 93.5006 29.3154C93.808 29.6057 94.0514 29.9644 94.2307 30.3913L93.2189 30.8652C93.031 30.3785 92.7578 30.0113 92.3992 29.7637C92.0491 29.5076 91.5923 29.3795 91.0288 29.3795C90.4567 29.3795 89.9529 29.5161 89.5175 29.7893C89.082 30.054 88.7405 30.4382 88.4929 30.942C88.2538 31.4458 88.1343 32.0563 88.1343 32.7735C88.1343 33.4822 88.2495 34.0927 88.4801 34.605C88.7106 35.1087 89.0393 35.4972 89.4662 35.7705C89.8932 36.0352 90.3969 36.1675 90.9775 36.1675C91.5411 36.1675 92.032 36.0266 92.4504 35.7449C92.8688 35.4545 93.1719 35.0234 93.3598 34.4513L94.3844 34.8355ZM98.81 30.4681C99.4162 30.4681 99.9499 30.6005 100.411 30.8652C100.881 31.1298 101.248 31.5141 101.512 32.0178C101.777 32.5131 101.909 33.1065 101.909 33.7981C101.909 34.4897 101.777 35.0874 101.512 35.5912C101.248 36.0864 100.881 36.4663 100.411 36.731C99.9499 36.9957 99.4162 37.1281 98.81 37.1281C98.2123 37.1281 97.6787 36.9957 97.209 36.731C96.7394 36.4663 96.3723 36.0864 96.1076 35.5912C95.8429 35.0874 95.7106 34.4897 95.7106 33.7981C95.7106 33.1065 95.8429 32.5131 96.1076 32.0178C96.3723 31.5141 96.7394 31.1298 97.209 30.8652C97.6787 30.6005 98.2123 30.4681 98.81 30.4681ZM98.81 31.3518C98.3745 31.3518 98.0031 31.45 97.6957 31.6464C97.3884 31.8428 97.1493 32.1246 96.9785 32.4917C96.8163 32.8503 96.7352 33.2858 96.7352 33.7981C96.7352 34.3019 96.8163 34.7373 96.9785 35.1045C97.1493 35.4716 97.3884 35.7534 97.6957 35.9498C98.0031 36.1462 98.3745 36.2444 98.81 36.2444C99.2455 36.2444 99.6169 36.1462 99.9243 35.9498C100.232 35.7534 100.466 35.4716 100.629 35.1045C100.799 34.7373 100.885 34.3019 100.885 33.7981C100.885 33.2858 100.799 32.8503 100.629 32.4917C100.466 32.1246 100.232 31.8428 99.9243 31.6464C99.6169 31.45 99.2455 31.3518 98.81 31.3518ZM103.838 37V30.5962H104.735L104.799 31.5952C105.029 31.2024 105.328 30.9164 105.695 30.7371C106.071 30.5578 106.455 30.4681 106.848 30.4681C107.301 30.4681 107.728 30.5706 108.129 30.7755C108.53 30.9804 108.838 31.2963 109.051 31.7233C109.188 31.433 109.38 31.1982 109.627 31.0188C109.875 30.831 110.144 30.6944 110.434 30.609C110.733 30.5151 111.015 30.4681 111.28 30.4681C111.689 30.4681 112.078 30.5535 112.445 30.7243C112.821 30.895 113.128 31.1597 113.367 31.5183C113.606 31.877 113.726 32.338 113.726 32.9016V37H112.701V33.004C112.701 32.4234 112.556 32.005 112.266 31.7489C111.975 31.4927 111.617 31.3647 111.19 31.3647C110.857 31.3647 110.545 31.4458 110.255 31.608C109.965 31.7702 109.73 32.0093 109.551 32.3252C109.38 32.6411 109.294 33.0296 109.294 33.4907V37H108.27V33.004C108.27 32.4234 108.125 32.005 107.834 31.7489C107.544 31.4927 107.185 31.3647 106.759 31.3647C106.477 31.3647 106.186 31.4415 105.888 31.5952C105.597 31.7403 105.354 31.9751 105.158 32.2996C104.961 32.6241 104.863 33.051 104.863 33.5804V37H103.838ZM116.046 37V30.5962H116.942L117.006 31.5952C117.237 31.2024 117.536 30.9164 117.903 30.7371C118.278 30.5578 118.663 30.4681 119.055 30.4681C119.508 30.4681 119.935 30.5706 120.336 30.7755C120.737 30.9804 121.045 31.2963 121.258 31.7233C121.395 31.433 121.587 31.1982 121.835 31.0188C122.082 30.831 122.351 30.6944 122.642 30.609C122.94 30.5151 123.222 30.4681 123.487 30.4681C123.897 30.4681 124.285 30.5535 124.652 30.7243C125.028 30.895 125.335 31.1597 125.574 31.5183C125.814 31.877 125.933 32.338 125.933 32.9016V37H124.908V33.004C124.908 32.4234 124.763 32.005 124.473 31.7489C124.183 31.4927 123.824 31.3647 123.397 31.3647C123.064 31.3647 122.753 31.4458 122.462 31.608C122.172 31.7702 121.937 32.0093 121.758 32.3252C121.587 32.6411 121.502 33.0296 121.502 33.4907V37H120.477V33.004C120.477 32.4234 120.332 32.005 120.042 31.7489C119.751 31.4927 119.393 31.3647 118.966 31.3647C118.684 31.3647 118.394 31.4415 118.095 31.5952C117.805 31.7403 117.561 31.9751 117.365 32.2996C117.168 32.6241 117.07 33.051 117.07 33.5804V37H116.046ZM128.765 29.3667C128.535 29.3667 128.347 29.2984 128.202 29.1617C128.065 29.0166 127.997 28.8287 127.997 28.5982C127.997 28.3677 128.065 28.1841 128.202 28.0475C128.347 27.9023 128.535 27.8298 128.765 27.8298C128.996 27.8298 129.179 27.9023 129.316 28.0475C129.461 28.1841 129.534 28.3677 129.534 28.5982C129.534 28.8287 129.461 29.0166 129.316 29.1617C129.179 29.2984 128.996 29.3667 128.765 29.3667ZM129.277 30.5962V37H128.253V30.5962H129.277ZM133.96 37.1281C133.337 37.1281 132.761 36.9957 132.231 36.731C131.71 36.4663 131.309 36.0907 131.027 35.604L131.898 34.9764C132.086 35.3692 132.359 35.6765 132.718 35.8985C133.085 36.1205 133.525 36.2315 134.037 36.2315C134.49 36.2315 134.844 36.1462 135.1 35.9754C135.356 35.7961 135.484 35.5655 135.484 35.2838C135.484 35.1045 135.425 34.9422 135.305 34.7971C135.194 34.6434 134.976 34.5324 134.652 34.4641L133.115 34.1439C132.492 34.0158 132.043 33.8024 131.77 33.5035C131.505 33.2047 131.373 32.8333 131.373 32.3893C131.373 32.0392 131.471 31.719 131.668 31.4287C131.873 31.1384 132.159 30.9078 132.526 30.7371C132.902 30.5578 133.341 30.4681 133.845 30.4681C134.477 30.4681 135.01 30.5919 135.446 30.8395C135.881 31.0872 136.206 31.4372 136.419 31.8898L135.561 32.4533C135.416 32.0776 135.181 31.8044 134.857 31.6336C134.532 31.4543 134.195 31.3647 133.845 31.3647C133.538 31.3647 133.273 31.4073 133.051 31.4927C132.837 31.5781 132.671 31.6977 132.551 31.8513C132.44 31.9965 132.385 32.163 132.385 32.3508C132.385 32.5387 132.449 32.7137 132.577 32.876C132.705 33.0296 132.944 33.1406 133.294 33.2089L134.895 33.5419C135.493 33.6615 135.911 33.8579 136.15 34.1311C136.389 34.4043 136.509 34.7373 136.509 35.1301C136.509 35.5314 136.402 35.8857 136.189 36.1931C135.975 36.492 135.676 36.7225 135.292 36.8847C134.908 37.047 134.464 37.1281 133.96 37.1281ZM140.714 37.1281C140.091 37.1281 139.515 36.9957 138.985 36.731C138.464 36.4663 138.063 36.0907 137.781 35.604L138.652 34.9764C138.84 35.3692 139.113 35.6765 139.472 35.8985C139.839 36.1205 140.279 36.2315 140.791 36.2315C141.244 36.2315 141.598 36.1462 141.854 35.9754C142.11 35.7961 142.238 35.5655 142.238 35.2838C142.238 35.1045 142.179 34.9422 142.059 34.7971C141.948 34.6434 141.73 34.5324 141.406 34.4641L139.869 34.1439C139.246 34.0158 138.797 33.8024 138.524 33.5035C138.259 33.2047 138.127 32.8333 138.127 32.3893C138.127 32.0392 138.225 31.719 138.422 31.4287C138.627 31.1384 138.913 30.9078 139.28 30.7371C139.656 30.5578 140.095 30.4681 140.599 30.4681C141.231 30.4681 141.765 30.5919 142.2 30.8395C142.635 31.0872 142.96 31.4372 143.173 31.8898L142.315 32.4533C142.17 32.0776 141.935 31.8044 141.611 31.6336C141.286 31.4543 140.949 31.3647 140.599 31.3647C140.292 31.3647 140.027 31.4073 139.805 31.4927C139.591 31.5781 139.425 31.6977 139.305 31.8513C139.194 31.9965 139.139 32.163 139.139 32.3508C139.139 32.5387 139.203 32.7137 139.331 32.876C139.459 33.0296 139.698 33.1406 140.048 33.2089L141.649 33.5419C142.247 33.6615 142.665 33.8579 142.904 34.1311C143.143 34.4043 143.263 34.7373 143.263 35.1301C143.263 35.5314 143.156 35.8857 142.943 36.1931C142.729 36.492 142.43 36.7225 142.046 36.8847C141.662 37.047 141.218 37.1281 140.714 37.1281ZM145.675 29.3667C145.445 29.3667 145.257 29.2984 145.112 29.1617C144.975 29.0166 144.907 28.8287 144.907 28.5982C144.907 28.3677 144.975 28.1841 145.112 28.0475C145.257 27.9023 145.445 27.8298 145.675 27.8298C145.906 27.8298 146.089 27.9023 146.226 28.0475C146.371 28.1841 146.444 28.3677 146.444 28.5982C146.444 28.8287 146.371 29.0166 146.226 29.1617C146.089 29.2984 145.906 29.3667 145.675 29.3667ZM146.188 30.5962V37H145.163V30.5962H146.188ZM151.216 30.4681C151.822 30.4681 152.356 30.6005 152.817 30.8652C153.287 31.1298 153.654 31.5141 153.919 32.0178C154.183 32.5131 154.316 33.1065 154.316 33.7981C154.316 34.4897 154.183 35.0874 153.919 35.5912C153.654 36.0864 153.287 36.4663 152.817 36.731C152.356 36.9957 151.822 37.1281 151.216 37.1281C150.618 37.1281 150.085 36.9957 149.615 36.731C149.146 36.4663 148.778 36.0864 148.514 35.5912C148.249 35.0874 148.117 34.4897 148.117 33.7981C148.117 33.1065 148.249 32.5131 148.514 32.0178C148.778 31.5141 149.146 31.1298 149.615 30.8652C150.085 30.6005 150.618 30.4681 151.216 30.4681ZM151.216 31.3518C150.781 31.3518 150.409 31.45 150.102 31.6464C149.794 31.8428 149.555 32.1246 149.385 32.4917C149.222 32.8503 149.141 33.2858 149.141 33.7981C149.141 34.3019 149.222 34.7373 149.385 35.1045C149.555 35.4716 149.794 35.7534 150.102 35.9498C150.409 36.1462 150.781 36.2444 151.216 36.2444C151.652 36.2444 152.023 36.1462 152.33 35.9498C152.638 35.7534 152.873 35.4716 153.035 35.1045C153.206 34.7373 153.291 34.3019 153.291 33.7981C153.291 33.2858 153.206 32.8503 153.035 32.4917C152.873 32.1246 152.638 31.8428 152.33 31.6464C152.023 31.45 151.652 31.3518 151.216 31.3518ZM156.245 37V30.5962H157.141L157.231 32.0306L157.064 31.8898C157.201 31.5482 157.384 31.275 157.615 31.0701C157.845 30.8566 158.11 30.7029 158.409 30.609C158.716 30.5151 159.032 30.4681 159.357 30.4681C159.818 30.4681 160.236 30.5578 160.612 30.7371C160.988 30.9078 161.286 31.1725 161.508 31.5312C161.739 31.8898 161.854 32.3466 161.854 32.9016V37H160.83V33.2602C160.83 32.5515 160.676 32.0605 160.369 31.7873C160.07 31.5055 159.698 31.3647 159.254 31.3647C158.947 31.3647 158.64 31.4372 158.332 31.5824C158.025 31.7275 157.769 31.9623 157.564 32.2868C157.367 32.6113 157.269 33.0467 157.269 33.5932V37H156.245Z" fill="#A9A9AC"/>
<defs>
<clipPath id="clip0_6385_58716">
<rect width="69.3641" height="48.0285" fill="white" transform="translate(0.8125 0.985718)"/>
</clipPath>
</defs>
</svg>
