<svg width="150" height="48" viewBox="0 0 150 48" fill="none" xmlns="http://www.w3.org/2000/svg">
<g clip-path="url(#clip0_4737_36556)">
<path d="M78.1958 0C78.1958 0.487057 78.1958 0.807124 78.1958 1.1252C78.1958 15.896 78.1858 30.6667 78.2236 45.4375C78.2256 46.3659 77.9572 46.5249 77.1282 46.4911C75.5418 46.4275 73.9494 46.4474 72.361 46.4832C71.7865 46.4971 71.6036 46.3102 71.6354 45.7496C71.6752 45.024 71.6453 44.2944 71.6453 43.5191C71.1801 43.535 70.9694 43.9147 70.6871 44.1413C66.0869 47.839 60.3615 48.2167 55.8885 45.0657C53.6103 43.4614 52.1471 41.2229 51.3321 38.6068C49.4534 32.5692 49.1751 26.488 51.4732 20.5021C53.6799 14.7549 58.8904 11.6715 64.8126 12.4508C67.1068 12.753 69.0769 13.8086 70.8223 15.3035C71.043 15.4924 71.2537 15.6932 71.4684 15.888C71.8004 15.6733 71.6374 15.3831 71.6394 15.1505C71.6513 11.5085 71.6612 7.86449 71.6314 4.22249C71.6274 3.61218 71.7984 3.26825 72.3551 2.99391C74.2715 2.04763 76.162 1.04966 78.1997 0.00198799L78.1958 0ZM71.7169 29.8377C71.7169 28.3507 71.528 26.8319 71.7587 25.3807C72.1642 22.8142 70.7826 21.3709 68.9178 20.1165C68.2578 19.6731 67.56 19.2954 66.8225 18.9913C62.5841 17.2418 58.5703 19.0231 57.298 23.4026C55.9979 27.8776 56.1887 32.3883 57.7533 36.7758C58.7751 39.6465 61.0732 41.1275 64.1148 41.0818C67.2857 41.0341 69.5579 39.2926 71.542 37.0382C71.7964 36.748 71.7129 36.41 71.7129 36.09C71.7229 34.0065 71.7169 31.9211 71.7149 29.8377H71.7169Z" fill="#545458"/>
<path d="M111.638 32.076C108.26 32.076 104.881 32.1117 101.503 32.0541C100.611 32.0382 100.545 32.3682 100.684 33.0799C101.183 35.6404 102.042 38.0359 104.223 39.6422C107.247 41.8708 110.473 41.5865 113.717 40.1372C114.288 39.8828 114.888 39.6124 115.346 39.2029C116.085 38.5429 116.56 38.6701 117.159 39.3977C117.998 40.4195 118.936 41.3599 119.854 42.3141C120.176 42.6481 120.186 42.8369 119.823 43.1789C113.767 48.8924 99.6386 49.9321 95.257 37.1592C93.4221 31.8116 93.5871 26.3863 95.5731 21.0983C97.8136 15.1363 103.312 11.8442 109.891 12.3352C116.513 12.8302 121.023 17.0328 122.498 24.0803C122.984 26.3983 123.079 28.7361 122.928 31.0939C122.882 31.8116 122.689 32.1078 121.872 32.0938C118.461 32.0382 115.049 32.07 111.638 32.072V32.076ZM108.479 26.6229C110.825 26.6229 113.173 26.599 115.519 26.6368C116.2 26.6468 116.381 26.434 116.262 25.784C116.083 24.8079 115.896 23.8357 115.531 22.9093C114.395 20.0407 112.25 18.5059 109.207 18.2634C106.151 18.0189 103.69 19.0666 102.118 21.81C101.404 23.0545 101.05 24.4222 100.786 25.8317C100.644 26.5911 100.949 26.6348 101.539 26.6289C103.853 26.609 106.165 26.6209 108.479 26.6209V26.6229Z" fill="#545458"/>
<path d="M35.4597 32.0763C32.0821 32.0763 28.7025 32.1061 25.3249 32.0544C24.5058 32.0425 24.3985 32.293 24.5357 33.0027C25.144 36.1835 26.3288 38.9766 29.4579 40.4815C31.6387 41.5312 33.8812 41.394 36.1296 40.7201C37.054 40.4438 37.9128 40.0124 38.7379 39.5193C39.7491 38.915 40.649 39.0356 41.4375 39.8811C42.1135 40.6088 42.7397 41.392 43.4772 42.05C44.1551 42.6564 43.9444 42.9764 43.352 43.4734C41.0578 45.4018 38.4377 46.5628 35.4795 46.9723C29.7223 47.7675 24.8517 46.2407 21.2932 41.4338C19.6293 39.1854 18.6969 36.6149 18.2675 33.8615C17.6413 29.8438 17.8043 25.8718 19.1025 21.9972C21.3111 15.407 26.8417 11.7948 33.7917 12.3455C40.4097 12.8703 44.8827 17.071 46.3697 24.1263C46.8727 26.5119 46.9125 28.9114 46.7653 31.3328C46.7216 32.0564 46.3479 32.0862 45.7932 32.0843C42.348 32.0703 38.9048 32.0763 35.4597 32.0763ZM32.3544 26.6252C34.6028 26.6252 36.8512 26.5954 39.0997 26.6411C39.9187 26.659 40.3084 26.5517 40.0817 25.5875C39.9008 24.8182 39.7875 24.0289 39.533 23.2794C37.891 18.4685 31.8634 16.5899 27.8178 19.6573C25.7861 21.198 25.0804 23.4623 24.641 25.8539C24.5217 26.502 24.6907 26.6451 25.313 26.6352C27.6608 26.6054 30.0086 26.6232 32.3564 26.6252H32.3544Z" fill="#545458"/>
<path d="M137.349 47.1849C132.916 47.0835 128.783 45.7754 125.002 43.3063C124.529 42.9982 124.483 42.7656 124.781 42.3004C125.584 41.0479 126.358 39.7736 127.101 38.4854C127.382 38.0004 127.582 37.9705 128.069 38.2787C131.548 40.4913 135.296 41.6682 139.469 41.0758C140.262 40.9625 141.027 40.7517 141.731 40.3681C143.669 39.3104 144.013 36.8831 142.439 35.3365C141.574 34.4876 140.496 33.9727 139.411 33.4757C137.065 32.4022 134.584 31.6567 132.266 30.5136C131.286 30.0305 130.33 29.5057 129.437 28.8715C125.586 26.138 124.491 20.5677 127.066 16.5997C128.547 14.3174 130.817 13.1962 133.393 12.6873C138.644 11.6516 143.504 12.7171 148.013 15.554C148.5 15.8601 148.631 16.0927 148.297 16.6295C147.514 17.8938 146.79 19.196 146.075 20.5001C145.822 20.9613 145.647 20.9911 145.19 20.6909C142.584 18.9693 139.727 18.0549 136.574 18.1881C136.276 18.2 135.978 18.2119 135.683 18.2497C133.928 18.4723 132.741 19.353 132.475 20.6233C132.193 21.9672 132.831 23.1063 134.425 24.0824C136.783 25.5257 139.443 26.2792 141.95 27.3865C143.192 27.9352 144.407 28.5296 145.574 29.2274C149.164 31.3764 150.337 34.6526 149.913 38.6306C149.502 42.4992 147.273 44.9325 143.685 46.2147C141.665 46.9364 139.56 47.1193 137.353 47.1809L137.349 47.1849Z" fill="#545458"/>
<path d="M6.62781 16.0567C10.3851 11.55 15.6573 11.8362 18.9335 13.0946C20.1123 13.5479 20.1044 13.6175 19.3311 14.6135C18.3569 15.8699 17.4325 17.164 16.7825 18.6232C16.5777 19.0825 16.369 19.1779 15.8839 19.0546C14.7905 18.7743 13.6693 18.6968 12.5361 18.7922C9.99348 19.0049 8.31562 20.3448 7.3912 22.6827C6.81071 24.1518 6.62781 25.6905 6.62781 27.2571C6.62781 33.3503 6.60992 39.4434 6.64968 45.5366C6.65565 46.3418 6.43697 46.5227 5.6696 46.4928C4.04939 46.4292 2.42521 46.4491 0.803008 46.4889C0.222515 46.5008 0.0078125 46.3954 0.0078125 45.7454C0.0296804 35.0818 0.0257044 24.4202 0.0137765 13.7566C0.0137765 13.2338 0.095284 12.9913 0.703608 13.0052C2.45701 13.0469 4.2144 13.041 5.9678 13.0092C6.48866 12.9992 6.67354 13.1324 6.63974 13.6692C6.59402 14.3789 6.62781 15.0946 6.62781 16.0567Z" fill="#545458"/>
<path d="M87.5538 48.0005C84.4722 48.0462 81.8658 45.5134 81.8439 42.4537C81.822 39.3601 84.3231 36.8074 87.4126 36.7657C90.5319 36.7239 93.1205 39.2011 93.1622 42.2668C93.206 45.4318 90.7367 47.9548 87.5518 48.0025L87.5538 48.0005Z" fill="#8C8C90"/>
</g>
<defs>
<clipPath id="clip0_4737_36556">
<rect width="149.986" height="48" fill="white" transform="translate(0.0078125)"/>
</clipPath>
</defs>
</svg>
