<svg width="188" height="50" viewBox="0 0 188 50" fill="none" xmlns="http://www.w3.org/2000/svg">
<g clip-path="url(#clip0_6385_58634)">
<path d="M0 13.5948C0 13.5948 20.5696 10.9329 21.1499 10.8385C22.0407 10.6931 22.8306 10.5228 23.5681 10.3198C25.2318 9.8639 26.7632 9.16829 28.1191 8.25129C29.4199 7.38015 30.629 6.11211 31.8277 4.72089C32.5888 3.83533 33.3892 2.68125 34.1359 1.56775V1.0293C33.2504 2.3406 32.3779 3.47113 31.4805 4.46804C30.2911 5.79244 29.0439 6.87454 27.7719 7.68674C26.4593 8.533 24.983 9.16308 23.3808 9.56263C22.6629 9.74341 21.8953 9.89012 21.0307 10.0106C20.4622 10.0905 19.8753 10.1522 19.308 10.2111C19.0814 10.236 0 12.2599 0 12.2599V13.5948Z" fill="#8C8C90"/>
<path d="M27.5846 10.146C26.2969 10.8861 24.81 11.4285 23.1647 11.756C22.4625 11.8987 21.6962 12.014 20.8237 12.1083C20.3102 12.1646 19.794 12.2091 19.2766 12.2537C18.9976 12.2773 18.7185 12.3022 18.4395 12.3271C12.1358 12.893 5.86486 13.4943 0 14.0628V15.3977C5.91071 14.6851 12.2262 13.9292 18.5273 13.2166C18.8076 13.1839 19.0879 13.1524 19.3683 13.1222C19.8844 13.0659 20.4019 13.0083 20.9193 12.9402C21.8167 12.821 22.6014 12.6834 23.3179 12.521C25.0275 12.1385 26.5707 11.5359 27.9056 10.7276C29.2313 9.93243 30.4024 8.81763 31.6626 7.45523C32.4473 6.60766 33.3197 5.41033 34.1372 4.28636V3.79639C33.1743 5.10114 32.2613 6.19764 31.3587 7.13298C30.1286 8.4076 28.8592 9.42023 27.5846 10.146Z" fill="#8C8C90"/>
<path d="M31.1845 9.81912C29.9295 10.9706 28.6195 11.8758 27.2899 12.5099C25.989 13.1373 24.5349 13.5775 22.8411 13.8552C22.1429 13.9718 21.3831 14.0661 20.5198 14.1447L0 15.8294V17.1603L18.2404 15.2255L20.5997 14.9779C21.4892 14.8744 22.2647 14.7591 22.9695 14.6255C24.7236 14.2941 26.2288 13.8002 27.5689 13.1137C28.9391 12.4208 30.3081 11.268 31.5814 10.0471C32.4355 9.22834 33.2582 8.17114 34.1372 7.06288V6.61877C33.1219 7.88161 32.1526 8.93225 31.1845 9.81912Z" fill="#8C8C90"/>
<path d="M26.2222 16.7327C25.0275 17.4008 24.1341 17.786 22.4285 17.9641C21.3975 18.0755 20.3377 18.1278 19.312 18.1789C18.8168 18.2038 18.3203 18.2287 17.8238 18.2602C14.7244 18.437 11.6799 18.6335 8.57392 18.8353L0 19.4129V20.7439L8.6604 19.95C11.4586 19.6985 14.71 19.409 17.8841 19.1496L20.1923 18.9715C21.0936 18.9021 21.8324 18.8287 22.5162 18.7396C24.2716 18.513 25.7716 18.158 27.0999 17.6563C28.5304 17.1218 29.8797 16.2913 31.2303 15.314C32.4486 14.4337 34.1346 12.6979 34.1359 12.6757V12.2053C33.0342 13.2795 32.4002 13.8835 31.1937 14.6786C29.7514 15.6284 27.2938 16.134 26.2222 16.7327Z" fill="#8C8C90"/>
<path d="M26.6584 19.2628C25.3642 19.6427 23.9074 19.8995 22.2044 20.0475C21.5141 20.1078 20.77 20.1536 19.929 20.1877L17.6339 20.2885C11.9315 20.5531 6.25524 20.8492 0 21.1806V22.5077C5.97621 22.0453 11.8319 21.5959 17.6863 21.1793L19.9735 21.0235C20.8578 20.9644 21.5901 20.9016 22.2791 20.8243C24.024 20.6291 25.5175 20.3278 26.8432 19.9034C28.3117 19.4383 29.7435 18.7637 31.098 17.8991C32.0976 17.2624 33.0984 16.5027 34.1359 15.5975V15.5739C32.9923 16.5498 31.9024 16.7672 30.8164 17.4222C29.4854 18.2292 28.0863 18.8476 26.6584 19.2628Z" fill="#8C8C90"/>
<path d="M26.4475 21.4687C25.1441 21.7739 23.7306 21.9691 22.0001 22.0857C21.3333 22.1302 20.6154 22.163 19.7416 22.1904L17.4688 22.2717C11.7415 22.4878 5.93429 22.7367 0 22.9948V24.3218C5.8963 23.9196 11.6799 23.528 17.5133 23.1638L19.781 23.0275C20.6704 22.9764 21.3949 22.9254 22.0616 22.8638C23.8236 22.7014 25.2659 22.4642 26.5995 22.1197C28.0955 21.7346 29.5496 21.1687 30.9211 20.4403C31.9822 19.8783 33.0407 19.2024 34.1372 18.3876V17.8203C32.9516 18.6757 31.8146 19.3739 30.6775 19.9425C29.3295 20.6171 27.9068 21.1307 26.4475 21.4687Z" fill="#8C8C90"/>
<path d="M26.2524 23.6314C24.9437 23.8711 23.5354 24.0243 21.818 24.1121C21.1722 24.1462 20.4805 24.1698 19.5766 24.1907L0 24.72V26.047L17.3588 25.1405L19.6081 25.0265C20.4858 24.9846 21.2036 24.9427 21.8678 24.8916C23.6088 24.758 25.0406 24.5667 26.3742 24.2877C27.8885 23.9733 29.3584 23.5147 30.7417 22.9253C31.8565 22.4523 32.9726 21.876 34.1359 21.1751V20.642C32.894 21.3651 31.7124 21.9441 30.5387 22.4091C29.175 22.9515 27.7327 23.3628 26.2524 23.6314Z" fill="#8C8C90"/>
<path d="M26.0991 25.8033C23.6965 26.1242 21.2246 26.1609 18.8325 26.1963C18.2849 26.2036 17.736 26.212 17.1885 26.2239L0 26.533V27.8574L17.2186 27.116C17.7636 27.0911 18.3111 27.0688 18.8587 27.0478C21.2665 26.9509 23.7568 26.8513 26.1921 26.4649C27.7326 26.2225 29.2156 25.8623 30.6002 25.3972C31.7465 25.0134 32.9333 24.5169 34.1359 23.93V23.4218C32.8718 24.0099 31.6286 24.4999 30.4352 24.8667C29.0675 25.2885 27.6095 25.6042 26.0991 25.8033" fill="#8C8C90"/>
<path d="M25.9628 27.989C23.7122 28.175 21.4093 28.175 19.181 28.175C18.488 28.175 17.795 28.175 17.102 28.1802C11.4075 28.2052 5.75875 28.2523 0 28.302V29.6265C5.48496 29.4404 11.3026 29.2465 17.1217 29.0736C17.812 29.05 18.5024 29.033 19.1941 29.0147C21.4342 28.9584 23.7502 28.9007 26.0244 28.6545C27.6121 28.4842 29.0583 28.234 30.443 27.8921C31.6508 27.5947 32.8914 27.1991 34.1372 26.7236V26.2362C32.8508 26.6973 31.5696 27.0746 30.3212 27.3497C28.9496 27.6523 27.5243 27.8606 25.9628 27.989Z" fill="#8C8C90"/>
<path d="M25.8751 30.1434C24.9371 30.1801 23.9218 30.1984 22.7703 30.1984C22.3354 30.1984 21.8992 30.1963 21.4656 30.1921L17.0352 30.1385C14.013 30.1161 11.0013 30.1109 8.17568 30.1084L0 30.1157V31.4388L8.19532 31.2253C11.0105 31.1559 14.03 31.0838 17.0443 31.0301L21.4708 30.9711C22.6852 30.9527 24.2873 30.9161 25.9104 30.81C27.5007 30.7065 28.9483 30.548 30.3356 30.3266C31.584 30.1275 32.8599 29.8589 34.1359 29.5327V29.0637C32.8246 29.365 31.5211 29.6074 30.257 29.7764C28.8776 29.9611 27.4444 30.0803 25.8751 30.1432" fill="#8C8C90"/>
<path d="M21.4145 32.2255L16.9998 32.1784C11.3668 32.0984 5.74041 31.9963 0 31.8889V33.2133C5.47841 33.178 11.2817 33.1359 17.0038 33.0718L21.4211 33.0063C22.9092 32.9801 24.3673 32.9527 25.841 32.9042C28.8763 32.8072 31.5958 32.5936 34.1359 32.257V31.7959C31.5853 32.071 28.8632 32.215 25.8253 32.2347C24.3568 32.2478 22.8856 32.2379 21.4145 32.2253" fill="#8C8C90"/>
<path d="M34.1359 34.5674L0 33.7015V35.0259H34.1359V34.5674Z" fill="#8C8C90"/>
<path d="M31.0627 12.3209C29.7658 13.3623 28.7649 14.1025 27.1772 14.7326C25.7951 15.2828 24.3109 15.5068 22.6145 15.7386C21.5233 15.8919 20.3822 16.1172 19.2923 16.1906C18.8443 16.2207 18.3963 16.2495 17.9496 16.2849L0 17.5936V18.922L18.0216 17.1744L20.3587 16.9556C21.2246 16.873 21.9949 16.7788 22.7101 16.6622C24.4563 16.3819 25.9615 15.9548 27.3108 15.3535C28.7099 14.7365 30.126 13.7252 31.4426 12.6182C32.3373 11.8663 33.1993 10.9205 34.1359 9.88689V9.41138C33.0028 10.5825 32.0622 11.5192 31.0627 12.3209Z" fill="#8C8C90"/>
<path d="M14.1875 47.7215H44.0895V34.4237H14.1875V47.7215Z" fill="#F2F2F2"/>
<path fill-rule="evenodd" clip-rule="evenodd" d="M44.0947 15.0187H14.1875V35.025H44.0947V15.0187ZM29.4645 17.8638H30.5046L29.6662 18.5174L29.9924 19.5537L29.1566 18.9157L28.3209 19.5537L28.651 18.5174L27.8047 17.8638H28.8422L29.1566 16.8524L29.4645 17.8638ZM30.5443 31.2057H29.5016L29.195 30.2336L28.8806 31.2057H27.8418L28.6894 31.8357L28.3606 32.8313L29.195 32.2183L30.0308 32.8313L29.7046 31.8357L30.5443 31.2057ZM32.8021 30.3223H33.8449L33.0052 30.951L33.3314 31.9479L32.4956 31.3323L31.6611 31.9479L31.9899 30.951L31.1424 30.3223H32.1812L32.4956 29.3489L32.8021 30.3223ZM33.8449 18.7538H32.8021L32.4956 17.7818L32.1812 18.7538H31.1424L31.9899 19.3825L31.6611 20.3795L32.4956 19.7651L33.3314 20.3795L33.0052 19.3825L33.8449 18.7538ZM35.2535 21.2039H36.2936L35.4552 21.8313L35.7814 22.8295L34.9456 22.2151L34.1125 22.8295L34.4413 21.8313L33.5938 21.2039H34.6313L34.9456 20.2305L35.2535 21.2039ZM36.2936 27.9054H35.2535L34.9456 26.9321L34.6313 27.9054H33.5938L34.4413 28.5355L34.1125 29.5337L34.9456 28.918L35.7814 29.5337L35.4552 28.5355L36.2936 27.9054ZM36.1715 24.5035H37.2142L36.3745 25.1323L36.7007 26.1305L35.8649 25.5148L35.0305 26.1305L35.3593 25.1323L34.5117 24.5035H35.5492L35.8649 23.5315L36.1715 24.5035ZM27.1393 18.762H26.0992L25.7914 17.79L25.477 18.762H24.4395L25.2857 19.3921L24.9556 20.389L25.7914 19.7733L26.6271 20.389L26.301 19.3921L27.1393 18.762ZM23.7183 21.212H24.7611L23.9214 21.8408L24.2463 22.839L23.4118 22.2233L22.5773 22.839L22.9048 21.8408L22.0586 21.212H23.0974L23.4118 20.2399L23.7183 21.212ZM23.8759 24.5118H22.8344L22.5279 23.5398L22.2135 24.5118H21.176L22.0209 25.1406L21.6921 26.1388L22.5279 25.5244L23.3624 26.1388L23.0375 25.1406L23.8759 24.5118ZM23.7183 27.9136H24.7611L23.9214 28.5438L24.2463 29.542L23.4118 28.9263L22.5773 29.542L22.9048 28.5438L22.0586 27.9136H23.0974L23.4118 26.943L23.7183 27.9136ZM27.1745 30.3305H26.1344L25.8265 29.3572L25.5121 30.3305H24.4746L25.3209 30.9593L24.9907 31.9562L25.8265 31.3418L26.6597 31.9562L26.3361 30.9593L27.1745 30.3305Z" fill="#A9A9AC"/>
<path d="M29.4645 17.8638H30.5046L29.6662 18.5174L29.9924 19.5536L29.1566 18.9157L28.3209 19.5536L28.651 18.5174L27.8047 17.8638H28.8422L29.1566 16.8524L29.4645 17.8638Z" fill="#F2F2F2"/>
<path d="M29.5035 31.2056H30.5463L29.7066 31.8356L30.0327 32.8313L29.197 32.2182L28.3625 32.8313L28.6913 31.8356L27.8438 31.2056H28.8826L29.197 30.2335L29.5035 31.2056Z" fill="#F2F2F2"/>
<path d="M32.8004 30.3222H33.8432L33.0034 30.951L33.3296 31.9479L32.4939 31.3322L31.6594 31.9479L31.9882 30.951L31.1406 30.3222H32.1794L32.4939 29.3489L32.8004 30.3222Z" fill="#F2F2F2"/>
<path d="M32.8004 18.7536H33.8432L33.0034 19.3824L33.3296 20.3793L32.4939 19.7649L31.6594 20.3793L31.9882 19.3824L31.1406 18.7536H32.1794L32.4939 17.7816L32.8004 18.7536Z" fill="#F2F2F2"/>
<path d="M35.2535 21.2038H36.2936L35.4553 21.8312L35.7814 22.8295L34.9456 22.2151L34.1125 22.8295L34.4413 21.8312L33.5938 21.2038H34.6313L34.9456 20.2305L35.2535 21.2038Z" fill="#F2F2F2"/>
<path d="M35.2535 27.9053H36.2936L35.4553 28.5354L35.7814 29.5336L34.9456 28.9179L34.1125 29.5336L34.4413 28.5354L33.5938 27.9053H34.6313L34.9456 26.932L35.2535 27.9053Z" fill="#F2F2F2"/>
<path d="M36.1676 24.5034H37.2103L36.3706 25.1322L36.6968 26.1304L35.861 25.5147L35.0266 26.1304L35.3554 25.1322L34.5078 24.5034H35.5453L35.861 23.5314L36.1676 24.5034Z" fill="#F2F2F2"/>
<path d="M26.0973 18.7619H27.1374L26.299 19.392L26.6252 20.3889L25.7894 19.7732L24.9536 20.3889L25.2838 19.392L24.4375 18.7619H25.475L25.7894 17.7899L26.0973 18.7619Z" fill="#F2F2F2"/>
<path d="M23.7144 21.2119H24.7572L23.9175 21.8407L24.2424 22.8389L23.4079 22.2232L22.5734 22.8389L22.9009 21.8407L22.0547 21.2119H23.0935L23.4079 20.2399L23.7144 21.2119Z" fill="#F2F2F2"/>
<path d="M22.8303 24.5118H23.8718L23.0334 25.1406L23.3583 26.1388L22.5238 25.5244L21.688 26.1388L22.0168 25.1406L21.1719 24.5118H22.2094L22.5238 23.5398L22.8303 24.5118Z" fill="#F2F2F2"/>
<path d="M23.7144 27.9137H24.7572L23.9175 28.5438L24.2424 29.542L23.4079 28.9263L22.5734 29.542L22.9009 28.5438L22.0547 27.9137H23.0935L23.4079 26.943L23.7144 27.9137Z" fill="#F2F2F2"/>
<path d="M26.1285 30.3304H27.1687L26.3303 30.9592L26.6538 31.9561L25.8207 31.3417L24.9849 31.9561L25.315 30.9592L24.4688 30.3304H25.5063L25.8207 29.3571L26.1285 30.3304Z" fill="#F2F2F2"/>
<path d="M14.1875 49.0354H44.0973V47.3285H14.1875V49.0354Z" fill="#A9A9AC"/>
<path d="M48.3516 0.9646C48.3516 0.9646 54.5871 10.6756 55.7281 12.4611C56.8678 14.2453 58.1713 15.6575 62.7851 16.6164C67.3989 17.5754 69.4071 18.0286 69.4071 18.0286V18.3744C69.4071 18.3744 66.4753 17.7614 62.7026 16.9361C58.9311 16.1108 57.3892 15.8317 55.6692 13.4868C54.2374 11.5349 48.3516 3.23874 48.3516 3.23874V0.9646Z" fill="#8C8C90"/>
<path d="M48.3556 3.72571C48.3556 3.72571 54.7994 12.9573 55.6549 14.0891C56.5103 15.221 57.6618 17.0445 62.755 18.1213C64.0703 18.399 69.4281 19.4535 69.4281 19.4535V19.7457C69.4281 19.7457 65.3567 18.961 62.755 18.4134C60.1521 17.8658 57.4181 17.3667 55.6732 15.1659C54.0881 13.1669 48.3438 5.7942 48.3438 5.7942L48.3555 3.72571H48.3556Z" fill="#8C8C90"/>
<path d="M48.3556 6.49902C48.3556 6.49902 54.4274 14.3445 55.6549 15.9139C56.881 17.482 58.5722 18.7776 62.755 19.5806C65.1667 20.0444 69.4098 20.8212 69.4098 20.8212V21.1133C69.4098 21.1133 65.692 20.4204 62.755 19.8911C59.818 19.3619 57.3932 18.8496 55.6549 16.899C54.13 15.1869 48.3438 8.45743 48.3438 8.45743L48.3555 6.49902H48.3556Z" fill="#8C8C90"/>
<path d="M48.3438 9.22375C48.3438 9.22375 54.4916 16.341 55.6732 17.6104C57.5138 19.5871 58.4059 20.2684 62.7551 21.095C64.4948 21.4264 69.4099 22.2818 69.4099 22.2818V22.591C69.4099 22.591 65.3397 21.8613 62.7551 21.4054C60.1718 20.9496 57.9854 20.7793 55.6549 18.5405C53.8799 16.8362 48.3556 11.0604 48.3556 11.0604L48.3438 9.22375H48.3438Z" fill="#8C8C90"/>
<path d="M48.3516 12.0579C48.3516 12.0579 54.0278 17.8887 55.6692 19.5628C57.4102 21.3379 59.6411 21.9955 62.7327 22.5366C65.6841 23.0527 69.4058 23.6501 69.4058 23.6501V23.9776C69.4058 23.9776 65.9107 23.4169 62.7327 22.8837C59.6162 22.3597 57.4351 22.0689 55.6509 20.4563C54.0527 19.0127 48.3516 13.7727 48.3516 13.7727V12.0579Z" fill="#8C8C90"/>
<path d="M48.3516 14.6851C48.3516 14.6851 53.75 19.5989 55.6692 21.2783C57.4351 22.8228 58.8669 23.3035 62.751 23.9782C66.6365 24.6528 69.4058 25.072 69.4058 25.072V25.4192C69.4058 25.4192 65.8924 24.8532 62.7327 24.3607C59.573 23.8681 57.5595 23.6742 55.6692 22.1717C53.488 20.4372 48.3516 16.2911 48.3516 16.2911V14.6851Z" fill="#8C8C90"/>
<path d="M48.3438 17.4949C48.3438 17.4949 54.5021 22.2816 55.6549 23.12C56.8077 23.9597 58.3312 24.9383 62.7551 25.5657C67.1423 26.1867 69.3915 26.4959 69.3915 26.4959V26.8613C69.3915 26.8613 65.4144 26.2941 62.7551 25.9666C60.0971 25.6378 58.0587 25.4989 55.6732 23.9414C53.3506 22.4257 48.3556 18.979 48.3556 18.979L48.3438 17.4949H48.3438Z" fill="#8C8C90"/>
<path d="M48.3438 20.183C48.3438 20.183 54.5204 24.2151 55.6916 24.8544C56.864 25.4924 58.2395 26.5325 62.7551 27.0984C67.272 27.663 69.3915 27.9185 69.3915 27.9185V28.2656C69.3915 28.2656 65.6554 27.8648 62.7367 27.5543C59.8181 27.2439 57.8295 26.8246 55.6549 25.6561C53.4803 24.4889 48.3556 21.5571 48.3556 21.5571L48.3438 20.183H48.3438Z" fill="#8C8C90"/>
<path d="M48.3556 22.8712C48.3556 22.8712 53.8222 25.7859 55.6732 26.6964C57.7364 27.7116 59.5206 28.1989 62.755 28.5749C65.9305 28.9469 69.4098 29.3059 69.4098 29.3059V29.6347C69.4098 29.6347 66.1925 29.2967 62.755 28.9771C59.3477 28.6614 58.1334 28.5146 55.6732 27.4444C53.4724 26.4881 48.3438 24.1485 48.3438 24.1485L48.3555 22.8712H48.3556Z" fill="#8C8C90"/>
<path d="M48.3556 25.6078C48.3556 25.6078 52.6563 27.413 55.6915 28.5933C58.6783 29.7552 60.959 29.8535 62.7734 30.0539C63.5724 30.1417 69.3915 30.7286 69.3915 30.7286V31.0561C69.3915 31.0561 65.9147 30.7836 62.755 30.5098C59.5953 30.2361 58.2316 30.1208 55.6732 29.2876C53.0833 28.4453 48.3438 26.8248 48.3438 26.8248L48.3555 25.6078H48.3556Z" fill="#8C8C90"/>
<path d="M48.3556 28.3812C48.3556 28.3812 52.7178 29.7069 55.6915 30.4733C58.6652 31.2396 61.3979 31.5501 62.7734 31.6405C64.1488 31.7322 69.3915 32.1514 69.3915 32.1514V32.4619C69.3915 32.4619 66.4178 32.2627 62.755 32.006C59.7931 31.799 57.4142 31.5802 55.6732 31.2029C53.7435 30.785 48.3438 29.5249 48.3438 29.5249L48.3555 28.3812H48.3556Z" fill="#8C8C90"/>
<path d="M48.3438 31.118C48.3438 31.118 51.9227 31.722 55.6915 32.3338C58.5172 32.7936 62.3463 33.0831 62.755 33.1001C63.1637 33.1185 69.4098 33.5389 69.4098 33.5389V33.8664C69.4098 33.8664 65.413 33.6647 62.755 33.5206C59.987 33.37 57.236 33.2062 55.6732 33.0464C52.1729 32.6874 48.3438 32.2132 48.3438 32.2132V31.118Z" fill="#8C8C90"/>
<path d="M48.3516 33.9517C48.3516 33.9517 53.978 34.1586 55.6875 34.1953C57.3971 34.232 69.4058 34.7062 69.4058 34.7062V35.035L48.3516 35.0219V33.9517Z" fill="#8C8C90"/>
<path d="M15.9375 36.9971C15.9375 36.9355 15.9663 36.9028 16.0318 36.9028H17.7676C17.8239 36.9028 17.858 36.9356 17.858 36.9919V37.2853C17.858 37.3417 17.8344 37.3705 17.7637 37.3705H16.476V38.1814H17.617C17.6785 38.1814 17.7113 38.2103 17.7113 38.2666V38.5587C17.7113 38.6151 17.6877 38.6438 17.617 38.6438H16.476V39.5725H17.7964C17.8527 39.5725 17.8816 39.6013 17.8816 39.663V39.9499C17.8816 40.0115 17.8581 40.035 17.7912 40.035H16.0319C15.9664 40.035 15.9376 40.0061 15.9376 39.9499V36.9971H15.9375Z" fill="#A9A9AC"/>
<path d="M20.0731 40.0353H19.7377C19.667 40.0353 19.6487 40.0026 19.6487 39.9462V39.7994L19.6392 39.7942C19.4545 39.9226 19.1336 40.0772 18.8467 40.0772C18.21 40.0772 18.1484 39.6999 18.1484 39.2047V37.8174C18.1484 37.7612 18.172 37.7244 18.2375 37.7244H18.5821C18.6437 37.7244 18.6673 37.7571 18.6673 37.8174V39.1432C18.6673 39.4274 18.7235 39.6056 19.0118 39.6056C19.2149 39.6056 19.5253 39.4549 19.6484 39.3933V37.8174C19.6484 37.7612 19.6668 37.7244 19.7375 37.7244H20.0729C20.1384 37.7244 20.162 37.7571 20.162 37.8174V39.9462C20.162 40.0064 20.1384 40.0353 20.0729 40.0353" fill="#A9A9AC"/>
<path d="M21.0813 39.9457C21.0813 40.0021 21.0577 40.0348 20.9922 40.0348H20.6516C20.5861 40.0348 20.5625 40.0072 20.5625 39.9457V37.8183C20.5625 37.7566 20.5861 37.724 20.6516 37.724H20.9869C21.0577 37.724 21.0813 37.7619 21.0813 37.8183V38.0253L21.0907 38.0347C21.2322 37.9037 21.5675 37.7426 21.7889 37.7006C21.8505 37.6862 21.8923 37.7007 21.9029 37.7805L21.9356 38.0962C21.9398 38.1631 21.945 38.1905 21.8452 38.2102C21.5819 38.2613 21.2466 38.3556 21.0815 38.4263V39.9459L21.0813 39.9457Z" fill="#A9A9AC"/>
<path d="M23.0608 38.1293C22.66 38.1293 22.5696 38.3847 22.5696 38.8747C22.5696 39.3751 22.6599 39.62 23.0556 39.62C23.4852 39.62 23.5704 39.379 23.5704 38.8747C23.5704 38.3742 23.4904 38.1293 23.0608 38.1293ZM23.0556 40.0734C22.1084 40.0734 22.0469 39.379 22.0469 38.8419C22.0469 38.3978 22.1451 37.676 23.0556 37.676C23.9713 37.676 24.0983 38.2852 24.0983 38.8419C24.0983 39.379 24.0328 40.0734 23.0556 40.0734Z" fill="#A9A9AC"/>
<path d="M25.5134 38.1577C25.3195 38.1577 25.0221 38.2939 24.8806 38.3699V39.5489C25.0929 39.6105 25.2632 39.6289 25.4243 39.6289C25.7636 39.6289 25.8815 39.4546 25.8815 38.8612C25.8815 38.2612 25.7636 38.1578 25.5134 38.1578M25.4754 40.0782C25.3196 40.0782 25.1034 40.0494 24.8859 39.9734L24.8807 39.9786V40.8092C24.8807 40.8602 24.8676 40.9035 24.7916 40.9035H24.4563C24.3816 40.9035 24.3672 40.8708 24.3672 40.8092V37.8184C24.3672 37.7569 24.3908 37.7241 24.4563 37.7241H24.7916C24.8585 37.7241 24.8768 37.7608 24.8768 37.8184V37.9599L24.8913 37.9694C25.0603 37.8515 25.3629 37.6864 25.6367 37.6864C26.2537 37.6864 26.4148 38.1528 26.4148 38.8654C26.4148 39.6344 26.2209 40.0784 25.4755 40.0784" fill="#A9A9AC"/>
<path d="M27.2258 38.6672H28.1598C28.1598 38.379 28.0839 38.1013 27.6935 38.1013C27.3437 38.1013 27.2494 38.3135 27.2258 38.6672ZM27.2206 39.0209C27.235 39.4977 27.4053 39.63 27.7917 39.63C27.962 39.63 28.2254 39.596 28.4048 39.5777C28.49 39.5682 28.5188 39.5682 28.5332 39.6576L28.5608 39.8135C28.5752 39.8842 28.566 39.9222 28.4809 39.9602C28.2962 40.031 27.953 40.0781 27.7211 40.0781C26.8198 40.0781 26.6875 39.503 26.6875 38.8886C26.6875 38.4314 26.7727 37.6769 27.6936 37.6769C28.5372 37.6769 28.6879 38.2245 28.7023 38.7327C28.7075 38.903 28.6604 39.021 28.4717 39.021H27.2207L27.2206 39.0209Z" fill="#A9A9AC"/>
<path d="M30.3762 38.983H29.8012C29.5654 38.983 29.4134 39.0682 29.4134 39.3799C29.4134 39.5869 29.4841 39.6537 29.7068 39.6537C29.9099 39.6537 30.1968 39.5345 30.3762 39.431V38.983ZM30.4051 39.7663C30.1693 39.9458 29.8523 40.0729 29.5365 40.0729C29.0361 40.0729 28.8907 39.7991 28.8907 39.4035C28.8855 38.8507 29.1828 38.6149 29.7776 38.6149H30.3815V38.4931C30.3815 38.2101 30.2767 38.1105 29.8902 38.1105C29.7343 38.1105 29.437 38.1341 29.2483 38.1525C29.154 38.1669 29.1304 38.1619 29.1173 38.0962L29.0741 37.9219C29.0647 37.8603 29.0794 37.8224 29.1829 37.7804C29.3859 37.7097 29.758 37.677 29.9807 37.677C30.7968 37.677 30.8951 38.0111 30.8951 38.5403V39.4507C30.8951 39.6433 30.9186 39.6485 31.0654 39.6669C31.1361 39.6721 31.1544 39.6865 31.1544 39.7376V39.9367C31.1544 39.9879 31.1217 40.0206 31.0418 40.0349C30.9658 40.0494 30.8911 40.0585 30.8204 40.0585C30.5977 40.0585 30.4615 39.993 30.4143 39.7717L30.4049 39.7664L30.4051 39.7663Z" fill="#A9A9AC"/>
<path d="M33.2057 40.0352H32.8664C32.8048 40.0352 32.776 40.0064 32.776 39.9461L32.7812 38.6204C32.7812 38.3414 32.7157 38.158 32.4419 38.158C32.2533 38.158 31.9231 38.3087 31.7948 38.3702V39.9461C31.7948 40.0025 31.7712 40.0352 31.7057 40.0352H31.3703C31.3048 40.0352 31.2812 40.0064 31.2812 39.9461V37.8174C31.2812 37.7571 31.3048 37.7243 31.3703 37.7243H31.7057C31.7712 37.7243 31.7948 37.757 31.7948 37.8174V37.9602C31.8 37.9602 31.8053 37.9644 31.8092 37.9644C31.9835 37.8425 32.3136 37.6814 32.6018 37.6814C33.2384 37.6814 33.2961 38.1019 33.2961 38.5775V39.9464C33.2961 40.0028 33.2764 40.0355 33.2056 40.0355" fill="#A9A9AC"/>
<path d="M17.1718 41.8477C17.4024 41.8477 17.7849 41.8804 18.0351 41.9839C18.1111 42.018 18.1385 42.056 18.1242 42.1306L18.0823 42.3245C18.0678 42.3809 18.0443 42.4044 17.9591 42.3952C17.7286 42.3664 17.4456 42.3337 17.2006 42.3337C16.5587 42.3337 16.4644 42.8524 16.4644 43.4655C16.4644 44.0838 16.5823 44.5699 17.2006 44.5699C17.4731 44.5699 17.705 44.5411 17.9591 44.5083C18.0496 44.4988 18.0679 44.5227 18.0875 44.5843L18.1242 44.7637C18.1438 44.8384 18.12 44.8816 18.0442 44.9143C17.8137 45.0125 17.4023 45.0558 17.1718 45.0558C16.1199 45.0558 15.8984 44.2777 15.8984 43.4747C15.8984 42.669 16.0963 41.8477 17.1718 41.8477" fill="#A9A9AC"/>
<path d="M19.1936 43.1073C18.7928 43.1073 18.7024 43.3627 18.7024 43.8527C18.7024 44.3531 18.7928 44.5981 19.1884 44.5981C19.6181 44.5981 19.7032 44.357 19.7032 43.8527C19.7032 43.3523 19.6233 43.1073 19.1936 43.1073ZM19.1884 45.0514C18.2413 45.0514 18.1797 44.357 18.1797 43.8199C18.1797 43.3758 18.2779 42.6541 19.1884 42.6541C20.1041 42.6541 20.2311 43.2632 20.2311 43.8199C20.2311 44.357 20.1656 45.0514 19.1884 45.0514Z" fill="#A9A9AC"/>
<path d="M23.7972 45.0133H23.4579C23.3911 45.0133 23.3674 44.9844 23.3674 44.9242V43.584C23.3674 43.2343 23.2836 43.136 23.0465 43.136C22.8723 43.136 22.5893 43.2723 22.4439 43.3483C22.4439 43.3954 22.4481 43.4805 22.4481 43.5879V44.9242C22.4481 44.9806 22.4297 45.0133 22.359 45.0133H22.0145C21.9529 45.0133 21.9345 44.9844 21.9345 44.9242V43.5604C21.9345 43.2722 21.8585 43.136 21.6227 43.136C21.4577 43.136 21.193 43.254 21.0136 43.3483V44.9242C21.0136 44.9806 20.99 45.0133 20.9245 45.0133H20.5852C20.5236 45.0133 20.5 44.9844 20.5 44.9242V42.7954C20.5 42.7352 20.5236 42.7024 20.5852 42.7024H20.9193C20.99 42.7024 21.0136 42.739 21.0136 42.7954V42.9329L21.0188 42.9382C21.2022 42.8098 21.4616 42.6683 21.7223 42.6592C21.9948 42.6592 22.2214 42.7156 22.3681 42.9893C22.6039 42.8151 22.8961 42.6592 23.1987 42.6592C23.8209 42.6592 23.8825 43.0653 23.8825 43.5369V44.9242C23.8825 44.9806 23.8628 45.0133 23.7973 45.0133" fill="#A9A9AC"/>
<path d="M27.4925 45.0133H27.1532C27.0864 45.0133 27.0627 44.9844 27.0627 44.9242V43.584C27.0627 43.2343 26.9789 43.136 26.7418 43.136C26.5675 43.136 26.2846 43.2723 26.1392 43.3483C26.1392 43.3954 26.1434 43.4805 26.1434 43.5879V44.9242C26.1434 44.9806 26.125 45.0133 26.0543 45.0133H25.7098C25.6483 45.0133 25.6298 44.9844 25.6298 44.9242V43.5604C25.6298 43.2722 25.5538 43.136 25.318 43.136C25.153 43.136 24.8884 43.254 24.7089 43.3483V44.9242C24.7089 44.9806 24.6853 45.0133 24.6198 45.0133H24.2805C24.2189 45.0133 24.1953 44.9844 24.1953 44.9242V42.7954C24.1953 42.7352 24.2189 42.7024 24.2805 42.7024H24.6145C24.6853 42.7024 24.7089 42.739 24.7089 42.7954V42.9329L24.7141 42.9382C24.8975 42.8098 25.1569 42.6683 25.4176 42.6592C25.6901 42.6592 25.9167 42.7156 26.0634 42.9893C26.2992 42.8151 26.5913 42.6592 26.894 42.6592C27.5162 42.6592 27.5778 43.0653 27.5778 43.5369V44.9242C27.5778 44.9806 27.5581 45.0133 27.4926 45.0133" fill="#A9A9AC"/>
<path d="M28.481 44.9236C28.481 44.9747 28.4627 45.0126 28.3958 45.0126H28.0605C27.995 45.0126 27.9661 44.9851 27.9661 44.9236V42.7909C27.9661 42.7254 27.995 42.7018 28.0605 42.7018H28.3958C28.4627 42.7018 28.481 42.7397 28.481 42.7909V44.9236ZM28.2308 42.3625C27.9859 42.3625 27.9531 42.225 27.9531 42.0887C27.9531 41.9381 28.0043 41.8188 28.2308 41.8188C28.4627 41.8188 28.5099 41.9276 28.5099 42.0887C28.5099 42.2341 28.4667 42.3625 28.2308 42.3625Z" fill="#A9A9AC"/>
<path d="M29.6473 45.051C29.4115 45.051 29.0958 45.0183 28.9163 44.9476C28.822 44.9096 28.8023 44.8664 28.8167 44.7917L28.8495 44.6358C28.8639 44.5598 28.8966 44.556 28.9726 44.5651C29.1796 44.5978 29.4822 44.6215 29.642 44.6215C29.9446 44.6215 30.0677 44.5415 30.0677 44.3529C30.0677 44.1354 29.9865 44.0883 29.6892 44.0464C29.2267 43.9795 28.8219 43.8813 28.8219 43.3665C28.8219 42.9001 29.1796 42.6552 29.7088 42.6552C29.9014 42.6552 30.2276 42.6827 30.4254 42.7586C30.5053 42.7913 30.5393 42.8293 30.5249 42.9001L30.487 43.0691C30.4725 43.1359 30.4451 43.145 30.3599 43.1359C30.1569 43.1123 29.8923 43.0835 29.718 43.0835C29.4167 43.0835 29.346 43.1686 29.346 43.3481C29.346 43.5315 29.4587 43.5551 29.7469 43.6023C30.1949 43.669 30.5997 43.7582 30.5997 44.3202C30.5997 44.8717 30.1333 45.0511 29.6473 45.0511" fill="#A9A9AC"/>
<path d="M31.6239 45.051C31.3881 45.051 31.0723 45.0183 30.8929 44.9476C30.7986 44.9096 30.7789 44.8664 30.7933 44.7917L30.826 44.6358C30.8405 44.5598 30.8732 44.556 30.9492 44.5651C31.1561 44.5978 31.4587 44.6215 31.6185 44.6215C31.9212 44.6215 32.0443 44.5415 32.0443 44.3529C32.0443 44.1354 31.9631 44.0883 31.6657 44.0464C31.2033 43.9795 30.7985 43.8813 30.7985 43.3665C30.7985 42.9001 31.1561 42.6552 31.6854 42.6552C31.8779 42.6552 32.2041 42.6827 32.4019 42.7586C32.4819 42.7913 32.5159 42.8293 32.5015 42.9001L32.4636 43.0691C32.4492 43.1359 32.4216 43.145 32.3365 43.1359C32.1334 43.1123 31.8688 43.0835 31.6946 43.0835C31.3933 43.0835 31.3226 43.1686 31.3226 43.3481C31.3226 43.5315 31.4352 43.5551 31.7234 43.6023C32.1714 43.669 32.5762 43.7582 32.5762 44.3202C32.5762 44.8717 32.1099 45.0511 31.6239 45.0511" fill="#A9A9AC"/>
<path d="M33.4029 44.9236C33.4029 44.9747 33.3846 45.0126 33.3177 45.0126H32.9824C32.9169 45.0126 32.888 44.9851 32.888 44.9236V42.7909C32.888 42.7254 32.9169 42.7018 32.9824 42.7018H33.3177C33.3846 42.7018 33.4029 42.7397 33.4029 42.7909V44.9236ZM33.1527 42.3625C32.9078 42.3625 32.875 42.225 32.875 42.0887C32.875 41.9381 32.9262 41.8188 33.1527 41.8188C33.3846 41.8188 33.4317 41.9276 33.4317 42.0887C33.4317 42.2341 33.3886 42.3625 33.1527 42.3625Z" fill="#A9A9AC"/>
<path d="M34.7639 43.1073C34.3631 43.1073 34.274 43.3627 34.274 43.8527C34.274 44.3531 34.3631 44.5981 34.7587 44.5981C35.1884 44.5981 35.2735 44.357 35.2735 43.8527C35.2735 43.3523 35.1936 43.1073 34.7639 43.1073ZM34.7587 45.0514C33.8116 45.0514 33.75 44.357 33.75 43.8199C33.75 43.3758 33.8482 42.6541 34.7587 42.6541C35.6744 42.6541 35.8014 43.2632 35.8014 43.8199C35.8014 44.357 35.7359 45.0514 34.7587 45.0514Z" fill="#A9A9AC"/>
<path d="M37.9869 45.0133H37.6476C37.586 45.0133 37.5572 44.9844 37.5572 44.9242L37.5624 43.5984C37.5624 43.3194 37.4969 43.136 37.2231 43.136C37.0345 43.136 36.7044 43.2867 36.576 43.3483V44.9242C36.576 44.9805 36.5524 45.0133 36.4869 45.0133H36.1516C36.0861 45.0133 36.0625 44.9844 36.0625 44.9242V42.7954C36.0625 42.7352 36.0861 42.7023 36.1516 42.7023H36.4869C36.5524 42.7023 36.576 42.735 36.576 42.7954V42.9382C36.5812 42.9382 36.5854 42.9424 36.5905 42.9424C36.7647 42.8206 37.0961 42.6594 37.383 42.6594C38.0197 42.6594 38.0773 43.08 38.0773 43.5555V44.9244C38.0773 44.9808 38.0577 45.0135 37.9869 45.0135" fill="#A9A9AC"/>
</g>
<path d="M86.8298 22V13.5395H92.7649V14.5009H87.8553V17.2314H91.6753V18.1928H87.8553V21.0386H92.9572V22H86.8298ZM98.5551 17.8595C98.5551 17.3809 98.4269 17.0135 98.1706 16.7571C97.9142 16.4921 97.551 16.3597 97.081 16.3597C96.6366 16.3597 96.2606 16.458 95.9529 16.6545C95.6452 16.8425 95.4188 17.1502 95.2735 17.5775L94.4403 17.0647C94.6112 16.5862 94.9274 16.2016 95.3889 15.911C95.8503 15.6119 96.4229 15.4624 97.1066 15.4624C97.5681 15.4624 97.9868 15.5436 98.3629 15.7059C98.7389 15.8597 99.0337 16.099 99.2474 16.4238C99.4695 16.74 99.5806 17.1502 99.5806 17.6544V20.7566C99.5806 21.0642 99.743 21.218 100.068 21.218C100.23 21.218 100.388 21.1967 100.542 21.154L100.491 21.9615C100.32 22.047 100.098 22.0897 99.8242 22.0897C99.5764 22.0897 99.3542 22.0427 99.1576 21.9487C98.9611 21.8547 98.8072 21.7137 98.6961 21.5257C98.585 21.3291 98.5295 21.0856 98.5295 20.795V20.6668L98.7859 20.7053C98.6833 21.0386 98.5081 21.3121 98.2603 21.5257C98.0125 21.7308 97.7347 21.8846 97.4271 21.9872C97.1194 22.0812 96.816 22.1282 96.5169 22.1282C96.1409 22.1282 95.7905 22.0641 95.4658 21.9359C95.141 21.8077 94.8804 21.6154 94.6838 21.3591C94.4958 21.0941 94.4018 20.7694 94.4018 20.3848C94.4018 19.9062 94.5599 19.5131 94.8761 19.2055C95.2009 18.8893 95.6495 18.6756 96.2221 18.5645L98.7602 18.0646V18.9106L96.6964 19.3337C96.2776 19.4191 95.9657 19.5388 95.7606 19.6926C95.5555 19.8464 95.453 20.0601 95.453 20.3335C95.453 20.5985 95.5555 20.8164 95.7606 20.9873C95.9743 21.1497 96.2734 21.2309 96.6579 21.2309C96.9058 21.2309 97.1408 21.201 97.363 21.1411C97.5937 21.0728 97.7988 20.9745 97.9783 20.8463C98.1577 20.7096 98.2988 20.5429 98.4013 20.3464C98.5039 20.1413 98.5551 19.902 98.5551 19.6285V17.8595ZM102.073 22V15.5906H102.906L103.047 16.6417C103.226 16.2486 103.487 15.9538 103.829 15.7572C104.179 15.5606 104.602 15.4624 105.098 15.4624C105.209 15.4624 105.329 15.4709 105.457 15.488C105.594 15.5051 105.709 15.5393 105.803 15.5906L105.624 16.5263C105.53 16.4921 105.427 16.4665 105.316 16.4494C105.205 16.4323 105.047 16.4238 104.842 16.4238C104.577 16.4238 104.307 16.5007 104.034 16.6545C103.769 16.8083 103.547 17.0434 103.367 17.3596C103.188 17.6672 103.098 18.0603 103.098 18.5389V22H102.073ZM108.28 12.6422V20.372C108.28 20.6967 108.339 20.9232 108.459 21.0514C108.579 21.171 108.771 21.2309 109.036 21.2309C109.207 21.2309 109.348 21.218 109.459 21.1924C109.57 21.1668 109.72 21.1198 109.908 21.0514L109.741 21.9487C109.604 22.0085 109.455 22.0513 109.292 22.0769C109.13 22.1111 108.963 22.1282 108.792 22.1282C108.271 22.1282 107.882 21.9872 107.626 21.7052C107.378 21.4231 107.254 20.9916 107.254 20.4105V12.6422H108.28ZM116.167 15.5906L113.154 23.0768C112.992 23.4955 112.813 23.8246 112.616 24.0638C112.428 24.3117 112.214 24.4869 111.975 24.5894C111.744 24.7005 111.475 24.7561 111.167 24.7561C110.877 24.7561 110.608 24.7133 110.36 24.6279C110.121 24.551 109.907 24.4441 109.719 24.3074L110.001 23.4101C110.172 23.5639 110.351 23.675 110.539 23.7434C110.736 23.8203 110.928 23.8587 111.116 23.8587C111.338 23.8587 111.548 23.7904 111.744 23.6536C111.941 23.5169 112.12 23.2392 112.283 22.8204L112.616 21.9872L111.975 20.4617L109.937 15.5906H111.103L112.706 19.7695L113.103 20.9104L113.565 19.6413L115.064 15.5906H116.167ZM127.973 22H126.884L125.986 19.6541H122.153L121.256 22H120.179L123.474 13.5395H124.692L127.973 22ZM122.525 18.6927H125.615L124.063 14.5266L122.525 18.6927ZM131.888 22.1282C131.358 22.1282 130.871 21.9957 130.426 21.7308C129.982 21.4659 129.627 21.0856 129.362 20.5899C129.097 20.0857 128.965 19.4875 128.965 18.7953C128.965 18.086 129.106 17.4835 129.388 16.9878C129.67 16.4921 130.042 16.1161 130.503 15.8597C130.965 15.5948 131.46 15.4624 131.99 15.4624C132.52 15.4624 132.977 15.5991 133.362 15.8726C133.755 16.146 134.016 16.5092 134.144 16.9622L134.016 17.0519V12.6422H135.041V22H134.144L134.054 20.4489L134.195 20.372C134.135 20.748 133.99 21.0685 133.759 21.3334C133.537 21.5898 133.259 21.7864 132.926 21.9231C132.601 22.0598 132.255 22.1282 131.888 22.1282ZM131.99 21.2309C132.4 21.2309 132.755 21.1283 133.054 20.9232C133.362 20.7181 133.597 20.4275 133.759 20.0515C133.93 19.667 134.016 19.2183 134.016 18.7055C134.016 18.2184 133.93 17.7997 133.759 17.4493C133.597 17.0989 133.366 16.8297 133.067 16.6417C132.776 16.4537 132.435 16.3597 132.041 16.3597C131.392 16.3597 130.888 16.5819 130.529 17.0263C130.17 17.4707 129.99 18.0603 129.99 18.7953C129.99 19.5302 130.166 20.1199 130.516 20.5643C130.866 21.0087 131.358 21.2309 131.99 21.2309ZM140.078 15.4624C140.685 15.4624 141.219 15.5948 141.681 15.8597C142.151 16.1247 142.518 16.5092 142.783 17.0135C143.048 17.5091 143.181 18.1031 143.181 18.7953C143.181 19.4875 143.048 20.0857 142.783 20.5899C142.518 21.0856 142.151 21.4659 141.681 21.7308C141.219 21.9957 140.685 22.1282 140.078 22.1282C139.48 22.1282 138.946 21.9957 138.476 21.7308C138.006 21.4659 137.638 21.0856 137.374 20.5899C137.109 20.0857 136.976 19.4875 136.976 18.7953C136.976 18.1031 137.109 17.5091 137.374 17.0135C137.638 16.5092 138.006 16.1247 138.476 15.8597C138.946 15.5948 139.48 15.4624 140.078 15.4624ZM140.078 16.3469C139.642 16.3469 139.271 16.4451 138.963 16.6417C138.655 16.8383 138.416 17.1203 138.245 17.4877C138.083 17.8467 138.002 18.2825 138.002 18.7953C138.002 19.2995 138.083 19.7353 138.245 20.1028C138.416 20.4703 138.655 20.7523 138.963 20.9489C139.271 21.1454 139.642 21.2437 140.078 21.2437C140.514 21.2437 140.886 21.1454 141.194 20.9489C141.501 20.7523 141.736 20.4703 141.899 20.1028C142.07 19.7353 142.155 19.2995 142.155 18.7953C142.155 18.2825 142.07 17.8467 141.899 17.4877C141.736 17.1203 141.501 16.8383 141.194 16.6417C140.886 16.4451 140.514 16.3469 140.078 16.3469ZM145.111 24.692V15.5906H146.008L146.098 17.1545L145.957 16.975C146.068 16.6759 146.235 16.4152 146.457 16.193C146.679 15.9623 146.949 15.7828 147.265 15.6546C147.581 15.5265 147.923 15.4624 148.29 15.4624C148.812 15.4624 149.29 15.5948 149.726 15.8597C150.17 16.1247 150.525 16.505 150.79 17.0006C151.055 17.4963 151.187 18.0945 151.187 18.7953C151.187 19.4875 151.051 20.0857 150.777 20.5899C150.512 21.0856 150.158 21.4659 149.713 21.7308C149.269 21.9957 148.782 22.1282 148.252 22.1282C147.722 22.1282 147.256 22 146.855 21.7436C146.461 21.4787 146.179 21.1454 146.008 20.7437L146.137 20.5515V24.692H145.111ZM148.149 21.2309C148.782 21.2309 149.273 21.0087 149.623 20.5643C149.982 20.1199 150.162 19.5302 150.162 18.7953C150.162 18.0603 149.987 17.4707 149.636 17.0263C149.294 16.5819 148.812 16.3597 148.188 16.3597C147.777 16.3597 147.419 16.4622 147.111 16.6673C146.803 16.8639 146.564 17.1459 146.393 17.5134C146.222 17.8723 146.137 18.2996 146.137 18.7953C146.137 19.2824 146.218 19.7097 146.38 20.0772C146.551 20.4446 146.786 20.7309 147.085 20.936C147.393 21.1326 147.748 21.2309 148.149 21.2309ZM154.548 13.7703V20.231C154.548 20.5472 154.638 20.7822 154.817 20.936C154.997 21.0899 155.227 21.1668 155.509 21.1668C155.757 21.1668 155.971 21.124 156.15 21.0386C156.33 20.9531 156.492 20.8378 156.637 20.6925L156.996 21.5513C156.8 21.7308 156.565 21.8718 156.291 21.9744C156.026 22.0769 155.719 22.1282 155.368 22.1282C155.044 22.1282 154.74 22.0726 154.458 21.9615C154.176 21.8419 153.95 21.6582 153.779 21.4103C153.616 21.154 153.531 20.8207 153.522 20.4105V14.0523L154.548 13.7703ZM156.881 15.5906V16.4751H152.241V15.5906H156.881ZM161.085 22.1282C160.478 22.1282 159.935 21.9957 159.457 21.7308C158.987 21.4659 158.619 21.0856 158.354 20.5899C158.09 20.0857 157.957 19.4875 157.957 18.7953C157.957 18.1031 158.09 17.5091 158.354 17.0135C158.619 16.5092 158.983 16.1247 159.444 15.8597C159.906 15.5948 160.431 15.4624 161.021 15.4624C161.619 15.4624 162.128 15.5906 162.546 15.8469C162.974 16.1033 163.298 16.4537 163.52 16.8981C163.743 17.3339 163.854 17.8253 163.854 18.3723C163.854 18.5175 163.85 18.65 163.841 18.7696C163.832 18.8893 163.82 18.9961 163.803 19.0901H158.624V18.18H163.354L162.828 18.2825C162.828 17.6672 162.657 17.1929 162.316 16.8596C161.982 16.5263 161.542 16.3597 160.995 16.3597C160.576 16.3597 160.213 16.458 159.906 16.6545C159.606 16.8425 159.371 17.1203 159.201 17.4877C159.038 17.8467 158.957 18.2825 158.957 18.7953C158.957 19.2995 159.042 19.7353 159.213 20.1028C159.384 20.4703 159.624 20.7523 159.931 20.9489C160.247 21.1369 160.623 21.2309 161.059 21.2309C161.529 21.2309 161.91 21.1411 162.2 20.9617C162.499 20.7822 162.739 20.5386 162.918 20.231L163.726 20.7053C163.563 20.9959 163.354 21.248 163.097 21.4616C162.85 21.6753 162.555 21.8419 162.213 21.9615C161.88 22.0726 161.504 22.1282 161.085 22.1282ZM165.804 22V15.5906H166.637L166.778 16.6417C166.958 16.2486 167.219 15.9538 167.56 15.7572C167.911 15.5606 168.334 15.4624 168.829 15.4624C168.941 15.4624 169.06 15.4709 169.188 15.488C169.325 15.5051 169.44 15.5393 169.534 15.5906L169.355 16.5263C169.261 16.4921 169.158 16.4665 169.047 16.4494C168.936 16.4323 168.778 16.4238 168.573 16.4238C168.308 16.4238 168.039 16.5007 167.765 16.6545C167.501 16.8083 167.278 17.0434 167.099 17.3596C166.919 17.6672 166.83 18.0603 166.83 18.5389V22H165.804ZM173.069 22.1282C172.445 22.1282 171.868 21.9957 171.338 21.7308C170.817 21.4659 170.415 21.0899 170.133 20.6027L171.005 19.9746C171.193 20.3677 171.466 20.6754 171.825 20.8976C172.193 21.1198 172.633 21.2309 173.146 21.2309C173.599 21.2309 173.953 21.1454 174.21 20.9745C174.466 20.795 174.594 20.5643 174.594 20.2823C174.594 20.1028 174.534 19.9404 174.415 19.7952C174.304 19.6413 174.086 19.5302 173.761 19.4619L172.223 19.1414C171.599 19.0132 171.15 18.7995 170.877 18.5004C170.612 18.2013 170.479 17.8296 170.479 17.3852C170.479 17.0348 170.578 16.7143 170.774 16.4238C170.979 16.1332 171.266 15.9025 171.633 15.7316C172.009 15.5521 172.449 15.4624 172.953 15.4624C173.586 15.4624 174.12 15.5863 174.556 15.8341C174.992 16.0819 175.316 16.4323 175.53 16.8853L174.671 17.4493C174.526 17.0733 174.291 16.7998 173.966 16.6289C173.641 16.4494 173.304 16.3597 172.953 16.3597C172.646 16.3597 172.381 16.4024 172.159 16.4879C171.945 16.5733 171.778 16.693 171.659 16.8468C171.548 16.9921 171.492 17.1587 171.492 17.3467C171.492 17.5348 171.556 17.7099 171.684 17.8723C171.813 18.0261 172.052 18.1372 172.402 18.2056L174.005 18.5389C174.603 18.6585 175.022 18.8551 175.261 19.1286C175.5 19.402 175.62 19.7353 175.62 20.1284C175.62 20.5301 175.513 20.8848 175.299 21.1924C175.086 21.4915 174.787 21.7223 174.402 21.8846C174.017 22.047 173.573 22.1282 173.069 22.1282ZM89.8166 28.5395C90.3891 28.5395 90.8848 28.6464 91.3035 28.86C91.7308 29.0651 92.0641 29.3599 92.3034 29.7445C92.5427 30.1291 92.6623 30.5863 92.6623 31.1161C92.6623 31.646 92.5427 32.1032 92.3034 32.4877C92.0641 32.8723 91.7308 33.1714 91.3035 33.3851C90.8848 33.5902 90.3891 33.6927 89.8166 33.6927H87.8553V37H86.8298V28.5395H89.8166ZM89.6627 32.7313C90.3293 32.7313 90.8164 32.5946 91.1241 32.3211C91.4317 32.0391 91.5856 31.6374 91.5856 31.1161C91.5856 30.5863 91.4317 30.1846 91.1241 29.9112C90.8164 29.6377 90.3293 29.5009 89.6627 29.5009H87.8553V32.7313H89.6627ZM94.4615 37V30.5906H95.2947L95.4357 31.6417C95.6152 31.2486 95.8759 30.9538 96.2177 30.7572C96.5681 30.5606 96.9911 30.4624 97.4868 30.4624C97.5979 30.4624 97.7175 30.4709 97.8457 30.488C97.9824 30.5051 98.0978 30.5393 98.1918 30.5906L98.0123 31.5263C97.9183 31.4921 97.8158 31.4665 97.7047 31.4494C97.5936 31.4323 97.4355 31.4238 97.2304 31.4238C96.9655 31.4238 96.6963 31.5007 96.4228 31.6545C96.1579 31.8083 95.9357 32.0434 95.7562 32.3596C95.5767 32.6672 95.487 33.0603 95.487 33.5389V37H94.4615ZM102.147 30.4624C102.754 30.4624 103.288 30.5948 103.75 30.8597C104.22 31.1247 104.587 31.5092 104.852 32.0135C105.117 32.5091 105.25 33.1031 105.25 33.7953C105.25 34.4875 105.117 35.0857 104.852 35.5899C104.587 36.0856 104.22 36.4659 103.75 36.7308C103.288 36.9957 102.754 37.1282 102.147 37.1282C101.549 37.1282 101.015 36.9957 100.545 36.7308C100.075 36.4659 99.7076 36.0856 99.4426 35.5899C99.1777 35.0857 99.0453 34.4875 99.0453 33.7953C99.0453 33.1031 99.1777 32.5091 99.4426 32.0135C99.7076 31.5092 100.075 31.1247 100.545 30.8597C101.015 30.5948 101.549 30.4624 102.147 30.4624ZM102.147 31.3469C101.712 31.3469 101.34 31.4451 101.032 31.6417C100.725 31.8383 100.485 32.1203 100.314 32.4877C100.152 32.8467 100.071 33.2825 100.071 33.7953C100.071 34.2995 100.152 34.7353 100.314 35.1028C100.485 35.4703 100.725 35.7523 101.032 35.9489C101.34 36.1454 101.712 36.2437 102.147 36.2437C102.583 36.2437 102.955 36.1454 103.263 35.9489C103.57 35.7523 103.805 35.4703 103.968 35.1028C104.139 34.7353 104.224 34.2995 104.224 33.7953C104.224 33.2825 104.139 32.8467 103.968 32.4877C103.805 32.1203 103.57 31.8383 103.263 31.6417C102.955 31.4451 102.583 31.3469 102.147 31.3469ZM112.577 29.4112L112.808 30.3214C112.799 30.3214 112.786 30.3214 112.769 30.3214C112.752 30.3214 112.735 30.3214 112.718 30.3214C112.299 30.3214 111.975 30.4068 111.744 30.5777C111.522 30.7401 111.41 31.005 111.41 31.3725L110.782 31.052C110.782 30.7187 110.859 30.4282 111.013 30.1803C111.167 29.9325 111.376 29.7445 111.641 29.6163C111.906 29.4796 112.197 29.4112 112.513 29.4112C112.521 29.4112 112.53 29.4112 112.539 29.4112C112.556 29.4112 112.568 29.4112 112.577 29.4112ZM110.629 36.1796C111.235 36.1796 111.71 36.3206 112.051 36.6026C112.393 36.8761 112.564 37.2436 112.564 37.705C112.564 38.1238 112.423 38.487 112.141 38.7946C111.868 39.1023 111.496 39.3373 111.026 39.4997C110.564 39.6706 110.043 39.7561 109.462 39.7561C108.454 39.7561 107.697 39.5851 107.193 39.2433C106.697 38.9015 106.45 38.4913 106.45 38.0127C106.45 37.6709 106.561 37.3632 106.783 37.0897C107.014 36.8248 107.398 36.6753 107.937 36.6411L107.847 36.8334C107.556 36.7564 107.308 36.6283 107.103 36.4488C106.907 36.2608 106.808 35.9916 106.808 35.6412C106.808 35.2908 106.937 34.9917 107.193 34.7439C107.458 34.4875 107.847 34.3294 108.36 34.2696L109.039 34.6157H108.911C108.492 34.6584 108.193 34.7652 108.013 34.9362C107.843 35.0985 107.757 35.278 107.757 35.4746C107.757 35.7138 107.843 35.8933 108.013 36.0129C108.193 36.124 108.441 36.1796 108.757 36.1796H110.629ZM109.449 38.8972C109.945 38.8972 110.351 38.8459 110.667 38.7434C110.992 38.6408 111.231 38.5084 111.385 38.346C111.539 38.1836 111.616 38.0084 111.616 37.8204C111.616 37.5897 111.522 37.4059 111.334 37.2692C111.154 37.1325 110.825 37.0641 110.347 37.0641H108.372C108.099 37.0641 107.868 37.1325 107.68 37.2692C107.492 37.4145 107.398 37.611 107.398 37.8589C107.398 38.1751 107.578 38.4272 107.937 38.6152C108.304 38.8032 108.808 38.8972 109.449 38.8972ZM109.359 30.4624C109.872 30.4624 110.325 30.5564 110.718 30.7444C111.12 30.9238 111.432 31.1759 111.654 31.5007C111.876 31.8254 111.987 32.2015 111.987 32.6288C111.987 33.0475 111.876 33.4235 111.654 33.7568C111.432 34.0816 111.12 34.3379 110.718 34.526C110.325 34.7054 109.872 34.7952 109.359 34.7952C108.513 34.7952 107.864 34.5943 107.411 34.1927C106.958 33.7825 106.732 33.2612 106.732 32.6288C106.732 32.2015 106.843 31.8254 107.065 31.5007C107.296 31.1759 107.608 30.9238 108.001 30.7444C108.394 30.5564 108.847 30.4624 109.359 30.4624ZM109.359 31.2956C108.915 31.2956 108.543 31.4195 108.244 31.6673C107.945 31.9066 107.796 32.2271 107.796 32.6288C107.796 33.0219 107.945 33.3423 108.244 33.5902C108.543 33.838 108.915 33.9619 109.359 33.9619C109.804 33.9619 110.176 33.838 110.475 33.5902C110.774 33.3423 110.923 33.0219 110.923 32.6288C110.923 32.2271 110.774 31.9066 110.475 31.6673C110.176 31.4195 109.804 31.2956 109.359 31.2956ZM114.003 37V30.5906H114.836L114.977 31.6417C115.157 31.2486 115.417 30.9538 115.759 30.7572C116.109 30.5606 116.532 30.4624 117.028 30.4624C117.139 30.4624 117.259 30.4709 117.387 30.488C117.524 30.5051 117.639 30.5393 117.733 30.5906L117.554 31.5263C117.46 31.4921 117.357 31.4665 117.246 31.4494C117.135 31.4323 116.977 31.4238 116.772 31.4238C116.507 31.4238 116.238 31.5007 115.964 31.6545C115.699 31.8083 115.477 32.0434 115.298 32.3596C115.118 32.6672 115.028 33.0603 115.028 33.5389V37H114.003ZM122.803 32.8595C122.803 32.3809 122.675 32.0135 122.419 31.7571C122.162 31.4921 121.799 31.3597 121.329 31.3597C120.885 31.3597 120.509 31.458 120.201 31.6545C119.893 31.8425 119.667 32.1502 119.522 32.5775L118.689 32.0647C118.859 31.5862 119.176 31.2016 119.637 30.911C120.099 30.6119 120.671 30.4624 121.355 30.4624C121.816 30.4624 122.235 30.5436 122.611 30.7059C122.987 30.8597 123.282 31.099 123.496 31.4238C123.718 31.74 123.829 32.1502 123.829 32.6544V35.7566C123.829 36.0642 123.991 36.218 124.316 36.218C124.478 36.218 124.636 36.1967 124.79 36.154L124.739 36.9615C124.568 37.047 124.346 37.0897 124.072 37.0897C123.825 37.0897 123.602 37.0427 123.406 36.9487C123.209 36.8547 123.055 36.7137 122.944 36.5257C122.833 36.3291 122.778 36.0856 122.778 35.795V35.6668L123.034 35.7053C122.932 36.0386 122.756 36.3121 122.509 36.5257C122.261 36.7308 121.983 36.8846 121.675 36.9872C121.368 37.0812 121.064 37.1282 120.765 37.1282C120.389 37.1282 120.039 37.0641 119.714 36.9359C119.389 36.8077 119.129 36.6154 118.932 36.3591C118.744 36.0941 118.65 35.7694 118.65 35.3848C118.65 34.9062 118.808 34.5131 119.124 34.2055C119.449 33.8893 119.898 33.6756 120.47 33.5645L123.008 33.0646V33.9106L120.945 34.3337C120.526 34.4191 120.214 34.5388 120.009 34.6926C119.804 34.8464 119.701 35.0601 119.701 35.3335C119.701 35.5985 119.804 35.8164 120.009 35.9873C120.223 36.1497 120.522 36.2309 120.906 36.2309C121.154 36.2309 121.389 36.201 121.611 36.1411C121.842 36.0728 122.047 35.9745 122.227 35.8463C122.406 35.7096 122.547 35.5429 122.65 35.3464C122.752 35.1413 122.803 34.902 122.803 34.6285V32.8595ZM126.321 37V30.5906H127.218L127.282 31.5904C127.513 31.1973 127.812 30.911 128.18 30.7316C128.556 30.5521 128.94 30.4624 129.333 30.4624C129.786 30.4624 130.214 30.5649 130.615 30.77C131.017 30.9751 131.325 31.2913 131.538 31.7186C131.675 31.4281 131.867 31.193 132.115 31.0136C132.363 30.8256 132.632 30.6888 132.923 30.6034C133.222 30.5094 133.504 30.4624 133.769 30.4624C134.179 30.4624 134.568 30.5478 134.935 30.7187C135.311 30.8897 135.619 31.1546 135.858 31.5135C136.097 31.8724 136.217 32.3339 136.217 32.898V37H135.192V33.0005C135.192 32.4194 135.046 32.0006 134.756 31.7443C134.465 31.4879 134.106 31.3597 133.679 31.3597C133.346 31.3597 133.034 31.4409 132.743 31.6032C132.453 31.7656 132.218 32.0049 132.038 32.3211C131.867 32.6373 131.782 33.0261 131.782 33.4876V37H130.756V33.0005C130.756 32.4194 130.611 32.0006 130.32 31.7443C130.03 31.4879 129.671 31.3597 129.244 31.3597C128.962 31.3597 128.671 31.4366 128.372 31.5904C128.081 31.7357 127.838 31.9707 127.641 32.2955C127.445 32.6202 127.346 33.0475 127.346 33.5774V37H126.321ZM147.1 33.1159V34.1798H142.869V33.1159H147.1ZM156.721 28.4113C157.465 28.4113 158.106 28.5652 158.644 28.8728C159.183 29.1719 159.631 29.6163 159.99 30.206L159.131 30.8726C158.815 30.3256 158.456 29.9411 158.055 29.7189C157.661 29.4881 157.183 29.3728 156.619 29.3728C156.166 29.3728 155.79 29.4369 155.491 29.565C155.2 29.6932 154.987 29.8641 154.85 30.0778C154.713 30.2829 154.645 30.5179 154.645 30.7828C154.645 31.0819 154.739 31.3469 154.927 31.5776C155.115 31.7998 155.491 31.975 156.055 32.1032L157.888 32.5134C158.7 32.6929 159.264 32.9663 159.58 33.3338C159.905 33.6927 160.067 34.1414 160.067 34.6798C160.067 35.1584 159.93 35.5856 159.657 35.9617C159.392 36.3291 159.016 36.6154 158.529 36.8205C158.042 37.0256 157.469 37.1282 156.811 37.1282C156.196 37.1282 155.653 37.047 155.183 36.8846C154.722 36.7137 154.324 36.4872 153.991 36.2052C153.658 35.9232 153.384 35.607 153.171 35.2566L154.068 34.526C154.23 34.8507 154.44 35.137 154.696 35.3848C154.952 35.6327 155.26 35.8249 155.619 35.9617C155.986 36.0984 156.405 36.1668 156.875 36.1668C157.311 36.1668 157.687 36.1155 158.003 36.0129C158.328 35.9018 158.576 35.7437 158.747 35.5386C158.918 35.325 159.003 35.0686 159.003 34.7695C159.003 34.496 158.913 34.2525 158.734 34.0388C158.554 33.8166 158.217 33.65 157.721 33.5389L155.734 33.0902C155.213 32.9706 154.79 32.8082 154.465 32.6031C154.149 32.3895 153.918 32.1416 153.773 31.8596C153.636 31.5691 153.568 31.2571 153.568 30.9238C153.568 30.4709 153.692 30.0564 153.94 29.6804C154.196 29.2958 154.559 28.9882 155.029 28.7575C155.508 28.5267 156.072 28.4113 156.721 28.4113ZM161.961 39.692V30.5906H162.858L162.948 32.1545L162.807 31.975C162.918 31.6759 163.085 31.4152 163.307 31.193C163.529 30.9623 163.798 30.7828 164.115 30.6546C164.431 30.5265 164.773 30.4624 165.14 30.4624C165.661 30.4624 166.14 30.5948 166.576 30.8597C167.02 31.1247 167.375 31.505 167.64 32.0006C167.905 32.4963 168.037 33.0945 168.037 33.7953C168.037 34.4875 167.9 35.0857 167.627 35.5899C167.362 36.0856 167.007 36.4659 166.563 36.7308C166.119 36.9957 165.631 37.1282 165.102 37.1282C164.572 37.1282 164.106 37 163.704 36.7436C163.311 36.4787 163.029 36.1454 162.858 35.7437L162.986 35.5515V39.692H161.961ZM164.999 36.2309C165.631 36.2309 166.123 36.0087 166.473 35.5643C166.832 35.1199 167.012 34.5302 167.012 33.7953C167.012 33.0603 166.836 32.4707 166.486 32.0263C166.144 31.5819 165.661 31.3597 165.038 31.3597C164.627 31.3597 164.268 31.4622 163.961 31.6673C163.653 31.8639 163.414 32.1459 163.243 32.5134C163.072 32.8723 162.986 33.2996 162.986 33.7953C162.986 34.2824 163.068 34.7097 163.23 35.0772C163.401 35.4446 163.636 35.7309 163.935 35.936C164.243 36.1326 164.597 36.2309 164.999 36.2309ZM173.741 32.8595C173.741 32.3809 173.613 32.0135 173.356 31.7571C173.1 31.4921 172.737 31.3597 172.267 31.3597C171.822 31.3597 171.446 31.458 171.139 31.6545C170.831 31.8425 170.605 32.1502 170.459 32.5775L169.626 32.0647C169.797 31.5862 170.113 31.2016 170.575 30.911C171.036 30.6119 171.609 30.4624 172.292 30.4624C172.754 30.4624 173.173 30.5436 173.549 30.7059C173.925 30.8597 174.22 31.099 174.433 31.4238C174.655 31.74 174.766 32.1502 174.766 32.6544V35.7566C174.766 36.0642 174.929 36.218 175.254 36.218C175.416 36.218 175.574 36.1967 175.728 36.154L175.677 36.9615C175.506 37.047 175.283 37.0897 175.01 37.0897C174.762 37.0897 174.54 37.0427 174.343 36.9487C174.147 36.8547 173.993 36.7137 173.882 36.5257C173.771 36.3291 173.715 36.0856 173.715 35.795V35.6668L173.972 35.7053C173.869 36.0386 173.694 36.3121 173.446 36.5257C173.198 36.7308 172.921 36.8846 172.613 36.9872C172.305 37.0812 172.002 37.1282 171.703 37.1282C171.327 37.1282 170.976 37.0641 170.652 36.9359C170.327 36.8077 170.066 36.6154 169.87 36.3591C169.682 36.0941 169.588 35.7694 169.588 35.3848C169.588 34.9062 169.746 34.5131 170.062 34.2055C170.387 33.8893 170.835 33.6756 171.408 33.5645L173.946 33.0646V33.9106L171.882 34.3337C171.463 34.4191 171.152 34.5388 170.946 34.6926C170.741 34.8464 170.639 35.0601 170.639 35.3335C170.639 35.5985 170.741 35.8164 170.946 35.9873C171.16 36.1497 171.459 36.2309 171.844 36.2309C172.092 36.2309 172.327 36.201 172.549 36.1411C172.78 36.0728 172.985 35.9745 173.164 35.8463C173.344 35.7096 173.485 35.5429 173.587 35.3464C173.69 35.1413 173.741 34.902 173.741 34.6285V32.8595ZM177.771 29.3599C177.541 29.3599 177.353 29.2916 177.207 29.1548C177.071 29.0096 177.002 28.8215 177.002 28.5908C177.002 28.3601 177.071 28.1763 177.207 28.0396C177.353 27.8943 177.541 27.8217 177.771 27.8217C178.002 27.8217 178.186 27.8943 178.323 28.0396C178.468 28.1763 178.54 28.3601 178.54 28.5908C178.54 28.8215 178.468 29.0096 178.323 29.1548C178.186 29.2916 178.002 29.3599 177.771 29.3599ZM178.284 30.5906V37H177.259V30.5906H178.284ZM180.664 37V30.5906H181.561L181.651 32.0263L181.484 31.8853C181.621 31.5434 181.804 31.27 182.035 31.0649C182.266 30.8512 182.531 30.6974 182.83 30.6034C183.138 30.5094 183.454 30.4624 183.779 30.4624C184.24 30.4624 184.659 30.5521 185.035 30.7316C185.411 30.9025 185.71 31.1674 185.932 31.5263C186.163 31.8853 186.278 32.3425 186.278 32.898V37H185.253V33.2569C185.253 32.5476 185.099 32.0562 184.791 31.7827C184.492 31.5007 184.12 31.3597 183.676 31.3597C183.368 31.3597 183.061 31.4323 182.753 31.5776C182.445 31.7229 182.189 31.9579 181.984 32.2826C181.787 32.6074 181.689 33.0432 181.689 33.5902V37H180.664Z" fill="#A9A9AC"/>
<defs>
<clipPath id="clip0_6385_58634">
<rect width="69.4252" height="48.0709" fill="white" transform="translate(0 0.9646)"/>
</clipPath>
</defs>
</svg>
