<svg width="200" height="36" viewBox="0 0 200 36" fill="none" xmlns="http://www.w3.org/2000/svg">
<g clip-path="url(#clip0_4737_36491)">
<path d="M37.8989 0.203125H37.2656V35.8641H37.8989V0.203125Z" fill="#707074"/>
<path d="M71.9851 4.56836H75.4512V30.3642H71.7518V10.3008L63.8198 20.2658H63.1199L55.1213 10.3008V30.3642H51.4219V4.56836H54.9213L63.4865 15.1667L71.9851 4.56836Z" fill="#707074"/>
<path d="M91.1195 4.43555H93.7191L105.284 30.3647H101.518L98.085 22.7326H87.0868L83.8541 30.3647H80.0547L91.1195 4.43555ZM96.5519 19.4331L92.386 10.1013L88.5199 19.4331H96.5519Z" fill="#707074"/>
<path d="M110.016 30.2985V4.56934H118.714C122.214 4.56934 124.98 5.10258 127.046 6.13575C129.079 7.20225 130.712 8.73533 131.912 10.7683C133.112 12.8013 133.712 15.0343 133.712 17.4339C133.712 19.167 133.378 20.8001 132.712 22.3665C132.045 23.9329 131.112 25.3327 129.879 26.5325C128.613 27.7656 127.179 28.6988 125.513 29.332C124.547 29.6986 123.647 29.9653 122.847 30.0986C122.047 30.2319 120.481 30.2985 118.181 30.2985H110.016ZM118.314 7.86881H113.715V27.0324H118.448C120.281 27.0324 121.714 26.8991 122.747 26.6658C123.78 26.3992 124.613 26.0992 125.313 25.6993C126.013 25.2993 126.613 24.8328 127.179 24.2662C129.012 22.4331 129.912 20.1002 129.912 17.2673C129.912 14.4344 128.979 12.2348 127.113 10.5017C126.413 9.83516 125.646 9.30191 124.746 8.90197C123.847 8.46871 123.013 8.20209 122.214 8.06877C121.38 7.93546 120.114 7.86881 118.314 7.86881Z" fill="#707074"/>
<path d="M140.344 30.3319V4.56934H146.809C149.409 4.56934 151.475 5.20257 153.008 6.50236C154.541 7.80215 155.308 9.53521 155.308 11.7349C155.308 13.2346 154.941 14.5344 154.175 15.6342C153.408 16.7341 152.342 17.5339 150.942 18.1005C151.775 18.6337 152.575 19.367 153.375 20.3001C154.175 21.2333 155.275 22.8664 156.708 25.1994C157.608 26.6658 158.341 27.7656 158.874 28.4988L160.24 30.3319H155.841L154.708 28.6321C154.675 28.5655 154.608 28.4655 154.508 28.3322L153.775 27.3323L152.642 25.4327L151.409 23.433C150.642 22.3665 149.942 21.5333 149.309 20.9C148.676 20.2668 148.109 19.8336 147.576 19.5336C147.076 19.267 146.209 19.1337 145.01 19.1337H144.043V30.3652H140.344V30.3319ZM145.143 7.70217H144.043V15.8342H145.443C147.309 15.8342 148.609 15.6676 149.276 15.3676C149.975 15.0343 150.509 14.5677 150.909 13.9345C151.309 13.3013 151.475 12.5681 151.475 11.7349C151.475 10.9017 151.242 10.2018 150.842 9.53521C150.409 8.86865 149.809 8.40205 149.009 8.13543C148.209 7.86881 146.943 7.70217 145.143 7.70217Z" fill="#707074"/>
<path d="M168.676 4.56836H164.977V30.3309H168.676V4.56836Z" fill="#707074"/>
<path d="M176.305 30.2976V4.56836H185.003C188.503 4.56836 191.269 5.10161 193.335 6.13477C195.368 7.20127 197.001 8.73436 198.201 10.7674C199.401 12.8004 200.001 15.0333 200.001 17.433C200.001 19.166 199.667 20.7991 199.001 22.3655C198.334 23.9319 197.401 25.3317 196.168 26.5315C194.902 27.7646 193.468 28.6978 191.802 29.3311C190.836 29.6977 189.936 29.9643 189.136 30.0976C188.303 30.2309 186.77 30.2976 184.47 30.2976H176.305ZM184.603 7.86783H180.004V27.0314H184.737C186.57 27.0314 188.003 26.8981 189.036 26.6648C190.069 26.3982 190.902 26.0982 191.602 25.6983C192.269 25.2984 192.902 24.8318 193.468 24.2652C195.302 22.4322 196.201 20.0992 196.201 17.2663C196.201 14.4334 195.268 12.2338 193.402 10.5007C192.702 9.83418 191.935 9.30093 191.036 8.901C190.136 8.46773 189.303 8.20111 188.503 8.0678C187.669 7.93449 186.37 7.86783 184.603 7.86783Z" fill="#707074"/>
<path d="M23.5995 5.93457H2.20304C1.93642 5.93457 1.70312 6.16787 1.70312 6.43449C1.70312 6.70111 1.93642 6.93441 2.20304 6.93441H23.5995C23.8661 6.93441 24.0994 6.70111 24.0994 6.43449C24.0994 6.13454 23.8661 5.93457 23.5995 5.93457Z" fill="#707074"/>
<path d="M23.5995 8.46777H2.20304C1.93642 8.46777 1.70312 8.70107 1.70312 8.96769C1.70312 9.23432 1.93642 9.46761 2.20304 9.46761H23.5995C23.8661 9.46761 24.0994 9.23432 24.0994 8.96769C24.0994 8.66774 23.8661 8.46777 23.5995 8.46777Z" fill="#707074"/>
<path d="M2.20304 8.20101H3.30286C3.56948 8.20101 3.80278 7.96772 3.80278 7.70109C3.80278 7.43447 3.56948 7.20117 3.30286 7.20117H2.20304C1.93642 7.20117 1.70312 7.43447 1.70312 7.70109C1.70312 7.96772 1.93642 8.20101 2.20304 8.20101Z" fill="#707074"/>
<path d="M23.5997 7.20117H22.4999C22.2333 7.20117 22 7.43447 22 7.70109C22 7.96772 22.2333 8.20101 22.4999 8.20101H23.5997C23.8664 8.20101 24.0997 7.96772 24.0997 7.70109C24.0997 7.40114 23.8664 7.20117 23.5997 7.20117Z" fill="#707074"/>
<path d="M13.9985 8.20101C14.2651 8.20101 14.4984 7.96772 14.4984 7.70109C14.4984 7.43447 14.2651 7.20117 13.9985 7.20117H11.7655C11.4989 7.20117 11.2656 7.43447 11.2656 7.70109C11.2656 7.96772 11.4989 8.20101 11.7655 8.20101H13.9985Z" fill="#707074"/>
<path d="M5.89844 7.66814L7.56483 8.23471L9.19789 7.66814L7.56483 7.10156L5.89844 7.66814Z" fill="#707074"/>
<path d="M16.5938 7.66814L18.2268 8.23471L19.8932 7.66814L18.2268 7.10156L16.5938 7.66814Z" fill="#707074"/>
<path d="M21.4571 7.6685C21.4571 7.36855 21.2238 7.13525 20.9239 7.13525C20.6239 7.13525 20.3906 7.36855 20.3906 7.6685C20.3906 7.96845 20.6239 8.20175 20.9239 8.20175C21.2238 8.20175 21.4571 7.96845 21.4571 7.6685Z" fill="#707074"/>
<path d="M16.0977 7.6685C16.0977 7.36855 15.8644 7.13525 15.5645 7.13525C15.2645 7.13525 15.0312 7.36855 15.0312 7.6685C15.0312 7.96845 15.2645 8.20175 15.5645 8.20175C15.8644 8.20175 16.0977 7.96845 16.0977 7.6685Z" fill="#707074"/>
<path d="M10.7696 7.6685C10.7696 7.36855 10.5363 7.13525 10.2364 7.13525C9.93642 7.13525 9.70312 7.36855 9.70312 7.6685C9.70312 7.96845 9.93642 8.20175 10.2364 8.20175C10.5363 8.20175 10.7696 7.96845 10.7696 7.6685Z" fill="#707074"/>
<path d="M5.40243 7.6685C5.40243 7.36855 5.16913 7.13525 4.86918 7.13525C4.56923 7.13525 4.33594 7.36855 4.33594 7.6685C4.33594 7.96845 4.56923 8.20175 4.86918 8.20175C5.16913 8.20175 5.40243 7.96845 5.40243 7.6685Z" fill="#707074"/>
<path d="M24.6626 0.203375C23.8294 0.203375 23.3294 0.903262 23.1961 1.13656C23.1295 1.13656 22.8962 1.0699 22.7962 1.0699C22.4629 1.0699 22.2963 1.10323 22.1963 1.16989C22.4296 1.3032 22.6962 1.50317 22.7629 2.00309C22.263 1.93643 22.063 1.66981 21.9297 1.46984C21.863 1.56982 21.8297 1.76979 21.8297 2.06974V2.26971C21.4631 2.30304 21.1298 2.50301 20.9632 2.70297C21.0965 2.90294 21.4631 3.10291 21.8297 3.13624V3.33621C21.8297 3.63616 21.863 3.83612 21.9297 3.93611C22.0963 3.70281 22.3296 3.36953 22.9628 3.36953H23.0628V3.50285C23.0628 4.03609 22.7962 4.56934 22.1296 4.56934C21.6964 4.56934 21.4631 4.23606 21.3298 4.03609C21.3964 3.93611 21.4631 3.8028 21.4631 3.66949C21.4631 3.33621 21.1965 3.03625 20.8299 3.03625C20.4966 3.03625 20.1966 3.30288 20.1966 3.66949C20.1966 3.8028 20.23 3.93611 20.2966 4.03609C20.1966 4.23606 19.9633 4.56934 19.4968 4.56934C18.8302 4.56934 18.5636 4.06942 18.5636 3.50285V3.36953H18.6636C19.2968 3.36953 19.5301 3.70281 19.6967 3.93611C19.7634 3.83612 19.7967 3.63616 19.7967 3.33621V3.13624C20.1633 3.10291 20.4966 2.90294 20.6632 2.70297C20.5299 2.50301 20.1633 2.26971 19.7967 2.26971V2.06974C19.7967 1.73646 19.7634 1.56982 19.6967 1.46984C19.5634 1.66981 19.3634 1.96976 18.8635 2.00309C18.9302 1.50317 19.1968 1.3032 19.4301 1.16989C19.3301 1.10323 19.1301 1.0699 18.8302 1.0699H18.5969C18.5636 0.703294 18.3636 0.370015 18.1636 0.203375C17.9637 0.336687 17.7637 0.703294 17.7304 1.0699H17.5304C17.1971 1.0699 17.0305 1.10323 16.9305 1.16989C17.1638 1.3032 17.4304 1.50317 17.4971 2.00309C17.0305 1.93643 16.7972 1.66981 16.6639 1.46984C16.5972 1.56982 16.5639 1.76979 16.5639 2.06974V2.26971C16.1973 2.30304 15.864 2.50301 15.6974 2.70297C15.8307 2.90294 16.1973 3.10291 16.5639 3.13624V3.33621C16.5639 3.63616 16.5972 3.83612 16.6639 3.93611C16.8305 3.70281 17.0638 3.36953 17.6971 3.36953H17.797V3.50285C17.797 4.03609 17.5304 4.56934 16.8639 4.56934C16.4306 4.56934 16.164 4.23606 16.064 4.03609C16.1306 3.93611 16.164 3.8028 16.164 3.66949C16.164 3.33621 15.8974 3.03625 15.5307 3.03625H15.3974C15.1308 3.10291 14.8975 3.33621 14.8975 3.63616C14.8975 3.76947 14.9308 3.90278 15.0308 4.00277C14.9308 4.20273 14.6976 4.53601 14.231 4.53601C13.5644 4.53601 13.2978 4.03609 13.2978 3.46952V3.33621H13.3978C14.031 3.33621 14.2643 3.66949 14.4309 3.90278C14.4976 3.8028 14.5309 3.60283 14.5309 3.30288V3.10291C14.8975 3.06958 15.2308 2.86961 15.3974 2.66965C15.2641 2.46968 14.8975 2.23638 14.5309 2.23638V2.03641C14.5309 1.70313 14.4976 1.53649 14.4309 1.43651C14.2976 1.63648 14.0977 1.93643 13.5977 1.96976C13.6644 1.46984 13.931 1.26987 14.1643 1.13656C14.0643 1.0699 13.8644 1.03657 13.5644 1.03657H13.3644C13.3311 0.669967 13.1311 0.336687 12.9312 0.170047C12.7312 0.303359 12.4979 0.669967 12.4646 1.03657H12.2313C11.9313 1.03657 11.7314 1.0699 11.6314 1.13656C11.8647 1.26987 12.1313 1.46984 12.1646 1.96976C11.6647 1.9031 11.4648 1.63648 11.3314 1.43651C11.2648 1.53649 11.2315 1.73646 11.2315 2.03641V2.23638C10.8649 2.26971 10.5316 2.46968 10.3649 2.66965C10.4983 2.86961 10.8649 3.06958 11.2315 3.10291V3.30288C11.2315 3.60283 11.2648 3.8028 11.3314 3.90278C11.4981 3.66949 11.7314 3.33621 12.3646 3.33621H12.4646V3.46952C12.4646 4.00276 12.198 4.53601 11.5314 4.53601C11.0982 4.53601 10.8315 4.20273 10.7315 4.00277C10.7982 3.90278 10.8315 3.76947 10.8315 3.63616C10.8315 3.30288 10.5649 3.00293 10.1983 3.00293C9.86502 3.00293 9.56507 3.26955 9.56507 3.63616C9.56507 3.76947 9.5984 3.90278 9.66506 4.00277C9.56507 4.20273 9.33178 4.53601 8.89852 4.53601C8.23196 4.53601 7.96534 4.03609 7.96534 3.46952V3.33621H8.06532C8.69855 3.33621 8.93185 3.66949 9.09848 3.90278C9.16514 3.8028 9.19847 3.60283 9.19847 3.30288V3.10291C9.56507 3.06958 9.89835 2.86961 10.065 2.66965C9.93168 2.46968 9.56507 2.23638 9.19847 2.23638V2.03641C9.19847 1.70313 9.16514 1.53649 9.09848 1.43651C8.96517 1.63648 8.76521 1.93643 8.26529 1.96976C8.33195 1.46984 8.59857 1.26987 8.83186 1.13656C8.73188 1.0699 8.56524 1.03657 8.23196 1.03657H8.032C7.99867 0.669967 7.7987 0.336687 7.59873 0.170047C7.39877 0.303359 7.16547 0.669967 7.13215 1.03657H6.93218C6.63223 1.03657 6.43226 1.0699 6.33228 1.13656C6.53225 1.26987 6.8322 1.46984 6.89885 1.96976C6.39893 1.9031 6.19897 1.63648 6.06566 1.43651C5.999 1.53649 5.96567 1.73646 5.96567 2.03641V2.23638C5.59907 2.26971 5.26579 2.46968 5.09915 2.66965C5.23246 2.86961 5.59907 3.06958 5.96567 3.10291V3.30288C5.96567 3.60283 5.999 3.8028 6.06566 3.90278C6.2323 3.66949 6.46559 3.33621 7.09882 3.33621H7.1988V3.46952C7.1988 4.00276 6.93218 4.53601 6.26562 4.53601C5.83236 4.53601 5.56574 4.20273 5.46576 4.00277C5.53241 3.90278 5.56574 3.76947 5.56574 3.63616C5.56574 3.30288 5.29912 3.00293 4.93251 3.00293C4.76587 3.00293 4.59923 3.06958 4.49925 3.16957C4.39927 3.26955 4.33261 3.43619 4.33261 3.60283C4.33261 3.73614 4.36594 3.86945 4.46592 3.96944C4.36594 4.1694 4.13264 4.50268 3.66606 4.50268C2.9995 4.50268 2.73288 4.00276 2.73288 3.43619V3.30288H2.83286C3.46609 3.30288 3.69938 3.63616 3.86602 3.86945C3.93268 3.76947 3.96601 3.5695 3.96601 3.26955V3.06958C4.33261 3.03625 4.66589 2.83629 4.83253 2.63632C4.69922 2.43635 4.33261 2.20305 3.96601 2.20305V2.00309C3.96601 1.66981 3.93268 1.50317 3.86602 1.40318C3.73271 1.60315 3.53275 1.9031 3.03283 1.93643C3.09948 1.43651 3.36611 1.23654 3.56607 1.10323C3.46609 1.03657 3.29945 1.00325 2.96617 1.00325C2.86619 1.00325 2.63289 1.03657 2.56624 1.0699C2.43293 0.836606 1.96634 0.136719 1.09982 0.136719C0.566572 0.136719 0.0666556 0.403343 0 0.469999C0.266622 0.469999 0.733211 0.503327 1.09982 0.869934C1.63306 1.40318 1.66639 1.83645 1.66639 3.26955C1.66639 4.80264 2.46626 5.56918 3.5994 5.56918C4.26596 5.56918 4.93251 5.06926 4.93251 5.06926C4.93251 5.06926 5.59907 5.56918 6.26562 5.56918C6.96551 5.56918 7.59873 5.03593 7.59873 5.03593C7.59873 5.03593 8.19863 5.56918 8.89852 5.56918C9.5984 5.56918 10.2316 5.06926 10.2316 5.06926C10.2316 5.06926 10.8982 5.56918 11.5647 5.56918C12.2646 5.56918 12.8645 5.03593 12.8645 5.03593C12.8645 5.03593 13.4644 5.56918 14.1643 5.56918C14.8642 5.56918 15.4974 5.06926 15.4974 5.06926C15.4974 5.06926 16.164 5.56918 16.8305 5.56918C17.5304 5.56918 18.1303 5.03593 18.1303 5.03593C18.1303 5.03593 18.7635 5.56918 19.4301 5.56918C20.0967 5.56918 20.7632 5.06926 20.7632 5.06926C20.7632 5.06926 21.4298 5.56918 22.0963 5.56918C23.2295 5.56918 24.0293 4.80264 24.0293 3.26955C24.0293 1.73646 24.0627 1.40318 24.5959 0.869934C24.9625 0.503327 25.4291 0.469999 25.6957 0.469999C25.6957 0.469999 25.1958 0.203375 24.6626 0.203375Z" fill="#707074"/>
<path d="M2.0625 9.80127V27.5984C2.0625 32.8642 5.72856 35.8638 12.894 35.8638C20.0595 35.8638 23.7256 32.8642 23.7256 27.5984V9.80127H2.0625ZM11.8942 10.8678L12.6274 10.9344L12.9274 10.2679L13.2273 10.9344L13.9605 10.8678L13.5273 11.4677L13.9605 12.0342L13.2273 11.9676L12.9274 12.6341L12.6274 11.9676L11.8942 12.0342L12.3275 11.4677L11.8942 10.8678ZM2.72906 10.8678L3.46227 10.9344L3.76222 10.2679L4.06217 10.9344L4.79538 10.8678L4.36212 11.4677L4.79538 12.0342L4.06217 11.9676L3.76222 12.6341L3.46227 11.9676L2.72906 12.0342L3.16232 11.4677L2.72906 10.8678ZM2.72906 19.5997L3.46227 19.6664L3.76222 18.9998L4.06217 19.6664L4.79538 19.5997L4.36212 20.1663L4.79538 20.7328L4.06217 20.6662L3.76222 21.3328L3.46227 20.6662L2.72906 20.7328L3.16232 20.1663L2.72906 19.5997ZM4.86203 29.5314L4.12882 29.4648L3.82887 30.1313L3.52892 29.4648L2.79571 29.5314L3.22897 28.9315L2.79571 28.365L3.52892 28.4316L3.82887 27.7651L4.12882 28.4316L4.86203 28.365L4.42877 28.9315L4.86203 29.5314ZM12.894 32.331C8.76138 32.331 6.89503 31.0979 6.06183 29.7314H19.7262C18.893 31.0979 17.06 32.331 12.894 32.331ZM15.227 27.7984L15.9602 28.6649L15.5936 28.7982C15.5269 28.8316 15.4269 28.8982 15.3936 28.9315L15.2936 29.0648H14.4271C13.9272 29.0648 13.5606 28.6649 13.5606 28.1983V24.099L14.0605 25.1321C14.1272 25.2655 14.2938 25.3321 14.4271 25.2988L14.6604 25.2321V25.4321C14.6604 25.6654 14.6604 25.8987 14.6937 26.0653C14.827 26.9319 15.1603 27.2318 15.327 27.2985L15.1936 27.4651C15.127 27.5651 15.1603 27.6984 15.227 27.7984ZM20.3595 27.1985C20.3595 27.6984 20.3261 28.365 20.0595 29.0648H18.3598L17.7932 27.7651C18.0265 27.5318 18.1598 27.1652 18.1598 26.7985C18.1598 26.5319 18.0932 26.2986 17.9599 26.0987L17.2933 24.9322L16.4934 22.6325L16.4268 21.6994L16.5934 21.5994C16.7267 21.5327 16.7934 21.3661 16.7267 21.2328L16.6601 21.0661C16.6267 20.9328 16.4601 20.8328 16.3268 20.8662L16.0602 20.8995L15.6602 20.5995C15.5936 20.5662 15.4936 20.5329 15.4269 20.5329L15.1936 20.5662L14.6604 20.1329C14.5937 20.0996 14.5271 20.0996 14.4938 20.1663L14.1605 20.5995C14.0938 20.6995 14.0938 20.8328 14.1605 20.9328L14.6604 21.7327V23.1325H14.3271C14.1272 23.1325 13.9605 22.9325 13.9605 22.6659V22.1993C13.9605 22.1326 13.9272 22.0326 13.8605 21.966L13.5606 21.666V19.8663C15.8602 19.633 17.5932 18.3666 17.5932 16.8668C17.5932 15.2004 15.4603 13.834 12.8274 13.834C10.1945 13.834 8.0615 15.2004 8.0615 16.8668C8.0615 18.3999 9.82787 19.633 12.0942 19.8663V28.1317C12.0942 28.6316 11.6942 28.9982 11.2276 28.9982H5.72856C5.46193 28.2983 5.42861 27.6651 5.42861 27.1318V13.0341H20.3595V27.1985ZM22.9257 29.5314L22.1925 29.4648L21.8925 30.1313L21.5926 29.4648L20.8594 29.5314L21.2926 28.9315L20.8594 28.365L21.5926 28.4316L21.8925 27.7651L22.1925 28.4316L22.9257 28.365L22.4924 28.9315L22.9257 29.5314ZM23.059 20.7662L22.3258 20.6995L22.0258 21.3661L21.7259 20.6995L21.026 20.7662L21.4593 20.1996L21.026 19.633L21.7259 19.6997L22.0258 19.0331L22.3258 19.6997L23.059 19.633L22.6257 20.1996L23.059 20.7662ZM23.059 12.0342L22.3258 11.9676L22.0258 12.6341L21.7259 11.9676L21.026 12.0342L21.4593 11.4677L21.026 10.8678L21.7259 10.9344L22.0258 10.2679L22.3258 10.9344L23.059 10.8678L22.6257 11.4677L23.059 12.0342Z" fill="#707074"/>
</g>
<defs>
<clipPath id="clip0_4737_36491">
<rect width="200" height="35.7276" fill="white" transform="translate(0 0.13623)"/>
</clipPath>
</defs>
</svg>
