<svg width="126" height="40" viewBox="0 0 126 40" fill="none" xmlns="http://www.w3.org/2000/svg">
<g clip-path="url(#clip0_5110_43796)">
<path d="M65.6683 0C65.6683 0.405881 65.6683 0.672603 65.6683 0.937668C65.6683 13.2466 65.6601 25.5556 65.6915 37.8646C65.6932 38.6382 65.4695 38.7708 64.7787 38.7426C63.4567 38.6896 62.1297 38.7061 60.8061 38.736C60.3273 38.7476 60.1749 38.5918 60.2014 38.1247C60.2345 37.52 60.2097 36.912 60.2097 36.2659C59.822 36.2791 59.6464 36.5956 59.4112 36.7844C55.5776 39.8658 50.8065 40.1806 47.079 37.5548C45.1805 36.2178 43.9612 34.3525 43.2819 32.1723C41.7164 27.141 41.4845 22.0733 43.3996 17.0851C45.2384 12.2957 49.5805 9.72624 54.5157 10.3756C56.4275 10.6275 58.0693 11.5071 59.5238 12.753C59.7077 12.9103 59.8833 13.0777 60.0622 13.24C60.3389 13.0611 60.203 12.8192 60.2047 12.6254C60.2146 9.59039 60.2229 6.55374 60.1981 3.51874C60.1948 3.01015 60.3372 2.72355 60.8011 2.49493C62.3981 1.70636 63.9736 0.874715 65.6717 0.00165666L65.6683 0ZM60.2693 24.8648C60.2693 23.6256 60.1119 22.3599 60.3041 21.1505C60.6421 19.0118 59.4907 17.8091 57.9367 16.7637C57.3867 16.3943 56.8052 16.0795 56.1906 15.826C52.6586 14.3682 49.3138 15.8526 48.2536 19.5022C47.1701 23.2313 47.3291 26.9903 48.6329 30.6465C49.4845 33.0387 51.3996 34.2729 53.9342 34.2348C56.5766 34.1951 58.4702 32.7438 60.1235 30.8652C60.3356 30.6233 60.266 30.3417 60.266 30.075C60.2743 28.3388 60.2693 26.601 60.2676 24.8648H60.2693Z" fill="#545458"/>
<path d="M93.5343 26.7302C90.7197 26.7302 87.9033 26.76 85.0887 26.712C84.3448 26.6987 84.2902 26.9737 84.4061 27.5668C84.822 29.7006 85.5376 31.6969 87.355 33.0354C89.8748 34.8926 92.5635 34.6557 95.2672 33.4479C95.7426 33.2359 96.243 33.0106 96.624 32.6693C97.2403 32.1193 97.6362 32.2253 98.1349 32.8317C98.834 33.6832 99.6159 34.4668 100.381 35.262C100.65 35.5403 100.658 35.6977 100.355 35.9826C95.3086 40.7439 83.5347 41.6103 79.8835 30.9663C78.3544 26.5099 78.4919 21.9888 80.1469 17.5821C82.0139 12.6138 86.5962 9.8704 92.0781 10.2796C97.5964 10.6921 101.355 14.1943 102.585 20.0671C102.989 21.9988 103.068 23.947 102.942 25.9118C102.904 26.5099 102.744 26.7567 102.063 26.7451C99.22 26.6987 96.3771 26.7252 93.5343 26.7269V26.7302ZM90.9019 22.186C92.8568 22.186 94.8133 22.1661 96.7681 22.1976C97.3364 22.2059 97.4871 22.0286 97.3877 21.4869C97.2386 20.6735 97.0829 19.8634 96.7781 19.0914C95.8321 16.7008 94.0446 15.4219 91.5082 15.2197C88.9619 15.016 86.911 15.889 85.6006 18.1752C85.0059 19.2123 84.711 20.3521 84.4906 21.5266C84.373 22.1595 84.6265 22.1959 85.1185 22.191C87.0468 22.1744 88.9735 22.1843 90.9019 22.1843V22.186Z" fill="#545458"/>
<path d="M30.051 26.7301C27.2364 26.7301 24.42 26.7549 21.6054 26.7119C20.9228 26.7019 20.8334 26.9107 20.9477 27.5021C21.4546 30.1527 22.442 32.4803 25.0496 33.7344C26.8669 34.6092 28.7356 34.4948 30.6093 33.9332C31.3797 33.703 32.0953 33.3435 32.7828 32.9326C33.6255 32.429 34.3754 32.5295 35.0326 33.2341C35.5958 33.8405 36.1177 34.4932 36.7323 35.0415C37.2972 35.5468 37.1216 35.8135 36.6279 36.2277C34.7162 37.8347 32.5327 38.8022 30.0676 39.1434C25.2699 39.8061 21.2111 38.5338 18.2457 34.528C16.8591 32.6543 16.0821 30.5122 15.7242 28.2178C15.2024 24.8697 15.3382 21.5597 16.42 18.3308C18.2606 12.839 22.8694 9.82887 28.6611 10.2878C34.1761 10.7251 37.9036 14.2256 39.1428 20.1051C39.5619 22.0931 39.595 24.0927 39.4724 26.1105C39.436 26.7135 39.1245 26.7384 38.6623 26.7367C35.7913 26.7251 32.922 26.7301 30.051 26.7301V26.7301ZM27.4633 22.1875C29.337 22.1875 31.2107 22.1627 33.0844 22.2008C33.7669 22.2157 34.0916 22.1262 33.9027 21.3228C33.752 20.6816 33.6576 20.0239 33.4455 19.3994C32.0771 15.3903 27.0541 13.8247 23.6828 16.3809C21.9897 17.6649 21.4016 19.5518 21.0355 21.5447C20.9361 22.0848 21.0769 22.2041 21.5954 22.1958C23.5519 22.171 25.5085 22.1859 27.465 22.1875H27.4633Z" fill="#545458"/>
<path d="M114.958 39.3208C111.263 39.2363 107.819 38.1462 104.668 36.0887C104.274 35.8319 104.236 35.6381 104.484 35.2504C105.154 34.2067 105.798 33.1448 106.418 32.0713C106.651 31.667 106.819 31.6422 107.225 31.899C110.124 33.7428 113.247 34.7236 116.724 34.2299C117.385 34.1355 118.023 33.9599 118.609 33.6401C120.224 32.7588 120.511 30.736 119.199 29.4471C118.478 28.7397 117.58 28.3107 116.676 27.8965C114.721 27.0019 112.653 26.3807 110.722 25.4281C109.905 25.0255 109.108 24.5882 108.364 24.0597C105.155 21.7818 104.243 17.1398 106.388 13.8331C107.622 11.9313 109.514 10.9969 111.661 10.5728C116.036 9.70971 120.087 10.5977 123.844 12.9617C124.25 13.2169 124.359 13.4107 124.081 13.858C123.428 14.9116 122.825 15.9967 122.229 17.0835C122.019 17.4678 121.873 17.4927 121.492 17.2425C119.32 15.8079 116.939 15.0458 114.312 15.1568C114.063 15.1667 113.815 15.1767 113.57 15.2082C112.107 15.3937 111.118 16.1276 110.896 17.1862C110.66 18.3061 111.192 19.2554 112.521 20.0688C114.486 21.2715 116.702 21.8994 118.791 22.8222C119.827 23.2794 120.839 23.7747 121.811 24.3562C124.803 26.1471 125.781 28.8772 125.428 32.1922C125.085 35.4161 123.228 37.4438 120.238 38.5124C118.554 39.1137 116.8 39.2661 114.961 39.3175L114.958 39.3208Z" fill="#545458"/>
<path d="M6.02448 13.3809C9.15556 9.6253 13.549 9.86386 16.2792 10.9125C17.2616 11.2902 17.255 11.3482 16.6105 12.1782C15.7988 13.2252 15.0284 14.3037 14.4867 15.5197C14.3161 15.9024 14.1421 15.9819 13.7379 15.8792C12.8267 15.6456 11.8924 15.581 10.9481 15.6605C8.8292 15.8378 7.43098 16.9544 6.66064 18.9026C6.17689 20.1268 6.02448 21.4091 6.02448 22.7145C6.02448 27.7922 6.00957 32.8699 6.04271 37.9475C6.04768 38.6185 5.86544 38.7692 5.22597 38.7444C3.8758 38.6914 2.52231 38.7079 1.17048 38.7411C0.686731 38.751 0.507812 38.6632 0.507812 38.1215C0.526036 29.2352 0.522722 20.3505 0.512782 11.4642C0.512782 11.0285 0.580705 10.8264 1.08764 10.838C2.54881 10.8728 4.0133 10.8678 5.47447 10.8413C5.90852 10.833 6.06259 10.944 6.03442 11.3913C5.99632 11.9827 6.02448 12.5791 6.02448 13.3809V13.3809Z" fill="#545458"/>
<path d="M73.4615 40.0005C70.8935 40.0386 68.7215 37.9279 68.7032 35.3781C68.685 32.8002 70.7692 30.6729 73.3438 30.6381C75.9433 30.6033 78.1004 32.6677 78.1352 35.2224C78.1716 37.86 76.1139 39.9624 73.4598 40.0021L73.4615 40.0005Z" fill="#8C8C90"/>
</g>
<defs>
<clipPath id="clip0_5110_43796">
<rect width="124.988" height="40" fill="white" transform="translate(0.507812)"/>
</clipPath>
</defs>
</svg>
