<svg width="49" height="48" viewBox="0 0 49 48" fill="none" xmlns="http://www.w3.org/2000/svg">
<g clip-path="url(#clip0_5856_17334)">
<path fill-rule="evenodd" clip-rule="evenodd" d="M22.5063 0.0230114C16.1035 0.604602 10.385 3.46334 6.30763 8.1207C-3.26973 19.0601 -1.06391 35.731 11.0373 43.8661C18.9569 49.1903 29.4972 49.2149 37.4337 43.9276C43.1255 40.1356 46.859 34.3721 47.9525 27.6889C48.302 25.5539 48.2735 21.9674 47.89 19.8237C45.8817 8.59441 36.3617 0.362148 24.992 0.0230114C23.9624 -0.00767046 22.8438 -0.00767046 22.5063 0.0230114ZM26.5973 0.826193C27.2348 0.868602 28.462 1.06006 29.3245 1.25178C39.271 3.46305 46.8072 12.1922 47.4403 22.2352C47.8176 28.2218 46.142 33.7084 42.5263 38.3253C42.2326 38.7003 41.4279 39.5802 40.738 40.2806C37.4937 43.5745 33.5578 45.717 28.8696 46.7414C27.6569 47.0063 27.0828 47.0442 24.2791 47.0442C21.4682 47.0442 20.9028 47.0067 19.6769 46.739C16.8155 46.1141 14.0348 44.9741 11.7665 43.4959C10.1941 42.4711 9.58472 41.9817 8.14104 40.584C4.71368 37.2659 2.51713 33.2951 1.479 28.541C1.21132 27.3151 1.17382 26.7498 1.17382 23.9389C1.17382 21.1351 1.21172 20.561 1.47668 19.3484C2.50104 14.6602 4.64359 10.7243 7.93745 7.47993C10.5241 4.93225 13.0434 3.3196 16.37 2.08223C18.8202 1.17092 22.5141 0.564784 24.7563 0.706193C25.1313 0.729921 25.9598 0.783921 26.5973 0.826193ZM22.5302 16.4505C22.2059 16.6154 21.8109 16.9256 21.6523 17.14C21.254 17.6787 21.1427 17.6299 21.1427 16.9162C21.1427 16.3935 21.1023 16.3025 20.87 16.3025C20.6138 16.3025 20.5973 16.3935 20.5973 17.8103C20.5973 19.7726 20.429 20.4162 19.7238 21.151C19.0566 21.8463 18.4332 22.0185 17.6969 21.7109C17.0301 21.4323 16.9171 20.9506 16.9163 18.3821L16.9154 16.3025H16.5639H16.2123L16.2571 18.8594C16.306 21.659 16.3907 21.98 17.1608 22.284C18.3153 22.74 19.1263 22.5638 19.9974 21.6674L20.5973 21.0502V21.7445C20.5973 22.348 20.633 22.4389 20.87 22.4389C21.1233 22.4389 21.1427 22.348 21.1427 21.162C21.1427 18.8084 21.5635 17.6712 22.6374 17.1235C23.4107 16.729 23.9451 16.7658 24.4259 17.2466L24.8245 17.6452V20.042V22.4389H25.1654H25.5063L25.5043 19.9503C25.5029 18.2467 25.4492 17.3583 25.3338 17.1338C24.8763 16.2436 23.5659 15.9243 22.5302 16.4505ZM28.0906 16.3471C27.8244 16.4351 27.4808 16.5991 27.3268 16.7116C26.9838 16.9623 26.5561 17.7619 26.6679 17.9429C26.8229 18.1938 27.2357 18.0745 27.3908 17.7341C27.8645 16.6942 29.9614 16.5194 30.4004 17.483C30.5735 17.8631 30.601 18.3469 30.4495 18.3502C30.3933 18.3513 29.782 18.4715 29.0911 18.6175C27.0298 19.0526 26.3215 19.5844 26.3266 20.6935C26.3341 22.3777 28.703 23.1522 30.1423 21.941C30.3738 21.7462 30.5761 21.6098 30.5916 21.6379C30.6073 21.666 30.6874 21.8116 30.7698 21.9616C30.8522 22.1116 31.0705 22.3201 31.2549 22.4249C31.5422 22.5881 31.6475 22.5878 31.9914 22.423C32.5896 22.1363 32.5146 21.8253 31.8473 21.8253H31.3018L31.2336 19.5506C31.1727 17.5175 31.1352 17.2351 30.8799 16.8915C30.3905 16.2325 29.1625 15.9927 28.0906 16.3471ZM30.526 19.9336C30.4731 20.7644 30.4289 20.8737 29.978 21.2869C29.0784 22.1114 27.4773 22.0152 27.1299 21.1159C26.8029 20.2699 27.3966 19.6729 28.9352 19.3008C30.6308 18.8906 30.5934 18.8757 30.526 19.9336ZM9.88336 25.0186C8.36945 25.3915 7.45254 26.9123 7.69131 28.6545C8.05677 31.3208 11.184 32.2171 12.7874 30.1151C13.1416 29.6505 13.145 29.6292 12.8947 29.4462C12.5446 29.1901 12.5175 29.1994 12.2529 29.6641C11.8833 30.314 11.2342 30.6457 10.4622 30.5791C10.0989 30.5479 9.6409 30.4015 9.43949 30.2523C8.91299 29.8623 8.46095 29.1413 8.46095 28.6915V28.3025H10.8473H13.2337L13.2329 27.8594C13.2311 26.795 12.5967 25.6778 11.7476 25.2435C11.2683 24.9985 10.3938 24.8929 9.88336 25.0186ZM23.9014 25.0242C22.652 25.3286 21.8255 26.417 21.7195 27.897C21.6638 28.6762 21.7059 28.9304 21.9954 29.5628C23.2307 32.2612 26.9589 31.6308 27.3669 28.6545C27.6789 26.3786 25.9169 24.5329 23.9014 25.0242ZM30.5007 25.0938C30.2099 25.1974 29.7651 25.4828 29.512 25.7281L29.0518 26.1742V25.602C29.0518 25.0826 29.0203 25.0298 28.7109 25.0298H28.37V29.1889V33.348H28.7109H29.0518V31.7656V30.1834L29.5173 30.5922C30.8427 31.7558 32.5986 31.39 33.4982 29.7627C34.01 28.8371 34.0498 27.4564 33.5899 26.585C33.2101 25.8656 32.4693 25.2192 31.8168 25.038C31.1798 24.8611 31.15 24.8624 30.5007 25.0938ZM36.6518 25.0418C35.9724 25.2019 35.4914 25.5299 35.2494 25.9979C34.9595 26.5585 34.9985 26.8025 35.378 26.8025C35.6114 26.8025 35.7282 26.7064 35.789 26.4641C35.9439 25.847 37.247 25.4235 38.1121 25.709C38.6436 25.8844 38.87 26.1865 38.87 26.7202C38.87 27.0961 38.696 27.1683 37.013 27.4897C35.3724 27.8032 34.5152 28.6432 34.7203 29.7365C35.0233 31.3514 37.3549 31.852 38.6976 30.5905C38.873 30.4257 39.0064 30.3724 39.0064 30.4668C39.0064 30.7612 39.6649 31.3025 40.0229 31.3025C40.3828 31.3025 41.0072 30.8033 40.8471 30.6435C40.7971 30.5935 40.5005 30.5525 40.1881 30.5525H39.62L39.5518 28.2029C39.4849 25.8975 39.4769 25.8466 39.13 25.5003C38.5948 24.9656 37.6877 24.7979 36.6518 25.0418ZM14.1902 27.5185C14.1916 29.222 14.2453 30.1105 14.3607 30.3349C14.9893 31.5582 17.1213 31.5742 18.0175 30.362C18.1896 30.1293 18.3801 29.9389 18.4411 29.9389C18.502 29.9389 18.5518 30.215 18.5518 30.5525C18.5518 31.0752 18.5922 31.1662 18.8245 31.1662C19.0803 31.1662 19.0973 31.075 19.0981 29.7003C19.0985 28.8941 19.1604 28.0124 19.2358 27.741C19.5299 26.682 20.5165 25.7116 21.2993 25.7116C21.6231 25.7116 21.6882 25.6546 21.6882 25.3707C21.6882 25.0966 21.6204 25.0298 21.3418 25.0298C20.8187 25.0298 19.9926 25.5057 19.5196 26.0797L19.0973 26.592V25.8109C19.0973 25.1389 19.0617 25.0298 18.8423 25.0298C18.6093 25.0298 18.5819 25.1851 18.5245 26.8366C18.4588 28.7275 18.3269 29.2105 17.6836 29.9178C16.9478 30.7268 15.9047 30.8583 15.2686 30.2221L14.87 29.8235V27.4267V25.0298H14.5291H14.1882L14.1902 27.5185ZM11.5854 25.9545C12.0035 26.2661 12.375 26.8732 12.4383 27.348L12.4837 27.6889L10.4723 27.7267C8.51509 27.7634 8.46095 27.7568 8.46095 27.4812C8.46095 26.8769 9.1309 26.0123 9.82472 25.7215C10.2952 25.5243 11.1622 25.639 11.5854 25.9545ZM25.6427 25.9699C26.7455 26.7595 27.02 28.5498 26.2244 29.764C25.9448 30.1908 25.09 30.6207 24.521 30.6207C22.6319 30.6207 21.7067 27.8782 23.0714 26.3238C23.7407 25.5614 24.8575 25.4077 25.6427 25.9699ZM32.0779 25.8619C32.5104 26.0935 33.0054 26.8898 33.1295 27.5538C33.5151 29.618 31.7856 31.2481 30.1439 30.3678C28.5282 29.5012 28.7633 26.2324 30.4784 25.7161C30.9192 25.5835 31.6885 25.6535 32.0779 25.8619ZM38.87 28.613C38.87 29.614 38.6803 29.9577 37.9119 30.3498C37.0379 30.7957 35.7793 30.6101 35.5456 30.001C35.3324 29.4455 35.458 28.8686 35.8532 28.5871C36.1768 28.3568 38.0605 27.8156 38.6995 27.7694C38.8191 27.7608 38.87 28.0126 38.87 28.613Z" fill="#545458"/>
</g>
<defs>
<clipPath id="clip0_5856_17334">
<rect width="47.8636" height="48" fill="white" transform="translate(0.335938)"/>
</clipPath>
</defs>
</svg>
