<svg width="106" height="52" viewBox="0 0 106 52" fill="none" xmlns="http://www.w3.org/2000/svg">
<path fill-rule="evenodd" clip-rule="evenodd" d="M45.5362 3.25049L47.5569 3.27752L49.5777 3.30456L49.6048 8.22474L49.6318 13.1449L50.4023 12.7665C51.4566 12.2528 52.3352 12.0433 53.6599 11.9825C54.5723 11.9419 54.9575 11.9757 55.6874 12.1514C59.0261 12.9489 61.1145 15.7199 61.3375 19.6398C61.5538 23.4787 59.8304 26.743 56.8296 28.1893C54.7818 29.1761 52.0243 29.2639 49.6791 28.4056L48.983 28.1488L47.2866 28.4462C46.3539 28.6084 45.5767 28.7435 45.5632 28.7435C45.5497 28.7435 45.5362 23.5665 45.5362 17.0311V3.25049ZM51.5107 15.6253C51.1728 15.7267 50.6118 15.9632 50.2603 16.1525L49.6251 16.4971V24.8439L50.1319 25.0602C51.5445 25.6684 53.4233 25.8104 54.552 25.3981C56.5187 24.6817 57.6947 22.8299 57.6947 20.4644C57.6947 18.2746 56.8296 16.7067 55.1805 15.8821C54.4574 15.5239 54.356 15.5036 53.2746 15.4699C52.4028 15.4496 51.9838 15.4834 51.5174 15.6253H51.5107ZM33.2762 12.1109C36.3987 11.4891 39.5819 12.6989 41.1904 15.1252C42.2042 16.6526 42.7043 18.768 42.5219 20.7685L42.4475 21.5863H30.6945L30.7553 21.9175C30.8905 22.6203 31.519 23.7017 32.1273 24.2627C33.2627 25.317 34.5874 25.7428 36.4392 25.6482C38.0951 25.5671 39.6833 25.0534 41.2175 24.0937L41.65 23.8234V27.5203L41.1161 27.7906C38.1424 29.2977 33.9656 29.3991 31.3366 28.0271C29.3698 26.9999 28.1803 25.5197 27.491 23.2692C27.2341 22.4243 27.2139 22.2081 27.2071 20.559C27.2004 18.5855 27.349 17.761 27.9573 16.4093C28.9643 14.1857 30.9581 12.5705 33.2762 12.1109ZM33.506 15.4225C32.3436 15.8348 31.4514 16.6999 30.9716 17.8759C30.6134 18.7477 30.289 18.8221 32.918 18.8221H33.114C33.5736 18.8221 34.1211 18.8221 34.7699 18.8221H38.8115L38.7439 18.4368C38.6425 17.8488 38.1491 16.8418 37.7301 16.3755C37.5206 16.1457 37.0475 15.8078 36.6825 15.6253C36.0945 15.3347 35.8985 15.2874 35.0335 15.2603C34.2765 15.2333 33.9318 15.2739 33.5195 15.4225H33.506ZM0.28125 12.3542C0.28125 12.4015 1.52481 16.0714 3.03872 20.5049C4.55262 24.9385 5.79619 28.5881 5.79619 28.6084C5.79619 28.6287 6.69507 28.6422 7.80346 28.6286L9.81073 28.6016L10.4731 26.7092C10.838 25.6684 11.6288 23.3638 12.237 21.5998L13.3387 18.3828L13.9131 20.1129C14.2308 21.0659 15.0283 23.3773 15.6906 25.2494L16.8936 28.6557H18.8874H20.8812L23.6319 20.5928C25.1458 16.1592 26.4028 12.4758 26.4299 12.4015C26.4637 12.3001 26.0311 12.2731 24.4767 12.2731C23.375 12.2731 22.4559 12.3069 22.4289 12.3542C22.341 12.4961 19.4416 21.3835 19.1375 22.4379C18.982 22.9853 18.8198 23.4043 18.7793 23.357C18.7387 23.3165 18.5157 22.6812 18.2724 21.9445C18.0358 21.2146 17.2383 18.9302 16.5152 16.8756C15.7852 14.821 15.1229 12.9422 15.0351 12.7056L14.8796 12.2731H13.4603C12.2168 12.2731 12.0343 12.2934 11.9464 12.4556C11.8383 12.6651 9.19571 20.2143 8.56041 22.1405C8.32386 22.8637 8.10759 23.4314 8.08732 23.4111C8.06704 23.3908 7.81698 22.6136 7.53312 21.6877C7.24926 20.7618 6.445 18.2679 5.74212 16.1389L4.46476 12.2731H2.37638C1.22744 12.2731 0.288008 12.3136 0.288008 12.3609M96.8264 32.704V34.6978H93.8662V38.2798H96.8129L96.8534 42.862C96.8872 47.1875 96.9008 47.4916 97.1103 48.2486C97.4076 49.3299 97.7658 49.9517 98.4755 50.6276C99.5636 51.6684 100.841 52.0671 102.781 51.9793C103.673 51.9387 104.119 51.8644 104.795 51.6346L105.66 51.3372L105.687 49.5192L105.714 47.7011L105.308 47.9106C104.693 48.2215 103.592 48.4513 102.99 48.3905C101.99 48.2891 101.442 47.7958 101.172 46.7347C101.044 46.2413 101.017 45.41 101.017 42.2065V38.2865H105.714V34.7045H101.017V30.7103H96.8264V32.704ZM6.29631 34.495C2.89003 35.1168 0.930066 37.266 1.12606 40.1586C1.2342 41.7266 1.98439 42.8418 3.42395 43.592C4.52559 44.1597 5.58667 44.4773 7.87104 44.8964C10.0338 45.3019 10.5271 45.4708 10.9394 45.9574C11.1692 46.2278 11.2165 46.39 11.2165 46.8428C11.2165 47.3362 11.176 47.4443 10.8515 47.8025C10.2973 48.4108 9.71611 48.5797 8.10083 48.573C5.88405 48.573 4.24173 48.1134 1.68702 46.809C1.64647 46.7887 1.61267 47.6471 1.61267 48.7149V50.6614L2.36963 50.979C3.26175 51.3507 4.87703 51.7562 6.10032 51.9252C7.39119 52.0942 9.93239 51.986 10.9529 51.7089C13.3387 51.0601 14.8999 49.6341 15.3122 47.7079C15.4946 46.8631 15.3865 45.2005 15.1162 44.599C14.3254 42.835 12.6696 41.997 8.51986 41.2603C5.98542 40.8075 5.40419 40.4966 5.32309 39.5504C5.26226 38.8678 5.5326 38.4623 6.28956 38.1041C6.84375 37.8405 6.94513 37.827 8.40497 37.8405C9.77018 37.8472 10.0676 37.8878 11.1219 38.1649C11.7775 38.3406 12.7372 38.6718 13.2643 38.9016C13.7915 39.1314 14.2781 39.3476 14.3524 39.3814C14.4538 39.422 14.4809 39.0165 14.4809 37.5364V35.6372L13.636 35.3128C12.014 34.6843 10.8651 34.4815 8.7091 34.441C7.64126 34.4207 6.55314 34.441 6.28956 34.4883M44.2588 34.4612C43.0761 34.7248 41.8528 35.2993 40.8998 36.0292L40.224 36.5496V34.6978L38.1559 34.7248L36.0878 34.7518V51.6481L38.1559 51.6751L40.224 51.7022V40.0302L40.6836 39.6382C43.0828 37.6175 45.9957 37.5228 46.9757 39.4287C47.3069 40.0775 47.3677 41.0981 47.3677 46.4914V51.6887H51.4566V40.0302L51.9635 39.5774C53.0651 38.5839 54.5655 38.0162 55.9105 38.0838C56.6269 38.1243 56.8296 38.1784 57.2486 38.4352C57.8772 38.8205 58.3435 39.5842 58.499 40.4628C58.5733 40.875 58.6139 43.0243 58.6139 46.3967V51.6887H62.8041V40.0235L63.2637 39.6315C64.5005 38.5907 65.7846 38.0635 67.0755 38.0635C68.3799 38.0635 69.2315 38.6042 69.664 39.6923C69.887 40.2533 69.8938 40.3546 69.9276 45.971L69.9614 51.6819H74.03V40.0505L74.4152 39.6856C75.1587 38.9827 76.2468 38.3879 77.1862 38.1649C78.0581 37.9621 79.2205 38.0703 79.8018 38.4082C80.3019 38.6988 80.7817 39.3409 81.0048 40.0032C81.0926 40.26 81.1332 42.0308 81.1602 46.025L81.194 51.6819L83.2553 51.6549L85.3167 51.6278V45.5317C85.3167 39.6045 85.3032 39.4152 85.0869 38.5434C84.7963 37.3877 84.4854 36.7862 83.7893 36.0292C83.1337 35.3196 82.1537 34.7586 81.167 34.5288C80.3289 34.3328 78.5582 34.3328 77.7066 34.5288C76.3549 34.8397 74.8343 35.6169 73.8137 36.5091L73.2798 36.9754L73.1176 36.7253C72.4553 35.698 71.2455 34.8735 69.8938 34.5288C69.0017 34.299 67.4945 34.3261 66.5686 34.5829C65.2372 34.9546 63.4259 35.9143 62.5473 36.7118L62.2567 36.9822L62.0404 36.678C60.8577 35.0425 59.3776 34.3666 56.9715 34.3666C56.12 34.3666 55.5455 34.4274 54.971 34.5694C53.8829 34.8465 52.2744 35.6575 51.4161 36.3671C50.7672 36.9011 50.7064 36.9348 50.605 36.7591C50.5442 36.651 50.2468 36.2995 49.9359 35.9751C49.3142 35.3196 48.3477 34.7856 47.3204 34.5221C46.7527 34.3734 44.7657 34.3193 44.252 34.4342M17.36 40.9967C17.4005 47.9242 17.3803 47.6538 18.0426 49.0731C18.6576 50.3843 20.0566 51.4453 21.6854 51.8306C22.7735 52.0874 24.5983 51.9928 25.6662 51.6278C26.5853 51.3169 27.5788 50.756 28.329 50.1342L28.8359 49.7152L28.8629 50.6884L28.89 51.6616H32.9721V34.6572L30.904 34.6843L28.8359 34.7113L28.8156 40.4493L28.7954 46.1872L28.2074 46.7279C27.0449 47.789 25.6189 48.3432 24.2536 48.2688C22.6181 48.181 21.8003 47.3632 21.5435 45.5654C21.4894 45.1735 21.4421 42.5985 21.4421 39.7667V34.6707H17.3465L17.3803 40.9967M87.9457 43.1729V51.6751L90.0138 51.6481L92.0819 51.6211V34.7248L90.0138 34.6978L87.9457 34.6707V43.1729Z" fill="#707074"/>
<path d="M88.6985 0.54695C88.5227 0.851083 84.7988 7.27842 80.4125 14.8277L72.4375 28.5609L80.7167 28.588C85.2719 28.6015 92.7265 28.6015 97.2885 28.588L105.588 28.5609L97.6197 14.8277C93.2334 7.27166 89.5095 0.851083 89.3337 0.54695L89.0161 -0.000488281L88.7052 0.54695" fill="#8C8C90"/>
<path d="M66.3969 18.8489C63.4908 23.8569 61.0239 28.0945 60.9158 28.277L60.7266 28.6014H70.1006L73.2568 23.1743C75.6899 18.9908 76.3928 17.7067 76.3252 17.5715C76.1021 17.1052 71.7902 9.75195 71.7429 9.75195C71.7159 9.75195 69.3099 13.8476 66.3969 18.8489Z" fill="#C6C6C8"/>
</svg>
