<svg width="247" height="296" viewBox="0 0 247 296" fill="none" xmlns="http://www.w3.org/2000/svg">
    <path fill-rule="evenodd" clip-rule="evenodd" d="M54.9458 2.33886C40.762 7.98867 28.7144 14.7669 21.0995 21.3817C13.4847 27.9972 4.70592 43.4462 1.47733 55.9149C0.454182 59.8661 0.16042 65.5575 0.195723 80.7397C0.319084 133.235 0.49401 136.554 4.01945 153.12C7.08057 167.507 9.37845 172.937 16.7146 183.127C22.2562 190.824 29.2908 198.385 37.8709 205.867C47.8378 214.558 54.7809 217.494 62.2494 216.175C68.2151 215.121 79.1482 209.89 86.2483 204.693C95.0518 198.248 99.2967 191.287 112.77 161.207C119.67 145.805 129.205 127.196 133.378 120.988C136.402 116.491 139.68 113.674 148.7 107.817C161.726 99.3604 174.014 94.9248 179.589 96.6681C187.755 99.2212 194.352 109.498 202.356 132.136C206.812 144.734 210.172 163.476 212.097 186.465C213.589 204.294 214.469 218.905 214.079 219.399C213.563 220.052 201.883 222.585 201.789 222.065C201.733 221.752 202.106 219.206 202.617 216.406C205.659 199.782 200.995 177.42 192.019 165.581C188.567 161.031 183.07 156.569 180.809 156.484C179.224 156.424 178.54 155.766 177.311 153.116C174.197 146.409 169.503 144.406 159.832 145.655C150.809 146.82 142.533 151.053 136.933 157.367C134.227 160.418 131.805 168.083 131.776 173.691C131.764 175.777 134.195 191.368 137.177 208.338C142.344 237.738 142.723 239.456 145.221 244.782C148.386 251.533 157.698 264.258 165.362 272.306C177.135 284.668 200.293 296.605 209.336 294.971C212.279 294.44 215.576 291.922 218.665 287.848C222.537 282.742 223.398 279.005 222.224 272.394C221.207 266.666 221.749 265.442 225.613 264.744C228.155 264.285 234.575 257.985 237.752 252.834C240.193 248.876 240.79 248.359 243.482 247.873C245.134 247.574 246.426 247 246.353 246.596C246.28 246.192 244.931 246.095 243.356 246.379C240.89 246.825 240.507 246.691 240.605 245.418C240.69 244.32 240.029 243.732 238.04 243.135C236.566 242.693 233.503 241.457 231.232 240.389C225.6 237.739 221.495 238.089 216.839 241.615L213.406 244.215L210.737 243.182C207.4 241.891 203.86 242.499 199.081 245.185C195.015 247.47 186.648 254.035 186.134 255.343C185.608 256.683 188.124 257.916 190.435 257.451C191.616 257.213 198.501 255.834 205.736 254.387C212.971 252.939 220.309 251.121 222.043 250.347C226.452 248.379 229.829 247.867 234.119 248.515C236.767 248.915 237.748 249.397 237.591 250.223C237.471 250.857 237.393 251.484 237.417 251.618C237.441 251.752 235.618 253.965 233.366 256.536C229.964 260.418 223.582 265.01 222.568 264.306C222.421 264.204 222.418 262.828 222.562 261.247C222.705 259.668 222.475 257.718 222.052 256.915C221.306 255.502 221.003 255.522 212.646 257.525C207.897 258.664 203.238 260.061 202.294 260.631C199.684 262.203 199.705 264.071 202.351 265.629C205.003 267.191 213.695 268.413 217.394 267.745L219.958 267.282L220.804 273.438C221.809 280.761 220.62 284.471 215.685 289.413C211.632 293.472 207.745 294.185 200.699 292.163C193.891 290.208 178.589 281.797 172.566 276.697C164.193 269.609 154.054 257.169 147.729 246.224C145.164 241.786 145.119 241.586 138.918 207.266C132.7 172.851 132.687 172.757 133.627 168.228C135.305 160.144 138.646 156.062 147.634 151.118C155.881 146.581 166.224 145.428 171.24 148.487C172.913 149.507 177.233 155.102 176.798 155.685C176.686 155.835 174.367 155.892 171.646 155.811C163.639 155.574 155.977 157.43 152.808 160.376C152.286 160.861 152.033 162.293 152.247 163.558C152.603 165.65 152.329 166.029 149.2 167.783C142.04 171.799 139.793 174.428 141.72 176.535C142.252 177.116 145.329 178.128 148.559 178.784C153.964 179.882 154.982 179.852 161.34 178.401C169.268 176.592 175.77 173.25 177.738 169.974C178.616 168.512 178.891 166.391 178.644 162.98C178.378 159.295 178.57 158.035 179.422 157.881C181.275 157.547 188.137 163.171 191.209 167.544C196.638 175.27 198.226 179.507 200.505 192.349C202.394 202.989 202.514 204.757 201.779 211.067C200.567 221.479 199.981 222.679 195.488 223.971C190.349 225.449 189.606 226.754 193.127 228.115C196.666 229.485 197.464 229.302 199.256 226.717C200.552 224.848 201.612 224.368 207.994 222.754C211.989 221.745 215.372 220.63 215.51 220.278C216.385 218.048 213.518 181.706 210.798 160.55C208.152 139.977 197.622 111.186 189.036 101.051C183.19 94.1506 176.922 92.9691 166.744 96.8483C154.627 101.467 138.715 111.715 133.763 118.09C130.287 122.564 120.497 140.766 114.9 153.157C99.5096 187.235 94.9552 195.681 89.3003 200.63C83.8656 205.385 74.5348 210.717 67.6136 213.02C59.1356 215.843 54.7026 215.338 47.4913 210.73C33.4119 201.732 17.1461 183.617 10.4388 169.464C7.90705 164.122 7.34315 161.953 4.79586 147.745C1.66721 130.295 1.69542 130.92 1.77296 81.5484C1.81146 57.1901 1.98274 55.9881 7.09082 44.2493C10.3868 36.6753 17.7213 26.1365 22.6771 21.8531C27.8446 17.3874 34.4681 13.3112 44.0918 8.67405C51.2323 5.23363 53.5273 4.47866 61.1355 3.06992C68.4081 1.72259 70.4145 1.60034 72.7444 2.36256C77.4522 3.90253 81.5585 6.39177 83.2212 8.7131C85.6924 12.1647 95.0286 33.1482 94.4586 33.9705C94.1775 34.376 90.7631 35.7372 86.8705 36.9953C75.7099 40.6027 66.2131 47.4044 61.1113 55.4441C57.9274 60.4617 54.3491 73.6098 53.7652 82.4355C53.3617 88.5417 53.6492 91.2313 56.2654 105.854C58.9251 120.717 59.4986 122.961 61.982 128.232C63.5001 131.454 64.7806 134.304 64.828 134.566C64.8752 134.828 61.9138 136.01 58.2478 137.194C52.4675 139.06 51.2689 139.248 49.2283 138.612C46.8025 137.855 39.6071 138.879 36.359 140.444C34.0309 141.565 34.1268 144.312 36.5203 145.087C38.259 145.65 42.8974 144.635 48.9654 142.362C51.3888 141.454 51.7278 141.545 53.5371 143.584C54.8985 145.118 55.7199 147.045 56.2433 149.933C56.9308 153.722 56.7746 154.521 54.4425 159.165L51.8893 164.249L47.233 165.09C42.0188 166.032 39.3819 167.367 37.3611 170.088C34.8189 173.511 35.8091 174.18 41.4251 172.834C45.7079 171.807 46.9302 171.163 49.4504 168.603C52.6211 165.382 55.0483 164.835 59.0141 166.446C61.5049 167.459 62.2159 167.219 64.3438 164.651C65.4684 163.295 67.1018 162.26 68.519 162.007C71.0517 161.554 76.5798 161.892 76.691 162.507C76.7289 162.717 75.9208 164.376 74.896 166.193L73.0321 169.497L66.1168 170.76C58.3667 172.175 51.9361 174.927 49.8502 177.719L48.5016 179.525L51.4994 181.419C55.1126 183.703 60.6738 184.111 64.788 182.394C66.8961 181.515 68.3739 179.983 70.8248 176.14C73.5093 171.929 74.5861 170.873 77.059 170.03C83.917 167.692 85.2231 165.738 82.0204 162.609L80.0224 160.657L82.2186 155.157C85.8483 146.069 90.1293 136.986 95.588 126.793C101.783 115.227 107.859 101.845 108.896 97.4817C109.312 95.7308 109.332 90.2191 108.94 85.1562L108.232 75.9987L110.95 72.8047C112.445 71.0482 113.565 69.0397 113.439 68.3409C113.313 67.6422 111.713 66.0582 109.885 64.8196L106.56 62.5689L104.659 54.8091C103.614 50.542 102.331 45.8487 101.808 44.3795L100.857 41.709L103.746 41.1871C105.335 40.9 107.147 40.1268 107.772 39.4681C108.845 38.3405 108.772 38.1567 106.49 36.2617C103.861 34.0786 100.301 32.7147 98.2105 33.0902C97.1148 33.2867 95.9559 31.273 91.3928 21.2474C85.2511 7.75212 84.5474 6.63621 80.4755 3.93462C73.9937 -0.365918 63.3997 -1.0281 54.9458 2.33886ZM104.326 36.7649C105.925 38.3512 105.225 39.3735 102.151 39.948C100.229 40.3065 99.0977 39.0564 98.5053 35.9202C98.3035 34.8538 98.6058 34.7287 100.621 35.0476C101.913 35.2522 103.581 36.0249 104.326 36.7649ZM97.2546 37.8993C98.8027 40.6423 98.5964 41.0555 95.0582 42.2974C88.7137 44.523 80.3672 53.2073 78.4478 59.5782C76.92 64.6506 77.6952 65.0896 85.0996 63.3448C92.2259 61.6654 95.8019 61.5885 101.334 62.9948L105.134 63.9613L105.925 69.5491L106.716 75.1371L101.137 77.7882C94.4097 80.9858 87.4192 82.4444 80.3529 82.1256C71.975 81.7467 71.7028 80.2656 78.7927 73.6244L81.6973 70.9038L84.2396 74.4351C87.656 79.1788 90.125 80.0197 94.0785 77.7865C97.4602 75.8756 99.8082 71.4494 98.9458 68.6083C98.4824 67.0829 97.77 66.7402 94.5537 66.4943C89.6452 66.12 83.3875 67.7698 80.0462 70.3191C76.3456 73.1433 71.5305 79.463 71.8275 81.1064C72.6296 85.5463 89.7029 84.674 100.717 79.631C103.727 78.2527 106.349 77.2361 106.545 77.3721C106.741 77.508 107.139 81.8041 107.43 86.9185C107.895 95.075 107.739 96.8509 106.168 101.359C104.008 107.559 100.463 115.044 93.6016 127.898C90.7728 133.196 86.2806 142.535 83.6184 148.651C79.4221 158.29 78.535 159.788 76.9456 159.914C75.9378 159.994 73.0193 160.219 70.4613 160.415C66.1705 160.743 65.6333 160.964 63.5435 163.252C61.5133 165.477 61.1293 165.644 59.8438 164.866C59.0541 164.388 57.2925 163.963 55.928 163.921L53.4464 163.844L55.4562 160.404C59.0991 154.168 58.9998 147.986 55.1748 142.9C53.3192 140.433 53.8135 139.98 60.3983 138.108C65.1199 136.765 65.5987 136.762 67.0123 138.069C67.856 138.85 68.867 139.181 69.2773 138.812C70.3252 137.869 69.8692 136.179 68.4335 135.684C67.765 135.454 65.7368 132.137 63.9267 128.312C60.8081 121.726 60.479 120.491 57.6653 104.843C54.9021 89.4693 54.7387 87.8192 55.3084 81.0145C56.6465 65.0225 61.9606 53.5648 71.1305 46.8979C77.4988 42.2684 81.7889 40.0167 87.9075 38.0912C96.053 35.528 95.9179 35.5304 97.2546 37.8993ZM101.344 48.8214C103.131 54.1142 104.906 61.4421 104.42 61.5298C104.306 61.5505 102.111 61.1906 99.5434 60.7306C95.8427 60.0667 93.2797 60.1766 87.1718 61.2604C78.5261 62.7945 78.4507 62.7459 80.9301 57.2243C83.6144 51.2479 92.2789 43.8455 97.1846 43.3374C99.3804 43.1104 99.444 43.1944 101.344 48.8214ZM96.0622 68.3645C98.2626 69.0766 98.332 70.7179 96.2869 73.669C94.9384 75.6142 93.8588 76.3232 91.6311 76.7257C88.3468 77.319 87.4164 76.7504 85.145 72.7617C83.6831 70.1941 83.6439 69.8889 84.708 69.3495C86.461 68.4613 94.268 67.7837 96.0622 68.3645ZM110.835 70.5811C110.062 71.7751 109.156 72.8013 108.823 72.8615C108.49 72.9216 107.876 71.0779 107.458 68.7644L106.698 64.5579L109.47 66.4839L112.242 68.4101L110.835 70.5811ZM47.5182 139.943C49.0956 140.585 47.984 141.343 43.4297 142.732C40.7993 143.533 38.8636 143.724 37.5801 143.309C35.7424 142.714 35.7186 142.654 37.0099 141.859C38.8601 140.721 46.1591 139.39 47.5182 139.943ZM49.1509 166.925C48.5621 168.423 44.165 170.95 41.2217 171.482C37.529 172.149 37.3094 170.842 40.7759 168.83C43.5064 167.246 49.5664 165.867 49.1509 166.925ZM81.9396 166.411C81.4041 166.905 79.6889 167.545 78.129 167.834C75.0726 168.398 75.0779 168.444 77.6255 163.928C78.4335 162.495 78.5875 162.497 80.6944 163.966C82.5758 165.277 82.765 165.649 81.9396 166.411ZM70.169 175.007C67.4821 179.842 66.5717 180.545 61.9045 181.388C58.1201 182.072 53.656 181.365 51.7807 179.787C49.373 177.76 56.1825 174.369 66.9517 172.233L72.3004 171.172L70.169 175.007ZM172.626 157.601L176.721 157.775L177.024 162.339C177.396 167.961 176.979 169.333 174.256 171.431C166.571 177.353 155.839 179.102 144.856 176.221C141.596 175.366 141.927 174.168 146.231 171.256C152.133 167.263 154.409 166.512 155.33 168.256C155.745 169.042 157.095 170.524 158.329 171.55C162.484 175 168.98 172.017 170.507 165.957C171.752 161.02 170.789 160.688 161.798 162.954L154.346 164.832L154.015 163C153.745 161.509 154.171 160.929 156.293 159.895C159.354 158.404 166.828 157.354 172.626 157.601ZM169.354 164.079C169.921 167.22 165.975 171.332 162.267 171.465C160.721 171.521 156.447 168.081 156.172 166.559C156.071 165.999 159.352 164.971 166.026 163.47C168.553 162.902 169.161 163.013 169.354 164.079ZM197.985 226.154C197.097 227.729 196.673 227.809 194.646 226.781C193.133 226.014 193.212 225.926 195.863 225.425C198.302 224.963 198.599 225.065 197.985 226.154ZM230.071 241.82C232.714 242.934 235.926 244.262 237.207 244.77C240.969 246.263 239.12 247.572 234.238 246.873C230.963 246.405 229.159 246.593 225.068 247.833C222.267 248.682 214.704 250.381 208.26 251.607C201.314 252.93 195.508 254.402 193.996 255.223C192.055 256.278 191.032 256.475 189.712 256.048C188.755 255.738 188.21 255.158 188.495 254.752C189.761 252.953 199.136 246.642 202.555 245.288C205.928 243.952 206.701 243.905 209.875 244.834L213.425 245.874L216.685 243.35C221.375 239.719 224.293 239.386 230.071 241.82ZM220.736 258.403C221.07 258.956 221.14 260.734 220.891 262.354C220.526 264.724 220.032 265.424 218.365 265.932C214.716 267.043 202.727 264.973 202.402 263.174C202.135 261.696 203.766 261.132 217.113 258.086C219.191 257.612 220.315 257.71 220.736 258.403Z" fill="#181B5E"/>
</svg>
