<svg width="148" height="226" viewBox="0 0 148 226" fill="none" xmlns="http://www.w3.org/2000/svg">
    <path d="M47.4002 66.3002C46.9002 66.5002 46.4002 67.0002 46.0002 67.3002C45.8002 67.4002 45.5002 67.5002 45.4002 67.8002C44.6002 68.1002 43.8002 69.0002 43.3002 69.7002C43.3002 70.0002 43.0002 70.3002 43.0002 70.6002C42.7002 70.5002 42.3002 70.7002 42.2002 71.2002C42.3002 71.5002 42.3002 71.7002 42.5002 72.0002C42.7002 72.2002 43.1002 72.3002 43.3002 72.6002C43.4002 72.7002 43.5002 72.9002 43.6002 73.0002C43.8002 73.2002 44.1002 73.3002 44.3002 73.5002C44.4002 73.6002 44.4002 73.7002 44.5002 73.8002C44.6002 73.9002 44.7002 73.9002 44.8002 73.9002C44.9002 74.0002 45.0002 74.1002 45.1002 74.2002C45.2002 74.3002 45.3002 74.3002 45.4002 74.3002C46.0002 74.8002 46.5002 75.5002 47.2002 75.6002C47.2002 75.9002 47.6002 75.9002 47.7002 76.0002C48.0002 76.2002 48.2002 76.5002 48.4002 76.6002C48.5002 76.6002 48.6002 76.6002 48.7002 76.6002C48.8002 76.7002 48.9002 76.8002 49.0002 76.8002C49.1002 76.8002 49.3002 76.8002 49.4002 76.9002C49.6002 77.0002 49.9002 77.1002 50.2002 77.2002C50.9002 77.5002 51.7002 77.6002 52.5002 78.0002C52.7002 78.1002 52.9002 78.2002 53.1002 78.3002C53.5002 78.5002 53.8002 78.4002 54.2002 78.5002C54.6002 78.6002 54.9002 78.8002 55.3002 78.8002C55.4002 78.8002 55.5002 78.8002 55.6002 78.8002C55.8002 78.9002 56.0002 79.0002 56.2002 79.0002C56.6002 79.0002 57.0002 79.0002 57.4002 79.2002C57.6002 79.0002 57.8002 79.3002 58.0002 79.1002C58.5002 79.4002 59.2002 79.4002 59.7002 79.2002C60.0002 79.3002 60.4002 79.3002 60.8002 79.2002C61.3002 79.4002 61.9002 79.3002 62.4002 79.2002C63.5002 79.1002 64.8002 79.0002 65.7002 78.8002C66.0002 78.7002 66.2002 78.6002 66.5002 78.6002C67.1002 78.5002 67.8002 78.4002 68.4002 78.2002C68.5002 78.2002 68.5002 78.1002 68.6002 78.0002C69.0002 77.8002 69.7002 77.8002 70.1002 77.5002C70.4002 77.3002 70.8002 77.3002 71.1002 77.1002C71.4002 77.0002 71.5002 76.8002 71.7002 76.7002C72.3002 76.3002 73.0002 76.0002 73.6002 75.7002C74.0002 75.4002 74.5002 75.1002 74.9002 74.9002C75.1002 74.8002 75.3002 74.6002 75.4002 74.6002C75.5002 74.6002 75.6002 74.6002 75.7002 74.6002C75.9002 74.5002 76.1002 74.3002 76.4002 74.1002C76.8002 73.9002 77.1002 73.8002 77.3002 73.6002C77.4002 73.5002 77.5002 73.1002 77.4002 72.8002C77.5002 72.6002 77.5002 72.4002 77.5002 72.3002C77.5002 72.0002 77.2002 71.8002 77.1002 71.5002C76.3002 70.8002 75.6002 70.0002 74.8002 69.4002C74.3002 69.0002 73.9002 68.6002 73.4002 68.2002C73.3002 68.1002 73.1002 68.0002 72.9002 67.9002C72.4002 67.5002 72.0002 67.1002 71.6002 67.0002C71.3002 66.9002 71.1002 66.7002 70.8002 66.5002C70.4002 66.3002 70.0002 66.2002 69.6002 66.0002C69.2002 65.5002 68.3002 65.3002 67.7002 65.0002C66.4002 64.2002 64.6002 64.1002 63.2002 63.6002C62.8002 63.6002 62.3002 63.5002 62.0002 63.4002C61.8002 63.3002 61.6002 63.4002 61.4002 63.4002C60.8002 63.4002 60.2002 63.2002 59.6002 63.2002C59.5002 63.2002 59.3002 63.3002 59.2002 63.3002C59.1002 63.3002 59.0002 63.2002 58.8002 63.2002C58.6002 63.2002 58.4002 63.3002 58.1002 63.3002C57.4002 63.4002 56.8002 63.5002 56.2002 63.4002C55.9002 63.6002 55.5002 63.6002 55.2002 63.6002C54.8002 63.7002 54.3002 63.6002 53.9002 63.8002C53.8002 63.8002 53.7002 63.9002 53.6002 64.0002C53.2002 64.2002 52.6002 64.2002 52.2002 64.3002C51.9002 64.4002 51.7002 64.5002 51.5002 64.6002C51.4002 64.6002 51.3002 64.6002 51.2002 64.6002C50.9002 64.7002 50.7002 64.9002 50.4002 65.0002C49.9002 65.2002 49.4002 65.4002 48.9002 65.7002C48.8002 65.7002 48.9002 65.9002 48.8002 65.9002C48.1002 66.1002 47.8002 66.1002 47.4002 66.3002ZM68.1002 67.3002C68.2002 67.3002 68.3002 67.3002 68.4002 67.3002C68.9002 67.4002 69.3002 67.9002 69.8002 68.1002C70.2002 68.2002 70.4002 68.5002 70.7002 68.7002C70.9002 68.8002 71.2002 68.9002 71.4002 69.0002C72.1002 69.3002 72.6002 69.8002 73.1002 70.2002C73.5002 70.5002 73.9002 70.8002 74.2002 71.2002C74.3002 71.4002 74.5002 71.5002 74.6002 71.6002C74.6002 71.7002 74.6002 71.8002 74.7002 71.9002C74.8002 72.1002 75.1002 72.3002 75.2002 72.5002C74.6002 73.1002 73.9002 73.6002 73.2002 74.0002C72.7002 74.3002 72.2002 74.5002 71.7002 74.8002C71.6002 74.9002 71.4002 75.0002 71.3002 75.1002C70.8002 75.3002 70.3002 75.4002 70.0002 75.7002C69.8002 75.9002 69.5002 75.9002 69.2002 76.0002C68.8002 76.2002 68.5002 76.4002 68.1002 76.5002C67.5002 76.4002 66.9002 76.9002 66.2002 76.9002C64.8002 77.0002 63.4002 77.7002 62.0002 77.5002C61.8002 77.6002 61.5002 77.6002 61.3002 77.6002C61.5002 77.5002 61.6002 77.5002 61.8002 77.4002C62.3002 77.2002 62.9002 77.0002 63.4002 76.7002C63.5002 76.6002 63.6002 76.5002 63.8002 76.4002C64.1002 76.2002 64.4002 76.1002 64.6002 75.9002C65.1002 75.4002 65.4002 74.8002 65.9002 74.3002C65.9002 74.2002 65.9002 74.2002 65.9002 74.2002C65.9002 74.1002 66.0002 74.0002 66.0002 73.9002C66.1002 73.8002 66.2002 73.6002 66.2002 73.4002C66.8002 72.8002 67.0002 71.6002 66.9002 70.8002C67.0002 70.4002 67.0002 69.6002 66.9002 69.1002C67.0002 68.3002 66.7002 67.4002 66.2002 66.6002C66.1002 66.4002 66.0002 66.3002 65.9002 66.1002C66.1002 66.2002 66.3002 66.2002 66.5002 66.3002C67.0002 66.7002 67.5002 67.1002 68.1002 67.3002ZM58.9002 68.5002C58.9002 68.0002 58.9002 67.5002 59.2002 67.1002C59.5002 66.9002 59.6002 66.6002 59.9002 66.3002C60.2002 66.0002 60.5002 65.8002 60.8002 65.7002C61.6002 65.5002 62.3002 65.4002 63.0002 65.7002C63.7002 66.0002 64.4002 66.8002 64.7002 67.6002C65.0002 68.0002 65.1002 68.5002 65.1002 69.0002C65.1002 69.2002 65.2002 69.5002 65.3002 69.7002C65.4002 70.4002 65.1002 71.2002 65.0002 71.8002C65.0002 72.0002 65.0002 72.1002 64.9002 72.3002C64.9002 72.5002 64.7002 72.5002 64.7002 72.7002C64.7002 72.7002 64.7002 72.8002 64.6002 72.8002C64.4002 72.9002 64.2002 73.2002 64.0002 73.2002C63.7002 73.5002 63.3002 73.7002 62.8002 73.7002C62.3002 73.7002 61.7002 73.5002 61.3002 73.3002C60.7002 73.0002 60.2002 72.5002 59.8002 71.9002C59.7002 71.7002 59.5002 71.6002 59.4002 71.4002C59.1002 70.8002 59.1002 70.1002 58.9002 69.7002C58.8002 69.3002 58.9002 68.9002 58.9002 68.5002ZM55.8002 65.2002C55.9002 65.2002 56.0002 65.1002 56.1002 65.1002C56.3002 65.1002 56.5002 65.1002 56.7002 65.1002C57.1002 65.0002 57.5002 64.9002 57.9002 65.0002C58.1002 64.8002 58.2002 65.0002 58.4002 64.8002C58.5002 64.9002 58.7002 64.9002 58.8002 64.9002C58.5002 65.1002 58.3002 65.4002 58.1002 65.7002C58.0002 65.8002 58.0002 66.0002 58.0002 66.1002C57.7002 66.8002 57.2002 67.7002 57.2002 68.5002C57.2002 69.1002 57.1002 69.6002 57.3002 70.2002C57.4002 70.6002 57.6002 71.0002 57.8002 71.3002C58.3002 72.3002 58.9002 73.3002 59.7002 74.0002C60.3002 74.5002 61.1002 74.9002 61.8002 75.1002C62.1002 75.2002 62.3002 75.2002 62.6002 75.3002C62.4002 75.5002 62.1002 75.6002 61.8002 75.7002C61.3002 75.9002 60.7002 76.0002 60.2002 76.1002C60.1002 76.1002 60.0002 76.2002 59.8002 76.3002C59.2002 76.4002 58.5002 76.4002 58.0002 76.3002C57.7002 76.3002 57.3002 76.3002 57.0002 76.2002C56.9002 76.2002 56.7002 76.1002 56.6002 76.0002C56.2002 75.9002 55.8002 75.9002 55.5002 75.7002C54.9002 75.4002 54.3002 75.0002 53.8002 74.6002C53.7002 74.5002 53.6002 74.7002 53.6002 74.6002C53.4002 74.2002 53.2002 73.8002 53.0002 73.4002C52.7002 72.8002 52.3002 72.1002 52.2002 71.4002C52.2002 71.1002 52.3002 70.7002 52.1002 70.4002C52.2002 69.8002 52.3002 69.3002 52.5002 68.7002C52.7002 68.1002 52.8002 67.5002 53.1002 67.0002C53.1002 66.8002 53.2002 66.6002 53.3002 66.4002C53.4002 66.2002 53.5002 66.0002 53.5002 65.8002C53.6002 65.8002 53.7002 65.8002 53.8002 65.8002C54.2002 65.7002 54.5002 65.6002 54.8002 65.5002C55.1002 65.2002 55.5002 65.3002 55.8002 65.2002ZM48.7002 67.7002C49.0002 67.6002 49.3002 67.6002 49.5002 67.4002C49.6002 67.4002 49.6002 67.2002 49.7002 67.2002C49.8002 67.1002 49.9002 67.2002 50.0002 67.1002C50.1002 67.0002 50.2002 66.9002 50.3002 66.9002C50.5002 66.8002 50.8002 66.7002 51.0002 66.6002C51.0002 66.6002 51.1002 66.6002 51.1002 66.5002C51.0002 66.6002 51.0002 66.7002 50.9002 66.8002C50.7002 67.2002 50.7002 67.6002 50.5002 68.1002C50.5002 68.3002 50.3002 68.5002 50.3002 68.7002C50.3002 68.9002 50.3002 69.1002 50.3002 69.3002C50.3002 69.5002 50.2002 69.7002 50.2002 70.0002C50.2002 70.2002 50.3002 70.3002 50.3002 70.5002C50.3002 71.7002 50.4002 73.2002 51.1002 74.0002C51.0002 74.4002 51.4002 74.7002 51.7002 75.0002C51.9002 75.2002 52.0002 75.5002 52.2002 75.7002C52.4002 75.9002 52.5002 76.2002 52.7002 76.3002C52.8002 76.4002 53.0002 76.4002 53.1002 76.5002C53.2002 76.6002 53.3002 76.7002 53.4002 76.8002C53.0002 76.7002 52.5002 76.5002 52.3002 76.3002C52.1002 76.2002 51.8002 76.2002 51.6002 76.1002C51.5002 76.1002 51.4002 75.9002 51.3002 75.9002C51.1002 75.8002 50.7002 75.8002 50.5002 75.6002C50.1002 75.3002 49.6002 75.2002 49.2002 74.9002C49.1002 74.8002 49.1002 75.0002 49.0002 75.0002C48.8002 74.8002 48.6002 74.5002 48.3002 74.3002C47.9002 74.0002 47.3002 73.8002 46.9002 73.5002C46.7002 73.4002 46.6002 73.1002 46.3002 73.1002C45.9002 72.5002 45.0002 71.8002 44.4002 71.4002C44.5002 71.3002 44.5002 71.1002 44.6002 71.0002C44.7002 70.9002 44.9002 70.9002 45.0002 70.8002C45.2002 70.6002 45.3002 70.4002 45.5002 70.2002C45.6002 70.1002 45.7002 70.1002 45.8002 70.0002C45.9002 69.9002 45.9002 69.8002 46.0002 69.7002C46.1002 69.6002 46.2002 69.6002 46.4002 69.5002C46.5002 69.4002 46.5002 69.3002 46.6002 69.3002C47.1002 68.9002 47.9002 68.7002 48.3002 68.2002C48.4002 68.1002 48.5002 67.8002 48.7002 67.7002Z" fill="#292E31"/>
    <path d="M146.5 57.0998C146.3 56.8998 146.1 56.5998 145.9 56.3998C145.7 56.1998 145.5 55.9998 145.4 55.7998C143.7 54.2998 141.7 53.2998 139.7 52.3998C137.7 51.5998 135.6 50.9998 133.5 50.6998C131 50.2998 128.3 50.1998 125.6 50.3998C124.8 50.4998 124 50.5998 123.3 50.7998C120.8 51.1998 118.6 51.9998 117 52.8998C115.9 53.5998 114.7 54.0998 113.6 55.0998C112.2 56.1998 111 57.6998 109.9 59.0998C108.2 60.7998 106.7 64.1998 105.7 66.7998C104.6 69.7998 104.1 73.0998 104.2 76.3998C104.3 79.6998 104.8 82.9998 105.5 86.0998C106 87.6998 106.5 89.4998 107 90.8998C107.3 91.6998 107.7 92.3998 108 93.1998C109 95.2998 110 97.6998 110.9 99.6998C111.1 100.2 111.4 100.6 111.6 101.1C111.8 101.6 111.9 102 112 102.5C112.1 102.9 112.3 103.3 112.4 103.7C112.5 104.1 112.7 104.5 112.8 104.9C113.5 107.3 113.6 109.4 113 111.2L112.9 111.3L112.8 111.2L112.7 111.3C112.5 111.3 112.2 111.1 112.1 111.4C112 111.2 112 111.3 111.9 111.4C111.8 111.4 111.7 111.3 111.6 111.3V111.4C111.6 111.4 111.5 111.3 111.5 111.4C111.5 111.4 111.5 111.5 111.4 111.5C111.3 111.6 111.3 111.5 111.2 111.6C111 111.7 110.9 111.9 110.7 112C110.6 112 110.6 112 110.5 112C110.4 112 110.4 112.2 110.3 112.3C110.2 112.4 110.1 112.3 110 112.4V112.5C110 112.5 109.9 112.5 109.8 112.5C109.7 112.6 109.7 112.8 109.6 112.7C109.7 112.9 109.5 112.8 109.6 112.9C109.4 112.8 109.3 113 109.3 113.2C109.2 113.2 109.1 113.3 109.2 113.4C109 113.3 109 113.5 108.9 113.7C108.8 113.9 108.6 114.1 108.5 114.3C108.5 114.4 108.5 114.4 108.4 114.5C108.3 114.6 108.1 114.7 108.1 114.9L108.2 115C108.2 115.1 108 115.2 108 115.3C108 115.4 107.9 115.4 107.9 115.5C107.9 115.6 108 115.6 108 115.7C108.1 115.9 108 116 107.9 116.2C107.9 116.3 107.9 116.4 107.9 116.6C107.9 116.7 107.9 116.7 107.9 116.7C107.9 116.7 107.8 116.7 107.8 116.8C107.8 116.9 107.8 116.9 107.8 117C107.8 117.1 107.6 117.2 107.7 117.3H107.8C107.5 117.5 107.2 117.6 106.9 117.8C106.6 117.9 106.2 118.2 105.8 118.3C105 118.6 104 118.8 103.1 118.9C102.2 119 101.2 119 100.6 118.9C99.6002 118.8 98.5002 118.8 97.5002 118.7C97.4002 118.7 97.3002 118.7 97.3002 118.6C97.3002 118.6 97.3002 118.6 97.4002 118.6C97.6002 118.4 97.9002 118.5 98.1002 118.3C98.4002 118.1 98.7002 117.9 99.0002 117.7C99.5002 117.7 100 117.1 100.5 116.8C101.1 116.5 101.6 116 101.9 115.2C102.3 114.5 102.4 113.5 102.2 112.6C102 112.2 101.8 111.8 101.6 111.4C101.5 111.2 101.3 111.1 101.1 111C100.7 110.7 100.2 110.2 99.7002 110.1C99.6002 110.1 99.4002 110.1 99.3002 110.1C99.2002 110.1 99.1002 110 99.0002 109.9C98.8002 109.9 98.6002 109.9 98.4002 109.9C97.8002 109.9 97.3002 110 96.8002 109.9C96.6002 110 96.3002 110 96.0002 110.1C95.7002 110.1 95.3002 110.1 95.0002 110.2C94.9002 110.2 94.9002 110.3 94.8002 110.4C94.5002 110.5 94.0002 110.6 93.7002 110.7C93.5002 110.7 93.3002 110.9 93.1002 111C93.0002 111 92.9002 111 92.8002 111C92.6002 111.1 92.4002 111.3 92.2002 111.4C91.8002 111.5 91.4002 111.8 91.1002 112C91.0002 112 91.2002 112.2 91.1002 112.2C90.8002 112.2 90.6002 112.3 90.3002 112.4C89.9002 112.6 89.6002 113 89.2002 113.2C89.0002 113.3 88.8002 113.3 88.7002 113.6C88.1002 113.8 87.5002 114.5 87.1002 115.1C87.1002 115.2 87.1002 115.3 87.0002 115.4C86.8002 115.3 86.7002 115.2 86.5002 115.2C86.1002 114.9 86.3002 115.3 85.9002 115C84.9002 114.3 83.9002 113.4 83.2002 112.3C82.7002 111.4 82.3002 110.5 82.2002 109.5C82.1002 108.5 82.5002 107.4 83.1002 106.5C83.6002 105.6 84.4002 104.9 84.9002 104.2C86.0002 103.2 87.6002 102.1 89.3002 101.2C91.0002 100.3 92.9002 99.6998 94.5002 99.3998C95.4002 98.9998 97.2002 98.9998 98.0002 98.7998C99.3002 98.8998 100.4 98.9998 101 98.8998C101.6 98.7998 101.7 98.4998 100.9 97.9998C99.8002 97.5998 99.1002 97.3998 97.8002 97.2998C96.4002 97.1998 95.0002 97.5998 93.7002 97.7998C93.0002 97.8998 92.4002 97.9998 91.8002 98.1998C90.8002 98.4998 89.7002 98.9998 88.7002 99.4998C88.2002 99.7998 87.7002 99.8998 87.3002 100.2C86.9002 100.5 86.6002 100.8 86.2002 101.1C85.7002 101.4 85.2002 101.8 84.7002 102.2C84.4002 102.5 84.1002 102.9 83.8002 103.2C82.7002 104.4 81.5002 105.7 80.9002 107.4C80.2002 109.1 80.5002 111.1 81.3002 112.4C81.5002 113.4 82.5002 114.3 83.2002 115C84.3002 116 85.4002 116.9 86.6002 117.4C87.0002 117.6 87.3002 117.7 87.7002 117.8C88.2002 118 88.6002 118.3 89.1002 118.5C89.6002 118.7 90.1002 118.8 90.6002 118.9C90.9002 119 91.1002 119.1 91.4002 119.2C91.4002 119.2 91.4002 119.2 91.5002 119.3H91.6002C92.3002 119.5 93.1002 119.8 93.8002 120C96.9002 120.8 100.2 121.3 103.8 120.8C104.8 120.7 105.7 120.5 106.6 120.2C108.2 119.7 109.6 118.8 110.8 117.7C112 116.7 113.2 115.4 113.9 113.8C114 113.6 114.1 113.4 114.1 113.2C114.2 113 114.2 112.8 114.3 112.5C114.5 112.1 114.6 111.6 114.7 111.2C114.8 110.8 114.9 110.3 114.9 109.9C115 108 114.6 106.3 114.3 104.6C113.9 104 113.9 103.1 113.4 102.3C112.9 100.2 111.5 97.3998 110.6 95.7998C110.1 94.6998 109.4 92.9998 108.8 91.7998C108.2 89.7998 107.3 87.5998 106.7 85.3998C106.1 83.0998 105.7 80.6998 105.6 78.3998C105.5 76.0998 105.6 73.8998 105.9 72.0998C106.1 70.9998 106.2 69.9998 106.5 68.9998C106.8 67.7998 107.3 66.5998 107.9 65.3998C108.5 64.1998 109.1 62.9998 109.7 61.9998C109.9 61.6998 110 61.3998 110.2 61.0998C111.3 59.3998 113.1 57.6998 114.7 56.3998C115.9 55.3998 117.1 54.8998 118.5 54.2998C119 54.0998 119.5 53.8998 119.9 53.6998C120.4 53.4998 120.8 53.3998 121.3 53.1998C124.1 52.2998 127.1 52.0998 129.9 52.2998C131.9 52.3998 134.1 52.6998 136 53.2998C136.8 53.4998 137.7 53.7998 138.4 54.0998C138.7 54.1998 139 54.3998 139.2 54.5998C139.5 54.7998 140 54.9998 140.5 55.2998C141 55.4998 141.5 55.8998 142 56.1998C143.3 57.0998 144.2 58.1998 144.8 58.7998C145 58.9998 145.2 59.1998 145.5 59.3998C145.7 59.5998 146 59.7998 146.2 59.9998C146.7 60.3998 147.2 60.6998 147.3 60.6998C147.6 60.5998 147.5 59.5998 147.1 58.7998C147.4 58.0998 146.9 57.5998 146.5 57.0998ZM89.0002 116.2H89.1002C89.2002 116.1 89.3002 115.9 89.4002 115.7C89.5002 115.6 89.6002 115.6 89.6002 115.6C89.7002 115.5 89.6002 115.4 89.7002 115.4C89.8002 115.3 89.9002 115.3 90.0002 115.3C90.1002 115.3 90.1002 115.2 90.1002 115.1C90.5002 114.8 91.1002 114.6 91.4002 114.2C91.7002 114.3 91.7002 114.1 91.9002 114C92.1002 113.9 92.4002 113.9 92.5002 113.8C92.6002 113.8 92.6002 113.7 92.6002 113.6C92.7002 113.6 92.8002 113.6 92.9002 113.6C93.0002 113.6 93.0002 113.4 93.1002 113.4C93.2002 113.3 93.4002 113.2 93.6002 113.1C94.1002 112.8 94.5002 112.5 95.1002 112.4C95.3002 112.4 95.4002 112.4 95.6002 112.4C95.9002 112.4 96.1002 112.2 96.3002 112.1C96.5002 112 96.8002 112.1 97.1002 112C97.2002 112 97.2002 111.9 97.3002 111.9C97.4002 111.9 97.6002 112 97.7002 112C98.0002 111.9 98.3002 111.8 98.5002 112C98.6002 111.8 98.7002 112 98.9002 111.9C99.2002 112.2 99.6002 112.2 99.9002 112.2C100 112.3 100.2 112.5 100.4 112.6C100.4 113 100.7 113.2 100.8 113.5C101 114.1 100.6 114.8 100.2 115.3C100.1 115.4 100 115.6 99.8002 115.7C99.4002 115.9 99.0002 116.1 98.6002 116.4C98.6002 116.4 98.5002 116.5 98.5002 116.6C98.2002 116.8 97.8002 116.9 97.4002 117.1C97.2002 117.2 96.9002 117.2 96.7002 117.3C96.5002 117.4 96.4002 117.5 96.2002 117.6C95.7002 117.8 95.2002 117.8 94.7002 117.8C94.3002 117.8 93.9002 117.9 93.6002 117.8C93.4002 117.8 93.3002 117.8 93.1002 117.7C93.1002 117.7 93.0002 117.6 92.9002 117.5C92.8002 117.4 92.5002 117.5 92.3002 117.4C92.0002 117.3 91.8002 117.1 91.7002 117.1C91.6002 117.1 91.6002 117.1 91.5002 117.2C90.8002 116.9 89.9002 116.6 89.0002 116.2ZM111.3 115.2C110.9 115.6 110.5 116 110 116.3C110 116.2 110.2 116.2 110 116.1C109.9 116 110 116 110 116C110 115.9 109.9 115.8 109.9 115.8C110.2 115.8 110 115.6 110.1 115.5C110.4 115.4 110.2 115 110.5 114.9C110.4 114.8 110.6 114.8 110.6 114.8V114.7C110.6 114.6 110.8 114.6 110.8 114.5V114.4H110.9V114.3C111 114.2 111 114.1 111.2 114.1C111.2 114 111.2 114 111.3 113.9C111.4 113.9 111.5 113.9 111.5 113.8V113.7C111.5 113.6 111.7 113.6 111.7 113.6C111.7 113.6 111.7 113.5 111.8 113.5H111.9L112 113.3C112.1 113.3 112.2 113.2 112.3 113.2C112.3 113.2 112.3 113 112.3 113.1C112.4 113.2 112.5 113.3 112.5 113.3C112.4 113.4 112.4 113.6 112.3 113.7C112.1 114.2 111.7 114.8 111.3 115.2Z" fill="#292E31"/>
    <path d="M124.4 171.1C124.3 170.7 124.2 170.3 124.1 169.9C124 169.5 123.9 169 123.7 168.6C123.5 168.2 123.4 167.8 123.2 167.3C122.4 165.5 121.5 164.1 120.6 163.1L120.5 163C120.4 162.9 120.3 162.8 120.2 162.7C117.5 160 113.9 158.1 110.5 157.3C108.3 156.7 105.9 156.4 103.5 156.5C102.8 156.5 102.1 156.6 101.4 156.7C99.1996 156.9 97.1996 157.3 95.6996 157.8C94.6996 158.2 93.4996 158.4 92.3996 158.9C90.8996 159.5 89.4996 160.2 88.0996 160.9C87.8996 161 87.7996 161 87.5996 161.1C87.6996 160.9 87.7996 160.8 87.8996 160.6C88.8996 158.9 89.9996 157.1 91.0996 155.3C91.2996 155.3 91.5996 155.4 91.7996 155.4C92.4996 155.8 93.4996 155.8 94.3996 155.9C94.9996 156 95.5996 156.1 96.1996 156.1C96.7996 156.2 97.3996 156.2 97.9996 156.2C98.3996 156.2 98.6996 156.1 98.9996 156.1C99.4996 156.1 99.8996 156.1 100.4 156.1C100.9 156.1 101.3 155.9 101.8 155.8C102.7 155.6 103.8 155.4 104.8 155.2C107.6 154.4 110.3 153.2 112.9 151.4C113.6 150.9 114.3 150.5 115 150C116.2 149.1 117 148 117.9 146.9C118.3 146.3 118.7 145.8 119.1 145.2C119.3 144.9 119.5 144.6 119.7 144.3C119.9 144 120.1 143.7 120.2 143.3C120.3 143 120.4 142.7 120.4 142.3L120.5 142C120.6 141.7 120.7 141.3 120.7 140.8C120.8 140.2 120.8 139.6 120.6 139.2C120.5 139 120.2 138.8 120 138.7C119.9 138.7 119.8 138.6 119.7 138.6V138.5C119.5 138.1 119.1 137.7 118.9 137.3C118.8 137.1 118.8 136.8 118.7 136.6C118.5 136.3 118.2 136 118 135.6C117.9 135.4 117.9 135.2 117.8 135.1C117.7 135 117.5 134.9 117.4 134.7C117.3 134.5 117.2 134.3 117.1 134.1C117 134 116.9 133.9 116.8 133.8C116.1 132.9 115.4 131.7 114.4 131.2C114.3 130.8 113.8 130.7 113.5 130.5C113.1 130.2 112.7 129.8 112.2 129.6C112.1 129.5 111.9 129.6 111.7 129.5C111.5 129.4 111.4 129.3 111.2 129.2C111 129.1 110.8 129.1 110.6 129.1C110.2 129 109.7 128.9 109.3 128.8C108 128.6 106.7 128.8 105.4 129.2C105 129.3 104.7 129.4 104.3 129.5C103.7 129.8 103.3 130.1 102.9 130.4C102.5 130.6 102.1 130.6 101.8 130.6C101.7 130.6 101.6 130.6 101.5 130.6C101.3 130.5 101.2 130.3 100.9 130.2C100.4 129.9 99.6996 129.6 99.1996 129.2C98.8996 129.3 98.5996 129 98.2996 129C97.5996 128.5 96.2996 128.4 95.5996 128.6C95.0996 128.5 94.3996 128.6 93.8996 128.7C93.0996 128.6 92.1996 128.9 91.3996 129.1C89.6996 129.6 87.8996 130.2 86.5996 130.7C86.1996 130.8 85.8996 131 85.4996 131.2C84.5996 131.5 83.5996 131.9 82.7996 132.4C82.6996 132.5 82.5996 132.6 82.4996 132.7C81.8996 133.1 80.9996 133.4 80.2996 133.9C79.7996 134.3 79.3996 134.4 78.8996 134.8C78.5996 135.1 78.2996 135.3 77.9996 135.6C77.1996 136.3 76.1996 136.9 75.3996 137.6C74.7996 138.1 74.1996 138.6 73.6996 139.1C73.4996 139.3 73.1996 139.5 72.9996 139.7C72.8996 139.8 72.6996 139.8 72.5996 139.9C72.3996 140.1 71.9996 140.4 71.6996 140.8C71.1996 141.2 70.7996 141.5 70.5996 141.8C70.3996 142.1 70.2996 143 70.4996 143.2C70.3996 143.4 70.3996 143.7 70.6996 144C70.6996 144 70.6996 144 70.7996 144V144.1C71.4996 144.9 71.7996 145.4 72.5996 146.1C73.4996 146.8 74.5996 147.4 75.4996 148.1C75.9996 148.4 76.3996 148.8 76.7996 149.2C77.5996 149.7 78.4996 150.2 79.2996 150.7C79.6996 150.9 80.0996 151.3 80.3996 151.4C80.7996 151.6 81.1996 151.7 81.4996 151.9C81.9996 152.1 82.3996 152.4 82.8996 152.7C83.1996 152.9 83.5996 153 83.9996 153.1C85.6996 153.9 87.5996 154.7 89.3996 155.2C89.0996 155.6 88.8996 156 88.5996 156.4C88.0996 157.2 87.5996 158.1 87.0996 158.9C86.3996 160 85.6996 161.2 85.0996 162.5C84.9996 162.6 84.7996 162.7 84.6996 162.7L84.8996 162.9C84.7996 163.1 84.6996 163.3 84.5996 163.4L83.8996 165L85.4996 164.2C85.6996 164.1 85.7996 164 85.9996 163.9L86.1996 164.1C86.2996 164 86.2996 163.8 86.3996 163.7C86.6996 163.6 86.8996 163.4 87.1996 163.3C87.4996 163.2 87.6996 162.9 87.8996 162.8C89.4996 161.9 91.5996 161.2 93.3996 160.5C94.6996 160 95.8996 159.7 97.1996 159.4C98.1996 159.1 98.9996 158.9 99.7996 158.7C102.4 158.2 105.1 158.1 107.5 158.5C109.2 158.7 111.2 159.2 112.8 159.9C113.5 160.2 114.3 160.6 114.8 160.9C115 161 115.2 161.3 115.5 161.5C115.9 161.8 116.4 162.1 116.9 162.5C117 162.6 117.1 162.7 117.2 162.8C117.6 163.2 118.2 163.7 118.7 164.2C119.2 164.8 119.6 165.4 120 165.8C120.1 165.9 120.1 165.9 120.2 166C121.8 168 122.7 170.7 122.8 173.3C122.9 176 122.2 178.8 121 181.1C120.6 181.8 120.3 182.5 119.8 183.2C119.6 183.5 119.3 183.9 119.1 184.2L118.3 185.1L117.9 185.6L117.4 186L116.5 186.8L115.5 187.5L115 187.8C114.8 187.9 114.6 188 114.4 188.1C114 188.3 113.5 188.6 113.1 188.8C112.6 189 112.2 189.2 111.7 189.3C108.7 190.3 105.6 190.5 103.3 190.6C101.6 190.7 99.8996 190.6 97.9996 190.5C95.6996 190.3 93.1996 190.1 90.7996 189.7C87.7996 188.9 82.9996 188 79.3996 186.7C71.3996 184 62.8996 180.4 55.6996 175.2C54.6996 174.6 53.6996 173.9 52.7996 173.2C51.7996 172.5 50.9996 171.7 50.1996 171.1C49.2996 170.4 48.3996 169.8 47.3996 169C44.9996 166.9 42.2996 164.4 40.2996 162.2C39.7996 161.7 39.1996 161.2 38.6996 160.6C38.1996 160.1 37.7996 159.5 37.3996 159C36.6996 158.1 35.7996 157.2 34.9996 156.2C34.2996 155.4 33.7996 154.7 33.1996 153.9C32.6996 153.1 32.0996 152.4 31.5996 151.7C30.5996 150.3 29.7996 148.9 28.9996 147.5C28.5996 146.9 27.9996 146.1 27.4996 145.2C26.9996 144.3 26.5996 143.4 26.1996 142.5C25.6996 141.4 25.0996 140.3 24.5996 139.2C24.1996 138 23.6996 136.9 23.1996 135.7C22.9996 135.2 22.6996 134.6 22.4996 134.1C21.9996 132.9 21.6996 131.5 21.2996 130.2C20.8996 128.9 20.4996 127.6 20.3996 126.6C20.2996 126 20.0996 125.4 19.9996 124.8C21.2996 124.6 22.5996 124.1 23.6996 123.4C25.4996 122.3 26.7996 120.6 27.4996 119.1C27.8996 118.2 28.1996 117.3 28.3996 116.4C28.9996 114.3 29.0996 111.6 28.3996 109.5C28.2996 109.2 28.1996 109 28.0996 108.7C27.4996 107 26.7996 105 25.6996 103.4C24.8996 102.3 24.2996 101.3 23.4996 100.2C22.8996 99.4 22.2996 98.9 21.6996 98.3C21.2996 97.8 20.6996 97.4 20.0996 97C19.4996 96.7 18.7996 96.4 17.9996 96.6C17.5996 96.7 17.2996 97 17.0996 97.3C16.8996 97.6 16.7996 98 16.7996 98.3C16.6996 99 16.6996 99.5 16.6996 100.2C16.6996 101.9 16.8996 104 17.7996 105.6C18.1996 106.3 18.7996 107 19.3996 107.4C19.5996 107.5 19.8996 107.8 20.1996 108C20.8996 108.4 22.0996 108.5 23.0996 108.6C23.7996 108.7 24.3996 108.8 24.7996 109C25.1996 109.2 25.5996 109.4 25.7996 109.6C26.0996 109.8 26.4996 110 26.7996 110.3C26.8996 110.7 26.8996 111 26.9996 111.4C27.1996 112.6 27.1996 113.8 26.9996 114.8C26.5996 117.1 25.5996 119.5 23.7996 121.1C22.5996 122.2 21.0996 122.9 19.4996 123.1C19.3996 122.8 19.2996 122.4 19.2996 122.1C19.0996 121.5 19.1996 120.8 19.0996 120.2C19.0996 119.8 18.9996 119.4 18.9996 119C19.0996 119 19.0996 119 19.1996 118.9C19.7996 118.6 20.2996 118.2 20.6996 117.7C21.1996 117.1 21.2996 116.5 21.4996 115.8C21.6996 114.9 21.7996 113.9 21.1996 112.9C20.7996 112.2 19.9996 111.7 19.1996 111.6H18.8996L18.6996 111.7C18.2996 111.8 17.8996 112.1 17.6996 112.3C17.1996 112.8 17.0996 113.3 16.9996 113.8C16.8996 114.3 16.8996 114.8 16.8996 115.2C16.9996 116 16.9996 116.7 17.0996 117.4C15.7996 117.2 14.4996 116.2 13.3996 114.9C11.4996 112.5 9.79961 109.5 9.09961 106.4C8.99961 106 8.8996 105.7 8.8996 105.3C8.8996 104.9 8.79962 104.6 8.79962 104.2C8.79962 103.8 8.69958 103.5 8.69958 103.2C8.69958 102.9 8.59961 102.5 8.59961 102.2C8.59961 100 8.89961 97.3 9.59961 94.7C10.2996 92.1 11.3996 89.5 12.6996 87.5C12.9996 86.9 13.5996 86.1 14.0996 85.3C14.6996 84.6 15.2996 83.9 15.5996 83.4C16.2996 82.8 16.8996 82.2 17.4996 81.8C18.0996 81.4 18.4996 81 18.7996 80.6C19.3996 80 19.2996 79.7 17.9996 80.1C16.4996 80.9 15.6996 81.4 14.2996 82.6C12.9996 84 11.7996 85.6 10.8996 87.1C10.6996 87.5 10.3996 87.9 10.0996 88.3C9.79961 88.7 9.6996 89.1 9.3996 89.5C9.0996 90.2 8.69957 90.9 8.49957 91.7C8.29957 92.5 7.99962 93.2 7.79962 94C7.59962 94.7 7.29958 95.4 7.19958 96.1C7.09958 96.8 7.09957 97.4 6.99957 98.1C6.89957 98.9 6.79962 99.7 6.79962 100.6C6.79962 101.2 6.8996 101.8 6.8996 102.4C6.9996 106.9 8.59961 111.9 11.0996 114.9C11.5996 116.1 12.8996 117.3 14.1996 118C14.8996 118.4 15.5996 118.8 16.4996 118.9V119C16.2996 119.6 16.1996 120.2 15.9996 120.8C15.8996 121.1 15.6996 121.3 15.5996 121.6C15.4996 121.9 15.3996 122.2 15.2996 122.6C14.5996 122.4 13.8996 122.1 13.3996 121.9C12.7996 121.6 12.2996 121.4 11.6996 121C10.0996 120 8.79958 118.4 7.69958 117C7.39958 116.6 7.0996 116.3 6.8996 116C6.6996 115.7 6.49962 115.3 6.29962 114.9C5.99962 114.3 5.59962 113.7 5.29962 113C4.29962 110.8 3.69962 109 3.29962 107.1C3.09962 106.7 2.9996 106.1 2.8996 105.5C2.7996 104.9 2.69958 104.3 2.69958 103.7C2.59958 102.3 2.59957 100.8 2.49957 99.3C2.49957 99 2.3996 98.6 2.3996 98.3C2.3996 96.8 2.69957 94.8 2.99957 93.7C3.09957 93.3 3.09958 92.8 3.19958 92.4C3.29958 92 3.39957 91.5 3.49957 91.1C3.59957 90.7 3.6996 90.4 3.8996 90C4.1996 89.1 4.39962 88 4.79962 87C5.39962 85.4 6.29958 83.7 7.19958 82.1C7.39958 81.8 7.0996 81.9 7.3996 81.6C7.6996 81.2 8.0996 80.8 8.3996 80.3C8.7996 79.9 9.19957 79.4 9.49957 78.9C10.6996 77.5 11.9996 75.9 13.6996 75C14.4996 74.6 15.2996 74.5 15.9996 74.2C17.1996 74.1 18.6996 74.3 20.0996 75C21.4996 75.7 22.7996 76.7 23.8996 77.7C24.5996 78.1 25.4996 79.1 26.0996 79.5C27.5996 81.2 29.2996 83 30.8996 84.2C31.3996 84.6 31.8996 85 32.4996 85.3C33.0996 85.6 33.5996 86 34.1996 86.3C37.2996 88.1 40.9996 89.8 44.2996 90.7C45.0996 90.9 45.8996 91.1 46.7996 91.2C47.5996 91.4 48.2996 91.6 48.9996 91.7C50.2996 91.9 51.6996 92.1 52.9996 92.2C57.4996 92.6 61.0996 92.5 64.6996 92.1C66.3996 91.8 68.8996 91.3 70.8996 90.7C73.4996 89.9 76.0996 88.9 78.4996 87.2C78.9996 86.8 79.4996 86.3 79.9996 86C80.9996 85.1 82.2996 83.9 83.1996 82.6C83.3996 82.3 83.6996 82 83.8996 81.7C84.0996 81.4 84.2996 81 84.4996 80.7C84.8996 80.1 85.0996 79.5 85.3996 79C85.7996 78.2 85.8996 77.4 86.1996 76.5C86.2996 76.1 86.2996 75.6 86.3996 75.2C86.3996 74.8 86.4996 74.4 86.4996 73.9C86.4996 73.2 86.6996 72.4 86.5996 71.7C86.4996 69.8 85.7996 67.8 85.1996 66C83.9996 63 81.9996 59.9 79.4996 57.5C78.9996 57 79.1996 57.5 78.6996 56.9C77.3996 55.5 75.6996 54.1 73.7996 52.9C70.6996 51 66.9996 50 63.3996 49.4C61.7996 49.1 60.0996 48.8 58.5996 48.9C56.1996 48.7 53.0996 48.9 49.9996 49.5C46.9996 50.2 43.9996 51.2 41.5996 52.5C40.9996 52.9 40.0996 53.5 39.1996 54C38.2996 54.6 37.4996 55.2 37.0996 55.6C36.2996 56.2 35.5996 56.8 34.9996 57.3C34.4996 57.9 33.9996 58.4 33.7996 58.7C33.2996 59.4 33.4996 59.7 34.6996 59C35.9996 58 36.8996 57.6 38.2996 56.5C39.8996 55.5 41.3996 54.3 43.0996 53.6C43.4996 53.4 43.9996 53.2 44.3996 53.1C44.7996 53 45.2996 52.8 45.6996 52.7C45.9996 52.6 46.3996 52.4 46.7996 52.3C47.1996 52.2 47.4996 52.1 47.8996 51.9L49.0996 51.5C49.4996 51.4 49.8996 51.3 50.2996 51.2C50.9996 51 51.7996 51 52.4996 50.9C53.1996 50.8 53.7996 50.6 54.4996 50.5C55.2996 50.5 56.0996 50.4 57.0996 50.4C57.6996 50.4 58.2996 50.3 58.8996 50.3C61.0996 50.4 63.4996 50.7 65.6996 51.4C66.2996 51.5 66.7996 51.7 67.2996 51.9C67.7996 52.1 68.3996 52.2 68.8996 52.4C69.8996 52.8 70.8996 53.1 71.6996 53.5C71.8996 53.7 72.1996 53.9 72.4996 54C72.7996 54.2 73.0996 54.4 73.3996 54.6C73.9996 54.9 74.6996 55.3 75.1996 55.7C76.6996 56.8 78.0996 58.2 79.1996 59.6C79.5996 60 79.9996 60.3 80.2996 60.8C80.7996 61.4 81.0996 62 81.4996 62.6C81.6996 62.9 81.8996 63.2 82.0996 63.5C82.2996 63.8 82.4996 64.1 82.6996 64.4C83.0996 65 83.3996 65.8 83.6996 66.5C83.8996 66.9 83.9996 67.3 84.0996 67.7C84.1996 68.1 84.3996 68.5 84.3996 68.9C84.8996 71.1 85.0996 73.4 84.5996 75.6C84.0996 77.8 83.0996 80 81.4996 81.9C80.5996 82.9 79.5996 83.7 78.5996 84.5C76.6996 85.9 74.8996 87 72.7996 87.9C70.6996 88.7 68.3996 89.3 66.1996 89.7C65.5996 89.8 64.9996 90 64.3996 90.1C63.7996 90.2 63.0996 90.2 62.4996 90.3C61.8996 90.3 61.2996 90.4 60.6996 90.4C58.0996 90.5 55.5996 90.6 53.0996 90.2C52.0996 90.3 50.8996 89.9 49.5996 89.9C48.7996 89.7 47.9996 89.5 47.0996 89.3C46.1996 89.1 45.2996 88.8 44.3996 88.6C43.4996 88.3 42.5996 88 41.7996 87.8C40.9996 87.5 40.1996 87.2 39.4996 87C37.8996 86.2 35.3996 85 33.5996 83.8C31.0996 81.8 28.4996 79.6 26.3996 76.6C25.7996 75.9 25.4996 75.1 24.9996 74.3C24.4996 73.5 24.1996 72.7 23.7996 71.9C23.0996 70.2 22.5996 68.5 22.1996 66.8C21.4996 63.4 21.2996 60 21.2996 57.2C21.2996 55.6 21.2996 53.9 21.4996 52.3C21.8996 48.5 22.7996 44.3 23.7996 40.6C23.8996 40.1 23.9996 39.6 24.0996 39.1C24.8996 36.1 26.4996 32.7 27.8996 29.7C28.3996 28.6 28.8996 27.7 29.4996 26.7C29.7996 26.2 30.0996 25.8 30.3996 25.3C30.6996 24.8 30.9996 24.4 31.2996 23.9C31.7996 23.1 32.1996 22.5 32.6996 21.9C33.0996 21.3 33.4996 20.7 33.9996 20.1C36.9996 16.6 40.4996 13.7 43.8996 11.2C46.2996 9.40002 49.2996 7.6 52.0996 6.3C53.2996 5.8 54.5996 5.1 55.6996 4.8C56.0996 4.7 56.6996 4.6 57.0996 4.4C57.6996 4.2 58.4996 4.00002 59.2996 3.70002C60.0996 3.40002 61.0996 3.20001 61.9996 3.00001C64.3996 2.50001 66.4996 2.5 67.8996 2.3C69.3996 2.1 72.3996 1.70001 72.5996 1.50001C72.7996 1.30001 71.3996 0.700011 70.0996 0.500011C69.3996 0.400011 68.4996 0.500011 67.4996 0.500011C66.5996 0.500011 65.6996 0.600017 64.9996 0.600017C58.5996 1.50002 52.1996 4.1 46.9996 7.3C43.7996 9.3 40.5996 11.6 37.5996 14.3C36.7996 15.1 35.8996 15.9 35.0996 16.7C32.3996 19.3 30.1996 22.1 28.8996 24.4C28.3996 25.2 27.9996 26.1 27.4996 26.9C26.9996 27.8 26.5996 28.7 26.0996 29.6C24.9996 32 23.9996 34.6 23.1996 37.1C21.7996 40.3 20.6996 45.6 20.0996 49.8C19.6996 52.1 19.5996 54.5 19.4996 57C19.4996 59.4 19.5996 61.9 19.9996 64.4C20.3996 66.9 20.9996 69.3 21.8996 71.7C22.1996 72.6 22.5996 73.4 22.9996 74.3C22.3996 73.9 21.6996 73.5 21.0996 73.2C20.6996 73 20.1996 72.7 19.7996 72.6C19.2996 72.5 18.8996 72.4 18.4996 72.4C18.1996 72.3 17.9996 72.3 17.6996 72.3C17.3996 72.3 17.0996 72.2 16.7996 72.2C16.3996 72.2 15.9996 72.3 15.5996 72.4C14.0996 72.7 12.6996 73.3 11.4996 74.2C10.2996 75 9.39958 76 8.69958 77C7.99958 77.4 7.59961 78.3 7.09961 78.9C6.69961 79.3 6.39961 79.8 6.09961 80.3C5.79961 80.8 5.39958 81.2 5.19958 81.7C4.99958 82 4.99962 82.3 4.79962 82.6C4.59962 83 4.29961 83.3 4.09961 83.7C3.89961 84.1 3.79961 84.5 3.59961 84.9C3.29961 85.8 2.89961 86.7 2.59961 87.6C1.69961 90.2 1.2996 92.9 0.899597 95.9C0.799597 96.7 0.699609 97.5 0.599609 98.3C0.599609 99.7 0.699622 101 0.799622 102.3C0.799622 103 0.899573 103.6 0.999573 104.3C1.09957 105 1.09962 105.6 1.29962 106.3C1.39962 106.6 1.49961 107 1.59961 107.3C1.79961 108 1.89961 108.7 2.09961 109.4C2.59961 110.8 3.19958 112.2 3.69958 113.5C4.09958 113.9 4.19962 114.7 4.79962 115.3C5.49962 117 7.19961 119.2 8.59961 120.2C9.29961 121 10.5996 122 11.7996 122.5C12.6996 123.1 13.6996 123.6 14.8996 123.8C14.8996 123.9 14.8996 124 14.8996 124.1C14.7996 124.4 14.6996 124.6 14.5996 124.9C14.4996 125.1 14.4996 125.3 14.4996 125.5C14.0996 126.9 13.2996 128.4 13.1996 129.7C12.7996 130 12.8996 130.6 12.7996 131C12.5996 131.6 12.2996 132.2 12.1996 132.8C12.1996 133 12.1996 133.2 12.1996 133.4C12.1996 133.6 11.9996 133.9 11.9996 134.1C11.9996 134.3 11.9996 134.6 11.9996 134.8C11.9996 135.3 11.7996 135.8 11.6996 136.4C11.4996 137.9 11.3996 139.4 11.1996 141.1C11.0996 141.5 10.9996 142 10.9996 142.4C10.8996 143.2 10.9996 143.9 10.9996 144.6C10.9996 145.3 10.8996 146.1 10.8996 146.8C10.8996 147 10.9996 147.2 10.9996 147.4C10.9996 147.8 10.8996 148.2 10.9996 148.6C11.0996 149.4 11.2996 150.2 11.2996 151.1C11.5996 151.4 11.3996 151.8 11.6996 152.2C11.6996 153.3 12.0996 154.7 12.5996 155.5C12.6996 156.1 13.0996 156.9 13.4996 157.5C13.6996 158.5 14.4996 159.5 15.4996 160.3C15.9996 160.7 16.5996 161 17.1996 161.2C17.7996 161.4 18.4996 161.4 19.1996 161.2C20.3996 160.9 21.3996 160.1 21.9996 159.3C22.2996 158.8 22.4996 158.3 22.7996 157.8C23.2996 156.6 23.5996 155.2 23.6996 154C23.6996 153.8 23.5996 153.7 23.5996 153.5C23.5996 152.5 23.8996 151.3 23.7996 150.3C23.7996 149.5 23.8996 148.9 23.8996 148.2C23.8996 147.6 23.7996 147.2 23.7996 146.7C23.6996 145.3 23.6996 143.8 23.6996 142.5C23.6996 141.5 23.4996 140.5 23.4996 139.5C23.4996 139.4 23.4996 139.3 23.4996 139.1C23.6996 139.6 23.9996 140.1 24.1996 140.5C24.6996 141.4 25.1996 142.4 25.5996 143.4C25.7996 143.9 26.0996 144.4 26.2996 144.9C26.5996 145.4 26.7996 145.8 27.0996 146.3C27.3996 146.8 27.7996 147.3 28.0996 147.8C28.7996 148.9 29.1996 149.9 29.8996 150.8C30.5996 151.8 31.3996 152.8 32.0996 153.7C32.7996 154.7 33.4996 155.6 34.1996 156.6C34.9996 157.2 35.4996 158.2 36.4996 159.1C37.2996 160.4 38.5996 161.7 39.8996 163C40.4996 163.6 41.1996 164.3 41.6996 164.8C42.2996 165.4 42.8996 165.8 43.4996 166.3C44.6996 167.5 46.5996 169.3 48.2996 170.4C49.3996 171.4 50.5996 172.4 51.8996 173.4C53.1996 174.3 54.5996 175.2 55.9996 176.2C61.5996 179.8 68.0996 183.2 73.0996 185.1C73.7996 185.4 74.4996 185.7 75.2996 185.9C75.9996 186.1 76.6996 186.4 77.4996 186.6C80.7996 187.9 84.6996 189 88.2996 189.7C88.6996 189.8 89.1996 189.8 89.6996 189.9C92.5996 190.4 95.9996 191.1 99.0996 191.2C101.3 191.3 103.2 191.4 105.5 191.3C106.3 191.2 107.1 191.1 107.8 191C108.5 190.9 109.2 190.7 109.9 190.6C112 190.1 114.1 189.5 115.9 188.4C117.7 187.4 119.4 186.1 120.7 184.5C122.6 182.3 124.1 179.3 124.7 176.4C124.8 175.8 124.9 175.1 125 174.5C125 173.9 125.1 173.2 125.1 172.7C125.2 172.3 125.2 171.7 125.2 171.3C124.4 171.9 124.4 171.5 124.4 171.1ZM117.3 144.9C116.4 146.1 115.4 147.2 114.3 148.3C114.1 148.5 113.8 148.8 113.6 149.1C112.5 150.1 110.7 151.2 109.6 151.7C108.8 152.1 108 152.6 107.1 152.9C106.7 153 106.3 153.1 106 153.2C105 153.5 103.9 153.9 102.9 154.1C101.1 154.4 99.0996 154.6 97.1996 154.6C96.7996 154.5 97.0996 154.8 96.6996 154.7C95.5996 154.5 94.3996 154.3 93.1996 154.1C92.8996 154 92.6996 154 92.3996 153.9C93.9996 151.6 95.8996 149.5 97.8996 147.6C98.7996 146.5 100.1 145.6 101.2 144.9C101.8 144.5 102.3 144.1 102.9 143.7C104.2 142.9 105.7 142.5 107.2 142.2C107.7 142.2 108.3 142.3 108.8 142.2C108.9 142.2 109 142.1 109.1 142.1C109.8 142 110.6 142.2 111.3 142.2C111.8 142.2 112.3 142.3 112.8 142.3C113.2 142.3 113.5 142.2 113.8 142.2C114.8 142.1 115.8 142.2 116.7 142.3C117.4 142.3 118.1 142.3 118.8 142.4C118.7 142.8 117.9 144 117.3 144.9ZM75.4996 139.5C76.0996 138.9 76.8996 138.4 77.5996 137.9C77.7996 137.8 77.9996 137.5 78.1996 137.4C78.8996 136.9 79.5996 136.6 79.9996 136.1C80.2996 135.8 80.6996 135.7 81.1996 135.4C81.6996 135.1 82.1996 134.7 82.6996 134.4C83.4996 134.2 84.4996 133.5 85.3996 133.2C87.3996 132.5 89.4996 131.3 91.6996 131C92.1996 130.7 92.8996 130.7 93.3996 130.7C93.6996 130.7 93.8996 130.6 94.1996 130.5C94.9996 130.4 95.7996 130.5 96.4996 130.6C96.6996 130.6 96.8996 130.6 96.9996 130.6C97.1996 130.6 97.2996 130.8 97.3996 130.8C97.5996 130.9 97.8996 130.9 98.1996 131C98.5996 131.2 98.9996 131.3 99.2996 131.6C99.6996 131.9 100.1 132.2 100.6 132.4C101.2 132.5 102 132.6 102.6 132.4C103.4 132.2 104 131.9 104.5 131.5C104.6 131.4 104.7 131.3 104.8 131.2C105.3 130.9 106.1 130.8 106.5 130.7C106.8 130.7 107.2 130.5 107.5 130.5C107.6 130.5 107.8 130.6 107.9 130.6C108.3 130.7 108.7 130.6 109.1 130.7C109.8 130.9 110.5 131.2 111.2 131.5C111.3 131.6 111.3 131.4 111.5 131.5C111.8 131.8 112.2 132.2 112.5 132.5C113 133 113.8 133.5 114.3 134.1C114.5 134.4 114.7 134.8 115 134.9C115.5 135.9 116.4 137.3 117.1 138.3C117.4 138.5 117.7 139.1 118 139.3C118.1 139.6 118.3 139.8 118.5 139.9C118.5 140 118.5 140 118.5 140.1C118.2 140 117.9 140 117.6 140C116 139.9 114.6 140 113 139.8C112.4 140 111.7 139.8 110.9 140C109.9 139.9 108.7 140 107.6 140.2C107.2 140.3 106.8 140.4 106.5 140.4C106.4 140.4 106.4 140.4 106.3 140.4C104.3 140.2 102.1 140.6 100.1 140.4C99.5996 140.5 98.9996 140.4 98.4996 140.4C98.1996 140.4 97.9996 140.5 97.6996 140.5C96.8996 140.6 96.0996 140.5 95.3996 140.5C95.1996 140.5 95.0996 140.6 94.8996 140.6C94.6996 140.6 94.5996 140.5 94.3996 140.5C94.0996 140.5 93.7996 140.6 93.4996 140.6C92.4996 140.7 91.7996 140.8 90.9996 140.7C90.5996 140.8 90.0996 140.8 89.6996 140.8C89.0996 140.8 88.4996 140.7 87.9996 140.8C87.8996 140.8 87.6996 140.9 87.5996 140.9C86.9996 141 86.1996 140.9 85.7996 140.9C85.3996 140.9 85.0996 141 84.7996 141.1C84.6996 141.1 84.4996 141 84.3996 141.1C83.9996 141.1 83.5996 141.3 83.1996 141.3C82.4996 141.3 81.7996 141.4 81.0996 141.5C80.8996 141.5 81.0996 141.7 80.8996 141.7C80.4996 141.6 79.9996 141.5 79.4996 141.5C78.7996 141.5 77.9996 141.7 77.1996 141.8C76.8996 141.8 76.4996 141.7 76.1996 141.9C75.2996 141.7 73.8996 141.9 72.8996 142.1C73.6996 141.2 74.5996 140.3 75.4996 139.5ZM86.9996 152.5C86.0996 152.2 85.2996 151.7 84.4996 151.5C82.0996 150.2 78.4996 148.2 75.9996 146.4C75.1996 146.1 73.9996 145 73.2996 144.7C72.9996 144.4 72.5996 144.1 72.2996 143.9C72.4996 143.8 72.5996 143.8 72.7996 143.8C72.9996 143.8 73.1996 143.9 73.3996 143.9C73.6996 143.9 74.0996 143.7 74.3996 143.7C74.5996 143.7 74.6996 143.8 74.8996 143.7C75.0996 143.7 75.1996 143.6 75.2996 143.6C75.4996 143.6 75.6996 143.6 75.8996 143.6C75.9996 143.6 76.1996 143.5 76.2996 143.5C77.2996 143.4 78.3996 143.6 79.1996 143.3C79.4996 143.5 79.7996 143.3 80.0996 143.3C80.4996 143.3 80.9996 143.4 81.3996 143.4C81.4996 143.4 81.5996 143.3 81.7996 143.3C81.9996 143.3 82.0996 143.4 82.2996 143.3C82.4996 143.3 82.5996 143.2 82.7996 143.2C83.0996 143.1 83.4996 143.1 83.8996 143.1C84.8996 143 85.8996 142.8 86.9996 142.8C87.2996 142.8 87.5996 142.9 87.8996 142.9C88.3996 142.9 88.8996 142.8 89.3996 142.7C89.8996 142.6 90.3996 142.7 90.8996 142.7C90.9996 142.7 91.1996 142.6 91.2996 142.6C91.5996 142.6 91.7996 142.7 92.0996 142.6C92.6996 142.5 93.1996 142.4 93.7996 142.5C93.9996 142.3 94.2996 142.5 94.5996 142.3C95.2996 142.5 96.2996 142.4 96.8996 142.2C97.2996 142.3 97.8996 142.2 98.3996 142.1C99.0996 142.3 99.8996 142.1 100.6 142.1C101.2 142.1 101.9 142.1 102.5 142.1C102 142.4 101.5 142.6 101.1 142.9C99.2996 143.7 97.7996 145.2 96.2996 146.7C94.1996 148.8 92.1996 151.2 90.4996 153.4C89.2996 153.3 88.0996 153 86.9996 152.5ZM25.4996 107.4C24.3996 107.1 23.4996 107.1 22.5996 107C21.7996 106.9 20.9996 106.8 20.4996 106.4C19.2996 105.8 18.6996 104.4 18.4996 102.9C18.2996 102 18.2996 101 18.2996 99.9C18.2996 99.4 18.2996 98.8 18.3996 98.5C18.3996 98.4 18.4996 98.3 18.4996 98.3C18.4996 98.3 18.9996 98.3 19.3996 98.5C19.6996 98.7 19.9996 99 20.2996 99.3C20.5996 99.7 20.8996 100 21.1996 100.4C21.7996 101.1 22.2996 101.7 22.6996 102.2C23.3996 103 23.8996 103.8 24.4996 104.8C25.0996 105.7 25.6996 106.7 26.0996 107.7C25.8996 107.7 25.6996 107.5 25.4996 107.4ZM17.5996 122.1C17.6996 122.5 17.6996 122.8 17.7996 123.2C17.7996 123.3 17.8996 123.4 17.8996 123.6C17.6996 123.6 17.3996 123.6 17.1996 123.5C17.3996 123 17.4996 122.5 17.5996 122.1ZM19.0996 113.9C19.3996 114 19.5996 114.1 19.6996 114.4C19.8996 114.7 19.8996 115.2 19.7996 115.6C19.6996 116.3 19.2996 117 18.7996 117.4C18.6996 116.7 18.5996 116.1 18.5996 115.4C18.5996 114.8 18.7996 114.1 19.0996 113.9ZM21.6996 153.8C21.3996 154.8 21.4996 156.5 20.9996 157.5C20.5996 158.7 19.8996 159.7 18.8996 160.3C17.8996 160.9 16.7996 160.7 15.9996 159.8C15.4996 159.5 15.0996 158.7 14.7996 158.2C14.5996 157.9 14.3996 157.6 14.1996 157.3C13.6996 156.4 13.4996 155.2 13.1996 154.3C13.0996 154.1 12.9996 153.8 12.8996 153.6C12.7996 153.4 12.8996 153.1 12.7996 152.9C12.6996 152.5 12.5996 152.1 12.4996 151.7C12.2996 150.4 12.0996 149.3 12.1996 148.2C12.0996 147.7 12.0996 146.9 12.0996 146.3C12.0996 145.5 12.2996 144.7 12.2996 143.8C12.2996 143.6 12.1996 143.4 12.1996 143.2C12.1996 142.4 12.3996 141.2 12.4996 140.6C12.5996 140.1 12.4996 139.6 12.5996 139.1C12.5996 138.9 12.6996 138.7 12.7996 138.5C12.8996 137.9 12.8996 137.3 12.9996 136.8C13.1996 135.9 13.3996 134.8 13.5996 133.8C13.6996 133.6 13.3996 133.7 13.4996 133.5C13.6996 133 13.9996 132.3 14.1996 131.7C14.5996 130.7 14.6996 129.5 14.9996 128.5C15.1996 128 15.4996 127.6 15.4996 127.1C15.7996 126.6 15.9996 126 16.1996 125.3C16.4996 125.3 16.7996 125.4 16.9996 125.4C17.1996 125.4 17.4996 125.4 17.6996 125.4C17.8996 126.4 18.0996 127.4 18.3996 128.5C18.6996 129.6 19.0996 130.8 19.3996 131.9C19.5996 132.5 19.6996 133.2 19.8996 133.8L20.0996 134.7C20.0996 134.8 20.1996 134.9 20.1996 134.9C20.0996 135.3 20.2996 136 20.1996 136.4C20.5996 138.3 20.7996 140.3 20.9996 142.2C21.0996 143.3 21.0996 144.5 21.0996 145.7C21.0996 146 21.1996 146.4 21.1996 146.7C21.1996 147.8 21.0996 148.9 21.1996 149.7C21.2996 150.3 21.1996 150.9 21.0996 151.5C21.6996 152.1 21.7996 153 21.6996 153.8Z" fill="#292E31"/>
    <path d="M144.6 69.5999C143.7 68.8999 142.9 67.9999 142 67.4999C140.7 66.4999 139.2 65.5999 137.9 65.1999C135.7 64.0999 132.7 63.3999 129.7 63.3999C126.6 63.3999 123.6 64.0999 121.1 65.0999C119.8 65.7999 117.3 66.9999 116.5 67.9999C114.8 69.0999 113.8 70.3999 113.4 71.1999C113 71.9999 113.2 72.1999 114.3 71.4999C114.6 71.1999 114.8 70.9999 115.1 70.7999C115.4 70.5999 115.6 70.3999 115.9 70.2999C116.2 70.0999 116.4 69.8999 116.7 69.6999C117 69.4999 117.3 69.2999 117.7 69.0999C118.4 68.5999 119.2 68.1999 120 67.6999C120.8 67.2999 121.6 66.8999 122.5 66.5999C123.1 66.3999 123.6 66.2999 124.1 66.1999C123.3 67.4999 122.9 68.9999 122.9 70.3999C122.9 70.7999 122.9 71.1999 122.9 71.4999C122.9 71.8999 123 72.2999 123.1 72.5999C123.6 74.4999 125.1 76.1999 126.8 77.1999C127.5 77.5999 128.3 77.8999 129.2 78.0999C129.6 78.1999 130.1 78.2999 130.5 78.2999C130.9 78.2999 131.3 78.3999 131.8 78.3999C132.6 78.3999 133.4 78.3999 134.2 78.2999C134.2 78.6999 134.2 78.9999 134.2 79.3999C134.2 79.9999 134.3 80.5999 134.3 81.1999C134.3 82.4999 134.2 83.5999 134.3 84.8999C134.4 87.4999 134.5 89.8999 134.4 92.3999C134.6 93.3999 134.4 94.5999 134.6 95.8999C134.4 99.0999 134.5 103.5 134.7 106.4C134.7 108.2 134.7 110.9 134.8 113C134.6 116.2 134.8 119.6 134.8 123.1C134.9 130.1 134.9 137.7 134.9 143.3C134.9 144.9 135 146.5 135 148.1C135 151.8 134.9 156.1 135 159.9C135 160.4 135.1 160.9 135.1 161.4C135.2 164.4 135 168.1 135.1 171.3C135.2 173.6 135.1 175.6 135.1 177.9C135.1 179.6 135.2 181 135.3 182.5C135.4 187 135.4 191.4 135.4 195.5C135.4 198.5 135.5 201.8 135.5 204.9C135.5 206.2 135.5 207.6 135.5 208.8C135.5 209.2 135.4 209.8 135.4 210.3C135.4 211.5 135.4 213.4 135.4 215.3C135.4 217.8 135.2 219.8 135.3 221.2C135.4 222.7 135.9 225.7 136.2 225.8C136.5 225.9 137 224.6 137.1 223.4C137.3 222.1 137.2 219.8 137.3 218.6C137.2 212.5 137.1 206.1 137.1 200.2C137.1 196.6 137.1 192.8 137.1 189C137.1 187.9 137 186.8 137 185.7C137 182.2 137.1 178.9 136.9 176.3C136.8 174.5 136.9 172.7 136.9 170.6C136.9 168.1 136.7 165.4 136.7 162.9C136.9 159.6 136.7 154.4 136.7 150.4C136.8 141.4 136.3 131.6 136.5 122.3C136.4 119.9 136.4 117.1 136.4 115C136.4 113.8 136.3 112.6 136.3 111.3C136.2 107.9 136.3 104 136.3 100.8C136.3 99.9999 136.2 99.1999 136.2 98.3999C136.2 97.6999 136.3 96.8999 136.3 96.1999C136.3 94.9999 136.2 93.5999 136.2 92.2999C136.1 87.9999 136 84.5999 136.1 81.0999C136 80.2999 136 79.2999 136 78.1999C136.3 78.1999 136.6 78.0999 136.9 77.9999C137.6 77.8999 137.1 77.7999 137.8 77.6999C139.6 77.3999 141.7 76.7999 143.7 75.7999C144.9 75.1999 146 74.3999 147 73.3999L147.5 72.8999L147 72.3999C146.1 71.1999 145.4 70.2999 144.6 69.5999ZM131.3 76.1999C131 76.1999 130.6 76.1999 130.3 76.1999C130 76.1999 129.7 76.1999 129.3 76.0999C128 75.7999 126.7 75.0999 125.7 73.8999C124.9 72.8999 124.4 71.6999 124.4 70.3999C124.3 69.0999 124.7 67.8999 125.4 66.6999C126.5 65.7999 127.9 65.0999 129.3 64.9999C129.3 64.9999 129.3 64.9999 129.4 64.9999C129.7 64.9999 129.9 64.9999 130.1 64.9999C131 65.0999 131.8 65.5999 132.3 66.2999C133.5 67.9999 133.9 69.9999 134 72.1999C134.1 73.3999 134 74.7999 134 76.0999C133.8 76.0999 133.6 76.1999 133.4 76.1999C132.7 76.3999 132 76.2999 131.3 76.1999ZM140.2 74.8999C138.7 75.4999 137.2 75.7999 135.7 75.9999C135.7 75.5999 135.7 75.1999 135.7 74.7999C135.7 73.4999 135.7 72.1999 135.6 70.7999C135.5 69.3999 135.2 67.9999 134.5 66.5999C134.3 66.2999 134.1 65.8999 133.8 65.5999C134.4 65.7999 135 65.8999 135.6 66.1999C136.1 66.3999 136.7 66.4999 137.3 66.6999C140.2 67.8999 142.7 70.0999 144.7 72.3999C144.4 72.6999 144.1 72.8999 143.8 73.1999C142.7 73.5999 141.5 74.3999 140.2 74.8999Z" fill="#292E31"/>
</svg>
