<svg width="1166" height="969" viewBox="0 0 1166 969" fill="none" xmlns="http://www.w3.org/2000/svg">
    <g filter="url(#filter0_f)">
        <mask id="mask0" style="mask-type:alpha" maskUnits="userSpaceOnUse" x="134" y="177" width="909" height="616">
            <path d="M505.298 381.642C607.037 353.192 620.376 327.126 647.409 291.83C661.378 269.663 702.312 218.622 754.286 191.793C819.254 158.257 896.354 189.411 952.59 244.218C1026.32 316.077 1049.18 421.488 1040.32 506.577C1030.95 596.52 869.668 697.002 737.315 699.37C651.044 700.913 503.006 699.729 417.071 767.614C347.738 822.385 234.035 777.889 179.373 711.098C128.676 649.152 104.337 530.12 197.871 445.327C291.405 360.534 378.125 417.205 505.298 381.642Z" fill="white" stroke="black"/>
        </mask>
        <g mask="url(#mask0)">
            <g filter="url(#filter1_f)">
                <g filter="url(#filter2_f)">
                    <circle cx="690.774" cy="264.303" r="399.966" transform="rotate(9.74227 690.774 264.303)" fill="#4C75DE"/>
                </g>
                <g filter="url(#filter3_f)">
                    <circle cx="547.814" cy="692.38" r="399.966" transform="rotate(9.74227 547.814 692.38)" fill="#FF7E79"/>
                </g>
                <g filter="url(#filter4_f)">
                    <circle cx="255.469" cy="473.924" r="399.966" transform="rotate(9.74227 255.469 473.924)" fill="#181B5E"/>
                </g>
            </g>
        </g>
    </g>
    <defs>
        <filter id="filter0_f" x="-100" y="-100" width="1365.06" height="1168.55" filterUnits="userSpaceOnUse" color-interpolation-filters="sRGB">
            <feFlood flood-opacity="0" result="BackgroundImageFix"/>
            <feBlend mode="normal" in="SourceGraphic" in2="BackgroundImageFix" result="shape"/>
            <feGaussianBlur stdDeviation="50" result="effect1_foregroundBlur"/>
        </filter>
        <filter id="filter1_f" x="-148.562" y="-139.728" width="1243.37" height="1236.14" filterUnits="userSpaceOnUse" color-interpolation-filters="sRGB">
            <feFlood flood-opacity="0" result="BackgroundImageFix"/>
            <feBlend mode="normal" in="SourceGraphic" in2="BackgroundImageFix" result="shape"/>
            <feGaussianBlur stdDeviation="2" result="effect1_foregroundBlur"/>
        </filter>
        <filter id="filter2_f" x="-409.257" y="-835.728" width="2200.06" height="2200.06" filterUnits="userSpaceOnUse" color-interpolation-filters="sRGB">
            <feFlood flood-opacity="0" result="BackgroundImageFix"/>
            <feBlend mode="normal" in="SourceGraphic" in2="BackgroundImageFix" result="shape"/>
            <feGaussianBlur stdDeviation="350" result="effect1_foregroundBlur"/>
        </filter>
        <filter id="filter3_f" x="-552.217" y="-407.651" width="2200.06" height="2200.06" filterUnits="userSpaceOnUse" color-interpolation-filters="sRGB">
            <feFlood flood-opacity="0" result="BackgroundImageFix"/>
            <feBlend mode="normal" in="SourceGraphic" in2="BackgroundImageFix" result="shape"/>
            <feGaussianBlur stdDeviation="350" result="effect1_foregroundBlur"/>
        </filter>
        <filter id="filter4_f" x="-844.562" y="-626.107" width="2200.06" height="2200.06" filterUnits="userSpaceOnUse" color-interpolation-filters="sRGB">
            <feFlood flood-opacity="0" result="BackgroundImageFix"/>
            <feBlend mode="normal" in="SourceGraphic" in2="BackgroundImageFix" result="shape"/>
            <feGaussianBlur stdDeviation="350" result="effect1_foregroundBlur"/>
        </filter>
    </defs>
</svg>
