<svg width="336" height="242" viewBox="0 0 336 242" fill="none" xmlns="http://www.w3.org/2000/svg">
<path d="M131.561 241.001C198.573 241.001 252.897 238.885 252.897 236.274C252.897 233.663 198.573 231.546 131.561 231.546C64.5486 231.546 10.2246 233.663 10.2246 236.274C10.2246 238.885 64.5486 241.001 131.561 241.001Z" fill="#E0E7F9"/>
<path d="M242.748 192.036H11.354C5.10881 192.036 0 186.927 0 180.682V11.9066C0 5.66136 5.10881 0.552551 11.354 0.552551H242.748C248.993 0.552551 254.102 5.66136 254.102 11.9066V180.682C254.102 186.927 248.993 192.036 242.748 192.036Z" fill="#889ED8"/>
<path d="M235.649 175.737H17.354C11.1088 175.737 6 170.628 6 164.383V19.9066C6 13.6614 11.1088 8.55255 17.354 8.55255H235.649C241.894 8.55255 247.003 13.6614 247.003 19.9066V164.383C247.005 170.625 241.897 175.737 235.649 175.737Z" fill="#E0E7F9"/>
<path d="M140.473 183.303H122.651C122.217 183.303 121.863 182.947 121.863 182.515C121.863 182.081 122.219 181.727 122.651 181.727H140.473C140.907 181.727 141.261 182.083 141.261 182.515C141.261 182.947 140.904 183.303 140.473 183.303Z" fill="#E3E5FC"/>
<path d="M13.5561 6.9847C14.5352 6.9847 15.3289 6.19098 15.3289 5.21189C15.3289 4.2328 14.5352 3.43909 13.5561 3.43909C12.577 3.43909 11.7833 4.2328 11.7833 5.21189C11.7833 6.19098 12.577 6.9847 13.5561 6.9847Z" fill="#E0E7F9"/>
<path d="M21.1893 6.9847C22.1684 6.9847 22.9621 6.19098 22.9621 5.21189C22.9621 4.2328 22.1684 3.43909 21.1893 3.43909C20.2102 3.43909 19.4165 4.2328 19.4165 5.21189C19.4165 6.19098 20.2102 6.9847 21.1893 6.9847Z" fill="white"/>
<path d="M28.8916 6.9847C29.8707 6.9847 30.6644 6.19098 30.6644 5.21189C30.6644 4.2328 29.8707 3.43909 28.8916 3.43909C27.9125 3.43909 27.1188 4.2328 27.1188 5.21189C27.1188 6.19098 27.9125 6.9847 28.8916 6.9847Z" fill="#181B5E"/>
<path d="M213.432 105.729H170.221C169.061 105.729 168.112 104.779 168.112 103.62C168.112 102.461 169.061 101.512 170.221 101.512H213.432C214.591 101.512 215.541 102.461 215.541 103.62C215.538 104.779 214.591 105.729 213.432 105.729Z" fill="white"/>
<path d="M213.432 115.381H170.221C169.061 115.381 168.112 114.431 168.112 113.272C168.112 112.113 169.061 111.164 170.221 111.164H213.432C214.591 111.164 215.541 112.113 215.541 113.272C215.538 114.434 214.591 115.381 213.432 115.381Z" fill="white"/>
<path d="M213.432 125.035H170.221C169.061 125.035 168.112 124.086 168.112 122.927C168.112 121.768 169.061 120.818 170.221 120.818H213.432C214.591 120.818 215.541 121.768 215.541 122.927C215.538 124.086 214.591 125.035 213.432 125.035Z" fill="white"/>
<path d="M213.432 135.917H170.221C169.061 135.917 168.112 134.968 168.112 133.808C168.112 132.649 169.061 131.7 170.221 131.7H213.432C214.591 131.7 215.541 132.649 215.541 133.808C215.538 134.97 214.591 135.917 213.432 135.917Z" fill="white"/>
<path d="M213.432 145.572H170.221C169.061 145.572 168.112 144.622 168.112 143.463C168.112 142.304 169.061 141.354 170.221 141.354H213.432C214.591 141.354 215.541 142.304 215.541 143.463C215.538 144.622 214.591 145.572 213.432 145.572Z" fill="white"/>
<path d="M213.432 155.226H170.221C169.061 155.226 168.112 154.276 168.112 153.117C168.112 151.958 169.061 151.009 170.221 151.009H213.432C214.591 151.009 215.541 151.958 215.541 153.117C215.538 154.276 214.591 155.226 213.432 155.226Z" fill="white"/>
<path d="M38.4755 80.7783H127.853C134.098 80.7783 139.207 75.6695 139.207 69.4243V37.1249C139.207 30.8797 134.098 25.7709 127.853 25.7709H38.4755C32.2303 25.7709 27.1215 30.8797 27.1215 37.1249V69.4243C27.1189 75.6695 32.2277 80.7783 38.4755 80.7783Z" fill="white"/>
<path d="M29.1232 154.922C27.9565 154.922 26.9994 153.967 26.9994 152.798V103.965C26.9994 102.798 27.954 101.841 29.1232 101.841C30.2899 101.841 31.247 102.796 31.247 103.965V152.798C31.247 153.967 30.2899 154.922 29.1232 154.922Z" fill="#D85B7A"/>
<path d="M39.2931 154.922C38.1264 154.922 37.1693 153.967 37.1693 152.798V131.006C37.1693 129.84 38.1239 128.883 39.2931 128.883C40.4599 128.883 41.417 129.837 41.417 131.006V152.798C41.417 153.967 40.4599 154.922 39.2931 154.922Z" fill="#D85B7A"/>
<path d="M49.4611 154.922C48.2944 154.922 47.3373 153.967 47.3373 152.798V110.223C47.3373 109.056 48.2919 108.099 49.4611 108.099C50.6278 108.099 51.5849 109.053 51.5849 110.223V152.798C51.5824 153.967 50.6278 154.922 49.4611 154.922Z" fill="#D85B7A"/>
<path d="M59.6291 154.921C58.4624 154.921 57.5052 153.967 57.5052 152.798V137.153C57.5052 135.986 58.4598 135.029 59.6291 135.029C60.7958 135.029 61.7529 135.984 61.7529 137.153V152.798C61.7529 153.967 60.7983 154.921 59.6291 154.921Z" fill="#D85B7A"/>
<path d="M69.801 154.922C68.6342 154.922 67.6771 153.967 67.6771 152.798V126.425C67.6771 125.259 68.6317 124.302 69.801 124.302C70.9677 124.302 71.9248 125.256 71.9248 126.425V152.798C71.9248 153.967 70.9702 154.922 69.801 154.922Z" fill="#D85B7A"/>
<path d="M79.9689 154.921C78.8022 154.921 77.8451 153.967 77.8451 152.798V144.984C77.8451 143.817 78.7997 142.86 79.9689 142.86C81.1356 142.86 82.0928 143.815 82.0928 144.984V152.798C82.0928 153.967 81.1356 154.921 79.9689 154.921Z" fill="#D85B7A"/>
<path d="M41.6668 64.1134C47.6646 72.3688 59.2181 74.1997 67.471 68.202L45.7529 38.3093C37.5 44.3045 35.6691 55.858 41.6668 64.1134Z" fill="#889ED8"/>
<path d="M47.6992 36.8951L57.6491 50.5902L71.6093 40.4483C65.9475 32.9707 55.3233 31.357 47.6992 36.8951Z" fill="#889ED8"/>
<path d="M78.0933 39.2792C78.0024 39.1529 77.8964 39.0418 77.8029 38.9181L59.0572 52.5348L72.9618 71.6746C83.3259 64.1439 85.6214 49.6408 78.0933 39.2792Z" fill="#ED7061"/>
<path d="M93.788 40.0038C93.788 38.7689 94.7981 37.7562 96.0355 37.7562H126.176C127.411 37.7562 128.423 38.7664 128.423 40.0038C128.423 41.2387 127.413 42.2514 126.176 42.2514H96.0355C94.7981 42.2514 93.788 41.2387 93.788 40.0038Z" fill="#ED7061"/>
<path d="M93.788 50.7669C93.788 49.532 94.7981 48.5193 96.0355 48.5193H106.256C107.491 48.5193 108.503 49.5294 108.503 50.7669C108.503 52.0018 107.493 53.0144 106.256 53.0144H96.0355C94.7981 53.0144 93.788 52.0018 93.788 50.7669Z" fill="#889ED8"/>
<path fill-rule="evenodd" clip-rule="evenodd" d="M86.5666 121.492C86.5666 132.667 95.6579 141.758 106.833 141.758C118.007 141.758 127.099 132.667 127.099 121.492C127.099 110.318 118.007 101.226 106.833 101.226C95.6579 101.226 86.5666 110.318 86.5666 121.492ZM88.4584 121.492C88.4584 111.363 96.7012 103.12 106.833 103.12C116.965 103.12 125.205 111.361 125.205 121.492C125.205 131.624 116.965 139.867 106.833 139.867C96.7012 139.867 88.4584 131.624 88.4584 121.492Z" fill="#889ED8"/>
<path fill-rule="evenodd" clip-rule="evenodd" d="M93.1877 121.492C93.1877 129.015 99.3066 135.134 106.83 135.134C114.353 135.134 120.472 129.015 120.472 121.492C120.472 113.969 114.353 107.85 106.83 107.85C99.3066 107.85 93.1877 113.969 93.1877 121.492ZM95.0794 121.492C95.0794 115.015 100.352 109.744 106.83 109.744C113.31 109.744 118.578 115.015 118.578 121.492C118.578 127.972 113.307 133.243 106.83 133.243C100.35 133.243 95.0794 127.97 95.0794 121.492Z" fill="#889ED8"/>
<path fill-rule="evenodd" clip-rule="evenodd" d="M99.0098 121.492C99.0098 125.805 102.52 129.316 106.833 129.316C111.147 129.316 114.657 125.805 114.657 121.492C114.657 117.179 111.149 113.669 106.833 113.669C102.518 113.669 99.0098 117.179 99.0098 121.492ZM100.904 121.492C100.904 118.222 103.563 115.563 106.834 115.563C110.104 115.563 112.763 118.222 112.763 121.492C112.763 124.763 110.104 127.422 106.834 127.422C103.563 127.422 100.904 124.763 100.904 121.492Z" fill="#889ED8"/>
<path d="M105.808 123.192L106.025 118.376C106.05 117.853 106.487 117.452 107.012 117.472C107.535 117.495 107.939 117.939 107.917 118.459L107.856 119.793L139.236 101.358C139.688 101.092 140.266 101.244 140.532 101.693C140.797 102.143 140.645 102.724 140.196 102.989L105.808 123.192Z" fill="#ED7061"/>
<path d="M110.064 123.376H106.832C106.309 123.376 105.885 122.952 105.885 122.429C105.885 121.906 106.309 121.482 106.832 121.482H110.064C110.587 121.482 111.011 121.906 111.011 122.429C111.011 122.952 110.587 123.376 110.064 123.376Z" fill="#ED7061"/>
<path d="M164.298 81.099C164.144 81.099 163.988 81.0611 163.844 80.9828C163.384 80.7303 163.217 80.157 163.47 79.6974L171.238 65.5528L177.443 71.49L181.579 64.9291L185.208 67.1261L193.888 45.5899L199.936 56.3201L205.628 47.8905L210.429 53.7796L220.139 35.8975C220.447 35.3293 220.854 34.7081 221.283 34.049C221.637 33.506 222.013 32.9302 222.341 32.3696C221.975 32.5287 221.601 32.7029 221.245 32.8696C220.586 33.1777 219.965 33.4681 219.404 33.6575C218.912 33.8242 218.374 33.5565 218.205 33.0615C218.038 32.5666 218.306 32.0287 218.801 31.862C219.26 31.7079 219.833 31.4403 220.442 31.1549C221.649 30.5917 222.894 30.0084 223.998 29.9225L225.344 29.819L224.983 31.1195C224.632 32.3797 223.735 33.7535 222.866 35.0844C222.457 35.7106 222.071 36.3016 221.801 36.8016L210.745 57.1636L205.77 51.0598L199.79 59.9162L194.168 49.9461L186.127 69.8939L182.185 67.5075L177.806 74.4548L171.71 68.6212L165.129 80.6065C164.957 80.9222 164.634 81.099 164.298 81.099Z" fill="#4B6DC6"/>
<path d="M224.624 36.5415C224.101 36.5415 223.677 36.1173 223.677 35.5945V30.862C223.677 30.3392 224.101 29.915 224.624 29.915C225.146 29.915 225.571 30.3392 225.571 30.862V35.5945C225.571 36.1173 225.146 36.5415 224.624 36.5415Z" fill="#5A54FF"/>
<path d="M163.356 86.6168C162.836 86.6168 162.409 86.19 162.409 85.6698V25.2682C162.409 24.748 162.836 24.3212 163.356 24.3212C163.876 24.3212 164.303 24.748 164.303 25.2682V85.6723C164.303 86.1925 163.876 86.6168 163.356 86.6168Z" fill="#A7ADFF"/>
<path d="M157.6 81.0989C157.6 80.5787 158.027 80.1519 158.547 80.1519H218.951C219.471 80.1519 219.898 80.5787 219.898 81.0989C219.898 81.6192 219.471 82.0459 218.951 82.0459H158.544C158.024 82.0434 157.6 81.6192 157.6 81.0989Z" fill="#A7ADFF"/>
<path d="M197.975 38.8608H180.391C178.656 38.8608 177.236 37.4416 177.236 35.7067C177.236 33.9717 178.656 32.5525 180.391 32.5525H197.975C199.71 32.5525 201.129 33.9717 201.129 35.7067C201.129 37.4416 199.71 38.8608 197.975 38.8608Z" fill="#D85B7A"/>
<rect x="210.355" y="53.0143" width="0.709627" height="0.947011" fill="#4B369D"/>
<path fill-rule="evenodd" clip-rule="evenodd" d="M210.356 40.5467H211.066V38.7664H210.356V40.5467ZM211.066 44.1075H210.356V42.3271H211.066V44.1075ZM210.356 47.6708H211.066V45.8905H210.356V47.6708ZM210.356 51.234H211.066V49.4537H210.356V51.234Z" fill="#4B369D"/>
<path d="M211.063 36.9834H210.354V36.3924H209.763V35.6828H211.063V36.9834Z" fill="#4B369D"/>
<rect x="204.927" y="35.6828" width="2.4193" height="0.709627" fill="#4B369D"/>
<rect x="201.564" y="35.6829" width="0.947011" height="0.709627" fill="#4B369D"/>
<path d="M210.714 57.854H209.84C208.659 57.854 207.691 56.8868 207.691 55.7049V54.8312C207.691 53.6493 208.659 52.6821 209.84 52.6821H210.714C211.896 52.6821 212.863 53.6493 212.863 54.8312V55.7049C212.863 56.8868 211.896 57.854 210.714 57.854Z" fill="#D85B7A"/>
<g clip-path="url(#clip0_2896_36046)">
<path fill-rule="evenodd" clip-rule="evenodd" d="M275.726 118.822L258.205 179.197L249.964 224.528H241.693L249.95 118.822H275.726Z" fill="#C1547B"/>
<path fill-rule="evenodd" clip-rule="evenodd" d="M283.604 118.822C282.381 150.187 282.863 167.294 283.137 170.144C283.411 172.993 284.964 192.078 295.549 225.485H286.946C272.928 193.437 268.034 174.352 266.426 170.144C264.819 165.935 260.07 148.828 253.138 118.822H283.604Z" fill="#E36290"/>
<path fill-rule="evenodd" clip-rule="evenodd" d="M276.103 118.822C271.546 139.598 263.663 172.76 252.456 218.31H240.358C239.465 171.557 243.266 140.786 249.849 118.822H276.103Z" fill="#CF6255"/>
<path fill-rule="evenodd" clip-rule="evenodd" d="M283.665 118.822C282.468 150.187 285.571 181.087 295.182 218.798H282.275C268.231 187.229 258.165 156.481 251.286 118.822H283.665Z" fill="#ED7061"/>
<path fill-rule="evenodd" clip-rule="evenodd" d="M296.773 231.703L296.298 224.05C293.519 224.862 290.038 224.544 285.855 223.093C281.358 226.279 275.696 228.454 268.87 229.619L268.87 229.619C268.349 229.708 267.999 230.202 268.088 230.723C268.093 230.757 268.101 230.79 268.11 230.823L268.767 233.137H285.855H295.823L296.773 231.703Z" fill="#181B5E"/>
<path fill-rule="evenodd" clip-rule="evenodd" d="M251.811 231.703L251.336 224.05C248.557 224.862 245.076 224.544 240.893 223.093C236.396 226.279 230.734 228.454 223.908 229.619L223.908 229.619C223.387 229.708 223.037 230.202 223.126 230.723C223.132 230.757 223.139 230.79 223.148 230.823L223.805 233.137H240.893H250.862L251.811 231.703Z" fill="#181B5E"/>
</g>
<g clip-path="url(#clip1_2896_36046)">
<path fill-rule="evenodd" clip-rule="evenodd" d="M238.207 66.372L220.077 60.9296C216.695 58.2968 213.505 56.3718 210.507 55.1546C209.635 54.9905 208.191 55.0858 209.995 57.1321C211.799 59.1785 213.605 61.412 213.09 62.27C212.575 63.128 210.698 62.4812 210.155 63.8404C209.793 64.7465 212.902 65.3955 219.482 65.7873L233.578 74.0831L238.207 66.372ZM239.809 98.3359L224.552 109.54C220.414 110.656 216.956 112.045 214.18 113.707C213.524 114.305 212.732 115.515 215.451 115.306C218.171 115.097 221.042 114.999 221.417 115.927C221.792 116.854 220.146 117.964 220.905 119.216C221.411 120.05 223.8 117.958 228.073 112.938L243.182 106.673L239.809 98.3359Z" fill="#E36290"/>
<path fill-rule="evenodd" clip-rule="evenodd" d="M263.51 68.1636C255.201 83.6557 243.187 95.5315 225.769 107.877L232.364 115.313C251.812 108.086 262.076 103.725 267.116 89.0885C268.381 85.4149 269.265 73.7043 270.024 67.5427L263.51 68.1636Z" fill="#3A5292"/>
<path fill-rule="evenodd" clip-rule="evenodd" d="M286.733 119.779H249.904C258.246 94.336 262.508 76.8733 262.689 67.3912C262.698 66.9077 263.591 66.0559 263.986 66.1675C266.874 66.9833 269.965 66.6782 273.258 65.2524C281.99 79.2947 285.009 96.5836 286.733 119.779Z" fill="#F2F2F2"/>
<path fill-rule="evenodd" clip-rule="evenodd" d="M270.116 65.275C259.559 65.3614 242.431 67.2893 222.677 60.9476L220.727 70.6923C235.657 80.2942 250.774 87.7323 264.02 86.676C258.268 111.35 258.533 131.548 271.233 131.548C277.297 131.548 283.843 131.548 290.87 131.548C293.989 110.588 285.792 81.526 278.193 66.8674C277.903 66.3076 277.285 65.2523 275.829 65.2523C274.561 65.2523 272.659 65.2523 270.123 65.2523C270.121 65.2599 270.118 65.2674 270.116 65.275Z" fill="#4B6DC6"/>
</g>
<g clip-path="url(#clip2_2896_36046)">
<path fill-rule="evenodd" clip-rule="evenodd" d="M273.214 46.8325C275.418 44.2454 276.91 41.075 276.661 37.5224C275.942 27.2864 261.693 29.5382 258.922 34.7044C256.15 39.8707 256.479 52.9753 260.062 53.8986C261.49 54.2669 264.533 53.3649 267.631 51.4979L265.687 65.252H277.166L273.214 46.8325Z" fill="#E36290"/>
<path fill-rule="evenodd" clip-rule="evenodd" d="M265.467 28.7503C266.98 28.5022 271.054 28.3316 271.805 28.3317C272.285 28.3317 272.805 28.4414 273.09 28.0006C273.323 27.6396 273.237 27.029 273.307 26.6101C273.387 26.1235 273.502 25.6432 273.618 25.164C273.948 23.8006 274.447 22.5034 275.145 21.2856C276.454 19.0008 278.373 17.2111 280.795 16.1696C283.47 15.0197 286.497 14.7564 289.374 14.9897C292.454 15.2392 295.241 16.2556 298.148 17.2122C300.918 18.1236 303.82 18.4824 306.717 18.0373C309.636 17.5889 311.842 16.0066 314.305 14.5049C316.825 12.9675 319.706 11.962 322.686 12.1931C325.468 12.4089 328.032 13.5575 330.332 15.0919C332.484 16.5274 334.26 18.2546 335.262 20.6854C336.341 23.3003 336.34 26.1705 334.566 28.4815C331.996 31.8312 327.223 32.6974 323.253 32.6113C320.956 32.5616 318.701 32.1424 316.532 31.3798C313.641 30.3627 311.142 28.6388 308.437 27.2402C307.167 26.5838 305.855 26.0448 304.479 25.6565C303.145 25.2795 301.83 25.1066 300.621 25.913C299.343 26.766 298.197 27.6039 296.735 28.1379C295.332 28.6502 293.846 28.9367 292.351 28.9251C289.442 28.9027 286.575 27.9965 283.751 27.3895C281.447 26.8946 278.982 26.4013 276.634 26.8771C275.654 27.0756 274.223 27.4855 273.869 28.5039C279.826 29.5836 282.165 36.9508 280.486 42.359C279.58 45.278 274.131 48.6903 272.013 47.1558C270.671 46.1836 271.485 44.9072 272.013 44.0647C273.023 42.4512 273.368 40.3786 271.5 39.2552C269.888 38.2863 268.193 40.5871 268.161 40.5846C267.718 40.5497 263.89 38.3849 261.253 35.226C258.651 35.3802 258.257 33.6647 258.878 32.2618C259.499 30.8589 263.377 29.0933 265.467 28.7503Z" fill="#181B5E"/>
</g>
<defs>
<clipPath id="clip0_2896_36046">
<rect width="73.6591" height="114.315" fill="white" transform="matrix(-1 0 0 1 296.776 118.823)"/>
</clipPath>
<clipPath id="clip1_2896_36046">
<rect width="83.2252" height="77.0073" fill="white" transform="matrix(-1 0 0 1 291.997 54.7292)"/>
</clipPath>
<clipPath id="clip2_2896_36046">
<rect width="78.9205" height="53.092" fill="white" transform="matrix(-1 0 0 1 336 12.1602)"/>
</clipPath>
</defs>
</svg>
