<svg width="319" height="319" viewBox="0 0 319 319" fill="none" xmlns="http://www.w3.org/2000/svg">
    <circle cx="159.5" cy="159.5" r="157.5" fill="#F9F9F9" stroke="#FF7E79" stroke-width="4"/>
    <path d="M163.106 251.659C173.106 251.759 187.406 251.158 201.606 252.758C208.106 253.458 214.806 253.759 221.106 256.159C222.106 256.559 223.806 256.358 223.606 257.958C223.506 259.258 222.106 259.759 221.006 260.059C217.106 260.959 213.306 262.058 209.406 262.458C183.606 265.158 157.606 265.158 131.806 264.358C120.506 263.958 109.006 263.559 97.8058 260.659C96.8058 260.359 95.8058 260.258 94.9058 259.958C93.9058 259.558 92.5058 259.159 92.7058 257.659C92.8058 256.359 94.2058 256.558 95.1058 256.258C101.306 253.758 108.006 253.458 114.606 252.758C129.306 251.258 144.106 251.659 163.106 251.659Z" fill="#181B5E"/>
    <g filter="url(#filter0_d)">
        <path d="M156.006 195.91C131.406 195.91 106.706 195.91 82.1056 195.91C66.9056 195.91 55.1056 189.71 47.8056 176.01C36.5056 154.61 51.7056 127.01 75.8056 125.31C80.7056 124.91 82.1056 123.61 82.5056 118.61C85.4056 84.2102 119.006 56.0102 153.506 58.1102C171.506 59.2102 187.106 65.5102 199.806 78.4102C202.006 80.7102 203.406 80.0102 205.706 78.8102C228.906 67.3102 255.506 81.1102 257.306 106.61C257.906 114.81 260.806 119.71 265.506 125.61C275.406 138.01 277.406 152.51 271.606 167.41C265.706 182.81 254.106 192.11 237.806 195.11C234.206 195.81 230.506 195.81 226.906 195.81C203.306 195.91 179.706 195.91 156.006 195.91ZM155.006 191.81C179.506 191.81 203.906 191.91 228.406 191.81C247.306 191.71 261.906 182.11 268.006 165.61C273.406 151.01 270.006 132.21 255.306 120.91C252.606 118.91 253.006 116.51 253.306 113.81C254.906 100.91 250.206 90.5102 239.306 83.5102C228.506 76.5102 216.906 76.5102 205.906 83.3102C202.706 85.3102 201.006 85.4102 198.406 82.6102C186.306 69.3102 171.106 62.8102 153.106 61.9102C118.806 60.2102 87.4056 88.3102 86.3056 122.61C86.1056 127.81 84.7056 129.21 79.4056 129.11C62.6056 128.61 48.9056 141.91 48.3056 158.71C47.6056 177.41 61.7056 191.51 81.6056 191.61C106.106 191.91 130.606 191.81 155.006 191.81Z" fill="#100F6D"/>
        <path d="M155.006 191.81C130.506 191.81 106.106 191.91 81.6056 191.81C61.7056 191.71 47.5056 177.61 48.3056 158.91C48.9056 142.11 62.6056 128.81 79.4056 129.31C84.7056 129.51 86.1056 128.01 86.3056 122.81C87.4056 88.6102 118.806 60.4102 153.106 62.1102C171.106 63.0102 186.306 69.5102 198.406 82.8102C201.006 85.7102 202.706 85.5102 205.906 83.5102C216.906 76.6102 228.406 76.7102 239.306 83.7102C250.206 90.7102 254.906 101.01 253.306 114.01C253.006 116.71 252.706 119.01 255.306 121.11C270.006 132.31 273.506 151.11 268.006 165.81C261.906 182.21 247.306 191.91 228.406 192.01C204.006 191.81 179.506 191.81 155.006 191.81Z" fill="white"/>
    </g>
    <defs>
        <filter id="filter0_d" x="44" y="58" width="230.835" height="145.91" filterUnits="userSpaceOnUse" color-interpolation-filters="sRGB">
            <feFlood flood-opacity="0" result="BackgroundImageFix"/>
            <feColorMatrix in="SourceAlpha" type="matrix" values="0 0 0 0 0 0 0 0 0 0 0 0 0 0 0 0 0 0 127 0" result="hardAlpha"/>
            <feOffset dy="8"/>
            <feComposite in2="hardAlpha" operator="out"/>
            <feColorMatrix type="matrix" values="0 0 0 0 0 0 0 0 0 0 0 0 0 0 0 0 0 0 0.15 0"/>
            <feBlend mode="normal" in2="BackgroundImageFix" result="effect1_dropShadow"/>
            <feBlend mode="normal" in="SourceGraphic" in2="effect1_dropShadow" result="shape"/>
        </filter>
    </defs>
</svg>
