<svg width="294" height="230" viewBox="0 0 294 230" fill="none" xmlns="http://www.w3.org/2000/svg">
<path d="M12.4297 137H111.43V110.8H80.4297C72.0297 110.8 60.4297 111.2 53.8297 111.6V111.4C89.6297 90.8 109.83 71.2 109.83 45.4C109.83 24.8 95.0297 3 60.0297 3C30.4297 3 8.82969 18.8 8.22969 48L37.6297 57C38.0297 39.4 45.2297 30 57.8297 30C69.6297 30 75.6297 37.6 75.6297 47.8C75.6297 66.4 57.6297 86.8 12.4297 115V137Z" fill="#DCDCDC" fill-opacity="0.3"/>
<g filter="url(#filter0_d_3021_31120)">
<rect x="58" y="40.7524" width="225.999" height="49.1332" rx="11.3" fill="white" shape-rendering="crispEdges"/>
<path d="M87.7566 61.4796V59.3891H78.4529V71.819H81.0519V66.734H86.3441V64.6247H81.0519V61.4796H87.7566ZM95.4959 62.4024V67.4497C95.4959 69.2012 94.5165 69.9734 93.2924 69.9734C92.2754 69.9734 91.6539 69.5025 91.6539 67.977V62.4024H89.0737V68.6362C89.0737 71.0469 90.4862 72.0074 92.3884 72.0074C93.895 72.0074 95.0627 71.4424 95.6842 70.1994L95.7784 71.819H98.076V62.4024H95.4959ZM103.239 58.2779H100.659V69.2012C100.659 71.1599 101.469 72.0074 103.295 72.0074C103.917 72.0074 104.633 71.8567 105.047 71.6119L105.273 69.8227C104.859 69.9734 104.595 70.0299 104.162 70.0299C103.465 70.0299 103.239 69.7097 103.239 68.8245V58.2779ZM109.159 58.2779H106.579V69.2012C106.579 71.1599 107.389 72.0074 109.215 72.0074C109.837 72.0074 110.553 71.8567 110.967 71.6119L111.193 69.8227C110.779 69.9734 110.515 70.0299 110.082 70.0299C109.385 70.0299 109.159 69.7097 109.159 68.8245V58.2779ZM123.388 62.2141C121.976 62.2141 120.808 62.8167 120.187 64.0786L120.092 62.4024H117.776V71.819H120.356V66.847C120.356 64.9637 121.43 64.2481 122.522 64.2481C123.501 64.2481 124.198 64.7754 124.198 66.3951V71.819H126.778V65.6417C126.778 63.3629 125.347 62.2141 123.388 62.2141ZM137.949 70.2559C137.459 70.2559 137.252 70.0299 137.252 69.5402V65.6794C137.252 63.3441 135.595 62.2141 132.977 62.2141C130.679 62.2141 129.267 63.2311 128.871 64.8319L130.924 65.6982C131.207 64.5117 131.998 64.0974 133.09 64.0974C134.107 64.0974 134.691 64.7377 134.691 65.7359V66.1879L132.431 66.621C129.907 67.0919 128.758 68.1277 128.758 69.5967C128.758 71.1787 129.888 72.0074 131.677 72.0074C133.259 72.0074 134.446 71.5177 135.011 70.5949C135.275 71.6119 136.047 72.0074 137.177 72.0074C137.648 72.0074 138.062 71.9132 138.401 71.7437L138.589 70.1805C138.401 70.237 138.175 70.2559 137.949 70.2559ZM132.487 70.2559C131.809 70.2559 131.414 69.9357 131.414 69.333C131.414 68.7115 131.847 68.4102 132.676 68.2219L134.691 67.7699V68.7492C134.691 69.7474 133.467 70.2559 132.487 70.2559ZM151.852 62.2141C150.534 62.2141 149.272 62.8356 148.65 64.1162C148.142 62.8356 146.937 62.2141 145.581 62.2141C144.262 62.2141 143.095 62.8167 142.473 64.0597L142.379 62.4024H140.062V71.819H142.643V66.8282C142.643 64.9826 143.716 64.2481 144.714 64.2481C145.675 64.2481 146.353 64.7754 146.353 66.1502V71.819H148.933V66.7529C148.933 65.1144 149.856 64.2481 151.005 64.2481C151.946 64.2481 152.624 64.7754 152.624 66.1502V71.819H155.186L155.204 65.6417C155.223 63.3252 153.679 62.2141 151.852 62.2141ZM166.567 67.073C166.567 63.9844 164.966 62.2141 162.028 62.2141C158.996 62.2141 157.282 64.0221 157.282 67.1107C157.282 70.1994 159.052 72.0074 162.179 72.0074C164.307 72.0074 165.757 71.1975 166.36 69.6909L164.25 68.9187C163.987 69.672 163.271 70.0864 162.179 70.0864C160.917 70.0864 160.088 69.446 159.824 68.09H166.491C166.529 67.8452 166.567 67.3367 166.567 67.073ZM162.009 64.1162C163.196 64.1162 163.987 64.8696 164.194 66.2821H159.806C160.013 64.8507 160.766 64.1162 162.009 64.1162Z" fill="#181B5E"/>
<g clip-path="url(#clip0_3021_31120)">
<rect x="232.258" y="57.3507" width="32.0165" height="15.0666" rx="7.53331" fill="#181B5E" stroke="#181B5E" stroke-width="1.88333"/>
<circle cx="256.741" cy="64.884" r="7.53331" fill="white" stroke="#181B5E" stroke-width="1.88333"/>
</g>
</g>
<g filter="url(#filter1_d_3021_31120)">
<rect x="58" y="104.952" width="225.999" height="49.1332" rx="11.3" fill="white" shape-rendering="crispEdges"/>
<path d="M83.2554 123.589H78.4529V136.019H83.2554C87.1539 136.019 89.3762 133.778 89.3762 129.804C89.3762 125.83 87.1539 123.589 83.2554 123.589ZM83.1236 133.947H81.0519V125.661H83.1236C85.4966 125.661 86.6831 127.13 86.6831 129.804C86.6831 132.478 85.4966 133.947 83.1236 133.947ZM100.165 134.456C99.6751 134.456 99.4679 134.23 99.4679 133.74V129.879C99.4679 127.544 97.8106 126.414 95.1928 126.414C92.8951 126.414 91.4826 127.431 91.0871 129.032L93.1399 129.898C93.4224 128.712 94.2134 128.297 95.3058 128.297C96.3228 128.297 96.9066 128.938 96.9066 129.936V130.388L94.6466 130.821C92.1229 131.292 90.9741 132.328 90.9741 133.797C90.9741 135.379 92.1041 136.207 93.8933 136.207C95.4753 136.207 96.6618 135.718 97.2267 134.795C97.4904 135.812 98.2626 136.207 99.3926 136.207C99.8634 136.207 100.278 136.113 100.617 135.944L100.805 134.38C100.617 134.437 100.391 134.456 100.165 134.456ZM94.7031 134.456C94.0251 134.456 93.6296 134.136 93.6296 133.533C93.6296 132.911 94.0628 132.61 94.8914 132.422L96.9066 131.97V132.949C96.9066 133.947 95.6824 134.456 94.7031 134.456ZM107.975 133.721C107.579 134.06 107.146 134.249 106.524 134.249C105.715 134.249 105.225 133.853 105.225 132.949V128.523H108.276V126.602H105.225V123.721L102.645 124.436V126.602H100.931V128.523H102.645V133.363C102.645 135.435 103.926 136.207 105.79 136.207C106.788 136.207 107.767 135.925 108.37 135.435L107.975 133.721ZM118.685 131.273C118.685 128.184 117.085 126.414 114.147 126.414C111.114 126.414 109.401 128.222 109.401 131.311C109.401 134.399 111.171 136.207 114.297 136.207C116.425 136.207 117.876 135.397 118.478 133.891L116.369 133.119C116.105 133.872 115.39 134.286 114.297 134.286C113.035 134.286 112.207 133.646 111.943 132.29H118.61C118.648 132.045 118.685 131.537 118.685 131.273ZM114.128 128.316C115.314 128.316 116.105 129.069 116.312 130.482H111.924C112.131 129.051 112.885 128.316 114.128 128.316ZM130.752 126.414C127.72 126.414 125.93 128.241 125.93 131.311C125.93 134.38 127.72 136.207 130.752 136.207C133.784 136.207 135.573 134.38 135.573 131.311C135.573 128.241 133.784 126.414 130.752 126.414ZM130.752 128.335C132.202 128.335 132.993 129.314 132.993 131.311C132.993 133.307 132.202 134.286 130.752 134.286C129.302 134.286 128.511 133.307 128.511 131.311C128.511 129.314 129.302 128.335 130.752 128.335ZM140.727 125.661C140.727 124.625 141.33 124.21 142.347 124.21C142.817 124.21 143.138 124.305 143.42 124.493L143.778 122.779C143.382 122.478 142.667 122.289 141.819 122.289C139.71 122.289 138.26 123.344 138.26 125.472V126.602H136.621V128.523H138.26V136.019H140.84V128.523H143.703V126.602H140.727V125.661ZM155.878 126.414C154.485 126.414 153.468 127.111 152.921 128.165V122.478H150.341V136.019H152.62L152.714 134.192C153.242 135.397 154.372 136.207 155.878 136.207C158.383 136.207 159.909 134.399 159.909 131.329C159.909 128.241 158.364 126.414 155.878 126.414ZM155.106 134.23C153.769 134.23 152.921 133.232 152.921 131.405V131.216C152.921 129.427 153.75 128.391 155.106 128.391C156.481 128.391 157.31 129.39 157.31 131.311C157.31 133.232 156.481 134.23 155.106 134.23ZM163.391 125.246C164.464 125.246 164.992 124.794 164.992 123.871C164.992 122.949 164.464 122.478 163.391 122.478C162.317 122.478 161.79 122.949 161.79 123.871C161.79 124.794 162.317 125.246 163.391 125.246ZM164.672 126.602H162.091V136.019H164.672V126.602ZM172.642 126.414C171.173 126.414 170.213 127.148 169.723 128.448L169.554 126.602H167.313V136.019H169.893V131.141C169.893 129.427 171.023 128.599 172.153 128.599C172.642 128.599 173.076 128.712 173.339 128.881L173.659 126.621C173.433 126.489 173.057 126.414 172.642 126.414ZM180.879 133.721C180.483 134.06 180.05 134.249 179.428 134.249C178.619 134.249 178.129 133.853 178.129 132.949V128.523H181.18V126.602H178.129V123.721L175.549 124.436V126.602H173.835V128.523H175.549V133.363C175.549 135.435 176.829 136.207 178.694 136.207C179.692 136.207 180.671 135.925 181.274 135.435L180.879 133.721ZM188.554 126.414C187.216 126.414 186.124 126.998 185.521 128.203V122.478H182.941V136.019H185.521V131.047C185.521 129.164 186.595 128.448 187.687 128.448C188.667 128.448 189.363 128.975 189.363 130.595V136.019H191.944V129.842C191.944 127.563 190.512 126.414 188.554 126.414Z" fill="#181B5E"/>
<g clip-path="url(#clip1_3021_31120)">
<rect x="232.258" y="121.551" width="32.0165" height="15.0666" rx="7.53331" fill="#181B5E" stroke="#181B5E" stroke-width="1.88333"/>
<circle cx="256.741" cy="129.084" r="7.53331" fill="white" stroke="#181B5E" stroke-width="1.88333"/>
</g>
</g>
<g filter="url(#filter2_d_3021_31120)">
<rect x="58" y="169.152" width="225.999" height="49.1332" rx="11.3" fill="white" shape-rendering="crispEdges"/>
<path d="M86.5512 200.219H89.2444L84.7056 187.789H81.5981L77.0593 200.219H79.7148L80.7318 197.187H85.5342L86.5512 200.219ZM81.3909 195.266L82.5774 191.725L83.1047 189.879H83.1424L83.7074 191.763L84.8939 195.266H81.3909ZM97.0447 186.678V192.328C96.4986 191.292 95.4816 190.614 94.1068 190.614C91.6208 190.614 90.0764 192.441 90.0764 195.529C90.0764 198.599 91.6019 200.407 94.1068 200.407C95.5569 200.407 96.6681 199.654 97.2142 198.524L97.3272 200.219H99.6249V186.678H97.0447ZM94.8789 198.43C93.5041 198.43 92.6754 197.431 92.6754 195.51C92.6754 193.589 93.5041 192.591 94.8789 192.591C96.1219 192.591 96.9129 193.458 97.0447 194.964V196.057C96.9129 197.601 96.1031 198.43 94.8789 198.43ZM108.795 186.678V192.328C108.249 191.292 107.232 190.614 105.857 190.614C103.371 190.614 101.827 192.441 101.827 195.529C101.827 198.599 103.352 200.407 105.857 200.407C107.307 200.407 108.418 199.654 108.964 198.524L109.077 200.219H111.375V186.678H108.795ZM106.629 198.43C105.254 198.43 104.426 197.431 104.426 195.51C104.426 193.589 105.254 192.591 106.629 192.591C107.872 192.591 108.663 193.458 108.795 194.964V196.057C108.663 197.601 107.853 198.43 106.629 198.43ZM119.34 190.614C117.871 190.614 116.91 191.348 116.421 192.648L116.251 190.802H114.01V200.219H116.59V195.341C116.59 193.627 117.72 192.798 118.85 192.798C119.34 192.798 119.773 192.911 120.037 193.081L120.357 190.821C120.131 190.689 119.754 190.614 119.34 190.614ZM130.472 195.473C130.472 192.384 128.871 190.614 125.933 190.614C122.901 190.614 121.188 192.422 121.188 195.51C121.188 198.599 122.958 200.407 126.084 200.407C128.212 200.407 129.662 199.597 130.265 198.091L128.156 197.318C127.892 198.072 127.176 198.486 126.084 198.486C124.822 198.486 123.994 197.846 123.73 196.49H130.397C130.435 196.245 130.472 195.736 130.472 195.473ZM125.915 192.516C127.101 192.516 127.892 193.269 128.099 194.682H123.711C123.918 193.25 124.672 192.516 125.915 192.516ZM136.198 200.407C139.004 200.407 140.492 199.183 140.492 197.488C140.492 195.925 139.475 195.096 136.726 194.55C135.144 194.23 134.673 193.91 134.673 193.401C134.673 192.911 135.313 192.497 136.368 192.497C137.63 192.497 138.383 192.987 138.929 193.966L140.53 192.61C139.664 191.254 138.496 190.614 136.33 190.614C133.543 190.614 132.093 192.12 132.093 193.646C132.093 195.209 133.072 196.113 136.01 196.697C137.385 196.979 137.893 197.243 137.893 197.676C137.893 198.185 137.272 198.524 136.161 198.524C134.88 198.524 133.863 198.185 133.336 197.055L131.829 198.599C132.695 199.88 134.258 200.407 136.198 200.407ZM146.109 200.407C148.915 200.407 150.403 199.183 150.403 197.488C150.403 195.925 149.386 195.096 146.637 194.55C145.055 194.23 144.584 193.91 144.584 193.401C144.584 192.911 145.224 192.497 146.279 192.497C147.541 192.497 148.294 192.987 148.84 193.966L150.441 192.61C149.575 191.254 148.407 190.614 146.241 190.614C143.454 190.614 142.004 192.12 142.004 193.646C142.004 195.209 142.983 196.113 145.921 196.697C147.296 196.979 147.804 197.243 147.804 197.676C147.804 198.185 147.183 198.524 146.072 198.524C144.791 198.524 143.774 198.185 143.247 197.055L141.74 198.599C142.606 199.88 144.169 200.407 146.109 200.407Z" fill="#181B5E"/>
<g clip-path="url(#clip2_3021_31120)">
<rect x="231.787" y="185.28" width="32.9582" height="16.0083" rx="8.00414" stroke="#181B5E" stroke-width="0.941663"/>
<circle cx="239.791" cy="193.284" r="8.00414" stroke="#181B5E" stroke-width="0.941663"/>
</g>
</g>
<defs>
<filter id="filter0_d_3021_31120" x="48.5834" y="33.2191" width="244.832" height="67.9665" filterUnits="userSpaceOnUse" color-interpolation-filters="sRGB">
<feFlood flood-opacity="0" result="BackgroundImageFix"/>
<feColorMatrix in="SourceAlpha" type="matrix" values="0 0 0 0 0 0 0 0 0 0 0 0 0 0 0 0 0 0 127 0" result="hardAlpha"/>
<feOffset dy="1.88333"/>
<feGaussianBlur stdDeviation="4.70832"/>
<feComposite in2="hardAlpha" operator="out"/>
<feColorMatrix type="matrix" values="0 0 0 0 0 0 0 0 0 0 0 0 0 0 0 0 0 0 0.1 0"/>
<feBlend mode="normal" in2="BackgroundImageFix" result="effect1_dropShadow_3021_31120"/>
<feBlend mode="normal" in="SourceGraphic" in2="effect1_dropShadow_3021_31120" result="shape"/>
</filter>
<filter id="filter1_d_3021_31120" x="48.5834" y="97.419" width="244.832" height="67.9665" filterUnits="userSpaceOnUse" color-interpolation-filters="sRGB">
<feFlood flood-opacity="0" result="BackgroundImageFix"/>
<feColorMatrix in="SourceAlpha" type="matrix" values="0 0 0 0 0 0 0 0 0 0 0 0 0 0 0 0 0 0 127 0" result="hardAlpha"/>
<feOffset dy="1.88333"/>
<feGaussianBlur stdDeviation="4.70832"/>
<feComposite in2="hardAlpha" operator="out"/>
<feColorMatrix type="matrix" values="0 0 0 0 0 0 0 0 0 0 0 0 0 0 0 0 0 0 0.1 0"/>
<feBlend mode="normal" in2="BackgroundImageFix" result="effect1_dropShadow_3021_31120"/>
<feBlend mode="normal" in="SourceGraphic" in2="effect1_dropShadow_3021_31120" result="shape"/>
</filter>
<filter id="filter2_d_3021_31120" x="48.5834" y="161.619" width="244.832" height="67.9665" filterUnits="userSpaceOnUse" color-interpolation-filters="sRGB">
<feFlood flood-opacity="0" result="BackgroundImageFix"/>
<feColorMatrix in="SourceAlpha" type="matrix" values="0 0 0 0 0 0 0 0 0 0 0 0 0 0 0 0 0 0 127 0" result="hardAlpha"/>
<feOffset dy="1.88333"/>
<feGaussianBlur stdDeviation="4.70832"/>
<feComposite in2="hardAlpha" operator="out"/>
<feColorMatrix type="matrix" values="0 0 0 0 0 0 0 0 0 0 0 0 0 0 0 0 0 0 0.1 0"/>
<feBlend mode="normal" in2="BackgroundImageFix" result="effect1_dropShadow_3021_31120"/>
<feBlend mode="normal" in="SourceGraphic" in2="effect1_dropShadow_3021_31120" result="shape"/>
</filter>
<clipPath id="clip0_3021_31120">
<rect width="33.8999" height="17.8916" fill="white" transform="translate(231.266 56.3732)"/>
</clipPath>
<clipPath id="clip1_3021_31120">
<rect width="33.8999" height="17.8916" fill="white" transform="translate(231.266 120.573)"/>
</clipPath>
<clipPath id="clip2_3021_31120">
<rect width="33.8999" height="17.8916" fill="white" transform="translate(231.266 184.773)"/>
</clipPath>
</defs>
</svg>
