<svg width="930" height="651" viewBox="0 0 930 651" fill="none" xmlns="http://www.w3.org/2000/svg">
    <g clip-path="url(#clip0)">
        <path d="M184.297 567.68C169.322 567.337 156.012 560.779 142.285 556.032C129.145 551.481 117.253 543.968 104.579 538.193C114.856 551.285 130.124 555.665 144.291 561.856C148.01 563.471 151.999 564.425 155.865 565.722C178.523 573.332 178.327 573.357 178.743 597.778C178.865 605.29 178.425 608.569 168.955 606.709C139.446 600.983 110.231 595.013 82.4591 582.778C41.6946 564.792 24.5421 531.635 22.2176 489.155C21.5814 477.41 21.0921 465.322 23.1964 453.87C29.9986 416.749 61.2205 397.05 97.9967 405.541C97.1892 410.044 100.444 412.222 103.429 414.253C115.903 422.629 129.222 429.674 143.166 435.273C150.506 438.405 152.17 435.933 152.194 428.666C152.219 421.398 148.426 414.791 147.717 406.643C167.952 410.362 181.728 422.328 193.081 437.426C212.142 462.826 220.706 493.266 232.916 521.97C234.776 526.325 233.381 527.989 229.05 528.136C228.643 528.111 228.234 528.111 227.827 528.136C205.952 533.201 205.805 533.201 205.634 511.007C205.762 494.675 201.476 478.611 193.228 464.514C188.824 456.879 185.888 448.021 176.663 444.4L174.069 442.173L173.042 439.261L171.818 440.191L173.629 442.638L175.904 445.207L190.586 467.23C203.701 492.483 200.104 519.792 200.813 546.684C201.034 554.637 191.785 554.392 191.271 560.804L191.148 560.118C186.255 560.118 183.808 562.565 183.637 567.631L184.297 567.68ZM94.5466 528.528C95.3785 529.531 95.3051 532.345 97.2137 530.975C98.7063 529.996 96.9201 528.307 95.8434 527.206C89.2859 503.911 82.8507 480.493 77.9569 456.659C74.5558 464 77.7123 470.607 78.8134 477.092C81.7496 494.808 83.2911 513.209 94.5466 528.479V528.528Z" fill="#FF7E79"/>
        <path d="M149.332 317.376C148.52 317.269 147.703 317.212 146.885 317.205C135.042 317.67 121.487 313.289 119.186 333.061C118.501 338.738 110.745 350.19 99.4159 340.402C98.4097 339.664 97.1747 339.306 95.9298 339.391C94.6848 339.476 93.5101 339.999 92.6136 340.867C89.4327 343.999 89.8242 348.208 90.6317 352.221C91.6838 357.482 95.3052 359.342 100.199 359.562C100.346 360.443 100.468 361.349 100.615 362.23C97.2626 365.876 100.077 370.011 99.7095 373.877L95.7945 376.324C93.0785 373.143 93.0296 376.74 92.0264 377.841C78.3729 392.279 61.0248 388.388 54.4427 369.399C53.9533 367.931 53.5863 366.389 53.0235 364.383C45.2425 372.801 36.7275 374.832 27.821 367.882C18.9144 360.933 18.3272 352.368 24.1996 343.069C-1.05192 334.823 -5.38284 319.847 12.4547 301.593C2.66731 297.139 -1.98173 289.725 0.685345 279.129C3.35241 268.534 10.8643 265.059 21.0187 265.597C14.9505 246.633 16.7612 237.555 28.3593 228.892C39.9574 220.23 48.2766 220.768 63.3493 231.633C64.2301 224.684 64.8663 217.905 70.2249 213.085C75.5145 208.531 82.2112 205.939 89.188 205.744C102.915 204.912 112.14 212.228 116.568 227.522C123.395 222.628 129.145 215.458 138.712 217.734C145.098 219.225 150.81 222.787 154.959 227.865C164.233 238.778 163.572 247.685 152.684 260.043C176.639 268.974 182.046 297.727 154.054 315.296C153.151 315.168 152.231 315.295 151.397 315.663C150.562 316.03 149.847 316.624 149.332 317.376V317.376Z" fill="#181B5E"/>
        <path d="M452.546 228.06C443.248 234.496 432.58 235.401 422.939 238.803C411.831 242.693 400.502 245.997 389.099 248.982C383.643 250.401 382.101 253.289 382.126 258.525C382.297 285.442 382.126 312.139 382.126 340.818C405.958 333.673 426.879 327.311 447.873 321.242C450.834 320.386 455.532 316.617 457.049 321.854C458.248 325.965 452.62 325.842 449.953 326.748C430.598 332.914 411.17 338.983 391.595 344.391C385.796 346.006 384.059 348.233 384.255 354.399C385.111 375.15 385.209 395.998 385.331 416.675C385.331 420.444 387.093 424.848 382.517 428.543C378.578 418.584 379.752 408.453 379.337 398.641C378.749 384.815 378.676 370.941 379.018 357.042C379.165 350.386 377.526 348.184 370.797 350.239C352.519 355.769 334.094 361.202 315.792 366.218C310.409 367.686 309.014 369.84 309.283 375.517C310.188 395.093 310.262 414.669 310.629 434.245C310.629 437.988 310.629 441.732 310.629 446.088C304.194 444.008 305.735 440.166 305.564 437.279C304.732 418.584 303.606 399.864 303.631 381.169C303.631 372.36 301.967 369.57 292.84 372.654C280.54 376.891 267.978 380.324 255.232 382.931C247.304 384.497 245.665 388.241 245.91 395.386C246.595 414.962 246.741 434.538 247.011 454.114C247.011 457.148 246.546 460.183 246.301 463.217C241.823 462.752 242.337 459.963 242.288 457.613C240.355 378.673 238.545 299.709 236.391 220.768C236.171 213.109 238.447 209.145 245.787 206.355C313.027 180.833 380.119 154.968 447.261 129.226C449.414 128.394 451.47 126.485 454.797 128.321C455.165 133.582 450.687 133.802 447.237 135.123C427.515 142.685 407.842 150.368 388.072 157.807C383.57 159.495 380.315 161.184 380.511 167.032C381.245 190.254 381.759 213.525 381.93 236.674C381.93 243.403 383.3 245.165 390.298 242.791C406.472 237.359 422.866 232.612 439.235 228.109C443.199 226.91 447.432 223.289 452.546 228.06ZM377.134 296.185C377.55 293.958 376.987 291.903 374.687 291.291C353.865 286.128 333.091 281.087 312.121 276.022C307.888 274.994 306.053 276.707 306.2 280.916C307.056 306.071 307.913 331.201 308.647 356.332C308.843 363.477 311.926 360.981 315.229 358.779C335.415 356.185 354.158 348.159 373.733 343.339C379.141 342.017 378.774 337.808 378.627 333.722C378.105 321.258 377.607 308.746 377.134 296.185V296.185ZM303.949 269.415L371.849 248.493C375.519 247.367 376.743 244.994 376.743 241.152C376.596 215.605 376.743 190.058 376.743 162.163C351.883 171.681 330.424 180.001 308.843 188.101C304.34 189.765 304.096 192.995 304.096 196.837C303.949 220.426 303.949 243.966 303.949 269.415V269.415ZM302.75 322.074H301.111C301.111 309.839 300.915 297.604 301.111 285.369C301.257 278.615 299.031 276.902 292.522 279.154C278.33 284.048 264.041 288.819 249.629 293.053C245.004 294.423 244.172 296.723 244.246 300.932C244.662 324.546 245.004 348.159 245.102 371.773C245.102 378.208 247.549 379.481 253.372 377.719C264.56 373.998 275.958 370.942 287.506 368.567C300.89 366.12 305.735 360.125 303.019 346.544C301.478 338.542 302.75 330.174 302.75 322.074ZM243.34 248.958C243.34 259.888 243.34 270.818 243.34 281.748C243.34 287.865 245.518 289.089 251.586 286.862C265.215 281.845 279.138 277.416 293.183 273.379C299.447 271.568 301.037 268.485 300.523 262.196C299.398 247.245 299.104 232.245 298.713 217.269C298.028 192.212 298.052 192.114 275.321 200.727C264.383 204.863 250.118 206.625 243.732 214.553C237.346 222.481 243.071 237.237 243.34 248.958Z" fill="#1F537C"/>
        <path d="M538.112 201.584C538.112 212.962 537.916 224.366 538.112 235.842C538.259 242.155 537.182 244.847 529.94 242.253C510.821 235.434 491.581 229.007 472.218 222.971C466.468 221.184 464.56 218.248 464.462 212.546C463.948 187.367 463.385 162.187 462.333 137.057C461.917 127.269 465.392 125.874 473.686 129.569C492.266 137.725 510.936 145.711 529.695 153.525C535.714 155.972 538.504 159.398 538.185 166.274C537.696 177.97 538.112 189.789 538.112 201.584Z" fill="#FF7E79"/>
        <path d="M888.159 246.658C901.691 259.823 911.796 275.532 921.486 291.511C935.017 313.803 929.316 337.539 925.425 360.59C920.36 390.59 912.334 420.15 907.441 450.199C901.911 484.457 907.269 519.327 904.872 553.854C903.126 579.009 901.642 604.181 900.418 629.369C900.125 635.559 897.188 637.958 891.879 639.279C837.73 652.909 784.853 651.073 733.567 627.044C726.227 623.618 723.78 619.116 723.78 611.089C722.654 560.853 728.013 511.105 734.938 461.504C735.811 455.971 734.465 450.317 731.194 445.77C717.687 424.481 704.523 402.997 691.384 381.487C685.363 371.726 682.358 360.405 682.746 348.942C683.554 316.422 685.78 284.048 693.023 250.646C697.354 259.529 695.078 267.188 693.904 274.48C689.94 299.072 689.499 323.91 688.105 348.673C687.511 358.911 690.119 369.08 695.568 377.768C707.802 397.515 720.305 416.92 732.001 437.01C736.283 444.351 738.534 440.509 742.572 434.563C743.82 446.455 741.226 455.729 740.125 464.979C734.179 513.087 729.408 561.22 729.041 609.744C729.041 616.326 730.68 620.094 736.797 622.933C785.734 645.543 836.335 647.648 888.111 634.899C893.347 633.602 895.035 630.69 895.255 625.429C896.699 592.933 900.394 560.412 899.635 527.965C898.51 478.34 902.62 429.742 916.005 381.854C920.898 364.603 922.122 346.618 924.006 328.804C926.771 302.254 910.401 283.754 896.626 264.203C893.151 259.309 889.114 254.659 885.321 249.912L888.159 246.658Z" fill="#24577F"/>
        <path d="M464.731 270.834C464.731 259.431 464.927 248.028 464.731 236.576C464.585 229.406 465.49 225.76 474.274 228.966C492.993 235.818 512.005 241.788 530.968 247.93C535.739 249.472 538.431 251.552 538.308 257.253C538.015 280.475 538.088 303.746 538.308 326.919C538.308 333.624 536.473 335.386 529.573 333.282C510.928 327.604 492.112 322.564 473.295 317.645C466.909 316.006 464.927 312.458 465.074 306.242C465.368 294.448 465.074 282.604 465.074 270.785L464.731 270.834Z" fill="#FF7E79"/>
        <path d="M467.006 367.662C467.006 355.427 467.25 343.192 467.006 330.957C466.81 323.322 469.306 322.123 476.5 324.374C494.288 329.929 512.297 334.896 530.33 339.423C536.325 340.916 538.332 343.706 538.307 349.456C538.177 373.926 538.177 398.355 538.307 422.744C538.307 428.788 536.447 430.55 530.208 428.812C511.856 423.698 493.358 419.024 474.86 414.448C469.355 413.078 466.883 410.313 467.104 404.22C467.568 391.985 467.25 379.75 467.25 367.515L467.006 367.662Z" fill="#FF7E79"/>
        <path d="M609.144 396.39C609.902 411.072 607.675 425.509 606.844 440.069C606.501 446.186 604.739 447.63 598.598 445.941C583.917 441.855 568.771 438.6 553.845 434.905C547.336 433.339 543.03 430.623 543.152 422.67C543.495 399.522 543.397 376.373 543.152 353.224C543.152 344.807 546.308 343.804 553.649 346.03C569.537 350.924 585.54 355.321 601.656 359.22C607.749 360.712 609.388 363.942 609.266 369.57C608.923 378.502 609.144 387.434 609.144 396.39Z" fill="#FF7E79"/>
        <path d="M161.615 645.078C131.196 645.236 100.846 642.152 71.0811 635.878C59.6543 633.431 55.4212 628.537 58.8468 616.669C61.5873 607.394 62.566 597.606 64.4012 588.063C65.4288 582.704 66.848 579.058 73.6747 582.998C103.869 600.298 137.562 605.853 171.231 611.457C175.637 612.175 179.999 613.139 184.297 614.344C196.531 617.819 202.159 627.264 199.394 639.597C198.22 644.907 193.106 644.638 189.607 644.883C180.358 645.494 170.937 645.078 161.615 645.078Z" fill="#FF7E79"/>
        <path d="M609.096 228.354C609.096 238.925 608.949 249.496 609.096 260.165C609.243 266.87 608.191 270.198 600.141 267.017C583.918 260.63 567.402 255.002 550.91 249.349C545.649 247.538 542.933 244.945 542.982 238.925C543.227 215.744 543.227 192.571 542.982 169.406C542.982 161.502 545.796 160.278 552.525 163.264C568.821 170.482 585.19 177.579 601.658 184.43C607.457 186.877 609.341 190.695 609.12 196.665C608.753 207.212 609.12 217.783 609.12 228.354H609.096Z" fill="#FF7E79"/>
        <path d="M543.177 295.426C543.177 284.464 543.348 273.403 543.177 262.514C543.03 255.393 545.355 252.726 552.646 255.173C569.407 261.266 586.217 267.286 603.15 272.939C607.921 274.529 609.291 277.221 609.267 281.87C609.136 303.436 609.136 324.986 609.267 346.52C609.267 353.053 607.016 355.5 600.458 353.592C584.113 348.82 567.768 344.097 551.35 339.619C545.281 337.955 542.859 334.725 543.104 328.241C543.471 317.4 543.177 306.413 543.177 295.426Z" fill="#FF7E79"/>
        <path d="M285.939 649.605C285.939 619.434 285.939 590.559 285.939 561.66C285.939 555.738 289.536 554.001 294.112 552.851C307.888 549.327 321.761 546.171 335.415 542.255C341.189 540.616 342.755 542.255 342.755 547.688C342.535 571.326 342.609 594.964 342.266 618.651C342.266 626.187 338.596 630.886 330.839 633.822C316.174 639.904 301.185 645.173 285.939 649.605V649.605Z" fill="#FF7E79"/>
        <path d="M667.649 420.248C667.649 431.651 667.649 443.078 667.649 454.506C667.649 460.33 666.083 462.508 659.648 460.746C646.728 457.222 633.589 454.506 620.498 451.594C614.063 450.175 610.515 447.14 611.69 439.824C615.189 417.605 613.818 395.166 613.941 372.825C613.941 365.484 615.8 363.429 623.288 365.925C634.837 369.742 646.68 372.825 658.547 375.468C666.132 377.156 668.138 381.316 667.82 388.486C667.355 399.081 667.698 409.677 667.698 420.297L667.649 420.248Z" fill="#FF7E79"/>
        <path d="M614.087 317.743C614.087 307.588 614.282 297.433 614.087 287.302C613.915 280.402 615.433 277.294 623.165 280.426C635.521 285.492 648.098 290.019 660.699 294.448C665.593 296.136 667.893 298.436 667.82 303.966C667.55 323.836 667.648 343.73 667.82 363.624C667.82 370.158 666.131 372.336 659.207 370.109C646.507 366.022 633.588 362.572 620.669 359.318C614.968 357.874 614.062 354.252 614.087 349.383C614.16 338.836 614.087 328.29 614.087 317.743Z" fill="#FF7E79"/>
        <path d="M835.086 413.029C829.85 402.899 834.915 392.376 833.961 382.075C833.594 378.061 834.499 373.926 834.132 369.84C833.765 365.753 831.465 362.499 839.026 363.061C845.045 363.575 847.1 356.895 847.81 351.609C848.642 345.565 844.653 344.611 839.393 344.268C831.563 343.779 833.691 336.756 834.499 333.037C837.508 319.97 831.293 315.32 819.818 312.678C809.048 310.33 798.986 305.466 790.455 298.485C779.42 289.309 775.505 277.881 779.787 262.074C786.345 269.415 791.679 276.487 800.855 278.126C803.815 274.407 799.998 269.048 805.112 265.01C815.462 280.524 831.514 288.55 847.492 296.992C859.359 303.281 862.784 315.051 857.817 329.807C855.37 337.319 850.868 344.097 853.095 352.808C853.537 354.85 853.356 356.977 852.575 358.914C851.794 360.851 850.45 362.509 848.715 363.673C835.845 370.28 838.928 382.124 837.949 392.792C837.288 399.571 838.463 406.545 835.502 413.054L835.086 413.029Z" fill="#181B5E"/>
        <path d="M313.075 453.258C338.278 446.945 359.81 441.366 381.587 436.325C384.841 435.566 388.732 437.01 392.206 437.94C414.228 443.739 436.03 449.71 458.051 456.635C428.053 462.679 400.232 481.619 367.053 468.331C350.904 461.92 333.506 458.862 313.075 453.258Z" fill="#0C4571"/>
        <path d="M777.242 223.044C776.136 222.975 775.038 222.803 773.964 222.53C753.312 214.064 753.312 214.064 753.337 191.918C753.337 176.453 753.508 160.988 753.337 145.548C753.337 139.552 754.046 135.906 761.436 139.014C775.285 144.814 789.379 150.026 803.228 155.825C808.611 158.101 812.795 183.501 808.464 186.682C805.626 188.786 803.179 185.899 800.634 185.018C788.033 180.589 782.503 183.28 778.613 195.834C775.138 207.285 774.967 209.928 777.242 223.044Z" fill="#FF7E79"/>
        <path d="M531.408 435.713C511.833 441.708 492.258 447.948 472.561 453.478C469.821 454.286 466.273 452.768 463.19 451.912C441.682 446.015 420.198 439.995 395.975 433.241C420.223 427.491 441.902 417.165 464.266 418.559C486.631 419.954 508.848 428.347 531.114 433.78L531.408 435.713Z" fill="#0C4571"/>
        <path d="M733.885 256.519C723.144 248.64 709.71 246.486 698.332 239.953C694.515 237.751 690.356 236.16 683.651 232.979C706.554 227.571 726.691 222.824 746.829 217.979C749.245 217.694 751.687 218.237 753.754 219.52L806.899 241.152C780.669 247.074 759.014 259.48 733.934 256.47L733.885 256.519Z" fill="#0C4571"/>
        <path d="M247.866 471.341C266.217 465.473 284.863 460.573 303.728 456.659C304.925 456.435 306.161 456.545 307.3 456.977C330.937 465.273 355.332 470.999 378.088 476.994C334.876 499.164 291.983 489.547 247.866 471.341Z" fill="#0C4571"/>
        <path d="M459.397 497.818C441.217 503.813 425.435 508.952 409.751 514.31C407.429 514.993 404.948 514.907 402.679 514.066C379.923 507.973 357.168 501.978 333.58 495.713C377.403 478.976 400.037 479.269 459.397 497.818Z" fill="#0C4571"/>
        <path d="M600.213 452.915C581.225 459.033 561.626 465.395 541.978 471.537C539.291 472.39 536.423 472.492 533.683 471.831C517.02 467.132 500.454 462.043 481.442 456.439C502.828 449.881 521.62 444.204 540.387 438.356C545.281 436.814 549.856 437.94 554.652 439.188C569.921 443.176 585.287 446.773 600.604 450.517C600.873 450.517 601.265 450.982 601.24 451.154C600.967 451.778 600.622 452.37 600.213 452.915V452.915Z" fill="#0C4571"/>
        <path d="M403.657 478.119C427.245 471.61 447.162 466.3 466.933 460.501C472.243 458.935 476.574 461.137 481.1 462.361C495.537 466.227 509.851 470.607 524.361 474.84C517.901 479.979 473.857 495.248 467.202 493.731C447.089 489.155 427.147 483.943 403.657 478.119Z" fill="#0C4571"/>
        <path d="M545.526 475.599C569.187 468.136 589.888 461.186 610.857 455.167C619.813 452.573 628.206 458.03 636.867 459.694C646.344 461.36 655.511 464.462 664.052 468.894C640.88 475.77 618.076 485.093 594.39 488.617C579.097 490.917 563.829 480.371 545.526 475.599Z" fill="#0C4571"/>
        <path d="M483.132 496.423C514.696 482.231 547.093 471.953 579.538 493.315C548.756 508.585 516.091 514.262 483.132 496.423Z" fill="#0E4672"/>
        <path d="M835.087 413.029H835.43C834.353 418.951 837.436 416.651 839.907 415.232C845.829 411.806 846.22 404.416 850.722 399.962L853.61 403.315C844.483 425.558 823.367 435.126 805.823 448.486C802.422 450.933 799.681 449.22 797.479 446.431C796.379 445.224 795.501 443.832 794.885 442.32C787.202 416.993 767.603 400.598 750.401 382.344C733.812 364.725 724.734 344.244 726.275 319.334C727.352 301.544 725.59 283.656 728.527 265.867C729.261 261.486 730.411 258.526 734.008 256.519C730.9 259.407 732.026 263.077 731.977 266.601C732.272 277.946 731.978 289.299 731.096 300.614C726.716 338.959 740.32 369.595 769.316 394.187C781.202 404.035 790.262 416.862 795.57 431.357C800.684 445.379 802.715 445.354 814.852 436.055C821.287 431.161 827.453 425.851 833.57 420.566C835.65 418.584 839.491 416.626 835.087 413.029Z" fill="#1F537C"/>
        <path d="M515.234 513.136C475.032 530.705 451.86 531.782 419.562 517.663C450.612 500.901 482.666 496.154 515.234 513.136Z" fill="#0E4672"/>
        <path d="M853.609 403.315L850.844 399.987C859.769 379.121 866.644 357.436 871.373 335.239C873.734 324.889 872.136 314.03 866.895 304.798C858.604 289.421 848.365 275.176 836.432 262.416C834.449 260.41 832.981 257.953 832.155 255.255C831.328 252.558 831.167 249.7 831.685 246.927L831.514 247.098C841.423 241.69 842.843 231.315 845.143 222.016C847.027 214.308 848.837 212.057 855.737 217.661C867.042 226.813 879.031 235.181 888.281 246.658L885.271 249.765C876.144 241.739 866.968 233.762 857.866 225.687C853.584 221.87 850.305 220.793 849.058 228.134C848.826 230.578 847.984 232.926 846.611 234.961C834.572 249.325 839.564 260.752 851.504 272.498C883.607 304.309 881.332 340.892 864.571 378.992C860.949 387.116 857.132 395.191 853.609 403.315Z" fill="#265980"/>
        <path d="M203.113 558.063C202.036 538.12 215.788 535.355 231.056 532.321C252.711 527.989 274.121 524.245 296.02 529.604C298.467 530.216 304.021 528.454 302.773 533.789C302.039 536.921 298.32 535.135 295.555 534.547C270.977 529.813 245.557 532.242 222.321 541.546C236.268 544.335 248.478 546.709 260.663 549.278C263.11 549.768 267.49 548.887 266.242 553.438C265.483 556.13 262.278 555.078 259.929 554.613C245.664 551.774 231.35 549.156 217.158 545.975C211.506 544.727 210.502 546.489 209.964 551.799C209.426 557.109 214.026 564.034 205.413 566.946L205.658 567.264C204.508 564.817 207.199 561.22 203.064 559.923C203.236 559.317 203.252 558.677 203.113 558.063V558.063Z" fill="#24577F"/>
        <path d="M749.52 140.605C732.955 145.083 716.488 149.977 699.775 153.843C690.796 155.923 685.926 158.737 686.758 169.553C687.933 184.48 687.223 199.578 687.003 214.578C687.003 218.982 689.058 224.048 683.333 229.578C681.247 211.983 680.347 194.267 680.641 176.551C681.106 150.27 675.747 154.381 703.299 146.918C718.298 142.832 733.224 137.766 748.884 136.665C749.104 137.962 749.324 139.283 749.52 140.605Z" fill="#37668A"/>
        <path d="M792.266 388.73C773.156 384.448 765.669 375.076 768.116 355.941C770.669 338.374 776.816 321.522 786.174 306.438C790.823 309.252 788.621 312.09 787.299 314.635C781.201 326.08 776.807 338.355 774.258 351.071C771.933 362.034 771.688 372.776 782.21 379.456C792.731 386.137 803.253 382.026 812.673 375.468C816.294 373.021 819.573 369.888 825.397 365.117C821.996 376.618 814.582 380.092 807.755 384.375C804.158 386.626 798.359 385.305 796.915 391.006L792.266 388.73Z" fill="#24577F"/>
        <path d="M134.894 393.527C134.087 386.455 127.7 385.598 123.027 382.76C118.903 380.421 115.116 377.532 111.771 374.171C119.112 373.143 124.006 378.159 129.854 380.313C135.082 382.408 140.465 384.094 145.954 385.354C150.848 386.308 155.741 385.231 157.577 379.309C159.412 373.388 157.014 369.375 150.725 367.882C149.183 367.176 147.749 366.254 146.468 365.141C153.686 363.673 162.03 350.459 161.565 342.188H166.459C169.542 344.635 170.153 348.33 166.948 350.386C159.828 355.011 161.761 361.471 162.348 367.735C164.134 386.112 161.638 389.171 142.651 390.884C141.846 390.84 141.052 391.081 140.408 391.564C139.764 392.047 139.31 392.742 139.127 393.527H134.894Z" fill="#24577F"/>
        <path d="M207.248 613.659C208.395 614.808 209.258 616.21 209.768 617.752C210.278 619.294 210.42 620.934 210.184 622.541C208.471 633.308 213.316 637.223 223.911 638.251C240.868 639.891 257.677 643.145 274.512 645.739C277.521 646.204 281.02 645.935 283.639 650.07C274.365 652.37 265.899 649.801 257.408 648.577C245.761 646.889 234.09 645.201 222.492 643.243C204.385 640.209 203.871 639.548 205.364 621.66C205.91 618.894 206.73 616.19 207.811 613.585L207.248 613.659Z" fill="#265980"/>
        <path d="M325.457 79.4787C317.089 77.3742 315.4 71.9908 312.856 67.9288C306.249 57.3578 300.132 46.4686 293.868 35.6529C292.816 33.8666 292.057 31.5664 293.868 30.1227C295.679 28.6789 297.465 30.1227 298.64 31.9824C308.671 47.1721 317.632 63.0426 325.457 79.4787V79.4787Z" fill="#1F537C"/>
        <path d="M808.22 205.255C808.22 208.558 817.054 208.901 811.206 214.088C807.829 217.098 807.511 225.614 798.971 219.325C793.882 215.532 786.737 214.431 778.1 211.421C789.429 207.628 796.769 213.232 807.462 215.556C799.461 205.768 788.719 204.741 780.082 196.69C789.991 195.711 795.35 200.091 801.173 202.979H802.201L803.204 202.832C803.756 203.646 804.512 204.301 805.397 204.731C806.282 205.16 807.264 205.349 808.245 205.279L808.22 205.255Z" fill="#2D5E84"/>
        <path d="M587.515 91.6646C592.751 72.4557 602.734 55.3756 613.109 38.4424C609.903 58.5567 599.26 75.2942 587.515 91.6646Z" fill="#2D5E84"/>
        <path d="M576.112 557.818C591.197 571.346 604.67 586.569 616.265 603.186C604.52 599.858 578.314 569.955 576.112 557.818Z" fill="#1F537C"/>
        <path d="M461.452 571.154C466.174 589.238 464.045 607.125 459.665 624.988C456.521 607.114 457.129 588.781 461.452 571.154V571.154Z" fill="#2D5E84"/>
        <path d="M207.249 613.659H207.812C201.108 610.429 192.935 613.512 183.466 608.104C203.041 604.042 221.294 611.31 237.076 601.619L236.881 601.766C239.45 603.161 246.252 603.112 238.08 607.443C228.292 612.533 217.208 610.159 207.249 613.659Z" fill="#2D5E84"/>
        <path d="M160.343 112.464C177.079 117.627 188.677 129.764 200.275 141.951C184.028 136.102 172.186 124.283 160.343 112.464Z" fill="#1F537C"/>
        <path d="M831.588 246.927C815.757 240.883 803.547 227.008 781.941 226.861C791.068 221.454 797.357 223.118 802.397 225.295C811.597 229.308 820.039 235.083 828.921 239.782C832.322 241.592 830.927 244.553 831.368 247.123L831.588 246.927Z" fill="#265980"/>
        <path d="M841.668 214.406C824.687 210.785 817.738 200.899 816.539 178.704C822.681 192.212 828.969 205.573 841.668 214.406Z" fill="#24577F"/>
        <path d="M458.809 60.5389C453.916 40.4246 454.772 20.2368 455.677 0.0490723H458.809V60.5389Z" fill="#07416E"/>
        <path d="M205.389 566.945C212.24 573.748 221.171 570.959 229.222 571.839C234.898 572.476 240.697 571.962 246.35 573.895C231.864 577.663 217.477 578.911 203.212 573.21C200.202 571.986 200.544 569.637 200.765 567.215H200.642C202.282 568.022 203.921 569.662 205.536 567.215L205.389 566.945Z" fill="#1F537C"/>
        <path d="M210.919 585.127C224.848 584.39 238.731 582.952 252.515 580.82C242.997 590.119 224.205 592.052 210.919 585.127Z" fill="#1F537C"/>
        <path d="M237.002 601.546C229.417 597.019 220.241 605.363 211.09 597.068L249.554 591.856C247.939 599.76 238.666 595.624 236.806 601.644L237.002 601.546Z" fill="#37668A"/>
        <path d="M808.22 205.254L808.391 205.377C809.615 202.93 807.877 201.755 806.14 200.899C804.403 200.042 803.302 200.776 803.351 202.856L802.348 203.003H801.32C804.868 198.917 800.83 197.497 798.604 195.662C795.557 193.481 792.852 190.859 790.578 187.881C800.488 188.395 807.486 194.414 814.411 199.993C818.007 202.807 816.906 204.08 808.22 205.254Z" fill="#37668A"/>
        <path d="M95.8428 376.275L99.7578 373.828C100.736 381.169 101.862 388.706 102.621 396.169C103.012 400.036 103.55 404.391 97.9226 405.37C97.2701 395.729 96.5768 386.031 95.8428 376.275Z" fill="#37668A"/>
        <path d="M166.386 342.188H161.492C153.882 335.631 151.705 326.479 149.258 317.376C149.758 316.622 150.457 316.022 151.278 315.642C152.099 315.262 153.009 315.117 153.907 315.223C155.277 325.524 160.905 333.82 166.386 342.188Z" fill="#37668A"/>
        <path d="M203.114 558.063C203.261 558.658 203.261 559.279 203.114 559.874C203.481 562.712 197.07 563.422 200.667 567.215H200.789C195.162 563.667 193.449 569.662 190.757 571.864C182.683 578.911 185.276 570.738 184.249 567.655L183.588 567.508C188.604 567.508 192.054 565.942 191.1 559.996L191.222 560.681C196.067 563.618 198.416 555.543 203.114 558.063Z" fill="#37668A"/>
        <path d="M793 359.807C797.527 355.99 804.598 357.36 807.436 351.022C808.146 349.432 809.492 350.508 810.348 351.218C811.865 352.515 811.327 353.983 810.495 355.451C806.091 363.282 799.778 362.303 793 359.807Z" fill="#37668A"/>
        <path d="M190.512 467.132L175.831 445.109L176.614 444.326C185.839 447.948 188.848 456.806 193.155 464.441L190.512 467.132Z" fill="#EEEDF0"/>
        <path d="M792.266 388.73L796.915 391.006C797.82 397.54 795.472 403.461 793.587 411.488C787.544 402.825 794.346 395.484 792.266 388.73Z" fill="#37668A"/>
        <path d="M134.895 393.527H139.128C140.204 398.274 143.361 402.752 141.158 409.285C136.069 404.318 136.069 398.665 134.895 393.527Z" fill="#37668A"/>
        <path d="M100.663 362.278C100.516 361.397 100.394 360.492 100.247 359.611L102.082 360.101L100.663 362.278Z" fill="#37668A"/>
        <path d="M94.5225 528.479C83.2915 513.209 81.75 494.808 78.7403 477.092C77.6392 470.607 74.4828 463.951 77.8839 456.659C82.9 480.468 89.2862 503.886 95.8438 527.255C95.5602 527.805 95.0926 528.238 94.5225 528.479Z" fill="#EEEDF0"/>
        <path d="M191.148 560.021C192.102 565.967 188.701 567.533 183.636 567.533C183.685 562.565 186.156 560.021 191.148 560.021Z" fill="#FDFDFD"/>
        <path d="M173.556 442.638L171.745 440.191L172.969 439.261L173.996 442.173L173.556 442.638Z" fill="#EEEDF0"/>
        <path d="M95.8427 527.28C96.9193 528.381 98.7055 530.069 97.213 531.048C95.3044 532.296 95.3778 529.482 94.5459 528.601C95.1208 528.328 95.5803 527.859 95.8427 527.28V527.28Z" fill="#FDFDFD"/>
        <path d="M173.995 442.197L176.589 444.424L175.83 445.207L173.555 442.638L173.995 442.197Z" fill="#EEEDF0"/>
        <path d="M303.947 269.415C303.947 243.966 303.947 220.475 303.947 196.886C303.947 193.068 304.192 189.814 308.694 188.15C330.275 180.05 351.734 171.731 376.594 162.212C376.594 190.107 376.594 215.654 376.594 241.201C376.594 244.994 375.469 247.367 371.701 248.542L303.947 269.415Z" fill="#FBFCFC"/>
        <path d="M302.748 322.074C302.748 330.174 301.476 338.542 303.017 346.348C305.733 360.003 300.889 366.096 287.504 368.371C275.977 370.813 264.603 373.934 253.444 377.719C247.645 379.481 245.198 378.208 245.174 371.773C245.174 348.159 244.733 324.546 244.317 300.932C244.317 296.723 245.076 294.423 249.7 293.053C264.112 288.819 278.402 284.097 292.594 279.154C299.102 276.902 301.329 278.615 301.182 285.369C300.913 297.604 301.182 309.839 301.182 322.074H302.748Z" fill="#FBFCFC"/>
        <path d="M243.339 248.958C243.07 237.237 237.149 222.75 243.731 214.553C250.313 206.356 264.382 204.765 275.32 200.727C298.051 192.114 298.026 192.212 298.711 217.269C299.103 232.245 299.397 247.245 300.522 262.196C300.987 268.534 299.397 271.568 293.182 273.379C279.21 277.416 265.287 281.845 251.585 286.862C245.517 289.113 243.339 287.865 243.339 281.748C243.339 270.834 243.339 259.904 243.339 248.958Z" fill="#FBFCFC"/>
        <path d="M377.133 296.185C377.589 308.73 378.071 321.283 378.576 333.844C378.723 337.931 379.09 342.14 373.683 343.461C354.108 348.355 335.365 356.308 315.203 358.901C314.493 339.472 313.612 320.019 313.148 300.565C312.732 282.824 312.878 283.142 329.517 286.764C345.324 290.263 360.861 295.157 377.133 296.185Z" fill="#FF7E79"/>
        <path d="M377.133 296.185C360.861 295.108 345.324 290.19 329.517 286.764C312.879 283.142 312.732 282.824 313.148 300.565C313.613 320.141 314.494 339.472 315.203 358.901C311.875 361.104 308.792 363.6 308.597 356.454C307.936 331.324 307.08 306.193 306.15 281.038C306.003 276.756 307.838 275.043 312.071 276.144C332.943 281.209 353.814 286.25 374.637 291.413C376.986 291.903 377.549 293.958 377.133 296.185Z" fill="#EEEDF0"/>
        <path d="M200.716 567.313C196.997 563.422 203.407 562.712 203.163 559.972C207.298 561.317 204.606 565.012 205.756 567.313C203.995 569.808 202.355 568.12 200.716 567.313Z" fill="#FDFDFD"/>
        <path d="M803.352 202.856C803.352 200.776 804.404 200.067 806.141 200.899C807.878 201.731 809.616 202.881 808.392 205.377C807.404 205.439 806.417 205.239 805.532 204.796C804.647 204.354 803.894 203.684 803.352 202.856V202.856Z" fill="#FDFDFD"/>
    </g>
    <defs>
        <clipPath id="clip0">
            <rect width="930" height="651" fill="white"/>
        </clipPath>
    </defs>
</svg>
