<svg width="256" height="256" viewBox="0 0 256 256" fill="none" xmlns="http://www.w3.org/2000/svg">
    <rect x="102" y="90" width="53" height="76" fill="white"/>
    <path d="M128 212.5C111.288 212.5 94.9503 207.544 81.0544 198.259C67.1584 188.974 56.3278 175.777 49.9322 160.337C43.5366 144.896 41.8632 127.906 45.1237 111.515C48.3841 95.1235 56.432 80.0671 68.2495 68.2495C80.0671 56.432 95.1235 48.3841 111.515 45.1237C127.906 41.8632 144.896 43.5366 160.337 49.9322C175.777 56.3278 188.974 67.1584 198.259 81.0544C207.544 94.9503 212.5 111.288 212.5 128C212.474 150.403 203.562 171.88 187.721 187.721C171.88 203.562 150.403 212.474 128 212.5V212.5ZM128 48.5C112.276 48.5 96.9059 53.1626 83.8322 61.8982C70.7585 70.6338 60.5688 83.05 54.5516 97.5767C48.5345 112.103 46.9601 128.088 50.0276 143.51C53.0951 158.931 60.6668 173.097 71.7851 184.215C82.9033 195.333 97.0689 202.905 112.49 205.972C127.912 209.04 143.897 207.466 158.423 201.448C172.95 195.431 185.366 185.242 194.102 172.168C202.837 159.094 207.5 143.724 207.5 128C207.476 106.923 199.092 86.7156 184.188 71.8117C169.285 56.9077 149.077 48.5241 128 48.5V48.5Z" fill="#181B5E"/>
    <path d="M128 195.775C114.596 195.775 101.492 191.8 90.3464 184.353C79.2008 176.906 70.5139 166.321 65.3842 153.936C60.2545 141.552 58.9123 127.925 61.5274 114.778C64.1425 101.631 70.5975 89.5542 80.076 80.0757C89.5545 70.5972 101.631 64.1423 114.778 61.5272C127.925 58.912 141.552 60.2542 153.937 65.3839C166.321 70.5137 176.906 79.2006 184.353 90.3461C191.8 101.492 195.775 114.595 195.775 128C195.755 145.969 188.608 163.196 175.902 175.902C163.196 188.607 145.969 195.754 128 195.775V195.775ZM128 65.2249C115.584 65.2249 103.447 68.9066 93.1242 75.8044C82.8009 82.7022 74.7549 92.5063 70.0036 103.977C65.2523 115.448 64.0091 128.07 66.4313 140.247C68.8535 152.424 74.8323 163.609 83.6115 172.389C92.3907 181.168 103.576 187.146 115.753 189.569C127.93 191.991 140.552 190.748 152.023 185.996C163.494 181.245 173.298 173.199 180.196 162.876C187.093 152.553 190.775 140.416 190.775 128C190.756 111.357 184.137 95.4005 172.368 83.632C160.599 71.8635 144.643 65.2437 128 65.2249V65.2249Z" fill="#181B5E"/>
    <path d="M128 26.5C107.925 26.5 88.3013 32.4529 71.6097 43.6058C54.9181 54.7588 41.9086 70.6109 34.2263 89.1576C26.544 107.704 24.5339 128.113 28.4503 147.802C32.3667 167.491 42.0337 185.576 56.2287 199.771C70.4237 213.966 88.5093 223.633 108.198 227.55C127.887 231.466 148.296 229.456 166.842 221.774C185.389 214.091 201.241 201.082 212.394 184.39C223.547 167.699 229.5 148.075 229.5 128C229.47 101.09 218.766 75.2906 199.738 56.2623C180.709 37.2339 154.91 26.5304 128 26.5ZM128 224.5C108.914 224.5 90.2569 218.84 74.3875 208.237C58.5182 197.633 46.1495 182.562 38.8457 164.929C31.5418 147.296 29.6308 127.893 33.3543 109.174C37.0777 90.4546 46.2685 73.26 59.7642 59.7642C73.26 46.2684 90.4547 37.0777 109.174 33.3542C127.893 29.6307 147.296 31.5418 164.929 38.8456C182.562 46.1495 197.633 58.5181 208.237 74.3875C218.84 90.2568 224.5 108.914 224.5 128C224.471 153.584 214.295 178.113 196.204 196.204C178.113 214.295 153.585 224.471 128 224.5V224.5Z" fill="#181B5E"/>
    <path d="M156.648 85.9729H99.3481C98.6851 85.9729 98.0492 86.2363 97.5804 86.7051C97.1115 87.174 96.8481 87.8099 96.8481 88.4729V167.527C96.8481 168.19 97.1115 168.826 97.5804 169.295C98.0492 169.764 98.6851 170.027 99.3481 170.027H156.648C157.311 170.027 157.947 169.764 158.416 169.295C158.885 168.826 159.148 168.19 159.148 167.527V88.4729C159.148 87.8099 158.885 87.174 158.416 86.7051C157.947 86.2363 157.311 85.9729 156.648 85.9729ZM154.148 165.027H101.848V90.9729H154.148V165.027Z" fill="#181B5E"/>
    <path d="M128.825 109.286H114.673C114.01 109.286 113.374 109.022 112.905 108.554C112.436 108.085 112.173 107.449 112.173 106.786C112.173 106.123 112.436 105.487 112.905 105.018C113.374 104.549 114.01 104.286 114.673 104.286H128.825C129.488 104.286 130.124 104.549 130.593 105.018C131.062 105.487 131.325 106.123 131.325 106.786C131.325 107.449 131.062 108.085 130.593 108.554C130.124 109.022 129.488 109.286 128.825 109.286V109.286Z" fill="#181B5E"/>
    <path d="M141.327 123.429H114.673C114.01 123.429 113.374 123.166 112.905 122.697C112.436 122.228 112.173 121.592 112.173 120.929C112.173 120.266 112.436 119.63 112.905 119.161C113.374 118.692 114.01 118.429 114.673 118.429H141.327C141.99 118.429 142.626 118.692 143.095 119.161C143.564 119.63 143.827 120.266 143.827 120.929C143.827 121.592 143.564 122.228 143.095 122.697C142.626 123.166 141.99 123.429 141.327 123.429V123.429Z" fill="#181B5E"/>
    <path d="M141.327 137.571H114.673C114.01 137.571 113.374 137.308 112.905 136.839C112.436 136.37 112.173 135.734 112.173 135.071C112.173 134.408 112.436 133.772 112.905 133.303C113.374 132.834 114.01 132.571 114.673 132.571H141.327C141.99 132.571 142.626 132.834 143.095 133.303C143.564 133.772 143.827 134.408 143.827 135.071C143.827 135.734 143.564 136.37 143.095 136.839C142.626 137.308 141.99 137.571 141.327 137.571V137.571Z" fill="#181B5E"/>
    <path d="M141.327 151.714H114.673C114.01 151.714 113.374 151.451 112.905 150.982C112.436 150.513 112.173 149.877 112.173 149.214C112.173 148.551 112.436 147.915 112.905 147.446C113.374 146.977 114.01 146.714 114.673 146.714H141.327C141.99 146.714 142.626 146.977 143.095 147.446C143.564 147.915 143.827 148.551 143.827 149.214C143.827 149.877 143.564 150.513 143.095 150.982C142.626 151.451 141.99 151.714 141.327 151.714Z" fill="#181B5E"/>
</svg>
