<svg width="319" height="319" viewBox="0 0 319 319" fill="none" xmlns="http://www.w3.org/2000/svg">
    <circle cx="159.5" cy="159.5" r="157.5" fill="#F9F9F9" stroke="#181B5E" stroke-width="4"/>
    <path d="M287.255 260.938C289.419 261.017 291.617 261.017 293.746 261.182C294.002 261.185 294.254 261.24 294.487 261.344C294.72 261.448 294.929 261.599 295.101 261.787C295.274 261.975 295.406 262.197 295.49 262.438C295.573 262.679 295.607 262.935 295.587 263.189C295.509 264.114 294.628 264.568 293.668 264.62C293.24 264.62 292.795 264.62 292.368 264.62C284.978 264.995 284.978 265.004 284.978 272.255C284.978 284.26 284.978 284.4 272.946 284.243C269.674 284.243 268.583 285.037 268.967 288.283C269.273 290.708 269.133 293.186 269.194 295.647C268.74 297.13 269.595 299.686 267.17 299.66C264.552 299.66 265.844 297.104 265.477 295.655C265.407 295.376 265.39 295.097 265.346 294.783C265.346 292.322 265.346 289.853 265.529 287.401C265.713 284.95 264.971 284.182 262.458 284.243C255.216 284.409 247.975 284.295 240.733 284.295C230.263 284.295 230.263 284.295 230.891 294.765C230.839 295.341 230.777 295.917 230.751 296.51C230.681 297.959 230.804 299.747 228.753 299.634C227.008 299.529 227.226 297.889 227.209 296.58C227.209 296.013 227.139 295.437 227.095 294.835C227.549 284.295 227.549 284.295 217.288 284.286C210.919 284.286 210.954 284.286 210.893 278.083C210.893 273.764 212.341 267.979 210.143 265.493C207.656 262.674 201.74 264.62 197.325 264.62C140.234 264.568 83.1488 264.536 26.0693 264.524C24.3243 264.524 21.0262 265.728 21 263.006C21 259.917 24.333 261.366 26.2351 261.06C27.394 260.931 28.559 260.864 29.7251 260.86C31.7634 260.826 33.802 260.899 35.8327 261.078C39.2529 261.54 40.2738 260.266 40.1342 256.82C39.8637 249.883 40.0818 242.921 40.0382 235.967C40.0382 233.663 40.3697 231.203 42.5859 230.418C45.6746 229.318 45.2558 227.128 45.2558 224.869C45.2558 196.625 45.186 168.382 45.3343 140.139C45.3343 136.728 44.5665 134.363 41.4516 132.932C38.9388 127.217 39.4711 125.08 44.7148 121.834C46.137 120.961 46.5646 119.688 47.1579 118.431C51.9305 108.232 56.7554 98.0407 61.3623 87.78C63.0026 84.1678 65.2624 81.6724 69.5028 81.8643C70.9424 81.9254 71.6318 81.524 71.5445 79.9535C71.4398 78.0776 71.4834 76.1843 71.5445 74.3084C71.5445 73.0083 71.4747 71.9614 69.7384 72.1882C66.5625 72.5983 66.3182 70.6613 66.2484 68.1746C66.1 57.7656 66.0476 57.7656 76.4043 57.7656C80.8978 57.7656 85.3825 57.8354 89.8759 57.7656C92.4934 57.7133 93.5491 58.7341 93.3659 61.3866C93.2305 63.557 93.2305 65.7337 93.3659 67.9042C93.4881 70.4694 93.3659 72.6855 89.8323 72.2667C88.4711 72.0835 88.0872 72.799 88.0872 74.0117C88.1886 75.7553 88.1886 77.5033 88.0872 79.2468C87.9127 81.2972 88.5846 82.1086 90.7048 81.9516C93.5841 81.7422 96.4895 81.7858 99.3775 81.716L133.693 81.908C134.852 81.946 135.991 81.6059 136.939 80.9394C143.047 76.5769 149.25 72.3453 155.401 68.0525C158.019 67.3633 158.429 65.5047 158.411 63.0704C158.315 50.7681 158.35 38.457 158.411 26.1459C158.411 20.3263 159.755 19.0175 165.557 19C174.396 19 183.234 19 192.064 19C196.976 19 198.556 20.5967 198.608 25.4653C198.66 29.95 198.608 34.4435 198.608 38.9369C198.608 44.3378 196.994 45.9868 191.672 46.0042C183.121 46.0042 174.57 46.2223 166.028 45.9256C162.434 45.7947 161.666 47.0337 161.875 50.2882C162.159 54.3375 162.159 58.4017 161.875 62.451C161.622 65.8712 162.896 67.8955 166.055 68.9076C171.831 72.9386 177.607 76.9521 183.348 81.0268C184.307 81.6683 185.451 81.975 186.602 81.8993L217.733 81.7334C220.351 81.7945 222.968 81.8905 225.586 81.8993C232.296 81.8993 233.351 80.5818 232.086 73.9158C231.903 72.956 231.72 72.1708 230.612 72.2842C226.345 72.8077 226.869 69.8499 226.851 67.2411C226.79 57.8267 226.79 57.8267 236.257 57.8267H249.344C250.217 57.8267 251.281 57.5475 251.91 57.9488C256.106 60.5664 253.21 64.7457 253.881 68.1572C254.204 69.8237 254.422 72.1184 251.456 72.258C246.02 72.5023 249.597 76.6205 248.838 78.7931C248.079 80.9656 249.397 81.9777 251.831 82.0213C255.478 82.0911 257.337 84.6389 258.741 87.7363C263.424 97.9912 268.164 108.214 272.963 118.405C273.539 119.627 273.897 120.953 275.336 121.834C281.444 125.603 281.828 129.477 276.828 134.59C274.002 135.314 275.162 137.626 275.153 139.258C275.083 165.564 275.153 191.87 275.014 218.176C275.014 221.902 275.764 223.542 279.673 222.844C284.184 222.042 285.335 224.223 285.213 228.481C284.943 238.157 285.1 247.85 285.213 257.535C285.039 259.019 284.079 261.453 287.255 260.938ZM159.781 110.867C177.871 110.867 195.964 110.867 214.06 110.867C215.273 110.867 216.948 111.477 217.55 109.994C218.196 108.336 216.372 107.865 215.413 107.211C197.893 95.205 180.294 83.2865 162.809 71.2284C160.636 69.7364 159.214 69.9022 157.129 71.3418C139.879 83.2341 122.534 94.9869 105.249 106.853C104.08 107.656 101.759 108.057 102.449 110.046C102.998 111.591 105.005 110.919 106.375 110.919C124.145 110.936 141.947 110.936 159.781 110.919V110.867ZM248.402 226.91C238.56 226.91 228.718 227.015 218.876 226.849C215.997 226.797 214.889 227.355 214.933 230.557C215.107 245.896 215.072 261.235 214.933 276.573C214.933 279.304 215.517 280.273 218.423 280.255C238.106 280.116 257.787 280.116 277.465 280.255C280.135 280.255 281.217 279.802 281.182 276.765C281.019 261.281 281.019 245.797 281.182 230.313C281.182 227.224 280.039 226.823 277.43 226.823C267.798 227.067 258.096 226.989 248.402 226.989V226.91ZM81.9622 182.761C81.9622 168.278 81.8924 153.794 82.0233 139.31C82.0233 136.597 81.4736 135.524 78.5333 135.585C69.7035 135.759 60.8708 135.759 52.0352 135.585C49.2606 135.532 48.6847 136.405 48.7109 139.005C48.8331 153.201 48.772 167.396 48.772 181.592C48.772 196.364 48.8331 211.135 48.7109 225.907C48.7109 228.524 49.3827 229.397 52.0788 229.31C60.9086 229.074 69.7471 228.961 78.5682 229.092C81.5783 229.092 82.0582 228.01 82.0582 225.357C81.9012 211.144 81.9622 196.948 81.9622 182.761ZM271.436 179.271C271.436 165.948 271.366 152.634 271.489 139.319C271.489 136.632 271 135.515 267.999 135.585C259.169 135.794 250.339 135.716 241.509 135.585C239.066 135.585 237.941 136.012 237.949 138.892C238.06 165.817 238.06 192.746 237.949 219.677C237.949 222.591 239.075 222.949 241.527 222.914C250.252 222.792 258.907 222.679 267.58 222.958C271.07 223.071 271.567 221.815 271.532 218.752C271.34 205.595 271.436 192.42 271.436 179.245V179.271ZM85.4784 182.351V217.077C85.4784 230.095 85.4785 230.086 98.6446 229.231C99.8051 229.161 101.088 229.31 101.655 228.018C103.19 224.528 105.572 221.431 105.529 217.19C105.345 201.564 105.415 185.937 105.529 170.302C105.529 168.147 105.092 166.698 103.208 165.285C99.8051 162.728 99.1594 157.746 102.388 155.556C105.799 153.236 105.511 150.461 105.494 147.346C105.373 144.887 105.388 142.423 105.537 139.965C105.878 136.719 104.962 135.305 101.41 135.602C97.3644 135.894 93.3025 135.894 89.2564 135.602C86.2114 135.401 85.4087 136.344 85.4436 139.398C85.5744 153.698 85.4784 168.025 85.4784 182.351ZM159.773 135.751C143.989 135.751 128.214 135.812 112.43 135.689C109.813 135.689 108.844 136.353 109.045 139.075C109.302 142.397 109.302 145.734 109.045 149.056C108.792 152.066 110.048 152.546 112.744 152.642C124.174 153.244 135.595 152.337 146.99 152.695C164.188 153.227 181.376 152.424 198.573 152.939C202.456 153.061 207.499 154.003 209.916 152.023C212.333 150.042 210.465 144.685 210.788 140.837C210.788 140.401 210.736 139.965 210.788 139.537C211.294 136.579 210.247 135.637 207.115 135.672C191.34 135.846 175.556 135.751 159.773 135.751ZM234.459 179.201V142.277C234.459 135.62 234.459 135.576 227.985 135.628C223.623 135.628 217.873 134.18 215.386 136.379C212.542 138.892 214.776 144.816 214.453 149.239C214.287 151.491 214.627 153.157 216.843 154.684C220.255 157.04 220.874 162.266 217.646 164.412C214.025 166.829 214.488 169.813 214.47 173.033C214.47 178.678 214.47 184.323 214.47 189.968C214.47 198.938 214.47 207.907 214.47 216.876C214.47 222.487 214.88 222.836 220.272 222.836C223.762 222.836 227.253 222.635 230.69 222.905C233.709 223.132 234.582 222.199 234.538 219.119C234.355 205.83 234.459 192.516 234.459 179.201V179.201ZM128.336 86.0872C128.057 85.8866 127.83 85.5812 127.612 85.5812C115.17 85.5289 102.728 85.5812 90.2773 85.4591C88.5322 85.4591 88.2269 86.1309 88 87.7188C87.3195 92.5874 86.1852 93.2942 80.1474 93.3116C73.368 93.3116 72.2948 92.7445 71.5794 87.5618C71.2915 85.3718 70.2793 85.3631 68.7175 85.5463C66.545 85.7993 65.559 87.2914 64.7389 89.1062C60.3153 98.7038 55.9615 108.301 51.3895 117.759C50.0022 120.639 50.77 121.075 53.6057 121.057C67.6443 120.944 81.6743 120.988 95.713 120.979C102.885 120.979 103.566 119.757 100.076 113.336C100.001 113.21 99.9167 113.09 99.8225 112.978C97.4667 109.628 98.4527 107.15 101.663 104.986C109.577 99.6722 117.438 94.254 125.291 88.8444C126.408 88.0766 127.865 87.6054 128.336 86.0872ZM270.049 120.988L254.998 88.539C254.744 88.0183 254.434 87.5268 254.073 87.0732C253.609 86.5112 253.011 86.0746 252.334 85.8033C251.657 85.532 250.924 85.4346 250.199 85.5201C248.132 85.5986 248.742 87.3349 248.524 88.4692C247.931 91.6451 246.081 93.2767 242.853 93.3029C240.968 93.3029 239.084 93.3029 237.199 93.3029C234.355 93.2244 232.261 91.7847 232.182 88.9404C232.095 85.5812 230.393 85.4503 227.758 85.4503C216.416 85.5638 205.143 85.4503 193.835 85.5376C193.015 85.5376 191.829 84.8221 191.218 86.4101L216.634 103.756C222.349 107.664 222.34 107.752 219.513 114.121C218.937 115.43 218.876 116.957 218.335 118.292C217.463 120.412 218.056 120.996 220.307 120.988C236.658 120.944 253.035 120.979 270.014 120.979L270.049 120.988ZM128.397 156.551C127.158 156.856 124.497 155.984 124.689 157.214C125.466 161.978 123.372 164.875 119.847 167.44C119.332 167.815 119.628 169.36 119.62 170.363C119.62 185.702 119.724 201.04 119.55 216.379C119.55 220.907 121.827 224.363 123.755 228.01C124.75 229.903 132.123 229.973 133.109 228.079C135.011 224.424 137.367 220.968 137.314 216.44C137.148 201.686 137.236 186.923 137.271 172.169C137.271 169.272 137.681 166.463 134.208 164.875C132.629 164.159 131.879 162.092 132.201 160.347C132.83 157.022 131.695 155.844 128.397 156.542V156.551ZM187.318 156.551C188.766 160.844 187.902 164.124 184.177 166.149C182.432 167.117 182.877 168.566 182.877 169.909C182.877 185.824 182.877 201.73 182.877 217.644C182.877 221.815 185.372 224.938 187.239 228.289C188.164 229.964 195.476 229.728 196.34 228.044C198.137 224.554 200.466 221.248 200.414 216.859C200.231 201.965 200.336 187.071 200.353 172.169C200.353 169.333 200.859 166.506 197.343 164.91C196.563 164.478 195.942 163.808 195.57 162.998C195.198 162.188 195.095 161.28 195.275 160.408C196.619 155.801 193.696 156.455 191.043 156.525C189.988 156.551 188.984 156.525 187.318 156.525V156.551ZM160.078 132.156C176.656 132.156 193.137 132.077 209.663 132.226C212.734 132.226 213.528 131.353 213.545 128.369C213.563 125.385 212.551 124.792 209.811 124.8C176.603 124.876 143.401 124.876 110.205 124.8C107.169 124.8 106.366 125.673 106.279 128.674C106.183 132.164 107.893 132.226 110.502 132.208C127.054 132.112 143.579 132.156 160.078 132.156ZM59.9576 260.851C64.5906 260.851 69.2236 260.79 73.8566 260.851C75.7238 260.851 76.7883 260.607 76.7534 258.321C76.6399 250.651 76.6661 242.982 76.7534 235.313C76.7534 233.472 76.1949 232.765 74.2929 232.782C65.1752 232.852 56.0575 232.782 46.9397 232.782C44.6625 232.782 43.5195 233.733 43.5544 236.185C43.6329 243.418 43.6504 250.66 43.5544 257.893C43.5544 260.162 44.2524 260.921 46.5296 260.842C51.0143 260.746 55.4729 260.851 59.9576 260.851ZM104.665 115.229C105.625 117.742 104.595 121.171 109.542 121.145C143.279 120.959 176.999 120.959 210.701 121.145C214.592 121.145 214.95 118.737 214.985 116.285C215.037 113.231 212.367 114.845 211.067 114.836C176.906 114.72 142.75 114.697 108.6 114.767C107.352 114.793 106.026 114.435 104.665 115.229ZM159.807 253.958C146.772 253.958 133.728 254.01 120.684 253.906C118.067 253.906 116.802 254.246 116.854 257.396C116.906 260.345 117.849 260.982 120.623 260.973C146.851 260.88 173.078 260.88 199.306 260.973C202.011 260.973 203.058 260.449 203.049 257.483C203.04 254.516 202.124 253.932 199.367 253.993C186.183 254.002 173 253.958 159.807 253.958ZM80.2434 246.716C80.2434 250.477 80.3655 254.246 80.2434 257.998C80.13 260.336 81.0025 260.964 83.2361 260.894C87.8517 260.746 92.4934 260.737 97.1177 260.894C99.4561 260.964 100.459 260.415 100.407 257.815C100.241 250.442 100.267 243.06 100.407 235.688C100.407 233.341 99.5346 232.739 97.3795 232.8C92.7552 232.922 88.1134 233.018 83.4978 232.8C80.6098 232.643 80.1213 233.847 80.2521 236.29C80.3743 239.771 80.2434 243.244 80.2434 246.716ZM151.353 179.612C151.353 183.102 151.44 186.539 151.353 190.003C151.283 191.914 151.964 192.507 153.84 192.455C157.731 192.341 161.64 192.272 165.531 192.455C168.149 192.594 169.021 191.879 168.951 189.122C168.733 183.355 168.855 177.57 168.899 171.794C168.899 169.045 169.152 166.515 165.906 164.945C164.161 164.072 163.289 161.751 163.751 159.631C164.746 155.024 161.326 156.769 159.389 156.534C157.277 156.281 155.305 156.115 156.405 159.553C156.954 161.298 156.239 163.775 154.599 164.578C150.611 166.524 151.414 169.883 151.37 173.094C151.353 175.275 151.353 177.439 151.353 179.612ZM151.458 208.788C151.581 210.822 151.581 212.862 151.458 214.896C150.934 219.328 152.505 223.115 154.642 226.797C155.89 228.943 163.228 230.287 164.502 228.219C166.465 225.087 168.759 221.902 168.864 217.958C168.951 211.589 168.803 205.211 168.934 198.842C168.934 196.46 168.061 195.866 165.854 195.945C162.085 196.067 158.307 196.137 154.511 195.945C151.824 195.788 151.37 197.009 151.466 199.287C151.545 202.41 151.44 205.604 151.44 208.788H151.458ZM118.904 232.835V233.114C114.856 233.114 110.807 233.245 106.768 233.061C104.456 232.957 103.784 233.751 103.819 236.002C103.941 243.078 104.133 250.18 103.766 257.239C103.539 261.671 106.253 260.781 108.731 260.86C111.348 260.938 113.8 261.444 113.573 257.134C113.259 251.087 114.149 250.346 120.213 250.494C123.284 250.564 124.122 249.622 124.07 246.594C123.965 240.556 124.846 239.727 131.163 239.701C133.833 239.701 134.566 238.829 134.653 236.211C134.723 233.376 133.466 232.721 131.067 232.791C126.975 232.878 122.935 232.835 118.887 232.835H118.904ZM159.825 243.13C150.227 243.13 140.7 243.217 131.146 243.078C128.336 243.078 127.394 243.802 127.385 246.734C127.376 249.665 128.388 250.355 131.163 250.346C150.428 250.241 169.693 250.241 188.958 250.346C191.82 250.346 192.588 249.552 192.605 246.707C192.623 243.863 191.733 243.017 188.941 243.06C179.212 243.226 169.51 243.13 159.807 243.13H159.825ZM210.91 247.187C210.91 243.436 210.832 239.675 210.91 235.923C210.971 233.978 210.518 233.088 208.293 233.105C201.941 233.105 195.589 232.965 189.237 232.817C186.786 232.765 185.337 233.105 185.328 236.307C185.32 239.509 186.777 239.666 189.22 239.666C194.978 239.666 196.13 240.6 195.833 246.071C195.624 249.822 196.898 250.669 200.414 250.494C205.649 250.232 206.338 251.149 206.417 256.471C206.417 256.759 206.417 257.047 206.417 257.343C206.513 258.958 205.806 260.956 208.738 260.886C211.669 260.816 210.771 258.652 210.823 257.16C210.98 253.836 210.902 250.512 210.893 247.187H210.91ZM116.104 192.795C116.104 185.117 115.964 177.439 116.173 169.77C116.261 166.725 114.559 167.039 112.683 167.074C110.807 167.108 109.045 166.637 109.071 169.735C109.211 185.091 109.211 200.444 109.071 215.794C109.071 218.953 110.72 218.77 112.884 218.857C115.048 218.944 116.269 218.482 116.208 215.821C115.999 208.151 116.104 200.473 116.104 192.795ZM172.363 192.743H172.433C172.433 200.281 172.52 207.82 172.38 215.35C172.38 217.793 172.668 219.058 175.6 218.84C178.069 218.682 179.456 218.613 179.413 215.35C179.221 200.284 179.221 185.216 179.413 170.145C179.413 167.196 178.287 166.899 175.879 166.951C173.602 166.951 172.171 166.951 172.276 170.066C172.529 177.675 172.363 185.213 172.363 192.743ZM210.753 192.856C210.753 185.318 210.596 177.779 210.832 170.249C210.928 167.327 209.794 166.951 207.342 167.03C205.099 167.1 203.669 167.03 203.712 170.136C203.898 185.347 203.898 200.563 203.712 215.786C203.712 218.953 205.283 218.787 207.455 218.84C209.628 218.892 210.893 218.674 210.823 215.899C210.684 208.221 210.788 200.534 210.788 192.882L210.753 192.856ZM147.531 192.917H147.776C147.776 185.257 147.619 177.587 147.845 169.935C147.941 166.594 145.961 167.187 143.98 167.047C141.755 166.899 140.647 167.309 140.673 169.996C140.807 185.172 140.807 200.348 140.673 215.524C140.673 218.281 141.624 218.866 144.163 218.892C146.702 218.918 147.653 218.142 147.592 215.454C147.461 207.942 147.566 200.43 147.566 192.882L147.531 192.917ZM178.68 33.1085C173.898 33.1085 169.082 33.1783 164.345 33.1085C162.504 33.1085 161.666 33.5884 161.823 35.5428C161.923 37.1321 161.923 38.7262 161.823 40.3154C161.744 42.0081 162.495 42.5752 164.144 42.5665C173.55 42.5665 182.973 42.7497 192.37 42.4531C197.02 42.3047 194.341 38.265 194.935 36.0052C195.528 33.7454 194.446 32.9951 192.134 33.091C187.693 33.2132 183.199 33.1085 178.715 33.1085H178.68ZM160.095 239.439C166.465 239.439 172.843 239.274 179.203 239.509C182.135 239.614 181.978 238.096 182.03 236.019C182.083 233.829 181.83 232.582 179.081 232.616C166.343 232.75 153.604 232.75 140.865 232.616C138.012 232.616 138.012 234.047 137.942 236.106C137.873 238.384 138.318 239.509 140.987 239.431C147.392 239.309 153.761 239.439 160.13 239.439H160.095ZM257.476 132.121C262.397 132.121 267.318 132.121 272.23 132.121C274.656 132.121 276.593 131.161 276.593 128.404C276.593 125.647 274.446 124.914 272.091 124.914C262.545 124.914 252.992 125.001 243.455 124.827C240.061 124.774 240.75 126.886 240.637 128.832C240.506 131.004 240.811 132.383 243.595 132.252C248.245 131.999 252.887 132.156 257.511 132.156L257.476 132.121ZM61.9207 132.121C66.8504 132.121 71.7888 131.955 76.7534 132.182C79.9206 132.33 79.3709 130.35 79.3709 128.535C79.3709 126.72 80.1125 124.713 76.8755 124.766C67.2779 124.914 57.7414 124.766 48.1699 124.844C45.7269 124.844 43.4235 125.237 43.5457 128.587C43.6591 131.615 45.7967 132.077 48.0653 132.077C52.6721 132.217 57.3138 132.156 61.9556 132.156L61.9207 132.121ZM235.437 80.7737C235.437 82.7979 235.524 84.8221 235.437 86.8813C235.245 90.4411 237.775 89.9088 239.852 89.7954C241.928 89.682 245.165 91.0432 245.087 86.8115C244.905 83.4977 244.928 80.1758 245.156 76.8649C245.584 72.9909 244.214 72.1795 240.445 72.0835C236.169 71.9788 234.721 73.2614 235.41 77.3186C235.524 78.4784 235.545 79.6455 235.472 80.8086L235.437 80.7737ZM84.4925 80.8784C84.4925 78.7146 84.4925 76.5158 84.4925 74.3956C84.4925 73.4271 84.6495 72.572 83.1663 72.2056C77.2245 70.7311 74.9735 72.3452 74.9735 78.3656C75.0826 80.8108 75.0651 83.26 74.9211 85.7034C74.5808 89.0451 76.0292 89.6646 79.1179 89.8653C83.5502 90.1532 85.2254 88.7309 84.5274 84.3248C84.4433 83.1889 84.4492 82.0483 84.5449 80.9133L84.4925 80.8784ZM226.712 132.138C229.172 132.138 231.641 131.938 234.076 132.182C237.016 132.479 237.339 131.004 237.347 128.605C237.356 126.205 237.103 124.53 233.901 124.722C229.294 125.001 224.652 124.905 220.037 124.722C217.629 124.635 216.896 125.385 216.774 127.872C216.59 131.283 217.646 132.618 221.084 132.147C222.964 132.028 224.85 132.037 226.729 132.173L226.712 132.138ZM239.878 68.7592C242.337 68.6414 244.801 68.6589 247.259 68.8116C250.391 69.1606 250.418 67.3981 250.339 65.1558C250.269 63.0966 250.671 61.0986 247.39 61.2557C242.626 61.4912 237.836 61.3778 233.063 61.2557C231.092 61.2557 230.28 61.753 230.158 63.8732C229.966 67.2847 230.376 69.5619 234.678 68.7505C236.414 68.6066 238.161 68.6213 239.895 68.7942L239.878 68.7592ZM80.2085 68.7592C82.6603 68.7592 85.112 68.6196 87.555 68.7592C90.5914 68.9686 89.8497 66.8223 89.7363 65.2692C89.6229 63.7161 90.9927 61.2382 87.5986 61.2819C82.4159 61.3604 77.2245 61.2819 72.0418 61.2819C71.0646 61.2819 70.1572 61.1597 69.7733 62.5994C68.6565 66.7525 69.9478 68.6458 74.1358 68.6545L80.2085 68.7592ZM92.9559 132.138C95.4163 132.138 97.8942 131.964 100.346 132.182C103.478 132.461 103.033 130.437 102.964 128.552C102.894 126.668 103.592 124.678 100.407 124.792C95.3378 124.966 90.2598 124.905 85.1905 124.792C83.2448 124.792 82.8784 125.542 82.7213 127.34C82.4334 130.83 83.0703 132.924 87.2758 132.182C89.1591 132.011 91.0536 132.002 92.9384 132.156L92.9559 132.138ZM186.384 29.4701C188.408 29.4701 190.459 29.3043 192.492 29.4701C195.205 29.7493 195.162 28.144 195.109 26.2593C195.057 24.3747 195.467 22.3853 192.492 22.4726C188.295 22.586 184.081 22.5947 179.884 22.4726C177.807 22.4115 177.685 23.4236 177.554 25.0901C177.301 28.2399 177.956 30.107 181.681 29.4526C183.241 29.3379 184.808 29.3496 186.367 29.4876L186.384 29.4701ZM144.198 163.479V163.566H148.945C151.274 163.566 152.941 162.633 152.923 160.076C152.906 157.52 151.388 156.481 149.015 156.473C145.571 156.473 142.125 156.499 138.675 156.551C136.477 156.551 135.639 157.973 135.604 159.919C135.569 161.865 136.477 163.278 138.606 163.409C140.447 163.601 142.314 163.496 144.181 163.496L144.198 163.479ZM112.962 156.586C110.947 156.586 108.932 156.525 106.925 156.586C104.743 156.665 103.915 158.191 103.915 160.076C103.915 161.821 104.787 163.269 106.689 163.348C110.563 163.505 114.454 163.557 118.337 163.409C120.361 163.339 121.295 161.952 121.26 159.919C121.225 157.886 120.239 156.673 118.145 156.595C116.453 156.534 114.708 156.586 112.962 156.586ZM175.574 163.514C177.45 163.514 179.325 163.584 181.193 163.514C181.631 163.537 182.068 163.467 182.478 163.309C182.887 163.151 183.258 162.908 183.567 162.597C183.876 162.286 184.115 161.912 184.27 161.502C184.425 161.092 184.491 160.653 184.465 160.216C184.465 158.252 183.409 156.787 181.411 156.726C177.668 156.551 173.907 156.534 170.164 156.726C168.219 156.83 167.145 158.2 167.145 160.216C167.145 162.231 168.419 163.357 170.374 163.496C172.119 163.61 173.855 163.514 175.591 163.514H175.574ZM207.604 163.514C209.349 163.514 211.094 163.618 212.839 163.514C215.098 163.348 216.172 161.978 216.041 159.736C215.919 157.642 214.697 156.621 212.647 156.603C209.157 156.603 205.667 156.525 202.246 156.603C200.048 156.656 198.652 157.93 198.756 160.093C198.861 162.257 200.318 163.426 202.473 163.531C204.148 163.627 205.885 163.557 207.621 163.557L207.604 163.514ZM120.257 229.283C119.692 228.29 119.21 227.251 118.817 226.177C117.709 221.379 113.992 222.199 110.572 222.199C106.881 222.199 107.195 225.636 105.843 227.591C104.892 228.978 106 229.283 107.186 229.283H120.257ZM167.093 29.4265C167.87 29.4265 168.297 29.4265 168.733 29.4265C171.054 29.2433 173.899 30.5782 173.968 26.0325C174.038 21.4867 171.351 22.5424 168.925 22.5424C167.92 22.6036 166.912 22.6036 165.906 22.5424C162.608 22.0538 161.736 23.476 161.806 26.6519C161.91 31.634 165.61 28.5016 167.11 29.4701L167.093 29.4265ZM182.763 228.812C180.739 222.199 180.512 222.173 174.239 222.225C169.588 222.225 170.217 226.134 168.594 228.812H182.763ZM151.3 228.812C149.032 222.103 148.875 222.111 142.671 222.234C138.065 222.321 138.597 226.125 137.114 228.812H151.3ZM207.63 222.251C203.616 222.251 199.777 225.052 200.449 227.966C201.164 231.037 204.323 228.638 206.26 229.318C206.513 229.414 206.845 229.318 207.132 229.318C212.097 230.4 211.181 226.169 211.399 223.952C211.687 220.803 208.651 223.01 207.63 222.251Z" fill="#0F0E6C"/>
    <path d="M304.862 264.864C303.064 263.922 299.627 266.191 299.539 263.119C299.452 260.048 302.837 261.2 304.678 261.27C306.86 261.348 310.786 259.769 310.786 262.971C310.847 266.382 306.842 263.756 304.862 264.864Z" fill="#0F0E6C"/>
    <path d="M159.782 110.919C141.971 110.919 124.166 110.919 106.367 110.919C104.997 110.919 102.99 111.617 102.44 110.046C101.725 108.057 104.072 107.656 105.241 106.853C122.525 94.9867 139.871 83.234 157.12 71.3417C159.206 69.902 160.61 69.7362 162.8 71.2282C180.251 83.2863 197.884 95.2048 215.404 107.211C216.364 107.865 218.187 108.336 217.542 109.994C216.948 111.503 215.273 110.866 214.052 110.866C195.962 110.919 177.872 110.936 159.782 110.919Z" fill="#FDFDFD"/>
    <path d="M248.402 226.989C258.096 226.989 267.798 227.067 277.492 226.936C280.109 226.936 281.278 227.294 281.243 230.426C281.081 245.905 281.081 261.389 281.243 276.879C281.243 279.906 280.196 280.369 277.527 280.369C257.849 280.276 238.168 280.276 218.484 280.369C215.535 280.369 214.933 279.418 214.994 276.687C215.116 261.348 215.151 246.009 214.994 230.671C214.994 227.468 216.058 226.91 218.938 226.962C228.718 227.093 238.604 226.989 248.402 226.989ZM268.33 255.092V247.719C268.33 241.368 267.816 240.6 261.647 239.457C258.096 238.794 254.414 238.584 250.994 240.111C248.821 241.08 246.928 240.774 244.781 240.024C239.791 238.279 234.87 238.855 230.027 240.896C229.272 241.141 228.62 241.633 228.179 242.293C227.737 242.953 227.531 243.743 227.593 244.535C227.593 251.332 227.593 258.128 227.593 264.925C227.593 267.543 228.614 268.642 231.406 267.386C233.688 266.281 236.191 265.708 238.726 265.708C241.262 265.708 243.764 266.281 246.046 267.386C246.611 267.702 247.245 267.877 247.892 267.896C248.539 267.914 249.182 267.775 249.763 267.49C254.754 265.047 259.806 265.231 264.814 267.403C267.379 268.52 268.304 267.543 268.304 265.021C268.313 261.749 268.322 258.425 268.33 255.092V255.092Z" fill="#AED7FD"/>
    <path d="M81.9626 182.761C81.9626 196.948 81.9016 211.144 82.015 225.34C82.015 227.957 81.57 229.118 78.525 229.074C69.7039 228.943 60.8654 229.074 52.0356 229.292C49.3395 229.362 48.6415 228.551 48.6677 225.889C48.7898 211.118 48.7288 196.346 48.7288 181.575C48.7288 167.379 48.7898 153.183 48.6677 138.988C48.6677 136.37 49.2174 135.498 51.992 135.567C60.8217 135.759 69.6544 135.759 78.4901 135.567C81.4391 135.506 81.9801 136.579 81.9801 139.293C81.8928 153.794 81.9626 168.278 81.9626 182.761ZM74.9825 178.399C74.9825 171.742 74.904 165.084 74.9825 158.436C75.0523 154.553 73.3073 152.86 69.4945 152.983C66.4582 153.07 63.3869 152.983 60.3768 152.983C57.3666 152.983 55.674 154.291 55.6652 157.345C55.6652 171.375 55.6652 185.405 55.6652 199.435C55.6652 202.244 57.1485 203.684 59.9754 203.702C63.1514 203.702 66.3448 203.606 69.5207 203.702C73.4034 203.867 75.0437 202.131 74.9739 198.266C74.9215 191.713 75 185.03 75 178.407L74.9825 178.399Z" fill="#FBFBFC"/>
    <path d="M271.436 179.245C271.436 192.42 271.34 205.595 271.506 218.761C271.506 221.823 271.026 223.123 267.554 222.966C258.881 222.687 250.182 222.801 241.501 222.923C239.049 222.923 237.915 222.6 237.923 219.686C238.034 192.749 238.034 165.82 237.923 138.9C237.923 136.021 239.04 135.567 241.483 135.593C250.313 135.689 259.143 135.768 267.973 135.593C271 135.524 271.515 136.64 271.463 139.328C271.367 152.607 271.436 165.922 271.436 179.245ZM245.008 178.128C245.008 184.934 245.008 191.731 245.008 198.536C245.008 202.026 246.465 203.954 250.243 203.771C253.271 203.649 256.351 203.649 259.352 203.771C262.589 203.893 264.465 202.323 264.483 199.252C264.593 185.361 264.593 171.468 264.483 157.572C264.483 154.492 262.633 152.869 259.431 152.93C256.534 152.983 253.637 153.052 250.749 152.93C246.683 152.729 244.93 154.553 244.999 158.593C245.087 165.119 245.008 171.628 245.008 178.128V178.128Z" fill="#F6F6F9"/>
    <path d="M85.4785 182.351C85.4785 168.025 85.5745 153.698 85.4087 139.371C85.4087 136.318 86.1765 135.375 89.2216 135.576C93.2676 135.868 97.3295 135.868 101.376 135.576C104.927 135.305 105.843 136.719 105.503 139.939C105.353 142.396 105.338 144.861 105.459 147.32C105.459 150.435 105.764 153.209 102.353 155.53C99.1246 157.72 99.7353 162.702 103.173 165.259C105.058 166.672 105.503 168.121 105.494 170.276C105.415 185.911 105.346 201.538 105.494 217.164C105.494 221.405 103.156 224.485 101.62 227.992C101.053 229.283 99.7702 229.135 98.6098 229.205C85.4436 230.077 85.4436 230.077 85.4436 217.051L85.4785 182.351Z" fill="#FDFDFD"/>
    <path d="M159.772 135.75C175.556 135.75 191.34 135.846 207.123 135.672C210.256 135.672 211.303 136.544 210.797 139.537C210.727 139.956 210.797 140.41 210.797 140.837C210.5 144.685 212.542 149.92 209.924 152.023C207.307 154.125 202.447 153.061 198.581 152.939C181.384 152.424 164.196 153.227 146.999 152.695C135.604 152.337 124.183 153.244 112.753 152.642C110.057 152.503 108.8 152.066 109.053 149.056C109.311 145.734 109.311 142.397 109.053 139.075C108.853 136.352 109.778 135.672 112.439 135.689C128.214 135.811 143.989 135.75 159.772 135.75Z" fill="#FBFBFC"/>
    <path d="M234.46 179.202C234.46 192.516 234.355 205.83 234.538 219.145C234.582 222.225 233.71 223.159 230.691 222.932C227.201 222.661 223.711 222.871 220.273 222.862C214.881 222.862 214.488 222.513 214.471 216.903C214.471 207.933 214.471 198.964 214.471 189.994C214.471 184.349 214.471 178.704 214.471 173.059C214.471 169.84 214.026 166.856 217.647 164.439C220.875 162.292 220.264 157.066 216.844 154.71C214.628 153.183 214.287 151.517 214.453 149.266C214.776 144.842 212.542 138.918 215.387 136.405C217.873 134.206 223.658 135.689 227.986 135.655C234.46 135.602 234.46 135.655 234.46 142.303V179.202Z" fill="#FBFBFC"/>
    <path d="M128.336 86.0872C127.865 87.6054 126.408 88.0766 125.282 88.8444C117.43 94.254 109.577 99.6722 101.655 104.986C98.4439 107.15 97.4579 109.628 99.8137 112.978C99.9079 113.09 99.9925 113.21 100.067 113.336C103.557 119.757 102.885 120.97 95.7042 120.979C81.6655 120.979 67.6356 120.979 53.5969 121.057C50.7613 121.057 49.9934 120.639 51.3807 117.759C55.9527 108.275 60.3065 98.6689 64.7301 89.1062C65.5503 87.3612 66.5362 85.7993 68.7088 85.5463C70.2706 85.3631 71.3263 85.3718 71.5706 87.5618C72.2511 92.7445 73.3156 93.3291 80.1386 93.3116C86.1764 93.3116 87.3107 92.5874 87.9912 87.7188C88.2181 86.1309 88.5583 85.4416 90.2685 85.4591C102.719 85.5376 115.161 85.5289 127.603 85.5812C127.795 85.5638 128.057 85.8866 128.336 86.0872Z" fill="#ADD6FC"/>
    <path d="M270.014 120.979C253 120.979 236.623 120.979 220.281 120.979C218.03 120.979 217.446 120.403 218.309 118.283C218.85 116.948 218.911 115.421 219.487 114.112C222.314 107.743 222.323 107.656 216.608 103.747L191.192 86.4363C191.829 84.8047 193.015 85.5638 193.809 85.5638C205.152 85.5027 216.425 85.5638 227.733 85.4766C230.35 85.4766 232.095 85.59 232.156 88.9666C232.235 91.8023 234.329 93.2419 237.173 93.3292C239.058 93.3902 240.942 93.3815 242.827 93.3292C246.055 93.3292 247.905 91.6714 248.498 88.4954C248.716 87.3612 248.106 85.6249 250.173 85.5463C250.898 85.4609 251.631 85.5582 252.308 85.8295C252.985 86.1008 253.583 86.5375 254.047 87.0994C254.408 87.553 254.718 88.0445 254.972 88.5652L270.014 120.979Z" fill="#ADD6FC"/>
    <path d="M128.397 156.542C131.695 155.844 132.83 157.022 132.201 160.338C131.879 162.083 132.629 164.151 134.208 164.866C137.698 166.454 137.279 169.229 137.271 172.16C137.271 186.914 137.149 201.677 137.314 216.431C137.367 220.96 135.011 224.415 133.109 228.071C132.123 229.964 124.75 229.894 123.756 228.001C121.827 224.354 119.506 220.899 119.55 216.37C119.725 201.032 119.611 185.693 119.62 170.354C119.62 169.351 119.332 167.806 119.847 167.431C123.337 164.866 125.466 161.969 124.689 157.205C124.497 155.975 127.158 156.848 128.397 156.542Z" fill="#F5F5F9"/>
    <path d="M187.318 156.525C188.985 156.525 189.988 156.525 190.991 156.525C193.609 156.455 196.567 155.801 195.223 160.408C195.043 161.281 195.146 162.188 195.518 162.998C195.89 163.808 196.511 164.478 197.291 164.91C200.781 166.506 200.301 169.333 200.301 172.169C200.301 187.072 200.179 201.965 200.362 216.859C200.415 221.221 198.085 224.511 196.288 228.045C195.415 229.728 188.112 229.964 187.187 228.289C185.338 224.938 182.825 221.815 182.825 217.644C182.868 201.73 182.825 185.824 182.825 169.909C182.825 168.566 182.371 167.117 184.125 166.149C187.903 164.09 188.767 160.818 187.318 156.525Z" fill="#FEFEFE"/>
    <path d="M160.078 132.156C143.552 132.156 127.027 132.156 110.502 132.156C107.884 132.156 106.139 132.156 106.279 128.622C106.366 125.594 107.151 124.739 110.205 124.748C143.407 124.853 176.609 124.853 209.811 124.748C212.55 124.748 213.563 125.333 213.545 128.317C213.528 131.301 212.734 132.199 209.662 132.173C193.163 132.077 176.655 132.156 160.078 132.156Z" fill="#E9E8F1"/>
    <path d="M59.9574 260.851C55.4727 260.851 50.988 260.746 46.5033 260.895C44.2261 260.973 43.4931 260.214 43.528 257.946C43.6415 250.712 43.624 243.471 43.528 236.238C43.528 233.786 44.6361 232.835 46.9134 232.835C56.0311 232.835 65.1489 232.878 74.2666 232.835C76.1686 232.835 76.7445 233.524 76.727 235.365C76.6485 243.034 76.6223 250.704 76.727 258.373C76.727 260.659 75.6975 260.938 73.8303 260.903C69.2235 260.79 64.5904 260.851 59.9574 260.851ZM60.1668 243.279C62.6185 243.279 65.0703 243.279 67.522 243.279C68.5778 243.279 69.6074 242.816 69.6248 241.534C69.6423 240.251 68.508 239.789 67.5482 239.789C62.5051 239.719 57.462 239.745 52.4189 239.841C51.3719 239.841 50.4383 240.417 50.5954 241.761C50.7524 243.104 51.7733 243.287 52.8115 243.314C55.2633 243.314 57.715 243.279 60.1668 243.279ZM59.7393 253.897C62.3568 253.897 64.9045 253.949 67.4872 253.897C67.7404 253.917 67.995 253.886 68.2359 253.805C68.4767 253.725 68.6987 253.596 68.8886 253.427C69.0785 253.259 69.2323 253.053 69.3408 252.824C69.4493 252.594 69.5103 252.345 69.5201 252.091C69.5812 250.73 68.5342 250.477 67.4784 250.468C62.604 250.468 57.7238 250.468 52.8377 250.468C51.8518 250.468 50.6913 250.468 50.6215 251.899C50.5517 253.33 51.5987 253.88 52.8464 253.915C55.176 253.958 57.4707 253.958 59.7393 253.897Z" fill="#ADD6FC"/>
    <path d="M104.665 115.229C106.026 114.4 107.352 114.758 108.6 114.758C142.762 114.758 176.917 114.781 211.067 114.828C212.324 114.828 215.038 113.222 214.985 116.276C214.985 118.728 214.592 121.153 210.701 121.136C176.964 120.991 143.245 120.991 109.542 121.136C104.595 121.206 105.625 117.777 104.665 115.229Z" fill="#FEFEFE"/>
    <path d="M159.808 253.958C173 253.958 186.184 254.028 199.367 253.897C202.124 253.897 203.041 254.508 203.049 257.387C203.058 260.266 202.011 260.877 199.306 260.877C173.079 260.784 146.851 260.784 120.623 260.877C117.849 260.877 116.906 260.249 116.854 257.3C116.802 254.176 118.076 253.81 120.684 253.81C133.728 253.958 146.772 253.958 159.808 253.958Z" fill="#F5F5F9"/>
    <path d="M80.2436 246.716C80.2436 243.226 80.3745 239.736 80.2436 236.307C80.1127 233.821 80.6013 232.617 83.4893 232.817C88.1049 233.062 92.7467 232.966 97.371 232.817C99.5435 232.756 100.433 233.358 100.399 235.705C100.268 243.078 100.242 250.459 100.399 257.832C100.451 260.45 99.4476 260.982 97.1092 260.912C92.4849 260.755 87.8432 260.764 83.2276 260.912C80.994 260.982 80.1215 260.354 80.2349 258.015C80.3658 254.246 80.2436 250.468 80.2436 246.716Z" fill="#AED7FD"/>
    <path d="M151.353 179.612C151.353 177.439 151.353 175.249 151.353 173.111C151.353 169.901 150.594 166.541 154.581 164.596C156.222 163.793 156.937 161.289 156.388 159.57C155.288 156.132 157.26 156.298 159.371 156.551C161.291 156.787 164.711 155.042 163.734 159.649C163.272 161.769 164.135 164.116 165.889 164.962C169.135 166.533 168.908 169.063 168.882 171.811C168.882 177.587 168.716 183.372 168.934 189.139C169.039 191.896 168.123 192.629 165.514 192.472C161.623 192.272 157.714 192.341 153.822 192.472C151.946 192.525 151.266 191.931 151.336 190.021C151.423 186.539 151.353 183.075 151.353 179.612Z" fill="#FBFBFC"/>
    <path d="M151.44 208.788C151.44 205.604 151.545 202.41 151.44 199.191C151.344 196.914 151.798 195.701 154.485 195.849C158.237 196.067 162.015 195.997 165.828 195.849C167.992 195.771 168.951 196.364 168.908 198.746C168.777 205.115 168.908 211.493 168.838 217.862C168.777 221.806 166.482 224.991 164.476 228.123C163.202 230.156 155.864 228.847 154.616 226.701C152.478 223.019 150.908 219.232 151.431 214.8C151.554 212.798 151.557 210.791 151.44 208.788V208.788Z" fill="#ACD4FB"/>
    <path d="M118.887 232.835C122.935 232.835 126.975 232.878 131.015 232.835C133.414 232.835 134.67 233.419 134.601 236.255C134.548 238.873 133.815 239.745 131.11 239.745C124.794 239.745 123.912 240.618 124.017 246.638C124.069 249.631 123.232 250.608 120.161 250.538C114.097 250.39 113.18 251.131 113.521 257.178C113.748 261.488 111.313 260.982 108.678 260.903C106.2 260.825 103.443 261.715 103.714 257.282C104.08 250.224 103.888 243.122 103.766 236.046C103.766 233.794 104.403 233 106.715 233.105C110.755 233.288 114.803 233.158 118.852 233.158L118.887 232.835Z" fill="#ACD4FB"/>
    <path d="M159.808 243.13C169.51 243.13 179.212 243.226 188.923 243.069C191.741 243.069 192.605 243.828 192.588 246.716C192.57 249.604 191.802 250.372 188.941 250.355C169.676 250.232 150.411 250.232 131.146 250.355C128.371 250.355 127.359 249.709 127.368 246.742C127.376 243.776 128.319 243.043 131.128 243.087C140.682 243.217 150.245 243.13 159.808 243.13Z" fill="#E3E3ED"/>
    <path d="M210.901 247.187C210.901 250.512 210.98 253.836 210.901 257.151C210.849 258.643 211.835 260.807 208.816 260.877C205.797 260.947 206.591 258.949 206.495 257.335C206.495 257.047 206.495 256.759 206.495 256.462C206.417 251.14 205.736 250.224 200.492 250.485C197.002 250.66 195.702 249.814 195.912 246.062C196.208 240.591 195.039 239.649 189.298 239.658C186.855 239.658 185.398 239.553 185.407 236.298C185.416 233.044 186.864 232.756 189.316 232.808C195.667 232.957 202.019 233.131 208.371 233.096C210.579 233.096 210.989 233.969 210.989 235.915C210.814 239.675 210.893 243.436 210.901 247.187Z" fill="#ADD6FC"/>
    <path d="M116.103 192.795C116.103 200.473 115.999 208.151 116.165 215.82C116.226 218.482 115.118 218.944 112.84 218.857C110.563 218.77 108.993 218.953 109.027 215.794C109.167 200.45 109.167 185.097 109.027 169.735C109.027 166.637 110.772 167.117 112.64 167.073C114.507 167.03 116.261 166.724 116.13 169.769C115.964 177.439 116.103 185.117 116.103 192.795Z" fill="#F5F5F9"/>
    <path d="M172.363 192.743C172.363 185.213 172.528 177.674 172.275 170.145C172.171 167.056 173.602 167.073 175.879 167.03C178.287 166.977 179.439 167.274 179.413 170.223C179.238 185.289 179.238 200.357 179.413 215.428C179.413 218.656 178.069 218.726 175.6 218.918C172.668 219.092 172.336 217.827 172.38 215.428C172.52 207.898 172.432 200.36 172.432 192.821L172.363 192.743Z" fill="#FBFBFC"/>
    <path d="M210.788 192.883C210.788 200.561 210.666 208.247 210.858 215.925C210.928 218.7 209.663 218.909 207.49 218.866C205.318 218.822 203.712 218.979 203.747 215.812C203.916 200.596 203.916 185.379 203.747 170.162C203.747 167.048 205.134 167.126 207.377 167.056C209.837 166.978 210.971 167.353 210.867 170.276C210.631 177.779 210.788 185.318 210.788 192.883Z" fill="#FBFBFC"/>
    <path d="M147.566 192.882C147.566 200.395 147.462 207.907 147.627 215.419C147.689 218.107 146.86 218.909 144.199 218.857C141.537 218.805 140.708 218.246 140.708 215.489C140.842 200.313 140.842 185.137 140.708 169.962C140.708 167.274 141.79 166.864 144.015 167.012C145.996 167.152 147.976 166.559 147.88 169.9C147.654 177.552 147.811 185.222 147.811 192.882H147.566Z" fill="#F5F5F9"/>
    <path d="M178.715 33.1086C183.2 33.1086 187.693 33.2307 192.178 33.0649C194.49 32.9689 195.563 33.7805 194.978 35.9792C194.394 38.1779 197.064 42.2787 192.413 42.427C183.016 42.7237 173.593 42.4967 164.188 42.5404C162.538 42.5404 161.788 41.982 161.867 40.2893C161.967 38.7 161.967 37.106 161.867 35.5167C161.71 33.5623 162.547 33.0388 164.388 33.0824C169.152 33.2133 173.933 33.1086 178.715 33.1086Z" fill="#ACD4FB"/>
    <path d="M160.13 239.439C153.761 239.439 147.392 239.308 141.022 239.492C138.353 239.57 137.908 238.445 137.977 236.167C138.047 234.091 138.047 232.625 140.9 232.677C153.639 232.811 166.377 232.811 179.116 232.677C181.864 232.677 182.118 233.89 182.065 236.08C182.013 238.113 182.17 239.631 179.238 239.57C172.878 239.274 166.5 239.439 160.13 239.439Z" fill="#E9E8F1"/>
    <path d="M257.511 132.156C252.887 132.156 248.245 131.999 243.63 132.217C240.846 132.348 240.541 130.969 240.672 128.797C240.785 126.851 240.096 124.74 243.49 124.792C253.026 124.966 262.58 124.792 272.126 124.879C274.481 124.879 276.61 125.534 276.628 128.369C276.645 131.205 274.691 132.06 272.265 132.086C267.353 132.147 262.432 132.086 257.511 132.086V132.156Z" fill="#E9E8F1"/>
    <path d="M61.9554 132.156C57.3137 132.156 52.672 132.217 48.0389 132.156C45.7704 132.112 43.6327 131.684 43.5193 128.666C43.3971 125.315 45.7006 124.931 48.1436 124.922C57.7412 124.87 67.2865 124.992 76.8492 124.844C80.0862 124.792 79.3009 126.877 79.3445 128.613C79.3881 130.35 79.9117 132.409 76.727 132.26C71.8235 131.99 66.8851 132.156 61.9554 132.156Z" fill="#E9E8F1"/>
    <path d="M235.472 80.8085C235.565 79.647 235.565 78.4799 235.472 77.3184C234.782 73.2176 236.231 71.935 240.506 72.0834C244.275 72.1793 245.645 72.9559 245.217 76.8647C244.989 80.1756 244.966 83.4975 245.148 86.8113C245.217 91.043 242.068 89.6644 239.913 89.7952C237.757 89.9261 235.306 90.4409 235.498 86.8811C235.559 84.8569 235.472 82.8327 235.472 80.8085Z" fill="#E9E8F1"/>
    <path d="M84.5447 80.9133C84.4529 82.0603 84.4529 83.2127 84.5447 84.3597C85.2863 88.7659 83.5674 90.188 79.1351 89.9001C76.0464 89.6994 74.5981 89.0799 74.9383 85.7382C75.0824 83.2948 75.0998 80.8457 74.9907 78.4005C74.9907 72.3802 77.2418 70.766 83.1836 72.2405C84.6668 72.607 84.5011 73.462 84.5098 74.4305C84.5534 76.5856 84.5447 78.7495 84.5447 80.9133Z" fill="#FDFDFD"/>
    <path d="M226.729 132.173C224.854 132.061 222.974 132.076 221.101 132.217C217.611 132.688 216.608 131.344 216.791 127.942C216.913 125.455 217.664 124.705 220.054 124.792C224.67 124.94 229.312 125.036 233.919 124.792C237.121 124.6 237.365 126.162 237.365 128.674C237.365 131.187 237.033 132.548 234.093 132.252C231.624 131.973 229.19 132.173 226.729 132.173Z" fill="#E3E3ED"/>
    <path d="M239.895 68.794C238.152 68.6519 236.4 68.6694 234.66 68.8463C230.359 69.6577 229.948 67.3805 230.14 63.969C230.263 61.8226 231.074 61.2817 233.046 61.3515C237.818 61.4387 242.643 61.5521 247.372 61.3515C250.653 61.1944 250.252 63.1924 250.322 65.2516C250.4 67.4939 250.374 69.2564 247.242 68.9074C244.797 68.7356 242.344 68.6978 239.895 68.794Z" fill="#E9E8F1"/>
    <path d="M80.1907 68.7767H74.1442C69.93 68.7767 68.6387 66.8746 69.7816 62.7214C70.1656 61.2818 71.0729 61.4128 72.0502 61.4041C77.2329 61.4041 82.4243 61.4564 87.607 61.4041C91.0011 61.4041 89.6312 63.8558 89.7447 65.3914C89.8581 66.927 90.6172 69.0472 87.5634 68.8814C85.0942 68.6371 82.6424 68.7767 80.1907 68.7767Z" fill="#F5F5F9"/>
    <path d="M92.9384 132.156C91.0587 132.011 89.1701 132.029 87.2933 132.208C83.0878 132.95 82.4509 130.873 82.7388 127.366C82.8958 125.568 83.2623 124.748 85.208 124.818C90.2773 124.923 95.3553 124.984 100.425 124.818C103.609 124.704 102.946 126.79 102.981 128.578C103.016 130.367 103.461 132.487 100.363 132.208C97.8768 131.981 95.3989 132.156 92.9384 132.156Z" fill="#E9E8F1"/>
    <path d="M186.367 29.4875C184.779 29.3564 183.182 29.3564 181.594 29.4875C177.868 30.0983 177.232 28.2311 177.467 25.1249C177.598 23.4585 177.72 22.4463 179.797 22.5074C183.993 22.647 188.208 22.6383 192.404 22.5074C195.423 22.4202 195.022 24.4007 195.022 26.2941C195.022 28.1874 195.118 29.7842 192.404 29.505C190.441 29.3217 188.391 29.4875 186.367 29.4875Z" fill="#F5F5F9"/>
    <path d="M144.181 163.496C142.314 163.496 140.447 163.601 138.588 163.496C136.503 163.357 135.561 161.978 135.587 160.006C135.613 158.034 136.459 156.665 138.658 156.638C142.102 156.586 145.548 156.56 148.997 156.56C151.371 156.56 152.889 157.738 152.906 160.163C152.924 162.589 151.257 163.653 148.928 163.653H144.181V163.496Z" fill="#F6F6F9"/>
    <path d="M112.962 156.586C114.707 156.586 116.453 156.534 118.145 156.586C120.239 156.665 121.216 157.799 121.26 159.91C121.304 162.022 120.387 163.4 118.337 163.4C114.454 163.549 110.563 163.496 106.689 163.339C104.805 163.261 103.923 161.778 103.915 160.067C103.915 158.192 104.787 156.665 106.925 156.577C108.931 156.499 110.947 156.577 112.962 156.577V156.586Z" fill="#F6F6F9"/>
    <path d="M175.591 163.514C173.846 163.514 172.101 163.61 170.356 163.514C168.402 163.374 167.137 162.397 167.128 160.233C167.119 158.069 168.201 156.804 170.147 156.743C173.89 156.551 177.651 156.568 181.394 156.743C183.392 156.839 184.465 158.305 184.447 160.233C184.474 160.671 184.407 161.109 184.253 161.52C184.098 161.93 183.858 162.303 183.549 162.614C183.241 162.926 182.869 163.168 182.46 163.326C182.051 163.484 181.613 163.554 181.175 163.531C179.343 163.583 177.467 163.514 175.591 163.514Z" fill="#FBFBFC"/>
    <path d="M207.621 163.557C205.876 163.557 204.131 163.627 202.386 163.557C200.231 163.452 198.73 162.318 198.669 160.119C198.608 157.921 200.004 156.629 202.159 156.629C205.649 156.551 209.14 156.629 212.56 156.629C214.61 156.629 215.832 157.668 215.954 159.762C216.085 162.004 215.012 163.374 212.752 163.54C211.007 163.671 209.262 163.54 207.517 163.54L207.621 163.557Z" fill="#F6F6F9"/>
    <path d="M120.274 229.327H107.187C106 229.327 104.892 229.022 105.843 227.635C107.195 225.68 106.881 222.234 110.572 222.242C113.992 222.242 117.709 221.422 118.817 226.221C119.216 227.295 119.704 228.334 120.274 229.327Z" fill="#E3E3ED"/>
    <path d="M167.11 29.4702C165.61 28.5017 161.875 31.634 161.797 26.652C161.727 23.4761 162.6 22.0539 165.898 22.5425C166.903 22.6037 167.911 22.6037 168.916 22.5425C171.325 22.6036 174.003 21.6089 173.96 26.0326C173.916 30.4562 171.072 29.2434 168.725 29.4266C168.314 29.5052 167.931 29.4702 167.11 29.4702Z" fill="#ACD4FB"/>
    <path d="M182.763 228.812H168.594C170.217 226.134 169.588 222.269 174.239 222.225C180.512 222.173 180.739 222.199 182.763 228.812Z" fill="#E9E8F1"/>
    <path d="M151.301 228.812H137.114C138.597 226.125 138.065 222.321 142.672 222.234C148.875 222.112 149.032 222.103 151.301 228.812Z" fill="#E9E8F1"/>
    <path d="M207.63 222.251C208.65 223.01 211.687 220.803 211.381 223.996C211.163 226.212 212.079 230.444 207.115 229.362C206.844 229.301 206.513 229.432 206.242 229.362C204.305 228.682 201.147 231.107 200.431 228.01C199.768 225.052 203.616 222.251 207.63 222.251Z" fill="#E3E3ED"/>
    <path d="M268.33 255.092C268.33 258.425 268.33 261.75 268.33 265.074C268.33 267.595 267.405 268.564 264.84 267.456C259.831 265.283 254.78 265.1 249.789 267.543C249.207 267.827 248.565 267.966 247.918 267.948C247.27 267.93 246.637 267.755 246.072 267.438C243.79 266.334 241.287 265.76 238.752 265.76C236.216 265.76 233.714 266.334 231.431 267.438C228.639 268.695 227.627 267.639 227.619 264.978C227.575 258.181 227.619 251.384 227.619 244.587C227.556 243.795 227.763 243.006 228.204 242.346C228.646 241.686 229.297 241.194 230.053 240.949C234.895 238.881 239.816 238.331 244.807 240.076C246.953 240.827 248.847 241.132 251.019 240.164C254.439 238.619 258.121 238.846 261.672 239.509C267.841 240.652 268.356 241.42 268.356 247.772L268.33 255.092ZM264.761 263.503C264.761 257.5 264.761 252.012 264.761 246.524C264.761 244.849 264.264 243.907 262.536 243.418C258.937 242.288 255.069 242.349 251.508 243.593C251.014 243.68 250.57 243.948 250.264 244.345C249.957 244.742 249.81 245.239 249.85 245.739C249.85 251.585 249.85 257.439 249.85 263.669C254.998 261.619 259.666 261.933 264.779 263.503H264.761ZM246.36 263.59C246.36 257.701 246.36 252.1 246.36 246.498C246.36 245.067 246.107 244.099 244.51 243.584C240.805 242.305 236.777 242.305 233.072 243.584C232.506 243.703 232.003 244.023 231.657 244.486C231.31 244.948 231.143 245.521 231.187 246.097C231.187 251.829 231.187 257.57 231.187 263.547C236.087 261.756 241.462 261.759 246.36 263.556V263.59Z" fill="#0F0E6C"/>
    <path d="M75 178.407C75 185.056 74.9215 191.713 75 198.362C75.0698 202.227 73.4295 203.963 69.5469 203.797C66.3709 203.658 63.1775 203.797 60.0016 203.797C57.1747 203.797 55.6914 202.34 55.6914 199.531C55.6914 185.501 55.6914 171.471 55.6914 157.441C55.6914 154.361 57.4801 153.078 60.403 153.078C63.3259 153.078 66.5106 153.148 69.5207 153.078C73.3336 152.956 75.0786 154.649 75.0088 158.532C74.9215 165.093 75 171.75 75 178.407ZM71.51 184V175.764C71.51 166.986 71.51 167.091 62.7849 167.039C60.0976 167.039 59.0331 167.545 59.1378 170.529C59.3734 177.465 59.2164 184.41 59.2164 191.347C59.2164 200.63 59.2164 200.56 68.5871 200.333C70.7684 200.281 71.6583 199.836 71.5536 197.463C71.3704 192.978 71.5013 188.52 71.5013 184H71.51ZM65.7776 163.583C67.2085 162.17 70.9429 166.14 71.5275 161.324C71.9463 157.834 71.2919 155.687 67.0602 156.472C65.4791 156.721 63.8687 156.721 62.2876 156.472C59.1814 156.036 59.2251 157.86 59.164 160.102C59.0942 162.536 59.4519 164.081 62.3923 163.592C63.516 163.505 64.6447 163.502 65.7689 163.583H65.7776Z" fill="#0A0869"/>
    <path d="M245.008 178.128C245.008 171.628 245.087 165.119 245.008 158.619C244.939 154.579 246.692 152.756 250.758 152.957C253.646 153.096 256.543 153.026 259.44 152.957C262.642 152.895 264.474 154.518 264.492 157.598C264.596 171.489 264.596 185.382 264.492 199.278C264.492 202.349 262.598 203.92 259.361 203.798C256.334 203.676 253.254 203.676 250.252 203.798C246.492 203.937 245.017 202.053 245.017 198.563C245.026 191.731 245.008 184.934 245.008 178.128ZM260.975 183.608V176.209C260.975 166.829 260.975 166.934 251.701 167.039C249.231 167.039 248.516 167.746 248.577 170.215C248.734 177.195 248.629 184.123 248.629 191.076C248.629 200.866 248.629 200.796 258.305 200.29C260.373 200.177 261.071 199.592 261.019 197.516C260.888 192.883 260.975 188.241 260.975 183.608V183.608ZM255.121 156.56H253.498C251.064 156.612 248.498 155.688 248.498 160.05C248.498 164.413 251.116 163.444 253.533 163.54C254.815 163.54 256.15 163.54 257.398 163.54C258.107 163.567 258.811 163.398 259.43 163.052C260.05 162.705 260.562 162.195 260.911 161.577C261.26 160.959 261.432 160.256 261.408 159.547C261.384 158.837 261.165 158.148 260.775 157.555C259.326 155.365 256.779 157.057 255.121 156.551V156.56Z" fill="#171772"/>
    <path d="M60.1667 243.279C57.7149 243.279 55.2632 243.279 52.8114 243.279C51.7732 243.279 50.7436 243.052 50.5953 241.725C50.447 240.399 51.3718 239.823 52.4188 239.806C57.4619 239.71 62.505 239.684 67.5481 239.754C68.5079 239.754 69.6509 240.233 69.6247 241.499C69.5985 242.764 68.5777 243.182 67.5219 243.244C65.0702 243.305 62.6184 243.244 60.1667 243.244V243.279Z" fill="#171772"/>
    <path d="M59.7395 253.906C57.4361 253.906 55.1414 253.958 52.8467 253.906C51.599 253.906 50.5433 253.391 50.6218 251.89C50.7003 250.389 51.8869 250.468 52.8729 250.468C57.7531 250.468 62.6333 250.468 67.5136 250.468C68.5693 250.468 69.6163 250.73 69.5553 252.091C69.5455 252.345 69.4845 252.594 69.3759 252.824C69.2674 253.053 69.1136 253.258 68.9237 253.427C68.7338 253.596 68.5118 253.724 68.271 253.805C68.0302 253.886 67.7755 253.917 67.5223 253.897C64.9746 253.958 62.3571 253.897 59.7395 253.906Z" fill="#0F0E6C"/>
    <path d="M264.779 263.503C259.684 261.933 255.016 261.619 249.946 263.669C249.946 257.439 249.946 251.585 249.946 245.739C249.906 245.239 250.054 244.742 250.36 244.345C250.667 243.948 251.11 243.68 251.604 243.593C255.166 242.349 259.034 242.288 262.633 243.418C264.378 243.942 264.875 244.849 264.858 246.524C264.718 252.012 264.779 257.5 264.779 263.503Z" fill="#FBFBFC"/>
    <path d="M246.36 263.556C241.467 261.767 236.098 261.767 231.205 263.556C231.205 257.544 231.205 251.803 231.205 246.106C231.161 245.529 231.327 244.957 231.674 244.495C232.021 244.032 232.524 243.712 233.089 243.593C236.795 242.314 240.822 242.314 244.528 243.593C246.125 244.108 246.386 245.076 246.378 246.507C246.334 252.1 246.36 257.701 246.36 263.556Z" fill="#FBFBFC"/>
    <path d="M71.5008 184C71.5008 188.485 71.3699 192.978 71.5532 197.446C71.6579 199.819 70.7679 200.264 68.5867 200.316C59.2072 200.543 59.2159 200.613 59.2159 191.329C59.2159 184.349 59.3729 177.448 59.1374 170.511C59.0327 167.527 60.0971 167.021 62.7844 167.021C71.5095 167.091 71.5095 167.021 71.5095 175.746L71.5008 184Z" fill="#FEFEFE"/>
    <path d="M65.7682 163.583C64.6413 163.498 63.5097 163.498 62.3829 163.583C59.4425 164.063 59.0848 162.519 59.1546 160.093C59.2157 157.851 59.1546 156.027 62.2782 156.464C63.8593 156.712 65.4697 156.712 67.0508 156.464C71.2825 155.678 71.9369 157.868 71.518 161.315C70.9335 166.14 67.1991 162.17 65.7682 163.583Z" fill="#AED7FD"/>
    <path d="M260.975 183.608C260.975 188.241 260.888 192.882 260.975 197.515C261.027 199.592 260.329 200.176 258.261 200.29C248.585 200.796 248.585 200.866 248.585 191.076C248.585 184.096 248.69 177.168 248.533 170.215C248.472 167.745 249.187 167.074 251.656 167.039C260.931 166.934 260.931 166.829 260.931 176.209L260.975 183.608Z" fill="#FBFBFC"/>
    <path d="M255.12 156.551C256.778 157.057 259.326 155.4 260.774 157.572C261.164 158.165 261.383 158.854 261.407 159.564C261.431 160.273 261.26 160.976 260.911 161.594C260.562 162.212 260.05 162.723 259.43 163.069C258.81 163.415 258.107 163.584 257.398 163.557C256.115 163.557 254.78 163.557 253.532 163.557C251.151 163.488 248.507 164.561 248.498 160.067C248.489 155.574 251.063 156.577 253.498 156.577L255.12 156.551Z" fill="#ACD4FB"/>
</svg>
