<svg width="344" height="242" viewBox="0 0 344 242" fill="none" xmlns="http://www.w3.org/2000/svg">
<path d="M81.9237 189.642C82.2955 188.809 82.5387 187.925 82.6002 186.978C83.1676 178.385 74.1639 179.78 68.8333 177.275C63.8549 174.935 63.6453 169.51 63.2903 164.724C62.8178 158.317 62.3902 153.781 57.9764 148.66C48.5535 137.725 50.7757 125.78 45.7833 113.081C42.5576 104.877 34.9599 98.5177 26.6216 95.5212C24.1505 94.6323 21.2742 93.9614 18.2441 94.8559C12.7346 96.48 9.77714 102.364 10.2384 106.666C10.6996 110.965 13.3607 114.468 14.1685 118.661C14.9764 122.854 13.0057 128.634 7.69464 131.033C5.03073 132.235 1.43598 132.774 0.292701 135.038C-0.218838 136.05 0.0243525 137.051 0.38215 137.92C1.96429 141.778 5.63451 144.495 7.02936 148.417C8.67299 153.04 6.59889 156.562 4.85183 160.788C4.06914 162.687 3.66662 164.959 4.72045 166.723C6.66597 169.974 11.4124 169.107 13.6374 172.012C16.2846 175.469 11.7255 180.951 7.92945 185.166C4.13344 189.382 0.974753 195.78 5.4025 197.689C6.78058 198.285 8.58634 198.215 10.2048 198.444C17.4782 199.467 19.952 206.03 21.5789 211.9C23.3343 218.229 30.1464 220.289 34.7503 224.032C39.9412 228.25 41.5988 236.524 50.2698 232.902C56.207 230.422 58.9072 224.099 62.27 219.084C65.9542 213.589 69.876 208.158 72.2156 201.916C74.0382 197.275 79.9027 194.173 81.9237 189.642Z" fill="#E8EDFB"/>
<path d="M49.8002 233.656C49.6185 233.656 49.4564 233.53 49.4172 233.346L29.6629 140.777C29.6182 140.565 29.7523 140.355 29.9648 140.31C30.1772 140.263 30.3841 140.4 30.4316 140.612L50.1859 233.181C50.2307 233.393 50.0965 233.603 49.884 233.648C49.8561 233.653 49.8281 233.656 49.8002 233.656Z" fill="#181B5E"/>
<path d="M37.2159 172.842C37.1936 172.842 37.1684 172.839 37.1461 172.836C36.9336 172.797 36.7911 172.593 36.8302 172.381L40.3635 152.704C40.4026 152.492 40.6066 152.352 40.8191 152.389C41.0315 152.428 41.1741 152.632 41.135 152.844L37.6017 172.52C37.5682 172.708 37.4032 172.842 37.2159 172.842Z" fill="#181B5E"/>
<path d="M44.2238 207.512C44.1008 207.512 43.9778 207.453 43.9023 207.344L33.1768 191.925C33.0538 191.746 33.0957 191.503 33.2746 191.377C33.4535 191.254 33.6967 191.296 33.8225 191.475L44.548 206.894C44.671 207.073 44.6291 207.316 44.4502 207.442C44.3775 207.489 44.2992 207.512 44.2238 207.512Z" fill="#181B5E"/>
<path d="M199.138 241.34C278.547 241.34 342.92 239.457 342.92 237.134C342.92 234.81 278.547 232.927 199.138 232.927C119.73 232.927 55.3569 234.81 55.3569 237.134C55.3569 239.457 119.73 241.34 199.138 241.34Z" fill="#E8EDFB"/>
<path d="M232.257 220.275C231.399 218.604 230.686 216.773 230.812 214.897C231.041 211.49 233.862 208.932 236.294 206.533C238.726 204.135 241.116 200.893 240.196 197.603C239.313 194.441 235.866 192.898 232.948 191.397C230.03 189.896 226.907 187.229 227.55 184.012C228.473 179.402 236.076 178.684 236.9 174.055C237.199 172.381 236.45 170.715 235.724 169.174C233.239 163.922 230.754 158.67 228.269 153.417C227.131 151.013 226.111 147.829 228.014 145.973C229.297 144.724 231.313 144.752 232.993 144.137C237.353 142.538 238.661 137.154 239.662 132.617C240.663 128.084 242.994 122.736 247.626 122.401C249.409 122.272 251.154 122.979 252.694 123.891C258.802 127.505 262.57 134.739 262.033 141.817C261.804 144.847 260.937 148.229 262.726 150.686C263.657 151.964 265.133 152.699 266.435 153.591C271.422 156.998 274.178 163.402 273.222 169.364C272.571 173.434 270.402 177.767 272.314 181.418C274.455 185.502 280.585 186.198 282.617 190.335C284.292 193.739 282.388 197.787 280.191 200.881C277.994 203.976 275.336 207.188 275.431 210.981C275.478 212.943 276.283 214.81 276.496 216.761C277.041 221.737 273.7 226.347 269.823 229.514C264.817 233.606 257.222 237.947 250.614 235.755C243.05 233.248 235.886 227.342 232.257 220.275Z" fill="#889ED8"/>
<path d="M256.853 236.739C256.652 236.739 256.478 236.583 256.462 236.379L250.418 161.526C250.401 161.311 250.564 161.121 250.779 161.104C251.019 161.096 251.184 161.247 251.201 161.465L257.244 236.317C257.261 236.533 257.099 236.723 256.884 236.739C256.875 236.739 256.864 236.739 256.853 236.739Z" fill="white"/>
<path d="M252.574 183.704C252.487 183.704 252.401 183.676 252.328 183.618C252.157 183.483 252.132 183.235 252.266 183.067L262.883 169.817C263.02 169.647 263.266 169.622 263.436 169.756C263.607 169.89 263.632 170.139 263.498 170.306L252.881 183.556C252.803 183.654 252.689 183.704 252.574 183.704Z" fill="white"/>
<path d="M255.109 209.533C255.022 209.533 254.936 209.505 254.863 209.446C254.693 209.312 254.667 209.063 254.802 208.895L265.418 195.646C265.555 195.475 265.801 195.45 265.972 195.584C266.142 195.718 266.167 195.967 266.033 196.135L255.417 209.385C255.338 209.482 255.224 209.533 255.109 209.533Z" fill="white"/>
<path d="M253.832 199.313C253.739 199.313 253.65 199.282 253.574 199.218L243.657 190.679C243.492 190.536 243.475 190.29 243.615 190.125C243.757 189.96 244.003 189.941 244.168 190.083L254.086 198.623C254.251 198.765 254.268 199.011 254.128 199.176C254.052 199.266 253.943 199.313 253.832 199.313Z" fill="white"/>
<path d="M258.119 216.432C257.588 215.33 257.043 214.165 257.138 212.946C257.272 211.244 258.606 209.899 259.942 208.834C262.98 206.41 266.477 204.543 269.192 201.759C271.906 198.975 273.756 194.849 272.44 191.193C271.403 188.314 268.568 186.119 268.381 183.064C268.129 179.019 272.468 176.4 274.505 172.898C276.202 169.982 276.264 166.424 277.292 163.212C278.321 160 281.144 156.766 284.462 157.37C288.113 158.032 289.407 162.597 289.452 166.309C289.497 170.021 289.295 174.332 292.124 176.733C293.103 177.563 294.377 178.075 295.135 179.112C295.822 180.056 295.962 181.281 296.082 182.444C296.742 188.918 297.262 195.998 293.617 201.387C292.784 202.62 291.724 203.783 291.434 205.245C290.718 208.859 294.981 212.018 294.397 215.657C293.899 218.743 290.327 220.183 288.451 222.685C286.321 225.525 286.503 229.62 284.342 232.435C281.122 236.63 271.979 237.486 267.758 234.307C262.975 230.702 260.604 221.572 258.119 216.432Z" fill="#ED7061"/>
<path d="M273.136 236.762C273.116 236.762 273.094 236.759 273.072 236.756C272.859 236.72 272.714 236.519 272.747 236.303L282.221 178.969C282.254 178.757 282.439 178.606 282.674 178.645C282.886 178.681 283.031 178.882 282.998 179.098L273.525 236.432C273.491 236.625 273.323 236.762 273.136 236.762Z" fill="white"/>
<path d="M279.733 199.157C279.643 199.157 279.551 199.126 279.478 199.064C279.313 198.922 279.294 198.676 279.433 198.511L288.801 187.517C288.94 187.352 289.189 187.333 289.354 187.472C289.519 187.612 289.538 187.861 289.399 188.026L280.032 199.02C279.953 199.109 279.842 199.157 279.733 199.157Z" fill="white"/>
<path d="M275.811 220.569C275.669 220.569 275.532 220.49 275.462 220.356L269.966 209.661C269.868 209.469 269.944 209.231 270.137 209.133C270.332 209.032 270.564 209.111 270.668 209.304L276.163 219.998C276.261 220.191 276.186 220.429 275.993 220.527C275.934 220.555 275.873 220.569 275.811 220.569Z" fill="white"/>
<path d="M304.194 224.524C305.614 222.71 308.443 221.555 308.292 219.258C308.164 217.307 305.749 215.822 306.221 213.924C306.668 212.138 309.108 211.959 310.939 212.174C311.3 210.939 311.029 209.625 310.903 208.345C310.777 207.065 310.85 205.639 311.725 204.694C312.6 203.749 314.501 203.8 314.909 205.018C315.557 203.187 316.206 201.359 316.857 199.528C317.123 198.777 317.511 197.916 318.291 197.753C319.429 197.516 320.197 199.014 320.018 200.163C319.84 201.312 319.166 202.377 319.208 203.54C319.261 205.016 320.667 206.301 322.143 206.226C320.625 207.408 318.948 209.385 320.007 210.989C320.541 211.797 321.732 212.468 321.38 213.368C321.03 214.265 319.417 214.184 319.219 215.129C318.951 216.387 321.626 216.971 321.123 218.156C319.473 217.896 318.048 220.085 318.953 221.488C319.949 223.031 322.389 222.802 323.717 224.071C324.67 224.982 324.818 226.497 324.427 227.755C322.889 232.703 317.103 238.649 311.675 236.706C307.361 235.157 300.066 229.793 304.194 224.524Z" fill="#D85B7A"/>
<path d="M313.184 237.438C313.176 237.438 313.164 237.438 313.153 237.438C312.938 237.421 312.776 237.234 312.79 237.016L314.828 209.826C314.842 209.611 315.004 209.452 315.25 209.463C315.465 209.48 315.627 209.667 315.613 209.885L313.575 237.075C313.561 237.279 313.388 237.438 313.184 237.438Z" fill="white"/>
<path d="M314.039 226.022C313.953 226.022 313.863 225.994 313.791 225.933L308.79 221.857C308.622 221.72 308.597 221.474 308.734 221.304C308.871 221.136 309.12 221.111 309.287 221.248L314.288 225.323C314.456 225.46 314.481 225.706 314.344 225.877C314.266 225.972 314.154 226.022 314.039 226.022Z" fill="white"/>
<path d="M313.863 233.547C313.748 233.547 313.634 233.497 313.558 233.402C313.421 233.234 313.449 232.985 313.617 232.848L321.517 226.469C321.684 226.335 321.93 226.36 322.07 226.528C322.207 226.696 322.179 226.945 322.011 227.082L314.112 233.46C314.036 233.519 313.95 233.547 313.863 233.547Z" fill="white"/>
<path d="M47.8771 178.558C47.3544 176.738 45.7192 175.215 44.5032 173.577C43.2901 171.942 42.499 169.893 43.7261 168.263C44.2992 167.506 45.2384 166.938 46.0294 166.29C49.641 163.329 49.8422 158.882 48.699 155.008C47.5557 151.133 45.2831 147.447 44.5955 143.514C43.9609 139.871 45.2747 135.541 49.8031 133.937C53.1267 132.76 57.3755 133.526 59.9947 135.427C62.6139 137.33 63.7013 140.165 63.4302 142.854C63.3211 143.93 63.0444 145.107 63.8439 146.015C65.4204 147.813 69.5295 146.999 71.7713 148.369C73.6889 149.54 73.4094 151.743 72.6015 153.47C71.7937 155.195 70.6141 157.004 71.2849 158.762C72.1151 160.931 75.5589 162.287 75.9083 164.526C76.0509 165.443 75.6316 166.385 75.9083 167.285C76.6826 169.82 82.4633 171.139 81.2557 173.585C80.3193 175.483 76.0341 175.251 74.712 177.024C73.3059 178.905 76.4115 181.079 76.023 183.204C75.8916 183.928 75.3577 184.574 74.8377 185.197C71.2961 189.437 67.7517 193.675 64.21 197.916C63.5699 198.681 62.9186 199.459 62.0353 200.082C56.5957 203.925 48.3132 201.452 47.388 196.515C46.9463 194.164 46.3677 191.389 46.1944 189.01C45.9428 185.482 48.8806 182.055 47.8771 178.558Z" fill="#889ED8"/>
<rect x="58.561" y="160.457" width="0.785474" height="75.0953" transform="rotate(-3.43409 58.561 160.457)" fill="white"/>
<rect x="59.9761" y="182.033" width="16.9792" height="0.785503" transform="rotate(-50.1277 59.9761 182.033)" fill="white"/>
<rect x="51.2085" y="189.463" width="0.7855" height="13.0907" transform="rotate(-48.0886 51.2085 189.463)" fill="white"/>
<path d="M16.542 231.781C15.5524 230.609 14.7027 229.256 14.4818 227.741C14.4287 227.375 14.4231 226.97 14.644 226.674C14.834 226.416 15.1583 226.293 15.4714 226.229C17.6908 225.754 19.7733 227.381 21.3778 228.988C24.2095 231.828 26.7364 234.97 28.9028 238.344C27.6057 236.326 26.9237 232.454 27.2312 230.081C27.2424 229.989 27.2619 229.885 27.3346 229.827C27.4101 229.765 27.5163 229.771 27.6085 229.787C28.2906 229.919 28.7211 230.581 29.0481 231.196C30.06 233.097 30.9433 235.294 31.5303 237.427C31.1614 236.088 32.2543 234.475 33.2438 233.676C35.0161 232.25 34.6387 234.24 34.253 235.409C33.8756 236.555 31.371 241.044 29.5848 240.041C29.2578 239.856 29.1767 238.855 28.9083 238.531C28.4415 237.972 27.7902 237.788 27.1194 237.581C25.3192 237.022 23.4435 236.79 21.7468 235.912C19.7677 234.883 17.9815 233.483 16.542 231.781Z" fill="#889ED8"/>
<path d="M229.322 235.356C229.549 233.047 229.543 230.906 230.301 228.653C230.555 227.892 230.918 227.082 231.64 226.735C231.777 226.668 231.939 226.623 232.076 226.685C232.196 226.738 232.271 226.858 232.333 226.978C236.257 234.498 225.725 238.727 220.92 233.072C220.623 232.723 220.344 232.323 220.302 231.864C220.226 231.026 221.026 230.302 221.862 230.204C222.697 230.106 223.516 230.486 224.207 230.964C226.035 232.231 227.251 234.182 228.414 236.074C226.793 233.637 225.957 230.688 226.055 227.764C226.069 227.325 226.217 226.763 226.656 226.727C226.865 226.71 227.058 226.83 227.226 226.959C228.422 227.878 229.096 229.351 229.347 230.841C229.599 232.328 229.468 233.852 229.322 235.356Z" fill="#ED7061"/>
<path d="M66.2086 222.372C66.3148 222.374 66.421 222.402 66.53 222.461C66.871 222.646 66.9968 223.065 67.0779 223.445C67.8186 226.92 67.7991 226.067 67.4301 230.626C68.2072 227.78 67.8997 228.278 69.3533 225.709C69.6356 225.209 69.9487 224.697 70.4378 224.398C73.6105 222.455 70.5385 231.062 70.0018 232.049C68.0115 235.711 64.14 236.616 60.3832 235.269C57.0875 234.087 53.94 231.521 52.7604 228.163C52.6542 227.862 52.5759 227.481 52.8023 227.252C52.9589 227.096 53.202 227.073 53.4229 227.07C55.4131 227.068 57.2776 228.08 58.801 229.36C60.3217 230.643 61.5823 232.203 63.0135 233.584C64.0282 234.562 66.2673 234.506 67.6649 234.674C70.0437 234.962 70.9829 234.039 73.0486 232.823C73.4987 232.558 73.9907 232.317 74.5134 232.323C75.0361 232.328 75.5896 232.655 75.6874 233.17C75.7461 233.474 75.6399 233.788 75.5057 234.07C73.8145 237.642 69.2051 237.161 67.1729 234.31C65.2358 231.59 63.9863 227.062 64.9143 223.8C65.1016 223.14 65.6215 222.36 66.2086 222.372Z" fill="#D85B7A"/>
<path d="M337.375 227.962C337.447 227.965 337.523 227.982 337.598 228.024C337.836 228.152 337.922 228.446 337.978 228.711C338.495 231.138 338.481 230.542 338.224 233.723C338.767 231.736 338.551 232.085 339.566 230.291C339.762 229.941 339.983 229.583 340.324 229.374C342.537 228.018 340.393 234.022 340.019 234.713C338.63 237.268 335.927 237.902 333.307 236.96C331.007 236.136 328.81 234.344 327.988 232.001C327.912 231.789 327.859 231.526 328.019 231.364C328.128 231.255 328.298 231.238 328.452 231.238C329.841 231.235 331.144 231.943 332.203 232.837C333.263 233.732 334.143 234.822 335.144 235.786C335.851 236.468 337.414 236.429 338.389 236.547C340.05 236.748 340.704 236.102 342.146 235.255C342.459 235.071 342.803 234.9 343.169 234.906C343.533 234.908 343.918 235.138 343.988 235.496C344.03 235.708 343.955 235.926 343.862 236.122C342.683 238.615 339.465 238.28 338.048 236.289C336.695 234.391 335.826 231.23 336.472 228.955C336.603 228.499 336.966 227.954 337.375 227.962Z" fill="#889ED8"/>
<g clip-path="url(#clip0_2956_31096)">
<path fill-rule="evenodd" clip-rule="evenodd" d="M162.515 43.6644C160.655 39.9437 159.812 35.7386 161.15 31.59C165.006 19.6367 181.278 26.4914 183.057 33.4435C184.835 40.3957 180.601 55.872 176.073 55.9188C174.267 55.9374 170.915 53.973 167.782 50.8461L166.059 67.7609L152.417 64.3943L162.515 43.6644Z" fill="white"/>
<path fill-rule="evenodd" clip-rule="evenodd" d="M172.232 35.7498C170.959 43.1526 171.442 47.1304 173.683 47.6833C177.044 48.5127 180.422 47.0829 181.896 47.4468C182.971 47.7121 182.399 48.9981 181.44 49.8196C180.65 50.4974 177.591 50.584 177.276 51.8598C176.961 53.1355 179.467 52.7067 179.28 53.4634C178.971 54.7149 178.788 57.1661 176.616 56.63C174.417 56.0875 168.312 53.7309 168.037 50.2017C167.86 47.9241 168.486 43.4496 169.916 36.7783C169.786 36.7295 169.652 36.6879 169.515 36.6539C167.631 36.1891 165.728 37.3391 165.263 39.2226C165.027 40.1788 165.207 41.1402 165.688 41.9159C164.624 42.835 163.453 43.7803 162.143 44.7308C158.899 41.5071 157.724 34.1235 163.032 28.6188C164.837 25.726 167.581 24.62 170.524 24.5184C172.982 24.1363 175.321 24.602 177.136 25.6426C180.882 26.9155 184.012 28.9261 184.81 29.8582C183.916 33.4819 182.948 34.3838 176.974 32.809C175.309 33.2235 173.845 34.2841 172.232 35.7498Z" fill="#ED7061"/>
</g>
<path fill-rule="evenodd" clip-rule="evenodd" d="M137.786 109.262L156.85 174.956L165.817 224.281H174.817L165.833 109.262H137.786Z" fill="#CECECE"/>
<path fill-rule="evenodd" clip-rule="evenodd" d="M129.218 109.262C130.549 143.39 130.024 162.004 129.726 165.105C129.428 168.206 127.738 188.972 116.221 225.322H125.582C140.835 190.45 146.159 169.684 147.909 165.105C149.658 160.526 154.825 141.912 162.368 109.262H129.218Z" fill="white"/>
<path fill-rule="evenodd" clip-rule="evenodd" d="M137.377 109.262C142.336 131.868 150.913 167.952 163.107 217.515H176.271C177.243 166.643 173.107 133.161 165.945 109.262H137.377Z" fill="#3A5292"/>
<path fill-rule="evenodd" clip-rule="evenodd" d="M129.152 109.262C130.455 143.39 127.079 177.012 116.62 218.046H130.665C145.946 183.695 156.899 150.239 164.384 109.262H129.152Z" fill="#4B6DC6"/>
<path fill-rule="evenodd" clip-rule="evenodd" d="M114.887 232.087L115.403 223.76C118.427 224.645 122.215 224.298 126.766 222.719C131.66 226.186 137.821 228.553 145.248 229.82C145.815 229.917 146.196 230.455 146.099 231.022C146.093 231.058 146.085 231.095 146.074 231.13L145.36 233.649H126.766H115.92L114.887 232.087Z" fill="#ED7061"/>
<path fill-rule="evenodd" clip-rule="evenodd" d="M163.809 232.087L164.325 223.76C167.349 224.645 171.137 224.298 175.688 222.719C180.582 226.186 186.743 228.553 194.17 229.82C194.737 229.917 195.118 230.455 195.021 231.022C195.015 231.058 195.006 231.095 194.996 231.13L194.282 233.649H175.688H164.842L163.809 232.087Z" fill="#ED7061"/>
<path d="M210.01 95.974L222.695 74.6403C222.695 74.6403 227.642 71.8199 226.583 75.6159C225.524 79.4119 214.328 97.8105 214.328 97.8105L210.01 95.974Z" fill="#AFD1E8"/>
<path fill-rule="evenodd" clip-rule="evenodd" d="M175.025 80.0046L194.533 73.3979C198.111 70.4065 201.507 68.192 204.721 66.7546C205.663 66.543 207.236 66.5918 205.352 68.8856C203.468 71.1793 201.59 73.6767 202.182 74.5902C202.775 75.5037 204.791 74.729 205.433 76.1864C205.862 77.158 202.505 77.9818 195.365 78.6578L180.351 88.2142L175.025 80.0046Z" fill="#CECECE"/>
<path d="M168.417 100.871C168.417 100.871 170.253 96.8092 173.885 103.526C176.37 108.122 179.706 104.734 181.554 105.902C186.105 108.779 191.012 108.372 197.068 105.902C201.218 104.21 205.957 107.2 209.088 104.365C211.454 102.223 213.05 98.7866 213.378 98.4786C214.141 97.763 220.721 96.9803 221.297 94.1403C221.873 91.3003 224.375 82.1122 221.965 83.9151C219.556 85.7181 217.479 91.6665 215.472 91.7699C213.465 91.8733 216.307 85.6259 214.482 86.6322C212.657 87.6385 212.528 89.2933 211.871 90.6993C211.214 92.1053 211.819 92.485 207.83 95.9791C207.289 96.4534 206.842 98.2366 206.013 98.8796C200.733 102.974 191.228 97.7715 187.984 97.1844C186.422 96.9006 182.449 105.169 179.095 100.871C174.389 94.8386 171.26 93.529 170.932 92.6248C170.368 91.079 168.417 100.871 168.417 100.871Z" fill="white"/>
<path fill-rule="evenodd" clip-rule="evenodd" d="M166.743 76.3065C172.986 77.3394 181.528 77.4885 191.386 73.4239L193.499 81.8028C186.313 86.7937 176.835 90.2641 169.353 88.7272C163.457 87.516 161.692 79.8147 166.743 76.3065Z" fill="#AE445E"/>
<path fill-rule="evenodd" clip-rule="evenodd" d="M172.938 90.2385C179.262 93.0547 190.699 93.0652 207.247 90.27C209.701 98.9415 210.482 104.953 209.59 108.304C195.002 112.927 183.004 114.019 173.536 112.561C172.849 118.211 171.228 123.416 168.082 127.879C161.613 137.053 135.698 122.931 126.114 123.121C123.635 103.26 136.2 97.5819 138.335 85.5297C140.672 72.3313 154.854 53.8821 156.413 54.1571L170.635 56.6647C169.642 66.8842 171.632 78.6908 172.938 90.2385Z" fill="#D85B7A"/>
<path d="M221.065 18.2788C221.759 19.3941 223.03 20.1265 224.109 19.6093C222.888 21.1607 223.234 25.5298 222.91 27.6235C229.216 22.9274 235.528 18.1306 242.958 18.4297C244.16 18.4773 245.488 18.5499 246.427 17.6554C246.869 17.2333 247.173 16.6379 247.425 16.0314C249.071 12.0565 248.809 7.38273 248.51 2.96337C248.456 2.19746 248.35 1.31694 247.802 0.911621C247.489 0.679612 247.103 0.66284 246.734 0.660045C240.395 0.620911 234.167 2.89908 227.816 2.38195C225.798 2.21702 222.072 0.0171269 220.263 1.3393C218.661 2.51332 218.849 5.72512 218.966 7.61753C219.162 10.793 219.438 15.654 221.065 18.2788Z" fill="#E8EDFB"/>
<path fill-rule="evenodd" clip-rule="evenodd" d="M247.022 30.1084L246.804 31.2769L248.121 30.4578C254.164 26.6814 260.445 22.7876 267.64 23.0224C268.89 23.0671 270.313 23.1146 271.383 22.2564C271.94 21.8148 272.283 21.2026 272.524 20.719C274.282 17.1634 273.938 12.909 273.659 9.49313C273.614 8.92848 273.527 7.88025 272.705 7.37151C272.283 7.10875 271.814 7.08639 271.367 7.08359C268.554 7.05169 265.82 7.42167 263.136 7.78494C262.998 7.8037 262.859 7.82244 262.721 7.84111L262.695 7.84456C259.349 8.29353 255.891 8.75738 252.481 8.52596C251.853 8.48403 250.997 8.24923 250.094 8.00045C248.18 7.47214 246.008 6.87394 244.618 7.7293C242.737 8.88655 242.955 11.8719 243.073 13.4764L243.081 13.5882C243.277 16.2969 243.576 20.392 245.272 22.6841C245.834 23.4417 246.765 24.0566 247.752 24.1433C247.331 25.2471 247.257 26.7374 247.191 28.0957L247.19 28.107C247.188 28.1419 247.186 28.1768 247.185 28.2116C247.148 28.9385 247.113 29.6202 247.022 30.1084ZM249.116 23.847L250.74 22.1167L248.54 23.0001C247.671 23.3495 246.642 22.7764 246.111 22.0608C244.593 20.0119 244.308 16.0985 244.121 13.51L244.112 13.3982C244.009 12.0145 243.822 9.44287 245.161 8.62106C246.158 8.00556 248.087 8.53608 249.791 9.00444L249.809 9.0096L249.835 9.01653C250.784 9.27672 251.677 9.52158 252.403 9.57146C255.928 9.80906 259.45 9.33665 262.855 8.87822L262.941 8.86663C265.698 8.49569 268.525 8.11525 271.355 8.12909C271.666 8.13188 271.959 8.14306 272.149 8.26046C272.476 8.46452 272.566 9.0124 272.611 9.57705L272.611 9.58918C272.877 12.8772 273.207 16.9635 271.579 20.2551C271.386 20.6408 271.118 21.1244 270.724 21.4375C269.954 22.0512 268.8 22.0135 267.606 21.9744L267.599 21.9742C260.362 21.7338 254.164 25.4515 248.177 29.186C248.199 28.859 248.216 28.5152 248.233 28.1602C248.311 26.5752 248.409 24.6018 249.116 23.847Z" fill="#E8EDFB"/>
<path d="M229.901 31.0896C230.594 32.0233 231.866 32.6382 232.945 32.2049C231.723 33.5048 232.07 37.1666 231.746 38.9192C238.052 34.9835 244.364 30.9638 251.794 31.2126C252.995 31.2518 254.323 31.3132 255.262 30.5641C255.704 30.2119 256.009 29.7115 256.26 29.2028C257.907 25.8708 257.644 21.9546 257.345 18.2508C257.292 17.6079 257.186 16.8728 256.638 16.5317C256.325 16.3389 255.939 16.3249 255.57 16.3221C249.23 16.2913 243.002 18.2005 236.651 17.7645C234.633 17.6275 230.907 15.7826 229.099 16.8895C227.497 17.8735 227.684 20.5653 227.801 22.1531C227.997 24.817 228.274 28.8897 229.901 31.0896Z" fill="#889ED8"/>
<path d="M215.131 38.6788C215.066 36.9234 214.977 35.0701 214.026 33.5942C213.663 33.0267 213.157 32.5208 212.517 32.3112C211.955 32.1267 211.349 32.1826 210.762 32.2413C208.045 32.5124 205.33 32.7836 202.613 33.0547C201.193 33.1973 199.74 33.3482 198.454 33.9632C197.168 34.5809 196.058 35.7689 195.944 37.1917C195.863 38.1952 196.279 39.1764 196.799 40.0373C197.168 40.6495 197.599 41.2309 198.144 41.6922C199.46 42.8047 201.288 43.0954 203.01 43.0535C204.732 43.0115 206.446 42.6845 208.168 42.7488C210.077 42.8187 212.657 44.5294 214.247 44.63C217.484 44.8397 215.195 40.4287 215.131 38.6788Z" fill="#E8EDFB"/>
<path d="M247.095 37.1554C247.942 36.7081 248.951 36.7333 249.91 36.7696C256.319 37.0044 262.729 37.2392 269.139 37.4768C269.535 37.4908 269.946 37.5104 270.296 37.7005C270.925 38.0415 271.151 38.8186 271.305 39.5174C271.794 41.7201 272.146 43.9535 272.359 46.1981C272.42 46.8606 272.465 47.565 272.169 48.1632C271.61 49.2842 270.153 49.5385 268.907 49.6587C263.99 50.1283 259.053 50.5979 254.119 50.3548C251.978 50.2485 249.823 50.0109 247.693 50.2681C245.524 50.5309 240.414 53.0941 238.41 52.0739C236.959 51.3359 238.485 50.5253 239.494 49.6112C241.37 47.9173 243.159 46.3687 244.137 43.9619C244.993 41.8487 244.797 38.3657 247.095 37.1554Z" fill="#E8EDFB"/>
<path d="M231.335 59.8503C232.9 60.3004 234.301 61.1977 235.846 61.7092C237.859 62.3717 240.025 62.3493 242.144 62.3214C245.96 62.2711 249.773 62.218 253.588 62.1676C254.656 62.1537 255.864 62.1984 256.574 62.9923C257.038 63.5122 257.175 64.239 257.292 64.9266C257.661 67.0678 258.03 69.2062 258.396 71.3474C258.592 72.4823 258.76 73.7541 258.091 74.6934C257.342 75.7472 255.878 75.9289 254.589 76.0183C249.102 76.3957 243.617 76.7759 238.13 77.1532C237.613 77.1896 237.06 77.2175 236.61 76.9603C236.196 76.7227 235.942 76.2839 235.723 75.859C234.804 74.0672 234.139 72.1468 233.753 70.1706C233.476 68.7506 233.331 67.2635 232.637 65.9944C231.556 64.0181 232.196 63.9287 231.17 62.1816C229.68 59.6407 229.803 59.4087 231.335 59.8503Z" fill="#E8EDFB"/>
<path d="M279.126 26.824C280.009 27.0783 280.803 27.5871 281.678 27.875C282.816 28.2496 284.04 28.2384 285.239 28.2216C287.397 28.1937 289.555 28.1629 291.71 28.135C292.314 28.1266 292.996 28.1517 293.399 28.6018C293.662 28.8953 293.74 29.3062 293.807 29.6947C294.017 30.9051 294.223 32.1155 294.433 33.3258C294.545 33.9687 294.637 34.6871 294.26 35.2182C293.838 35.8136 293.007 35.9171 292.278 35.9674C289.175 36.1826 286.072 36.3951 282.97 36.6103C282.676 36.6299 282.363 36.6466 282.109 36.5013C281.874 36.3671 281.731 36.1183 281.608 35.8779C281.088 34.866 280.711 33.7787 280.493 32.6605C280.336 31.8555 280.255 31.0169 279.861 30.2985C279.249 29.1804 279.61 29.1301 279.031 28.1433C278.19 26.7038 278.259 26.5752 279.126 26.824Z" fill="#889ED8"/>
<path d="M252.182 45.6559C253.027 45.6559 253.711 44.9713 253.711 44.1269C253.711 43.2824 253.027 42.5978 252.182 42.5978C251.338 42.5978 250.653 43.2824 250.653 44.1269C250.653 44.9713 251.338 45.6559 252.182 45.6559Z" fill="#181B5E"/>
<path d="M258.572 45.6559C259.417 45.6559 260.102 44.9713 260.102 44.1269C260.102 43.2824 259.417 42.5978 258.572 42.5978C257.728 42.5978 257.043 43.2824 257.043 44.1269C257.043 44.9713 257.728 45.6559 258.572 45.6559Z" fill="#181B5E"/>
<path d="M265.256 45.6559C266.101 45.6559 266.785 44.9713 266.785 44.1269C266.785 43.2824 266.101 42.5978 265.256 42.5978C264.412 42.5978 263.727 43.2824 263.727 44.1269C263.727 44.9713 264.412 45.6559 265.256 45.6559Z" fill="#181B5E"/>
<path d="M283.668 33.6865C284.224 33.6865 284.675 33.236 284.675 32.6802C284.675 32.1244 284.224 31.6739 283.668 31.6739C283.113 31.6739 282.662 32.1244 282.662 32.6802C282.662 33.236 283.113 33.6865 283.668 33.6865Z" fill="white"/>
<path d="M287.878 33.6865C288.434 33.6865 288.885 33.236 288.885 32.6802C288.885 32.1244 288.434 31.6739 287.878 31.6739C287.323 31.6739 286.872 32.1244 286.872 32.6802C286.872 33.236 287.323 33.6865 287.878 33.6865Z" fill="white"/>
<path d="M292.278 33.6865C292.834 33.6865 293.284 33.236 293.284 32.6802C293.284 32.1244 292.834 31.6739 292.278 31.6739C291.722 31.6739 291.271 32.1244 291.271 32.6802C291.271 33.236 291.722 33.6865 292.278 33.6865Z" fill="white"/>
<path d="M243.506 9.03474H224.118C223.805 9.03474 223.547 8.77757 223.547 8.4645V6.35405C223.547 6.04098 223.805 5.78381 224.118 5.78381H243.506C243.819 5.78381 244.076 6.04098 244.076 6.35405V8.4645C244.076 8.77757 243.819 9.03474 243.506 9.03474Z" fill="#181B5E"/>
<path d="M243.506 14.3765H232.409C232.096 14.3765 231.838 14.1194 231.838 13.8063V11.6959C231.838 11.3828 232.096 11.1256 232.409 11.1256H243.506C243.819 11.1256 244.076 11.3828 244.076 11.6959V13.8063C244.076 14.1194 243.819 14.3765 243.506 14.3765Z" fill="#181B5E"/>
<path d="M246.963 21.144H231.995C231.681 21.144 231.424 20.8868 231.424 20.5737V20.283C231.424 19.9699 231.681 19.7128 231.995 19.7128H246.963C247.276 19.7128 247.534 19.9699 247.534 20.283V20.5737C247.534 20.8868 247.276 21.144 246.963 21.144Z" fill="white"/>
<path d="M253.3 24.7778H231.995C231.681 24.7778 231.424 24.5206 231.424 24.2075V23.9336C231.424 23.6205 231.681 23.3633 231.995 23.3633H253.3C253.613 23.3633 253.871 23.6205 253.871 23.9336V24.2075C253.873 24.5206 253.616 24.7778 253.3 24.7778Z" fill="white"/>
<path d="M253.3 28.2356H231.995C231.681 28.2356 231.424 27.9784 231.424 27.6653V27.3914C231.424 27.0783 231.681 26.8212 231.995 26.8212H253.3C253.613 26.8212 253.871 27.0783 253.871 27.3914V27.6653C253.873 27.9784 253.616 28.2356 253.3 28.2356Z" fill="white"/>
<path d="M248.73 73.7682H244.132C242.955 73.7682 241.991 72.8038 241.991 71.627V67.0287C241.991 65.8519 242.955 64.8875 244.132 64.8875H248.73C249.907 64.8875 250.871 65.8519 250.871 67.0287V71.627C250.871 72.8038 249.907 73.7682 248.73 73.7682Z" fill="white"/>
<path d="M246.779 69.8771H246.08C245.283 69.8771 244.629 69.2258 244.629 68.4264V67.7276C244.629 66.9309 245.281 66.2768 246.08 66.2768H246.779C247.576 66.2768 248.23 66.9281 248.23 67.7276V68.4264C248.23 69.2258 247.576 69.8771 246.779 69.8771Z" fill="#181B5E"/>
<path d="M246.43 69.9023C245.133 69.9023 244.07 70.9645 244.07 72.2615H248.786C248.789 70.9645 247.727 69.9023 246.43 69.9023Z" fill="#181B5E"/>
<path d="M210.202 39.4308H203.656C202.479 39.4308 201.515 38.4664 201.515 37.2896V30.743C201.515 29.5662 202.479 28.6018 203.656 28.6018H210.202C211.379 28.6018 212.344 29.5662 212.344 30.743V37.2896C212.344 38.4692 211.382 39.4308 210.202 39.4308Z" fill="#889ED8"/>
<defs>
<clipPath id="clip0_2956_31096">
<rect width="26.3452" height="43.9087" fill="white" transform="translate(162.37 21.6243) rotate(13.8628)"/>
</clipPath>
</defs>
</svg>
