<svg width="675" height="663" viewBox="0 0 675 663" fill="none" xmlns="http://www.w3.org/2000/svg">
    <circle cx="307.5" cy="64.5" r="44.5" stroke="#181B5E" stroke-width="2"/>
    <circle opacity="0.3" cx="524" cy="17" r="16" stroke="#181B5E" stroke-width="2"/>
    <circle opacity="0.3" cx="611" cy="405" r="16" stroke="#181B5E" stroke-width="2"/>
    <circle opacity="0.3" cx="515.5" cy="546.5" r="26.5" stroke="#181B5E" stroke-width="2"/>
    <g filter="url(#filter0_d)">
        <path fill-rule="evenodd" clip-rule="evenodd" d="M345 65C304.683 65 272 97.6832 272 138V290H124C87.5492 290 58 319.549 58 356V557C58 593.451 87.5492 623 124 623H392C428.451 623 458 593.451 458 557V410H572C612.317 410 645 377.317 645 337V138C645 97.6832 612.317 65 572 65H345Z" fill="white"/>
    </g>
    <path fill-rule="evenodd" clip-rule="evenodd" d="M405.748 296.358C405.985 295.096 405.996 293.092 405.78 290.345L405.543 290.468C404.737 293.425 404.609 295.596 405.16 296.984C405.365 296.783 405.561 296.573 405.748 296.358V296.358Z" fill="#B57991" stroke="#B57991" stroke-width="0.57" stroke-miterlimit="22.93"/>
    <path fill-rule="evenodd" clip-rule="evenodd" d="M405.78 290.345C405.999 293.083 405.989 295.087 405.748 296.359C405.561 296.573 405.365 296.783 405.16 296.984C405.283 297.32 405.469 297.629 405.707 297.896C406.012 298.208 406.378 298.452 406.783 298.614C407.188 298.775 407.622 298.849 408.057 298.832C408.841 298.837 409.623 298.734 410.379 298.526C421.05 293.051 428.185 288.389 431.783 284.541C430.736 281.426 430.259 278.148 430.374 274.864C430.428 272.405 430.67 269.953 431.099 267.531C423.078 275.343 412.989 279.075 404.074 277.569C404.956 282.862 405.525 287.121 405.78 290.345V290.345Z" fill="#5E509B" stroke="#7C458E" stroke-width="0.57" stroke-miterlimit="22.93"/>
    <path fill-rule="evenodd" clip-rule="evenodd" d="M447.329 226.964C449.808 217.09 446.158 208.582 436.378 201.44C419.785 194.529 407.313 196.514 398.963 207.394C387.557 243.367 382.921 257.466 389.24 267.919C402.016 286.148 429.105 278.053 440.53 254.309C450.468 258.093 457.759 255.541 462.404 246.652C467.752 234.374 460.821 226.923 447.347 226.964H447.329Z" fill="#6C79D3" stroke="#8F62A9" stroke-width="0.57" stroke-miterlimit="22.93"/>
    <path fill-rule="evenodd" clip-rule="evenodd" d="M394.757 250.964C401.236 233.747 402.37 223.215 398.16 219.367C392.813 229.581 387.626 237.44 382.601 242.942C384.509 247.779 388.56 250.453 394.757 250.964Z" fill="#E17C64" stroke="#E17C64" stroke-width="0.57" stroke-miterlimit="22.93"/>
    <path fill-rule="evenodd" clip-rule="evenodd" d="M458.54 229.391C456.797 231.186 454.999 232.321 453.146 232.795C449.469 234.251 447.562 240.246 441.844 253.455C441.461 253.195 440.571 253.035 439.166 252.972C444.363 239.324 439.864 231.668 431.268 227.329C424.141 219.949 414.418 215.539 402.098 214.097C391.941 211.603 387.972 202.933 390.189 188.089C392.446 193.634 394.716 195.943 396.997 195.015C395.989 193.304 394.898 188.929 394.442 186.269C397.307 190.886 402.463 194.29 406.232 193.925C412.551 193.313 418.205 188.532 426.409 189.791C440.8 190.247 446.941 199.738 449.254 206.806C460.223 212.737 463.318 220.272 458.54 229.409V229.391Z" fill="#2B281F" stroke="#2B281F" stroke-width="0.57" stroke-miterlimit="22.93"/>
    <path fill-rule="evenodd" clip-rule="evenodd" d="M314.411 266.372C314.737 264.663 314.752 261.948 314.457 258.228L314.133 258.392C313.038 262.398 312.864 265.339 313.613 267.216C313.893 266.948 314.159 266.667 314.411 266.372V266.372Z" fill="#1E1A08"/>
    <path fill-rule="evenodd" clip-rule="evenodd" d="M314.457 258.228C314.761 261.948 314.746 264.663 314.411 266.372C314.159 266.667 313.893 266.948 313.613 267.216C313.787 267.662 314.039 268.073 314.356 268.43C315.082 269.238 316.145 269.662 317.55 269.698C318.612 269.707 319.67 269.569 320.694 269.288C335.14 261.866 344.799 255.555 349.672 250.357C348.316 246.57 347.678 242.202 347.76 237.253C347.835 233.924 348.164 230.607 348.746 227.329C337.887 237.901 324.226 242.952 312.157 240.917C313.353 248.08 314.124 253.85 314.471 258.228H314.457Z" fill="#8C2649"/>
    <path fill-rule="evenodd" clip-rule="evenodd" d="M344.899 161.57C341.106 148.323 331.068 140.827 314.785 139.081C290.651 142.235 277.377 153.02 274.961 171.435C285.994 221.311 290.11 240.985 304.619 248.947C331.905 261.659 358.173 233.804 355.476 198.228C369.684 195.928 376.498 187.995 375.917 174.428C373.864 156.419 360.687 152.386 344.913 161.57H344.899Z" fill="#D85B79"/>
    <path fill-rule="evenodd" clip-rule="evenodd" d="M339.392 225.34C335.319 200.768 329.508 187.659 321.958 186.013C322.621 201.609 321.873 214.334 319.713 224.19C325.225 228.561 331.784 228.947 339.392 225.349V225.34Z" fill="#181B5E"/>
    <path fill-rule="evenodd" clip-rule="evenodd" d="M331.59 189.846C335.865 189.681 336.527 189.846 340.473 188.691C340.638 184.252 336.367 179.15 335.541 173.867C338.495 179.154 342.031 182.536 346.15 184.014L350.521 180.725C348.896 178.857 347.059 174.915 345.009 168.898C347.643 173.661 351.774 176.531 357.401 177.508L361.768 174.848C359.14 174.296 357.588 170.741 353.003 159.713C359.331 162.647 362.703 165.188 367.23 171.823L372.358 168.857C370.834 165.207 371.491 165.964 365.058 157.623C368.398 159.302 369.333 159.353 374.065 166.749L378.746 166.106C378.947 163.243 377.636 158.89 374.813 153.047C359.677 127.356 338.174 119.314 310.304 128.924C299.135 124.005 288.984 126.375 279.853 136.032C268.975 138.408 262.131 142.571 259.32 148.521L260.388 150.346C263.795 146.54 267.506 144.807 271.521 145.144C261.942 151.836 256.806 162.62 256.113 177.494L259.827 178.224C260.435 174.833 260.922 172.358 261.287 170.801C264.155 177.776 265.348 183.391 264.864 187.646C266.559 188.111 268.304 188.369 270.061 188.413C271.5 185.015 271.261 179.167 269.345 170.869C276.189 178.941 277.402 184.881 276.727 188.874C279.789 188.55 281.956 188.641 282.202 188.29C283.147 182.76 283.84 177.166 281.623 172.197C288.467 178.658 291.625 185.552 291.415 187.979C292.378 187.935 293.321 187.684 294.18 187.244C295.038 186.803 295.791 186.182 296.388 185.424C297.562 182.109 296.811 177.85 294.134 172.649C300.458 178.163 303.765 183.22 304.054 187.82L310.076 188.705C310.396 183.23 311.728 180.948 307.886 175.076C317.509 181.135 319.088 183.184 318.809 188.025L325.038 188.605C325.768 182.995 325.159 179.193 323.213 177.198C328.975 182.979 331.384 186.405 331.59 189.846V189.846Z" fill="#E5E5E5"/>
    <path fill-rule="evenodd" clip-rule="evenodd" d="M314.808 281.324C333.902 280.549 348.772 273.654 359.418 260.641C356.258 258.47 353.005 255.041 349.659 250.357C344.792 255.555 335.132 261.866 320.68 269.288C319.252 269.648 315.775 269.991 314.356 268.416C314.041 268.058 313.791 267.647 313.617 267.203C312.969 265.578 313.012 263.159 313.745 259.943C311.322 265.683 309.269 269.169 307.357 271.414C307.795 275.886 310.28 279.184 314.813 281.311L314.808 281.324Z" fill="#272416"/>
    <path fill-rule="evenodd" clip-rule="evenodd" d="M314.356 268.416C314.041 268.058 313.791 267.647 313.617 267.203C312.969 265.578 313.012 263.159 313.745 259.943C309.433 270.168 306.285 273.23 303.027 274.895C291.818 280.243 285.961 287.318 285.456 296.121C284.942 299.571 284.545 302.363 284.265 304.499L422.663 304.02C417.729 288.506 407.253 278.964 391.234 275.393C374.261 270.182 381.726 272.103 363.027 262.571C358.747 260.908 354.293 256.832 349.663 250.343C344.796 255.542 335.137 261.852 320.685 269.274C319.257 269.635 315.78 269.977 314.361 268.403L314.356 268.416Z" fill="#F9F9F9"/>
    <path fill-rule="evenodd" clip-rule="evenodd" d="M284.26 304.512C284.26 304.512 280.428 319.063 286.647 321.969C292.866 324.876 323.573 329.434 335.185 328.193C346.798 326.952 414.842 320.473 416.083 318.333C417.324 316.193 425.076 317.229 422.658 304.051C420.24 290.874 284.26 304.512 284.26 304.512Z" fill="#F9F9F9"/>
    <path fill-rule="evenodd" clip-rule="evenodd" d="M196.632 307.223C201.219 282.913 210.108 270.862 223.297 271.072C259.694 275.087 260.1 329.685 243.022 349.178C229.639 357.012 213.738 357.286 200.99 341.763C195.63 335.625 194.177 324.111 196.632 307.223V307.223ZM194.164 416.141C203.673 424.235 215.732 428.427 230.342 428.716C258.461 429.37 281.693 412.976 300.038 379.534C289.057 372.644 284.722 346.508 287.034 301.127C291.491 276.333 281.337 257.615 256.573 244.973C228.454 237.934 209.933 246.131 201.008 269.562C195.724 305.831 183.784 356.483 172.751 368.61C172.322 390.712 177.35 399.897 194.146 416.141H194.164Z" fill="#D6D6D6"/>
    <path fill-rule="evenodd" clip-rule="evenodd" d="M223.297 271.072C210.105 270.862 201.217 282.912 196.633 307.222C194.178 324.108 195.63 335.621 200.99 341.762C213.738 357.276 229.64 357.011 243.022 349.177C260.101 329.685 259.694 275.087 223.297 271.072Z" fill="#231F20" stroke="#231F20" stroke-width="0.57" stroke-miterlimit="22.93"/>
    <path fill-rule="evenodd" clip-rule="evenodd" d="M218.953 271.793C205.873 273.618 198.93 286.885 198.124 311.594C198.276 328.659 201.47 339.815 207.706 345.062C222.677 358.458 238.35 355.757 250.377 345.974C264.28 324.096 255.551 270.2 218.953 271.793Z" fill="#8CC7F2" stroke="#8CC7F2" stroke-width="0.57" stroke-miterlimit="22.93"/>
    <path fill-rule="evenodd" clip-rule="evenodd" d="M221.577 330.848C223.895 315.942 226.049 303.308 222.17 299.27C216.467 313.939 211.096 320.295 208.026 325.478C210.879 329.822 215.393 331.612 221.568 330.848H221.577Z" fill="#E17C64" stroke="#E17C64" stroke-width="0.57" stroke-miterlimit="22.93"/>
    <path fill-rule="evenodd" clip-rule="evenodd" d="M226.806 283.15C238.885 288.017 248.598 297.107 255.944 310.421C253.033 290.153 242.607 269.037 220.5 270C208.941 271.6 199.5 283.15 198.5 303.5C204.5 290 212.274 279.518 226.82 283.15H226.806Z" fill="#181B5E"/>
    <path fill-rule="evenodd" clip-rule="evenodd" d="M339.626 438.476C340.829 408.191 327.633 388.674 300.038 379.923C281.69 413.365 258.458 429.759 230.342 429.105C215.741 428.801 203.682 424.609 194.164 416.53C177.368 400.287 172.34 391.102 172.769 369C137.398 376.684 122.137 399.856 126.986 438.518H127.028C127.391 441.76 130.2 464.207 138.79 467.275C148.053 470.583 188.397 477.856 221.139 478.518C224.27 478.581 227.449 478.651 230.654 478.72C260.964 479.381 293.556 480.092 309.109 476.205C326.12 471.953 339.527 449.166 339.626 438.476Z" fill="#F9F9F9"/>
    <path fill-rule="evenodd" clip-rule="evenodd" d="M415.732 432.078C440.605 460.091 467.107 458.617 495.238 427.657C491.697 427.353 488.073 427.099 484.365 426.895C476.976 419.75 474.078 404.162 475.668 380.131C466.05 392.506 452.414 398.522 434.759 398.182C427.887 397.433 421.943 395.161 416.927 391.365C421.761 407.718 422.435 421.195 418.949 431.796C417.863 431.873 416.795 431.964 415.732 432.06V432.078Z" fill="#4B6CC6" stroke="#61A6D9" stroke-width="0.22" stroke-miterlimit="22.93"/>
    <path fill-rule="evenodd" clip-rule="evenodd" d="M434.759 398.181C452.401 398.51 466.038 392.487 475.668 380.113C479.319 375.398 482.4 369.762 484.913 363.203C491.985 364.283 497.982 360.093 502.904 350.633C509.258 336.382 504.417 327.44 488.38 323.808C487.014 325.296 484.995 332.33 482.321 344.911H479.46C478.502 336.014 473.959 323.443 465.831 307.2H405.863C405.342 307.154 402.258 314.715 396.609 329.881C396.971 360.908 403.744 381.409 416.927 391.383C421.946 395.179 427.89 397.451 434.759 398.2V398.181Z" fill="#AFD1E8" stroke="#82BDEB" stroke-width="0.22" stroke-miterlimit="22.93"/>
    <path fill-rule="evenodd" clip-rule="evenodd" d="M465.84 307.2C473.968 323.444 478.511 336.014 479.469 344.911H482.321C484.995 332.33 487.013 325.296 488.376 323.809C487.609 323.635 486.82 323.471 485.999 323.32C486.172 307.74 477.807 295.725 460.903 287.274C420.295 276.023 391.791 287.548 396.295 325.533C396.295 326.825 396.573 328.645 396.587 329.904C402.235 314.738 405.321 307.177 405.844 307.223L465.84 307.2Z" fill="#F2A7D4"/>
    <path fill-rule="evenodd" clip-rule="evenodd" d="M495.238 427.657C467.104 458.62 440.602 460.093 415.732 432.078C412.328 432.382 409.037 432.758 405.858 433.205C422.482 451.511 437.022 460.789 449.478 461.038C472.077 463.096 496.155 450.621 506.681 428.889C502.967 428.405 499.153 427.99 495.238 427.643V427.657Z" fill="#F27385"/>
    <path fill-rule="evenodd" clip-rule="evenodd" d="M429.721 362.783C429.178 347.749 428.9 334.973 424.351 331.756C421.54 347.192 417.507 354.433 415.481 360.082C419.086 363.799 423.832 364.701 429.721 362.788V362.783Z" fill="#E17C64"/>
    <path fill-rule="evenodd" clip-rule="evenodd" d="M423.58 370.189C417.192 371.43 413.037 376.638 411.114 385.812C412.834 387.884 414.784 389.753 416.927 391.383C421.946 395.179 427.89 397.451 434.759 398.2C444.873 398.388 453.671 396.49 461.154 392.505C454.921 376.435 442.397 368.997 423.58 370.189V370.189ZM431.546 384.037C437.003 385.196 441.819 384.057 445.992 380.619C436.258 373.748 428.035 372.61 421.321 377.207C420.98 381.036 424.389 383.318 431.546 384.051V384.037Z" fill="#262424"/>
    <path fill-rule="evenodd" clip-rule="evenodd" d="M449.336 461.365C470.639 463.456 494.091 451.444 504 429.5L504.5 428.5C539.129 433.33 563.071 445.41 578.925 463.912C580.463 464.615 582.94 467.187 580.79 476.607C578.111 488.34 571.222 491.159 563.182 494.448C562.293 494.812 561.389 495.182 560.476 495.57C551.305 499.466 464.818 501.501 436.132 502.158C407.446 502.815 359.34 486.43 352.086 480.827C344.831 475.224 352.086 463.648 352.086 463.648H352.302C362.314 447.496 380.704 436.617 408 432.5C423.654 450.975 437.613 461.104 449.336 461.365Z" fill="#F9F9F9"/>
    <path fill-rule="evenodd" clip-rule="evenodd" d="M259.498 319.177C228.709 335.503 211.991 364.284 222.161 383.471C232.332 402.657 265.539 404.975 296.329 388.65C327.118 372.324 343.836 343.542 333.666 324.356C323.496 305.169 290.288 302.851 259.498 319.177V319.177Z" fill="#CE5190"/>
    <path fill-rule="evenodd" clip-rule="evenodd" d="M350.503 484.824C373.316 488.693 395.587 500.132 400.953 506.146C405.595 510.182 408.991 517.984 411.142 529.553C411.776 531.378 412.333 533.061 412.812 534.658H234.038C233.895 517.122 239.159 505.323 249.83 499.26C269.098 495.053 283.685 488.574 303.862 479.75C305.441 474.772 306.244 468.991 306.143 462.484C306.084 458.433 305.03 445.602 304.318 440.976C316.971 454.874 338.635 469.981 352.684 467.307C351.383 476.082 351.087 475.977 350.475 484.824H350.503Z" fill="#8DADD3"/>
    <path fill-rule="evenodd" clip-rule="evenodd" d="M295.343 405.103C292.058 392.023 296.893 380.739 309.848 371.252C331.864 362.085 358.87 365.964 369.953 380.377C385.07 428.09 380.776 445.543 372.395 459.404C355.476 483.605 319.521 472.869 304.373 441.372C291.196 446.391 281.524 443.006 275.358 431.216C267.5 410 277.466 405.053 295.348 405.103H295.343Z" fill="#889ED8"/>
    <path fill-rule="evenodd" clip-rule="evenodd" d="M356.781 441.194C357.415 423.673 357.744 408.799 363.055 405.03C366.34 423.021 371.062 431.457 373.421 438.041C369.205 442.373 363.659 443.424 356.781 441.194Z" fill="#181B5E"/>
    <path fill-rule="evenodd" clip-rule="evenodd" d="M267.953 387.454C269.291 383.475 270.986 379.625 273.018 375.952C275.595 370.572 278.994 365.626 283.092 361.291C295.454 348.394 313.663 342.896 337.718 344.797C360.121 348.392 374.798 361.472 381.748 384.037C383.649 398.702 382.372 407.645 377.915 410.866C377.611 411.083 377.291 411.277 376.957 411.445C377.222 403.841 374.242 397.397 368.019 392.113C368.019 393.692 369.201 395.794 371.564 398.419C365.532 398.19 357.445 389.704 347.304 372.958C347.146 391.38 341.054 402.962 329.03 407.704C330.855 404.413 331.854 401.416 332.028 398.715C322.829 407.248 319.1 414.134 320.84 419.375C315.742 419.375 313.629 414.286 314.502 404.108C308.008 417.724 306.082 432.588 308.726 448.7C307.084 446.229 305.616 443.646 304.332 440.971C301.9 432.716 300.044 424.302 298.779 415.789C298.21 408.452 292.832 405.474 282.645 406.855C275.23 409.912 271.603 416.113 273.346 424.728C265.179 413.753 263.381 401.327 267.953 387.45V387.454Z" fill="#ED7061"/>
    <path fill-rule="evenodd" clip-rule="evenodd" d="M289.64 492.557C331.882 512.707 366.746 520.919 411.365 523.406C411.849 525.231 412.232 527.773 412.629 529.858C413.286 531.683 413.939 533.052 414.454 534.658H234.038C233.81 506.775 239.793 494.124 282.5 489C285.977 490.789 286.14 490.892 289.64 492.557Z" fill="#F9F9F9"/>
    <path fill-rule="evenodd" clip-rule="evenodd" d="M234.038 534.658C234.038 534.658 231.661 557.016 243.884 560.57C259.717 565.178 379.458 562.126 389.145 561.528C404.754 560.57 414.436 559.457 416.311 549.209C417.11 544.833 414.436 534.649 414.436 534.649L234.038 534.658Z" fill="#F9F9F9"/>
    <g filter="url(#filter1_b)">
        <circle cx="427.5" cy="437.5" r="32.1153" transform="rotate(-21.0268 427.5 437.5)" fill="white" fill-opacity="0.2"/>
        <circle cx="427.5" cy="437.5" r="30.6153" transform="rotate(-21.0268 427.5 437.5)" stroke="#FF7E79" stroke-width="3"/>
    </g>
    <g filter="url(#filter2_b)">
        <circle cx="380.5" cy="177.5" r="38.5" fill="white" fill-opacity="0.2"/>
        <circle cx="380.5" cy="177.5" r="37.5" stroke="#181B5E" stroke-width="2"/>
    </g>
    <g filter="url(#filter3_b)">
        <circle cx="58" cy="519" r="58" fill="white" fill-opacity="0.2"/>
        <circle cx="58" cy="519" r="57" stroke="#181B5E" stroke-width="2"/>
    </g>
    <g filter="url(#filter4_b)">
        <circle cx="628.5" cy="109.5" r="37.5" fill="white" fill-opacity="0.2"/>
        <circle cx="628.5" cy="109.5" r="36.5" stroke="#181B5E" stroke-width="2"/>
    </g>
    <defs>
        <filter id="filter0_d" x="28" y="45" width="647" height="618" filterUnits="userSpaceOnUse" color-interpolation-filters="sRGB">
            <feFlood flood-opacity="0" result="BackgroundImageFix"/>
            <feColorMatrix in="SourceAlpha" type="matrix" values="0 0 0 0 0 0 0 0 0 0 0 0 0 0 0 0 0 0 127 0" result="hardAlpha"/>
            <feOffset dy="10"/>
            <feGaussianBlur stdDeviation="15"/>
            <feColorMatrix type="matrix" values="0 0 0 0 0 0 0 0 0 0 0 0 0 0 0 0 0 0 0.15 0"/>
            <feBlend mode="normal" in2="BackgroundImageFix" result="effect1_dropShadow"/>
            <feBlend mode="normal" in="SourceGraphic" in2="effect1_dropShadow" result="shape"/>
        </filter>
        <filter id="filter1_b" x="380" y="390" width="95" height="95" filterUnits="userSpaceOnUse" color-interpolation-filters="sRGB">
            <feFlood flood-opacity="0" result="BackgroundImageFix"/>
            <feGaussianBlur in="BackgroundImage" stdDeviation="3"/>
            <feComposite in2="SourceAlpha" operator="in" result="effect1_backgroundBlur"/>
            <feBlend mode="normal" in="SourceGraphic" in2="effect1_backgroundBlur" result="shape"/>
        </filter>
        <filter id="filter2_b" x="322" y="119" width="117" height="117" filterUnits="userSpaceOnUse" color-interpolation-filters="sRGB">
            <feFlood flood-opacity="0" result="BackgroundImageFix"/>
            <feGaussianBlur in="BackgroundImage" stdDeviation="10"/>
            <feComposite in2="SourceAlpha" operator="in" result="effect1_backgroundBlur"/>
            <feBlend mode="normal" in="SourceGraphic" in2="effect1_backgroundBlur" result="shape"/>
        </filter>
        <filter id="filter3_b" x="-15" y="446" width="146" height="146" filterUnits="userSpaceOnUse" color-interpolation-filters="sRGB">
            <feFlood flood-opacity="0" result="BackgroundImageFix"/>
            <feGaussianBlur in="BackgroundImage" stdDeviation="7.5"/>
            <feComposite in2="SourceAlpha" operator="in" result="effect1_backgroundBlur"/>
            <feBlend mode="normal" in="SourceGraphic" in2="effect1_backgroundBlur" result="shape"/>
        </filter>
        <filter id="filter4_b" x="576" y="57" width="105" height="105" filterUnits="userSpaceOnUse" color-interpolation-filters="sRGB">
            <feFlood flood-opacity="0" result="BackgroundImageFix"/>
            <feGaussianBlur in="BackgroundImage" stdDeviation="7.5"/>
            <feComposite in2="SourceAlpha" operator="in" result="effect1_backgroundBlur"/>
            <feBlend mode="normal" in="SourceGraphic" in2="effect1_backgroundBlur" result="shape"/>
        </filter>
    </defs>
</svg>
