<svg width="321" height="341" viewBox="0 0 321 341" fill="none" xmlns="http://www.w3.org/2000/svg">
    <circle cx="160.5" cy="181.5" r="157.5" fill="#F9F9F9" stroke="#181B5E" stroke-width="4"/>
    <path d="M117.701 53.9885C124.706 46.7646 132.313 40.3991 142.113 37.2849C144.012 36.6821 144.158 35.4584 144.067 33.8236C143.766 28.8646 145.218 25.1202 150.844 24.4261C152.917 24.1795 152.862 22.5539 153.136 21.0653C154.122 15.5857 155.136 10.0878 156.177 4.57168C156.652 2.0602 157.383 -0.122508 160.689 0.00534907C163.775 0.105808 164.342 2.29765 164.762 4.57168C165.83 10.0513 166.881 15.5309 167.748 21.0835C168.077 23.1201 168.661 24.4078 170.935 24.7366C175.146 25.2937 177.109 28.2162 176.744 32.0427C176.379 35.8693 178.105 37.1936 181.31 38.3443C190.068 41.4676 196.836 47.5317 203.229 54.0433C210.644 63.9797 215.384 74.8932 215.32 87.5328C215.32 88.5922 215.32 89.679 216.407 90.3548C221.53 93.6335 220.06 100.848 224.846 104.41C225.257 104.72 225.11 105.853 225.12 106.602C225.12 109.342 225.12 112.081 225.12 114.821C225.12 121.397 226.946 123.333 233.567 123.379C239.96 123.379 246.298 123.479 252.664 123.379C254.323 123.253 255.985 123.599 257.455 124.378C258.926 125.157 260.146 126.337 260.974 127.78C265.623 135.087 270.545 142.137 275.267 149.343C276.564 151.324 277.788 152.63 280.564 152.667C285.56 152.74 287.368 154.859 287.952 159.973C288.053 160.804 287.797 161.608 288.628 162.412C292.336 165.964 292.92 169.234 289.87 173.078C288.162 175.234 287.934 177.298 287.934 179.727C287.934 201.542 287.934 223.363 287.934 245.19C287.934 251.51 287.934 251.51 294.263 250.925C296.683 251.026 299.094 251.09 301.514 251.227C302.729 251.3 304.163 251.437 304.199 253.053C304.236 254.67 302.811 254.88 301.578 254.88C298.245 254.944 294.902 255.044 291.532 254.88C289.085 254.761 288.308 255.556 288.793 258.003C292.099 274.214 289.56 290.634 290.4 306.936C290.601 310.735 288.482 310.945 285.541 310.936C258.691 310.863 231.841 310.848 204.991 310.89C148.71 310.89 92.428 310.927 36.1464 311C31.4614 311 30.2193 309.657 30.3107 305.109C30.5755 292.378 30.3107 279.629 30.4203 266.889C30.5337 264.328 30.9914 261.794 31.781 259.355C32.8313 255.656 31.5527 254.524 27.8905 254.871C25.0132 255.04 22.1284 255.04 19.251 254.871C18.0181 254.871 16.6117 254.615 16.6391 253.044C16.6665 251.473 18.1094 251.3 19.3241 251.218C21.7351 251.081 24.1553 251.017 26.5754 250.916C32.9043 251.501 32.9043 251.501 32.9043 245.181C32.9043 223.354 32.9043 201.527 32.9043 179.7C32.9043 177.28 32.6578 175.216 30.9591 173.069C27.8996 169.225 28.4933 165.9 32.192 162.412C33.0413 161.608 32.7856 160.813 32.8861 159.982C33.4888 154.868 35.2788 152.758 40.2653 152.676C43.0051 152.63 44.2745 151.334 45.5622 149.352C50.2016 142.256 55.0419 135.297 59.5626 128.128C61.7544 124.648 64.5764 123.251 68.6131 123.36C75.1247 123.534 81.6454 123.488 88.157 123.36C93.5635 123.269 95.7097 120.986 95.7188 115.753C95.856 113.786 95.856 111.811 95.7188 109.844C94.7051 102.675 101.509 98.4646 102.349 92.0078C102.404 91.5786 103.189 91.1494 103.719 90.8936C104.333 90.6004 104.84 90.1218 105.167 89.5254C105.495 88.9291 105.627 88.2449 105.546 87.5693C105.555 74.8201 110.249 63.8883 117.701 53.9885ZM191.758 89.6059C196.909 89.6059 202.078 89.3867 207.21 89.679C210.745 89.8799 211.777 88.921 211.612 85.2314C210.48 59.87 188.141 38.6548 161.383 37.8237C134.35 36.9744 109.747 59.8517 109.281 86.1081C109.226 88.9301 109.911 89.7612 112.742 89.6699C120.962 89.4872 129.117 89.3228 137.282 89.6699C144.003 89.9804 150.159 89.1767 155.611 84.8843C156.944 83.713 158.658 83.0671 160.433 83.0671C162.208 83.0671 163.922 83.713 165.255 84.8843C170.735 89.1493 176.863 90.2726 183.575 89.6425C186.287 89.3685 189.027 89.6059 191.758 89.6059ZM241.759 149.808C240.691 148.895 240.408 148.594 240.07 148.384C214.352 133.029 188.647 117.668 162.953 102.3C160.634 100.912 159.145 101.725 157.227 102.876C132.289 117.774 107.339 132.645 82.376 147.489C81.4627 148.028 80.2116 148.265 79.9924 149.808H241.759ZM160.031 176.722H236.042C246.536 176.722 246.463 176.722 245.732 166.092C245.577 163.855 244.819 163.297 242.709 163.352C236.645 163.453 230.572 163.544 224.508 163.352C221.494 163.243 219.941 163.855 220.389 167.234C220.59 168.75 220.27 170.622 218.17 170.412C216.252 170.211 216.69 168.284 216.845 167.087C217.247 163.928 215.832 163.27 212.973 163.361C206.909 163.544 200.827 163.571 194.763 163.361C191.904 163.252 190.954 164.147 191.247 166.941C191.393 168.32 191.749 170.403 189.484 170.403C187.219 170.403 187.566 168.32 187.657 166.932C187.94 164.119 186.881 163.279 184.086 163.361C178.022 163.562 171.949 163.535 165.885 163.361C163.319 163.297 161.83 163.654 162.232 166.74C162.415 168.202 162.917 170.585 160.259 170.393C158.086 170.238 158.542 168.101 158.716 166.74C159.109 163.672 157.629 163.288 155.063 163.352C148.999 163.517 142.926 163.544 136.861 163.352C134.067 163.261 132.98 164.074 133.281 166.923C133.428 168.302 133.747 170.375 131.51 170.393C129.272 170.412 129.592 168.32 129.738 166.941C130.03 164.202 129.099 163.243 126.222 163.352C120.012 163.571 113.783 163.517 107.564 163.352C105.098 163.297 103.911 163.873 104.121 166.603C104.221 167.992 105.034 170.494 102.377 170.33C100.139 170.193 100.45 167.891 100.55 166.311C100.769 163.763 99.6367 163.288 97.3536 163.361C92.7872 163.498 88.2209 163.361 83.7002 163.361C75.2251 163.361 75.426 163.361 75.1795 172.001C75.0699 175.727 76.0471 176.823 79.8828 176.805C106.596 176.64 133.3 176.722 160.004 176.722H160.031ZM36.6487 213.637C36.6487 225.156 36.6487 236.672 36.6487 248.186C36.6487 250.012 36.3017 251.702 39.2515 251.619C41.8178 251.546 43.279 251.245 42.9046 248.186C42.7494 246.907 42.1466 244.697 44.5942 244.825C46.6033 244.934 46.6764 246.843 46.4938 248.341C46.165 250.971 47.1696 251.692 49.7267 251.583C54.4209 251.382 59.1242 251.409 63.8184 251.583C66.129 251.665 67.1062 251.062 66.8596 248.615C66.7043 247.053 66.3299 244.788 68.7866 244.816C70.9236 244.816 70.6131 246.971 70.467 248.359C69.983 253.135 73.5264 251.099 75.6178 251.528C78.5311 252.103 78.6681 250.387 78.6499 248.122C78.5494 234.934 78.5494 221.756 78.5677 208.568C78.5573 200.374 77.0084 192.254 74.0013 184.631C73.0477 182.584 72.3159 180.441 71.8186 178.238C71.5173 176.22 70.7044 175.818 68.8962 175.837C62.3846 175.91 55.8639 175.946 49.3523 175.837C47.2061 175.837 46.3294 176.348 46.512 178.576C46.6307 180.129 46.9504 182.348 44.4846 182.366C42.0187 182.385 42.8224 180.138 42.9411 178.896C43.206 175.974 41.6443 175.919 39.4068 175.764C36.5391 175.572 36.667 177.161 36.667 179.097C36.667 190.604 36.6487 202.12 36.6487 213.637ZM284.281 213.299C284.281 201.926 284.281 190.558 284.281 179.197C284.281 177.371 284.628 175.672 281.678 175.745C279.075 175.8 277.66 176.202 278.025 179.207C278.162 180.357 278.719 182.284 276.591 182.376C274.463 182.467 274.253 180.622 274.454 179.143C274.883 176.074 273.377 175.718 270.801 175.782C264.746 175.937 258.682 175.782 252.618 175.864C251.513 175.864 249.568 175.252 249.504 176.777C249.23 182.713 242.782 187.59 246.6 194.239C247.376 195.581 246.682 197.289 245.842 198.55C245.046 199.843 244.679 201.355 244.791 202.869C244.718 218.017 244.645 233.165 244.572 248.313C244.572 251.108 247.358 252.88 249.586 251.4C251.33 250.268 250.079 248.323 250.435 246.834C250.7 245.711 250.965 244.697 252.344 244.843C253.321 244.943 254.225 245.61 254.006 246.669C252.709 252.925 257.148 251.583 260.509 251.619C264.162 251.619 267.815 251.482 271.413 251.674C273.797 251.811 274.646 251.044 274.427 248.66C274.272 247.017 274.272 244.843 276.591 245.007C278.911 245.172 278.135 247.364 277.998 248.66C277.696 251.619 279.34 251.565 281.541 251.738C284.427 251.957 284.281 250.35 284.281 248.423C284.263 236.642 284.281 224.961 284.281 213.299V213.299ZM160.479 96.839C161.803 97.5422 163.017 98.1358 164.186 98.8208L202.489 121.57C216.946 130.146 231.375 138.758 245.869 147.26C246.874 147.854 247.997 149.927 249.613 147.754C252.691 143.617 252.107 140.447 247.604 137.826C222.846 123.214 197.712 109.132 173.493 93.6426C163.794 87.4415 156.981 87.6242 147.391 93.7248C122.998 109.25 97.7554 123.397 72.8689 138.119C68.7318 140.566 68.2204 142.968 71.3437 147.407C73.6269 150.64 75.3256 147.05 76.7777 146.201C103.418 130.584 129.957 114.785 156.524 99.04C157.739 98.2272 159.118 97.5696 160.479 96.839ZM250.371 267.392C251.851 268.697 251.604 270.259 251.632 271.72C251.7 272.477 251.7 273.238 251.632 273.994C249.805 284.625 254.7 294.707 254.134 305.237C254.006 307.475 255.614 307.064 256.874 307.064C265.815 307.064 274.765 307 283.706 307.128C286.098 307.128 286.811 306.425 286.783 304.041C286.674 292.826 286.674 281.605 286.783 270.378C286.783 267.866 285.797 267.337 283.55 267.355C272.5 267.428 261.431 267.392 250.362 267.392H250.371ZM70.741 267.392C59.4073 267.392 48.0737 267.437 36.7492 267.392C34.2834 267.392 34.1555 268.707 34.1555 270.579C34.2012 281.803 34.2194 293.027 34.1555 304.242C34.1555 306.342 34.6669 307.183 36.8953 307.155C46.028 307.046 55.0876 307.155 64.1929 307.1C65.3253 307.1 67.0331 307.466 66.6952 305.52C65.1701 296.689 70.9236 288.634 69.3437 279.775C68.9236 277.419 69.2797 274.935 69.2889 272.469C69.298 270.743 69.0058 268.917 70.7318 267.392H70.741ZM76.8416 180.631C78.7412 188.714 78.7412 188.714 86.3761 188.714H234.654C242.353 188.714 242.353 188.714 244.033 180.631H76.8416ZM82.1477 306.918H238.919C237.376 303.082 235.586 301.009 230.992 301.027C183.989 301.228 136.977 301.228 89.9561 301.027C85.4354 301 83.4263 302.854 82.1386 306.899L82.1477 306.918ZM160.424 159.717C188.315 159.717 216.206 159.733 244.097 159.763C246.737 159.763 248.289 159.571 248.043 156.22C247.769 152.63 245.303 154.073 243.741 154.064C188.251 153.991 132.764 153.973 77.28 154.009C76.6718 154.051 76.0616 154.051 75.4534 154.009C73.4077 153.745 73.0881 154.749 72.8872 156.603C72.5401 159.982 74.5036 159.754 76.7503 159.754C104.641 159.705 132.53 159.687 160.415 159.699L160.424 159.717ZM226.179 229.381C225.384 219.189 227.695 206.742 224.197 194.577C223.832 193.307 224.033 192.12 222.371 192.431C219.996 192.86 215.731 191.143 215.594 193.408C215.384 196.869 213.265 199.545 213.274 202.933C213.357 221.445 213.22 239.957 213.274 258.469C213.426 260.883 213.809 263.278 214.416 265.62C214.608 266.615 214.836 267.611 216.124 268.04C220.928 269.684 224.617 267.775 225.64 262.825C226.009 260.893 226.186 258.929 226.17 256.962C226.17 248.45 226.133 239.948 226.133 229.336L226.179 229.381ZM88.0931 297.338H232.873C231.43 293.392 229.576 291.42 225.01 291.438C181.946 291.651 138.892 291.651 95.8467 291.438C91.2712 291.438 89.3808 293.347 88.0931 297.338ZM159.995 278.113C181.535 278.113 203.079 278.113 224.626 278.113C226.517 278.113 228.791 279.027 228.873 275.373C228.955 271.72 227.047 272.022 224.645 272.022C181.861 272.022 139.075 272.022 96.2851 272.022C93.9288 272.022 91.9653 271.675 92.0384 275.364C92.1114 279.054 94.3763 278.104 96.2759 278.104C117.518 278.122 138.758 278.125 159.995 278.113V278.113ZM160.524 287.83H224.672C226.672 287.83 228.782 288.552 228.873 284.954C228.974 281.127 226.782 281.73 224.535 281.73H96.2394C94.2393 281.73 92.1388 281.008 92.0475 284.616C91.947 288.433 94.1389 287.83 96.3764 287.83H160.524ZM157.163 192.531C156.999 194.257 158.077 196.038 156.935 197.481C154.451 200.65 155.026 204.312 155.026 207.883C155.026 223.947 155.026 240.003 155.026 256.058C155.046 258.774 155.352 261.48 155.94 264.131C156.488 266.77 157.337 268.168 160.561 268.204C164.013 268.204 164.424 266.378 164.999 263.921C165.689 261.444 165.997 258.875 165.912 256.305C164.497 236.085 168.652 215.682 163.712 195.499C163.027 192.759 162.734 192.148 160.36 192.367C159.31 192.467 158.25 192.476 157.163 192.531ZM127.774 192.376C130.003 196.887 126.085 199.974 126.14 204.047C126.386 221.162 126.14 238.286 125.994 255.409C126.018 258.285 126.323 261.151 126.907 263.967C127.382 266.442 127.939 268.296 131.382 268.213C134.56 268.131 135.473 266.844 136.012 264.104C136.497 261.895 136.76 259.643 136.798 257.382C136.798 240.258 136.487 223.116 136.98 206.011C137.117 201.445 133.784 197.846 134.77 193.326C134.98 192.367 133.857 192.412 133.108 192.412C131.592 192.358 130.085 192.376 127.774 192.376ZM191.758 192.558C190.507 193.116 186.58 191.033 186.415 193.472C186.087 198.276 183.794 202.486 183.95 207.49C184.47 224.002 184.16 240.532 184.132 257.053C184.177 259.465 184.443 261.868 184.927 264.232C185.447 267.108 186.607 268.131 189.667 268.204C192.726 268.277 193.502 266.643 193.941 264.305C194.423 262.398 194.729 260.45 194.854 258.487C194.854 243.637 194.781 228.788 194.708 213.938C194.653 206.778 195.183 199.572 191.758 192.558V192.558ZM107.737 229.089C107.025 218.897 109.089 206.486 105.801 194.312C105.372 192.714 104.988 192.221 103.646 192.431C102.303 192.641 99.2714 191.755 99.4815 193.344C100.02 197.289 97.0796 200.047 97.1161 203.828C97.2896 221.107 97.1161 238.386 96.9243 255.656C97.0097 258.53 97.3489 261.39 97.9381 264.204C98.3856 266.944 99.3719 268.277 102.596 268.241C105.82 268.204 106.331 266.78 106.888 264.286C107.438 261.93 107.723 259.519 107.737 257.099V229.089ZM93.2895 237.738C93.2895 231.701 93.1982 225.646 93.3352 219.609C93.3352 217.281 92.705 216.221 90.2758 216.486C89.0632 216.644 87.8352 216.644 86.6227 216.486C83.1797 215.965 82.2755 217.399 82.3486 220.751C82.5769 231.016 82.4308 241.299 82.4308 251.574C82.4308 259.008 82.4308 258.88 89.8009 258.935C92.5863 258.935 93.4539 258.25 93.3169 255.428C93.1708 249.51 93.3261 243.61 93.3261 237.71L93.2895 237.738ZM229.795 237.92V251.546C229.795 258.962 229.795 258.852 237.147 258.907C239.768 258.907 240.8 258.496 240.8 255.501C240.609 243.701 240.645 231.884 240.8 220.084C240.8 217.345 240.225 216.066 237.33 216.523C236.422 216.661 235.498 216.661 234.59 216.523C230.937 215.975 229.485 217.162 229.741 221.089C230.097 226.669 229.832 232.286 229.832 237.893L229.795 237.92ZM198.534 237.92V251.546C198.534 258.98 198.534 258.798 205.841 258.935C208.991 258.989 209.494 257.857 209.494 255.053C209.347 244.606 209.439 234.158 209.439 223.71C209.439 216.313 209.439 216.404 201.822 216.477C199.292 216.477 198.406 217.125 198.48 219.756C198.69 225.783 198.571 231.838 198.571 237.893L198.534 237.92ZM169.547 237.92V251.574C169.547 258.953 169.547 258.761 176.853 258.935C180.041 259.008 180.506 257.839 180.461 255.072C180.315 244.752 180.397 234.432 180.397 224.112C180.397 216.367 180.397 216.55 172.835 216.486C169.803 216.486 169.383 217.573 169.456 220.139C169.703 226.039 169.611 231.966 169.611 237.884L169.547 237.92ZM140.414 237.829V251.528C140.414 258.971 140.414 258.834 147.656 258.962C150.688 259.026 151.419 258.122 151.364 255.19C151.191 244.724 151.3 234.249 151.3 223.783C151.3 216.477 151.3 216.587 143.821 216.532C140.953 216.532 140.25 217.372 140.35 220.112C140.588 225.948 140.451 231.875 140.451 237.793L140.414 237.829ZM111.418 237.464V251.537C111.418 258.971 111.418 258.779 118.724 258.944C121.911 259.017 122.377 257.848 122.377 255.072C122.231 244.633 122.313 234.185 122.313 223.737C122.313 216.285 122.313 216.431 114.833 216.477C111.911 216.477 111.29 217.555 111.372 220.203C111.573 225.911 111.454 231.674 111.454 237.427L111.418 237.464ZM47.8728 152.457C53.6994 152.457 58.6311 152.457 63.5627 152.457C69.2706 152.457 69.2706 152.457 67.2158 147.288C64.476 140.283 65.1335 138.347 71.7273 134.429C75.5082 132.17 79.2983 129.927 83.0975 127.698C78.1595 127.17 73.1955 126.923 68.2295 126.959C67.1837 126.864 66.1327 127.072 65.2018 127.558C64.2708 128.044 63.499 128.787 62.9782 129.698C58.2658 136.986 53.3615 144.238 47.9093 152.42L47.8728 152.457ZM236.764 126.959C240.545 129.242 243.157 130.876 245.896 132.438C255.869 138.338 255.86 138.329 252.709 149.662C252.417 150.713 251.531 152.293 253.623 152.329C259.851 152.439 266.08 152.375 272.975 152.375C267.495 144.155 262.627 136.849 257.796 129.543C256.719 127.917 255.504 126.867 253.394 126.904C248.298 127.05 243.211 126.959 236.764 126.959ZM56.2383 263.501C62.759 263.501 69.2889 263.41 75.8096 263.501C79.4627 263.574 78.5494 260.907 78.5494 259.063C78.5494 257.629 79.9102 255.145 76.5768 255.154C63.791 255.154 51.0783 254.989 38.3383 255.263C33.9363 255.364 35.8085 259.83 35.1875 262.14C34.5665 264.451 37.352 263.364 38.5301 263.401C44.3932 263.583 50.3112 263.501 56.2383 263.501ZM265.322 263.501C270.92 263.501 276.527 263.592 282.126 263.428C283.423 263.428 286.354 264.615 285.779 262.04C285.222 259.62 287.158 255.062 281.633 255.145C270.427 255.3 259.221 255.236 248.015 255.145C245.723 255.145 243.997 255.4 244.645 258.213C245.138 260.323 243.577 263.693 248.079 263.547C253.805 263.346 259.568 263.51 265.322 263.51V263.501ZM247.969 282.57C247.969 279.995 247.86 277.41 247.969 274.835C248.097 272.615 247.403 272.022 245.12 272.241C241.074 272.625 235.595 271.008 233.248 273.081C230.508 275.492 232.691 281.063 232.334 285.246C232.284 286.003 232.284 286.763 232.334 287.52C232.535 290.881 233.951 292.579 237.695 292.561C247.942 292.506 247.942 292.634 247.942 282.579L247.969 282.57ZM73.2433 282.15H72.9968C72.9968 284.561 73.1794 286.99 72.9511 289.383C72.6862 292.123 73.8644 292.598 76.2845 292.534C87.8739 292.214 88.8419 294.99 88.5223 280.433C88.5223 279.83 88.5223 279.227 88.5223 278.606C88.5223 272.451 88.5223 272.296 82.4582 272.478C79.3896 272.57 75.2525 270.469 73.5447 272.908C72.0469 275.045 73.2159 279.008 73.2159 282.159L73.2433 282.15ZM52.3113 165.891C46.8317 165.891 41.3521 165.827 35.9364 165.946C34.877 165.946 32.8678 164.813 32.8769 167.224C32.8769 168.859 33.1235 170.686 34.9592 171.416C35.9597 171.761 37.016 171.916 38.0734 171.873C48.2198 171.873 58.3753 171.873 68.5217 171.937C70.7775 171.937 71.773 171.435 71.773 168.923C71.773 166.558 71.0972 165.772 68.6861 165.845C63.2065 166.019 57.7361 165.909 52.2839 165.9L52.3113 165.891ZM269.102 165.891C263.623 165.891 258.143 165.973 252.728 165.845C250.417 165.791 249.166 166.065 249.175 168.932C249.175 171.955 250.773 171.928 252.919 171.91C259.595 171.846 266.262 171.91 272.938 171.91C276.865 171.91 280.792 171.91 284.719 171.773C287.56 171.663 288.135 169.371 288.071 167.206C287.998 164.585 285.742 165.982 284.564 165.946C279.386 165.809 274.235 165.909 269.075 165.909L269.102 165.891ZM53.0419 162.165C57.4256 162.165 61.8184 162.083 66.1929 162.165C68.3665 162.229 69.5081 161.882 69.4441 159.27C69.3894 156.923 68.7227 156.101 66.3299 156.147C59.8366 156.274 53.3341 156.201 46.8317 156.147C44.4115 156.147 41.9914 155.918 39.5895 156.064C37.0506 156.22 36.5391 158.01 36.6122 160.256C36.6944 162.859 38.5849 162.083 39.8908 162.083C44.2471 162.238 48.6308 162.183 53.0145 162.183L53.0419 162.165ZM267.979 162.165C272.363 162.165 276.737 162.22 281.112 162.165C282.409 162.165 284.308 162.969 284.363 160.338C284.409 158.274 283.77 156.795 281.678 156.22C281.081 156.074 280.465 156.018 279.852 156.055C271.404 156.11 262.956 156.256 254.508 156.183C252.006 156.183 251.513 157.16 251.504 159.398C251.495 161.635 252.198 162.284 254.362 162.22C258.892 162.092 263.422 162.183 267.952 162.183L267.979 162.165ZM140.67 93.396C128.934 93.396 118.423 93.396 107.92 93.396C105.463 93.396 104.367 94.4736 104.194 96.8847C103.984 99.9441 106.121 99.3414 107.847 99.3505C114.048 99.3505 120.267 99.0582 126.441 99.451C131.884 99.798 135.556 96.7568 140.642 93.4143L140.67 93.396ZM180.251 93.396C185.794 97.2317 190.141 100.008 196.105 99.4418C201.502 98.9395 206.982 99.4418 212.416 99.2774C214.014 99.2318 216.708 100.656 216.754 97.1404C216.8 94.1357 215.156 93.3321 212.416 93.3595C202.124 93.4599 191.858 93.4143 180.223 93.4143L180.251 93.396ZM99.5637 117.963L123.464 103.826L123.226 103.104H112.934C99.171 103.104 99.171 103.104 99.5637 117.963ZM221.457 118.018C221.457 113.789 221.457 110.337 221.457 106.876C221.457 105.049 220.928 103.223 218.909 103.223C211.813 103.067 204.708 103.159 196.297 103.159L221.457 118.018ZM160.479 27.997V28.1066C157.163 28.1066 153.83 27.9148 150.533 28.1066C147.236 28.2984 147.729 31.0655 147.693 33.2939C147.638 36.5634 150.022 34.8739 151.172 34.7277C157.616 33.9346 164.135 33.9683 170.57 34.8282C171.383 34.9287 172.497 35.9515 173.155 34.2803C174.287 31.4126 172.607 28.1888 169.502 27.9878C166.397 27.7869 163.511 27.997 160.479 27.997ZM240.572 207.326C241.823 202.869 240.015 201.609 235.576 201.719C231.503 201.819 229.275 202.047 229.585 207.198C229.832 211.463 230.325 213.235 235.229 213.089C239.732 212.979 241.869 212.13 240.572 207.326ZM122.204 207.326C123.455 202.869 121.637 201.618 117.208 201.719C113.126 201.81 110.906 202.056 111.208 207.198C111.464 211.463 111.957 213.226 116.861 213.089C121.372 212.979 123.491 212.121 122.204 207.326ZM198.717 207.372C197.539 211.737 199.128 213.226 203.667 213.043C207.649 212.888 210.06 212.87 209.704 207.563C209.402 203.408 209.128 201.408 204.105 201.636C199.749 201.865 197.356 202.477 198.717 207.417V207.372ZM175.401 202.047C171.529 201.362 169.008 201.673 169.401 206.732C169.693 210.641 169.209 213.545 174.881 213.07C178.908 212.733 181.173 212.632 180.717 207.591C180.315 203.7 180.57 200.467 175.401 202.047V202.047ZM151.118 207.417C152.387 203.344 151.2 201.39 146.451 201.828C142.999 202.157 139.638 201.061 140.222 206.879C140.624 210.906 140.359 213.509 145.793 213.116C149.93 212.769 152.643 212.55 151.118 207.417ZM93.0704 207.171C94.495 202.449 92.0749 201.856 87.9561 201.755C83.6546 201.645 82.2481 202.668 82.3943 207.189C82.5221 211.326 82.8874 213.244 87.9195 213.18C92.7872 213.061 94.148 211.573 93.0704 207.125V207.171ZM84.0016 296.214H76.9877C70.3848 296.214 70.6497 296.214 70.3209 302.872C70.1291 306.625 71.4899 307.438 74.8872 307.21C75.6928 307.241 76.4898 307.036 77.1808 306.621C77.8718 306.205 78.4267 305.598 78.7777 304.872C80.2572 302.096 81.9833 299.475 84.0016 296.169V296.214ZM236.928 296.214C239.01 299.657 240.837 302.534 242.517 305.493C244.198 308.452 246.81 306.762 249.001 307.091C250.18 307.265 250.298 306.297 250.472 305.32C251.842 297.502 250.828 296.187 243.166 296.187L236.928 296.214ZM161.008 4.37989H159.958C158.862 10.3527 157.73 16.3254 156.679 22.3165C156.122 25.4672 158.689 24.4444 159.958 24.3256C161.483 24.1886 164.597 25.796 164.177 22.3987C163.428 16.3528 162.095 10.3801 161.008 4.37989ZM175.091 198.285C176.616 198.285 178.132 198.285 179.657 198.285C181.73 198.285 182.781 197.234 182.753 195.243C182.786 194.861 182.735 194.475 182.604 194.114C182.474 193.752 182.266 193.424 181.996 193.15C181.726 192.877 181.4 192.665 181.041 192.53C180.681 192.395 180.296 192.339 179.913 192.367C176.57 192.312 173.228 192.294 169.867 192.367C169.479 192.364 169.094 192.444 168.739 192.601C168.384 192.758 168.066 192.989 167.807 193.279C167.548 193.568 167.354 193.909 167.236 194.279C167.119 194.65 167.082 195.04 167.127 195.426C167.106 195.81 167.168 196.194 167.308 196.552C167.448 196.91 167.664 197.234 167.94 197.502C168.216 197.769 168.547 197.974 168.909 198.103C169.271 198.232 169.657 198.281 170.04 198.248C171.712 198.285 173.383 198.285 175.091 198.285ZM204.05 198.285C205.567 198.285 207.083 198.285 208.617 198.285C210.589 198.285 211.722 197.371 211.685 195.234C211.726 194.853 211.681 194.468 211.556 194.106C211.43 193.745 211.226 193.415 210.958 193.141C210.69 192.867 210.365 192.656 210.006 192.522C209.647 192.388 209.263 192.335 208.882 192.367C205.548 192.294 202.215 192.284 198.881 192.367C197.055 192.431 196.142 193.636 196.206 195.39C196.18 195.772 196.236 196.156 196.372 196.515C196.507 196.875 196.717 197.2 196.989 197.471C197.261 197.742 197.587 197.952 197.947 198.086C198.306 198.22 198.69 198.275 199.073 198.248C200.662 198.349 202.343 198.285 204.005 198.285H204.05ZM146.652 192.339C144.569 192.339 142.916 192.339 141.254 192.339C139.592 192.339 138.378 193.253 138.286 195.079C138.186 197.088 139.355 198.148 141.291 198.266C142.939 198.449 144.602 198.449 146.25 198.266C148.917 197.846 153.465 200.093 153.62 195.636C153.739 190.796 148.981 192.86 146.606 192.358L146.652 192.339ZM116.897 198.212V198.285C118.56 198.285 120.222 198.285 121.884 198.285C122.261 198.32 122.642 198.274 123.001 198.151C123.359 198.029 123.688 197.832 123.965 197.573C124.242 197.314 124.461 196.999 124.607 196.65C124.754 196.3 124.825 195.924 124.816 195.545C124.898 193.791 124.039 192.522 122.24 192.458C118.77 192.33 115.29 192.348 111.82 192.458C111.476 192.445 111.133 192.507 110.815 192.639C110.497 192.771 110.212 192.969 109.978 193.222C109.744 193.474 109.567 193.774 109.459 194.101C109.351 194.427 109.316 194.774 109.354 195.116C109.354 196.942 110.13 198.065 111.911 198.23C113.692 198.394 115.19 198.23 116.852 198.23L116.897 198.212ZM88.4218 192.403V192.339H83.4628C81.5267 192.339 80.312 193.17 80.2572 195.262C80.2024 197.353 81.3897 198.257 83.3349 198.276C86.641 198.276 89.9379 198.276 93.2439 198.212C93.5865 198.219 93.9271 198.157 94.2448 198.028C94.5625 197.9 94.8507 197.708 95.0918 197.465C95.3328 197.221 95.5217 196.931 95.6467 196.612C95.7718 196.293 95.8305 195.951 95.8193 195.609C95.9106 193.892 95.1526 192.622 93.3626 192.44C91.6822 192.294 90.02 192.421 88.3762 192.421L88.4218 192.403ZM235.211 198.285C236.882 198.285 238.545 198.285 240.216 198.285C240.597 198.32 240.982 198.274 241.344 198.148C241.706 198.023 242.037 197.822 242.314 197.558C242.592 197.294 242.81 196.974 242.954 196.619C243.097 196.264 243.163 195.882 243.147 195.499C243.22 193.746 242.344 192.485 240.545 192.421C237.065 192.303 233.576 192.294 230.097 192.421C228.27 192.504 227.595 193.837 227.686 195.609C227.658 195.952 227.704 196.297 227.82 196.621C227.936 196.945 228.12 197.24 228.36 197.487C228.599 197.734 228.888 197.928 229.209 198.054C229.529 198.181 229.872 198.237 230.216 198.221C231.878 198.285 233.54 198.285 235.211 198.285ZM236.006 268.323V268.46C236.61 268.56 237.227 268.56 237.832 268.46C239.348 267.93 242.243 269.976 242.234 266.725C242.234 264.241 241.376 261.702 237.668 262.451C235.732 262.716 233.768 262.716 231.832 262.451C228.809 262.222 229.019 264.506 228.654 266.323C228.069 269.182 230.48 267.985 231.585 268.241C233.052 268.42 234.535 268.438 236.006 268.296V268.323ZM87.9743 268.46C89.0665 268.431 90.1542 268.309 91.2256 268.095C92.495 267.739 95.0247 269.446 94.769 266.405C94.5864 264.195 94.1297 261.912 90.7689 262.423C88.6655 262.652 86.5435 262.652 84.44 262.423C81.07 262.204 81.4171 264.871 81.2253 266.734C80.9422 269.364 83.2253 268.177 84.4674 268.387C85.6337 268.487 86.8058 268.502 87.9743 268.433V268.46ZM196.306 268.095C200.662 268.095 204.27 268.168 207.877 268.095C208.854 268.095 210.617 268.953 210.681 266.981C210.681 265.528 210.681 263.145 209.357 262.935C205.924 262.392 202.432 262.327 198.982 262.743C196.909 262.944 197.731 265.675 196.306 268.067V268.095ZM123.802 268.095C123.948 263.464 121.975 261.83 117.802 262.469C116.284 262.632 114.753 262.632 113.235 262.469C110.139 262.286 110.495 264.734 110.221 266.506C109.874 268.99 111.966 267.994 113.016 268.031C116.642 268.15 120.295 268.067 123.802 268.067V268.095ZM152.853 268.095C153.045 263.419 150.953 261.857 146.825 262.469C145.308 262.636 143.776 262.636 142.259 262.469C139.108 262.25 139.519 264.789 139.254 266.524C138.852 269.035 141.008 267.985 141.994 268.022C145.665 268.159 149.282 268.067 152.853 268.067V268.095ZM167.465 268.095C172.031 268.095 175.611 268.15 179.228 268.095C180.141 268.095 181.675 268.752 181.675 267.099C181.675 265.638 181.675 263.181 180.479 262.98C177.057 262.401 173.569 262.318 170.123 262.734C167.639 262.999 168.844 265.949 167.456 268.067L167.465 268.095ZM247.504 267.775L247.632 267.583H247.394L247.504 267.775Z" fill="#252464"/>
    <path d="M137.283 10.2524C140.853 10.8095 145.657 8.84604 146.26 14.6453C146.726 19.1659 142.086 23.4583 137.246 23.4948C132.406 23.5313 127.739 19.2299 128.196 14.7092C128.826 8.5629 133.94 10.9739 137.283 10.2524ZM137.502 13.7959C135.858 15.0928 132.406 12.1155 132.223 15.796C132.095 18.481 134.725 19.7596 137.356 19.6865C139.986 19.6134 142.442 18.3075 142.232 15.5037C142.004 12.4169 139.045 14.8645 137.502 13.8051V13.7959Z" fill="#29286B"/>
    <path d="M184.224 10.3433C187.137 10.9278 192.252 8.63546 192.708 14.8548C193.028 19.2659 188.562 23.3573 183.941 23.4669C179.064 23.5856 174.726 19.6038 174.635 14.9187C174.562 11.2839 176.416 10.3433 184.224 10.3433ZM183.676 13.8045C182.096 15.0009 178.909 12.3981 178.69 15.6311C178.507 18.3709 181.101 19.6495 183.694 19.6677C186.288 19.686 188.864 18.3344 188.681 15.6128C188.471 12.3981 185.284 14.9644 183.676 13.8045Z" fill="#29286B"/>
    <path d="M6.61186 255.026C4.47482 254.313 0.520363 256.204 0.51123 253.053C0.51123 249.4 4.52961 251.099 6.76711 251.017C9.00462 250.934 12.7399 249.674 12.6759 252.98C12.612 256.286 8.73977 254.323 6.61186 255.026Z" fill="#313180"/>
    <path d="M314.675 255.099C312.282 254.332 308.346 256.186 308.282 253.108C308.209 249.355 312.254 251.108 314.483 251.017C316.711 250.925 320.465 249.665 320.456 252.925C320.437 256.359 316.483 254.094 314.675 255.099Z" fill="#313180"/>
    <path d="M191.758 89.6061C189.018 89.6061 186.278 89.396 183.538 89.6061C176.826 90.2362 170.68 89.1129 165.218 84.848C163.885 83.6766 162.171 83.0306 160.396 83.0306C158.622 83.0306 156.907 83.6766 155.574 84.848C150.095 89.1403 143.967 89.944 137.245 89.6335C129.08 89.2682 120.879 89.4325 112.705 89.6335C109.874 89.6974 109.189 88.8937 109.244 86.0717C109.71 59.8153 134.313 36.938 161.346 37.7873C188.105 38.6275 210.443 59.8336 211.576 85.195C211.74 88.8481 210.708 89.8435 207.174 89.6426C202.078 89.3595 196.909 89.6061 191.758 89.6061Z" fill="#B3D6F1"/>
    <path d="M241.76 149.809H79.9932C80.2123 148.265 81.4727 148.028 82.3768 147.489C107.339 132.621 132.281 117.75 157.201 102.876C159.119 101.725 160.607 100.912 162.927 102.3C188.59 117.729 214.295 133.09 240.043 148.384C240.381 148.594 240.664 148.904 241.76 149.809ZM176.827 127.689C176.83 124.445 175.868 121.274 174.063 118.578C172.259 115.882 169.693 113.785 166.692 112.552C163.691 111.319 160.392 111.007 157.213 111.655C154.034 112.303 151.12 113.882 148.842 116.192C146.564 118.501 145.024 121.436 144.419 124.623C143.814 127.81 144.17 131.105 145.444 134.089C146.717 137.073 148.849 139.61 151.569 141.378C154.289 143.147 157.473 144.066 160.717 144.018C164.996 143.926 169.07 142.168 172.073 139.119C175.076 136.069 176.772 131.969 176.799 127.689H176.827Z" fill="#B3D6F1"/>
    <path d="M160.003 176.722C133.299 176.722 106.595 176.64 79.8916 176.814C76.0558 176.814 75.0787 175.736 75.1883 172.01C75.4348 163.38 75.1883 163.37 83.709 163.37C88.2754 163.37 92.8417 163.471 97.3624 163.37C99.5999 163.297 100.778 163.772 100.559 166.32C100.413 167.9 100.102 170.202 102.385 170.339C105.034 170.503 104.212 168.001 104.13 166.613C103.947 163.873 105.107 163.307 107.573 163.361C113.792 163.507 120.021 163.562 126.231 163.361C129.108 163.252 130.039 164.174 129.747 166.95C129.601 168.329 129.254 170.412 131.519 170.403C133.783 170.393 133.436 168.311 133.29 166.932C132.989 164.083 134.076 163.279 136.87 163.361C142.934 163.562 149.008 163.535 155.072 163.361C157.656 163.297 159.136 163.681 158.725 166.75C158.551 168.101 158.095 170.238 160.268 170.403C162.926 170.594 162.423 168.211 162.241 166.75C161.876 163.663 163.364 163.307 165.894 163.37C171.958 163.535 178.031 163.562 184.095 163.37C186.89 163.279 187.949 164.128 187.666 166.941C187.529 168.329 187.2 170.403 189.493 170.412C191.785 170.421 191.401 168.329 191.255 166.95C190.963 164.156 191.913 163.297 194.771 163.37C200.835 163.59 206.918 163.562 212.982 163.37C215.84 163.279 217.256 163.937 216.854 167.097C216.699 168.293 216.261 170.22 218.178 170.421C220.279 170.631 220.599 168.759 220.398 167.243C219.941 163.864 221.503 163.252 224.516 163.361C230.581 163.581 236.654 163.489 242.718 163.361C244.8 163.361 245.586 163.882 245.741 166.101C246.471 176.732 246.544 176.732 236.051 176.732L160.003 176.722Z" fill="#F3F4F8"/>
    <path d="M36.6495 213.637C36.6495 202.12 36.6495 190.604 36.6495 179.088C36.6495 177.152 36.5125 175.562 39.3893 175.754C41.6268 175.91 43.1885 175.964 42.9237 178.887C42.8049 180.129 42.0104 182.366 44.4671 182.357C46.9238 182.348 46.6133 180.12 46.4945 178.567C46.3119 176.302 47.1886 175.754 49.3348 175.827C55.8464 175.955 62.3671 175.919 68.8787 175.827C70.7052 175.827 71.4998 176.211 71.8012 178.229C72.2985 180.432 73.0302 182.575 73.9839 184.622C76.9909 192.245 78.5399 200.364 78.5502 208.559C78.5502 221.746 78.5502 234.925 78.6324 248.112C78.6324 250.377 78.5137 252.094 75.6004 251.519C73.509 251.108 69.9655 253.126 70.4495 248.35C70.5865 246.962 70.9062 244.825 68.7691 244.806C66.3124 244.806 66.6869 247.044 66.8421 248.606C67.0887 251.053 66.1115 251.656 63.8009 251.574C59.1068 251.409 54.4034 251.382 49.7093 251.574C47.1521 251.683 46.1475 250.962 46.4763 248.332C46.6589 246.834 46.5859 244.925 44.5767 244.815C42.1291 244.688 42.7502 246.898 42.8871 248.176C43.2707 251.236 41.8095 251.537 39.2341 251.61C36.2842 251.692 36.6221 250.021 36.6313 248.176C36.6556 236.669 36.6617 225.156 36.6495 213.637ZM47.5174 222.093V225.262C47.5174 239.181 47.5174 239.126 61.7004 238.459C64.5133 238.331 65.8193 237.491 65.7097 234.45C65.527 229.317 65.7097 224.176 65.7097 219.043C65.7097 204.76 65.7097 204.814 51.4627 205.445C48.6681 205.563 47.3439 206.358 47.5083 209.399C47.6909 213.618 47.5174 217.856 47.5174 222.093ZM56.2756 199.654C66.6047 199.654 66.6047 199.654 65.6366 189.353C65.6275 189.204 65.6275 189.054 65.6366 188.905C65.6366 186.969 64.5042 186.166 62.7598 186.166C58.6684 186.111 54.5739 186.111 50.4764 186.166C49.0608 186.166 47.9466 186.558 47.5357 188.339C45.5448 197.033 47.5174 199.654 56.2756 199.654Z" fill="white"/>
    <path d="M284.282 213.298C284.282 224.961 284.282 236.632 284.282 248.295C284.282 250.222 284.446 251.829 281.542 251.61C279.341 251.436 277.697 251.491 277.998 248.532C278.135 247.226 278.82 244.989 276.592 244.879C274.364 244.77 274.272 246.925 274.427 248.532C274.647 250.916 273.797 251.683 271.414 251.546C267.761 251.354 264.108 251.546 260.509 251.491C257.148 251.491 252.71 252.797 254.007 246.541C254.226 245.518 253.322 244.852 252.345 244.715C250.966 244.569 250.701 245.628 250.436 246.706C250.08 248.24 251.349 250.185 249.587 251.272C247.358 252.715 244.564 250.98 244.573 248.185C244.628 233.037 244.701 217.889 244.792 202.741C244.679 201.227 245.047 199.715 245.842 198.421C246.682 197.161 247.377 195.453 246.6 194.111C242.783 187.462 249.23 182.585 249.504 176.649C249.568 175.142 251.514 175.736 252.619 175.736C258.683 175.672 264.747 175.809 270.802 175.654C273.359 175.59 274.866 175.946 274.455 179.014C274.254 180.494 274.455 182.348 276.592 182.247C278.729 182.147 278.163 180.229 278.026 179.078C277.66 176.074 279.076 175.672 281.679 175.617C284.629 175.544 284.282 177.234 284.282 179.069C284.269 190.528 284.269 201.937 284.282 213.298ZM273.395 222.331C273.395 217.947 273.249 213.563 273.45 209.189C273.587 206.33 272.336 205.435 269.742 205.481C266.089 205.536 262.464 205.536 258.865 205.481C256.217 205.481 255.121 206.495 255.212 209.28C255.395 214.568 255.267 219.856 255.267 225.143C255.267 239.19 255.267 239.19 269.404 238.413H270.318C272.455 238.313 273.551 237.454 273.459 235.043C273.277 230.797 273.395 226.596 273.395 222.331ZM264.126 199.654C265.646 199.557 267.172 199.557 268.692 199.654C272.619 200.184 273.606 198.385 273.469 194.713C273.122 185.234 274.957 186.138 264.61 186.092C262.482 186.092 260.354 186.037 258.217 186.092C256.783 186.138 255.696 186.585 255.295 188.311C253.267 196.997 255.295 199.654 264.126 199.654Z" fill="#FBFCFE"/>
    <path d="M160.479 96.8391C159.127 97.5697 157.785 98.2273 156.497 98.9944C129.93 114.739 103.391 130.539 76.7508 146.155C75.2987 147.005 73.6 150.594 71.3169 147.361C68.1935 142.923 68.7049 140.521 72.842 138.073C97.7285 123.351 122.971 109.186 147.365 93.6792C156.954 87.5786 163.803 87.3959 173.466 93.597C197.686 109.123 222.782 123.141 247.577 137.781C252.08 140.438 252.664 143.571 249.587 147.708C247.97 149.882 246.847 147.808 245.842 147.215C231.349 138.712 216.919 130.1 202.462 121.525L164.187 98.8209C163.009 98.1359 161.794 97.5423 160.479 96.8391Z" fill="#F7F8FA"/>
    <path d="M250.363 267.391C261.432 267.391 272.501 267.391 283.56 267.391C285.807 267.391 286.821 267.903 286.793 270.414C286.678 281.635 286.678 292.856 286.793 304.077C286.793 306.461 286.109 307.192 283.716 307.164C274.775 307.036 265.825 307.164 256.884 307.1C255.596 307.1 253.989 307.511 254.144 305.274C254.71 294.744 249.806 284.661 251.642 274.031C251.71 273.274 251.71 272.513 251.642 271.757C251.596 270.259 251.806 268.697 250.363 267.391Z" fill="#F7F8FA"/>
    <path d="M70.7315 267.392C69.0054 268.917 69.2977 270.743 69.2977 272.469C69.2977 274.899 68.9324 277.383 69.3525 279.775C70.9324 288.634 65.1788 296.689 66.704 305.52C67.0419 307.466 65.3341 307.1 64.2016 307.1C55.069 307.1 46.0002 307.046 36.9041 307.155C34.6392 307.155 34.1186 306.342 34.1643 304.242C34.2465 293.027 34.2282 281.803 34.1643 270.579C34.1643 268.752 34.2922 267.373 36.758 267.392C48.0642 267.437 59.3979 267.392 70.7315 267.392Z" fill="#F7F8FA"/>
    <path d="M76.833 180.613H244.034C242.353 188.695 242.353 188.695 234.655 188.695H86.3675C78.7326 188.695 78.7326 188.695 76.833 180.613Z" fill="white"/>
    <path d="M82.1387 306.9C83.4264 302.854 85.4356 301 89.9562 301.018C136.971 301.201 183.983 301.201 230.992 301.018C235.558 301.018 237.385 303.073 238.919 306.909L82.1387 306.9Z" fill="#ECEBF2"/>
    <path d="M160.415 159.699C132.524 159.699 104.636 159.699 76.7508 159.699C74.5041 159.699 72.5406 159.927 72.8877 156.548C73.0886 154.721 73.4082 153.689 75.4539 153.954C76.0621 153.996 76.6723 153.996 77.2805 153.954C132.771 153.954 188.258 153.973 243.742 154.009C245.276 154.009 247.769 152.575 248.043 156.164C248.29 159.516 246.737 159.708 244.098 159.708C216.201 159.659 188.306 159.656 160.415 159.699Z" fill="white"/>
    <path d="M226.134 229.336C226.134 239.92 226.134 248.423 226.134 256.916C226.151 258.883 225.973 260.847 225.604 262.779C224.582 267.729 220.892 269.638 216.088 267.994C214.8 267.565 214.572 266.569 214.38 265.574C213.773 263.232 213.391 260.838 213.239 258.423C213.175 239.911 213.312 221.399 213.239 202.887C213.239 199.499 215.348 196.823 215.558 193.362C215.695 191.097 219.96 192.814 222.335 192.385C224.015 192.074 223.814 193.298 224.161 194.531C227.65 206.723 225.321 219.171 226.134 229.336Z" fill="#B3D6F1"/>
    <path d="M88.0942 297.337C89.3819 293.346 91.2724 291.419 95.8479 291.447C138.899 291.647 181.954 291.647 225.011 291.447C229.578 291.447 231.404 293.401 232.874 297.346L88.0942 297.337Z" fill="#ECEBF2"/>
    <path d="M159.995 278.113C138.764 278.113 117.525 278.113 96.2762 278.113C94.3766 278.113 92.1208 279.027 92.0386 275.373C91.9564 271.72 93.9291 272.031 96.2853 272.031C139.075 272.031 181.861 272.031 224.645 272.031C227.01 272.031 228.956 271.711 228.873 275.383C228.791 279.054 226.517 278.122 224.627 278.122C203.08 278.129 181.536 278.125 159.995 278.113Z" fill="#ECEBF2"/>
    <path d="M160.524 287.83H96.3766C94.1391 287.83 91.9473 288.433 92.0478 284.616C92.1391 281.008 94.2396 281.73 96.2397 281.73H224.535C226.782 281.73 228.974 281.127 228.873 284.954C228.782 288.552 226.672 287.83 224.672 287.83H160.524Z" fill="#ECEBF2"/>
    <path d="M157.165 192.531C158.252 192.477 159.311 192.467 160.352 192.367C162.727 192.148 163.019 192.723 163.704 195.499C168.663 215.683 164.489 236.085 165.905 256.305C165.99 258.875 165.682 261.444 164.991 263.921C164.416 266.378 164.005 268.241 160.553 268.205C157.329 268.205 156.48 266.771 155.932 264.131C155.344 261.48 155.038 258.774 155.019 256.058C155.083 240.003 155.019 223.948 155.019 207.883C155.019 204.312 154.443 200.65 156.927 197.481C158.069 196.038 157 194.257 157.165 192.531Z" fill="#B3D6F1"/>
    <path d="M127.774 192.376C130.084 192.376 131.591 192.376 133.098 192.376C133.82 192.376 134.97 192.376 134.76 193.289C133.774 197.81 137.107 201.39 136.97 205.974C136.477 223.08 136.76 240.222 136.788 257.345C136.751 259.607 136.487 261.858 136.002 264.067C135.464 266.807 134.55 268.095 131.372 268.177C127.929 268.259 127.372 266.405 126.897 263.93C126.314 261.114 126.008 258.248 125.984 255.373C126.13 238.249 126.377 221.125 126.13 204.011C126.084 199.974 130.002 196.887 127.774 192.376Z" fill="#B3D6F1"/>
    <path d="M191.759 192.558C195.156 199.572 194.654 206.778 194.699 213.929C194.772 228.778 194.864 243.628 194.846 258.478C194.721 260.441 194.415 262.388 193.932 264.295C193.494 266.633 192.827 268.286 189.658 268.195C186.489 268.104 185.439 267.099 184.918 264.222C184.435 261.859 184.169 259.456 184.124 257.044C184.124 240.523 184.462 223.993 183.941 207.481C183.786 202.476 186.078 198.266 186.407 193.462C186.58 191.033 190.508 193.115 191.759 192.558Z" fill="#B3D6F1"/>
    <path d="M107.775 229.062V257.062C107.761 259.482 107.476 261.893 106.926 264.25C106.369 266.743 105.766 268.177 102.633 268.204C99.5008 268.232 98.4231 266.862 97.9756 264.168C97.3865 261.354 97.0472 258.493 96.9619 255.619C97.108 238.35 97.3272 221.071 97.1537 203.792C97.1537 200.011 100.058 197.253 99.5191 193.307C99.309 191.727 102.213 192.622 103.684 192.394C105.154 192.166 105.41 192.677 105.839 194.275C109.127 206.504 107.063 218.87 107.775 229.062Z" fill="#B3D6F1"/>
    <path d="M93.3259 237.71C93.3259 243.61 93.1706 249.509 93.3898 255.391C93.4994 258.213 92.6592 258.925 89.8738 258.898C82.5037 258.825 82.5037 258.971 82.5037 251.537C82.5037 241.262 82.6498 230.979 82.4215 220.714C82.3484 217.326 83.2526 215.928 86.6956 216.449C87.9081 216.607 89.1361 216.607 90.3487 216.449C92.7779 216.184 93.4538 217.244 93.4081 219.572C93.2346 225.618 93.3259 231.673 93.3259 237.71Z" fill="#F3F4F8"/>
    <path d="M229.832 237.893C229.832 232.285 230.097 226.669 229.741 221.089C229.485 217.134 230.965 215.947 234.59 216.522C235.498 216.661 236.422 216.661 237.33 216.522C240.225 216.066 240.837 217.381 240.801 220.084C240.664 231.883 240.627 243.701 240.801 255.501C240.855 258.496 239.805 258.925 237.148 258.907C229.796 258.843 229.796 258.962 229.796 251.546L229.832 237.893Z" fill="#F8F8FC"/>
    <path d="M198.572 237.893C198.572 231.838 198.691 225.783 198.508 219.728C198.435 217.098 199.321 216.468 201.851 216.449C209.467 216.404 209.467 216.285 209.467 223.683C209.467 234.13 209.376 244.578 209.522 255.026C209.522 257.83 209.02 258.962 205.869 258.907C198.563 258.77 198.563 258.907 198.563 251.519L198.572 237.893Z" fill="#F8F8FC"/>
    <path d="M169.612 237.884C169.612 231.966 169.73 226.011 169.557 220.13C169.484 217.536 169.904 216.413 172.936 216.477C180.498 216.541 180.498 216.358 180.498 224.102C180.498 234.422 180.415 244.742 180.562 255.062C180.562 257.802 180.141 258.998 176.954 258.925C169.648 258.752 169.648 258.925 169.648 251.564L169.612 237.884Z" fill="white"/>
    <path d="M140.451 237.793C140.451 231.875 140.588 225.92 140.387 220.039C140.287 217.299 140.99 216.431 143.857 216.459C151.337 216.514 151.337 216.358 151.337 223.71C151.337 234.176 151.228 244.651 151.401 255.117C151.456 258.049 150.725 258.953 147.693 258.889C140.451 258.734 140.451 258.889 140.451 251.455V237.793Z" fill="white"/>
    <path d="M111.455 237.427C111.455 231.674 111.573 225.911 111.455 220.167C111.372 217.518 111.993 216.459 114.916 216.44C122.396 216.44 122.396 216.249 122.396 223.701C122.396 234.149 122.313 244.596 122.46 255.035C122.46 257.775 122.03 258.98 118.806 258.907C111.5 258.743 111.5 258.907 111.5 251.501L111.455 237.427Z" fill="#F8F8FC"/>
    <path d="M47.9097 152.42C53.3893 144.201 58.2661 136.986 63.0242 129.653C63.545 128.741 64.3168 127.998 65.2478 127.512C66.1788 127.026 67.2297 126.818 68.2755 126.913C73.2415 126.878 78.2055 127.125 83.1435 127.653C79.3504 129.893 75.5603 132.137 71.7733 134.383C65.1795 138.301 64.4672 140.237 67.2618 147.242C69.3075 152.411 69.3075 152.411 63.6087 152.411C58.6679 152.43 53.7363 152.42 47.9097 152.42Z" fill="#B3D6F1"/>
    <path d="M236.764 126.958C243.212 126.958 248.299 127.013 253.386 126.958C255.495 126.958 256.71 127.972 257.788 129.597C262.619 136.903 267.514 144.21 272.966 152.429C266.071 152.429 259.842 152.493 253.614 152.383C251.504 152.383 252.39 150.767 252.701 149.717C255.851 138.383 255.861 138.392 245.888 132.492C243.194 130.876 240.545 129.241 236.764 126.958Z" fill="#B3D6F1"/>
    <path d="M56.2386 263.501C50.3115 263.501 44.3661 263.583 38.4847 263.437C37.3066 263.437 34.512 264.551 35.1421 262.176C35.7723 259.802 33.891 255.4 38.2929 255.3C51.033 255.026 63.7822 255.226 76.5314 255.19C79.8648 255.19 78.4858 257.665 78.504 259.099C78.504 260.925 79.4904 263.61 75.7642 263.537C69.2892 263.409 62.7593 263.501 56.2386 263.501Z" fill="white"/>
    <path d="M265.322 263.51C259.569 263.51 253.806 263.345 248.061 263.555C243.559 263.729 245.121 260.332 244.628 258.222C243.979 255.409 245.705 255.144 247.997 255.153C259.203 255.245 270.409 255.309 281.615 255.153C287.14 255.071 285.204 259.628 285.761 262.049C286.355 264.624 283.423 263.4 282.108 263.437C276.528 263.601 270.92 263.51 265.322 263.51Z" fill="#FBFCFE"/>
    <path d="M247.943 282.579C247.943 292.625 247.943 292.506 237.787 292.57C234.043 292.57 232.627 290.89 232.426 287.529C232.376 286.772 232.376 286.012 232.426 285.255C232.737 281.072 230.6 275.501 233.34 273.09C235.659 271.017 241.139 272.634 245.212 272.25C247.495 272.031 248.189 272.624 248.061 274.844C247.833 277.419 247.943 280.004 247.943 282.579Z" fill="white"/>
    <path d="M73.2158 282.159C73.2158 279.008 72.0468 275.045 73.5263 272.935C75.2341 270.497 79.3712 272.597 82.4398 272.506C88.513 272.323 88.5222 272.506 88.5039 278.634C88.5039 279.237 88.5039 279.839 88.5039 280.46C88.8235 295.018 87.8555 292.242 76.2661 292.561C73.846 292.625 72.6679 292.123 72.9327 289.411C73.161 287.018 72.9784 284.588 72.9784 282.177L73.2158 282.159Z" fill="white"/>
    <path d="M52.2834 165.9C57.763 165.9 63.2426 166.019 68.6583 165.854C71.0693 165.781 71.7451 166.567 71.7451 168.932C71.7451 171.444 70.7497 171.964 68.4939 171.946C58.3475 171.845 48.192 171.946 38.0456 171.882C36.9881 171.925 35.9319 171.77 34.9314 171.425C33.1048 170.695 32.8491 168.868 32.8491 167.233C32.8491 164.822 34.8492 165.982 35.9086 165.955C41.3608 165.836 46.8221 165.9 52.2834 165.9Z" fill="#ECEBF2"/>
    <path d="M269.076 165.91C274.236 165.91 279.387 165.809 284.538 165.973C285.716 165.973 287.971 164.613 288.044 167.234C288.108 169.362 287.533 171.654 284.693 171.8C280.766 171.946 276.839 171.919 272.912 171.937C266.236 171.937 259.569 171.937 252.893 171.937C250.747 171.937 249.158 171.983 249.148 168.96C249.148 166.092 250.39 165.818 252.701 165.873C258.199 165.992 263.624 165.91 269.076 165.91Z" fill="#ECEBF2"/>
    <path d="M53.0148 162.183C48.6311 162.183 44.2474 162.238 39.8638 162.183C38.5578 162.183 36.6673 162.978 36.5851 160.356C36.5121 158.11 37.0235 156.32 39.5624 156.165C41.9643 156.018 44.3844 156.238 46.8046 156.247C53.3071 156.247 59.8095 156.338 66.3028 156.247C68.6956 156.201 69.3623 157.023 69.4171 159.37C69.481 161.982 68.3394 162.329 66.1659 162.265C61.7913 162.101 57.3985 162.183 53.0148 162.183Z" fill="#E6E5EE"/>
    <path d="M267.953 162.183C263.387 162.183 258.893 162.092 254.373 162.183C252.208 162.247 251.505 161.553 251.514 159.361C251.523 157.169 252.017 156.128 254.519 156.146C262.967 156.219 271.414 156.073 279.862 156.018C280.476 155.982 281.091 156.037 281.689 156.183C283.78 156.758 284.428 158.238 284.374 160.302C284.319 162.914 282.419 162.128 281.122 162.128C276.711 162.238 272.337 162.183 267.953 162.183Z" fill="#E6E5EE"/>
    <path d="M140.643 93.414C135.556 96.7566 131.885 99.8069 126.396 99.4507C120.222 99.058 114.003 99.3776 107.802 99.3502C106.094 99.3502 103.957 99.9439 104.149 96.8844C104.322 94.4734 105.418 93.3775 107.875 93.3957C118.396 93.4323 128.907 93.414 140.643 93.414Z" fill="#E6E5EE"/>
    <path d="M180.225 93.4141C191.86 93.4141 202.143 93.4597 212.39 93.4141C215.13 93.4141 216.774 94.1903 216.728 97.195C216.728 100.711 213.988 99.2863 212.39 99.332C206.956 99.4964 201.476 98.9941 196.079 99.4964C190.115 100.026 185.768 97.2498 180.225 93.4141Z" fill="#E6E5EE"/>
    <path d="M99.5638 117.963C99.1711 103.104 99.1711 103.104 112.934 103.104H123.227L123.464 103.825L99.5638 117.963Z" fill="#F8F8FC"/>
    <path d="M221.458 118.018L196.297 103.159C204.709 103.159 211.823 103.067 218.91 103.223C220.928 103.223 221.458 105.049 221.458 106.876C221.449 110.337 221.458 113.789 221.458 118.018Z" fill="#F8F8FC"/>
    <path d="M160.48 27.9968C163.494 27.9968 166.526 27.8507 169.53 27.9968C172.535 28.143 174.289 31.4216 173.184 34.2892C172.526 35.9605 171.412 34.9376 170.599 34.8372C164.164 33.9773 157.645 33.9436 151.201 34.7367C150.05 34.8829 147.667 36.5633 147.722 33.3029C147.722 31.0745 147.283 28.3621 150.562 28.1156C153.841 27.869 157.192 28.1156 160.507 28.1156L160.48 27.9968Z" fill="#ECEBF2"/>
    <path d="M240.573 207.326C241.87 212.13 239.733 212.979 235.231 213.107C230.326 213.253 229.833 211.482 229.587 207.217C229.276 202.048 231.505 201.819 235.578 201.737C240.016 201.609 241.825 202.851 240.573 207.326Z" fill="#E6E5EE"/>
    <path d="M122.205 207.326C123.492 212.121 121.373 212.979 116.862 213.107C111.958 213.244 111.465 211.481 111.209 207.217C110.907 202.057 113.127 201.81 117.209 201.737C121.638 201.618 123.456 202.851 122.205 207.326Z" fill="#E6E5EE"/>
    <path d="M198.717 207.417C197.356 202.522 199.731 201.938 204.105 201.709C209.128 201.481 209.402 203.481 209.704 207.636C210.087 212.915 207.649 212.933 203.667 213.116C199.128 213.225 197.539 211.737 198.717 207.417Z" fill="#E6E5EE"/>
    <path d="M175.401 202.047C180.58 200.467 180.315 203.7 180.671 207.573C181.128 212.632 178.844 212.733 174.835 213.052C169.209 213.527 169.693 210.623 169.356 206.714C169.018 201.673 171.529 201.362 175.401 202.047Z" fill="#ECEBF2"/>
    <path d="M151.118 207.418C152.643 212.596 149.931 212.815 145.793 213.116C140.359 213.509 140.624 210.906 140.222 206.879C139.638 201.061 142.962 202.157 146.451 201.828C151.2 201.344 152.387 203.299 151.118 207.418Z" fill="#ECEBF2"/>
    <path d="M93.0705 207.125C94.1482 211.573 92.7874 213.061 87.9197 213.134C82.8876 213.198 82.5223 211.308 82.3945 207.143C82.2483 202.65 83.6548 201.6 87.9562 201.709C92.0751 201.81 94.4952 202.404 93.0705 207.125Z" fill="#E6E5EE"/>
    <path d="M84.0026 296.169C81.9843 299.475 80.2582 302.096 78.7513 304.827C78.4003 305.552 77.8454 306.16 77.1544 306.575C76.4634 306.991 75.6664 307.195 74.8608 307.165C71.4908 307.393 70.1301 306.58 70.2945 302.827C70.6232 296.178 70.3584 296.169 76.9613 296.169H84.0026Z" fill="#F7F8FA"/>
    <path d="M236.929 296.159H243.175C250.829 296.159 251.842 297.447 250.482 305.292C250.308 306.269 250.189 307.237 249.011 307.064C246.819 306.735 244.162 308.324 242.527 305.465C240.892 302.607 239.02 299.602 236.929 296.159Z" fill="#F3F4F8"/>
    <path d="M161.008 4.37998C162.095 10.3801 163.429 16.3529 164.177 22.3896C164.598 25.7869 161.483 24.2161 159.958 24.3166C158.689 24.4353 156.122 25.4582 156.68 22.3074C157.73 16.3164 158.862 10.3436 159.958 4.37085L161.008 4.37998Z" fill="#E6E5EE"/>
    <path d="M175.092 198.285C173.429 198.285 171.758 198.285 170.087 198.285C169.704 198.318 169.318 198.268 168.955 198.14C168.593 198.011 168.263 197.806 167.986 197.538C167.71 197.271 167.495 196.947 167.354 196.589C167.214 196.231 167.152 195.847 167.173 195.463C167.128 195.077 167.165 194.686 167.283 194.316C167.4 193.945 167.594 193.604 167.854 193.315C168.113 193.026 168.43 192.795 168.785 192.638C169.141 192.48 169.525 192.4 169.913 192.403C173.247 192.312 176.589 192.33 179.959 192.403C180.343 192.375 180.727 192.431 181.087 192.566C181.447 192.702 181.773 192.913 182.043 193.187C182.313 193.46 182.52 193.789 182.651 194.15C182.781 194.512 182.832 194.897 182.8 195.28C182.8 197.271 181.777 198.358 179.704 198.321C178.187 198.321 176.671 198.321 175.137 198.321L175.092 198.285Z" fill="#ECEBF2"/>
    <path d="M204.005 198.285C202.342 198.285 200.671 198.331 199.009 198.285C198.626 198.312 198.242 198.257 197.883 198.123C197.523 197.989 197.196 197.779 196.925 197.508C196.653 197.237 196.442 196.911 196.307 196.552C196.172 196.193 196.116 195.809 196.141 195.426C196.141 193.673 197.055 192.467 198.817 192.404C202.151 192.294 205.484 192.303 208.817 192.404C209.199 192.372 209.583 192.425 209.942 192.559C210.301 192.692 210.626 192.904 210.894 193.178C211.162 193.452 211.366 193.781 211.491 194.143C211.617 194.505 211.661 194.89 211.621 195.271C211.621 197.417 210.525 198.285 208.553 198.321C207.055 198.285 205.521 198.285 204.005 198.285Z" fill="#ECEBF2"/>
    <path d="M146.607 192.357C148.982 192.86 153.74 190.796 153.576 195.636C153.42 200.056 148.872 197.846 146.206 198.266C144.558 198.449 142.894 198.449 141.246 198.266C139.31 198.147 138.141 197.088 138.242 195.079C138.333 193.252 139.429 192.394 141.21 192.339C142.991 192.284 144.525 192.357 146.607 192.357Z" fill="#ECEBF2"/>
    <path d="M116.851 198.23C115.189 198.23 113.518 198.349 111.865 198.23C110.212 198.111 109.29 196.906 109.308 195.116C109.27 194.774 109.305 194.427 109.413 194.101C109.521 193.774 109.698 193.474 109.932 193.222C110.166 192.969 110.451 192.771 110.769 192.639C111.087 192.507 111.43 192.445 111.774 192.458C115.244 192.348 118.724 192.33 122.194 192.458C124.021 192.522 124.852 193.791 124.769 195.545C124.779 195.924 124.708 196.3 124.561 196.65C124.415 196.999 124.196 197.314 123.919 197.573C123.642 197.832 123.313 198.029 122.954 198.152C122.596 198.274 122.215 198.32 121.838 198.285C120.176 198.34 118.514 198.285 116.851 198.285V198.23Z" fill="#ECEBF2"/>
    <path d="M88.3773 192.421C90.0212 192.421 91.6833 192.293 93.3181 192.421C95.1446 192.604 95.8661 193.873 95.7748 195.59C95.786 195.933 95.7273 196.274 95.6022 196.593C95.4771 196.912 95.2883 197.202 95.0473 197.446C94.8062 197.69 94.518 197.882 94.2003 198.01C93.8826 198.138 93.542 198.201 93.1994 198.193C89.8933 198.294 86.5964 198.275 83.2904 198.257C81.3452 198.257 80.167 197.344 80.2127 195.243C80.2584 193.143 81.4821 192.33 83.4183 192.321H88.3773V192.421Z" fill="#ECEBF2"/>
    <path d="M235.212 198.285C233.55 198.285 231.878 198.349 230.216 198.285C229.873 198.301 229.529 198.245 229.209 198.118C228.889 197.992 228.6 197.798 228.36 197.551C228.121 197.304 227.937 197.008 227.821 196.685C227.705 196.361 227.659 196.016 227.686 195.673C227.595 193.901 228.253 192.568 230.098 192.485C233.577 192.339 237.066 192.348 240.545 192.485C242.372 192.549 243.221 193.81 243.148 195.563C243.164 195.946 243.098 196.327 242.954 196.682C242.811 197.038 242.593 197.358 242.315 197.622C242.037 197.885 241.706 198.087 241.344 198.212C240.982 198.338 240.598 198.384 240.216 198.349C238.545 198.403 236.883 198.349 235.212 198.349V198.285Z" fill="#ECEBF2"/>
    <path d="M236.006 268.296C234.516 268.434 233.015 268.406 231.531 268.214C230.462 267.958 228.015 269.127 228.599 266.296C228.965 264.47 228.754 262.196 231.777 262.424C233.714 262.689 235.677 262.689 237.613 262.424C241.348 261.675 242.179 264.25 242.179 266.698C242.179 269.949 239.294 267.904 237.778 268.433C237.173 268.533 236.556 268.533 235.951 268.433L236.006 268.296Z" fill="#ECEBF2"/>
    <path d="M87.9743 268.433C86.8068 268.518 85.6348 268.518 84.4673 268.433C83.2253 268.223 80.9421 269.41 81.2252 266.78C81.417 264.953 81.07 262.214 84.4399 262.469C86.5434 262.698 88.6654 262.698 90.7689 262.469C94.1297 261.958 94.5863 264.241 94.769 266.451C95.0247 269.492 92.4949 267.784 91.2255 268.141C90.1521 268.331 89.0644 268.428 87.9743 268.433V268.433Z" fill="#ECEBF2"/>
    <path d="M196.306 268.067C197.731 265.675 196.909 262.944 198.982 262.67C202.433 262.254 205.924 262.319 209.357 262.862C210.681 263.072 210.727 265.455 210.681 266.908C210.617 268.88 208.854 267.985 207.877 268.022C204.315 268.14 200.662 268.067 196.306 268.067Z" fill="#F8F8FC"/>
    <path d="M123.801 268.067C120.248 268.067 116.65 268.149 113.061 268.067C112.011 268.067 109.919 268.98 110.266 266.542C110.513 264.77 110.184 262.323 113.28 262.505C114.798 262.669 116.329 262.669 117.847 262.505C121.938 261.802 123.947 263.437 123.801 268.067Z" fill="#F7F8FA"/>
    <path d="M152.854 268.067C149.283 268.067 145.666 268.159 142.068 268.013C141.045 268.013 138.89 269.026 139.328 266.515C139.602 264.78 139.182 262.241 142.333 262.46C143.85 262.627 145.382 262.627 146.899 262.46C150.954 261.83 153.045 263.391 152.854 268.067Z" fill="#F8F8FC"/>
    <path d="M167.456 268.068C168.844 265.949 167.638 262.999 170.113 262.67C173.559 262.254 177.047 262.338 180.47 262.917C181.675 263.118 181.675 265.574 181.666 267.036C181.666 268.689 180.095 268.013 179.218 268.031C175.602 268.122 171.985 268.068 167.456 268.068Z" fill="#F8F8FC"/>
    <path d="M247.504 267.749L247.385 267.547L247.624 267.556L247.504 267.749Z" fill="#F7F8FA"/>
    <path d="M137.502 13.8047C139.045 14.8732 142.004 12.4257 142.233 15.5125C142.443 18.3162 139.977 19.6131 137.356 19.6953C134.735 19.7775 132.095 18.4897 132.223 15.8047C132.406 12.1151 135.821 15.0924 137.502 13.8047Z" fill="#ECEBF2"/>
    <path d="M183.677 13.8047C185.284 14.9828 188.471 12.4165 188.682 15.6312C188.864 18.371 186.325 19.7044 183.695 19.6861C181.065 19.6679 178.508 18.4258 178.69 15.6495C178.91 12.38 182.097 14.9828 183.677 13.8047Z" fill="#ECEBF2"/>
    <path d="M176.799 127.689C176.797 130.913 175.842 134.063 174.054 136.746C172.267 139.428 169.726 141.522 166.751 142.764C163.777 144.006 160.501 144.341 157.337 143.726C154.173 143.112 151.26 141.576 148.967 139.311C146.673 137.047 145.1 134.154 144.445 130.998C143.791 127.842 144.084 124.562 145.288 121.572C146.492 118.582 148.553 116.015 151.212 114.193C153.871 112.371 157.01 111.376 160.233 111.333C162.395 111.316 164.54 111.726 166.544 112.539C168.548 113.353 170.371 114.553 171.91 116.073C173.449 117.592 174.673 119.401 175.512 121.394C176.351 123.387 176.789 125.526 176.799 127.689V127.689ZM160.607 115.013C158.11 114.985 155.661 115.696 153.567 117.057C151.473 118.417 149.829 120.367 148.84 122.66C147.852 124.953 147.564 127.487 148.013 129.944C148.461 132.4 149.626 134.669 151.361 136.465C153.096 138.261 155.324 139.504 157.763 140.036C160.203 140.569 162.746 140.369 165.071 139.46C167.397 138.551 169.402 136.974 170.834 134.929C172.266 132.883 173.061 130.46 173.119 127.963C173.144 124.596 171.848 121.354 169.508 118.932C167.169 116.511 163.973 115.104 160.607 115.013V115.013Z" fill="#252464"/>
    <path d="M47.5171 222.093C47.5171 217.856 47.6907 213.618 47.4623 209.399C47.298 206.321 48.6222 205.563 51.4168 205.444C65.6638 204.814 65.6637 204.76 65.6637 219.043C65.6637 224.176 65.5268 229.317 65.6637 234.45C65.7733 237.491 64.4674 238.331 61.6545 238.459C47.4715 239.126 47.4715 239.181 47.4715 225.262L47.5171 222.093ZM51.3255 228.769C51.1245 234.614 51.1245 234.614 56.8051 234.605C57.4133 234.567 58.0233 234.567 58.6316 234.605C61.1522 234.897 62.0837 233.902 62.0016 231.299C61.8006 224.997 61.8463 218.696 61.7915 212.394C62.2207 210.431 61.8828 209.125 59.4444 209.253C57.6353 209.381 55.8195 209.381 54.0105 209.253C51.8552 209.07 51.1245 209.81 51.1976 212.038C51.362 217.609 51.2981 223.189 51.3255 228.769Z" fill="#29286B"/>
    <path d="M56.2753 199.654C47.5171 199.654 45.5445 197.033 47.5262 188.312C47.9372 186.531 49.0514 186.156 50.467 186.138C54.5584 186.083 58.6529 186.083 62.7504 186.138C64.4947 186.138 65.6454 186.969 65.6272 188.878C65.618 189.027 65.618 189.176 65.6272 189.325C66.6044 199.654 66.6044 199.654 56.2753 199.654ZM56.0288 196.001C56.8988 195.954 57.7707 195.954 58.6407 196.001C61.0517 196.312 62.0654 195.59 62.0654 192.869C62.0654 190.147 60.8691 189.517 58.522 189.745C57.3094 189.904 56.0814 189.904 54.8689 189.745C51.362 189.179 50.8779 191.024 51.1245 193.901C51.5355 198.221 54.8598 194.759 56.0288 195.992V196.001Z" fill="#252464"/>
    <path d="M273.394 222.331C273.394 226.559 273.276 230.797 273.449 235.016C273.54 237.427 272.445 238.285 270.307 238.386H269.394C255.257 239.162 255.257 239.162 255.257 225.116C255.257 219.828 255.385 214.541 255.202 209.253C255.111 206.467 256.207 205.417 258.855 205.454C262.508 205.508 266.134 205.508 269.732 205.454C272.326 205.408 273.577 206.303 273.44 209.161C273.248 213.563 273.394 217.947 273.394 222.331ZM259.111 227.883C258.864 234.614 258.864 234.614 265.239 234.587C265.543 234.563 265.848 234.563 266.152 234.587C268.764 234.961 269.906 234.148 269.805 231.217C269.531 225.226 269.632 219.226 269.586 213.225C270.499 209.965 269.102 208.851 265.933 209.253C264.72 209.398 263.493 209.398 262.28 209.253C259.741 208.97 258.846 209.965 258.956 212.55C259.156 217.664 259.111 222.769 259.111 227.883Z" fill="#29286B"/>
    <path d="M264.126 199.654C255.295 199.654 253.267 196.997 255.295 188.366C255.697 186.64 256.783 186.193 258.217 186.147C260.336 186.065 262.464 186.147 264.61 186.147C274.957 186.193 273.122 185.289 273.469 194.768C273.606 198.421 272.619 200.248 268.692 199.709C267.173 199.594 265.648 199.576 264.126 199.654V199.654ZM263.925 196.001C264.838 196.001 265.487 195.956 266.08 196.001C268.464 196.257 269.871 196.001 269.861 192.814C269.861 189.389 268.035 189.718 265.843 189.773C264.792 189.873 263.734 189.873 262.683 189.773C258.555 189.07 258.491 191.837 259.03 194.412C259.724 197.517 262.592 195.179 263.925 195.992V196.001Z" fill="#252464"/>
    <path d="M160.607 115.013C163.106 115.038 165.542 115.803 167.608 117.21C169.673 118.618 171.275 120.606 172.213 122.923C173.15 125.24 173.38 127.783 172.875 130.231C172.369 132.679 171.15 134.922 169.371 136.678C167.592 138.434 165.333 139.624 162.879 140.098C160.425 140.572 157.885 140.309 155.58 139.342C153.276 138.374 151.309 136.746 149.928 134.663C148.547 132.579 147.814 130.134 147.821 127.634C147.887 124.279 149.261 121.083 151.649 118.725C154.037 116.368 157.251 115.036 160.607 115.013V115.013Z" fill="#FBFCFE"/>
    <path d="M61.7724 212.404C61.8272 218.706 61.7724 225.007 61.9825 231.309C62.0647 233.911 61.1331 234.907 58.6125 234.615C58.0043 234.577 57.3943 234.577 56.786 234.615C51.0963 234.615 51.0963 234.615 51.3064 228.779C55.6444 223.856 58.0646 217.719 61.7724 212.404Z" fill="#B3D6F1"/>
    <path d="M61.7731 212.403C58.0653 217.719 55.6451 223.847 51.3254 228.769C51.3254 223.189 51.3254 217.609 51.1792 212.038C51.1062 209.81 51.8368 209.07 53.9921 209.253C55.8011 209.381 57.617 209.381 59.426 209.253C61.8462 209.134 62.2024 210.44 61.7731 212.403Z" fill="white"/>
    <path d="M56.0285 195.992C54.8595 194.759 51.5352 198.22 51.1608 193.901C50.9142 191.024 51.3982 189.179 54.9052 189.745C56.1177 189.904 57.3457 189.904 58.5582 189.745C60.9053 189.517 62.1017 190.056 62.1017 192.869C62.1017 195.681 61.088 196.312 58.6769 196.001C57.795 195.949 56.9108 195.946 56.0285 195.992V195.992Z" fill="#F3F4F8"/>
    <path d="M269.532 213.226C269.532 219.226 269.477 225.226 269.751 231.217C269.888 234.149 268.746 234.962 266.098 234.587C265.794 234.564 265.489 234.564 265.185 234.587C258.792 234.587 258.792 234.587 259.057 227.875C260.929 227.765 261.276 226.121 262.08 224.916C264.682 221.116 266.481 216.76 269.532 213.226Z" fill="#B3D6F1"/>
    <path d="M269.533 213.226C266.482 216.76 264.683 221.071 262.126 224.916C261.322 226.121 260.975 227.765 259.103 227.875C259.103 222.769 259.158 217.664 258.948 212.559C258.838 209.975 259.733 208.979 262.272 209.262C263.485 209.407 264.712 209.407 265.925 209.262C269.049 208.851 270.418 209.965 269.533 213.226Z" fill="white"/>
    <path d="M263.924 195.993C262.591 195.18 259.723 197.518 259.047 194.395C258.49 191.819 258.554 189.052 262.7 189.755C263.751 189.856 264.809 189.856 265.86 189.755C268.006 189.701 269.869 189.372 269.878 192.796C269.878 195.993 268.481 196.24 266.097 195.984C265.504 195.947 264.874 195.993 263.924 195.993Z" fill="#F3F4F8"/>
</svg>
