<svg width="704" height="493" viewBox="0 0 704 493" fill="none" xmlns="http://www.w3.org/2000/svg">
<path d="M167.46 442C130.62 392.52 163.38 387.43 90.9599 300.73C18.5399 214.03 127.68 148.73 156.24 99.7896C184.8 50.8496 239.88 45.7296 342.9 107.95C445.92 170.17 502 88.5196 579.54 179.3C657.08 270.08 654 389.42 586.68 448.58C519.36 507.74 434.68 451.64 344.94 473.06C255.2 494.48 201.63 487.85 167.46 442Z" fill="#B9CCEF"/>
<path d="M703.9 488.84C703.9 488.84 546.35 492.92 352 492.92C157.65 492.92 0.0996094 488.84 0.0996094 488.84C0.0996094 488.84 157.65 484.76 352 484.76C546.35 484.76 703.9 488.84 703.9 488.84Z" fill="#282726"/>
<path d="M565 395.91L566 395.34C546.73 360.1 515.62 333.57 515.31 333.34L514.55 334.24C514.9 334.47 545.85 360.86 565 395.91Z" fill="white"/>
<path d="M549.81 371.89L549.93 370.72C549.71 370.72 527.53 368.37 521.09 365.96L520.68 367.06C527.26 369.53 548.89 371.8 549.81 371.89Z" fill="white"/>
<path d="M534.09 351.25C537.18 343.57 537.76 331.69 537.79 331.19L536.61 331.13C536.61 331.25 536.01 343.32 533 350.81L534.09 351.25Z" fill="white"/>
<path d="M560.3 356.05C568.23 369.94 573.06 385.86 571.74 395.69C553.68 379.94 557.44 358.64 560.3 356.05Z" fill="#252724"/>
<path d="M581.29 317.24C604.29 307.7 597.29 364.98 577.17 395.69H567.77C563.08 388 562.7 325 581.29 317.24Z" fill="#4F8FAA"/>
<path d="M572.32 395.81C575.93 378.81 585.72 323.94 585.82 323.39L584.65 323.18C584.55 323.73 574.77 378.57 571.16 395.57L572.32 395.81Z" fill="white"/>
<path d="M585.629 366.195L575.593 376.27L576.429 377.102L586.465 367.028L585.629 366.195Z" fill="white"/>
<path d="M568.281 345.65L567.604 346.616L579.036 354.627L579.713 353.661L568.281 345.65Z" fill="white"/>
<path d="M535.91 395.78V403.68C535.882 412.508 537.73 421.241 541.331 429.3L542.74 432.4L552.201 488.08H579.081L589.081 432.4L590.501 429.3C594.101 421.241 595.949 412.508 595.92 403.68V395.78H535.91Z" fill="#E16618"/>
<path d="M580.979 415.06H536.27V416.24H580.979V415.06Z" fill="#252724"/>
<path d="M589.37 431.73H573.37V432.91H589.37V431.73Z" fill="#252724"/>
<path d="M551.7 488.67H553.19V487.49H552.7L543.28 432.16L541.87 429.05C538.305 421.069 536.475 412.422 536.5 403.68V396.37H595.94V395.19H535.32V403.68C535.294 412.59 537.158 421.404 540.79 429.54L542.17 432.54L551.7 488.67Z" fill="#252724"/>
<path d="M398.51 148.42H539.2L539.82 59.7604L468.23 4.65039L396.64 60.3704L398.51 148.42Z" fill="#366274"/>
<path d="M521.67 1.66992H415.71V130.46H521.67V1.66992Z" fill="white"/>
<path d="M522.599 131.39H414.77V0.730469H522.599V131.39ZM416.599 129.52H520.729V2.60047H416.64L416.599 129.52Z" fill="#4B8BA3"/>
<path d="M396.64 161.55H539.82L489.21 113.95H447.52L396.64 161.55Z" fill="#366274"/>
<path d="M447.61 113.95L396.74 63.0596V161.52L447.61 113.95Z" fill="#4C8AA0"/>
<path d="M539.9 63.0596L489.21 113.95L539.9 161.52V63.0596Z" fill="#4C8AA0"/>
<path d="M473.27 67.4298C472.005 68.9057 470.497 70.1538 468.81 71.1198C467.259 72.062 465.471 72.5435 463.656 72.5081C461.841 72.4727 460.074 71.9218 458.56 70.9198C456.725 69.7222 455.274 68.021 454.38 66.0198C453.296 63.7545 452.745 61.271 452.77 58.7598C452.807 55.3529 453.665 52.005 455.27 48.9998C456.661 46.0544 458.799 43.524 461.47 41.6598C463.572 40.1437 466.08 39.2905 468.67 39.2098C470.46 39.2115 472.218 39.6914 473.76 40.5998C475.482 41.6395 476.913 43.0981 477.92 44.8398L479 40.0998H484.48L480 60.6598C479.39 63.5198 479.08 65.0998 479.08 65.3998C479.078 65.6692 479.133 65.936 479.241 66.1826C479.35 66.4291 479.51 66.6497 479.71 66.8298C479.91 67.0247 480.146 67.178 480.405 67.281C480.664 67.384 480.941 67.4346 481.22 67.4298C482.791 67.2308 484.27 66.5813 485.48 65.5598C487.851 63.8749 489.755 61.6138 491.01 58.9898C492.329 56.3472 493.014 53.4334 493.01 50.4798C493.024 47.1139 492.118 43.8082 490.39 40.9198C488.525 37.8475 485.814 35.3787 482.58 33.8098C479.022 32.0155 475.085 31.1032 471.1 31.1498C466.519 31.1009 462.005 32.2561 458.01 34.4998C454.062 36.7296 450.862 40.0764 448.81 44.1198C446.646 48.2678 445.527 52.8813 445.55 57.5598C445.428 62.0875 446.556 66.5614 448.81 70.4898C450.999 74.1154 454.315 76.9251 458.25 78.4898C462.612 80.2732 467.288 81.1576 472 81.0898C476.631 81.2384 481.233 80.3179 485.45 78.3998C488.666 76.9314 491.459 74.6751 493.57 71.8398H499.12C497.779 74.3553 495.958 76.5839 493.76 78.3998C491.105 80.6911 488.056 82.4802 484.76 83.6798C480.698 85.0712 476.422 85.7314 472.13 85.6298C467.887 85.6671 463.661 85.0774 459.59 83.8798C455.992 82.842 452.655 81.0526 449.8 78.6298C447.197 76.4182 445.114 73.6592 443.7 70.5498C441.968 66.6123 441.092 62.3515 441.13 58.0498C441.116 53.1353 442.16 48.2753 444.19 43.7998C446.396 38.6065 450.092 34.1835 454.81 31.0898C459.39 28.1498 464.95 26.6765 471.49 26.6698C476.224 26.5938 480.906 27.6606 485.14 29.7798C489.173 31.8537 492.497 35.0806 494.69 39.0498C496.675 42.5637 497.709 46.5343 497.69 50.5698C497.712 56.4375 495.474 62.0885 491.44 66.3498C487.72 70.4765 483.653 72.5398 479.24 72.5398C478.066 72.5881 476.897 72.3693 475.82 71.8998C475 71.5113 474.329 70.8651 473.91 70.0598C473.544 69.2275 473.327 68.3373 473.27 67.4298V67.4298ZM458.44 59.1198C458.296 61.4666 459.006 63.7863 460.44 65.6498C460.975 66.359 461.662 66.9385 462.452 67.3454C463.241 67.7522 464.112 67.9759 465 67.9998C466.268 67.9742 467.51 67.6303 468.61 66.9998C469.996 66.2335 471.227 65.2162 472.24 63.9998C473.489 62.4758 474.452 60.7376 475.08 58.8698C475.799 56.871 476.171 54.764 476.18 52.6398C476.328 50.2997 475.589 47.9897 474.11 46.1698C473.494 45.4461 472.727 44.8655 471.864 44.4682C471 44.071 470.061 43.8668 469.11 43.8698C467.813 43.865 466.538 44.2105 465.42 44.8698C464.077 45.6667 462.913 46.7323 462 47.9998C460.842 49.6297 459.963 51.4411 459.4 53.3598C458.793 55.2207 458.469 57.1625 458.44 59.1198V59.1198Z" fill="#292625"/>
<path d="M554.05 282.63H637.46L637.83 230.06L595.38 197.39L552.93 230.43L554.05 282.63Z" fill="#366274"/>
<path d="M627.07 195.62H564.24V271.98H627.07V195.62Z" fill="#E34462"/>
<path d="M552.93 290.42H637.83L607.82 262.19H583.1L552.93 290.42Z" fill="#366274"/>
<path d="M583.16 262.19L552.99 232.02V290.4L583.16 262.19Z" fill="#4C8AA0"/>
<path d="M637.88 232.02L607.82 262.19L637.88 290.4V232.02Z" fill="#4C8AA0"/>
<path d="M581.54 218C581.59 215.59 582.15 213.82 583.23 212.67C583.791 212.097 584.469 211.651 585.219 211.365C585.968 211.078 586.77 210.957 587.57 211.01C588.385 210.981 589.197 211.128 589.95 211.442C590.702 211.757 591.378 212.23 591.93 212.83C592.97 214.01 593.467 215.81 593.42 218.23C593.374 220.65 592.81 222.427 591.73 223.56C591.171 224.135 590.493 224.581 589.743 224.868C588.994 225.155 588.191 225.275 587.39 225.22C586.575 225.249 585.764 225.102 585.011 224.788C584.258 224.473 583.583 224 583.03 223.4C582 222.24 581.5 220.44 581.54 218ZM585.54 218C585.41 219.207 585.596 220.427 586.08 221.54C586.222 221.745 586.41 221.914 586.629 222.032C586.849 222.15 587.093 222.214 587.342 222.219C587.592 222.224 587.838 222.17 588.062 222.06C588.286 221.951 588.481 221.79 588.63 221.59C589.455 219.337 589.505 216.874 588.77 214.59C588.635 214.378 588.45 214.202 588.231 214.078C588.012 213.954 587.766 213.885 587.514 213.878C587.262 213.871 587.013 213.926 586.787 214.038C586.562 214.15 586.367 214.315 586.22 214.52C585.694 215.618 585.467 216.836 585.56 218.05L585.54 218ZM590.94 239.44L587.12 239.37L602 211.3L605.7 211.37L590.94 239.44ZM599.41 232.54C599.41 230.12 600.01 228.35 601.1 227.21C601.664 226.631 602.346 226.181 603.101 225.893C603.856 225.605 604.664 225.484 605.47 225.54C606.281 225.516 607.088 225.667 607.835 225.982C608.582 226.298 609.253 226.772 609.8 227.37C610.8 228.55 611.33 230.37 611.28 232.76C611.23 235.15 610.67 236.97 609.59 238.11C609.031 238.685 608.353 239.131 607.603 239.418C606.854 239.705 606.051 239.825 605.25 239.77C604.434 239.801 603.621 239.653 602.868 239.337C602.115 239.021 601.44 238.544 600.89 237.94C599.864 236.793 599.377 235.01 599.43 232.59L599.41 232.54ZM603.41 232.59C603.272 233.79 603.455 235.004 603.94 236.11C604.071 236.326 604.256 236.505 604.477 236.628C604.698 236.751 604.948 236.813 605.2 236.81C605.45 236.826 605.7 236.777 605.925 236.666C606.149 236.556 606.341 236.388 606.48 236.18C607.005 235.085 607.236 233.872 607.15 232.66C607.276 231.458 607.098 230.244 606.63 229.13C606.496 228.915 606.308 228.739 606.086 228.618C605.863 228.497 605.614 228.436 605.36 228.44C605.11 228.427 604.86 228.479 604.636 228.591C604.412 228.703 604.22 228.872 604.08 229.08C603.556 230.189 603.338 231.418 603.45 232.64L603.41 232.59Z" fill="white"/>
<path d="M174.22 72.6902H226.77L227.01 39.5702L200.27 18.9902L173.52 39.8002L174.22 72.6902Z" fill="#366274"/>
<path d="M220.23 17.8701H180.65V65.9801H220.23V17.8701Z" fill="#E16618"/>
<path d="M173.52 77.5896H227.01L208.1 59.8096H192.53L173.52 77.5896Z" fill="#366274"/>
<path d="M192.56 59.8098L173.56 40.7998V77.5798L192.56 59.8098Z" fill="#4C8AA0"/>
<path d="M227.04 40.7998L208.1 59.8098L227.04 77.5798V40.7998Z" fill="#4C8AA0"/>
<path d="M201.89 26.1698C202.457 26.243 203.011 26.391 203.54 26.6098C204.608 27.0315 205.496 27.8132 206.05 28.8198C206.359 29.4016 206.572 30.0298 206.68 30.6798H204.59C204.393 30.0491 204.05 29.4736 203.59 28.9998C203.124 28.5755 202.543 28.3003 201.92 28.2098V33.9998L203.17 34.5498C203.58 34.7298 203.98 34.9298 204.36 35.1398C204.726 35.3508 205.077 35.5881 205.41 35.8498C205.726 36.0981 206.009 36.3873 206.25 36.7098C206.488 37.0117 206.677 37.3491 206.81 37.7098C206.95 38.125 207.018 38.5615 207.01 38.9998C207.032 39.7119 206.881 40.4188 206.57 41.0598C206.283 41.6235 205.885 42.1235 205.4 42.5298C204.91 42.933 204.355 43.2508 203.76 43.4698C203.166 43.688 202.548 43.8357 201.92 43.9098V46.8198H199.8V43.8198C199.176 43.6891 198.58 43.4487 198.04 43.1098C197.493 42.7652 197.001 42.3405 196.58 41.8498C196.142 41.3341 195.776 40.7624 195.49 40.1498C195.194 39.4946 194.992 38.8012 194.89 38.0898H197.11C197.179 38.515 197.296 38.9311 197.46 39.3298C197.611 39.7047 197.805 40.0605 198.04 40.3898C198.261 40.6947 198.528 40.9644 198.83 41.1898C199.129 41.4189 199.468 41.5917 199.83 41.6998V35.4998C199.25 35.2398 198.68 34.9598 198.14 34.6798C197.621 34.4003 197.135 34.065 196.69 33.6798C196.283 33.3043 195.945 32.8611 195.69 32.3698C195.443 31.8406 195.315 31.2637 195.315 30.6798C195.315 30.0959 195.443 29.519 195.69 28.9898C195.939 28.4861 196.278 28.0321 196.69 27.6498C197.115 27.2391 197.605 26.9012 198.14 26.6498C198.695 26.3942 199.285 26.2192 199.89 26.1298V24.2998H202.01L201.89 26.1698ZM197.43 30.5498C197.423 30.8422 197.482 31.1323 197.6 31.3998C197.722 31.6567 197.884 31.8929 198.08 32.0998C198.302 32.3286 198.55 32.53 198.82 32.6998C199.126 32.8946 199.443 33.0716 199.77 33.2298V28.2298C199.116 28.3145 198.507 28.6052 198.03 29.0598C197.643 29.4591 197.428 29.9939 197.43 30.5498V30.5498ZM204.79 39.1498C204.792 38.8463 204.709 38.5483 204.55 38.2898C204.377 38.011 204.161 37.7613 203.91 37.5498C203.623 37.3015 203.311 37.0836 202.98 36.8998C202.63 36.6998 202.27 36.5198 201.89 36.3498V41.9998C202.306 41.9481 202.711 41.8299 203.09 41.6498C203.428 41.4873 203.736 41.2674 204 40.9998C204.248 40.7585 204.446 40.4693 204.58 40.1498C204.717 39.8341 204.788 39.4939 204.79 39.1498V39.1498Z" fill="white"/>
<path d="M22.8299 199.09H93.9599L94.2799 154.26L58.0799 126.4L21.8799 154.57L22.8299 199.09Z" fill="#366274"/>
<path d="M85.0895 124.89H31.5195V190.01H85.0895V124.89Z" fill="#E695AE"/>
<path d="M21.8799 205.73H94.2799L68.6899 181.66H47.6099L21.8799 205.73Z" fill="#366274"/>
<path d="M47.6497 181.66L21.9297 155.93V205.71L47.6497 181.66Z" fill="#4C8AA0"/>
<path d="M94.3104 155.93L68.6904 181.66L94.3104 205.71V155.93Z" fill="#4C8AA0"/>
<path d="M55.7596 138.61H55.4596C55.3051 138.61 55.1521 138.641 55.0095 138.7C54.8669 138.76 54.7375 138.847 54.6287 138.957C54.52 139.066 54.434 139.196 54.3758 139.34C54.3176 139.483 54.2883 139.636 54.2896 139.79V143.41C54.287 143.536 54.2353 143.655 54.1455 143.743C54.0558 143.831 53.9352 143.88 53.8096 143.88C53.685 143.88 53.5654 143.831 53.4773 143.743C53.3891 143.655 53.3396 143.535 53.3396 143.41V139.79C53.3396 139.479 53.2167 139.18 52.9975 138.959C52.7784 138.738 52.4808 138.613 52.1696 138.61H51.8696C51.5566 138.61 51.2565 138.735 51.0352 138.956C50.8139 139.177 50.6896 139.477 50.6896 139.79V143.41C50.6896 143.535 50.6401 143.655 50.5519 143.743C50.4638 143.831 50.3443 143.88 50.2196 143.88C50.095 143.88 49.9754 143.831 49.8873 143.743C49.7991 143.655 49.7496 143.535 49.7496 143.41V139.79C49.7496 139.477 49.6253 139.177 49.404 138.956C49.1827 138.735 48.8826 138.61 48.5696 138.61H48.2796C47.9666 138.61 47.6665 138.735 47.4452 138.956C47.2239 139.177 47.0996 139.477 47.0996 139.79V147.28C47.0991 147.796 47.2726 148.297 47.592 148.701C47.9114 149.106 48.358 149.391 48.8596 149.51L49.0496 149.56V159.17C49.1515 159.885 49.508 160.54 50.0536 161.013C50.5992 161.487 51.2973 161.747 52.0196 161.747C52.7419 161.747 53.44 161.487 53.9856 161.013C54.5312 160.54 54.8877 159.885 54.9896 159.17V149.56L55.1796 149.51C55.6793 149.389 56.1237 149.103 56.4411 148.699C56.7586 148.294 56.9306 147.795 56.9296 147.28V139.79C56.9296 139.479 56.8067 139.18 56.5875 138.959C56.3684 138.738 56.0708 138.613 55.7596 138.61V138.61ZM56.2296 147.28C56.2296 147.702 56.0621 148.106 55.7639 148.405C55.4657 148.703 55.0613 148.87 54.6396 148.87C54.5468 148.87 54.4578 148.907 54.3921 148.973C54.3265 149.039 54.2896 149.128 54.2896 149.22V159.17C54.2896 159.772 54.0504 160.35 53.6247 160.775C53.199 161.201 52.6216 161.44 52.0196 161.44C51.4176 161.44 50.8402 161.201 50.4145 160.775C49.9888 160.35 49.7496 159.772 49.7496 159.17V149.22C49.7496 149.128 49.7127 149.039 49.6471 148.973C49.5815 148.907 49.4924 148.87 49.3996 148.87C48.977 148.87 48.5715 148.703 48.2718 148.405C47.972 148.107 47.8022 147.703 47.7996 147.28V139.79C47.8022 139.665 47.8539 139.545 47.9437 139.457C48.0334 139.37 48.154 139.32 48.2796 139.32H48.5696C48.6952 139.32 48.8158 139.37 48.9055 139.457C48.9953 139.545 49.047 139.665 49.0496 139.79V143.41C49.0767 143.703 49.2121 143.976 49.4295 144.174C49.6469 144.372 49.9304 144.482 50.2246 144.482C50.5188 144.482 50.8023 144.372 51.0197 144.174C51.2371 143.976 51.3725 143.703 51.3996 143.41V139.79C51.3996 139.666 51.4491 139.546 51.5373 139.458C51.6254 139.37 51.7449 139.32 51.8696 139.32H52.1696C52.2943 139.32 52.4138 139.37 52.5019 139.458C52.5901 139.546 52.6396 139.666 52.6396 139.79V143.41C52.6667 143.703 52.8021 143.976 53.0195 144.174C53.2369 144.372 53.5204 144.482 53.8146 144.482C54.1088 144.482 54.3923 144.372 54.6097 144.174C54.8271 143.976 54.9626 143.703 54.9896 143.41V139.79C54.9896 139.666 55.0391 139.546 55.1273 139.458C55.2154 139.37 55.335 139.32 55.4596 139.32H55.7596C55.8843 139.32 56.0038 139.37 56.092 139.458C56.1801 139.546 56.2296 139.666 56.2296 139.79V147.28Z" fill="white"/>
<path d="M69.1598 138.61H65.7198C64.834 138.617 63.9588 138.803 63.1469 139.158C62.3351 139.512 61.6034 140.027 60.996 140.672C60.3886 141.317 59.9181 142.078 59.6128 142.909C59.3075 143.741 59.1738 144.626 59.2198 145.51V153C59.2198 153.218 59.3062 153.426 59.4599 153.58C59.6137 153.734 59.8223 153.82 60.0398 153.82H63.5798V159.18C63.6817 159.895 64.0381 160.55 64.5837 161.023C65.1294 161.497 65.8274 161.757 66.5498 161.757C67.2721 161.757 67.9702 161.497 68.5158 161.023C69.0614 160.55 69.4179 159.895 69.5198 159.18V139C69.5239 138.951 69.5177 138.901 69.5015 138.853C69.4853 138.806 69.4594 138.763 69.4255 138.726C69.3917 138.689 69.3506 138.66 69.3048 138.64C69.2591 138.62 69.2097 138.61 69.1598 138.61V138.61ZM68.8098 159.17C68.8304 159.48 68.7871 159.791 68.6826 160.084C68.5781 160.377 68.4146 160.645 68.2023 160.872C67.9899 161.099 67.7333 161.28 67.4481 161.403C67.163 161.527 66.8555 161.591 66.5448 161.591C66.234 161.591 65.9265 161.527 65.6414 161.403C65.3563 161.28 65.0996 161.099 64.8872 160.872C64.6749 160.645 64.5114 160.377 64.4069 160.084C64.3024 159.791 64.2591 159.48 64.2798 159.17V153.93C64.2798 153.713 64.1934 153.504 64.0396 153.351C63.8858 153.197 63.6772 153.11 63.4598 153.11H59.9198V145.51C59.8765 144.719 59.994 143.927 60.2652 143.182C60.5363 142.437 60.9556 141.755 61.4976 141.176C62.0395 140.598 62.6931 140.135 63.4187 139.816C64.1444 139.497 64.9271 139.329 65.7198 139.32H68.8098V159.17Z" fill="white"/>
<path d="M66.5502 140.55C66.4574 140.55 66.3683 140.587 66.3027 140.652C66.2371 140.718 66.2002 140.807 66.2002 140.9V151.72C66.2002 151.766 66.2092 151.811 66.2268 151.854C66.2444 151.896 66.2702 151.935 66.3027 151.967C66.3352 152 66.3738 152.026 66.4163 152.043C66.4587 152.061 66.5042 152.07 66.5502 152.07C66.5962 152.07 66.6417 152.061 66.6841 152.043C66.7266 152.026 66.7652 152 66.7977 151.967C66.8302 151.935 66.856 151.896 66.8736 151.854C66.8911 151.811 66.9002 151.766 66.9002 151.72V140.9C66.9002 140.807 66.8633 140.718 66.7977 140.652C66.732 140.587 66.643 140.55 66.5502 140.55Z" fill="white"/>
<path d="M305.75 465.08C305.89 466.59 304.51 467.95 302.66 468.08C300.81 468.21 299.2 467.17 299.06 465.66L290.26 369.09L296.95 368.46L305.75 465.08Z" fill="white"/>
<path d="M274.35 364.68C274.599 363.974 275.045 363.354 275.635 362.893C276.225 362.432 276.935 362.15 277.68 362.08L308.15 359.23C308.896 359.158 309.647 359.301 310.313 359.643C310.98 359.986 311.534 360.512 311.91 361.16L312.08 361.46C312.407 362.027 312.588 362.667 312.604 363.321C312.621 363.976 312.473 364.624 312.175 365.206C311.876 365.789 311.437 366.288 310.896 366.657C310.356 367.026 309.731 367.254 309.08 367.32L278.3 370.2C277.646 370.261 276.988 370.156 276.385 369.895C275.782 369.635 275.254 369.227 274.85 368.709C274.446 368.192 274.178 367.581 274.071 366.933C273.965 366.284 274.023 365.62 274.24 365L274.35 364.68Z" fill="white"/>
<path d="M273.73 364.83C273.498 365.501 273.429 366.218 273.529 366.921C273.63 367.625 273.896 368.294 274.307 368.873C274.717 369.453 275.26 369.926 275.89 370.255C276.52 370.583 277.219 370.756 277.93 370.76H278.35L309.1 367.88C309.845 367.81 310.561 367.553 311.182 367.134C311.802 366.715 312.307 366.146 312.65 365.48C312.994 364.817 313.165 364.077 313.146 363.33C313.127 362.584 312.918 361.854 312.54 361.21L312.37 360.92C311.944 360.181 311.316 359.58 310.559 359.188C309.802 358.797 308.948 358.63 308.1 358.71L277.63 361.57C276.784 361.65 275.979 361.971 275.309 362.494C274.64 363.016 274.133 363.719 273.85 364.52L273.73 364.83ZM274.73 365.18L274.84 364.86C275.054 364.251 275.439 363.717 275.947 363.32C276.456 362.923 277.067 362.68 277.71 362.62L308.18 359.76H308.5C309.09 359.761 309.671 359.917 310.183 360.211C310.695 360.506 311.121 360.929 311.42 361.44L311.59 361.74C311.863 362.228 312.01 362.777 312.019 363.337C312.027 363.896 311.895 364.449 311.636 364.945C311.377 365.442 310.999 365.865 310.535 366.179C310.071 366.492 309.537 366.685 308.98 366.74L278.23 369.62C277.665 369.674 277.097 369.585 276.576 369.362C276.055 369.138 275.599 368.787 275.25 368.34C274.901 367.893 274.671 367.366 274.58 366.807C274.489 366.247 274.54 365.674 274.73 365.14V365.18Z" fill="#331B0A"/>
<path d="M227.33 161C253.63 158.53 343.56 148.55 346.52 180.18C349.48 211.81 328.68 285.91 347.41 304.09C366.14 322.27 395.84 308.25 396.56 315.96C397.28 323.67 371.34 355.71 294 363C216.66 370.29 194.66 334 185.82 301.92C176.07 266.52 163.4 214.27 176.07 189.22C189.5 162.64 213.82 162.29 227.33 161Z" fill="#E34462"/>
<path d="M255 340.74C277 345.37 313.9 346.46 365.17 325.41L365.58 326.41C331.78 340.28 304.16 344.58 282.91 344.58C273.462 344.629 264.035 343.698 254.78 341.8C230.78 336.74 218.78 326.51 218.68 326.41L219.39 325.6C219.53 325.7 231.29 335.75 255 340.74Z" fill="#331B0A"/>
<path d="M223.08 291.26C222.592 291.853 222.282 292.572 222.187 293.335C222.091 294.097 222.214 294.871 222.541 295.566C222.867 296.262 223.385 296.85 224.033 297.263C224.68 297.676 225.432 297.897 226.2 297.9H226.59C227.389 297.823 228.148 297.511 228.769 297.004C229.391 296.497 229.849 295.816 230.084 295.049C230.32 294.282 230.322 293.462 230.092 292.693C229.862 291.924 229.409 291.241 228.79 290.73C227.961 290.045 226.894 289.718 225.824 289.819C224.753 289.92 223.767 290.442 223.08 291.27V291.26ZM223.24 294.12C223.173 293.334 223.418 292.555 223.921 291.948C224.425 291.342 225.146 290.958 225.93 290.88H226.21C226.941 290.935 227.627 291.256 228.137 291.782C228.647 292.308 228.947 293.003 228.981 293.735C229.014 294.467 228.778 295.186 228.317 295.756C227.857 296.326 227.203 296.708 226.48 296.83C225.692 296.896 224.909 296.649 224.303 296.141C223.696 295.634 223.314 294.907 223.24 294.12Z" fill="#331B0A"/>
<path d="M264.87 287.34C264.376 287.933 264.06 288.655 263.962 289.422C263.863 290.188 263.986 290.967 264.314 291.666C264.643 292.366 265.164 292.957 265.817 293.37C266.47 293.783 267.228 294.002 268 294H268.38C269.046 293.938 269.686 293.714 270.244 293.346C270.802 292.979 271.26 292.479 271.579 291.892C271.897 291.304 272.066 290.647 272.069 289.979C272.073 289.311 271.912 288.652 271.6 288.061C271.288 287.47 270.835 286.965 270.281 286.592C269.727 286.218 269.09 285.986 268.425 285.918C267.761 285.849 267.089 285.946 266.471 286.199C265.852 286.453 265.306 286.855 264.88 287.37L264.87 287.34ZM265.02 290.21C264.951 289.423 265.194 288.64 265.698 288.032C266.201 287.423 266.925 287.038 267.71 286.96H268C268.731 287.015 269.417 287.336 269.927 287.862C270.437 288.388 270.737 289.083 270.771 289.815C270.804 290.547 270.568 291.266 270.107 291.836C269.647 292.406 268.993 292.788 268.27 292.91C267.479 292.985 266.69 292.743 266.077 292.236C265.463 291.73 265.076 291.001 265 290.21H265.02Z" fill="#331B0A"/>
<path d="M306.65 283.43C306.304 283.843 306.045 284.321 305.889 284.837C305.733 285.352 305.682 285.894 305.74 286.43C305.836 287.428 306.298 288.356 307.036 289.035C307.774 289.715 308.737 290.097 309.74 290.11H310.13C310.795 290.047 311.434 289.821 311.991 289.453C312.547 289.084 313.004 288.584 313.321 287.996C313.638 287.408 313.806 286.752 313.808 286.084C313.811 285.416 313.649 284.758 313.337 284.168C313.024 283.578 312.571 283.074 312.017 282.701C311.464 282.328 310.827 282.097 310.162 282.029C309.498 281.961 308.827 282.058 308.21 282.311C307.592 282.564 307.046 282.965 306.62 283.48L306.65 283.43ZM306.81 286.3C306.769 285.91 306.808 285.516 306.923 285.141C307.038 284.767 307.227 284.419 307.48 284.12C307.792 283.733 308.194 283.429 308.652 283.236C309.11 283.042 309.608 282.966 310.103 283.013C310.597 283.06 311.073 283.229 311.486 283.506C311.899 283.782 312.237 284.156 312.469 284.595C312.702 285.034 312.822 285.524 312.818 286.021C312.815 286.518 312.688 287.006 312.449 287.442C312.21 287.877 311.867 288.247 311.45 288.517C311.033 288.787 310.555 288.95 310.06 288.99C309.273 289.06 308.491 288.816 307.882 288.313C307.274 287.809 306.889 287.086 306.81 286.3Z" fill="#331B0A"/>
<path d="M287.88 305.23C287.366 305.815 287.033 306.538 286.924 307.309C286.814 308.081 286.932 308.867 287.264 309.573C287.595 310.278 288.125 310.871 288.789 311.279C289.453 311.687 290.221 311.892 291 311.87H291.38C292.426 311.737 293.378 311.203 294.037 310.38C294.696 309.558 295.009 308.511 294.91 307.462C294.812 306.413 294.309 305.443 293.508 304.758C292.708 304.073 291.672 303.725 290.62 303.79C290.091 303.836 289.576 303.987 289.105 304.234C288.635 304.481 288.218 304.82 287.88 305.23ZM288.03 308.09C287.961 307.302 288.205 306.518 288.71 305.91C288.956 305.609 289.26 305.36 289.603 305.178C289.947 304.996 290.323 304.884 290.71 304.85C291.302 304.79 291.899 304.909 292.424 305.189C292.949 305.47 293.378 305.9 293.658 306.426C293.937 306.951 294.054 307.548 293.994 308.14C293.933 308.733 293.698 309.293 293.318 309.751C292.937 310.209 292.429 310.544 291.859 310.712C291.288 310.881 290.68 310.875 290.112 310.697C289.544 310.519 289.042 310.176 288.669 309.712C288.297 309.248 288.071 308.683 288.02 308.09H288.03Z" fill="#331B0A"/>
<path d="M238.81 263.88C238.463 264.293 238.202 264.771 238.044 265.286C237.886 265.802 237.834 266.344 237.89 266.88C237.971 267.885 238.428 268.822 239.169 269.504C239.911 270.186 240.883 270.564 241.89 270.56H242.28C242.811 270.512 243.327 270.358 243.798 270.107C244.268 269.856 244.684 269.514 245.02 269.1C245.368 268.688 245.629 268.21 245.787 267.694C245.945 267.179 245.997 266.637 245.94 266.1C245.898 265.567 245.749 265.048 245.502 264.573C245.256 264.098 244.916 263.677 244.504 263.336C244.092 262.995 243.615 262.74 243.103 262.586C242.59 262.432 242.052 262.383 241.52 262.44C240.996 262.49 240.487 262.643 240.022 262.89C239.557 263.137 239.145 263.474 238.81 263.88V263.88ZM238.96 266.74C238.888 265.954 239.129 265.171 239.63 264.56C240.133 263.96 240.851 263.579 241.63 263.5H241.92C242.611 263.496 243.281 263.737 243.81 264.18C244.415 264.681 244.799 265.399 244.88 266.18C244.953 266.967 244.712 267.75 244.21 268.36C243.83 268.808 243.327 269.134 242.763 269.298C242.199 269.463 241.599 269.458 241.038 269.284C240.476 269.111 239.979 268.776 239.606 268.322C239.233 267.868 239.002 267.315 238.94 266.73L238.96 266.74Z" fill="#331B0A"/>
<path d="M194.58 268C194.089 268.593 193.776 269.313 193.679 270.077C193.582 270.841 193.704 271.617 194.031 272.314C194.358 273.012 194.877 273.601 195.526 274.015C196.176 274.428 196.93 274.649 197.7 274.65H198.08C198.745 274.589 199.385 274.365 199.943 273.997C200.501 273.629 200.96 273.129 201.278 272.542C201.597 271.955 201.765 271.298 201.769 270.629C201.773 269.961 201.611 269.302 201.299 268.711C200.987 268.121 200.534 267.616 199.981 267.242C199.427 266.868 198.789 266.637 198.125 266.568C197.46 266.5 196.789 266.597 196.17 266.85C195.552 267.103 195.006 267.505 194.58 268.02V268ZM194.73 270.87C194.66 270.082 194.905 269.299 195.41 268.69C195.654 268.386 195.957 268.135 196.301 267.951C196.645 267.767 197.022 267.655 197.41 267.62C198.002 267.561 198.598 267.679 199.122 267.959C199.647 268.24 200.076 268.67 200.356 269.194C200.636 269.719 200.753 270.316 200.693 270.907C200.633 271.499 200.398 272.06 200.019 272.518C199.64 272.976 199.133 273.311 198.563 273.481C197.993 273.65 197.385 273.646 196.817 273.47C196.249 273.293 195.747 272.952 195.373 272.489C195 272.026 194.772 271.462 194.72 270.87H194.73Z" fill="#331B0A"/>
<path d="M280.59 260C280.246 260.415 279.989 260.893 279.833 261.409C279.676 261.924 279.624 262.465 279.68 263C279.776 263.999 280.237 264.927 280.975 265.606C281.714 266.285 282.677 266.668 283.68 266.68H284.06C284.725 266.619 285.365 266.395 285.923 266.027C286.481 265.659 286.939 265.16 287.258 264.572C287.576 263.985 287.745 263.328 287.749 262.66C287.752 261.991 287.591 261.333 287.279 260.742C286.967 260.151 286.514 259.646 285.96 259.272C285.407 258.898 284.769 258.667 284.104 258.598C283.44 258.53 282.768 258.627 282.15 258.88C281.532 259.133 280.985 259.535 280.56 260.05L280.59 260ZM280.75 262.87C280.71 262.48 280.749 262.087 280.864 261.712C280.979 261.338 281.168 260.99 281.42 260.69C281.921 260.085 282.639 259.701 283.42 259.62H283.7C284.281 259.622 284.85 259.794 285.336 260.113C285.822 260.433 286.205 260.887 286.438 261.42C286.671 261.953 286.743 262.543 286.647 263.116C286.551 263.69 286.29 264.223 285.896 264.652C285.502 265.08 284.992 265.384 284.428 265.527C283.864 265.671 283.271 265.647 282.72 265.46C282.17 265.272 281.685 264.928 281.327 264.47C280.968 264.012 280.75 263.46 280.7 262.88L280.75 262.87Z" fill="#331B0A"/>
<path d="M322.38 256.05C321.889 256.643 321.577 257.362 321.479 258.125C321.382 258.888 321.503 259.663 321.829 260.36C322.154 261.057 322.672 261.647 323.32 262.061C323.968 262.476 324.72 262.697 325.49 262.7H325.88C326.95 262.596 327.936 262.073 328.621 261.245C329.307 260.417 329.637 259.351 329.54 258.28V258.28C329.436 257.21 328.913 256.225 328.085 255.539C327.256 254.853 326.191 254.523 325.12 254.62C324.591 254.665 324.076 254.814 323.606 255.06C323.136 255.305 322.719 255.642 322.38 256.05ZM322.53 258.92C322.539 258.18 322.821 257.468 323.323 256.924C323.825 256.379 324.511 256.039 325.248 255.969C325.985 255.9 326.722 256.106 327.317 256.547C327.912 256.989 328.323 257.634 328.47 258.36C328.515 258.944 328.388 259.528 328.106 260.04C327.823 260.553 327.396 260.972 326.879 261.245C326.361 261.518 325.775 261.634 325.192 261.578C324.61 261.522 324.056 261.297 323.6 260.93C323.296 260.684 323.045 260.379 322.862 260.034C322.678 259.688 322.565 259.31 322.53 258.92V258.92Z" fill="#331B0A"/>
<path d="M218.27 239.89C217.779 240.483 217.467 241.203 217.369 241.967C217.272 242.731 217.394 243.507 217.721 244.204C218.048 244.901 218.567 245.491 219.217 245.905C219.866 246.318 220.62 246.539 221.39 246.54H221.77C222.842 246.438 223.83 245.916 224.518 245.088C225.206 244.259 225.538 243.192 225.44 242.12V242.12C225.365 241.32 225.055 240.561 224.548 239.937C224.042 239.314 223.362 238.855 222.594 238.619C221.826 238.382 221.006 238.378 220.236 238.608C219.467 238.838 218.782 239.291 218.27 239.91V239.89ZM218.43 242.76C218.391 242.37 218.429 241.976 218.545 241.602C218.66 241.228 218.849 240.88 219.1 240.58C219.608 239.975 220.334 239.595 221.12 239.522C221.906 239.449 222.69 239.689 223.3 240.19C223.601 240.436 223.85 240.739 224.032 241.083C224.214 241.426 224.326 241.803 224.36 242.19C224.451 242.605 224.452 243.034 224.365 243.449C224.277 243.864 224.102 244.256 223.852 244.599C223.601 244.942 223.281 245.227 222.912 245.437C222.543 245.647 222.134 245.776 221.711 245.816C221.289 245.856 220.863 245.806 220.461 245.669C220.059 245.532 219.691 245.311 219.381 245.021C219.071 244.731 218.826 244.379 218.662 243.987C218.498 243.596 218.419 243.174 218.43 242.75V242.76Z" fill="#331B0A"/>
<path d="M260.06 236C259.57 236.592 259.257 237.312 259.16 238.075C259.062 238.838 259.183 239.613 259.509 240.309C259.835 241.006 260.352 241.596 261 242.01C261.649 242.425 262.401 242.646 263.17 242.649H263.56C264.632 242.548 265.619 242.026 266.305 241.197C266.991 240.368 267.321 239.301 267.22 238.23V238.23C267.117 237.159 266.593 236.174 265.765 235.488C264.937 234.802 263.871 234.472 262.8 234.57C262.272 234.614 261.757 234.764 261.287 235.009C260.816 235.255 260.399 235.591 260.06 236ZM260.21 238.869C260.141 238.082 260.385 237.298 260.89 236.69C261.135 236.386 261.438 236.135 261.781 235.951C262.125 235.767 262.502 235.654 262.89 235.619C263.482 235.56 264.078 235.678 264.603 235.959C265.127 236.239 265.557 236.669 265.836 237.194C266.116 237.719 266.233 238.315 266.173 238.907C266.113 239.499 265.879 240.059 265.5 240.517C265.121 240.976 264.614 241.311 264.044 241.48C263.473 241.65 262.866 241.646 262.298 241.469C261.73 241.293 261.227 240.951 260.854 240.488C260.48 240.025 260.253 239.462 260.2 238.869H260.21Z" fill="#331B0A"/>
<path d="M301.84 232.07C301.347 232.662 301.034 233.382 300.936 234.146C300.838 234.909 300.96 235.685 301.288 236.382C301.615 237.079 302.135 237.668 302.785 238.08C303.435 238.493 304.19 238.711 304.96 238.71C305.09 238.72 305.22 238.72 305.35 238.71C306.419 238.608 307.405 238.087 308.091 237.261C308.777 236.434 309.107 235.37 309.01 234.3C308.906 233.23 308.383 232.244 307.555 231.558C306.726 230.872 305.661 230.542 304.59 230.64C304.059 230.683 303.543 230.832 303.071 231.078C302.598 231.323 302.18 231.66 301.84 232.07ZM302 234.93C301.933 234.145 302.177 233.365 302.681 232.759C303.184 232.152 303.906 231.768 304.69 231.69C305.422 231.711 306.121 232 306.655 232.501C307.189 233.003 307.521 233.682 307.589 234.411C307.656 235.141 307.455 235.87 307.022 236.461C306.589 237.052 305.955 237.464 305.24 237.62C304.455 237.687 303.675 237.442 303.068 236.939C302.462 236.435 302.078 235.714 302 234.93Z" fill="#331B0A"/>
<path d="M234 212.51C233.652 212.922 233.392 213.4 233.233 213.916C233.075 214.431 233.023 214.973 233.08 215.51C233.16 216.514 233.617 217.451 234.359 218.133C235.1 218.816 236.072 219.193 237.08 219.19H237.47C238.54 219.086 239.526 218.563 240.211 217.734C240.897 216.906 241.227 215.84 241.13 214.77V214.77C241.026 213.699 240.503 212.714 239.675 212.028C238.847 211.342 237.781 211.012 236.71 211.11C235.657 211.2 234.683 211.703 234 212.51ZM234.15 215.38C234.091 214.788 234.209 214.192 234.489 213.667C234.77 213.143 235.2 212.713 235.724 212.434C236.249 212.154 236.846 212.037 237.437 212.097C238.029 212.156 238.59 212.391 239.048 212.77C239.506 213.149 239.841 213.656 240.011 214.226C240.18 214.797 240.176 215.404 240 215.972C239.823 216.54 239.482 217.043 239.019 217.416C238.556 217.79 237.992 218.017 237.4 218.07C236.613 218.139 235.831 217.896 235.222 217.392C234.614 216.889 234.228 216.165 234.15 215.38Z" fill="#331B0A"/>
<path d="M188.85 219.62C188.946 220.619 189.408 221.546 190.146 222.226C190.884 222.905 191.847 223.287 192.85 223.3C192.977 223.31 193.104 223.31 193.23 223.3C194.3 223.199 195.285 222.678 195.971 221.851C196.657 221.024 196.988 219.96 196.89 218.89C196.755 217.847 196.221 216.897 195.4 216.241C194.579 215.584 193.535 215.271 192.488 215.368C191.442 215.465 190.473 215.965 189.787 216.762C189.101 217.558 188.751 218.59 188.81 219.64L188.85 219.62ZM189.92 219.52C189.853 218.735 190.098 217.955 190.601 217.349C191.105 216.742 191.826 216.359 192.61 216.28H192.9C193.648 216.277 194.37 216.552 194.925 217.054C195.48 217.555 195.828 218.246 195.9 218.99C195.973 219.777 195.732 220.56 195.23 221.17C194.85 221.618 194.346 221.944 193.782 222.108C193.218 222.272 192.619 222.267 192.057 222.094C191.496 221.92 190.998 221.586 190.626 221.132C190.253 220.678 190.021 220.124 189.96 219.54L189.92 219.52Z" fill="#331B0A"/>
<path d="M274.86 211.57C274.956 212.569 275.418 213.497 276.156 214.176C276.894 214.855 277.857 215.238 278.86 215.25H279.24C280.311 215.149 281.299 214.626 281.985 213.798C282.671 212.969 283 211.901 282.9 210.83C282.767 209.785 282.233 208.832 281.41 208.173C280.588 207.515 279.541 207.201 278.492 207.3C277.443 207.399 276.473 207.902 275.788 208.702C275.103 209.503 274.756 210.538 274.82 211.59L274.86 211.57ZM275.94 211.47C275.881 210.878 275.999 210.281 276.28 209.756C276.56 209.232 276.991 208.802 277.516 208.522C278.042 208.243 278.638 208.126 279.231 208.187C279.823 208.247 280.384 208.483 280.841 208.863C281.299 209.243 281.634 209.751 281.802 210.322C281.971 210.893 281.966 211.501 281.788 212.069C281.61 212.637 281.266 213.139 280.802 213.511C280.338 213.884 279.773 214.11 279.18 214.16C278.395 214.227 277.615 213.982 277.009 213.479C276.403 212.976 276.019 212.254 275.94 211.47V211.47Z" fill="#331B0A"/>
<path d="M316.65 207.65C316.746 208.648 317.208 209.576 317.946 210.255C318.684 210.934 319.647 211.317 320.65 211.33C320.777 211.339 320.904 211.339 321.03 211.33C322.1 211.228 323.085 210.707 323.771 209.881C324.457 209.054 324.788 207.989 324.69 206.92C324.644 206.388 324.493 205.87 324.243 205.398C323.994 204.926 323.653 204.508 323.24 204.17C322.827 203.824 322.349 203.565 321.833 203.409C321.318 203.252 320.776 203.202 320.24 203.26C319.187 203.378 318.223 203.904 317.552 204.724C316.881 205.544 316.558 206.594 316.65 207.65V207.65ZM317.72 207.55C317.653 206.765 317.898 205.985 318.401 205.378C318.905 204.772 319.626 204.388 320.41 204.31H320.7C321.448 204.306 322.17 204.582 322.725 205.083C323.28 205.585 323.628 206.275 323.7 207.02V207.02C323.77 207.808 323.526 208.591 323.02 209.2C322.774 209.501 322.471 209.749 322.127 209.931C321.784 210.113 321.408 210.225 321.02 210.26C320.625 210.301 320.226 210.264 319.845 210.149C319.465 210.035 319.111 209.847 318.804 209.594C318.497 209.342 318.243 209.032 318.057 208.681C317.871 208.33 317.757 207.945 317.72 207.55V207.55Z" fill="#331B0A"/>
<path d="M212.9 182.49C212.553 182.902 212.292 183.38 212.134 183.896C211.976 184.411 211.923 184.954 211.98 185.49C212.061 186.494 212.518 187.431 213.259 188.114C214.001 188.796 214.973 189.173 215.98 189.17C216.11 189.18 216.24 189.18 216.37 189.17C217.44 189.068 218.425 188.547 219.111 187.721C219.797 186.894 220.128 185.829 220.03 184.76C219.926 183.69 219.403 182.704 218.575 182.018C217.747 181.332 216.681 181.002 215.61 181.1C214.559 181.188 213.585 181.687 212.9 182.49V182.49ZM213.05 185.35C212.978 184.563 213.219 183.78 213.72 183.17C214.223 182.569 214.941 182.188 215.72 182.11C216.135 182.019 216.564 182.018 216.979 182.106C217.395 182.193 217.787 182.368 218.129 182.618C218.472 182.869 218.758 183.189 218.968 183.558C219.177 183.927 219.307 184.336 219.346 184.759C219.386 185.181 219.336 185.608 219.199 186.009C219.062 186.411 218.841 186.779 218.552 187.089C218.262 187.399 217.909 187.644 217.518 187.808C217.126 187.972 216.705 188.051 216.28 188.04C215.89 188.081 215.496 188.042 215.122 187.927C214.747 187.812 214.4 187.622 214.1 187.37C213.498 186.861 213.121 186.135 213.05 185.35V185.35Z" fill="#331B0A"/>
<path d="M254.68 178.57C253.995 179.401 253.667 180.47 253.768 181.542C253.869 182.614 254.391 183.602 255.22 184.29C255.946 184.89 256.858 185.219 257.8 185.22H258.18C259.251 185.119 260.238 184.597 260.924 183.768C261.611 182.939 261.94 181.872 261.84 180.8C261.763 180.003 261.452 179.246 260.946 178.625C260.44 178.004 259.761 177.547 258.996 177.31C258.23 177.074 257.412 177.07 256.644 177.297C255.876 177.525 255.193 177.975 254.68 178.59V178.57ZM254.84 181.44C254.8 181.051 254.839 180.657 254.954 180.283C255.069 179.908 255.258 179.561 255.51 179.26C255.887 178.801 256.392 178.463 256.962 178.291C257.531 178.119 258.139 178.12 258.708 178.295C259.276 178.469 259.78 178.808 260.156 179.27C260.531 179.731 260.761 180.294 260.816 180.886C260.871 181.478 260.749 182.073 260.465 182.596C260.181 183.119 259.748 183.545 259.221 183.821C258.694 184.097 258.097 184.21 257.505 184.146C256.914 184.081 256.355 183.843 255.9 183.46C255.294 182.953 254.913 182.227 254.84 181.44V181.44Z" fill="#331B0A"/>
<path d="M295.55 177.63C295.646 178.629 296.107 179.557 296.845 180.236C297.584 180.915 298.547 181.298 299.55 181.31H299.94C301.011 181.209 301.998 180.686 302.684 179.858C303.371 179.029 303.7 177.962 303.6 176.89V176.89C303.567 176.347 303.424 175.816 303.182 175.329C302.939 174.841 302.601 174.408 302.187 174.054C301.774 173.7 301.293 173.433 300.775 173.268C300.256 173.104 299.709 173.045 299.167 173.096C298.625 173.147 298.099 173.306 297.62 173.565C297.141 173.823 296.719 174.175 296.378 174.6C296.038 175.025 295.787 175.514 295.639 176.038C295.492 176.562 295.451 177.11 295.52 177.65L295.55 177.63ZM296.62 177.53C296.548 176.839 296.718 176.143 297.102 175.564C297.486 174.984 298.06 174.556 298.725 174.352C299.389 174.148 300.104 174.181 300.747 174.447C301.39 174.712 301.921 175.192 302.249 175.805C302.577 176.418 302.682 177.126 302.546 177.808C302.409 178.49 302.04 179.103 301.502 179.543C300.963 179.983 300.289 180.222 299.593 180.22C298.898 180.218 298.225 179.974 297.69 179.53C297.387 179.285 297.137 178.981 296.953 178.638C296.77 178.295 296.656 177.918 296.62 177.53V177.53Z" fill="#331B0A"/>
<path d="M304.36 464.16L303.29 464.26L294.7 369.89L295.77 369.79L304.36 464.16Z" fill="#331B0A"/>
<path d="M283.68 464.79L320.75 461.32C323.354 461.078 325.947 461.879 327.961 463.548C329.975 465.216 331.244 467.616 331.49 470.22L332.22 478.04L331.15 478.14L330.42 470.32C330.199 468 329.068 465.863 327.274 464.376C325.48 462.89 323.17 462.175 320.85 462.39L283.78 465.86C282.63 465.966 281.513 466.299 280.492 466.838C279.471 467.376 278.566 468.111 277.83 469C277.093 469.889 276.539 470.914 276.2 472.018C275.86 473.121 275.741 474.28 275.85 475.43L276.46 481.98L275.39 482.08L274.78 475.53C274.658 474.24 274.792 472.939 275.174 471.701C275.556 470.464 276.178 469.313 277.004 468.316C277.831 467.318 278.846 466.494 279.991 465.889C281.137 465.284 282.39 464.91 283.68 464.79V464.79Z" fill="#331B0A"/>
<path d="M269.42 466.121L335 460.001C337.604 459.761 340.196 460.563 342.209 462.232C344.222 463.9 345.492 466.298 345.74 468.901L346.47 476.73L345.4 476.831L344.67 469.001C344.564 467.851 344.231 466.734 343.693 465.713C343.154 464.692 342.419 463.787 341.53 463.051C340.641 462.314 339.616 461.76 338.512 461.42C337.409 461.081 336.25 460.962 335.1 461.071L269.51 467.22C268.362 467.327 267.245 467.659 266.225 468.197C265.205 468.736 264.301 469.47 263.564 470.357C262.828 471.245 262.274 472.269 261.933 473.372C261.593 474.474 261.473 475.632 261.58 476.781L262.19 483.341L261.12 483.441L260.51 476.881C260.271 474.277 261.073 471.685 262.741 469.672C264.41 467.659 266.808 466.389 269.41 466.141L269.42 466.121Z" fill="#331B0A"/>
<path d="M331.11 472.09C332.027 472.005 332.95 472.194 333.76 472.633C334.571 473.072 335.232 473.742 335.662 474.557C336.092 475.373 336.27 476.297 336.175 477.214C336.079 478.13 335.714 478.998 335.125 479.707C334.536 480.416 333.75 480.935 332.867 481.197C331.983 481.46 331.042 481.454 330.161 481.182C329.281 480.909 328.501 480.381 327.921 479.666C327.34 478.95 326.985 478.078 326.9 477.16C326.786 475.93 327.165 474.704 327.955 473.753C328.744 472.802 329.879 472.204 331.11 472.09Z" fill="#331B0A"/>
<path d="M345.13 470.78C346.048 470.695 346.97 470.884 347.781 471.323C348.591 471.762 349.253 472.431 349.683 473.247C350.113 474.062 350.291 474.987 350.195 475.903C350.1 476.82 349.734 477.688 349.146 478.397C348.557 479.106 347.771 479.624 346.887 479.887C346.004 480.149 345.062 480.144 344.182 479.871C343.301 479.599 342.522 479.071 341.941 478.355C341.361 477.639 341.005 476.767 340.92 475.85C340.806 474.619 341.186 473.394 341.975 472.443C342.765 471.492 343.9 470.894 345.13 470.78Z" fill="#331B0A"/>
<path d="M261.14 478.64C262.057 478.553 262.98 478.74 263.791 479.178C264.602 479.615 265.265 480.283 265.697 481.098C266.128 481.912 266.308 482.836 266.215 483.753C266.121 484.67 265.758 485.538 265.17 486.248C264.583 486.959 263.799 487.479 262.916 487.743C262.033 488.008 261.091 488.004 260.21 487.734C259.329 487.463 258.549 486.937 257.966 486.223C257.384 485.508 257.027 484.637 256.94 483.72C256.882 483.11 256.945 482.496 257.124 481.911C257.304 481.326 257.597 480.782 257.987 480.31C258.377 479.838 258.857 479.448 259.398 479.161C259.938 478.875 260.53 478.698 261.14 478.64V478.64Z" fill="#331B0A"/>
<path d="M275.77 477.27C276.687 477.183 277.61 477.37 278.421 477.808C279.232 478.245 279.895 478.913 280.327 479.728C280.758 480.542 280.938 481.466 280.845 482.383C280.751 483.3 280.388 484.168 279.8 484.878C279.213 485.589 278.428 486.109 277.546 486.373C276.663 486.638 275.721 486.634 274.84 486.364C273.959 486.093 273.178 485.567 272.596 484.853C272.014 484.138 271.657 483.267 271.57 482.35C271.512 481.74 271.575 481.126 271.754 480.541C271.934 479.955 272.227 479.411 272.617 478.94C273.007 478.468 273.487 478.078 274.027 477.791C274.568 477.505 275.16 477.327 275.77 477.27V477.27Z" fill="#331B0A"/>
<path d="M328.71 280.5C352.59 282.27 391.92 295.2 407.57 303.64C438 320.07 422.72 354 396.38 349.76C370.78 345.66 327.81 338.76 309.1 330.17C290.89 321.83 300.06 278.37 328.71 280.5Z" fill="#4B8BA3"/>
<path d="M372 334.74C372.657 334.612 373.305 334.441 373.94 334.23C374.06 334.68 374.19 335.23 374.29 335.59C374.39 336.23 374.52 337.01 374.55 337.18C374.94 339.73 375.28 342.36 375.92 344.86C376.06 345.4 376.23 345.94 376.41 346.48C371.46 345.64 366.33 344.74 361.16 343.77C360.812 343.075 360.415 342.406 359.97 341.77C357.347 338.211 354.444 334.867 351.29 331.77C354.083 332.775 356.952 333.554 359.87 334.1C363.863 334.882 367.947 335.097 372 334.74V334.74Z" fill="#292625"/>
<path d="M474.36 446.27L460.15 464.62L435.69 447.01L453.49 424.03L474.36 446.27Z" fill="#E998AD"/>
<path d="M373.42 252.84C376.1 252.25 381.15 249.16 381.65 250.47C382.15 251.78 384.39 254.25 381.1 257.99C381.1 257.99 373.6 264.26 370.43 261.92C367.26 259.58 373.72 257.68 373.72 257.68C373.72 257.68 369.21 258.68 368.94 257.26C368.67 255.84 370.75 253.42 373.42 252.84Z" fill="#292625"/>
<path d="M326 217C327.33 217.19 368 225.72 373.34 229.12C375.71 230.61 369.27 239.58 369.27 239.58C360.1 238.46 331.68 243.9 315.58 242.9C315.967 240.083 316.535 237.294 317.28 234.55C319.56 226.13 323 219.35 326 217Z" fill="#E998AD"/>
<path d="M383 239C388.64 248.2 386.7 257.16 381.45 264C376.2 270.84 376.36 266.61 376.99 264.55C377.62 262.49 383.24 252.87 380.99 250.98C380.99 250.98 378.43 250.36 377.8 253.98C377.17 257.6 377.08 260.89 374.93 262.35C372.78 263.81 373.05 261.27 372.87 259.63C372.69 257.99 373.09 253.63 372.55 251.63C372.01 249.63 368.55 244.63 369.42 240.63C368.424 239.951 367.263 239.553 366.06 239.48C364.32 239.48 372.85 228.84 372.85 228.84C372.85 228.84 377.4 229.79 383 239Z" fill="#E998AD"/>
<path d="M329.32 305.94C350.86 326.67 394.13 362.7 423.02 398.35C430.39 407.45 445.69 412.5 451.22 417.14C457.08 422.07 460.7 430.21 460.7 430.21C442.94 467.16 427.26 470 427.26 470C427.26 470 401.15 448.25 366.11 421.62C338.4 400.56 274.38 350.02 266.65 332.78C260.26 318.54 304.7 282.24 329.32 305.94Z" fill="#4B8BA3"/>
<path d="M360.14 416.42L366.44 421.18C376.44 428.79 386.78 436.58 397.16 444.35L396.51 445.21C386.14 437.45 375.8 429.65 365.79 422.04L359.5 417.28C346.39 407.38 330.09 395.07 315.5 382.14L316.21 381.34C330.77 394.24 347.06 406.54 360.14 416.42Z" fill="#292625"/>
<path d="M358.25 332.14C378.87 351.14 404.54 374.69 423.44 398.02C428.05 403.7 435.98 407.87 442.35 411.23C446.18 413.23 449.5 414.99 451.56 416.73L450.87 417.55C448.87 415.89 445.63 414.17 441.87 412.18C435.41 408.78 427.37 404.55 422.63 398.69C403.77 375.43 378.14 351.86 357.54 332.93C354.3 329.93 351.16 327.06 348.16 324.28L348.89 323.49C351.87 326.27 355 329.16 358.25 332.14Z" fill="#292625"/>
<path d="M369.85 415.27C400.6 438.76 429.4 463.58 429.68 463.82L428.98 464.64C428.69 464.39 399.92 439.64 369.2 416.13C338.48 392.62 272.14 336.79 271.47 336.22L272.17 335.4C272.83 336 339.12 391.8 369.85 415.27Z" fill="white"/>
<path d="M377.88 406.9C408.63 430.38 437.42 455.2 437.71 455.45L437 456.26C436.72 456.01 407.95 431.26 377.22 407.75C346.49 384.24 280.16 328.41 279.5 327.85L280.19 327.02C280.86 327.59 347.15 383.43 377.88 406.9Z" fill="white"/>
<path d="M376.12 410.37C406.87 433.86 435.67 458.68 435.95 458.92L435.25 459.74C434.96 459.49 406.19 434.74 375.47 411.23C344.75 387.72 278.41 331.88 277.74 331.32L278.44 330.5C279.1 331.06 345.39 386.9 376.12 410.37Z" fill="white"/>
<path d="M372.15 412.19C402.9 435.67 431.7 460.49 431.98 460.74L431.28 461.55C430.99 461.3 402.22 436.55 371.5 413.04C340.78 389.53 274.44 333.7 273.77 333.14L274.47 332.31C275.13 332.88 341.42 388.72 372.15 412.19Z" fill="white"/>
<path d="M277.9 145.26C288.38 146.09 310.01 151.46 319.81 173.99C329.09 195.32 350.75 282.43 350.75 282.43C294.26 314.49 315.1 337.82 265 337.2C265 337.2 195.86 275.52 243.5 162.2C249.62 147.67 269.25 144.58 277.9 145.26Z" fill="white"/>
<path d="M332.41 251.09C335.23 249.41 339.18 245 340.97 245.36C342.76 245.72 344.97 248.43 341.75 253.45C339.88 256.34 334.69 262.99 330.8 261.79C326.91 260.59 333.62 256.04 333.62 256.04C333.62 256.04 328.87 258.9 328.32 257.49C327.77 256.08 329.59 252.76 332.41 251.09Z" fill="#E998AD"/>
<path d="M330.68 230.85C333.19 232.12 326.01 241.85 326.01 241.85C316.78 241.58 291.89 246.25 275.77 246.73C275.88 244.11 275.69 220.59 278.43 217.98C279.78 218.07 325 228 330.68 230.85Z" fill="#E998AD"/>
<path d="M344.34 240.57C350.8 249.21 349.16 252.33 344.56 259.64C339.96 266.95 339.9 260.56 340.34 258.45C340.78 256.34 344.08 250.45 341.66 248.78C341.66 248.78 330.96 251.39 327.87 242.78C327.58 241.94 326.16 241.78 324.42 241.94C322.68 242.1 327.58 229.7 327.58 229.7C327.58 229.7 337.88 231.92 344.34 240.57Z" fill="#E998AD"/>
<path d="M266.65 108.17C267.582 107.974 268.55 108.06 269.433 108.414C270.316 108.769 271.074 109.378 271.61 110.164C272.147 110.95 272.439 111.877 272.449 112.828C272.458 113.78 272.186 114.713 271.665 115.509C271.144 116.306 270.399 116.93 269.523 117.303C268.648 117.676 267.681 117.78 266.746 117.604C265.811 117.427 264.95 116.977 264.27 116.311C263.591 115.644 263.125 114.792 262.93 113.86C262.799 113.242 262.791 112.604 262.907 111.983C263.022 111.362 263.26 110.77 263.606 110.241C263.952 109.712 264.399 109.257 264.921 108.901C265.444 108.546 266.031 108.297 266.65 108.17V108.17Z" fill="#292625"/>
<path d="M264 84.6603C265.538 84.0542 267.221 83.9177 268.837 84.268C270.452 84.6184 271.928 85.4398 273.077 86.6286C274.225 87.8173 274.996 89.3199 275.291 90.9465C275.586 92.5731 275.392 94.2507 274.734 95.7671C274.075 97.2835 272.982 98.5707 271.593 99.466C270.203 100.361 268.579 100.824 266.926 100.797C265.273 100.769 263.665 100.253 262.306 99.3116C260.947 98.3706 259.897 97.0477 259.29 95.5103C258.477 93.4467 258.517 91.1451 259.4 89.1108C260.283 87.0765 261.938 85.4758 264 84.6603V84.6603Z" fill="#292625"/>
<path d="M261.49 96.9995C262.594 96.5567 263.805 96.4521 264.969 96.699C266.132 96.9458 267.196 97.533 268.026 98.3858C268.855 99.2387 269.412 100.319 269.626 101.489C269.84 102.659 269.701 103.866 269.227 104.958C268.754 106.049 267.966 106.974 266.965 107.617C265.964 108.26 264.795 108.591 263.606 108.567C262.416 108.544 261.261 108.167 260.286 107.486C259.311 106.804 258.561 105.848 258.13 104.74C257.559 103.267 257.591 101.628 258.22 100.179C258.849 98.7301 260.024 97.5875 261.49 96.9995V96.9995Z" fill="#292625"/>
<path d="M281.37 73.9298C283.885 73.4045 286.499 73.6364 288.883 74.5962C291.267 75.5559 293.312 77.2006 294.762 79.3223C296.211 81.4441 296.999 83.9477 297.027 86.5172C297.054 89.0866 296.319 91.6064 294.915 93.7585C293.511 95.9105 291.501 97.5983 289.138 98.6085C286.776 99.6187 284.167 99.9061 281.641 99.4343C279.115 98.9626 276.785 97.7529 274.947 95.958C273.108 94.1631 271.842 91.8636 271.31 89.3499C270.955 87.6766 270.934 85.9499 271.248 84.2686C271.562 82.5873 272.205 80.9845 273.14 79.5521C274.074 78.1196 275.282 76.8856 276.694 75.9209C278.107 74.9561 279.695 74.2795 281.37 73.9298Z" fill="#292625"/>
<path d="M270.78 89.4703C271.426 92.512 273.096 95.24 275.511 97.1984C277.926 99.1569 280.941 100.227 284.05 100.23C286.306 100.23 288.525 99.6676 290.509 98.5938C292.492 97.52 294.177 95.9687 295.41 94.0803C296.627 92.2122 297.365 90.0727 297.558 87.8514C297.751 85.63 297.394 83.3954 296.517 81.3453C295.64 79.2951 294.271 77.4929 292.532 76.098C290.792 74.7032 288.736 73.7589 286.544 73.3486C284.352 72.9384 282.093 73.075 279.967 73.7463C277.841 74.4175 275.913 75.6027 274.354 77.197C272.795 78.7912 271.653 80.7453 271.03 82.8861C270.407 85.0269 270.321 87.2884 270.78 89.4703V89.4703ZM281.48 74.4703C283.084 74.1317 284.739 74.1124 286.351 74.4137C287.962 74.7149 289.499 75.3308 290.872 76.226C292.246 77.1212 293.429 78.2783 294.356 79.6311C295.282 80.9839 295.932 82.506 296.27 84.1103C296.778 86.5254 296.559 89.037 295.641 91.3276C294.722 93.6182 293.144 95.5849 291.108 96.9791C289.071 98.3733 286.667 99.1324 284.199 99.1604C281.731 99.1884 279.311 98.4841 277.243 97.1364C275.175 95.7888 273.554 93.8583 272.583 91.5892C271.613 89.32 271.337 86.814 271.79 84.388C272.244 81.9621 273.406 79.725 275.131 77.9597C276.856 76.1944 279.065 74.9801 281.48 74.4703V74.4703Z" fill="#292625"/>
<path d="M298.93 130.78L292.93 152.59C292.93 152.59 278.93 156.89 271.03 145.59L275.83 126.11L298.93 130.78Z" fill="#E998AD"/>
<path d="M297.36 136.59L295.36 143.66C280.59 143.37 281.12 130.93 281.18 130.96C296.71 136.28 297.36 136.59 297.36 136.59Z" fill="#C46092"/>
<path d="M282.61 98.2904C285.19 96.7304 291.01 96.6604 293.68 96.6504C302.5 96.6504 306.24 102.65 308.11 111.27C310.2 120.92 312.5 137.84 301.04 140.17C294.55 141.49 280.85 135.17 276.98 129.76C275.6 127.84 274.78 122.14 275.06 119.25C276 110.18 276.5 102 282.61 98.2904Z" fill="#E998AD"/>
<path d="M284.47 91.0504C295.35 89.6404 305.68 91.4004 305.47 103.49C300 97.0004 300.5 104.71 293.7 103C288.22 101.64 278.99 104.64 280 109.47C281.38 116 279 116.65 279 116.65L275 130.8C275 130.8 264.5 114.8 263.47 106.69C262.44 98.5804 274.25 92.3804 284.47 91.0504Z" fill="#292625"/>
<path d="M298.24 85.6504C299.417 85.4051 300.64 85.5142 301.755 85.9639C302.87 86.4136 303.826 87.1838 304.504 88.177C305.181 89.1703 305.549 90.342 305.56 91.5441C305.572 92.7463 305.227 93.9248 304.568 94.9309C303.91 95.9369 302.969 96.7253 301.863 97.1963C300.757 97.6674 299.536 97.7999 298.354 97.5773C297.173 97.3546 296.084 96.7867 295.225 95.9454C294.367 95.104 293.777 94.027 293.53 92.8504C293.366 92.0683 293.358 91.2616 293.506 90.4764C293.654 89.6911 293.955 88.9428 294.392 88.2741C294.83 87.6054 295.395 87.0294 296.055 86.5792C296.715 86.1291 297.458 85.8134 298.24 85.6504Z" fill="#292625"/>
<path d="M306.65 108.77L306.52 109.83C305.635 109.693 304.73 109.82 303.917 110.195C303.104 110.571 302.42 111.177 301.95 111.94C301.95 112.74 302.33 116.85 305.3 119.32C305.489 119.462 305.638 119.651 305.731 119.869C305.824 120.087 305.858 120.325 305.83 120.56C305.66 122.12 302.74 123.68 302.16 123.98L301.67 122.98C302.87 122.37 304.67 121.12 304.76 120.4C304.76 120.35 304.76 120.25 304.61 120.11C300.94 117.06 300.87 111.98 300.87 111.77V111.64L300.93 111.52C301.506 110.548 302.356 109.768 303.374 109.279C304.392 108.789 305.532 108.612 306.65 108.77V108.77Z" fill="#292625"/>
<path d="M272.68 114.25C273.88 113.998 275.128 114.106 276.266 114.563C277.405 115.02 278.382 115.804 279.075 116.816C279.767 117.828 280.144 119.023 280.157 120.249C280.171 121.476 279.82 122.678 279.15 123.706C278.48 124.733 277.52 125.538 276.392 126.019C275.264 126.501 274.019 126.637 272.813 126.411C271.608 126.184 270.497 125.605 269.62 124.747C268.744 123.889 268.142 122.791 267.89 121.59C267.552 119.982 267.867 118.305 268.766 116.929C269.664 115.552 271.072 114.589 272.68 114.25V114.25Z" fill="#E998AD"/>
<path d="M275.3 116.39C276.71 117.59 275.93 118.53 275.36 119.22C274.951 119.653 274.643 120.173 274.46 120.74C274.381 121.005 274.375 121.286 274.444 121.554C274.513 121.822 274.653 122.066 274.85 122.26C275.12 122.499 275.292 122.829 275.334 123.186C275.377 123.544 275.286 123.905 275.08 124.2C274.964 124.384 274.81 124.543 274.63 124.665C274.449 124.787 274.245 124.871 274.03 124.91C273.917 124.92 273.803 124.92 273.69 124.91C272.969 124.849 272.278 124.593 271.69 124.17L272.33 123.3C272.758 123.63 273.281 123.812 273.82 123.82C273.893 123.808 273.962 123.781 274.022 123.739C274.083 123.698 274.133 123.643 274.17 123.58C274.32 123.35 274.33 123.31 274 122.89C273.697 122.569 273.482 122.174 273.379 121.744C273.275 121.314 273.286 120.864 273.41 120.44C273.629 119.718 274.009 119.055 274.52 118.5C275.13 117.77 275.19 117.69 274.59 117.18C273.59 116.29 271.37 117.85 270.59 118.53L269.86 117.73C270 117.63 273.32 114.71 275.3 116.39Z" fill="#292625"/>
<path d="M305.15 128.85L305.74 129.75C304.584 130.491 303.233 130.871 301.86 130.84C296.79 130.84 291.2 126.62 290.91 126.4L291.56 125.54C291.65 125.61 300.23 132.09 305.15 128.85Z" fill="#292625"/>
<path d="M297.89 111.27L297.11 112.01C297.11 112.01 295.23 110.21 290.81 113.82L290.13 112.98C295.4 108.69 297.79 111.16 297.89 111.27Z" fill="#292625"/>
<path d="M275.71 107.79C276.908 107.377 278.139 107.069 279.39 106.87C280.687 106.668 282 106.594 283.31 106.65L282.75 109.83C281.688 109.539 280.599 109.358 279.5 109.29C278.361 109.208 277.216 109.232 276.08 109.36C274.921 109.48 273.778 109.724 272.67 110.09C271.541 110.462 270.457 110.962 269.44 111.58C270.319 110.731 271.292 109.986 272.34 109.36C273.403 108.715 274.533 108.188 275.71 107.79Z" fill="#E998AD"/>
<path d="M293.72 114C294.03 113.936 294.351 113.965 294.645 114.083C294.938 114.202 295.189 114.404 295.367 114.665C295.545 114.926 295.642 115.234 295.645 115.551C295.648 115.867 295.558 116.177 295.385 116.441C295.212 116.706 294.965 116.914 294.675 117.038C294.384 117.162 294.063 117.198 293.752 117.14C293.442 117.082 293.155 116.933 292.929 116.713C292.702 116.492 292.546 116.209 292.48 115.9C292.436 115.694 292.434 115.481 292.472 115.274C292.511 115.067 292.59 114.869 292.705 114.692C292.821 114.516 292.97 114.364 293.144 114.245C293.318 114.126 293.514 114.043 293.72 114V114Z" fill="#292625"/>
<path d="M304.13 111.79C304.439 111.726 304.761 111.755 305.054 111.873C305.347 111.992 305.598 112.194 305.776 112.455C305.955 112.716 306.051 113.025 306.055 113.341C306.058 113.657 305.967 113.967 305.795 114.231C305.622 114.496 305.374 114.704 305.084 114.828C304.793 114.952 304.472 114.988 304.162 114.93C303.851 114.872 303.564 114.723 303.338 114.503C303.111 114.282 302.956 113.999 302.89 113.69C302.804 113.274 302.886 112.841 303.118 112.485C303.35 112.129 303.714 111.879 304.13 111.79V111.79Z" fill="#292625"/>
<path d="M270.21 105.88C270.649 105.281 270.85 104.54 270.775 103.801C270.699 103.063 270.352 102.378 269.8 101.88L270.51 101.07C271.28 101.745 271.766 102.687 271.87 103.705C271.974 104.724 271.688 105.744 271.07 106.56C270.752 106.989 270.35 107.35 269.89 107.622C269.43 107.893 268.92 108.069 268.39 108.14L268.24 107.08C268.632 107.02 269.007 106.883 269.345 106.677C269.683 106.471 269.977 106.2 270.21 105.88V105.88Z" fill="#292625"/>
<path d="M289.63 89.7597C290.415 89.6164 291.22 89.631 291.999 89.8028C292.778 89.9745 293.515 90.2999 294.167 90.7599C294.819 91.2199 295.372 91.8053 295.795 92.4817C296.218 93.1582 296.502 93.9122 296.63 94.6997L295.57 94.8797C295.34 93.5857 294.61 92.4342 293.538 91.6744C292.465 90.9146 291.137 90.6076 289.84 90.8197C288.664 91.0085 287.597 91.6201 286.84 92.5397L286.01 91.8497C286.927 90.7416 288.212 89.9999 289.63 89.7597V89.7597Z" fill="#292625"/>
<path d="M298.59 82.9996C299.2 82.4918 299.905 82.1101 300.663 81.8767C301.422 81.6432 302.22 81.5626 303.01 81.6396C304.603 81.7956 306.07 82.5758 307.09 83.8096L306.26 84.4996C305.846 83.9935 305.336 83.5743 304.759 83.2664C304.182 82.9585 303.55 82.7679 302.899 82.7056C302.249 82.6433 301.592 82.7105 300.967 82.9035C300.342 83.0964 299.762 83.4112 299.26 83.8296C298.344 84.5916 297.731 85.6554 297.53 86.8296L296.47 86.6396C296.713 85.2099 297.466 83.9168 298.59 82.9996V82.9996Z" fill="#292625"/>
<path d="M465.19 449C463.42 441 468.69 437.31 468.69 437.31C468.69 437.31 475.14 446.92 482.98 448.16C490.82 449.4 513.61 432.68 520.04 429.75C526.47 426.82 530.93 432.75 530.93 432.75L487.43 488.93C478.68 483.18 455.43 462.93 455.43 462.93C455.703 461.794 456.214 460.728 456.93 459.804C457.645 458.88 458.548 458.119 459.58 457.57C461.24 456.63 467 457 465.19 449Z" fill="#E34462"/>
<path d="M491.67 475.17L491.04 476.05C480.42 468.39 469.68 475.2 469.57 475.27L468.98 474.37C469.1 474.29 480.42 467.08 491.67 475.17Z" fill="#292625"/>
<path d="M530.93 432.73L487.43 488.91C486.01 487.97 484.19 486.65 482.16 485.09L525.47 429.16C527.618 429.752 529.527 431 530.93 432.73V432.73Z" fill="#292625"/>
<path d="M478.52 457.72C484.16 460.06 495.07 450.72 496.19 449.78L499.38 441.97L500.38 442.38L497.09 450.38L497 450.46C496.5 450.91 484.65 461.39 478.11 458.67L477.59 458.44C471.46 455.54 467.37 447.39 467.19 447.03L468.19 446.55C468.2 446.68 472.5 455.18 478.52 457.72Z" fill="#292625"/>
<path d="M490.582 446.149L488.106 453.504L489.13 453.848L491.605 446.494L490.582 446.149Z" fill="#292625"/>
<path d="M483.165 448.294L480.695 455.65L481.719 455.994L484.189 448.638L483.165 448.294Z" fill="#292625"/>
<path d="M458.6 414.14L438.3 425.38L420.95 400.57L446.37 386.48L458.6 414.14Z" fill="#E998AD"/>
<path d="M440.27 418.85C442.27 418.61 447.6 421.07 448.77 413.2C449.94 405.33 456.33 403.99 456.33 403.99C456.33 403.99 459.13 414.99 466.27 418.99C473.41 422.99 501.43 416.36 508.69 416.1C515.95 415.84 518.15 422.79 518.15 422.79L456 457.23C449.58 448.86 434.34 422.14 434.34 422.14C435.038 421.202 435.928 420.423 436.95 419.856C437.973 419.289 439.104 418.946 440.27 418.85V418.85Z" fill="#E34462"/>
<path d="M465 446.43L464.12 447.05C456.55 436.23 443.71 438.41 443.58 438.43L443.39 437.37C443.52 437.35 457 435 465 446.43Z" fill="#292625"/>
<path d="M518.15 422.8L456 457.23C455 455.87 453.67 454.01 452.26 451.87L514.14 417.58C515.981 418.867 517.381 420.69 518.15 422.8V422.8Z" fill="#292625"/>
<path d="M458.52 425.92C463.16 430.12 477.07 425.76 478.52 425.3L484.39 419.47L485.15 420.23L479.09 426.23H478.98C478.39 426.43 465.66 430.66 459.4 427.7C458.827 427.447 458.294 427.11 457.82 426.7C452.57 421.95 451.47 412.62 451.43 412.23L452.5 412.11C452.49 412.21 453.57 421.43 458.52 425.92Z" fill="#292625"/>
<path d="M474.35 419.925L469.327 425.615L470.137 426.33L475.16 420.64L474.35 419.925Z" fill="#292625"/>
<path d="M466.449 419.262L461.424 424.95L462.233 425.665L467.259 419.977L466.449 419.262Z" fill="#292625"/>
<path d="M277.7 182C276.78 189 273.25 209 273.25 209L298.08 219C301.68 241.42 290.98 257.13 290.98 257.13C290.98 257.13 275.38 254.59 270.32 253.13C225.7 240.62 231.5 201 235.69 185.51C247.44 142.15 279.73 166.76 277.7 182Z" fill="white"/>
<path d="M242.29 169.22L243.17 169.85C240.32 173.79 237.98 179.1 236.17 185.65C231.82 201.65 226.47 240.29 270.42 252.65C275.42 254.06 290.87 256.58 291.02 256.65L290.85 257.71C290.21 257.6 275.17 255.15 270.13 253.71C225.25 241.07 230.7 201.71 235.13 185.37C237 178.7 239.38 173.26 242.29 169.22Z" fill="black"/>
<path d="M277.17 182L277.23 181.44L278.3 181.52C278.3 181.73 278.3 181.93 278.24 182.14C277.4 188.47 274.37 205.79 273.85 208.75L288.71 214.75L288.31 215.75L272.64 209.46L272.72 209.03C272.76 208.77 276.26 188.85 277.17 182Z" fill="black"/>
<path d="M421.49 317C427.7 327.23 431.35 353 438.6 367.23C445.85 381.46 452.5 394.08 452.5 394.08C452.5 394.08 423.18 425.84 395.74 416.18C395.74 416.18 369.84 362.97 368.3 327.18C367.68 312.76 407.33 293.68 421.49 317Z" fill="#4B8BA3"/>
<path d="M368.84 327.14C370.31 361.32 394.4 412.14 396.13 415.75C410.5 420.69 425.42 413.98 435.44 407.46L436.03 408.36C425.76 415.04 410.41 421.92 395.56 416.69L395.35 416.61L395.26 416.41C395 415.88 369.26 362.69 367.76 327.18C367.735 326.797 367.735 326.413 367.76 326.03L368.83 326.12C368.808 326.46 368.812 326.801 368.84 327.14V327.14Z" fill="#292625"/>
<path d="M367.86 297.6C367.86 297.728 367.81 297.85 367.72 297.94C367.63 298.03 367.508 298.08 367.38 298.08H283.74C283.475 298.08 283.221 297.975 283.033 297.787C282.846 297.6 282.74 297.345 282.74 297.08V294.74H367.83L367.86 297.6Z" fill="#F5E2D2"/>
<path d="M293.69 293.79V294.79H290.69V293.48H293.35C293.393 293.477 293.436 293.483 293.477 293.498C293.517 293.512 293.554 293.534 293.586 293.563C293.618 293.592 293.643 293.627 293.661 293.666C293.679 293.705 293.689 293.747 293.69 293.79Z" fill="#F5E2D2"/>
<path d="M297.16 293.79V294.79H294.16V293.48H296.82C296.906 293.477 296.99 293.508 297.053 293.566C297.117 293.624 297.155 293.704 297.16 293.79Z" fill="#F5E2D2"/>
<path d="M300.62 293.79V294.79H297.62V293.48H300.28C300.366 293.477 300.45 293.508 300.513 293.566C300.577 293.624 300.615 293.704 300.62 293.79Z" fill="#F5E2D2"/>
<path d="M315.05 293.79V294.79H312.05V293.48H314.71C314.753 293.477 314.796 293.483 314.836 293.498C314.877 293.512 314.914 293.534 314.946 293.563C314.977 293.592 315.003 293.627 315.021 293.666C315.039 293.705 315.049 293.747 315.05 293.79Z" fill="#F5E2D2"/>
<path d="M318.52 293.79V294.79H315.52V293.48H318.18C318.265 293.477 318.349 293.508 318.412 293.566C318.476 293.624 318.514 293.704 318.52 293.79V293.79Z" fill="#F5E2D2"/>
<path d="M359.18 293.79V294.79H356.18V293.48H358.84C358.926 293.477 359.009 293.508 359.073 293.566C359.136 293.624 359.175 293.704 359.18 293.79Z" fill="#F5E2D2"/>
<path d="M362.65 293.79V294.79H359.65V293.48H362.31C362.396 293.477 362.48 293.508 362.543 293.566C362.607 293.624 362.645 293.704 362.65 293.79Z" fill="#F5E2D2"/>
<path d="M311.49 293.79V294.79H301.22V293.48H311.16C311.244 293.48 311.325 293.512 311.386 293.57C311.448 293.628 311.485 293.706 311.49 293.79V293.79Z" fill="#F5E2D2"/>
<path d="M373.89 293.79V294.79H363.62V293.48H373.57C373.653 293.48 373.733 293.513 373.793 293.571C373.853 293.628 373.888 293.707 373.89 293.79V293.79Z" fill="#F5E2D2"/>
<path d="M355.39 293.79V294.79H319.75V293.48H355.07C355.153 293.48 355.233 293.513 355.293 293.571C355.353 293.628 355.387 293.707 355.39 293.79V293.79Z" fill="#F5E2D2"/>
<path d="M381.05 293.47H380.88V294.78H381.05V293.47Z" fill="#99CEFF"/>
<path d="M380.88 293.47H380.71V294.78H380.88V293.47Z" fill="#9BCEFF"/>
<path d="M380.71 293.47H380.54V294.78H380.71V293.47Z" fill="#9CCFFF"/>
<path d="M380.54 293.47H380.37V294.78H380.54V293.47Z" fill="#9DCFFF"/>
<path d="M380.37 293.47H380.2V294.78H380.37V293.47Z" fill="#9ED0FF"/>
<path d="M380.2 293.47H380.03V294.78H380.2V293.47Z" fill="#9FD1FF"/>
<path d="M380.03 293.47H379.86V294.78H380.03V293.47Z" fill="#A1D1FF"/>
<path d="M379.86 293.47H379.69V294.78H379.86V293.47Z" fill="#A2D2FF"/>
<path d="M379.7 293.47H379.53V294.78H379.7V293.47Z" fill="#A4D2FF"/>
<path d="M379.53 293.47H379.36V294.78H379.53V293.47Z" fill="#A5D3FF"/>
<path d="M379.36 293.47H379.19V294.78H379.36V293.47Z" fill="#A6D3FF"/>
<path d="M379.19 293.47H379.02V294.78H379.19V293.47Z" fill="#A7D4FF"/>
<path d="M379.02 293.47H378.85V294.78H379.02V293.47Z" fill="#A9D4FF"/>
<path d="M378.85 293.47H378.68V294.78H378.85V293.47Z" fill="#AAD5FF"/>
<path d="M378.68 293.47H378.51V294.78H378.68V293.47Z" fill="#ABD5FF"/>
<path d="M378.51 293.47H378.34V294.78H378.51V293.47Z" fill="#ACD6FF"/>
<path d="M378.34 293.47H378.17V294.78H378.34V293.47Z" fill="#ADD7FF"/>
<path d="M378.17 293.47H378V294.78H378.17V293.47Z" fill="#AFD7FF"/>
<path d="M378 293.47H377.83V294.78H378V293.47Z" fill="#B0D8FF"/>
<path d="M377.83 293.47H377.66V294.78H377.83V293.47Z" fill="#B1D8FF"/>
<path d="M377.66 293.47H377.49V294.78H377.66V293.47Z" fill="#B2D9FF"/>
<path d="M377.49 293.47H377.32V294.78H377.49V293.47Z" fill="#B4D9FF"/>
<path d="M377.32 293.47H377.15V294.78H377.32V293.47Z" fill="#B5DAFF"/>
<path d="M377.15 293.47H376.98V294.78H377.15V293.47Z" fill="#B6DBFF"/>
<path d="M376.98 293.47H376.81V294.78H376.98V293.47Z" fill="#B7DBFF"/>
<path d="M376.82 293.47H376.65V294.78H376.82V293.47Z" fill="#B8DCFF"/>
<path d="M376.65 293.47H376.48V294.78H376.65V293.47Z" fill="#BADCFF"/>
<path d="M376.48 293.47H376.31V294.78H376.48V293.47Z" fill="#BBDDFF"/>
<path d="M376.31 293.47H376.14V294.78H376.31V293.47Z" fill="#BCDDFF"/>
<path d="M376.14 293.47H375.97V294.78H376.14V293.47Z" fill="#BDDEFF"/>
<path d="M375.97 293.47H375.8V294.78H375.97V293.47Z" fill="#BEDFFF"/>
<path d="M375.8 293.47H375.63V294.78H375.8V293.47Z" fill="#C0DFFF"/>
<path d="M375.63 293.47H375.46V294.78H375.63V293.47Z" fill="#C1E0FF"/>
<path d="M375.46 293.47H375.29V294.78H375.46V293.47Z" fill="#C2E0FF"/>
<path d="M375.29 293.47H375.12V294.78H375.29V293.47Z" fill="#C3E1FF"/>
<path d="M375.12 293.47H374.95V294.78H375.12V293.47Z" fill="#C5E1FF"/>
<path d="M374.95 293.47H374.78V294.78H374.95V293.47Z" fill="#C6E2FF"/>
<path d="M374.78 293.47H374.61V294.78H374.78V293.47Z" fill="#C7E3FF"/>
<path d="M374.61 293.47H374.44V294.78H374.61V293.47Z" fill="#C8E3FF"/>
<path d="M374.44 293.47H374.27V294.78H374.44V293.47Z" fill="#C9E4FF"/>
<path d="M374.27 293.47H374.1V294.78H374.27V293.47Z" fill="#CBE4FF"/>
<path d="M374.1 293.47H373.93V294.78H374.1V293.47Z" fill="#CDE5FF"/>
<path d="M373.94 293.47H373.77V294.78H373.94V293.47Z" fill="#CEE5FF"/>
<path d="M373.77 293.47H373.6V294.78H373.77V293.47Z" fill="#CFE6FF"/>
<path d="M373.6 293.47H373.43V294.78H373.6V293.47Z" fill="#D0E7FF"/>
<path d="M373.43 293.47H373.26V294.78H373.43V293.47Z" fill="#D2E7FF"/>
<path d="M373.26 293.47H373.09V294.78H373.26V293.47Z" fill="#D3E8FF"/>
<path d="M373.09 293.47H372.92V294.78H373.09V293.47Z" fill="#D4E8FF"/>
<path d="M372.92 293.47H372.75V294.78H372.92V293.47Z" fill="#D5E9FF"/>
<path d="M391.05 293.47H390.88V294.78H391.05V293.47Z" fill="#99CEFF"/>
<path d="M390.88 293.47H390.71V294.78H390.88V293.47Z" fill="#9BCEFF"/>
<path d="M390.71 293.47H390.54V294.78H390.71V293.47Z" fill="#9CCFFF"/>
<path d="M390.54 293.47H390.37V294.78H390.54V293.47Z" fill="#9DCFFF"/>
<path d="M390.37 293.47H390.2V294.78H390.37V293.47Z" fill="#9ED0FF"/>
<path d="M390.2 293.47H390.03V294.78H390.2V293.47Z" fill="#9FD1FF"/>
<path d="M390.03 293.47H389.86V294.78H390.03V293.47Z" fill="#A1D1FF"/>
<path d="M389.86 293.47H389.69V294.78H389.86V293.47Z" fill="#A2D2FF"/>
<path d="M389.69 293.47H389.52V294.78H389.69V293.47Z" fill="#A4D2FF"/>
<path d="M389.52 293.47H389.35V294.78H389.52V293.47Z" fill="#A5D3FF"/>
<path d="M389.36 293.47H389.19V294.78H389.36V293.47Z" fill="#A6D3FF"/>
<path d="M389.19 293.47H389.02V294.78H389.19V293.47Z" fill="#A7D4FF"/>
<path d="M389.02 293.47H388.85V294.78H389.02V293.47Z" fill="#A9D4FF"/>
<path d="M388.85 293.47H388.68V294.78H388.85V293.47Z" fill="#AAD5FF"/>
<path d="M388.68 293.47H388.51V294.78H388.68V293.47Z" fill="#ABD5FF"/>
<path d="M388.51 293.47H388.34V294.78H388.51V293.47Z" fill="#ACD6FF"/>
<path d="M388.34 293.47H388.17V294.78H388.34V293.47Z" fill="#ADD7FF"/>
<path d="M388.17 293.47H388V294.78H388.17V293.47Z" fill="#AFD7FF"/>
<path d="M388 293.47H387.83V294.78H388V293.47Z" fill="#B0D8FF"/>
<path d="M387.83 293.47H387.66V294.78H387.83V293.47Z" fill="#B1D8FF"/>
<path d="M387.66 293.47H387.49V294.78H387.66V293.47Z" fill="#B2D9FF"/>
<path d="M387.49 293.47H387.32V294.78H387.49V293.47Z" fill="#B4D9FF"/>
<path d="M387.32 293.47H387.15V294.78H387.32V293.47Z" fill="#B5DAFF"/>
<path d="M387.15 293.47H386.98V294.78H387.15V293.47Z" fill="#B6DBFF"/>
<path d="M386.98 293.47H386.81V294.78H386.98V293.47Z" fill="#B7DBFF"/>
<path d="M386.81 293.47H386.64V294.78H386.81V293.47Z" fill="#B8DCFF"/>
<path d="M386.64 293.47H386.47V294.78H386.64V293.47Z" fill="#BADCFF"/>
<path d="M386.48 293.47H386.31V294.78H386.48V293.47Z" fill="#BBDDFF"/>
<path d="M386.31 293.47H386.14V294.78H386.31V293.47Z" fill="#BCDDFF"/>
<path d="M386.14 293.47H385.97V294.78H386.14V293.47Z" fill="#BDDEFF"/>
<path d="M385.97 293.47H385.8V294.78H385.97V293.47Z" fill="#BEDFFF"/>
<path d="M385.8 293.47H385.63V294.78H385.8V293.47Z" fill="#C0DFFF"/>
<path d="M385.63 293.47H385.46V294.78H385.63V293.47Z" fill="#C1E0FF"/>
<path d="M385.46 293.47H385.29V294.78H385.46V293.47Z" fill="#C2E0FF"/>
<path d="M385.29 293.47H385.12V294.78H385.29V293.47Z" fill="#C3E1FF"/>
<path d="M385.12 293.47H384.95V294.78H385.12V293.47Z" fill="#C5E1FF"/>
<path d="M384.95 293.47H384.78V294.78H384.95V293.47Z" fill="#C6E2FF"/>
<path d="M384.78 293.47H384.61V294.78H384.78V293.47Z" fill="#C7E3FF"/>
<path d="M384.61 293.47H384.44V294.78H384.61V293.47Z" fill="#C8E3FF"/>
<path d="M384.44 293.47H384.27V294.78H384.44V293.47Z" fill="#C9E4FF"/>
<path d="M384.27 293.47H384.1V294.78H384.27V293.47Z" fill="#CBE4FF"/>
<path d="M384.1 293.47H383.93V294.78H384.1V293.47Z" fill="#CDE5FF"/>
<path d="M383.93 293.47H383.76V294.78H383.93V293.47Z" fill="#CEE5FF"/>
<path d="M383.76 293.47H383.59V294.78H383.76V293.47Z" fill="#CFE6FF"/>
<path d="M383.6 293.47H383.43V294.78H383.6V293.47Z" fill="#D0E7FF"/>
<path d="M383.43 293.47H383.26V294.78H383.43V293.47Z" fill="#D2E7FF"/>
<path d="M383.26 293.47H383.09V294.78H383.26V293.47Z" fill="#D3E8FF"/>
<path d="M383.09 293.47H382.92V294.78H383.09V293.47Z" fill="#D4E8FF"/>
<path d="M382.92 293.47H382.75V294.78H382.92V293.47Z" fill="#D5E9FF"/>
<path d="M401.05 293.47H400.88V294.78H401.05V293.47Z" fill="#99CEFF"/>
<path d="M400.88 293.47H400.71V294.78H400.88V293.47Z" fill="#9BCEFF"/>
<path d="M400.71 293.47H400.54V294.78H400.71V293.47Z" fill="#9CCFFF"/>
<path d="M400.54 293.47H400.37V294.78H400.54V293.47Z" fill="#9DCFFF"/>
<path d="M400.37 293.47H400.2V294.78H400.37V293.47Z" fill="#9ED0FF"/>
<path d="M400.2 293.47H400.03V294.78H400.2V293.47Z" fill="#9FD1FF"/>
<path d="M400.03 293.47H399.86V294.78H400.03V293.47Z" fill="#A1D1FF"/>
<path d="M399.86 293.47H399.69V294.78H399.86V293.47Z" fill="#A2D2FF"/>
<path d="M399.69 293.47H399.52V294.78H399.69V293.47Z" fill="#A4D2FF"/>
<path d="M399.52 293.47H399.35V294.78H399.52V293.47Z" fill="#A5D3FF"/>
<path d="M399.35 293.47H399.18V294.78H399.35V293.47Z" fill="#A6D3FF"/>
<path d="M399.18 293.47H399.01V294.78H399.18V293.47Z" fill="#A7D4FF"/>
<path d="M399.02 293.47H398.85V294.78H399.02V293.47Z" fill="#A9D4FF"/>
<path d="M398.84 293.47H398.67V294.78H398.84V293.47Z" fill="#AAD5FF"/>
<path d="M398.68 293.47H398.51V294.78H398.68V293.47Z" fill="#ABD5FF"/>
<path d="M398.51 293.47H398.34V294.78H398.51V293.47Z" fill="#ACD6FF"/>
<path d="M398.34 293.47H398.17V294.78H398.34V293.47Z" fill="#ADD7FF"/>
<path d="M398.17 293.47H398V294.78H398.17V293.47Z" fill="#AFD7FF"/>
<path d="M398 293.47H397.83V294.78H398V293.47Z" fill="#B0D8FF"/>
<path d="M397.83 293.47H397.66V294.78H397.83V293.47Z" fill="#B1D8FF"/>
<path d="M397.66 293.47H397.49V294.78H397.66V293.47Z" fill="#B2D9FF"/>
<path d="M397.49 293.47H397.32V294.78H397.49V293.47Z" fill="#B4D9FF"/>
<path d="M397.32 293.47H397.15V294.78H397.32V293.47Z" fill="#B5DAFF"/>
<path d="M397.15 293.47H396.98V294.78H397.15V293.47Z" fill="#B6DBFF"/>
<path d="M396.98 293.47H396.81V294.78H396.98V293.47Z" fill="#B7DBFF"/>
<path d="M396.81 293.47H396.64V294.78H396.81V293.47Z" fill="#B8DCFF"/>
<path d="M396.64 293.47H396.47V294.78H396.64V293.47Z" fill="#BADCFF"/>
<path d="M396.47 293.47H396.3V294.78H396.47V293.47Z" fill="#BBDDFF"/>
<path d="M396.3 293.47H396.13V294.78H396.3V293.47Z" fill="#BCDDFF"/>
<path d="M396.14 293.47H395.97V294.78H396.14V293.47Z" fill="#BDDEFF"/>
<path d="M395.96 293.47H395.79V294.78H395.96V293.47Z" fill="#BEDFFF"/>
<path d="M395.8 293.47H395.63V294.78H395.8V293.47Z" fill="#C0DFFF"/>
<path d="M395.63 293.47H395.46V294.78H395.63V293.47Z" fill="#C1E0FF"/>
<path d="M395.46 293.47H395.29V294.78H395.46V293.47Z" fill="#C2E0FF"/>
<path d="M395.29 293.47H395.12V294.78H395.29V293.47Z" fill="#C3E1FF"/>
<path d="M395.12 293.47H394.95V294.78H395.12V293.47Z" fill="#C5E1FF"/>
<path d="M394.95 293.47H394.78V294.78H394.95V293.47Z" fill="#C6E2FF"/>
<path d="M394.78 293.47H394.61V294.78H394.78V293.47Z" fill="#C7E3FF"/>
<path d="M394.61 293.47H394.44V294.78H394.61V293.47Z" fill="#C8E3FF"/>
<path d="M394.44 293.47H394.27V294.78H394.44V293.47Z" fill="#C9E4FF"/>
<path d="M394.27 293.47H394.1V294.78H394.27V293.47Z" fill="#CBE4FF"/>
<path d="M394.1 293.47H393.93V294.78H394.1V293.47Z" fill="#CDE5FF"/>
<path d="M393.93 293.47H393.76V294.78H393.93V293.47Z" fill="#CEE5FF"/>
<path d="M393.76 293.47H393.59V294.78H393.76V293.47Z" fill="#CFE6FF"/>
<path d="M393.59 293.47H393.42V294.78H393.59V293.47Z" fill="#D0E7FF"/>
<path d="M393.42 293.47H393.25V294.78H393.42V293.47Z" fill="#D2E7FF"/>
<path d="M393.25 293.47H393.08V294.78H393.25V293.47Z" fill="#D3E8FF"/>
<path d="M393.09 293.47H392.92V294.78H393.09V293.47Z" fill="#D4E8FF"/>
<path d="M392.92 293.47H392.75V294.78H392.92V293.47Z" fill="#D5E9FF"/>
<path d="M411.05 293.47H410.88V294.78H411.05V293.47Z" fill="#99CEFF"/>
<path d="M410.88 293.47H410.71V294.78H410.88V293.47Z" fill="#9BCEFF"/>
<path d="M410.71 293.47H410.54V294.78H410.71V293.47Z" fill="#9CCFFF"/>
<path d="M410.54 293.47H410.37V294.78H410.54V293.47Z" fill="#9DCFFF"/>
<path d="M410.37 293.47H410.2V294.78H410.37V293.47Z" fill="#9ED0FF"/>
<path d="M410.2 293.47H410.03V294.78H410.2V293.47Z" fill="#9FD1FF"/>
<path d="M410.03 293.47H409.86V294.78H410.03V293.47Z" fill="#A1D1FF"/>
<path d="M409.86 293.47H409.69V294.78H409.86V293.47Z" fill="#A2D2FF"/>
<path d="M409.69 293.47H409.52V294.78H409.69V293.47Z" fill="#A4D2FF"/>
<path d="M409.52 293.47H409.35V294.78H409.52V293.47Z" fill="#A5D3FF"/>
<path d="M409.35 293.47H409.18V294.78H409.35V293.47Z" fill="#A6D3FF"/>
<path d="M409.18 293.47H409.01V294.78H409.18V293.47Z" fill="#A7D4FF"/>
<path d="M409.01 293.47H408.84V294.78H409.01V293.47Z" fill="#A9D4FF"/>
<path d="M408.84 293.47H408.67V294.78H408.84V293.47Z" fill="#AAD5FF"/>
<path d="M408.67 293.47H408.5V294.78H408.67V293.47Z" fill="#ABD5FF"/>
<path d="M408.5 293.47H408.33V294.78H408.5V293.47Z" fill="#ACD6FF"/>
<path d="M408.34 293.47H408.17V294.78H408.34V293.47Z" fill="#ADD7FF"/>
<path d="M408.17 293.47H408V294.78H408.17V293.47Z" fill="#AFD7FF"/>
<path d="M408 293.47H407.83V294.78H408V293.47Z" fill="#B0D8FF"/>
<path d="M407.83 293.47H407.66V294.78H407.83V293.47Z" fill="#B1D8FF"/>
<path d="M407.66 293.47H407.49V294.78H407.66V293.47Z" fill="#B2D9FF"/>
<path d="M407.49 293.47H407.32V294.78H407.49V293.47Z" fill="#B4D9FF"/>
<path d="M407.32 293.47H407.15V294.78H407.32V293.47Z" fill="#B5DAFF"/>
<path d="M407.15 293.47H406.98V294.78H407.15V293.47Z" fill="#B6DBFF"/>
<path d="M406.98 293.47H406.81V294.78H406.98V293.47Z" fill="#B7DBFF"/>
<path d="M406.81 293.47H406.64V294.78H406.81V293.47Z" fill="#B8DCFF"/>
<path d="M406.64 293.47H406.47V294.78H406.64V293.47Z" fill="#BADCFF"/>
<path d="M406.47 293.47H406.3V294.78H406.47V293.47Z" fill="#BBDDFF"/>
<path d="M406.3 293.47H406.13V294.78H406.3V293.47Z" fill="#BCDDFF"/>
<path d="M406.13 293.47H405.96V294.78H406.13V293.47Z" fill="#BDDEFF"/>
<path d="M405.96 293.47H405.79V294.78H405.96V293.47Z" fill="#BEDFFF"/>
<path d="M405.8 293.47H405.63V294.78H405.8V293.47Z" fill="#C0DFFF"/>
<path d="M405.63 293.47H405.46V294.78H405.63V293.47Z" fill="#C1E0FF"/>
<path d="M405.46 293.47H405.29V294.78H405.46V293.47Z" fill="#C2E0FF"/>
<path d="M405.29 293.47H405.12V294.78H405.29V293.47Z" fill="#C3E1FF"/>
<path d="M405.12 293.47H404.95V294.78H405.12V293.47Z" fill="#C5E1FF"/>
<path d="M404.95 293.47H404.78V294.78H404.95V293.47Z" fill="#C6E2FF"/>
<path d="M404.78 293.47H404.61V294.78H404.78V293.47Z" fill="#C7E3FF"/>
<path d="M404.61 293.47H404.44V294.78H404.61V293.47Z" fill="#C8E3FF"/>
<path d="M404.44 293.47H404.27V294.78H404.44V293.47Z" fill="#C9E4FF"/>
<path d="M404.27 293.47H404.1V294.78H404.27V293.47Z" fill="#CBE4FF"/>
<path d="M404.1 293.47H403.93V294.78H404.1V293.47Z" fill="#CDE5FF"/>
<path d="M403.93 293.47H403.76V294.78H403.93V293.47Z" fill="#CEE5FF"/>
<path d="M403.76 293.47H403.59V294.78H403.76V293.47Z" fill="#CFE6FF"/>
<path d="M403.59 293.47H403.42V294.78H403.59V293.47Z" fill="#D0E7FF"/>
<path d="M403.42 293.47H403.25V294.78H403.42V293.47Z" fill="#D2E7FF"/>
<path d="M403.25 293.47H403.08V294.78H403.25V293.47Z" fill="#D3E8FF"/>
<path d="M403.08 293.47H402.91V294.78H403.08V293.47Z" fill="#D4E8FF"/>
<path d="M402.92 293.47H402.75V294.78H402.92V293.47Z" fill="#D5E9FF"/>
<path d="M419.37 293.47H419.27V294.78H419.37V293.47Z" fill="#99CEFF"/>
<path d="M419.27 293.47H419.17V294.78H419.27V293.47Z" fill="#9BCEFF"/>
<path d="M419.169 293.47H419.069V294.78H419.169V293.47Z" fill="#9CCFFF"/>
<path d="M419.07 293.47H418.97V294.78H419.07V293.47Z" fill="#9DCFFF"/>
<path d="M418.969 293.47H418.869V294.78H418.969V293.47Z" fill="#9ED0FF"/>
<path d="M418.87 293.47H418.77V294.78H418.87V293.47Z" fill="#9FD1FF"/>
<path d="M418.78 293.47H418.68V294.78H418.78V293.47Z" fill="#A1D1FF"/>
<path d="M418.679 293.47H418.579V294.78H418.679V293.47Z" fill="#A2D2FF"/>
<path d="M418.58 293.47H418.479V294.78H418.58V293.47Z" fill="#A4D2FF"/>
<path d="M418.48 293.47H418.38V294.78H418.48V293.47Z" fill="#A5D3FF"/>
<path d="M418.379 293.47H418.279V294.78H418.379V293.47Z" fill="#A6D3FF"/>
<path d="M418.28 293.47H418.18V294.78H418.28V293.47Z" fill="#A7D4FF"/>
<path d="M418.179 293.47H418.079V294.78H418.179V293.47Z" fill="#A9D4FF"/>
<path d="M418.08 293.47H417.979V294.78H418.08V293.47Z" fill="#AAD5FF"/>
<path d="M417.98 293.47H417.88V294.78H417.98V293.47Z" fill="#ABD5FF"/>
<path d="M417.879 293.47H417.779V294.78H417.879V293.47Z" fill="#ACD6FF"/>
<path d="M417.789 293.47H417.689V294.78H417.789V293.47Z" fill="#ADD7FF"/>
<path d="M417.69 293.47H417.59V294.78H417.69V293.47Z" fill="#AFD7FF"/>
<path d="M417.589 293.47H417.489V294.78H417.589V293.47Z" fill="#B0D8FF"/>
<path d="M417.49 293.47H417.39V294.78H417.49V293.47Z" fill="#B1D8FF"/>
<path d="M417.389 293.47H417.289V294.78H417.389V293.47Z" fill="#B2D9FF"/>
<path d="M417.289 293.47H417.189V294.78H417.289V293.47Z" fill="#B4D9FF"/>
<path d="M417.19 293.47H417.09V294.78H417.19V293.47Z" fill="#B5DAFF"/>
<path d="M417.089 293.47H416.989V294.78H417.089V293.47Z" fill="#B6DBFF"/>
<path d="M416.99 293.47H416.89V294.78H416.99V293.47Z" fill="#B7DBFF"/>
<path d="M416.889 293.47H416.789V294.78H416.889V293.47Z" fill="#B8DCFF"/>
<path d="M416.799 293.47H416.699V294.78H416.799V293.47Z" fill="#BADCFF"/>
<path d="M416.7 293.47H416.6V294.78H416.7V293.47Z" fill="#BBDDFF"/>
<path d="M416.6 293.47H416.5V294.78H416.6V293.47Z" fill="#BCDDFF"/>
<path d="M416.499 293.47H416.399V294.78H416.499V293.47Z" fill="#BDDEFF"/>
<path d="M416.4 293.47H416.3V294.78H416.4V293.47Z" fill="#BEDFFF"/>
<path d="M416.299 293.47H416.199V294.78H416.299V293.47Z" fill="#C0DFFF"/>
<path d="M416.2 293.47H416.1V294.78H416.2V293.47Z" fill="#C1E0FF"/>
<path d="M416.1 293.47H416V294.78H416.1V293.47Z" fill="#C2E0FF"/>
<path d="M415.999 293.47H415.899V294.78H415.999V293.47Z" fill="#C3E1FF"/>
<path d="M415.9 293.47H415.8V294.78H415.9V293.47Z" fill="#C5E1FF"/>
<path d="M415.81 293.47H415.71V294.78H415.81V293.47Z" fill="#C6E2FF"/>
<path d="M415.709 293.47H415.609V294.78H415.709V293.47Z" fill="#C7E3FF"/>
<path d="M415.61 293.47H415.51V294.78H415.61V293.47Z" fill="#C8E3FF"/>
<path d="M415.509 293.47H415.409V294.78H415.509V293.47Z" fill="#C9E4FF"/>
<path d="M415.41 293.47H415.31V294.78H415.41V293.47Z" fill="#CBE4FF"/>
<path d="M415.31 293.47H415.21V294.78H415.31V293.47Z" fill="#CDE5FF"/>
<path d="M415.209 293.47H415.109V294.78H415.209V293.47Z" fill="#CEE5FF"/>
<path d="M415.11 293.47H415.01V294.78H415.11V293.47Z" fill="#CFE6FF"/>
<path d="M415.009 293.47H414.909V294.78H415.009V293.47Z" fill="#D0E7FF"/>
<path d="M414.91 293.47H414.81V294.78H414.91V293.47Z" fill="#D2E7FF"/>
<path d="M414.81 293.47H414.71V294.78H414.81V293.47Z" fill="#D3E8FF"/>
<path d="M414.719 293.47H414.619V294.78H414.719V293.47Z" fill="#D4E8FF"/>
<path d="M414.62 293.47H414.52V294.78H414.62V293.47Z" fill="#D5E9FF"/>
<path d="M425.26 293.47H425.16V294.78H425.26V293.47Z" fill="#99CEFF"/>
<path d="M425.17 293.47H425.07V294.78H425.17V293.47Z" fill="#9BCEFF"/>
<path d="M425.07 293.47H424.97V294.78H425.07V293.47Z" fill="#9CCFFF"/>
<path d="M424.97 293.47H424.87V294.78H424.97V293.47Z" fill="#9DCFFF"/>
<path d="M424.87 293.47H424.771V294.78H424.87V293.47Z" fill="#9ED0FF"/>
<path d="M424.77 293.47H424.67V294.78H424.77V293.47Z" fill="#9FD1FF"/>
<path d="M424.67 293.47H424.57V294.78H424.67V293.47Z" fill="#A1D1FF"/>
<path d="M424.57 293.47H424.47V294.78H424.57V293.47Z" fill="#A2D2FF"/>
<path d="M424.47 293.47H424.37V294.78H424.47V293.47Z" fill="#A4D2FF"/>
<path d="M424.37 293.47H424.271V294.78H424.37V293.47Z" fill="#A5D3FF"/>
<path d="M424.27 293.47H424.17V294.78H424.27V293.47Z" fill="#A6D3FF"/>
<path d="M424.18 293.47H424.08V294.78H424.18V293.47Z" fill="#A7D4FF"/>
<path d="M424.081 293.47H423.98V294.78H424.081V293.47Z" fill="#A9D4FF"/>
<path d="M423.98 293.47H423.88V294.78H423.98V293.47Z" fill="#AAD5FF"/>
<path d="M423.88 293.47H423.78V294.78H423.88V293.47Z" fill="#ABD5FF"/>
<path d="M423.78 293.47H423.68V294.78H423.78V293.47Z" fill="#ACD6FF"/>
<path d="M423.68 293.47H423.58V294.78H423.68V293.47Z" fill="#ADD7FF"/>
<path d="M423.581 293.47H423.48V294.78H423.581V293.47Z" fill="#AFD7FF"/>
<path d="M423.48 293.47H423.38V294.78H423.48V293.47Z" fill="#B0D8FF"/>
<path d="M423.38 293.47H423.28V294.78H423.38V293.47Z" fill="#B1D8FF"/>
<path d="M423.28 293.47H423.18V294.78H423.28V293.47Z" fill="#B2D9FF"/>
<path d="M423.18 293.47H423.08V294.78H423.18V293.47Z" fill="#B4D9FF"/>
<path d="M423.09 293.47H422.99V294.78H423.09V293.47Z" fill="#B5DAFF"/>
<path d="M422.991 293.47H422.891V294.78H422.991V293.47Z" fill="#B6DBFF"/>
<path d="M422.89 293.47H422.79V294.78H422.89V293.47Z" fill="#B7DBFF"/>
<path d="M422.79 293.47H422.69V294.78H422.79V293.47Z" fill="#B8DCFF"/>
<path d="M422.69 293.47H422.59V294.78H422.69V293.47Z" fill="#BADCFF"/>
<path d="M422.59 293.47H422.49V294.78H422.59V293.47Z" fill="#BBDDFF"/>
<path d="M422.491 293.47H422.391V294.78H422.491V293.47Z" fill="#BCDDFF"/>
<path d="M422.39 293.47H422.29V294.78H422.39V293.47Z" fill="#BDDEFF"/>
<path d="M422.29 293.47H422.19V294.78H422.29V293.47Z" fill="#BEDFFF"/>
<path d="M422.19 293.47H422.09V294.78H422.19V293.47Z" fill="#C0DFFF"/>
<path d="M422.1 293.47H422V294.78H422.1V293.47Z" fill="#C1E0FF"/>
<path d="M422 293.47H421.9V294.78H422V293.47Z" fill="#C2E0FF"/>
<path d="M421.9 293.47H421.8V294.78H421.9V293.47Z" fill="#C3E1FF"/>
<path d="M421.8 293.47H421.7V294.78H421.8V293.47Z" fill="#C5E1FF"/>
<path d="M421.701 293.47H421.601V294.78H421.701V293.47Z" fill="#C6E2FF"/>
<path d="M421.6 293.47H421.5V294.78H421.6V293.47Z" fill="#C7E3FF"/>
<path d="M421.5 293.47H421.4V294.78H421.5V293.47Z" fill="#C8E3FF"/>
<path d="M421.4 293.47H421.3V294.78H421.4V293.47Z" fill="#C9E4FF"/>
<path d="M421.3 293.47H421.2V294.78H421.3V293.47Z" fill="#CBE4FF"/>
<path d="M421.21 293.47H421.11V294.78H421.21V293.47Z" fill="#CDE5FF"/>
<path d="M421.11 293.47H421.01V294.78H421.11V293.47Z" fill="#CEE5FF"/>
<path d="M421.01 293.47H420.91V294.78H421.01V293.47Z" fill="#CFE6FF"/>
<path d="M420.911 293.47H420.811V294.78H420.911V293.47Z" fill="#D0E7FF"/>
<path d="M420.81 293.47H420.71V294.78H420.81V293.47Z" fill="#D2E7FF"/>
<path d="M420.71 293.47H420.61V294.78H420.71V293.47Z" fill="#D3E8FF"/>
<path d="M420.61 293.47H420.51V294.78H420.61V293.47Z" fill="#D4E8FF"/>
<path d="M420.51 293.47H420.41V294.78H420.51V293.47Z" fill="#D5E9FF"/>
<path d="M430.81 293.47H430.71V294.78H430.81V293.47Z" fill="#99CEFF"/>
<path d="M430.71 293.47H430.61V294.78H430.71V293.47Z" fill="#9BCEFF"/>
<path d="M430.61 293.47H430.51V294.78H430.61V293.47Z" fill="#9CCFFF"/>
<path d="M430.52 293.47H430.42V294.78H430.52V293.47Z" fill="#9DCFFF"/>
<path d="M430.42 293.47H430.32V294.78H430.42V293.47Z" fill="#9ED0FF"/>
<path d="M430.32 293.47H430.22V294.78H430.32V293.47Z" fill="#9FD1FF"/>
<path d="M430.22 293.47H430.12V294.78H430.22V293.47Z" fill="#A1D1FF"/>
<path d="M430.12 293.47H430.02V294.78H430.12V293.47Z" fill="#A2D2FF"/>
<path d="M430.02 293.47H429.92V294.78H430.02V293.47Z" fill="#A4D2FF"/>
<path d="M429.92 293.47H429.82V294.78H429.92V293.47Z" fill="#A5D3FF"/>
<path d="M429.82 293.47H429.72V294.78H429.82V293.47Z" fill="#A6D3FF"/>
<path d="M429.72 293.47H429.62V294.78H429.72V293.47Z" fill="#A7D4FF"/>
<path d="M429.63 293.47H429.53V294.78H429.63V293.47Z" fill="#A9D4FF"/>
<path d="M429.53 293.47H429.43V294.78H429.53V293.47Z" fill="#AAD5FF"/>
<path d="M429.43 293.47H429.33V294.78H429.43V293.47Z" fill="#ABD5FF"/>
<path d="M429.33 293.47H429.229V294.78H429.33V293.47Z" fill="#ACD6FF"/>
<path d="M429.23 293.47H429.13V294.78H429.23V293.47Z" fill="#ADD7FF"/>
<path d="M429.13 293.47H429.03V294.78H429.13V293.47Z" fill="#AFD7FF"/>
<path d="M429.03 293.47H428.93V294.78H429.03V293.47Z" fill="#B0D8FF"/>
<path d="M428.93 293.47H428.83V294.78H428.93V293.47Z" fill="#B1D8FF"/>
<path d="M428.83 293.47H428.729V294.78H428.83V293.47Z" fill="#B2D9FF"/>
<path d="M428.73 293.47H428.63V294.78H428.73V293.47Z" fill="#B4D9FF"/>
<path d="M428.64 293.47H428.54V294.78H428.64V293.47Z" fill="#B5DAFF"/>
<path d="M428.539 293.47H428.439V294.78H428.539V293.47Z" fill="#B6DBFF"/>
<path d="M428.44 293.47H428.34V294.78H428.44V293.47Z" fill="#B7DBFF"/>
<path d="M428.34 293.47H428.24V294.78H428.34V293.47Z" fill="#B8DCFF"/>
<path d="M428.24 293.47H428.14V294.78H428.24V293.47Z" fill="#BADCFF"/>
<path d="M428.14 293.47H428.04V294.78H428.14V293.47Z" fill="#BBDDFF"/>
<path d="M428.039 293.47H427.939V294.78H428.039V293.47Z" fill="#BCDDFF"/>
<path d="M427.94 293.47H427.84V294.78H427.94V293.47Z" fill="#BDDEFF"/>
<path d="M427.84 293.47H427.74V294.78H427.84V293.47Z" fill="#BEDFFF"/>
<path d="M427.74 293.47H427.64V294.78H427.74V293.47Z" fill="#C0DFFF"/>
<path d="M427.64 293.47H427.54V294.78H427.64V293.47Z" fill="#C1E0FF"/>
<path d="M427.55 293.47H427.45V294.78H427.55V293.47Z" fill="#C2E0FF"/>
<path d="M427.45 293.47H427.35V294.78H427.45V293.47Z" fill="#C3E1FF"/>
<path d="M427.35 293.47H427.25V294.78H427.35V293.47Z" fill="#C5E1FF"/>
<path d="M427.25 293.47H427.15V294.78H427.25V293.47Z" fill="#C6E2FF"/>
<path d="M427.15 293.47H427.05V294.78H427.15V293.47Z" fill="#C7E3FF"/>
<path d="M427.05 293.47H426.95V294.78H427.05V293.47Z" fill="#C8E3FF"/>
<path d="M426.95 293.47H426.85V294.78H426.95V293.47Z" fill="#C9E4FF"/>
<path d="M426.85 293.47H426.75V294.78H426.85V293.47Z" fill="#CBE4FF"/>
<path d="M426.75 293.47H426.65V294.78H426.75V293.47Z" fill="#CDE5FF"/>
<path d="M426.65 293.47H426.55V294.78H426.65V293.47Z" fill="#CEE5FF"/>
<path d="M426.56 293.47H426.46V294.78H426.56V293.47Z" fill="#CFE6FF"/>
<path d="M426.46 293.47H426.36V294.78H426.46V293.47Z" fill="#D0E7FF"/>
<path d="M426.36 293.47H426.26V294.78H426.36V293.47Z" fill="#D2E7FF"/>
<path d="M426.26 293.47H426.16V294.78H426.26V293.47Z" fill="#D3E8FF"/>
<path d="M426.16 293.47H426.06V294.78H426.16V293.47Z" fill="#D4E8FF"/>
<path d="M426.06 293.47H425.96V294.78H426.06V293.47Z" fill="#D5E9FF"/>
<path d="M360.94 232.31C361.286 230.994 362.053 229.826 363.123 228.985C364.193 228.144 365.509 227.675 366.87 227.65L347.59 297.65C346.669 297.326 345.907 296.662 345.461 295.793C345.014 294.925 344.917 293.918 345.19 292.98C345.91 290 357.22 246.58 360.94 232.31Z" fill="#F5E2D2"/>
<path d="M366.68 227H455.77C456.061 227 456.347 227.067 456.608 227.195C456.87 227.322 457.098 227.508 457.276 227.738C457.455 227.967 457.579 228.235 457.638 228.519C457.698 228.804 457.691 229.098 457.62 229.38L441.22 294.15H347.51L364.06 229.04C364.208 228.458 364.546 227.941 365.021 227.572C365.495 227.202 366.079 227.001 366.68 227Z" fill="#292625"/>
<path d="M441.64 297.6C441.64 297.664 441.628 297.727 441.603 297.786C441.578 297.845 441.542 297.898 441.496 297.943C441.451 297.988 441.397 298.023 441.337 298.046C441.278 298.07 441.214 298.081 441.15 298.08H349.23C348.965 298.08 348.711 297.975 348.523 297.787C348.336 297.6 348.23 297.345 348.23 297.08V294.08H441.61L441.64 297.6Z" fill="#292625"/>
<path d="M349.32 294.28H283.82V295.28H349.32V294.28Z" fill="#292625"/>
<path d="M441.64 294.28H365.22V295.28H441.64V294.28Z" fill="#F5E2D2"/>
<path d="M119.97 354H218.21L218.64 292.09L168.65 253.6L118.66 292.51L119.97 354Z" fill="#366274"/>
<path d="M205.96 251.52H131.97V341.45H205.96V251.52Z" fill="white"/>
<path d="M206.62 342.1H131.32V250.87H206.62V342.1ZM132.62 340.8H205.31V252.17H132.62V340.8Z" fill="#4B8BA3"/>
<path d="M118.66 363.17H218.64L183.3 329.93H154.19L118.66 363.17Z" fill="#366274"/>
<path d="M154.25 329.93L118.73 294.39V363.14L154.25 329.93Z" fill="#4C8AA0"/>
<path d="M218.7 294.39L183.3 329.93L218.7 363.14V294.39Z" fill="#4C8AA0"/>
<path d="M173.29 268.98H142.91V271.28H173.29V268.98Z" fill="#292625"/>
<path d="M158.1 275.52H142.91V277.82H158.1V275.52Z" fill="#292625"/>
<path d="M177.64 275.52H162.45V277.82H177.64V275.52Z" fill="#292625"/>
<path d="M197.4 275.52H182.21V277.82H197.4V275.52Z" fill="#292625"/>
<path d="M197.4 268.98H176.24V271.28H197.4V268.98Z" fill="#292625"/>
<path d="M197.39 281.84H167.01V284.14H197.39V281.84Z" fill="#292625"/>
<path d="M164.07 281.84H142.91V284.14H164.07V281.84Z" fill="#292625"/>
<path d="M173.29 288.12H142.91V290.42H173.29V288.12Z" fill="#292625"/>
<path d="M158.1 294.66H142.91V296.96H158.1V294.66Z" fill="#292625"/>
<path d="M177.64 294.66H162.45V296.96H177.64V294.66Z" fill="#292625"/>
<path d="M197.4 294.66H182.21V296.96H197.4V294.66Z" fill="#292625"/>
<path d="M197.4 288.12H176.24V290.42H197.4V288.12Z" fill="#292625"/>
<path d="M197.39 300.98H167.01V303.28H197.39V300.98Z" fill="#292625"/>
<path d="M164.07 300.98H142.91V303.28H164.07V300.98Z" fill="#292625"/>
</svg>
