<svg width="511" height="414" viewBox="0 0 511 414" fill="none" xmlns="http://www.w3.org/2000/svg">
    <g clip-path="url(#clip0)">
        <path d="M42.2063 412.923C42.2063 412.923 -19.0047 298.592 119.647 265.221C235.859 237.251 275.399 132.686 366.454 129.498C473.35 125.749 532.297 240.805 456.495 412.923H42.2063Z" fill="#E9E3E0"/>
        <path d="M1.50977 240.001L79.073 191.981L140.119 205.955L210.71 130.912H276.492L362.12 78.4324L383.547 85.2473L490.652 32.2146" stroke="black" stroke-width="0.5" stroke-miterlimit="10"/>
        <path d="M203.881 303.173H111.568V412.923H203.881V303.173Z" fill="white"/>
        <path d="M100.715 341.894H8.40234V412.916H100.715V341.894Z" fill="white"/>
        <path d="M305.896 262.471H213.584V412.916H305.896V262.471Z" fill="white"/>
        <path d="M407.906 222.536H315.594V412.923H407.906V222.536Z" fill="white"/>
        <path d="M509.922 179.09H417.609V412.923H509.922V179.09Z" fill="white"/>
        <path d="M210.71 132.42C211.543 132.42 212.219 131.745 212.219 130.912C212.219 130.079 211.543 129.404 210.71 129.404C209.876 129.404 209.2 130.079 209.2 130.912C209.2 131.745 209.876 132.42 210.71 132.42Z" fill="#39332E"/>
        <path d="M1.50943 241.509C2.34307 241.509 3.01886 240.834 3.01886 240.001C3.01886 239.168 2.34307 238.493 1.50943 238.493C0.675795 238.493 0 239.168 0 240.001C0 240.834 0.675795 241.509 1.50943 241.509Z" fill="#39332E"/>
        <path d="M276.492 132.42C277.326 132.42 278.001 131.745 278.001 130.912C278.001 130.079 277.326 129.404 276.492 129.404C275.658 129.404 274.982 130.079 274.982 130.912C274.982 131.745 275.658 132.42 276.492 132.42Z" fill="#39332E"/>
        <path d="M362.12 79.9405C362.953 79.9405 363.629 79.2653 363.629 78.4325C363.629 77.5996 362.953 76.9244 362.12 76.9244C361.286 76.9244 360.61 77.5996 360.61 78.4325C360.61 79.2653 361.286 79.9405 362.12 79.9405Z" fill="#39332E"/>
        <path d="M385.049 85.2473C385.049 85.5456 384.961 85.8371 384.795 86.0851C384.629 86.3331 384.393 86.5264 384.117 86.6405C383.842 86.7547 383.538 86.7846 383.245 86.7264C382.952 86.6682 382.683 86.5246 382.472 86.3136C382.261 86.1027 382.118 85.834 382.059 85.5415C382.001 85.249 382.031 84.9458 382.145 84.6702C382.259 84.3946 382.453 84.1591 382.701 83.9934C382.949 83.8277 383.241 83.7393 383.54 83.7393C383.94 83.7393 384.324 83.8981 384.607 84.181C384.89 84.4638 385.049 84.8473 385.049 85.2473Z" fill="#39332E"/>
        <path d="M490.651 37.3563C493.494 37.3563 495.798 35.0543 495.798 32.2146C495.798 29.3749 493.494 27.0729 490.651 27.0729C487.809 27.0729 485.505 29.3749 485.505 32.2146C485.505 35.0543 487.809 37.3563 490.651 37.3563Z" fill="#AFB4B4"/>
        <path d="M492.161 32.2145C492.167 32.514 492.083 32.8083 491.921 33.06C491.759 33.3118 491.525 33.5095 491.25 33.6281C490.974 33.7467 490.67 33.7807 490.375 33.7258C490.081 33.6708 489.809 33.5295 489.595 33.3198C489.381 33.1101 489.234 32.8415 489.174 32.5482C489.113 32.2549 489.141 31.9502 489.255 31.673C489.368 31.3958 489.561 31.1585 489.81 30.9915C490.059 30.8245 490.352 30.7353 490.652 30.7352C491.047 30.7352 491.427 30.8901 491.709 31.1667C491.991 31.4433 492.154 31.8196 492.161 32.2145V32.2145Z" fill="#39332E"/>
        <path d="M217.157 78.4325C217.157 78.4325 212.679 78.8777 212.255 79.1937C211.831 79.5097 207.224 82.1164 207.224 82.1164C207.224 82.1164 210.458 82.1667 211.932 81.6784C211.932 81.6784 209.057 81.3911 202.408 85.6998C202.408 85.6998 208.309 84.2636 209.509 84.0194C210.71 83.7753 202.408 87.5166 201.344 88.5651C200.28 89.6135 209.603 86.2312 210.99 85.8147C212.377 85.3982 204.09 90.0516 204.025 90.9995C203.96 91.9474 211.213 88.1988 212.219 87.6028C213.226 87.0068 206.663 91.7391 206.469 92.486C206.275 93.2328 214.994 88.4215 220.126 83.4952L217.157 78.4325Z" fill="#E1A260"/>
        <path d="M114.135 106.733C114.135 106.733 157.98 101.261 189.844 85.2473L192.295 91.3082C181.795 99.3053 170.271 105.862 158.03 110.805C158.03 110.805 138.264 119.544 126.742 122.424L114.135 106.733Z" fill="#E085C4"/>
        <path d="M337.193 105.139C337.193 105.139 379.902 119.063 383.252 137.253C386.249 153.49 365.282 189.173 351.309 210.831H341.822C341.822 210.831 352.474 154.1 364.154 146.919C364.154 146.919 303.173 132.499 294.433 112.306L337.193 105.139Z" fill="#5E64B7"/>
        <path d="M286.828 108.852C286.828 108.852 284.011 172.441 284.011 184.893C284.011 197.345 283.177 250.766 283.177 250.766H292.672C292.672 250.766 307.083 202.128 301.441 185.489C301.441 185.489 325.563 123.257 328.143 109.85L286.828 108.852Z" fill="#5E64B7"/>
        <path d="M281.581 32.2146C281.581 32.2146 232.136 68.4363 217.07 78.3032L220.226 83.6387C220.226 83.6387 241.149 74.3607 256.452 66.7631C256.452 66.7631 270.109 60.6591 279.654 56.9105L281.581 32.2146Z" fill="#181B5E"/>
        <path d="M311.776 27.2668C300.995 24.2651 286.468 29.493 286.468 29.493C286.468 29.493 277.124 31.0728 277.124 44.8606C277.124 44.8606 280.164 100.069 286.82 108.852C286.82 108.852 291.65 114.044 308.513 113.383C325.376 112.722 335.057 109.297 337.185 105.139C340.491 91.9258 322.623 30.2829 311.776 27.2668Z" fill="#181B5E"/>
        <path d="M293.088 2.85815L281.947 5.85987L285.369 18.0175L296.869 16.8614L293.088 2.85815Z" fill="#E1A260"/>
        <path d="M286.203 30.2038C291.069 31.0871 301.24 25.8449 301.24 25.8449C297.387 17.6871 296.043 14.8578 296.043 14.8578L283.436 13.1343C286.893 22.6924 286.203 30.2038 286.203 30.2038Z" fill="#E1A260"/>
        <path d="M291.55 3.27454L281.94 5.86693C281.94 5.86693 281.738 11.9422 283.852 15.9205C284.995 18.0749 286.633 19.6475 289.465 19.231C290.9 18.8999 292.185 18.1069 293.124 16.9741C294.063 15.8413 294.604 14.4316 294.662 12.9619C294.641 8.47368 291.55 3.27454 291.55 3.27454Z" fill="#E1A260"/>
        <path d="M284.751 17.3784C285.704 18.2088 286.926 18.6663 288.19 18.6663C289.455 18.6663 290.677 18.2088 291.63 17.3784C291.63 17.3784 292.492 23.8414 285.98 23.9707C285.706 21.7502 285.296 19.5486 284.751 17.3784Z" fill="#BB7B62"/>
        <path d="M286.203 30.2039C286.203 30.2039 284.046 36.193 288.301 37.9165C292.557 39.6399 300.046 33.0046 301.239 25.845C301.239 25.845 290.343 26.9437 286.203 30.2039Z" fill="#E1A260"/>
        <path d="M130.458 188.534C130.458 188.534 177.681 200.483 180.434 222.285C183.187 244.087 157.34 276.776 146.149 291.468H136.222C136.222 291.468 151.036 243.972 160.05 231.534C160.05 231.534 105.983 221.143 85.1172 195.148L130.458 188.534Z" fill="#7D9FEA"/>
        <path d="M79.0729 191.981C79.0729 191.981 72.2589 214.573 82.5446 252.446C82.5446 252.446 65.9337 260.891 55.418 330.189H64.9058C64.9058 330.189 93.93 275.289 100.931 256.941C107.932 238.593 116.687 204.806 117.412 192.419L79.0729 191.981Z" fill="#7D9FEA"/>
        <path d="M85.1674 121.742C86.8134 115.099 90.012 112.471 93.3759 110.776C104.301 105.254 116.319 106.891 116.319 106.891C116.319 106.891 125.124 107.609 127.978 118.532C127.978 118.532 136.114 177.231 129.494 191.234C129.494 191.234 127.094 196.06 108.219 196.641C89.3435 197.223 81.7964 195.973 79.0722 191.981C74.2996 179.047 82.5583 135.63 85.1674 121.742Z" fill="#E5618D"/>
        <path d="M113.171 215.822C113.171 215.822 116.168 203.801 116.369 200.584C116.369 200.584 117.987 213.402 117.088 217.696C115.745 217.153 114.437 216.527 113.171 215.822V215.822Z" fill="#39332E"/>
        <path d="M277.951 38.1893C277.951 38.1893 276.147 43.6973 277.369 57.126C277.369 57.126 275.019 45.5141 277.951 38.1893Z" fill="#39332E"/>
        <path d="M291.407 7.26015C291.407 7.26015 284.255 7.69102 281.948 5.86701V6.49895C281.948 6.49895 278.792 5.14172 279.892 1.32853C281.136 2.12861 282.621 2.46665 284.089 2.28362C283.288 2.20614 282.532 1.87391 281.933 1.33571C281.933 1.33571 283.371 2.14 286.684 1.15618C289.998 0.172364 291.241 -0.280044 292.298 0.150825C292.832 -0.00805402 293.404 0.0183184 293.92 0.225654C294.437 0.43299 294.869 0.809068 295.144 1.29262C296.366 2.96583 295.144 10.4701 295.403 11.3462C295.662 12.2223 292.564 9.01235 291.407 7.26015Z" fill="#39332E"/>
        <path d="M291.292 5.94592C291.292 5.94592 292.011 4.02855 293.729 4.67485C295.166 5.21344 295.842 8.16489 292.751 9.6083C292.258 9.13976 291.874 8.56906 291.626 7.93634C291.378 7.30361 291.271 6.62422 291.314 5.94592" fill="#E1A260"/>
        <path d="M283.177 250.766L281.488 255.354C281.488 255.354 267.371 259.225 265.538 262.478H285.319L288.582 260.798V262.478H293.75C293.75 262.478 293.477 257.078 293.031 255.814L292.65 250.787L283.177 250.766Z" fill="#39332E"/>
        <path d="M351.439 210.831L353.099 215.42C353.099 215.42 358.612 219.29 360.438 222.536H349.268L346.005 221.517V222.536H340.837C340.837 222.536 341.11 217.143 341.556 215.872L341.944 210.845L351.439 210.831Z" fill="#39332E"/>
        <path d="M145.947 291.468L146.35 295.892C146.35 295.892 160.833 299.928 162.666 303.173H142.893L139.629 301.464V303.145H134.454C134.454 303.145 134.727 297.752 135.173 296.481L136.452 291.454L145.947 291.468Z" fill="#39332E"/>
        <path d="M64.9053 330.189L65.3079 334.612C65.3079 334.612 79.7912 338.648 81.6241 341.894H61.8505L58.5801 340.242V341.916H53.4121C53.4121 341.916 53.6852 336.523 54.1309 335.252L55.4103 330.225L64.9053 330.189Z" fill="#39332E"/>
        <path d="M103.777 83.0355L115.313 83.452L114.724 96.0621L103.252 97.5271L103.777 83.0355Z" fill="#E09574"/>
        <path d="M117.046 108.478C112.611 110.669 101.391 108.421 101.391 108.421C102.828 99.5234 103.367 96.4356 103.367 96.4356L115.004 91.3082C114.314 101.455 117.046 108.478 117.046 108.478Z" fill="#E09574"/>
        <path d="M105.387 83.093L115.342 83.4521C115.342 83.4521 116.902 89.3334 115.745 93.6996C115.12 96.0622 113.876 97.9508 111.023 98.1806C109.552 98.1794 108.123 97.6961 106.955 96.8049C105.786 95.9136 104.942 94.6637 104.554 93.2472C103.526 88.8379 105.387 83.093 105.387 83.093Z" fill="#E09574"/>
        <path d="M114.911 95.7533C114.221 96.8124 113.17 97.5858 111.953 97.9304C110.736 98.2749 109.435 98.1674 108.291 97.6276C108.291 97.6276 109.247 104.091 115.543 102.417C115.196 100.211 114.985 97.9855 114.911 95.7533V95.7533Z" fill="#BB7B62"/>
        <path d="M101.391 108.421C101.391 108.421 104.984 119.121 113.193 118.532C120.381 118.015 117.046 108.478 117.046 108.478C111.847 107.853 106.594 107.833 101.391 108.421V108.421Z" fill="#E09574"/>
        <path d="M106.443 87.7177C106.443 87.7177 114.213 87.4735 115.313 83.4521C115.313 83.4521 115.457 84.041 115.528 84.4144C115.528 84.4144 117.505 82.059 116.147 80.3498C112.847 76.2207 106.278 80.6155 104.812 81.4701C104.339 81.4049 103.858 81.4409 103.401 81.5759C102.944 81.7109 102.52 81.9416 102.159 82.2529C101.045 83.3013 101.584 87.4735 103.475 91.3083C103.475 91.3083 105.811 89.8936 106.443 87.7177Z" fill="#39332E"/>
        <path d="M106.192 87.0713C106.192 87.0713 104.755 85.592 103.454 86.8631C102.361 87.9187 102.886 90.9061 106.293 91.0138C106.566 90.3894 106.699 89.7126 106.681 89.0314C106.664 88.3501 106.497 87.681 106.192 87.0713" fill="#E09574"/>
        <path d="M311.776 27.2668C311.776 27.2668 371.435 49.6433 391.561 60.6592L389.699 67.1222C391.043 66.9498 366.878 61.6142 348.678 55.8693C348.678 55.8693 324.599 51.4457 318.13 47.1945C311.661 42.9433 309.721 32.7748 311.776 27.2668Z" fill="#181B5E"/>
        <path d="M89.6894 113.318C89.6894 113.318 28.1764 162.387 17.1504 171.486L19.8746 177.231C19.8746 177.231 45.1252 165.655 61.4774 152.994C61.4774 152.994 86.9939 139.53 89.6894 136.298C92.3848 133.067 98.135 111.81 89.6894 113.318Z" fill="#E085C4"/>
        <path d="M199.604 87.6027C202.005 85.3048 206.231 80.0266 205.98 79.8758C205.728 79.725 198.497 85.4484 198.497 85.4484C199.367 83.8685 202.487 75.086 201.933 75.3948C201.516 75.6246 198.066 81.4341 196.902 83.3874C198.109 81.1541 199.69 76.6012 199.381 76.7736C199.072 76.9459 196.506 80.4 195.644 81.549C196.204 80.5437 197.405 77.8507 197.405 77.8507L196.65 78.2672C195.967 78.6335 189.894 85.4484 189.894 85.4484L192.208 91.1933C194.867 91.538 200.603 89.0892 200.603 89.0892C201.854 88.7589 203.522 88.2993 203.522 88.2993C202.227 87.9928 200.914 87.7721 199.59 87.6386L199.604 87.6027Z" fill="#E09574"/>
        <path d="M17.1501 171.486C17.1501 171.486 8.89132 174.897 7.08719 176.333C5.28306 177.769 2.24982 182.329 1.51667 183.873C1.12853 184.685 7.26688 179.923 7.80597 179.385C7.80597 179.385 5.11055 183.607 5.11055 185.216C5.11055 185.762 9.26507 180.778 13.3334 178.918C13.3334 178.918 9.57415 182.918 9.50946 183.607C9.44477 184.297 19.4501 178.846 19.8527 177.231L17.1501 171.486Z" fill="#E09574"/>
        <path d="M391.582 60.6591C391.582 60.6591 400.625 63.7685 403.14 66.2819C405.656 68.7953 407.273 73.463 407.273 74.5402C407.273 74.5402 402.687 69.0682 402.242 68.3501C402.242 68.3501 402.874 72.3859 402.874 73.6426C402.874 73.6426 397.843 72.472 396.132 70.052C396.132 70.052 391.216 69.6642 389.721 67.1221L391.582 60.6591Z" fill="#E1A260"/>
        <path d="M321.114 132.456L318.023 130.912C317.83 134.325 317.83 137.747 318.023 141.16L321.114 132.456Z" fill="#39332E"/>
        <path d="M325.685 50.3542C325.685 50.3542 321.516 48.918 320.474 48.4225C320.474 48.4225 324.743 58.7059 329.307 60.8315C329.307 60.8315 326.389 51.5606 325.685 50.3542Z" fill="#39332E"/>
        <path d="M81.6025 141.806L87.4677 138.108C87.4677 138.108 82.6519 150.064 80.0068 152.341C80.0068 152.341 81.3006 143.731 81.6025 141.806Z" fill="#B55A31"/>
    </g>
    <defs>
        <clipPath id="clip0">
            <rect width="511" height="414" fill="white"/>
        </clipPath>
    </defs>
</svg>
