<svg width="337" height="300" viewBox="0 0 337 300" fill="none" xmlns="http://www.w3.org/2000/svg">
<path d="M58.8711 132.751C55.7066 130.685 52.5199 128.627 49.3554 126.561C39.9749 120.474 30.4435 114.24 23.2443 105.668C20.4051 102.269 17.9224 98.4717 16.7882 94.1985C16.5504 93.313 16.3998 92.3221 16.8239 91.5511C17.5641 90.1963 19.4691 90.1707 21.0074 90.3739C25.6079 91.0135 30.1068 92.2109 34.4144 93.9232C31.3049 84.7537 19.985 80.9904 15.2498 72.5683C14.4699 71.2027 13.8865 69.6188 14.2158 68.0857C14.4358 67.0884 15.029 66.2329 15.7508 65.5309C18.2156 63.1454 22.0556 62.686 25.3843 63.5255C28.7129 64.365 31.6305 66.2941 34.4882 68.1946C30.5526 65.7048 27.3611 62.0826 25.3752 57.8612C24.559 56.1107 23.9457 54.0898 24.6561 52.2981C25.8714 49.2595 30.1938 48.8288 33.1245 50.2313C38.792 52.9803 40.9854 59.7634 42.9423 65.735C44.8849 71.7366 48.0106 78.4146 54.131 79.9102C54.8682 80.0976 55.6484 80.1953 56.2282 80.7117C57.3424 81.6859 56.9375 83.5687 55.9633 84.6829C55.019 85.8113 53.66 86.5392 52.7533 87.7041C50.7073 90.29 51.4554 94.1028 52.8421 97.1186C54.2289 100.134 56.1696 103.029 56.2858 106.319C56.4162 110.425 57.8337 115.219 58.3048 119.304C58.515 121.169 55.1989 121.915 55.7564 123.707C56.3138 125.499 56.52 127.564 55.4716 129.102C54.4309 130.663 51.799 131.094 50.7564 129.547" fill="#ED7061"/>
<path d="M64.2778 127.289C64.2999 127.282 64.3441 127.266 64.3805 127.228C64.5782 127.084 64.6329 126.816 64.5107 126.611C33.3605 79.7284 33.0016 79.5567 32.8599 79.5072C32.6505 79.4071 32.3852 79.5006 32.2851 79.7099C32.1992 79.8894 32.2473 80.0961 32.3903 80.2197C33.3289 81.3304 53.3028 111.324 63.785 127.09C63.8773 127.281 64.1009 127.352 64.2778 127.289Z" fill="white"/>
<path d="M50.9033 107.198C51.0581 107.144 51.1816 107.001 51.1934 106.823C51.2116 106.593 51.0296 106.358 50.7995 106.34L32.0919 104.536C31.8617 104.518 31.6276 104.7 31.6093 104.93C31.5911 105.16 31.7731 105.394 32.0032 105.412L50.7108 107.217C50.785 107.215 50.8591 107.214 50.9033 107.198Z" fill="white"/>
<path d="M3.39523 112.892C3.27936 113.479 3.41575 114.078 3.61067 114.63C5.24918 119.77 10.3495 123.589 15.742 123.725C16.9955 123.755 18.3349 123.606 19.4856 124.12C20.6363 124.634 21.4929 126.146 20.7917 127.189C20.3143 127.88 19.4132 128.073 18.5783 128.243C15.5627 128.785 12.5392 129.304 9.52361 129.846C9.86884 132.657 12.4156 135.015 15.2426 135.137C16.4298 135.19 17.6184 134.896 18.7782 135.083C19.9381 135.271 21.1693 136.154 21.1079 137.319C21.0374 138.388 19.9579 139.415 20.3972 140.378C20.8287 141.32 22.1759 141.193 23.2213 141.197C28.6048 141.237 30.8683 148.219 35.4539 151.002C38.4287 152.811 42.1555 152.665 45.6366 152.457C48.6365 152.294 51.7691 152.084 54.3597 150.549C58.6242 148.05 60.2537 141.957 57.836 137.64C55.4041 133.352 50.2513 131.639 45.6173 129.918C35.9461 126.319 27.9122 122.64 22.7884 113.609C21.0831 110.606 19.3904 108.767 15.8329 107.983C12.3208 107.258 4.33907 108.308 3.39523 112.892Z" fill="#4B6DC6"/>
<path d="M38.0728 139.961C38.117 139.946 38.1834 139.922 38.2198 139.885C38.4097 139.718 38.4123 139.444 38.2537 139.276L19.006 117.826C18.8396 117.636 18.5652 117.634 18.3974 117.792C18.2075 117.959 18.2049 118.233 18.3635 118.401L37.6112 139.851C37.7243 139.96 37.9181 140.016 38.0728 139.961Z" fill="white"/>
<path d="M30.8972 210.165C26.845 211.221 22.5901 212.125 18.5111 211.202C17.0002 210.865 15.2463 209.768 15.5314 208.251C15.6395 207.641 16.0688 207.166 16.5058 206.714C20.8825 202.138 26.9181 199.164 33.2159 198.484C35.7321 198.218 38.4901 198.215 40.3968 196.573C34.4103 195.527 28.4159 194.46 22.4294 193.414C21.2618 193.204 20.0421 192.988 19.0878 192.256C18.1335 191.524 17.6202 190.139 18.2251 189.105C18.4918 188.663 18.9535 188.351 19.4087 188.091C22.2204 186.478 25.8744 186.407 28.74 187.907C24.1739 184.969 20.3584 180.846 17.7692 176.042C17.4014 175.351 17.0544 174.579 17.2119 173.827C17.3629 173.127 17.8949 172.592 18.4736 172.189C20.4726 170.738 23.1709 170.284 25.5335 170.992C28.2913 171.834 30.383 174.029 32.6673 175.784C34.9516 177.539 38.037 178.886 40.6562 177.714C36.2696 174.439 32.9847 169.706 31.4113 164.469C30.8604 162.625 30.5072 160.637 31.0758 158.796C31.7851 156.507 33.8465 154.811 36.1483 154.148C38.4501 153.486 40.9466 153.798 43.1921 154.597C49.9573 156.934 54.8371 163.864 54.7756 171.019C54.7544 172.792 54.5367 174.783 55.6651 176.15C56.4529 177.115 57.7349 177.508 58.9559 177.798C67.1307 179.762 77.8562 183.884 72.0191 194.469C70.445 197.336 68.0885 198.266 65.0949 199.222C60.2508 200.782 55.4911 202.51 50.7002 204.15C44.1772 206.376 37.5995 208.447 30.8972 210.165Z" fill="#D85B7A"/>
<path d="M58.7345 198.547C58.845 198.508 58.9178 198.432 58.9829 198.335C59.0831 198.126 59.0116 197.852 58.8023 197.752L34.9581 185.753C34.7488 185.653 34.4757 185.725 34.3755 185.934C34.2753 186.143 34.3468 186.417 34.5561 186.517L58.4003 198.515C58.4978 198.58 58.6239 198.586 58.7345 198.547Z" fill="white"/>
<path d="M35.7471 203.497C35.7913 203.481 35.8134 203.474 35.8498 203.436L49.6422 194.122C49.8399 193.978 49.8945 193.71 49.7503 193.512C49.606 193.315 49.3381 193.26 49.1404 193.404L35.348 202.718C35.1504 202.862 35.0957 203.13 35.24 203.328C35.3466 203.489 35.5702 203.559 35.7471 203.497Z" fill="white"/>
<g clip-path="url(#clip0_3167_62723)">
<path d="M41.748 154.978C42.8865 151.922 42.7347 148.658 43.2384 145.498C45.2739 132.83 48.8756 120.666 54.5059 109.122C57.3555 112.344 60.6743 115.07 63.8552 117.926C65.8699 119.741 66.7462 121.776 66.622 124.488C66.4633 127.993 66.6289 131.519 66.5668 135.031C66.5185 137.612 67.5259 139.633 69.3819 141.379C71.7417 143.601 74.0048 145.919 76.3094 148.203V148.389C75.1778 154.972 75.164 161.609 75.2261 168.268C75.2882 174.533 75.8264 180.722 76.7855 186.918C79.6075 205.154 86.1968 221.928 96.0636 237.459C100.072 243.766 104.668 249.651 109.725 255.123C114.024 259.773 118.419 264.396 123.691 268.032C123.47 271.731 125.002 274.339 128.562 275.546C130.377 276.16 132.295 275.657 134.165 275.753C134.489 276.022 134.786 276.333 135.131 276.568C149.303 285.924 164.8 292.009 181.401 295.445C183.768 295.935 186.341 295.687 188.48 297.136C187.204 298.102 185.458 296.729 184.237 297.992H163.068C162.882 297.481 162.44 297.502 162.012 297.481C157.721 297.274 153.47 296.612 149.275 295.777C117.619 289.47 91.42 273.925 71.0379 248.865C56.01 230.373 46.7711 209.253 43.1832 185.655C42.7278 182.661 42.8934 179.556 41.748 176.665V154.978Z" fill="#E0E7F9"/>
<path d="M188.473 297.135C186.327 295.686 183.761 295.935 181.394 295.445C164.8 292.009 149.296 285.923 135.124 276.567C134.772 276.339 134.475 276.029 134.158 275.753C135.275 275.739 136.393 275.767 137.511 275.698C142.272 275.408 144.466 273.069 144.48 268.28C144.487 264.837 144.825 261.36 144.404 257.972C143.7 252.252 145.501 247.767 150.214 244.648C155.485 241.157 157.224 236.417 156.479 230.317C156.099 227.212 157.596 224.784 160.115 222.81C166.939 217.463 173.652 211.978 180.393 206.527C182.305 204.981 183.271 203.008 183.222 200.469C183.14 195.825 183.229 191.181 183.188 186.538C183.153 182.301 180.676 179.845 176.412 179.81C172.114 179.769 167.815 179.81 163.51 179.797C159.259 179.783 157.134 177.996 156.451 173.904C155.74 169.619 153.864 167.97 149.579 167.929C146.225 167.901 142.872 167.95 139.519 167.908C136.393 167.874 134.461 166.28 133.543 163.244C132.978 161.374 133.254 159.484 133.205 157.607C133.102 153.563 130.991 151.383 126.982 151.362C122.166 151.335 117.35 151.293 112.533 151.376C110.056 151.418 107.986 150.652 106.255 148.927C102.901 145.587 99.5479 142.255 96.2222 138.887C94.5939 137.238 93.6831 135.334 93.8004 132.885C93.9591 129.711 93.8142 126.523 93.8487 123.342C93.8901 119.464 96.0635 117.263 99.9205 117.229C104.392 117.194 108.863 117.187 113.334 117.229C116.252 117.256 118.833 116.566 121.241 114.752C129.259 108.701 137.373 102.781 145.466 96.826C147.723 95.1632 148.516 93.0173 148.682 90.2022C149.227 81.0323 145.494 79.7696 138.739 80.1077C134.523 80.3216 132.226 77.8722 132.143 73.6219C132.081 70.6135 132.039 67.5983 132.157 64.59C132.253 62.2233 131.639 60.1948 130.025 58.4698C135.165 54.7991 140.643 51.6803 146.122 48.5547C146.26 48.5547 146.398 48.5547 146.536 48.5547C147.398 50.0175 148.923 50.7282 150.193 51.7286C151.545 52.7981 153.146 53.771 153.726 55.3925C155.381 60.0223 159.349 61.1193 163.42 61.9611C167.091 62.7201 169.043 61.4229 170.23 57.8557C170.589 56.7862 170.83 55.5098 172.169 55.427C175.439 55.2269 176.868 53.0534 177.489 50.3349C178.413 46.3054 180.38 42.8623 182.691 39.5366C183.512 38.3498 184.499 37.2321 184.775 35.7348C185.292 35.376 185.265 34.7895 185.403 34.2651C198.768 35.2794 211.615 38.4533 224 43.5661C222.289 47.7543 221.868 52.046 223.228 56.386C224.849 61.5609 224.201 66.3425 221.254 70.8895C220.233 72.4696 219.44 74.2014 218.667 75.9195C217.604 78.3069 216.976 80.8874 217.418 83.4403C218.246 88.2564 217.114 92.3066 214.078 96.143C211.388 99.5377 211.608 102.594 214.299 106.01C216.445 108.728 219.329 110.446 222.731 111.047C225.505 111.537 228.334 111.978 231.142 112.013C236.558 112.075 241.36 113.793 245.949 116.532C250.392 119.188 254.884 120.589 259.99 117.629C264.475 115.028 269.119 115.566 273.224 118.83C276.853 121.714 278.378 127.185 276.584 131.96C275.039 136.079 274.411 140.04 276.287 144.159C276.225 144.325 276.246 144.476 276.35 144.614L276.281 145.663C275.156 148.63 272.079 148.92 269.85 150.376C269.45 150.369 269.07 150.403 268.87 150.831L268.891 150.804C264.42 151.983 259.969 153.225 255.719 155.068C245.155 159.649 240.277 169.978 243.451 181.052C243.969 182.853 244.514 184.716 245.438 186.331C250.71 195.508 252.78 205.457 254.125 215.897C256.002 230.407 264.247 241.288 276.536 249.113C258.81 270.55 236.703 285.337 209.904 292.975C202.887 294.976 195.746 296.383 188.487 297.129L188.473 297.135Z" fill="#EFF0FC"/>
<path d="M269.85 150.383C272.079 148.927 275.163 148.637 276.281 145.67C282.987 143.959 289.666 142.158 295.711 138.64C297.477 137.611 297.87 135.749 297.077 134.141C294.827 129.58 296.511 125.523 298.264 121.411C301.769 130.236 303.749 139.447 304.949 148.817C307.827 171.297 305.115 193.135 296.849 214.248C294.448 220.382 291.826 226.433 288.107 231.932C287.817 231.76 287.472 231.643 287.244 231.408C279.786 223.749 275.825 214.462 274.604 203.947C273.935 198.178 273.624 192.355 271.057 186.98C269.132 182.964 267.228 178.935 265.441 174.85C262.564 168.267 262.702 161.761 266.117 155.351C266.959 153.771 268.484 152.639 268.905 150.811L268.884 150.838C269.284 150.838 269.657 150.79 269.864 150.383H269.85Z" fill="#E0E7F9"/>
<path d="M76.3024 148.203C73.9979 145.926 71.7347 143.601 69.375 141.379C67.5189 139.633 66.5184 137.618 66.5598 135.031C66.6219 131.519 66.4563 127.993 66.615 124.488C66.7392 121.783 65.8629 119.741 63.8482 117.926C60.6674 115.07 57.3416 112.344 54.4989 109.122C64.6279 87.5187 79.773 70.1932 99.3341 56.6557C105.254 52.5572 111.402 48.8382 118.095 46.092C118.184 48.3828 119.261 50.0526 121.082 51.4532C123.98 53.675 126.747 56.0761 129.576 58.4083C128.99 59.0293 128.479 59.7468 127.803 60.2436C115.714 69.1306 105.668 79.9634 97.2848 92.3693C90.4195 102.54 85.1756 113.517 81.4152 125.178C78.9934 132.678 77.1718 140.344 76.2955 148.196L76.3024 148.203Z" fill="#CED8F4"/>
<path d="M298.264 121.411C296.511 125.523 294.827 129.573 297.077 134.141C297.87 135.755 297.477 137.611 295.711 138.64C289.666 142.165 282.987 143.959 276.281 145.67C276.301 145.319 276.322 144.974 276.343 144.622C276.377 144.573 276.446 144.504 276.433 144.47C276.398 144.36 276.336 144.263 276.281 144.166C274.404 140.047 275.032 136.087 276.577 131.967C278.364 127.193 276.84 121.721 273.217 118.837C269.112 115.573 264.468 115.035 259.983 117.636C254.877 120.596 250.386 119.189 245.942 116.539C241.354 113.8 236.551 112.082 231.135 112.02C228.327 111.985 225.505 111.544 222.724 111.054C219.323 110.447 216.438 108.736 214.293 106.017C211.602 102.609 211.388 99.5519 214.072 96.1503C217.108 92.314 218.239 88.2569 217.411 83.4477C216.97 80.8947 217.598 78.3073 218.66 75.9269C219.426 74.2088 220.226 72.47 221.248 70.8969C224.194 66.343 224.835 61.5614 223.221 56.3934C221.862 52.0465 222.283 47.7617 223.994 43.5735C231.501 46.4714 238.649 50.0593 245.231 54.7167C244.617 56.5866 244.196 58.5255 243.113 60.2228C239.815 65.4046 237.621 70.8762 238.442 77.2171C238.911 80.8257 237.738 83.9238 235.323 86.6768C233.26 89.0366 232.494 91.831 233.985 94.7841C235.123 97.0335 236.855 98.7998 239.077 100.104C242.934 102.374 247.267 102.546 251.51 102.767C256.133 103.009 260.501 103.844 264.579 106.086C266.538 107.162 268.546 108.135 270.561 109.101C273.245 110.385 276.219 110.847 278.758 109.37C283.256 106.748 287.748 106.362 292.551 108.053C295.145 112.22 296.842 116.767 298.257 121.431L298.264 121.411Z" fill="#CED8F4"/>
<path d="M268.891 150.811C268.477 152.633 266.945 153.771 266.103 155.351C262.695 161.761 262.55 168.268 265.427 174.85C267.214 178.935 269.118 182.964 271.043 186.98C273.617 192.355 273.921 198.179 274.59 203.947C275.811 214.462 279.772 223.749 287.23 231.408C287.458 231.643 287.803 231.76 288.093 231.933C286.23 236.397 283.215 240.15 280.469 244.056C279.24 245.801 277.84 247.43 276.515 249.113C264.226 241.289 255.988 230.415 254.104 215.897C252.752 205.465 250.689 195.508 245.417 186.332C244.493 184.724 243.948 182.861 243.43 181.053C240.256 169.979 245.141 159.65 255.698 155.068C259.948 153.226 264.406 151.984 268.87 150.804L268.891 150.811Z" fill="#CED8F4"/>
<path d="M292.557 108.032C287.755 106.341 283.263 106.735 278.765 109.35C276.225 110.826 273.259 110.364 270.568 109.081C268.553 108.115 266.538 107.142 264.585 106.065C260.508 103.823 256.147 102.988 251.517 102.747C247.274 102.526 242.941 102.353 239.084 100.083C236.869 98.7792 235.13 97.0128 233.991 94.7634C232.501 91.8103 233.26 89.0159 235.33 86.6561C237.738 83.9031 238.918 80.8051 238.449 77.1964C237.621 70.8555 239.815 65.3839 243.12 60.2021C244.203 58.5048 244.624 56.5659 245.238 54.696C253.277 59.4431 260.335 65.4322 266.938 71.9526C277.226 82.1022 285.595 93.6802 292.095 106.59C292.316 107.031 292.406 107.542 292.557 108.025V108.032Z" fill="#E0E7F9"/>
<path d="M129.583 58.408C126.761 56.0827 123.994 53.6816 121.089 51.4529C119.267 50.0522 118.191 48.3894 118.101 46.0917C125.029 42.5866 132.294 39.9992 139.843 38.1914C141.457 41.938 143.582 45.3672 146.128 48.5481C140.65 51.6737 135.172 54.7993 130.031 58.4631C129.886 58.4355 129.734 58.4149 129.59 58.4011L129.583 58.408Z" fill="#E0E7F9"/>
<path d="M146.129 48.5551C143.59 45.3742 141.458 41.945 139.843 38.1984C154.781 33.9964 169.968 32.6923 185.403 34.2517C185.265 34.7692 185.293 35.3626 184.775 35.7213C182.098 36.2457 179.4 36.6735 176.744 37.3083C166.221 39.8268 156.058 43.3319 146.536 48.5551C146.398 48.5551 146.26 48.5551 146.122 48.5551H146.129Z" fill="#CED8F4"/>
<path d="M129.583 58.408C129.735 58.4218 129.88 58.4425 130.025 58.4701C131.639 60.195 132.253 62.2236 132.157 64.5902C132.039 67.5986 132.081 70.6138 132.143 73.6221C132.226 77.8724 134.523 80.3219 138.739 80.108C145.494 79.7699 149.227 81.0395 148.682 90.2024C148.516 93.0176 147.723 95.1703 145.466 96.8263C137.373 102.774 129.259 108.701 121.241 114.752C118.833 116.567 116.259 117.257 113.334 117.229C108.863 117.188 104.392 117.188 99.9206 117.229C96.0705 117.264 93.8901 119.465 93.8487 123.342C93.8142 126.523 93.9591 129.711 93.8004 132.885C93.6831 135.334 94.587 137.239 96.2223 138.888C99.548 142.255 102.901 145.588 106.255 148.927C107.987 150.652 110.05 151.418 112.534 151.376C117.35 151.287 122.166 151.328 126.982 151.363C130.991 151.383 133.102 153.564 133.205 157.607C133.254 159.484 132.978 161.374 133.544 163.244C134.461 166.28 136.393 167.874 139.519 167.909C142.872 167.95 146.225 167.895 149.579 167.929C153.864 167.971 155.747 169.62 156.451 173.904C157.127 177.996 159.259 179.783 163.51 179.797C167.808 179.811 172.114 179.769 176.412 179.811C180.676 179.852 183.147 182.302 183.188 186.538C183.229 191.182 183.14 195.825 183.222 200.469C183.271 203.008 182.305 204.981 180.393 206.527C173.652 211.978 166.939 217.463 160.115 222.811C157.596 224.784 156.099 227.213 156.479 230.318C157.231 236.417 155.492 241.164 150.214 244.649C145.501 247.767 143.7 252.252 144.404 257.972C144.825 261.36 144.487 264.844 144.48 268.281C144.466 273.069 142.279 275.408 137.511 275.698C136.393 275.767 135.275 275.739 134.158 275.753C132.288 275.656 130.37 276.16 128.555 275.546C124.995 274.339 123.47 271.73 123.684 268.032C124.394 261.657 123.732 255.564 120.213 249.975C119.213 248.381 118.564 246.574 117.66 244.918C116.811 243.358 116.494 241.744 116.501 239.977C116.549 232.67 116.522 225.364 116.515 218.057C116.515 215.076 115.645 212.668 112.975 210.812C105.716 205.768 98.6441 200.462 91.4269 195.349C89.2051 193.776 88.0253 191.934 88.1219 189.119C88.2668 184.737 88.253 180.349 88.1219 175.968C88.0391 173.063 88.3703 170.365 89.9848 167.846C91.3993 165.638 91.1785 163.175 89.488 161.367C85.2722 156.869 81.0495 152.356 76.2955 148.396V148.209C77.1718 140.351 78.9934 132.692 81.4152 125.192C85.1756 113.531 90.4195 102.553 97.2849 92.3828C105.661 79.9769 115.707 69.1441 127.803 60.2571C128.479 59.7603 128.99 59.0358 129.576 58.4218L129.583 58.408Z" fill="#E0E7F9"/>
<path d="M76.3025 148.389C81.0496 152.357 85.2792 156.862 89.495 161.361C91.1855 163.169 91.4132 165.639 89.9918 167.84C88.3772 170.358 88.0461 173.049 88.1288 175.961C88.253 180.342 88.2737 184.731 88.1288 189.112C88.0323 191.927 89.219 193.77 91.4339 195.343C98.6442 200.455 105.717 205.761 112.982 210.805C115.652 212.661 116.522 215.069 116.522 218.05C116.529 225.357 116.549 232.664 116.508 239.971C116.494 241.737 116.818 243.352 117.667 244.911C118.571 246.567 119.213 248.382 120.22 249.969C123.732 255.558 124.401 261.65 123.691 268.026C118.419 264.389 114.024 259.767 109.725 255.116C104.668 249.644 100.072 243.766 96.0637 237.452C86.1969 221.921 79.6144 205.147 76.7855 186.911C75.8264 180.715 75.2813 174.526 75.2261 168.261C75.164 161.602 75.1709 154.972 76.3025 148.382V148.389Z" fill="#EFF0FC"/>
<path d="M146.543 48.5551C156.065 43.332 166.228 39.8268 176.751 37.3084C179.4 36.6736 182.105 36.2458 184.782 35.7214C184.506 37.2187 183.519 38.3434 182.698 39.5233C180.387 42.849 178.42 46.292 177.496 50.3215C176.875 53.04 175.447 55.2135 172.176 55.4136C170.831 55.4964 170.589 56.7729 170.237 57.8423C169.05 61.4096 167.098 62.7067 163.427 61.9477C159.356 61.106 155.389 60.0158 153.733 55.3791C153.153 53.7576 151.552 52.7848 150.2 51.7153C148.937 50.7148 147.412 50.0041 146.543 48.5413V48.5551Z" fill="#E0E7F9"/>
<path d="M269.85 150.383C269.643 150.79 269.264 150.838 268.87 150.838C269.07 150.41 269.45 150.376 269.85 150.383Z" fill="#01B966"/>
<path d="M276.288 144.166C276.343 144.27 276.405 144.366 276.439 144.47C276.453 144.511 276.377 144.573 276.35 144.621C276.253 144.477 276.232 144.325 276.288 144.166Z" fill="#43CA8E"/>
</g>
<path fill-rule="evenodd" clip-rule="evenodd" d="M227.748 27.3874C227.736 12.3289 239.933 0.110798 254.993 0.0986995C270.051 0.0866017 282.269 12.2838 282.282 27.3436C282.294 42.4034 263.321 76.8347 255.055 76.8413C247.529 76.8474 227.76 42.4459 227.748 27.3874ZM236.452 27.9509C236.46 38.2033 244.778 46.5076 255.03 46.4993C265.282 46.4911 273.587 38.1735 273.579 27.9211C273.57 17.6687 265.253 9.36445 255 9.37269C244.748 9.38093 236.444 17.6986 236.452 27.9509Z" fill="#889ED8"/>
<path d="M255.068 93.9074C265.846 93.8987 274.583 92.7106 274.582 91.2535C274.58 89.7965 265.842 88.6224 255.064 88.631C244.286 88.6397 235.549 89.8279 235.55 91.2849C235.552 92.7419 244.29 93.916 255.068 93.9074Z" fill="#889ED8"/>
<path fill-rule="evenodd" clip-rule="evenodd" d="M73.1162 32.7394C73.1062 20.3097 83.1741 10.2246 95.6048 10.2146C108.034 10.2046 118.12 20.2724 118.13 32.7032C118.14 45.1339 102.479 73.5544 95.6557 73.5599C89.4436 73.5649 73.1262 45.169 73.1162 32.7394ZM80.3007 33.2042C80.3075 41.6667 87.1731 48.5213 95.6356 48.5145C104.098 48.5077 110.953 41.6421 110.946 33.1795C110.939 24.717 104.074 17.8624 95.611 17.8692C87.1485 17.876 80.2939 24.7416 80.3007 33.2042Z" fill="#889ED8"/>
<path d="M95.6669 87.6465C104.563 87.6393 111.775 86.6586 111.774 85.4559C111.773 84.2533 104.56 83.2841 95.6634 83.2913C86.7668 83.2984 79.5555 84.2791 79.5564 85.4818C79.5574 86.6845 86.7703 87.6536 95.6669 87.6465Z" fill="#889ED8"/>
<path fill-rule="evenodd" clip-rule="evenodd" d="M79.0911 147.8C79.0835 138.295 86.7822 130.583 96.2878 130.576C105.793 130.568 113.505 138.267 113.512 147.772C113.52 157.278 101.544 179.011 96.3267 179.015C91.5764 179.019 79.0987 157.305 79.0911 147.8ZM84.5848 148.156C84.59 154.627 89.84 159.869 96.3113 159.863C102.782 159.858 108.024 154.608 108.019 148.137C108.014 141.666 102.764 136.424 96.2924 136.429C89.8212 136.435 84.5796 141.685 84.5848 148.156Z" fill="#889ED8"/>
<path d="M96.3354 189.787C103.138 189.781 108.653 189.031 108.652 188.112C108.651 187.192 103.136 186.451 96.3327 186.456C89.5296 186.462 84.0152 187.212 84.016 188.131C84.0167 189.051 89.5323 189.792 96.3354 189.787Z" fill="#889ED8"/>
<path d="M319.483 260.68C320.522 259.166 321.532 257.533 321.591 255.722C321.829 248.953 309.715 246.696 309.626 239.897C309.567 236.186 313.218 233.603 315.92 230.961C318.622 228.318 320.344 223.36 317.108 221.311C316.277 220.777 315.237 220.569 314.376 220.124C311.467 218.61 310.873 214.69 311.971 211.692C313.07 208.693 315.326 206.258 317.048 203.557C323.729 192.957 321.146 179.448 318.355 167.335C317.82 165.078 316.336 162.198 313.99 162.792C312.565 163.149 311.882 164.692 311.407 166.028C309.388 171.759 307.37 177.489 305.351 183.219C304.49 185.654 303.124 188.534 300.452 188.801C295.137 189.395 294.336 179.805 289.021 179.122C285.547 182.031 285.28 187.079 285.725 191.473C286.171 195.867 287.002 200.558 284.924 204.507C282.846 208.456 276.284 210.326 273.701 206.674C270.227 211.692 276.047 218.936 273.018 224.221C270.999 227.724 265.982 228.674 263.606 231.94C261.587 234.731 261.973 238.413 262.33 241.768C264.022 257.889 264.794 278.762 284.716 283.809C299.175 287.55 312.476 270.864 319.483 260.68Z" fill="#ED7061"/>
<path d="M330.884 272.883C331.507 272.23 332.131 271.517 332.22 270.626C332.428 268.518 329.785 267.509 327.707 267.093C325.629 266.678 323.076 265.223 323.729 263.204C323.907 262.669 324.263 262.254 324.649 261.868C326.638 259.879 329.103 258.394 330.854 256.197C332.606 254 333.497 250.704 331.834 248.418C331.359 247.765 330.676 247.231 330.439 246.459C329.964 245.034 331.092 243.608 332.012 242.421C334.476 239.274 341.068 225.319 333.229 224.162C330.706 223.776 328.242 225.438 326.668 227.457C325.094 229.476 324.144 231.911 322.749 234.078C317.583 242.065 308.379 240.758 304.876 250.704C304.519 251.714 304.015 252.842 303.005 253.139C300.63 253.792 299.056 248.389 297.186 252.04C293.445 259.404 289.674 269.587 292.97 277.722C294.929 282.621 299.531 288.678 305.588 287.401C314.97 285.471 324.352 279.652 330.884 272.883Z" fill="#4B6DC6"/>
<path d="M304.816 280.543C305.024 280.543 305.202 280.424 305.321 280.246L322.066 247.112C322.214 246.845 322.096 246.488 321.828 246.37C321.561 246.221 321.235 246.34 321.086 246.607L304.341 279.741C304.193 280.008 304.311 280.365 304.579 280.483C304.638 280.513 304.727 280.543 304.816 280.543Z" fill="white"/>
<path d="M283.023 285.827C283.291 285.827 283.528 285.649 283.558 285.382L300.184 203.408C300.244 203.111 300.036 202.814 299.739 202.755C299.442 202.695 299.145 202.903 299.086 203.2L282.459 285.174C282.4 285.471 282.608 285.768 282.905 285.827C282.934 285.827 282.964 285.827 283.023 285.827Z" fill="white"/>
<path d="M294.098 228.882C294.187 228.882 294.247 228.852 294.336 228.823C294.603 228.704 294.751 228.377 294.603 228.08L287.537 212.374C287.418 212.107 287.091 211.959 286.794 212.107C286.527 212.226 286.379 212.553 286.527 212.849L293.593 228.555C293.682 228.763 293.861 228.882 294.098 228.882Z" fill="white"/>
<path d="M287.744 258.543C287.833 258.543 287.893 258.513 287.982 258.483C288.249 258.365 288.397 258.038 288.249 257.741L281.183 242.035C281.064 241.768 280.737 241.619 280.441 241.768C280.173 241.887 280.025 242.213 280.173 242.51L287.24 258.216C287.329 258.424 287.536 258.543 287.744 258.543Z" fill="white"/>
<path d="M292.287 244.885C292.376 244.885 292.435 244.856 292.524 244.826L307.815 237.611C308.082 237.492 308.201 237.136 308.082 236.869C307.963 236.602 307.607 236.483 307.34 236.602L292.049 243.816C291.782 243.935 291.663 244.291 291.782 244.559C291.871 244.766 292.079 244.885 292.287 244.885Z" fill="white"/>
<path d="M319.576 273.21C312.124 270.3 303.929 274.16 296.744 277.693C289.559 281.226 280.92 284.521 273.883 280.721C265.184 276 263.848 274.1 254.377 279.712C248.261 283.334 230.417 288.886 223.588 290.192C218.481 291.172 173.917 299.871 211.89 298.713C222.668 298.387 234.425 297.377 244.876 297.051C267.5 296.308 290.213 293.785 312.896 294.824C317.973 295.061 329.849 300.168 334.154 296.13C340.151 290.489 324.831 275.258 319.576 273.21Z" fill="#AFD1E8"/>
<path d="M309.863 270.537C309.893 270.537 309.923 270.537 309.982 270.537C310.279 270.478 310.487 270.181 310.427 269.884L308.112 258.335C308.052 258.038 307.755 257.83 307.458 257.889C307.161 257.949 306.954 258.246 307.013 258.542L309.329 270.092C309.388 270.359 309.596 270.537 309.863 270.537Z" fill="white"/>
<path d="M253.274 299.159C253.452 299.159 253.63 299.069 253.749 298.921L262.478 285.62C262.656 285.353 262.567 285.026 262.33 284.848C262.062 284.67 261.736 284.759 261.558 284.996L252.829 298.298C252.651 298.565 252.74 298.891 252.977 299.069C253.066 299.129 253.185 299.159 253.274 299.159Z" fill="white"/>
<path d="M302.975 297.08C303.124 297.08 303.272 297.021 303.391 296.902L313.634 285.679C313.842 285.442 313.812 285.085 313.604 284.907C313.397 284.729 313.011 284.729 312.832 284.937L302.589 296.16C302.382 296.397 302.411 296.754 302.619 296.932C302.708 297.021 302.827 297.08 302.975 297.08Z" fill="white"/>
<path d="M307.577 292.033C307.696 292.033 307.815 292.003 307.904 291.914C308.141 291.736 308.201 291.38 308.023 291.142L303.421 284.967C303.243 284.729 302.886 284.67 302.649 284.848C302.411 285.026 302.352 285.382 302.53 285.62L307.132 291.795C307.221 291.974 307.399 292.033 307.577 292.033Z" fill="white"/>
<path d="M257.639 292.508C257.728 292.508 257.817 292.478 257.876 292.449L267.971 287.52C268.238 287.372 268.357 287.045 268.238 286.778C268.09 286.511 267.763 286.392 267.496 286.511L257.401 291.439C257.134 291.588 257.015 291.914 257.134 292.181C257.253 292.389 257.431 292.508 257.639 292.508Z" fill="white"/>
<path d="M259.984 288.945C260.044 288.945 260.103 288.945 260.192 288.915C260.489 288.797 260.637 288.5 260.519 288.203L258.173 282.057C258.054 281.76 257.728 281.612 257.461 281.73C257.164 281.849 257.015 282.146 257.134 282.443L259.479 288.589C259.539 288.797 259.747 288.945 259.984 288.945Z" fill="white"/>
<g clip-path="url(#clip1_3167_62723)">
<path fill-rule="evenodd" clip-rule="evenodd" d="M181.231 141.058C182.406 138.578 182.903 135.793 181.963 133.075C179.253 125.244 168.616 129.992 167.54 134.603C166.464 139.213 169.472 149.362 172.459 149.33C173.651 149.317 175.834 147.974 177.857 145.868L179.23 157.001L188.18 154.59L181.231 141.058Z" fill="#ED7061"/>
<path fill-rule="evenodd" clip-rule="evenodd" d="M169.894 129.263C171.016 128.561 172.758 127.956 173.528 127.841C172.829 126.937 172.355 125.848 172.195 124.707C172.039 123.598 172.273 122.555 172.458 121.479C172.544 120.982 172.657 120.481 172.912 120.051C173.171 119.612 173.555 119.265 173.993 119.031C174.441 118.791 174.943 118.666 175.449 118.638C175.672 118.625 175.888 118.671 176.111 118.669C176.338 118.667 176.405 118.506 176.524 118.33C176.809 117.908 177.311 117.602 177.767 117.418C178.277 117.212 178.847 117.144 179.397 117.182C179.932 117.219 180.477 117.367 180.939 117.671C181.145 117.807 181.343 117.97 181.496 118.169C181.559 118.25 181.58 118.303 181.68 118.312C181.773 118.32 181.873 118.295 181.968 118.301C182.89 118.359 183.788 118.818 184.408 119.55C184.769 119.977 185.11 120.809 185.34 121.782C185.57 122.755 185.377 125.508 184.809 126.647C184.302 127.662 183.379 128.491 182.41 129.006C183.306 129.605 184.026 130.46 184.631 131.365C185.288 132.347 185.818 133.409 186.209 134.531C186.582 135.597 186.899 136.745 186.931 137.877C186.96 138.937 186.67 139.89 185.958 140.637C185.632 140.98 185.261 141.271 184.883 141.547C184.51 141.82 184.135 142.088 183.723 142.296C182.945 142.688 181.987 142.915 181.175 142.43C180.883 142.255 180.551 142.025 180.306 141.781C180.218 141.693 180.163 141.635 180.209 141.514C180.264 141.369 180.38 141.238 180.467 141.112C180.961 140.397 181.162 139.566 181.03 138.678C180.896 137.777 180.357 136.713 179.405 136.56C178.23 136.372 177.221 137.223 176.425 137.978C175.653 136.687 174.5 135.647 173.053 135.349C171.451 135.02 169.811 135.373 168.197 135.155C167.777 135.098 167.344 135.021 166.979 134.773C166.826 134.669 166.643 134.531 166.548 134.365C166.424 134.147 166.522 133.909 166.59 133.695C166.948 132.558 168.771 129.966 169.894 129.263Z" fill="#4B6DC6"/>
</g>
<path fill-rule="evenodd" clip-rule="evenodd" d="M203.366 195.529L187.642 249.71L180.247 290.39H172.824L180.234 195.529H203.366Z" fill="#CF6255"/>
<path fill-rule="evenodd" clip-rule="evenodd" d="M210.432 195.529C209.335 223.676 209.767 239.028 210.013 241.585C210.259 244.142 211.653 261.269 221.152 291.248H213.431C200.851 262.488 196.46 245.362 195.017 241.585C193.574 237.809 189.313 222.457 183.092 195.529H210.432Z" fill="#ED7061"/>
<path fill-rule="evenodd" clip-rule="evenodd" d="M203.703 195.529C199.613 214.173 192.54 243.933 182.482 284.81H171.626C170.824 242.854 174.235 215.24 180.142 195.529H203.703Z" fill="#C1547B"/>
<path fill-rule="evenodd" clip-rule="evenodd" d="M210.487 195.529C209.412 223.676 212.197 251.406 220.822 285.248H209.239C196.636 256.917 187.603 229.324 181.429 195.529H210.487Z" fill="#E36290"/>
<path fill-rule="evenodd" clip-rule="evenodd" d="M222.252 296.828L221.826 289.961C219.332 290.69 216.208 290.404 212.454 289.102C208.418 291.961 203.337 293.913 197.212 294.959C196.744 295.038 196.43 295.482 196.51 295.949C196.515 295.979 196.522 296.009 196.53 296.039L197.119 298.116H212.454H221.4L222.252 296.828Z" fill="#181B5E"/>
<path fill-rule="evenodd" clip-rule="evenodd" d="M181.904 296.828L181.478 289.961C178.984 290.69 175.86 290.404 172.106 289.102C168.07 291.961 162.989 293.913 156.864 294.959C156.396 295.038 156.082 295.482 156.162 295.949C156.167 295.979 156.174 296.009 156.182 296.039L156.771 298.116H172.106H181.052L181.904 296.828Z" fill="#181B5E"/>
<path d="M143.8 184.57L133.338 166.975C133.338 166.975 129.257 164.649 130.131 167.78C131.005 170.91 140.238 186.084 140.238 186.084L143.8 184.57Z" fill="#181B5E"/>
<path fill-rule="evenodd" clip-rule="evenodd" d="M172.653 171.4L156.564 165.951C153.613 163.484 150.813 161.657 148.162 160.472C147.385 160.297 146.087 160.337 147.641 162.229C149.195 164.121 150.744 166.181 150.255 166.934C149.767 167.687 148.104 167.049 147.574 168.251C147.221 169.052 149.989 169.731 155.878 170.289L168.261 178.17L172.653 171.4Z" fill="#CF6255"/>
<path d="M178.104 188.609C178.104 188.609 176.589 185.259 173.593 190.799C171.544 194.589 168.793 191.795 167.268 192.758C163.515 195.131 159.468 194.796 154.473 192.758C151.051 191.362 147.143 193.828 144.56 191.49C142.609 189.724 141.293 186.89 141.022 186.636C140.393 186.046 134.966 185.4 134.491 183.058C134.016 180.715 131.953 173.138 133.94 174.625C135.927 176.112 137.64 181.017 139.295 181.103C140.951 181.188 138.606 176.035 140.111 176.865C141.617 177.695 141.723 179.06 142.265 180.22C142.806 181.379 142.308 181.693 145.598 184.574C146.044 184.965 146.412 186.436 147.096 186.966C151.451 190.343 159.29 186.052 161.966 185.568C163.254 185.334 166.531 192.154 169.296 188.609C173.178 183.634 175.758 182.554 176.029 181.808C176.495 180.533 178.104 188.609 178.104 188.609Z" fill="#ED7061"/>
<path fill-rule="evenodd" clip-rule="evenodd" d="M179.484 168.349C174.335 169.201 167.29 169.324 159.16 165.972L157.417 172.882C163.344 176.998 171.161 179.861 177.331 178.593C182.194 177.594 183.649 171.243 179.484 168.349Z" fill="#3A5292"/>
<path fill-rule="evenodd" clip-rule="evenodd" d="M174.375 179.84C169.159 182.162 159.727 182.171 146.078 179.866C144.055 187.018 143.411 191.975 144.146 194.739C156.178 198.552 166.072 199.453 173.882 198.25C174.448 202.91 175.785 207.203 178.38 210.883C183.715 218.45 205.088 206.803 212.993 206.959C215.037 190.579 204.674 185.896 202.913 175.956C200.986 165.071 188.195 149.929 186.909 150.156L177.788 152.043C178.607 160.472 175.452 170.316 174.375 179.84Z" fill="#4B6DC6"/>
<defs>
<clipPath id="clip0_3167_62723">
<rect width="264.312" height="264.374" fill="white" transform="translate(41.7478 33.6169)"/>
</clipPath>
<clipPath id="clip1_3167_62723">
<rect width="22.0154" height="38.6236" fill="white" transform="matrix(-0.965592 0.260063 0.260063 0.965592 183.73 115.789)"/>
</clipPath>
</defs>
</svg>
