<svg width="933" height="569" viewBox="0 0 933 569" fill="none" xmlns="http://www.w3.org/2000/svg">
    <g clip-path="url(#clip0)">
        <path d="M264.94 533.58C398.946 533.58 507.58 524.272 507.58 512.79C507.58 501.308 398.946 492 264.94 492C130.933 492 22.2998 501.308 22.2998 512.79C22.2998 524.272 130.933 533.58 264.94 533.58Z" fill="#9E9EF0"/>
        <path d="M363.454 471.541C401.222 450.511 395.821 368.781 351.392 288.991C306.963 209.201 240.33 161.566 202.563 182.595C164.796 203.625 170.196 285.355 214.625 365.146C259.054 444.936 325.687 492.571 363.454 471.541Z" fill="#8285D9"/>
        <path d="M363.45 474.68C362.893 474.681 362.347 474.533 361.867 474.252C361.387 473.97 360.991 473.566 360.72 473.08L205.72 194.75C205.321 194.027 205.225 193.175 205.451 192.381C205.678 191.587 206.209 190.914 206.93 190.51C207.391 190.252 207.911 190.117 208.44 190.12C208.996 190.119 209.542 190.267 210.022 190.548C210.502 190.829 210.898 191.234 211.17 191.72L237.23 238.55L242.77 200.82C242.886 200.082 243.26 199.41 243.826 198.923C244.392 198.435 245.113 198.165 245.86 198.16H246.31C247.128 198.281 247.864 198.722 248.357 199.386C248.85 200.049 249.06 200.882 248.94 201.7L242.23 247.5L366.17 470.05C366.568 470.773 366.665 471.625 366.438 472.419C366.211 473.213 365.68 473.886 364.96 474.29C364.496 474.542 363.977 474.676 363.45 474.68V474.68Z" fill="#BCB6FA"/>
        <path d="M794.174 373.899C835.833 292.628 840.7 211.929 805.043 193.651C769.387 175.373 706.71 226.439 665.05 307.709C623.39 388.979 618.524 469.679 654.18 487.957C689.837 506.234 752.514 455.169 794.174 373.899Z" fill="#BCB6FA"/>
        <path d="M736.054 281.423C758.526 183.463 741.758 96.0249 698.602 86.1251C655.447 76.2252 602.245 147.612 579.773 245.573C557.301 343.533 574.069 430.971 617.224 440.871C660.38 450.771 713.582 379.383 736.054 281.423Z" fill="#8285D9"/>
        <path d="M614.23 457.28C613.995 457.278 613.76 457.251 613.53 457.2C612.727 457.015 612.029 456.518 611.59 455.82C611.152 455.117 611.008 454.269 611.19 453.46L682.11 144.28L664.11 118.2C663.643 117.52 663.464 116.683 663.612 115.872C663.76 115.061 664.223 114.341 664.901 113.87C665.419 113.505 666.037 113.31 666.67 113.31C667.176 113.311 667.674 113.434 668.121 113.669C668.569 113.904 668.953 114.244 669.24 114.66L684.031 136.06L692.6 98.71C692.752 98.0264 693.132 97.4146 693.677 96.9749C694.222 96.5352 694.9 96.2938 695.6 96.29C695.837 96.2904 696.072 96.3206 696.3 96.38C697.104 96.5659 697.802 97.0627 698.241 97.7618C698.679 98.4608 698.823 99.3052 698.641 100.11L672.17 215.5L726.891 185.64C727.347 185.39 727.86 185.259 728.38 185.26C729.075 185.256 729.751 185.484 730.3 185.909C730.85 186.333 731.242 186.929 731.413 187.602C731.584 188.275 731.526 188.986 731.246 189.622C730.967 190.258 730.482 190.781 729.87 191.11L670.31 223.61L617.23 454.86C617.079 455.544 616.699 456.155 616.154 456.595C615.609 457.035 614.931 457.276 614.23 457.28V457.28Z" fill="#BCB6FA"/>
        <path d="M173.36 277.43L146.68 237.3H44.8398V277.43V512.79H414.78V277.43H173.36Z" fill="#F7A94A"/>
        <path d="M390.28 301.94H60.6396V512.79H390.28V301.94Z" fill="white"/>
        <path d="M348.17 326.44H14.0803C11.9276 326.438 9.80329 326.93 7.87096 327.879C5.93863 328.827 4.24993 330.207 2.93499 331.911C1.62005 333.616 0.714001 335.599 0.286673 337.709C-0.140655 339.819 -0.0778684 341.998 0.470237 344.08L44.8402 512.79H414.78L370.23 343.47C368.948 338.595 366.089 334.281 362.099 331.201C358.108 328.12 353.211 326.446 348.17 326.44V326.44Z" fill="#FAD189"/>
        <path d="M832.14 97.98H759.89V512.79H832.14V97.98Z" fill="#F7A94A"/>
        <path d="M796.01 23.79L759.89 97.98H832.14L796.01 23.79Z" fill="#FFDA99"/>
        <path d="M807.59 47.57L796.01 23.79L784.43 47.57H807.59Z" fill="#3C5685"/>
        <path d="M778.69 97.98H776.29V512.79H778.69V97.98Z" fill="white"/>
        <path d="M815.74 97.98H813.34V512.79H815.74V97.98Z" fill="white"/>
        <path d="M147.23 512.79C147.81 482.51 170.23 460.58 171.91 440.49C174.43 410.39 157.33 388.21 153.67 361.05C150.45 337.14 166.73 308.34 196.47 316.94C228.67 326.24 226.33 358.72 247.3 378.54C262.52 392.93 308.8 406.72 325.51 438.34C337.02 460.12 335.33 488.67 344.58 512.79H147.23Z" fill="url(#paint0_linear)"/>
        <path d="M863.891 512.79C911.511 469.63 937.04 416.41 931.49 374.97C887.97 354.64 817.321 368.81 755.271 414.39C716.331 442.95 688.23 478.52 674.23 512.79H863.891Z" fill="#BCB6FA"/>
        <path d="M624.08 545.22C794.278 545.22 932.25 530.7 932.25 512.79C932.25 494.879 794.278 480.36 624.08 480.36C453.883 480.36 315.91 494.879 315.91 512.79C315.91 530.7 453.883 545.22 624.08 545.22Z" fill="#9E9EF0"/>
        <path d="M903.11 253.76C906.21 238.07 894.46 226.2 879.6 224.11C863.2 221.8 846.17 229.4 835.74 242.01C824.37 255.77 816.81 284.1 804.48 296.85C774.16 328.22 747.48 310.47 718.04 332.67C692.72 351.75 703.28 379.8 685.38 406.89C671.21 428.34 630.72 442.55 620.69 476.34C616.69 489.9 616.62 502.06 619.17 512.79H857.23C858.377 507.337 858.907 501.772 858.81 496.2C858.45 466.2 830.18 442.62 855.26 413.57C862.73 404.93 888.37 392.14 895.34 375.37C907.13 347.01 878.54 317.98 881.29 298.29C883.69 281.31 899.82 270.43 903.11 253.76Z" fill="url(#paint1_linear)"/>
        <path d="M711.8 365.95H285.95V371.95H288.85C295.1 371.95 296.35 385.54 296.35 401.75C296.35 417.08 294.87 431.55 288.35 431.55H285.94V437.55H711.04C719.36 437.55 721.5 422.55 721.5 403.94C721.51 384.38 720.38 365.95 711.8 365.95Z" fill="#F23E6E"/>
        <path d="M530.23 365.95H285.95V371.95H288.85C295.1 371.95 296.35 385.54 296.35 401.75C296.35 417.08 294.87 431.55 288.35 431.55H285.94V437.55H529.44C537.13 437.55 539.66 424.2 539.66 402.64C539.66 381.37 537.91 365.95 530.23 365.95Z" fill="#BF2251"/>
        <path d="M525.29 371.95H288.85C295.1 371.95 296.35 385.54 296.35 401.75C296.35 416.89 294.9 431.18 288.59 431.53H524.8C531.31 431.53 532.8 417.06 532.8 401.73C532.79 385.51 531.55 371.95 525.29 371.95Z" fill="#DADADA"/>
        <path d="M683.48 359.29C679.66 359.29 677.27 349.57 677.27 336C677.27 323.66 679.72 315.38 683.48 315.38H688.48V308.76H268.57C264.15 308.76 259.36 317.14 259.36 337.33C259.36 356.86 264.7 365.91 269.2 365.91H688.45V359.29H683.48Z" fill="#2A3D5E"/>
        <path d="M683.48 359.29C679.66 359.29 677.27 349.57 677.27 336C677.27 323.66 679.72 315.38 683.48 315.38H688.48V308.76H459.71V365.95H688.45V359.33L683.48 359.29Z" fill="#232E4D"/>
        <path d="M677.23 336C677.23 323.66 679.68 315.38 683.44 315.38H272.14C268.38 315.38 265.94 323.66 265.94 336C265.94 349.57 268.32 359.29 272.14 359.29H683.48C679.66 359.29 677.23 349.57 677.23 336Z" fill="white"/>
        <path d="M677.23 336C677.23 323.66 679.68 315.38 683.44 315.38H454.74C450.98 315.38 448.54 323.66 448.54 336C448.54 349.57 450.92 359.29 454.74 359.29H683.48C679.66 359.29 677.23 349.57 677.23 336Z" fill="#DADADA"/>
        <path d="M742.35 505.86C734.68 505.86 733.89 488.42 733.89 475.16C733.89 458.32 734.72 444.46 742.35 444.46H744.65V437.54H255.71C250.01 437.54 245.19 451.19 245.19 475.16C245.19 495.4 248.03 512.79 255.71 512.79H744.65V505.86H742.35Z" fill="#2A3D5E"/>
        <path d="M742.35 505.86C734.68 505.86 733.89 488.42 733.89 475.16C733.89 458.32 734.72 444.46 742.35 444.46H744.65V437.54H419.23C413.53 437.54 408.72 451.19 408.72 475.16C408.72 495.4 411.56 512.79 419.23 512.79H744.63V505.86H742.35Z" fill="#232E4D"/>
        <path d="M733.89 475.16C733.89 458.32 734.72 444.46 742.35 444.46H426.35C418.71 444.46 416.7 458.32 416.7 475.16C416.7 488.42 418.7 505.86 426.35 505.86H742.35C734.68 505.86 733.89 488.42 733.89 475.16Z" fill="#DADADA"/>
        <path d="M742.35 505.86H473.56C469.37 500.52 473.07 487.08 488.77 482.25C553.98 462.25 658.9 456.89 733.9 472.57C733.9 473.42 733.9 474.29 733.9 475.16C733.89 488.42 734.68 505.86 742.35 505.86Z" fill="#EDEDED"/>
        <path d="M736.15 499.16H461.3C461.22 498.8 461.15 498.42 461.09 498.05H735.82C735.92 498.43 736.04 498.8 736.15 499.16Z" fill="#878787"/>
        <path d="M734.62 491.35H460.9C460.9 490.98 460.98 490.6 461.04 490.23H734.5C734.53 490.6 734.57 490.95 734.62 491.35Z" fill="#878787"/>
        <path d="M509.57 431.52H288.57C294.89 431.17 296.33 416.88 296.33 401.74C296.33 396.74 296.21 392.03 295.87 387.86C356.87 380.47 439.87 381.08 481.72 399.39C499.48 407.12 512.23 419.32 509.57 431.52Z" fill="white"/>
        <path d="M530.87 423.95C530.76 424.33 530.66 424.71 530.55 425.07H294.11C294.22 424.71 294.32 424.33 294.42 423.95H530.87Z" fill="#878787"/>
        <path d="M532.15 416.34C532.15 416.72 532.07 417.09 532.03 417.46H295.59C295.59 417.09 295.68 416.72 295.71 416.34H532.15Z" fill="#878787"/>
        <path d="M532.66 408.75C532.66 409.13 532.66 409.49 532.66 409.87H296.23C296.23 409.49 296.23 409.12 296.23 408.75H532.66Z" fill="#878787"/>
        <path d="M532.79 401.16H296.35V402.28H532.79V401.16Z" fill="#878787"/>
        <path d="M302 237.3H714.59V245.19H712.04C705.36 245.19 704.17 261.57 704.17 273.03C704.17 284.49 705.34 300.88 712.04 300.88H714.59V308.76H302C293.39 308.76 292.87 287.76 292.87 273.03C292.87 258.3 293.39 237.3 302 237.3Z" fill="#3C5685"/>
        <path d="M444.8 237.3H714.59V245.19H712.04C705.36 245.19 704.17 261.57 704.17 273.03C704.17 284.49 705.34 300.88 712.04 300.88H714.59V308.76H444.8C436.19 308.76 433.6 287.76 433.6 273.03C433.6 258.3 436.23 237.3 444.8 237.3Z" fill="#4B6BA6"/>
        <path d="M449.23 245.19H712.04C705.36 245.19 704.17 261.57 704.17 273.03C704.17 284.49 705.34 300.88 712.04 300.88H449.23C442.52 300.88 441.35 284.49 441.35 273.03C441.35 261.57 442.55 245.19 449.23 245.19Z" fill="#EDEDED"/>
        <path d="M674.51 173.72H269.23V180.72H271.73C278.29 180.72 279.47 195.3 279.47 205.49C279.47 215.68 278.32 230.26 271.73 230.26H269.23V237.26H674.531C682.991 237.26 683.531 218.56 683.531 205.47C683.531 192.38 682.97 173.72 674.51 173.72Z" fill="#F23E6E"/>
        <path d="M196.55 512.79H337.05C331.05 477.12 290.2 436.34 232.18 412.32C173.81 388.17 115.76 388.32 86.46 409.65C92.09 445.47 133.08 486.58 191.46 510.74C193.147 511.44 194.843 512.123 196.55 512.79Z" fill="#8982D9"/>
        <path d="M632.29 568.6C681.079 568.6 720.63 565.385 720.63 561.42C720.63 557.455 681.079 554.24 632.29 554.24C583.501 554.24 543.95 557.455 543.95 561.42C543.95 565.385 583.501 568.6 632.29 568.6Z" fill="#9E9EF0"/>
        <path d="M519.97 173.72H269.23V180.72H271.73C278.29 180.72 279.47 195.3 279.47 205.49C279.47 215.68 278.32 230.26 271.73 230.26H269.23V237.26H519.97C528.42 237.26 530.97 218.56 530.97 205.47C530.97 192.38 528.42 173.72 519.97 173.72Z" fill="#BF2251"/>
        <path d="M515.61 180.74H271.71C278.27 180.74 279.45 195.32 279.45 205.51C279.45 215.7 278.3 230.28 271.71 230.28H515.61C522.2 230.28 523.35 215.71 523.35 205.51C523.35 195.31 522.23 180.74 515.61 180.74Z" fill="#DADADA"/>
        <path d="M694.37 365.95H662.29C670.87 365.95 672 384.42 672 403.95C672 422.56 669.86 437.56 661.54 437.56H693.62C701.94 437.56 704.07 422.56 704.07 403.95C704.07 384.38 702.95 365.95 694.37 365.95Z" fill="#FAD189"/>
        <path d="M778.69 536.69C777.958 536.681 777.251 536.42 776.69 535.95C776.064 535.41 775.677 534.646 775.611 533.822C775.546 532.998 775.807 532.182 776.34 531.55C785.61 520.66 782.1 502.76 778.39 483.81C775.15 467.24 771.8 450.12 775.69 434.32C780.44 415.05 796.21 403.62 811.46 392.57C822.08 384.89 833.04 376.94 839.88 366.57C852.24 347.75 850.14 332.29 847.71 314.4C846.55 305.84 845.34 297 845.64 287.15C846.45 259.9 861.16 246.94 876.94 236.99C877.437 236.678 878.012 236.512 878.6 236.51C879.274 236.512 879.929 236.732 880.468 237.138C881.007 237.543 881.399 238.112 881.587 238.76C881.775 239.407 881.749 240.098 881.511 240.729C881.273 241.36 880.838 241.897 880.27 242.26C870.63 248.34 852.69 259.65 851.86 287.34C851.59 296.66 852.75 305.24 853.86 313.54C856.35 331.9 858.7 349.22 845.07 369.99C837.6 381.36 826.16 389.64 815.07 397.65C800.07 408.53 785.88 418.8 781.68 435.85C778.11 450.32 781.33 466.76 784.44 482.66C788.44 503.13 792.23 522.45 781.02 535.66C780.727 535.987 780.367 536.249 779.966 536.426C779.564 536.604 779.129 536.694 778.69 536.69V536.69Z" fill="#9E9EF0"/>
        <path d="M301.85 513.66L157.23 445.81L126.16 455.88C125.892 455.969 125.612 456.016 125.33 456.02C124.694 456.019 124.08 455.792 123.597 455.378C123.114 454.965 122.794 454.393 122.695 453.765C122.596 453.137 122.725 452.494 123.057 451.953C123.39 451.411 123.905 451.006 124.51 450.81L150.16 442.49L94.7698 416.49C94.2238 416.23 93.7823 415.791 93.5178 415.247C93.2533 414.703 93.1814 414.086 93.3138 413.495C93.4463 412.905 93.7753 412.377 94.2469 411.998C94.7186 411.619 95.3048 411.412 95.9098 411.41C96.3004 411.408 96.6865 411.493 97.0398 411.66L220.66 469.66L213.86 421.66C213.766 420.962 213.951 420.254 214.377 419.692C214.802 419.13 215.432 418.759 216.13 418.66C216.256 418.65 216.383 418.65 216.51 418.66C217.151 418.663 217.77 418.898 218.253 419.32C218.736 419.742 219.051 420.325 219.14 420.96L226.44 472.4L252.16 484.47L242.52 415.95L243.98 416.63C245.29 417.25 246.59 417.88 247.87 418.51L248.29 418.71L257.94 487.21L310.85 511.95L310.48 513.62L301.85 513.66Z" fill="#BCB6FA"/>
        <path d="M503.36 230.29H272.08C278.34 229.74 279.44 215.53 279.44 205.53C279.505 200.505 279.113 195.484 278.27 190.53C343.6 184.53 429.32 185.53 473.27 201.45C492.46 208.35 506.23 219.33 503.36 230.29Z" fill="white"/>
        <path d="M382.7 40.18C384.01 46.35 381.57 50.92 387.35 55.72C391.9 59.51 394.35 59.22 397.85 58.94C403.52 58.49 407.05 54.43 408.74 51.73C410.185 49.3989 411.039 46.7501 411.227 44.0139C411.415 41.2778 410.932 38.537 409.82 36.03C407.63 31.32 403.15 28.03 398.08 25.23C393.01 22.43 388.28 19.44 389.17 13.96C389.94 9.28002 390.38 5.88 388.33 3.19C385.55 -0.430002 378.24 -0.809996 374.02 1.29C369.02 3.79 366.76 5.97 367.2 9.44C367.69 13.29 379.14 17.96 379.2 23.54C379.2 25.27 378 29.3 379.11 30.68C381.47 33.65 381.95 36.64 382.7 40.18Z" fill="#3C5685"/>
        <path d="M348.31 241.13C349.8 245.78 355.77 246.49 357.91 245.52C363.1 243.16 360.38 238.09 358.36 223.52C356.94 213.26 354.78 199.52 352.04 183.89C351.21 179.14 353.14 174.33 356.83 172.53C361.05 170.48 384.71 164.25 386.22 156.53C387.57 149.71 379.16 142.91 373.62 141.25C366.73 139.19 339.39 140.09 330.62 145.61C325.14 149.06 324.21 157.39 325.88 164.31C327.55 171.23 345.31 231.77 348.31 241.13Z" fill="#2A3D5E"/>
        <path d="M347.35 269.24C350.85 269.67 359.07 267.48 361.86 265.29C364.23 263.44 365.08 260.15 366.02 257.01C367.19 253.14 370.02 253.21 367.53 249.01C366.021 246.223 363.758 243.918 361 242.36C358.92 241.26 355.48 240.36 353.59 240.96C350.54 241.85 348.59 244.96 349.19 249.96C349.68 253.81 347.06 259.78 345.48 262.24C343.33 265.55 344.31 268.86 347.35 269.24Z" fill="#EDEDED"/>
        <path d="M330.58 268.26C334.73 266.89 337.13 262.99 339.96 259.36C342.79 255.73 346.96 251.3 346.26 245.75C345.7 241.36 343.93 245.01 340.97 245.16C337.66 245.33 334.39 242.02 331.05 243.28C327.71 244.54 325.91 250.95 323.23 253.64C320.55 256.33 315.02 259.5 312.59 262.59C304.14 273.32 327.33 269.33 330.58 268.26Z" fill="white"/>
        <path d="M332.74 237.63C331.59 242.55 334.59 246.49 338.36 247.2C339.868 247.541 341.447 247.347 342.828 246.652C344.209 245.957 345.305 244.804 345.93 243.39C350.54 231.89 362.28 199.09 369.7 180.28C370.35 178.408 371.555 176.778 373.153 175.606C374.752 174.434 376.669 173.777 378.65 173.72H399C402.78 173.72 406.08 173.51 408.25 172.23C419.42 165.61 420.17 150.32 412.25 140.44C407.66 134.74 367.58 143.6 362.12 145.13C358.48 146.13 354.52 149.8 352.78 153.31C349.58 159.69 335.59 225.44 332.74 237.63Z" fill="#3C5685"/>
        <path d="M363.1 123.54C363.44 127.93 364.21 141.71 380.28 141.71H403.36C406.63 141.71 408.36 138.71 407.02 134.9C405.9 131.61 399.26 121.72 403.13 110.23C406.03 101.62 405.29 77.88 402.25 68.55C400.15 62.12 394.35 53.78 392.89 58.82C391.052 64.0623 388.042 68.8163 384.09 72.72C378.29 77.96 370.86 77.72 368.83 73.04C366.66 68.04 368.18 64.32 366.29 60.53C364.61 57.17 358.75 66.15 357.91 69.22C355.568 77.8053 354.365 86.6611 354.33 95.56C354.23 104.78 362.4 114.5 363.1 123.54Z" fill="white"/>
        <path d="M353.45 100.95C353.45 114.25 361.2 107.25 373 107.25C384.8 107.25 403.13 117.5 403.13 100.95C403.13 92.1599 384.8 100.46 373 100.46C361.2 100.46 353.45 91.2099 353.45 100.95Z" fill="#ECE3FA"/>
        <path d="M369.46 56.63C368.035 57.3104 366.828 58.3746 365.975 59.703C365.122 61.0314 364.656 62.5714 364.63 64.15C364.496 67.8123 365.487 71.4278 367.47 74.51C371.47 80.99 379.19 80.03 384.93 75.31C388.47 72.41 395.75 63.52 393.55 58.09C392.37 55.19 389.2 54.91 387.01 53.09C384.17 50.7 385.39 47.66 384.92 44.24C388.92 45.37 389.24 35.75 387.92 33.33C387.639 33.0349 387.256 32.8594 386.85 32.84C386.75 31.84 387.69 22.36 378.42 19.84C371.37 17.94 364.31 22.18 362.16 26.1C359.88 30.25 361.88 35.28 362.29 39.63C362.274 43.496 363.216 47.3058 365.03 50.72C366.168 52.9225 367.665 54.9199 369.46 56.63V56.63Z" fill="#FFBE91"/>
        <path d="M370.56 57.69C370.178 58.0797 369.774 58.4469 369.35 58.79C367.637 60.024 366.052 61.4278 364.62 62.98C361.44 67.23 359.87 74.22 359.18 79.41C358.385 86.0181 358.288 92.6916 358.89 99.32C359.19 103.69 359.18 111.03 352.7 109.18C351.16 108.73 344.08 105.53 343.57 103.66C343.06 101.79 343.88 99.97 344.21 98.35C344.79 95.5 345.94 87.52 346.42 84.86C349.11 70.01 352.69 62.69 362.07 58.57C364.237 57.5579 366.507 56.7833 368.84 56.26H369.09C369.523 56.792 370.016 57.2719 370.56 57.69V57.69Z" fill="#F23E6E"/>
        <path d="M368.83 56.43C368.83 58 370.83 64.43 375.16 64.43C379.49 64.43 383.95 55.25 383.09 53.94C382.23 52.63 380.49 59.09 375.16 59.09C369.83 59.09 368.83 54.85 368.83 56.43Z" fill="#EB8E6C"/>
        <path d="M430.01 117.74C429.64 113.08 424.01 95.7399 421.52 88.6199C417.23 76.4299 413.03 67.0499 409.23 63.9499C408.35 62.9072 407.342 61.9798 406.23 61.1899C401.94 58.2499 394.9 55.4199 388.61 53.7399C386.15 53.0799 389.81 55.7399 391.07 56.7399C398.21 62.0999 398.59 100.02 396.17 111.62C395.3 115.79 393.9 119.93 394.11 124.29C394.42 130.59 400.17 138.29 403.91 144.53C406.02 148.06 413.77 161.53 417.91 155.99C422.59 149.81 418.91 142.14 417.72 136.54C417.3 134.48 416.98 132.44 416.72 130.4C419.785 129.518 422.733 128.269 425.5 126.68C427.018 125.767 428.248 124.443 429.046 122.861C429.844 121.279 430.178 119.504 430.01 117.74V117.74Z" fill="#F23E6E"/>
        <path d="M384.38 140.48C385.71 140.09 415.28 129.97 418.38 128.37C423.82 125.54 421.63 118.06 416.23 116.75C414.04 116.21 410.56 117.02 408.48 118.04C398.92 122.76 385.95 129.74 381.48 131.95C364.48 140.44 377.51 142.51 384.38 140.48Z" fill="#FFBE91"/>
        <path d="M320.42 141.68H379.02L362.14 101.71H303.55L320.42 141.68Z" fill="#C3B8D4"/>
        <path d="M336.72 122.57C337.226 123.689 338.025 124.651 339.031 125.355C340.038 126.058 341.215 126.478 342.44 126.57C344.66 126.57 345.71 124.77 344.78 122.57C344.275 121.452 343.478 120.49 342.473 119.787C341.469 119.083 340.293 118.662 339.07 118.57C336.84 118.55 335.79 120.35 336.72 122.57Z" fill="#E7DCFA"/>
        <path d="M380.13 141.68H379.02L362.08 101.71H363.19L380.13 141.68Z" fill="#E7DCFA"/>
        <path d="M323.1 143.85H380.13V141.68H323.1V143.85Z" fill="#AE9DBF"/>
        <path d="M403.36 141.68H380.13V143.85H403.36V141.68Z" fill="#E7DCFA"/>
        <path d="M390.62 28.3501C390.55 24.3501 388.62 19.2501 385.31 16.8701C381.61 14.1801 374.78 11.3601 373.8 9.5101C372.69 7.3901 372.68 3.9701 378.88 1.5101C380.56 0.850099 379.07 0.380115 377.07 0.870115C374.46 1.52012 370.67 2.9901 368.91 4.8201C364.85 9.0501 368.15 12.1401 369.59 13.3301C370.03 13.6901 370.46 14.8101 369.05 15.3301C366.24 16.2476 363.581 17.5753 361.16 19.2701C355.47 23.4701 353.55 28.6901 355.56 35.3201C356.56 38.7301 359.56 43.9701 361.91 44.6801C362.56 44.8801 362.71 44.2501 362.63 42.6801C362.45 38.8601 362.72 34.2401 370.51 29.8901C373.92 27.9801 379.25 27.5401 381.38 34.6701C381.78 36.0301 383.38 40.5501 384.94 39.3701C385.45 38.9901 385.02 35.8501 386.67 35.1101C388.32 34.3701 388.61 36.6601 389.67 35.4501C390.12 34.8301 390.66 30.3101 390.62 28.3501Z" fill="#2A3D5E"/>
        <path d="M703.82 561.7L696.23 528.56H660.33L667.89 561.7H662.36L553.36 84.24H558.89L566.46 117.38H602.36L594.8 84.24H600.33L709.33 561.7H703.82ZM695 523.04L687 488.04H651.1L659.1 523.04H695ZM685.74 482.47L677.74 447.47H641.84L649.84 482.47H685.74ZM676.49 441.95L668.49 406.95H632.59L640.59 441.95H676.49ZM667.23 401.34L659.23 366.34H623.33L631.33 401.34H667.23ZM657.97 360.78L649.97 325.73H614.07L622.07 360.78H657.97ZM648.72 320.21L640.72 285.21H604.82L612.82 320.21H648.72ZM639.46 279.65L631.46 244.6H595.56L603.56 279.65H639.46ZM630.23 239.08L622.23 204.08H586.33L594.33 239.08H630.23ZM620.97 198.51L612.97 163.51H577.07L585.07 198.51H620.97ZM611.69 157.95L603.69 122.95H567.79L575.79 157.95H611.69Z" fill="#232E4D"/>
    </g>
    <defs>
        <linearGradient id="paint0_linear" x1="245.9" y1="512.79" x2="245.9" y2="315.38" gradientUnits="userSpaceOnUse">
            <stop stop-color="#6C53B8"/>
            <stop offset="1" stop-color="#5353B8"/>
        </linearGradient>
        <linearGradient id="paint1_linear" x1="326365" y1="270143" x2="326365" y2="201198" gradientUnits="userSpaceOnUse">
            <stop stop-color="#6C53B8"/>
            <stop offset="1" stop-color="#5353B8"/>
        </linearGradient>
        <clipPath id="clip0">
            <rect width="932.24" height="568.6" fill="white"/>
        </clipPath>
    </defs>
</svg>
