<svg width="337" height="238" viewBox="0 0 337 238" fill="none" xmlns="http://www.w3.org/2000/svg">
<path d="M178.525 237.432C257.331 237.368 321.209 229.195 321.201 219.175C321.193 209.155 257.302 201.084 178.496 201.147C99.6895 201.21 35.8111 209.384 35.8191 219.404C35.8272 229.424 99.7187 237.495 178.525 237.432Z" fill="#E0E7F9"/>
<path d="M206.543 167.482C208.925 164.512 212.996 162.748 216.44 160.536C219.88 158.325 222.949 155.103 222.165 151.47C220.868 145.444 210.144 142.365 209.009 136.326C207.714 129.42 219.497 126.349 222.231 119.958C223.791 116.311 222.093 112.048 219.307 108.614C216.521 105.181 212.719 102.322 209.437 99.1619C205.462 95.334 202.151 90.8465 201.557 86.0651C200.964 81.2837 203.649 76.2329 209.06 74.4495C212.109 73.4461 215.623 73.5437 218.921 73.0892C222.218 72.6347 225.659 71.3392 226.558 68.8032C227.002 67.5446 226.75 66.1705 226.633 64.8339C225.664 53.7146 235.8 43.2924 249.416 41.4145C248.615 44.0351 253.025 46.4382 256.354 45.8551C259.682 45.275 261.855 42.9451 263.72 40.7441C265.585 38.543 267.648 36.1787 270.92 35.4575C273.546 34.878 276.443 35.4844 279.167 36.1161C281.276 36.6038 283.721 37.3581 284.4 39.0174C284.683 39.7075 284.589 40.4355 284.47 41.1322C283.393 47.4242 280.442 53.3129 278.978 59.5331C277.515 65.7532 277.74 72.747 282.426 78.2656C285.243 81.5831 289.535 84.1997 291.427 87.8661C294.428 93.6811 290.41 99.7589 286.294 104.688C282.178 109.618 277.652 115.266 279.681 121.286C281.719 127.34 312.193 123.623 304.817 160.927C303.03 169.965 290.12 160.346 291.567 169.51C292.179 173.381 283.381 169.912 282.534 173.668C282.265 174.861 288.065 180.711 287.599 181.854C285.98 185.821 280.991 185.878 284.862 189.076C286.884 190.746 289.612 192.162 290.335 194.358C291.635 198.301 285.615 200.801 280.586 200.962C276.387 201.094 275.483 189.042 271.996 191.028C267.9 193.363 263.555 202.516 243.453 199.978C235.143 198.927 231.823 177.989 225.597 181.539C211.361 189.652 194.199 182.876 206.543 167.482Z" fill="#E0E7F9"/>
<rect x="245.077" y="203.687" width="120.978" height="1.17665" transform="rotate(-88.0632 245.077 203.687)" fill="white"/>
<path d="M245.945 142.772L245.273 141.806C247.091 140.54 263.135 129.435 266.219 129.238L266.292 130.412C264.209 130.545 252.982 137.878 245.945 142.772Z" fill="white"/>
<path d="M245.994 120.278C238.169 109.609 225.161 91.4241 225.969 89.4686C226.073 89.2207 226.286 89.0511 226.552 89.0101L226.732 90.1709C226.958 90.1362 227.077 89.929 227.077 89.8286C227.054 91.7426 239.248 109.091 246.941 119.577L245.994 120.278Z" fill="white"/>
<path d="M248.959 98.8788L248.171 98.0072C248.764 97.4733 262.701 84.8955 264.153 83.8244L264.85 84.7714C263.445 85.8048 249.104 98.7469 248.959 98.8788Z" fill="white"/>
<path d="M267.341 131.541C268.049 129.686 268.898 127.74 271.018 126.705C273.706 125.404 277.585 125.938 280.648 127.209C283.708 128.481 286.305 130.427 289.274 131.972C290.072 132.385 291.004 132.786 291.882 132.628C292.77 132.471 293.316 131.793 293.729 131.146C298.348 123.668 296.832 114.564 298.491 106.442C298.91 104.223 299.68 101.838 301.599 100.252C306.641 95.8393 307.669 98.9762 312.491 93.9771C315.858 90.4852 317.892 83.0911 322.836 81.3488C333.058 77.7479 328.854 97.8108 328.598 102.552C328.115 111.545 340.345 113.509 335.951 123.657C334.043 128.064 330.259 131.217 327.438 134.95C324.645 138.705 322.936 143.975 326.3 147.941C328.489 150.525 332.817 152.602 332.575 155.689C332.426 157.506 330.572 158.619 328.832 159.473C324.488 161.629 319.987 163.563 315.344 165.273C314.171 165.707 312.923 166.166 312.359 167.086C311.584 168.342 312.333 170.045 312.82 171.607C314.62 177.37 312.283 182.863 307.752 186.381C303.246 189.914 296.787 191.724 290.211 193.059C281.75 194.792 272.953 195.885 263.885 196.3C237.494 196.406 250.115 178.708 252.586 171.91C257.328 158.254 262.25 144.795 267.341 131.541Z" fill="#ED7061"/>
<path d="M271.9 190.197C271.793 190.197 271.683 190.169 271.586 190.106C271.313 189.934 271.228 189.57 271.4 189.297L315.701 118.797C315.874 118.521 316.241 118.439 316.511 118.611C316.784 118.784 316.869 119.148 316.697 119.421L272.395 189.92C272.285 190.099 272.094 190.197 271.9 190.197Z" fill="white"/>
<path d="M297.096 150.073C296.849 150.073 296.619 149.917 296.538 149.669L293.194 139.452C293.093 139.145 293.262 138.812 293.57 138.711C293.88 138.611 294.21 138.777 294.311 139.087L297.654 149.304C297.755 149.612 297.586 149.944 297.278 150.045C297.216 150.064 297.156 150.073 297.096 150.073Z" fill="white"/>
<path d="M303.474 140.147C303.207 140.147 302.969 139.965 302.903 139.695C302.827 139.378 303.021 139.061 303.335 138.986L313.785 136.464C314.105 136.385 314.419 136.583 314.494 136.897C314.57 137.213 314.376 137.53 314.062 137.606L303.612 140.128C303.568 140.14 303.521 140.147 303.474 140.147Z" fill="white"/>
<path d="M211.02 190.18C210.429 188.539 210.133 186.657 210.9 185.09C212.388 182.052 216.856 182.017 219.86 183.565C222.864 185.112 225.295 187.737 228.493 188.838C231.692 189.94 236.234 188.399 236.309 185.02C236.346 183.313 235.234 181.83 234.301 180.4C231.624 176.294 230.073 171.46 229.869 166.566C229.789 164.702 230.417 162.264 232.281 162.155C233.373 162.092 234.287 162.932 235.053 163.713C238.218 166.936 241.384 170.159 244.549 173.385C245.226 164.216 246.388 154.042 253.349 148.037C254.647 146.919 256.683 146.014 257.954 147.165C258.517 147.676 258.737 148.457 258.882 149.203C260.022 155.07 258.104 161.291 259.731 167.041C259.973 167.894 260.316 168.763 261 169.327C264.159 171.941 268.242 165.377 272.212 166.409C274.795 167.082 275.435 170.652 274.395 173.11C273.355 175.567 271.273 177.439 270.03 179.8C268.789 182.16 268.763 185.643 271.096 186.937C272.185 187.542 273.503 187.503 274.749 187.446C278.617 187.27 282.486 187.094 286.355 186.919C284.289 189.939 282.227 192.962 280.162 195.982C279.62 196.777 279.049 197.706 279.298 198.638C279.817 200.595 282.901 200.147 284.374 201.539C286.019 203.094 284.61 206.095 282.499 206.919C280.388 207.742 278.031 207.223 275.768 207.119C263.073 206.523 254.071 214.927 241.284 209.954C230.873 205.903 215.275 202.002 211.02 190.18Z" fill="#D85B7A"/>
<path d="M250.093 211.965C250.084 211.965 250.078 211.965 250.068 211.965C249.823 211.953 249.641 211.743 249.654 211.501C250.334 199.339 251.686 178.833 253.072 178.166C253.292 178.063 253.555 178.153 253.659 178.373C253.753 178.567 253.691 178.796 253.521 178.919C252.597 180.329 251.197 199.642 250.529 211.551C250.52 211.783 250.325 211.965 250.093 211.965Z" fill="white"/>
<path d="M250.823 200.455C250.622 200.456 250.443 200.318 250.393 200.117C250.336 199.882 250.483 199.643 250.722 199.586L266.42 195.862C266.655 195.805 266.894 195.952 266.951 196.188C267.007 196.423 266.86 196.662 266.621 196.718L250.923 200.443C250.889 200.449 250.854 200.455 250.823 200.455Z" fill="white"/>
<path d="M250.283 208.767C250.204 208.767 250.126 208.749 250.054 208.705L230.038 196.606C229.831 196.481 229.765 196.208 229.89 196.001C230.015 195.793 230.288 195.724 230.495 195.853L250.511 207.951C250.719 208.077 250.785 208.35 250.659 208.557C250.578 208.692 250.434 208.767 250.283 208.767Z" fill="white"/>
<path d="M251.309 193.931C251.171 193.932 251.036 193.869 250.952 193.747L243.457 183.298C243.315 183.1 243.359 182.824 243.557 182.683C243.754 182.541 244.027 182.585 244.172 182.783L251.667 193.231C251.808 193.429 251.764 193.705 251.567 193.847C251.488 193.903 251.4 193.931 251.309 193.931Z" fill="white"/>
<path d="M287.149 17.5719C287.425 17.9796 287.79 18.3621 288.264 18.4935C289.058 18.7093 289.889 18.1062 290.221 17.3529C290.553 16.5996 290.508 15.743 290.46 14.921C291.723 16.106 293.452 17.0616 295.134 16.643C296.815 16.2243 297.877 13.8231 296.589 12.66C297.81 12.976 299.122 13.2918 300.305 12.8484C301.484 12.4082 302.324 10.8638 301.586 9.84148C301.215 9.32719 300.578 9.09237 299.978 8.88576C297.27 7.9529 294.561 7.02003 291.853 6.08716C291.153 5.84612 290.428 5.60196 289.687 5.66217C284.153 6.12473 284.834 14.1819 287.149 17.5719Z" fill="#ED7061"/>
<path d="M31.3044 68.022C31.5809 68.4297 31.9452 68.8122 32.4191 68.9436C33.2131 69.1594 34.0441 68.5563 34.3761 67.803C34.7081 67.0497 34.6635 66.1931 34.6157 65.3711C35.878 66.5561 37.6077 67.5117 39.2892 67.0931C40.9707 66.6744 42.0324 64.2732 40.745 63.1101C41.9659 63.4261 43.2777 63.7419 44.4602 63.2986C45.6397 62.8583 46.4793 61.3139 45.7412 60.2916C45.3705 59.7773 44.7334 59.5425 44.1339 59.3359C41.4253 58.403 38.7167 57.4701 36.0081 56.5373C35.3082 56.2962 34.5831 56.0521 33.8427 56.1123C28.3081 56.5748 28.9892 64.6288 31.3044 68.022Z" fill="#E0E7F9"/>
<path d="M102.117 31.1124C101.012 31.4584 96.568 18.0325 92.2237 23.8032C88.3465 28.9553 98.6722 32.1946 102.117 31.1124Z" fill="#ED7061"/>
<path d="M8.19759 97.921C11.1726 98.4552 14.2347 98.1389 17.1994 97.5561C14.1582 96.5482 11.4269 94.7995 8.52345 93.4432C6.81275 92.6445 0.757884 89.9164 0.886481 93.76C0.963584 95.9971 6.57201 97.6305 8.19759 97.921Z" fill="#E0E7F9"/>
<path d="M263.02 14.2152C267.21 15.8215 272.058 15.6293 276.11 13.6964C274.382 14.523 267.518 11.6073 265.666 11.0722C263.077 10.3244 259.2 8.06832 256.634 9.28781C257.552 11.5808 260.676 13.3165 263.02 14.2152Z" fill="#E0E7F9"/>
<path d="M292.404 61.1006C293.693 63.3618 294.978 65.6231 296.266 67.8844C296.901 68.9978 297.551 70.1362 298.512 70.9858C299.473 71.8353 300.813 72.3645 302.052 72.0341C302.551 71.9019 303.059 71.572 303.143 71.0636C303.206 70.6902 303.024 70.3232 302.841 69.9939C300.742 66.2021 297.706 62.9319 294.076 60.5627" fill="#ED7061"/>
<path d="M311.598 45.9111C312.05 45.9766 312.502 45.8162 312.925 45.6464C315.833 44.4863 318.562 42.8807 320.989 40.902C318.98 40.8785 308.286 39.0076 307.154 40.1412C305.317 41.9783 309.458 45.5927 311.598 45.9111Z" fill="#E0E7F9"/>
<path d="M64.9963 26.8718C65.266 26.7618 65.5483 26.6298 65.6956 26.3786C66.1719 25.5593 64.8378 24.914 63.8902 24.9022C61.8758 24.8725 51.6617 23.8452 53.3118 27.3958C54.8991 30.8115 62.6187 27.859 64.9963 26.8718Z" fill="#ED7061"/>
<path d="M83.3291 179.978C77.7521 178.385 72.2252 176.736 68.2276 172.579C66.1612 170.428 64.8904 166.501 67.3208 164.773C68.5438 163.903 70.1818 164.039 71.6815 163.928C77.4452 163.51 74.2343 158.332 71.3366 156.351C66.2224 152.857 60.0106 150.063 57.4551 144.417C57.2948 144.062 57.147 143.674 57.2251 143.291C57.3408 142.72 57.9022 142.364 58.4291 142.119C62.033 140.469 68.1753 142.639 70.7203 139.078C76.9322 130.379 57.614 115.694 53.3203 110.115C52.5005 109.049 51.6429 107.895 51.5634 106.552C51.4076 103.948 54.2896 102.085 56.9002 102.002C60.8975 101.876 64.6427 104.157 68.6804 103.505C71.8616 102.991 73.9584 99.9735 74.6839 97.0234C76.8638 88.1388 72.6327 78.5125 73.0836 69.5037C73.4542 62.1297 78.5448 48.0749 88.4847 51.5027C93.0357 53.0711 94.4114 58.6551 95.8365 63.2539C97.1546 67.517 99.0474 72.3099 101.789 75.844C103.8 78.4341 106.738 80.4964 110.011 80.6757C116.371 81.0252 124.707 75.9354 124.813 86.2113C124.847 89.3584 123.732 92.3998 123.374 95.5284C123.016 98.6539 123.655 102.262 126.264 104.023C131.021 107.235 145.232 100.597 144.569 110.751C144.402 113.293 143.035 115.575 141.845 117.826C136.093 128.712 147.065 128.201 149.83 136.467C150.824 139.441 150.189 142.764 148.795 145.57C146.559 150.075 142.683 153.689 139.859 157.83C134.127 166.238 130.291 175.805 127.133 185.428C124.817 192.483 122.86 206.228 112.999 206.371C106.915 206.46 104.953 197.227 102.9 193.065C98.8994 184.954 91.5487 182.322 83.3291 179.978Z" fill="#ED7061"/>
<path d="M118.977 209.529C118.704 209.529 118.459 209.338 118.402 209.059L96.2284 100.131C96.1654 99.8145 96.3691 99.5037 96.6859 99.4376C97.0091 99.3746 97.3167 99.5783 97.3797 99.8951L119.554 208.822C119.617 209.139 119.413 209.45 119.096 209.516C119.055 209.522 119.018 209.529 118.977 209.529Z" fill="white"/>
<path d="M104.202 133.871C104.121 133.871 104.039 133.856 103.961 133.818C103.666 133.687 103.533 133.338 103.665 133.04L113.043 112.167C113.174 111.869 113.525 111.74 113.82 111.871C114.116 112.003 114.248 112.351 114.116 112.649L104.738 133.522C104.638 133.742 104.425 133.871 104.202 133.871Z" fill="white"/>
<path d="M112.646 173.284C112.564 173.284 112.483 173.268 112.404 173.23C112.109 173.099 111.977 172.751 112.109 172.453L121.486 151.579C121.621 151.281 121.969 151.152 122.264 151.284C122.559 151.415 122.691 151.763 122.56 152.061L113.182 172.935C113.085 173.155 112.872 173.283 112.646 173.284Z" fill="white"/>
<path d="M106.615 155.102C106.531 155.102 106.446 155.084 106.364 155.046L86.0523 145.473C85.7604 145.336 85.6314 144.984 85.7724 144.692C85.9102 144.397 86.2615 144.275 86.5566 144.412L106.869 153.985C107.16 154.123 107.289 154.474 107.148 154.766C107.045 154.976 106.835 155.102 106.615 155.102Z" fill="white"/>
<path d="M308.888 212.661C310.373 209.855 311.478 207.131 313.597 204.697C314.312 203.878 315.187 203.055 316.276 203.026C316.48 203.019 316.709 203.054 316.85 203.211C316.976 203.348 317.004 203.546 317.02 203.731C318.03 215.55 302.624 214.875 299.538 204.925C299.346 204.31 299.204 203.642 299.392 203.036C299.733 201.928 301.113 201.463 302.212 201.82C303.31 202.173 304.142 203.13 304.758 204.136C306.392 206.796 306.903 209.974 307.376 213.052C306.61 209.024 307.093 204.79 308.737 201.127C308.985 200.578 309.461 199.95 310.029 200.15C310.302 200.247 310.482 200.514 310.623 200.774C311.647 202.634 311.724 204.893 311.265 206.93C310.805 208.967 309.85 210.835 308.888 212.661Z" fill="#889ED8"/>
<path d="M107.4 200.429C108.776 198.276 109.96 195.78 110.262 192.99C110.334 192.316 110.343 191.572 110.035 191.026C109.768 190.553 109.319 190.33 108.882 190.208C105.788 189.339 102.888 192.331 100.659 195.292C96.7194 200.522 93.2036 206.308 90.1901 212.52C91.9913 208.804 92.9394 201.677 92.506 197.31C92.4902 197.137 92.4618 196.952 92.3613 196.842C92.2577 196.733 92.1102 196.739 91.9785 196.77C91.0279 197.013 90.4296 198.234 89.9724 199.364C88.5632 202.863 87.3396 206.906 86.5238 210.832C87.0365 208.365 85.5123 205.398 84.1305 203.931C81.659 201.306 82.1891 204.971 82.7274 207.123C83.2531 209.234 86.752 217.49 89.2387 215.643C89.6934 215.304 89.8049 213.459 90.1778 212.865C90.8296 211.836 91.7361 211.496 92.6709 211.112C95.1802 210.081 97.7936 209.656 100.152 208.035C102.908 206.143 105.398 203.565 107.4 200.429Z" fill="#889ED8"/>
<path d="M138.107 194.132C138.213 194.116 138.326 194.129 138.446 194.17C138.819 194.301 139.011 194.703 139.155 195.073C140.46 198.451 140.303 197.598 140.67 202.244C140.994 199.254 140.766 199.806 141.811 196.985C142.015 196.435 142.247 195.87 142.692 195.487C145.574 193.019 143.868 202.179 143.486 203.262C142.074 207.27 138.319 208.807 134.321 208.054C130.813 207.395 127.231 205.318 125.503 202.131C125.345 201.842 125.207 201.472 125.398 201.205C125.53 201.02 125.771 200.96 125.994 200.923C127.996 200.598 130.039 201.315 131.775 202.361C133.514 203.408 135.031 204.775 136.698 205.934C137.878 206.756 140.121 206.336 141.559 206.282C144 206.189 144.796 205.106 146.68 203.551C147.091 203.212 147.546 202.888 148.073 202.809C148.6 202.731 149.209 202.972 149.391 203.474C149.498 203.772 149.442 204.104 149.354 204.409C148.228 208.278 143.512 208.539 141.006 205.997C138.616 203.57 136.63 199.213 137.038 195.78C137.119 195.084 137.517 194.214 138.107 194.132Z" fill="#F44E4E"/>
<path d="M24.6321 174.487C25.3283 174.088 26.0843 173.796 26.8749 173.651C30.1721 173.046 33.4056 174.985 35.883 177.246C38.3574 179.509 40.5215 182.218 43.5067 183.75C44.8941 184.462 47.1219 184.535 47.4816 183.019C47.6504 182.313 47.2796 181.604 46.9089 180.98C43.1825 174.73 37.857 169.861 33.0865 164.446C31.8114 162.997 30.4543 161.028 31.3315 159.308C32.2713 157.462 35.0609 157.595 36.8001 158.723C38.5393 159.848 39.8052 161.636 41.6509 162.579C42.1312 162.823 42.6679 163.011 43.2044 162.944C44.2209 162.818 44.9387 161.798 45.0665 160.781C45.8459 154.527 38.2894 149.6 35.9352 144.478C33.9235 140.109 34.3116 135.038 35.0672 130.287C35.6572 126.578 36.5703 122.664 39.2603 120.042C39.8686 119.452 40.6212 118.915 41.4684 118.917C44.6971 118.921 44.7753 126.414 46.5686 128.499C48.1955 130.396 50.5404 131.737 51.5934 134.002C52.923 136.862 51.7898 140.214 52.0057 143.361C52.3549 148.394 56.8491 149.62 58.1668 153.416C58.4219 150.576 58.6486 147.692 58.8848 144.833C58.9593 143.923 59.0903 142.904 59.8084 142.338C61.3731 141.104 63.449 143.336 63.7235 145.31C64.0864 147.907 63.3794 150.525 63.2152 153.145C63.051 155.765 63.6119 158.727 65.7687 160.218C68.1453 161.864 71.3514 161.074 74.1717 160.431C76.992 159.789 80.4653 159.573 82.2463 161.852C82.9467 162.746 83.2457 163.891 83.3753 165.021C84.4905 174.571 74.9181 183.283 76.9526 192.679C78.7761 201.105 83.7661 206.278 74.7313 212.47C71.0277 215.008 67.0624 216.069 62.656 214.714C59.2852 213.675 56.3185 211.656 53.3455 209.764C47.2018 205.856 40.1058 203.85 33.5486 200.724C28.9689 198.541 24.5674 195.557 21.9596 191.204C19.3518 186.854 18.9297 180.918 21.9795 176.865C22.6972 175.91 23.6002 175.081 24.6321 174.487Z" fill="#AFD1E8"/>
<path d="M68.9952 215.631C68.7473 215.631 68.515 215.475 68.4363 215.224L44.6972 142.171C44.5966 141.864 44.7657 141.531 45.0732 141.431C45.3869 141.33 45.7133 141.499 45.814 141.807L69.5531 214.859C69.6537 215.166 69.4846 215.499 69.1771 215.6C69.1144 215.622 69.0548 215.631 68.9952 215.631Z" fill="white"/>
<path d="M64.256 201.057C64.1995 201.057 64.1461 201.048 64.0897 201.032L35.6269 192.64C35.3162 192.549 35.1371 192.219 35.2278 191.909C35.3217 191.598 35.6479 191.419 35.9586 191.51L64.4213 199.902C64.7321 199.993 64.9112 200.322 64.8204 200.633C64.7422 200.89 64.5101 201.057 64.256 201.057Z" fill="white"/>
<path d="M55.344 173.631C55.2656 173.631 55.184 173.616 55.1086 173.581L44.2263 168.799C43.9281 168.667 43.7929 168.322 43.9245 168.024C44.056 167.726 44.4042 167.59 44.6992 167.722L55.5816 172.505C55.8798 172.636 56.015 172.981 55.8834 173.279C55.7863 173.499 55.5731 173.631 55.344 173.631Z" fill="white"/>
<path fill-rule="evenodd" clip-rule="evenodd" d="M109.697 65.1409C109.668 29.2673 138.725 0.160383 174.602 0.13156C210.475 0.10274 239.582 29.1598 239.611 65.0365C239.64 100.913 194.441 182.938 174.748 182.954C156.819 182.969 109.725 101.015 109.697 65.1409ZM130.432 66.4828C130.452 90.9068 150.266 110.69 174.691 110.67C199.115 110.651 218.898 90.8358 218.878 66.4117C218.858 41.9877 199.044 22.2045 174.619 22.2242C150.195 22.2438 130.412 42.0587 130.432 66.4828Z" fill="#4B6DC6"/>
<path d="M174.781 223.61C200.458 223.589 221.27 220.759 221.268 217.287C221.265 213.816 200.448 211.019 174.771 211.04C149.094 211.061 128.281 213.891 128.284 217.362C128.287 220.833 149.104 223.63 174.781 223.61Z" fill="#4B6DC6"/>
</svg>
