<svg width="602" height="410" viewBox="0 0 602 410" fill="none" xmlns="http://www.w3.org/2000/svg">
    <path d="M309.965 233.394L309.949 233.39L309.933 233.385C309.456 233.234 309.051 232.914 308.793 232.486C308.535 232.057 308.443 231.549 308.534 231.057L309.026 231.147L308.632 230.839C308.957 230.426 309.343 230.066 309.778 229.772L309.817 229.746L309.86 229.727C310.931 229.265 312.109 229.111 313.263 229.28C316.403 229.501 319.131 228.407 321.635 226.511C323.994 224.669 325.925 222.336 327.294 219.674L327.293 219.674L327.299 219.663C330.118 214.496 331.616 208.712 331.663 202.827L331.663 202.826C331.679 201.179 331.699 199.527 331.733 197.88C331.72 197.355 331.764 196.83 331.863 196.314L331.866 196.295L331.871 196.278C332.022 195.719 332.369 195.234 332.849 194.911C333.328 194.588 333.908 194.448 334.482 194.517L334.482 194.517L334.491 194.519C335.594 194.672 336.217 195.658 336.255 196.812L336.255 196.812C336.26 196.967 336.249 197.129 336.24 197.258C336.237 197.292 336.235 197.324 336.233 197.353C336.209 197.75 336.189 198.152 336.169 198.558C336.123 199.474 336.077 200.405 335.985 201.323C335.712 204.477 335.994 207.656 336.82 210.713L336.82 210.713L336.822 210.719C338.203 216.126 340.705 220.874 344.938 224.543L344.938 224.543C348.198 227.372 351.842 229.234 356.232 229.243L356.232 229.243L356.242 229.243C357.341 229.268 358.434 229.39 359.511 229.608C359.839 229.661 360.147 229.797 360.408 230.003C360.672 230.211 360.877 230.485 361.003 230.797C361.129 231.108 361.172 231.448 361.128 231.781C361.085 232.1 360.964 232.403 360.776 232.663C360.58 233.025 360.292 233.327 359.939 233.539C359.575 233.759 359.157 233.873 358.731 233.869L358.723 233.869L358.715 233.868C358.117 233.843 357.521 233.777 356.931 233.673C355.898 233.495 354.838 233.539 353.823 233.8C352.807 234.062 351.858 234.536 351.039 235.192L351.032 235.197L351.024 235.203C345.827 239.058 341.758 244.236 339.241 250.198L339.236 250.209L339.231 250.219C337.361 254.131 335.977 258.258 335.113 262.507L335.113 262.507L335.111 262.516C334.819 263.822 334.438 265.107 333.971 266.36L333.971 266.361L333.966 266.372C333.813 266.754 333.532 267.07 333.171 267.266C332.823 267.455 332.422 267.522 332.032 267.456C331.64 267.44 331.263 267.295 330.961 267.042C330.648 266.781 330.433 266.42 330.353 266.02L330.351 266.009L330.35 265.999C330.218 265.159 330.162 264.308 330.182 263.458C330.187 258.715 329.519 253.995 328.196 249.44L328.196 249.44L328.193 249.428C327.195 245.654 325.414 242.132 322.967 239.09C320.082 235.667 316.623 233.524 312.049 233.625L312.047 233.625C311.346 233.638 310.646 233.56 309.965 233.394ZM321.017 231.913C321.087 231.968 321.159 232.021 321.231 232.074C325.118 234.576 327.809 238.083 329.797 242.134L329.799 242.138C331.465 245.604 332.645 249.284 333.307 253.072C333.326 253.179 333.349 253.284 333.376 253.396C336.804 244.86 341.126 237.348 348.557 231.777C345.031 230.103 341.894 227.705 339.35 224.737L339.35 224.737L339.343 224.728C337.031 221.909 335.192 218.736 333.896 215.334C331.115 221.638 329.067 224.953 327.096 227.124C325.624 228.744 324.183 229.729 322.578 230.827C322.075 231.17 321.557 231.524 321.017 231.913Z" fill="#181B5E" stroke="#181B5E"/>
    <path d="M249.714 316.357L249.773 316.387C250.265 316.642 250.807 316.788 251.361 316.814C253.133 317.103 254.763 317.959 256.008 319.254L256.012 319.257L256.012 319.257C257.643 320.918 258.88 322.924 259.63 325.128C260.421 327.516 260.891 329.998 261.026 332.509C261.049 333.024 261.107 333.537 261.199 334.044L261.201 334.056L261.201 334.056C261.283 334.45 261.491 334.806 261.794 335.071C262.09 335.329 262.461 335.486 262.852 335.518C263.251 335.584 263.66 335.51 264.01 335.308C264.369 335.101 264.642 334.774 264.781 334.384L264.784 334.377L264.786 334.37C265.124 333.331 265.381 332.268 265.556 331.189C265.635 330.706 265.658 330.215 265.678 329.759C265.68 329.722 265.682 329.686 265.683 329.651C265.707 329.152 265.733 328.693 265.822 328.254L265.824 328.246L265.825 328.239C266.172 326.223 266.921 324.297 268.028 322.577C269.131 320.861 270.566 319.384 272.25 318.233C273.355 317.595 274.516 317.06 275.719 316.633L275.736 316.627L275.753 316.62C275.991 316.515 276.238 316.432 276.51 316.34C276.552 316.326 276.595 316.312 276.638 316.297C276.951 316.191 277.291 316.071 277.616 315.902M249.714 316.357L265.332 328.154C265.691 326.072 266.465 324.083 267.607 322.306C268.75 320.529 270.238 319 271.983 317.809C273.12 317.152 274.315 316.601 275.552 316.162C275.812 316.048 276.083 315.957 276.353 315.866C276.706 315.747 277.059 315.628 277.387 315.458C277.647 315.324 277.861 315.114 277.999 314.856C278.137 314.597 278.194 314.303 278.161 314.012M249.714 316.357L249.665 316.313C249.238 315.924 248.869 315.474 248.571 314.979L249 314.721M249.714 316.357L249 314.721M277.616 315.902C277.616 315.902 277.617 315.902 277.617 315.902L277.387 315.458L277.615 315.903C277.616 315.903 277.616 315.903 277.616 315.902ZM277.616 315.902C277.967 315.722 278.254 315.439 278.44 315.092C278.622 314.751 278.699 314.363 278.66 313.978M278.66 313.978C278.66 313.986 278.66 313.994 278.661 314.002L278.161 314.012M278.66 313.978C278.647 313.588 278.513 313.211 278.275 312.9C278.034 312.585 277.7 312.355 277.32 312.241C276.787 312.07 276.235 311.946 275.709 311.828C275.594 311.802 275.48 311.776 275.368 311.75L275.361 311.749L275.361 311.749C273.174 311.277 271.144 310.252 269.467 308.77L269.458 308.762L269.458 308.762C268.121 307.639 267.075 306.21 266.408 304.597C265.74 302.983 265.471 301.233 265.624 299.494L265.625 299.486L265.625 299.486C265.653 299.103 265.7 298.721 265.749 298.324C265.756 298.269 265.763 298.213 265.77 298.157C265.825 297.71 265.879 297.246 265.899 296.775C265.923 296.505 265.893 296.233 265.81 295.975C265.727 295.712 265.591 295.469 265.41 295.26C265.23 295.051 265.009 294.881 264.761 294.76C264.528 294.646 264.276 294.578 264.017 294.559C263.463 294.431 262.88 294.513 262.381 294.789C261.867 295.073 261.482 295.542 261.301 296.1L261.29 296.133L261.284 296.167C261.18 296.758 261.122 297.355 261.112 297.954C260.965 300.938 260.172 303.855 258.787 306.502C258.163 307.623 257.432 308.682 256.605 309.664L256.596 309.674L256.588 309.684C256.009 310.45 255.26 311.071 254.4 311.499C253.545 311.925 252.603 312.147 251.648 312.151C251.155 312.119 250.661 312.214 250.215 312.428C249.763 312.644 249.374 312.974 249.088 313.385L249.075 313.402L249.064 313.421C248.858 313.781 248.68 314.156 248.533 314.543L249 314.721M278.66 313.978C278.659 313.971 278.658 313.963 278.658 313.956L278.161 314.012M278.161 314.012C278.155 313.719 278.056 313.436 277.878 313.204C277.7 312.971 277.453 312.802 277.172 312.719C276.661 312.554 276.134 312.436 275.608 312.317C275.49 312.291 275.373 312.264 275.256 312.237C272.985 311.748 270.877 310.683 269.136 309.145C267.738 307.97 266.644 306.476 265.945 304.788C265.247 303.1 264.966 301.269 265.126 299.45L249 314.721M260.628 311.319L260.628 311.319L260.626 311.323C260.103 311.991 259.53 312.618 258.911 313.197C258.46 313.627 257.971 314.031 257.412 314.493C257.303 314.584 257.191 314.677 257.076 314.772C259.973 316.902 261.794 319.62 263.176 322.75C263.322 322.559 263.444 322.353 263.558 322.135C263.612 322.034 263.666 321.923 263.724 321.808C263.886 321.48 264.068 321.112 264.295 320.801L264.295 320.801C264.503 320.519 264.712 320.217 264.926 319.909C265.328 319.329 265.746 318.726 266.199 318.184L266.199 318.184L266.203 318.18C266.86 317.412 267.573 316.693 268.335 316.029C268.844 315.576 269.396 315.156 269.979 314.711C270.107 314.613 270.237 314.514 270.368 314.414C270.249 314.309 270.125 314.211 269.996 314.118C267.15 312.598 264.801 310.291 263.23 307.473C263.182 307.404 263.132 307.336 263.081 307.269C262.967 307.438 262.867 307.624 262.769 307.825C262.726 307.912 262.682 308.007 262.636 308.106C262.497 308.403 262.342 308.736 262.152 309.028L262.151 309.029C262.014 309.239 261.875 309.458 261.735 309.68C261.389 310.227 261.029 310.797 260.628 311.319Z" fill="#181B5E" stroke="#181B5E"/>
    <mask id="path-3-outside-1" maskUnits="userSpaceOnUse" x="0" y="53" width="529" height="357" fill="black">
        <rect fill="white" y="53" width="529" height="357"/>
        <path d="M527.467 313.532C527.325 313.844 527.224 314.174 527.166 314.512C527.006 318.464 526.028 322.254 524.846 325.992C517.341 349.702 497.276 368.119 473.019 373.656C466.873 375.043 460.57 375.601 454.275 375.317C453.515 375.286 452.752 375.313 451.95 375.313C451.693 375.785 451.431 376.193 451.237 376.632C447.551 384.994 441.72 391.561 434.312 396.787C427 401.88 418.721 405.418 409.987 407.185C403.152 408.716 396.136 409.283 389.144 408.868C375.587 407.933 362.887 404.263 351.403 396.825C345.067 392.795 339.563 387.587 335.191 381.483C334.952 381.145 334.68 380.83 334.447 380.535C333.782 380.494 333.558 380.997 333.241 381.326C325.705 389.246 315.808 394.515 305.03 396.345C298.826 397.471 292.493 397.708 286.223 397.048C272.22 395.533 259.246 391.057 247.598 383.028C242.52 379.528 237.902 375.45 233.273 371.388C229.857 368.389 226.451 365.362 222.861 362.58C215.008 356.495 206.269 351.977 196.988 348.477C187.826 345.019 178.31 342.586 168.612 341.223C163.632 340.491 158.611 340.067 153.578 339.953C151.2 339.912 148.825 339.785 146.446 339.709C140.425 339.513 134.417 339.926 128.407 340.141C123.936 340.302 119.469 340.574 115.007 340.958C110.553 341.344 106.108 341.869 101.675 342.455C96.6886 343.113 91.7137 343.868 86.7446 344.653C82.4658 345.329 78.2007 346.091 73.9341 346.841C68.8385 347.736 63.719 348.425 58.5722 348.97C52.9446 349.641 47.2729 349.867 41.6099 349.646C29.8521 349.033 18.4548 346.788 7.71261 341.785C6.00285 340.988 4.34878 340.075 2.67809 339.196C2.31745 338.982 1.96788 338.75 1.63074 338.502C0.514025 337.761 1.06066 336.763 1.87939 336.394C2.13763 336.289 2.40791 336.217 2.68396 336.18C12.3636 334.52 21.5849 330.84 29.747 325.378C35.1153 321.821 40.0832 317.693 44.5643 313.068C46.7567 310.814 49.0517 308.656 51.3501 306.508C52.249 305.731 53.1875 305 54.1619 304.319C58.4539 301.075 63.3341 300.438 68.5059 301.092C69.3964 301.204 70.2899 301.29 71.0861 301.378C71.6968 300.76 71.4232 300.197 71.3133 299.682C68.5544 286.259 70.6622 272.292 77.2594 260.281C85.8604 244.821 98.9323 234.963 115.79 229.963C119.221 228.992 122.722 228.288 126.262 227.859C126.533 227.823 126.799 227.761 127.215 227.684C127.128 227.176 127.087 226.717 126.971 226.279C125.489 220.804 124.754 215.153 124.787 209.481C124.82 200.356 126.722 191.335 130.377 182.974C139.307 162.48 154.189 148.054 175.035 139.891C180.507 137.735 186.257 136.363 192.114 135.816C192.944 135.739 193.765 135.578 194.613 135.453C194.713 135.167 194.787 134.873 194.833 134.573C195.309 126.107 197.203 117.78 200.436 109.941C205.293 97.8355 212.202 87.0674 221.609 77.9983C233.855 66.1912 248.303 58.5261 265.071 55.3723C270.982 54.2288 277.008 53.7975 283.022 54.0876C286.93 54.2937 290.85 54.4422 294.73 54.9068C305.836 56.237 316.08 59.8607 324.975 66.8312C330.649 71.2765 335.021 76.7478 337.61 83.5258C340.753 91.7522 340.477 99.9478 337.184 108.077C336.9 108.777 336.614 109.476 336.326 110.181C336.5 110.345 336.695 110.485 336.904 110.6C345.502 113.534 351.502 119.441 355.875 127.196C358.505 131.836 360.15 136.969 360.708 142.274C361.001 144.779 360.969 147.312 360.614 149.809C360.524 150.398 360.509 150.999 360.43 151.952C361.114 151.364 361.534 151.024 361.927 150.657C372.849 140.406 385.78 134.251 400.478 131.609C407.444 130.38 414.536 130.03 421.588 130.566C432.986 131.392 444.131 134.333 454.452 139.239C473.767 148.345 488.82 162.089 499.207 180.799C504.38 190.041 507.749 200.182 509.135 210.682C511.223 226.566 508.663 241.607 500.971 255.718C500.738 256.145 500.521 256.581 500.306 256.993C500.701 257.791 501.478 258.043 502.101 258.459C510.551 264.052 517.356 271.799 521.814 280.899C524.305 285.996 526.044 291.427 526.975 297.023C527.093 297.707 527.055 298.42 527.143 299.112C527.226 299.585 527.334 300.053 527.467 300.514V313.532ZM26.4702 341.02C33.1096 342.059 39.8297 342.493 46.5476 342.317C54.3126 342.249 62.0679 341.755 69.7789 340.84C75.81 340.069 81.8723 339.489 87.8697 338.512C96.352 337.129 104.795 335.5 113.242 333.901C123.541 331.951 133.818 329.887 144.119 327.945C150.098 326.816 156.145 326.079 162.22 325.74C172.984 325.065 183.789 325.876 194.332 328.15C208.378 331.266 221.041 337.201 232.205 346.263C235.625 349.039 238.855 352.048 242.171 354.952C245.907 358.225 249.531 361.636 253.398 364.744C263.261 372.673 274.625 377.635 286.713 381.036C290.94 382.295 295.303 383.042 299.708 383.259C303.343 383.431 306.987 383.254 310.589 382.731C315.497 381.955 320.352 380.937 325 379.123C327.149 378.285 329.27 377.377 331.379 376.443C332.064 376.095 332.837 375.958 333.601 376.047C334.364 376.137 335.084 376.45 335.67 376.947C341.039 380.873 346.834 384.181 352.944 386.809C364.574 391.884 377.047 394.75 389.725 395.26C393.151 395.388 396.582 395.314 399.999 395.039C405.999 394.632 411.94 393.595 417.723 391.947C426.623 389.389 434.825 385.434 442.046 379.566C444.342 377.728 446.467 375.686 448.393 373.464C448.725 373.015 449.179 372.67 449.701 372.471C450.223 372.272 450.792 372.227 451.339 372.341C452.096 372.475 452.861 372.564 453.63 372.606C459.522 372.885 465.398 372.661 471.154 371.317C492.914 366.239 509.013 353.807 518.908 333.738C524.765 321.858 526.599 309.218 524.061 296.148C520.944 280.1 512.303 267.8 498.323 259.283C498.084 259.137 497.82 259.028 497.598 258.861C497.335 258.683 497.142 258.418 497.053 258.112C496.964 257.807 496.984 257.48 497.11 257.188C497.29 256.737 497.572 256.328 497.794 255.894C499.006 253.53 500.342 251.221 501.401 248.791C507.319 235.224 508.504 221.138 505.778 206.669C503.696 195.706 499.427 185.275 493.228 175.997C482.558 159.846 468.227 148.042 450.486 140.368C441.03 136.279 430.943 133.845 420.663 133.172C413.115 132.635 405.529 133.17 398.132 134.763C385.792 137.45 374.76 142.761 365.296 151.187C362.239 153.863 359.483 156.863 357.075 160.134C356.833 160.531 356.622 160.946 356.446 161.376C359.398 161.561 362.197 161.638 364.972 161.937C367.956 162.258 370.92 162.78 373.889 163.234C374.233 163.3 374.563 163.423 374.866 163.6C375.118 163.728 375.317 163.941 375.428 164.2C375.539 164.46 375.556 164.751 375.475 165.022C375.412 165.262 375.27 165.475 375.071 165.624C374.873 165.774 374.629 165.852 374.381 165.845C373.684 165.827 372.989 165.752 372.305 165.62C367.699 164.752 363.028 164.275 358.342 164.194C352.954 164.095 347.568 164.527 342.265 165.483C328.283 167.896 315.06 173.548 303.655 181.988C294.655 188.632 287.143 196.656 281.477 206.335C275.944 215.786 272.601 225.919 272.146 236.924C271.573 250.836 275.517 263.313 284.184 274.224C290.583 282.282 298.711 288.102 308.13 292.149C316.436 295.726 325.338 297.718 334.376 298.022C338.92 298.248 343.474 298.109 347.996 297.607C350.676 297.273 350.968 297.394 352.569 299.619C354.881 302.786 357.521 305.7 360.445 308.314C365.103 312.576 370.525 315.918 376.424 318.166C382.824 320.6 389.506 321.699 396.281 322.247C400.324 322.615 404.389 322.666 408.439 322.398C413.324 322.077 418.16 321.232 422.865 319.877C434.127 316.523 443.991 310.69 452.671 302.844C460.058 296.166 466.153 288.482 470.475 279.442C474.704 270.594 476.564 261.297 475.702 251.529C475.017 243.904 472.65 236.526 468.771 229.926C465.045 223.495 460.173 218.036 454.548 213.23C447.721 207.276 439.66 202.908 430.945 200.439C426.366 199.138 421.643 198.412 416.885 198.278C413.174 198.203 409.469 198.589 405.854 199.429C399.887 200.737 394.294 203.378 389.493 207.154C386.48 209.496 384.4 212.834 383.626 216.57C382.959 219.657 382.829 222.836 383.242 225.966C384.227 234.077 387.524 241.732 392.741 248.019C394.972 250.819 397.685 253.196 400.753 255.04C403.253 256.505 405.896 257.563 408.845 257.67C409.124 257.676 409.403 257.711 409.675 257.775C410.023 257.837 410.338 258.02 410.563 258.294C410.787 258.567 410.907 258.911 410.899 259.265C410.913 259.585 410.809 259.899 410.609 260.148C410.408 260.398 410.123 260.566 409.808 260.622C408.875 260.912 407.92 261.134 406.971 261.371C402.371 262.522 397.734 262.93 393.053 261.926C388.053 260.854 383.728 258.546 380.352 254.656C374.369 247.763 372.002 239.679 373.066 230.699C374.228 220.888 378.907 212.849 386.305 206.384C395.414 198.421 406.224 195.329 418.115 195.652C423.153 195.86 428.141 196.734 432.949 198.251C442.23 201.032 450.334 205.872 457.524 212.292C463.468 217.597 468.568 223.597 472.254 230.714C478.05 241.907 479.897 253.711 477.651 266.131C476.335 273.236 473.703 280.034 469.891 286.173C460.439 301.634 447.311 312.877 430.631 319.964C424.572 322.54 418.157 324.18 411.605 324.825C407.152 325.304 402.665 325.385 398.197 325.067C393.595 324.751 389.017 324.148 384.489 323.263C370.66 320.417 359.563 313.303 351.199 301.921C350.949 301.583 350.683 301.256 350.463 300.9C350.305 300.621 350.061 300.401 349.767 300.274C349.473 300.147 349.145 300.119 348.834 300.196C348.557 300.237 348.278 300.261 347.999 300.28C345.001 300.487 342.004 300.835 339.004 300.862C334.457 300.884 329.915 300.536 325.424 299.822C316.827 298.553 308.524 295.763 300.905 291.582C290.042 285.567 281.492 277.229 275.763 266.138C274.775 264.209 273.897 262.225 273.134 260.196C273.017 259.796 272.785 259.44 272.466 259.172C272.148 258.903 271.757 258.735 271.344 258.688C269.971 258.431 268.587 258.245 267.195 258.131C261.185 257.818 255.159 258.082 249.199 258.919C242.689 259.802 236.233 261.044 229.86 262.639C215.828 266.23 202.208 271.273 189.22 277.685C177.978 283.184 166.847 288.909 155.709 294.625C141.711 301.812 127.641 308.847 113.156 315.015C93.3853 323.433 73.2365 330.766 52.3857 336.053C43.8506 338.216 35.2842 340.257 26.4702 341.02ZM327.174 112.583C327.049 112.728 326.936 112.883 326.836 113.046C326.687 113.362 326.552 113.685 326.422 114.009C323.311 121.787 317.987 127.633 310.752 131.742C303.955 135.601 296.732 137.649 288.831 136.448C282.975 135.634 277.468 133.183 272.945 129.377C270.191 127.07 268.115 124.061 266.936 120.669C265.48 116.53 265.08 112.218 264.955 107.87C264.945 107.451 265.029 107.036 265.199 106.653C265.297 106.387 265.477 106.158 265.712 106C265.948 105.841 266.227 105.76 266.511 105.768C266.758 105.781 266.997 105.864 267.199 106.007C267.401 106.15 267.559 106.348 267.653 106.577C267.83 106.955 267.968 107.353 268.117 107.745C269.252 110.692 270.974 113.378 273.179 115.639C275.81 118.366 278.953 120.548 282.427 122.06C290.135 125.466 298.103 125.968 306.227 123.955C310.944 122.817 315.31 120.54 318.942 117.321C323.49 113.286 326.09 108.355 326.404 102.156C326.775 94.86 325.298 87.9824 322.484 81.3202C318.966 72.9926 313.104 66.8468 305.16 62.6134C297.851 58.7176 289.975 57.0674 281.782 56.7006C276.324 56.5078 270.862 56.947 265.506 58.0093C249.532 61.0116 235.703 68.2483 223.963 79.4341C213.052 89.8309 205.536 102.382 200.847 116.665C197.769 126.039 196.929 135.668 197.617 145.461C197.636 146.344 197.817 147.215 198.15 148.033C198.919 148.033 199.677 148.048 200.434 148.033C205.191 147.911 209.947 148.325 214.611 149.267C234.327 153.258 251.294 167.131 258.284 188.363C259.958 193.447 260.166 198.9 258.882 204.097C257.153 211.393 253.362 217.531 248.045 222.702C238.538 231.947 226.97 236.753 213.877 237.956C208.992 238.42 204.066 238.164 199.256 237.196C193.36 235.996 187.855 233.874 182.915 230.4C177.816 226.815 173.929 222.227 171.596 216.405C170.064 212.584 169.277 208.628 169.774 204.5C170.509 198.21 172.932 192.237 176.786 187.212C179.685 183.322 183.492 180.201 187.875 178.122C191.857 176.179 196.267 175.279 200.691 175.507C206.963 175.86 212.949 178.249 217.74 182.311C224.244 187.677 228.145 194.642 230.182 202.736C230.272 203.074 230.324 203.42 230.34 203.77C230.37 204.123 230.264 204.474 230.043 204.752C229.823 205.029 229.505 205.212 229.154 205.263C228.781 205.376 228.38 205.354 228.022 205.199C227.664 205.044 227.373 204.766 227.2 204.417C226.979 204.062 226.821 203.67 226.63 203.296C225.392 200.778 223.752 198.48 221.773 196.49C212.596 187.491 201.674 184.437 189.208 187.363C183.26 188.703 178.042 192.249 174.605 197.285C174.256 197.721 173.968 198.203 173.75 198.718C172.518 202.333 171.866 206.02 172.518 209.856C173.449 215.493 176.15 220.687 180.231 224.685C184.323 228.78 189.237 231.509 194.709 233.273C201.617 235.499 208.677 235.921 215.856 235.061C223.592 234.155 231.036 231.566 237.665 227.475C242.718 224.438 247.119 220.428 250.614 215.68C254.064 211.055 256.228 205.601 256.887 199.869C257.376 195.466 256.545 191.261 255.024 187.124C247.788 167.44 230.208 152.524 206.234 150.784C197.974 150.211 189.682 151.281 181.837 153.93C167.683 158.613 156.038 166.925 146.855 178.604C135.722 192.76 130.197 208.848 130.859 226.944C130.874 227.364 130.877 227.784 130.883 228.203C130.879 228.519 130.799 228.83 130.648 229.108C130.497 229.385 130.281 229.622 130.018 229.798C129.442 230.198 128.759 230.419 128.057 230.433C126.458 230.595 124.85 230.723 123.27 230.998C115.593 232.277 108.222 234.975 101.535 238.956C89.8789 245.968 81.3555 255.686 76.4318 268.425C73.2393 276.538 72.1202 285.319 73.176 293.974C73.4783 296.465 73.9903 298.936 74.4808 301.399C74.8271 303.14 73.9165 304.656 71.8106 304.135C69.6267 303.635 67.3897 303.406 65.1499 303.451C61.9113 303.407 58.7397 304.375 56.0774 306.219C53.1128 308.333 50.3752 310.747 47.9086 313.425C45.5218 315.983 43 318.41 40.3539 320.699C31.9517 327.84 22.7243 333.516 12.0769 336.684C11.6241 336.819 11.1824 336.992 10.7355 337.147C14.039 337.681 17.3683 338.042 20.7097 338.226C26.1209 338.55 31.4695 337.912 36.7644 336.873C46.9833 334.86 57.0873 332.302 67.033 329.21C89.8849 322.138 112.144 313.276 133.604 302.706C145.833 296.678 157.922 290.366 170.079 284.192C179.556 279.38 189.015 274.533 198.817 270.401C217.944 262.34 237.672 256.635 258.509 255.384C261.085 255.229 263.679 255.353 266.264 255.375C267.102 255.383 267.941 255.458 268.776 255.543C269.655 255.632 270.53 255.769 271.566 255.905C271.376 255.044 271.245 254.371 271.077 253.707C269.909 249.019 269.329 244.203 269.351 239.371C269.362 233.838 270.101 228.331 271.549 222.992C274.822 210.929 280.932 200.442 289.345 191.277C299.622 180.081 312.04 172.088 326.316 166.962C334.012 164.16 342.059 162.439 350.228 161.847C350.717 161.813 351.199 161.72 351.686 161.675C351.964 161.653 352.234 161.57 352.477 161.432C352.72 161.294 352.93 161.105 353.093 160.878C354.836 158.772 356.169 156.358 357.023 153.761C358.072 150.34 358.438 146.745 358.097 143.183C357.411 135.745 354.514 128.682 349.78 122.904C347.136 119.532 343.805 116.761 340.007 114.775C335.994 112.733 331.783 111.693 327.174 112.583ZM15.3836 341.718L15.3137 341.951C16.1373 342.244 16.9541 342.562 17.7855 342.833C26.1629 345.557 34.8045 346.701 43.5673 347.043C48.4689 347.234 53.3442 346.791 58.2224 346.32C64.7683 345.684 71.2469 344.618 77.7205 343.498C82.4014 342.689 87.0832 341.878 91.7782 341.154C95.99 340.506 100.214 339.917 104.445 339.413C108.469 338.934 112.505 338.559 116.544 338.214C119.328 337.977 122.125 337.849 124.919 337.708C129.598 337.473 134.277 337.136 138.959 337.084C144.202 337.026 149.447 337.251 154.693 337.328C159.516 337.436 164.328 337.86 169.096 338.598C177.125 339.74 185.037 341.593 192.739 344.134C202.46 347.296 211.712 351.748 220.247 357.373C224.445 360.182 228.265 363.462 232.081 366.752C236.055 370.177 239.983 373.657 244.026 376.998C250.062 382.016 256.867 386.028 264.179 388.882C272.845 392.253 281.765 394.429 291.103 394.629C298.066 394.778 304.921 394.158 311.591 391.972C318.284 389.779 324.117 386.15 329.422 381.599C330.003 381.1 330.505 380.51 331.039 379.958C331.063 379.932 331.081 379.902 331.093 379.869C331.105 379.836 331.11 379.8 331.108 379.765C331.101 379.717 331.022 379.679 330.908 379.574C330.503 379.751 330.067 379.949 329.626 380.135C326.686 381.437 323.652 382.515 320.55 383.359C315.417 384.736 310.163 385.608 304.861 385.962C301.928 386.124 298.986 386.018 296.072 385.646C290.116 384.816 284.264 383.36 278.614 381.302C266.255 376.934 255.123 370.562 245.508 361.592C241.826 358.157 238.063 354.806 234.292 351.468C223.312 341.749 210.81 334.905 196.505 331.425C190.269 329.847 183.903 328.834 177.485 328.396C171.827 328.065 166.153 328.121 160.503 328.564C153.33 329.169 146.196 330.17 139.133 331.563C134.672 332.412 130.223 333.325 125.763 334.183C117.943 335.687 110.12 337.18 102.295 338.661C98.3822 339.402 94.4786 340.22 90.5447 340.811C83.7057 341.837 76.8578 342.807 69.9738 343.529C63.0898 344.251 56.1829 344.707 49.2642 344.946C43.0414 345.144 36.8122 344.927 30.618 344.299C25.9561 343.856 21.3295 343.098 16.77 342.03C16.3073 341.923 15.8447 341.821 15.3836 341.718ZM194.587 138.485C194.484 138.431 194.423 138.374 194.361 138.372C194.086 138.358 193.811 138.359 193.537 138.375C187.402 138.888 181.372 140.273 175.628 142.489C150.861 151.886 131.516 175.066 127.999 201.706C127.46 205.658 127.308 209.652 127.544 213.633C127.629 214.984 127.832 216.329 127.981 217.677C130.087 199.841 137.223 184.382 149.569 171.415C162.003 158.356 177.196 150.546 195.072 148.282C195.181 148.052 195.296 147.927 195.29 147.807C195.132 144.879 194.963 141.951 194.785 139.024C194.746 138.836 194.679 138.654 194.587 138.485ZM340.44 383.635C340.464 383.765 340.51 383.89 340.575 384.006C340.887 384.382 341.21 384.749 341.545 385.108C344.346 388.141 347.466 390.864 350.851 393.229C362.777 401.547 376.128 405.546 390.546 406.214C397.54 406.53 404.542 405.835 411.338 404.15C419.854 402.059 427.721 398.567 434.706 393.208C439.291 389.739 443.19 385.445 446.201 380.547C446.42 380.188 446.895 379.843 446.549 379.208L445.242 380.335C442.121 383.038 438.748 385.434 435.169 387.491C423.256 394.31 410.309 397.339 396.711 397.913C393.007 398.052 389.299 397.967 385.606 397.657C370.075 396.497 355.009 391.829 341.543 384.002C341.208 383.805 340.91 383.45 340.44 383.635ZM333.371 109.639C333.515 109.502 333.641 109.347 333.747 109.179C336.761 102.961 337.875 96.4599 336.576 89.6242C335.338 83.112 332.195 77.5895 327.643 72.8427C322.264 67.2308 315.743 63.418 308.464 60.8255C308.136 60.7275 307.802 60.6475 307.465 60.5856C307.919 61.0474 308.437 61.4422 309.002 61.758C316.802 66.4609 322.727 73.7256 325.765 82.3113C328.36 89.1245 329.764 96.1233 328.95 103.446C328.773 105.04 328.439 106.616 328.21 108.204C328.174 108.681 328.171 109.16 328.2 109.637L333.371 109.639ZM403.123 259.262C394.79 255.489 389.348 249.276 385.374 241.648C381.427 234.072 379.609 226.037 380.566 217.427C380.296 217.667 380.071 217.952 379.899 218.269C378.423 220.891 377.296 223.696 376.546 226.61C374.432 234.725 375.416 242.426 379.844 249.591C381.239 251.945 383.088 253.998 385.285 255.63C387.482 257.262 389.981 258.441 392.638 259.097C395.705 259.821 398.874 260.003 402.004 259.634C402.387 259.543 402.761 259.418 403.123 259.262ZM319.117 121.188L318.818 120.919C318.53 121.104 318.236 121.281 317.954 121.477C316.182 122.726 314.287 123.79 312.298 124.652C304.347 128.115 295.454 128.764 287.085 126.493C279.614 124.554 273.352 120.714 268.717 114.427C268.616 114.29 268.424 114.221 268.131 114.025C268.27 114.864 268.375 115.545 268.496 116.223C268.899 118.825 269.851 121.312 271.289 123.517C272.727 125.723 274.617 127.598 276.835 129.017C283.277 133.252 290.341 135.097 297.988 133.682C305.905 132.26 313.106 128.194 318.412 122.147C318.663 121.84 318.898 121.519 319.117 121.188V121.188ZM224.172 194.735C220.529 187.652 215.278 182.395 207.736 179.632C203.769 178.186 199.491 177.809 195.332 178.54C188.936 179.61 183.768 182.929 179.641 187.894C179.477 188.089 179.061 188.333 179.519 188.751C186.663 184.142 194.521 182.816 202.82 184.006C211.105 185.193 218.189 188.883 224.172 194.735Z"/>
    </mask>
    <path d="M527.467 313.532C527.325 313.844 527.224 314.174 527.166 314.512C527.006 318.464 526.028 322.254 524.846 325.992C517.341 349.702 497.276 368.119 473.019 373.656C466.873 375.043 460.57 375.601 454.275 375.317C453.515 375.286 452.752 375.313 451.95 375.313C451.693 375.785 451.431 376.193 451.237 376.632C447.551 384.994 441.72 391.561 434.312 396.787C427 401.88 418.721 405.418 409.987 407.185C403.152 408.716 396.136 409.283 389.144 408.868C375.587 407.933 362.887 404.263 351.403 396.825C345.067 392.795 339.563 387.587 335.191 381.483C334.952 381.145 334.68 380.83 334.447 380.535C333.782 380.494 333.558 380.997 333.241 381.326C325.705 389.246 315.808 394.515 305.03 396.345C298.826 397.471 292.493 397.708 286.223 397.048C272.22 395.533 259.246 391.057 247.598 383.028C242.52 379.528 237.902 375.45 233.273 371.388C229.857 368.389 226.451 365.362 222.861 362.58C215.008 356.495 206.269 351.977 196.988 348.477C187.826 345.019 178.31 342.586 168.612 341.223C163.632 340.491 158.611 340.067 153.578 339.953C151.2 339.912 148.825 339.785 146.446 339.709C140.425 339.513 134.417 339.926 128.407 340.141C123.936 340.302 119.469 340.574 115.007 340.958C110.553 341.344 106.108 341.869 101.675 342.455C96.6886 343.113 91.7137 343.868 86.7446 344.653C82.4658 345.329 78.2007 346.091 73.9341 346.841C68.8385 347.736 63.719 348.425 58.5722 348.97C52.9446 349.641 47.2729 349.867 41.6099 349.646C29.8521 349.033 18.4548 346.788 7.71261 341.785C6.00285 340.988 4.34878 340.075 2.67809 339.196C2.31745 338.982 1.96788 338.75 1.63074 338.502C0.514025 337.761 1.06066 336.763 1.87939 336.394C2.13763 336.289 2.40791 336.217 2.68396 336.18C12.3636 334.52 21.5849 330.84 29.747 325.378C35.1153 321.821 40.0832 317.693 44.5643 313.068C46.7567 310.814 49.0517 308.656 51.3501 306.508C52.249 305.731 53.1875 305 54.1619 304.319C58.4539 301.075 63.3341 300.438 68.5059 301.092C69.3964 301.204 70.2899 301.29 71.0861 301.378C71.6968 300.76 71.4232 300.197 71.3133 299.682C68.5544 286.259 70.6622 272.292 77.2594 260.281C85.8604 244.821 98.9323 234.963 115.79 229.963C119.221 228.992 122.722 228.288 126.262 227.859C126.533 227.823 126.799 227.761 127.215 227.684C127.128 227.176 127.087 226.717 126.971 226.279C125.489 220.804 124.754 215.153 124.787 209.481C124.82 200.356 126.722 191.335 130.377 182.974C139.307 162.48 154.189 148.054 175.035 139.891C180.507 137.735 186.257 136.363 192.114 135.816C192.944 135.739 193.765 135.578 194.613 135.453C194.713 135.167 194.787 134.873 194.833 134.573C195.309 126.107 197.203 117.78 200.436 109.941C205.293 97.8355 212.202 87.0674 221.609 77.9983C233.855 66.1912 248.303 58.5261 265.071 55.3723C270.982 54.2288 277.008 53.7975 283.022 54.0876C286.93 54.2937 290.85 54.4422 294.73 54.9068C305.836 56.237 316.08 59.8607 324.975 66.8312C330.649 71.2765 335.021 76.7478 337.61 83.5258C340.753 91.7522 340.477 99.9478 337.184 108.077C336.9 108.777 336.614 109.476 336.326 110.181C336.5 110.345 336.695 110.485 336.904 110.6C345.502 113.534 351.502 119.441 355.875 127.196C358.505 131.836 360.15 136.969 360.708 142.274C361.001 144.779 360.969 147.312 360.614 149.809C360.524 150.398 360.509 150.999 360.43 151.952C361.114 151.364 361.534 151.024 361.927 150.657C372.849 140.406 385.78 134.251 400.478 131.609C407.444 130.38 414.536 130.03 421.588 130.566C432.986 131.392 444.131 134.333 454.452 139.239C473.767 148.345 488.82 162.089 499.207 180.799C504.38 190.041 507.749 200.182 509.135 210.682C511.223 226.566 508.663 241.607 500.971 255.718C500.738 256.145 500.521 256.581 500.306 256.993C500.701 257.791 501.478 258.043 502.101 258.459C510.551 264.052 517.356 271.799 521.814 280.899C524.305 285.996 526.044 291.427 526.975 297.023C527.093 297.707 527.055 298.42 527.143 299.112C527.226 299.585 527.334 300.053 527.467 300.514V313.532ZM26.4702 341.02C33.1096 342.059 39.8297 342.493 46.5476 342.317C54.3126 342.249 62.0679 341.755 69.7789 340.84C75.81 340.069 81.8723 339.489 87.8697 338.512C96.352 337.129 104.795 335.5 113.242 333.901C123.541 331.951 133.818 329.887 144.119 327.945C150.098 326.816 156.145 326.079 162.22 325.74C172.984 325.065 183.789 325.876 194.332 328.15C208.378 331.266 221.041 337.201 232.205 346.263C235.625 349.039 238.855 352.048 242.171 354.952C245.907 358.225 249.531 361.636 253.398 364.744C263.261 372.673 274.625 377.635 286.713 381.036C290.94 382.295 295.303 383.042 299.708 383.259C303.343 383.431 306.987 383.254 310.589 382.731C315.497 381.955 320.352 380.937 325 379.123C327.149 378.285 329.27 377.377 331.379 376.443C332.064 376.095 332.837 375.958 333.601 376.047C334.364 376.137 335.084 376.45 335.67 376.947C341.039 380.873 346.834 384.181 352.944 386.809C364.574 391.884 377.047 394.75 389.725 395.26C393.151 395.388 396.582 395.314 399.999 395.039C405.999 394.632 411.94 393.595 417.723 391.947C426.623 389.389 434.825 385.434 442.046 379.566C444.342 377.728 446.467 375.686 448.393 373.464C448.725 373.015 449.179 372.67 449.701 372.471C450.223 372.272 450.792 372.227 451.339 372.341C452.096 372.475 452.861 372.564 453.63 372.606C459.522 372.885 465.398 372.661 471.154 371.317C492.914 366.239 509.013 353.807 518.908 333.738C524.765 321.858 526.599 309.218 524.061 296.148C520.944 280.1 512.303 267.8 498.323 259.283C498.084 259.137 497.82 259.028 497.598 258.861C497.335 258.683 497.142 258.418 497.053 258.112C496.964 257.807 496.984 257.48 497.11 257.188C497.29 256.737 497.572 256.328 497.794 255.894C499.006 253.53 500.342 251.221 501.401 248.791C507.319 235.224 508.504 221.138 505.778 206.669C503.696 195.706 499.427 185.275 493.228 175.997C482.558 159.846 468.227 148.042 450.486 140.368C441.03 136.279 430.943 133.845 420.663 133.172C413.115 132.635 405.529 133.17 398.132 134.763C385.792 137.45 374.76 142.761 365.296 151.187C362.239 153.863 359.483 156.863 357.075 160.134C356.833 160.531 356.622 160.946 356.446 161.376C359.398 161.561 362.197 161.638 364.972 161.937C367.956 162.258 370.92 162.78 373.889 163.234C374.233 163.3 374.563 163.423 374.866 163.6C375.118 163.728 375.317 163.941 375.428 164.2C375.539 164.46 375.556 164.751 375.475 165.022C375.412 165.262 375.27 165.475 375.071 165.624C374.873 165.774 374.629 165.852 374.381 165.845C373.684 165.827 372.989 165.752 372.305 165.62C367.699 164.752 363.028 164.275 358.342 164.194C352.954 164.095 347.568 164.527 342.265 165.483C328.283 167.896 315.06 173.548 303.655 181.988C294.655 188.632 287.143 196.656 281.477 206.335C275.944 215.786 272.601 225.919 272.146 236.924C271.573 250.836 275.517 263.313 284.184 274.224C290.583 282.282 298.711 288.102 308.13 292.149C316.436 295.726 325.338 297.718 334.376 298.022C338.92 298.248 343.474 298.109 347.996 297.607C350.676 297.273 350.968 297.394 352.569 299.619C354.881 302.786 357.521 305.7 360.445 308.314C365.103 312.576 370.525 315.918 376.424 318.166C382.824 320.6 389.506 321.699 396.281 322.247C400.324 322.615 404.389 322.666 408.439 322.398C413.324 322.077 418.16 321.232 422.865 319.877C434.127 316.523 443.991 310.69 452.671 302.844C460.058 296.166 466.153 288.482 470.475 279.442C474.704 270.594 476.564 261.297 475.702 251.529C475.017 243.904 472.65 236.526 468.771 229.926C465.045 223.495 460.173 218.036 454.548 213.23C447.721 207.276 439.66 202.908 430.945 200.439C426.366 199.138 421.643 198.412 416.885 198.278C413.174 198.203 409.469 198.589 405.854 199.429C399.887 200.737 394.294 203.378 389.493 207.154C386.48 209.496 384.4 212.834 383.626 216.57C382.959 219.657 382.829 222.836 383.242 225.966C384.227 234.077 387.524 241.732 392.741 248.019C394.972 250.819 397.685 253.196 400.753 255.04C403.253 256.505 405.896 257.563 408.845 257.67C409.124 257.676 409.403 257.711 409.675 257.775C410.023 257.837 410.338 258.02 410.563 258.294C410.787 258.567 410.907 258.911 410.899 259.265C410.913 259.585 410.809 259.899 410.609 260.148C410.408 260.398 410.123 260.566 409.808 260.622C408.875 260.912 407.92 261.134 406.971 261.371C402.371 262.522 397.734 262.93 393.053 261.926C388.053 260.854 383.728 258.546 380.352 254.656C374.369 247.763 372.002 239.679 373.066 230.699C374.228 220.888 378.907 212.849 386.305 206.384C395.414 198.421 406.224 195.329 418.115 195.652C423.153 195.86 428.141 196.734 432.949 198.251C442.23 201.032 450.334 205.872 457.524 212.292C463.468 217.597 468.568 223.597 472.254 230.714C478.05 241.907 479.897 253.711 477.651 266.131C476.335 273.236 473.703 280.034 469.891 286.173C460.439 301.634 447.311 312.877 430.631 319.964C424.572 322.54 418.157 324.18 411.605 324.825C407.152 325.304 402.665 325.385 398.197 325.067C393.595 324.751 389.017 324.148 384.489 323.263C370.66 320.417 359.563 313.303 351.199 301.921C350.949 301.583 350.683 301.256 350.463 300.9C350.305 300.621 350.061 300.401 349.767 300.274C349.473 300.147 349.145 300.119 348.834 300.196C348.557 300.237 348.278 300.261 347.999 300.28C345.001 300.487 342.004 300.835 339.004 300.862C334.457 300.884 329.915 300.536 325.424 299.822C316.827 298.553 308.524 295.763 300.905 291.582C290.042 285.567 281.492 277.229 275.763 266.138C274.775 264.209 273.897 262.225 273.134 260.196C273.017 259.796 272.785 259.44 272.466 259.172C272.148 258.903 271.757 258.735 271.344 258.688C269.971 258.431 268.587 258.245 267.195 258.131C261.185 257.818 255.159 258.082 249.199 258.919C242.689 259.802 236.233 261.044 229.86 262.639C215.828 266.23 202.208 271.273 189.22 277.685C177.978 283.184 166.847 288.909 155.709 294.625C141.711 301.812 127.641 308.847 113.156 315.015C93.3853 323.433 73.2365 330.766 52.3857 336.053C43.8506 338.216 35.2842 340.257 26.4702 341.02ZM327.174 112.583C327.049 112.728 326.936 112.883 326.836 113.046C326.687 113.362 326.552 113.685 326.422 114.009C323.311 121.787 317.987 127.633 310.752 131.742C303.955 135.601 296.732 137.649 288.831 136.448C282.975 135.634 277.468 133.183 272.945 129.377C270.191 127.07 268.115 124.061 266.936 120.669C265.48 116.53 265.08 112.218 264.955 107.87C264.945 107.451 265.029 107.036 265.199 106.653C265.297 106.387 265.477 106.158 265.712 106C265.948 105.841 266.227 105.76 266.511 105.768C266.758 105.781 266.997 105.864 267.199 106.007C267.401 106.15 267.559 106.348 267.653 106.577C267.83 106.955 267.968 107.353 268.117 107.745C269.252 110.692 270.974 113.378 273.179 115.639C275.81 118.366 278.953 120.548 282.427 122.06C290.135 125.466 298.103 125.968 306.227 123.955C310.944 122.817 315.31 120.54 318.942 117.321C323.49 113.286 326.09 108.355 326.404 102.156C326.775 94.86 325.298 87.9824 322.484 81.3202C318.966 72.9926 313.104 66.8468 305.16 62.6134C297.851 58.7176 289.975 57.0674 281.782 56.7006C276.324 56.5078 270.862 56.947 265.506 58.0093C249.532 61.0116 235.703 68.2483 223.963 79.4341C213.052 89.8309 205.536 102.382 200.847 116.665C197.769 126.039 196.929 135.668 197.617 145.461C197.636 146.344 197.817 147.215 198.15 148.033C198.919 148.033 199.677 148.048 200.434 148.033C205.191 147.911 209.947 148.325 214.611 149.267C234.327 153.258 251.294 167.131 258.284 188.363C259.958 193.447 260.166 198.9 258.882 204.097C257.153 211.393 253.362 217.531 248.045 222.702C238.538 231.947 226.97 236.753 213.877 237.956C208.992 238.42 204.066 238.164 199.256 237.196C193.36 235.996 187.855 233.874 182.915 230.4C177.816 226.815 173.929 222.227 171.596 216.405C170.064 212.584 169.277 208.628 169.774 204.5C170.509 198.21 172.932 192.237 176.786 187.212C179.685 183.322 183.492 180.201 187.875 178.122C191.857 176.179 196.267 175.279 200.691 175.507C206.963 175.86 212.949 178.249 217.74 182.311C224.244 187.677 228.145 194.642 230.182 202.736C230.272 203.074 230.324 203.42 230.34 203.77C230.37 204.123 230.264 204.474 230.043 204.752C229.823 205.029 229.505 205.212 229.154 205.263C228.781 205.376 228.38 205.354 228.022 205.199C227.664 205.044 227.373 204.766 227.2 204.417C226.979 204.062 226.821 203.67 226.63 203.296C225.392 200.778 223.752 198.48 221.773 196.49C212.596 187.491 201.674 184.437 189.208 187.363C183.26 188.703 178.042 192.249 174.605 197.285C174.256 197.721 173.968 198.203 173.75 198.718C172.518 202.333 171.866 206.02 172.518 209.856C173.449 215.493 176.15 220.687 180.231 224.685C184.323 228.78 189.237 231.509 194.709 233.273C201.617 235.499 208.677 235.921 215.856 235.061C223.592 234.155 231.036 231.566 237.665 227.475C242.718 224.438 247.119 220.428 250.614 215.68C254.064 211.055 256.228 205.601 256.887 199.869C257.376 195.466 256.545 191.261 255.024 187.124C247.788 167.44 230.208 152.524 206.234 150.784C197.974 150.211 189.682 151.281 181.837 153.93C167.683 158.613 156.038 166.925 146.855 178.604C135.722 192.76 130.197 208.848 130.859 226.944C130.874 227.364 130.877 227.784 130.883 228.203C130.879 228.519 130.799 228.83 130.648 229.108C130.497 229.385 130.281 229.622 130.018 229.798C129.442 230.198 128.759 230.419 128.057 230.433C126.458 230.595 124.85 230.723 123.27 230.998C115.593 232.277 108.222 234.975 101.535 238.956C89.8789 245.968 81.3555 255.686 76.4318 268.425C73.2393 276.538 72.1202 285.319 73.176 293.974C73.4783 296.465 73.9903 298.936 74.4808 301.399C74.8271 303.14 73.9165 304.656 71.8106 304.135C69.6267 303.635 67.3897 303.406 65.1499 303.451C61.9113 303.407 58.7397 304.375 56.0774 306.219C53.1128 308.333 50.3752 310.747 47.9086 313.425C45.5218 315.983 43 318.41 40.3539 320.699C31.9517 327.84 22.7243 333.516 12.0769 336.684C11.6241 336.819 11.1824 336.992 10.7355 337.147C14.039 337.681 17.3683 338.042 20.7097 338.226C26.1209 338.55 31.4695 337.912 36.7644 336.873C46.9833 334.86 57.0873 332.302 67.033 329.21C89.8849 322.138 112.144 313.276 133.604 302.706C145.833 296.678 157.922 290.366 170.079 284.192C179.556 279.38 189.015 274.533 198.817 270.401C217.944 262.34 237.672 256.635 258.509 255.384C261.085 255.229 263.679 255.353 266.264 255.375C267.102 255.383 267.941 255.458 268.776 255.543C269.655 255.632 270.53 255.769 271.566 255.905C271.376 255.044 271.245 254.371 271.077 253.707C269.909 249.019 269.329 244.203 269.351 239.371C269.362 233.838 270.101 228.331 271.549 222.992C274.822 210.929 280.932 200.442 289.345 191.277C299.622 180.081 312.04 172.088 326.316 166.962C334.012 164.16 342.059 162.439 350.228 161.847C350.717 161.813 351.199 161.72 351.686 161.675C351.964 161.653 352.234 161.57 352.477 161.432C352.72 161.294 352.93 161.105 353.093 160.878C354.836 158.772 356.169 156.358 357.023 153.761C358.072 150.34 358.438 146.745 358.097 143.183C357.411 135.745 354.514 128.682 349.78 122.904C347.136 119.532 343.805 116.761 340.007 114.775C335.994 112.733 331.783 111.693 327.174 112.583ZM15.3836 341.718L15.3137 341.951C16.1373 342.244 16.9541 342.562 17.7855 342.833C26.1629 345.557 34.8045 346.701 43.5673 347.043C48.4689 347.234 53.3442 346.791 58.2224 346.32C64.7683 345.684 71.2469 344.618 77.7205 343.498C82.4014 342.689 87.0832 341.878 91.7782 341.154C95.99 340.506 100.214 339.917 104.445 339.413C108.469 338.934 112.505 338.559 116.544 338.214C119.328 337.977 122.125 337.849 124.919 337.708C129.598 337.473 134.277 337.136 138.959 337.084C144.202 337.026 149.447 337.251 154.693 337.328C159.516 337.436 164.328 337.86 169.096 338.598C177.125 339.74 185.037 341.593 192.739 344.134C202.46 347.296 211.712 351.748 220.247 357.373C224.445 360.182 228.265 363.462 232.081 366.752C236.055 370.177 239.983 373.657 244.026 376.998C250.062 382.016 256.867 386.028 264.179 388.882C272.845 392.253 281.765 394.429 291.103 394.629C298.066 394.778 304.921 394.158 311.591 391.972C318.284 389.779 324.117 386.15 329.422 381.599C330.003 381.1 330.505 380.51 331.039 379.958C331.063 379.932 331.081 379.902 331.093 379.869C331.105 379.836 331.11 379.8 331.108 379.765C331.101 379.717 331.022 379.679 330.908 379.574C330.503 379.751 330.067 379.949 329.626 380.135C326.686 381.437 323.652 382.515 320.55 383.359C315.417 384.736 310.163 385.608 304.861 385.962C301.928 386.124 298.986 386.018 296.072 385.646C290.116 384.816 284.264 383.36 278.614 381.302C266.255 376.934 255.123 370.562 245.508 361.592C241.826 358.157 238.063 354.806 234.292 351.468C223.312 341.749 210.81 334.905 196.505 331.425C190.269 329.847 183.903 328.834 177.485 328.396C171.827 328.065 166.153 328.121 160.503 328.564C153.33 329.169 146.196 330.17 139.133 331.563C134.672 332.412 130.223 333.325 125.763 334.183C117.943 335.687 110.12 337.18 102.295 338.661C98.3822 339.402 94.4786 340.22 90.5447 340.811C83.7057 341.837 76.8578 342.807 69.9738 343.529C63.0898 344.251 56.1829 344.707 49.2642 344.946C43.0414 345.144 36.8122 344.927 30.618 344.299C25.9561 343.856 21.3295 343.098 16.77 342.03C16.3073 341.923 15.8447 341.821 15.3836 341.718ZM194.587 138.485C194.484 138.431 194.423 138.374 194.361 138.372C194.086 138.358 193.811 138.359 193.537 138.375C187.402 138.888 181.372 140.273 175.628 142.489C150.861 151.886 131.516 175.066 127.999 201.706C127.46 205.658 127.308 209.652 127.544 213.633C127.629 214.984 127.832 216.329 127.981 217.677C130.087 199.841 137.223 184.382 149.569 171.415C162.003 158.356 177.196 150.546 195.072 148.282C195.181 148.052 195.296 147.927 195.29 147.807C195.132 144.879 194.963 141.951 194.785 139.024C194.746 138.836 194.679 138.654 194.587 138.485ZM340.44 383.635C340.464 383.765 340.51 383.89 340.575 384.006C340.887 384.382 341.21 384.749 341.545 385.108C344.346 388.141 347.466 390.864 350.851 393.229C362.777 401.547 376.128 405.546 390.546 406.214C397.54 406.53 404.542 405.835 411.338 404.15C419.854 402.059 427.721 398.567 434.706 393.208C439.291 389.739 443.19 385.445 446.201 380.547C446.42 380.188 446.895 379.843 446.549 379.208L445.242 380.335C442.121 383.038 438.748 385.434 435.169 387.491C423.256 394.31 410.309 397.339 396.711 397.913C393.007 398.052 389.299 397.967 385.606 397.657C370.075 396.497 355.009 391.829 341.543 384.002C341.208 383.805 340.91 383.45 340.44 383.635ZM333.371 109.639C333.515 109.502 333.641 109.347 333.747 109.179C336.761 102.961 337.875 96.4599 336.576 89.6242C335.338 83.112 332.195 77.5895 327.643 72.8427C322.264 67.2308 315.743 63.418 308.464 60.8255C308.136 60.7275 307.802 60.6475 307.465 60.5856C307.919 61.0474 308.437 61.4422 309.002 61.758C316.802 66.4609 322.727 73.7256 325.765 82.3113C328.36 89.1245 329.764 96.1233 328.95 103.446C328.773 105.04 328.439 106.616 328.21 108.204C328.174 108.681 328.171 109.16 328.2 109.637L333.371 109.639ZM403.123 259.262C394.79 255.489 389.348 249.276 385.374 241.648C381.427 234.072 379.609 226.037 380.566 217.427C380.296 217.667 380.071 217.952 379.899 218.269C378.423 220.891 377.296 223.696 376.546 226.61C374.432 234.725 375.416 242.426 379.844 249.591C381.239 251.945 383.088 253.998 385.285 255.63C387.482 257.262 389.981 258.441 392.638 259.097C395.705 259.821 398.874 260.003 402.004 259.634C402.387 259.543 402.761 259.418 403.123 259.262ZM319.117 121.188L318.818 120.919C318.53 121.104 318.236 121.281 317.954 121.477C316.182 122.726 314.287 123.79 312.298 124.652C304.347 128.115 295.454 128.764 287.085 126.493C279.614 124.554 273.352 120.714 268.717 114.427C268.616 114.29 268.424 114.221 268.131 114.025C268.27 114.864 268.375 115.545 268.496 116.223C268.899 118.825 269.851 121.312 271.289 123.517C272.727 125.723 274.617 127.598 276.835 129.017C283.277 133.252 290.341 135.097 297.988 133.682C305.905 132.26 313.106 128.194 318.412 122.147C318.663 121.84 318.898 121.519 319.117 121.188V121.188ZM224.172 194.735C220.529 187.652 215.278 182.395 207.736 179.632C203.769 178.186 199.491 177.809 195.332 178.54C188.936 179.61 183.768 182.929 179.641 187.894C179.477 188.089 179.061 188.333 179.519 188.751C186.663 184.142 194.521 182.816 202.82 184.006C211.105 185.193 218.189 188.883 224.172 194.735Z" fill="#181B5E"/>
    <path d="M527.467 313.532C527.325 313.844 527.224 314.174 527.166 314.512C527.006 318.464 526.028 322.254 524.846 325.992C517.341 349.702 497.276 368.119 473.019 373.656C466.873 375.043 460.57 375.601 454.275 375.317C453.515 375.286 452.752 375.313 451.95 375.313C451.693 375.785 451.431 376.193 451.237 376.632C447.551 384.994 441.72 391.561 434.312 396.787C427 401.88 418.721 405.418 409.987 407.185C403.152 408.716 396.136 409.283 389.144 408.868C375.587 407.933 362.887 404.263 351.403 396.825C345.067 392.795 339.563 387.587 335.191 381.483C334.952 381.145 334.68 380.83 334.447 380.535C333.782 380.494 333.558 380.997 333.241 381.326C325.705 389.246 315.808 394.515 305.03 396.345C298.826 397.471 292.493 397.708 286.223 397.048C272.22 395.533 259.246 391.057 247.598 383.028C242.52 379.528 237.902 375.45 233.273 371.388C229.857 368.389 226.451 365.362 222.861 362.58C215.008 356.495 206.269 351.977 196.988 348.477C187.826 345.019 178.31 342.586 168.612 341.223C163.632 340.491 158.611 340.067 153.578 339.953C151.2 339.912 148.825 339.785 146.446 339.709C140.425 339.513 134.417 339.926 128.407 340.141C123.936 340.302 119.469 340.574 115.007 340.958C110.553 341.344 106.108 341.869 101.675 342.455C96.6886 343.113 91.7137 343.868 86.7446 344.653C82.4658 345.329 78.2007 346.091 73.9341 346.841C68.8385 347.736 63.719 348.425 58.5722 348.97C52.9446 349.641 47.2729 349.867 41.6099 349.646C29.8521 349.033 18.4548 346.788 7.71261 341.785C6.00285 340.988 4.34878 340.075 2.67809 339.196C2.31745 338.982 1.96788 338.75 1.63074 338.502C0.514025 337.761 1.06066 336.763 1.87939 336.394C2.13763 336.289 2.40791 336.217 2.68396 336.18C12.3636 334.52 21.5849 330.84 29.747 325.378C35.1153 321.821 40.0832 317.693 44.5643 313.068C46.7567 310.814 49.0517 308.656 51.3501 306.508C52.249 305.731 53.1875 305 54.1619 304.319C58.4539 301.075 63.3341 300.438 68.5059 301.092C69.3964 301.204 70.2899 301.29 71.0861 301.378C71.6968 300.76 71.4232 300.197 71.3133 299.682C68.5544 286.259 70.6622 272.292 77.2594 260.281C85.8604 244.821 98.9323 234.963 115.79 229.963C119.221 228.992 122.722 228.288 126.262 227.859C126.533 227.823 126.799 227.761 127.215 227.684C127.128 227.176 127.087 226.717 126.971 226.279C125.489 220.804 124.754 215.153 124.787 209.481C124.82 200.356 126.722 191.335 130.377 182.974C139.307 162.48 154.189 148.054 175.035 139.891C180.507 137.735 186.257 136.363 192.114 135.816C192.944 135.739 193.765 135.578 194.613 135.453C194.713 135.167 194.787 134.873 194.833 134.573C195.309 126.107 197.203 117.78 200.436 109.941C205.293 97.8355 212.202 87.0674 221.609 77.9983C233.855 66.1912 248.303 58.5261 265.071 55.3723C270.982 54.2288 277.008 53.7975 283.022 54.0876C286.93 54.2937 290.85 54.4422 294.73 54.9068C305.836 56.237 316.08 59.8607 324.975 66.8312C330.649 71.2765 335.021 76.7478 337.61 83.5258C340.753 91.7522 340.477 99.9478 337.184 108.077C336.9 108.777 336.614 109.476 336.326 110.181C336.5 110.345 336.695 110.485 336.904 110.6C345.502 113.534 351.502 119.441 355.875 127.196C358.505 131.836 360.15 136.969 360.708 142.274C361.001 144.779 360.969 147.312 360.614 149.809C360.524 150.398 360.509 150.999 360.43 151.952C361.114 151.364 361.534 151.024 361.927 150.657C372.849 140.406 385.78 134.251 400.478 131.609C407.444 130.38 414.536 130.03 421.588 130.566C432.986 131.392 444.131 134.333 454.452 139.239C473.767 148.345 488.82 162.089 499.207 180.799C504.38 190.041 507.749 200.182 509.135 210.682C511.223 226.566 508.663 241.607 500.971 255.718C500.738 256.145 500.521 256.581 500.306 256.993C500.701 257.791 501.478 258.043 502.101 258.459C510.551 264.052 517.356 271.799 521.814 280.899C524.305 285.996 526.044 291.427 526.975 297.023C527.093 297.707 527.055 298.42 527.143 299.112C527.226 299.585 527.334 300.053 527.467 300.514V313.532ZM26.4702 341.02C33.1096 342.059 39.8297 342.493 46.5476 342.317C54.3126 342.249 62.0679 341.755 69.7789 340.84C75.81 340.069 81.8723 339.489 87.8697 338.512C96.352 337.129 104.795 335.5 113.242 333.901C123.541 331.951 133.818 329.887 144.119 327.945C150.098 326.816 156.145 326.079 162.22 325.74C172.984 325.065 183.789 325.876 194.332 328.15C208.378 331.266 221.041 337.201 232.205 346.263C235.625 349.039 238.855 352.048 242.171 354.952C245.907 358.225 249.531 361.636 253.398 364.744C263.261 372.673 274.625 377.635 286.713 381.036C290.94 382.295 295.303 383.042 299.708 383.259C303.343 383.431 306.987 383.254 310.589 382.731C315.497 381.955 320.352 380.937 325 379.123C327.149 378.285 329.27 377.377 331.379 376.443C332.064 376.095 332.837 375.958 333.601 376.047C334.364 376.137 335.084 376.45 335.67 376.947C341.039 380.873 346.834 384.181 352.944 386.809C364.574 391.884 377.047 394.75 389.725 395.26C393.151 395.388 396.582 395.314 399.999 395.039C405.999 394.632 411.94 393.595 417.723 391.947C426.623 389.389 434.825 385.434 442.046 379.566C444.342 377.728 446.467 375.686 448.393 373.464C448.725 373.015 449.179 372.67 449.701 372.471C450.223 372.272 450.792 372.227 451.339 372.341C452.096 372.475 452.861 372.564 453.63 372.606C459.522 372.885 465.398 372.661 471.154 371.317C492.914 366.239 509.013 353.807 518.908 333.738C524.765 321.858 526.599 309.218 524.061 296.148C520.944 280.1 512.303 267.8 498.323 259.283C498.084 259.137 497.82 259.028 497.598 258.861C497.335 258.683 497.142 258.418 497.053 258.112C496.964 257.807 496.984 257.48 497.11 257.188C497.29 256.737 497.572 256.328 497.794 255.894C499.006 253.53 500.342 251.221 501.401 248.791C507.319 235.224 508.504 221.138 505.778 206.669C503.696 195.706 499.427 185.275 493.228 175.997C482.558 159.846 468.227 148.042 450.486 140.368C441.03 136.279 430.943 133.845 420.663 133.172C413.115 132.635 405.529 133.17 398.132 134.763C385.792 137.45 374.76 142.761 365.296 151.187C362.239 153.863 359.483 156.863 357.075 160.134C356.833 160.531 356.622 160.946 356.446 161.376C359.398 161.561 362.197 161.638 364.972 161.937C367.956 162.258 370.92 162.78 373.889 163.234C374.233 163.3 374.563 163.423 374.866 163.6C375.118 163.728 375.317 163.941 375.428 164.2C375.539 164.46 375.556 164.751 375.475 165.022C375.412 165.262 375.27 165.475 375.071 165.624C374.873 165.774 374.629 165.852 374.381 165.845C373.684 165.827 372.989 165.752 372.305 165.62C367.699 164.752 363.028 164.275 358.342 164.194C352.954 164.095 347.568 164.527 342.265 165.483C328.283 167.896 315.06 173.548 303.655 181.988C294.655 188.632 287.143 196.656 281.477 206.335C275.944 215.786 272.601 225.919 272.146 236.924C271.573 250.836 275.517 263.313 284.184 274.224C290.583 282.282 298.711 288.102 308.13 292.149C316.436 295.726 325.338 297.718 334.376 298.022C338.92 298.248 343.474 298.109 347.996 297.607C350.676 297.273 350.968 297.394 352.569 299.619C354.881 302.786 357.521 305.7 360.445 308.314C365.103 312.576 370.525 315.918 376.424 318.166C382.824 320.6 389.506 321.699 396.281 322.247C400.324 322.615 404.389 322.666 408.439 322.398C413.324 322.077 418.16 321.232 422.865 319.877C434.127 316.523 443.991 310.69 452.671 302.844C460.058 296.166 466.153 288.482 470.475 279.442C474.704 270.594 476.564 261.297 475.702 251.529C475.017 243.904 472.65 236.526 468.771 229.926C465.045 223.495 460.173 218.036 454.548 213.23C447.721 207.276 439.66 202.908 430.945 200.439C426.366 199.138 421.643 198.412 416.885 198.278C413.174 198.203 409.469 198.589 405.854 199.429C399.887 200.737 394.294 203.378 389.493 207.154C386.48 209.496 384.4 212.834 383.626 216.57C382.959 219.657 382.829 222.836 383.242 225.966C384.227 234.077 387.524 241.732 392.741 248.019C394.972 250.819 397.685 253.196 400.753 255.04C403.253 256.505 405.896 257.563 408.845 257.67C409.124 257.676 409.403 257.711 409.675 257.775C410.023 257.837 410.338 258.02 410.563 258.294C410.787 258.567 410.907 258.911 410.899 259.265C410.913 259.585 410.809 259.899 410.609 260.148C410.408 260.398 410.123 260.566 409.808 260.622C408.875 260.912 407.92 261.134 406.971 261.371C402.371 262.522 397.734 262.93 393.053 261.926C388.053 260.854 383.728 258.546 380.352 254.656C374.369 247.763 372.002 239.679 373.066 230.699C374.228 220.888 378.907 212.849 386.305 206.384C395.414 198.421 406.224 195.329 418.115 195.652C423.153 195.86 428.141 196.734 432.949 198.251C442.23 201.032 450.334 205.872 457.524 212.292C463.468 217.597 468.568 223.597 472.254 230.714C478.05 241.907 479.897 253.711 477.651 266.131C476.335 273.236 473.703 280.034 469.891 286.173C460.439 301.634 447.311 312.877 430.631 319.964C424.572 322.54 418.157 324.18 411.605 324.825C407.152 325.304 402.665 325.385 398.197 325.067C393.595 324.751 389.017 324.148 384.489 323.263C370.66 320.417 359.563 313.303 351.199 301.921C350.949 301.583 350.683 301.256 350.463 300.9C350.305 300.621 350.061 300.401 349.767 300.274C349.473 300.147 349.145 300.119 348.834 300.196C348.557 300.237 348.278 300.261 347.999 300.28C345.001 300.487 342.004 300.835 339.004 300.862C334.457 300.884 329.915 300.536 325.424 299.822C316.827 298.553 308.524 295.763 300.905 291.582C290.042 285.567 281.492 277.229 275.763 266.138C274.775 264.209 273.897 262.225 273.134 260.196C273.017 259.796 272.785 259.44 272.466 259.172C272.148 258.903 271.757 258.735 271.344 258.688C269.971 258.431 268.587 258.245 267.195 258.131C261.185 257.818 255.159 258.082 249.199 258.919C242.689 259.802 236.233 261.044 229.86 262.639C215.828 266.23 202.208 271.273 189.22 277.685C177.978 283.184 166.847 288.909 155.709 294.625C141.711 301.812 127.641 308.847 113.156 315.015C93.3853 323.433 73.2365 330.766 52.3857 336.053C43.8506 338.216 35.2842 340.257 26.4702 341.02ZM327.174 112.583C327.049 112.728 326.936 112.883 326.836 113.046C326.687 113.362 326.552 113.685 326.422 114.009C323.311 121.787 317.987 127.633 310.752 131.742C303.955 135.601 296.732 137.649 288.831 136.448C282.975 135.634 277.468 133.183 272.945 129.377C270.191 127.07 268.115 124.061 266.936 120.669C265.48 116.53 265.08 112.218 264.955 107.87C264.945 107.451 265.029 107.036 265.199 106.653C265.297 106.387 265.477 106.158 265.712 106C265.948 105.841 266.227 105.76 266.511 105.768C266.758 105.781 266.997 105.864 267.199 106.007C267.401 106.15 267.559 106.348 267.653 106.577C267.83 106.955 267.968 107.353 268.117 107.745C269.252 110.692 270.974 113.378 273.179 115.639C275.81 118.366 278.953 120.548 282.427 122.06C290.135 125.466 298.103 125.968 306.227 123.955C310.944 122.817 315.31 120.54 318.942 117.321C323.49 113.286 326.09 108.355 326.404 102.156C326.775 94.86 325.298 87.9824 322.484 81.3202C318.966 72.9926 313.104 66.8468 305.16 62.6134C297.851 58.7176 289.975 57.0674 281.782 56.7006C276.324 56.5078 270.862 56.947 265.506 58.0093C249.532 61.0116 235.703 68.2483 223.963 79.4341C213.052 89.8309 205.536 102.382 200.847 116.665C197.769 126.039 196.929 135.668 197.617 145.461C197.636 146.344 197.817 147.215 198.15 148.033C198.919 148.033 199.677 148.048 200.434 148.033C205.191 147.911 209.947 148.325 214.611 149.267C234.327 153.258 251.294 167.131 258.284 188.363C259.958 193.447 260.166 198.9 258.882 204.097C257.153 211.393 253.362 217.531 248.045 222.702C238.538 231.947 226.97 236.753 213.877 237.956C208.992 238.42 204.066 238.164 199.256 237.196C193.36 235.996 187.855 233.874 182.915 230.4C177.816 226.815 173.929 222.227 171.596 216.405C170.064 212.584 169.277 208.628 169.774 204.5C170.509 198.21 172.932 192.237 176.786 187.212C179.685 183.322 183.492 180.201 187.875 178.122C191.857 176.179 196.267 175.279 200.691 175.507C206.963 175.86 212.949 178.249 217.74 182.311C224.244 187.677 228.145 194.642 230.182 202.736C230.272 203.074 230.324 203.42 230.34 203.77C230.37 204.123 230.264 204.474 230.043 204.752C229.823 205.029 229.505 205.212 229.154 205.263C228.781 205.376 228.38 205.354 228.022 205.199C227.664 205.044 227.373 204.766 227.2 204.417C226.979 204.062 226.821 203.67 226.63 203.296C225.392 200.778 223.752 198.48 221.773 196.49C212.596 187.491 201.674 184.437 189.208 187.363C183.26 188.703 178.042 192.249 174.605 197.285C174.256 197.721 173.968 198.203 173.75 198.718C172.518 202.333 171.866 206.02 172.518 209.856C173.449 215.493 176.15 220.687 180.231 224.685C184.323 228.78 189.237 231.509 194.709 233.273C201.617 235.499 208.677 235.921 215.856 235.061C223.592 234.155 231.036 231.566 237.665 227.475C242.718 224.438 247.119 220.428 250.614 215.68C254.064 211.055 256.228 205.601 256.887 199.869C257.376 195.466 256.545 191.261 255.024 187.124C247.788 167.44 230.208 152.524 206.234 150.784C197.974 150.211 189.682 151.281 181.837 153.93C167.683 158.613 156.038 166.925 146.855 178.604C135.722 192.76 130.197 208.848 130.859 226.944C130.874 227.364 130.877 227.784 130.883 228.203C130.879 228.519 130.799 228.83 130.648 229.108C130.497 229.385 130.281 229.622 130.018 229.798C129.442 230.198 128.759 230.419 128.057 230.433C126.458 230.595 124.85 230.723 123.27 230.998C115.593 232.277 108.222 234.975 101.535 238.956C89.8789 245.968 81.3555 255.686 76.4318 268.425C73.2393 276.538 72.1202 285.319 73.176 293.974C73.4783 296.465 73.9903 298.936 74.4808 301.399C74.8271 303.14 73.9165 304.656 71.8106 304.135C69.6267 303.635 67.3897 303.406 65.1499 303.451C61.9113 303.407 58.7397 304.375 56.0774 306.219C53.1128 308.333 50.3752 310.747 47.9086 313.425C45.5218 315.983 43 318.41 40.3539 320.699C31.9517 327.84 22.7243 333.516 12.0769 336.684C11.6241 336.819 11.1824 336.992 10.7355 337.147C14.039 337.681 17.3683 338.042 20.7097 338.226C26.1209 338.55 31.4695 337.912 36.7644 336.873C46.9833 334.86 57.0873 332.302 67.033 329.21C89.8849 322.138 112.144 313.276 133.604 302.706C145.833 296.678 157.922 290.366 170.079 284.192C179.556 279.38 189.015 274.533 198.817 270.401C217.944 262.34 237.672 256.635 258.509 255.384C261.085 255.229 263.679 255.353 266.264 255.375C267.102 255.383 267.941 255.458 268.776 255.543C269.655 255.632 270.53 255.769 271.566 255.905C271.376 255.044 271.245 254.371 271.077 253.707C269.909 249.019 269.329 244.203 269.351 239.371C269.362 233.838 270.101 228.331 271.549 222.992C274.822 210.929 280.932 200.442 289.345 191.277C299.622 180.081 312.04 172.088 326.316 166.962C334.012 164.16 342.059 162.439 350.228 161.847C350.717 161.813 351.199 161.72 351.686 161.675C351.964 161.653 352.234 161.57 352.477 161.432C352.72 161.294 352.93 161.105 353.093 160.878C354.836 158.772 356.169 156.358 357.023 153.761C358.072 150.34 358.438 146.745 358.097 143.183C357.411 135.745 354.514 128.682 349.78 122.904C347.136 119.532 343.805 116.761 340.007 114.775C335.994 112.733 331.783 111.693 327.174 112.583ZM15.3836 341.718L15.3137 341.951C16.1373 342.244 16.9541 342.562 17.7855 342.833C26.1629 345.557 34.8045 346.701 43.5673 347.043C48.4689 347.234 53.3442 346.791 58.2224 346.32C64.7683 345.684 71.2469 344.618 77.7205 343.498C82.4014 342.689 87.0832 341.878 91.7782 341.154C95.99 340.506 100.214 339.917 104.445 339.413C108.469 338.934 112.505 338.559 116.544 338.214C119.328 337.977 122.125 337.849 124.919 337.708C129.598 337.473 134.277 337.136 138.959 337.084C144.202 337.026 149.447 337.251 154.693 337.328C159.516 337.436 164.328 337.86 169.096 338.598C177.125 339.74 185.037 341.593 192.739 344.134C202.46 347.296 211.712 351.748 220.247 357.373C224.445 360.182 228.265 363.462 232.081 366.752C236.055 370.177 239.983 373.657 244.026 376.998C250.062 382.016 256.867 386.028 264.179 388.882C272.845 392.253 281.765 394.429 291.103 394.629C298.066 394.778 304.921 394.158 311.591 391.972C318.284 389.779 324.117 386.15 329.422 381.599C330.003 381.1 330.505 380.51 331.039 379.958C331.063 379.932 331.081 379.902 331.093 379.869C331.105 379.836 331.11 379.8 331.108 379.765C331.101 379.717 331.022 379.679 330.908 379.574C330.503 379.751 330.067 379.949 329.626 380.135C326.686 381.437 323.652 382.515 320.55 383.359C315.417 384.736 310.163 385.608 304.861 385.962C301.928 386.124 298.986 386.018 296.072 385.646C290.116 384.816 284.264 383.36 278.614 381.302C266.255 376.934 255.123 370.562 245.508 361.592C241.826 358.157 238.063 354.806 234.292 351.468C223.312 341.749 210.81 334.905 196.505 331.425C190.269 329.847 183.903 328.834 177.485 328.396C171.827 328.065 166.153 328.121 160.503 328.564C153.33 329.169 146.196 330.17 139.133 331.563C134.672 332.412 130.223 333.325 125.763 334.183C117.943 335.687 110.12 337.18 102.295 338.661C98.3822 339.402 94.4786 340.22 90.5447 340.811C83.7057 341.837 76.8578 342.807 69.9738 343.529C63.0898 344.251 56.1829 344.707 49.2642 344.946C43.0414 345.144 36.8122 344.927 30.618 344.299C25.9561 343.856 21.3295 343.098 16.77 342.03C16.3073 341.923 15.8447 341.821 15.3836 341.718ZM194.587 138.485C194.484 138.431 194.423 138.374 194.361 138.372C194.086 138.358 193.811 138.359 193.537 138.375C187.402 138.888 181.372 140.273 175.628 142.489C150.861 151.886 131.516 175.066 127.999 201.706C127.46 205.658 127.308 209.652 127.544 213.633C127.629 214.984 127.832 216.329 127.981 217.677C130.087 199.841 137.223 184.382 149.569 171.415C162.003 158.356 177.196 150.546 195.072 148.282C195.181 148.052 195.296 147.927 195.29 147.807C195.132 144.879 194.963 141.951 194.785 139.024C194.746 138.836 194.679 138.654 194.587 138.485ZM340.44 383.635C340.464 383.765 340.51 383.89 340.575 384.006C340.887 384.382 341.21 384.749 341.545 385.108C344.346 388.141 347.466 390.864 350.851 393.229C362.777 401.547 376.128 405.546 390.546 406.214C397.54 406.53 404.542 405.835 411.338 404.15C419.854 402.059 427.721 398.567 434.706 393.208C439.291 389.739 443.19 385.445 446.201 380.547C446.42 380.188 446.895 379.843 446.549 379.208L445.242 380.335C442.121 383.038 438.748 385.434 435.169 387.491C423.256 394.31 410.309 397.339 396.711 397.913C393.007 398.052 389.299 397.967 385.606 397.657C370.075 396.497 355.009 391.829 341.543 384.002C341.208 383.805 340.91 383.45 340.44 383.635ZM333.371 109.639C333.515 109.502 333.641 109.347 333.747 109.179C336.761 102.961 337.875 96.4599 336.576 89.6242C335.338 83.112 332.195 77.5895 327.643 72.8427C322.264 67.2308 315.743 63.418 308.464 60.8255C308.136 60.7275 307.802 60.6475 307.465 60.5856C307.919 61.0474 308.437 61.4422 309.002 61.758C316.802 66.4609 322.727 73.7256 325.765 82.3113C328.36 89.1245 329.764 96.1233 328.95 103.446C328.773 105.04 328.439 106.616 328.21 108.204C328.174 108.681 328.171 109.16 328.2 109.637L333.371 109.639ZM403.123 259.262C394.79 255.489 389.348 249.276 385.374 241.648C381.427 234.072 379.609 226.037 380.566 217.427C380.296 217.667 380.071 217.952 379.899 218.269C378.423 220.891 377.296 223.696 376.546 226.61C374.432 234.725 375.416 242.426 379.844 249.591C381.239 251.945 383.088 253.998 385.285 255.63C387.482 257.262 389.981 258.441 392.638 259.097C395.705 259.821 398.874 260.003 402.004 259.634C402.387 259.543 402.761 259.418 403.123 259.262ZM319.117 121.188L318.818 120.919C318.53 121.104 318.236 121.281 317.954 121.477C316.182 122.726 314.287 123.79 312.298 124.652C304.347 128.115 295.454 128.764 287.085 126.493C279.614 124.554 273.352 120.714 268.717 114.427C268.616 114.29 268.424 114.221 268.131 114.025C268.27 114.864 268.375 115.545 268.496 116.223C268.899 118.825 269.851 121.312 271.289 123.517C272.727 125.723 274.617 127.598 276.835 129.017C283.277 133.252 290.341 135.097 297.988 133.682C305.905 132.26 313.106 128.194 318.412 122.147C318.663 121.84 318.898 121.519 319.117 121.188V121.188ZM224.172 194.735C220.529 187.652 215.278 182.395 207.736 179.632C203.769 178.186 199.491 177.809 195.332 178.54C188.936 179.61 183.768 182.929 179.641 187.894C179.477 188.089 179.061 188.333 179.519 188.751C186.663 184.142 194.521 182.816 202.82 184.006C211.105 185.193 218.189 188.883 224.172 194.735Z" stroke="#181B5E" stroke-width="2" mask="url(#path-3-outside-1)"/>
    <path d="M416.267 258.486L416.273 258.447L416.272 258.409C416.264 257.901 416.062 257.415 415.707 257.051C415.352 256.687 414.872 256.472 414.364 256.452L414.343 256.951L414.301 256.453C413.833 256.493 413.396 256.705 413.075 257.049C412.755 257.392 412.573 257.843 412.566 258.313L412.566 258.327L412.566 258.34C412.585 258.808 412.774 259.253 413.098 259.59C413.422 259.928 413.859 260.136 414.325 260.174L414.352 260.176L414.38 260.175C414.843 260.163 415.288 259.986 415.633 259.676C415.979 259.367 416.204 258.945 416.267 258.486Z" fill="#181B5E" stroke="#181B5E"/>
    <path d="M377.557 165.756L377.557 165.795L377.563 165.834C377.639 166.295 377.879 166.713 378.239 167.011C378.599 167.308 379.055 167.466 379.522 167.454L379.509 166.954L379.552 167.452C379.99 167.414 380.397 167.211 380.69 166.884C380.984 166.558 381.143 166.132 381.134 165.692L381.133 165.67L381.131 165.648C381.08 165.174 380.845 164.738 380.477 164.435C380.11 164.131 379.639 163.983 379.165 164.022C378.727 164.052 378.318 164.248 378.019 164.569C377.719 164.891 377.554 165.316 377.557 165.756Z" fill="#181B5E" stroke="#181B5E"/>
    <path d="M267.753 102.026C267.749 101.548 267.561 101.089 267.227 100.746C266.89 100.401 266.431 100.2 265.949 100.188L265.942 100.188L265.934 100.188C265.414 100.19 264.917 100.398 264.55 100.767C264.184 101.136 263.979 101.635 263.98 102.155L263.981 102.17L263.982 102.185C263.997 102.429 264.063 102.666 264.174 102.883C264.285 103.1 264.44 103.292 264.629 103.446C264.817 103.601 265.036 103.715 265.27 103.781C265.489 103.843 265.717 103.863 265.943 103.839C266.171 103.847 266.399 103.81 266.614 103.731C266.844 103.645 267.054 103.513 267.229 103.341C267.404 103.169 267.542 102.962 267.632 102.734C267.721 102.509 267.762 102.268 267.753 102.026Z" fill="#181B5E" stroke="#181B5E"/>
    <path d="M229.725 207.335L229.743 207.834L229.701 207.336C229.442 207.358 229.189 207.432 228.959 207.556C228.73 207.679 228.528 207.848 228.366 208.053C228.205 208.257 228.087 208.493 228.02 208.745C227.954 208.997 227.939 209.26 227.979 209.517L227.979 209.517L227.981 209.53C228.059 209.965 228.298 210.355 228.65 210.622C228.999 210.886 229.433 211.01 229.868 210.971C230.101 210.961 230.33 210.906 230.543 210.809C230.76 210.71 230.956 210.569 231.119 210.394C231.282 210.22 231.409 210.015 231.493 209.791C231.577 209.567 231.616 209.329 231.607 209.09C231.599 208.851 231.544 208.616 231.445 208.399C231.345 208.181 231.205 207.986 231.03 207.823C230.855 207.66 230.65 207.533 230.426 207.449C230.202 207.365 229.964 207.326 229.725 207.335Z" fill="#181B5E" stroke="#181B5E"/>
    <path d="M404.161 100.989L404.146 101.489C403.711 101.476 403.29 101.329 402.941 101.068C402.593 100.806 402.334 100.443 402.2 100.029L402.193 100.008L402.188 99.9877C402.052 99.4004 401.973 98.8013 401.952 98.1987C401.89 97.3546 401.847 96.5199 401.804 95.6916C401.719 94.0587 401.635 92.4507 401.414 90.844L401.413 90.8402C400.193 81.467 396.945 72.4724 391.894 64.4825L391.894 64.4812C390.465 62.2051 388.766 60.1102 386.834 58.2419L386.828 58.2359L386.822 58.2296C384.931 56.2696 382.52 54.8911 379.872 54.2566C379.422 54.181 378.987 54.038 378.58 53.8322L378.573 53.8285L378.566 53.8245C378.227 53.639 377.948 53.3617 377.76 53.0245C377.574 52.6917 377.485 52.3139 377.502 51.9334C377.502 51.5472 377.616 51.1695 377.831 50.8482C378.046 50.5272 378.351 50.2773 378.708 50.13C379.036 49.9748 379.381 49.8569 379.736 49.7785L379.74 49.7776C383.335 49.0176 386.005 46.8292 388.365 44.0423C389.976 42.1001 391.367 39.9859 392.514 37.7382C395.34 32.1849 397.328 26.2443 398.415 20.1092L398.415 20.1092L398.417 20.1013C399.416 14.9472 399.913 9.70854 399.903 4.45854C399.883 3.94143 399.903 3.42357 399.961 2.90938L399.964 2.88213L399.97 2.85538C400.123 2.17938 400.504 1.57651 401.049 1.14776C401.593 0.719016 402.269 0.490434 402.962 0.500307L402.971 0.500437L402.98 0.5009C403.54 0.529319 404.006 0.793018 404.341 1.23847C404.665 1.66753 404.856 2.24784 404.945 2.92192L404.945 2.9229C404.964 3.07118 404.97 3.21596 404.974 3.33976C404.975 3.35253 404.975 3.36505 404.975 3.37736C404.979 3.49104 404.982 3.58622 404.992 3.68026L404.992 3.68033C405.096 4.76754 405.191 5.85163 405.285 6.93309C405.498 9.3832 405.71 11.8198 406.036 14.2486L406.036 14.2511C406.78 20.0267 408.242 25.6869 410.387 31.1005L410.388 31.1004L410.39 31.107C411.724 34.6139 413.583 37.8976 415.905 40.8451C419.434 45.1683 423.587 48.1734 429.37 48.134L429.381 48.1339L429.392 48.1343C430.135 48.1612 430.857 48.3811 431.489 48.7722L431.499 48.7782L431.508 48.7846C431.786 48.9745 432.008 49.2347 432.152 49.5386C432.296 49.8425 432.357 50.1792 432.328 50.5143C432.299 50.8493 432.182 51.1707 431.988 51.4455C431.794 51.7203 431.531 51.9387 431.225 52.0783L431.218 52.0814L431.211 52.0842C430.614 52.3362 429.968 52.453 429.32 52.4261L429.32 52.4263L429.308 52.4255C427.27 52.2948 425.614 53.1506 424.014 54.4437C422.156 56.0116 420.534 57.8384 419.197 59.8682L419.197 59.8682L419.193 59.8737C417.356 62.5819 415.779 65.4576 414.484 68.4624L414.483 68.4629C410.73 77.1403 408.207 86.299 406.986 95.674L406.985 95.6783C406.927 96.0944 406.874 96.5195 406.82 96.9487C406.721 97.749 406.619 98.5632 406.481 99.3588C406.416 99.9271 406.15 100.454 405.731 100.844C405.308 101.239 404.758 101.467 404.18 101.489L404.161 100.989ZM402.73 19.7482C402.657 20.0812 402.584 20.4136 402.511 20.7452C402.032 22.9182 401.559 25.0636 401.018 27.1866L401.017 27.1874C399.96 31.3039 398.442 35.2879 396.491 39.0636C393.901 44.0907 390.641 48.6044 385.49 51.984C385.6 52.0452 385.703 52.1055 385.801 52.1683L385.801 52.1682L385.81 52.174C389.299 54.5236 392.279 57.5518 394.573 61.078C399.488 68.2469 402.582 76.1806 404.509 84.5867L404.509 84.5868C404.555 84.7874 404.603 84.9867 404.656 85.2021C404.733 84.9319 404.8 84.6849 404.86 84.4337C406.494 77.1419 409.009 70.0756 412.348 63.3903C413.89 60.2358 415.815 57.2839 418.081 54.6014L418.081 54.6013L418.087 54.5938C418.951 53.6112 419.883 52.6746 420.837 51.7148C421.145 51.4057 421.455 51.0941 421.765 50.7779C421.651 50.698 421.534 50.6226 421.414 50.5521C417.556 48.631 414.243 45.7711 411.779 42.2351C408.401 37.4598 405.908 32.1167 404.419 26.4602C403.859 24.488 403.383 22.4875 402.898 20.4493C402.842 20.2161 402.786 19.9824 402.73 19.7482Z" fill="#181B5E" stroke="#181B5E"/>
    <path d="M573.179 295.489L573.163 295.49L573.146 295.489C572.711 295.476 572.291 295.33 571.942 295.069C571.594 294.808 571.335 294.446 571.2 294.032L571.193 294.011L571.188 293.99C571.052 293.403 570.973 292.804 570.952 292.201C570.89 291.357 570.847 290.523 570.804 289.694C570.719 288.061 570.635 286.453 570.414 284.846L570.413 284.842C569.193 275.469 565.945 266.475 560.894 258.485L560.893 258.484C559.465 256.208 557.766 254.113 555.834 252.245L555.828 252.239L555.822 252.232C553.931 250.272 551.52 248.894 548.872 248.259C548.423 248.184 547.987 248.041 547.58 247.835L547.573 247.831L547.566 247.827C547.227 247.642 546.948 247.364 546.76 247.027C546.574 246.694 546.485 246.316 546.502 245.936C546.502 245.55 546.616 245.172 546.831 244.851C547.046 244.53 547.351 244.28 547.708 244.133C548.036 243.977 548.381 243.86 548.736 243.781L548.741 243.78C552.335 243.02 555.004 240.832 557.365 238.045C558.975 236.103 560.367 233.989 561.514 231.741C564.34 226.187 566.328 220.245 567.415 214.109L567.415 214.109L567.416 214.101C568.416 208.947 568.914 203.709 568.904 198.459C568.884 197.941 568.903 197.424 568.961 196.909L568.964 196.882L568.971 196.855C569.124 196.179 569.504 195.577 570.049 195.148C570.593 194.719 571.268 194.491 571.961 194.5L571.97 194.5L571.979 194.501C572.539 194.529 573.005 194.793 573.341 195.238C573.665 195.667 573.857 196.248 573.945 196.922L573.945 196.923C573.964 197.071 573.97 197.216 573.974 197.34C573.975 197.353 573.975 197.365 573.976 197.377C573.979 197.491 573.983 197.586 573.992 197.68L573.992 197.68C574.096 198.768 574.191 199.853 574.285 200.935C574.498 203.384 574.71 205.82 575.036 208.249L575.036 208.251C575.78 214.027 577.242 219.687 579.388 225.1L579.388 225.1L579.39 225.107C580.724 228.614 582.583 231.898 584.905 234.845C588.434 239.168 592.583 242.173 598.37 242.134L598.381 242.134L598.391 242.134C599.134 242.161 599.857 242.381 600.489 242.772L600.499 242.778L600.509 242.785C600.786 242.975 601.008 243.235 601.152 243.539C601.296 243.843 601.356 244.179 601.327 244.514C601.299 244.849 601.181 245.17 600.988 245.445C600.794 245.72 600.531 245.938 600.225 246.078L600.219 246.081L600.212 246.084C599.614 246.336 598.968 246.453 598.32 246.426L598.32 246.426L598.308 246.426C596.27 246.295 594.614 247.15 593.014 248.444C591.156 250.012 589.534 251.838 588.196 253.868L588.196 253.868L588.192 253.874C586.356 256.582 584.779 259.458 583.484 262.462L583.484 262.463C579.731 271.14 577.207 280.299 575.986 289.674L575.985 289.679C575.927 290.097 575.873 290.526 575.819 290.958C575.72 291.755 575.618 292.567 575.48 293.359C575.415 293.927 575.15 294.454 574.731 294.844C574.308 295.239 573.757 295.468 573.179 295.489ZM587.081 248.601L587.081 248.601L587.088 248.594C587.95 247.613 588.88 246.678 589.832 245.72C590.141 245.409 590.453 245.096 590.765 244.778C590.651 244.698 590.534 244.623 590.414 244.552C586.556 242.631 583.243 239.771 580.78 236.235C577.401 231.46 574.908 226.117 573.419 220.46C572.862 218.49 572.386 216.492 571.9 214.456C571.844 214.221 571.788 213.986 571.731 213.75C571.661 214.065 571.592 214.38 571.523 214.695C571.041 216.885 570.566 219.046 570.022 221.185L570.022 221.186C568.965 225.303 567.446 229.287 565.495 233.062C562.905 238.089 559.644 242.603 554.494 245.983C554.604 246.044 554.707 246.104 554.805 246.167L554.805 246.167L554.814 246.173C558.303 248.522 561.283 251.551 563.577 255.077C568.492 262.246 571.586 270.179 573.514 278.585L573.514 278.585C573.56 278.786 573.607 278.985 573.66 279.2C573.737 278.93 573.804 278.684 573.863 278.433C575.497 271.141 578.01 264.075 581.348 257.39C582.89 254.236 584.815 251.284 587.081 248.601Z" fill="#181B5E" stroke="#181B5E"/>
</svg>
