<svg width="368" height="180" viewBox="0 0 368 180" fill="none" xmlns="http://www.w3.org/2000/svg">
<g clip-path="url(#clip0)">
<path d="M60.5299 97.3999C59.5765 97.9385 58.7616 98.6917 58.1499 99.5999C58.0299 97.9699 57.8399 96.3399 57.5799 94.7399C57.6188 94.6551 57.6392 94.5631 57.6399 94.4699C59.4099 92.5299 61.32 90.6399 62.93 88.5699C63.62 87.6799 64.3499 86.1199 63.2199 85.2199C60.8299 83.3099 58.2199 89.9099 57.2199 92.7099C56.8613 91.0389 56.3869 89.395 55.8 87.7899C55.6 87.2299 55.3699 86.6799 55.1299 86.1399C57.0827 85.0882 58.8882 83.7837 60.4999 82.2599C61.2299 81.5699 63.3599 79.8299 62.2599 78.5899C61.3199 77.5099 59.2599 78.0599 58.3899 78.9199C56.7999 80.4999 55.7999 83.0699 54.9499 85.1199C54.9415 85.1662 54.9415 85.2136 54.9499 85.2599L54.8199 85.3399C53.9248 83.3728 52.8573 81.4888 51.6299 79.7099C54.1099 77.5199 58.4599 72.1199 55.0599 69.6199C51.6599 67.1199 50.5699 75.0399 50.3299 77.9499C49.0838 76.3506 47.7056 74.8587 46.2099 73.4899C46.1747 73.4592 46.134 73.4355 46.0899 73.4199C46.1233 73.3819 46.1485 73.3374 46.164 73.2892C46.1794 73.2411 46.1849 73.1903 46.18 73.1399C46.1769 72.3198 45.9965 71.5101 45.6513 70.7661C45.3061 70.0222 44.8042 69.3617 44.18 68.8299C43.02 67.9099 41.1799 67.3099 39.8399 68.3199C38.4999 69.3299 40.3899 71.3199 41.1899 72.2399C41.7331 72.9258 42.437 73.4672 43.2394 73.8161C44.0418 74.1649 44.9179 74.3105 45.7899 74.2399C47.3454 75.6752 48.7679 77.2483 50.0399 78.9399C48.3899 78.6499 38.6799 76.3999 40.2199 80.5199C40.9599 82.5199 44.2199 82.4399 45.7899 82.4599C47.7899 82.4599 49.6599 82.0199 50.8799 80.3299C50.9273 80.3203 50.9719 80.2998 51.0099 80.2699V80.2699C52.1187 81.8799 53.0921 83.579 53.92 85.3499C53.5443 85.2082 53.1503 85.1206 52.7499 85.0899C52.7262 85.0535 52.6954 85.0224 52.6593 84.9983C52.6232 84.9743 52.5826 84.9578 52.5399 84.9499C50.4799 84.4799 47.12 83.5599 45.11 84.5499C44.8488 84.6568 44.6146 84.8203 44.4242 85.0286C44.2337 85.2369 44.0919 85.4847 44.0087 85.7544C43.9255 86.024 43.9031 86.3087 43.9431 86.5881C43.9831 86.8674 44.0845 87.1344 44.24 87.3699C44.7521 88.0046 45.4174 88.4983 46.1732 88.8045C46.9291 89.1107 47.7505 89.2192 48.5599 89.1199C49.7358 88.9292 50.8615 88.5041 51.87 87.8699C52.7811 87.4986 53.6334 86.9967 54.3999 86.3799C54.7199 87.1299 55.0199 87.8999 55.2899 88.6799C55.8183 90.2155 56.2393 91.7859 56.55 93.3799C55.3165 92.165 53.7246 91.3796 52.0099 91.1399C50.8299 90.9799 48.5599 90.8599 48.1599 92.4399C47.1599 96.2099 54.3 95.7799 56.86 95.1299C57.07 96.3999 57.2099 97.6799 57.3199 98.9699C57.1403 98.8291 56.9458 98.7084 56.74 98.6099C55.9233 98.1595 54.9696 98.0243 54.0599 98.2299C53.9071 98.2825 53.7674 98.3672 53.6502 98.4783C53.5329 98.5895 53.4409 98.7245 53.3802 98.8742C53.3196 99.0239 53.2917 99.185 53.2986 99.3464C53.3054 99.5078 53.3468 99.6658 53.42 99.8099C53.88 100.6 56.4999 101.15 56.5599 100.96L57.37 101.11C57.3873 101.191 57.4292 101.264 57.49 101.32C57.61 103.59 57.6099 105.87 57.5699 108.14C57.5699 108.251 57.6142 108.358 57.693 108.437C57.7717 108.516 57.8786 108.56 57.99 108.56C58.1014 108.56 58.2081 108.516 58.2869 108.437C58.3657 108.358 58.4099 108.251 58.4099 108.14C58.4099 105.88 58.4099 103.6 58.3399 101.33C59.4739 101.198 60.5693 100.837 61.5599 100.27C62.1899 99.8999 63.4699 99.2199 62.9399 98.2699C62.7036 97.8657 62.3329 97.5573 61.8925 97.3983C61.4522 97.2393 60.97 97.2399 60.5299 97.3999V97.3999Z" fill="#92CEFF"/>
<path d="M60.5897 99.9999C61.2433 100.392 61.795 100.934 62.1997 101.58C62.2797 100.41 62.4097 99.2399 62.5897 98.0799C62.5711 98.0179 62.5711 97.9519 62.5897 97.8899C61.3897 96.4899 60.0997 95.1399 59.0097 93.6499C58.5397 93.0099 58.0097 91.8899 58.8097 91.2399C60.4297 89.8599 62.1997 94.6099 62.8797 96.6199C63.1375 95.4199 63.4716 94.2375 63.8797 93.0799C64.0197 92.6799 64.1697 92.2899 64.3297 91.8899C63.0018 91.1283 61.781 90.1934 60.6997 89.1099C60.2097 88.6099 58.7797 87.3599 59.5097 86.4699C60.2397 85.5799 61.5097 86.0799 62.1297 86.6999C63.1644 88.0368 63.9533 89.547 64.4597 91.1599C64.4597 91.1599 64.4597 91.2299 64.4597 91.2699L64.5497 91.3199C65.1463 89.9095 65.8657 88.5543 66.6997 87.2699C65.0197 85.6999 62.0897 81.8099 64.3897 80.0099C66.6897 78.2099 67.3897 83.9199 67.5797 86.0099C68.4146 84.8608 69.3481 83.7867 70.3697 82.7999C70.3927 82.7944 70.4167 82.7944 70.4397 82.7999C70.4019 82.7399 70.3811 82.6708 70.3797 82.5999C70.3833 82.015 70.5088 81.4372 70.7481 80.9035C70.9874 80.3697 71.3354 79.8917 71.7697 79.4999C72.1411 79.1109 72.6353 78.8617 73.169 78.7943C73.7026 78.7269 74.2432 78.8454 74.6997 79.1299C75.6997 79.9399 74.3297 81.3099 73.7897 81.9499C73.4371 82.4346 72.966 82.8207 72.4214 83.0711C71.8769 83.3214 71.2772 83.4278 70.6797 83.3799C69.6253 84.4198 68.6649 85.5509 67.8097 86.7599C68.9197 86.5499 75.4897 84.9399 74.4397 87.8999C73.9497 89.3099 71.7497 89.2799 70.6797 89.2899C70.0223 89.3618 69.3575 89.2581 68.7531 88.9893C68.1488 88.7205 67.6266 88.2963 67.2397 87.7599H67.1497C66.3869 88.9214 65.7181 90.1419 65.1497 91.4099C65.4048 91.3161 65.6699 91.2524 65.9397 91.2199C65.9756 91.1736 66.0243 91.1389 66.0797 91.1199C67.4797 90.7899 69.7497 90.1199 71.0797 90.8399C71.2571 90.9247 71.4149 91.0456 71.5428 91.1949C71.6707 91.3443 71.766 91.5187 71.8225 91.7071C71.8791 91.8954 71.8955 92.0935 71.8709 92.2886C71.8463 92.4837 71.7812 92.6715 71.6797 92.8399C71.3481 93.2927 70.9019 93.6491 70.3869 93.8723C69.872 94.0955 69.3068 94.1775 68.7497 94.1099C67.9513 93.9645 67.1919 93.6547 66.5197 93.1999C65.8977 92.934 65.3208 92.573 64.8097 92.1299C64.5897 92.6699 64.3797 93.2199 64.1997 93.7899C63.8435 94.8963 63.5629 96.0256 63.3597 97.1699C64.1722 96.3024 65.2541 95.735 66.4297 95.5599C67.2197 95.4399 68.7497 95.3599 69.0197 96.4899C69.6697 99.2099 64.8697 98.8999 63.1397 98.4199C62.9997 99.3399 62.9097 100.26 62.8397 101.19C62.9576 101.086 63.0888 100.999 63.2297 100.93C63.7755 100.61 64.4241 100.513 65.0397 100.66C65.1444 100.703 65.2391 100.767 65.3181 100.848C65.3971 100.93 65.4586 101.026 65.4989 101.132C65.5392 101.238 65.5574 101.351 65.5523 101.464C65.5473 101.577 65.5192 101.688 65.4697 101.79C64.8914 102.328 64.1295 102.625 63.3397 102.62C63.162 102.667 62.9817 102.704 62.7997 102.73C62.7854 102.786 62.758 102.837 62.7197 102.88C62.6397 104.51 62.6297 106.15 62.6697 107.78C62.6776 107.822 62.6761 107.865 62.6654 107.906C62.6548 107.947 62.6351 107.986 62.6079 108.019C62.5807 108.051 62.5466 108.078 62.508 108.096C62.4695 108.114 62.4273 108.124 62.3847 108.124C62.3421 108.124 62.3 108.114 62.2614 108.096C62.2228 108.078 62.1887 108.051 62.1615 108.019C62.1343 107.986 62.1146 107.947 62.1039 107.906C62.0932 107.865 62.0918 107.822 62.0997 107.78C62.0997 106.16 62.0997 104.52 62.0997 102.89C61.3277 102.786 60.5855 102.524 59.9197 102.12C59.4997 101.86 58.6397 101.37 58.9897 100.7C59.1182 100.402 59.3548 100.165 59.6518 100.035C59.9487 99.9048 60.2839 99.8923 60.5897 99.9999V99.9999Z" fill="#343751"/>
<path d="M53.3202 101.1C52.7065 101.653 52.2247 102.336 51.9103 103.1C51.5103 102 51.0702 100.9 50.5602 99.84C50.5803 99.7748 50.5803 99.7052 50.5602 99.64C51.5602 97.93 52.6603 96.23 53.5103 94.45C53.8803 93.69 54.1403 92.45 53.1003 92.07C50.9103 91.24 50.1003 96.36 49.8903 98.51C49.3017 97.422 48.6332 96.3791 47.8903 95.39C47.6203 95.04 47.3402 94.71 47.0602 94.39C48.3475 93.273 49.4868 91.9959 50.4503 90.59C50.8803 89.96 52.1803 88.31 51.1103 87.68C50.0403 87.05 48.7103 87.93 48.2103 88.68C47.3974 90.2349 46.8947 91.9331 46.7303 93.68C46.7205 93.716 46.7205 93.754 46.7303 93.79L46.6403 93.87C45.5797 92.6777 44.4077 91.5894 43.1403 90.62C44.6303 88.62 46.9503 83.94 43.8703 82.9C40.7903 81.86 41.4503 87.6 41.8703 89.66C40.602 88.8027 39.2639 88.0535 37.8703 87.42C37.8371 87.4156 37.8034 87.4156 37.7703 87.42C37.7965 87.3525 37.7965 87.2775 37.7703 87.21C37.5969 86.6275 37.2909 86.0932 36.8762 85.649C36.4615 85.2048 35.9494 84.8629 35.3802 84.65C34.8209 84.3909 34.1971 84.3039 33.5882 84.4C32.9793 84.4962 32.4126 84.7712 31.9603 85.19C31.0903 86.26 32.9603 87.19 33.7303 87.63C34.304 87.9957 34.954 88.2246 35.6302 88.2992C36.3064 88.3737 36.9907 88.2919 37.6302 88.06C39.0772 88.7308 40.4625 89.5272 41.7703 90.44C40.4503 90.58 32.5903 91.03 34.5403 93.57C35.4703 94.78 37.9603 94.08 39.1703 93.77C39.9128 93.6532 40.6175 93.3634 41.2272 92.9239C41.837 92.4844 42.3348 91.9075 42.6803 91.24C42.7113 91.2222 42.7385 91.1984 42.7603 91.17C43.902 92.0541 44.9659 93.0343 45.9402 94.1C45.6257 94.0851 45.3104 94.1052 45.0002 94.16C44.9447 94.1217 44.8775 94.104 44.8102 94.11C43.1402 94.21 40.3903 94.27 39.0403 95.37C38.8624 95.4808 38.7135 95.6324 38.6058 95.8123C38.4982 95.9921 38.4349 96.1949 38.4213 96.4041C38.4076 96.6132 38.4439 96.8226 38.5272 97.0149C38.6105 97.2072 38.7384 97.3769 38.9003 97.51C39.438 97.8486 40.0486 98.0543 40.6816 98.1099C41.3146 98.1656 41.9518 98.0696 42.5403 97.83C43.3964 97.4604 44.1763 96.9348 44.8403 96.28C45.4635 95.8398 46.0222 95.3147 46.5002 94.72C46.8902 95.17 47.2703 95.64 47.6203 96.13C48.303 97.0858 48.9178 98.0882 49.4603 99.13C48.2505 98.5414 46.892 98.3289 45.5602 98.52C44.6302 98.65 42.8703 99.04 42.8603 100.22C42.8603 103.04 48.1903 101.22 50.0303 100.28C50.4303 101.12 50.7703 101.99 51.1003 102.86C50.9342 102.803 50.7636 102.759 50.5903 102.73C49.8677 102.589 49.1187 102.691 48.4603 103.02C48.3556 103.079 48.2657 103.16 48.1973 103.259C48.1289 103.357 48.0838 103.47 48.0655 103.589C48.0472 103.707 48.0561 103.828 48.0916 103.943C48.1271 104.058 48.1882 104.163 48.2703 104.25C49.103 104.59 50.026 104.639 50.8903 104.39C51.1103 104.39 51.3203 104.39 51.5403 104.39C51.5687 104.441 51.615 104.48 51.6703 104.5C52.1803 106.06 52.6203 107.64 53.0103 109.22C53.1003 109.62 53.7503 109.44 53.6503 109.05C53.2603 107.47 52.8302 105.89 52.3202 104.34C53.1574 104.014 53.9271 103.536 54.5903 102.93C55.0003 102.55 55.8603 101.81 55.2803 101.27C55.0151 101.035 54.6814 100.892 54.3284 100.861C53.9754 100.83 53.6219 100.914 53.3202 101.1V101.1Z" fill="#343751"/>
<path d="M65.3605 125.68H49.9205L45.4805 106.01H69.8005L65.3605 125.68Z" fill="#BED0E2"/>
<path d="M106.7 110.84L106.68 118.34L78.71 118.23L78.73 110.73L106.7 110.84Z" fill="#EA3E72"/>
<path d="M108.56 110.84L108.54 118.34L80.5703 118.23L80.5903 110.73L108.56 110.84Z" fill="#EDF1F4"/>
<path d="M78.73 111.98H110V110.74H78.73V111.98Z" fill="#EA3E72"/>
<path d="M78.73 118.21H110V116.97H78.73V118.21Z" fill="#EA3E72"/>
<path d="M78.2146 117.893L78.1924 125.393L111.812 125.493L111.834 117.993L78.2146 117.893Z" fill="#4093F6"/>
<path d="M80.4116 117.881L80.3906 125.381L114.01 125.474L114.031 117.975L80.4116 117.881Z" fill="#EDF1F4"/>
<path d="M78.2404 119.14H115.82V117.9H78.2404V119.14Z" fill="#4093F6"/>
<path d="M78.2404 125.37H115.82V124.13H78.2404V125.37Z" fill="#4093F6"/>
<path d="M367.78 174.92C367.78 177.51 285.45 179.62 183.89 179.62C82.3301 179.62 0 177.51 0 174.92C0 172.33 82.3301 170.23 183.89 170.23C285.45 170.23 367.78 172.33 367.78 174.92Z" fill="#EDF1F4"/>
<path d="M116.77 125.06H43.1104V127.73H116.77V125.06Z" fill="#2A2B3B"/>
<path d="M39.4399 174.36H39.3599C39.2306 174.34 39.1141 174.27 39.0356 174.166C38.9571 174.061 38.9227 173.93 38.9399 173.8L46.0099 126.14C46.0343 126.011 46.1067 125.896 46.2124 125.818C46.3181 125.74 46.4494 125.705 46.5799 125.72C46.7101 125.742 46.8266 125.814 46.9049 125.92C46.9832 126.026 47.0173 126.159 46.9999 126.29L39.9299 173.94C39.911 174.057 39.8514 174.163 39.7617 174.24C39.672 174.316 39.558 174.359 39.4399 174.36Z" fill="#2A2B3C"/>
<path d="M69.9297 174.36C69.8101 174.359 69.6948 174.315 69.6049 174.236C69.515 174.157 69.4564 174.048 69.4396 173.93L62.3697 126.28C62.3523 126.149 62.3863 126.017 62.4647 125.91C62.543 125.804 62.6595 125.732 62.7897 125.71C62.9206 125.693 63.0531 125.727 63.1594 125.805C63.2657 125.883 63.3375 126 63.3597 126.13L70.4297 173.79C70.4469 173.92 70.4125 174.051 70.334 174.156C70.2555 174.26 70.139 174.33 70.0096 174.35L69.9297 174.36Z" fill="#2A2B3C"/>
<path d="M89.9497 174.36H89.8697C89.7403 174.34 89.6238 174.27 89.5453 174.166C89.4668 174.061 89.4324 173.93 89.4497 173.8L96.5197 126.14C96.5419 126.01 96.6136 125.893 96.7199 125.815C96.8262 125.737 96.9588 125.703 97.0897 125.72C97.2199 125.742 97.3364 125.814 97.4147 125.92C97.4931 126.027 97.5271 126.159 97.5097 126.29L90.4396 173.94C90.4208 174.057 90.3612 174.163 90.2715 174.24C90.1818 174.317 90.0678 174.359 89.9497 174.36Z" fill="#2A2B3C"/>
<path d="M120.44 174.36C120.321 174.359 120.206 174.315 120.116 174.236C120.026 174.157 119.967 174.048 119.95 173.93L112.88 126.28C112.863 126.149 112.897 126.017 112.975 125.91C113.054 125.804 113.17 125.732 113.3 125.71C113.431 125.693 113.564 125.727 113.67 125.805C113.776 125.883 113.848 126 113.87 126.13L120.94 173.79C120.957 173.921 120.922 174.054 120.841 174.159C120.761 174.264 120.642 174.333 120.51 174.35L120.44 174.36Z" fill="#2A2B3C"/>
<path d="M187.93 6.85981e-06H133.37C131.437 6.85981e-06 129.582 0.76806 128.215 2.1352C126.848 3.50234 126.08 5.35659 126.08 7.29002V46.29C126.08 48.2234 126.848 50.0777 128.215 51.4448C129.582 52.8119 131.437 53.58 133.37 53.58H165.25L172.95 63.94C173.13 64.1779 173.38 64.3535 173.665 64.4422C173.95 64.5309 174.256 64.5282 174.539 64.4345C174.823 64.3407 175.069 64.1607 175.245 63.9196C175.421 63.6785 175.517 63.3884 175.52 63.09V53.58H187.94C189.873 53.58 191.728 52.8119 193.095 51.4448C194.462 50.0777 195.23 48.2234 195.23 46.29V7.29002C195.23 6.33184 195.041 5.38305 194.674 4.49793C194.307 3.61282 193.769 2.80873 193.091 2.13166C192.413 1.45459 191.609 0.917808 190.723 0.552039C189.837 0.186271 188.888 -0.00130751 187.93 6.85981e-06Z" fill="#EDF1F4"/>
<path d="M130.04 95.3699C129.818 95.3683 129.599 95.3151 129.401 95.2145C129.203 95.1138 129.032 94.9684 128.9 94.7899L123.52 87.5499H100.94C99.4472 87.5472 98.0168 86.9532 96.9615 85.898C95.9063 84.8427 95.3122 83.4123 95.3096 81.9199V53.9999C95.3096 52.5058 95.9025 51.0727 96.958 50.0153C98.0136 48.9579 99.4455 48.3625 100.94 48.3599H139.94C140.681 48.3586 141.416 48.5035 142.101 48.7863C142.786 49.0692 143.409 49.4844 143.934 50.0083C144.459 50.5321 144.875 51.1543 145.159 51.8392C145.443 52.5242 145.59 53.2584 145.59 53.9999V81.8899C145.59 83.3831 144.996 84.8151 143.941 85.8709C142.885 86.9267 141.453 87.5199 139.96 87.5199H131.5V93.8999C131.501 94.2051 131.405 94.5027 131.225 94.7492C131.045 94.9957 130.791 95.1781 130.5 95.2699C130.353 95.3277 130.197 95.3615 130.04 95.3699ZM100.94 49.2299C99.6673 49.2325 98.4481 49.7391 97.5485 50.6387C96.6489 51.5383 96.1423 52.7577 96.1396 54.0299V81.9199C96.1423 83.1921 96.6489 84.4115 97.5485 85.3111C98.4481 86.2107 99.6673 86.7172 100.94 86.7199H123.94L129.57 94.2899C129.643 94.3938 129.747 94.4714 129.868 94.511C129.989 94.5506 130.119 94.5503 130.24 94.5099C130.361 94.4695 130.466 94.3914 130.54 94.2871C130.613 94.1828 130.652 94.0576 130.65 93.9299V86.7199H139.95C141.223 86.7199 142.444 86.2142 143.344 85.314C144.244 84.4138 144.75 83.1929 144.75 81.9199V53.9999C144.75 52.7268 144.244 51.506 143.344 50.6058C142.444 49.7056 141.223 49.1999 139.95 49.1999L100.94 49.2299Z" fill="#BED0E2"/>
<path d="M164.59 39.7301C165.115 40.0144 165.693 40.1878 166.289 40.2394C166.884 40.291 167.483 40.2198 168.05 40.03L187.33 38.15C187.354 38.1456 187.377 38.1347 187.396 38.1186C187.415 38.1025 187.429 38.0817 187.437 38.0583C187.445 38.035 187.447 38.0098 187.442 37.9855C187.437 37.9613 187.426 37.9387 187.41 37.9201L169.76 19.28C169.659 19.1682 169.533 19.0825 169.392 19.0303C169.251 18.978 169.099 18.9608 168.95 18.9801L132.24 22.9801C132.215 22.983 132.191 22.9928 132.171 23.0083C132.151 23.0238 132.135 23.0444 132.126 23.0681C132.117 23.0917 132.114 23.1174 132.118 23.1424C132.122 23.1674 132.133 23.1908 132.15 23.21L147.22 40.9201C147.322 41.0374 147.451 41.1293 147.595 41.1883C147.739 41.2473 147.895 41.2719 148.05 41.2601L164.59 39.7301Z" fill="#EA3E72"/>
<path d="M132.09 22.1299V23.1099L132.45 23.2799L132.91 23.2099L133.25 22.9899L132.67 22.3799L132.09 22.1299Z" fill="#EA3E72"/>
<path d="M187.42 38.04V37.07L186.81 37.03L186.31 37.09L186.48 37.64L187.42 38.04Z" fill="#EA3E72"/>
<path d="M164.59 38.7501C165.114 39.0373 165.693 39.2123 166.288 39.264C166.884 39.3156 167.484 39.2428 168.05 39.0501L187.33 37.1801C187.356 37.1769 187.381 37.1663 187.401 37.1495C187.422 37.1327 187.437 37.1105 187.446 37.0854C187.454 37.0602 187.455 37.0332 187.449 37.0075C187.442 36.9818 187.429 36.9584 187.41 36.9401L169.76 18.3001C169.656 18.1927 169.529 18.11 169.389 18.0581C169.249 18.0062 169.099 17.9864 168.95 18.0001L132.24 22.0001C132.215 22.003 132.191 22.0128 132.171 22.0283C132.151 22.0438 132.135 22.0645 132.126 22.0881C132.117 22.1117 132.114 22.1374 132.118 22.1624C132.122 22.1874 132.133 22.2108 132.15 22.2301L147.22 39.9401C147.322 40.0575 147.451 40.1493 147.595 40.2083C147.739 40.2674 147.895 40.2919 148.05 40.2801L164.59 38.7501Z" fill="#D32A6B"/>
<path d="M133.24 21.6701C133.24 21.6701 138.24 28.9401 140.12 30.5601C142 32.1801 147.71 39.5601 147.71 39.5601L164.71 37.8801C164.71 37.8801 167.52 36.5901 168.33 38.5901L185.521 36.4301C185.718 35.6112 185.979 34.8088 186.3 34.0301C186.62 33.4401 170.8 16.8401 170.8 16.8401L133.23 19.7501L133.24 21.6701Z" fill="white"/>
<path d="M147.71 39.6L148.9 36.4L133.24 19.79V22.12C135.375 25.0588 137.672 27.8765 140.12 30.56C142.41 32.77 147.71 39.6 147.71 39.6Z" fill="#D3E0EA"/>
<path d="M148.9 36.4C148.9 36.4 163.49 34.04 166.9 36.92C166.351 36.8576 165.795 36.9225 165.274 37.1098C164.754 37.2971 164.284 37.6017 163.9 38L147.65 39.6L148.9 36.4Z" fill="#F4F7F9"/>
<path d="M166.95 36.9201L186.31 34.0701C185.972 34.8424 185.71 35.6463 185.53 36.4701L169.14 38.5301C168.529 37.8488 167.783 37.3007 166.95 36.9201V36.9201Z" fill="#F4F7F9"/>
<path d="M164.72 37.92L163.96 38C164.322 37.5735 164.79 37.2493 165.316 37.0598C165.842 36.8703 166.409 36.8221 166.96 36.92C167.426 36.997 167.867 37.183 168.248 37.4627C168.628 37.7425 168.938 38.1082 169.15 38.53L168.35 38.63C168.35 38.63 167.61 37.63 166.91 37.52C166.159 37.4799 165.409 37.6169 164.72 37.92V37.92Z" fill="#D3E0EA"/>
<path d="M166.95 36.92L185.69 33.09C185.97 32.3455 185.97 31.5246 185.69 30.78C177.42 31.92 167 36.16 166.55 36.85L166.95 36.92Z" fill="#F4F7F9"/>
<path d="M166.95 36.92C166.95 36.92 154.95 33.2799 149.46 34.7099L134.28 18.9999C134.28 18.9999 145.96 16.5399 153.05 17.6599L166.95 36.92Z" fill="#D3E0EA"/>
<path d="M166.95 36.92C173.185 34.3545 179.68 32.4702 186.32 31.2999C186.32 31.2999 176.58 17.2 171.65 15.64C171.65 15.64 160.65 15.38 153.05 17.64C153.05 17.63 166.48 30.09 166.95 36.92Z" fill="#D3E0EA"/>
<path d="M166.95 36.9199C166.95 36.9199 180.44 28.7999 186.32 29.1499C186.32 29.1499 176.63 15.8099 172.32 15.1499C172.32 15.1499 160.9 15.1499 153.09 17.6799C153.05 17.6299 167.11 30.8899 166.95 36.9199Z" fill="white"/>
<path d="M185.69 33.0901C185.69 33.0901 167.58 36.6801 166.95 36.9201L185.89 33.3501L185.69 33.0901Z" fill="#D3E0EA"/>
<path d="M166.95 36.9202C166.95 36.9202 159.17 30.6801 149.68 31.1901C149.68 31.1901 139.91 19.3301 134.89 16.8801C134.89 16.8801 147.08 14.0201 153.05 17.6301C153.05 17.6301 167.26 30.3602 166.95 36.9202Z" fill="white"/>
<path d="M166.95 36.9201C166.95 36.9201 165.14 28.1101 153.05 17.6301L154.05 17.3401C154.05 17.3401 166.26 27.2501 166.95 36.9201Z" fill="#D3E0EA"/>
<path d="M315.13 13.9599L315.11 19.8499L293.12 19.7699L293.13 13.8799L315.13 13.9599Z" fill="#FFD357"/>
<path d="M316.59 13.9599L316.57 19.8499L294.58 19.7699L294.59 13.8799L316.59 13.9599Z" fill="#EDF1F4"/>
<path d="M293.13 14.8601L317.72 14.8601V13.8801L293.13 13.8801V14.8601Z" fill="#FFD357"/>
<path d="M293.13 19.75L317.72 19.75V18.77L293.13 18.77V19.75Z" fill="#FFD357"/>
<path d="M317.25 19.7699L317.24 25.6699L295.24 25.5899L295.26 19.6899L317.25 19.7699Z" fill="#EA3E72"/>
<path d="M318.71 19.7699L318.7 25.6699L296.7 25.5899L296.72 19.6899L318.71 19.7699Z" fill="#EDF1F4"/>
<path d="M295.26 20.6599L319.85 20.6599V19.6799L295.26 19.6799V20.6599Z" fill="#EA3E72"/>
<path d="M295.26 25.5701L319.85 25.5701V24.5901L295.26 24.5901V25.5701Z" fill="#EA3E72"/>
<path d="M294.852 25.314L294.833 31.2139L321.273 31.2969L321.291 25.3971L294.852 25.314Z" fill="#4093F6"/>
<path d="M296.6 25.3174L296.582 31.2173L323.022 31.2957L323.039 25.3959L296.6 25.3174Z" fill="#EDF1F4"/>
<path d="M294.87 26.3L324.43 26.3V25.3201L294.87 25.3201V26.3Z" fill="#4093F6"/>
<path d="M294.87 31.2L324.43 31.2V30.2199L294.87 30.2199V31.2Z" fill="#4093F6"/>
<path d="M270.24 106.046L274.926 107.762L281.489 89.8356L276.804 88.1199L270.24 106.046Z" fill="#92CEFF"/>
<path d="M276.681 88.2434L275.657 87.8687L269.094 105.795L270.117 106.17L276.681 88.2434Z" fill="#EDF1F4"/>
<path d="M282.27 107.36H287.26V88.2701H282.27V107.36Z" fill="#92CEFF"/>
<path d="M282.27 88.27H281.18V107.36H282.27V88.27Z" fill="#EDF1F4"/>
<path d="M289.34 107.36H293.89V93.6601H289.34V107.36Z" fill="#EA3E72"/>
<path d="M289.35 93.6599H288.36V107.36H289.35V93.6599Z" fill="#EDF1F4"/>
<path d="M336.07 107.1H259.68V174.04H336.07V107.1Z" fill="#BED0E2"/>
<path d="M336.07 5.6499H330.9V174.04H336.07V5.6499Z" fill="#BED0E2"/>
<path d="M333.9 107.1H257.51V174.04H333.9V107.1Z" fill="#EDF1F4"/>
<path d="M333.9 5.6499H327.68V108.22H333.9V5.6499Z" fill="#EDF1F4"/>
<path d="M263.73 5.6499H257.51V108.22H263.73V5.6499Z" fill="#EDF1F4"/>
<path d="M260.35 122.94L330.9 122.94V110.37L260.35 110.37V122.94Z" fill="white"/>
<path d="M331.78 110.37H330.9V122.94H331.78V110.37Z" fill="#BED0E2"/>
<path d="M260.35 137.95H330.9V125.38L260.35 125.38V137.95Z" fill="white"/>
<path d="M331.78 125.39H330.9V137.96H331.78V125.39Z" fill="#BED0E2"/>
<path d="M260.35 155.62H330.9V143.05H260.35V155.62Z" fill="white"/>
<path d="M331.78 143.05H330.9V155.62H331.78V143.05Z" fill="#BED0E2"/>
<path d="M260.35 170.64H330.9V158.07H260.35V170.64Z" fill="white"/>
<path d="M331.78 158.07H330.9V170.64H331.78V158.07Z" fill="#BED0E2"/>
<path d="M293.45 116.65C293.45 116.221 293.577 115.801 293.816 115.444C294.054 115.088 294.393 114.809 294.79 114.645C295.186 114.481 295.623 114.438 296.044 114.522C296.465 114.605 296.851 114.812 297.155 115.116C297.458 115.419 297.665 115.806 297.749 116.227C297.832 116.648 297.789 117.084 297.625 117.48C297.461 117.877 297.183 118.216 296.826 118.454C296.469 118.693 296.049 118.82 295.62 118.82C295.045 118.82 294.493 118.591 294.086 118.184C293.679 117.777 293.45 117.225 293.45 116.65V116.65Z" fill="#BED0E2"/>
<path d="M293.45 131.67C293.45 131.241 293.577 130.821 293.816 130.464C294.054 130.108 294.393 129.829 294.79 129.665C295.186 129.501 295.623 129.458 296.044 129.542C296.465 129.625 296.851 129.832 297.155 130.136C297.458 130.439 297.665 130.826 297.749 131.247C297.832 131.668 297.789 132.104 297.625 132.5C297.461 132.897 297.183 133.236 296.826 133.474C296.469 133.713 296.049 133.84 295.62 133.84C295.335 133.84 295.053 133.784 294.79 133.675C294.527 133.566 294.287 133.406 294.086 133.204C293.884 133.003 293.724 132.764 293.615 132.5C293.506 132.237 293.45 131.955 293.45 131.67V131.67Z" fill="#BED0E2"/>
<path d="M293.45 149.46C293.45 149.031 293.577 148.611 293.816 148.254C294.054 147.898 294.393 147.619 294.79 147.455C295.186 147.291 295.623 147.248 296.044 147.332C296.465 147.415 296.851 147.622 297.155 147.926C297.458 148.229 297.665 148.616 297.749 149.037C297.832 149.458 297.789 149.894 297.625 150.29C297.461 150.687 297.183 151.026 296.826 151.264C296.469 151.503 296.049 151.63 295.62 151.63C295.045 151.63 294.493 151.401 294.086 150.994C293.679 150.588 293.45 150.036 293.45 149.46V149.46Z" fill="#BED0E2"/>
<path d="M293.45 164.47C293.45 164.041 293.577 163.621 293.816 163.264C294.054 162.908 294.393 162.63 294.79 162.465C295.186 162.301 295.623 162.258 296.044 162.342C296.465 162.425 296.851 162.632 297.155 162.936C297.458 163.239 297.665 163.626 297.749 164.047C297.832 164.468 297.789 164.904 297.625 165.3C297.461 165.697 297.183 166.036 296.826 166.274C296.469 166.513 296.049 166.64 295.62 166.64C295.045 166.64 294.493 166.411 294.086 166.004C293.679 165.597 293.45 165.046 293.45 164.47V164.47Z" fill="#BED0E2"/>
<path d="M257.51 8.29004L333.9 8.29004V5.64005L257.51 5.64005V8.29004Z" fill="#EDF1F4"/>
<path d="M257.51 33.6299L333.9 33.6299V30.9799L257.51 30.9799V33.6299Z" fill="#EDF1F4"/>
<path d="M257.51 58.97L333.9 58.97V56.32L257.51 56.32V58.97Z" fill="#EDF1F4"/>
<path d="M257.51 84.29L333.9 84.29V81.64L257.51 81.64V84.29Z" fill="#EDF1F4"/>
<path d="M299.34 56.3699H304.33V37.2799H299.34V56.3699Z" fill="#92CEFF"/>
<path d="M299.33 37.27H298.24V56.36H299.33V37.27Z" fill="#EDF1F4"/>
<path d="M310.691 56.4622L315.468 55.0183L309.944 36.745L305.167 38.1889L310.691 56.4622Z" fill="#92CEFF"/>
<path d="M305.166 38.2739L304.123 38.5891L309.644 56.8634L310.687 56.5482L305.166 38.2739Z" fill="#EDF1F4"/>
<path d="M293.01 56.3601H297.56V42.6601H293.01V56.3601Z" fill="#EA3E72"/>
<path d="M293.01 42.6699H292.02V56.3699H293.01V42.6699Z" fill="#EDF1F4"/>
<path d="M289.34 63.83L289.33 69.72L267.33 69.64L267.35 63.74L289.34 63.83Z" fill="#EA3E72"/>
<path d="M290.81 63.83L290.79 69.72L268.79 69.64L268.81 63.74L290.81 63.83Z" fill="#EDF1F4"/>
<path d="M267.34 64.72H291.93V63.74H267.34V64.72Z" fill="#EA3E72"/>
<path d="M267.34 69.6299H291.93V68.6499H267.34V69.6299Z" fill="#EA3E72"/>
<path d="M266.932 69.3678L266.914 75.2678L293.354 75.3463L293.371 69.4463L266.932 69.3678Z" fill="#4093F6"/>
<path d="M265.11 68.12V74.02H291.55V68.12H265.11Z" fill="#EDF1F4"/>
<path d="M266.95 70.3501H296.51V69.3701H266.95V70.3501Z" fill="#4093F6"/>
<path d="M266.95 75.26H296.51V74.28H266.95V75.26Z" fill="#4093F6"/>
<path d="M268.34 74.2301V80.6001H289.1V74.2301H268.34Z" fill="#EDF1F4"/>
<path d="M272.429 75.1954L272.416 81.5654L293.176 81.6089L293.189 75.2389L272.429 75.1954Z" fill="#92CEFF"/>
<path d="M271.12 75.98H273.97V75.21H271.12V75.98Z" fill="#92CEFF"/>
<path d="M271.12 81.5701H273.97V80.8H271.12V81.5701Z" fill="#92CEFF"/>
<path d="M200.13 74.8C199.79 73.03 198.52 72.33 199.38 70.24C200.38 67.8 198.63 67.36 198.38 64.91C198.364 64.8352 198.332 64.7649 198.286 64.7042C198.239 64.6435 198.18 64.5941 198.112 64.5595C198.043 64.525 197.968 64.5062 197.892 64.5045C197.815 64.5029 197.74 64.5184 197.67 64.55C196.617 64.9414 195.705 65.6377 195.05 66.55C194.967 66.536 194.882 66.5501 194.808 66.5899C194.733 66.6297 194.674 66.6931 194.64 66.77C194.137 67.7483 193.459 68.6261 192.64 69.36C192.211 69.6573 191.81 69.992 191.44 70.36C191.229 70.5973 191.081 70.8832 191.007 71.1921C190.934 71.501 190.938 71.8232 191.02 72.13C191.15 73.13 191.44 74.22 190.59 74.92C190.36 75.11 188.82 76.16 189.94 77.47C190.13 77.627 190.352 77.7399 190.591 77.8004C190.829 77.861 191.078 77.8677 191.32 77.82C192.63 77.82 192.51 77.3 193.9 78.05C194.48 78.36 194.43 78.83 195.29 78.84C195.85 78.84 196.18 78.44 196.69 78.33C197.541 78.1895 198.414 78.2616 199.23 78.54C199.332 78.5754 199.442 78.577 199.545 78.5446C199.648 78.5121 199.737 78.4474 199.8 78.36C200.3 77.79 200.27 75.53 200.13 74.8Z" fill="#2A2B3C"/>
<path d="M195.95 74.82C193.16 72.75 181.28 88.45 170.86 96.45C163.41 102.17 176.5 111.14 178.86 109.71C181.22 108.28 201.7 79.07 195.95 74.82Z" fill="#4093F5"/>
<path d="M153.71 104.74C160.27 99.5801 169.36 97.0101 174.08 94.7401C178.8 92.4701 184.28 98.9801 183.55 100.57C182.82 102.16 171.86 113.27 163.55 115.98C163.59 116 152.4 105.77 153.71 104.74Z" fill="#4093F5"/>
<path d="M192.13 78.25C192.13 78.25 179.53 102.62 175.43 104.55C171.33 106.48 158.74 103.32 167.55 107.09C175.49 110.49 178.2 110.46 178.87 109.71C194.35 92.15 190.5 94.13 192.13 78.25Z" fill="#2483E2"/>
<path d="M130.05 171.43C131.95 170.43 135.5 169.63 136.95 167.81C137.068 167.673 137.169 167.522 137.25 167.36C137.8 166.341 138.036 165.183 137.93 164.03C140.41 163.479 142.996 163.638 145.39 164.49C145.48 165.87 145.6 166.49 145.75 167.89C145.808 169.249 145.605 170.607 145.15 171.89C140.113 172.176 135.06 172.022 130.05 171.43Z" fill="#EA3E72"/>
<path d="M128.43 173.41C128.52 174.3 144.3 174.23 145.13 172.9C145.178 172.831 145.218 172.758 145.25 172.68C145.25 172.61 145.31 172.54 145.34 172.45C145.701 170.969 145.836 169.442 145.74 167.92C145.74 167.92 145.74 167.92 145.74 167.92C142.894 168.948 139.772 168.913 136.95 167.82C135.6 169.52 132.42 170.29 130.46 171.21C129.945 171.342 129.479 171.619 129.119 172.01C128.759 172.4 128.519 172.886 128.43 173.41Z" fill="#FFD357"/>
<path d="M128.4 173.72C128.49 174.61 144.19 174.63 145.02 173.3C145.02 173.3 145.22 172.75 145.26 172.67C140.14 173.75 132.5 173.56 128.47 173.29C128.45 173.34 128.41 173.68 128.4 173.72Z" fill="#2A2B3B"/>
<path d="M240.59 110.57C237.73 101.35 234.46 90.8001 226.52 84.6201C226.06 84.2501 225.59 83.9101 225.1 83.6201C217.31 78.4601 208.1 79.4101 201.25 86.0701C196.6 90.5601 193.85 96.4801 190.1 101.64C186.228 106.941 181.143 111.237 175.27 114.17C164.54 118.99 151.49 131.17 153.38 151.86C153.534 153.558 153.869 155.234 154.38 156.86C156.52 163.86 161.83 170.5 170.18 172.72C181.87 175.83 188.87 174.85 200.87 174.81C211.18 174.81 222.19 174.35 230.7 167.81C237.9 162.34 242.37 153.81 244.11 145.09C246.42 133.53 244.07 121.63 240.59 110.57Z" fill="#EA3E72"/>
<path d="M240.59 110.57C237.73 101.35 234.46 90.8001 226.52 84.6201C226.06 84.2501 225.59 83.9101 225.1 83.6201C225.051 83.9372 225.111 84.2615 225.27 84.5401C231.99 96.4401 236.81 109.64 236.57 123.46C236.35 135.39 231.92 153.94 218.85 157.87C211.94 159.93 204.21 160.67 197.1 161.48C190.474 162.383 183.787 162.777 177.1 162.66C170.72 162.4 165.19 160.46 159.26 158.35C157.689 157.665 156.045 157.158 154.36 156.84C156.5 163.84 161.81 170.48 170.16 172.7C181.85 175.81 188.85 174.83 200.85 174.79C211.16 174.79 222.17 174.33 230.68 167.79C237.88 162.32 242.35 153.79 244.09 145.07C246.42 133.53 244.07 121.63 240.59 110.57Z" fill="#D32A6B"/>
<path d="M198.59 114.52C197.15 111.44 194.41 109.74 190.51 108.93C186.78 108.16 183.12 109.93 179.7 111.18C175.27 112.81 155.16 115.57 149.15 123.76C149.15 123.76 149.15 123.76 149.15 123.83C149.15 123.9 149.07 123.94 149.01 124.02C148.59 124.636 148.307 125.335 148.18 126.07C148.184 126.09 148.184 126.11 148.18 126.13C148.18 126.49 144.81 137.35 149.18 137.74C150.95 137.895 152.732 137.811 154.48 137.49C154.58 137.49 155.28 137.43 156.48 137.38H156.86C158.28 137.3 160.27 137.21 162.54 137.07C169.54 136.64 179.36 135.87 183.96 134.53L185.42 134.13C186.53 133.83 187.7 133.52 188.87 133.19C189.65 132.97 190.43 132.74 191.19 132.49C191.58 132.36 191.95 132.23 192.33 132.08C192.71 131.93 193.06 131.8 193.42 131.64C193.73 131.51 194.04 131.37 194.34 131.22L194.97 130.9C195.588 130.572 196.177 130.19 196.73 129.76C197.165 129.43 197.567 129.058 197.93 128.65L198.25 128.26C198.36 128.12 198.45 127.98 198.55 127.84C198.63 127.725 198.704 127.604 198.77 127.48C198.897 127.276 199.008 127.062 199.1 126.84C199.1 126.72 199.21 126.6 199.25 126.47C199.444 125.965 199.575 125.437 199.64 124.9C200.09 120.38 199.74 117 198.59 114.52Z" fill="#343751"/>
<path d="M148.91 124.05C142.77 131.05 127.91 160.81 137.34 165.12C140.263 164.803 143.22 165.102 146.02 166C153.75 162 152.96 140 153.8 137C154.21 135.765 154.688 134.553 155.23 133.37C156.32 130.87 157.59 128.26 157.59 128.23C157.98 126.9 158.35 125.55 158.71 124.23C158.81 123.82 158.92 123.41 159.01 122.99C160.21 118 152.36 120.12 148.91 124.05Z" fill="#343751"/>
<path d="M214.09 112.58C212.53 109.58 209.72 107.95 205.8 107.29C202.05 106.66 198.46 108.57 195.09 109.94C190.71 111.73 162.01 117.31 156.3 125.71C156.303 125.733 156.303 125.757 156.3 125.78C156.247 125.84 156.203 125.907 156.17 125.98V125.98C155.773 126.612 155.514 127.321 155.41 128.06C155.415 128.08 155.415 128.1 155.41 128.12C155.41 128.48 155.35 128.84 155.34 129.17C155.321 129.992 155.432 130.813 155.67 131.6C156.85 135.6 161.17 137.38 165.6 137.6C167.376 137.691 169.155 137.54 170.89 137.15C170.99 137.15 171.69 137.07 172.83 136.97H173.2C174.62 136.84 176.61 136.67 178.87 136.45C185.87 135.76 195.64 134.63 200.19 133.12L201.62 132.66C202.73 132.32 203.89 131.97 205.04 131.6C205.82 131.35 206.59 131.09 207.34 130.81C207.71 130.67 208.09 130.52 208.45 130.36C208.81 130.2 209.18 130.05 209.53 129.88C209.83 129.74 210.14 129.59 210.43 129.43L211.05 129.08C211.653 128.729 212.225 128.327 212.76 127.88C213.185 127.534 213.574 127.146 213.92 126.72C214.03 126.59 214.13 126.45 214.23 126.32C214.33 126.19 214.42 126.04 214.51 125.89C214.59 125.772 214.66 125.649 214.72 125.52C214.84 125.313 214.941 125.096 215.02 124.87C215.07 124.75 215.11 124.63 215.16 124.5C215.335 123.986 215.443 123.452 215.48 122.91C215.83 118.38 215.36 115 214.09 112.58Z" fill="#3F4261"/>
<path d="M157.41 124.39C150.54 131.9 145.24 159.61 154.49 164.39C159.71 164.19 156.1 163.98 162.57 165.57L163.12 165.69C171.03 162.13 171.12 136.37 172.12 133.41C172.41 132.58 177.89 120.05 178 119.64C179.45 114.73 161.39 120 157.41 124.39Z" fill="#3F4261"/>
<path d="M214.41 125.83C214.41 125.83 220.31 115.68 228.56 111.83C228.56 111.83 215.56 117.95 210.06 127.45L214.41 125.83Z" fill="#17171D"/>
<path d="M214.09 112.58L211.17 110.75C211.17 110.75 204.17 124.56 191.79 127.06C189.72 127.48 184.46 127.81 178.94 129.39C173.94 130.8 168.74 133.23 165.53 137.64C164.778 138.671 164.153 139.789 163.67 140.97C159.94 150.12 164.43 155.16 160.67 164.29L163.14 165.67C171.72 164.35 170.95 141.82 171.77 138.81C172.19 137.28 176.56 136.68 178.77 136.46C185.77 135.77 195.54 134.64 200.09 133.13L201.52 132.67C202.63 132.33 203.79 131.98 204.94 131.61C205.72 131.36 206.49 131.1 207.24 130.82C207.61 130.68 207.99 130.53 208.35 130.37C208.71 130.21 209.08 130.06 209.43 129.89C209.737 129.75 210.037 129.6 210.33 129.44L210.95 129.09C211.553 128.739 212.125 128.337 212.66 127.89C213.085 127.544 213.474 127.155 213.82 126.73C213.93 126.6 214.03 126.46 214.13 126.33C214.23 126.2 214.32 126.05 214.41 125.9C214.489 125.782 214.56 125.659 214.62 125.53C214.74 125.323 214.84 125.106 214.92 124.88C214.97 124.76 215.01 124.64 215.06 124.51C215.235 123.996 215.343 123.462 215.38 122.92C215.83 118.38 215.36 115 214.09 112.58Z" fill="#343751"/>
<path d="M154 163.58C154.22 161.41 165.63 162.7 163.12 165.68C162.14 166.84 153.82 165.31 154 163.58Z" fill="#17171D"/>
<path d="M162.04 172.57C162.565 171.338 162.728 169.982 162.51 168.66V168.66C162.35 167.24 162.1 166.24 162 164.86C160 163.78 157.4 163.86 154.72 163.97C154.8 165.402 154.558 166.834 154.01 168.16C153.929 168.322 153.828 168.473 153.71 168.61C152.18 170.55 148.26 171.29 146.48 172.45C146.27 172.548 146.081 172.686 145.924 172.858C145.768 173.03 145.648 173.231 145.57 173.45C145.11 175.4 160.87 175.32 162.04 172.57Z" fill="#E93E72"/>
<path d="M145.67 173.22C145.625 173.281 145.598 173.354 145.59 173.43C145.05 175.53 161.16 175.51 162.28 172.86C162.365 172.715 162.432 172.561 162.48 172.4C160.756 173.265 158.876 173.775 156.95 173.9C153.18 174.364 149.357 174.134 145.67 173.22Z" fill="#2A2B3B"/>
<path d="M225.69 125.26C208.75 124.96 197.06 130.92 189.31 141.55C188.56 141.6 190.38 154.29 202.1 154.26C214.53 154.26 223.67 155.52 226.94 142.38C228.13 137.58 229.98 125.34 225.69 125.26Z" fill="#EA3E72"/>
<path d="M189.31 141.55C189.31 141.55 203.88 125.07 225.69 125.26C225.69 125.26 204.59 121.37 189.31 141.55Z" fill="#17171D"/>
<path d="M218.72 117.38C218.72 117.38 214.16 78.5599 205.44 74.8399C198.32 71.8399 191.68 73.8399 190.35 81.3599C189.13 88.2799 186.84 97.3 185.41 100.88C183.98 104.46 179.67 111.18 179.67 111.18C179.67 111.18 200.98 120.79 218.72 117.38Z" fill="#4093F5"/>
<path d="M194.91 69.4201C194.91 69.4201 195.91 73.1201 195.91 74.0201C196.105 74.6054 196.45 75.1295 196.91 75.5401C198.66 74.4501 200.02 74.8301 200.58 74.3301C199.967 72.8384 199.498 71.2913 199.18 69.7101C198.92 67.7201 194.91 69.4201 194.91 69.4201Z" fill="#E93E72"/>
<path d="M200.84 66.51C200.84 66.51 198.84 71.62 195.47 71.03C192.1 70.44 195.71 63.5599 196.25 63.4599C196.79 63.3599 200.21 63.33 200.84 66.51Z" fill="#E93E72"/>
<path d="M198.07 61.8699C197.686 61.7539 197.295 61.6604 196.9 61.5899C195.54 61.3299 193.82 61.1199 193.51 62.8099C193.453 63.0846 193.454 63.3684 193.513 63.6428C193.572 63.9172 193.689 64.176 193.855 64.4024C194.021 64.6287 194.233 64.8176 194.477 64.9568C194.72 65.0959 194.991 65.1821 195.27 65.2099C196.13 65.2999 196.9 64.9299 197.75 65.0099C198.082 65.0596 198.419 65.0596 198.75 65.0099C198.732 65.343 198.732 65.6768 198.75 66.0099C198.719 66.8433 198.942 67.6663 199.39 68.3699C200.47 69.4299 201.67 67.8099 201.93 66.8499C202.72 64.2099 200.84 61.0899 198.07 61.8699Z" fill="#2A2B3C"/>
<path d="M199.23 68.5599C199.41 68.4299 199.65 68.6999 199.46 68.8299C199.27 68.9599 198.74 69.6999 199.21 69.9599C199.68 70.2199 200.4 69.7099 200.05 69.2199C199.92 69.0399 200.19 68.7999 200.32 68.9899C200.83 69.7099 200.03 70.4999 199.32 70.3399C198.32 70.1499 198.65 68.9999 199.23 68.5599Z" fill="#FFD357"/>
<path d="M196.92 75.5399L197.79 73.1899L200.25 73.3599L202.66 73.8299L196.92 75.5399Z" fill="#FFD357"/>
<path d="M196.92 75.5401L196.2 73.0901L195.15 74.5301L196.92 75.5401Z" fill="#FFD357"/>
<path d="M204.51 77.21C204.51 77.21 196.88 88.51 195.11 99.74C193.34 110.97 185.41 113.4 185.41 113.4C185.41 113.4 201.23 120.46 218.72 117.4C218.72 117.38 214.13 85.08 204.51 77.21Z" fill="#2483E2"/>
<path d="M153.107 122.007L185.375 124.014L185.463 122.597L153.196 120.59L153.107 122.007Z" fill="#AABFCE"/>
<path d="M185.35 124.04L200.08 122.7L200.17 121.29L185.44 122.63L185.35 124.04Z" fill="#BED0E2"/>
<path d="M200.17 121.29L163.61 117.94L153.17 120.62L185.44 122.63L200.17 121.29Z" fill="#DCE8EF"/>
<path d="M154.08 120.68L186.17 122.33L183.22 102.59L151.54 100.6L150.41 101.29L154.08 120.68Z" fill="#DCE8EF"/>
<path d="M153.3 120.63L185.44 122.63L182.69 103.64L150.41 101.29L153.3 120.63Z" fill="#BED0E2"/>
<path d="M203.84 80.29C203.84 80.29 203.84 80.64 203.72 81.29C203.37 84.7 202.52 96.29 206.21 105.6L196.83 114.35L213.34 109.24L212.09 97.09L203.84 80.29Z" fill="#2A2B3C"/>
<path d="M190.82 122.51C190.848 122.605 190.904 122.688 190.981 122.75C191.057 122.812 191.151 122.848 191.249 122.855C191.348 122.862 191.446 122.838 191.53 122.787C191.614 122.736 191.681 122.66 191.72 122.57V122.57C191.738 122.672 191.786 122.765 191.86 122.837C191.933 122.91 192.028 122.957 192.13 122.973C192.232 122.988 192.336 122.971 192.428 122.924C192.519 122.877 192.594 122.802 192.64 122.71C192.983 121.65 193.626 120.712 194.49 120.01C195.373 119.583 196.324 119.315 197.3 119.22C198.047 119.054 198.775 118.809 199.47 118.49C202.089 117.293 204.622 115.917 207.05 114.37C207.111 114.323 207.159 114.263 207.193 114.195C207.226 114.126 207.244 114.051 207.244 113.975C207.244 113.899 207.226 113.824 207.193 113.755C207.159 113.687 207.111 113.627 207.05 113.58L203.28 110.82C203.193 110.757 203.088 110.722 202.98 110.722C202.873 110.722 202.768 110.757 202.68 110.82C202.61 110.853 202.546 110.897 202.49 110.95C200.092 113.259 197.219 115.017 194.07 116.1C191.998 116.759 190.188 118.058 188.9 119.81C188.52 120.32 189.27 120.99 189.65 120.47C190.324 119.555 191.182 118.791 192.17 118.23C192.165 118.256 192.165 118.284 192.17 118.31C191.16 119.368 190.386 120.63 189.9 122.01C189.77 122.55 190.59 123 190.82 122.51Z" fill="#EA3E72"/>
<path d="M191.1 119.85C191.085 119.843 191.07 119.834 191.058 119.822C191.046 119.81 191.037 119.795 191.03 119.779C191.024 119.764 191.02 119.747 191.021 119.73C191.021 119.713 191.024 119.696 191.03 119.68C191.371 119.155 191.763 118.666 192.2 118.22C192.212 118.208 192.225 118.199 192.24 118.192C192.255 118.185 192.271 118.182 192.287 118.181C192.303 118.181 192.319 118.183 192.335 118.189C192.35 118.195 192.364 118.204 192.375 118.215C192.387 118.226 192.397 118.239 192.403 118.254C192.41 118.269 192.414 118.285 192.414 118.301C192.415 118.318 192.412 118.334 192.406 118.349C192.4 118.364 192.392 118.378 192.38 118.39C191.966 118.819 191.592 119.284 191.26 119.78C191.255 119.795 191.246 119.809 191.235 119.821C191.224 119.833 191.211 119.843 191.196 119.849C191.181 119.856 191.164 119.859 191.148 119.86C191.132 119.86 191.116 119.856 191.1 119.85V119.85Z" fill="#2A2B3C"/>
<path d="M190.82 122.63C190.789 122.619 190.763 122.596 190.748 122.566C190.733 122.536 190.73 122.502 190.74 122.47C191.26 121.062 192.047 119.768 193.06 118.66C193.085 118.639 193.117 118.627 193.15 118.627C193.183 118.627 193.215 118.639 193.24 118.66C193.263 118.684 193.276 118.716 193.276 118.75C193.276 118.784 193.263 118.816 193.24 118.84C192.252 119.917 191.484 121.178 190.98 122.55C190.976 122.566 190.968 122.581 190.957 122.594C190.946 122.608 190.933 122.618 190.918 122.626C190.903 122.633 190.886 122.638 190.869 122.638C190.853 122.639 190.836 122.636 190.82 122.63Z" fill="#2A2B3C"/>
<path d="M191.73 122.68H191.68C191.651 122.667 191.627 122.643 191.614 122.614C191.601 122.584 191.6 122.551 191.61 122.52C192.07 121.336 192.776 120.262 193.68 119.37C193.693 119.356 193.708 119.345 193.726 119.337C193.743 119.329 193.762 119.326 193.781 119.326C193.8 119.327 193.819 119.331 193.835 119.34C193.852 119.348 193.867 119.36 193.879 119.375C193.891 119.39 193.899 119.407 193.904 119.425C193.908 119.444 193.909 119.463 193.905 119.482C193.901 119.5 193.894 119.518 193.882 119.533C193.871 119.548 193.857 119.561 193.84 119.57C192.97 120.419 192.289 121.441 191.84 122.57C191.836 122.598 191.823 122.624 191.804 122.643C191.784 122.663 191.758 122.676 191.73 122.68V122.68Z" fill="#2A2B3C"/>
<path d="M205.26 77.67C202.03 78.97 204.64 99.15 209.75 107.03C214.86 114.91 226.06 113.24 226.08 110.47C226.1 107.7 211.88 75 205.26 77.67Z" fill="#4093F5"/>
<path d="M195.81 113.92C202.59 109.06 211.811 106.92 216.601 104.92C221.391 102.92 226.6 109.61 225.8 111.16C225 112.71 213.56 123.33 205.19 125.67C205.19 125.63 194.45 114.9 195.81 113.92Z" fill="#4093F5"/>
<path d="M215.83 87.8999C215.83 87.8999 221.35 103.9 220.83 108.44C220.31 112.98 205.17 125.63 205.17 125.63C205.17 125.63 210.09 124.3 217.91 118.75C224.96 113.75 226.25 111.46 226.06 110.47C225.87 109.48 223.59 100.57 215.83 87.8999Z" fill="#2483E2"/>
<path d="M206.59 73.48C205.67 71.92 204.24 71.7 204.34 69.48C204.46 66.83 202.66 67.02 201.63 64.78C201.591 64.715 201.538 64.6596 201.475 64.6181C201.411 64.5766 201.339 64.5501 201.264 64.5404C201.189 64.5308 201.113 64.5384 201.041 64.5625C200.969 64.5867 200.904 64.6269 200.85 64.68C199.986 65.4089 199.362 66.3812 199.06 67.47C198.979 67.4898 198.906 67.5339 198.85 67.5965C198.795 67.6591 198.76 67.737 198.75 67.82C198.609 68.909 198.27 69.963 197.75 70.93C197.446 71.3395 197.179 71.7745 196.95 72.23C196.71 73.03 196.95 73.14 197.32 73.84C197.76 74.7 198.26 75.84 197.7 76.84C197.55 77.09 196.46 78.6 197.94 79.45C198.173 79.5347 198.422 79.5669 198.669 79.5444C198.917 79.522 199.156 79.4453 199.37 79.32C200.59 78.86 200.31 78.42 201.87 78.66C202.52 78.76 202.63 79.21 203.45 78.93C203.98 78.75 204.15 78.25 204.59 77.93C205.344 77.5149 206.189 77.2917 207.05 77.28C207.158 77.2748 207.262 77.2365 207.348 77.1704C207.434 77.1042 207.497 77.0134 207.53 76.91C207.73 76.24 206.94 74.12 206.59 73.48Z" fill="#2A2B3C"/>
<path d="M198.92 67.1199C199.108 66.885 199.36 66.7092 199.646 66.6135C199.931 66.5178 200.238 66.5061 200.53 66.5799C201.42 66.9099 201.18 69.1499 199.53 69.0199C197.88 68.8899 198.92 67.1199 198.92 67.1199Z" fill="#E93E72"/>
<path d="M208.12 76.5499C208.12 76.5499 208.05 73.5499 206.79 72.5499C205.53 71.5499 205.19 70.5499 205.06 68.5499C205 67.5499 204.38 67.1799 203.72 66.7499C203.414 66.6047 203.142 66.3958 202.923 66.1371C202.704 65.8784 202.543 65.5759 202.45 65.2499C202.18 63.8199 200.17 62.3299 200.15 62.3099L200.3 62.1099C200.38 62.1699 202.41 63.6699 202.69 65.2099C202.81 65.8399 203.32 66.2099 203.86 66.5399C204.253 66.7215 204.592 67.0007 204.846 67.3509C205.1 67.701 205.26 68.1104 205.31 68.5399C205.44 70.4499 205.69 71.2599 206.95 72.3499C208.21 73.4399 208.37 76.4399 208.37 76.5599L208.12 76.5499Z" fill="#2A2B3C"/>
<path d="M196.41 78.6699C196.344 78.1292 196.491 77.5842 196.82 77.1499C197.076 76.7418 197.246 76.2858 197.32 75.8099C197.266 75.4175 197.126 75.0419 196.91 74.7099C196.433 73.9912 196.192 73.1419 196.22 72.2799C196.34 71.4599 198.33 69.7899 198.56 69.6099L198.72 69.7999C198.12 70.2899 196.55 71.6999 196.47 72.3099C196.452 73.1225 196.682 73.9213 197.13 74.5999C197.383 74.9674 197.535 75.3951 197.57 75.8399C197.488 76.3466 197.308 76.8324 197.04 77.2699C196.745 77.6509 196.605 78.1299 196.65 78.6099L196.41 78.6699Z" fill="#2A2B3C"/>
<path d="M110.3 60.0799C110.3 60.0799 114.52 70.6899 115.52 77.6299C115.52 77.6299 125.8 74.6299 132.8 75.3299C132.8 75.3299 129.98 64.3899 126.23 53.4099C120.8 55.3357 115.482 57.5624 110.3 60.0799V60.0799Z" fill="#2483E2"/>
<path d="M110.75 60.8799C112.387 66.6937 113.722 72.5882 114.75 78.5399C114.75 78.5399 124.56 77.9499 131.41 78.0899C131.653 77.8917 131.854 77.6474 132.001 77.3711C132.149 77.0947 132.24 76.7918 132.27 76.4799C132.27 76.4799 129.04 66.9299 125.49 55.1899C120.441 56.7155 115.514 58.6175 110.75 60.8799V60.8799Z" fill="white"/>
<path d="M125.53 55.1899C125.53 55.1899 125.33 57.5899 125.32 58.6099L131.45 78.0899C131.915 77.6689 132.218 77.0999 132.31 76.4799C132.31 76.4799 129.49 66.9999 125.53 55.1899Z" fill="#EDF1F4"/>
<path d="M110.3 60.08C110.3 60.08 109.9 61.67 109.44 63.25L111.17 62.85C111.253 61.4862 111.702 60.1699 112.47 59.04L110.3 60.08Z" fill="#2483E2"/>
<path d="M109.44 63.2499C109.44 63.2499 113.67 73.8499 114.67 80.7899C114.67 80.7899 124.04 79.3499 131.94 78.4899C129.33 71.6154 127.149 64.5852 125.41 57.4399C119.794 58.4473 114.392 60.4126 109.44 63.2499V63.2499Z" fill="#4093F6"/>
</g>
<defs>
<clipPath id="clip0">
<rect width="367.78" height="179.62" fill="white"/>
</clipPath>
</defs>
</svg>
