<svg width="497" height="469" viewBox="0 0 497 469" fill="none" xmlns="http://www.w3.org/2000/svg">
    <g clip-path="url(#clip0)">
        <path d="M237.757 468.829C205.574 469.039 176.945 468.554 148.957 460.958C144.558 459.724 140.304 458.022 136.267 455.881C130.709 452.995 128.087 448.548 128.14 442.185C128.253 427.378 128.223 412.563 128.048 397.738C127.969 391.927 130.001 387.61 135.114 384.79C136.486 384.134 137.772 383.31 138.942 382.337C150.53 371.212 163.757 377.679 176.446 378.795C182.909 379.359 189.332 380.526 195.808 380.985C231.871 383.544 268.065 383.767 303.485 376.538C317.42 373.705 325.771 379.713 335.327 386.076C338.63 388.266 339.85 391.861 339.876 395.731C339.954 411.644 339.954 427.544 339.994 443.458C339.994 451.158 334.475 454.281 328.641 457.036C317.512 462.283 305.504 464.474 293.457 466.022C275.001 468.512 256.369 469.451 237.757 468.829V468.829ZM134.97 397.03C135.704 397.64 136.484 398.192 137.303 398.683C139.073 399.496 140.869 400.283 142.704 400.939C167.165 409.676 192.793 411.146 218.343 412.274C233.769 412.896 249.219 412.647 264.617 411.526C281.271 410.469 297.817 408.109 314.104 404.468C321.012 402.881 328.156 401.123 333.859 396.781C267.698 413.507 201.681 413.376 134.97 396.964V397.03ZM160.702 385.813C174.074 397.082 293.195 397.371 307.628 386.259C258.679 393.357 210.215 394.052 160.702 385.748V385.813Z" fill="#F7B6B2"/>
        <path d="M294.099 277.858C302.738 274.303 311.141 275.444 319.006 279.734C324.171 282.515 329.126 285.677 334.121 288.773C338.198 291.318 339.731 295.332 339.771 299.898C339.876 316.021 339.889 332.131 339.928 348.254C339.928 352.596 337.791 355.548 334.186 357.817C323.057 364.849 310.485 367.263 297.822 369.231C270.464 373.455 242.856 373.98 215.236 373.035C191.207 372.209 167.1 371.133 144.028 363.065C130.04 358.185 128.1 355.522 128.087 340.986C128.087 327.697 128.166 314.407 127.956 301.118C127.864 295.28 129.844 291.134 135.192 288.432C140.541 285.729 145.391 282.633 150.504 279.734C161.41 273.529 172.487 277.569 183.512 279.209C181.48 284.378 177.403 288.025 173.942 292.144L155 287.435C160.244 292.315 166.732 293.286 173.274 293.994C172.999 299.832 176.21 301.091 181.034 299.596C183.81 298.564 186.524 297.373 189.162 296.028C198.063 298.245 207.226 298.192 216.258 298.559C240.582 299.457 264.94 298.554 289.131 295.857C300.116 299.334 300.85 299.137 303.406 292.276C307.426 292.189 311.341 290.976 314.706 288.773C310.184 287.461 306.841 290.255 303.21 289.77L294.099 277.858ZM147.777 306.378C167.152 312.531 187.248 314.788 207.344 315.43C234.466 316.309 261.681 316.992 288.698 313.003C297.311 311.691 306.015 310.681 314.798 307.756C314.068 307.091 313.165 306.646 312.193 306.472C311.222 306.298 310.221 306.402 309.306 306.772C292.578 310.931 275.419 312.138 258.39 312.767C221.253 314.145 184.128 313.699 147.777 304.122C143.962 303.427 140.764 300.37 135.494 300.803C139.597 304.411 143.674 305.447 147.777 306.378ZM334.029 299.819C322.703 302.521 318.089 304.765 317.472 307.454C323.437 305.631 329.415 304.227 334.042 299.858L334.029 299.819Z" fill="#FF7E79"/>
        <path d="M189.254 295.988C186.616 297.333 183.902 298.525 181.126 299.556C176.302 301.052 173.091 299.793 173.366 293.955L174.035 292.144C177.495 288.025 181.572 284.378 183.604 279.209C184.915 276.677 187.537 274.276 184.417 271.338C177.626 251.568 171.151 231.706 167.047 211.161L166.287 208.538L166.916 193.28L167.231 191.457C169.132 184.549 172.891 178.296 178.098 173.379C182.031 171.241 185.964 168.499 190.132 167.148C195.612 165.39 196.687 162.543 194.589 157.636C194.127 156.202 193.807 154.726 193.632 153.228L193.056 151.221C190.683 142.655 188.651 133.983 185.833 125.574C183.84 119.631 185.177 117.519 191.496 117.427C201.249 117.283 211.002 116.443 220.768 115.984C235.529 115.315 250.276 114.672 265.037 114.082L268.668 113.937C286.051 110.776 286.234 110.894 283.704 127.896C282.393 136.909 281.082 145.948 279.155 154.829C278.106 159.486 278.972 162.543 282.655 165.455C285.405 167.909 287.992 170.539 290.403 173.327C294.665 178.769 297.786 185.015 299.579 191.693L299.645 194.199V208.826C299.645 210.007 299.645 211.201 299.579 212.382C297.796 226.379 295.961 240.364 294.335 254.362C293.787 260.267 292.236 266.034 289.747 271.416C290.691 274.04 291.74 276.493 294.217 277.976L303.394 289.849L303.59 292.354C300.969 299.215 300.3 299.412 289.315 295.949L285.054 293.391C279.876 289.809 274.921 286.018 273.505 279.327C273.505 277.11 273.414 274.893 273.374 272.663C273.636 268.189 270.936 264.437 270.752 259.885C270.176 245.376 268.865 230.892 267.842 216.396L267.475 212.998L267.331 212.421C266.636 206.767 267.973 200.903 265.535 195.432C257.329 189.528 248.493 186.327 238.137 188.23C234.07 188.892 229.942 189.104 225.828 188.859C222.694 188.725 219.564 189.217 216.622 190.307C213.68 191.398 210.985 193.064 208.695 195.209C207.881 195.372 207.111 195.704 206.434 196.183C205.757 196.662 205.187 197.277 204.762 197.99C196.988 201.007 200.764 207.423 200.462 212.644V216.225C200.462 218.39 200.239 220.555 200.344 222.693C201.236 239.315 202.035 255.936 201.288 272.545C197.749 275.168 201.891 277.714 201.432 280.311C200.279 285.703 197.041 289.77 193.108 293.43C191.564 293.806 190.201 294.711 189.254 295.988V295.988ZM235.201 119.277V120.982C221.515 120.982 207.843 121.166 194.157 120.89C189.542 120.786 188.625 122.202 189.7 126.44C192.479 137.171 195.061 147.942 197.565 158.725C198.26 161.664 199.4 163.055 202.809 162.91C225.173 162.031 247.55 161.349 269.913 160.667C272.968 160.575 274.423 159.578 274.895 156.233C276.455 145.029 278.146 133.852 280.374 122.766C281.344 117.939 280.44 116.771 275.498 117.125C262.114 118.109 248.716 118.555 235.201 119.277V119.277ZM276.979 274.381C276.52 286.018 285.972 288.261 293.261 292.446C294.925 293.404 297.193 294.637 298.596 292.892C299.998 291.147 298.124 289.298 297.141 287.723C293.942 282.62 288.332 278.999 286.863 272.925C285.749 268.386 283.036 268.543 279.693 268.793C275.144 269.121 277.7 272.676 276.979 274.381V274.381ZM176.905 296.408C184.084 294.554 190.544 290.593 195.455 285.034C197.827 282.41 197.775 279.144 197.041 275.851C196.516 273.424 194.76 273.581 193.029 273.66C191.299 273.739 189.097 272.61 188.717 275.142C187.34 282.987 181.861 288.707 176.905 296.408V296.408Z" fill="#0A426F"/>
        <path d="M167.047 211.109C171.151 231.653 177.626 251.515 184.417 271.285C168.562 270.985 152.902 267.719 138.247 261.656C131.693 258.954 127.917 254.375 128.088 246.609C128.402 231.168 128.192 215.714 128.088 200.273C128.088 196.573 128.586 193.294 131.928 191.168C146.125 182.103 160.952 174.665 178.125 173.34C172.917 178.257 169.158 184.51 167.257 191.418C163.324 190.919 159.536 188.623 155.341 189.555C158.867 192.087 162.957 192.48 166.943 193.241L166.313 208.498C156.049 207.724 146.388 204.34 136.53 201.677C145.837 207.58 156.141 210.309 167.047 211.109Z" fill="#F6B6B2"/>
        <path d="M299.539 191.549C297.747 184.871 294.625 178.624 290.363 173.182C305.91 174.953 320.409 179.466 333.295 188.728C337.529 191.772 339.928 195.156 339.849 200.535C339.701 216.427 339.749 232.322 339.994 248.222C340.113 250.171 339.693 252.114 338.78 253.839C337.866 255.563 336.494 257.002 334.816 257.996C323.843 265.434 311.088 267.179 298.556 269.803C295.58 270.406 292.565 270.761 289.563 271.22C292.052 265.838 293.604 260.07 294.152 254.165C295.83 240.154 297.665 226.17 299.395 212.185C311.285 209.417 323.634 207.882 333.872 200.378C322.65 204.313 311.495 208.249 299.461 208.682C299.461 203.802 299.461 198.935 299.461 194.054C304.495 193.084 309.581 192.27 313.881 188.807L299.539 191.549Z" fill="#F6B6B2"/>
        <path d="M352.277 206.255C360.024 206.255 367.758 205.547 375.322 206.386C399.954 209.141 424.507 212.539 449.112 215.569C459.477 216.853 469.908 217.527 480.351 217.59C485.346 217.59 489.396 215.911 491.559 211.253C493.722 206.596 492.621 202.254 488.754 198.895C486.801 197.19 486.67 195.747 487.443 193.28C492.398 178.089 488.937 167.489 475.842 159.001C472.289 156.692 473.325 153.871 473.22 151.051C472.355 129.247 463.336 112.14 443.213 102.826C414.924 89.7069 382.912 107.982 376.581 140.083C376.024 142.411 375.66 144.78 375.492 147.168C375.388 149.791 374.339 150.841 371.861 151.667C353.902 157.715 346.954 173.799 354.702 191.024C355.318 192.336 356.353 193.543 355.029 196.035C348.239 188.099 347.452 179.243 349.406 170.296C351.49 160.706 357.074 153.071 366.644 149.686C370.891 148.178 372.019 145.869 372.556 141.815C376.489 112.521 401.199 92.252 429.934 94.5871C455.064 96.6468 476.379 120.366 477.31 147.837C477.244 149.823 477.669 151.795 478.547 153.578C479.425 155.36 480.729 156.899 482.344 158.056C492.831 166.531 495.99 177.735 492.831 190.853C492.228 193.359 491.271 195.406 493.644 197.911C498.087 202.608 497.694 208.288 494.954 213.733C492.215 219.177 487.745 221.604 481.728 221.604C461.631 221.67 441.824 218.81 422.016 215.858C400.295 212.631 378.639 208.918 356.602 208.485C354.977 208.42 353.011 208.879 352.277 206.255Z" fill="#194F79"/>
        <path d="M122.11 452.667C115.778 453.165 109.473 453.795 103.141 454.176C74.0478 455.925 44.9678 457.635 15.9009 459.305C7.4849 459.804 3.02779 457.39 0.759941 450.988C-1.62589 444.218 1.66447 437.292 9.21524 435.245C13.4232 434.117 13.4888 432.621 12.6629 429.027C8.73021 411.526 20.3841 396.374 38.54 395.495C41.3453 395.364 42.4727 394.511 43.6918 391.887C50.1283 377.574 63.814 369.323 77.9455 370.792C93.0601 372.366 105.107 383.242 108.516 398.683C108.92 400.797 110.001 402.722 111.596 404.167C118.151 410.254 120.563 417.771 119.199 426.6C118.977 428.003 117.98 429.525 119.199 430.955C120.156 432.097 120.759 433.33 118.819 433.868C117.583 434.226 116.265 434.18 115.057 433.736C113.366 433.028 114.323 431.637 114.769 430.43C116.08 426.915 116.997 423.294 116.08 419.568C115.424 416.852 115.031 413.428 113.196 411.697C107.349 406.305 105.632 399.024 102.459 392.268C97.0191 380.671 87.3315 374.255 74.3405 374.688C61.3496 375.121 52.3569 382.337 47.4279 394.131C45.7237 398.211 44.6094 400.126 39.3658 399.68C23.4122 398.368 11.837 415.895 18.1424 431.519C20.2923 436.767 20.2267 438.918 13.6985 438.813C7.85188 438.722 3.85371 442.893 4.41739 447.498C5.15149 453.572 9.22835 455.068 14.7079 454.818C47.9173 453.279 81.1266 451.801 114.336 450.384C116.866 450.266 119.396 450.384 121.913 450.384L122.11 452.667Z" fill="#1D527B"/>
        <path d="M193.056 151.182L193.632 153.189C186.999 153.766 180.523 153.885 174.113 151.103C164.452 146.892 158.933 140.162 160.244 129.824C164.177 99.2706 177.639 74.5809 205.915 59.7697C207.705 59.001 209.535 58.3266 211.395 57.7494C216.075 55.8996 219.26 56.0571 222.367 61.3833C230.233 74.7121 247.51 74.1873 255.14 60.2813C258.076 54.9288 261.366 54.5221 266.138 55.4273C273.483 56.6691 280.287 60.0873 285.67 65.2402C301.821 81.0747 312.151 100.215 315.506 122.583C317.958 138.916 302.725 154.068 285.959 152.979C285.959 149.621 289.026 150.356 290.717 149.87C308.926 144.465 315.926 132.658 310.512 114.633C306.13 99.7813 298.741 85.9914 288.803 74.1217C283.175 67.1101 275.439 62.1003 266.741 59.8353C263.28 58.9694 261.039 59.3367 258.771 62.9051C248.52 78.9363 230.18 79.5792 218.893 64.217C216.376 60.7798 214.213 61.1996 211.356 62.2098C198.129 66.9195 188.297 75.9059 180.405 87.1356C172.616 97.9167 167.18 110.218 164.452 123.239C161.227 139.532 168.686 149.359 185.295 150.71C187.878 150.985 190.473 151.051 193.056 151.182Z" fill="#1B507A"/>
        <path d="M237.587 61.2783C228.332 61.8555 217.425 49.1302 219.234 40.2881C219.876 37.1395 221.043 34.765 217.176 32.3249C216.49 31.8447 215.931 31.2039 215.548 30.4582C215.166 29.7126 214.971 28.8847 214.982 28.0467C214.992 27.2086 215.207 26.3858 215.608 25.6498C216.008 24.9138 216.583 24.287 217.281 23.8239C220.309 21.6199 221.069 19.088 221.541 15.7558C222.052 12.5135 223.409 9.46345 225.474 6.91364C229.892 1.24628 237.705 -1.46933 244.128 0.721528C250.931 3.04357 253.868 8.35672 254.379 15.1523C254.641 18.5763 254.379 21.7118 257.591 24.4405C260.37 26.7363 259.138 29.9766 256.739 32.443C255.874 33.3351 253.96 33.0596 254.746 35.5915C257.866 45.7587 256.267 50.1928 247.654 56.1094C244.351 58.379 242.738 64.2038 237.587 61.2783ZM236.905 16.9234C240.366 26.5001 241.611 28.0613 247.392 32.443C249.607 34.1091 250.958 34.0697 252.636 31.6821C253.802 30.0029 257.04 27.8645 254.602 26.6969C249.686 24.3355 251.141 20.5442 250.748 16.989C249.896 9.31441 246.474 5.02454 240.759 4.36859C234.427 3.63394 228.686 7.38592 226.169 13.9847C225.547 15.3748 225.145 16.8529 224.976 18.3664C224.845 21.7905 224.596 24.5979 220.322 25.6999C217.818 26.3558 217.307 29.8323 219.562 30.7507C222.669 32.0626 225.88 34.0828 230.049 31.4328C235.161 28.2318 234.637 22.7875 236.918 16.9234H236.905Z" fill="#181B5E"/>
        <path d="M352.369 361.727C362.043 359.523 371.626 360.9 381.484 362.724C381.34 361.688 381.484 360.73 381.156 360.612C375.834 358.264 371.98 355.614 374.667 348.516C374.944 347.783 375.034 346.992 374.929 346.215C374.825 345.438 374.53 344.699 374.07 344.064C373.61 343.43 373 342.919 372.294 342.579C371.588 342.239 370.809 342.079 370.027 342.114C365.543 342.272 365.386 340.068 365.085 336.644C364.285 327.46 362.148 326.608 354.925 331.895C353.077 333.206 353.077 333.206 345.041 331.068C350.796 330.504 354.729 325.821 359.946 324.732C365.989 323.498 367.051 329.166 368.545 333.338C369.253 335.332 368.886 337.352 371.914 338.021C377.512 339.254 379.662 343.793 379.006 348.91C378.43 353.357 380.225 354.984 383.804 356.584C389.336 359.051 394.632 362.055 400.007 364.875C401.318 365.558 402.969 366.187 402.393 368.194C401.908 369.861 400.321 369.598 399.115 369.362C383.66 366.345 368.126 363.878 352.369 361.727Z" fill="#1B507A"/>
        <path d="M268.668 113.898L265.037 114.042C267.108 111.209 264.696 108.231 265.299 105.332C265.784 102.97 264.775 100.15 267.711 98.103C270.582 103.456 268.301 108.782 268.668 113.898Z" fill="#2E5F85"/>
        <path d="M199.65 99.9397C202.416 105.41 201.328 109.635 201.21 113.741C201.21 114.633 200.436 115.499 199.571 115.236C199.2 115.061 198.873 114.803 198.617 114.483C198.36 114.162 198.18 113.787 198.09 113.387C197.265 108.849 197.808 104.168 199.65 99.9397Z" fill="#2E5F85"/>
        <path d="M134.97 396.964C201.681 413.376 267.698 413.507 333.859 396.715C328.157 401.057 321.012 402.815 314.104 404.403C297.817 408.044 281.272 410.403 264.617 411.461C249.219 412.581 233.769 412.831 218.343 412.208C192.793 411.08 167.218 409.585 142.704 400.874C140.869 400.218 139.073 399.431 137.303 398.617C136.484 398.126 135.704 397.574 134.97 396.964V396.964Z" fill="#FDF1F0"/>
        <path d="M160.703 385.748C210.216 394.078 258.68 393.357 307.628 386.194C293.195 397.305 174.074 397.017 160.703 385.748Z" fill="#FDF4F4"/>
        <path d="M147.777 304.069C184.128 313.646 221.188 314.092 258.391 312.715C275.432 312.085 292.579 310.878 309.306 306.719C310.221 306.349 311.222 306.245 312.194 306.42C313.166 306.594 314.068 307.039 314.799 307.703C306.016 310.681 297.311 311.718 288.699 312.951C261.681 316.887 234.467 316.257 207.344 315.378C187.248 314.735 167.152 312.479 147.777 306.326V304.069Z" fill="#FDF4F4"/>
        <path d="M189.254 295.988C190.143 294.69 191.454 293.739 192.964 293.299C203.595 295.923 214.515 295.175 225.277 295.778C245.19 296.88 265.05 294.047 284.962 293.273L289.223 295.831C265.031 298.516 240.674 299.415 216.35 298.52C207.318 298.153 198.155 298.205 189.254 295.988Z" fill="#FDF4F4"/>
        <path d="M173.995 292.144L173.327 293.955C166.772 293.286 160.349 292.315 155.053 287.395L173.995 292.144Z" fill="#FDF1F0"/>
        <path d="M334.043 299.858C329.415 304.227 323.412 305.631 317.486 307.493C318.102 304.843 322.717 302.561 334.043 299.858Z" fill="#FDF1F0"/>
        <path d="M147.777 304.069V306.378C143.661 305.447 139.584 304.411 135.494 300.75C140.777 300.317 143.976 303.374 147.777 304.069Z" fill="#FDF1F0"/>
        <path d="M303.498 292.236L303.302 289.731C306.972 290.216 310.276 287.369 314.798 288.733C311.433 290.936 307.518 292.15 303.498 292.236V292.236Z" fill="#FDF1F0"/>
        <path d="M201.144 272.453C201.891 255.818 201.144 239.197 200.2 222.601C200.095 220.463 200.279 218.298 200.318 216.134C222.393 216.986 244.456 216.868 266.531 216.212C266.938 216.212 267.344 216.291 267.75 216.304C268.773 230.8 270.084 245.284 270.661 259.793C270.844 264.345 273.545 268.097 273.282 272.571C249.227 273.581 225.186 275.234 201.144 272.453Z" fill="#F7B5B2"/>
        <path d="M235.201 119.277C248.651 118.595 262.114 118.109 275.537 117.125C280.479 116.771 281.384 117.939 280.414 122.766C278.185 133.852 276.481 145.069 274.934 156.233C274.462 159.578 273.007 160.575 269.953 160.667C247.589 161.349 225.212 161.979 202.848 162.91C199.44 163.055 198.299 161.664 197.605 158.725C195.061 147.942 192.479 137.171 189.739 126.44C188.664 122.255 189.582 120.786 194.196 120.89C207.882 121.166 221.555 120.982 235.24 120.982L235.201 119.277ZM234.886 133.826C230.246 134.573 227.178 136.935 227.349 141.946C227.519 146.958 230.285 149.66 235.214 149.621C240.143 149.581 242.909 146.354 242.857 141.749C242.804 137.145 239.658 134.364 234.886 133.826ZM244.849 126.781C244.744 124.905 243.342 124.406 241.388 124.629C237.81 125.023 236.145 127.319 235.699 130.585C235.385 132.92 237.246 132.776 238.727 132.724C242.241 132.579 244.194 130.638 244.849 126.781V126.781Z" fill="#FAFBFC"/>
        <path d="M284.963 293.273C265.05 294.047 245.19 296.88 225.277 295.778C214.515 295.175 203.595 295.923 192.964 293.299C196.897 289.678 200.135 285.611 201.288 280.18C225.33 279.97 249.398 281.492 273.387 279.17C274.829 285.9 279.785 289.691 284.963 293.273Z" fill="#F6B6B2"/>
        <path d="M265.444 195.314C267.882 200.784 266.545 206.649 267.226 212.303C258.234 214.612 249.057 213.693 239.973 213.615C226.759 213.47 213.48 214.809 200.305 212.539C200.607 207.291 196.831 200.903 204.605 197.885C205.792 198.43 207.05 198.805 208.341 199C225.737 199.092 243.145 199.158 260.541 199C262.402 199 265.194 199 265.129 195.668L265.444 195.314Z" fill="#F6B6B2"/>
        <path d="M273.413 279.209C249.398 281.584 225.33 280.009 201.314 280.219C201.773 277.596 197.63 275.103 201.17 272.453C225.212 275.234 249.253 273.581 273.269 272.545C273.322 274.775 273.374 276.992 273.413 279.209Z" fill="#FAFBFC"/>
        <path d="M208.603 195.091C210.893 192.946 213.588 191.28 216.53 190.189C219.472 189.099 222.602 188.607 225.736 188.741C229.85 188.986 233.978 188.774 238.045 188.112C248.401 186.209 257.237 189.424 265.443 195.314L265.128 195.681C262.31 195.681 259.465 195.393 256.673 195.681C240.628 197.059 224.595 197.57 208.603 195.091Z" fill="#F1B4B2"/>
        <path d="M276.98 274.381C277.701 272.676 275.144 269.134 279.693 268.793C283.036 268.543 285.75 268.386 286.864 272.925C288.332 278.999 293.943 282.62 297.141 287.723C298.124 289.298 300.025 291.16 298.596 292.892C297.167 294.624 294.926 293.404 293.261 292.446C285.972 288.261 276.521 286.018 276.98 274.381Z" fill="#F1F4F6"/>
        <path d="M176.905 296.408C181.834 288.707 187.392 282.987 188.703 275.09C189.136 272.558 191.456 273.686 193.016 273.607C194.576 273.529 196.503 273.371 197.028 275.798C197.762 279.144 197.814 282.358 195.441 284.981C190.541 290.557 184.086 294.537 176.905 296.408V296.408Z" fill="#F1F4F6"/>
        <path d="M200.305 212.526C213.414 214.795 226.759 213.457 239.972 213.602C249.057 213.694 258.233 214.612 267.226 212.29L267.383 212.88L266.531 216.173C244.456 216.829 222.393 216.947 200.318 216.094C200.318 214.914 200.318 213.72 200.305 212.526Z" fill="#FDF4F4"/>
        <path d="M208.603 195.091C224.596 197.57 240.628 197.059 256.673 195.642C259.466 195.393 262.31 195.642 265.129 195.642C265.194 198.922 262.402 198.961 260.54 198.974C243.145 199.105 225.736 199.04 208.341 198.974C207.049 198.779 205.792 198.404 204.604 197.859C205.038 197.141 205.619 196.524 206.308 196.047C206.997 195.57 207.779 195.244 208.603 195.091V195.091Z" fill="#FDF4F4"/>
        <path d="M299.579 208.682C311.613 208.262 322.769 204.327 333.99 200.378C323.752 207.934 311.404 209.469 299.514 212.185C299.527 211.057 299.553 209.863 299.579 208.682Z" fill="#FDF1F0"/>
        <path d="M167.048 211.109C156.141 210.309 145.837 207.58 136.504 201.677C146.362 204.3 156.023 207.724 166.287 208.498C166.537 209.364 166.799 210.23 167.048 211.109Z" fill="#FDF1F0"/>
        <path d="M299.54 191.549L314.025 188.859C309.726 192.27 304.639 193.084 299.606 194.107C299.592 193.228 299.566 192.388 299.54 191.549Z" fill="#FDF1F0"/>
        <path d="M166.917 193.241C162.984 192.48 158.842 192.087 155.315 189.555C159.51 188.623 163.26 190.867 167.232 191.418L166.917 193.241Z" fill="#FDF1F0"/>
        <path d="M266.531 216.186L267.383 212.893C267.501 214.021 267.632 215.15 267.75 216.278C267.344 216.265 266.938 216.239 266.531 216.186Z" fill="#F6B6B2"/>
        <path d="M236.918 16.9234C234.651 22.8269 235.175 28.2318 230.102 31.4328C225.92 34.0566 222.708 32.0232 219.615 30.7507C217.36 29.8323 217.871 26.3558 220.375 25.6999C224.648 24.5979 224.898 21.7642 225.029 18.3664C225.198 16.8529 225.6 15.3748 226.222 13.9847C228.739 7.42528 234.48 3.63394 240.812 4.3686C246.527 5.02454 249.988 9.31441 250.801 16.989C251.194 20.5442 249.739 24.3355 254.655 26.6969C257.093 27.8645 253.855 30.0029 252.689 31.6821C251.024 34.0697 249.674 34.1091 247.445 32.443C241.612 28.035 240.366 26.5001 236.918 16.9234ZM239.619 17.6055C242.673 16.4773 245.793 18.6026 248.061 16.5954C249.044 15.7295 247.196 13.9716 245.728 13.5649C242.739 12.804 240.34 13.3419 239.606 17.6055H239.619ZM234.467 16.11C234.169 15.3089 233.598 14.639 232.854 14.2188C232.111 13.7986 231.243 13.6553 230.403 13.8142C228.621 14.1815 226.916 15.2704 227.624 17.2907C228.542 19.9145 230.456 17.0808 231.963 17.6055C232.986 17.9729 234.637 18.3533 234.454 16.11H234.467Z" fill="#F1F4F6"/>
        <path d="M234.887 133.826C239.658 134.364 242.752 136.974 242.844 141.697C242.936 146.42 240.222 149.568 235.201 149.568C230.181 149.568 227.519 146.748 227.336 141.894C227.152 137.04 230.246 134.573 234.887 133.826Z" fill="#0E4772"/>
        <path d="M244.849 126.781C244.194 130.638 242.227 132.579 238.727 132.724C237.246 132.724 235.385 132.92 235.699 130.585C236.145 127.319 237.81 125.023 241.388 124.629C243.342 124.406 244.784 124.905 244.849 126.781Z" fill="#194F79"/>
        <path d="M239.605 17.6055C240.34 13.3419 242.739 12.804 245.714 13.5649C247.183 13.9453 249.031 15.7295 248.048 16.5954C245.78 18.6025 242.66 16.4773 239.605 17.6055Z" fill="#2E5F85"/>
        <path d="M234.454 16.11C234.638 18.3533 232.986 17.9729 231.95 17.6056C230.443 17.0808 228.529 19.9407 227.611 17.2907C226.903 15.2704 228.608 14.1815 230.39 13.8142C231.23 13.6553 232.098 13.7987 232.842 14.2188C233.585 14.639 234.157 15.3089 234.454 16.11V16.11Z" fill="#2E5F85"/>
    </g>
    <defs>
        <clipPath id="clip0">
            <rect width="497" height="469" fill="white"/>
        </clipPath>
    </defs>
</svg>
