<svg width="368" height="192" viewBox="0 0 368 192" fill="none" xmlns="http://www.w3.org/2000/svg">
    <g clip-path="url(#clip0)">
        <path d="M367.78 186.55C367.78 189.14 285.45 191.25 183.89 191.25C82.33 191.25 0 189.15 0 186.55C0 183.95 82.33 181.86 183.89 181.86C285.45 181.86 367.78 183.96 367.78 186.55Z" fill="#EDF1F4"/>
        <path d="M24.5 103.43C24.5 103.43 38.5 100.5 50.43 108.49C62.36 116.48 65.98 136.26 65.98 136.26L28.05 111.86L24.5 103.43Z" fill="#BED0E2"/>
        <path d="M105.67 87.15C104.51 87.72 104.19 88.84 103.73 89.93C103.27 91.36 105.22 91.44 105.55 91.25C105.88 91.06 106.55 91.07 106.82 90.96C107.373 90.7173 107.842 90.3174 108.17 89.81C108.58 89.19 109.35 85.29 108.3 86.03C107.484 86.5324 106.598 86.9099 105.67 87.15V87.15Z" fill="#EA3E72"/>
        <path d="M109.48 83.7301C109.48 83.4801 109.41 83.0401 109 83.1201C108.59 83.2001 108.35 84.2601 108.19 84.9501C108.064 85.6612 107.714 86.3132 107.19 86.8101C106.7 87.2801 106.19 87.7001 105.64 88.1201C105.36 88.3401 105.64 88.66 105.94 88.44L106.27 88.1801C106.27 88.3501 106.43 88.4501 106.61 88.3601C107.775 87.8912 108.709 86.9823 109.21 85.83C109.377 85.1422 109.468 84.4379 109.48 83.7301Z" fill="#EA3E72"/>
        <path d="M111.64 86.55C111.78 86.31 112.08 85.62 111.87 85.47C111.29 85.03 110.51 86.47 110.03 87.1C109.589 87.7013 108.975 88.1546 108.27 88.4C107.66 88.607 107.039 88.7806 106.41 88.92C106.09 89 106.15 89.46 106.47 89.38L106.85 89.29C106.75 89.44 106.7 90.04 106.85 90.05C108.149 89.977 109.37 89.4078 110.26 88.46C110.778 87.8667 111.24 87.2274 111.64 86.55Z" fill="#EA3E72"/>
        <path d="M110.5 89.79C110.74 89.64 111.25 89.3 111.18 89.04C110.98 88.28 109.72 89.14 109.03 89.47C108.42 89.8053 107.713 89.9184 107.03 89.79C106.477 89.6599 105.933 89.4963 105.4 89.3C105.12 89.2 104.9 89.68 105.18 89.77L105.51 89.89C105.34 89.98 104.72 90.48 104.85 90.59C105.391 90.9083 105.996 91.1037 106.622 91.1625C107.248 91.2212 107.878 91.1419 108.47 90.93C109.181 90.6143 109.86 90.2326 110.5 89.79V89.79Z" fill="#EA3E72"/>
        <path d="M111 84.7501C111.09 84.5001 111.25 83.8901 111 83.7501C110.43 83.5201 109.83 84.9301 109.48 85.5901C109.166 86.2672 108.648 86.8298 108 87.2001C107.427 87.5349 106.836 87.8387 106.23 88.1101C105.91 88.2601 106.09 88.6701 106.4 88.5201L106.77 88.3501C106.7 88.5201 106.77 88.9201 106.99 88.8801C108.256 88.6007 109.368 87.8499 110.1 86.7801C110.466 86.1344 110.767 85.4545 111 84.7501V84.7501Z" fill="#EA3E72"/>
        <path d="M106.88 85.36C107.18 84.94 106.73 84.57 106.34 84.91C105.63 85.4578 105.033 86.1368 104.58 86.91C104.317 87.6258 104.211 88.3897 104.27 89.15C104.27 89.33 104.44 89.35 104.58 89.28C104.617 89.3041 104.66 89.3169 104.705 89.3169C104.749 89.3169 104.792 89.3041 104.83 89.28C105.67 88.69 105.99 88.18 105.95 87.42C106.006 86.6448 106.335 85.9148 106.88 85.36V85.36Z" fill="#EA3E72"/>
        <path d="M107.72 87.2C108.127 87.4769 108.427 87.8847 108.571 88.3558C108.715 88.8268 108.693 89.3329 108.51 89.7899C108.385 88.8904 108.118 88.0162 107.72 87.2V87.2Z" fill="#EA3E72"/>
        <path d="M106.39 87.62C106.39 87.62 106.9 88.32 106.14 89.48C106.442 89.0999 106.675 88.6702 106.83 88.21C106.827 88.0779 106.784 87.9499 106.705 87.8441C106.626 87.7382 106.516 87.6598 106.39 87.62V87.62Z" fill="#EA3E72"/>
        <path d="M106.94 91.15C105.967 91.3201 105.084 91.8219 104.44 92.57C102.92 93.99 101.91 94.8 101.91 94.8C101.91 94.8 99.1396 92.95 99.9996 92.39C100.86 91.83 104.2 89.12 104.32 88.18C104.44 87.24 105.55 88.98 105.55 88.98L106.94 91.15Z" fill="#EA3E72"/>
        <path d="M106.5 89.62C106.474 89.6292 106.445 89.6292 106.42 89.62C106.409 89.6107 106.4 89.5991 106.395 89.5862C106.389 89.5733 106.386 89.5592 106.386 89.545C106.386 89.5309 106.389 89.5168 106.395 89.5039C106.4 89.491 106.409 89.4794 106.42 89.47C106.698 89.2089 106.87 88.8535 106.902 88.4728C106.933 88.0921 106.822 87.7133 106.59 87.41C106.579 87.4016 106.571 87.3909 106.565 87.3788C106.559 87.3667 106.556 87.3535 106.556 87.34C106.556 87.3266 106.559 87.3134 106.565 87.3013C106.571 87.2891 106.579 87.2785 106.59 87.27C106.608 87.2517 106.633 87.2415 106.66 87.2415C106.686 87.2415 106.711 87.2517 106.73 87.27C106.986 87.6167 107.106 88.0455 107.068 88.475C107.029 88.9045 106.834 89.3048 106.52 89.6C106.514 89.6077 106.507 89.6145 106.5 89.62V89.62Z" fill="#2A2B3C"/>
        <path d="M16.9996 88.67C15.7196 88.55 18.3196 91.55 18.9996 91.89C19.5361 92.1746 20.1463 92.2897 20.7496 92.22C21.0296 92.22 21.7496 91.84 21.9996 91.85C22.2496 91.86 21.1496 88.27 19.8596 88.34C18.9284 88.5934 17.9641 88.7047 16.9996 88.67V88.67Z" fill="#EA3E72"/>
        <path d="M14.8496 87.27C14.7096 87.06 14.5696 86.64 14.9696 86.5C15.3696 86.36 16.0896 87.17 16.5696 87.69C17.0392 88.2483 17.6783 88.6381 18.3896 88.8C19.0396 88.97 19.7196 89.07 20.3896 89.18C20.7396 89.23 20.6396 89.66 20.2896 89.6L19.8696 89.54C19.9796 89.67 19.8696 89.85 19.6696 89.86C18.4256 90.0273 17.1656 89.7006 16.1596 88.95C15.6603 88.4418 15.2208 87.8781 14.8496 87.27V87.27Z" fill="#EA3E72"/>
        <path d="M14.3604 90.7799C14.1204 90.6499 13.5304 90.1999 13.6304 89.9699C13.9204 89.2899 15.3204 90.1799 16.0404 90.4699C16.7199 90.7775 17.4776 90.8683 18.2104 90.7299C18.8424 90.6099 19.4668 90.4529 20.0804 90.2599C20.4004 90.1699 20.5804 90.5999 20.2604 90.6899L19.8804 90.8099C20.0504 90.8899 20.3904 91.3799 20.2204 91.4799C19.0585 92.0676 17.7131 92.1788 16.4704 91.7899C15.7386 91.5164 15.0325 91.1784 14.3604 90.7799V90.7799Z" fill="#EA3E72"/>
        <path d="M16.9596 93.04C16.6696 93.04 16.0596 92.98 15.9596 92.73C15.7696 91.97 17.2896 92.09 18.0496 92.03C18.7473 92.0271 19.421 91.7753 19.9496 91.32C20.3707 90.9375 20.765 90.5266 21.1296 90.09C21.3196 89.86 21.7496 90.17 21.5496 90.4L21.3296 90.66C21.5096 90.66 22.3296 90.78 22.2396 90.94C21.925 91.4873 21.4926 91.9579 20.9737 92.3176C20.4549 92.6773 19.8626 92.9172 19.2396 93.02C18.4819 93.0979 17.7186 93.1046 16.9596 93.04Z" fill="#EA3E72"/>
        <path d="M14.0297 88.9C13.8297 88.73 13.3897 88.28 13.5597 88.08C13.9397 87.59 15.1597 88.52 15.7897 88.93C16.4001 89.3559 17.1255 89.586 17.8697 89.59C18.5373 89.5985 19.2049 89.5718 19.8697 89.51C19.9281 89.51 19.984 89.5332 20.0253 89.5745C20.0666 89.6157 20.0897 89.6717 20.0897 89.73C20.0897 89.7884 20.0666 89.8444 20.0253 89.8856C19.984 89.9269 19.9281 89.95 19.8697 89.95H19.4597C19.5997 90.06 19.7197 90.46 19.5297 90.52C18.2917 90.9041 16.9538 90.8003 15.7897 90.23C15.1604 89.8461 14.5709 89.4006 14.0297 88.9Z" fill="#EA3E72"/>
        <path d="M17.92 87.4C17.45 87.19 17.66 86.64 18.16 86.75C19.0435 86.8572 19.8967 87.1393 20.67 87.58C21.2495 88.0757 21.7166 88.6893 22.04 89.38C22.12 89.53 21.99 89.63 21.84 89.64C21.8168 89.679 21.7825 89.7102 21.7416 89.7298C21.7007 89.7493 21.6549 89.7564 21.61 89.75C20.61 89.65 20.06 89.38 19.72 88.69C19.2859 88.0661 18.6503 87.6106 17.92 87.4Z" fill="#EA3E72"/>
        <path d="M18.1 89.41C17.8805 89.8526 17.8193 90.3571 17.9266 90.8393C18.034 91.3216 18.3034 91.7524 18.69 92.06C18.3496 91.215 18.1502 90.3197 18.1 89.41V89.41Z" fill="#EA3E72"/>
        <path d="M19.4596 89.15C19.4596 89.15 19.3596 90.01 20.5896 90.63C20.1384 90.4504 19.7221 90.1932 19.3596 89.87C19.2984 89.7548 19.275 89.6231 19.293 89.4938C19.311 89.3646 19.3693 89.2442 19.4596 89.15V89.15Z" fill="#EA3E72"/>
        <path d="M20.7803 92.49L24.5503 95.9001C24.5503 95.9001 27.3403 93.9001 26.3203 93.8401C25.3003 93.7801 22.1603 89.36 21.6003 88.6C21.0403 87.84 20.9203 89.91 20.9203 89.91L20.7803 92.49Z" fill="#EA3E72"/>
        <path d="M20.2999 90.93C19.8832 90.822 19.5193 90.5675 19.2751 90.213C19.0308 89.8585 18.9225 89.4279 18.9699 89C18.9699 88.9735 18.9804 88.9481 18.9992 88.9293C19.0179 88.9106 19.0434 88.9 19.0699 88.9V88.9C19.0973 88.9025 19.1228 88.9152 19.1413 88.9356C19.1598 88.9559 19.17 88.9825 19.1699 89.01C19.1169 89.3881 19.2062 89.7725 19.4205 90.0885C19.6349 90.4044 19.959 90.6295 20.3299 90.72C20.3439 90.7208 20.3575 90.7248 20.3697 90.7317C20.3818 90.7386 20.3922 90.7483 20.4 90.76C20.4077 90.7716 20.4127 90.7849 20.4144 90.7988C20.4161 90.8127 20.4146 90.8268 20.4099 90.84C20.4086 90.8532 20.4048 90.866 20.3986 90.8776C20.3924 90.8893 20.3839 90.8996 20.3737 90.908C20.3634 90.9163 20.3516 90.9226 20.339 90.9264C20.3263 90.9302 20.313 90.9314 20.2999 90.93V90.93Z" fill="#2A2B3C"/>
        <path d="M71.6695 74.08C70.322 73.4203 69.1319 72.4789 68.1796 71.3196C67.2272 70.1602 66.535 68.81 66.1495 67.36V67.36C66.3895 66.23 66.8895 64.54 65.8895 63.86C65.0895 63.31 65.0995 62.79 64.3995 63.24C62.1495 64.69 61.3995 68.32 61.0595 70.92C60.8395 72.49 60.8695 76.92 61.5495 77.41C62.7395 78.32 70.1795 76.06 71.6695 74.95C71.744 74.9044 71.8055 74.8405 71.8482 74.7643C71.8909 74.6881 71.9133 74.6023 71.9133 74.515C71.9133 74.4277 71.8909 74.3418 71.8482 74.2657C71.8055 74.1895 71.744 74.1256 71.6695 74.08Z" fill="#2A2B3C"/>
        <path d="M91.7802 126.36C91.6902 128.18 91.6702 130 91.6802 131.82V131.97C91.6802 134.42 91.6802 136.88 91.6802 139.32C91.6857 142.43 91.5154 145.539 91.1702 148.63C90.3202 155.83 87.2702 170.17 86.9902 172.63C86.9902 172.92 86.9902 173.05 86.9902 173.01C94.3902 173.71 102.32 173.74 107.33 175.68C110.33 167.93 116.01 140.39 113.56 131.04C112.99 128.65 92.0502 121.27 91.7802 126.36Z" fill="#2483E2"/>
        <path d="M87.0504 173.03C86.9204 172.14 106.97 174.31 107.38 175.7C107.95 177.6 87.4404 175.64 87.0504 173.03Z" fill="#17171D"/>
        <path d="M93.3798 173.15C92.9698 175.73 91.9498 180.92 91.8998 181.47C91.7264 182.787 91.931 184.125 92.4898 185.33C94.0998 182.79 95.9098 182.51 99.1698 183.22C102.24 183.88 108.3 185.39 107.8 185.12C105.98 184.02 102.28 182.97 100.7 181.12C100.573 180.989 100.465 180.841 100.38 180.68C100.19 180.34 100.12 178.98 100.72 174.08C98.3082 173.538 95.8505 173.226 93.3798 173.15V173.15Z" fill="#E93E72"/>
        <path d="M92.8596 186.4C92.9696 186.54 93.0696 186.62 93.1496 186.62C94.0496 186.62 94.2696 184.07 94.8396 184.27C102.57 186.94 108.74 187.27 109.34 186.7C109.403 186.653 109.453 186.591 109.484 186.519C109.516 186.447 109.528 186.368 109.52 186.29C109.46 185.54 107.93 184.53 107.28 184.29C105.019 183.359 102.819 182.29 100.69 181.09C97.9004 182.273 94.7761 182.401 91.8996 181.45C91.6379 183.161 91.9771 184.91 92.8596 186.4Z" fill="#3F4261"/>
        <path d="M100.11 180.08C101.66 182.13 105.35 183.44 105.35 183.44C105.35 183.44 102.6 184.6 91.9004 181.44C91.9004 181.44 98.7804 178.33 100.11 180.08Z" fill="#E93E72"/>
        <path d="M93.1501 186.62C94.0501 186.62 94.2701 184.07 94.8401 184.27C102.57 186.94 108.74 187.27 109.34 186.7C109.403 186.653 109.453 186.591 109.485 186.519C109.516 186.447 109.528 186.368 109.52 186.29C105.32 186.85 101.61 185.47 97.6701 184.36C94.6701 183.52 94.4801 182.83 93.3601 185.88C93.2901 185.98 93.0701 186.62 93.1501 186.62Z" fill="#2A2B3B"/>
        <path d="M113.87 132.15C112.69 122.42 80.4901 112.54 75.7201 110.59C72.3501 109.22 67.1801 110.71 63.4201 111.34C56.3501 112.53 52.9101 116.79 53.8001 126.97C54.3801 133.5 63.0901 135.19 69.1101 137.18C76.5401 139.64 97.8401 141.12 98.4001 141.25C105.08 142.83 114.93 140.84 113.87 132.15Z" fill="#2483E2"/>
        <path d="M85.4404 118.69C85.4404 118.69 109.13 123.22 111.01 130.97C112.89 138.72 93.1904 171.6 93.1904 171.6L106.51 133.15L85.4404 118.69Z" fill="#17171D"/>
        <path d="M109.51 132.48C109.505 132.46 109.505 132.44 109.51 132.42C108.32 122.7 74.5098 116.22 69.7698 114.27C66.3998 112.9 62.7698 110.99 59.0498 111.62C55.1298 112.28 52.3298 113.88 50.7698 116.91C49.4998 119.35 49.0298 122.71 49.4298 127.25C50.0098 133.78 58.7198 135.47 64.7398 137.46C69.2898 138.97 79.0398 140.1 86.0498 140.79C88.3198 141.01 90.2998 141.18 91.7198 141.31C93.1398 141.44 93.9298 141.5 94.0398 141.52C99.6898 142.82 107.6 141.61 109.26 135.96C109.498 135.173 109.609 134.352 109.59 133.53C109.57 133.2 109.55 132.84 109.51 132.48Z" fill="#4093F6"/>
        <path d="M109.57 133.98C109.23 127.66 90.5699 121.15 88.8999 125.98C88.2899 127.69 87.7399 129.44 87.2199 131.17C87.2153 131.22 87.2153 131.27 87.2199 131.32C86.4899 133.66 85.8199 136.02 85.0999 138.32C84.204 141.298 83.1389 144.223 81.9099 147.08C79.0099 153.72 71.9099 166.55 70.9099 168.85C70.7999 169.12 70.7599 169.24 70.8199 169.21C77.6899 172.03 85.2699 174.36 89.4899 177.68C94.6099 171.14 105.63 146.5 108.76 137.35C109.046 136.581 109.289 135.796 109.49 135C109.49 134.93 109.49 134.87 109.49 134.8C109.554 134.532 109.581 134.256 109.57 133.98V133.98Z" fill="#4093F6"/>
        <path d="M92.6398 137.33C92.4698 138.07 92.1398 139.47 91.7098 141.33C89.5898 150.44 80.1298 168.07 80.7098 172.77C80.7098 172.77 71.8898 169.1 70.8098 169.25C70.8098 169.25 76.7298 157.6 80.6698 149.77C82.2497 146.905 83.3732 143.811 83.9998 140.6C76.9998 139.91 69.2898 138.99 64.7398 137.48C58.7398 135.48 50.0098 133.8 49.4298 127.27C49.0298 122.73 49.4998 119.37 50.7698 116.93L53.6798 115.1C53.6798 115.1 60.6798 128.91 73.0698 131.41C78.7598 132.56 83.5598 132.98 86.9898 133.52C91.0298 134.15 93.1798 134.95 92.6398 137.33Z" fill="#2483E2"/>
        <path d="M70.78 169.24C70.92 168.34 89.47 176.24 89.46 177.7C89.46 179.68 70.4 171.85 70.78 169.24Z" fill="#17171D"/>
        <path d="M66.1003 75.81C68.8703 73.72 80.9003 89.31 91.4003 97.21C98.9103 102.85 85.9003 111.94 83.5203 110.54C81.1403 109.14 60.3903 80.15 66.1003 75.81Z" fill="#EDF1F4"/>
        <path d="M102.04 86.35C94.3897 89.67 87.7997 96.44 83.5897 99.54C79.3797 102.64 82.4697 110.54 84.2097 110.63C85.9497 110.72 100.95 106.4 107.21 100.42C107.26 100.42 103.58 85.69 102.04 86.35Z" fill="#EDF1F4"/>
        <path d="M69.9502 79.21C69.9502 79.21 82.7802 103.46 86.9502 105.35C91.1202 107.24 107.31 100.42 107.31 100.42C107.31 100.42 103.63 103.95 94.8602 107.81C86.9502 111.29 84.2402 111.29 83.5702 110.54C67.8702 93.15 71.7802 95.08 69.9502 79.21Z" fill="#E4EAEF"/>
        <path d="M42.6104 118.8C42.6104 118.8 47.1704 79.97 55.8904 76.25C63.0204 73.25 69.6604 75.25 70.9904 82.77C72.2104 89.69 74.4903 98.71 75.9203 102.29C77.3503 105.87 81.6604 112.59 81.6604 112.59C81.6604 112.59 60.3504 122.2 42.6104 118.8Z" fill="#EDF1F4"/>
        <path d="M66.4295 70.84C66.4295 70.84 65.4295 74.5299 65.4295 75.4299C65.2428 76.0192 64.8967 76.5452 64.4295 76.95C62.6895 75.86 61.3295 76.24 60.7695 75.75C61.3772 74.2537 61.8426 72.7035 62.1595 71.12C62.4095 69.15 66.4295 70.84 66.4295 70.84Z" fill="#E93E72"/>
        <path d="M60.4902 67.92C60.4902 67.92 62.4902 73.03 65.8602 72.44C69.2302 71.85 65.6302 64.97 65.0802 64.87C64.5302 64.77 61.1302 64.74 60.4902 67.92Z" fill="#E93E72"/>
        <path d="M63.0005 63.15L62.9205 63.2C60.3405 62.77 58.6505 65.73 59.3405 68.26C59.6005 69.21 60.8105 70.83 61.8905 69.77C62.4305 69.24 62.4505 68.1 62.5305 67.41C62.5533 67.0771 62.5533 66.743 62.5305 66.41C62.732 66.4453 62.9359 66.4654 63.1405 66.4701C64.5792 66.6736 66.0281 66.7971 67.4805 66.84C67.6115 66.8351 67.7358 66.7808 67.8285 66.6881C67.9212 66.5954 67.9755 66.4711 67.9805 66.34C68.0905 63.92 65.0705 62.34 63.0005 63.15Z" fill="#2A2B3C"/>
        <path d="M64.4197 76.95L63.5497 74.61L61.0897 74.77L58.6797 75.24L64.4197 76.95Z" fill="#FFD357"/>
        <path d="M64.4199 76.95L65.1399 74.5L66.1899 75.94L64.4199 76.95Z" fill="#FFD357"/>
        <path d="M56.7803 78.62C56.7803 78.62 64.4203 89.92 66.1803 101.15C67.9403 112.38 75.8803 114.81 75.8803 114.81C75.8803 114.81 60.0603 121.88 42.5703 118.81C42.6103 118.8 47.2103 86.49 56.7803 78.62Z" fill="#E4EAEF"/>
        <path d="M60.4805 80.15C60.0775 85.2272 59.0359 90.2334 57.3805 95.05C54.6305 103.05 48.0805 112.25 43.4805 113.58L45.4805 101.34L60.4805 80.15Z" fill="#2A2B3C"/>
        <path d="M59.4702 74.94C56.5202 73.09 41.7002 87.02 38.3102 95.77C34.9202 104.52 42.8302 112.63 45.0802 111.03C47.3302 109.43 65.5202 78.74 59.4702 74.94Z" fill="#EDF1F4"/>
        <path d="M24.5596 88.52C32.4696 91.16 39.5596 97.35 44.0696 100.07C48.5796 102.79 46.0696 110.92 44.3996 111.18C42.7296 111.44 27.3996 108.4 20.5596 102.98C20.5596 102.98 22.9696 87.99 24.5596 88.52Z" fill="#EDF1F4"/>
        <path d="M72.05 180.24C72.0599 180.365 72.1089 180.484 72.19 180.58C72.96 181.05 74.44 178.92 74.84 179.39C80.18 185.58 85.36 188.94 86.16 188.77C86.2372 188.757 86.3102 188.726 86.3728 188.679C86.4355 188.632 86.4859 188.57 86.52 188.5C86.84 187.82 86.03 186.18 85.59 185.64C84.0977 183.703 82.7315 181.672 81.5 179.56C78.4943 179.183 75.7269 177.73 73.71 175.47C72.624 176.821 72.0377 178.506 72.05 180.24V180.24Z" fill="#3F4261"/>
        <path d="M81.4997 178.41C81.8097 180.96 84.3397 183.95 84.3397 183.95C84.3397 183.95 81.3397 183.56 73.7197 175.46C73.7197 175.46 81.2297 176.23 81.4997 178.41Z" fill="#E93E72"/>
        <path d="M72.1904 180.58C72.9604 181.05 74.4404 178.92 74.8404 179.39C80.1804 185.58 85.3604 188.94 86.1604 188.77C86.2376 188.757 86.3106 188.726 86.3733 188.679C86.4359 188.632 86.4864 188.57 86.5204 188.5C82.6004 186.88 80.0804 183.82 77.2304 180.89C75.0704 178.66 75.2304 177.96 72.7504 180.03C72.6404 180.09 72.1304 180.53 72.1904 180.58Z" fill="#2A2B3B"/>
        <path d="M65.8496 75.6401C64.7091 74.6649 63.7899 73.4575 63.1535 72.0986C62.5172 70.7396 62.1783 69.2605 62.1596 67.76C62.6796 66.76 63.5896 65.22 62.7796 64.3C62.1396 63.58 62.2796 63.08 61.4896 63.3C58.9596 64.14 57.3296 67.48 56.3496 69.91C55.7496 71.38 54.6896 75.65 55.2096 76.32C56.1396 77.49 63.9096 77.15 65.6296 76.44C65.7073 76.414 65.7774 76.3692 65.8337 76.3097C65.8901 76.2501 65.9309 76.1776 65.9526 76.0986C65.9743 76.0196 65.9763 75.9364 65.9584 75.8565C65.9404 75.7765 65.9031 75.7022 65.8496 75.6401Z" fill="#2A2B3C"/>
        <path d="M62.4196 68.53C62.2312 68.2951 61.9793 68.1193 61.6939 68.0235C61.4084 67.9278 61.1015 67.9161 60.8096 67.99C59.9096 68.32 60.1496 70.56 61.7596 70.43C63.3696 70.3 62.4196 68.53 62.4196 68.53Z" fill="#E93E72"/>
        <path d="M62.0999 69.97C61.9199 69.84 61.6899 70.11 61.8699 70.24C62.0499 70.37 62.5899 71.11 62.1299 71.37C61.6699 71.63 60.9399 71.12 61.2799 70.64C61.4099 70.45 61.1499 70.22 61.0199 70.4C60.5099 71.12 61.2999 71.91 62.0199 71.75C63.0199 71.56 62.6799 70.39 62.0999 69.97Z" fill="#FFD357"/>
        <path d="M35.7396 132.218L25.7471 187.532L26.7311 187.71L36.7237 132.396L35.7396 132.218Z" fill="#2A2B3B"/>
        <path d="M59.8854 132.202L58.9014 132.38L68.9036 187.693L69.8876 187.515L59.8854 132.202Z" fill="#2A2B3B"/>
        <path d="M51.0954 132.206L50.1113 132.384L60.1135 187.697L61.0976 187.519L51.0954 132.206Z" fill="#2A2B3B"/>
        <path d="M24.5004 103.43C24.5004 103.43 47.6804 118.55 65.6404 137.74C65.6404 137.74 44.4604 140.26 33.8204 131.16C23.1804 122.06 24.5004 103.43 24.5004 103.43Z" fill="#92CEFF"/>
        <path d="M63.4001 153.23H32.3701V154.23H63.4001V153.23Z" fill="#2A2B3B"/>
        <path d="M217.54 112.28H77.8701V114.95H217.54V112.28Z" fill="#2A2B3B"/>
        <path d="M78.0397 188.15H77.9697C77.9041 188.143 77.8408 188.122 77.7834 188.09C77.726 188.057 77.6757 188.014 77.6355 187.961C77.5954 187.909 77.5662 187.849 77.5497 187.786C77.5333 187.722 77.5298 187.655 77.5397 187.59L87.5397 113.59C87.5488 113.524 87.5709 113.461 87.6045 113.404C87.6381 113.347 87.6827 113.297 87.7356 113.257C87.7885 113.217 87.8488 113.188 87.913 113.171C87.9772 113.155 88.044 113.151 88.1097 113.16C88.1753 113.169 88.2385 113.191 88.2957 113.225C88.3528 113.258 88.4028 113.303 88.4427 113.356C88.4826 113.409 88.5118 113.469 88.5284 113.533C88.545 113.598 88.5488 113.664 88.5397 113.73L78.5397 187.73C78.5205 187.848 78.4595 187.956 78.3677 188.033C78.2759 188.11 78.1595 188.152 78.0397 188.15Z" fill="#2A2B3C"/>
        <path d="M121.18 188.15C121.061 188.149 120.946 188.105 120.856 188.026C120.766 187.947 120.707 187.838 120.69 187.72L110.69 113.72C110.672 113.587 110.707 113.453 110.787 113.346C110.868 113.239 110.988 113.169 111.12 113.15C111.253 113.131 111.388 113.166 111.494 113.247C111.601 113.328 111.672 113.447 111.69 113.58L121.69 187.58C121.7 187.645 121.697 187.712 121.68 187.776C121.664 187.839 121.635 187.899 121.595 187.951C121.554 188.004 121.504 188.047 121.447 188.08C121.389 188.112 121.326 188.133 121.26 188.14L121.18 188.15Z" fill="#2A2B3C"/>
        <path d="M176.13 188.15H176.06C175.929 188.133 175.81 188.064 175.729 187.959C175.649 187.854 175.613 187.721 175.63 187.59L185.63 113.59C185.639 113.524 185.66 113.46 185.694 113.403C185.727 113.346 185.772 113.295 185.825 113.255C185.878 113.215 185.938 113.186 186.003 113.17C186.067 113.153 186.134 113.15 186.2 113.16C186.332 113.18 186.451 113.251 186.532 113.357C186.612 113.464 186.647 113.598 186.63 113.73L176.63 187.73C176.609 187.847 176.548 187.954 176.456 188.03C176.365 188.107 176.249 188.149 176.13 188.15Z" fill="#2A2B3C"/>
        <path d="M219.28 188.15C219.158 188.151 219.041 188.108 218.949 188.029C218.857 187.95 218.797 187.84 218.78 187.72L208.78 113.72C208.762 113.588 208.798 113.454 208.878 113.347C208.959 113.241 209.078 113.17 209.21 113.15C209.341 113.133 209.474 113.169 209.578 113.249C209.683 113.33 209.752 113.449 209.77 113.58L219.77 187.58C219.779 187.645 219.776 187.712 219.76 187.776C219.743 187.839 219.714 187.899 219.674 187.951C219.634 188.004 219.583 188.047 219.526 188.08C219.469 188.112 219.405 188.133 219.34 188.14L219.28 188.15Z" fill="#2A2B3C"/>
        <path d="M140.49 108.95H136.71L143.71 90.65H147.5L140.49 108.95Z" fill="#BED0E2"/>
        <path d="M140.49 108.95H100.09V112.28H140.49V108.95Z" fill="#BED0E2"/>
        <path d="M243.78 38.48C243.61 36.96 240.78 40.7 240.53 41.55C240.325 42.235 240.325 42.965 240.53 43.65C240.64 43.97 241.21 44.65 241.27 45.01C241.33 45.37 242.96 47.12 243.87 45.58C244.47 44.32 245.21 43.16 244.81 41.69C244.305 40.6786 243.958 39.5961 243.78 38.48V38.48Z" fill="#4C5072"/>
        <path d="M244.85 35.64C245.06 35.43 245.51 35.16 245.77 35.64C246.03 36.12 245.27 37.11 244.77 37.79C244.241 38.4718 243.946 39.3068 243.93 40.17C243.93 40.96 243.93 41.77 243.93 42.57C243.93 42.99 243.44 42.96 243.42 42.57V42.07C243.29 42.23 243.06 42.15 242.99 41.91C242.496 40.5111 242.571 38.9737 243.2 37.63C243.669 36.9034 244.223 36.2354 244.85 35.64Z" fill="#4C5072"/>
        <path d="M240.66 35.94C240.76 35.62 241.13 34.82 241.43 34.88C242.28 35.06 241.59 36.88 241.43 37.8C241.243 38.6634 241.323 39.5633 241.66 40.38C241.957 41.0645 242.29 41.7322 242.66 42.38C242.85 42.73 242.39 43.04 242.21 42.69L241.99 42.28C241.94 42.49 241.44 43.01 241.29 42.84C240.334 41.6324 239.88 40.1036 240.02 38.57C240.154 37.6759 240.368 36.7956 240.66 35.94V35.94Z" fill="#4C5072"/>
        <path d="M238.67 39.49C238.62 39.16 238.53 38.49 238.81 38.3C239.64 37.89 239.87 39.67 240.12 40.54C240.299 41.3386 240.756 42.0475 241.41 42.54C241.955 42.934 242.527 43.2915 243.12 43.61C243.43 43.78 243.17 44.34 242.87 44.17L242.5 43.97C242.5 44.19 242.6 45.13 242.4 45.1C241.694 44.8695 241.048 44.4866 240.507 43.9785C239.966 43.4705 239.544 42.8496 239.27 42.16C238.986 41.291 238.785 40.397 238.67 39.49V39.49Z" fill="#4C5072"/>
        <path d="M242.78 35.1501C242.93 34.8701 243.34 34.2501 243.62 34.3901C244.28 34.7201 243.5 36.3901 243.18 37.1801C242.832 37.9931 242.738 38.8925 242.91 39.7601C243.06 40.5401 243.28 41.3001 243.5 42.0501C243.517 42.085 243.526 42.123 243.527 42.1617C243.527 42.2004 243.52 42.2388 243.504 42.2743C243.489 42.3098 243.466 42.3416 243.437 42.3675C243.409 42.3933 243.375 42.4127 243.338 42.4243C243.301 42.4359 243.262 42.4394 243.223 42.4346C243.185 42.4298 243.148 42.4168 243.115 42.3965C243.082 42.3762 243.054 42.349 243.032 42.3168C243.011 42.2847 242.996 42.2483 242.99 42.2101L242.86 41.7501C242.77 41.9401 242.34 42.1701 242.22 41.9601C241.472 40.6214 241.264 39.0469 241.64 37.5601C241.937 36.7198 242.319 35.9122 242.78 35.1501V35.1501Z" fill="#4C5072"/>
        <path d="M245.44 39.23C245.57 38.63 246.26 38.74 246.26 39.35C246.344 40.3969 246.222 41.4503 245.9 42.45C245.471 43.2377 244.874 43.9208 244.15 44.45C244 44.58 243.85 44.45 243.8 44.28C243.75 44.2641 243.706 44.2337 243.674 44.1926C243.642 44.1516 243.623 44.1019 243.62 44.05C243.496 43.6109 243.504 43.1455 243.64 42.7105C243.777 42.2755 244.037 41.8896 244.39 41.6C245.001 40.9537 245.372 40.117 245.44 39.23V39.23Z" fill="#4C5072"/>
        <path d="M243.16 39.93C242.596 39.783 241.998 39.8338 241.467 40.074C240.936 40.3142 240.503 40.7293 240.24 41.25C241.135 40.6537 242.121 40.2079 243.16 39.93V39.93Z" fill="#4C5072"/>
        <path d="M243.78 41.44C243.78 41.44 242.78 41.53 242.33 43.1C242.429 42.5369 242.625 41.9955 242.91 41.5C243.031 41.4005 243.179 41.3413 243.335 41.3305C243.491 41.3198 243.647 41.358 243.78 41.44V41.44Z" fill="#4C5072"/>
        <path d="M240.24 43.72C240.24 43.72 241.01 44.6 240.94 47.06C240.87 49.52 240.94 51.06 240.94 51.06C240.94 51.06 244.76 52.06 244.58 50.87C244.4 49.68 244.19 44.57 244.93 43.73C245.67 42.89 243.26 43.26 243.26 43.26L240.24 43.72Z" fill="#4C5072"/>
        <path d="M242.06 42.95C242.043 42.9501 242.027 42.9467 242.012 42.94C241.996 42.9334 241.983 42.9236 241.971 42.9114C241.96 42.8992 241.951 42.8847 241.946 42.869C241.941 42.8533 241.938 42.8366 241.94 42.82C241.96 42.3128 242.163 41.8301 242.513 41.462C242.863 41.094 243.334 40.8658 243.84 40.82C243.856 40.8155 243.872 40.8146 243.889 40.8174C243.905 40.8202 243.92 40.8267 243.934 40.8363C243.947 40.8459 243.959 40.8584 243.966 40.8729C243.974 40.8874 243.979 40.9035 243.98 40.92C243.986 40.9531 243.979 40.9872 243.96 41.0152C243.941 41.0431 243.913 41.0628 243.88 41.07C243.429 41.0998 243.006 41.2968 242.694 41.6224C242.381 41.948 242.201 42.3787 242.19 42.83C242.188 42.8637 242.173 42.8954 242.149 42.9193C242.125 42.9432 242.094 42.9577 242.06 42.96V42.95Z" fill="#2A2B3C"/>
        <path d="M321.91 40.28C320.83 41.36 320.91 42.74 320.8 44.13C320.8 45.91 323.05 45.26 323.34 44.91C323.63 44.56 324.4 44.33 324.66 44.1C325.186 43.6189 325.559 42.9925 325.73 42.3C325.95 41.44 325.32 36.79 324.43 38.02C323.709 38.8962 322.859 39.6582 321.91 40.28V40.28Z" fill="#4C5072"/>
        <path d="M324.87 35.01C324.8 34.72 324.54 34.27 324.1 34.51C323.66 34.75 323.81 36.03 323.9 36.87C324.021 37.7236 323.863 38.5934 323.45 39.35C323.09 40.06 322.65 40.74 322.23 41.41C322 41.77 322.46 42 322.69 41.65L322.95 41.23C322.95 41.43 323.23 41.48 323.41 41.3C324.528 40.3274 325.224 38.9572 325.35 37.48C325.285 36.641 325.124 35.8123 324.87 35.01V35.01Z" fill="#4C5072"/>
        <path d="M328.37 37.34C328.44 37.02 328.51 36.14 328.22 36.04C327.39 35.77 327.09 37.7099 326.78 38.5699C326.514 39.4162 325.998 40.1621 325.3 40.7099C324.696 41.1695 324.069 41.5968 323.42 41.9899C323.09 42.2099 323.34 42.6999 323.67 42.4899L324.06 42.2399C324 42.4499 324.18 43.14 324.39 43.08C325.817 42.5001 326.966 41.3938 327.6 39.9899C327.943 39.1341 328.201 38.2465 328.37 37.34V37.34Z" fill="#4C5072"/>
        <path d="M328.34 41.4101C328.55 41.1501 328.99 40.5701 328.81 40.3001C328.29 39.5401 327.21 40.9801 326.56 41.6101C326.013 42.2292 325.259 42.6274 324.44 42.7301C323.776 42.8054 323.108 42.8322 322.44 42.8101C322.09 42.8101 322.04 43.4301 322.38 43.4301H322.78C322.63 43.5901 322.12 44.3801 322.31 44.4301C323.037 44.5846 323.79 44.5751 324.513 44.4021C325.236 44.2291 325.911 43.897 326.49 43.4301C327.169 42.8165 327.788 42.1402 328.34 41.4101V41.4101Z" fill="#4C5072"/>
        <path d="M326.96 35.57C326.96 35.25 326.91 34.51 326.6 34.5C325.87 34.5 325.74 36.26 325.6 37.14C325.5 38.0187 325.134 38.8458 324.55 39.51C324.034 40.1056 323.486 40.6731 322.91 41.21C322.62 41.5 322.98 41.89 323.27 41.6L323.62 41.27C323.62 41.48 323.86 41.89 324.07 41.77C325.379 40.9742 326.334 39.7076 326.74 38.23C326.907 37.3536 326.98 36.4619 326.96 35.57V35.57Z" fill="#4C5072"/>
        <path d="M322.59 37.83C322.77 37.25 322.11 37.01 321.81 37.54C321.22 38.4081 320.806 39.3831 320.59 40.41C320.574 41.3105 320.751 42.204 321.11 43.03C321.18 43.23 321.37 43.19 321.5 43.03C321.551 43.0408 321.604 43.036 321.652 43.0164C321.7 42.9968 321.741 42.9632 321.77 42.92C322.094 42.5995 322.319 42.1919 322.416 41.7464C322.514 41.301 322.481 40.8368 322.32 40.41C322.107 39.5448 322.203 38.6324 322.59 37.83V37.83Z" fill="#4C5072"/>
        <path d="M324.23 39.5699C324.792 39.7222 325.285 40.0621 325.627 40.5333C325.969 41.0045 326.14 41.5785 326.11 42.16C325.626 41.2019 324.991 40.3275 324.23 39.5699V39.5699Z" fill="#4C5072"/>
        <path d="M322.9 40.55C322.9 40.55 323.75 41.14 323.34 42.72C323.531 42.1803 323.629 41.6123 323.63 41.04C323.573 40.8936 323.473 40.7682 323.342 40.6806C323.212 40.593 323.058 40.5474 322.9 40.55V40.55Z" fill="#4C5072"/>
        <path d="M324.89 44.32C324.89 44.32 323.79 44.69 322.63 46.86C321.47 49.03 320.63 50.33 320.63 50.33C320.63 50.33 316.82 49.33 317.56 48.33C318.3 47.33 321.01 43.05 320.78 41.95C320.55 40.85 322.47 42.37 322.47 42.37L324.89 44.32Z" fill="#4C5072"/>
        <path d="M323.78 42.75C323.757 42.7584 323.732 42.7584 323.71 42.75C323.698 42.7388 323.689 42.7256 323.683 42.711C323.677 42.6964 323.674 42.6808 323.674 42.665C323.674 42.6492 323.677 42.6335 323.683 42.619C323.689 42.6044 323.698 42.5911 323.71 42.58C323.919 42.1805 323.974 41.7175 323.863 41.2801C323.753 40.8426 323.484 40.4615 323.109 40.21C323.098 40.1988 323.089 40.1856 323.083 40.171C323.077 40.1564 323.074 40.1408 323.074 40.125C323.074 40.1092 323.077 40.0935 323.083 40.079C323.089 40.0644 323.098 40.0511 323.109 40.04C323.134 40.0168 323.166 40.0038 323.2 40.0038C323.233 40.0038 323.265 40.0168 323.29 40.04C323.707 40.332 324.004 40.7666 324.124 41.262C324.243 41.7574 324.178 42.2795 323.94 42.73C323.931 42.7423 323.919 42.7526 323.906 42.7603C323.893 42.768 323.879 42.773 323.864 42.7749C323.849 42.7767 323.834 42.7755 323.819 42.7712C323.805 42.7669 323.791 42.7597 323.78 42.75V42.75Z" fill="#2A2B3C"/>
        <path d="M247.62 185.35C247.62 186.24 263.16 188.29 264.15 187.08C264.15 187.08 264.42 186.56 264.47 186.49C259.25 186.9 251.71 185.72 247.74 184.93C247.72 184.97 247.63 185.31 247.62 185.35Z" fill="#2A2B3B"/>
        <path d="M272.1 179.15C275.32 170.44 275.92 161.24 276.16 152.03C276.43 141.87 280.29 111.69 281.16 106.62C281.79 103.03 282.9 99.12 281.48 95.62C278.82 88.95 262.19 87.62 261.88 87.89C257.16 92.44 258.11 100.34 257.44 106.64C256.61 114.42 256.01 122.28 255.76 130.1C255.53 137.51 251.29 177.25 251.76 176.83C257.83 178.89 267.61 180.74 272.1 179.15Z" fill="#3F4261"/>
        <path d="M273.09 102.45C273.09 102.45 270.09 139.27 268.58 145.79C267.07 152.31 265.49 174.04 260.95 179.1C260.95 179.1 267.95 180.55 272.1 179.1C272.1 179.1 275.28 170.46 276.01 156.3C276.74 142.14 282.19 111.22 282.19 111.22L273.09 102.45Z" fill="#343751"/>
        <path d="M273.41 107.33L279.66 126.65L276.83 146.24L273.41 107.33Z" fill="#2A2B3B"/>
        <path d="M257.78 106.69H257.42C257.386 106.685 257.356 106.668 257.334 106.643C257.311 106.617 257.299 106.584 257.3 106.55C257.305 106.517 257.322 106.488 257.348 106.467C257.374 106.447 257.407 106.437 257.44 106.44C257.44 106.44 259.44 106.58 260.35 105.69C261.26 104.8 261.35 98.87 261.35 96.59C261.352 96.5573 261.367 96.5267 261.391 96.5044C261.415 96.4822 261.447 96.4699 261.48 96.47V96.47C261.496 96.4699 261.513 96.4733 261.528 96.48C261.543 96.4866 261.557 96.4964 261.568 96.5086C261.58 96.5208 261.588 96.5352 261.594 96.551C261.599 96.5667 261.601 96.5834 261.6 96.6C261.6 96.94 261.48 104.91 260.52 105.87C259.733 106.46 258.762 106.751 257.78 106.69V106.69Z" fill="#2A2B3C"/>
        <path d="M272.85 176.82C272.17 176.82 256.19 176.61 251.85 173.63C251.829 173.605 251.817 173.573 251.817 173.54C251.817 173.507 251.829 173.475 251.85 173.45C251.874 173.427 251.907 173.414 251.94 173.414C251.974 173.414 252.006 173.427 252.03 173.45C256.32 176.39 272.74 176.6 272.9 176.6C272.917 176.6 272.933 176.603 272.949 176.61C272.964 176.617 272.977 176.626 272.989 176.639C273 176.651 273.009 176.665 273.014 176.681C273.019 176.697 273.022 176.713 273.02 176.73C273.017 176.748 273.01 176.766 272.999 176.781C272.988 176.796 272.974 176.809 272.958 176.818C272.941 176.826 272.923 176.831 272.904 176.832C272.886 176.832 272.867 176.828 272.85 176.82V176.82Z" fill="#2A2B3C"/>
        <path d="M279.639 141.64C286.714 142.053 293.799 141.033 300.47 138.64C299.21 130.74 299.469 121.88 298.799 115.64C298.454 110.978 297.708 106.354 296.57 101.82C292.95 89.5101 285.63 95.1701 272.97 95.7501C271.05 102.04 279.489 140.88 279.639 141.64Z" fill="#3F4261"/>
        <path d="M297.59 134.28C292.59 139.46 286.29 138.68 279.64 141.64C284.73 151.05 296.42 170.74 303.51 175.98C305.91 177.77 310.33 174.23 313.45 171.5L313.53 171.43C321.25 164.63 319.83 163.62 319.58 163.55C312.4 161.57 305.42 144.57 297.59 134.28Z" fill="#3F4261"/>
        <path d="M319.58 163.55C313.34 158.04 300.86 139.03 300.63 137.08C300.31 134.23 299.63 123.58 299.05 116.41C298.36 107.69 296.05 94.79 296.05 94.79L281.55 96.59C281.55 96.59 292.42 135.42 296.81 140.84C301.03 146.03 312.29 164.84 313.44 171.5L313.52 171.43C321.25 164.63 319.78 163.72 319.58 163.55Z" fill="#343751"/>
        <path d="M304.78 176.44C303.94 175.95 318.51 163.1 319.86 163.92C321.67 165.02 307.1 177.84 304.78 176.44Z" fill="#2A2B3B"/>
        <path d="M319.61 173.15C319.245 171.858 318.516 170.699 317.51 169.81C316.51 168.81 315.66 168.15 314.71 167.13C312.73 168.578 310.862 170.173 309.12 171.9C310.29 173.41 310.39 173.7 310.59 174.77C310.616 174.949 310.616 175.131 310.59 175.31C310.59 177.77 308.04 180.82 307.39 182.84C307.289 183.051 307.23 183.279 307.218 183.513C307.206 183.746 307.241 183.98 307.32 184.2C308.23 185.95 320.43 175.97 319.61 173.15Z" fill="#4C5072"/>
        <path d="M307.29 183.91C307.3 183.987 307.324 184.062 307.36 184.13C308.26 186.13 320.78 175.94 319.97 173.13C319.952 172.965 319.912 172.804 319.85 172.65C319.297 171.518 318.497 170.524 317.51 169.74C317.51 169.74 317.51 169.74 317.51 169.74C315.954 172.34 313.511 174.29 310.63 175.23C310.63 177.4 308.69 180 307.75 181.96C307.353 182.527 307.188 183.225 307.29 183.91V183.91Z" fill="#4093F6"/>
        <path d="M307.29 183.91C307.3 183.987 307.323 184.062 307.36 184.13C308.26 186.13 320.78 175.94 319.97 173.13C319.951 172.965 319.911 172.804 319.85 172.65C319.053 174.41 317.911 175.991 316.49 177.3C313.856 180.051 310.737 182.292 307.29 183.91V183.91Z" fill="#2A2B3B"/>
        <path d="M301.31 174.15C301.299 174.155 301.287 174.157 301.275 174.157C301.263 174.157 301.251 174.155 301.24 174.15C301.229 174.139 301.22 174.126 301.214 174.111C301.208 174.096 301.205 174.081 301.205 174.065C301.205 174.049 301.208 174.034 301.214 174.019C301.22 174.004 301.229 173.991 301.24 173.98C306.79 165.9 316.92 160.92 317.02 160.87C317.035 160.863 317.051 160.859 317.067 160.857C317.083 160.856 317.099 160.858 317.114 160.863C317.13 160.868 317.144 160.877 317.156 160.887C317.168 160.898 317.178 160.911 317.185 160.925C317.193 160.939 317.197 160.955 317.198 160.971C317.199 160.987 317.197 161.004 317.192 161.019C317.187 161.034 317.179 161.048 317.168 161.061C317.158 161.073 317.145 161.083 317.13 161.09C317.03 161.14 306.96 166.09 301.44 174.09C301.429 174.114 301.41 174.133 301.386 174.144C301.363 174.155 301.336 174.157 301.31 174.15V174.15Z" fill="#2A2B3C"/>
        <path d="M275.52 57.94C266.9 49.94 251.4 59.18 243.4 64.1C235.4 69.02 236.78 75.63 240.78 76.29C253.05 78.35 280.78 62.82 275.52 57.94Z" fill="#EDF1F4"/>
        <path d="M249.67 46.38C250.31 54.9 248.96 68.77 246.35 73.29C243.74 77.81 237.03 73.79 236.15 72.29C234.48 69.39 234.15 57.48 235.65 45.62C235.65 45.61 249.54 44.71 249.67 46.38Z" fill="#EDF1F4"/>
        <path d="M234.98 52.58C234.98 52.58 231.41 70.38 239.11 76.02C242.31 78.37 262.53 72.97 262.53 72.97L264.94 64.08C264.94 64.08 245.32 73.72 241.68 73.24C238.04 72.76 234.98 52.58 234.98 52.58Z" fill="#E4EAEF"/>
        <path d="M258.28 95.74C258.28 95.74 277.07 100.74 296.9 97.22L296.28 92.52L258.28 95.74Z" fill="#2A2B3B"/>
        <path d="M265.68 56.15C265.68 56.15 261.57 58.44 259.08 68.71C257.77 74.09 256.34 85.71 256.34 85.71L263.44 80.12L265.68 56.15Z" fill="#17171D"/>
        <path d="M297.78 95.42C297.78 95.42 293.25 60.28 282.83 54.25C276.13 50.37 265.78 53.79 263.47 58.88C258.96 68.81 256.33 95.38 256.33 95.38C256.33 95.38 280.44 100.43 297.78 95.42Z" fill="#E93E72"/>
        <path d="M271.26 48.03C271.26 48.03 271.38 52.03 271.51 52.91C271.732 53.4793 272.105 53.9772 272.59 54.35C274.26 53.16 275.64 53.44 276.17 52.91C275.694 51.329 275.484 49.6798 275.55 48.03C275.55 46.03 271.26 48.03 271.26 48.03Z" fill="#4C5072"/>
        <path d="M276.09 44.81C276.09 44.81 275.16 50.21 271.75 50.32C268.34 50.43 270.47 42.96 270.98 42.75C271.49 42.54 274.83 41.82 276.09 44.81Z" fill="#4C5072"/>
        <path d="M280.34 55.0699C280.34 55.0699 275.34 59.94 275.39 64.86C275.44 69.78 281.33 78.11 280.39 85.36C279.45 92.61 272.95 97.4399 272.95 97.4399C272.95 97.4399 286.31 98.15 293.47 96.59C300.63 95.03 293.83 75.6599 293.83 75.6599L280.34 55.0699Z" fill="#D32A6B"/>
        <path d="M279.59 58.29C279.27 46.5 302.21 58.67 309.37 64.75C316.53 70.83 307.94 79.57 305.2 79.24C302.46 78.91 279.89 68.89 279.59 58.29Z" fill="#EDF1F4"/>
        <path d="M316.52 44.1501C310.71 50.4301 303.08 65.5601 302.31 70.7201C301.54 75.8801 307.6 79.7201 309.31 79.2401C314.56 77.7901 327.08 61.2401 328.99 50.2401C328.96 50.2001 317.65 42.9401 316.52 44.1501Z" fill="#EDF1F4"/>
        <path d="M277.01 41.52L277.81 41.43C278.44 41.36 278.45 40.36 277.81 40.43L276.58 40.57C276.632 40.3968 276.669 40.2195 276.69 40.04C276.76 39.4 275.76 39.4 275.69 40.04C275.671 40.1755 275.641 40.3092 275.6 40.44C275.098 39.9226 274.449 39.5732 273.74 39.44C272.25 39.13 270.04 39.18 268.87 40.32C268.678 40.4997 268.524 40.7156 268.415 40.9552C268.307 41.1948 268.247 41.4534 268.238 41.7163C268.23 41.9792 268.274 42.2411 268.367 42.4871C268.46 42.7331 268.6 42.9584 268.78 43.15C269.443 43.5438 270.212 43.7221 270.98 43.66C271.981 43.7128 272.985 43.6793 273.98 43.56C274.308 43.8979 274.584 44.282 274.8 44.7C275.24 45.8 274.9 47.22 275.3 48.41C275.334 48.5031 275.394 48.5846 275.473 48.6449C275.552 48.7051 275.646 48.7416 275.745 48.75C275.844 48.7584 275.943 48.7384 276.031 48.6923C276.118 48.6463 276.191 48.576 276.24 48.49C276.311 48.464 276.373 48.419 276.42 48.36L276.67 48.02C276.714 48.0027 276.754 47.9791 276.79 47.95C277.252 47.5578 277.626 47.0737 277.89 46.5284C278.154 45.9832 278.301 45.3889 278.321 44.7836C278.342 44.1783 278.236 43.5754 278.01 43.0134C277.785 42.4514 277.444 41.9427 277.01 41.52Z" fill="#17171D"/>
        <path d="M274.33 45.79C274.466 45.5207 274.677 45.2968 274.938 45.1458C275.199 44.9948 275.499 44.9233 275.8 44.94C276.74 45.08 276.96 47.33 275.36 47.52C273.76 47.71 274.33 45.79 274.33 45.79Z" fill="#4C5072"/>
        <path d="M284.87 67.22C284.87 67.22 298.11 79.22 306.7 79.95C316.7 80.78 324.39 60.36 326.06 58.7C326.06 58.7 310.83 77.81 305.87 76.17C300.91 74.53 284.87 67.22 284.87 67.22Z" fill="#E4EAEF"/>
        <path d="M272.59 54.36L273.74 56.7L276.81 52.6L276.01 52.4L272.59 54.36Z" fill="#F2F8FF"/>
        <path d="M272.59 54.36L270.86 55.61V53.4L271.51 52.91L272.59 54.36Z" fill="#F2F8FF"/>
        <path d="M120.87 45.22L183.62 45.22V37.72L120.87 37.72V45.22Z" fill="#EDF1F4"/>
        <path d="M144.49 37.72H152.24V8.08997H144.49V37.72Z" fill="#92CEFF"/>
        <path d="M144.48 8.07996H142.79V37.71H144.48V8.07996Z" fill="#EDF1F4"/>
        <path d="M162.106 37.9473L169.524 35.7034L160.946 7.34248L153.527 9.58636L162.106 37.9473Z" fill="#92CEFF"/>
        <path d="M153.533 9.61407L151.915 10.1025L160.479 38.4679L162.097 37.9794L153.533 9.61407Z" fill="#EDF1F4"/>
        <path d="M134.67 37.71H141.73V16.46H134.67V37.71Z" fill="#FFD357"/>
        <path d="M134.68 16.46H133.14V37.71H134.68V16.46Z" fill="#EDF1F4"/>
        <path d="M164.78 91.68C164.78 91.68 168.31 105.79 168.31 112.51C168.31 112.51 196.7 112 207.78 112.51C207.78 112.51 204.78 97.99 206.66 90.27C206.65 90.27 175.35 92.15 164.78 91.68Z" fill="white"/>
        <path d="M164.78 91.68C163.064 91.6255 161.381 91.1954 159.85 90.42C159.85 90.42 162.75 108.42 162.42 112.13L168.31 112.51C168.31 112.51 168.17 99.78 164.78 91.68Z" fill="#EDF1F4"/>
        <path d="M206.71 107.4C206.71 107.4 193.62 108.22 183.92 108.73C183.92 108.73 199.01 109.38 207.04 109.12L206.71 107.4Z" fill="#EDF1F4"/>
        <path d="M206.07 95.15C200.618 96.7082 195.004 97.6277 189.34 97.89C189.34 97.89 198.02 97.32 206.05 97.06L206.07 95.15Z" fill="#EDF1F4"/>
        <path d="M167.78 106.71C167.78 106.71 177.86 106.33 181.01 105.71H167.61L167.78 106.71Z" fill="#EDF1F4"/>
        <path d="M161.68 103.15C162.973 104.186 164.473 104.933 166.08 105.34L161.93 105.18L161.68 103.15Z" fill="#BED0E2"/>
        <path d="M163.72 108.6L168.17 110.07L168.11 109.33C166.628 109.214 165.159 108.97 163.72 108.6V108.6Z" fill="#BED0E2"/>
        <path d="M159.84 90.42C159.84 90.42 181.02 90.59 200.3 88.92C200.3 88.92 202.03 89.39 206.65 90.27C206.65 90.27 178.5 91.89 164.77 91.68C164.78 91.68 163.71 92.05 159.84 90.42Z" fill="#BED0E2"/>
        <path d="M173.13 98.38C173.13 98.38 183.07 98.09 184.94 97.89C184.94 97.89 186.27 98.97 187.75 100.04C187.78 100.04 177.07 99.07 173.13 98.38Z" fill="#EDF1F4"/>
        <path d="M206.65 90.27C206.65 90.27 206.07 108.73 207.77 112.51C207.77 112.51 203.92 101.36 205.77 90.32L206.65 90.27Z" fill="#EDF1F4"/>
        <path d="M130.78 163.93C130.78 163.93 136.04 153.61 136.26 148.93C136.26 148.93 153.43 145.46 163.17 137.24C163.17 137.24 163.93 147.95 161.12 153.24C161.07 153.21 144.64 164.83 130.78 163.93Z" fill="#EDF1F4"/>
        <path d="M193.67 51.78L200.01 59.6C200.01 59.6 201.42 72.12 193.87 78.88C193.87 78.88 181.52 76.88 178.56 74.95C178.56 74.95 192.47 61.41 193.67 51.78Z" fill="#EDF1F4"/>
        <path d="M225.17 92.5L235.07 94.28C235.07 94.28 244.32 102.84 243.01 112.89C243.01 112.89 232.33 119.4 228.86 119.89C228.86 119.92 230.55 100.57 225.17 92.5Z" fill="#EDF1F4"/>
    </g>
    <defs>
        <clipPath id="clip0">
            <rect width="367.78" height="191.25" fill="white"/>
        </clipPath>
    </defs>
</svg>
