<svg width="692" height="363" viewBox="0 0 692 363" fill="none" xmlns="http://www.w3.org/2000/svg">
    <g clip-path="url(#clip0)">
        <path d="M358.286 177.777C358.286 177.777 364.928 204.31 364.928 216.946C364.928 216.946 418.346 216.006 439.212 216.946C439.212 216.946 433.567 189.661 437.086 175.125C437.086 175.125 378.212 178.717 358.286 177.777Z" fill="white"/>
        <path d="M358.287 177.777C355.063 177.687 351.9 176.877 349.029 175.407C349.029 175.407 354.486 209.255 353.846 216.251L364.928 216.946C364.928 216.946 364.684 192.99 358.287 177.777Z" fill="#EDF1F4"/>
        <path d="M437.199 207.337C437.199 207.337 412.569 208.898 394.318 209.838C394.318 209.838 422.711 211.061 437.839 210.59L437.199 207.337Z" fill="#EDF1F4"/>
        <path d="M435.995 184.302C425.737 187.233 415.174 188.969 404.517 189.473C404.517 189.473 420.848 188.382 435.957 187.912L435.995 184.302Z" fill="#EDF1F4"/>
        <path d="M363.988 206.153C363.988 206.153 382.954 205.438 388.862 204.272H363.668L363.988 206.153Z" fill="#EDF1F4"/>
        <path d="M352.491 199.364C354.922 201.321 357.745 202.732 360.77 203.501L352.943 203.182L352.491 199.364Z" fill="#BED0E2"/>
        <path d="M356.312 209.594L364.684 212.358L364.571 210.985C361.782 210.766 359.018 210.301 356.312 209.594V209.594Z" fill="#BED0E2"/>
        <path d="M349.029 175.407C349.029 175.407 388.862 175.746 425.138 172.587C425.138 172.587 428.393 173.47 437.086 175.125C437.086 175.125 384.139 178.172 358.287 177.777C358.287 177.777 356.292 178.491 349.029 175.407Z" fill="#BED0E2"/>
        <path d="M374.017 190.395C374.017 190.395 392.719 189.849 396.238 189.473C396.238 189.473 398.74 191.485 401.525 193.516C401.525 193.516 381.43 191.692 374.017 190.395Z" fill="#EDF1F4"/>
        <path d="M437.086 175.125C437.086 175.125 435.995 209.857 439.212 216.946C439.212 216.946 431.95 195.979 435.449 175.219L437.086 175.125Z" fill="#EDF1F4"/>
        <path d="M692 354.181C692 359.051 537.091 363 346 363C154.909 363 0 359.051 0 354.181C0 349.31 154.909 345.343 346 345.343C537.091 345.343 692 349.292 692 354.181Z" fill="#EDF1F4"/>
        <path d="M637.623 308.975C637.658 309.712 637.882 310.428 638.275 311.052C638.667 311.677 639.214 312.191 639.863 312.542C640.512 312.894 641.241 313.072 641.979 313.06C642.717 313.048 643.44 312.846 644.077 312.473C646.222 311.344 647.539 308.975 648.988 307.057C651.118 304.258 653.499 301.659 656.1 299.291C660.637 295.245 665.566 291.66 670.814 288.591C675.217 285.94 680.222 283.852 684.098 280.298C685.581 279.027 686.739 277.42 687.475 275.612C688.212 273.803 688.505 271.844 688.331 269.899C688.253 268.134 687.54 266.457 686.324 265.175C685.107 263.893 683.468 263.093 681.708 262.923C676.891 262.603 672.3 266.345 668.537 268.903C663.735 272.045 659.192 275.566 654.952 279.433C646.767 287.011 637.623 308.58 637.623 308.975Z" fill="#3F4261"/>
        <path d="M642.609 303.503C651.244 288.785 664.46 277.294 680.24 270.783C680.917 270.501 681.425 271.592 680.748 271.874C665.165 278.311 652.116 289.662 643.587 304.199C643.173 304.857 642.232 304.161 642.609 303.503Z" fill="#2A2B3C"/>
        <path d="M623.587 221.008C624.528 238.252 628.686 255.025 631.772 271.911C633.559 280.971 634.71 290.145 635.215 299.366C635.384 303.127 636.4 312.943 639.467 312.341C646.071 311.043 648.028 273.66 649.195 253.859C649.812 244.74 649.969 235.596 649.665 226.461C649.364 219.391 648.141 212.001 643.512 206.566C639.956 202.392 633.841 199.439 628.949 202.805C623.323 206.773 623.229 214.652 623.587 221.008Z" fill="#4093F6"/>
        <path d="M634.556 211.794C634.443 211.042 635.534 210.703 635.647 211.474C640.107 241.448 641.575 271.791 640.031 302.055C640.031 302.826 638.846 302.826 638.884 302.055C640.427 271.899 638.977 241.664 634.556 211.794V211.794Z" fill="#2483E2"/>
        <path d="M607.292 251.283C607.577 256.681 608.899 261.973 611.186 266.872C615.871 277.778 623.247 287.049 628.233 297.767C629.691 300.922 630.88 304.193 631.79 307.546C632.007 309.355 632.893 311.018 634.273 312.209C635.515 312.961 638.883 311.739 638.864 311.043C638.864 294.496 638.751 277.421 632.937 261.795C630.861 256.064 627.896 250.695 624.15 245.886C621.347 242.37 616.869 238.252 612.221 240.358C608.345 242.05 607.216 247.146 607.292 251.283Z" fill="#92CEFF"/>
        <path d="M617.754 256.529C626.767 272.682 636.024 289.757 636.419 309.05C636.419 309.2 636.359 309.343 636.254 309.449C636.148 309.555 636.004 309.614 635.855 309.614C635.705 309.614 635.561 309.555 635.455 309.449C635.35 309.343 635.29 309.2 635.29 309.05C634.895 289.982 625.675 273.115 616.776 257.15C616.399 256.473 617.453 255.853 617.754 256.529Z" fill="#4093F6"/>
        <path d="M662.61 240.282C658.659 238.176 654.858 242.295 652.487 245.811C649.224 250.723 646.689 256.082 644.961 261.719C640.031 277.346 640.031 294.42 640.031 310.968C640.031 311.664 642.872 312.849 643.945 312.134C645.146 310.859 645.882 309.216 646.033 307.471C646.807 304.143 647.819 300.875 649.063 297.692C653.296 286.974 659.562 277.703 663.532 266.797C665.492 261.82 666.611 256.552 666.844 251.208C666.825 247.146 665.865 242.05 662.61 240.282Z" fill="#92CEFF"/>
        <path d="M657.887 256.529C650.229 272.682 642.364 289.757 642.025 309.05C642.025 309.821 642.985 309.821 643.004 309.05C643.343 289.982 651.151 273.115 658.715 257.15C659.035 256.473 658.207 255.853 657.887 256.529Z" fill="#4093F6"/>
        <path d="M649.383 352.282H629.458L623.719 306.625H655.122L649.383 352.282Z" fill="#BED0E2"/>
        <path d="M309.836 209.819H303.966L320.429 167.058H326.3L309.836 209.819Z" fill="#BED0E2"/>
        <path d="M309.855 209.819H247.105V214.991H309.855V209.819Z" fill="#BED0E2"/>
        <path d="M236.851 118.242C234.217 120.856 234.386 124.203 234.16 127.644C234.16 131.988 239.598 130.39 240.313 129.525C241.028 128.66 242.909 128.114 243.512 127.55C244.796 126.386 245.706 124.868 246.127 123.188C246.654 121.1 245.13 109.799 242.966 112.789C241.2 114.89 239.14 116.727 236.851 118.242V118.242Z" fill="#4C5072"/>
        <path d="M244.037 105.436C243.849 104.74 243.228 103.556 242.156 104.233C241.083 104.91 241.422 107.994 241.667 109.874C241.96 111.947 241.57 114.059 240.557 115.891C239.661 117.62 238.668 119.296 237.584 120.912C237.038 121.777 238.167 122.341 238.713 121.495L239.352 120.48C239.446 120.969 240.03 121.081 240.463 120.649C242.871 118.261 245.279 114.801 245.166 111.378C245.02 109.361 244.641 107.367 244.037 105.436V105.436Z" fill="#4C5072"/>
        <path d="M252.542 111.096C252.712 110.307 252.881 108.182 252.185 107.956C250.171 107.298 249.419 111.999 248.666 114.086C248.029 116.139 246.782 117.949 245.091 119.276C243.629 120.404 242.102 121.446 240.519 122.398C239.71 122.924 240.312 124.109 241.121 123.601L242.081 123C241.93 123.526 242.363 125.2 242.871 125.03C246.348 123.625 249.146 120.929 250.679 117.509C251.495 115.433 252.119 113.286 252.542 111.096V111.096Z" fill="#4C5072"/>
        <path d="M252.43 120.969C252.938 120.348 254.011 118.938 253.578 118.298C252.317 116.418 249.683 119.934 248.121 121.457C246.778 122.957 244.943 123.931 242.947 124.203C241.323 124.377 239.688 124.44 238.055 124.391C237.208 124.391 237.058 125.877 237.905 125.895H238.902C238.544 126.29 237.303 128.208 237.773 128.378C239.538 128.745 241.362 128.718 243.115 128.299C244.869 127.88 246.507 127.078 247.914 125.952C249.582 124.445 251.095 122.776 252.43 120.969Z" fill="#4C5072"/>
        <path d="M249.119 106.79C249.119 106.038 249.006 104.233 248.235 104.195C246.466 104.195 246.146 108.483 245.826 110.626C245.582 112.757 244.697 114.764 243.286 116.38C242.044 117.847 240.671 119.182 239.316 120.499C238.582 121.194 239.448 122.135 240.163 121.458L241.01 120.63C241.01 121.157 241.612 122.153 242.101 121.853C245.306 119.93 247.655 116.856 248.667 113.259C249.04 111.124 249.192 108.956 249.119 106.79V106.79Z" fill="#4C5072"/>
        <path d="M238.487 112.3C238.92 110.871 237.34 110.288 236.606 111.585C235.179 113.693 234.17 116.055 233.633 118.543C233.588 120.734 234.018 122.908 234.894 124.918C235.063 125.406 235.515 125.312 235.834 124.918C235.961 124.945 236.092 124.935 236.213 124.888C236.333 124.841 236.437 124.76 236.512 124.654C238.243 122.247 238.657 120.593 237.829 118.543C237.001 116.493 237.904 114.218 238.487 112.3Z" fill="#4C5072"/>
        <path d="M242.477 116.512C243.842 116.886 245.038 117.714 245.869 118.86C246.7 120.005 247.116 121.398 247.049 122.811C245.868 120.483 244.325 118.357 242.477 116.512V116.512Z" fill="#4C5072"/>
        <path d="M239.259 118.9C239.259 118.9 241.31 120.329 240.312 124.165C240.776 122.855 241.012 121.475 241.009 120.085C240.869 119.735 240.628 119.435 240.316 119.224C240.004 119.013 239.636 118.9 239.259 118.9Z" fill="#4C5072"/>
        <path d="M244.075 128.039C244.075 128.039 241.403 128.96 238.581 134.226C235.759 139.491 233.783 142.65 233.783 142.65C233.783 142.65 224.507 140.187 226.257 137.893C228.007 135.598 234.649 125.068 234.103 122.398C233.557 119.727 238.205 123.413 238.205 123.413L244.075 128.039Z" fill="#4C5072"/>
        <path d="M241.309 124.241C241.261 124.26 241.207 124.26 241.159 124.241C241.122 124.223 241.089 124.198 241.063 124.167C241.037 124.136 241.018 124.099 241.007 124.06C240.996 124.02 240.994 123.979 241.001 123.939C241.008 123.899 241.023 123.861 241.046 123.827C241.556 122.856 241.688 121.731 241.417 120.668C241.146 119.606 240.491 118.681 239.578 118.073C239.516 118.02 239.477 117.945 239.47 117.864C239.463 117.783 239.488 117.703 239.541 117.64C239.593 117.578 239.668 117.539 239.749 117.532C239.83 117.525 239.911 117.55 239.973 117.603C240.99 118.309 241.713 119.362 242.007 120.563C242.302 121.765 242.147 123.032 241.573 124.128C241.541 124.166 241.5 124.196 241.454 124.215C241.409 124.235 241.359 124.244 241.309 124.241V124.241Z" fill="#2A2B3C"/>
        <path d="M139.932 140.525C157.073 126.441 185.089 145.678 199.521 155.832C213.952 165.986 210.547 178.247 203.096 179.037C179.727 181.462 129.546 149.062 139.932 140.525Z" fill="#D32A6B"/>
        <path d="M227.443 125.557C213.558 133.662 193.576 150.548 189.304 159.405C185.033 168.262 202.268 179.826 205.241 178.435C208.214 177.043 234.763 161.022 244.283 142.218C244.283 142.218 230.172 123.959 227.443 125.557Z" fill="#D32A6B"/>
        <path d="M168.042 138.081C173.353 141.653 177.469 146.737 179.858 152.673C182.485 160.387 184.375 168.333 185.503 176.404L181.213 175.088L168.042 138.081Z" fill="#17171D"/>
        <path d="M255.008 348.22C252.983 346.726 251.429 344.683 250.53 342.334V342.334C249.438 339.89 245.901 334.023 244.734 331.672C246.898 328.08 253.672 328.739 258.112 326.35C259.557 329.062 261.512 331.469 263.87 333.44C264.149 333.63 264.453 333.782 264.773 333.891C269.101 335.583 276.175 333.064 280.164 333.252C281.025 333.19 281.875 333.467 282.535 334.023C285.169 336.749 259.505 351.567 255.008 348.22Z" fill="#4C5072"/>
        <path d="M282.196 333.722C282.325 333.794 282.44 333.89 282.535 334.004C285.414 336.9 259.223 352.169 254.895 348.915C254.628 348.757 254.376 348.575 254.142 348.37C252.508 346.648 251.286 344.578 250.567 342.315C250.567 342.315 250.567 342.315 250.567 342.315C256.168 341.308 261.214 338.309 264.773 333.872C268.536 335.358 274.482 333.609 278.546 333.27C279.777 332.969 281.076 333.13 282.196 333.722Z" fill="#4093F6"/>
        <path d="M282.197 333.722C282.326 333.794 282.44 333.89 282.535 334.004C285.414 336.899 259.223 352.169 254.895 348.915C254.628 348.757 254.376 348.575 254.143 348.37C257.763 348.127 261.3 347.168 264.548 345.55C271.107 342.723 277.09 338.713 282.197 333.722V333.722Z" fill="#2A2B3B"/>
        <path d="M233.615 244.608C231.395 226.311 170.808 207.732 161.833 204.065C155.493 201.489 145.765 204.291 138.69 205.476C125.388 207.713 118.915 215.724 120.59 234.867C121.681 247.146 138.069 250.324 149.396 254.066C163.376 258.692 203.454 261.475 204.507 261.72C217.057 264.615 235.591 260.873 233.615 244.608Z" fill="#343751"/>
        <path d="M193.631 258.241C195.324 261.193 197.111 264.127 198.955 267.022C204.6 275.973 210.508 284.717 215.024 294.251C221.534 307.941 232.56 338.366 232.823 337.276C247.669 335.846 261.16 330.205 267.877 321.16C264.528 304.011 238.073 248.425 231.619 239.85C224.055 229.79 188.701 249.516 193.631 258.241Z" fill="#343751"/>
        <path d="M81.7539 196.995C81.7539 196.995 108.096 191.504 130.562 206.51C153.027 221.516 159.82 258.805 159.82 258.805L88.4335 212.922L81.7539 196.995Z" fill="#BED0E2"/>
        <path d="M180.103 219.316C180.103 219.316 224.677 227.834 228.214 242.407C231.751 256.981 215.043 294.345 215.043 294.345L219.766 246.413L180.103 219.316Z" fill="#17171D"/>
        <path d="M225.392 245.153C225.383 245.116 225.383 245.077 225.392 245.04C223.153 226.762 159.538 214.577 150.619 210.91C144.278 208.334 137.448 204.742 130.449 205.927C123.073 207.168 117.805 210.177 114.869 215.874C112.48 220.463 111.595 226.781 112.348 235.318C113.439 247.597 129.828 250.775 141.155 254.517C149.716 257.357 168.061 259.482 181.251 260.779C185.522 261.193 189.247 261.513 191.919 261.757C194.591 262.002 196.077 262.114 196.284 262.152C206.915 264.597 221.798 262.321 224.922 251.697C225.369 250.216 225.579 248.674 225.543 247.127C225.505 246.507 225.467 245.83 225.392 245.153Z" fill="#3F4261"/>
        <path d="M225.392 245.153C222.814 233.55 186.255 227.195 184.562 236.634C183.96 240 183.471 243.404 183.038 246.789C183.038 246.883 183.038 246.977 183.038 247.071C182.417 251.64 181.89 256.229 181.269 260.779C180.528 266.584 179.454 272.341 178.052 278.023C174.703 291.186 165.502 317.211 164.354 321.781C164.241 322.307 164.204 322.552 164.354 322.476C177.977 325.598 192.766 327.591 201.628 332.443C209.154 318.734 221.986 269.636 224.997 251.697C225.283 250.185 225.49 248.66 225.618 247.127C225.618 246.996 225.618 246.864 225.618 246.732C225.62 246.198 225.544 245.666 225.392 245.153Z" fill="#3F4261"/>
        <path d="M184.543 326.632H184.43C184.347 326.599 184.279 326.537 184.238 326.458C184.196 326.378 184.185 326.287 184.205 326.2C184.393 325.598 202.738 265.48 204.055 253.728C204.243 252.704 204.217 251.652 203.977 250.639C203.737 249.626 203.29 248.673 202.663 247.842C199.332 243.761 190.451 242.99 177.036 241.843C173.273 241.505 168.851 241.129 164.222 240.64C138.05 237.819 129.131 214.784 129.037 214.558C129.012 214.473 129.019 214.382 129.058 214.302C129.096 214.222 129.162 214.159 129.244 214.126C129.285 214.108 129.329 214.098 129.373 214.098C129.417 214.098 129.461 214.107 129.502 214.124C129.543 214.142 129.579 214.168 129.61 214.201C129.64 214.233 129.663 214.272 129.677 214.314C129.677 214.539 138.558 237.199 164.279 239.963C168.908 240.452 173.254 240.828 177.092 241.166C190.696 242.332 199.671 243.047 203.19 247.409C203.875 248.31 204.367 249.344 204.632 250.444C204.898 251.545 204.932 252.689 204.733 253.803C203.397 265.612 185.051 325.805 184.863 326.407C184.84 326.473 184.797 326.53 184.739 326.57C184.682 326.611 184.613 326.632 184.543 326.632V326.632Z" fill="#2A2B3C"/>
        <path d="M193.65 254.273C193.33 255.665 192.71 258.297 191.9 261.795C187.912 278.926 179.369 316.44 180.442 325.278C180.442 325.278 166.292 322.232 164.26 322.514V321.818C165.408 317.249 174.609 291.261 177.958 278.061C179.36 272.379 180.434 266.622 181.176 260.817C168.005 259.519 149.641 257.395 141.08 254.555C129.79 250.794 113.364 247.635 112.273 235.356C111.52 226.819 112.405 220.5 114.794 215.912L120.27 212.471C120.27 212.471 133.44 238.44 156.753 243.141C167.459 245.303 176.49 246.093 182.944 247.109C190.621 248.274 194.666 249.798 193.65 254.273Z" fill="#343751"/>
        <path d="M110.654 214.126C110.654 214.126 119.178 148.066 138.878 136.727C151.484 129.431 170.864 135.862 175.305 145.433C183.79 164.106 188.739 214.051 188.739 214.051C188.739 214.051 143.299 223.547 110.654 214.126Z" fill="#E93E72"/>
        <path d="M160.572 125.03C160.572 125.03 160.347 132.552 160.102 134.207C159.684 135.278 158.981 136.214 158.07 136.915C154.928 134.658 152.331 135.204 151.334 134.207C152.229 131.234 152.623 128.133 152.501 125.03C152.501 121.251 160.572 125.03 160.572 125.03Z" fill="#4C5072"/>
        <path d="M151.484 118.957C151.484 118.957 153.234 129.13 159.65 129.337C166.067 129.543 162.059 115.478 161.099 115.102C160.14 114.726 153.855 113.353 151.484 118.957Z" fill="#4C5072"/>
        <path d="M158.089 136.915L156.734 132.421L151.729 132.928L147.515 133.812L158.089 136.915Z" fill="#F2F8FF"/>
        <path d="M158.088 136.915L159.744 132.421L161.813 134.959L158.088 136.915Z" fill="#F2F8FF"/>
        <path d="M102.886 251.053L84.1025 355.072L85.9542 355.406L104.738 251.387L102.886 251.053Z" fill="#2A2B3B"/>
        <path d="M148.364 251.072L146.513 251.407L165.332 355.419L167.184 355.085L148.364 251.072Z" fill="#2A2B3B"/>
        <path d="M131.808 251.064L129.956 251.399L148.776 355.411L150.627 355.077L131.808 251.064Z" fill="#2A2B3B"/>
        <path d="M81.7533 196.995C81.7533 196.995 126.008 222.663 159.819 258.73C159.819 258.73 119.328 266.251 99.2894 249.139C79.2508 232.027 81.7533 196.995 81.7533 196.995Z" fill="#EDF1F4"/>
        <path d="M154.946 290.641H96.5615V292.521H154.946V290.641Z" fill="#2A2B3B"/>
        <path d="M151.39 111.679C150.579 112.065 149.858 112.616 149.272 113.296C148.685 113.976 148.247 114.77 147.985 115.628C146.987 119.953 148.756 125.895 153.629 126.648C153.773 126.669 153.921 126.657 154.059 126.612C154.198 126.567 154.324 126.491 154.428 126.388C154.532 126.286 154.611 126.161 154.659 126.024C154.706 125.886 154.721 125.739 154.702 125.595C154.702 124.053 154.438 122.511 154.212 120.969C154.188 120.843 154.144 120.722 154.081 120.611C154.387 119.421 154.464 118.183 154.307 116.963C158.446 117.697 163.62 116.963 163.225 110.25C160.083 112.131 154.382 109.742 151.39 111.679Z" fill="#17171D"/>
        <path d="M154.796 120.818C154.539 120.311 154.142 119.889 153.652 119.602C153.161 119.315 152.598 119.176 152.03 119.201C150.261 119.483 149.847 123.714 152.858 124.071C155.868 124.429 154.796 120.818 154.796 120.818Z" fill="#4C5072"/>
        <path d="M164.26 322.477C164.26 320.784 201.101 329.735 201.533 332.443C202.117 336.11 164.335 327.441 164.26 322.477Z" fill="#17171D"/>
        <path d="M167.214 338.536C167.443 336.024 168.397 333.633 169.961 331.653V331.653C171.504 329.453 172.802 327.723 174.232 325.523C178.983 325.82 183.578 327.336 187.573 329.923C185.993 332.562 184.932 335.479 184.449 338.517C184.412 338.854 184.412 339.195 184.449 339.532C185.221 344.102 191.035 348.934 192.916 352.394C193.176 352.748 193.361 353.149 193.461 353.576C193.562 354.002 193.575 354.445 193.499 354.877C192.596 358.468 166.65 344.12 167.214 338.536Z" fill="#4C5072"/>
        <path d="M193.631 354.369C193.668 354.511 193.668 354.66 193.631 354.801C192.634 358.75 166.066 344.177 166.612 338.78C166.575 338.468 166.575 338.152 166.612 337.84C167.256 335.557 168.407 333.448 169.98 331.672C169.98 331.672 169.98 331.672 169.98 331.672C173.726 335.959 178.9 338.745 184.543 339.513C185.22 343.537 189.755 347.693 192.069 351.003C193.001 351.884 193.559 353.089 193.631 354.369Z" fill="#4093F6"/>
        <path d="M193.631 354.369C193.668 354.511 193.668 354.66 193.631 354.801C192.634 358.75 166.066 344.177 166.612 338.78C166.575 338.468 166.575 338.152 166.612 337.84C168.688 340.834 171.335 343.39 174.401 345.362C180.21 349.508 186.726 352.561 193.631 354.369V354.369Z" fill="#2A2B3B"/>
        <path d="M134.137 149.269C134.137 149.269 158.127 199.778 165.54 204.235C172.953 208.691 188.645 210.12 188.645 210.12C188.645 210.12 164.317 209.744 160.573 206.717C147.402 196.017 134.137 149.269 134.137 149.269Z" fill="#17171D"/>
        <path d="M250.304 208.71C248.444 205.113 245.723 202.031 242.383 199.74C242.392 199.646 242.392 199.552 242.383 199.458C245.31 200.133 248.005 201.574 250.191 203.633C251.471 204.817 253.089 201.903 251.809 200.737C249.738 198.777 247.292 197.256 244.618 196.264C241.944 195.272 239.098 194.83 236.249 194.964C227.505 195.123 218.892 192.823 211.393 188.326C211.22 188.213 211.017 188.154 210.81 188.157C210.507 188.078 210.186 188.104 209.899 188.23C209.612 188.356 209.376 188.576 209.23 188.852L200.781 201.621C200.644 201.811 200.549 202.028 200.503 202.258C200.457 202.488 200.46 202.725 200.514 202.953C200.567 203.181 200.669 203.395 200.813 203.581C200.957 203.766 201.138 203.919 201.346 204.028C208.565 206.138 215.957 207.604 223.435 208.409C225.466 208.625 227.516 208.568 229.532 208.24C232.034 207.883 234.951 206.811 237.34 207.563C240.219 208.465 241.95 211.324 243.643 213.919C244.452 215.179 245.977 213.825 245.995 212.433C246.748 213.637 248.14 212.527 248.328 211.249C249.307 212.433 251.132 210.252 250.304 208.71Z" fill="#4C5072"/>
        <path d="M246.146 203.294C246.084 203.292 246.024 203.273 245.971 203.24C245.918 203.207 245.875 203.161 245.845 203.106C244.718 201.938 243.455 200.909 242.082 200.041C242.002 199.986 241.948 199.902 241.93 199.807C241.912 199.712 241.933 199.613 241.988 199.534C242.043 199.454 242.127 199.399 242.223 199.381C242.318 199.364 242.416 199.385 242.496 199.439C243.91 200.377 245.211 201.475 246.372 202.711C246.4 202.752 246.418 202.797 246.428 202.845C246.437 202.893 246.436 202.942 246.425 202.99C246.415 203.037 246.395 203.082 246.366 203.122C246.337 203.161 246.301 203.194 246.259 203.219C246.226 203.251 246.188 203.276 246.146 203.294V203.294Z" fill="#2A2B3C"/>
        <path d="M248.347 211.643C248.281 211.644 248.217 211.627 248.16 211.594C248.104 211.561 248.058 211.513 248.027 211.455C246.105 207.902 243.411 204.824 240.143 202.448C240.062 202.394 240.006 202.311 239.985 202.217C239.964 202.122 239.98 202.023 240.03 201.94C240.084 201.86 240.167 201.803 240.261 201.782C240.356 201.761 240.455 201.777 240.538 201.828C243.929 204.261 246.716 207.439 248.685 211.117C248.707 211.16 248.721 211.207 248.724 211.255C248.728 211.303 248.721 211.352 248.705 211.398C248.69 211.443 248.665 211.485 248.632 211.521C248.599 211.557 248.56 211.586 248.516 211.606L248.347 211.643Z" fill="#2A2B3C"/>
        <path d="M245.995 212.809C245.93 212.81 245.865 212.793 245.809 212.76C245.752 212.727 245.706 212.679 245.675 212.621C245.675 212.621 242.232 206.848 238.864 205.4C238.775 205.359 238.706 205.285 238.671 205.194C238.635 205.103 238.637 205.001 238.676 204.912C238.694 204.866 238.721 204.824 238.757 204.79C238.792 204.755 238.833 204.728 238.879 204.711C238.925 204.693 238.974 204.685 239.023 204.687C239.073 204.69 239.121 204.702 239.165 204.723C242.74 206.265 246.164 212.001 246.315 212.245C246.363 212.33 246.377 212.431 246.352 212.526C246.328 212.621 246.267 212.702 246.183 212.753C246.127 212.789 246.062 212.809 245.995 212.809V212.809Z" fill="#2A2B3C"/>
        <path d="M136.883 143.722C158.728 139.867 176.396 166.438 183.922 182.384C191.448 198.33 170.017 206.698 165.558 204.009C161.099 201.32 123.637 145.978 136.883 143.722Z" fill="#D32A6B"/>
        <path d="M227.406 188.458C212.598 182.158 180.969 178.19 171.335 180.09C161.702 181.989 162.661 202.655 165.54 204.234C168.419 205.814 203.717 217.943 224.564 214.314C224.564 214.314 230.303 189.699 227.406 188.458Z" fill="#D32A6B"/>
        <path d="M358.388 98.4668C384.52 87.6487 396.93 57.7068 386.106 31.5896C375.281 5.47248 345.321 -6.92989 319.189 3.88819C293.056 14.7063 280.646 44.6482 291.471 70.7654C302.295 96.8825 332.255 109.285 358.388 98.4668Z" fill="#EDF1F4"/>
        <path d="M293.392 51.1856C293.392 42.2112 296.054 33.4384 301.043 25.9766C306.032 18.5147 313.123 12.6989 321.419 9.26454C329.715 5.83021 338.844 4.93163 347.651 6.68243C356.458 8.43324 364.548 12.7548 370.898 19.1006C377.247 25.4464 381.571 33.5315 383.323 42.3334C385.075 51.1353 384.176 60.2587 380.74 68.5499C377.303 76.8411 371.484 83.9276 364.018 88.9135C356.551 93.8994 347.773 96.5606 338.794 96.5606C326.752 96.5606 315.204 91.78 306.69 83.2706C298.175 74.7611 293.392 63.2198 293.392 51.1856Z" fill="white"/>
        <path d="M337.872 16.9615H339.734V9.1765H337.872V16.9615Z" fill="#BED0E2"/>
        <path d="M356.422 18.9168L358.035 19.8479L360.727 15.1908L359.114 14.2597L356.422 18.9168Z" fill="#BED0E2"/>
        <path d="M370.086 32.0547L371.018 33.6666L375.677 30.976L374.745 29.3641L370.086 32.0547Z" fill="#BED0E2"/>
        <path d="M373.057 50.2641V52.1257H380.846V50.2641H373.057Z" fill="#BED0E2"/>
        <path d="M371.015 68.7054L370.083 70.3173L374.742 73.0079L375.674 71.396L371.015 68.7054Z" fill="#BED0E2"/>
        <path d="M357.931 82.364L356.318 83.295L359.01 87.9521L360.623 87.021L357.931 82.364Z" fill="#BED0E2"/>
        <path d="M339.715 85.259H337.853V93.2133H339.715V85.259Z" fill="#BED0E2"/>
        <path d="M321.173 83.4539L319.56 82.5228L316.868 87.1799L318.481 88.111L321.173 83.4539Z" fill="#BED0E2"/>
        <path d="M307.634 70.3287L306.702 68.7167L302.043 71.4073L302.975 73.0193L307.634 70.3287Z" fill="#BED0E2"/>
        <path d="M304.7 52.1258V50.2642H296.741V52.1258H304.7Z" fill="#BED0E2"/>
        <path d="M306.515 33.5652L307.447 31.9532L302.788 29.2626L301.856 30.8746L306.515 33.5652Z" fill="#BED0E2"/>
        <path d="M314.551 17.0396L316.172 16.1088L313.481 11.4298L311.861 12.3606L314.551 17.0396Z" fill="#BED0E2"/>
        <path d="M365.476 27.1313L363.107 24.7645L336.405 51.451L338.773 53.8178L365.476 27.1313Z" fill="#4C5072"/>
        <path d="M360.604 71.5029L361.887 69.7849L341.363 54.4793L340.08 56.1973L360.604 71.5029Z" fill="#4C5072"/>
        <path d="M332.622 51.8062C332.622 50.5863 332.984 49.3937 333.662 48.3794C334.34 47.3651 335.304 46.5746 336.432 46.1078C337.56 45.641 338.8 45.5188 339.998 45.7568C341.195 45.9948 342.294 46.5822 343.158 47.4448C344.021 48.3074 344.608 49.4064 344.847 50.6028C345.085 51.7993 344.962 53.0394 344.495 54.1665C344.028 55.2935 343.237 56.2568 342.222 56.9345C341.207 57.6122 340.014 57.974 338.794 57.974C337.157 57.974 335.587 57.3242 334.43 56.1675C333.272 55.0108 332.622 53.442 332.622 51.8062V51.8062Z" fill="#4093F5"/>
        <path d="M335.52 51.806C335.52 51.1589 335.712 50.5263 336.071 49.9882C336.431 49.4501 336.942 49.0307 337.541 48.7831C338.139 48.5355 338.797 48.4707 339.432 48.5969C340.067 48.7232 340.651 49.0348 341.109 49.4924C341.566 49.95 341.878 50.533 342.004 51.1677C342.131 51.8024 342.066 52.4603 341.818 53.0582C341.57 53.656 341.151 54.167 340.612 54.5266C340.074 54.8861 339.441 55.078 338.794 55.078C337.925 55.078 337.092 54.7333 336.478 54.1196C335.864 53.506 335.52 52.6738 335.52 51.806V51.806Z" fill="white"/>
        <path d="M458.461 214.991H230.171V220.011H458.461V214.991Z" fill="#2A2B3B"/>
        <path d="M230.492 357.584H230.36C230.112 357.547 229.888 357.414 229.736 357.214C229.585 357.013 229.519 356.761 229.551 356.513L248.367 217.36C248.401 217.111 248.534 216.885 248.735 216.734C248.936 216.582 249.189 216.516 249.439 216.551C249.688 216.586 249.914 216.719 250.066 216.92C250.217 217.121 250.283 217.374 250.248 217.623L231.433 356.776C231.401 357.002 231.288 357.208 231.114 357.357C230.941 357.506 230.72 357.587 230.492 357.584V357.584Z" fill="#2A2B3C"/>
        <path d="M311.662 357.584C311.437 357.582 311.22 357.499 311.051 357.351C310.882 357.202 310.771 356.998 310.74 356.776L291.924 217.623C291.889 217.374 291.955 217.121 292.107 216.92C292.258 216.719 292.484 216.586 292.733 216.551C292.983 216.516 293.236 216.582 293.437 216.734C293.638 216.885 293.771 217.111 293.806 217.36L312.621 356.513C312.654 356.761 312.587 357.013 312.436 357.214C312.284 357.414 312.061 357.547 311.812 357.584H311.662Z" fill="#2A2B3C"/>
        <path d="M364.928 357.584H364.816C364.691 357.568 364.572 357.528 364.464 357.465C364.356 357.402 364.261 357.318 364.186 357.218C364.111 357.118 364.056 357.005 364.025 356.883C363.994 356.762 363.988 356.636 364.006 356.513L382.822 217.36C382.836 217.237 382.874 217.119 382.935 217.012C382.997 216.905 383.079 216.811 383.178 216.737C383.277 216.663 383.389 216.61 383.51 216.581C383.63 216.553 383.754 216.549 383.876 216.57C384.123 216.603 384.346 216.732 384.498 216.93C384.65 217.127 384.717 217.376 384.685 217.623L365.869 356.776C365.834 357 365.719 357.204 365.547 357.352C365.375 357.501 365.156 357.583 364.928 357.584Z" fill="#2A2B3C"/>
        <path d="M446.118 357.584C445.891 357.583 445.671 357.501 445.499 357.352C445.327 357.204 445.213 357 445.177 356.776L426.361 217.623C426.329 217.376 426.396 217.127 426.548 216.93C426.7 216.732 426.924 216.603 427.17 216.57C427.292 216.549 427.417 216.553 427.537 216.581C427.657 216.61 427.77 216.663 427.868 216.737C427.967 216.811 428.05 216.905 428.111 217.012C428.172 217.119 428.211 217.237 428.224 217.36L447.04 356.513C447.058 356.636 447.052 356.762 447.021 356.883C446.99 357.005 446.936 357.118 446.86 357.218C446.785 357.318 446.691 357.402 446.582 357.465C446.474 357.528 446.355 357.568 446.231 357.584H446.118Z" fill="#2A2B3C"/>
        <path d="M93.8709 73.6569L109.375 109.385L96.5991 110.288L101.566 138.194L82.3369 102.804L96.8061 99.9266L93.8709 73.6569Z" fill="#FFD357"/>
        <path d="M637.058 111.491C634.255 112.055 632.919 114.274 631.413 116.362C629.532 119.182 633.747 120.461 634.556 120.235C635.365 120.01 636.832 120.423 637.472 120.329C638.799 120.131 640.038 119.542 641.028 118.637C642.27 117.527 646.146 109.573 643.474 110.57C641.394 111.198 639.231 111.509 637.058 111.491V111.491Z" fill="#E93E72"/>
        <path d="M647.2 106.339C647.388 105.812 647.445 104.816 646.523 104.759C645.601 104.703 644.472 106.828 643.738 108.238C643.036 109.697 641.881 110.891 640.445 111.642C639.147 112.375 637.755 112.977 636.381 113.522C635.648 113.823 636.137 114.688 636.852 114.368L637.698 113.992C637.548 114.349 637.868 114.669 638.338 114.575C641.101 114.218 643.618 112.802 645.356 110.626C646.133 109.272 646.752 107.834 647.2 106.339V106.339Z" fill="#E93E72"/>
        <path d="M650.249 113.616C650.7 113.202 651.716 111.886 651.359 111.435C650.361 110.156 647.84 112.864 646.467 113.898C645.181 114.971 643.6 115.627 641.932 115.779C640.503 115.854 639.071 115.854 637.642 115.779C636.908 115.779 636.777 116.794 637.51 116.813H638.395C638.075 117.095 637.623 118.355 638.037 118.468C640.871 119.052 643.821 118.527 646.278 117.001C647.707 116.001 649.036 114.868 650.249 113.616V113.616Z" fill="#E93E72"/>
        <path d="M645.959 119.953C646.561 119.765 647.84 119.314 647.84 118.731C647.84 116.982 644.623 118.11 642.967 118.411C641.456 118.807 639.853 118.647 638.451 117.96C637.333 117.38 636.258 116.72 635.234 115.986C634.688 115.609 633.954 116.531 634.481 116.888L635.121 117.321C634.726 117.434 633.089 118.148 633.239 118.449C634.211 119.439 635.389 120.202 636.691 120.683C637.992 121.164 639.383 121.351 640.765 121.232C642.535 120.979 644.274 120.55 645.959 119.953V119.953Z" fill="#E93E72"/>
        <path d="M649.891 109.385C650.23 108.896 650.926 107.693 650.437 107.335C649.345 106.508 647.238 109.216 646.128 110.438C645.062 111.71 643.63 112.623 642.026 113.052C640.595 113.445 639.144 113.765 637.68 114.011C637.603 114.005 637.527 114.017 637.456 114.045C637.385 114.073 637.321 114.116 637.269 114.173C637.217 114.229 637.178 114.296 637.156 114.369C637.134 114.442 637.128 114.519 637.14 114.594C637.151 114.67 637.18 114.742 637.223 114.805C637.266 114.868 637.323 114.92 637.39 114.958C637.456 114.996 637.53 115.018 637.607 115.024C637.683 115.029 637.759 115.017 637.83 114.989L638.733 114.82C638.47 115.139 638.451 116.061 638.903 116.079C641.785 116.205 644.606 115.222 646.787 113.334C647.953 112.126 648.993 110.803 649.891 109.385V109.385Z" fill="#E93E72"/>
        <path d="M637.51 120.912C637.51 120.912 635.403 120.348 631.32 122.529C627.237 124.711 624.603 125.895 624.603 125.895C624.603 125.895 619.692 120.254 621.837 119.634C623.982 119.013 632.769 114.97 633.54 113.014C634.312 111.059 635.761 115.44 635.761 115.44L637.51 120.912Z" fill="#E93E72"/>
        <path d="M637.492 117.321C637.448 117.321 637.405 117.309 637.369 117.285C637.332 117.262 637.303 117.229 637.285 117.189C637.257 117.134 637.251 117.07 637.269 117.011C637.286 116.951 637.326 116.901 637.379 116.869C638.128 116.464 638.7 115.796 638.985 114.994C639.27 114.191 639.248 113.312 638.922 112.525C638.913 112.497 638.91 112.467 638.913 112.438C638.916 112.408 638.924 112.379 638.938 112.353C638.952 112.327 638.971 112.304 638.994 112.285C639.017 112.266 639.044 112.252 639.072 112.243C639.102 112.232 639.133 112.226 639.165 112.228C639.197 112.229 639.228 112.237 639.256 112.251C639.285 112.266 639.31 112.286 639.33 112.31C639.35 112.335 639.365 112.363 639.373 112.394C639.727 113.286 639.741 114.277 639.411 115.179C639.082 116.08 638.432 116.829 637.586 117.283L637.492 117.321Z" fill="#2A2B3C"/>
        <path d="M456.617 74.8603C453.926 73.638 457.35 82.0812 458.498 83.3223C459.465 84.3176 460.7 85.0102 462.054 85.3156C462.694 85.466 464.425 85.2215 465.046 85.4284C465.667 85.6352 465.855 77.0417 462.995 76.2519C460.812 76.102 458.663 75.6331 456.617 74.8603V74.8603Z" fill="#E93E72"/>
        <path d="M452.985 70.2155C452.834 69.6514 452.834 68.636 453.813 68.636C454.791 68.636 455.694 70.9113 456.409 72.3969C457.022 73.9572 458.125 75.2768 459.552 76.1577C460.85 77.0039 462.223 77.7373 463.597 78.4519C464.312 78.828 463.766 79.6742 463.051 79.2981L462.205 78.8656C462.336 79.2229 461.979 79.5238 461.508 79.4109C458.68 78.8544 456.185 77.2058 454.565 74.8227C453.866 73.3516 453.336 71.806 452.985 70.2155V70.2155Z" fill="#E93E72"/>
        <path d="M449.336 77.4929C448.903 77.0227 447.943 75.6124 448.339 75.1611C449.467 73.92 451.857 76.8911 453.193 78.0382C454.446 79.2108 456.029 79.972 457.727 80.2195C459.188 80.4187 460.657 80.5442 462.13 80.5956C462.902 80.5956 462.958 81.6863 462.13 81.6487H461.227C461.528 81.9495 461.886 83.2846 461.472 83.3786C458.514 83.7805 455.514 83.0261 453.099 81.2726C451.726 80.136 450.466 78.8703 449.336 77.4929V77.4929Z" fill="#E93E72"/>
        <path d="M453.287 84.3188C452.685 84.0744 451.405 83.529 451.405 82.9085C451.556 81.1221 454.754 82.5136 456.448 82.9085C457.969 83.4252 459.625 83.3786 461.114 82.7769C462.314 82.2263 463.477 81.5982 464.595 80.8965C465.178 80.558 465.875 81.5358 465.291 81.8743L464.595 82.288C465.009 82.4196 466.627 83.2658 466.364 83.5667C465.286 84.5207 464.009 85.2231 462.626 85.6232C461.243 86.0232 459.788 86.1108 458.367 85.8796C456.628 85.5223 454.927 84.9997 453.287 84.3188V84.3188Z" fill="#E93E72"/>
        <path d="M449.994 73.1678C449.693 72.6413 449.072 71.2874 449.58 71.0053C450.784 70.2343 452.741 73.149 453.795 74.5029C454.804 75.8905 456.217 76.9342 457.84 77.4928C459.275 78.0079 460.739 78.4411 462.224 78.7903C462.995 78.9972 462.77 79.9938 461.998 79.7869L461.095 79.5613C461.321 79.8998 461.283 80.84 460.832 80.84C457.856 80.7468 455.025 79.5307 452.91 77.4364C451.8 76.1126 450.823 74.6828 449.994 73.1678V73.1678Z" fill="#E93E72"/>
        <path d="M461.904 85.8984L465.141 98.347C465.141 98.347 474.962 96.9367 472.798 96.0528C470.635 95.169 467.154 80.1443 466.552 78.0759C465.95 76.0074 464.106 80.4076 464.106 80.4076L461.904 85.8984Z" fill="#E93E72"/>
        <path d="M462.205 82.2128H462.073C461.243 81.6748 460.637 80.8539 460.367 79.9028C460.097 78.9517 460.182 77.935 460.605 77.0416C460.634 76.9848 460.682 76.9402 460.741 76.916C460.799 76.8918 460.865 76.8896 460.925 76.9099C460.955 76.9223 460.982 76.9404 461.004 76.9631C461.027 76.9859 461.045 77.0129 461.057 77.0426C461.07 77.0722 461.076 77.104 461.076 77.1361C461.076 77.1682 461.069 77.2 461.057 77.2296C460.668 78.0129 460.581 78.912 460.814 79.755C461.046 80.5981 461.582 81.3259 462.318 81.7991C462.371 81.8306 462.41 81.8811 462.428 81.9404C462.445 81.9998 462.439 82.0635 462.412 82.1188C462.386 82.1489 462.355 82.173 462.319 82.1893C462.283 82.2055 462.244 82.2136 462.205 82.2128V82.2128Z" fill="#2A2B3C"/>
        <path d="M591.205 331.221C590.361 328.846 588.852 326.765 586.859 325.222V325.222C584.827 323.473 582.193 321.311 578.919 318.189C574.083 319.844 568.175 320.276 567.103 325.222C569.473 327.892 573.97 333.439 574.497 335.414C574.573 335.742 574.63 336.075 574.666 336.411C575.024 341.036 570.565 347.073 569.605 350.965C569.434 351.366 569.345 351.798 569.345 352.234C569.345 352.671 569.434 353.102 569.605 353.504C571.505 356.776 593.125 336.486 591.205 331.221Z" fill="#E93E72"/>
        <path d="M569.473 353.052C569.489 353.198 569.548 353.335 569.642 353.447C571.524 357.039 593.764 336.392 591.901 331.296C591.841 330.991 591.747 330.695 591.619 330.412C590.353 333.803 588.435 336.914 585.974 339.57C581.349 345.039 575.755 349.609 569.473 353.052V353.052Z" fill="#2A2B3B"/>
        <path d="M497.917 227.27C500.138 243.385 503.016 264.879 518.201 274.168C518.459 274.315 518.758 274.375 519.054 274.338C519.349 274.3 519.624 274.168 519.837 273.961C529.245 264.747 534.702 252.787 538.051 240.113C542.196 225.553 545.023 210.65 546.499 195.585C547.327 184.471 544.825 172.305 535.661 165.027C526.498 157.75 515.943 160.627 506.309 164.858C506.152 164.654 505.943 164.495 505.705 164.396C505.466 164.298 505.206 164.265 504.951 164.299C504.695 164.333 504.453 164.434 504.249 164.592C504.045 164.749 503.886 164.958 503.788 165.197C503.656 165.535 503.543 165.892 503.412 166.231C503.223 166.357 503.08 166.54 503.002 166.753C502.925 166.966 502.916 167.198 502.979 167.416C496.055 186.634 495.151 207.13 497.917 227.27Z" fill="#4093F6"/>
        <path d="M507.005 180.24C507.005 180.24 497.805 221.422 498.219 229.395C498.633 237.368 503.092 252.957 503.092 252.957L519.857 232.479L524.241 183.249L507.005 180.24Z" fill="#2483E2"/>
        <path d="M530.393 190.395C530.995 191.542 531.597 192.689 532.18 193.855C538.747 207.018 544.937 220.482 550.507 234.096C555.775 247.015 559.331 260.685 565.559 273.209C572.295 286.786 589.342 314.297 588.307 313.845C590.001 318.791 557.28 334.812 553.931 331.333C542.548 318.076 535.473 302.243 529.001 286.203C522.104 268.492 514.072 251.244 504.954 234.566L504.804 234.303C510.396 218.143 519.088 203.229 530.393 190.395Z" fill="#4093F6"/>
        <path d="M546.65 221.666C546.65 221.666 545.728 258.354 545.258 277.403C544.787 296.451 562.06 330.393 562.06 330.393C562.06 330.393 555.437 333.176 553.894 331.333C547.555 323.43 542.074 314.876 537.543 305.816C532.463 294.665 526.687 280.016 526.687 280.016L546.65 221.666Z" fill="#2483E2"/>
        <path d="M512.612 190.395L499.517 237.932L502.377 252.957L512.612 190.395Z" fill="#2A2B3B"/>
        <path d="M548.4 228.925L526.687 279.979L531.804 292.728C532.882 284.654 534.773 276.71 537.449 269.016C541.739 257.733 548.4 228.925 548.4 228.925Z" fill="#2A2B3B"/>
        <path d="M514.87 339.758C515.34 340.792 520.948 308.919 524.974 294.308C528.737 280.844 535.153 268.301 539.838 255.138C544.749 241.279 549.096 227.119 553.009 212.922C556.152 201.433 564.43 185.787 559.275 174.599C558.936 173.865 551.937 177.495 551.354 177.72C541.946 170.029 527.665 167.284 518.426 177.137C513.534 182.365 512.782 189.981 511.427 196.694C509.545 206.096 507.664 215.686 505.556 225.126C501.254 243.64 495.754 261.856 489.093 279.659C483.204 295.944 477.935 312.473 477.615 329.923C485.405 328.099 503.694 325.09 514.87 339.758Z" fill="#4093F6"/>
        <path d="M477.577 329.923C477.746 334.756 512.818 344.591 514.869 339.758C516.356 336.241 509.808 330.092 499.008 327.403C486.063 324.169 477.501 327.648 477.577 329.923Z" fill="#17171D"/>
        <path d="M498.219 352.827C499.712 350.583 500.6 347.992 500.796 345.305C501.267 342.672 503.75 333.816 504.748 329.397C500.416 327.633 495.83 326.573 491.163 326.256C490.09 329.679 487.117 338.517 485.687 339.983C485.456 340.225 485.197 340.44 484.916 340.623C481.153 343.331 473.627 342.616 469.864 343.782C469.429 343.853 469.013 344.011 468.641 344.247C468.269 344.482 467.949 344.791 467.7 345.155C465.837 348.37 494.681 357.077 498.219 352.827Z" fill="#E93E72"/>
        <path d="M469.863 343.688L479.723 348.709C479.723 348.709 495.979 354.858 498.218 352.733C500.457 350.608 500.777 345.888 500.796 345.211C496.205 340.002 484.916 340.529 484.916 340.529C481.153 343.237 473.683 342.522 469.863 343.688Z" fill="#FFD357"/>
        <path d="M467.699 345.061C465.649 348.577 494.926 357.001 498.218 352.714C500.345 349.969 471.256 339.006 467.699 345.061Z" fill="#2A2B3B"/>
        <path d="M533.46 104.609C515.058 92.2167 489.018 114.011 475.602 125.538C462.187 137.065 463.372 153.181 470.861 153.256C494.361 153.5 544.599 112.131 533.46 104.609Z" fill="#EDF1F4"/>
        <path d="M475.47 88.4558C479.233 104.082 481.209 130.559 483.805 144.286C485.687 153.933 464.519 154.704 461.904 152.71C455.639 147.859 452.045 119.088 448.395 93.3262C448.395 93.3262 474.736 85.4095 475.47 88.4558Z" fill="#EDF1F4"/>
        <path d="M499.799 179.714C499.799 179.714 535.135 189.116 572.446 182.497L571.298 173.659L499.799 179.714Z" fill="#2A2B3B"/>
        <path d="M513.722 105.211C513.722 105.211 505.989 109.517 501.285 128.829C500.079 134.062 498.578 139.223 496.788 144.286L506.873 138.645L513.722 105.211Z" fill="#17171D"/>
        <path d="M574.177 179.112C574.177 179.112 565.653 113.033 545.953 101.713C533.328 94.4168 513.967 100.829 509.526 110.401C501.04 129.092 496.092 179.037 496.092 179.037C496.092 179.037 541.475 188.533 574.177 179.112Z" fill="#565B82"/>
        <path d="M524.202 90.0166C524.202 90.0166 524.428 97.5384 524.691 99.1744C525.102 100.249 525.798 101.192 526.705 101.901C529.866 99.6445 532.462 100.171 533.441 99.1744C532.562 96.2044 532.175 93.1113 532.293 90.0166C532.293 86.237 524.202 90.0166 524.202 90.0166Z" fill="#EA3E72"/>
        <path d="M533.31 83.924C533.31 83.924 531.56 94.0972 525.125 94.2853C518.69 94.4733 522.735 80.4452 523.695 80.0503C524.654 79.6554 530.901 78.2827 533.31 83.924Z" fill="#EA3E72"/>
        <path d="M539.537 106.301C539.537 106.301 531.804 112.394 532.011 121.646C532.218 130.897 543.169 146.561 541.419 160.195C539.669 173.828 527.42 182.91 527.42 182.91C527.42 182.91 560.629 182.045 574.12 179.15C572.84 166.545 570.338 154.094 566.65 141.973L539.537 106.301Z" fill="#3F4261"/>
        <path d="M525.463 75.1048C526.324 74.6527 527.31 74.5005 528.267 74.6723C529.433 74.8979 530.148 75.8006 531.315 75.9322C531.828 75.9188 532.338 76.0196 532.807 76.2273C533.277 76.4351 533.694 76.7445 534.029 77.1333C534.364 77.5221 534.608 77.9805 534.744 78.4752C534.88 78.97 534.904 79.4887 534.815 79.994C534.887 80.0535 534.95 80.1232 535.003 80.2008C535.544 80.855 535.889 81.6497 535.995 82.4922C536.102 83.3346 535.966 84.1899 535.605 84.9583C536.621 86.8387 535.078 89.1893 533.893 90.5996C533.815 90.7134 533.703 90.7991 533.573 90.8441C533.477 91.0048 533.338 91.1354 533.172 91.221C533.005 91.3065 532.818 91.3435 532.632 91.3278C532.446 91.3122 532.267 91.2444 532.118 91.1322C531.968 91.0201 531.853 90.8681 531.785 90.6937C531.033 88.4747 531.691 85.7857 530.863 83.736C530.342 82.7819 529.71 81.892 528.982 81.0846C528.516 81.2396 528.02 81.2847 527.534 81.2162C527.047 81.1477 526.583 80.9675 526.178 80.6897C524.052 81.818 520.534 81.3291 519.988 78.6964C519.122 75.274 522.885 74.2022 525.463 75.1048Z" fill="#17171D"/>
        <path d="M529.997 85.8045C530.253 85.3026 530.648 84.8849 531.136 84.6015C531.623 84.318 532.181 84.1808 532.744 84.2061C534.532 84.4694 534.946 88.7003 531.935 89.0764C528.925 89.4525 529.997 85.8045 529.997 85.8045Z" fill="#EA3E72"/>
        <path d="M526.725 101.901L528.888 106.301L534.665 98.5914L533.16 98.2153L526.725 101.901Z" fill="#F2F8FF"/>
        <path d="M526.724 101.901L523.469 104.251V100.096L524.692 99.1743L526.724 101.901Z" fill="#F2F8FF"/>
        <path d="M538.766 103.443C549.735 93.5143 581.929 120.894 591.995 135.411C602.061 149.928 582.192 161.643 577.357 159.687C572.521 157.731 528.793 112.469 538.766 103.443Z" fill="#EDF1F4"/>
        <path d="M626.428 111.548C610.792 115.309 583.039 131.01 576.435 138.269C569.83 145.527 572.257 158.954 579.219 160.646C586.896 162.526 625.016 149.363 639.58 133.981C639.58 133.981 629.495 110.814 626.428 111.548Z" fill="#EDF1F4"/>
        <path d="M674.22 92.7432C674.22 92.7432 664.812 113.522 668.575 130.352C668.575 130.352 645.451 132.627 639.505 127.437C639.505 127.437 638.301 105.267 642.892 91.5397C642.911 91.5961 663.758 95.0749 674.22 92.7432Z" fill="#EDF1F4"/>
        <path d="M640.689 108.37C641.574 107.636 640.802 106.583 639.767 107.091C637.945 107.848 636.279 108.939 634.857 110.307C633.905 111.703 633.264 113.287 632.975 114.951C632.881 115.327 633.22 115.478 633.558 115.402C633.625 115.477 633.714 115.528 633.813 115.548C633.911 115.569 634.013 115.557 634.104 115.515C636.249 114.726 637.227 113.823 637.566 112.168C638.129 110.575 639.235 109.23 640.689 108.37V108.37Z" fill="#E93E72"/>
        <path d="M591.563 30.858L567.629 59.7228L579.201 63.9914L567.103 88.4559L594.385 60.9075L581.798 54.3635L591.563 30.858Z" fill="#FFD357"/>
        <path d="M480.287 5.45325L481.548 42.6107L492.931 38.1541L500.081 64.2546L502.17 25.8748L488.51 29.316L480.287 5.45325Z" fill="#FFD357"/>
        <path d="M429.786 97.3504L454.83 96.2221C454.83 96.2221 463.635 74.315 459.251 55.755C459.251 55.755 437.99 45.6383 431.404 45.3562C431.404 45.3562 438.31 81.1974 429.786 97.3504Z" fill="#EDF1F4"/>
        <path d="M191.522 95.2467L177.563 107.144L178.247 107.945L192.205 96.048L191.522 95.2467Z" fill="#BED0E2"/>
        <path d="M201.222 109.761L178.896 112.268L179.014 113.314L201.34 110.807L201.222 109.761Z" fill="#BED0E2"/>
        <path d="M179.817 117.479L179.544 118.496L202.768 124.728L203.041 123.711L179.817 117.479Z" fill="#BED0E2"/>
        <path d="M459.552 72.773C458.687 71.9644 459.552 70.8925 460.568 71.5319C462.398 72.4372 464.039 73.6815 465.404 75.1987C466.29 76.7007 466.848 78.3734 467.041 80.1067C467.041 80.5016 466.758 80.6332 466.401 80.5392C466.317 80.5927 466.219 80.6211 466.119 80.6211C466.019 80.6211 465.921 80.5927 465.836 80.5392C463.691 79.5614 462.732 78.5647 462.506 76.7783C462.005 75.1469 460.963 73.7345 459.552 72.773Z" fill="#E93E72"/>
    </g>
    <defs>
        <clipPath id="clip0">
            <rect width="692" height="363" fill="white"/>
        </clipPath>
    </defs>
</svg>
