<svg width="1898" height="967" viewBox="0 0 1898 967" fill="none" xmlns="http://www.w3.org/2000/svg">
    <circle opacity="0.2" cx="656.5" cy="140.5" r="33" stroke="#181B5E" stroke-width="5"/>
    <circle opacity="0.2" cx="965.5" cy="74.5" r="15" stroke="#181B5E" stroke-width="3"/>
    <circle cx="919" cy="380" r="28.5" stroke="#FF7E79" stroke-width="3"/>
    <circle opacity="0.2" cx="1116.5" cy="349.5" r="93" stroke="#181B5E" stroke-width="5"/>
    <g clip-path="url(#clip0)">
        <circle cx="535.5" cy="832.5" r="346" stroke="#181B5E" stroke-width="5"/>
        <g opacity="0.7">
            <path opacity="0.7" d="M1831.39 560.58C1821.41 560.582 1811.66 557.625 1803.37 552.083C1795.07 546.541 1788.61 538.663 1784.79 529.446C1780.97 520.229 1779.97 510.087 1781.92 500.303C1783.87 490.519 1788.68 481.532 1795.73 474.48C1802.79 467.428 1811.78 462.627 1821.56 460.685C1831.35 458.743 1841.49 459.746 1850.7 463.569C1859.92 467.392 1867.79 473.862 1873.33 482.161C1878.87 490.459 1881.82 500.214 1881.81 510.19C1881.79 523.552 1876.47 536.36 1867.01 545.805C1857.56 555.251 1844.75 560.564 1831.39 560.58V560.58ZM1831.39 462.49C1821.97 462.498 1812.75 465.3 1804.92 470.541C1797.09 475.783 1790.98 483.229 1787.38 491.938C1783.78 500.648 1782.84 510.23 1784.68 519.473C1786.52 528.717 1791.06 537.207 1797.73 543.871C1804.39 550.535 1812.88 555.074 1822.13 556.913C1831.37 558.753 1840.95 557.811 1849.66 554.206C1858.37 550.601 1865.81 544.496 1871.05 536.662C1876.29 528.827 1879.09 519.615 1879.1 510.19C1879.09 497.539 1874.07 485.408 1865.12 476.463C1856.17 467.519 1844.04 462.493 1831.39 462.49Z" fill="white"/>
        </g>
        <g opacity="0.55">
            <path opacity="0.55" d="M1732.94 907.97C1642.42 907.8 1568.88 834.11 1568.88 743.7C1568.88 653.29 1642.42 579.61 1732.88 579.44H1733.2C1823.6 579.62 1897.2 653.31 1897.2 743.71C1897.2 834.11 1823.65 907.81 1733.2 907.98H1733.04V906.6L1732.94 907.97ZM1732.83 580.81V582.19C1643.95 582.36 1571.63 654.82 1571.63 743.7C1571.63 832.58 1643.95 905.05 1732.83 905.21L1732.99 906.59V905.21H1733.08C1822.01 905.04 1894.32 832.58 1894.32 743.69C1894.32 654.8 1822.03 582.36 1733.1 582.19L1732.83 580.81ZM1732.99 843.64C1713.22 843.672 1693.88 837.837 1677.42 826.875C1660.97 815.913 1648.13 800.315 1640.54 782.056C1632.95 763.797 1630.95 743.698 1634.79 724.301C1638.63 704.904 1648.13 687.081 1662.1 673.088C1676.08 659.096 1693.88 649.561 1713.27 645.692C1732.66 641.823 1752.77 643.793 1771.04 651.352C1789.31 658.912 1804.93 671.721 1815.92 688.16C1826.9 704.598 1832.77 723.927 1832.77 743.7C1832.73 770.166 1822.21 795.539 1803.51 814.268C1784.81 832.997 1759.46 843.558 1732.99 843.64V843.64ZM1732.99 646.53C1713.76 646.494 1694.95 652.164 1678.95 662.821C1662.94 673.478 1650.46 688.643 1643.08 706.398C1635.7 724.153 1633.75 743.699 1637.48 762.562C1641.21 781.425 1650.45 798.758 1664.03 812.366C1677.62 825.975 1694.93 835.247 1713.79 839.01C1732.65 842.774 1752.2 840.858 1769.96 833.507C1787.73 826.155 1802.92 813.698 1813.6 797.712C1824.29 781.725 1829.99 762.928 1829.99 743.7C1829.95 717.969 1819.72 693.3 1801.54 675.091C1783.36 656.881 1758.71 646.612 1732.98 646.53H1732.99Z" fill="white"/>
        </g>
        <path d="M1811.1 841.82H1121.59V520.5H1811.1V841.82ZM1124.33 839.06H1808.33V523.26H1124.33V839.06Z" fill="#6C3F29"/>
        <path fill-rule="evenodd" clip-rule="evenodd" d="M1809.74 964.62H1778.19L1746.65 840.44H1809.74V964.62Z" fill="#FBF4EC"/>
        <path d="M1811.1 966.01H1777.1L1744.85 839.01H1811.1V966.01ZM1779.25 963.25H1808.34V841.82H1748.4L1779.25 963.25Z" fill="#6C3F29"/>
        <path fill-rule="evenodd" clip-rule="evenodd" d="M1122.97 964.62H1154.52L1186.06 840.44H1122.97V964.62Z" fill="#FBF4EC"/>
        <path d="M1155.59 966.01H1121.59V839.01H1187.84L1155.59 966.01ZM1124.35 963.25H1153.44L1184.29 841.82H1124.35V963.25Z" fill="#6C3F29"/>
        <path d="M1789.88 541.73H1476.28V820.57H1789.88V541.73Z" fill="#2B3B77"/>
        <path d="M1457.8 821.96H1141.45V540.36H1457.8V821.96ZM1144.21 819.19H1455.1V543.12H1144.21V819.19Z" fill="#6C3F29"/>
        <path d="M1525.83 626.19C1522.07 626.19 1518.4 625.076 1515.27 622.988C1512.15 620.9 1509.71 617.933 1508.28 614.461C1506.84 610.989 1506.46 607.169 1507.2 603.483C1507.93 599.798 1509.74 596.412 1512.4 593.755C1515.05 591.098 1518.44 589.288 1522.12 588.555C1525.81 587.822 1529.63 588.198 1533.1 589.636C1536.57 591.074 1539.54 593.51 1541.63 596.634C1543.72 599.759 1544.83 603.432 1544.83 607.19C1544.83 612.229 1542.83 617.062 1539.27 620.625C1535.7 624.188 1530.87 626.19 1525.83 626.19V626.19ZM1525.83 591.03C1522.62 591.028 1519.49 591.977 1516.82 593.758C1514.15 595.538 1512.07 598.07 1510.85 601.032C1509.62 603.994 1509.3 607.255 1509.92 610.4C1510.55 613.545 1512.09 616.435 1514.36 618.702C1516.63 620.97 1519.51 622.514 1522.66 623.139C1525.81 623.764 1529.07 623.442 1532.03 622.214C1534.99 620.986 1537.52 618.907 1539.3 616.24C1541.08 613.572 1542.03 610.437 1542.03 607.23C1542.03 605.1 1541.62 602.99 1540.8 601.021C1539.99 599.052 1538.8 597.263 1537.29 595.755C1535.79 594.247 1534 593.05 1532.04 592.232C1530.07 591.415 1527.96 590.993 1525.83 590.99V591.03Z" fill="white"/>
        <path d="M1406.88 626.19C1403.12 626.19 1399.45 625.076 1396.32 622.988C1393.2 620.9 1390.76 617.933 1389.33 614.461C1387.89 610.989 1387.51 607.169 1388.24 603.483C1388.98 599.798 1390.79 596.412 1393.44 593.755C1396.1 591.098 1399.49 589.288 1403.17 588.555C1406.86 587.822 1410.68 588.198 1414.15 589.636C1417.62 591.074 1420.59 593.51 1422.68 596.634C1424.77 599.759 1425.88 603.432 1425.88 607.19C1425.88 612.229 1423.88 617.062 1420.32 620.625C1416.75 624.188 1411.92 626.19 1406.88 626.19V626.19ZM1406.88 591.03C1403.67 591.032 1400.54 591.986 1397.87 593.77C1395.21 595.555 1393.13 598.09 1391.91 601.055C1390.68 604.02 1390.37 607.282 1391 610.427C1391.63 613.572 1393.18 616.459 1395.45 618.723C1397.72 620.987 1400.61 622.526 1403.76 623.145C1406.91 623.764 1410.17 623.436 1413.13 622.201C1416.09 620.966 1418.62 618.88 1420.39 616.208C1422.17 613.536 1423.11 610.398 1423.1 607.19C1423.09 602.892 1421.38 598.771 1418.34 595.734C1415.3 592.696 1411.18 590.99 1406.88 590.99V591.03Z" fill="#6C3F29"/>
        <path fill-rule="evenodd" clip-rule="evenodd" d="M1692.1 521.88H1651.25C1651.25 505.95 1622.83 509.55 1620.62 475.74C1617.45 427.04 1643.15 431.74 1652.29 381.74H1691.1C1700.24 431.74 1725.41 427.87 1722.76 475.74C1720.94 509 1692.1 505.95 1692.1 521.88Z" fill="#E57B51"/>
        <path fill-rule="evenodd" clip-rule="evenodd" d="M1621.26 481C1620.99 479.35 1620.79 477.6 1620.66 475.74C1620.66 474.98 1620.57 474.23 1620.54 473.5H1722.88C1722.88 474.23 1722.82 474.98 1722.77 475.74C1722.68 477.502 1722.49 479.257 1722.22 481H1621.26ZM1620.4 468.07C1620.34 463.041 1620.77 458.019 1621.66 453.07H1721.51C1722.47 458.012 1722.96 463.035 1722.96 468.07H1620.4Z" fill="#FBF4EC"/>
        <path d="M1620.4 422.56H1597.47V521.88H1620.4V422.56Z" fill="#2B3B77"/>
        <path d="M1597.48 398.77H1574.55V521.88H1597.48V398.77Z" fill="#645AE2"/>
        <path d="M1598.85 523.26H1573.17V397.39H1598.85V523.26ZM1575.93 520.5H1596.1V400.19H1575.94L1575.93 520.5Z" fill="#6C3F29"/>
        <path d="M1574.55 403.94H1551.62V521.87H1574.55V403.94Z" fill="#FBF4EC"/>
        <path d="M1575.93 523.26H1550.25V402.57H1575.93V523.26ZM1553 520.5H1573.17V405.32H1553V520.5Z" fill="#6C3F29"/>
        <path d="M1551.62 498.69H1433.69V521.62H1551.62V498.69Z" fill="#9451BF"/>
        <path d="M1553 523H1432.31V497.32H1553V523ZM1435.1 520.24H1550.27V500.07H1435.1V520.24Z" fill="#6C3F29"/>
        <path d="M1531.1 500.07H1410.43V474.39H1531.1V500.07ZM1413.17 497.32H1528.34V477.19H1413.19L1413.17 497.32Z" fill="#6C3F29"/>
        <path fill-rule="evenodd" clip-rule="evenodd" d="M770.28 253.03L835.93 259.26C845.84 260.19 863.3 251.06 871.34 260.26C873.68 262.92 872.71 269.14 874.08 270.95C887.08 288.13 901.88 283.63 904.71 287.16C909.05 292.55 891.77 300.91 871.65 297.09C853.55 293.65 844.5 285.94 829.41 287.36L775.65 285.61L770.28 253.03Z" fill="#F0AFAB"/>
        <path fill-rule="evenodd" clip-rule="evenodd" d="M710.79 379.19L750.39 431.92C758.04 435.38 774.17 446.11 773.92 449.86C773.11 453.71 754.72 438.48 754.49 442.43C763.66 458.92 773.13 481.56 770.49 483.56C768.68 484.95 759.58 463.02 758.12 463.88C755.68 465.31 769.05 493.66 765.12 493.97C761.53 494.25 751.64 467.5 750.4 469.18C747.9 467.69 760.33 491.9 757.14 493.7C755.31 494.7 748.2 479.81 741.92 470.7C735.64 461.59 746.3 491.55 744.24 491.94C738.34 493.04 729.17 460.11 725.24 445.94L690.34 405.09L710.79 379.19Z" fill="#F0AFAB"/>
        <path fill-rule="evenodd" clip-rule="evenodd" d="M670.88 255.07L741.23 399.47C749.98 413 710.64 440.3 698.47 436.78C671.4 415.88 619.23 353.19 581.32 310.97C517.63 239.97 573.89 69.49 636.56 101.55C677.89 122.69 652.21 216.76 670.88 255.07Z" fill="#9451BF"/>
        <path fill-rule="evenodd" clip-rule="evenodd" d="M731.9 883.21L741.62 925.08L751.3 940.95L707.26 940.31L697.78 926.12L695.24 894.02L731.9 883.21Z" fill="#EDB5B3"/>
        <path fill-rule="evenodd" clip-rule="evenodd" d="M697.78 926.12C712.67 937.26 727.49 937.29 741.62 926.12L813.68 950.03C822.29 952.88 820.83 964.63 813.94 964.63H687.52C686.43 936.19 697.78 938.96 697.78 926.12Z" fill="#2B3B77"/>
        <path fill-rule="evenodd" clip-rule="evenodd" d="M556.01 883.21L565.73 925.08L575.41 940.95L531.37 940.31L521.89 926.12L519.35 894.02L556.01 883.21Z" fill="#EDB5B3"/>
        <path fill-rule="evenodd" clip-rule="evenodd" d="M521.89 926.12C536.78 937.26 551.61 937.29 565.73 926.12L637.79 950.03C646.4 952.88 644.95 964.63 638.05 964.63H511.63C510.54 936.19 521.89 938.96 521.89 926.12Z" fill="#2B3B77"/>
        <path fill-rule="evenodd" clip-rule="evenodd" d="M511.66 314.58L505.1 905.46C523.22 916.61 546.1 916.89 571.36 902.28L599.87 436.39L679.2 906.29C707.99 914.52 719.81 913.1 747.2 898.88L663.71 313.31L511.66 314.58Z" fill="#6C3F29"/>
        <path d="M602.37 403.06L601.48 400.45C623.35 393 621.96 362.66 621.94 362.36L624.7 362.21C624.71 362.53 626.23 394.93 602.37 403.06Z" fill="#552214"/>
        <path d="M604.707 366.566L598.492 418.848L601.232 419.173L607.448 366.892L604.707 366.566Z" fill="#552214"/>
        <path fill-rule="evenodd" clip-rule="evenodd" d="M501.89 366.68C513.89 396.45 669.67 383.93 670.6 345.07C671.07 325.41 646.38 271.25 649.05 249.46C655.48 197.09 660.39 149.05 644.36 110.31C642.36 105.4 634.47 99.3101 626.65 95.0901C623.414 93.2026 619.715 92.2571 615.97 92.3601C615.97 92.3601 594.78 92.5201 585.36 93.8501C581.94 94.3301 566.73 97.5301 559.15 99.1901C525.43 106.6 512.45 170.58 504.47 259.19C500.73 300.75 500.84 364.08 501.89 366.68Z" fill="#9451BF"/>
        <path fill-rule="evenodd" clip-rule="evenodd" d="M620.62 92.71C620.78 91.17 611.18 88.61 627.44 65.71C629.96 62.17 636.44 64.53 637.2 61.71C639.2 54.08 631.65 42.63 634.92 33.71C637.2 27.48 626.27 23.41 618.06 21.42C604.58 18.16 581.19 26.55 589.48 56.88C591.48 64.17 597.48 72.21 597.19 92.88C597.19 99.43 601.51 107.22 607.13 107.27C614.39 107.25 623.1 97.9 620.62 92.71Z" fill="#F0AFAB"/>
        <path d="M616.67 319.62C601.26 286.03 606.33 257.24 611.67 226.76C617.52 193.52 623.58 159.14 606.89 112.29L608.36 111.76C625.19 159 618.83 195.14 613.21 227.03C607.88 257.26 602.85 285.82 618.06 318.97L616.67 319.62Z" fill="white"/>
        <path fill-rule="evenodd" clip-rule="evenodd" d="M597.2 92.1899L607.1 107.19C598.44 107.27 593.35 112.37 590.46 120.53L588.38 93.5299L597.2 92.1899Z" fill="#EA4747"/>
        <path fill-rule="evenodd" clip-rule="evenodd" d="M619.65 91.3L607.1 107.19C614.57 108.58 619.1 114.34 622.32 122.14L626.62 95.0901L619.65 91.3Z" fill="#EA4747"/>
        <path fill-rule="evenodd" clip-rule="evenodd" d="M632.63 218.88L796.82 242.64C812.76 244.98 807.36 292.56 796.69 299.4C763.13 305.98 681.63 303.92 624.87 304.58C529.49 305.68 493.73 125.19 559.15 99.1901C602.29 82.0401 590.46 212.78 632.63 218.88Z" fill="#9451BF"/>
        <path fill-rule="evenodd" clip-rule="evenodd" d="M635.36 39.12C629.48 41.91 615.42 20.22 605.36 42.92C604.6 44.63 603.17 50.79 595.74 45.68C588.31 40.57 586.89 53.68 594.34 53.18C601.79 52.68 594.34 67.96 591.49 65.94C588.64 63.92 558.37 41.27 595.95 21.53C634.86 -32.73 671.37 31.81 635.36 39.12Z" fill="#230E13"/>
        <path d="M663.64 224.76L632.64 220.27C630.19 220.49 611.51 220.12 598.44 164.8C585.58 102.35 572.44 100.3 572.33 100.28L572.41 97.53C573.95 97.53 587.8 99.46 601.14 164.2C614.26 219.74 632.27 217.53 632.45 217.52H632.65H632.86L664.07 222.04L663.64 224.76Z" fill="#8BB762"/>
        <path d="M661.68 361.71L660.36 359.29C675.16 351.22 668 333.87 667.69 333.14L659.69 304.96L662.35 304.21L670.28 332.21C670.28 332.21 678.65 352.45 661.68 361.71Z" fill="#8BB762"/>
        <g opacity="0.38">
            <path opacity="0.38" fill-rule="evenodd" clip-rule="evenodd" d="M672.93 378L668.87 351.82C668.87 351.82 665.92 370.03 602.98 380C540.04 389.97 510.74 373.89 510.74 373.89V397.76C510.74 397.76 552.64 407.31 597.2 403.91C598.13 413.62 599.87 436.39 599.87 436.39L615.32 527.92C615.32 527.92 635.55 422.92 652.02 391C659.533 387.609 666.565 383.237 672.93 378Z" fill="#552214"/>
        </g>
        <path d="M549.72 447.51L549.1 444.82C573.93 439.09 570.51 414.95 570.35 413.93L573.08 413.51C573.1 413.78 577.01 441.19 549.72 447.51Z" fill="#552214"/>
        <path d="M622.68 57.44C620.931 57.4405 619.22 56.9242 617.763 55.956C616.306 54.9878 615.168 53.6107 614.49 51.9977C613.813 50.3847 613.627 48.6076 613.956 46.8894C614.286 45.1713 615.115 43.5886 616.34 42.34C617.154 41.5026 618.127 40.836 619.202 40.3792C620.277 39.9225 621.432 39.6848 622.6 39.68H622.69C625.045 39.6694 627.308 40.5948 628.981 42.2527C630.654 43.9105 631.6 46.1649 631.61 48.52C631.621 50.8751 630.695 53.138 629.038 54.8109C627.38 56.4837 625.125 57.4294 622.77 57.44H622.68ZM622.68 41.24H622.6C620.659 41.2493 618.801 42.0294 617.434 43.4088C616.068 44.7881 615.306 46.6536 615.315 48.595C615.325 50.5364 616.105 52.3946 617.484 53.7608C618.863 55.127 620.729 55.8893 622.67 55.88H622.74C624.682 55.8721 626.54 55.0932 627.907 53.7148C629.275 52.3365 630.038 50.4714 630.03 48.53C630.022 46.5886 629.243 44.7299 627.865 43.3628C626.487 41.9957 624.622 41.2321 622.68 41.24V41.24Z" fill="#230E13"/>
        <path d="M644.02 57.1899C641.665 57.2019 639.401 56.2778 637.728 54.6209C636.054 52.964 635.107 50.7101 635.095 48.355C635.083 45.9998 636.007 43.7364 637.664 42.0627C639.321 40.3889 641.575 39.4419 643.93 39.4299H644.01C645.76 39.4275 647.472 39.9424 648.931 40.9098C650.389 41.8773 651.529 43.2542 652.208 44.8676C652.886 46.481 653.073 48.259 652.744 49.9781C652.415 51.6972 651.586 53.2808 650.36 54.5299C649.545 55.3665 648.572 56.0325 647.497 56.4892C646.422 56.9459 645.268 57.1841 644.1 57.1899H644.02ZM643.94 40.9899C642.979 40.9952 642.028 41.1897 641.142 41.5624C640.256 41.9352 639.452 42.4788 638.776 43.1622C638.1 43.8456 637.565 44.6555 637.202 45.5457C636.839 46.4358 636.655 47.3887 636.66 48.35C636.665 49.3112 636.86 50.262 637.232 51.1481C637.605 52.0342 638.149 52.8382 638.832 53.5143C639.516 54.1903 640.325 54.725 641.216 55.0881C642.106 55.4511 643.059 55.6352 644.02 55.63H644.1C645.061 55.6247 646.012 55.4302 646.898 55.0574C647.784 54.6847 648.588 54.1411 649.264 53.4577C649.94 52.7742 650.475 51.9643 650.838 51.0742C651.201 50.1841 651.385 49.2312 651.38 48.2699C651.375 47.3087 651.18 46.3578 650.807 45.4717C650.435 44.5857 649.891 43.7816 649.208 43.1056C648.524 42.4296 647.714 41.8948 646.824 41.5318C645.934 41.1688 644.981 40.9847 644.02 40.9899H643.94Z" fill="#230E13"/>
        <path d="M635.919 47.5862L630.789 47.6399L630.805 49.1998L635.935 49.1461L635.919 47.5862Z" fill="#230E13"/>
        <path fill-rule="evenodd" clip-rule="evenodd" d="M530.63 126.53C530.63 126.53 520.94 144.41 515.81 174.37C510.68 204.33 496.46 293.7 501.26 356.3C501.26 356.3 498.88 369.97 509.26 374.22C519.64 378.47 558.17 393.7 614.41 378C614.41 378 662.69 371.11 670.13 349.51C670.175 341.723 669.166 333.966 667.13 326.45C663.83 314.82 660.93 304.58 660.93 304.58C660.93 304.58 620.15 305.58 612.74 303.88C605.33 302.18 575.52 301.17 540.55 242.37C540.64 242.37 516.97 195.9 530.63 126.53Z" fill="#EA4747"/>
        <path d="M548.487 384.119L532.034 913.543L533.593 913.591L550.046 384.167L548.487 384.119Z" fill="white"/>
        <path d="M661.68 361.71L660.36 359.29C675.16 351.22 668 333.87 667.69 333.14L659.69 304.96L662.35 304.21L670.28 332.21C670.28 332.21 678.65 352.45 661.68 361.71Z" fill="#8BB762"/>
        <path d="M699.62 306.19C679.73 306.19 665.19 305.81 664.83 305.8L664.9 303.04C665.78 303.04 753.37 305.36 793.68 298.54L794.14 301.26C769.96 305.36 728.97 306.19 699.62 306.19Z" fill="#EA4747"/>
        <path d="M780.43 294.52L777.96 293.28C791.17 266.86 780.96 251.63 780.82 251.48L783.08 249.89C783.55 250.56 794.43 266.52 780.43 294.52Z" fill="#EA4747"/>
        <path d="M804.9 286.78L802.9 286.21C806.9 272.39 805.19 256.98 805.17 256.83L807.23 256.59C807.31 257.24 808.99 272.57 804.9 286.78Z" fill="#741726"/>
        <path d="M716.74 432.94L715.74 431.13C723.368 426.996 730.231 421.584 736.03 415.13L737.63 416.44C737.33 416.84 730.1 425.58 716.74 432.94Z" fill="#741726"/>
        <path d="M656.1 159.52L653.35 159.35C654.41 141.64 646.69 118.51 646.61 118.28L649.22 117.4C649.52 118.37 657.16 141.27 656.1 159.52Z" fill="#EA4747"/>
        <path d="M533.63 914.36C529.227 914.41 524.833 913.964 520.53 913.03L521.03 911.03C534.568 913.67 548.593 912.02 561.15 906.31L562.03 908.19C553.129 912.3 543.434 914.406 533.63 914.36Z" fill="#741726"/>
        <path d="M705.83 912.73C699.28 912.73 695.83 911.34 695.58 911.22L696.39 909.32C696.52 909.32 710.07 914.77 736.31 903.07L737.15 904.96C723.19 911.19 712.76 912.73 705.83 912.73Z" fill="#741726"/>
        <path d="M719.47 935.19C711.276 935.081 703.368 932.162 697.07 926.92L698.48 925.41C699.25 926.13 717.54 942.68 741 925.33L742.23 927C733.92 933.1 726.15 935.19 719.47 935.19Z" fill="#741726"/>
        <path d="M542.81 935.94C534.664 935.85 526.878 932.572 521.12 926.81L522.67 925.44C523.36 926.21 540.01 944.33 565.11 925.3L566.36 926.95C557.47 933.69 549.5 935.94 542.81 935.94Z" fill="#741726"/>
        <path d="M615.1 70.1901C614.152 70.1891 613.211 70.0233 612.32 69.7001C609.896 68.6835 607.95 66.781 606.88 64.3801L608.79 63.5901C609.648 65.4569 611.165 66.9416 613.05 67.7601C614.9 68.4301 617.05 68.1401 619.43 66.9101L620.43 68.7401C618.797 69.6489 616.968 70.1466 615.1 70.1901V70.1901Z" fill="#741726"/>
        <path d="M517.574 927.149L516.706 929.769L579.008 950.433L579.877 947.814L517.574 927.149Z" fill="white"/>
        <path d="M697.24 417.39C695.907 417.39 694.527 417.32 693.1 417.18L693.37 414.44C721.25 417.14 727.98 389.94 728.05 389.66L730.73 390.29C730.66 390.57 724.04 417.39 697.24 417.39Z" fill="#EA4747"/>
        <path d="M612.89 395.371L611.361 395.682L715.469 907.389L716.998 907.078L612.89 395.371Z" fill="white"/>
        <path fill-rule="evenodd" clip-rule="evenodd" d="M613.34 194.71L662.66 152.64C665.59 144.94 675.13 128.46 678.83 128.47C682.65 129.03 668.83 148 672.72 147.98C688.34 137.98 709.97 127.32 712.1 129.75C713.57 131.44 692.61 141.7 693.54 143.09C695.09 145.39 722.09 130.56 722.63 134.39C723.13 137.89 697.49 149.22 699.22 150.34C697.91 152.89 720.9 139.19 722.86 142.19C723.98 143.93 709.78 151.81 701.26 158.53C692.74 165.25 721.45 152.96 721.95 154.96C723.4 160.67 691.64 171.68 677.95 176.42L639.95 213.16L613.34 194.71Z" fill="#F0AFAB"/>
        <path fill-rule="evenodd" clip-rule="evenodd" d="M358.03 900.75L360.36 927.5L369.88 943.1L326.59 942.48L317.27 928.53L318.38 903.37L358.03 900.75Z" fill="#EDB5B3"/>
        <path fill-rule="evenodd" clip-rule="evenodd" d="M317.27 928.53C331.91 939.53 346.48 939.53 360.37 928.53L401.72 952.02C409.48 956.43 408.72 966.38 401.97 966.38H307.18C306.1 938.44 317.27 941.19 317.27 928.53Z" fill="#6C3F29"/>
        <path fill-rule="evenodd" clip-rule="evenodd" d="M502.32 884.59L511.88 925.75L521.4 941.35L478.1 940.73L468.79 926.78L466.29 895.22L502.32 884.59Z" fill="#EDB5B3"/>
        <path fill-rule="evenodd" clip-rule="evenodd" d="M468.79 926.78C483.42 937.72 498 937.78 511.88 926.78L582.71 950.27C591.18 953.08 589.71 964.63 582.97 964.63H458.7C457.63 936.69 468.79 939.4 468.79 926.78Z" fill="#6C3F29"/>
        <path fill-rule="evenodd" clip-rule="evenodd" d="M316.36 325.64L286.27 907.04C304.08 918.04 370.85 919.77 395.72 905.41L403.07 445.41L432.43 908.41C460.74 916.49 513.72 914.07 540.64 900.09L467.45 318.41L316.36 325.64Z" fill="#FF7E79"/>
        <path fill-rule="evenodd" clip-rule="evenodd" d="M522.32 219.37L638.1 152.5C645.23 156.69 670.94 195.74 670.18 201.73C643.93 226.56 538.65 299.89 482.9 302.26C391.1 306.19 369.27 98.3701 425.43 110.61C470.01 120.33 486.04 240.32 522.32 219.37Z" fill="#645AE2"/>
        <path fill-rule="evenodd" clip-rule="evenodd" d="M305.6 332.1C317.41 361.37 471.6 372.86 472.48 334.65C472.94 315.33 448.78 283.04 451.41 261.65C457.73 210.17 462.56 162.94 446.8 124.87C444.8 120.03 437.07 114.07 429.39 109.87C426.209 108.015 422.572 107.087 418.89 107.19C418.89 107.19 398.06 107.34 388.8 108.65C385.44 109.12 370.2 111.28 363.04 113.91C274.84 146.26 302.85 325.3 305.6 332.1Z" fill="#645AE2"/>
        <path fill-rule="evenodd" clip-rule="evenodd" d="M423.47 107.55C423.62 106.03 414.18 103.55 430.17 80.9899C432.64 77.5099 439.03 79.8299 439.76 76.9899C441.76 69.4799 434.31 58.2199 437.51 49.4699C439.76 43.3499 429.01 39.34 420.95 37.39C407.7 34.18 384.7 42.3899 392.85 72.2499C394.85 79.4099 400.72 87.3099 400.43 107.59C400.43 114.03 404.68 121.69 410.21 121.73C417.33 121.83 425.92 112.64 423.47 107.55Z" fill="#F0AFAB"/>
        <path d="M405.53 431.25L404.64 428.64C426.16 421.3 424.76 391.51 424.74 391.21L427.49 391.06C427.51 391.38 429 423.25 405.53 431.25Z" fill="#EA4747"/>
        <path d="M407.727 395.292L401.671 446.686L404.412 447.009L410.468 395.615L407.727 395.292Z" fill="#EA4747"/>
        <path fill-rule="evenodd" clip-rule="evenodd" d="M441.63 372.24L495.78 407.87C504 408.53 522.49 413.1 523.5 416.65C524.03 420.48 501.97 412.5 503.06 416.23C517.06 428.44 533.3 446.23 531.56 448.96C530.35 450.85 514.64 433.58 513.56 434.86C511.78 436.99 533.56 458.78 530.03 460.37C526.81 461.83 508.77 440.37 508.18 442.37C505.37 441.83 524.92 460.09 522.56 462.82C521.21 464.38 509.68 452.94 500.85 446.63C492.02 440.32 511.85 464.47 510.05 465.51C504.97 468.51 485.54 441.06 477.18 429.29L431.3 402.97L441.63 372.24Z" fill="#F0AFAB"/>
        <path fill-rule="evenodd" clip-rule="evenodd" d="M379.6 253.92L475.74 373.08C485.17 385.81 455.26 429.5 443.1 426.81C411.1 413.75 354.37 347.04 314.53 307.96C247.6 242.3 350.28 81.89 384.13 119.96C414.46 154.06 353.3 221.32 379.6 253.92Z" fill="#645AE2"/>
        <path d="M438.94 411.69L438 410.44C438.2 410.28 458.67 394.76 464.4 377.75L465.88 378.25C460 395.73 439.79 411.05 438.94 411.69Z" fill="#302CCE"/>
        <path fill-rule="evenodd" clip-rule="evenodd" d="M400.44 107.01L410.21 121.77C401.69 121.86 396.69 126.87 393.84 134.89L391.84 108.31L400.44 107.01Z" fill="#302CCE"/>
        <path fill-rule="evenodd" clip-rule="evenodd" d="M422.51 106.19L410.21 121.8C417.54 123.18 422.02 128.8 425.21 136.5L429.43 109.91L422.51 106.19Z" fill="#302CCE"/>
        <path fill-rule="evenodd" clip-rule="evenodd" d="M438.43 56.29C433.03 59.43 417.8 39.81 410 62.36C409.41 64.07 408.54 70.07 401 65.78C393.46 61.49 393.17 74.13 400.27 73.08C407.37 72.03 398.51 96.18 403.27 113.83C424.55 192.1 342.34 184.51 330.71 147.02C317.24 103.6 382.47 69.78 382.2 65.24C381.72 57.24 383.08 48.24 397.27 39.24C430.19 -15.92 472.32 46.36 438.43 56.29Z" fill="#230E13"/>
        <path d="M418.57 86.3101C418.152 86.3102 417.736 86.2599 417.33 86.1601C414.17 85.3801 412.63 81.8501 412.57 81.7001L414.47 80.8901C414.47 80.8901 415.68 83.6301 417.83 84.1501C419.04 84.4401 420.39 83.9801 421.83 82.7901L423.14 84.4001C421.881 85.5421 420.267 86.2165 418.57 86.3101Z" fill="#741726"/>
        <path d="M458.37 419.1L457.37 417.28C465.61 412.81 472.98 393.4 473.05 393.2L474.99 393.93C474.7 394.76 467.29 414.26 458.37 419.1Z" fill="#741726"/>
        <path fill-rule="evenodd" clip-rule="evenodd" d="M656.82 174.76C656.82 174.76 575.1 248.94 536.02 256.71C496.94 264.48 453.17 259.34 455.22 227.71C455.22 227.71 450.71 260.23 451.22 265.71C451.73 271.19 455.48 292.66 461.16 299.06C466.84 305.46 496.54 301.48 507.95 297.77C519.36 294.06 593.95 264.35 642.69 224L670.17 201.81C670.17 201.81 664.87 185.03 656.82 174.76Z" fill="#302CCE"/>
        <path d="M656.95 204.77C648.56 186.47 630.1 164.57 629.95 164.35L631.14 163.35C631.33 163.58 649.92 185.63 658.4 204.13L656.95 204.77Z" fill="#302CCE"/>
        <path d="M663.84 189.3C662.84 182.77 648.14 165.3 647.99 165.15L649.57 163.81C650.19 164.55 664.84 181.89 665.89 189L663.84 189.3Z" fill="#741726"/>
        <path fill-rule="evenodd" clip-rule="evenodd" d="M388.91 170.84L373.43 224.39C373.43 224.39 370.43 246.97 384.95 260.55C399.47 274.13 419.71 303.64 428.44 314.46L457.95 351.03C457.95 351.03 425.87 296.19 431.3 280.57C436.73 264.95 447.76 239.2 435.81 245.63C423.86 252.06 389.38 278.27 397.2 235.52C405.02 192.77 409.26 155.35 406.33 144.76C406.33 144.76 403.84 163.84 388.91 170.84Z" fill="#302CCE"/>
        <path fill-rule="evenodd" clip-rule="evenodd" d="M300.1 287.45C300.1 287.45 310.84 306.95 323.1 316.51C335.36 326.07 360.54 355.41 360.54 355.41C360.54 355.41 332.68 351.59 315.54 341.82C315.54 341.82 304.38 338.74 303.68 322.07L300.1 287.45Z" fill="#302CCE"/>
        <path d="M453.1 250.82L451.56 250.55C464.78 174.89 449.85 135.55 449.7 135.18L451.15 134.61C451.3 135 466.38 174.73 453.1 250.82Z" fill="#302CCE"/>
        <path d="M409.66 291.36C409.43 274.16 412.45 257.93 415.37 242.23C417.27 232.01 419.24 221.45 420.37 210.62C423.37 180.93 419.67 151.17 410.04 126.82L411.49 126.24C421.22 150.82 424.92 180.84 421.93 210.78C420.84 221.67 418.87 232.26 416.93 242.51C414.02 258.14 411.02 274.29 411.24 291.34L409.66 291.36Z" fill="white"/>
        <path fill-rule="evenodd" clip-rule="evenodd" d="M387.83 383.19C387.83 383.19 346.94 382.14 335.6 378.02C319.74 372.26 314.46 362.3 314.46 362.3L315.52 341.84C315.52 341.84 345.52 356.04 360.52 355.43L387.83 383.19Z" fill="#EA4747"/>
        <path fill-rule="evenodd" clip-rule="evenodd" d="M457.95 351.03L474.07 371.03L470.36 341.61C470.36 341.61 466.95 347.4 457.95 351.03Z" fill="#EA4747"/>
        <path d="M404.416 460.514L401.662 460.694L431.009 908.443L433.763 908.263L404.416 460.514Z" fill="#EA4747"/>
        <path d="M339.83 917.63C326.1 917.63 318.03 914.7 317.57 914.53L318.29 912.59C318.45 912.65 334.22 918.35 359.06 913.73L359.44 915.73C352.975 916.961 346.411 917.597 339.83 917.63V917.63Z" fill="#741726"/>
        <path d="M473.73 913.99C470.05 913.99 467.73 913.91 467.65 913.91L467.72 911.84C467.96 911.84 491.63 912.67 507.98 908.94L508.44 910.94C496.95 913.58 481.97 913.99 473.73 913.99Z" fill="#741726"/>
        <path d="M344.845 353.064L329.199 916.727L330.759 916.77L346.405 353.107L344.845 353.064Z" fill="white"/>
        <path d="M498.55 242.71L497.02 242.39C501.02 223.8 516.9 220.66 517.02 220.63L517.31 222.16C516.74 222.28 502.31 225.19 498.55 242.71Z" fill="#302CCE"/>
        <path d="M378.94 254.34C378.81 254.13 365.81 233.66 347.66 236.34L347.44 234.8C366.58 232 380.13 253.34 380.27 253.56L378.94 254.34Z" fill="#302CCE"/>
        <path d="M419.922 418.842L418.373 419.027L476.811 908.38L478.36 908.195L419.922 418.842Z" fill="white"/>
        <path d="M124.42 722.97C122.98 715.44 120.27 695.72 126.07 675.13C132.07 653.81 145.07 638.54 164.77 629.75L165.9 632.27C147 640.71 134.49 655.38 128.72 675.88C123.08 695.88 125.72 715.12 127.13 722.45L124.42 722.97Z" fill="#6C3F29"/>
        <path d="M145.24 751.19L142.53 750.67C143.93 743.33 146.53 724.12 140.93 704.1C135.16 683.6 122.65 668.92 103.76 660.48L104.88 657.97C124.56 666.76 137.59 682.03 143.59 703.35C149.39 723.91 146.67 743.64 145.24 751.19Z" fill="#6C3F29"/>
        <path d="M167.97 722.19L165.22 722.1C166.04 695.48 156.47 680.43 146.34 664.5C133.99 645.08 121.21 624.98 127.22 582.67L129.95 583.06C124.09 624.36 136.58 644.06 148.67 663.06C158.58 678.56 168.82 694.67 167.97 722.19Z" fill="#6C3F29"/>
        <path fill-rule="evenodd" clip-rule="evenodd" d="M135.92 507.39C148.29 508.51 156.66 527.86 154.61 550.62C152.56 573.38 140.87 590.92 128.49 589.8C116.11 588.68 107.75 569.34 109.8 546.58C111.85 523.82 123.54 506.28 135.92 507.39Z" fill="#6C3F29"/>
        <path d="M129.63 591.19C129.21 591.19 128.79 591.19 128.37 591.19C115.26 590 106.31 569.94 108.43 546.47C109.43 535.24 112.78 524.87 117.84 517.28C123.06 509.44 129.55 505.43 136.04 506.03C142.55 506.62 148.2 511.7 151.94 520.35C155.56 528.72 157 539.52 155.99 550.75C154.98 561.98 151.63 572.35 146.57 579.94C141.68 587.26 135.71 591.19 129.63 591.19ZM134.79 508.68C129.66 508.68 124.49 512.22 120.13 518.76C115.33 525.97 112.13 535.88 111.13 546.67C109.13 568.67 116.98 587.34 128.58 588.39C134.02 588.88 139.58 585.32 144.24 578.39C149.04 571.17 152.24 561.26 153.24 550.48C154.24 539.7 152.85 529.38 149.41 521.48C146.09 513.8 141.25 509.3 135.79 508.81C135.46 508.74 135.1 508.72 134.79 508.72V508.68Z" fill="#6C3F29"/>
        <path d="M81.3298 770.25C76.5198 764.25 64.8498 748.15 60.2798 727.25C55.5398 705.61 59.8498 686.01 73.0798 668.99L75.2498 670.68C62.5498 687.02 58.4198 705.86 62.9698 726.68C67.4198 747 78.7898 762.68 83.4698 768.53L81.3298 770.25Z" fill="#6C3F29"/>
        <path fill-rule="evenodd" clip-rule="evenodd" d="M243.34 605.67C247.29 617.45 232.93 632.88 211.26 640.14C189.59 647.4 168.83 643.74 164.89 631.96C160.95 620.18 175.3 604.74 196.97 597.48C218.64 590.22 239.4 593.89 243.34 605.67Z" fill="#FBF4EC"/>
        <path d="M189.68 645.26C186.835 645.269 183.994 645.031 181.19 644.55C171.91 642.91 165.66 638.55 163.58 632.39C159.4 619.91 174.18 603.66 196.53 596.18C218.88 588.7 240.47 592.75 244.65 605.18C248.84 617.66 234.05 633.91 211.7 641.4C204.613 643.852 197.179 645.155 189.68 645.26V645.26ZM218.68 595.1C211.428 595.183 204.237 596.429 197.38 598.79C176.47 605.79 162.47 620.48 166.16 631.52C167.91 636.72 173.4 640.38 181.64 641.83C190.17 643.34 200.53 642.27 210.8 638.83C231.7 631.83 245.71 617.14 242.01 606.1C239.65 599 230.51 595.1 218.71 595.1H218.68Z" fill="#6C3F29"/>
        <path d="M73.9999 650.4C72.4955 650.394 70.9927 650.297 69.4999 650.11C60.4999 649.01 50.3999 644.8 41.2199 638.26C22.0199 624.58 12.6199 604.72 20.2199 594C27.8599 583.28 49.6899 585.68 68.8899 599.37C78.0699 605.91 85.3299 614.03 89.3299 622.23C93.4599 630.7 93.6399 638.3 89.8499 643.62C86.7299 648.06 81.1799 650.4 73.9999 650.4ZM22.4999 595.6C15.7499 605.09 24.8599 623.21 42.8199 636.01C51.6399 642.29 61.2299 646.33 69.8199 647.38C78.1299 648.38 84.4499 646.48 87.6299 642.02C90.8099 637.56 90.5499 630.96 86.8799 623.44C83.0799 615.65 76.1299 607.9 67.3199 601.61C49.3199 588.82 29.2499 586.12 22.4899 595.61L22.4999 595.6Z" fill="#6C3F29"/>
        <path fill-rule="evenodd" clip-rule="evenodd" d="M119.45 628.77C110.37 620.3 90.36 626.96 74.77 643.67C59.18 660.38 53.9 680.78 62.99 689.26C72.08 697.74 92.07 691.07 107.66 674.37C123.25 657.67 128.53 637.25 119.45 628.77Z" fill="#6C3F29"/>
        <path d="M73.4497 694.33C69.2657 694.495 65.1789 693.041 62.0397 690.27C57.2697 685.81 55.9297 678.33 58.2897 669.2C60.5797 660.37 66.0697 650.97 73.7597 642.73C81.4497 634.49 90.4597 628.35 99.1197 625.47C108.06 622.47 115.61 623.31 120.39 627.77C130.01 636.77 124.76 658.08 108.67 675.31C100.98 683.55 91.9697 689.68 83.3197 692.57C80.1437 693.676 76.8122 694.27 73.4497 694.33V694.33ZM108.98 626.46C105.912 626.517 102.873 627.067 99.9797 628.09C91.7497 630.83 83.1598 636.7 75.7698 644.61C68.3798 652.52 63.0997 661.5 60.9597 669.89C58.8697 677.99 59.9597 684.51 63.9597 688.25C67.9597 691.99 74.5397 692.6 82.4797 689.95C90.6997 687.21 99.2997 681.34 106.68 673.43C121.73 657.31 127.05 637.73 118.54 629.78C115.9 627.482 112.475 626.292 108.98 626.46V626.46Z" fill="#6C3F29"/>
        <path fill-rule="evenodd" clip-rule="evenodd" d="M196.1 657.7C190.35 652.95 178.61 657.7 169.88 668.27C161.15 678.84 158.74 691.27 164.5 696.02C170.26 700.77 181.99 696.02 190.72 685.45C199.45 674.88 201.81 662.44 196.1 657.7Z" fill="#FBF4EC"/>
        <path d="M170.1 699.25C167.743 699.32 165.437 698.555 163.59 697.09C157.15 691.77 159.43 678.73 168.79 667.39C178.15 656.05 190.51 651.32 196.95 656.64C200.14 659.27 201.28 663.89 200.17 669.64C199.11 675.1 196.12 681.03 191.75 686.32C187.38 691.61 182.14 695.67 176.98 697.75C174.804 698.687 172.468 699.197 170.1 699.25V699.25ZM190.46 657.25C184.81 657.25 177 661.77 170.91 669.15C162.83 678.96 160.28 690.79 165.35 694.97C167.72 696.97 171.48 696.97 175.95 695.22C181.302 692.834 185.995 689.186 189.63 684.59C193.7 679.64 196.49 674.15 197.46 669.14C198.37 664.41 197.57 660.73 195.2 658.77C193.843 657.716 192.157 657.174 190.44 657.24L190.46 657.25Z" fill="#6C3F29"/>
        <path fill-rule="evenodd" clip-rule="evenodd" d="M47.9301 709.19H240.27C243 709.198 245.617 710.285 247.548 712.215C249.48 714.144 250.57 716.76 250.58 719.49V719.49C250.572 722.222 249.483 724.84 247.552 726.771C245.62 728.703 243.002 729.792 240.27 729.8H47.9301C45.1982 729.792 42.5804 728.703 40.6486 726.771C38.7168 724.84 37.628 722.222 37.6201 719.49C37.6307 716.76 38.7206 714.144 40.6521 712.215C42.5836 710.285 45.1999 709.198 47.9301 709.19V709.19Z" fill="#FBF4EC"/>
        <path d="M240.27 731.19H47.9298C46.3666 731.236 44.81 730.967 43.3524 730.401C41.8947 729.834 40.5656 728.981 39.4436 727.891C38.3217 726.801 37.4298 725.498 36.8208 724.057C36.2118 722.617 35.8979 721.069 35.8979 719.505C35.8979 717.941 36.2118 716.393 36.8208 714.953C37.4298 713.512 38.3217 712.208 39.4436 711.119C40.5656 710.029 41.8947 709.176 43.3524 708.609C44.81 708.043 46.3666 707.774 47.9298 707.82H240.27C241.833 707.774 243.39 708.043 244.847 708.609C246.305 709.176 247.634 710.029 248.756 711.119C249.878 712.208 250.77 713.512 251.379 714.953C251.988 716.393 252.302 717.941 252.302 719.505C252.302 721.069 251.988 722.617 251.379 724.057C250.77 725.498 249.878 726.801 248.756 727.891C247.634 728.981 246.305 729.834 244.847 730.401C243.39 730.967 241.833 731.236 240.27 731.19V731.19ZM47.9298 710.58C46.7326 710.54 45.5396 710.741 44.4218 711.172C43.304 711.602 42.2842 712.253 41.4231 713.086C40.562 713.918 39.8773 714.916 39.4097 716.019C38.942 717.121 38.701 718.307 38.701 719.505C38.701 720.703 38.942 721.888 39.4097 722.991C39.8773 724.094 40.562 725.091 41.4231 725.924C42.2842 726.757 43.304 727.408 44.4218 727.838C45.5396 728.269 46.7326 728.47 47.9298 728.43H240.27C241.467 728.47 242.66 728.269 243.778 727.838C244.896 727.408 245.915 726.757 246.777 725.924C247.638 725.091 248.322 724.094 248.79 722.991C249.258 721.888 249.499 720.703 249.499 719.505C249.499 718.307 249.258 717.121 248.79 716.019C248.322 714.916 247.638 713.918 246.777 713.086C245.915 712.253 244.896 711.602 243.778 711.172C242.66 710.741 241.467 710.54 240.27 710.58H47.9298Z" fill="#6C3F29"/>
        <path fill-rule="evenodd" clip-rule="evenodd" d="M55.29 729.8H232.91L241.85 784.32C246.65 813.62 221.85 843.63 188.75 843.63H99.45C66.33 843.63 41.55 813.63 46.35 784.32L55.29 729.8Z" fill="#FF7E79"/>
        <path fill-rule="evenodd" clip-rule="evenodd" d="M236.1 749.13L238.81 765.68H49.4098L52.1198 749.13H236.1ZM240.1 773.72L241.41 781.72H46.7798L48.0898 773.72H240.1Z" fill="#FBF4EC"/>
        <path fill-rule="evenodd" clip-rule="evenodd" d="M103.2 870.19H74.0999L66.5199 960.19C66.436 960.736 66.4716 961.294 66.6243 961.826C66.777 962.357 67.0432 962.849 67.4045 963.267C67.7658 963.685 68.2136 964.02 68.7169 964.249C69.2202 964.477 69.7671 964.593 70.3199 964.59H79.0999C80.3041 964.518 81.4498 964.046 82.3555 963.249C83.2611 962.452 83.875 961.375 84.0999 960.19L103.2 870.19Z" fill="#645AE2"/>
        <path fill-rule="evenodd" clip-rule="evenodd" d="M186.58 870.19H215.69L223.25 960.26C223.334 960.805 223.298 961.363 223.146 961.893C222.994 962.424 222.729 962.915 222.369 963.333C222.008 963.751 221.562 964.086 221.06 964.315C220.558 964.544 220.012 964.662 219.46 964.66H210.65C209.445 964.591 208.297 964.12 207.391 963.323C206.485 962.525 205.872 961.447 205.65 960.26L186.58 870.19Z" fill="#645AE2"/>
        <path fill-rule="evenodd" clip-rule="evenodd" d="M63.42 870.19H224.77C226.003 870.187 227.186 869.697 228.059 868.826C228.932 867.954 229.425 866.773 229.43 865.54V865.54C229.425 864.307 228.932 863.125 228.059 862.254C227.186 861.383 226.003 860.893 224.77 860.89H63.42C62.1876 860.893 61.0064 861.383 60.1349 862.255C59.2634 863.126 58.7727 864.307 58.77 865.54V865.54C58.7727 866.772 59.2634 867.954 60.1349 868.825C61.0064 869.697 62.1876 870.187 63.42 870.19V870.19Z" fill="#FBF4EC"/>
        <path d="M224.77 871.54H63.4201C61.8209 871.54 60.2871 870.905 59.1563 869.774C58.0254 868.643 57.3901 867.109 57.3901 865.51C57.3901 863.911 58.0254 862.377 59.1563 861.246C60.2871 860.115 61.8209 859.48 63.4201 859.48H224.77C226.369 859.48 227.903 860.115 229.034 861.246C230.165 862.377 230.8 863.911 230.8 865.51C230.8 867.109 230.165 868.643 229.034 869.774C227.903 870.905 226.369 871.54 224.77 871.54ZM63.4201 862.24C62.5828 862.286 61.7951 862.651 61.2187 863.26C60.6424 863.87 60.3212 864.676 60.3212 865.515C60.3212 866.353 60.6424 867.16 61.2187 867.769C61.7951 868.378 62.5828 868.744 63.4201 868.79H224.77C225.215 868.815 225.661 868.748 226.08 868.595C226.499 868.441 226.882 868.204 227.206 867.897C227.53 867.591 227.788 867.222 227.964 866.812C228.14 866.402 228.231 865.961 228.231 865.515C228.231 865.069 228.14 864.628 227.964 864.218C227.788 863.808 227.53 863.439 227.206 863.132C226.882 862.826 226.499 862.589 226.08 862.435C225.661 862.282 225.215 862.215 224.77 862.24H63.4201Z" fill="#6C3F29"/>
        <path d="M243.57 843.63H44.6198C39.8646 843.63 36.0098 847.485 36.0098 852.24C36.0098 856.995 39.8646 860.85 44.6198 860.85H243.57C248.325 860.85 252.18 856.995 252.18 852.24C252.18 847.485 248.325 843.63 243.57 843.63Z" fill="#FBF4EC"/>
        <path d="M243.57 862.24H44.5698C41.9177 862.24 39.3741 861.186 37.4987 859.311C35.6234 857.436 34.5698 854.892 34.5698 852.24C34.5698 849.588 35.6234 847.044 37.4987 845.169C39.3741 843.293 41.9177 842.24 44.5698 842.24H243.57C246.222 842.24 248.766 843.293 250.641 845.169C252.516 847.044 253.57 849.588 253.57 852.24C253.57 854.892 252.516 857.436 250.641 859.311C248.766 861.186 246.222 862.24 243.57 862.24ZM44.5698 845.01C42.6975 845.08 40.9251 845.872 39.6252 847.222C38.3252 848.571 37.5988 850.371 37.5988 852.245C37.5988 854.119 38.3252 855.919 39.6252 857.268C40.9251 858.618 42.6975 859.41 44.5698 859.48H243.57C245.442 859.41 247.215 858.618 248.514 857.268C249.814 855.919 250.541 854.119 250.541 852.245C250.541 850.371 249.814 848.571 248.514 847.222C247.215 845.872 245.442 845.08 243.57 845.01H44.5698Z" fill="#6C3F29"/>
        <path d="M228.979 612.144L172.426 629.715L173.245 632.351L229.798 614.78L228.979 612.144Z" fill="#6C3F29"/>
        <path d="M127.85 571.63L126.29 571.47L131.43 522.7L132.98 522.86L127.85 571.63Z" fill="white"/>
        <path d="M71.67 681.88L70.54 680.8C82.39 668.48 110.08 639.8 111.49 639.3L111.98 640.78L111.73 640.04L112.08 640.74C110.49 641.73 87.04 665.89 71.67 681.88Z" fill="white"/>
        <path d="M1879.83 966.01H112.44V963.25H1879.83V966.01ZM83.69 966.01H0V963.25H83.69V966.01Z" fill="#6C3F29"/>
        <path fill-rule="evenodd" clip-rule="evenodd" d="M965.44 256.71L899.78 262.93C892.78 263.59 854.41 262.57 852.44 268.25C851.29 271.6 854.16 272.65 852.25 273.88C837.92 283.1 822.14 278.88 819.56 283.06C815.93 288.95 831.02 306.62 876.48 294.53C894.28 289.79 891.22 289.53 906.3 291L960.07 289.26L965.44 256.71Z" fill="#F0AFAB"/>
        <path fill-rule="evenodd" clip-rule="evenodd" d="M1084.04 227.87L919.86 251.63C903.92 253.97 909.32 301.55 919.98 308.39C953.55 314.96 1035.04 312.91 1091.81 313.57C1187.19 314.67 1222.95 134.19 1157.53 108.18C1114.39 91.0299 1126.22 221.77 1084.04 227.87Z" fill="#645AE2"/>
        <path fill-rule="evenodd" clip-rule="evenodd" d="M1123.45 252.72C1123.45 252.72 1126.25 277.46 1098.67 286.83C1071.09 296.2 912.34 293.9 912.34 293.9C912.34 293.9 913.09 307.24 919.98 308.39C926.87 309.54 962.61 313.04 999.38 313.22C1036.15 313.4 1094.77 313.57 1094.77 313.57C1094.77 313.57 1119.77 316.35 1146.93 290.3C1146.93 290.3 1162.23 276.06 1165.27 267.4L1123.45 252.72Z" fill="#302CCE"/>
        <path fill-rule="evenodd" clip-rule="evenodd" d="M1055.96 883.21L1046.24 925.08L1036.56 940.95L1080.61 940.31L1090.09 926.12L1092.62 894.02L1055.96 883.21Z" fill="#EDB5B3"/>
        <path fill-rule="evenodd" clip-rule="evenodd" d="M1090.1 926.12C1075.2 937.26 1060.38 937.29 1046.26 926.12L974.2 950.03C965.58 952.88 967.04 964.63 973.94 964.63H1100.36C1101.44 936.19 1090.1 938.96 1090.1 926.12Z" fill="#6C3F29"/>
        <path fill-rule="evenodd" clip-rule="evenodd" d="M1231.85 883.21L1222.13 925.08L1212.45 940.95L1256.49 940.31L1265.97 926.12L1268.51 894.02L1231.85 883.21Z" fill="#EDB5B3"/>
        <path fill-rule="evenodd" clip-rule="evenodd" d="M1265.97 926.12C1251.08 937.26 1236.26 937.29 1222.13 926.12L1150.1 950.03C1141.49 952.88 1142.95 964.63 1149.85 964.63H1276.26C1277.33 936.19 1265.97 938.96 1265.97 926.12Z" fill="#6C3F29"/>
        <path fill-rule="evenodd" clip-rule="evenodd" d="M1276.2 314.58L1282.78 905.46C1264.65 916.61 1241.78 916.89 1216.51 902.28L1187.99 436.39L1108.66 906.29C1079.87 914.52 1068.06 913.1 1040.66 898.88L1125.96 307.4L1276.2 314.58Z" fill="#2B3B77"/>
        <path d="M1185.69 402.5C1162.25 394.5 1163.75 362.56 1163.76 362.24L1165.33 362.32C1165.33 362.63 1163.88 393.41 1186.19 401.02L1185.69 402.5Z" fill="#231915"/>
        <path d="M1183.58 382.017L1182.03 382.201L1188.24 434.473L1189.79 434.288L1183.58 382.017Z" fill="#1C2C59"/>
        <path fill-rule="evenodd" clip-rule="evenodd" d="M1285.98 366.68C1273.98 396.45 1118.19 383.93 1117.26 345.07C1116.79 325.41 1141.48 271.25 1138.81 249.46C1132.38 197.09 1127.47 149.05 1143.5 110.31C1145.5 105.4 1153.4 99.31 1161.21 95.09C1164.45 93.2035 1168.15 92.258 1171.89 92.36C1171.89 92.36 1193.08 92.52 1202.51 93.85C1205.92 94.33 1221.14 97.53 1228.71 99.19C1262.44 106.6 1275.41 170.58 1283.39 259.19C1287.1 300.75 1287.02 364.08 1285.98 366.68Z" fill="#645AE2"/>
        <path fill-rule="evenodd" clip-rule="evenodd" d="M1167.24 92.71C1167.08 91.17 1176.69 88.61 1160.42 65.71C1157.9 62.17 1151.42 64.53 1150.66 61.71C1148.66 54.08 1156.21 42.63 1152.95 33.71C1150.66 27.48 1161.6 23.41 1169.8 21.42C1183.28 18.16 1206.67 26.55 1198.38 56.88C1196.38 64.17 1190.38 72.21 1190.67 92.88C1190.67 99.43 1186.35 107.22 1180.73 107.27C1173.48 107.25 1164.74 97.9 1167.24 92.71Z" fill="#F0AFAB"/>
        <path d="M1171.2 319.62L1169.77 318.97C1184.98 285.82 1179.95 257.26 1174.63 227.03C1169.01 195.14 1162.63 159.03 1179.47 111.76L1180.95 112.29C1164.25 159.14 1170.31 193.52 1176.17 226.76C1181.54 257.24 1186.61 286.03 1171.2 319.62Z" fill="white"/>
        <path fill-rule="evenodd" clip-rule="evenodd" d="M1190.66 92.1899L1180.73 107.19C1189.4 107.27 1194.48 112.37 1197.38 120.53L1199.45 93.5299L1190.66 92.1899Z" fill="#302CCE"/>
        <path fill-rule="evenodd" clip-rule="evenodd" d="M1168.21 91.3L1180.73 107.19C1173.27 108.58 1168.73 114.34 1165.51 122.14L1161.21 95.0901L1168.21 91.3Z" fill="#302CCE"/>
        <path fill-rule="evenodd" clip-rule="evenodd" d="M1152.51 39.12C1158.38 41.91 1172.45 20.22 1182.51 42.92C1183.27 44.63 1184.69 50.79 1192.12 45.68C1199.55 40.57 1200.98 53.68 1193.53 53.18C1186.08 52.68 1193.53 67.96 1196.37 65.94C1199.21 63.92 1220.7 43.34 1197.86 18.43C1172.39 -16.7 1126.32 34.91 1152.51 39.12Z" fill="#230E13"/>
        <path fill-rule="evenodd" clip-rule="evenodd" d="M1137.51 382.59L1097.9 435.32C1090.26 438.78 1074.13 449.51 1074.38 453.26C1075.19 457.1 1093.57 441.88 1093.8 445.82C1084.64 462.31 1075.17 484.96 1077.8 486.96C1079.6 488.35 1088.7 466.42 1090.17 467.28C1092.6 468.71 1079.24 497.06 1083.17 497.37C1086.75 497.65 1096.64 470.9 1097.89 472.58C1100.39 471.09 1087.95 495.3 1091.15 497.1C1092.98 498.1 1100.09 483.21 1106.37 474.1C1112.65 464.99 1101.99 494.95 1104.05 495.34C1109.94 496.44 1119.12 463.5 1123.05 449.34L1157.96 408.4L1137.51 382.59Z" fill="#F0AFAB"/>
        <path fill-rule="evenodd" clip-rule="evenodd" d="M1200.41 270.71L1107.1 402.84C1098.36 416.38 1137.7 443.68 1149.87 440.16C1176.94 419.25 1229.11 356.61 1267.01 314.35C1330.71 243.35 1268.24 65.6299 1211.77 104.93C1173.63 131.44 1225 235.91 1200.41 270.71Z" fill="#645AE2"/>
        <path d="M901.44 287.55C873.66 287.55 871.93 265.21 871.92 264.98L873.98 264.85C874.04 265.71 875.62 286.17 902.6 285.46V287.53L901.44 287.55Z" fill="#741726"/>
        <path d="M866.18 297.06C863.18 297.06 857.18 294.94 849.24 292.06C845.52 290.69 842.02 289.4 840.05 288.91C834.62 287.56 816.4 287.98 816.22 287.98V285.91C816.98 285.91 834.9 285.48 840.6 286.91C842.67 287.43 846.07 288.68 850 290.12C856.08 292.36 864.39 295.41 866.63 295.02L866.99 297.02C866.722 297.059 866.45 297.072 866.18 297.06V297.06Z" fill="#741726"/>
        <path d="M1133.62 437.39C1118.08 429.73 1110.21 419.33 1109.88 418.89L1111.54 417.65C1111.61 417.75 1119.46 428.1 1134.54 435.54L1133.62 437.39Z" fill="#741726"/>
        <path d="M910.59 291.06C907.38 277.14 910.14 262.27 910.26 261.65L912.26 262.03C912.26 262.18 909.47 277.11 912.58 290.6L910.59 291.06Z" fill="#741726"/>
        <path d="M930.99 302.05C916.8 272.64 930.94 254.85 931.09 254.68L932.3 255.68C932.16 255.85 918.67 272.92 932.4 301.39L930.99 302.05Z" fill="#302CCE"/>
        <path d="M1135.15 203.99C1120.07 148.66 1142.6 110.29 1142.83 109.91L1144.17 110.71C1143.95 111.09 1121.76 148.92 1136.66 203.57L1135.15 203.99Z" fill="#302CCE"/>
        <path d="M1202.53 200.02C1198.78 186.81 1193.45 141.87 1199.05 120.33C1204.65 98.7899 1228.47 98.4099 1228.71 98.4099V99.9699C1228.48 99.9699 1205.85 100.35 1200.55 120.73C1195.02 142.01 1200.31 186.5 1204.02 199.59L1202.53 200.02Z" fill="#302CCE"/>
        <path fill-rule="evenodd" clip-rule="evenodd" d="M1285.1 283.69C1285.1 283.69 1282.3 296.75 1254.39 328.54C1226.48 360.33 1206.21 383.19 1206.21 383.19C1206.21 383.19 1274.57 387.77 1285.98 366.7L1285.1 283.69Z" fill="#302CCE"/>
        <path d="M1196.7 274.4L1133.35 364.034L1134.63 364.935L1197.98 275.3L1196.7 274.4Z" fill="#302CCE"/>
        <path d="M1170.82 70.9401C1170.41 70.9387 1170 70.9019 1169.6 70.8301C1168.43 70.5606 1167.34 70.0409 1166.4 69.307C1165.45 68.5732 1164.68 67.6427 1164.13 66.5801L1165.98 65.6601C1166.39 66.4335 1166.96 67.1123 1167.65 67.6531C1168.34 68.1939 1169.13 68.5846 1169.98 68.8001C1172.16 69.1801 1174.69 68.0301 1177.49 65.3701L1178.91 66.8701C1176.1 69.5701 1173.35 70.9401 1170.82 70.9401Z" fill="#741726"/>
        <path d="M1241.24 383.598L1239.68 383.669L1259.6 820.655L1261.16 820.584L1241.24 383.598Z" fill="white"/>
        <path d="M1079.01 912.91C1068.97 912.909 1059.13 910.141 1050.56 904.91L1051.71 903.2C1051.89 903.31 1069.35 914.84 1091.08 909.39L1091.58 911.39C1087.47 912.413 1083.25 912.924 1079.01 912.91Z" fill="#741726"/>
        <path d="M1254.49 915.28C1240.65 915.28 1226.49 909.22 1225.7 908.88L1226.52 906.99C1226.77 907.09 1251.11 917.5 1266.44 911.12L1267.24 913.04C1263.18 914.609 1258.85 915.37 1254.49 915.28V915.28Z" fill="#741726"/>
        <path d="M1068.01 935.34C1059.76 935.203 1051.82 932.213 1045.53 926.88L1046.96 925.37C1047.73 926.11 1066.16 943.05 1089.46 925.3L1090.71 926.95C1082.45 933.24 1074.69 935.34 1068.01 935.34Z" fill="#741726"/>
        <path d="M1241.28 935.55C1232.35 935.55 1221.96 927.31 1221.48 926.93L1222.78 925.32C1222.9 925.41 1234.67 934.75 1243.07 933.32L1243.41 935.32C1242.71 935.452 1241.99 935.529 1241.28 935.55V935.55Z" fill="#741726"/>
        <path d="M1123.45 237.8C1123.06 225 1130.11 209.98 1130.45 209.35L1132.31 210.24C1132.24 210.39 1125.18 225.44 1125.56 237.73L1123.45 237.8Z" fill="#741726"/>
        <path d="M1149.2 440.124L1070.51 909.888L1072.05 910.145L1150.74 440.382L1149.2 440.124Z" fill="white"/>
        <path fill-rule="evenodd" clip-rule="evenodd" d="M1464.09 899L1466.42 925.75L1475.94 941.35L1432.64 940.73L1423.33 926.78L1424.43 901.62L1464.09 899Z" fill="#EDB5B3"/>
        <path fill-rule="evenodd" clip-rule="evenodd" d="M1423.33 926.78C1437.97 937.72 1452.54 937.78 1466.42 926.78L1507.78 950.27C1515.53 954.68 1514.78 964.63 1508.03 964.63H1413.24C1412.17 936.69 1423.33 939.4 1423.33 926.78Z" fill="#2B3B77"/>
        <path fill-rule="evenodd" clip-rule="evenodd" d="M1274.87 882.84L1265.32 924L1255.8 939.6L1299.1 938.98L1308.41 925.03L1310.91 893.47L1274.87 882.84Z" fill="#EDB5B3"/>
        <path fill-rule="evenodd" clip-rule="evenodd" d="M1309.18 926.78C1294.54 937.72 1279.97 937.78 1266.08 926.78L1195.25 950.27C1186.79 953.08 1188.25 964.63 1195 964.63H1319.27C1320.34 936.69 1309.18 939.4 1309.18 926.78Z" fill="#2B3B77"/>
        <path fill-rule="evenodd" clip-rule="evenodd" d="M1450.73 323.89L1480.82 905.29C1463 916.29 1439.68 918.02 1414.82 903.66L1364.03 443.66L1325.35 906.66C1297.05 914.74 1281.35 912.32 1254.35 898.34L1299.62 316.75L1450.73 323.89Z" fill="#645AE2"/>
        <path fill-rule="evenodd" clip-rule="evenodd" d="M1132.4 209.91C1099.88 206.3 1111.73 205.59 1079.26 204.16C1056.01 203.16 1037.88 204.06 1038.1 208.16C1038.21 210.39 1070.96 212.16 1075.75 216.9C1080.39 221.5 1078.75 228.9 1083.99 236.48C1087.35 241.32 1098.99 239.48 1112.99 235.71L1165.09 244.79L1132.4 209.91Z" fill="#F0AFAB"/>
        <path d="M1111.21 232.41C1109 217.41 1101.31 215.94 1101.21 215.93L1101.55 213.93C1101.93 213.99 1110.8 215.69 1113.22 232.14L1111.21 232.41Z" fill="#741726"/>
        <path fill-rule="evenodd" clip-rule="evenodd" d="M1250.76 196.19L1133.96 205.19C1128.42 211.33 1120.96 247.31 1123.45 252.79C1155.97 268.55 1251.19 292.37 1305.07 277.79C1393.78 253.86 1396.62 68.25 1350.7 102.79C1306.54 136.03 1273.62 194.41 1250.76 196.19Z" fill="#9451BF"/>
        <path fill-rule="evenodd" clip-rule="evenodd" d="M1516.91 298.35C1508.51 310.86 1473.22 293.9 1449.82 277.97C1448.82 285.97 1466.82 321.12 1458.43 335.48C1442.55 362.76 1288.34 352.02 1292.92 314.08C1295.23 294.89 1306.1 287.36 1306.57 265.79C1308.02 199.09 1312.2 107.79 1365.89 96.8999C1371.16 95.8299 1378.08 96.7499 1384.22 97.7199C1391.64 98.8899 1396.86 99.2299 1402.65 101.03C1405.77 102.34 1414.16 104.68 1418.92 106.95C1466.7 129.72 1547.26 245.07 1516.91 298.35Z" fill="#9451BF"/>
        <path fill-rule="evenodd" clip-rule="evenodd" d="M1373.98 96.3499C1373.98 96.3499 1383.75 93.6899 1371.15 69.0999C1369.21 65.3099 1362.55 66.6799 1362.23 63.8099C1361.36 56.0999 1370.32 46.0199 1368.4 36.8999C1367.05 30.5099 1378.27 28.0899 1386.52 27.3199C1400.1 26.0399 1421.67 37.4999 1409.33 65.8399C1406.33 72.6499 1394.48 77.0899 1391.86 97.2099C1389.55 114.9 1385.86 112.68 1382.86 111.7C1377.41 109.92 1373.1 96.3399 1373.98 96.3499Z" fill="#F0AFAB"/>
        <path fill-rule="evenodd" clip-rule="evenodd" d="M1368.1 37.3599C1372.71 41.7899 1392.57 25.9399 1394.9 50.2399C1395.08 52.0799 1394.49 58.2399 1403.01 55.7999C1411.53 53.3599 1408.79 65.9899 1402.01 63.2299C1395.23 60.4699 1397.41 77.0099 1400.7 76.0199C1403.99 75.0299 1439.25 63.3199 1410.36 33.2299C1390.93 -29.4901 1336.81 19.3399 1368.1 37.3599Z" fill="#230E13"/>
        <path fill-rule="evenodd" clip-rule="evenodd" d="M1391.8 97.8201L1382.8 111.7C1391.19 113.18 1395.29 118.95 1396.8 127.32L1402.71 101.06L1391.8 97.8201Z" fill="#EA4747"/>
        <path fill-rule="evenodd" clip-rule="evenodd" d="M1375.35 95.52L1382.85 111.7C1375.38 111.85 1370.03 116.7 1365.68 123.7L1365.87 96.78L1375.35 95.52Z" fill="#EA4747"/>
        <path d="M1361.56 410.89C1338.08 402.89 1339.56 371.02 1339.56 370.7L1342.32 370.85C1342.32 371.15 1340.93 400.96 1362.42 408.28L1361.56 410.89Z" fill="#302CCE"/>
        <path d="M1359.24 375.111L1356.5 375.437L1362.61 426.825L1365.35 426.499L1359.24 375.111Z" fill="#302CCE"/>
        <path fill-rule="evenodd" clip-rule="evenodd" d="M1298.78 327.69L1297.44 344.9C1297.44 344.9 1339.44 378.9 1453.26 372.9L1451.17 341.79C1451.17 341.79 1383.51 369.75 1298.78 327.69Z" fill="#302CCE"/>
        <path d="M1421.25 351.848L1418.49 352.029L1455.51 913.771L1458.26 913.59L1421.25 351.848Z" fill="white"/>
        <path d="M1362.8 443.503L1323.77 906.42L1326.52 906.652L1365.55 443.735L1362.8 443.503Z" fill="#302CCE"/>
        <path fill-rule="evenodd" clip-rule="evenodd" d="M1310.1 199.73C1310.1 199.73 1311.36 164.38 1328.71 127.32C1308.29 147.26 1297.26 248.32 1264.62 252.72C1231.98 257.12 1124.48 237.77 1124.48 237.77L1124.07 237.69L1123.07 246.08C1123.07 246.08 1122.41 252.21 1123.46 252.72C1124.51 253.23 1157.59 266.31 1178.95 270.91C1200.31 275.51 1265.32 289.67 1305.08 277.76C1305.08 277.76 1308.08 248.84 1307.62 233.56C1307.16 218.28 1310.1 199.73 1310.1 199.73Z" fill="#EA4747"/>
        <path d="M1427.59 192.09C1427.59 191.94 1423.24 176.66 1422.17 162.52C1421.8 158.402 1421.85 154.259 1422.3 150.15L1425.04 150.5C1424.61 154.423 1424.57 158.379 1424.92 162.31C1425.92 176.17 1430.2 191.18 1430.24 191.31L1427.59 192.09Z" fill="#EA4747"/>
        <path fill-rule="evenodd" clip-rule="evenodd" d="M1366.21 184.74L1349.21 175.74C1344.37 169.07 1330.86 155.64 1327.29 156.62C1323.75 158.16 1342.03 172.87 1338.29 173.87C1320.61 168.29 1296.93 163.63 1295.52 166.54C1294.52 168.54 1317.45 172.99 1316.91 174.54C1316.01 177.17 1286.08 169.89 1286.56 173.73C1286.99 177.24 1314.7 181.49 1313.32 183.02C1315.25 185.14 1289.49 177.93 1288.38 181.36C1287.75 183.36 1303.52 187.23 1313.49 191.5C1323.46 195.77 1292.55 191.38 1292.59 193.45C1292.68 199.34 1326.21 201.69 1340.59 202.7L1359.52 213.19C1359.92 204.78 1361.88 195.48 1366.21 184.74Z" fill="#F0AFAB"/>
        <path d="M1422.56 266.98L1358.29 222.66L1358.21 222.05C1356.77 210.53 1361.96 181.31 1370.9 177.18L1371.22 177.03H1371.58C1432.5 181.72 1470.76 210.56 1500.15 238.16L1498.27 240.16C1469.27 212.95 1431.6 184.51 1371.75 179.8C1364.9 183.63 1359.67 209.12 1360.88 221.06L1424.1 264.71L1422.56 266.98Z" fill="#EA4747"/>
        <path fill-rule="evenodd" clip-rule="evenodd" d="M1426.1 267.7C1426.1 267.7 1440.32 288.84 1438.43 310.45C1436.54 332.06 1366.09 354.45 1318.34 336.33C1318.34 336.33 1362.79 356.96 1407.48 350.48C1407.48 350.48 1442.48 349.63 1453.25 340.58C1464.02 331.53 1461.25 323.58 1456.79 304.02C1452.16 286.55 1451.13 290.3 1449.79 277.97L1426.1 267.7Z" fill="#EA4747"/>
        <path d="M1139.79 258.86C1133.26 228.3 1150.33 206.66 1152.47 205.17L1153.36 206.46C1151.36 207.82 1135.07 229.28 1141.36 258.53L1139.79 258.86Z" fill="white"/>
        <path d="M1373.48 222.19C1373.03 194.29 1383.4 184.69 1383.84 184.3L1384.84 185.46C1384.74 185.55 1374.55 195.07 1374.99 222.17L1373.48 222.19Z" fill="white"/>
        <path fill-rule="evenodd" clip-rule="evenodd" d="M1423.31 159.67C1423.31 159.67 1436.64 195.25 1467.73 213.14C1467.73 213.14 1436.23 191.34 1428.92 191.71C1428.92 191.71 1420.19 166.91 1423.31 159.67Z" fill="#EA4747"/>
        <path d="M1298.15 912.45C1288.09 912.411 1278.2 909.809 1269.42 904.89L1270.5 903.13C1270.68 903.24 1288.36 913.88 1309.36 909.13L1309.82 911.13C1305.99 911.999 1302.08 912.442 1298.15 912.45Z" fill="#741726"/>
        <path d="M1286.44 935.69C1278.62 935.717 1271.08 932.788 1265.33 927.49L1266.83 926.07C1267.5 926.77 1283.44 943.02 1308.6 925.92L1309.76 927.64C1300.88 933.67 1293 935.69 1286.44 935.69Z" fill="#741726"/>
        <path d="M1450.31 915.87C1435.87 915.87 1423.52 909.26 1422.83 908.87L1423.83 907.05C1424.05 907.17 1445.95 918.87 1464.83 911.05L1465.62 912.96C1460.76 914.93 1455.56 915.919 1450.31 915.87Z" fill="#741726"/>
        <path d="M1445.53 935.48C1432.47 935.48 1422.81 927.7 1422.67 927.58L1423.98 925.98C1424.82 926.67 1444.65 942.59 1465.78 925.98L1467.06 927.6C1459.54 933.51 1452.1 935.48 1445.53 935.48Z" fill="#741726"/>
        <path d="M1383.03 71.75C1376.17 71.75 1374.46 66.98 1374.44 66.92L1376.44 66.24C1376.52 66.45 1378.44 71.37 1387.38 69.08L1387.89 71.08C1386.3 71.5033 1384.67 71.7283 1383.03 71.75V71.75Z" fill="#741726"/>
        <path d="M1243.92 210.31L1241.19 209.89C1242.64 200.61 1252.4 194.54 1254 194.1L1254.77 196.75C1253.83 197.09 1245.16 202.33 1243.92 210.31Z" fill="#EA4747"/>
        <path d="M1358.48 213.19C1358.26 203.733 1360.38 194.369 1364.65 185.93L1366.45 186.93C1362.4 195.064 1360.38 204.056 1360.55 213.14L1358.48 213.19Z" fill="#741726"/>
        <path d="M1339.94 400.732L1282.17 905.376L1283.72 905.554L1341.49 400.909L1339.94 400.732Z" fill="white"/>
        <path d="M1260.03 927.243L1198.94 947.481L1199.81 950.101L1260.89 929.863L1260.03 927.243Z" fill="white"/>
        <path fill-rule="evenodd" clip-rule="evenodd" d="M894.927 139.111C894.927 145.136 890.025 150.038 884 150.038C877.975 150.038 873.073 145.136 873.073 139.111C873.073 133.086 877.975 128.184 884 128.184C890.025 128.184 894.927 133.086 894.927 139.111M884 125.037C876.239 125.037 869.926 131.351 869.926 139.111C869.926 146.872 876.239 153.185 884 153.185C891.76 153.185 898.074 146.872 898.074 139.111C898.074 131.351 891.76 125.037 884 125.037" fill="#1D1E5F"/>
        <path fill-rule="evenodd" clip-rule="evenodd" d="M907.527 161.108C901.267 156.975 892.726 158.582 888.49 164.689C888.273 165.002 888.192 165.386 888.266 165.757C888.338 166.124 888.557 166.45 888.874 166.661C888.876 166.663 888.878 166.664 888.881 166.666L899.025 173.364C899.693 173.805 900.6 173.634 901.052 172.983C901.501 172.334 901.33 171.453 900.668 171.01C900.666 171.009 900.664 171.008 900.661 171.006L891.806 165.16C895.347 161.298 901.373 160.484 905.891 163.467C908.284 165.045 909.893 167.431 910.438 170.192C910.984 172.953 910.395 175.756 908.78 178.085C905.444 182.892 898.723 184.157 893.795 180.904L873.611 167.577C872.943 167.136 872.036 167.307 871.584 167.958C871.134 168.607 871.306 169.487 871.968 169.93C871.971 169.932 871.973 169.933 871.975 169.934L892.159 183.262C898.42 187.395 906.96 185.788 911.196 179.681C913.248 176.722 913.997 173.161 913.304 169.653C912.611 166.145 910.549 163.107 907.527 161.108" fill="#1D1E5F"/>
        <path fill-rule="evenodd" clip-rule="evenodd" d="M877.868 177.705C877.865 177.704 877.863 177.703 877.861 177.701L867.655 171.007C866.983 170.567 866.071 170.737 865.616 171.388C865.164 172.036 865.337 172.917 866.002 173.359C866.005 173.36 866.007 173.362 866.009 173.364L874.918 179.207C873.344 180.917 871.248 182.075 868.887 182.516C866.039 183.048 863.149 182.473 860.748 180.898C860.73 180.886 860.711 180.874 860.693 180.862C858.322 179.287 856.718 176.915 856.173 174.177C855.625 171.417 856.218 168.616 857.842 166.288C859.467 163.961 861.93 162.387 864.777 161.855C867.624 161.322 870.514 161.897 872.916 163.472L892.968 176.624C893.64 177.064 894.553 176.894 895.007 176.243C895.46 175.594 895.287 174.714 894.621 174.272C894.618 174.27 894.616 174.269 894.614 174.267L874.562 161.115C871.511 159.114 867.839 158.385 864.221 159.06C860.604 159.737 857.475 161.737 855.411 164.694C853.346 167.651 852.593 171.21 853.29 174.715C853.982 178.195 856.02 181.208 859.033 183.209C859.056 183.224 859.079 183.24 859.102 183.254C862.153 185.256 865.825 185.986 869.443 185.31C873.06 184.634 876.189 182.633 878.253 179.676C878.472 179.364 878.553 178.981 878.479 178.61C878.406 178.242 878.187 177.917 877.868 177.705" fill="#1D1E5F"/>
        <path fill-rule="evenodd" clip-rule="evenodd" d="M915.826 183.102C910.084 191.411 898.595 193.539 890.217 187.843L883.83 183.502C883.157 183.044 882.237 183.214 881.776 183.882C879.059 187.814 875.029 190.318 870.429 190.931C865.9 191.536 861.115 190.312 856.955 187.484C848.576 181.789 846.431 170.395 852.174 162.085C856.392 155.981 864.691 153.566 870.909 154.151L873.415 154.587L872.789 154.122C871.81 153.395 870.88 152.526 869.946 151.465C866.979 148.095 865.345 143.779 865.345 139.312C865.345 129.109 873.714 120.81 884.001 120.81C894.287 120.81 902.655 129.109 902.655 139.312C902.655 145.802 898.674 151.574 894.728 154.416L894.52 154.566H895.054C896.185 154.411 897.628 154.25 898.461 154.161C898.79 154.135 899.119 154.12 899.449 154.113C899.443 154.118 899.437 154.125 899.431 154.13L899.45 154.113C903.404 154.02 907.457 155.263 911.045 157.703C919.424 163.398 921.569 174.792 915.826 183.102M912.716 155.285C909.287 152.955 905.582 151.642 901.933 151.288C904.196 148.025 905.488 143.776 905.488 139.312C905.488 127.56 895.849 118 884.001 118C872.152 118 862.512 127.56 862.512 139.312C862.512 143.633 863.806 147.781 866.198 151.262C859.801 151.618 853.631 154.794 849.737 160.429C843.073 170.071 845.562 183.293 855.284 189.901C864.896 196.435 876.685 195.001 883.33 186.714L888.547 190.26C898.269 196.869 911.6 194.401 918.263 184.759C924.927 175.116 922.438 161.894 912.716 155.285" fill="#1D1E5F"/>
    </g>
    <defs>
        <clipPath id="clip0">
            <rect width="1897.1" height="966.37" fill="white"/>
        </clipPath>
    </defs>
</svg>
