<?xml version="1.0" encoding="utf-8"?>
<!-- Generator: Adobe Illustrator 25.4.1, SVG Export Plug-In . SVG Version: 6.00 Build 0)  -->
<svg version="1.1" id="Слой_1" xmlns="http://www.w3.org/2000/svg" xmlns:xlink="http://www.w3.org/1999/xlink" x="0px" y="0px"
	 viewBox="0 0 1197.2 1133.9" style="enable-background:new 0 0 1197.2 1133.9;" xml:space="preserve">
<style type="text/css">
	.st0{fill:#D9CAC4;}
	.st1{fill:#634E42;}
	.st2{fill:#8A6C5B;}
	.st3{fill:#FFD2A8;}
	.st4{fill:#F2A57E;}
	.st5{fill:#1D71B8;}
	.st6{fill:#FF7E79;}
	.st7{fill:url(#SVGID_1_);}
	.st8{fill:#181B5E;}
	.st9{fill:url(#SVGID_00000101101186025194638280000004409546887950788236_);}
	.st10{fill:#FFFFFF;}
	.st11{fill:url(#SVGID_00000177445409143298872450000012374582576729265824_);}
	.st12{fill:#E0E0E0;}
	.st13{fill:url(#SVGID_00000155834497437304921750000013367342110784806038_);}
	.st14{fill:url(#SVGID_00000021824489470253528690000016745778836521446572_);}
	.st15{fill:#E67460;}
	.st16{fill:#EDEDED;}
	.st17{fill:url(#SVGID_00000103264125491636811010000015619366414254834063_);}
	.st18{fill:#567AA6;}
	.st19{fill:url(#SVGID_00000002383111469584175680000012713064548416997300_);}
	.st20{fill:#525252;}
	.st21{fill:url(#SVGID_00000168797271332081421150000009162264137217807276_);}
	.st22{fill:#3C3C3B;}
	.st23{fill:#254666;}
	.st24{fill:url(#SVGID_00000026126388883265662130000017951224731546311811_);}
	.st25{fill:#474747;}
	.st26{fill:#878787;}
</style>
<path class="st0" d="M830.8,987.6c-61.3,0-112,5.2-124.3,4.2c-9.8-0.7-52-5.3-104.1-5.3c-47.7,0-87.6,5.5-101.2,6.4
	c-19.3,1.3-66.7-4.5-122.2-4.5c-72.5,0-131.3,3.2-131.3,7.1s58.8,7.1,131.3,7.1c55.6,0,102.9-4,122.2-2.6
	c13.6,0.9,53.5,4.5,101.2,4.5c52,0,94.3-6.7,104.1-7.4c12.3-0.9,63,6.3,124.3,6.3c70.1,0,126.9-3.5,126.9-7.9
	C957.7,991.1,900.9,987.6,830.8,987.6z"/>
<path class="st1" d="M1001.9,376.4c-0.9-4.4-2.2-13.5-15.3-25.9c-3.2-3-8.6-6.5-13.8-8.9c-6.6-3-11.1-3.8-15-11.9
	c-11.2-23.2-26.2-17.9-40.6-8.6c-7.7,4.9-17.2,5.8-26.2,3.1c-8.2-2.5-15.4-6-24.5-2.6c-9.3,3.5-8.4,8.6-16.1,13.6
	c-6.2,4-13.1,5.3-16.6,13.4c-4.5,10.1-0.1,26.3,13.8,28.6c6.6,1.1,12.8-0.2,18.4,4.1c4.7,3.6,7,9.1,9.9,14
	c8.7,14.8,13.7,17.8,30.4,13.2c5.8-1.6,12-4,19-1.7c9,2.9,9.9,8.9,14.6,15.3c8.1,11.2,26.1,8.3,31.9-4.4c2.4-5.3,6.5-13.3,15.3-16.5
	c3.2-1.2,6.4-2.5,9.2-4.6C1002.4,391.7,1003.3,383.1,1001.9,376.4z"/>
<path class="st2" d="M993,367.8c0.3-15.2-10.3-21.7-20.2-26.2c-6.6-3-11.1-3.8-15-11.9c-11.2-23.2-26.2-17.9-40.6-8.6
	c-7.7,4.9-17.2,5.8-26.2,3.1c-8.2-2.5-15.4-6-24.5-2.6c-9.3,3.5-8.4,8.6-16.1,13.6c-6.2,4-13.1,5.3-16.6,13.4
	c-4.5,10.1,2.5,8.1,4.9,6.4c5.4-4,11.9-28.9,34.3-22.5c8.5,2.4,12.5,9.2,16.2,13.4c9.3,10.5,19.1,7.9,32.8-2.6
	c17.7-13.5,24.4-5.3,30,3.5c6.3,9.9,11.2,20.5,20.4,9.9C981.6,346.1,992.8,381.1,993,367.8z"/>
<path class="st3" d="M787,246.3c-4.9,0-3.2,3.3,3.6,11.8c3.2,4,4.3,8.9,4.8,13.5c-2.8-2.2-3.6-11.1-6.7-11.4
	c-2.3-0.2-0.1,7.4,0.6,21.3c0.4,7.7,6,10.2,7.4,15.4c2.1,7.3,7.1,17,13.5,10.6c2.9-2.9-0.9-12.2-0.7-18.3c0.2-6.1,0.9-8.6,0.6-12.1
	c-0.4-5.7-0.8-12.8-4.3-18.6c-2.5-4.2-5.6-9.4-10.5-10.7C792.9,247.1,790.3,246.4,787,246.3z"/>
<path class="st4" d="M878,881.2c-0.9-5.6-4.9-7.7-7.4-12.3c-8.9-16.4-12.2-32.8-13-44.4c-0.7-10.5,0-20.7-1-31.9
	c-1-11.2-7.2-20.3-8.6-31.7c-1.4-10.9-1.8-21.9-3.7-32.8c-1.4-8-2.1-21.9-8.1-28.1c-7-7.2-26.2-11.3-35.9-10.1
	c-5.3,0.7-9.2,1.5-8.2,7c0.9,5.4,5.9,14.5,7.6,19.6c1.9,5.6,1.7,11.3,1.6,17.2c-0.2,9.6,0.4,18.3,5.4,26.9c2.9,5,5.3,9,7,14.6
	c1.5,4.9,3.3,13.5,5,18.3c7.8,21.3,19.6,38.6,24.5,60.6c2.3,10.3,0.8,20.6,0.6,31.2c-0.2,5.7-0.3,11.5-0.6,17.2
	c-0.2,3.8,1,15.8-1.2,18.8c-2.4,3.2-12.6,3.7-11.3,9.8c1,4.5,7.4,3.6,10.4,2.2c3.9-1.8,6.1-5.3,7.7-9.1c3.4-8.3,6.1-16,14.9-21
	C871,898.8,879.9,892.6,878,881.2z"/>
<path class="st5" d="M891.9,914.4c-7.6-9.8-1.3-23.6-7.1-34.2c-1.7-3-7.4-11.3-11.1-11.2c-3.6,0.1-3.2,5.3-4,8.3
	c-2.9,10.6-6.5,25-13.2,33.8c-6.2,8.1-18.6,7.8-25.5,15.2c-8.6,9-0.3,11.9,11.3,10.6c10.5-1.2,19.4-4.7,23.7-14.6
	c2-4.6,3.1-9.6,4.9-14.3c1.7-4.3,3.1-10.7,8.4-7.9c3.4,1.8,4.6,7.3,6.1,10.5c0.6,1.2,2.4,6.1,3.9,6.6
	C890.7,917.7,893.7,916.8,891.9,914.4z"/>
<path class="st6" d="M839.7,407.1c1.5-1.7,2.2-6.6,0.7-11.2c-1.6-5-5.4-7.5-4.4-16.4c0.6-5.6-4.9-12.4-6-17.8
	c-1.1-5.2-3.2-12.7-4.4-17.9c-1.3-5.6-6.2-19.3-8.2-24.8c-1.6-4.3-5.1-21-6.9-25.9c-1.6-4.5-22.6,5.4-22.6,11.1
	c0,3.1,4.8,7.7,5.8,11.4c1.4,5.4,2.5,16.9,3.2,22.4c0.8,6,5.2,24.9,5.9,30.8c0.6,5.6,4.4,10.3,2.9,16.1c-1.3,5-5.1,6.3-9.4,8
	c-6.3,2.4-12,5.7-17.7,9.3c-3.5,2.2-28.3,16.1-23.3,19c3.1,1.8,17.1-8.2,20.4-9.5c7.1-2.8,14.6-5,22-6.7c7.1-1.6,13.5-1.6,20.6,0
	C821.3,405.8,836.8,410.4,839.7,407.1z"/>
<linearGradient id="SVGID_1_" gradientUnits="userSpaceOnUse" x1="724.2731" y1="472.0726" x2="839.2419" y2="472.0726">
	<stop  offset="0" style="stop-color:#EB816F"/>
	<stop  offset="0.1741" style="stop-color:#E67865"/>
	<stop  offset="0.6855" style="stop-color:#D9614D"/>
	<stop  offset="1" style="stop-color:#D45944"/>
</linearGradient>
<path class="st7" d="M839.2,409.7c-0.1-5.6-14.9-6.6-19.1-7.5c-7.8-1.6-15.3-3.2-23.1-1.4c-7.1,1.7-13.9,5.1-20.7,7.8
	c-6.3,2.6-14.2,4.9-19.9,8.8c-5,3.4-6.4,9.8-8.5,15.1c-3.1,7.9-6.8,15.5-10.6,23.1c-5.3,10.6-19.2,26.1-10.3,37.7
	c3.9,5.1,8.9,9.4,14.2,12.6c12.5,7.3,27.4,7.4,36.6,14.8c5.4,4.3,11.6,16.7,17,20.2c12.4,8.1,10.1-0.9,10.6-8.9
	c0.6-8.9-5.7-27.6-8-36c-1.8-6.6-4.4-12.7-3.7-19.6c1.5-14.6,12.9-25.7,19.5-38c3-5.7,4.2-13.8,8.5-18.5
	C825.8,415.7,839.4,422.2,839.2,409.7z"/>
<path class="st4" d="M877.8,402.4c1.1-4.5-6.3,5.4-15.8,6.8c-5,0.8-9.8-1.3-13.7-4.4c-6.2-4.9-4.4-16.4-8-12.2
	c-2.3,2.7-1.6,15.3-2.7,25.2c-0.8,7-4,12.7-6.5,14.5c-2.6,1.9-9.5,5.3-12.4,7.1c-5.1,3.2-16.9,9.5-9.6,16.2
	c4.1,3.8,17.4,5.7,22.6,4.5c10.3-2.4,14.1-11.1,21.8-17.2c6.3-4.9,12.5-8.7,16.8-15.6C872.4,423.8,876.3,408.3,877.8,402.4z"/>
<path class="st3" d="M1114.7,490.7c-3-1.1-29.8-5.5-36.9-1.6c-6.7,3.6-14.2,7.2-20.5,11.2c-5.4,3.4-6.4,13.9,0.4,16.8
	c5.7,2.4,14.5-4.2,20.5-4.9c3-0.3,19.9-4.3,21.1-6.6c1.3-2.5-13-1.1-14-2.3c-0.6-0.7,3.9-1.9,8.9-3.8
	C1099.4,497.7,1123.1,493.8,1114.7,490.7z"/>
<path class="st3" d="M1031.5,693.9c-9.5-14.3-26.3-13.2-40.6-18.2c-5.9-2-12.6-7.7-18.5-2.9c-4.9,4.1-6.6,10.7-12.1,14.7
	c-25.9,18.6-63.1,12-83.9,38.3c1.2-6.2,3.4-12.4,4.3-18.6c1.1-7.6-0.5-8.7-7.8-7.8c-7,0.8-14,1.4-21.1,1.5c-5.3,0-12.8-1.1-17.5,1.9
	c-4.5,2.9-3.6,7.5-3.2,12c0.7,7.2,1.2,14.4,1.7,21.6c0.9,12.3,3.3,22.6,12.5,31.1c7.7,7.1,22.1,1.5,31.1-2
	c11.4-4.4,19.3-7.6,29.1-14.9c10.2-7.5,21.4-14.4,31.3-22.4c10.2-8.3,22.5-20.9,35.6-24c7.4-1.7,18.5-1.5,25.9-1.4
	c5.8,0.1,13.7-1.3,19.4-0.2c4.9,1,11.2,9.9,16.3,7.3C1040.1,706.9,1033.6,697.2,1031.5,693.9z M1033.3,705.5
	c-2.1-4.9-4.4-9.8-7.5-14.1C1029,694.8,1033.7,700.5,1033.3,705.5z"/>
<path class="st5" d="M1040.6,712.3c-0.9-10.5-4.2-28.4-15.9-32.3c-5.8-2-31.6-2.8-27.9-12.4c2.4-6.2,12.2-6.7,16.6-9.8
	c4.3-3.1,0.4-5.1-4.8-2.6c-5.9,2.9-11.7,4.4-18.2,5.4c-4.6,0.7-10,0.1-14.2,2.2c-3.7,1.8-9.2,7.9-9.2,12.3c0,4.7,10.5,6.4,14.5,7.7
	c9.2,2.9,19,3.5,28.1,6.6c3.4,1.1,7.6,2.7,9.8,5.8c2.4,3.5,0.1,5.3,0.7,8.9c0.4,2.6,6.9,8.7,9.2,10.2
	C1031.6,715.8,1041.4,721.8,1040.6,712.3z"/>
<path class="st8" d="M898.7,607.4c-0.9-1.9-12.4,1.8-13.9,2.1c-6.7,1-13.5,1.2-20.3,0.8c-13.6-0.9-26.5-5.1-39.7-8.1
	c-5-1.1-15.4-4.5-20.9-2.9c-4.3,1.3,0.1,8-0.5,12.7c-0.9,6.9-3.6,14.4-5.9,21c-2.6,7.8-4,14.6-5.3,22.6c-1.1,7.1-2.3,14.2-3.2,21.3
	c-0.7,5.7,0.1,16.6,1.5,22c2.2,8.5,19.6,10.5,26.4,12c14.5,3,29.5,3.6,44.2,1.5c7-1,14.1-2.5,20.8-4.7c0.6-0.2,4.5-1.1,5-1.8
	c1.5-2.2-0.1-8.6-0.4-11.2c-1.8-15.1,1.5-29.6,6.8-43.8C898.2,637.6,905,620.7,898.7,607.4z"/>
<linearGradient id="SVGID_00000116919257960383890670000011074999429111483581_" gradientUnits="userSpaceOnUse" x1="803.6529" y1="381.5061" x2="836.143" y2="381.5061">
	<stop  offset="0" style="stop-color:#EB816F"/>
	<stop  offset="0.1741" style="stop-color:#E67865"/>
	<stop  offset="0.6855" style="stop-color:#D9614D"/>
	<stop  offset="1" style="stop-color:#D45944"/>
</linearGradient>
<path style="fill:url(#SVGID_00000116919257960383890670000011074999429111483581_);" d="M836.1,385.9c-2.4-1.3-6.5-4.5-13.2-4.3
	c-10.7,0.4-15.7,4.3-19.3,7.1c0.8-1,1.5-2.2,1.9-3.7c0.2-0.9,0.3-1.7,0.4-2.5c2.8-3.6,6.7-7,15.3-8.1c5.8-0.8,11.4,3.5,14.6,7.1
	C835.7,383.2,835.9,384.6,836.1,385.9z"/>
<path class="st3" d="M885.7,387.5c3.2-1.6,4.6-9.9,5-13.2c0.5-4.8-0.4-9.2-2.5-13.5c-4.1-8.3-11.4-12.6-20.4-13.8
	c-7.8-1-16.9,1.5-22.1,7.5c-2.9,3.4-4.6,7.8-6,12c-0.7,2-1,5.2-2,7c-4.1,7.4,1.3-3.3-2.9,3c-2.1,3.1-2.6,6-2.5,9.8
	c0.1,4.7,2.7,7.2,3.4,11c1,5.9,0.9,8,5.7,12.4c4,3.7,8.5,6.5,14.1,6.7c3.7,0.1,10-0.5,13.3-2.1c3.8-1.9,8.5-10.5,8.5-10.5
	s5.9-2.3,7.7-5.9C887.4,392.5,888.3,389.7,885.7,387.5z"/>
<path class="st10" d="M863.6,399.9c-4.2-3-10.3-5.8-16.3-5.8c-1.2,0-1.4,1.3-0.7,1.8c4.7,3.7,9.9,5.4,16.5,5.7
	C864,401.6,864.7,400.7,863.6,399.9z"/>
<path class="st1" d="M892.7,366.2c-1-10.3-5.3-18.5-17.4-23.4c-10.5-4.2-22.9-1.3-29,4.5c-6.1,5.7-8.5,12.6-10.5,20.1
	c-0.2,0.8-3,7.8-0.5,8.4c2,0.5,4.8-9.4,5.8-11.6c4.3-9.2,8.5-14.2,19.2-14.2c8.8,0,21.3,4.7,25.5,12.9c2.4,4.8,2.2,9.9,1.1,15.1
	c-0.7,3.1-2.9,9.4-1.2,9.5C888.4,387.6,893.4,374,892.7,366.2z"/>
<linearGradient id="SVGID_00000052067212239318147470000007852129695815244452_" gradientUnits="userSpaceOnUse" x1="896.3903" y1="444.0778" x2="805.8294" y2="600.9338">
	<stop  offset="0" style="stop-color:#FFFFFF"/>
	<stop  offset="0.4031" style="stop-color:#F6F6F6"/>
	<stop  offset="1" style="stop-color:#EDEDED"/>
</linearGradient>
<path style="fill:url(#SVGID_00000052067212239318147470000007852129695815244452_);" d="M899.7,605.5c-0.5-9.1-4.4-18.4-12.8-23.6
	c-8-5-18.8-4.6-23.2-13.9c-4.4-9.2-6-21.7-7.1-31.6c-1.4-12.5-0.7-25.2,1.7-37.6c2.3-12.1,6.1-23.9,8.4-36.1
	c0.9-4.9,1.4-9.9,1.7-14.9c0.2-2.9,3-15.2,0.8-17.2c-3.7-3.4-17.9,11.9-21.4,14.9c-7.6,6.6-9,14.1-25.3,13.3
	c-7.2-0.4-19.4-1.9-11.8-11.5c3.3-4.2,9.3-7.6,13.9-10.2c6.4-3.5,9.7-4.7,11.7-11.9c1.1-3.9,1.7-10.5,1.4-12.1
	c-0.2-1.1-0.1-4-4.5-5.1c-3.3-0.8-8,1.4-11.8,3.2c-7.3,3.5-7.3,8-8.2,14.6c-0.5,3.4-0.7,6.9-2.2,9.4c-10.7,18.5-35.2,29.7-24.5,54.5
	c4.6,10.6,12.5,15.5,13.5,27c1,11.1-2.4,26.8-0.9,38.1c0.8,6.3,2.4,12.8,1.6,19.2c-0.6,5.2-2.1,9.4-2.1,14.9
	c0,13.4,10.4,12.8,22.1,15.3c4.2,0.9,25.9,7.3,45.5,8.5C884.1,613.9,900,610.2,899.7,605.5z"/>
<path class="st12" d="M858.7,552c10-4.1-6.5-43.5-0.3-53.2c6.3-10-19.1-13.3-35-9.8c-8.1,1.8-17.5,1.5-27.1-4.1
	c-6-3.5-12.7-5.7-9.6,4.9c2.8,9.5,12.5,15.5,13.5,27c1,11.1-1,13.7,3.4,12.9c4.5-0.8,5-3.1,14.1-4.3
	C833.8,523.1,850.2,555.4,858.7,552z"/>
<path class="st6" d="M1058.9,519.5c1-1.8-4.2-6-4.8-8.4c-0.4-1.7-0.4-3.4-0.1-5.2c0.3-1.4,2.8-5.1,2.6-6.2c-0.4-3-2.7-2-5.5-1.8
	c-5.3,0.4-10.4,0.4-15.7-0.8c-10-2.3-19.9-4.6-30-6.4c-11.3-2-23.8-3.4-34.5-7.4c-8.7-3.3-16.7-10.3-25.2-14.6
	c-6.3-3.1-15.3-9.4-19.7-15c-3.1-3.9-1.5-5.5-1.3-9.7c0.2-3.7-0.9-7.4-2.2-10.8c-3.5-9.1-10.6-10-19.4-11.9
	c-8.6-1.8-19.7-4.8-26.8,2.1c-6.8,6.6-6.7,17-9.8,25.3c-3.1,8.2-9.2,15-13.3,22.7c-5.2,9.7-6,20.2-7.2,31
	c-1.1,10.1,0.7,19.3,0.6,29.4c-0.1,11,1.3,21.3,2.5,32.3c0.9,8.2,0.4,16,6.3,22.7c6,6.8,17.8,8.2,25.7,5.8
	c8.8-2.7,24.1-6.1,21.1-16.2c-3.3-11.1-18.5-19.5-20.2-31c-1.7-12,6.2-21.9,10.2-32.6c1.8-4.9,2.8-13.8,6.1-17.1
	c3.5-3.5,8.7-3.3,10.6-9.2c11.7,8.6,25,14.4,38.3,19.9c5.6,2.3,11.7,5.9,17.5,6.4c6.3,0.6,13.6-1,20,0.5c14.2,3.5,26.7,6.9,41.1,9.4
	c7.4,1.3,13.9,1.5,21.3,0.6c1.9-0.2,10.7,0,11.8-1C1059.4,521.9,1061.7,519.8,1058.9,519.5z"/>
<linearGradient id="SVGID_00000007416594846075652350000000426992000540302509_" gradientUnits="userSpaceOnUse" x1="845.3531" y1="459.015" x2="886.3499" y2="459.015">
	<stop  offset="0" style="stop-color:#EB816F"/>
	<stop  offset="0.1741" style="stop-color:#E67865"/>
	<stop  offset="0.6855" style="stop-color:#D9614D"/>
	<stop  offset="1" style="stop-color:#D45944"/>
</linearGradient>
<path style="fill:url(#SVGID_00000007416594846075652350000000426992000540302509_);" d="M886.3,419.6c0-1.6-2-1.1-5-4.1
	c-1.7-1.7-2.5-4.7-3-7.1c-0.4-1.8-1.9-2.4-2.4-0.2c-2.3,10.6-7.1,20.7-11.8,30.6c-3.8,7.9-8.9,15.2-12.4,23.3
	c-3.1,7.3-3.5,14.7-5.1,22.3c-0.6,2.9-1.9,20.6-1.2,26.4c0.2,1.9,2.5-2.6,2.5-4.6c0-1.2,4.4-22,6.3-25.9c2.4-5.2,5.9-9.3,9.2-13.9
	c6.4-9,12-18.9,16.8-28.9c0.7-1.4-0.8-1.9-1.8-2.2c-1.3-0.4-3.9-1.2-5.9-1.7c3.4-1.3,7-1.8,10.5-3
	C885.5,429.8,886.3,423.2,886.3,419.6z"/>
<ellipse class="st4" cx="285.8" cy="576.7" rx="11.4" ry="14.4"/>
<path class="st3" d="M318.9,911.3c-1.4-11.1-4.1-22-4.4-33.2c-0.2-6.2,0.3-12.4-0.3-18.6c-0.5-5.5-1.6-12.1-5.9-16.1
	c-6.5-5.9-11.6-2.3-16.9,2.8c-7.3,7-10.2,14.4-8.5,24.6c0.9,5.2,2.6,10.3,3.3,15.6c0.8,5.3,0.7,10.8,2.2,16
	c2.8,9.7,10.1,15.7,19.8,17.9C316.4,922.2,320,920,318.9,911.3z"/>
<path class="st3" d="M289.6,789.6c-2.6-12.5-20.1-15.5-27.6-5.9c-4.4,5.7-6.8,12.8-9.5,19.4c-2.8,6.7-7.1,14.1-6.8,21.6
	c0.3,6.3,5,10.4,11.4,10.4c4,0,3-0.4,4.8-4.6c1.4-3.2,3.1-5.3,5.6-7.7C275.9,815.1,292.3,802.8,289.6,789.6z"/>
<path class="st5" d="M278.2,775.6c-4.8-2.7-10.9-6.6-16.7-5.8c-5.6,0.8-7.7,6.2-11.7,9.5c-2.4,2-5.2,3.4-8.1,4.5c-1,0.4-6.4,1.3-7,2
	c-4.6,5.3,7.7,1.8,9.8,1.6c1-0.1,6.2-1,7.1,0c0.9,1-0.3,8.2-0.4,9.6c-0.8,6.4-3.8,10.7-8.3,15.2c-5.1,5-8.1,8.2-7.4,15.7
	c0.5,5,2.2,9.1,4.7,13.5c4.8,8.5,16.5,14.3,20.7,1.9c0.8-2.5,3-9.7,2.3-12.1c-1.4-4.6-6,0.5-10.1-2.1c-9.6-5.9,4.6-26.6,8-32.6
	c2.5-4.5,5.2-8.8,8.9-12.3C271,783,281.2,777.3,278.2,775.6z"/>
<path class="st5" d="M323.8,913.8c-1.1-2.7-2.6-9.4-4.9-11.1c-1.9-1.3-5.9,0.2-8.1,0.5c-8,1-15.2-0.4-18.3-8.6
	c-2.6-6.6-1.9-14-2.8-20.9c-0.5-4.3-1.4-8.6-1.6-12.9c-0.2-4.9,1.8-8.6,2.3-13c0.7-6.4-6.4-0.1-9.2,2.9c-6.3,7.1-3.1,16.2-3.7,24.7
	c-0.3,5.2-2.7,9.7-3.5,14.7c-0.3,2.4-1.1,4.8,2,3.3c3.2-1.6,4.4-10.3,6.1-13.3c4.2,8.1,2.4,18.3,3.3,27.1
	c0.8,7.9,5.4,13.4,12.6,17.1C308.4,929.5,331.5,932,323.8,913.8z"/>
<linearGradient id="SVGID_00000150801477813413628090000011907174901783755650_" gradientUnits="userSpaceOnUse" x1="339.0132" y1="583.8215" x2="339.0132" y2="809.0468">
	<stop  offset="0" style="stop-color:#EB816F"/>
	<stop  offset="0.1741" style="stop-color:#E67865"/>
	<stop  offset="0.6855" style="stop-color:#D9614D"/>
	<stop  offset="1" style="stop-color:#D45944"/>
</linearGradient>
<path style="fill:url(#SVGID_00000150801477813413628090000011907174901783755650_);" d="M403.4,735.7c0-14.9-1.4-33.6-12.7-64.6
	c-6-16.6-21.8-41.1-24.5-52.2c-2.5-10.2-2.2-21.9-6.9-31.6c-2.5-5.1-24.6-1.4-31.3-1.6c-10.7-0.3-35.8-4.4-40,1
	c-5.6,7.2-7.3,16.5-5.1,25c2.3,9,10.6,12.6,18.7,15.2c8.7,2.9,21.5,4.4,28.4,10.6c3.6,3.3,5.4,8.4,7.4,12.7
	c3.1,6.6,6.1,13.2,9.2,19.8c6,13,12,26,18.1,39c4.7,10.2,11.3,21.8-2.1,28c-11.5,5.3-24.6,7.5-35.8,13.3c-9.3,4.8-16.6,12.9-25.1,19
	c-3.6,2.6-7.5,5-11.7,6.5c-3.5,1.2-11.4,0.6-13.5,2.9c-2.4,2.5-1.7,11-1.4,14.2c0.4,4.8,1.9,11.3,5.6,14.7c4.6,4.1,8.3-1.2,13-3.8
	c6-3.3,12.2-5.8,17.9-9.6c11.7-7.8,24.8-11.7,38.4-14.6c13.7-2.9,26.9-8,39.4-14.7c6.6-3.6,9-5.4,11.2-12.4
	C402.3,746.5,403.3,742.4,403.4,735.7z"/>
<path class="st6" d="M376.3,726.7c-3.1-16-13.7-29.4-20-44.3c-7.2-16.8-15.2-33-24.3-48.9c12.1-0.3,14.6-17,16-18.9
	c4.7-6.7,12.4-10,11.3-19.9c-1.8-15.1-12.5-9.7-21.9-9.8c-11.5-0.2-22.9-0.4-34.2-2c-5.4-0.8-10.8-1.6-16.3-2
	c-3.5-0.2-13.8-1.7-16.6-0.1c-3,1.8-2.8,5.2-3.6,8.3c-1.7,6.7-6.7,14.1-6.7,25.7c0.1,23.5,18.5,38.5,25.7,54.4
	c9.5,21.1,26.7,37.8,39.4,57.1c5.7,8.7,11.5,17.2,6.3,27.4c-5.1,10-13.8,17.4-18.2,27.9c-4.4,10.4-6.6,21.3-9.5,32.1
	c-2.7,10-9.9,19.3-11.1,29.4c-1,9.3-0.7,18.8,9.2,23.2c3.7,1.7,8.4,2.1,12.2,0.3c5.1-2.5,4.9-8.7,6.3-13.7
	c3.3-12,7.2-23.9,12.6-35.1c5.8-11.9,13.9-22,21.5-32.8c6.3-8.9,10.7-19.3,17.6-27.8c2.7-3.3,5.6-5.7,6.6-10.2
	C380,740.4,377.6,733.1,376.3,726.7z"/>
<path class="st15" d="M339.4,584.6c-0.9-1.7-3.5-0.2-2.6,1.5c2.7,5.3,6.1,9.5,3.8,15.6c-0.7,1.8-1.7,2.5-2,4.6
	c-0.4,3.6,0.9,7.3,0.5,11.1c-0.6,5.7-2.9,10.6-6.5,15c-1.2,1.5,0.9,3.6,2.1,2.1c6.3-7.5,7-14.3,7.3-23.7c0.3-7.6,2.3-6.1,3-9.9
	c0.1-0.8,0.6-1.6,0.6-2.5C345.8,593.9,341.3,588.4,339.4,584.6z"/>
<path class="st3" d="M390.9,259.2c3.6-7.2,1.7-8.4-4.5-13.6c-1.2-1-3-1.9-4-3c-1.2-1.4-1.3-3.3-2.4-4.8c-1.7-2.2-3.3-2.7-3.6,1.1
	c-2.9-2.1-7.9,13.3-7.6,15.5c0.8,5.4,8,10.5,10.6,15.4c6.6,11.9-4.5,19.9-5.3,31.5c-0.4,6.1,4.3,9.6,10.1,10.9
	c8.2,1.9,6.3-4.3,6.6-10.7c0.4-7.4,2.1-13.4,3.8-20.4C396.7,273.7,393.4,266.1,390.9,259.2z"/>
<g>
	<path class="st1" d="M335.9,394.8c1.1-5.8-1.4-11.5-3.7-16.7c-2-4.7-4.3-9.5-3.8-14.8c0.4-4,1.9-7.9,2.9-11.8
		c1.5-6,0.1-16.2-3.2-21.3c-5.7-9.1-9.8-9.1-16.8-13.2c-10-7.5-26-8.5-36.3-1.7c-4.4,2.9-6.2,6.2-9,10.4c-3.4,5.1-8.1,6.4-13.3,8.8
		c-8.3,3.8-11,9-10.9,18c0.1,3.6,0.6,7.1-0.6,10.6c-1.1,3.3-3.5,5.9-5.4,8.6c-3.1,4.2-5.9,8.8-7.6,13.8c-3.7,10.8-0.1,18.6,6.3,27.5
		c6.6,9.2,13.3,18.8,22.8,25.1c23.2,15.5,46.3,12.2,58.6,5.9c8.5-4.4,17.3-14.5,15.7-24.2c-0.9-5.5-1.4-11.3,0.8-16.8
		C333.6,400.1,335.3,397.9,335.9,394.8z"/>
	<path class="st4" d="M319.6,420.8c-2.2-6.7-4-13.4-4.5-20.5c-0.5-6.6,2.9-12.8,4.2-19c2-9.3,0-20.4-5.8-28.1
		c-5.8-7.7-16.4-10.5-25.4-7.2c-10,3.7-14.2,13.3-14.4,22.9c-0.3,10.9,11.2,44.9,12.9,50.8c1.7,6,4.6,9.5,9.5,13
		c5.8,4.2,16.4,10.8,23.3,6.5C323.8,436.5,321.4,426.4,319.6,420.8z"/>
	<path class="st3" d="M315.9,336.9c-6.5-6.5-17.4-7.9-25-5.7c-8.6,2.5-16.6,8.9-17.8,21.1c-0.2,2.4,0,6-1.2,8.1
		c-0.6,1-2.8,3-3.4,4.1c-1.9,3.6-2.1,6.7-1.3,9.8c1.2,4.5,3.4,7.4,7.1,9.6c1.4,0.8,2.3,0.8,3.3,1.6c1.6,1.2,3,3.5,4.4,5
		c11.8,13.2,27.9,16.3,37.4-2.8C327.3,372.1,328.3,349.5,315.9,336.9z"/>
	<path class="st10" d="M310.3,383.9c-4.8,1.1-9.5,0.7-14.2-0.5c-0.9-0.2-1.3,1.1-0.4,1.8c4.4,3.2,11.4,4.7,15.5,0.1
		C311.7,384.8,311.2,383.7,310.3,383.9z"/>
	<path class="st1" d="M319.1,336.7c-6.6-9-21.3-13.2-34.1-9.2c-14.4,4.5-23,15.9-23,30.1c0,13.2,6,24.6,13.8,27.8
		c1.4,0.6,0.9-1.8-0.6-2.4c-2-0.8-3.8-2.8-4.8-5.4c-1.3-3.5-4.7-15.3,3.4-15c0.5,0,0.9,0.1,1.4-0.4c3.8-4.3,5.4-10,8.6-14.7
		c4.5-6.6,12.6-12.2,20.5-13c5.5,0,13.4,6.3,16,16.5c1.4,5.8,1.5,11.9,4.7,16.9c1,1.5,2.7,0.3,2.6-1.4
		C327.4,353.5,326.5,346.8,319.1,336.7z"/>
	<path class="st2" d="M275.4,330.9c9.1-18.3,30-18.7,41.2-9c8.7,7.5,5.3,21.3,11,27.6c4.2,4.6,3.9-14.1,0.6-19.2
		c-5.7-9.1-9.8-9.1-16.8-13.2c-10-7.5-26-8.5-36.3-1.7c-4.4,2.9-6.2,6.2-9,10.4c-3.4,5.1-8.1,6.4-13.3,8.8c-8.3,3.8-11,9-10.9,18
		c0.1,3.6,0.6,7.1-0.6,10.6c-1.1,3.3-3.5,5.9-5.4,8.6c-3.1,4.2-5.9,8.8-7.6,13.8c-3.7,10.8-0.1,18.6,6.3,27.5
		c6.6,9.2,33.6,28,29.3,10.7c-3.2-12.8-23.4-15.7-10.3-42.4c5.6-11.3-4.1-24.9,1.9-34.7C259.2,340.6,270.5,340.6,275.4,330.9z"/>
</g>
<path class="st3" d="M175.1,377.3c-6.3-7.3-15.7-9.3-20.1-18.9c-3.5-7.7-1.1-16.5-6.6-24.2c-2.3-3.2-5.7-4.5-8.8-6.7
	c-4-2.9-5.9-6.7-7.6-0.3c-0.5,1.7-0.1,2.8-1,4.4c-0.6,0.9-2.7,1-3.4,2c-1.1,1.6-0.2,2.9-0.7,4.6c-0.6,2-1.6,3.1-2.3,5
	c-2.3,6.3,2.9,12.8,6.4,18.4c4.9,7.7,13.2,12.5,19.8,18.6c5.1,4.8,10.2,14.9,17.4,16.7C180,399.8,180.7,383.8,175.1,377.3z"/>
<path class="st16" d="M188.1,391.3c-0.9-6.1-5.1-9.6-9.6-13.5c-4.8-4.2-5.3-2.5-5.8,4.1c-0.4,4.7,2.2,11.8-5.9,12.4
	c-4.7,0.3-7.1-4.7-8.4-3.4c-1.8,1.8,4.4,6.6,5.8,7.6c4.1,2.9,7.1,5.9,12.3,5.4C183.7,403.2,189.2,398.8,188.1,391.3z"/>
<path class="st16" d="M392.6,305.4c-1.1-1.8-5-1-6.4-1.3c-3.8-0.6-5.9-2.6-9.1-3.8c-2.3-0.9-1.8-1.8-3.7,0.1
	c-1.7,1.7-2.6,7.9-2.4,10.1c0.6,5.4,5.2,8.8,10.3,9.5c3.7,0.5,7.9-0.5,9.9-3.9C392,314.6,393.7,307.3,392.6,305.4z"/>
<linearGradient id="SVGID_00000027606114282032793210000001379385930772479398_" gradientUnits="userSpaceOnUse" x1="356.0285" y1="425.8799" x2="266.5076" y2="580.9347">
	<stop  offset="0" style="stop-color:#FFFFFF"/>
	<stop  offset="0.4031" style="stop-color:#F6F6F6"/>
	<stop  offset="1" style="stop-color:#EDEDED"/>
</linearGradient>
<path style="fill:url(#SVGID_00000027606114282032793210000001379385930772479398_);" d="M372.1,542.5c-4.6-7.6-7.8-22.7-8-29.9
	c-0.1-4.4,0.1-8.1-1.4-12.4c-1.3-3.7-4.7-7.8-4.8-11.7c-0.3-6.8,5-13.3,4.3-20.5c-0.7-7.6-5.8-13.8-9.5-20.1
	c-4.6-7.8-7.4-16.5-12.3-24.2c-2.2-3.5-4.7-7.4-7.6-10.5c-3.1-3.4-3.9-2.8-7.6-0.6c-8,4.6-7.9,10.9-8.6,19.8
	c-3.5-6-4.1-13.5-10-17.5c-5.3-3.6-9.6-3.4-15.3-2.9c-5.2,0.5-9.1-2.1-14-2.9c-4.9-0.8-5.9,0.9-9,4.3c-1.2,1.2-2,2.5-3.7,3.1
	c-1.6,0.6-4.2-0.5-5.5,0.4c-3.2,2.4-0.7,8.8,0.7,11.3c2.5,4.5,6.5,7.9,9.4,12.2c4,6,7.1,12.9,9.4,19.7c4.9,14.5,2.5,24.9-2,39
	c-2,6.2-2.2,12.2-2.9,18.6c-0.7,6.1-3.2,10.7-5.2,16.4c-2.2,6.2-1.6,11.8-0.7,18.2c0.9,6.2,1.1,12.2,1.6,18.4
	c0.3,3.2-0.5,14.9,4.4,13.6c5.3-1.4,8-14.5,10.3-18.6c3.6,4.5,3.4,10.8,7,15.4c3.7,4.8,10.4,7.5,16,9.5c10.6,3.7,23.8,5.5,34.7,2.1
	c10.5-3.2,20.6-11,28.4-18.4c3.4-3.3,8.2-7.8,9.5-12.5C381.5,555.4,375.4,547.9,372.1,542.5z"/>
<path class="st18" d="M391,315.5c-3.9,4.2-17.4-10.8-19.6-10.1c-3.5,1.1-3.1,9.1-4.3,12.4c-2.1,5.8-4.8,11.4-7.2,17.1
	c-5.2,12.5-18,49-20.8,54c-2.6,4.9-6.9,8.4-9.8,13.1c-2.6,4.2-2.3,6.6-1.9,11.5c0.4,5.8,3.8,9.4,6.8,10.6c11,4.5,22.7,2.8,34.1,6.2
	c5.4,1.6,12.8,6.3,18.2,6.5c5.4,0.2,2.2-3.7-0.6-6.5c-7.7-7.8-19.7-12.9-29.8-16.7c11.5-16.3,18.9-35.1,24.8-54
	c2.8-9.1,5.4-18.3,7.9-27.4c1.1-4,3-9.8,3.8-14.3C393.4,314.8,393.7,312.6,391,315.5z"/>
<path class="st12" d="M364.1,512.5c-0.1-4.4,0.1-8.2-1.4-12.4c-1.3-3.7-4.7-7.8-4.8-11.7c-0.3-6.8,5-13.3,4.3-20.5
	c-0.3-3.6-1.7-6.9-3.4-10.1c-3.6-2.7-5.5-2.1-1.4,8c8.6,21.3-42.5,18.5-49.7,18c-9.3-0.7-14.9-7.2-21.9-5.5c-1.4,0.3-3,0.7-4.6,1
	c-0.5,6.3-2.3,12.4-4.6,19.6c-2,6.2-2.2,12.2-2.9,18.6c-0.7,6.1-3.2,10.7-5.2,16.4c-2.2,6.2-1.6,11.8-0.7,18.2
	c0.9,6.2,1,12.2,1.6,18.4c0.1,1.3,0.1,4,0.3,6.6c12.3-12.1,23.6-53.5,33.1-47.2c15.3,10.2,11.7-12.6,33.2-20.7
	c6.1-2.3,17.2-3.2,18.8,2.5c4,14,8.1,16.6,11.5,14.7C365,521.2,364.2,516,364.1,512.5z"/>
<path class="st18" d="M283.5,428.1c-7.4-6.9-18.6-13.8-28.9-14.6c-4.3-0.3-8.4,1.2-12.6,1.3c-6.6,0.2-11.7-3.5-17.1-7
	c-8.7-5.7-18.3-9.8-27-15.5c-4.2-2.7-7.7-5.9-11.3-9.3c-1.1-1-6.4-7.5-7.4-5.5c-0.6,1.3,4.2,4.1,3.9,11.6c-0.2,3.9-1.3,7.7-4.8,9.8
	c-3.6,2.1-7.1,2-11.9,0.7c-2.1-0.6-6-3.7-4.4,0.4c0.7,1.9,6,3.8,7.6,4.7c5,2.7,9.4,7,13.7,10.6c8.5,7.1,14,16.1,24,21.2
	c9.3,4.8,18.8,9.8,27.1,16.1c4.3,3.3,9.4,6.9,12.8,11.1c3.3,4.1,4.3,9.2,6.1,14c1.5,3.9,3.7,6.1,5.8,9.5c2.4,3.8,1.6,6.5,0.6,10.9
	c-6.1,27.7-11.8,39.5-28.1,61c-3.5,4.6-5.8,14.6,3.3,18.7c5.1,2.3,13.8,2.1,19.2,1.1c15.4-2.8,28.4-25,36.7-50.9
	c3-9.4,5.6-32.8,5.8-40.3C297.3,467.4,300.2,443.7,283.5,428.1z"/>
<path class="st8" d="M296.9,452.6c-3-9.4-6.3-18.9-14-25.6c-2.3-2-17.2-13.1-19.5-9.9c-0.9,1.2,16.1,15,18,17.8
	c5.8,8.1,6.5,18.3,7.8,27.8c1.4,10.5,2.3,21,1.9,31.6c-0.1,2.1-1.7,21.2,2.8,17.9c1.2-0.9,1.9-7.4,2.2-8.9
	c1.3-5.6,1.5-11.1,1.8-16.8C298.3,475.3,300.3,463.5,296.9,452.6z"/>
<path class="st8" d="M422.7,520.3c-1.8-12-9.6-22.2-12.5-33.9c-2.9-11.6-4.1-23-9.1-33.9c-5.3-11.6-10.2-20.3-21.7-26.8
	c-11.1-6.2-27.3-4.8-39.6-4.6c-6.6,0.1-10.7-3.6-8.2,3.5c2.1,5.9,6.7,11.6,10.7,15.9c10.6,11.3,20.8,21.4,18.5,34.4
	c-1.3,7.3-9,11.6-8,17.9c1.1,6.8,4.8,8.8,4.9,16.2c0.2,13.6,4.9,21.4,12.8,32.2c2.6,3.6,4.3,8.7,8.6,9.3c6.1,0.9,14.7-3.3,20.1-5.8
	C409,540.3,424.6,533.5,422.7,520.3z"/>
<linearGradient id="SVGID_00000081612040834643203260000013866710713741697945_" gradientUnits="userSpaceOnUse" x1="331.0345" y1="581.8816" x2="331.0345" y2="414.8313">
	<stop  offset="0" style="stop-color:#DADADA"/>
	<stop  offset="1" style="stop-color:#C6C6C6"/>
</linearGradient>
<path style="fill:url(#SVGID_00000081612040834643203260000013866710713741697945_);" d="M360.7,580.2c-1.4-5.9-4.8-11-6.6-16.8
	c-2-6.5-3.1-13.4-5-20c-3.7-12.9-6.5-26.1-9.1-38.9c-2.4-12.1,4.4-22-1.6-33.3c-5.7-10.7-15.3-22-21-32.7c-1.1-2.1-12-27.8-16-23.1
	c-1.2,1.4,6.2,8.2,7.3,10.3c2.8,5.3,4.2,11.1,7.2,16.4c5.9,10.3,16.1,21,20.7,32c2.2,5.2,1.6,10.1,1.2,15.6
	c-0.4,7-0.8,10.8,0.5,17.6c2.6,13.6,5.7,28.9,9.5,42.8c1.9,7,2.8,13.9,5.8,20.6c1.2,2.7,2.1,6.6,3.7,8.9
	C357.7,580.1,361.6,584.1,360.7,580.2z"/>
<path class="st8" d="M363.1,402.9c-2,3.5-4.5,7.4-6.8,10.8c-0.1,0-1.1-0.3-3.1-0.8c-9.3-2.5-12.4-7.2-25.7-6.1
	c0.3-1.5,0.8-3,1.9-4.8c2.8-4.4,6.8-7.9,9.4-12.4C351.8,383.6,361.5,393.8,363.1,402.9z"/>
<path class="st20" d="M555.6,868c-0.6-3.4-1.1-9.7-1.5-12.9c-0.4-3.7-6-6.8-13.5-5.7c-4.2,0.6-11.5,3.4-10.9,7.5
	c0.4,2.8,1.8,10.6,2.5,13.4c1.9,7.9,3.5,11.2,12.6,10.9C555,880.9,557.4,877.6,555.6,868z"/>
<path class="st20" d="M640,849.2c-3.7-3.7-15-0.9-19.2,0.8c-6.1,2.6-5,11.7-1.1,16.4c3.6,4.4,15,5.4,19.4,1.7
	C642.7,865.1,643.5,852.7,640,849.2z"/>
<path class="st3" d="M651.2,232.6c-1.5-16-5-31.5-5.8-47.7c-0.8-15.1-1-30.3-1.4-45.5c-0.1-4.5,0.4-11.9-4.8-13.9
	c-2.8-1.1-9.2-0.1-12.3,0c-5.8,0.3-8.1,0-11.6,4.9c-1.6,2.2-2.8,2.2-3.4,5.1c-0.7,3.3,2.4,7.1,3,8.3c2.8,5.7,6.9,10.5,10.2,15.9
	c4.1,6.7,5.5,11.1,5.7,19c0.2,7.4-1.3,13.9-2.4,21.1c-1.1,7-1.1,14.1-2.1,21.1c-1.9,12.8-3.4,20.8,11,24.7
	C647.5,248.5,652.3,243.6,651.2,232.6z"/>
<path class="st4" d="M580.9,328.2c-1.8-6.6-14.8,6.3-20.8,6.9c-5.4,0.5-11.2-0.8-16.4,0.9c-5.6,1.8-7.6,6.7-6.2,12.5
	c1.2,5,3.7,9.3,4.5,14.7c0.7,5.1,0.9,10.3,1.8,15.4c1.1,6.5,3.7,17.6,11.9,17.5c8.3-0.1,12.2-10,15.3-16.2
	c4.2-8.4,7.8-15.1,8.7-24.7C580,350.4,581.8,331.8,580.9,328.2z"/>
<linearGradient id="SVGID_00000171000563886278462430000008222935861660645555_" gradientUnits="userSpaceOnUse" x1="470.2684" y1="771.8965" x2="704.3597" y2="636.7439">
	<stop  offset="0" style="stop-color:#305B85"/>
	<stop  offset="0.3561" style="stop-color:#2F5881"/>
	<stop  offset="0.7245" style="stop-color:#2A5074"/>
	<stop  offset="1" style="stop-color:#254666"/>
</linearGradient>
<path style="fill:url(#SVGID_00000171000563886278462430000008222935861660645555_);" d="M655.8,581.6c-0.3-10.4,0.5-26.4-4.1-36
	c-4-8.3-18.6-6.2-25.7-5.3c-13.9,1.8-25,5.8-38.7,8.8c-14.3,3.1-29,1.5-43.3,2.1c-10.5,0.4-19.1,10.3-22.6,20
	c-2.3,6.4-0.2,11.3,2.4,17.2c2.8,6.3,4.1,12.1,3.5,19c-1.3,14.2-6.1,27.7-5.5,42c0.3,6.5,1.5,12.8,1.8,19.3
	c0.4,7.1-1.3,14.2-0.9,21.3c0.3,5.2,2.9,9.7,2.3,15c-0.3,2.8-1.5,5.3-1.6,8.1c-0.1,3,0.8,5.8,0.5,8.8c-0.5,5.6-3.9,10.6-5.1,16
	c-1.7,7.2-1.6,14.9-1.4,22.2c0.3,14.8,1.9,29.6,1.6,44.5c-0.3,14.1-2.6,28.1-3.3,42.2c-0.4,8.5,6.9,12.1,18,13.7
	c12.8,1.9,25.1,1.7,25-7.8c-0.1-8.1-0.7-12.7-1.3-20c-1-12.6,1.3-25.1,1.8-37.6c0.8-16.5,0.4-32.7,2.4-49.2c1-8,2.4-15.9,4.5-23.7
	c1.9-7.4,0.4-14.3,1.7-21.7c1.2-6.9,2.3-13.9,3.6-20.8c1.4-7.5,5.1-14.5,7.7-21.6c2.7-7.2,5.2-14.6,7-22.1
	c1.5-6.2,2.1-13.1,6.2-18.4c6.2,4.1,5.2,12.7,5.4,19.1c0.3,9.8,3,19.6,1.7,29.4c-1.1,8.6-5.7,16.8-4.9,25.7c0.8,9.1,6.6,16.9,7.7,26
	c1,8.9,3.4,16.7,3.1,25.7c-0.4,10.5-1.1,20.9-0.5,31.4c1.1,20.5,5.4,40.7,4.4,61.3c-0.3,6.9-1.1,14.3,5.7,18.4
	c6.1,3.6,14.1,2.3,20.7,0.9c8.4-1.9,11.2-4.1,10.5-13c-0.8-9.8,0.5-18.7,1.8-28.5c1.3-10.1,1.3-19.9,0.3-30.1
	c-1-10.7,0.9-20.4,1-30.9c0-4.9-1.9-9-2.6-13.8c-0.6-4.2-0.3-8.4-0.2-12.6c0.1-4.3,0.2-8.6-0.7-12.8c-1.1-5.1-4.9-8.4-6.2-13.3
	c-1.1-4,0.7-7.5,2.4-11c2.3-4.8,3.7-8.9,4.1-14.3c0.6-9.8-1.6-19.6-0.2-29.4c1.4-10.4,5.9-20.1,7.8-30.4
	C655.5,604.4,656.1,592.9,655.8,581.6z"/>
<path class="st22" d="M569,913c-1-9.4-7.9-17.3-9.5-26.8c-0.8-4.9-0.7-10.2-2-15c-2.2-8.3-1.5-4.8-5.1-2c-5.6,4.3-10.4,7.8-16.8,5.1
	c-3.6-1.5-3.9-12.6-4.4,1.1c-0.2,4.2,1.3,11.1,1.6,15.3c1.3,17.4-5.9,35.3,10.8,47.5c6.9,5.1,16.1,11.9,22.8,6.4
	C573.7,938.6,571.7,921.6,569,913z"/>
<path class="st22" d="M646.3,892.9c-0.1-9.1-3-17.8-3.3-26.8c-0.1-2.8,0.9-4.7-2.4-4.7c-2.9,0-7,3.5-10.6,3.7
	c-3.9,0.2-7.7-2.5-11.2-2.4c-3.1,0.1-1.6-0.3-2.3,2.2c-1,3.7,0.3,8.5-0.7,12.6c-1,4.2-3,7.9-4.8,11.7c-5.7,12.2-11.9,46.5,3.8,48
	c7.6,0.7,14.3-7.6,19.9-14.4C641.9,913.9,647.6,902.4,646.3,892.9z"/>
<path class="st23" d="M583.2,604.6c-3.4-3.5-6.2-7-6.9-11.9c-0.6-4.2,0.1-9,0.5-13.2c0.7-8.1,2-20.1,1.5-28.3c-0.1-1.9-3.1-1.9-3,0
	c0.6,10.8-1.4,25.6-2,36.4c-0.5,8.1,2.2,13.4,7.8,19.2C582.4,608.2,584.5,606,583.2,604.6z"/>
<path class="st3" d="M584.9,314.1c1.3-18.7-4.4-39-26-39.7c-8.6-0.3-17.1,1.5-23.1,8.1c-5.7,6.1-6.3,12.2-7,20.2
	c-1.5,18.1-1.2,46.4,15.5,57.9c17.2,11.8,33.7-10.5,36.4-26c4.6,2.6,8.8-6.8,8.9-13.6C589.8,316.6,587.7,314.1,584.9,314.1z"/>
<path class="st16" d="M661.3,514.5c-1.4-12.2-12-23.4-14.2-27.4c-7.6-14-6.1-33-6.3-48.6c-0.2-9.7,1.2-19.1,0.2-28.9
	c-1-10.3-2.7-19.9-0.4-30.2c1.9-8.6,4.4-16.1,4.3-25c0-4.6-0.5-9.3-0.1-14c0.5-5.1,2.6-9.8,2.2-15c-0.7-8.5-2.2-14.4-0.1-23.1
	c2.3-9.7,3.4-17.9,3.3-27.9c0-3.8-0.1-8,1.4-11.6c1.7-4,5.4-6.4,5.5-11.1c0.1-6.7-5.6-14.8-11.4-17.7c-4.9-2.5-15.2-4.4-20.3-1.6
	c-6.6,3.6-3.2,16.9-3.3,22.9c-0.2,10-3.9,18.6-7.2,27.9c-3.5,9.7-5.9,20.1-7.5,30.3c-0.9,5.5-1.1,10.7-0.9,16.3
	c0.1,3.5,0.6,7.7-1.3,10.9c-2.3,4-7.1,4.5-10.7,6.9c-2.8,1.9-4.6,4.5-8.3,4.8c-1.8,0.1-3-1.3-4.8-1.1c-2.2,0.2-4.2,2-6,2.9
	c-3.2,1.7-7,2.9-9.9,5.1c-7.8,5.9-7,16.5-11.7,24.3c-3.2-8.3-13.9-18.1-23.3-13.5c-3,1.5-7.4,6.1-7.7,9.7c-0.6,7.1,6,1.7,8.6,5.9
	c2.4,3.8-3.1,6.9-5.5,8.8c-4.6,3.6-8.6,7.9-12.1,12.6c-8.1,10.6-13.8,23-13.5,36.6c0.2,13.9,4.9,27.3,3.6,41.3
	c-1.3,13.9-6.8,26.9-0.7,40.6c3.1,6.9,11.8,22,21.5,18.1c3.9-1.6,4.3-6.4,9-6.5c5.1-0.2,7,3.5,12.4,3.7c17,0.6,28.3,0,53.6-5.4
	c15.1-3.2,30-5.4,45.6-5.2C655.9,530.2,662.9,528.3,661.3,514.5z"/>
<path class="st3" d="M551.7,441.5c-1.3-3.9-4.3-12.5-7.1-15.2c-2.9-2.7-8.5-2.6-12.1-2.9c-9.7-0.9-11.1,10.6-12.5,18.8
	c-1,5.8-1.3,11.8-3.2,17.4c-1.8,5.4-3.4,9.7-3.6,15.5c-0.2,5.3-0.9,9.9-2.7,14.9c-2.3,6.3-5.6,12.3-3.9,19.3
	c1.2,4.8,4.4,8.3,8.1,11.3c2.2,1.8,8.9,7.1,12,6.3c8.4-2,5.7-26.7,5.1-32.8c-0.5-5.2-2.6-11.1-1.3-16.2c1.1-4.3,4.5-6.8,7-10.2
	c3.4-4.5,4.7-9.7,7.4-14.5C546.8,450,553.4,446.3,551.7,441.5z"/>
<linearGradient id="SVGID_00000070087501000876089830000008961031646671958182_" gradientUnits="userSpaceOnUse" x1="560.9129" y1="540.804" x2="560.9129" y2="376.3646">
	<stop  offset="0" style="stop-color:#DADADA"/>
	<stop  offset="1" style="stop-color:#C6C6C6"/>
</linearGradient>
<path style="fill:url(#SVGID_00000070087501000876089830000008961031646671958182_);" d="M572.2,513.8c-1.4-8.4-3.9-17.4-4-25.9
	c-0.1-7.5-0.1-12.1-3-19.2c-3.3-8.1-9-15.2-7.1-24.3c2.3-10.9-3.7-17-8-26.4c-6.6-14.4,9-26.1,4.4-40.6c-0.6-1.9-3.5-1.1-2.9,0.8
	c4.2,13.4-9.9,24.4-5.4,38.1c1.7,5,4.9,9.2,7.3,13.9c2,4,2.9,7.7,2,12.2c-0.6,2.9-1.5,5.1-1.2,8.2c0.5,5.5,4.3,10.4,6.5,15.4
	c1.8,4.1,3.8,8.4,4.5,12.9c0.7,4.4-0.4,8.8,0.2,13.3c1.9,15.9,5.4,31.7,8.1,47.5c0.3,1.9,3.2,1.1,2.9-0.8
	C575.1,530.5,573.6,522.2,572.2,513.8z"/>
<path class="st1" d="M585.4,284.6c1.4-1.6,0.7-7.2-1-10.3c-2.5-4.5-8-8-12.8-8.7c-11.2-1.7-22.9-13.4-41.8-9.5
	c-6.1,1.2-9.6,3.3-7.3,9.6c0.7,2,3.9,9.3,4,11.5c0.1,3.3-1.5,5.9-2.5,8.9c-1.8,5.5-3.1,10.6-0.9,17.1c0.8,2.4,1.9,4.8,2.5,7.3
	c0.5,2.2,0.3,10.6,1.3,12c2.3,3.5,2.3-6,2.2-8.1c-0.1-3.6,0-12.7,0.6-16.3c1.3-7.9,3.3-12.8,12.4-13.1c4.8-0.1,9.6,1.4,14.3,1.9
	c6.3,0.6,10.8-0.6,17,1c14.2,3.7,7.7,19.6,6.9,29.1c-0.1,1.6-1.5,6.8,0,7.9c2.5,1.9,2.2-1.9,2.8-2.7c3-3.7,6-6.6,7.9-11.1
	c1.9-4.8,4.7-10.1,3.1-15.5C592.8,291.1,590.5,286.7,585.4,284.6z"/>
<path class="st25" d="M650.6,539.2c0.3-2.1,0.9-8-0.5-9.5c-1.2-1.3-4.3-1.2-8.6-1.4c-8.3-0.2-16.8,0.7-25,1.8
	c-8.4,1.2-24.1,4.6-32.2,6.7c-2.4,0.6-4.4,1.1-4.4,2.7c0.1,1.8,0.7,7.4,0.9,9.2c0.2,1.7,0.8,2.3,4.3,1.7c6.7-1.2,17.6-4,24.3-5.5
	c7.3-1.7,14.8-2.8,22.3-3.5C638.7,540.7,650.2,542.5,650.6,539.2z"/>
<path class="st25" d="M564.3,550c0-2.9-0.1-6.6-0.2-8c-0.2-2.4-1.9-2.1-6-2.2c-4.2-0.1-15.6-0.2-20-0.3c-1.7,0-2.6-0.2-3.1,2
	c-0.5,2.2-0.8,6.7-0.5,7.8c0.4,1.5,1.4,2.2,2.9,2.5c1.8,0.4,19,0.2,23.7,0.3C563.3,552.2,564.3,551.7,564.3,550z"/>
<path class="st26" d="M583.7,539.4c-0.2-1.7-1.1-2.9-2.9-2.9c-4.8,0-14,1.3-15.7,1.5c-3.7,0.4-5,0.1-4.8,3.5
	c0.1,1.2,0.2,5.5,0.8,8.5c0.4,1.8,1.7,2.6,3.6,2.6c4.8,0,13.4-0.3,17.1-0.8c2.3-0.3,2.7-2,2.6-3.5
	C584.2,545.1,584.2,542.7,583.7,539.4z"/>
<path class="st10" d="M561.4,335.4c-6.3-1.6-12.6-2.1-19.1-0.8c-1.2,0.3-0.7,1.8,0.2,2.1c5.5,1.5,16.6,0.9,18.5,0.4
	C562.1,336.8,562.5,335.7,561.4,335.4z"/>
<path class="st12" d="M657.3,502.6c-10.8-3.4-22.1-11.4-23.7-30c-2.4-28.4-12.5-40.1-14-49.7c-3-19.5,5.5-31.8,5.5-54.8
	c0-22.7-5.5-48.6-4-67.2c1.2-15.4,2-39,12.4-43.9c4.5-2.1,13.1,2.6,18.1,5.9c-1.5,3.6-1.4,7.7-1.4,11.5c0,10-1,18.1-3.3,27.9
	c-2.1,8.7-0.6,14.5,0.1,23.1c0.4,5.2-1.7,9.9-2.2,15c-0.4,4.6,0.1,9.3,0.1,14c0,8.9-2.4,16.4-4.3,25c-2.3,10.3-0.6,19.9,0.4,30.2
	c1,9.8-0.4,19.1-0.2,28.9c0.3,15.6-1.3,34.6,6.3,48.6C648.5,489.7,653.6,495.5,657.3,502.6z"/>
<path class="st2" d="M579.7,269.2c-0.4,0.4-0.8,0.6-1.5,0.8c-4.6,1.4-11.1-7.4-24.8-5.4c-10.1,1.5-15.4-7.6-21.1-3.8
	c-3.5,2.3-3.1,9.2-2.7,15.8c0.2,2.6-0.8,7.1-3.9,13.2c-2.6,5.3,0.6,14.7-1.3,17.5c-0.5-1.4-1.1-2.7-1.5-4.1
	c-2.2-6.5-0.8-11.6,0.9-17.1c1-3,2.6-5.7,2.5-8.9c-0.1-2.2-3.3-9.4-4-11.5c-2.2-6.3,1.2-8.3,7.3-9.6c18.9-3.8,30.6,7.9,41.8,9.5
	C574.3,266,577.2,267.3,579.7,269.2z"/>
</svg>
