<svg width="358" height="358" viewBox="0 0 358 358" fill="none" xmlns="http://www.w3.org/2000/svg">
    <path d="M103.264 69.6223C106.701 57.551 114.014 52 126.614 52C159.039 52 191.376 52 223.801 52C236.401 52 243.626 57.551 247.15 69.6223C247.238 96.9368 247.326 124.251 247.326 151.566C247.326 196.679 247.238 241.88 247.415 286.993C247.415 295.188 245.124 302.148 238.603 307.523C234.462 310.343 229.969 311.4 224.946 311.4C191.816 311.312 158.686 311.312 125.468 311.4C120.446 311.4 115.952 310.343 111.811 307.523C105.291 302.236 103 295.276 103 286.993C103.088 216.856 103.088 146.72 103.088 76.5831C103.088 74.2922 103.176 71.9132 103.264 69.6223ZM106.613 181.876C106.613 216.68 106.613 251.484 106.613 286.288C106.613 301.355 113.221 307.964 128.288 307.964C159.568 307.964 190.759 307.964 222.039 307.964C223.801 307.964 225.563 307.876 227.325 307.699C237.37 306.466 243.802 299.593 243.802 289.46C243.89 217.826 243.89 146.103 243.802 74.4684C243.802 62.8377 236.313 55.6126 224.77 55.6126C191.728 55.6126 158.775 55.6126 125.733 55.6126C123.706 55.6126 121.68 55.6126 119.653 56.2293C111.194 58.9608 106.613 65.481 106.613 75.3495C106.613 110.77 106.613 146.367 106.613 181.876Z" fill="#0A0977"/>
    <path d="M106.613 181.876C106.613 146.367 106.613 110.77 106.613 75.2614C106.613 65.3929 111.194 58.8726 119.653 56.1412C121.68 55.5244 123.618 55.5244 125.645 55.5244C158.686 55.5244 191.64 55.5244 224.682 55.5244C236.224 55.5244 243.714 62.8377 243.714 74.3803C243.802 146.015 243.802 217.738 243.714 289.372C243.714 299.505 237.282 306.466 227.237 307.611C225.475 307.787 223.713 307.875 221.95 307.875C190.671 307.875 159.479 307.875 128.2 307.875C113.133 307.875 106.524 301.267 106.524 286.2C106.613 251.484 106.613 216.68 106.613 181.876ZM232.083 177.559C232.083 148.923 231.995 120.198 232.171 91.562C232.171 87.597 231.378 86.011 226.885 86.011C192.433 86.1872 157.893 86.1872 123.442 86.011C118.948 86.011 118.155 87.5089 118.155 91.562C118.243 149.099 118.243 206.547 118.155 264.084C118.155 268.402 119.477 269.459 123.618 269.459C157.981 269.283 192.345 269.283 226.62 269.459C230.762 269.459 232.171 268.402 232.171 264.084C231.995 235.184 232.083 206.371 232.083 177.559ZM186.97 288.755C187.058 282.323 181.948 276.948 175.516 276.772C168.907 276.596 163.444 281.883 163.356 288.491C163.268 294.923 168.379 300.298 174.811 300.474C181.419 300.65 186.882 295.364 186.97 288.755ZM185.648 72.3537C190.935 72.3537 196.222 72.3537 201.42 72.3537C202.654 72.3537 204.328 72.618 204.24 70.5915C204.152 69.0936 202.83 68.8292 201.685 68.8292C191.111 68.8292 180.626 68.8292 170.053 68.8292C168.819 68.8292 167.498 69.1817 167.409 70.5915C167.321 72.5299 168.995 72.3537 170.229 72.3537C175.339 72.4418 180.538 72.3537 185.648 72.3537ZM150.844 66.3621C148.025 66.7146 146.263 68.2125 146.351 70.9439C146.439 73.6754 148.201 75.2614 151.021 75.0851C153.488 74.9089 155.074 73.4991 155.074 70.8558C155.074 67.9481 153.223 66.7146 150.844 66.3621Z" fill="#FAFAFC"/>
    <path d="M232.083 177.559C232.083 206.371 231.995 235.184 232.171 263.996C232.171 268.313 230.85 269.371 226.62 269.371C192.257 269.195 157.894 269.195 123.618 269.371C119.389 269.371 118.155 268.313 118.155 263.996C118.331 206.459 118.243 149.011 118.155 91.4739C118.155 87.5089 118.948 85.9229 123.442 85.9229C157.894 86.0991 192.433 86.0991 226.885 85.9229C231.378 85.9229 232.171 87.5089 232.171 91.4739C231.995 120.198 232.083 148.923 232.083 177.559Z" fill="#0A0977"/>
    <path d="M228.559 261.089C228.559 264.613 227.766 265.847 223.977 265.758C191.464 265.582 158.863 265.582 126.261 265.758C122.473 265.758 121.68 264.613 121.68 261.089C121.856 233.333 121.768 205.49 121.768 177.735C121.768 149.804 121.856 121.873 121.68 93.9412C121.68 90.5049 122.561 89.5356 125.997 89.5356C158.686 89.6238 191.376 89.6238 224.153 89.5356C227.678 89.5356 228.559 90.5049 228.559 93.9412C228.471 149.716 228.471 205.402 228.559 261.089Z" fill="#F9F9F9"/>
    <path d="M186.97 288.755C186.882 295.364 181.419 300.65 174.811 300.474C168.379 300.298 163.268 294.923 163.357 288.491C163.445 281.882 168.908 276.508 175.516 276.772C181.948 276.948 187.059 282.323 186.97 288.755ZM175.34 280.385C170.846 280.297 166.881 284.085 166.793 288.579C166.705 292.985 170.67 296.95 175.164 296.95C179.481 296.95 183.27 293.337 183.446 288.931C183.622 284.438 179.833 280.473 175.34 280.385Z" fill="#0A0977"/>
    <path d="M185.648 72.3538C180.538 72.3538 175.428 72.3538 170.317 72.3538C169.083 72.3538 167.409 72.4419 167.497 70.5916C167.586 69.2699 168.907 68.8293 170.141 68.8293C180.714 68.8293 191.199 68.8293 201.773 68.8293C203.006 68.8293 204.24 69.0937 204.328 70.5916C204.416 72.6181 202.742 72.3538 201.508 72.3538C196.134 72.4419 190.847 72.3538 185.648 72.3538Z" fill="#17167E"/>
    <path d="M150.845 66.3621C153.312 66.7145 155.074 67.9481 155.074 70.8557C155.074 73.4991 153.576 74.997 151.021 75.0851C148.289 75.2613 146.527 73.6753 146.351 70.9439C146.263 68.2124 148.025 66.7145 150.845 66.3621Z" fill="#0A0977"/>
    <path d="M175.339 280.385C179.833 280.473 183.622 284.526 183.446 288.931C183.269 293.249 179.569 296.95 175.163 296.95C170.669 296.95 166.792 292.985 166.792 288.579C166.881 284.085 170.934 280.208 175.339 280.385Z" fill="#FAFAFC"/>
    <rect x="127.088" y="116.5" width="97" height="30" rx="4.5" fill="white" stroke="#181B5E" stroke-width="3"/>
    <circle cx="244.088" cy="66.5" r="40" fill="white" stroke="#181B5E" stroke-width="3"/>
    <path d="M227.012 62.0015C227.012 57.3382 228.865 52.8659 232.162 49.5684C235.46 46.271 239.932 44.4185 244.595 44.4185C249.258 44.4185 253.731 46.271 257.028 49.5684C260.326 52.8659 262.178 57.3382 262.178 62.0015V76.2877C262.178 77.1621 262.526 78.0006 263.144 78.6189C263.762 79.2372 264.601 79.5845 265.475 79.5845H223.715C224.59 79.5845 225.428 79.2372 226.047 78.6189C226.665 78.0006 227.012 77.1621 227.012 76.2877V62.0015Z" fill="white" stroke="#181B5E" stroke-width="3" stroke-linecap="round" stroke-linejoin="round"/>
    <path d="M244.595 37.8271V44.4208Z" fill="white"/>
    <path d="M244.595 37.8271V44.4208" stroke="#181B5E" stroke-width="3" stroke-linecap="round" stroke-linejoin="round"/>
    <path d="M249.98 83.9802C249.728 85.2223 249.054 86.3391 248.073 87.1412C247.091 87.9433 245.863 88.3815 244.595 88.3815C243.328 88.3815 242.099 87.9433 241.118 87.1412C240.137 86.3391 239.463 85.2223 239.21 83.9802" fill="white"/>
    <path d="M249.98 83.9802C249.728 85.2223 249.054 86.3391 248.073 87.1412C247.091 87.9433 245.863 88.3815 244.595 88.3815C243.328 88.3815 242.099 87.9433 241.118 87.1412C240.137 86.3391 239.463 85.2223 239.21 83.9802" stroke="#181B5E" stroke-width="3" stroke-linecap="round" stroke-linejoin="round"/>
    <path d="M250.09 52.0432C251.74 52.8618 253.128 54.125 254.099 55.6903C255.07 57.2556 255.584 59.0609 255.585 60.9029" fill="white"/>
    <path d="M250.09 52.0432C251.74 52.8618 253.128 54.125 254.099 55.6903C255.07 57.2556 255.584 59.0609 255.585 60.9029" stroke="#181B5E" stroke-width="3" stroke-linecap="round" stroke-linejoin="round"/>
</svg>
