<svg width="358" height="358" viewBox="0 0 358 358" fill="none" xmlns="http://www.w3.org/2000/svg">
    <path d="M103.264 69.6223C106.701 57.551 114.014 52 126.614 52C159.039 52 191.376 52 223.801 52C236.401 52 243.626 57.551 247.15 69.6223C247.238 96.9368 247.326 124.251 247.326 151.566C247.326 196.679 247.238 241.88 247.415 286.993C247.415 295.188 245.124 302.148 238.603 307.523C234.462 310.343 229.969 311.4 224.946 311.4C191.816 311.312 158.686 311.312 125.468 311.4C120.446 311.4 115.952 310.343 111.811 307.523C105.291 302.236 103 295.276 103 286.993C103.088 216.856 103.088 146.72 103.088 76.5831C103.088 74.2922 103.176 71.9132 103.264 69.6223ZM106.613 181.876C106.613 216.68 106.613 251.484 106.613 286.288C106.613 301.355 113.221 307.964 128.288 307.964C159.568 307.964 190.759 307.964 222.039 307.964C223.801 307.964 225.563 307.876 227.325 307.699C237.37 306.466 243.802 299.593 243.802 289.46C243.89 217.826 243.89 146.103 243.802 74.4684C243.802 62.8377 236.313 55.6126 224.77 55.6126C191.728 55.6126 158.775 55.6126 125.733 55.6126C123.706 55.6126 121.68 55.6126 119.653 56.2293C111.194 58.9608 106.613 65.481 106.613 75.3495C106.613 110.77 106.613 146.367 106.613 181.876Z" fill="#0A0977"/>
    <path d="M175.529 276.272L175.529 276.272C182.237 276.456 187.562 282.059 187.47 288.762C187.47 288.762 187.47 288.762 187.47 288.762L175.529 276.272ZM175.529 276.272C168.64 276.089 162.948 281.599 162.856 288.484L175.529 276.272ZM167.409 70.5915L166.91 70.5603L166.91 70.5688L167.409 70.5915ZM167.409 70.5915C167.328 72.3832 168.752 72.3683 169.942 72.3557C170.04 72.3547 170.136 72.3537 170.229 72.3537L167.409 70.5915ZM185.679 72.8537H185.648H185.679ZM185.679 72.8537H185.71M185.679 72.8537H185.71M185.71 72.8537H185.741M185.71 72.8537H185.741M185.741 72.8537H185.772M185.741 72.8537H185.772M185.772 72.8537H185.803M185.772 72.8537H185.803M185.803 72.8537H185.834M185.803 72.8537H185.834M185.834 72.8537H185.865M185.834 72.8537H185.865M185.865 72.8537H185.896M185.865 72.8537H185.896M185.896 72.8537H185.927M185.896 72.8537H185.927M185.927 72.8537H185.958M185.927 72.8537H185.958M185.958 72.8537H185.989M185.958 72.8537H185.989M185.989 72.8537H186.02M185.989 72.8537H186.02M186.02 72.8537H186.051M186.02 72.8537H186.051M186.051 72.8537H186.082M186.051 72.8537H186.082M186.082 72.8537H186.113M186.082 72.8537H186.113M186.113 72.8537H186.144M186.113 72.8537H186.144M186.144 72.8537H186.175M186.144 72.8537H186.175M186.175 72.8537H186.206M186.175 72.8537H186.206M186.206 72.8537H186.237M186.206 72.8537H186.237M186.237 72.8537H186.268M186.237 72.8537H186.268M186.268 72.8537H186.299M186.268 72.8537H186.299M186.299 72.8537H186.33M186.299 72.8537H186.33M186.33 72.8537H186.361M186.33 72.8537H186.361M186.361 72.8537H186.392M186.361 72.8537H186.392M186.392 72.8537H186.423M186.392 72.8537H186.423M186.423 72.8537H186.454M186.423 72.8537H186.454M186.454 72.8537H186.485M186.454 72.8537H186.485M186.485 72.8537H186.516M186.485 72.8537H186.516M186.516 72.8537H186.547M186.516 72.8537H186.547M186.547 72.8537H186.578M186.547 72.8537H186.578M186.578 72.8537H186.609M186.578 72.8537H186.609M186.609 72.8537H186.64M186.609 72.8537H186.64M186.64 72.8537H186.671M186.64 72.8537H186.671M186.671 72.8537H186.702M186.671 72.8537H186.702M186.702 72.8537H186.733M186.702 72.8537H186.733M186.733 72.8537H186.764M186.733 72.8537H186.764M186.764 72.8537H186.795M186.764 72.8537H186.795M186.795 72.8537H186.826M186.795 72.8537H186.826M186.826 72.8537H186.857M186.826 72.8537H186.857M186.857 72.8537H186.887M186.857 72.8537H186.887M186.887 72.8537H186.918M186.887 72.8537H186.918M186.918 72.8537H186.949M186.918 72.8537H186.949M186.949 72.8537H186.98M186.949 72.8537H186.98M186.98 72.8537H187.011M186.98 72.8537H187.011M187.011 72.8537H187.042M187.011 72.8537H187.042M187.042 72.8537H187.073M187.042 72.8537H187.073M187.073 72.8537H187.104M187.073 72.8537H187.104M187.104 72.8537H187.135M187.104 72.8537H187.135M187.135 72.8537H187.166M187.135 72.8537H187.166M187.166 72.8537H187.197M187.166 72.8537H187.197M187.197 72.8537H187.228M187.197 72.8537H187.228M187.228 72.8537H187.259M187.228 72.8537H187.259M187.259 72.8537H187.29M187.259 72.8537H187.29M187.29 72.8537H187.321M187.29 72.8537H187.321M187.321 72.8537H187.352M187.321 72.8537H187.352M187.352 72.8537H187.383M187.352 72.8537H187.383M187.383 72.8537H187.414M187.383 72.8537H187.414M187.414 72.8537H187.445M187.414 72.8537H187.445M187.445 72.8537H187.476M187.445 72.8537H187.476M187.476 72.8537H187.507M187.476 72.8537H187.507M187.507 72.8537H187.538M187.507 72.8537H187.538M187.538 72.8537H187.569M187.538 72.8537H187.569M187.569 72.8537H187.6M187.569 72.8537H187.6M187.6 72.8537H187.631M187.6 72.8537H187.631M187.631 72.8537H187.662M187.631 72.8537H187.662M187.662 72.8537H187.693M187.662 72.8537H187.693M187.693 72.8537H187.724M187.693 72.8537H187.724M187.724 72.8537H187.755M187.724 72.8537H187.755M187.755 72.8537H187.786M187.755 72.8537H187.786M187.786 72.8537H187.817M187.786 72.8537H187.817M187.817 72.8537H187.848M187.817 72.8537H187.848M187.848 72.8537H187.879M187.848 72.8537H187.879M187.879 72.8537H187.91M187.879 72.8537H187.91M187.91 72.8537H187.94M187.91 72.8537H187.94M187.94 72.8537H187.971M187.94 72.8537H187.971M187.971 72.8537H188.002M187.971 72.8537H188.002M188.002 72.8537H188.033M188.002 72.8537H188.033M188.033 72.8537H188.064M188.033 72.8537H188.064M188.064 72.8537H188.095M188.064 72.8537H188.095M188.095 72.8537H188.126M188.095 72.8537H188.126M188.126 72.8537H188.157M188.126 72.8537H188.157M188.157 72.8537H188.188M188.157 72.8537H188.188M188.188 72.8537H188.219M188.188 72.8537H188.219M188.219 72.8537H188.25M188.219 72.8537H188.25M188.25 72.8537H188.281M188.25 72.8537H188.281M188.281 72.8537H188.312M188.281 72.8537H188.312M188.312 72.8537H188.343M188.312 72.8537H188.343M188.343 72.8537H188.374M188.343 72.8537H188.374M188.374 72.8537H188.405M188.374 72.8537H188.405M188.405 72.8537H188.436M188.405 72.8537H188.436M188.436 72.8537H188.467M188.436 72.8537H188.467M188.467 72.8537H188.498M188.467 72.8537H188.498M188.498 72.8537H188.529M188.498 72.8537H188.529M188.529 72.8537H188.56M188.529 72.8537H188.56M188.56 72.8537H188.591M188.56 72.8537H188.591M188.591 72.8537H188.622M188.591 72.8537H188.622M188.622 72.8537H188.653M188.622 72.8537H188.653M188.653 72.8537H188.684M188.653 72.8537H188.684M188.684 72.8537H188.715M188.684 72.8537H188.715M188.715 72.8537H188.745M188.715 72.8537H188.745M188.745 72.8537H188.776M188.745 72.8537H188.776M188.776 72.8537H188.807M188.776 72.8537H188.807M188.807 72.8537H188.838M188.807 72.8537H188.838M188.838 72.8537H188.869M188.838 72.8537H188.869M188.869 72.8537H188.9M188.869 72.8537H188.9M188.9 72.8537H188.931M188.9 72.8537H188.931M188.931 72.8537H188.962M188.931 72.8537H188.962M188.962 72.8537H188.993M188.962 72.8537H188.993M188.993 72.8537H189.024M188.993 72.8537H189.024M189.024 72.8537H189.055M189.024 72.8537H189.055M189.055 72.8537H189.086M189.055 72.8537H189.086M189.086 72.8537H189.117M189.086 72.8537H189.117M189.117 72.8537H189.148M189.117 72.8537H189.148M189.148 72.8537H189.179M189.148 72.8537H189.179M189.179 72.8537H189.21M189.179 72.8537H189.21M189.21 72.8537H189.241M189.21 72.8537H189.241M189.241 72.8537H189.272M189.241 72.8537H189.272M189.272 72.8537H189.303M189.272 72.8537H189.303M189.303 72.8537H189.334M189.303 72.8537H189.334M189.334 72.8537H189.365M189.334 72.8537H189.365M189.365 72.8537H189.395M189.365 72.8537H189.395M189.395 72.8537H189.426M189.395 72.8537H189.426M189.426 72.8537H189.457M189.426 72.8537H189.457M189.457 72.8537H189.488M189.457 72.8537H189.488M189.488 72.8537H189.519M189.488 72.8537H189.519M189.519 72.8537H189.55M189.519 72.8537H189.55M189.55 72.8537H189.581M189.55 72.8537H189.581M189.581 72.8537H189.612M189.581 72.8537H189.612M189.612 72.8537H189.643M189.612 72.8537H189.643M189.643 72.8537H189.674M189.643 72.8537H189.674M189.674 72.8537H189.705M189.674 72.8537H189.705M189.705 72.8537H189.736M189.705 72.8537H189.736M189.736 72.8537H189.767M189.736 72.8537H189.767M189.767 72.8537H189.798M189.767 72.8537H189.798M189.798 72.8537H189.829M189.798 72.8537H189.829M189.829 72.8537H189.86M189.829 72.8537H189.86M189.86 72.8537H189.891M189.86 72.8537H189.891M189.891 72.8537H189.922M189.891 72.8537H189.922M189.922 72.8537H189.952M189.922 72.8537H189.952M189.952 72.8537H189.983M189.952 72.8537H189.983M189.983 72.8537H190.014M189.983 72.8537H190.014M190.014 72.8537H190.045M190.014 72.8537H190.045M190.045 72.8537H190.076M190.045 72.8537H190.076M190.076 72.8537H190.107M190.076 72.8537H190.107M190.107 72.8537H190.138M190.107 72.8537H190.138M190.138 72.8537H190.169M190.138 72.8537H190.169M190.169 72.8537H190.2M190.169 72.8537H190.2M190.2 72.8537H190.231M190.2 72.8537H190.231M190.231 72.8537H190.262M190.231 72.8537H190.262M190.262 72.8537H190.293M190.262 72.8537H190.293M190.293 72.8537H190.324M190.293 72.8537H190.324M190.324 72.8537H190.355M190.324 72.8537H190.355M190.355 72.8537H190.386M190.355 72.8537H190.386M190.386 72.8537H190.416M190.386 72.8537H190.416M190.416 72.8537H190.447M190.416 72.8537H190.447M190.447 72.8537H190.478M190.447 72.8537H190.478M190.478 72.8537H190.509M190.478 72.8537H190.509M190.509 72.8537H190.54M190.509 72.8537H190.54M190.54 72.8537H190.571M190.54 72.8537H190.571M190.571 72.8537H190.602M190.571 72.8537H190.602M190.602 72.8537H190.633M190.602 72.8537H190.633M190.633 72.8537H190.664M190.633 72.8537H190.664M190.664 72.8537H190.695M190.664 72.8537H190.695M190.695 72.8537H190.726M190.695 72.8537H190.726M190.726 72.8537H190.757M190.726 72.8537H190.757M190.757 72.8537H190.788M190.757 72.8537H190.788M190.788 72.8537H190.819M190.788 72.8537H190.819M190.819 72.8537H190.849M190.819 72.8537H190.849M190.849 72.8537H190.88M190.849 72.8537H190.88M190.88 72.8537H190.911M190.88 72.8537H190.911M190.911 72.8537H190.942M190.911 72.8537H190.942M190.942 72.8537H190.973M190.942 72.8537H190.973M190.973 72.8537H191.004M190.973 72.8537H191.004M191.004 72.8537H191.035M191.004 72.8537H191.035M191.035 72.8537H191.066M191.035 72.8537H191.066M191.066 72.8537H191.097M191.066 72.8537H191.097M191.097 72.8537H191.128M191.097 72.8537H191.128M191.128 72.8537H191.159M191.128 72.8537H191.159M191.159 72.8537H191.19M191.159 72.8537H191.19M191.19 72.8537H191.22M191.19 72.8537H191.22M191.22 72.8537H191.251M191.22 72.8537H191.251M191.251 72.8537H191.282M191.251 72.8537H191.282M191.282 72.8537H191.313M191.282 72.8537H191.313M191.313 72.8537H191.344M191.313 72.8537H191.344M191.344 72.8537H191.375M191.344 72.8537H191.375M191.375 72.8537H191.406M191.375 72.8537H191.406M191.406 72.8537H191.437M191.406 72.8537H191.437M191.437 72.8537H191.468M191.437 72.8537H191.468M191.468 72.8537H191.499M191.468 72.8537H191.499M191.499 72.8537H191.53M191.499 72.8537H191.53M191.53 72.8537H191.56M191.53 72.8537H191.56M191.56 72.8537H191.591M191.56 72.8537H191.591M191.591 72.8537H191.622M191.591 72.8537H191.622M191.622 72.8537H191.653M191.622 72.8537H191.653M191.653 72.8537H191.684M191.653 72.8537H191.684M191.684 72.8537H191.715M191.684 72.8537H191.715M191.715 72.8537H191.746M191.715 72.8537H191.746M191.746 72.8537H191.777M191.746 72.8537H191.777M191.777 72.8537H191.808M191.777 72.8537H191.808M191.808 72.8537H191.839M191.808 72.8537H191.839M191.839 72.8537H191.869M191.839 72.8537H191.869M191.869 72.8537H191.9M191.869 72.8537H191.9M191.9 72.8537H191.931M191.9 72.8537H191.931M191.931 72.8537H191.962M191.931 72.8537H191.962M191.962 72.8537H191.993M191.962 72.8537H191.993M191.993 72.8537H192.024M191.993 72.8537H192.024M192.024 72.8537H192.055M192.024 72.8537H192.055M192.055 72.8537H192.086M192.055 72.8537H192.086M192.086 72.8537H192.117M192.086 72.8537H192.117M192.117 72.8537H192.147M192.117 72.8537H192.147M192.147 72.8537H192.178M192.147 72.8537H192.178M192.178 72.8537H192.209M192.178 72.8537H192.209M192.209 72.8537H192.24M192.209 72.8537H192.24M192.24 72.8537H192.271M192.24 72.8537H192.271M192.271 72.8537H192.302M192.271 72.8537H192.302M192.302 72.8537H192.333M192.302 72.8537H192.333M192.333 72.8537H192.364M192.333 72.8537H192.364M192.364 72.8537H192.395M192.364 72.8537H192.395M192.395 72.8537H192.425M192.395 72.8537H192.425M192.425 72.8537H192.456M192.425 72.8537H192.456M192.456 72.8537H192.487M192.456 72.8537H192.487M192.487 72.8537H192.518M192.487 72.8537H192.518M192.518 72.8537H192.549M192.518 72.8537H192.549M192.549 72.8537H192.58M192.549 72.8537H192.58M192.58 72.8537H192.611M192.58 72.8537H192.611M192.611 72.8537H192.642M192.611 72.8537H192.642M192.642 72.8537H192.672M192.642 72.8537H192.672M192.672 72.8537H192.703M192.672 72.8537H192.703M192.703 72.8537H192.734M192.703 72.8537H192.734M192.734 72.8537H192.765M192.734 72.8537H192.765M192.765 72.8537H192.796M192.765 72.8537H192.796M192.796 72.8537H192.827M192.796 72.8537H192.827M192.827 72.8537H192.858M192.827 72.8537H192.858M192.858 72.8537H192.889M192.858 72.8537H192.889M192.889 72.8537H192.919M192.889 72.8537H192.919M192.919 72.8537H192.95M192.919 72.8537H192.95M192.95 72.8537H192.981M192.95 72.8537H192.981M192.981 72.8537H193.012M192.981 72.8537H193.012M193.012 72.8537H193.043M193.012 72.8537H193.043M193.043 72.8537H193.074M193.043 72.8537H193.074M193.074 72.8537H193.105M193.074 72.8537H193.105M193.105 72.8537H193.136M193.105 72.8537H193.136M193.136 72.8537H193.166M193.136 72.8537H193.166M193.166 72.8537H193.197M193.166 72.8537H193.197M193.197 72.8537H193.228M193.197 72.8537H193.228M193.228 72.8537H193.259M193.228 72.8537H193.259M193.259 72.8537H193.29M193.259 72.8537H193.29M193.29 72.8537H193.321M193.29 72.8537H193.321M193.321 72.8537H193.352M193.321 72.8537H193.352M193.352 72.8537H193.382M193.352 72.8537H193.382M193.382 72.8537H193.413M193.382 72.8537H193.413M193.413 72.8537H193.444M193.413 72.8537H193.444M193.444 72.8537H193.475M193.444 72.8537H193.475M193.475 72.8537H193.506M193.475 72.8537H193.506M193.506 72.8537H193.537M193.506 72.8537H193.537M193.537 72.8537H193.567M193.537 72.8537H193.567M193.567 72.8537H193.598M193.567 72.8537H193.598M193.598 72.8537H193.629M193.598 72.8537H193.629M193.629 72.8537H193.66M193.629 72.8537H193.66M193.66 72.8537H193.691M193.66 72.8537H193.691M193.691 72.8537H193.722M193.691 72.8537H193.722M193.722 72.8537H193.753M193.722 72.8537H193.753M193.753 72.8537H193.783M193.753 72.8537H193.783M193.783 72.8537H193.814M193.783 72.8537H193.814M193.814 72.8537H193.845M193.814 72.8537H193.845M193.845 72.8537H193.876M193.845 72.8537H193.876M193.876 72.8537H193.907M193.876 72.8537H193.907M193.907 72.8537H193.938M193.907 72.8537H193.938M193.938 72.8537H193.968M193.938 72.8537H193.968M193.968 72.8537H193.999M193.968 72.8537H193.999M193.999 72.8537H194.03M193.999 72.8537H194.03M194.03 72.8537H194.061M194.03 72.8537H194.061M194.061 72.8537H194.092M194.061 72.8537H194.092M194.092 72.8537H194.123M194.092 72.8537H194.123M194.123 72.8537H194.153M194.123 72.8537H194.153M194.153 72.8537H194.184M194.153 72.8537H194.184M194.184 72.8537H194.215M194.184 72.8537H194.215M194.215 72.8537H194.246M194.215 72.8537H194.246M194.246 72.8537H194.277M194.246 72.8537H194.277M194.277 72.8537H194.308M194.277 72.8537H194.308M194.308 72.8537H194.338M194.308 72.8537H194.338M194.338 72.8537H194.369M194.338 72.8537H194.369M194.369 72.8537H194.4M194.369 72.8537H194.4M194.4 72.8537H194.431M194.4 72.8537H194.431M194.431 72.8537H194.462M194.431 72.8537H194.462M194.462 72.8537H194.492M194.462 72.8537H194.492M194.492 72.8537H194.523M194.492 72.8537H194.523M194.523 72.8537H194.554M194.523 72.8537H194.554M194.554 72.8537H194.585M194.554 72.8537H194.585M194.585 72.8537H194.616M194.585 72.8537H194.616M194.616 72.8537H194.646M194.616 72.8537H194.646M194.646 72.8537H194.677M194.646 72.8537H194.677M194.677 72.8537H194.708M194.677 72.8537H194.708M194.708 72.8537H194.739M194.708 72.8537H194.739M194.739 72.8537H194.77M194.739 72.8537H194.77M194.77 72.8537H194.801M194.77 72.8537H194.801M194.801 72.8537H194.831M194.801 72.8537H194.831M194.831 72.8537H194.862M194.831 72.8537H194.862M194.862 72.8537H194.893M194.862 72.8537H194.893M194.893 72.8537H194.924M194.893 72.8537H194.924M194.924 72.8537H194.955M194.924 72.8537H194.955M194.955 72.8537H194.985M194.955 72.8537H194.985M194.985 72.8537H195.016M194.985 72.8537H195.016M195.016 72.8537H195.047M195.016 72.8537H195.047M195.047 72.8537H195.078M195.047 72.8537H195.078M195.078 72.8537H195.109M195.078 72.8537H195.109M195.109 72.8537H195.139M195.109 72.8537H195.139M195.139 72.8537H195.17M195.139 72.8537H195.17M195.17 72.8537H195.201M195.17 72.8537H195.201M195.201 72.8537H195.232M195.201 72.8537H195.232M195.232 72.8537H195.262M195.232 72.8537H195.262M195.262 72.8537H195.293M195.262 72.8537H195.293M195.293 72.8537H195.324M195.293 72.8537H195.324M195.324 72.8537H195.355M195.324 72.8537H195.355M195.355 72.8537H195.386M195.355 72.8537H195.386M195.386 72.8537H195.416M195.386 72.8537H195.416M195.416 72.8537H195.447M195.416 72.8537H195.447M195.447 72.8537H195.478M195.447 72.8537H195.478M195.478 72.8537H195.509M195.478 72.8537H195.509M195.509 72.8537H195.539M195.509 72.8537H195.539M195.539 72.8537H195.57M195.539 72.8537H195.57M195.57 72.8537H195.601M195.57 72.8537H195.601M195.601 72.8537H195.632M195.601 72.8537H195.632M195.632 72.8537H195.663M195.632 72.8537H195.663M195.663 72.8537H195.693M195.663 72.8537H195.693M195.693 72.8537H195.724M195.693 72.8537H195.724M195.724 72.8537H195.755M195.724 72.8537H195.755M195.755 72.8537H195.786M195.755 72.8537H195.786M195.786 72.8537H195.816M195.786 72.8537H195.816M195.816 72.8537H195.847M195.816 72.8537H195.847M195.847 72.8537H195.878M195.847 72.8537H195.878M195.878 72.8537H195.909M195.878 72.8537H195.909M195.909 72.8537H195.939M195.909 72.8537H195.939M195.939 72.8537H195.97M195.939 72.8537H195.97M195.97 72.8537H196.001M195.97 72.8537H196.001M196.001 72.8537H196.032M196.001 72.8537H196.032M196.032 72.8537H196.062M196.032 72.8537H196.062M196.062 72.8537H196.093M196.062 72.8537H196.093M196.093 72.8537H196.124M196.093 72.8537H196.124M196.124 72.8537H196.155M196.124 72.8537H196.155M196.155 72.8537H196.185M196.155 72.8537H196.185M196.185 72.8537H196.216M196.185 72.8537H196.216M196.216 72.8537H196.247M196.216 72.8537H196.247M196.247 72.8537H196.278M196.247 72.8537H196.278M196.278 72.8537H196.308M196.278 72.8537H196.308M196.308 72.8537H196.339M196.308 72.8537H196.339M196.339 72.8537H196.37M196.339 72.8537H196.37M196.37 72.8537H196.401M196.37 72.8537H196.401M196.401 72.8537H196.431M196.401 72.8537H196.431M196.431 72.8537H196.462M196.431 72.8537H196.462M196.462 72.8537H196.493M196.462 72.8537H196.493M196.493 72.8537H196.524M196.493 72.8537H196.524M196.524 72.8537H196.554M196.524 72.8537H196.554M196.554 72.8537H196.585M196.554 72.8537H196.585M196.585 72.8537H196.616M196.585 72.8537H196.616M196.616 72.8537H196.647M196.616 72.8537H196.647M196.647 72.8537H196.677M196.647 72.8537H196.677M196.677 72.8537H196.708M196.677 72.8537H196.708M196.708 72.8537H196.739M196.708 72.8537H196.739M196.739 72.8537H196.769M196.739 72.8537H196.769M196.769 72.8537H196.8M196.769 72.8537H196.8M196.8 72.8537H196.831M196.8 72.8537H196.831M196.831 72.8537H196.862M196.831 72.8537H196.862M196.862 72.8537H196.892M196.862 72.8537H196.892M196.892 72.8537H196.923M196.892 72.8537H196.923M196.923 72.8537H196.954M196.923 72.8537H196.954M196.954 72.8537H196.984M196.954 72.8537H196.984M196.984 72.8537H197.015M196.984 72.8537H197.015M197.015 72.8537H197.046M197.015 72.8537H197.046M197.046 72.8537H197.077M197.046 72.8537H197.077M197.077 72.8537H197.107M197.077 72.8537H197.107M197.107 72.8537H197.138M197.107 72.8537H197.138M197.138 72.8537H197.169M197.138 72.8537H197.169M197.169 72.8537H197.199M197.169 72.8537H197.199M197.199 72.8537H197.23M197.199 72.8537H197.23M197.23 72.8537H197.261M197.23 72.8537H197.261M197.261 72.8537H197.291M197.261 72.8537H197.291M197.291 72.8537H197.322M197.291 72.8537H197.322M197.322 72.8537H197.353M197.322 72.8537H197.353M197.353 72.8537H197.384M197.353 72.8537H197.384M197.384 72.8537H197.414M197.384 72.8537H197.414M197.414 72.8537H197.445M197.414 72.8537H197.445M197.445 72.8537H197.476M197.445 72.8537H197.476M197.476 72.8537H197.506M197.476 72.8537H197.506M197.506 72.8537H197.537M197.506 72.8537H197.537M197.537 72.8537H197.568M197.537 72.8537H197.568M197.568 72.8537H197.598M197.568 72.8537H197.598M197.598 72.8537H197.629M197.598 72.8537H197.629M197.629 72.8537H197.66M197.629 72.8537H197.66M197.66 72.8537H197.69M197.66 72.8537H197.69M197.69 72.8537H197.721M197.69 72.8537H197.721M197.721 72.8537H197.752M197.721 72.8537H197.752M197.752 72.8537H197.782M197.752 72.8537H197.782M197.782 72.8537H197.813M197.782 72.8537H197.813M197.813 72.8537H197.844M197.813 72.8537H197.844M197.844 72.8537H197.874M197.844 72.8537H197.874M197.874 72.8537H197.905M197.874 72.8537H197.905M197.905 72.8537H197.936M197.905 72.8537H197.936M197.936 72.8537H197.966M197.936 72.8537H197.966M197.966 72.8537H197.997M197.966 72.8537H197.997M197.997 72.8537H198.028M197.997 72.8537H198.028M198.028 72.8537H198.058M198.028 72.8537H198.058M198.058 72.8537H198.089M198.058 72.8537H198.089M198.089 72.8537H198.12M198.089 72.8537H198.12M198.12 72.8537H198.15M198.12 72.8537H198.15M198.15 72.8537H198.181M198.15 72.8537H198.181M198.181 72.8537H198.212M198.181 72.8537H198.212M198.212 72.8537H198.242M198.212 72.8537H198.242M198.242 72.8537H198.273M198.242 72.8537H198.273M198.273 72.8537H198.304M198.273 72.8537H198.304M198.304 72.8537H198.334M198.304 72.8537H198.334M198.334 72.8537H198.365M198.334 72.8537H198.365M198.365 72.8537H198.396M198.365 72.8537H198.396M198.396 72.8537H198.426M198.396 72.8537H198.426M198.426 72.8537H198.457M198.426 72.8537H198.457M198.457 72.8537H198.488M198.457 72.8537H198.488M198.488 72.8537H198.518M198.488 72.8537H198.518M198.518 72.8537H198.549M198.518 72.8537H198.549M198.549 72.8537H198.579M198.549 72.8537H198.579M198.579 72.8537H198.61M198.579 72.8537H198.61M198.61 72.8537H198.641M198.61 72.8537H198.641M198.641 72.8537H198.671M198.641 72.8537H198.671M198.671 72.8537H198.702M198.671 72.8537H198.702M198.702 72.8537H198.733M198.702 72.8537H198.733M198.733 72.8537H198.763M198.733 72.8537H198.763M198.763 72.8537H198.794M198.763 72.8537H198.794M198.794 72.8537H198.824M198.794 72.8537H198.824M198.824 72.8537H198.855M198.824 72.8537H198.855M198.855 72.8537H198.886M198.855 72.8537H198.886M198.886 72.8537H198.916M198.886 72.8537H198.916M198.916 72.8537H198.947M198.916 72.8537H198.947M198.947 72.8537H198.977M198.947 72.8537H198.977M198.977 72.8537H199.008M198.977 72.8537H199.008M199.008 72.8537H199.039M199.008 72.8537H199.039M199.039 72.8537H199.069M199.039 72.8537H199.069M199.069 72.8537H199.1M199.069 72.8537H199.1M199.1 72.8537H199.13M199.1 72.8537H199.13M199.13 72.8537H199.161M199.13 72.8537H199.161M199.161 72.8537H199.192M199.161 72.8537H199.192M199.192 72.8537H199.222M199.192 72.8537H199.222M199.222 72.8537H199.253M199.222 72.8537H199.253M199.253 72.8537H199.283M199.253 72.8537H199.283M199.283 72.8537H199.314M199.283 72.8537H199.314M199.314 72.8537H199.345M199.314 72.8537H199.345M199.345 72.8537H199.375M199.345 72.8537H199.375M199.375 72.8537H199.406M199.375 72.8537H199.406M199.406 72.8537H199.436M199.406 72.8537H199.436M199.436 72.8537H199.467M199.436 72.8537H199.467M199.467 72.8537H199.498M199.467 72.8537H199.498M199.498 72.8537H199.528M199.498 72.8537H199.528M199.528 72.8537H199.559M199.528 72.8537H199.559M199.559 72.8537H199.589M199.559 72.8537H199.589M199.589 72.8537H199.62M199.589 72.8537H199.62M199.62 72.8537H199.65M199.62 72.8537H199.65M199.65 72.8537H199.681M199.65 72.8537H199.681M199.681 72.8537H199.712M199.681 72.8537H199.712M199.712 72.8537H199.742M199.712 72.8537H199.742M199.742 72.8537H199.773M199.742 72.8537H199.773M199.773 72.8537H199.803M199.773 72.8537H199.803M199.803 72.8537H199.834M199.803 72.8537H199.834M199.834 72.8537H199.864M199.834 72.8537H199.864M199.864 72.8537H199.895M199.864 72.8537H199.895M199.895 72.8537H199.926M199.895 72.8537H199.926M199.926 72.8537H199.956M199.926 72.8537H199.956M199.956 72.8537H199.987M199.956 72.8537H199.987M199.987 72.8537H200.017M199.987 72.8537H200.017M200.017 72.8537H200.048M200.017 72.8537H200.048M200.048 72.8537H200.078M200.048 72.8537H200.078M200.078 72.8537H200.109M200.078 72.8537H200.109M200.109 72.8537H200.139M200.109 72.8537H200.139M200.139 72.8537H200.17M200.139 72.8537H200.17M200.17 72.8537H200.2M200.17 72.8537H200.2M200.2 72.8537H200.231M200.2 72.8537H200.231M200.231 72.8537H200.261M200.231 72.8537H200.261M200.261 72.8537H200.292M200.261 72.8537H200.292M200.292 72.8537H200.323M200.292 72.8537H200.323M200.323 72.8537H200.353M200.323 72.8537H200.353M200.353 72.8537H200.384M200.353 72.8537H200.384M200.384 72.8537H200.414M200.384 72.8537H200.414M200.414 72.8537H200.445M200.414 72.8537H200.445M200.445 72.8537H200.475M200.445 72.8537H200.475M200.475 72.8537H200.506M200.475 72.8537H200.506M200.506 72.8537H200.536M200.506 72.8537H200.536M200.536 72.8537H200.567M200.536 72.8537H200.567M200.567 72.8537H200.597M200.567 72.8537H200.597M200.597 72.8537H200.628M200.597 72.8537H200.628M200.628 72.8537H200.658M200.628 72.8537H200.658M200.658 72.8537H200.689M200.658 72.8537H200.689M200.689 72.8537H200.719M200.689 72.8537H200.719M200.719 72.8537H200.75M200.719 72.8537H200.75M200.75 72.8537H200.78M200.75 72.8537H200.78M200.78 72.8537H200.811M200.78 72.8537H200.811M200.811 72.8537H200.841M200.811 72.8537H200.841M200.841 72.8537H200.872M200.841 72.8537H200.872M200.872 72.8537H200.902M200.872 72.8537H200.902M200.902 72.8537H200.933M200.902 72.8537H200.933M200.933 72.8537H200.963M200.933 72.8537H200.963M200.963 72.8537H200.994M200.963 72.8537H200.994M200.994 72.8537H201.024M200.994 72.8537H201.024M201.024 72.8537H201.055M201.024 72.8537H201.055M201.055 72.8537H201.085M201.055 72.8537H201.085M201.085 72.8537H201.116M201.085 72.8537H201.116M201.116 72.8537H201.146M201.116 72.8537H201.146M201.146 72.8537H201.177M201.146 72.8537H201.177M201.177 72.8537H201.207M201.177 72.8537H201.207M201.207 72.8537H201.238M201.207 72.8537H201.238M201.238 72.8537H201.268M201.238 72.8537H201.268M201.268 72.8537H201.299M201.268 72.8537H201.299M201.299 72.8537H201.329M201.299 72.8537H201.329M201.329 72.8537H201.359M201.329 72.8537H201.359M201.359 72.8537H201.39M201.359 72.8537H201.39M201.39 72.8537H201.42M201.39 72.8537H201.42M201.42 72.8537C201.522 72.8537 201.643 72.8561 201.773 72.8587L201.42 72.8537ZM243.214 74.3803L243.214 74.3809C243.302 146.015 243.302 217.737 243.214 289.371V289.372C243.214 294.33 241.642 298.478 238.872 301.526C236.102 304.573 232.102 306.552 227.184 307.114C225.44 307.288 223.695 307.375 221.95 307.375H221.767H221.584H221.401H221.217H221.034H220.851H220.667H220.484H220.301H220.118H219.934H219.751H219.568H219.385H219.201H219.018H218.835H218.652H218.468H218.285H218.102H217.919H217.735H217.552H217.369H217.186H217.003H216.819H216.636H216.453H216.27H216.086H215.903H215.72H215.537H215.354H215.17H214.987H214.804H214.621H214.438H214.254H214.071H213.888H213.705H213.522H213.338H213.155H212.972H212.789H212.606H212.422H212.239H212.056H211.873H211.69H211.507H211.323H211.14H210.957H210.774H210.591H210.407H210.224H210.041H209.858H209.675H209.492H209.309H209.125H208.942H208.759H208.576H208.393H208.21H208.026H207.843H207.66H207.477H207.294H207.111H206.928H206.744H206.561H206.378H206.195H206.012H205.829H205.646H205.463H205.279H205.096H204.913H204.73H204.547H204.364H204.181H203.998H203.814H203.631H203.448H203.265H203.082H202.899H202.716H202.533H202.349H202.166H201.983H201.8H201.617H201.434H201.251H201.068H200.885H200.702H200.518H200.335H200.152H199.969H199.786H199.603H199.42H199.237H199.054H198.871H198.688H198.504H198.321H198.138H197.955H197.772H197.589H197.406H197.223H197.04H196.857H196.674H196.491H196.308H196.124H195.941H195.758H195.575H195.392H195.209H195.026H194.843H194.66H194.477H194.294H194.111H193.928H193.745H193.562H193.378H193.195H193.012H192.829H192.646H192.463H192.28H192.097H191.914H191.731H191.548H191.365H191.182H190.999H190.816H190.633H190.45H190.267H190.084H189.9H189.717H189.534H189.351H189.168H188.985H188.802H188.619H188.436H188.253H188.07H187.887H187.704H187.521H187.338H187.155H186.972H186.789H186.606H186.423H186.24H186.057H185.874H185.691H185.508H185.324H185.141H184.958H184.775H184.592H184.409H184.226H184.043H183.86H183.677H183.494H183.311H183.128H182.945H182.762H182.579H182.396H182.213H182.03H181.847H181.664H181.481H181.298H181.115H180.932H180.749H180.566H180.383H180.2H180.017H179.834H179.651H179.468H179.285H179.102H178.919H178.736H178.552H178.369H178.186H178.003H177.82H177.637H177.454H177.271H177.088H176.905H176.722H176.539H176.356H176.173H175.99H175.807H175.624H175.441H175.258H175.075H174.892H174.709H174.526H174.343H174.16H173.977H173.794H173.611H173.428H173.245H173.062H172.879H172.696H172.513H172.33H172.147H171.964H171.781H171.598H171.415H171.232H171.049H170.866H170.683H170.5H170.317H170.134H169.95H169.767H169.584H169.401H169.218H169.035H168.852H168.669H168.486H168.303H168.12H167.937H167.754H167.571H167.388H167.205H167.022H166.839H166.656H166.473H166.29H166.107H165.924H165.741H165.558H165.375H165.192H165.009H164.826H164.643H164.46H164.277H164.094H163.911H163.728H163.544H163.361H163.178H162.995H162.812H162.629H162.446H162.263H162.08H161.897H161.714H161.531H161.348H161.165H160.982H160.799H160.616H160.433H160.25H160.067H159.884H159.701H159.518H159.334H159.151H158.968H158.785H158.602H158.419H158.236H158.053H157.87H157.687H157.504H157.321H157.138H156.955H156.772H156.589H156.406H156.223H156.039H155.856H155.673H155.49H155.307H155.124H154.941H154.758H154.575H154.392H154.209H154.026H153.843H153.66H153.477H153.293H153.11H152.927H152.744H152.561H152.378H152.195H152.012H151.829H151.646H151.463H151.28H151.096H150.913H150.73H150.547H150.364H150.181H149.998H149.815H149.632H149.449H149.266H149.082H148.899H148.716H148.533H148.35H148.167H147.984H147.801H147.618H147.434H147.251H147.068H146.885H146.702H146.519H146.336H146.153H145.97H145.786H145.603H145.42H145.237H145.054H144.871H144.688H144.505H144.321H144.138H143.955H143.772H143.589H143.406H143.223H143.039H142.856H142.673H142.49H142.307H142.124H141.941H141.757H141.574H141.391H141.208H141.025H140.842H140.659H140.475H140.292H140.109H139.926H139.743H139.56H139.376H139.193H139.01H138.827H138.644H138.46H138.277H138.094H137.911H137.728H137.545H137.361H137.178H136.995H136.812H136.629H136.445H136.262H136.079H135.896H135.713H135.529H135.346H135.163H134.98H134.797H134.613H134.43H134.247H134.064H133.881H133.697H133.514H133.331H133.148H132.964H132.781H132.598H132.415H132.231H132.048H131.865H131.682H131.499H131.315H131.132H130.949H130.766H130.582H130.399H130.216H130.033H129.849H129.666H129.483H129.299H129.116H128.933H128.75H128.566H128.383H128.2C120.727 307.375 115.466 305.735 112.066 302.334C108.665 298.934 107.025 293.673 107.024 286.201C107.113 251.485 107.113 216.681 107.113 181.878V181.876V181.668V181.46V181.252V181.044V180.836V180.628V180.42V180.212V180.004V179.795V179.587V179.379V179.171V178.963V178.755V178.547V178.339V178.131V177.923V177.715V177.506V177.298V177.09V176.882V176.674V176.466V176.258V176.05V175.842V175.634V175.425V175.217V175.009V174.801V174.593V174.385V174.177V173.969V173.76V173.552V173.344V173.136V172.928V172.72V172.512V172.303V172.095V171.887V171.679V171.471V171.263V171.055V170.846V170.638V170.43V170.222V170.014V169.806V169.597V169.389V169.181V168.973V168.765V168.557V168.348V168.14V167.932V167.724V167.516V167.307V167.099V166.891V166.683V166.475V166.267V166.058V165.85V165.642V165.434V165.226V165.017V164.809V164.601V164.393V164.185V163.976V163.768V163.56V163.352V163.144V162.935V162.727V162.519V162.311V162.103V161.894V161.686V161.478V161.27V161.061V160.853V160.645V160.437V160.229V160.02V159.812V159.604V159.396V159.187V158.979V158.771V158.563V158.354V158.146V157.938V157.73V157.521V157.313V157.105V156.897V156.688V156.48V156.272V156.064V155.855V155.647V155.439V155.231V155.022V154.814V154.606V154.398V154.189V153.981V153.773V153.565V153.356V153.148V152.94V152.732V152.523V152.315V152.107V151.899V151.69V151.482V151.274V151.065V150.857V150.649V150.441V150.232V150.024V149.816V149.608V149.399V149.191V148.983V148.774V148.566V148.358V148.15V147.941V147.733V147.525V147.316V147.108V146.9V146.692V146.483V146.275V146.067V145.858V145.65V145.442V145.234V145.025V144.817V144.609V144.4V144.192V143.984V143.775V143.567V143.359V143.151V142.942V142.734V142.526V142.317V142.109V141.901V141.692V141.484V141.276V141.068V140.859V140.651V140.443V140.234V140.026V139.818V139.609V139.401V139.193V138.985V138.776V138.568V138.36V138.151V137.943V137.735V137.526V137.318V137.11V136.901V136.693V136.485V136.276V136.068V135.86V135.652V135.443V135.235V135.027V134.818V134.61V134.402V134.193V133.985V133.777V133.568V133.36V133.152V132.943V132.735V132.527V132.318V132.11V131.902V131.694V131.485V131.277V131.069V130.86V130.652V130.444V130.235V130.027V129.819V129.61V129.402V129.194V128.985V128.777V128.569V128.36V128.152V127.944V127.735V127.527V127.319V127.111V126.902V126.694V126.486V126.277V126.069V125.861V125.652V125.444V125.236V125.027V124.819V124.611V124.402V124.194V123.986V123.777V123.569V123.361V123.153V122.944V122.736V122.528V122.319V122.111V121.903V121.694V121.486V121.278V121.069V120.861V120.653V120.444V120.236V120.028V119.82V119.611V119.403V119.195V118.986V118.778V118.57V118.361V118.153V117.945V117.736V117.528V117.32V117.111V116.903V116.695V116.487V116.278V116.07V115.862V115.653V115.445V115.237V115.028V114.82V114.612V114.404V114.195V113.987V113.779V113.57V113.362V113.154V112.945V112.737V112.529V112.321V112.112V111.904V111.696V111.487V111.279V111.071V110.863V110.654V110.446V110.238V110.029V109.821V109.613V109.405V109.196V108.988V108.78V108.571V108.363V108.155V107.947V107.738V107.53V107.322V107.113V106.905V106.697V106.489V106.28V106.072V105.864V105.656V105.447V105.239V105.031V104.822V104.614V104.406V104.198V103.989V103.781V103.573V103.365V103.156V102.948V102.74V102.532V102.323V102.115V101.907V101.699V101.49V101.282V101.074V100.866V100.657V100.449V100.241V100.033V99.8243V99.6161V99.4078V99.1996V98.9914V98.7831V98.5749V98.3667V98.1584V97.9502V97.742V97.5337V97.3255V97.1173V96.909V96.7008V96.4926V96.2844V96.0761V95.8679V95.6597V95.4515V95.2433V95.035V94.8268V94.6186V94.4104V94.2022V93.994V93.7858V93.5776V93.3694V93.1611V92.9529V92.7447V92.5365V92.3283V92.1201V91.9119V91.7038V91.4956V91.2874V91.0792V90.871V90.6628V90.4546V90.2464V90.0382V89.8301V89.6219V89.4137V89.2055V88.9973V88.7892V88.581V88.3728V88.1646V87.9565V87.7483V87.5401V87.332V87.1238V86.9157V86.7075V86.4993V86.2912V86.083V85.8749V85.6667V85.4586V85.2504V85.0423V84.8341V84.626V84.4178V84.2097V84.0016V83.7934V83.5853V83.3772V83.169V82.9609V82.7528V82.5446V82.3365V82.1284V81.9203V81.7122V81.504V81.2959V81.0878V80.8797V80.6716V80.4635V80.2554V80.0473V79.8392V79.6311V79.423V79.2149V79.0068V78.7987V78.5906V78.3825V78.1744V77.9663V77.7582V77.5501V77.3421V77.134V76.9259V76.7178V76.5098V76.3017V76.0936V75.8856V75.6775V75.4694V75.2614C107.113 70.4043 108.24 66.4121 110.373 63.3081C112.504 60.208 115.664 57.9554 119.803 56.6183C121.746 56.0276 123.61 56.0244 125.645 56.0244H125.838H126.032H126.225H126.419H126.613H126.806H127H127.193H127.387H127.581H127.774H127.968H128.161H128.355H128.548H128.742H128.936H129.129H129.323H129.516H129.71H129.903H130.097H130.291H130.484H130.678H130.871H131.065H131.258H131.452H131.645H131.839H132.032H132.226H132.42H132.613H132.807H133H133.194H133.387H133.581H133.774H133.968H134.161H134.355H134.548H134.742H134.935H135.129H135.322H135.516H135.709H135.903H136.096H136.29H136.483H136.677H136.87H137.064H137.257H137.451H137.644H137.838H138.031H138.225H138.418H138.612H138.805H138.999H139.192H139.386H139.579H139.773H139.966H140.16H140.353H140.547H140.74H140.934H141.127H141.321H141.514H141.708H141.901H142.094H142.288H142.481H142.675H142.868H143.062H143.255H143.449H143.642H143.836H144.029H144.222H144.416H144.609H144.803H144.996H145.19H145.383H145.577H145.77H145.963H146.157H146.35H146.544H146.737H146.931H147.124H147.317H147.511H147.704H147.898H148.091H148.285H148.478H148.671H148.865H149.058H149.252H149.445H149.639H149.832H150.025H150.219H150.412H150.606H150.799H150.992H151.186H151.379H151.573H151.766H151.959H152.153H152.346H152.54H152.733H152.926H153.12H153.313H153.507H153.7H153.893H154.087H154.28H154.474H154.667H154.86H155.054H155.247H155.441H155.634H155.827H156.021H156.214H156.407H156.601H156.794H156.988H157.181H157.374H157.568H157.761H157.954H158.148H158.341H158.535H158.728H158.921H159.115H159.308H159.501H159.695H159.888H160.082H160.275H160.468H160.662H160.855H161.048H161.242H161.435H161.629H161.822H162.015H162.209H162.402H162.595H162.789H162.982H163.175H163.369H163.562H163.756H163.949H164.142H164.336H164.529H164.722H164.916H165.109H165.302H165.496H165.689H165.882H166.076H166.269H166.463H166.656H166.849H167.043H167.236H167.429H167.623H167.816H168.009H168.203H168.396H168.589H168.783H168.976H169.169H169.363H169.556H169.749H169.943H170.136H170.33H170.523H170.716H170.91H171.103H171.296H171.49H171.683H171.876H172.07H172.263H172.456H172.65H172.843H173.036H173.23H173.423H173.616H173.81H174.003H174.196H174.39H174.583H174.777H174.97H175.163H175.357H175.55H175.743H175.937H176.13H176.323H176.517H176.71H176.903H177.097H177.29H177.483H177.677H177.87H178.063H178.257H178.45H178.643H178.837H179.03H179.223H179.417H179.61H179.804H179.997H180.19H180.384H180.577H180.77H180.964H181.157H181.35H181.544H181.737H181.93H182.124H182.317H182.51H182.704H182.897H183.09H183.284H183.477H183.671H183.864H184.057H184.251H184.444H184.637H184.831H185.024H185.217H185.411H185.604H185.797H185.991H186.184H186.378H186.571H186.764H186.958H187.151H187.344H187.538H187.731H187.924H188.118H188.311H188.505H188.698H188.891H189.085H189.278H189.471H189.665H189.858H190.051H190.245H190.438H190.632H190.825H191.018H191.212H191.405H191.598H191.792H191.985H192.179H192.372H192.565H192.759H192.952H193.145H193.339H193.532H193.726H193.919H194.112H194.306H194.499H194.693H194.886H195.079H195.273H195.466H195.659H195.853H196.046H196.24H196.433H196.626H196.82H197.013H197.207H197.4H197.593H197.787H197.98H198.174H198.367H198.56H198.754H198.947H199.141H199.334H199.527H199.721H199.914H200.108H200.301H200.494H200.688H200.881H201.075H201.268H201.462H201.655H201.848H202.042H202.235H202.429H202.622H202.816H203.009H203.202H203.396H203.589H203.783H203.976H204.17H204.363H204.556H204.75H204.943H205.137H205.33H205.524H205.717H205.911H206.104H206.297H206.491H206.684H206.878H207.071H207.265H207.458H207.652H207.845H208.038H208.232H208.425H208.619H208.812H209.006H209.199H209.393H209.586H209.78H209.973H210.167H210.36H210.554H210.747H210.941H211.134H211.328H211.521H211.714H211.908H212.101H212.295H212.488H212.682H212.875H213.069H213.262H213.456H213.649H213.843H214.036H214.23H214.423H214.617H214.81H215.004H215.197H215.391H215.585H215.778H215.972H216.165H216.359H216.552H216.746H216.939H217.133H217.326H217.52H217.713H217.907H218.1H218.294H218.487H218.681H218.875H219.068H219.262H219.455H219.649H219.842H220.036H220.229H220.423H220.617H220.81H221.004H221.197H221.391H221.584H221.778H221.972H222.165H222.359H222.552H222.746H222.939H223.133H223.327H223.52H223.714H223.907H224.101H224.295H224.488H224.682C230.346 56.0244 234.97 57.8169 238.175 60.9798C241.38 64.1418 243.214 68.7195 243.214 74.3803ZM232.671 91.5651V91.562C232.671 89.5894 232.486 88.0225 231.594 86.9754C230.681 85.9045 229.157 85.511 226.885 85.511L226.882 85.511C192.432 85.6872 157.894 85.6872 123.444 85.511H123.442C121.176 85.511 119.649 85.8799 118.735 86.94C117.84 87.9777 117.655 89.5484 117.655 91.562L117.655 91.5627C117.743 149.099 117.743 206.547 117.655 264.083V264.084C117.655 266.257 117.979 267.795 118.99 268.753C119.993 269.705 121.545 269.959 123.618 269.959L123.621 269.959C157.982 269.783 192.344 269.783 226.618 269.959H226.62C228.695 269.959 230.264 269.704 231.288 268.758C232.323 267.801 232.671 266.264 232.671 264.084L232.671 264.081C232.539 242.406 232.556 220.781 232.572 199.166C232.578 191.963 232.583 184.761 232.583 177.559C232.583 170.402 232.578 163.24 232.572 156.075C232.556 134.571 232.539 113.043 232.671 91.5651ZM204.74 70.5697L204.739 70.5621L204.24 70.5915L204.74 70.5697ZM150.918 65.8675L150.85 65.8575L150.782 65.866L150.844 66.3621L150.918 65.8675ZM151.052 75.5842L151.056 75.5839L151.021 75.0851L151.052 75.5842Z" fill="#FAFAFC" stroke="#181B5E"/>
    <path d="M232.083 177.559C232.083 206.371 231.995 235.184 232.171 263.996C232.171 268.313 230.85 269.371 226.62 269.371C192.257 269.195 157.894 269.195 123.618 269.371C119.389 269.371 118.155 268.313 118.155 263.996C118.331 206.459 118.243 149.011 118.155 91.4739C118.155 87.5089 118.948 85.9229 123.442 85.9229C157.894 86.0991 192.433 86.0991 226.885 85.9229C231.378 85.9229 232.171 87.5089 232.171 91.4739C231.995 120.198 232.083 148.923 232.083 177.559Z" fill="#0A0977"/>
    <path d="M223.989 265.259L223.98 265.258C191.466 265.082 158.864 265.082 126.261 265.258C124.378 265.258 123.433 264.964 122.917 264.406C122.391 263.837 122.18 262.858 122.18 261.09C122.312 240.269 122.295 219.399 122.279 198.555C122.273 191.611 122.268 184.67 122.268 177.735C122.268 170.753 122.273 163.771 122.279 156.789C122.295 135.84 122.312 114.89 122.18 93.9396C122.18 92.2235 122.411 91.3126 122.909 90.7974C123.402 90.2874 124.286 90.0358 125.996 90.0356C158.686 90.1238 191.376 90.1238 224.154 90.0356C225.911 90.0357 226.817 90.288 227.321 90.8004C227.827 91.3151 228.059 92.2237 228.059 93.9412C227.971 149.716 227.971 205.402 228.059 261.089C228.059 262.858 227.848 263.861 227.319 264.442C226.806 265.005 225.865 265.302 223.989 265.259Z" fill="#F9F9F9" stroke="#181B5E"/>
    <path d="M186.97 288.755C186.882 295.364 181.419 300.65 174.811 300.474C168.379 300.298 163.268 294.923 163.357 288.491C163.445 281.882 168.908 276.508 175.516 276.772C181.948 276.948 187.059 282.323 186.97 288.755ZM175.34 280.385C170.846 280.297 166.881 284.085 166.793 288.579C166.705 292.985 170.67 296.95 175.164 296.95C179.481 296.95 183.27 293.337 183.446 288.931C183.622 284.438 179.833 280.473 175.34 280.385Z" fill="#0A0977"/>
    <path d="M185.648 72.3538C180.538 72.3538 175.428 72.3538 170.317 72.3538C169.083 72.3538 167.409 72.4419 167.497 70.5916C167.586 69.2699 168.907 68.8293 170.141 68.8293C180.714 68.8293 191.199 68.8293 201.773 68.8293C203.006 68.8293 204.24 69.0937 204.328 70.5916C204.416 72.6181 202.742 72.3538 201.508 72.3538C196.134 72.4419 190.847 72.3538 185.648 72.3538Z" fill="#17167E"/>
    <path d="M150.845 66.3621C153.312 66.7145 155.074 67.9481 155.074 70.8557C155.074 73.4991 153.576 74.997 151.021 75.0851C148.289 75.2613 146.527 73.6753 146.351 70.9439C146.263 68.2124 148.025 66.7145 150.845 66.3621Z" fill="#0A0977"/>
    <path d="M175.339 280.385C179.833 280.473 183.622 284.526 183.446 288.931C183.269 293.249 179.569 296.95 175.163 296.95C170.669 296.95 166.792 292.985 166.792 288.579C166.881 284.085 170.934 280.208 175.339 280.385Z" fill="#FAFAFC"/>
    <rect x="129" y="117" width="93" height="29" rx="4" fill="white" stroke="#181B5E" stroke-width="4"/>
    <circle cx="244.088" cy="66.5" r="39.5" fill="white" stroke="#181B5E" stroke-width="4"/>
    <path d="M227.012 62.0015C227.012 57.3382 228.865 52.8659 232.162 49.5684C235.46 46.271 239.932 44.4185 244.595 44.4185C249.258 44.4185 253.731 46.271 257.028 49.5684C260.326 52.8659 262.178 57.3382 262.178 62.0015V76.2877C262.178 77.1621 262.526 78.0006 263.144 78.6189C263.762 79.2372 264.601 79.5845 265.475 79.5845H223.715C224.59 79.5845 225.428 79.2372 226.047 78.6189C226.665 78.0006 227.012 77.1621 227.012 76.2877V62.0015Z" fill="white" stroke="#181B5E" stroke-width="4" stroke-linecap="round" stroke-linejoin="round"/>
    <path d="M244.595 37.8271V44.4208Z" fill="white"/>
    <path d="M244.595 37.8271V44.4208" stroke="#181B5E" stroke-width="4" stroke-linecap="round" stroke-linejoin="round"/>
    <path d="M249.98 83.9802C249.728 85.2223 249.054 86.3391 248.073 87.1412C247.091 87.9433 245.863 88.3815 244.595 88.3815C243.328 88.3815 242.099 87.9433 241.118 87.1412C240.137 86.3391 239.463 85.2223 239.21 83.9802" fill="white"/>
    <path d="M249.98 83.9802C249.728 85.2223 249.054 86.3391 248.073 87.1412C247.091 87.9433 245.863 88.3815 244.595 88.3815C243.328 88.3815 242.099 87.9433 241.118 87.1412C240.137 86.3391 239.463 85.2223 239.21 83.9802" stroke="#181B5E" stroke-width="4" stroke-linecap="round" stroke-linejoin="round"/>
    <path d="M250.09 52.0432C251.74 52.8618 253.128 54.125 254.099 55.6903C255.07 57.2556 255.584 59.0609 255.585 60.9029" fill="white"/>
    <path d="M250.09 52.0432C251.74 52.8618 253.128 54.125 254.099 55.6903C255.07 57.2556 255.584 59.0609 255.585 60.9029" stroke="#181B5E" stroke-width="4" stroke-linecap="round" stroke-linejoin="round"/>
</svg>
