<svg width="828" height="545" viewBox="0 0 828 545" fill="none" xmlns="http://www.w3.org/2000/svg">
<path d="M105.676 613.261C124.293 627.534 142.89 641.808 161.311 656.458C142.944 649.858 124.435 643.192 107.56 632.227C90.6844 621.27 16.1072 575.64 7.5 554.955C-1.1004 534.269 -2.04922 508.17 8.03541 488.484C22.3016 460.633 56.5135 446.916 80.783 463.098C90.8676 469.813 100.586 480.835 111.979 478.764C134.717 474.612 150.576 446.785 172.06 437.327C195.265 427.115 221.148 425.649 244.99 433.617C254.567 436.819 322.845 477.592 323.99 454.507C284.529 419.761 342.156 418.928 342 412C399.5 412 416.828 433.847 432.979 417.698C446.418 404.259 449.529 381.977 461.999 367.229C476.713 349.827 495.682 338.591 511.955 323.573C531.568 305.458 577.212 270.311 567.5 239.021C563.135 224.96 553.478 211.759 555.999 197.052C557.483 188.363 562.993 181.624 568.245 175.433C582.789 158.268 571.371 144.65 585.915 127.486C589.223 123.588 593.215 119.387 597.803 120.075C603.096 120.869 606.268 128.141 606.01 134.577C605.753 141.014 603.096 146.886 601.049 152.839C591.337 181.075 595.309 215.837 612.022 239.021C622.14 253.057 636.84 264.153 640.127 282.341C643.584 301.454 635.119 327.88 649.46 336.954C656.915 341.67 666.294 337.461 674.292 340.622C690.53 347.051 689.33 374.959 696.914 393.466C706.917 417.878 732.427 424.724 751.404 439.431C771.905 455.318 785.27 481.319 802.403 502.233C824.409 529.102 853.206 547.732 883.914 554.955C897.075 558.05 913.768 557.1 919.894 542.696C926.319 527.595 916.702 506.41 925.662 493.324C935.93 478.338 955.265 491.383 969.253 501.013C990.582 515.704 1015.5 520.233 1039.69 525.359C1063.87 530.486 1088.79 536.898 1108.57 554.463C1128.36 572.037 1141.59 603.802 1133.67 631.883C1124.81 663.32 1094.8 677.504 1067.71 683.171C966.84 704.274 865.107 662.174 763.196 650.447C659.016 638.467 554.991 658.35 451.359 668.897C344.481 679.78 241.188 667.661 134.967 653.281" fill="#EFF0FC"/>
<path opacity="0.27" d="M548.778 362.192C548.588 373.148 549.794 384.22 548.134 394.995C546.474 405.762 541.066 416.661 532.365 419.62C520.106 423.787 504.689 411.647 495.358 422.143C488.243 430.149 417.376 436.642 413.5 447.434C405.632 469.346 375.978 464.045 364.099 483.113C359.884 489.878 385.348 504.348 379.5 509C298.448 506.592 336.071 505.379 327.871 502.831C294.564 492.491 260.403 513.048 231.264 535.19C211.761 550.017 192.786 565.856 174.408 582.664C170.546 586.198 166.527 590.061 164.86 595.568C162.21 604.289 170.5 635 245.098 629.111C267.488 662.966 313.583 628.1 349.289 630.911C411.125 635.768 457.409 622.536 519.347 620.136C562.995 618.442 602.781 628.19 645.731 618.599C686.133 609.574 735.602 624.615 776.682 624.171C795.554 623.966 815.938 628.273 832.148 616.552C834.323 614.982 836.424 613.067 837.691 610.412C841.344 602.76 836.695 593.3 831.789 586.774C812.232 560.785 749.494 570.319 732.715 541.609C687.949 465.006 667.07 468.31 617.472 447.434C611.028 444.721 604.299 441.984 599.46 436.157C594.622 430.329 592.385 420.376 596.404 413.694C600.124 407.513 607.531 406.313 611.841 400.716C620.962 388.855 610.228 370.231 610.303 354.014C610.336 347.332 612.322 340.904 613.095 334.296C615.615 312.762 597.664 279.449 577.416 287.126C557.838 294.523 549.137 341.735 548.778 362.192Z" fill="#889ED8"/>
<path d="M560.837 217.07C556.288 220.468 551.605 224.016 548.874 228.994C545.142 235.79 550.726 241.385 553.001 247.453C554.363 251.073 555.048 253.637 554.291 257.491C553.652 260.745 549.497 264.182 551.972 267.652C555.448 272.485 561.699 269.66 565.069 276.423C567.828 281.956 566.749 288.452 570.297 293.719C573.973 299.18 580.23 303.457 582.533 309.775C584.957 316.415 579.591 326.193 586.999 330.848C590.947 333.334 596.475 331.226 599.306 327.516C605.257 319.713 605.168 305.159 606.653 295.877C607.343 291.567 610.351 285.872 614.328 287.674C616.825 288.808 620.223 306.811 625.44 297.495C626.463 295.665 626.324 293.435 626.157 291.35C625.918 288.408 624.928 285.093 625.379 282.14C627.014 271.417 629.583 265.65 626.252 254.366C625.896 253.153 625.629 251.618 626.613 250.823C627.13 250.406 627.842 250.345 628.504 250.306C632.653 250.044 637.453 250.317 639.677 245.962C642.074 241.268 636.457 237.709 634.867 233.777C635.184 234.567 646.301 237.753 648.103 238.743C644.699 230.612 636.502 224.333 628.154 221.92" fill="#ED7061"/>
<path d="M566.365 255.984C567.561 259.833 569.352 263.314 571.81 266.128C573.74 268.336 576.092 270.244 577.349 272.935C578.428 275.243 578.584 277.913 579.574 280.266C583.4 289.359 590.547 279.654 593.061 275.149C596.175 269.582 599.256 267.941 605.118 268.025C605.774 268.036 606.508 268.008 606.959 267.507C607.382 267.035 607.387 266.306 607.293 265.661C606.775 262.079 602.921 257.091 606.692 254.037C608.182 252.831 610.123 252.469 611.914 251.841C620.896 248.676 620.679 232.175 620.34 224.255C620.212 221.274 619.033 218.433 617.426 215.969C608.46 202.204 585.33 202.154 574.452 213.811C565.62 223.266 562.044 242.052 566.365 255.984Z" fill="#CF6255"/>
<path d="M678.335 228.521C673.553 232.331 638.787 206.147 604.873 175.965L643.326 145.332C665.027 185.241 682.69 225.051 678.335 228.521Z" fill="#D85B7A"/>
<path d="M509.799 228.521C514.582 232.331 549.347 206.147 583.261 175.965L544.809 145.332C523.108 185.241 505.444 225.051 509.799 228.521Z" fill="#D85B7A"/>
<path d="M540.632 150.971C540.632 196.698 563.851 221.781 592.493 221.781C621.135 221.781 644.354 196.698 644.354 150.971C644.354 132.707 638.359 105.066 630.256 78.449H554.33C546.399 105.066 540.632 132.707 540.632 150.971Z" fill="#4B6DC6"/>
<path d="M592.493 0.737789C583.05 0.737789 566.249 38.4338 554.325 78.449H630.251C618.065 38.4338 601.092 0.737789 592.493 0.737789Z" fill="#D85B7A"/>
<path d="M630.946 216.319H554.041C547.996 216.319 543.052 211.375 543.052 205.33C543.052 199.284 547.996 194.34 554.041 194.34H630.946C636.991 194.34 641.935 199.284 641.935 205.33C641.935 211.375 636.991 216.319 630.946 216.319Z" fill="#AFD1E8"/>
<path d="M627.459 222.314H557.528C555.882 222.314 554.531 220.963 554.531 219.317C554.531 217.671 555.882 216.319 557.528 216.319H627.459C629.105 216.319 630.456 217.671 630.456 219.317C630.456 220.963 629.111 222.314 627.459 222.314Z" fill="#D85B7A"/>
<path d="M592.493 109.421C577.455 109.421 565.27 121.612 565.27 136.645C565.27 137.479 565.32 138.297 565.392 139.108C581.365 132.618 597.221 125.911 612.76 118.509C607.777 112.942 600.552 109.421 592.493 109.421Z" fill="white"/>
<path d="M565.392 139.108C566.638 152.99 578.289 163.868 592.493 163.868C607.532 163.868 619.717 151.678 619.717 136.645C619.717 129.671 617.07 123.325 612.76 118.509C597.221 125.911 581.365 132.618 565.392 139.108Z" fill="#EFF0FC"/>
</svg>
