<svg width="337" height="281" viewBox="0 0 337 281" fill="none" xmlns="http://www.w3.org/2000/svg">
<path d="M218.305 88.1133C225.073 86.1675 231.128 82.2879 237.812 80.0762C246.514 77.2119 255.88 77.3086 265.041 77.4294C281.538 77.647 298.024 77.8766 314.521 78.0941C319.138 78.1546 324.359 77.9612 327.428 74.5288C329.435 72.2808 330.027 69.1385 330.535 66.1654C332.13 56.9076 333.725 47.662 335.308 38.4042C336.154 33.4973 336.88 27.9983 333.991 23.9374C330.752 19.381 324.419 18.5955 318.848 18.2087C295.123 16.5771 271.411 14.9334 247.686 13.3019C245.45 13.1447 243.057 13.0239 241.111 14.1358C239.323 15.1631 238.223 17.0606 237.28 18.8976C233.304 26.6446 230.427 34.9476 228.76 43.4923C227.563 49.6319 226.935 56.0616 223.937 61.5486C219.26 70.0933 222.028 70.4801 217.592 78.0337C211.15 89.0198 211.682 90.0229 218.305 88.1133Z" fill="#E8EDFB"/>
<path d="M200.71 240.892H110.313C102.46 240.892 96.0359 234.468 96.0359 226.615V14.3894C96.0359 6.53636 102.46 0.112305 110.313 0.112305H200.71C208.563 0.112305 214.987 6.53636 214.987 14.3894V226.615C214.987 234.465 208.563 240.892 200.71 240.892Z" fill="#4B6DC6"/>
<path d="M193.162 218.429H117.861C110.008 218.429 103.584 212.005 103.584 204.152V22.4807C103.584 14.6277 110.008 8.20361 117.861 8.20361H193.162C201.015 8.20361 207.439 14.6277 207.439 22.4807V204.152C207.439 212.002 201.015 218.429 193.162 218.429Z" fill="#E0E7F9"/>
<path d="M166.716 5.61531H144.307C143.76 5.61531 143.316 5.16756 143.316 4.62455C143.316 4.07836 143.764 3.63379 144.307 3.63379H166.716C167.262 3.63379 167.707 4.08154 167.707 4.62455C167.707 5.17074 167.259 5.61531 166.716 5.61531Z" fill="#E0E7F9"/>
<path d="M155.51 235.087C158.918 235.087 161.68 232.325 161.68 228.917C161.68 225.51 158.918 222.747 155.51 222.747C152.102 222.747 149.34 225.51 149.34 228.917C149.34 232.325 152.102 235.087 155.51 235.087Z" fill="#E0E7F9"/>
<path d="M183.345 193.201H126.697C121.65 193.201 117.521 189.998 117.521 186.083V183.319C117.521 179.404 121.65 176.201 126.697 176.201H183.345C188.392 176.201 192.521 179.404 192.521 183.319V186.083C192.524 189.998 188.392 193.201 183.345 193.201Z" fill="#D85B7A"/>
<path d="M156.139 66.1027C151.379 64.9119 150.188 50.6348 145.431 50.6348C134.977 51.5842 131.351 65.4358 125.467 75.8261C126.235 80.1067 129.995 83.387 134.488 83.387H176.38C181.425 83.387 185.554 79.2588 185.554 74.2129V44.1758C184.099 44.2901 182.613 44.8141 181.124 45.8779C172.798 53.0132 166.85 68.4811 156.139 66.1027Z" fill="#889ED8"/>
<path d="M176.456 31.8167H134.564C129.519 31.8167 125.39 35.9448 125.39 40.9907V74.2097C125.39 74.7622 125.448 75.2989 125.543 75.826C131.427 65.4358 135.053 51.5842 145.507 50.6347C150.267 50.6347 151.458 64.9118 156.215 66.1026C166.923 68.4811 172.874 53.0132 181.203 45.8746C182.689 44.8108 184.179 44.2901 185.633 44.1726V40.9907C185.633 35.9448 181.502 31.8167 176.456 31.8167Z" fill="white"/>
<path d="M182.68 102.748H128.344C126.886 102.748 125.692 101.554 125.692 100.096C125.692 98.6388 126.886 97.4448 128.344 97.4448H182.68C184.137 97.4448 185.331 98.6388 185.331 100.096C185.331 101.554 184.137 102.748 182.68 102.748Z" fill="#889ED8"/>
<path d="M182.68 114.888H128.344C126.886 114.888 125.692 113.694 125.692 112.237C125.692 110.779 126.886 109.585 128.344 109.585H182.68C184.137 109.585 185.331 110.779 185.331 112.237C185.331 113.694 184.137 114.888 182.68 114.888Z" fill="white"/>
<path d="M182.68 127.025H128.344C126.886 127.025 125.692 125.831 125.692 124.373C125.692 122.916 126.886 121.722 128.344 121.722H182.68C184.137 121.722 185.331 122.916 185.331 124.373C185.331 125.834 184.137 127.025 182.68 127.025Z" fill="white"/>
<path d="M161.461 53.1626C164.377 53.1626 166.742 50.7982 166.742 47.8817C166.742 44.9652 164.377 42.6008 161.461 42.6008C158.544 42.6008 156.18 44.9652 156.18 47.8817C156.18 50.7982 158.544 53.1626 161.461 53.1626Z" fill="#889ED8"/>
<path d="M155.056 161.104C154.716 160.828 154.666 160.326 154.942 159.99L162.211 151.063C162.487 150.724 162.989 150.673 163.325 150.949C163.665 151.225 163.716 151.727 163.44 152.064L156.171 160.99C155.895 161.33 155.393 161.381 155.056 161.104Z" fill="white"/>
<path d="M155.967 161.104C156.307 160.828 156.358 160.326 156.082 159.99L148.813 151.063C148.537 150.724 148.035 150.673 147.698 150.949C147.359 151.225 147.308 151.727 147.584 152.064L154.853 160.99C155.126 161.33 155.628 161.381 155.967 161.104Z" fill="white"/>
<path d="M155.51 280.065C185.866 280.065 210.475 276.435 210.475 271.958C210.475 267.48 185.866 263.851 155.51 263.851C125.154 263.851 100.545 267.48 100.545 271.958C100.545 276.435 125.154 280.065 155.51 280.065Z" fill="#E0E7F9"/>
<path d="M70.8082 81.0002H10.4354C5.26567 81.0002 1.03589 76.7704 1.03589 71.6007C1.03589 66.431 5.26567 62.2012 10.4354 62.2012H70.8114C75.9811 62.2012 80.2109 66.431 80.2109 71.6007C80.2077 76.7704 75.9779 81.0002 70.8082 81.0002Z" fill="#E0E7F9"/>
<path d="M71.0495 72.2167C70.8844 72.4199 70.5795 72.4516 70.3763 72.2865L65.0001 67.9075C64.7969 67.7424 64.7652 67.4375 64.9303 67.2343C65.0954 67.031 65.4003 66.9993 65.6035 67.1644L70.9796 71.5434C71.1829 71.7086 71.2146 72.0134 71.0495 72.2167Z" fill="white"/>
<path d="M71.0495 71.6671C70.8844 71.4639 70.5795 71.4322 70.3763 71.5973L65.0001 75.9763C64.7969 76.1414 64.7652 76.4463 64.9303 76.6495C65.0954 76.8527 65.4003 76.8845 65.6035 76.7194L70.9796 72.3403C71.1829 72.172 71.2146 71.8704 71.0495 71.6671Z" fill="white"/>
<path d="M47.6937 101.917H7.32022C3.86209 101.917 1.03589 99.0879 1.03589 95.633C1.03589 92.1748 3.86527 89.3486 7.32022 89.3486H47.6937C51.1518 89.3486 53.978 92.178 53.978 95.633C53.9812 99.0879 51.1518 101.917 47.6937 101.917Z" fill="#4B6DC6"/>
<path d="M47.8556 96.0425C47.7445 96.179 47.5412 96.1981 47.4047 96.0869L43.81 93.1591C43.6734 93.048 43.6544 92.8447 43.7655 92.7082C43.8767 92.5716 44.0799 92.5526 44.2165 92.6637L47.8111 95.5916C47.9445 95.7027 47.9667 95.9059 47.8556 96.0425Z" fill="white"/>
<path d="M47.8556 95.674C47.7445 95.5375 47.5412 95.5184 47.4047 95.6296L43.81 98.5574C43.6734 98.6685 43.6544 98.8717 43.7655 99.0083C43.8767 99.1448 44.0799 99.1639 44.2165 99.0528L47.8111 96.1249C47.9445 96.0138 47.9667 95.8106 47.8556 95.674Z" fill="white"/>
<path d="M37.9054 210.894C37.5197 208.057 37.6003 204.561 40.0654 203.109C43.6876 200.974 47.4746 205.336 51.0196 207.601C51.8332 208.12 52.7694 208.548 53.7267 208.443C54.6804 208.338 55.508 207.71 56.1286 206.977C58.3096 204.414 58.4043 200.704 58.0537 197.355C57.703 194.007 57.0263 190.549 58.0361 187.341C59.0425 184.132 62.5174 181.38 65.6627 182.554C72.7424 185.202 72.9773 175.475 76.2033 171.656C77.5638 170.047 79.6712 168.907 81.7435 169.268C83.7773 169.626 85.3201 171.306 86.3756 173.08C88.7775 177.119 89.6787 182.828 87.9184 187.299C86.2634 191.503 81.2245 194.052 81.5471 199.154C81.7716 202.664 84.8818 205.627 84.6293 209.134C84.419 212.061 81.9153 214.362 81.3718 217.244C80.6425 221.129 83.6125 225.074 82.6412 228.907C82.01 231.396 79.8255 233.255 79.1312 235.73C78.2756 238.781 79.85 241.919 80.3023 245.054C81.2701 251.769 76.4136 259.143 69.4112 259.925C63.4256 260.595 59.3335 254.399 55.7709 250.275C46.2263 239.219 39.8725 225.383 37.9054 210.894Z" fill="#AFD1E8"/>
<path d="M66.9796 243.045C66.9691 243.045 66.955 243.045 66.941 243.045C66.5799 243.024 66.3028 242.715 66.3239 242.35L68.3366 206.675C68.3541 206.314 68.6311 206.048 69.0309 206.058C69.3921 206.079 69.6691 206.388 69.648 206.752L67.6353 242.427C67.6178 242.775 67.3267 243.045 66.9796 243.045Z" fill="white"/>
<path d="M68.1564 222.181C68.0021 222.181 67.8478 222.128 67.7251 222.02L58.6923 214.123C58.4188 213.885 58.3908 213.471 58.6292 213.197C58.8677 212.924 59.2849 212.896 59.5549 213.134L68.5877 221.031C68.8612 221.269 68.8892 221.683 68.6508 221.957C68.521 222.107 68.3387 222.181 68.1564 222.181Z" fill="white"/>
<path d="M64.4797 263.618C61.5693 263.025 58.5643 260.998 55.6258 259.441C49.2054 256.04 47.8449 250.261 21.0939 251.145C8.65989 251.555 14.94 236.842 6.21587 227.922C3.45977 225.106 0.710682 221.929 0.0935394 218.037C-0.523603 214.145 1.96951 209.523 5.90379 209.313C8.26717 209.186 10.3956 210.592 12.5977 211.455C14.7998 212.318 17.7733 212.416 19.0601 210.431C17.3139 208.082 14.8173 206.42 12.7134 204.382C10.613 202.345 8.80717 199.621 9.10873 196.71C9.57509 192.211 13.9407 194.091 15.2135 192.029C16.9212 189.262 15.1083 183.165 16.0726 179.634C18.3308 171.355 30.9401 165.797 37.5008 172.947C45.0923 181.226 44.0228 194.89 43.4057 206.153C42.5466 221.813 58.417 223.829 65.3353 233.132C70.325 239.837 78.1796 252.218 71.945 260.448C69.6027 263.537 67.078 264.147 64.4797 263.618Z" fill="#ED7061"/>
<path d="M71.1094 265.711C70.9165 265.711 70.7271 265.627 70.5974 265.465L35.7534 222.343C35.5255 222.062 35.5676 221.645 35.8516 221.417C36.1356 221.189 36.5459 221.235 36.7738 221.515L71.6178 264.641C71.8457 264.922 71.8036 265.339 71.5196 265.567C71.4039 265.665 71.2566 265.711 71.1094 265.711Z" fill="white"/>
<path d="M53.9573 245.485C53.8836 245.485 53.8065 245.471 53.7329 245.447L33.0726 237.929C32.7325 237.806 32.5572 237.427 32.6799 237.087C32.8026 236.747 33.1778 236.568 33.5215 236.695L54.1817 244.213C54.5218 244.335 54.6972 244.714 54.5744 245.054C54.4797 245.321 54.2273 245.485 53.9573 245.485Z" fill="white"/>
<path d="M44.1477 232.504C44.0741 232.504 43.9969 232.49 43.9233 232.466L23.2631 224.948C22.9229 224.825 22.7476 224.446 22.8703 224.106C22.9931 223.766 23.3683 223.591 23.7119 223.713L44.3721 231.231C44.7123 231.354 44.8876 231.733 44.7649 232.073C44.6667 232.336 44.4142 232.504 44.1477 232.504Z" fill="white"/>
<path d="M61.1649 254.403C60.8002 254.403 60.5057 254.108 60.5092 253.743L60.5583 235.573C60.5583 235.212 60.8528 234.917 61.214 234.917C61.5787 234.917 61.8697 235.212 61.8697 235.576L61.8206 253.747C61.8206 254.108 61.5261 254.403 61.1649 254.403Z" fill="white"/>
<path d="M185.443 280.183H66.7873C58.1017 280.183 50.9976 273.078 50.9976 264.393V261.991C50.9976 253.305 58.1017 246.201 66.7873 246.201H185.443C194.129 246.201 201.233 253.305 201.233 261.991V264.393C201.233 273.075 194.129 280.183 185.443 280.183Z" fill="#889ED8"/>
<path d="M185.851 263.309L185.322 263.958C185.199 264.109 184.975 264.13 184.824 264.007L175.497 256.408C175.346 256.286 175.325 256.061 175.448 255.911L175.977 255.262C176.1 255.111 176.324 255.09 176.475 255.213L185.806 262.811C185.953 262.934 185.974 263.158 185.851 263.309Z" fill="white"/>
<path d="M185.851 263.071L185.322 262.422C185.199 262.271 184.975 262.25 184.824 262.373L175.497 269.972C175.346 270.094 175.325 270.319 175.448 270.47L175.977 271.118C176.1 271.269 176.324 271.29 176.475 271.167L185.806 263.569C185.953 263.446 185.974 263.222 185.851 263.071Z" fill="white"/>
<path d="M173.044 263.309L172.514 263.958C172.391 264.109 172.167 264.13 172.016 264.007L162.685 256.408C162.535 256.286 162.514 256.061 162.636 255.911L163.166 255.262C163.289 255.111 163.513 255.09 163.664 255.213L172.995 262.811C173.142 262.934 173.166 263.158 173.044 263.309Z" fill="white"/>
<path d="M173.044 263.071L172.514 262.422C172.391 262.271 172.167 262.25 172.016 262.373L162.685 269.972C162.535 270.094 162.514 270.319 162.636 270.47L163.166 271.118C163.289 271.269 163.513 271.29 163.664 271.167L172.995 263.569C173.142 263.446 173.166 263.222 173.044 263.071Z" fill="white"/>
<g clip-path="url(#clip0_3143_33775)">
<path d="M280.815 24.7817C281.3 24.9828 281.832 24.964 282.332 25.1056C286.552 26.2981 289.233 29.007 290.369 33.2402C290.599 34.0959 290.663 34.9784 290.671 35.8599C290.688 37.8081 290.674 39.7564 290.673 41.7046C289.995 41.6412 289.316 41.6343 288.635 41.6352C287.629 41.6372 286.622 41.6263 285.616 41.6204C285.594 39.487 285.703 37.3506 285.567 35.2211C285.376 32.225 282.771 29.8548 279.727 29.8419C276.673 29.8301 274.04 32.2101 273.848 35.2211C273.712 37.3515 273.821 39.487 273.8 41.6204C272.115 41.6867 270.426 41.561 268.742 41.7046C268.76 39.5196 268.684 37.3347 268.784 35.1508C268.894 32.7559 269.737 30.6343 271.249 28.7941C272.933 26.7488 275.1 25.485 277.701 24.9719C278.002 24.9125 278.322 24.9422 278.602 24.7817H280.816H280.815Z" fill="#4B6DC6"/>
<path d="M285.617 41.6201C286.623 41.6261 287.63 41.637 288.636 41.635C289.317 41.633 289.996 41.6409 290.674 41.7043C291.676 41.9826 292.532 42.4798 293.175 43.3227C293.687 43.9932 294.003 44.7381 294.017 45.576C294.045 47.2488 294.034 48.9217 294.035 50.5946C294.037 54.0324 294.041 57.4703 294.033 60.9091C294.028 63.0129 292.766 64.653 290.802 65.1374C290.442 65.2255 290.077 65.2592 289.706 65.2592C283.04 65.2572 276.376 65.2602 269.71 65.2562C267.231 65.2542 265.395 63.4605 265.387 60.9884C265.369 55.9569 265.372 50.9244 265.387 45.8929C265.392 43.8635 266.638 42.3015 268.601 41.7707C268.65 41.7568 268.696 41.7281 268.742 41.7063C270.426 41.5627 272.115 41.6894 273.799 41.6221C273.971 41.628 274.141 41.6389 274.312 41.6399C277.87 41.6409 281.427 41.6409 284.985 41.6399C285.195 41.6399 285.406 41.629 285.616 41.6221L285.617 41.6201ZM279.673 60.197C280.213 60.197 280.752 60.2049 281.292 60.195C281.953 60.1831 282.315 59.7691 282.225 59.1135C282.04 57.7724 281.853 56.4323 281.639 55.0952C281.589 54.7862 281.657 54.6317 281.928 54.4682C283.498 53.5243 284.253 51.5979 283.777 49.8191C283.298 48.0273 281.665 46.7318 279.824 46.6853C277.957 46.6377 276.195 47.9065 275.677 49.6715C275.13 51.5385 275.871 53.4946 277.527 54.49C277.775 54.6386 277.836 54.7911 277.795 55.0595C277.587 56.4105 277.392 57.7625 277.198 59.1154C277.107 59.7543 277.482 60.1871 278.133 60.195C278.646 60.201 279.16 60.196 279.673 60.196V60.197Z" fill="#ED7061"/>
<path d="M279.673 60.1976C279.16 60.1976 278.646 60.2025 278.133 60.1966C277.482 60.1887 277.107 59.7568 277.198 59.117C277.392 57.764 277.587 56.4121 277.795 55.0611C277.837 54.7927 277.775 54.6402 277.528 54.4916C275.872 53.4962 275.13 51.54 275.677 49.673C276.195 47.9081 277.956 46.6393 279.824 46.6868C281.665 46.7334 283.298 48.0289 283.777 49.8206C284.253 51.5995 283.498 53.5259 281.928 54.4698C281.658 54.6322 281.59 54.7877 281.639 55.0968C281.853 56.4329 282.04 57.7739 282.225 59.115C282.315 59.7707 281.953 60.1847 281.292 60.1966C280.752 60.2065 280.213 60.1986 279.673 60.1986V60.1976Z" fill="#8E473F"/>
</g>
<defs>
<clipPath id="clip0_3143_33775">
<rect width="28.6636" height="40.4757" fill="white" transform="translate(265.375 24.7817)"/>
</clipPath>
</defs>
</svg>
