<?xml version="1.0" encoding="utf-8"?>
<!-- Generator: Adobe Illustrator 25.4.1, SVG Export Plug-In . SVG Version: 6.00 Build 0)  -->
<svg version="1.1" id="Layer_1" xmlns="http://www.w3.org/2000/svg" xmlns:xlink="http://www.w3.org/1999/xlink" x="0px" y="0px"
	 viewBox="0 0 1000 1000" style="enable-background:new 0 0 1000 1000;" xml:space="preserve">
<style type="text/css">
	.st0{fill:#3A3144;}
	.st1{fill:#D08C3D;}
	.st2{fill:#BC7835;}
	.st3{fill:#E25959;}
	.st4{fill:none;stroke:#3A3144;stroke-width:80;stroke-linejoin:round;stroke-miterlimit:10;}
	.st5{fill:#FFECE5;}
	.st6{fill:#FFD8C5;}
	.st7{fill:none;stroke:#3A3144;stroke-width:20;stroke-miterlimit:10;}
	.st8{fill:#3A3144;stroke:#3A3144;stroke-width:20;stroke-miterlimit:10;}
	.st9{fill:#F99192;}
	.st10{fill:none;stroke:#1B8981;stroke-width:8;stroke-linecap:round;stroke-miterlimit:10;}
	.st11{fill:#1B8981;}
	.st12{fill:none;stroke:#1B8981;stroke-width:6;stroke-linecap:round;stroke-miterlimit:10;}
	.st13{fill:#B2EEE6;}
	.st14{fill:#3EB7B2;}
	.st15{fill:none;stroke:#E25959;stroke-width:50;stroke-miterlimit:10;}
	.st16{fill:none;stroke:#385A7D;stroke-width:80;stroke-miterlimit:10;}
	.st17{fill:#385A7D;}
	.st18{fill:none;stroke:#3EB7B2;stroke-width:30;stroke-miterlimit:10;}
	.st19{fill:#F97171;}
	.st20{fill:none;stroke:#3EB7B2;stroke-width:8;stroke-linecap:round;stroke-miterlimit:10;}
	.st21{fill:none;stroke:#3EB7B2;stroke-width:6;stroke-linecap:round;stroke-miterlimit:10;}
	.st22{fill:none;stroke:#F97171;stroke-width:50;stroke-miterlimit:10;}
	.st23{fill:#FFA97F;}
	.st24{fill:#0D0D79;}
	.st25{fill:#0F0F7A;}
	.st26{fill:#0D0D7A;}
	.st27{fill:#12137C;}
</style>
<g>
	<path class="st0" d="M638,277.3c0,0,17.7,1.8,8-13.2c-8.8-13.6-17.5,1.7-17.5,1.7"/>
	<g>
		<g>
			<path class="st1" d="M679.2,802.1c0,0-37.2,32.7-37.2,39.5c0,4.6,9.4,13.9,13.3,22.9c2.1,4.9-3.3,9.7-7.9,6.9L585,833.8
				c-5.9-3.5-7-11.6-2.2-16.6c16.1-16.9,49-51.4,63.5-65.2"/>
			<path class="st2" d="M643.3,759l-2.8-1.4c-12.2,12-30.7,31.2-45.1,46.4c11.3,14.3,32.6,38.7,51.4,46.9c-2.6-3.8-4.8-7-4.8-9.2
				c0-4.5,16-20.1,27-30.3C660.2,786.1,643.3,759,643.3,759z"/>
			<path class="st3" d="M646.2,752l32.9,50.1c0,0-8.5,7.5-17.3,16c-11.2-9.7-29.1-25.4-43.5-38C629.2,768.9,639.6,758.3,646.2,752z"
				/>
			<g>
				<g>
					<path class="st0" d="M653.7,812.4c0.6,0,0.6-1,0-1C653.1,811.4,653.1,812.4,653.7,812.4L653.7,812.4z"/>
				</g>
			</g>
			<g>
				<g>
					<path class="st0" d="M647.8,817.9c0.6,0,0.6-1,0-1C647.2,816.9,647.2,817.9,647.8,817.9L647.8,817.9z"/>
				</g>
			</g>
		</g>
		<g>
			<g>
				<path class="st0" d="M638.9,834.4c2.6,0.2,5,1,7.2,2.3c0.6,0.3,1.1-0.5,0.5-0.9c-2.4-1.4-5-2.2-7.7-2.4
					C638.3,833.3,638.3,834.3,638.9,834.4L638.9,834.4z"/>
			</g>
		</g>
		<g>
			<g>
				<path class="st0" d="M637.3,840.6c2.3,0,4.5,0.5,6.6,1.5c0.6,0.3,1.1-0.6,0.5-0.9c-2.3-1-4.6-1.6-7.1-1.6
					C636.7,839.6,636.7,840.6,637.3,840.6L637.3,840.6z"/>
			</g>
		</g>
		<g>
			<g>
				<path class="st0" d="M639,848.1c2-0.7,4-1.4,6.1-0.8c0.6,0.2,0.9-0.8,0.3-1c-2.3-0.7-4.5,0-6.6,0.8
					C638.2,847.3,638.4,848.3,639,848.1L639,848.1z"/>
			</g>
		</g>
		<g>
			<g>
				<path class="st0" d="M643.6,853.7c1.5-0.9,3-1.3,4.7-1.2c0.6,0,0.6-1,0-1c-1.9-0.1-3.7,0.3-5.3,1.3
					C642.6,853.1,643.1,854,643.6,853.7L643.6,853.7z"/>
			</g>
		</g>
	</g>
	<path class="st4" d="M600.4,431c0,0,134.9,132.9,156.4,197.5c9.8,29.4-127.4,183.7-127.4,183.7"/>
	<g>
		<g>
			<path class="st5" d="M521.2,881.1H265c-41.2,0-74.7-33.4-74.7-74.7V165c0-41.2,33.4-74.7,74.7-74.7h256.3
				c41.2,0,74.7,33.4,74.7,74.7v641.5C595.9,847.7,562.5,881.1,521.2,881.1z"/>
			<path class="st6" d="M547.9,95.2c-8.4-2.8-17.4-4.3-26.7-4.3H265c-9.3,0-18.3,1.5-26.7,4.3c-28.1,10.7-48,37.9-48,69.7v641.5
				c0,33.3,21.9,61.6,52,71.2c-24.5-9.2-42-32.9-42-60.6V175.6c0-35.7,29-64.7,64.7-64.7h37.2c5.5,0,10.2,3.7,11.6,9v0
				c2.2,8.3,9.7,14.1,18.3,14.1h126.7c8.6,0,16.1-5.8,18.3-14.1v0c1.4-5.3,6.2-9,11.6-9h32.5c35.7,0,64.7,29,64.7,64.7v641.5
				c0,27.7-17.5,51.4-42,60.6c30.2-9.6,52-37.8,52-71.2V165C595.9,133.1,576,106,547.9,95.2z"/>
			<path class="st7" d="M521.2,881.1H265c-41.2,0-74.7-33.4-74.7-74.7V165c0-41.2,33.4-74.7,74.7-74.7h256.3
				c41.2,0,74.7,33.4,74.7,74.7v641.5C595.9,847.7,562.5,881.1,521.2,881.1z"/>
			<path class="st8" d="M458.9,113.4H332.2c-4.1,0-7.6-2.7-8.6-6.7l-4.2-15.8h152.3l-4.2,15.8C466.5,110.6,462.9,113.4,458.9,113.4z
				"/>
			<path class="st8" d="M190.3,327.9h-4.6c-0.9,0-1.6-0.7-1.6-1.6v-78.8c0-0.9,0.7-1.6,1.6-1.6h4.6V327.9z"/>
			<path class="st8" d="M190.3,437.4h-4.6c-0.9,0-1.6-0.7-1.6-1.6v-78.8c0-0.9,0.7-1.6,1.6-1.6h4.6V437.4z"/>
			<path class="st8" d="M597.7,273.3h4.6c0.9,0,1.6,0.7,1.6,1.6v78.8c0,0.9-0.7,1.6-1.6,1.6h-4.6V273.3z"/>
		</g>
		<g>
			<g>
				<rect x="259.6" y="115.3" class="st9" width="4.7" height="4.7"/>
				<rect x="269.4" y="115.3" class="st9" width="4.7" height="4.7"/>
				<rect x="279.2" y="115.3" class="st9" width="4.7" height="4.7"/>
			</g>
			<polygon class="st9" points="502.8,120 528.5,120 528.5,114.7 			"/>
		</g>
	</g>
	<g>
		<g>
			<path class="st1" d="M622.4,833.9c0,0-14.9,47.3-11.4,53.1c2.4,4,15.3,7,23.2,12.7c4.4,3.1,2.2,10-3.2,10h-72.9
				c-6.8,0-11.9-6.3-10.5-13c5-22.8,15.3-69.3,20.6-88.6"/>
			<path class="st2" d="M569.4,815.5l-3.1,0.2c-4.2,16.6-10.1,42.6-14.7,63c17.1,6.4,47.9,16.3,68.2,13.6c-4.2-1.9-7.7-3.5-8.8-5.4
				c-2.3-3.8,3.3-25.4,7.4-39.9C597.9,830,569.4,815.5,569.4,815.5z"/>
			<path class="st3" d="M568.3,808l54.1,25.8c0,0-3.4,10.8-6.6,22.7c-14.6-2.5-38.1-6.7-56.9-10C562.4,831.3,565.9,816.8,568.3,808z
				"/>
			<g>
				<g>
					<path class="st0" d="M605.7,855.9c0.6,0,0.6-1,0-1C605,854.9,605,855.9,605.7,855.9L605.7,855.9z"/>
				</g>
			</g>
			<g>
				<g>
					<path class="st0" d="M603.5,863.7c0.6,0,0.6-1,0-1C602.8,862.7,602.8,863.7,603.5,863.7L603.5,863.7z"/>
				</g>
			</g>
		</g>
		<g>
			<g>
				<path class="st0" d="M604.6,882.3c2.3-1.2,4.8-1.7,7.4-1.8c0.6,0,0.6-1,0-1c-2.8,0-5.4,0.7-7.9,1.9
					C603.6,881.7,604.1,882.6,604.6,882.3L604.6,882.3z"/>
			</g>
		</g>
		<g>
			<g>
				<path class="st0" d="M606.5,888.5c2-1.2,4.1-1.9,6.4-2.2c0.6-0.1,0.6-1.1,0-1c-2.5,0.3-4.8,1-6.9,2.3
					C605.4,887.9,605.9,888.8,606.5,888.5L606.5,888.5z"/>
			</g>
		</g>
		<g>
			<g>
				<path class="st0" d="M611.8,894c1.3-1.6,2.7-3.3,4.8-3.8c0.6-0.2,0.4-1.1-0.3-1c-2.3,0.6-3.8,2.3-5.3,4.1
					C610.7,893.8,611.4,894.5,611.8,894L611.8,894z"/>
			</g>
		</g>
		<g>
			<g>
				<path class="st0" d="M618.7,896.4c0.8-1.5,2-2.7,3.5-3.5c0.6-0.3,0.1-1.2-0.5-0.9c-1.6,0.8-3,2.2-3.8,3.8
					C617.5,896.4,618.4,896.9,618.7,896.4L618.7,896.4z"/>
			</g>
		</g>
	</g>
	<g>
		<path class="st10" d="M714.9,330.2c0.7,2,0.2,12.9,7.7,25.9"/>
		<path class="st11" d="M753.9,381.7l-37.2-17.7c0,0,4-44.5,27-40.7C766.7,327.3,753.9,381.7,753.9,381.7z"/>
		<path class="st12" d="M747.5,310.8c0,0-18.5,5.9-24.5,33.2"/>
		<path class="st12" d="M739.7,328.8c0.1-0.3,9.2-9.6,17.8-11.4"/>
		<path class="st12" d="M749.8,334.7c0.1-0.2,5.3-8.1,14.1-8.4"/>
		<path class="st12" d="M754.5,346.9c0.1-0.3,3.9-8.8,12.5-10.6"/>
	</g>
	<path class="st13" d="M748.5,377.1h45.8c2.6,0,4.9-1.8,5.4-4.4l16.2-79.1c0.7-3.4-1.9-6.6-5.4-6.6h-45.8c-2.6,0-4.9,1.8-5.4,4.4
		l-16.2,79.1C742.4,373.9,745,377.1,748.5,377.1z"/>
	<path class="st14" d="M767.4,322.5h12c0.7,0,1.3-0.5,1.4-1.2l4.2-20.8c0.2-0.9-0.5-1.7-1.4-1.7h-12c-0.7,0-1.3,0.5-1.4,1.2
		l-4.2,20.8C765.8,321.7,766.5,322.5,767.4,322.5z"/>
	<path class="st15" d="M649.9,348.8c0,0,31.9,53.6,54.3,69.3c24.3,17,32.1-61.7,32.1-61.7"/>
	<path class="st16" d="M612.5,431c0,0,22.2,170.1,15.8,223c-10,82.1-46.2,209.2-46.2,209.2"/>
	<circle class="st17" cx="618.2" cy="431" r="44.3"/>
	<path class="st0" d="M659.1,414l-80.8,66.9c0,0-12.2-66-2.6-79.5"/>
	<path class="st18" d="M618.3,297.1c-2.5,9.1-3.2,25.1-6.1,34"/>
	<path class="st0" d="M631.5,307.3l-1.6,10.5c0,0-16.7,0-18.4-14.1C611.5,303.6,620.4,308.9,631.5,307.3z"/>
	<path class="st14" d="M630.6,312.1L630.6,312.1c8.7-1.1,14.9-9,13.8-17.7l-2.4-19.5c-1.5-12.2-12.6-20.9-24.8-19.4h0
		c-12.2,1.5-20.9,12.6-19.4,24.8l0.8,6.8C600.6,302.9,614.9,314,630.6,312.1z"/>
	<circle class="st0" cx="634.9" cy="283.2" r="1.6"/>
	<g>
		<g>
			<path class="st0" d="M636.8,276.5c-1-0.3-2-0.4-3-0.4c-1.3,0-1.3,2,0,2c0.8,0,1.6,0.1,2.4,0.3
				C637.5,278.7,638.1,276.8,636.8,276.5L636.8,276.5z"/>
		</g>
	</g>
	<path class="st14" d="M645.6,289.3c0,2.3-2.4,5.5-5.2,5c0,0,0.5-6.4,0.5-6.4c0-0.4,2.2-0.9,2.5-0.8
		C645,287.1,645.6,288.1,645.6,289.3z"/>
	<path class="st19" d="M586.6,324l63.7,0.6c14.7,0.1,26.3,12.7,25.3,27.4l-3.9,57.5c-0.3,4.5-3.9,8.1-8.4,8.5l-93.3,8.3
		c-4.9,0.4-9.2-3-9.9-7.9l-7.9-55.4C549.4,342.3,565.6,323.8,586.6,324z"/>
	<path class="st3" d="M578.8,370.3l42.7,47.3l-3.2,4.4l-48.2,4.3c-4.9,0.4-9.2-3-9.9-7.9l-3.3-22.9
		C555,382.2,565.4,370.3,578.8,370.3L578.8,370.3z"/>
	<g>
		<g>
			<path class="st0" d="M634.2,294.3c-1.6-0.8-2.9-1.8-4.1-3.1c-0.9-1-2.3,0.5-1.4,1.4c1.3,1.4,2.8,2.6,4.5,3.4
				C634.3,296.6,635.4,294.9,634.2,294.3L634.2,294.3z"/>
		</g>
	</g>
	<g>
		<path class="st20" d="M751.8,341.6c-0.8,2-8.2,9.9-10.8,24.7"/>
		<path class="st14" d="M748.2,406.1l-16.9-37.5c0,0,31.9-31.3,46.9-13.5S748.2,406.1,748.2,406.1z"/>
		<path class="st21" d="M789.3,347.9c0,0-17.9-7.4-40.2,9.5"/>
		<path class="st21" d="M771.7,356.6c0.2-0.1,13.2-1.4,20.9,2.8"/>
		<path class="st21" d="M775.5,367.6c0.3-0.1,9.2-2.7,16.2,2.7"/>
		<path class="st21" d="M771.2,379.9c0.2-0.1,8.7-4.2,16.4,0"/>
	</g>
	<path class="st22" d="M582.1,345c0,0,42,74.8,73.3,81.4s97.7-51.2,97.7-51.2"/>
	<g>
		<g>
			<path class="st3" d="M647.5,392.5c-15.6-13.2-28.6-29.2-38.3-47.2c-0.3-0.6-1.2-0.1-0.9,0.5c9.7,18.1,22.8,34.2,38.5,47.4
				C647.3,393.7,648,393,647.5,392.5L647.5,392.5z"/>
		</g>
	</g>
	<path class="st19" d="M526.1,707.6H262c-9.1,0-16.4-7.3-16.4-16.4v0c0-9.1,7.3-16.4,16.4-16.4h264.1c9.1,0,16.4,7.3,16.4,16.4v0
		C542.5,700.2,535.1,707.6,526.1,707.6z"/>
	<path class="st23" d="M526.1,674.8H414v32.8h112c9.1,0,16.4-7.3,16.4-16.4v0C542.5,682.1,535.1,674.8,526.1,674.8z"/>
	<rect x="414" y="674.8" class="st9" width="12.9" height="32.8"/>
	<path class="st0" d="M621.6,275.5c-1.3,1.3-3.1,1.8-4.9,1.6c-1.7-0.2-4.1,0.2-4.6,3.7c-0.7,5.4,5,7.5,5,7.5l-5.9,7.5
		c-2.9,3.7-7.8,5.4-12.4,4.2l-2.9-0.8c0,0-4.4-30.8,1.8-36.2c6.2-5.4,8.6-3,8.6-3s1.7-10.5,25.2-9c17.9,1.1,35,20.7-6.6,17.6
		C625,268.6,624.3,272.8,621.6,275.5z"/>
	<g>
		<rect x="325.3" y="755.1" class="st23" width="137.5" height="2.7"/>
		<rect x="325.3" y="767.7" class="st23" width="137.5" height="2.7"/>
		<rect x="325.3" y="780.3" class="st23" width="83.3" height="2.7"/>
	</g>
	<g>
		<path class="st24" d="M328,343.7c13.6-11.2,16.6-24.9,17.9-39.3c2.1-25.7,20.9-44.4,46-46.3c24.6-1.9,47.1,14.2,52.2,38.5
			c3.7,17.7,0.5,35.3-4.5,52.2c-18.7,63.9-77.3,107-143.9,106.2c-3.5,0-10.2,2.4-10.2-3.2c0-5.9,6.4-2.7,10.2-2.7
			c78.6,0.8,143.9-62.6,143.9-140.7c0-23.5-18.2-43.1-41.5-44.1c-24.1-1.1-44.1,16-45.7,40.1c-1.3,19-7,35.6-23.3,47.1
			c-15.5,11-32.6,12.6-50.6,6.7c-2.4-0.8-3.5-1.9-3.5-4.3c0.8-24.3-2.4-48.7,3.2-72.8c10.7-47.9,53.5-86.4,100-92.3
			c54.8-7,104,22.7,125.7,67.1c15.2,31.3,13.6,63.4,6.7,96c-3.7,17.1-9.9,33.2-17.7,49.5c5.9,1.9,11-0.3,16-0.5
			c2.4,0,5.6-1.6,6.4,2.1c0.5,3.5-2.9,3.7-5.3,4c-20.9,3.2-40.9,1.6-59.9-8c-1.9-1.1-4.3-4.3-6.7-1.1c-2.7,4-6.4,7.5-7.5,12.3
			c-0.3,0.5,2.7,2.1,4,2.9c20.1,10.4,41.7,13.4,64.2,12c1.3,0,2.7-0.3,3.7-0.5c2.1-0.3,4.5,0,4.8,2.4c0.5,3.5-2.1,3.5-4.5,3.7
			c-15,2.4-29.7,0.5-44.4-2.7c-9.4-1.9-18.2-5.1-26.5-9.9c-4.8-2.7-8-2.9-11.2,1.9c-1.9,2.7-4.3,5.1-7,8c15,9.6,31,15.8,48.4,18.5
			c9.9,1.6,19.8,2.1,30,2.1c2.7,0,7.5-1.9,7.5,2.7c0,4.8-4.8,3.5-7.8,3.5c-27.6,0.8-53.5-5.3-77.6-19c-2.1-1.1-4-4-6.7-2.1
			c-4,2.9-8,5.9-11,9.6c-1.6,1.9,2.1,2.9,3.5,3.7c19.3,11.8,40.1,19.3,62.6,22.7c5.9,0.8,11.8,1.3,17.7,1.9c2.4,0.3,5.9,0,5.9,3.5
			c0,3.7-3.5,2.9-5.9,2.7c-25.4-1.3-50-7-72.2-19.8c-12.6-7.5-21.9-9.1-35.3-0.5c-21.4,13.6-46.5,18.2-72,20.1
			c-2.7,0.3-7.2,2.1-8-1.9c-0.8-4.8,4.3-4,7.2-4.3c35.8-2.9,68.7-13.6,96.8-37.2c31.8-26.5,51.1-60.2,57.2-101.1
			c2.1-14.7,4-29.4-0.3-44.1c-8.3-29.4-36.1-49.5-67.1-48.4c-31,1.1-57.8,23-63.7,53C326.6,309.4,328.5,325.7,328,343.7z
			 M467.8,398.5c2.7,0.5,5.1,1.1,7.2,1.9c7.5,2.1,11.8,0,15.2-7.8c10.4-23.8,17.1-48.1,19-73.8c1.9-26.5-2.7-51.6-18.2-73.8
			c-28.1-39.6-66.6-57.8-114.7-49.8c-43.9,7.2-73.3,33.7-89.1,74.9c-9.9,25.7-5.6,52.7-5.6,79.2c0,6.4,8.3,4.8,13.1,5.3
			c5.1,0.8,3.2-3.5,3.5-5.6c0.5-18.2-1.1-36.4,1.1-54.6c5.6-44.7,43.9-80.2,88.3-83.5c56.7-4,94.2,37.4,101.9,73.6
			c5.6,25.7,1.1,50.3-5.6,74.9C480.4,373.3,474.3,385.6,467.8,398.5z M304.7,325.2c0,8.3,0,16.3,0,24.6c0,1.6-1.1,3.7,1.6,4.3
			c6.2,1.6,15.5-6.2,15.5-12.6c0.3-15-0.8-29.7,0.8-44.7c4-35,36.4-62.9,73.3-62.6c36.4,0.3,69,28.1,72.2,62.9
			c2.9,30.5-3.7,59.6-17.1,86.9c-2.7,5.6-1.3,7.2,3.5,9.4c4.8,2.4,7.8,2.9,10.7-2.9c12.3-24.3,19.5-50,21.1-77.3
			c2.7-46.5-30.5-88.8-74.9-95.5c-48.9-7.5-93.3,22.2-104.6,69.8C303.9,300.1,304.7,312.6,304.7,325.2z"/>
		<path class="st24" d="M297.5,431.9c-5.1-0.5-10.2-1.1-15.2-1.6c-2.4-0.3-5.1-0.3-4.5-3.5c0.5-3.2,3.2-2.7,5.6-2.4
			c16,2.1,31.8,0.8,47.3-3.5c49.5-13.4,86.1-62.1,85.3-113.1c-0.3-11.5-8.6-20.1-19.5-20.6c-11.2-0.5-20.3,8-20.9,20.1
			c-1.6,31.6-15.5,55.1-44.1,69.5c-15.8,8-32.9,9.6-50.3,5.9c-2.4-0.5-6.2-0.5-5.3-4c0.8-4,4.3-2.4,7-1.9
			c39.1,7.5,74.6-14.7,84-52.7c1.3-5.6,1.9-11.5,2.1-17.4c1.1-14.7,12.8-26.2,27.3-25.7c14.4,0.5,25.7,12.3,25.7,27.3
			c0.3,61.5-46.8,114.2-108.3,122C308.4,430.8,303.1,431.4,297.5,431.9z"/>
		<path class="st25" d="M295.6,408.1c-3.2-0.3-9.1-0.8-15-1.6c-2.4-0.3-5.9-0.5-5.1-4.3c0.5-3.2,3.5-2.1,5.9-1.9
			c14.7,2.4,29.2,1.3,43.3-2.7c37.4-10.4,65.5-45.5,67.7-84.3c0-1.9,0-3.5,0.3-5.3c0-2.1,1.1-3.5,3.2-3.5c2.1,0.3,2.9,1.9,2.9,3.7
			c-0.5,6.2-0.8,12.3-1.9,18.2C387.9,373.3,345.9,407.8,295.6,408.1z"/>
		<path class="st26" d="M468.7,496.1c-21.7-1.9-42.3-7-61.3-16.3c-8.3-4-15-4.3-23.3-0.3c-19.3,9.6-39.9,14.7-61.3,16.6
			c-2.1,0.3-5.9,1.9-6.4-1.9c-0.5-4,3.5-3.7,5.9-4c24.3-2.4,47.1-9.6,68.7-20.6c3.5-1.6,6.2-1.3,9.4,0.3
			c21.4,10.7,44.1,17.9,68.2,20.3c2.7,0.3,6.7,0,6.4,3.7C474.5,498,470.8,495.8,468.7,496.1z"/>
		<path class="st24" d="M439.2,514.8c-12.6-1.9-25.4-5.3-37.7-10.7c-4-1.9-7.5-1.9-11.8,0c-12,5.3-24.6,8.6-37.7,10.4
			c-2.1,0.3-5.1,1.6-5.9-1.6c-0.8-3.2,2.4-3.5,4.5-4c14.2-2.7,27.8-6.7,40.9-12.6c2.4-1.1,4.8-1.1,7.5,0c13.1,5.6,27,9.9,40.9,12.6
			c2.1,0.3,5.1,0.5,4.5,4C444.3,515.9,441.6,515.1,439.2,514.8z"/>
		<path class="st27" d="M395.6,525c-4.5,0-9.1,0-13.9,0c-2.1,0-4.3-0.3-4.5-2.9c-0.3-2.9,2.1-3.2,4.3-3.2c9.4,0,19,0,28.4,0
			c2.1,0,4.3,0.5,4,3.2s-2.7,2.9-4.5,2.9C404.7,525,400.2,525,395.6,525z"/>
	</g>
</g>
</svg>
