<svg width="160" height="160" viewBox="0 0 160 160" fill="none" xmlns="http://www.w3.org/2000/svg">
    <rect x="69" y="25" width="80" height="28" fill="white"/>
    <rect x="69" y="66" width="80" height="28" fill="white"/>
    <rect x="69" y="107" width="80" height="28" fill="white"/>
    <path d="M38.3544 99.0163C37.94 99.0163 37.5425 98.8517 37.2495 98.5586C36.9565 98.2656 36.7919 97.8682 36.7919 97.4538V88.54C36.791 87.8401 36.5127 87.169 36.0178 86.674C35.5229 86.179 34.8518 85.9004 34.1519 85.8994H26.3587C25.6588 85.9004 24.9878 86.179 24.4929 86.674C23.998 87.169 23.7196 87.8401 23.7187 88.54V97.4538C23.7187 97.8682 23.5541 98.2656 23.2611 98.5586C22.9681 98.8517 22.5707 99.0163 22.1562 99.0163C21.7418 99.0163 21.3444 98.8517 21.0514 98.5586C20.7584 98.2656 20.5938 97.8682 20.5938 97.4538V88.54C20.5954 87.0115 21.2033 85.5461 22.2841 84.4652C23.3648 83.3843 24.8302 82.7762 26.3587 82.7744H34.1519C35.6804 82.7762 37.1458 83.3843 38.2266 84.4652C39.3073 85.5461 39.9152 87.0115 39.9169 88.54V97.4538C39.9169 97.659 39.8765 97.8622 39.7979 98.0517C39.7194 98.2413 39.6043 98.4136 39.4592 98.5586C39.3141 98.7037 39.1419 98.8188 38.9523 98.8974C38.7627 98.9759 38.5596 99.0163 38.3544 99.0163Z" fill="#181B5E"/>
    <path d="M30.1602 84.5707C28.6956 84.5711 27.2639 84.1371 26.046 83.3238C24.8281 82.5104 23.8788 81.3541 23.3181 80.0012C22.7574 78.6482 22.6105 77.1594 22.896 75.723C23.1814 74.2865 23.8865 72.967 24.9219 71.9313C25.9574 70.8956 27.2767 70.1902 28.7131 69.9044C30.1494 69.6185 31.6383 69.765 32.9914 70.3254C34.3445 70.8858 35.501 71.8348 36.3147 73.0525C37.1284 74.2702 37.5627 75.7018 37.5627 77.1663C37.5605 79.1291 36.78 81.0109 35.3923 82.399C34.0045 83.7871 32.1229 84.5681 30.1602 84.5707V84.5707ZM30.1602 72.887C29.3138 72.887 28.4864 73.1379 27.7827 73.6082C27.0789 74.0784 26.5304 74.7467 26.2065 75.5287C25.8826 76.3106 25.7979 77.1711 25.963 78.0012C26.1281 78.8313 26.5357 79.5938 27.1342 80.1923C27.7327 80.7908 28.4952 81.1984 29.3253 81.3635C30.1554 81.5286 31.0159 81.4439 31.7978 81.12C32.5798 80.7961 33.2481 80.2476 33.7183 79.5438C34.1886 78.8401 34.4395 78.0127 34.4395 77.1663C34.4384 76.0317 33.9871 74.9439 33.1849 74.1416C32.3826 73.3394 31.2948 72.8881 30.1602 72.887V72.887Z" fill="#181B5E"/>
    <path d="M83.6748 43.258C83.6492 43.258 83.6229 43.258 83.5973 43.258C83.3792 43.2471 83.1658 43.1907 82.9708 43.0923C82.7758 42.9939 82.6037 42.8557 82.4654 42.6867L80.1285 39.8305C79.8661 39.5097 79.7419 39.0979 79.7832 38.6855C79.8244 38.2732 80.0278 37.8941 80.3485 37.6317C80.6693 37.3693 81.0811 37.2451 81.4935 37.2863C81.9058 37.3276 82.2849 37.531 82.5473 37.8517L83.791 39.3717L86.8535 36.3092C87.1482 36.0246 87.5429 35.8671 87.9526 35.8707C88.3623 35.8742 88.7542 36.0386 89.0439 36.3283C89.3336 36.618 89.4979 37.0098 89.5015 37.4195C89.505 37.8292 89.3475 38.2239 89.0629 38.5186L84.7779 42.803C84.4849 43.0946 84.0882 43.2582 83.6748 43.258Z" fill="#181B5E"/>
    <path d="M83.6748 83.7369C83.6492 83.7369 83.6229 83.7369 83.5973 83.7369C83.3792 83.7258 83.1659 83.6692 82.971 83.5708C82.7761 83.4725 82.6039 83.3344 82.4654 83.1656L80.1285 80.3087C79.8661 79.988 79.7419 79.5761 79.7832 79.1638C79.8244 78.7515 80.0278 78.3724 80.3485 78.11C80.6693 77.8476 81.0811 77.7234 81.4935 77.7646C81.9058 77.8059 82.2849 78.0092 82.5473 78.33L83.791 79.8506L86.8535 76.7881C87.147 76.4973 87.5438 76.3345 87.957 76.3355C88.3702 76.3364 88.7662 76.501 89.0584 76.7933C89.3505 77.0855 89.515 77.4815 89.5159 77.8948C89.5167 78.308 89.3539 78.7047 89.0629 78.9981L84.7779 83.2825C84.4848 83.5739 84.0881 83.7373 83.6748 83.7369Z" fill="#181B5E"/>
    <path d="M83.6748 124.216C83.6492 124.216 83.6229 124.216 83.5973 124.216C83.3792 124.205 83.1658 124.149 82.9708 124.051C82.7758 123.952 82.6037 123.814 82.4654 123.645L80.1285 120.789C79.8661 120.468 79.7419 120.056 79.7832 119.644C79.8244 119.231 80.0278 118.852 80.3485 118.59C80.6693 118.328 81.0811 118.203 81.4935 118.245C81.9058 118.286 82.2849 118.489 82.5473 118.81L83.791 120.33L86.8535 117.267C87.1482 116.983 87.5429 116.825 87.9526 116.829C88.3623 116.832 88.7542 116.997 89.0439 117.286C89.3336 117.576 89.4979 117.968 89.5015 118.378C89.505 118.787 89.3475 119.182 89.0629 119.477L84.7779 123.762C84.4848 124.053 84.0881 124.217 83.6748 124.216V124.216Z" fill="#181B5E"/>
    <path d="M68.0904 56.0744H149.375C149.789 56.0744 150.187 55.9098 150.48 55.6168C150.773 55.3237 150.937 54.9263 150.937 54.5119V24.53C150.937 24.1156 150.773 23.7182 150.48 23.4252C150.187 23.1321 149.789 22.9675 149.375 22.9675H68.0904C67.676 22.9675 67.2785 23.1321 66.9855 23.4252C66.6925 23.7182 66.5279 24.1156 66.5279 24.53V37.9582H64.6085C62.4631 37.9606 60.4064 38.814 58.8894 40.3309C57.3724 41.8479 56.5191 43.9047 56.5166 46.05V78.4375H51.1935C50.7891 72.9923 48.2894 67.9159 44.2199 64.2755C40.1504 60.635 34.828 58.7141 29.3715 58.9164C23.9151 59.1187 18.7495 61.4286 14.9608 65.3604C11.172 69.2922 9.05518 74.5398 9.05518 80C9.05518 85.4602 11.172 90.7078 14.9608 94.6396C18.7495 98.5715 23.9151 100.881 29.3715 101.084C34.828 101.286 40.1504 99.365 44.2199 95.7246C48.2894 92.0841 50.7891 87.0077 51.1935 81.5625H56.5166V113.95C56.5191 116.095 57.3724 118.152 58.8894 119.669C60.4064 121.186 62.4631 122.039 64.6085 122.042H66.5279V135.47C66.5279 135.884 66.6925 136.282 66.9855 136.575C67.2785 136.868 67.676 137.033 68.0904 137.033H149.375C149.789 137.033 150.187 136.868 150.48 136.575C150.773 136.282 150.937 135.884 150.937 135.47V105.488C150.937 105.074 150.773 104.676 150.48 104.383C150.187 104.09 149.789 103.926 149.375 103.926H68.0904C67.676 103.926 67.2785 104.09 66.9855 104.383C66.6925 104.676 66.5279 105.074 66.5279 105.488V118.917H64.6085C63.2916 118.915 62.0292 118.392 61.098 117.46C60.1669 116.529 59.6431 115.267 59.6416 113.95V81.5625H66.5279V94.9907C66.5279 95.4051 66.6925 95.8025 66.9855 96.0955C67.2785 96.3885 67.676 96.5532 68.0904 96.5532H149.375C149.789 96.5532 150.187 96.3885 150.48 96.0955C150.773 95.8025 150.937 95.4051 150.937 94.9907V65.0094C150.937 64.595 150.773 64.1976 150.48 63.9045C150.187 63.6115 149.789 63.4469 149.375 63.4469H68.0904C67.676 63.4469 67.2785 63.6115 66.9855 63.9045C66.6925 64.1976 66.5279 64.595 66.5279 65.0094V78.4375H59.6416V46.05C59.6431 44.7332 60.1669 43.4707 61.098 42.5396C62.0292 41.6084 63.2916 41.0846 64.6085 41.0832H66.5279V54.5119C66.5279 54.9263 66.6925 55.3237 66.9855 55.6168C67.2785 55.9098 67.676 56.0744 68.0904 56.0744V56.0744ZM30.1597 97.9732C26.605 97.9732 23.1301 96.919 20.1744 94.9441C17.2187 92.9692 14.9151 90.1622 13.5547 86.878C12.1944 83.5939 11.8385 79.9801 12.532 76.4936C13.2255 73.0072 14.9372 69.8047 17.4508 67.2911C19.9644 64.7775 23.1669 63.0657 26.6534 62.3722C30.1398 61.6788 33.7536 62.0347 37.0378 63.395C40.3219 64.7554 43.1289 67.059 45.1038 70.0147C47.0788 72.9704 48.1329 76.4453 48.1329 80C48.1274 84.7651 46.2321 89.3335 42.8626 92.7029C39.4932 96.0724 34.9248 97.9677 30.1597 97.9732V97.9732ZM69.6529 107.051H147.812V133.908H69.6529V107.051ZM69.6529 66.5719H147.812V93.4282H69.6529V66.5719ZM69.6529 26.0925H147.812V52.9494H69.6529V26.0925Z" fill="#181B5E"/>
    <path d="M84.5132 28.9438C82.4488 28.9438 80.4309 29.556 78.7144 30.7029C76.998 31.8498 75.6602 33.4799 74.8702 35.3871C74.0802 37.2943 73.8735 39.3929 74.2762 41.4176C74.679 43.4423 75.673 45.3021 77.1328 46.7618C78.5925 48.2215 80.4523 49.2156 82.4769 49.6183C84.5016 50.021 86.6002 49.8143 88.5074 49.0243C90.4147 48.2344 92.0448 46.8966 93.1916 45.1801C94.3385 43.4637 94.9507 41.4457 94.9507 39.3813C94.9474 36.6142 93.8467 33.9613 91.89 32.0046C89.9333 30.0479 87.2804 28.9472 84.5132 28.9438V28.9438ZM84.5132 46.6938C83.0669 46.6938 81.6531 46.265 80.4506 45.4615C79.248 44.658 78.3108 43.5159 77.7573 42.1797C77.2039 40.8435 77.059 39.3732 77.3412 37.9547C77.6233 36.5363 78.3198 35.2333 79.3425 34.2106C80.3651 33.188 81.6681 32.4915 83.0866 32.2094C84.5051 31.9272 85.9754 32.072 87.3116 32.6255C88.6477 33.1789 89.7898 34.1162 90.5933 35.3187C91.3968 36.5213 91.8257 37.9351 91.8257 39.3813C91.8237 41.3204 91.0527 43.1794 89.6819 44.5508C88.311 45.9221 86.4522 46.6937 84.5132 46.6963V46.6938Z" fill="#181B5E"/>
    <path d="M101.714 36.8394H119.509C119.924 36.8394 120.321 36.6747 120.614 36.3817C120.907 36.0887 121.072 35.6913 121.072 35.2769C121.072 34.8625 120.907 34.465 120.614 34.172C120.321 33.879 119.924 33.7144 119.509 33.7144H101.714C101.3 33.7144 100.903 33.879 100.61 34.172C100.316 34.465 100.152 34.8625 100.152 35.2769C100.152 35.6913 100.316 36.0887 100.61 36.3817C100.903 36.6747 101.3 36.8394 101.714 36.8394V36.8394Z" fill="#181B5E"/>
    <path d="M141.051 41.4375H101.714C101.3 41.4375 100.903 41.6021 100.61 41.8951C100.316 42.1882 100.152 42.5856 100.152 43C100.152 43.4144 100.316 43.8118 100.61 44.1049C100.903 44.3979 101.3 44.5625 101.714 44.5625H141.051C141.465 44.5625 141.862 44.3979 142.155 44.1049C142.448 43.8118 142.613 43.4144 142.613 43C142.613 42.5856 142.448 42.1882 142.155 41.8951C141.862 41.6021 141.465 41.4375 141.051 41.4375Z" fill="#181B5E"/>
    <path d="M84.5132 90.3001C86.5775 90.3001 88.5955 89.6879 90.3119 88.541C92.0284 87.3941 93.3662 85.764 94.1562 83.8568C94.9462 81.9496 95.1529 79.851 94.7501 77.8263C94.3474 75.8016 93.3533 73.9418 91.8936 72.4821C90.4339 71.0224 88.5741 70.0283 86.5494 69.6256C84.5248 69.2229 82.4261 69.4296 80.5189 70.2196C78.6117 71.0096 76.9816 72.3474 75.8347 74.0638C74.6878 75.7802 74.0757 77.7982 74.0757 79.8626C74.0792 82.6297 75.1799 85.2825 77.1366 87.2392C79.0933 89.1958 81.746 90.2966 84.5132 90.3001ZM84.5132 72.5501C85.9595 72.5501 87.3733 72.9789 88.5758 73.7824C89.7783 74.5859 90.7156 75.728 91.2691 77.0642C91.8225 78.4004 91.9673 79.8707 91.6852 81.2892C91.403 82.7076 90.7066 84.0106 89.6839 85.0333C88.6612 86.0559 87.3583 86.7524 85.9398 87.0346C84.5213 87.3167 83.051 87.1719 81.7148 86.6184C80.3786 86.065 79.2366 85.1277 78.4331 83.9252C77.6296 82.7226 77.2007 81.3088 77.2007 79.8626C77.2025 77.9234 77.9734 76.0642 79.3443 74.6927C80.7152 73.3213 82.5741 72.5496 84.5132 72.5469V72.5501Z" fill="#181B5E"/>
    <path d="M101.714 77.3188H119.509C119.924 77.3188 120.321 77.1542 120.614 76.8612C120.907 76.5682 121.072 76.1707 121.072 75.7563C121.072 75.3419 120.907 74.9445 120.614 74.6515C120.321 74.3585 119.924 74.1938 119.509 74.1938H101.714C101.3 74.1938 100.903 74.3585 100.61 74.6515C100.316 74.9445 100.152 75.3419 100.152 75.7563C100.152 76.1707 100.316 76.5682 100.61 76.8612C100.903 77.1542 101.3 77.3188 101.714 77.3188V77.3188Z" fill="#181B5E"/>
    <path d="M101.714 85.043H141.051C141.465 85.043 141.862 84.8783 142.155 84.5853C142.448 84.2923 142.613 83.8949 142.613 83.4805C142.613 83.0661 142.448 82.6686 142.155 82.3756C141.862 82.0826 141.465 81.918 141.051 81.918H101.714C101.3 81.918 100.903 82.0826 100.61 82.3756C100.316 82.6686 100.152 83.0661 100.152 83.4805C100.152 83.8949 100.316 84.2923 100.61 84.5853C100.903 84.8783 101.3 85.043 101.714 85.043Z" fill="#181B5E"/>
    <path d="M84.5132 109.901C82.4488 109.901 80.4309 110.513 78.7144 111.66C76.998 112.807 75.6602 114.437 74.8702 116.344C74.0802 118.252 73.8735 120.35 74.2762 122.375C74.679 124.4 75.673 126.259 77.1328 127.719C78.5925 129.179 80.4523 130.173 82.4769 130.576C84.5016 130.978 86.6002 130.772 88.5074 129.982C90.4147 129.192 92.0448 127.854 93.1916 126.137C94.3385 124.421 94.9507 122.403 94.9507 120.339C94.9472 117.571 93.8464 114.919 91.8898 112.962C89.9331 111.005 87.2803 109.905 84.5132 109.901ZM84.5132 127.654C83.0669 127.654 81.6531 127.225 80.4506 126.422C79.248 125.618 78.3108 124.476 77.7573 123.14C77.2039 121.804 77.059 120.334 77.3412 118.915C77.6233 117.497 78.3198 116.194 79.3425 115.171C80.3651 114.148 81.6681 113.452 83.0866 113.17C84.5051 112.888 85.9754 113.032 87.3116 113.586C88.6477 114.139 89.7898 115.077 90.5933 116.279C91.3968 117.482 91.8257 118.895 91.8257 120.342C91.823 122.28 91.0518 124.139 89.681 125.51C88.3102 126.88 86.4518 127.652 84.5132 127.654V127.654Z" fill="#181B5E"/>
    <path d="M101.714 117.798H119.509C119.924 117.798 120.321 117.633 120.614 117.34C120.907 117.047 121.072 116.65 121.072 116.236C121.072 115.821 120.907 115.424 120.614 115.131C120.321 114.838 119.924 114.673 119.509 114.673H101.714C101.3 114.673 100.903 114.838 100.61 115.131C100.316 115.424 100.152 115.821 100.152 116.236C100.152 116.65 100.316 117.047 100.61 117.34C100.903 117.633 101.3 117.798 101.714 117.798Z" fill="#181B5E"/>
    <path d="M141.051 122.397H101.714C101.3 122.397 100.903 122.562 100.61 122.855C100.316 123.148 100.152 123.545 100.152 123.959C100.152 124.374 100.316 124.771 100.61 125.064C100.903 125.357 101.3 125.522 101.714 125.522H141.051C141.465 125.522 141.862 125.357 142.155 125.064C142.448 124.771 142.613 124.374 142.613 123.959C142.613 123.545 142.448 123.148 142.155 122.855C141.862 122.562 141.465 122.397 141.051 122.397Z" fill="#181B5E"/>
</svg>
