<svg width="336" height="300" viewBox="0 0 336 300" fill="none" xmlns="http://www.w3.org/2000/svg">
<path d="M37.9078 233.238C37.5221 230.401 37.6027 226.905 40.0678 225.453C43.69 223.318 47.477 227.68 51.0221 229.945C51.8356 230.464 52.7718 230.892 53.7291 230.787C54.6828 230.682 55.5104 230.054 56.131 229.321C58.312 226.758 58.4067 223.048 58.0561 219.699C57.7054 216.351 57.0287 212.893 58.0385 209.685C59.0449 206.476 62.5198 203.724 65.6652 204.898C72.7448 207.546 72.9797 197.819 76.2057 194C77.5662 192.391 79.6736 191.251 81.7459 191.612C83.7797 191.97 85.3225 193.65 86.378 195.424C88.7799 199.463 89.6811 205.172 87.9208 209.643C86.2658 213.847 81.227 216.396 81.5496 221.498C81.774 225.008 84.8842 227.971 84.6318 231.478C84.4214 234.405 81.9177 236.706 81.3742 239.588C80.6449 243.473 83.6149 247.418 82.6436 251.251C82.0124 253.74 79.8279 255.599 79.1336 258.074C78.278 261.125 79.8524 264.263 80.3047 267.398C81.2725 274.113 76.416 281.487 69.4136 282.269C63.428 282.939 59.3359 276.743 55.7733 272.619C46.2287 261.563 39.8749 247.727 37.9078 233.238Z" fill="#AFD1E8"/>
<path d="M66.982 265.389C66.9715 265.389 66.9575 265.389 66.9434 265.389C66.5823 265.368 66.3053 265.059 66.3263 264.694L68.339 229.019C68.3566 228.658 68.6336 228.392 69.0333 228.402C69.3945 228.423 69.6715 228.732 69.6504 229.097L67.6377 264.772C67.6202 265.119 67.3292 265.389 66.982 265.389Z" fill="white"/>
<path d="M68.1588 244.525C68.0045 244.525 67.8502 244.472 67.7275 244.364L58.6948 236.467C58.4213 236.229 58.3932 235.815 58.6317 235.541C58.8701 235.268 59.2874 235.24 59.5574 235.478L68.5901 243.375C68.8636 243.613 68.8917 244.027 68.6532 244.301C68.5235 244.451 68.3411 244.525 68.1588 244.525Z" fill="white"/>
<path d="M64.4821 285.961C61.5717 285.369 58.5666 283.342 55.6282 281.785C49.2078 278.384 47.8473 272.605 21.0963 273.489C8.66228 273.899 14.9424 259.186 6.21825 250.265C3.46215 247.45 0.713062 244.273 0.0959198 240.381C-0.521222 236.488 1.97189 231.867 5.90617 231.656C8.26955 231.53 10.398 232.936 12.6001 233.799C14.8021 234.662 17.7756 234.76 19.0625 232.775C17.3163 230.426 14.8197 228.764 12.7158 226.726C10.6154 224.689 8.80955 221.965 9.11111 219.054C9.57747 214.555 13.943 216.435 15.2159 214.373C16.9236 211.606 15.1107 205.509 16.075 201.978C18.3332 193.699 30.9425 188.141 37.5032 195.291C45.0947 203.569 44.0252 217.234 43.4081 228.497C42.549 244.157 58.4194 246.173 65.3377 255.476C70.3274 262.18 78.1819 274.562 71.9474 282.792C69.6051 285.881 67.0804 286.491 64.4821 285.961Z" fill="#D85B7A"/>
<path d="M71.1118 288.055C70.9189 288.055 70.7296 287.971 70.5998 287.809L35.7558 244.687C35.5279 244.406 35.57 243.989 35.854 243.761C36.138 243.533 36.5483 243.579 36.7762 243.859L71.6202 286.985C71.8481 287.266 71.806 287.683 71.522 287.911C71.4063 288.009 71.259 288.055 71.1118 288.055Z" fill="white"/>
<path d="M53.9596 267.829C53.886 267.829 53.8088 267.815 53.7352 267.791L33.0749 260.273C32.7348 260.15 32.5595 259.771 32.6822 259.431C32.8049 259.091 33.1801 258.912 33.5238 259.039L54.184 266.557C54.5241 266.679 54.6995 267.058 54.5767 267.398C54.4821 267.665 54.2296 267.829 53.9596 267.829Z" fill="white"/>
<path d="M44.15 254.848C44.0764 254.848 43.9993 254.834 43.9256 254.81L23.2654 247.292C22.9253 247.169 22.7499 246.79 22.8727 246.45C22.9954 246.11 23.3706 245.935 23.7142 246.057L44.3745 253.575C44.7146 253.698 44.8899 254.077 44.7672 254.417C44.669 254.68 44.4165 254.848 44.15 254.848Z" fill="white"/>
<path d="M61.1673 276.747C60.8027 276.747 60.5081 276.452 60.5116 276.087L60.5607 257.917C60.5607 257.556 60.8553 257.261 61.2164 257.261C61.5811 257.261 61.8721 257.556 61.8721 257.92L61.8231 276.091C61.8231 276.452 61.5285 276.747 61.1673 276.747Z" fill="white"/>
<path d="M305.868 218.693C300.279 219.776 320.416 211.974 314.831 213.058C318.141 205.361 304.96 206.658 307.937 198.874C299.402 198.737 289.423 188.796 288.644 195.722C307.06 167.182 284.068 172.13 278.461 153.111C277.774 150.775 276.143 148.033 273.195 147.998C271.217 147.977 269.586 149.261 268.485 150.6C259.309 161.775 271.873 177.06 267.795 190.087C264.674 190.592 262.342 187.934 260.526 185.805C258.709 183.677 255.091 181.604 252.685 183.305C251.026 184.476 251.349 186.612 251.896 188.344C254.529 196.637 259.186 204.502 265.512 211.343C262.833 212.865 259.326 210.989 256.721 209.386C254.116 207.784 249.862 206.581 248.057 208.794C247.026 210.06 247.531 211.753 248.214 213.166C250.248 217.36 253.604 221.123 257.875 223.998C264.898 228.725 255.525 228.998 255.767 233.265C256.037 238.003 259.965 238.764 259.011 244.314C257.805 251.313 251.419 256.037 263.734 256.91C271.83 257.485 281.624 252.092 287.028 247.765C291.835 243.918 295.724 238.816 298.837 233.981C299.861 232.385 305.1 218.84 305.868 218.693Z" fill="#ED7061"/>
<path d="M260.177 264.652C284.824 260.192 308.56 251.59 329.837 239.405C331.899 238.224 334.02 236.933 335.212 234.994C336.405 233.055 336.328 230.285 334.399 228.928C332.87 227.855 330.742 227.967 328.82 228.128C323.136 228.605 317.452 229.086 311.772 229.563C318.017 223.903 323.95 217.949 329.532 211.739C330.935 210.179 332.313 207.812 330.794 206.346C329.96 205.54 328.61 205.455 327.396 205.42C324.346 205.34 321.295 205.256 318.245 205.175C321.449 200.978 324.051 196.402 325.966 191.594C326.8 189.494 327.516 187.239 327.011 185.051C326.506 182.867 324.395 180.836 321.954 181.008C320.657 181.099 319.5 181.769 318.448 182.467C309.811 188.218 304.236 197.625 303.696 207.367C303.475 211.36 303.261 216.511 299.099 217.774C297.609 218.226 295.982 217.984 294.418 218.138C288.415 218.735 285.01 224.808 284.154 230.26C283.302 235.709 283.804 241.565 280.876 246.376C279.631 248.421 277.832 250.146 276.545 252.165C275.258 254.189 274.522 256.738 275.616 258.852C276.71 260.967 280.21 261.987 281.949 260.269" fill="#4B6DC6"/>
<path d="M272.771 248.659C272.746 248.659 272.722 248.659 272.693 248.655C272.332 248.613 272.073 248.291 272.115 247.93L279.033 186.752C279.075 186.391 279.401 186.135 279.759 186.173C280.12 186.215 280.38 186.538 280.338 186.899L273.419 248.077C273.384 248.41 273.1 248.659 272.771 248.659Z" fill="white"/>
<path d="M275.344 225.874C275.197 225.874 275.046 225.825 274.923 225.719C274.646 225.488 274.608 225.071 274.843 224.794L290.58 205.995C290.815 205.718 291.229 205.68 291.506 205.915C291.783 206.146 291.821 206.563 291.586 206.84L275.849 225.639C275.716 225.797 275.53 225.874 275.344 225.874Z" fill="white"/>
<path d="M277.061 210.733C276.864 210.733 276.668 210.642 276.538 210.473L266.864 197.703C266.643 197.415 266.702 197.001 266.99 196.784C267.277 196.567 267.688 196.619 267.909 196.91L277.583 209.681C277.804 209.968 277.744 210.382 277.457 210.6C277.338 210.691 277.197 210.733 277.061 210.733Z" fill="white"/>
<path d="M289.548 257.018C289.446 257.018 289.341 256.994 289.246 256.945C288.924 256.78 288.798 256.384 288.962 256.061L309.886 215.519C310.054 215.197 310.45 215.07 310.769 215.235C311.092 215.4 311.218 215.796 311.053 216.119L290.13 256.661C290.014 256.889 289.786 257.018 289.548 257.018Z" fill="white"/>
<path d="M301.214 234.419C300.948 234.419 300.696 234.254 300.597 233.988L297.473 225.442C297.35 225.102 297.526 224.724 297.866 224.601C298.206 224.475 298.585 224.653 298.707 224.994L301.832 233.539C301.954 233.879 301.779 234.258 301.439 234.38C301.365 234.405 301.288 234.419 301.214 234.419Z" fill="white"/>
<path d="M298.063 241.344C297.702 241.344 297.407 241.053 297.407 240.692C297.404 240.328 297.695 240.033 298.059 240.03L315.101 239.903C315.104 239.903 315.104 239.903 315.104 239.903C315.466 239.903 315.76 240.194 315.76 240.556C315.764 240.92 315.473 241.215 315.108 241.218L298.066 241.344C298.066 241.344 298.066 241.344 298.063 241.344Z" fill="white"/>
<path d="M138.837 235.282C139.048 234.633 139.268 233.992 139.5 233.35C147.533 211.108 167.696 195.417 188.784 184.715C196.06 181.023 203.767 177.614 209.269 171.594C221.801 157.883 217.982 135.266 201.68 126.413C209.251 130.522 231.156 122.029 219.367 113.375C216.58 111.328 213.066 110.591 209.952 109.087C206.839 107.583 203.855 104.742 204.068 101.289C204.163 99.7808 204.864 98.3747 205.713 97.1229C209.43 91.6528 215.973 88.5495 219.479 82.9426C220.254 81.7013 220.882 80.2847 220.759 78.826C220.563 76.5117 218.48 74.7164 216.243 74.0993C193.991 67.9699 176.844 95.0155 154.816 92.5539C153.557 92.4137 152.211 92.1928 151.089 92.7783C149.784 93.4621 149.223 95.0085 148.848 96.4321C146.243 106.243 147.014 116.921 151.008 126.255C154.325 134.011 159.915 141.483 159.073 149.878C158.319 157.392 152.428 163.865 152.586 171.415C152.628 173.424 153.102 175.475 152.586 177.418C151.808 180.346 149.009 182.236 146.299 183.589C133.115 190.171 117.76 190.273 103.408 193.611C102.394 193.846 101.332 194.126 100.595 194.859C99.312 196.132 99.4803 198.204 99.6592 200.003C101.062 214.019 97.7131 228.027 94.3889 241.713C90.7176 256.829 87.0463 271.946 83.375 287.062C82.9858 288.661 82.6562 290.537 83.7187 291.793C84.3007 292.483 85.1914 292.824 86.0435 293.122C90.9876 294.85 96.0896 296.116 101.269 296.902C105.371 297.526 109.649 297.831 113.604 296.572C119.751 294.615 124.173 289.163 127.048 283.388C134.426 268.562 133.718 251.016 138.837 235.282Z" fill="#D4A79A"/>
<path d="M108.756 151.084C111.336 144.268 114.671 137.742 116.919 130.806C118.724 125.231 119.804 119.445 120.699 113.652C122.333 103.087 122.34 92.4276 122.774 81.7433C128.241 84.2785 134.504 90.2641 135.433 96.2181C136.359 102.172 134.395 108.235 133.746 114.227C132.151 129.014 131.698 145.158 140.64 157.042C144.02 161.533 148.421 165.159 151.955 169.528C155.49 173.901 158.197 179.459 157.243 184.999C156.062 191.875 149.778 196.56 143.806 200.168C135.98 204.898 127.817 209.067 119.398 212.63C114.436 214.73 113.658 216.961 106.953 217.031C103.278 217.069 98.2676 204.656 99.6281 189.561C101.132 172.817 102.717 167.039 108.756 151.084Z" fill="#D4A79A"/>
<path d="M194.94 19.9169H135.154C128.355 19.9169 122.794 25.4782 122.794 32.2772V92.2417C149.128 68.601 175.973 45.5318 203.962 23.8897C201.704 21.4597 198.499 19.9169 194.94 19.9169Z" fill="#EFF0FC"/>
<path d="M203.966 23.8898C175.978 45.5318 149.135 68.601 122.798 92.2418V144.748V178.6C122.798 185.395 128.359 190.96 135.159 190.96H194.941C201.74 190.96 207.301 185.399 207.301 178.6V32.2738C207.301 29.0969 206.077 26.2005 204.089 24.0055C204.047 23.9669 204.005 23.9318 203.966 23.8898Z" fill="#E0E7F9"/>
<path fill-rule="evenodd" clip-rule="evenodd" d="M135.154 19.9169H194.94C201.736 19.9169 207.297 25.4782 207.297 32.2772V178.603C207.297 185.402 201.736 190.963 194.937 190.963H135.154C128.355 190.963 122.794 185.402 122.794 178.603V32.2772C122.794 25.4782 128.355 19.9169 135.154 19.9169ZM189.575 175.005C196.374 175.005 201.935 169.444 201.935 162.645V38.0243C201.935 31.2252 196.371 25.6639 189.575 25.6639H140.516C133.717 25.6639 128.155 31.2252 128.155 38.0243V162.645C128.155 169.444 133.717 175.005 140.516 175.005H189.575Z" fill="#4B6DC6"/>
<path d="M173.344 23.8301H156.751C156.548 23.8301 156.383 23.6653 156.383 23.462V22.7887C156.383 22.5853 156.548 22.4205 156.751 22.4205H173.344C173.547 22.4205 173.712 22.5853 173.712 22.7887V23.462C173.712 23.6653 173.547 23.8301 173.344 23.8301Z" fill="#E3E5FC"/>
<path d="M165.045 186.836C167.465 186.836 169.428 184.874 169.428 182.453C169.428 180.033 167.465 178.07 165.045 178.07C162.624 178.07 160.661 180.033 160.661 182.453C160.661 184.874 162.624 186.836 165.045 186.836Z" fill="#4B369D"/>
<path opacity="0.36" d="M166.745 120.497C179.698 120.497 190.199 109.996 190.199 97.0421C190.199 84.0883 179.698 73.5872 166.745 73.5872C153.791 73.5872 143.29 84.0883 143.29 97.0421C143.29 109.996 153.791 120.497 166.745 120.497Z" fill="#D85B7A"/>
<path opacity="0.36" d="M166.745 114.802C176.553 114.802 184.505 106.851 184.505 97.0421C184.505 87.2333 176.553 79.2817 166.745 79.2817C156.936 79.2817 148.984 87.2333 148.984 97.0421C148.984 106.851 156.936 114.802 166.745 114.802Z" fill="#D85B7A"/>
<path d="M166.744 106.629C172.039 106.629 176.331 102.337 176.331 97.0422C176.331 91.7476 172.039 87.4554 166.744 87.4554C161.45 87.4554 157.158 91.7476 157.158 97.0422C157.158 102.337 161.45 106.629 166.744 106.629Z" fill="#D85B7A"/>
<path d="M223.686 25.3659C222.96 25.3659 222.371 24.7769 222.371 24.051C222.371 12.2412 212.763 2.62987 200.95 2.62987C200.224 2.62987 199.635 2.04078 199.635 1.31493C199.635 0.58909 200.224 0 200.95 0C214.208 0 224.997 10.786 224.997 24.0475C225.001 24.7769 224.412 25.3659 223.686 25.3659Z" fill="#889ED8"/>
<path d="M216.321 25.366C215.595 25.366 215.006 24.7769 215.006 24.0511C215.006 16.7996 209.108 10.9017 201.857 10.9017C201.131 10.9017 200.542 10.3126 200.542 9.58678C200.542 8.86094 201.131 8.27185 201.857 8.27185C210.556 8.27185 217.632 15.3479 217.632 24.0511C217.636 24.7769 217.047 25.366 216.321 25.366Z" fill="#889ED8"/>
<path d="M270.129 41.4678H236.498C235.408 41.4678 234.517 40.5771 234.517 39.4866V37.5545C234.517 36.464 235.408 35.5734 236.498 35.5734H270.129C271.219 35.5734 272.11 36.464 272.11 37.5545V39.4866C272.11 40.5771 271.219 41.4678 270.129 41.4678Z" fill="#E0E7F9"/>
<path d="M270.129 51.4718H236.498C235.408 51.4718 234.517 50.5812 234.517 49.4906V47.5586C234.517 46.468 235.408 45.5774 236.498 45.5774H270.129C271.219 45.5774 272.11 46.468 272.11 47.5586V49.4906C272.11 50.5776 271.219 51.4718 270.129 51.4718Z" fill="#E0E7F9"/>
<path d="M270.129 61.4723H236.498C235.408 61.4723 234.517 60.5816 234.517 59.4911V57.559C234.517 56.4685 235.408 55.5779 236.498 55.5779H270.129C271.219 55.5779 272.11 56.4685 272.11 57.559V59.4911C272.11 60.5816 271.219 61.4723 270.129 61.4723Z" fill="#E0E7F9"/>
<path d="M270.129 71.4763H236.498C235.408 71.4763 234.517 70.5857 234.517 69.4952V67.5631C234.517 66.4726 235.408 65.5819 236.498 65.5819H270.129C271.219 65.5819 272.11 66.4726 272.11 67.5631V69.4952C272.11 70.5857 271.219 71.4763 270.129 71.4763Z" fill="#E0E7F9"/>
<path d="M93.3732 82.5814H16.013C14.9225 82.5814 14.0318 81.6907 14.0318 80.6002V76.5467C14.0318 75.4562 14.9225 74.5656 16.013 74.5656H93.3732C94.4637 74.5656 95.3543 75.4562 95.3543 76.5467V80.6002C95.3543 81.6907 94.4637 82.5814 93.3732 82.5814Z" fill="#E0E7F9"/>
<path d="M93.3712 96.1831H46.2159C45.1254 96.1831 44.2348 95.2924 44.2348 94.2019V90.1484C44.2348 89.0579 45.1254 88.1672 46.2159 88.1672H93.3712C94.4617 88.1672 95.3524 89.0579 95.3524 90.1484V94.2019C95.3524 95.2924 94.4617 96.1831 93.3712 96.1831Z" fill="#E0E7F9"/>
<path d="M93.3774 126.682H48.8485C47.758 126.682 46.8673 125.792 46.8673 124.701V120.651C46.8673 119.561 47.758 118.67 48.8485 118.67H93.3774C94.4679 118.67 95.3586 119.561 95.3586 120.651V124.701C95.3586 125.792 94.4679 126.682 93.3774 126.682Z" fill="#E0E7F9"/>
<path d="M93.3763 140.284H66.8567C65.7662 140.284 64.8756 139.394 64.8756 138.303V134.25C64.8756 133.159 65.7662 132.268 66.8567 132.268H93.3763C94.4668 132.268 95.3575 133.159 95.3575 134.25V138.303C95.3575 139.394 94.4668 140.284 93.3763 140.284Z" fill="#E0E7F9"/>
<path d="M234.93 232.095C234.52 228.942 234.264 225.748 234.204 222.497C233.825 201.045 236.981 172.993 216.468 159.861C207.239 153.952 195.04 153.574 187.55 144.674C184.794 141.399 183.311 137.209 181.905 133.113C177.522 120.357 173.289 107.544 169.215 94.6787C165.028 95.1381 162.633 99.8683 161.711 104.125C159.036 116.465 162.377 129.333 166.75 141.136C171.122 152.939 176.603 164.493 178.426 176.997C179.117 181.741 177.673 188.404 173.047 188.228C170.603 188.134 168.749 185.939 167.5 183.758C162.426 174.897 160.915 162.249 151.633 158.556C149.175 157.578 145.662 157.932 144.859 160.534C144.424 161.937 143.954 163.441 144.505 164.798C152.226 183.929 158.001 201.213 169.888 217.893C174.422 224.258 184.037 230.899 188.402 237.403C204.034 260.697 203.663 264.288 216.44 289.138C217.285 290.783 219 275.042 220.578 275.936C222.096 276.799 221.058 283.738 222.776 283.524C231.455 282.448 241.554 288.724 249.338 284.604C250.632 283.92 251.996 283.167 252.711 281.852C253.427 280.533 253.336 278.927 253.227 277.419C251.365 251.987 238.205 257.183 234.93 232.095Z" fill="#EAC2AB"/>
<path d="M291.733 250.511C288.223 248.189 284.029 246.825 279.53 246.825H149.492C149.239 246.825 148.997 246.853 148.745 246.864C167.824 251.878 186.71 257.881 205.399 264.274C234.714 275.996 262.495 259.501 291.733 250.511Z" fill="#E0E7F9"/>
<path d="M291.733 250.511C262.496 259.501 234.714 275.996 205.404 264.274C186.714 257.881 167.828 251.875 148.749 246.864C136.866 247.264 127.261 257.082 127.261 269.06C127.261 281.291 137.265 291.295 149.496 291.295H279.531C291.758 291.295 301.765 281.291 301.765 269.06C301.762 261.332 297.761 254.498 291.733 250.511Z" fill="#889ED8"/>
<path d="M172.405 299.553H53.749C45.0634 299.553 37.9593 292.448 37.9593 283.763V281.361C37.9593 272.675 45.0634 265.571 53.749 265.571H172.405C181.091 265.571 188.195 272.675 188.195 281.361V283.763C188.195 292.445 181.091 299.553 172.405 299.553Z" fill="#4B6DC6"/>
<path d="M172.813 282.679L172.284 283.328C172.161 283.479 171.937 283.5 171.786 283.377L162.459 275.778C162.308 275.656 162.287 275.431 162.409 275.281L162.939 274.632C163.062 274.481 163.286 274.46 163.437 274.583L172.768 282.181C172.915 282.304 172.936 282.528 172.813 282.679Z" fill="white"/>
<path d="M172.813 282.441L172.284 281.792C172.161 281.641 171.937 281.62 171.786 281.743L162.459 289.342C162.308 289.464 162.287 289.689 162.409 289.84L162.939 290.488C163.062 290.639 163.286 290.66 163.437 290.537L172.768 282.939C172.915 282.816 172.936 282.592 172.813 282.441Z" fill="white"/>
<path d="M160.005 282.679L159.476 283.328C159.353 283.479 159.129 283.5 158.978 283.377L149.647 275.778C149.496 275.656 149.475 275.431 149.598 275.281L150.128 274.632C150.25 274.481 150.475 274.46 150.626 274.583L159.956 282.181C160.104 282.304 160.128 282.528 160.005 282.679Z" fill="white"/>
<path d="M160.005 282.441L159.476 281.792C159.353 281.641 159.129 281.62 158.978 281.743L149.647 289.342C149.496 289.464 149.475 289.689 149.598 289.84L150.128 290.488C150.25 290.639 150.475 290.66 150.626 290.537L159.956 282.939C160.104 282.816 160.128 282.592 160.005 282.441Z" fill="white"/>
<path d="M146.024 282.679L145.494 283.328C145.372 283.479 145.147 283.5 144.996 283.377L135.666 275.778C135.515 275.656 135.494 275.431 135.616 275.281L136.146 274.632C136.269 274.481 136.493 274.46 136.644 274.583L145.975 282.181C146.125 282.304 146.146 282.528 146.024 282.679Z" fill="white"/>
<path d="M146.024 282.441L145.494 281.792C145.372 281.641 145.147 281.62 144.996 281.743L135.666 289.342C135.515 289.464 135.494 289.689 135.616 289.84L136.146 290.488C136.269 290.639 136.493 290.66 136.644 290.537L145.975 282.939C146.125 282.816 146.146 282.592 146.024 282.441Z" fill="white"/>
</svg>
