<svg width="319" height="319" viewBox="0 0 319 319" fill="none" xmlns="http://www.w3.org/2000/svg">
    <circle cx="159.5" cy="159.5" r="157.5" fill="#F9F9F9" stroke="#FF7E79" stroke-width="4"/>
    <g filter="url(#filter0_d)">
        <path d="M186.408 50H132.592C107.412 50 87.0002 70.4244 87.0002 95.6193V191.702C87.0002 216.897 107.412 237.321 132.592 237.321H186.408C211.587 237.321 232 216.897 232 191.702V95.6193C232 70.4244 211.587 50 186.408 50Z" fill="white" stroke="#100E6D" stroke-width="3" stroke-miterlimit="10"/>
        <path d="M133.487 138.823C138.781 134.481 139.909 129.184 140.387 123.579C140.644 118.935 142.593 114.546 145.865 111.242C149.138 107.939 153.507 105.949 158.146 105.65C162.738 105.254 167.318 106.542 171.032 109.274C174.746 112.006 177.34 115.997 178.331 120.501C179.753 127.307 178.539 134.126 176.591 140.711C173.091 152.701 165.753 163.208 155.705 170.619C145.657 178.03 133.455 181.934 120.973 181.732C119.601 181.732 117.003 182.639 117.027 180.505C117.052 178.371 119.564 179.438 120.924 179.451C151.344 179.794 176.48 155.218 176.505 125.063C176.54 120.706 174.896 116.503 171.916 113.327C168.935 110.15 164.847 108.244 160.499 108.005C158.315 107.845 156.121 108.121 154.044 108.817C151.968 109.512 150.05 110.614 148.403 112.057C146.755 113.5 145.41 115.256 144.447 117.224C143.483 119.191 142.919 121.331 142.789 123.518C142.299 130.876 140.129 137.29 133.842 141.717C127.8 145.972 121.231 146.536 114.233 144.255C113.844 144.192 113.494 143.983 113.253 143.671C113.011 143.359 112.897 142.968 112.934 142.575C113.252 133.194 112.027 123.751 114.159 114.455C118.338 95.9747 134.847 81.0627 152.827 78.7572C162.62 77.471 172.571 79.2855 181.282 83.9459C189.993 88.6064 197.027 95.8789 201.397 104.743C207.267 116.847 206.691 129.269 203.958 141.864C202.425 148.469 200.147 154.879 197.168 160.97C199.411 161.73 201.409 160.835 203.394 160.798C204.326 160.798 205.625 160.185 205.845 161.583C206.066 162.981 204.742 163.03 203.811 163.177C195.783 164.404 188.001 163.778 180.635 160.05C179.888 159.67 178.944 158.395 178.098 159.67C177.081 161.215 175.647 162.527 175.206 164.391C175.206 164.637 176.198 165.201 176.799 165.52C184.594 169.554 192.94 170.719 201.605 170.18C202.095 170.18 202.585 170.045 203.076 169.971C203.934 169.861 204.804 169.971 204.988 170.915C205.233 172.228 204.142 172.228 203.26 172.363C197.528 173.086 191.712 172.749 186.101 171.369C182.506 170.635 179.045 169.349 175.843 167.555C174.017 166.513 172.693 166.329 171.468 168.328C170.66 169.427 169.779 170.472 168.833 171.455C174.523 175.094 180.895 177.535 187.56 178.629C191.386 179.228 195.257 179.491 199.129 179.414C200.208 179.414 201.985 178.703 202.034 180.395C202.083 182.087 200.146 181.732 198.994 181.756C188.525 182.135 178.157 179.587 169.053 174.398C168.257 173.957 167.497 172.816 166.431 173.601C164.866 174.647 163.438 175.882 162.178 177.28C161.565 178.04 162.987 178.408 163.563 178.764C170.942 183.273 179.146 186.262 187.695 187.557C189.937 187.9 192.229 188.023 194.497 188.243C195.465 188.341 196.776 188.243 196.739 189.568C196.703 190.892 195.354 190.671 194.435 190.622C184.631 190.12 175.083 187.949 166.578 182.995C161.675 180.15 158.133 179.475 152.925 182.762C144.627 188.01 134.933 189.825 125.14 190.549C124.086 190.622 122.309 191.407 122.089 189.813C121.819 187.912 123.743 188.305 124.92 188.207C138.806 187.103 151.515 182.909 162.325 173.883C174.388 164.122 182.303 150.147 184.471 134.776C185.329 129.086 186.015 123.383 184.471 117.705C182.872 112.137 179.45 107.268 174.754 103.878C170.058 100.489 164.36 98.777 158.575 99.0161C146.625 99.4575 136.232 107.944 134.063 119.447C132.984 125.603 133.597 131.869 133.487 138.823ZM187.498 160.075C188.577 160.332 189.447 160.516 190.293 160.749C193.185 161.546 194.84 160.749 196.163 157.769C200.221 148.733 202.708 139.07 203.517 129.196C204.289 118.932 202.463 109.219 196.445 100.684C185.648 85.3425 170.769 78.4015 152.165 81.4305C135.203 84.1898 123.866 94.4786 117.848 110.409C114.061 120.342 115.642 130.778 115.642 141.067C115.642 143.519 118.841 142.882 120.741 143.151C122.64 143.421 121.966 141.827 122.064 140.932C122.297 133.917 121.66 126.878 122.518 119.864C123.694 111.412 127.713 103.613 133.914 97.7546C140.115 91.8959 148.126 88.3267 156.626 87.6357C165.501 86.9303 174.337 89.4059 181.556 94.6203C188.774 99.8346 193.904 107.448 196.029 116.099C198.186 125.995 196.482 135.573 193.847 145.089C192.202 150.271 190.077 155.288 187.498 160.075ZM124.405 131.722C124.405 134.886 124.405 138.062 124.405 141.226C124.405 141.815 123.988 142.661 125.042 142.918C127.432 143.507 131.011 140.576 131.072 138.013C131.195 132.274 130.766 126.523 131.415 120.845C132.935 107.355 145.473 96.5511 159.678 96.6124C173.698 96.6124 186.285 107.478 187.523 120.906C188.483 132.512 186.177 144.156 180.868 154.519C179.826 156.653 180.365 157.291 182.216 158.198C184.067 159.106 185.17 159.425 186.346 157.07C191.103 147.802 193.883 137.646 194.509 127.246C195.563 109.256 182.78 92.9089 165.56 90.3091C146.662 87.415 129.479 98.8934 125.202 117.288C124.16 122.059 124.405 126.866 124.405 131.722Z" fill="#0D0D79"/>
        <path d="M121.685 172.902C119.736 172.706 117.775 172.485 115.802 172.301C114.882 172.215 113.829 172.191 114.025 170.915C114.221 169.64 115.25 169.873 116.157 169.983C122.272 170.775 128.484 170.32 134.418 168.647C153.538 163.484 167.718 144.697 167.387 124.941C167.41 122.887 166.63 120.905 165.212 119.42C163.794 117.935 161.852 117.064 159.8 116.994C158.759 116.954 157.72 117.126 156.746 117.497C155.772 117.869 154.883 118.434 154.132 119.157C153.381 119.881 152.784 120.749 152.377 121.709C151.969 122.669 151.76 123.701 151.76 124.744C151.16 136.922 145.731 146.082 134.737 151.65C128.75 154.688 121.879 155.501 115.348 153.943C114.404 153.735 113.02 153.735 113.277 152.398C113.534 151.061 114.956 151.441 115.998 151.638C131.097 154.495 144.824 145.947 148.476 131.305C148.959 129.082 149.246 126.821 149.334 124.548C149.449 121.851 150.613 119.307 152.578 117.457C154.543 115.608 157.152 114.601 159.849 114.652C162.551 114.748 165.107 115.902 166.966 117.865C168.825 119.829 169.839 122.445 169.789 125.149C169.718 136.753 165.434 147.936 157.733 156.613C150.033 165.291 139.442 170.871 127.935 172.313C125.876 172.534 123.805 172.681 121.685 172.902Z" fill="#0D0D79"/>
        <path d="M120.9 163.754C119.674 163.631 117.395 163.459 115.127 163.165C114.196 163.043 112.897 162.92 113.166 161.522C113.399 160.296 114.551 160.639 115.397 160.786C121 161.694 126.735 161.325 132.175 159.707C139.349 157.616 145.704 153.364 150.376 147.529C155.047 141.694 157.807 134.56 158.28 127.099C158.28 126.412 158.28 125.713 158.366 125.026C158.452 124.34 158.795 123.653 159.592 123.714C159.766 123.726 159.936 123.776 160.09 123.859C160.244 123.942 160.378 124.057 160.483 124.197C160.589 124.336 160.664 124.496 160.702 124.667C160.741 124.838 160.742 125.015 160.707 125.186C160.486 127.553 160.413 129.944 159.972 132.262C156.528 150.264 140.338 163.656 120.9 163.754Z" fill="#0F0F7A"/>
        <path d="M187.817 197.76C179.59 197.136 171.552 194.982 164.114 191.407C162.74 190.624 161.186 190.211 159.604 190.211C158.022 190.211 156.468 190.624 155.094 191.407C147.692 195.012 139.674 197.176 131.465 197.784C130.594 197.858 129.197 198.52 129.013 197.098C128.83 195.675 130.337 195.601 131.318 195.503C140.584 194.526 149.591 191.849 157.888 187.606C158.439 187.298 159.063 187.142 159.694 187.155C160.325 187.168 160.941 187.349 161.479 187.679C169.698 191.863 178.611 194.51 187.78 195.491C188.773 195.589 190.33 195.491 190.232 196.987C190.134 198.483 188.638 197.649 187.817 197.76Z" fill="#0D0D7A"/>
        <path d="M176.395 205.007C171.372 204.268 166.466 202.883 161.798 200.887C161.096 200.55 160.327 200.376 159.549 200.376C158.77 200.376 158.002 200.55 157.3 200.887C152.669 202.891 147.787 204.257 142.789 204.946C141.968 205.069 140.84 205.547 140.546 204.308C140.252 203.07 141.478 202.935 142.274 202.775C147.724 201.76 153.043 200.139 158.133 197.944C158.583 197.737 159.072 197.631 159.567 197.631C160.062 197.631 160.551 197.737 161.001 197.944C166.089 200.134 171.404 201.754 176.848 202.775C177.657 202.922 178.846 203.021 178.576 204.308C178.331 205.449 177.375 205.056 176.395 205.007Z" fill="#0D0D79"/>
        <path d="M159.543 208.956C157.753 208.956 155.976 208.956 154.199 208.956C153.378 208.956 152.508 208.87 152.459 207.803C152.41 206.736 153.305 206.577 154.101 206.577C157.778 206.577 161.455 206.577 165.131 206.577C165.953 206.577 166.823 206.749 166.725 207.803C166.627 208.858 165.732 208.882 164.935 208.895C163.097 208.968 161.32 208.956 159.543 208.956Z" fill="#12137C"/>
        <path d="M64.9343 208.437C64.9238 203.502 65.8905 198.613 67.7786 194.052C69.6668 189.491 72.4392 185.347 75.9365 181.86C79.4337 178.372 83.5869 175.609 88.1572 173.73C92.7275 171.851 97.6247 170.892 102.567 170.908C107.508 170.913 112.399 171.89 116.96 173.784C121.522 175.678 125.665 178.451 129.152 181.945C132.64 185.439 135.403 189.585 137.284 194.147C139.165 198.708 140.128 203.595 140.116 208.528C140.122 213.463 139.152 218.351 137.262 222.911C135.372 227.471 132.598 231.613 129.1 235.1C125.602 238.587 121.449 241.35 116.88 243.23C112.31 245.11 107.413 246.071 102.47 246.056C97.528 246.061 92.6333 245.09 88.0679 243.2C83.5025 241.309 79.3565 238.536 75.8682 235.04C72.3798 231.544 69.618 227.394 67.7416 222.828C65.8651 218.263 64.9111 213.372 64.9343 208.437ZM134.102 208.612C134.134 204.462 133.344 200.346 131.776 196.501C130.208 192.657 127.895 189.16 124.968 186.212C122.042 183.264 118.56 180.923 114.724 179.324C110.888 177.725 106.773 176.899 102.616 176.895C94.2212 176.869 86.1601 180.174 80.2054 186.082C74.2507 191.99 70.8902 200.018 70.8629 208.401C70.8446 212.549 71.6459 216.659 73.2211 220.498C74.7963 224.336 77.1144 227.826 80.0426 230.769C82.9708 233.711 86.4515 236.048 90.2855 237.645C94.1194 239.242 98.2313 240.068 102.386 240.076C106.543 240.109 110.665 239.32 114.515 237.753C118.365 236.187 121.865 233.874 124.814 230.948C127.764 228.022 130.103 224.542 131.697 220.708C133.291 216.875 134.109 212.763 134.102 208.612V208.612Z" fill="#ABD3FA"/>
        <path d="M134.102 208.613C134.11 212.763 133.295 216.873 131.703 220.707C130.111 224.54 127.774 228.021 124.827 230.947C121.881 233.874 118.382 236.189 114.535 237.757C110.687 239.326 106.566 240.119 102.41 240.088C98.2556 240.08 94.1438 239.254 90.3098 237.657C86.4758 236.06 82.9951 233.723 80.0669 230.781C77.1388 227.839 74.8207 224.348 73.2455 220.51C71.6703 216.672 70.8689 212.561 70.8873 208.413C70.9146 200.031 74.2751 192.003 80.2297 186.094C86.1844 180.186 94.2455 176.881 102.64 176.907C106.794 176.915 110.906 177.743 114.738 179.342C118.571 180.942 122.049 183.282 124.973 186.229C127.896 189.175 130.208 192.669 131.775 196.511C133.342 200.352 134.133 204.465 134.102 208.613V208.613ZM131.677 208.425C131.685 204.602 130.936 200.816 129.473 197.283C128.01 193.75 125.861 190.542 123.151 187.841C120.441 185.141 117.223 183.002 113.682 181.549C110.141 180.095 106.347 179.355 102.519 179.371C94.8362 179.354 87.4588 182.373 81.9962 187.767C76.5337 193.161 73.4294 200.494 73.3606 208.165C73.306 224.423 86.1818 237.649 102.089 237.661C118.759 237.655 131.647 224.931 131.665 208.425H131.677Z" fill="#0E0E6D"/>
        <path d="M131.665 208.425C131.665 224.931 118.759 237.655 102.076 237.637C86.1695 237.637 73.2938 224.399 73.3483 208.14C73.4171 200.469 76.5214 193.137 81.984 187.743C87.4465 182.348 94.824 179.33 102.507 179.346C106.337 179.33 110.133 180.071 113.676 181.527C117.218 182.982 120.437 185.123 123.148 187.825C125.858 190.528 128.006 193.74 129.468 197.275C130.93 200.811 131.676 204.6 131.665 208.425V208.425ZM96.5053 224.804C97.4423 224.818 98.3719 224.636 99.235 224.271C100.098 223.907 100.876 223.367 101.519 222.686C107.144 217.069 112.8 211.488 118.371 205.828C121.323 202.802 121.469 199.454 118.941 197.045C116.565 194.775 113.164 194.981 110.327 197.705C107.49 200.429 104.774 203.244 101.985 206.004C100.421 207.559 98.9968 210.011 97.1842 210.368C95.2019 210.749 94.0077 207.814 92.3346 206.44C89.4612 204.018 86.2726 203.94 83.9508 206.288C81.6291 208.637 81.7988 211.948 84.357 214.623C87.0667 217.456 89.8916 220.18 92.668 222.946C93.6877 224.008 95.0564 224.668 96.5235 224.804H96.5053Z" fill="#F9F9F9"/>
        <path d="M96.5235 224.804C95.0736 224.656 93.7238 223.998 92.7165 222.946C89.9401 220.18 87.1152 217.456 84.4055 214.623C81.8473 211.948 81.7442 208.57 83.9993 206.288C86.2543 204.006 89.5097 204.042 92.3831 206.439C94.0259 207.813 95.2201 210.749 97.2327 210.368C99.0513 210.011 100.47 207.559 102.034 206.004C104.822 203.243 107.55 200.423 110.375 197.705C113.2 194.987 116.613 194.775 118.989 197.045C121.517 199.466 121.372 202.832 118.42 205.828C112.849 211.488 107.193 217.069 101.567 222.686C100.921 223.37 100.138 223.912 99.2695 224.277C98.401 224.642 97.4656 224.822 96.5235 224.804V224.804ZM87.9275 206.99C87.3478 207.006 86.7845 207.185 86.302 207.507C85.8195 207.828 85.4375 208.278 85.1996 208.806C84.8923 209.504 84.8124 210.28 84.9712 211.025C85.13 211.77 85.5195 212.447 86.0846 212.959C88.7519 215.682 91.4314 218.406 94.1835 221.033C96.0021 222.77 97.948 222.819 99.7666 221.033C105.473 215.384 111.157 209.71 116.819 204.012C118.316 202.505 119.026 200.732 117.304 198.988C115.485 197.124 113.667 197.887 112.085 199.509C108.823 202.777 105.562 206.052 102.276 209.29C100.567 210.973 98.9058 213.739 97.0145 213.921C95.1231 214.103 93.5834 210.973 91.8011 209.393C90.7221 208.382 89.7885 207.093 87.9275 206.99V206.99Z" fill="#10106E"/>
        <path d="M87.9276 206.99C89.7886 207.093 90.6919 208.382 91.8012 209.375C93.5835 210.955 95.0444 214.09 97.0146 213.903C98.9847 213.715 100.567 210.955 102.276 209.272C105.562 206.034 108.823 202.759 112.085 199.491C113.697 197.868 115.467 197.106 117.304 198.97C119.026 200.713 118.317 202.487 116.819 203.994C111.161 209.692 105.477 215.366 99.7667 221.015C97.9481 222.831 95.9901 222.77 94.1836 221.015C91.4314 218.376 88.7277 215.664 86.0847 212.94C85.5196 212.428 85.1301 211.752 84.9713 211.007C84.8124 210.262 84.8923 209.485 85.1996 208.788C85.4401 208.263 85.8233 207.817 86.3056 207.499C86.7879 207.181 87.3499 207.005 87.9276 206.99Z" fill="white"/>
        <path d="M102.586 246.982H102.464C97.3955 246.993 92.3748 246 87.6926 244.061C83.0103 242.122 78.7593 239.276 75.1852 235.687C71.6112 232.11 68.7826 227.861 66.8628 223.186C64.9431 218.511 63.9703 213.502 64.0007 208.449C63.9869 203.391 64.9762 198.379 66.9114 193.704C68.8466 189.029 71.6895 184.783 75.2761 181.211C78.8546 177.633 83.1083 174.801 87.7909 172.877C92.4734 170.952 97.4917 169.975 102.555 170V170C112.772 170.025 122.561 174.095 129.776 181.318C136.99 188.541 141.04 198.326 141.037 208.528C141.049 213.59 140.054 218.605 138.11 223.281C136.166 227.956 133.312 232.2 129.713 235.766C126.157 239.332 121.929 242.159 117.273 244.084C112.617 246.009 107.625 246.994 102.586 246.982V246.982ZM102.549 171.804C97.7283 171.785 92.9514 172.72 88.4948 174.556C84.0382 176.392 79.9904 179.092 76.5855 182.5C73.1749 185.904 70.4721 189.948 68.6328 194.4C66.7934 198.851 65.8537 203.622 65.8678 208.437V208.437C65.8364 213.254 66.7622 218.029 68.5915 222.486C70.4208 226.944 73.1172 230.994 76.5249 234.404C79.9272 237.822 83.974 240.533 88.4314 242.38C92.8888 244.227 97.6686 245.174 102.495 245.166H102.61C107.406 245.181 112.159 244.248 116.592 242.419C121.025 240.591 125.052 237.904 128.44 234.513C131.871 231.111 134.591 227.061 136.441 222.6C138.291 218.14 139.235 213.356 139.218 208.528C139.228 198.808 135.376 189.482 128.507 182.595C121.638 175.708 112.314 171.823 102.58 171.792L102.549 171.804Z" fill="#100E6D"/>
    </g>
    <ellipse cx="161.5" cy="281" rx="65.5" ry="8" fill="#181B5E"/>
    <defs>
        <filter id="filter0_d" x="64" y="48.5" width="169.5" height="206.482" filterUnits="userSpaceOnUse" color-interpolation-filters="sRGB">
            <feFlood flood-opacity="0" result="BackgroundImageFix"/>
            <feColorMatrix in="SourceAlpha" type="matrix" values="0 0 0 0 0 0 0 0 0 0 0 0 0 0 0 0 0 0 127 0" result="hardAlpha"/>
            <feOffset dy="8"/>
            <feComposite in2="hardAlpha" operator="out"/>
            <feColorMatrix type="matrix" values="0 0 0 0 0 0 0 0 0 0 0 0 0 0 0 0 0 0 0.15 0"/>
            <feBlend mode="normal" in2="BackgroundImageFix" result="effect1_dropShadow"/>
            <feBlend mode="normal" in="SourceGraphic" in2="effect1_dropShadow" result="shape"/>
        </filter>
    </defs>
</svg>
