<svg width="319" height="327" viewBox="0 0 319 327" fill="none" xmlns="http://www.w3.org/2000/svg">
    <circle cx="159.5" cy="167.5" r="157.5" fill="#F9F9F9" stroke="#FF7E79" stroke-width="4"/>
    <ellipse cx="159.5" cy="295" rx="65.5" ry="8" fill="#181B5E"/>
    <g filter="url(#filter0_d)">
        <path d="M86.676 17.6223C90.1123 5.55102 97.4256 0 110.025 0C142.45 0 174.787 0 207.212 0C219.812 0 227.037 5.55102 230.562 17.6223C230.65 44.9368 230.738 72.2514 230.738 99.5659C230.738 144.679 230.65 189.88 230.826 234.993C230.826 243.188 228.535 250.148 222.015 255.523C217.874 258.343 213.38 259.4 208.358 259.4C175.228 259.312 142.098 259.312 108.88 259.4C103.858 259.4 99.364 258.343 95.2228 255.523C88.7025 250.236 86.4116 243.276 86.4116 234.993C86.4997 164.856 86.4997 94.7198 86.4997 24.5831C86.4997 22.2922 86.5878 19.9132 86.676 17.6223ZM90.0242 129.876C90.0242 164.68 90.0242 199.484 90.0242 234.288C90.0242 249.355 96.6325 255.964 111.7 255.964C142.979 255.964 174.171 255.964 205.45 255.964C207.212 255.964 208.975 255.876 210.737 255.699C220.782 254.466 227.214 247.593 227.214 237.46C227.302 165.826 227.302 94.103 227.214 22.4684C227.214 10.8377 219.724 3.61257 208.182 3.61257C175.14 3.61257 142.186 3.61257 109.144 3.61257C107.118 3.61257 105.091 3.61257 103.065 4.22935C94.606 6.9608 90.0242 13.481 90.0242 23.3495C90.0242 58.7703 90.0242 94.3673 90.0242 129.876Z" fill="#0A0977"/>
        <path d="M90.0241 129.876C90.0241 94.3673 90.0241 58.7703 90.0241 23.2614C90.0241 13.3929 94.6059 6.87265 103.065 4.14119C105.091 3.52441 107.03 3.52441 109.056 3.52441C142.098 3.52441 175.052 3.52441 208.093 3.52441C219.636 3.52441 227.126 10.8377 227.126 22.3803C227.214 94.0148 227.214 165.738 227.126 237.372C227.126 247.505 220.693 254.466 210.649 255.611C208.886 255.787 207.124 255.875 205.362 255.875C174.082 255.875 142.891 255.875 111.611 255.875C96.5444 255.875 89.936 249.267 89.936 234.2C90.0241 199.484 90.0241 164.68 90.0241 129.876ZM215.495 125.559C215.495 96.9225 215.407 68.1982 215.583 39.562C215.583 35.597 214.79 34.011 210.296 34.011C175.845 34.1872 141.305 34.1872 106.853 34.011C102.36 34.011 101.567 35.5089 101.567 39.562C101.655 97.0987 101.655 154.547 101.567 212.084C101.567 216.402 102.888 217.459 107.03 217.459C141.393 217.283 175.757 217.283 210.032 217.459C214.173 217.459 215.583 216.402 215.583 212.084C215.407 183.184 215.495 154.371 215.495 125.559ZM170.382 236.755C170.47 230.323 165.359 224.948 158.927 224.772C152.319 224.596 146.856 229.883 146.768 236.491C146.68 242.923 151.79 248.298 158.222 248.474C164.831 248.65 170.294 243.364 170.382 236.755ZM169.06 20.3537C174.347 20.3537 179.633 20.3537 184.832 20.3537C186.066 20.3537 187.74 20.618 187.652 18.5915C187.563 17.0936 186.242 16.8292 185.096 16.8292C174.523 16.8292 164.038 16.8292 153.464 16.8292C152.231 16.8292 150.909 17.1817 150.821 18.5915C150.733 20.5299 152.407 20.3537 153.641 20.3537C158.751 20.4418 163.95 20.3537 169.06 20.3537ZM134.256 14.3621C131.437 14.7146 129.674 16.2125 129.762 18.9439C129.851 21.6754 131.613 23.2614 134.432 23.0851C136.899 22.9089 138.485 21.4991 138.485 18.8558C138.485 15.9481 136.635 14.7146 134.256 14.3621Z" fill="#FAFAFC"/>
        <path d="M215.495 125.559C215.495 154.371 215.407 183.184 215.583 211.996C215.583 216.313 214.261 217.371 210.032 217.371C175.669 217.195 141.305 217.195 107.03 217.371C102.8 217.371 101.567 216.313 101.567 211.996C101.743 154.459 101.655 97.0106 101.567 39.4739C101.567 35.5089 102.36 33.9229 106.854 33.9229C141.305 34.0991 175.845 34.0991 210.296 33.9229C214.79 33.9229 215.583 35.5089 215.583 39.4739C215.407 68.1982 215.495 96.9225 215.495 125.559Z" fill="#0A0977"/>
        <path d="M211.97 209.089C211.97 212.613 211.177 213.847 207.389 213.758C174.876 213.582 142.274 213.582 109.673 213.758C105.884 213.758 105.091 212.613 105.091 209.089C105.268 181.333 105.179 153.49 105.179 125.735C105.179 97.8038 105.268 69.8725 105.091 41.9412C105.091 38.5049 105.972 37.5356 109.409 37.5356C142.098 37.6238 174.787 37.6238 207.565 37.5356C211.089 37.5356 211.97 38.5049 211.97 41.9412C211.882 97.7157 211.882 153.402 211.97 209.089Z" fill="#F9F9F9"/>
        <path d="M170.382 236.755C170.294 243.364 164.831 248.65 158.222 248.474C151.79 248.298 146.68 242.923 146.768 236.491C146.856 229.882 152.319 224.508 158.927 224.772C165.359 224.948 170.47 230.323 170.382 236.755ZM158.751 228.385C154.257 228.297 150.292 232.085 150.204 236.579C150.116 240.985 154.081 244.95 158.575 244.95C162.892 244.95 166.681 241.337 166.857 236.931C167.034 232.438 163.245 228.473 158.751 228.385Z" fill="#0A0977"/>
        <path d="M169.06 20.3538C163.95 20.3538 158.839 20.3538 153.729 20.3538C152.495 20.3538 150.821 20.4419 150.909 18.5916C150.997 17.2699 152.319 16.8293 153.553 16.8293C164.126 16.8293 174.611 16.8293 185.185 16.8293C186.418 16.8293 187.652 17.0937 187.74 18.5916C187.828 20.6181 186.154 20.3538 184.92 20.3538C179.546 20.4419 174.259 20.3538 169.06 20.3538Z" fill="#17167E"/>
        <path d="M134.256 14.3621C136.723 14.7145 138.485 15.9481 138.485 18.8557C138.485 21.4991 136.988 22.997 134.432 23.0851C131.701 23.2613 129.939 21.6753 129.762 18.9439C129.674 16.2124 131.437 14.7145 134.256 14.3621Z" fill="#0A0977"/>
        <path d="M158.751 228.385C163.245 228.473 167.033 232.526 166.857 236.931C166.681 241.249 162.98 244.95 158.575 244.95C154.081 244.95 150.204 240.985 150.204 236.579C150.292 232.085 154.345 228.208 158.751 228.385Z" fill="#FAFAFC"/>
        <path d="M136.371 109.17C140.865 105.469 141.834 100.976 142.274 96.2177C142.979 87.759 149.147 81.5912 157.43 80.9744C165.536 80.3577 172.937 85.6443 174.611 93.6625C175.845 99.4778 174.788 105.293 173.113 110.844C166.946 131.903 147.649 146.089 125.71 145.824C124.564 145.824 122.361 146.617 122.361 144.767C122.361 142.829 124.476 143.886 125.71 143.886C151.614 144.15 173.113 123.268 173.113 97.5394C173.113 89.7856 167.122 83.3534 159.456 83.001C151.526 82.6485 144.918 88.2877 144.389 96.2177C143.949 102.474 142.098 107.937 136.723 111.725C131.613 115.338 125.974 115.867 120.07 113.928C119.277 113.664 118.925 113.311 118.925 112.518C119.189 104.5 118.132 96.482 119.982 88.552C123.507 72.7801 137.605 60.092 152.936 58.1536C170.999 55.8627 187.211 65.643 194.348 80.2695C199.371 90.5786 198.842 101.152 196.551 111.902C195.318 117.541 193.291 122.827 190.736 128.202C192.674 128.819 194.348 128.114 196.022 128.026C196.815 128.026 197.873 127.497 198.137 128.731C198.313 129.876 197.168 129.964 196.375 130.052C189.502 131.11 182.894 130.581 176.638 127.409C176.021 127.057 175.228 125.999 174.435 127.057C173.554 128.378 172.32 129.524 171.968 131.11C171.88 131.286 172.849 131.815 173.29 132.079C179.898 135.515 187.035 136.485 194.436 136.044C194.877 136.044 195.318 135.956 195.67 135.868C196.375 135.78 197.168 135.868 197.256 136.661C197.432 137.806 196.551 137.806 195.758 137.894C190.824 138.687 185.978 138.071 181.132 137.013C178.048 136.397 175.14 135.339 172.409 133.753C170.823 132.872 169.765 132.784 168.708 134.37C168.091 135.251 167.298 136.044 166.417 137.013C171.351 140.185 176.638 142.212 182.365 143.093C185.625 143.622 188.885 143.798 192.234 143.798C193.115 143.798 194.701 143.181 194.701 144.679C194.701 146.265 193.115 145.824 192.146 145.824C183.07 146.089 174.523 144.062 166.593 139.569C165.888 139.216 165.272 138.247 164.39 138.864C163.069 139.833 161.747 140.802 160.778 142.036C160.249 142.652 161.483 143.005 161.923 143.269C168.267 147.146 175.14 149.613 182.541 150.759C184.48 151.023 186.418 151.199 188.357 151.375C189.15 151.464 190.295 151.375 190.295 152.521C190.295 153.754 189.15 153.49 188.357 153.402C179.986 152.961 171.88 151.111 164.567 146.882C160.425 144.415 157.342 143.886 152.936 146.706C145.887 151.199 137.605 152.697 129.234 153.314C128.353 153.402 126.855 154.019 126.591 152.697C126.326 151.111 128 151.375 128.97 151.287C140.777 150.318 151.614 146.794 160.866 139.04C171.351 130.317 177.695 119.215 179.722 105.734C180.427 100.888 181.044 96.0415 179.634 91.1954C176.902 81.5031 167.739 74.8947 157.518 75.2472C147.297 75.5996 138.486 82.8248 136.547 92.6932C135.93 97.8918 136.547 103.267 136.371 109.17ZM182.453 127.233C183.334 127.409 184.127 127.585 184.832 127.85C187.299 128.555 188.709 127.85 189.855 125.294C193.291 117.453 195.494 109.434 196.111 100.976C196.727 92.2527 195.229 83.9702 190.119 76.657C180.867 63.6165 168.179 57.6249 152.319 60.2682C137.869 62.6473 128.177 71.3703 122.978 84.9394C119.718 93.3981 121.128 102.297 121.128 111.02C121.128 113.135 123.859 112.606 125.445 112.783C127.119 113.047 126.503 111.637 126.591 110.932C126.767 104.941 126.238 98.9492 126.943 92.9576C128.793 78.243 141.393 66.5242 156.02 65.4668C174.699 64.1452 187.035 77.8024 189.59 89.6975C191.441 98.1562 189.943 106.262 187.74 114.369C186.595 118.95 184.568 123.004 182.453 127.233ZM128.705 103.09C128.705 105.822 128.705 108.465 128.705 111.197C128.705 111.725 128.353 112.43 129.234 112.606C131.261 113.135 134.344 110.58 134.344 108.465C134.433 103.531 134.08 98.6848 134.609 93.7506C135.93 82.208 146.592 73.0444 158.751 73.1325C170.734 73.2206 181.484 82.3842 182.541 93.8387C183.511 103.883 181.308 113.488 176.902 122.475C176.021 124.325 176.462 124.854 178.048 125.559C179.634 126.352 180.603 126.528 181.572 124.59C185.625 116.571 188.004 108.113 188.533 99.1254C189.414 83.794 178.488 69.8724 163.862 67.6696C147.737 65.2025 133.111 74.9829 129.41 90.6667C128.441 94.8079 128.705 98.9492 128.705 103.09Z" fill="#0D0D79"/>
        <path d="M126.326 138.247C124.652 138.07 122.978 137.894 121.304 137.718C120.511 137.63 119.63 137.63 119.806 136.573C119.982 135.515 120.863 135.691 121.656 135.78C126.943 136.484 132.142 136.044 137.252 134.634C153.553 130.229 165.624 114.192 165.36 97.3629C165.272 93.5742 162.54 90.7546 158.928 90.5784C155.227 90.4021 152.231 93.2217 152.055 97.1867C151.526 107.584 146.944 115.338 137.516 120.096C132.318 122.739 126.679 123.268 120.952 122.034C120.159 121.858 118.925 121.858 119.189 120.712C119.454 119.391 120.599 119.919 121.48 120.096C134.344 122.563 146.063 115.25 149.147 102.738C149.588 100.887 149.764 98.949 149.852 97.0105C150.204 92.1644 154.081 88.3756 158.839 88.5518C163.597 88.728 167.298 92.6049 167.298 97.5392C167.386 117.805 151.879 135.163 131.613 137.718C129.939 137.894 128.177 138.07 126.326 138.247Z" fill="#0D0D79"/>
        <path d="M125.709 130.405C124.652 130.317 122.714 130.141 120.775 129.876C119.982 129.788 118.837 129.7 119.101 128.467C119.277 127.409 120.246 127.762 121.039 127.85C125.886 128.643 130.644 128.29 135.314 126.969C147.649 123.532 156.901 111.99 157.606 99.2136C157.606 98.5968 157.606 98.0681 157.694 97.4514C157.694 96.7465 158.046 96.3059 158.751 96.3059C159.456 96.394 159.72 96.9227 159.72 97.5395C159.544 99.566 159.456 101.593 159.104 103.531C156.108 118.951 142.274 130.317 125.709 130.405Z" fill="#0F0F7A"/>
        <path d="M182.718 159.394C175.581 158.777 168.796 157.103 162.54 154.019C159.809 152.697 157.606 152.609 154.874 153.931C148.53 157.103 141.746 158.777 134.697 159.394C133.992 159.482 132.758 160.01 132.582 158.777C132.406 157.455 133.728 157.543 134.521 157.455C142.539 156.662 150.028 154.283 157.165 150.671C158.311 150.142 159.192 150.23 160.249 150.759C167.298 154.283 174.788 156.662 182.718 157.455C183.599 157.543 184.92 157.455 184.832 158.689C184.656 160.01 183.422 159.306 182.718 159.394Z" fill="#0D0D7A"/>
        <path d="M173.025 165.561C168.884 164.945 164.655 163.799 160.602 162.037C159.28 161.42 158.134 161.42 156.725 162.037C152.76 163.799 148.618 164.856 144.301 165.473C143.596 165.561 142.627 166.002 142.363 164.945C142.098 163.887 143.156 163.799 143.86 163.623C148.53 162.742 153.024 161.42 157.341 159.482C158.134 159.129 158.928 159.129 159.809 159.482C164.126 161.332 168.708 162.742 173.29 163.623C173.995 163.711 174.964 163.799 174.788 164.945C174.699 165.914 173.818 165.649 173.025 165.561Z" fill="#0D0D79"/>
        <path d="M158.663 168.909C157.165 168.909 155.667 168.909 154.081 168.909C153.376 168.909 152.672 168.821 152.583 167.94C152.495 166.971 153.288 166.883 153.993 166.883C157.077 166.883 160.249 166.883 163.333 166.883C164.038 166.883 164.743 167.059 164.655 167.94C164.567 168.821 163.774 168.909 163.157 168.909C161.659 168.909 160.161 168.909 158.663 168.909Z" fill="#12137C"/>
    </g>
    <defs>
        <filter id="filter0_d" x="86.4116" y="0" width="144.415" height="267.4" filterUnits="userSpaceOnUse" color-interpolation-filters="sRGB">
            <feFlood flood-opacity="0" result="BackgroundImageFix"/>
            <feColorMatrix in="SourceAlpha" type="matrix" values="0 0 0 0 0 0 0 0 0 0 0 0 0 0 0 0 0 0 127 0" result="hardAlpha"/>
            <feOffset dy="8"/>
            <feComposite in2="hardAlpha" operator="out"/>
            <feColorMatrix type="matrix" values="0 0 0 0 0 0 0 0 0 0 0 0 0 0 0 0 0 0 0.15 0"/>
            <feBlend mode="normal" in2="BackgroundImageFix" result="effect1_dropShadow"/>
            <feBlend mode="normal" in="SourceGraphic" in2="effect1_dropShadow" result="shape"/>
        </filter>
    </defs>
</svg>
